<?xml version="1.0" standalone="no"?>
<!DOCTYPE svg PUBLIC "-//W3C//DTD SVG 1.1//EN" "http://www.w3.org/Graphics/SVG/1.1/DTD/svg11.dtd">
<svg xmlns="http://www.w3.org/2000/svg" version="1.1" width="492px" height="80.5px" viewBox="0 0 492 80.5">
  <desc>Layout High priority controls should be located so that they are easily seen and easily accessed. (The optimum reach ...</desc>
  <defs/>
  <g id="Polygon117429">
    <path d="M 6.5 55 C 6.5 53.5 7.6 52.4 9.1 52.4 C 10.7 52.4 11.8 53.5 11.8 55 C 11.8 56.6 10.7 57.7 9.1 57.7 C 7.6 57.7 6.5 56.6 6.5 55 Z M 11.1 55 C 11.1 53.8 10.3 53 9.1 53 C 8 53 7.2 53.8 7.2 55 C 7.2 56.3 8 57.1 9.1 57.1 C 10.3 57.1 11.1 56.3 11.1 55 Z M 18.6 55.1 C 18.6 56.7 17.4 57.7 15.9 57.7 C 15.1 57.7 14.4 57.4 13.9 56.7 C 13.95 56.69 13.9 59.6 13.9 59.6 L 13.2 59.6 L 13.2 52.4 L 13.9 52.4 C 13.9 52.4 13.92 53.46 13.9 53.5 C 14.3 52.8 15.1 52.4 15.9 52.4 C 17.4 52.4 18.6 53.5 18.6 55.1 Z M 17.9 55 C 17.9 53.8 17 53 15.9 53 C 14.8 53 13.9 53.8 13.9 55 C 13.9 56.3 14.8 57.1 15.9 57.1 C 17 57.1 17.9 56.3 17.9 55 Z M 22.7 57.4 C 22.4 57.6 22 57.7 21.6 57.7 C 20.6 57.7 20.1 57.2 20.1 56.2 C 20.07 56.2 20.1 53 20.1 53 L 19.1 53 L 19.1 52.4 L 20.1 52.4 L 20.1 51.3 L 20.8 51.3 L 20.8 52.4 L 22.4 52.4 L 22.4 53 L 20.8 53 C 20.8 53 20.78 56.16 20.8 56.2 C 20.8 56.8 21.1 57.1 21.7 57.1 C 22 57.1 22.3 57 22.5 56.9 C 22.5 56.9 22.7 57.4 22.7 57.4 Z M 23.8 50.8 C 23.8 50.5 24 50.3 24.3 50.3 C 24.6 50.3 24.8 50.5 24.8 50.7 C 24.8 51 24.6 51.3 24.3 51.3 C 24 51.3 23.8 51 23.8 50.8 Z M 23.9 52.4 L 24.6 52.4 L 24.6 57.7 L 23.9 57.7 L 23.9 52.4 Z M 35.1 54.6 C 35.14 54.63 35.1 57.7 35.1 57.7 L 34.4 57.7 C 34.4 57.7 34.43 54.7 34.4 54.7 C 34.4 53.6 33.9 53 32.9 53 C 31.8 53 31.2 53.7 31.2 54.9 C 31.16 54.92 31.2 57.7 31.2 57.7 L 30.5 57.7 C 30.5 57.7 30.45 54.7 30.5 54.7 C 30.5 53.6 29.9 53 28.9 53 C 27.9 53 27.2 53.7 27.2 54.9 C 27.17 54.92 27.2 57.7 27.2 57.7 L 26.5 57.7 L 26.5 52.4 L 27.1 52.4 C 27.1 52.4 27.14 53.38 27.1 53.4 C 27.5 52.7 28.2 52.4 29.1 52.4 C 29.9 52.4 30.6 52.7 30.9 53.5 C 31.3 52.8 32.1 52.4 33 52.4 C 34.3 52.4 35.1 53.1 35.1 54.6 Z M 41.7 52.4 L 41.7 57.7 L 41 57.7 C 41 57.7 41 56.72 41 56.7 C 40.6 57.4 39.9 57.7 39.1 57.7 C 37.8 57.7 36.9 57 36.9 55.5 C 36.89 55.47 36.9 52.4 36.9 52.4 L 37.6 52.4 C 37.6 52.4 37.6 55.4 37.6 55.4 C 37.6 56.5 38.2 57.1 39.2 57.1 C 40.3 57.1 41 56.4 41 55.2 C 40.97 55.18 41 52.4 41 52.4 L 41.7 52.4 Z M 52.2 54.6 C 52.22 54.63 52.2 57.7 52.2 57.7 L 51.5 57.7 C 51.5 57.7 51.51 54.7 51.5 54.7 C 51.5 53.6 50.9 53 50 53 C 48.9 53 48.2 53.7 48.2 54.9 C 48.24 54.92 48.2 57.7 48.2 57.7 L 47.5 57.7 C 47.5 57.7 47.53 54.7 47.5 54.7 C 47.5 53.6 47 53 46 53 C 44.9 53 44.2 53.7 44.2 54.9 C 44.25 54.92 44.2 57.7 44.2 57.7 L 43.5 57.7 L 43.5 52.4 L 44.2 52.4 C 44.2 52.4 44.22 53.38 44.2 53.4 C 44.6 52.7 45.3 52.4 46.1 52.4 C 47 52.4 47.7 52.7 48 53.5 C 48.4 52.8 49.1 52.4 50.1 52.4 C 51.4 52.4 52.2 53.1 52.2 54.6 Z M 59.4 52.4 C 59.4 52.4 59.4 53.1 59.4 53.1 C 59.4 53.1 59.3 53.1 59.2 53.1 C 58.1 53.1 57.5 53.8 57.5 55 C 57.48 55 57.5 57.7 57.5 57.7 L 56.8 57.7 L 56.8 52.4 L 57.4 52.4 C 57.4 52.4 57.45 53.45 57.4 53.4 C 57.8 52.7 58.4 52.4 59.4 52.4 Z M 65.2 55.3 C 65.2 55.3 60.8 55.3 60.8 55.3 C 60.8 56.4 61.7 57.1 62.8 57.1 C 63.5 57.1 64 56.9 64.4 56.4 C 64.4 56.4 64.8 56.9 64.8 56.9 C 64.4 57.4 63.6 57.7 62.8 57.7 C 61.2 57.7 60.1 56.6 60.1 55 C 60.1 53.5 61.1 52.4 62.6 52.4 C 64.1 52.4 65.2 53.5 65.2 55 C 65.2 55.1 65.2 55.2 65.2 55.3 Z M 60.8 54.7 C 60.8 54.7 64.5 54.7 64.5 54.7 C 64.4 53.7 63.7 53 62.6 53 C 61.6 53 60.9 53.7 60.8 54.7 Z M 70.6 54.4 C 70.55 54.42 70.6 57.7 70.6 57.7 L 69.9 57.7 C 69.9 57.7 69.87 56.86 69.9 56.9 C 69.6 57.4 68.9 57.7 68.1 57.7 C 66.9 57.7 66.1 57.1 66.1 56.2 C 66.1 55.4 66.7 54.7 68.2 54.7 C 68.17 54.71 69.8 54.7 69.8 54.7 C 69.8 54.7 69.84 54.39 69.8 54.4 C 69.8 53.5 69.3 53 68.4 53 C 67.7 53 67 53.2 66.6 53.6 C 66.6 53.6 66.3 53.1 66.3 53.1 C 66.8 52.6 67.6 52.4 68.4 52.4 C 69.8 52.4 70.6 53.1 70.6 54.4 Z M 69.8 56.1 C 69.84 56.1 69.8 55.2 69.8 55.2 C 69.8 55.2 68.19 55.24 68.2 55.2 C 67.2 55.2 66.8 55.6 66.8 56.2 C 66.8 56.8 67.3 57.2 68.2 57.2 C 69 57.2 69.6 56.8 69.8 56.1 Z M 71.9 55 C 71.9 53.5 73.1 52.4 74.6 52.4 C 75.5 52.4 76.3 52.7 76.7 53.4 C 76.7 53.4 76.2 53.8 76.2 53.8 C 75.8 53.2 75.2 53 74.6 53 C 73.5 53 72.6 53.8 72.6 55 C 72.6 56.3 73.5 57.1 74.6 57.1 C 75.2 57.1 75.8 56.9 76.2 56.3 C 76.2 56.3 76.7 56.7 76.7 56.7 C 76.3 57.4 75.5 57.7 74.6 57.7 C 73.1 57.7 71.9 56.6 71.9 55 Z M 82.9 54.6 C 82.85 54.63 82.9 57.7 82.9 57.7 L 82.1 57.7 C 82.1 57.7 82.14 54.7 82.1 54.7 C 82.1 53.6 81.6 53 80.6 53 C 79.4 53 78.7 53.7 78.7 54.9 C 78.72 54.92 78.7 57.7 78.7 57.7 L 78 57.7 L 78 50.3 L 78.7 50.3 C 78.7 50.3 78.72 53.34 78.7 53.3 C 79.1 52.7 79.8 52.4 80.7 52.4 C 82 52.4 82.9 53.1 82.9 54.6 Z M 92 55.3 C 92 55.3 87.6 55.3 87.6 55.3 C 87.7 56.4 88.5 57.1 89.7 57.1 C 90.3 57.1 90.9 56.9 91.3 56.4 C 91.3 56.4 91.7 56.9 91.7 56.9 C 91.2 57.4 90.5 57.7 89.6 57.7 C 88 57.7 86.9 56.6 86.9 55 C 86.9 53.5 88 52.4 89.4 52.4 C 90.9 52.4 92 53.5 92 55 C 92 55.1 92 55.2 92 55.3 Z M 87.6 54.7 C 87.6 54.7 91.3 54.7 91.3 54.7 C 91.2 53.7 90.5 53 89.4 53 C 88.4 53 87.7 53.7 87.6 54.7 Z M 98.2 54.6 C 98.24 54.63 98.2 57.7 98.2 57.7 L 97.5 57.7 C 97.5 57.7 97.53 54.7 97.5 54.7 C 97.5 53.6 96.9 53 95.9 53 C 94.8 53 94.1 53.7 94.1 54.9 C 94.11 54.92 94.1 57.7 94.1 57.7 L 93.4 57.7 L 93.4 52.4 L 94.1 52.4 C 94.1 52.4 94.08 53.39 94.1 53.4 C 94.5 52.7 95.2 52.4 96.1 52.4 C 97.4 52.4 98.2 53.1 98.2 54.6 Z M 104.4 52.4 L 102 57.7 L 101.3 57.7 L 99 52.4 L 99.7 52.4 L 101.7 56.9 L 103.7 52.4 L 104.4 52.4 Z M 109.9 55.3 C 109.9 55.3 105.5 55.3 105.5 55.3 C 105.5 56.4 106.4 57.1 107.5 57.1 C 108.2 57.1 108.7 56.9 109.1 56.4 C 109.1 56.4 109.5 56.9 109.5 56.9 C 109.1 57.4 108.3 57.7 107.5 57.7 C 105.9 57.7 104.8 56.6 104.8 55 C 104.8 53.5 105.8 52.4 107.3 52.4 C 108.8 52.4 109.9 53.5 109.9 55 C 109.9 55.1 109.9 55.2 109.9 55.3 Z M 105.5 54.7 C 105.5 54.7 109.2 54.7 109.2 54.7 C 109.1 53.7 108.4 53 107.3 53 C 106.3 53 105.6 53.7 105.5 54.7 Z M 111.3 50.3 L 112 50.3 L 112 57.7 L 111.3 57.7 L 111.3 50.3 Z M 113.4 55 C 113.4 53.5 114.6 52.4 116.1 52.4 C 117.6 52.4 118.8 53.5 118.8 55 C 118.8 56.6 117.6 57.7 116.1 57.7 C 114.6 57.7 113.4 56.6 113.4 55 Z M 118.1 55 C 118.1 53.8 117.2 53 116.1 53 C 115 53 114.1 53.8 114.1 55 C 114.1 56.3 115 57.1 116.1 57.1 C 117.2 57.1 118.1 56.3 118.1 55 Z M 125.5 55.1 C 125.5 56.7 124.4 57.7 122.9 57.7 C 122.1 57.7 121.3 57.4 120.9 56.7 C 120.91 56.69 120.9 59.6 120.9 59.6 L 120.2 59.6 L 120.2 52.4 L 120.9 52.4 C 120.9 52.4 120.88 53.46 120.9 53.5 C 121.3 52.8 122 52.4 122.9 52.4 C 124.4 52.4 125.5 53.5 125.5 55.1 Z M 124.8 55 C 124.8 53.8 124 53 122.9 53 C 121.7 53 120.9 53.8 120.9 55 C 120.9 56.3 121.7 57.1 122.9 57.1 C 124 57.1 124.8 56.3 124.8 55 Z M 131.6 55.3 C 131.6 55.3 127.2 55.3 127.2 55.3 C 127.3 56.4 128.2 57.1 129.3 57.1 C 130 57.1 130.5 56.9 130.9 56.4 C 130.9 56.4 131.3 56.9 131.3 56.9 C 130.9 57.4 130.1 57.7 129.3 57.7 C 127.7 57.7 126.5 56.6 126.5 55 C 126.5 53.5 127.6 52.4 129.1 52.4 C 130.6 52.4 131.7 53.5 131.7 55 C 131.7 55.1 131.6 55.2 131.6 55.3 Z M 127.2 54.7 C 127.2 54.7 131 54.7 131 54.7 C 130.9 53.7 130.1 53 129.1 53 C 128.1 53 127.3 53.7 127.2 54.7 Z M 132.3 59.6 C 133.1 58.2 133.4 56.7 133.4 54.9 C 133.4 53.2 133.1 51.6 132.3 50.3 C 132.3 50.3 132.9 50.3 132.9 50.3 C 133.7 51.5 134.1 53.1 134.1 54.9 C 134.1 56.8 133.7 58.4 132.9 59.6 C 132.9 59.6 132.3 59.6 132.3 59.6 Z M 135.5 57.2 C 135.5 56.9 135.7 56.6 136 56.6 C 136.3 56.6 136.6 56.9 136.6 57.2 C 136.6 57.5 136.3 57.7 136 57.7 C 135.7 57.7 135.5 57.5 135.5 57.2 Z M 145.2 55.8 L 141.3 55.8 L 140.5 57.7 L 139.7 57.7 L 142.9 50.7 L 143.7 50.7 L 146.9 57.7 L 146.1 57.7 L 145.2 55.8 Z M 145 55.2 L 143.3 51.4 L 141.6 55.2 L 145 55.2 Z M 147.9 50.3 L 148.7 50.3 L 148.7 57.7 L 147.9 57.7 L 147.9 50.3 Z M 150.5 50.3 L 151.2 50.3 L 151.2 57.7 L 150.5 57.7 L 150.5 50.3 Z M 155.3 55 C 155.3 53.5 156.4 52.4 158 52.4 C 158.9 52.4 159.6 52.7 160 53.4 C 160 53.4 159.5 53.8 159.5 53.8 C 159.2 53.2 158.6 53 158 53 C 156.8 53 156 53.8 156 55 C 156 56.3 156.8 57.1 158 57.1 C 158.6 57.1 159.2 56.9 159.5 56.3 C 159.5 56.3 160 56.7 160 56.7 C 159.6 57.4 158.9 57.7 158 57.7 C 156.4 57.7 155.3 56.6 155.3 55 Z M 160.8 55 C 160.8 53.5 162 52.4 163.5 52.4 C 165.1 52.4 166.2 53.5 166.2 55 C 166.2 56.6 165.1 57.7 163.5 57.7 C 162 57.7 160.8 56.6 160.8 55 Z M 165.5 55 C 165.5 53.8 164.6 53 163.5 53 C 162.4 53 161.6 53.8 161.6 55 C 161.6 56.3 162.4 57.1 163.5 57.1 C 164.6 57.1 165.5 56.3 165.5 55 Z M 172.4 54.6 C 172.45 54.63 172.4 57.7 172.4 57.7 L 171.7 57.7 C 171.7 57.7 171.74 54.7 171.7 54.7 C 171.7 53.6 171.2 53 170.2 53 C 169 53 168.3 53.7 168.3 54.9 C 168.32 54.92 168.3 57.7 168.3 57.7 L 167.6 57.7 L 167.6 52.4 L 168.3 52.4 C 168.3 52.4 168.29 53.39 168.3 53.4 C 168.7 52.7 169.4 52.4 170.3 52.4 C 171.6 52.4 172.4 53.1 172.4 54.6 Z M 177 57.4 C 176.7 57.6 176.3 57.7 175.9 57.7 C 174.9 57.7 174.3 57.2 174.3 56.2 C 174.33 56.2 174.3 53 174.3 53 L 173.4 53 L 173.4 52.4 L 174.3 52.4 L 174.3 51.3 L 175 51.3 L 175 52.4 L 176.6 52.4 L 176.6 53 L 175 53 C 175 53 175.04 56.16 175 56.2 C 175 56.8 175.4 57.1 175.9 57.1 C 176.2 57.1 176.5 57 176.7 56.9 C 176.7 56.9 177 57.4 177 57.4 Z M 180.8 52.4 C 180.8 52.4 180.8 53.1 180.8 53.1 C 180.8 53.1 180.7 53.1 180.6 53.1 C 179.5 53.1 178.9 53.8 178.9 55 C 178.88 55 178.9 57.7 178.9 57.7 L 178.2 57.7 L 178.2 52.4 L 178.8 52.4 C 178.8 52.4 178.85 53.45 178.8 53.4 C 179.2 52.7 179.8 52.4 180.8 52.4 Z M 181.4 55 C 181.4 53.5 182.6 52.4 184.1 52.4 C 185.7 52.4 186.8 53.5 186.8 55 C 186.8 56.6 185.7 57.7 184.1 57.7 C 182.6 57.7 181.4 56.6 181.4 55 Z M 186.1 55 C 186.1 53.8 185.2 53 184.1 53 C 183 53 182.2 53.8 182.2 55 C 182.2 56.3 183 57.1 184.1 57.1 C 185.2 57.1 186.1 56.3 186.1 55 Z M 188.2 50.3 L 188.9 50.3 L 188.9 57.7 L 188.2 57.7 L 188.2 50.3 Z M 190.2 57.1 C 190.2 57.1 190.5 56.5 190.5 56.5 C 191 56.9 191.7 57.1 192.4 57.1 C 193.4 57.1 193.8 56.8 193.8 56.3 C 193.8 54.9 190.4 56 190.4 53.9 C 190.4 53 191.1 52.4 192.5 52.4 C 193.2 52.4 193.9 52.6 194.3 52.9 C 194.3 52.9 194 53.4 194 53.4 C 193.6 53.1 193 53 192.5 53 C 191.5 53 191.1 53.4 191.1 53.9 C 191.1 55.3 194.5 54.2 194.5 56.2 C 194.5 57.1 193.7 57.7 192.4 57.7 C 191.5 57.7 190.6 57.4 190.2 57.1 Z M 197.7 57.1 C 197.7 57.1 198 56.5 198 56.5 C 198.5 56.9 199.2 57.1 199.9 57.1 C 200.9 57.1 201.3 56.8 201.3 56.3 C 201.3 54.9 197.9 56 197.9 53.9 C 197.9 53 198.7 52.4 200 52.4 C 200.7 52.4 201.4 52.6 201.9 52.9 C 201.9 52.9 201.5 53.4 201.5 53.4 C 201.1 53.1 200.5 53 200 53 C 199 53 198.6 53.4 198.6 53.9 C 198.6 55.3 202 54.2 202 56.2 C 202 57.1 201.2 57.7 199.9 57.7 C 199 57.7 198.2 57.4 197.7 57.1 Z M 208.2 54.6 C 208.19 54.63 208.2 57.7 208.2 57.7 L 207.5 57.7 C 207.5 57.7 207.48 54.7 207.5 54.7 C 207.5 53.6 206.9 53 205.9 53 C 204.8 53 204.1 53.7 204.1 54.9 C 204.06 54.92 204.1 57.7 204.1 57.7 L 203.3 57.7 L 203.3 50.3 L 204.1 50.3 C 204.1 50.3 204.06 53.34 204.1 53.3 C 204.4 52.7 205.1 52.4 206 52.4 C 207.3 52.4 208.2 53.1 208.2 54.6 Z M 209.6 55 C 209.6 53.5 210.7 52.4 212.3 52.4 C 213.8 52.4 214.9 53.5 214.9 55 C 214.9 56.6 213.8 57.7 212.3 57.7 C 210.7 57.7 209.6 56.6 209.6 55 Z M 214.2 55 C 214.2 53.8 213.4 53 212.3 53 C 211.1 53 210.3 53.8 210.3 55 C 210.3 56.3 211.1 57.1 212.3 57.1 C 213.4 57.1 214.2 56.3 214.2 55 Z M 221.1 52.4 L 221.1 57.7 L 220.4 57.7 C 220.4 57.7 220.4 56.72 220.4 56.7 C 220 57.4 219.3 57.7 218.5 57.7 C 217.2 57.7 216.3 57 216.3 55.5 C 216.29 55.47 216.3 52.4 216.3 52.4 L 217 52.4 C 217 52.4 217 55.4 217 55.4 C 217 56.5 217.6 57.1 218.6 57.1 C 219.7 57.1 220.4 56.4 220.4 55.2 C 220.37 55.18 220.4 52.4 220.4 52.4 L 221.1 52.4 Z M 222.9 50.3 L 223.6 50.3 L 223.6 57.7 L 222.9 57.7 L 222.9 50.3 Z M 230.4 50.3 L 230.4 57.7 L 229.7 57.7 C 229.7 57.7 229.73 56.64 229.7 56.6 C 229.3 57.3 228.6 57.7 227.7 57.7 C 226.2 57.7 225.1 56.6 225.1 55 C 225.1 53.5 226.2 52.4 227.7 52.4 C 228.5 52.4 229.3 52.7 229.7 53.4 C 229.7 53.42 229.7 50.3 229.7 50.3 L 230.4 50.3 Z M 229.7 55 C 229.7 53.8 228.9 53 227.8 53 C 226.6 53 225.8 53.8 225.8 55 C 225.8 56.3 226.6 57.1 227.8 57.1 C 228.9 57.1 229.7 56.3 229.7 55 Z M 240.3 55 C 240.3 56.6 239.2 57.7 237.7 57.7 C 236.9 57.7 236.1 57.3 235.7 56.6 C 235.69 56.64 235.7 57.7 235.7 57.7 L 235 57.7 L 235 50.3 L 235.7 50.3 C 235.7 50.3 235.72 53.42 235.7 53.4 C 236.2 52.7 236.9 52.4 237.7 52.4 C 239.2 52.4 240.3 53.5 240.3 55 Z M 239.6 55 C 239.6 53.8 238.8 53 237.7 53 C 236.6 53 235.7 53.8 235.7 55 C 235.7 56.3 236.6 57.1 237.7 57.1 C 238.8 57.1 239.6 56.3 239.6 55 Z M 246.5 55.3 C 246.5 55.3 242.1 55.3 242.1 55.3 C 242.1 56.4 243 57.1 244.1 57.1 C 244.8 57.1 245.3 56.9 245.7 56.4 C 245.7 56.4 246.1 56.9 246.1 56.9 C 245.7 57.4 244.9 57.7 244.1 57.7 C 242.5 57.7 241.4 56.6 241.4 55 C 241.4 53.5 242.4 52.4 243.9 52.4 C 245.4 52.4 246.5 53.5 246.5 55 C 246.5 55.1 246.5 55.2 246.5 55.3 Z M 242.1 54.7 C 242.1 54.7 245.8 54.7 245.8 54.7 C 245.7 53.7 245 53 243.9 53 C 242.9 53 242.2 53.7 242.1 54.7 Z M 258.3 52.4 L 256.3 57.7 L 255.6 57.7 L 253.9 53.4 L 252.3 57.7 L 251.6 57.7 L 249.6 52.4 L 250.3 52.4 L 252 56.9 L 253.7 52.4 L 254.3 52.4 L 255.9 56.9 L 257.6 52.4 L 258.3 52.4 Z M 259.2 50.8 C 259.2 50.5 259.4 50.3 259.7 50.3 C 260 50.3 260.2 50.5 260.2 50.7 C 260.2 51 260 51.3 259.7 51.3 C 259.4 51.3 259.2 51 259.2 50.8 Z M 259.4 52.4 L 260.1 52.4 L 260.1 57.7 L 259.4 57.7 L 259.4 52.4 Z M 264.8 57.4 C 264.5 57.6 264.1 57.7 263.7 57.7 C 262.7 57.7 262.1 57.2 262.1 56.2 C 262.12 56.2 262.1 53 262.1 53 L 261.2 53 L 261.2 52.4 L 262.1 52.4 L 262.1 51.3 L 262.8 51.3 L 262.8 52.4 L 264.4 52.4 L 264.4 53 L 262.8 53 C 262.8 53 262.83 56.16 262.8 56.2 C 262.8 56.8 263.1 57.1 263.7 57.1 C 264 57.1 264.3 57 264.5 56.9 C 264.5 56.9 264.8 57.4 264.8 57.4 Z M 270.8 54.6 C 270.8 54.63 270.8 57.7 270.8 57.7 L 270.1 57.7 C 270.1 57.7 270.09 54.7 270.1 54.7 C 270.1 53.6 269.5 53 268.5 53 C 267.4 53 266.7 53.7 266.7 54.9 C 266.67 54.92 266.7 57.7 266.7 57.7 L 266 57.7 L 266 50.3 L 266.7 50.3 C 266.7 50.3 266.67 53.34 266.7 53.3 C 267.1 52.7 267.7 52.4 268.6 52.4 C 269.9 52.4 270.8 53.1 270.8 54.6 Z M 272.4 50.8 C 272.4 50.5 272.7 50.3 272.9 50.3 C 273.2 50.3 273.5 50.5 273.5 50.7 C 273.5 51 273.2 51.3 272.9 51.3 C 272.7 51.3 272.4 51 272.4 50.8 Z M 272.6 52.4 L 273.3 52.4 L 273.3 57.7 L 272.6 57.7 L 272.6 52.4 Z M 280 54.6 C 279.97 54.63 280 57.7 280 57.7 L 279.3 57.7 C 279.3 57.7 279.26 54.7 279.3 54.7 C 279.3 53.6 278.7 53 277.7 53 C 276.6 53 275.8 53.7 275.8 54.9 C 275.84 54.92 275.8 57.7 275.8 57.7 L 275.1 57.7 L 275.1 52.4 L 275.8 52.4 C 275.8 52.4 275.81 53.39 275.8 53.4 C 276.2 52.7 276.9 52.4 277.8 52.4 C 279.1 52.4 280 53.1 280 54.6 Z M 287.3 57.4 C 287 57.6 286.6 57.7 286.2 57.7 C 285.2 57.7 284.6 57.2 284.6 56.2 C 284.64 56.2 284.6 53 284.6 53 L 283.7 53 L 283.7 52.4 L 284.6 52.4 L 284.6 51.3 L 285.4 51.3 L 285.4 52.4 L 287 52.4 L 287 53 L 285.4 53 C 285.4 53 285.35 56.16 285.4 56.2 C 285.4 56.8 285.7 57.1 286.3 57.1 C 286.6 57.1 286.8 57 287 56.9 C 287 56.9 287.3 57.4 287.3 57.4 Z M 293.3 54.6 C 293.32 54.63 293.3 57.7 293.3 57.7 L 292.6 57.7 C 292.6 57.7 292.61 54.7 292.6 54.7 C 292.6 53.6 292 53 291 53 C 289.9 53 289.2 53.7 289.2 54.9 C 289.19 54.92 289.2 57.7 289.2 57.7 L 288.5 57.7 L 288.5 50.3 L 289.2 50.3 C 289.2 50.3 289.19 53.34 289.2 53.3 C 289.6 52.7 290.3 52.4 291.2 52.4 C 292.4 52.4 293.3 53.1 293.3 54.6 Z M 299.8 55.3 C 299.8 55.3 295.4 55.3 295.4 55.3 C 295.5 56.4 296.3 57.1 297.5 57.1 C 298.1 57.1 298.7 56.9 299.1 56.4 C 299.1 56.4 299.5 56.9 299.5 56.9 C 299 57.4 298.3 57.7 297.5 57.7 C 295.8 57.7 294.7 56.6 294.7 55 C 294.7 53.5 295.8 52.4 297.3 52.4 C 298.8 52.4 299.8 53.5 299.8 55 C 299.8 55.1 299.8 55.2 299.8 55.3 Z M 295.4 54.7 C 295.4 54.7 299.1 54.7 299.1 54.7 C 299.1 53.7 298.3 53 297.3 53 C 296.3 53 295.5 53.7 295.4 54.7 Z M 307.6 57.1 L 307.6 57.7 L 303.3 57.7 L 303.3 57.2 L 306.6 53 L 303.4 53 L 303.4 52.4 L 307.5 52.4 L 307.5 52.9 L 304.2 57.1 L 307.6 57.1 Z M 308.2 55 C 308.2 53.5 309.3 52.4 310.9 52.4 C 312.4 52.4 313.6 53.5 313.6 55 C 313.6 56.6 312.4 57.7 310.9 57.7 C 309.3 57.7 308.2 56.6 308.2 55 Z M 312.8 55 C 312.8 53.8 312 53 310.9 53 C 309.8 53 308.9 53.8 308.9 55 C 308.9 56.3 309.8 57.1 310.9 57.1 C 312 57.1 312.8 56.3 312.8 55 Z M 319.8 54.6 C 319.82 54.63 319.8 57.7 319.8 57.7 L 319.1 57.7 C 319.1 57.7 319.12 54.7 319.1 54.7 C 319.1 53.6 318.5 53 317.5 53 C 316.4 53 315.7 53.7 315.7 54.9 C 315.69 54.92 315.7 57.7 315.7 57.7 L 315 57.7 L 315 52.4 L 315.7 52.4 C 315.7 52.4 315.66 53.39 315.7 53.4 C 316 52.7 316.8 52.4 317.7 52.4 C 318.9 52.4 319.8 53.1 319.8 54.6 Z M 326.3 55.3 C 326.3 55.3 321.9 55.3 321.9 55.3 C 322 56.4 322.8 57.1 324 57.1 C 324.6 57.1 325.2 56.9 325.6 56.4 C 325.6 56.4 326 56.9 326 56.9 C 325.5 57.4 324.8 57.7 324 57.7 C 322.3 57.7 321.2 56.6 321.2 55 C 321.2 53.5 322.3 52.4 323.8 52.4 C 325.3 52.4 326.3 53.5 326.3 55 C 326.3 55.1 326.3 55.2 326.3 55.3 Z M 321.9 54.7 C 321.9 54.7 325.6 54.7 325.6 54.7 C 325.6 53.7 324.8 53 323.8 53 C 322.8 53 322 53.7 321.9 54.7 Z M 329.9 55 C 329.9 53.5 331 52.4 332.5 52.4 C 334.1 52.4 335.2 53.5 335.2 55 C 335.2 56.6 334.1 57.7 332.5 57.7 C 331 57.7 329.9 56.6 329.9 55 Z M 334.5 55 C 334.5 53.8 333.7 53 332.5 53 C 331.4 53 330.6 53.8 330.6 55 C 330.6 56.3 331.4 57.1 332.5 57.1 C 333.7 57.1 334.5 56.3 334.5 55 Z M 337.4 51.8 C 337.41 51.8 337.4 52.4 337.4 52.4 L 339 52.4 L 339 53 L 337.4 53 L 337.4 57.7 L 336.7 57.7 L 336.7 53 L 335.8 53 L 335.8 52.4 L 336.7 52.4 C 336.7 52.4 336.72 51.77 336.7 51.8 C 336.7 50.8 337.3 50.2 338.3 50.2 C 338.7 50.2 339.1 50.3 339.4 50.5 C 339.4 50.5 339.1 51.1 339.1 51.1 C 338.9 50.9 338.6 50.8 338.3 50.8 C 337.7 50.8 337.4 51.1 337.4 51.8 Z M 351.3 54.6 C 351.29 54.63 351.3 57.7 351.3 57.7 L 350.6 57.7 C 350.6 57.7 350.58 54.7 350.6 54.7 C 350.6 53.6 350 53 349.1 53 C 348 53 347.3 53.7 347.3 54.9 C 347.31 54.92 347.3 57.7 347.3 57.7 L 346.6 57.7 C 346.6 57.7 346.6 54.7 346.6 54.7 C 346.6 53.6 346 53 345.1 53 C 344 53 343.3 53.7 343.3 54.9 C 343.32 54.92 343.3 57.7 343.3 57.7 L 342.6 57.7 L 342.6 52.4 L 343.3 52.4 C 343.3 52.4 343.29 53.38 343.3 53.4 C 343.7 52.7 344.3 52.4 345.2 52.4 C 346.1 52.4 346.8 52.7 347.1 53.5 C 347.5 52.8 348.2 52.4 349.2 52.4 C 350.5 52.4 351.3 53.1 351.3 54.6 Z M 357.1 54.4 C 357.12 54.42 357.1 57.7 357.1 57.7 L 356.4 57.7 C 356.4 57.7 356.44 56.86 356.4 56.9 C 356.1 57.4 355.5 57.7 354.6 57.7 C 353.4 57.7 352.7 57.1 352.7 56.2 C 352.7 55.4 353.2 54.7 354.7 54.7 C 354.74 54.71 356.4 54.7 356.4 54.7 C 356.4 54.7 356.41 54.39 356.4 54.4 C 356.4 53.5 355.9 53 354.9 53 C 354.2 53 353.6 53.2 353.2 53.6 C 353.2 53.6 352.9 53.1 352.9 53.1 C 353.4 52.6 354.2 52.4 355 52.4 C 356.4 52.4 357.1 53.1 357.1 54.4 Z M 356.4 56.1 C 356.41 56.1 356.4 55.2 356.4 55.2 C 356.4 55.2 354.76 55.24 354.8 55.2 C 353.7 55.2 353.4 55.6 353.4 56.2 C 353.4 56.8 353.9 57.2 354.7 57.2 C 355.5 57.2 356.1 56.8 356.4 56.1 Z M 362.4 57.7 L 360.7 55.5 L 359 57.7 L 358.2 57.7 L 360.3 55 L 358.3 52.4 L 359.1 52.4 L 360.7 54.5 L 362.3 52.4 L 363.1 52.4 L 361.1 55 L 363.2 57.7 L 362.4 57.7 Z M 364.2 50.8 C 364.2 50.5 364.4 50.3 364.7 50.3 C 365 50.3 365.2 50.5 365.2 50.7 C 365.2 51 365 51.3 364.7 51.3 C 364.4 51.3 364.2 51 364.2 50.8 Z M 364.3 52.4 L 365 52.4 L 365 57.7 L 364.3 57.7 L 364.3 52.4 Z M 375.6 54.6 C 375.56 54.63 375.6 57.7 375.6 57.7 L 374.9 57.7 C 374.9 57.7 374.85 54.7 374.9 54.7 C 374.9 53.6 374.3 53 373.3 53 C 372.3 53 371.6 53.7 371.6 54.9 C 371.58 54.92 371.6 57.7 371.6 57.7 L 370.9 57.7 C 370.9 57.7 370.87 54.7 370.9 54.7 C 370.9 53.6 370.3 53 369.4 53 C 368.3 53 367.6 53.7 367.6 54.9 C 367.59 54.92 367.6 57.7 367.6 57.7 L 366.9 57.7 L 366.9 52.4 L 367.6 52.4 C 367.6 52.4 367.56 53.38 367.6 53.4 C 367.9 52.7 368.6 52.4 369.5 52.4 C 370.4 52.4 371 52.7 371.4 53.5 C 371.7 52.8 372.5 52.4 373.4 52.4 C 374.7 52.4 375.6 53.1 375.6 54.6 Z M 382.1 52.4 L 382.1 57.7 L 381.4 57.7 C 381.4 57.7 381.42 56.72 381.4 56.7 C 381 57.4 380.4 57.7 379.5 57.7 C 378.2 57.7 377.3 57 377.3 55.5 C 377.31 55.47 377.3 52.4 377.3 52.4 L 378 52.4 C 378 52.4 378.02 55.4 378 55.4 C 378 56.5 378.6 57.1 379.6 57.1 C 380.7 57.1 381.4 56.4 381.4 55.2 C 381.39 55.18 381.4 52.4 381.4 52.4 L 382.1 52.4 Z M 392.6 54.6 C 392.64 54.63 392.6 57.7 392.6 57.7 L 391.9 57.7 C 391.9 57.7 391.93 54.7 391.9 54.7 C 391.9 53.6 391.4 53 390.4 53 C 389.3 53 388.7 53.7 388.7 54.9 C 388.66 54.92 388.7 57.7 388.7 57.7 L 387.9 57.7 C 387.9 57.7 387.95 54.7 387.9 54.7 C 387.9 53.6 387.4 53 386.4 53 C 385.4 53 384.7 53.7 384.7 54.9 C 384.67 54.92 384.7 57.7 384.7 57.7 L 384 57.7 L 384 52.4 L 384.6 52.4 C 384.6 52.4 384.64 53.38 384.6 53.4 C 385 52.7 385.7 52.4 386.6 52.4 C 387.4 52.4 388.1 52.7 388.4 53.5 C 388.8 52.8 389.6 52.4 390.5 52.4 C 391.8 52.4 392.6 53.1 392.6 54.6 Z M 399.8 52.4 C 399.8 52.4 399.8 53.1 399.8 53.1 C 399.8 53.1 399.7 53.1 399.7 53.1 C 398.6 53.1 397.9 53.8 397.9 55 C 397.9 55 397.9 57.7 397.9 57.7 L 397.2 57.7 L 397.2 52.4 L 397.9 52.4 C 397.9 52.4 397.87 53.45 397.9 53.4 C 398.2 52.7 398.9 52.4 399.8 52.4 Z M 405.6 55.3 C 405.6 55.3 401.2 55.3 401.2 55.3 C 401.3 56.4 402.1 57.1 403.3 57.1 C 403.9 57.1 404.5 56.9 404.9 56.4 C 404.9 56.4 405.3 56.9 405.3 56.9 C 404.8 57.4 404.1 57.7 403.2 57.7 C 401.6 57.7 400.5 56.6 400.5 55 C 400.5 53.5 401.6 52.4 403 52.4 C 404.5 52.4 405.6 53.5 405.6 55 C 405.6 55.1 405.6 55.2 405.6 55.3 Z M 401.2 54.7 C 401.2 54.7 404.9 54.7 404.9 54.7 C 404.8 53.7 404.1 53 403 53 C 402 53 401.3 53.7 401.2 54.7 Z M 411 54.4 C 410.97 54.42 411 57.7 411 57.7 L 410.3 57.7 C 410.3 57.7 410.29 56.86 410.3 56.9 C 410 57.4 409.4 57.7 408.5 57.7 C 407.3 57.7 406.6 57.1 406.6 56.2 C 406.6 55.4 407.1 54.7 408.6 54.7 C 408.59 54.71 410.3 54.7 410.3 54.7 C 410.3 54.7 410.26 54.39 410.3 54.4 C 410.3 53.5 409.8 53 408.8 53 C 408.1 53 407.5 53.2 407 53.6 C 407 53.6 406.7 53.1 406.7 53.1 C 407.2 52.6 408 52.4 408.8 52.4 C 410.2 52.4 411 53.1 411 54.4 Z M 410.3 56.1 C 410.26 56.1 410.3 55.2 410.3 55.2 C 410.3 55.2 408.61 55.24 408.6 55.2 C 407.6 55.2 407.3 55.6 407.3 56.2 C 407.3 56.8 407.8 57.2 408.6 57.2 C 409.4 57.2 410 56.8 410.3 56.1 Z M 412.3 55 C 412.3 53.5 413.5 52.4 415.1 52.4 C 415.9 52.4 416.7 52.7 417.1 53.4 C 417.1 53.4 416.6 53.8 416.6 53.8 C 416.2 53.2 415.7 53 415.1 53 C 413.9 53 413.1 53.8 413.1 55 C 413.1 56.3 413.9 57.1 415.1 57.1 C 415.7 57.1 416.2 56.9 416.6 56.3 C 416.6 56.3 417.1 56.7 417.1 56.7 C 416.7 57.4 415.9 57.7 415.1 57.7 C 413.5 57.7 412.3 56.6 412.3 55 Z M 423.3 54.6 C 423.27 54.63 423.3 57.7 423.3 57.7 L 422.6 57.7 C 422.6 57.7 422.56 54.7 422.6 54.7 C 422.6 53.6 422 53 421 53 C 419.9 53 419.1 53.7 419.1 54.9 C 419.14 54.92 419.1 57.7 419.1 57.7 L 418.4 57.7 L 418.4 50.3 L 419.1 50.3 C 419.1 50.3 419.14 53.34 419.1 53.3 C 419.5 52.7 420.2 52.4 421.1 52.4 C 422.4 52.4 423.3 53.1 423.3 54.6 Z M 424.8 57.2 C 424.8 56.9 425.1 56.6 425.4 56.6 C 425.6 56.6 425.9 56.9 425.9 57.2 C 425.9 57.5 425.6 57.7 425.4 57.7 C 425.1 57.7 424.8 57.5 424.8 57.2 Z " stroke="none" fill="#323132"/>
  </g>
  <g id="Polygon117428">
    <path d="M 13 35.7 L 13 42.7 L 12.3 42.7 L 12.3 39.4 L 7.9 39.4 L 7.9 42.7 L 7.1 42.7 L 7.1 35.7 L 7.9 35.7 L 7.9 38.8 L 12.3 38.8 L 12.3 35.7 L 13 35.7 Z M 14.9 35.8 C 14.9 35.5 15.1 35.3 15.4 35.3 C 15.7 35.3 15.9 35.5 15.9 35.7 C 15.9 36 15.7 36.3 15.4 36.3 C 15.1 36.3 14.9 36 14.9 35.8 Z M 15 37.4 L 15.7 37.4 L 15.7 42.7 L 15 42.7 L 15 37.4 Z M 22.5 37.4 C 22.5 37.4 22.51 42.04 22.5 42 C 22.5 43.9 21.6 44.7 19.9 44.7 C 18.9 44.7 18 44.4 17.4 43.9 C 17.4 43.9 17.8 43.3 17.8 43.3 C 18.3 43.8 19 44 19.9 44 C 21.2 44 21.8 43.4 21.8 42.1 C 21.8 42.1 21.8 41.5 21.8 41.5 C 21.4 42.1 20.6 42.5 19.7 42.5 C 18.2 42.5 17.1 41.4 17.1 39.9 C 17.1 38.4 18.2 37.4 19.7 37.4 C 20.6 37.4 21.4 37.7 21.8 38.4 C 21.83 38.43 21.8 37.4 21.8 37.4 L 22.5 37.4 Z M 21.8 39.9 C 21.8 38.8 21 38 19.8 38 C 18.7 38 17.8 38.8 17.8 39.9 C 17.8 41.1 18.7 41.9 19.8 41.9 C 21 41.9 21.8 41.1 21.8 39.9 Z M 29.2 39.6 C 29.21 39.63 29.2 42.7 29.2 42.7 L 28.5 42.7 C 28.5 42.7 28.5 39.7 28.5 39.7 C 28.5 38.6 27.9 38 26.9 38 C 25.8 38 25.1 38.7 25.1 39.9 C 25.08 39.92 25.1 42.7 25.1 42.7 L 24.4 42.7 L 24.4 35.3 L 25.1 35.3 C 25.1 35.3 25.08 38.34 25.1 38.3 C 25.5 37.7 26.2 37.4 27.1 37.4 C 28.3 37.4 29.2 38.1 29.2 39.6 Z M 39.1 40.1 C 39.1 41.7 38 42.7 36.5 42.7 C 35.6 42.7 34.9 42.4 34.5 41.7 C 34.47 41.69 34.5 44.6 34.5 44.6 L 33.8 44.6 L 33.8 37.4 L 34.4 37.4 C 34.4 37.4 34.44 38.46 34.4 38.5 C 34.9 37.8 35.6 37.4 36.5 37.4 C 38 37.4 39.1 38.5 39.1 40.1 Z M 38.4 40 C 38.4 38.8 37.5 38 36.4 38 C 35.3 38 34.5 38.8 34.5 40 C 34.5 41.3 35.3 42.1 36.4 42.1 C 37.5 42.1 38.4 41.3 38.4 40 Z M 43.2 37.4 C 43.2 37.4 43.2 38.1 43.2 38.1 C 43.1 38.1 43.1 38.1 43 38.1 C 41.9 38.1 41.2 38.8 41.2 40 C 41.24 40 41.2 42.7 41.2 42.7 L 40.5 42.7 L 40.5 37.4 L 41.2 37.4 C 41.2 37.4 41.21 38.45 41.2 38.4 C 41.5 37.7 42.2 37.4 43.2 37.4 Z M 44.2 35.8 C 44.2 35.5 44.5 35.3 44.8 35.3 C 45.1 35.3 45.3 35.5 45.3 35.7 C 45.3 36 45.1 36.3 44.8 36.3 C 44.5 36.3 44.2 36 44.2 35.8 Z M 44.4 37.4 L 45.1 37.4 L 45.1 42.7 L 44.4 42.7 L 44.4 37.4 Z M 46.5 40 C 46.5 38.5 47.7 37.4 49.2 37.4 C 50.7 37.4 51.9 38.5 51.9 40 C 51.9 41.6 50.7 42.7 49.2 42.7 C 47.7 42.7 46.5 41.6 46.5 40 Z M 51.1 40 C 51.1 38.8 50.3 38 49.2 38 C 48.1 38 47.2 38.8 47.2 40 C 47.2 41.3 48.1 42.1 49.2 42.1 C 50.3 42.1 51.1 41.3 51.1 40 Z M 55.9 37.4 C 55.9 37.4 55.9 38.1 55.9 38.1 C 55.9 38.1 55.8 38.1 55.8 38.1 C 54.7 38.1 54 38.8 54 40 C 54 40 54 42.7 54 42.7 L 53.3 42.7 L 53.3 37.4 L 54 37.4 C 54 37.4 53.97 38.45 54 38.4 C 54.3 37.7 55 37.4 55.9 37.4 Z M 57 35.8 C 57 35.5 57.2 35.3 57.5 35.3 C 57.8 35.3 58 35.5 58 35.7 C 58 36 57.8 36.3 57.5 36.3 C 57.2 36.3 57 36 57 35.8 Z M 57.2 37.4 L 57.9 37.4 L 57.9 42.7 L 57.2 42.7 L 57.2 37.4 Z M 62.6 42.4 C 62.3 42.6 61.9 42.7 61.5 42.7 C 60.5 42.7 59.9 42.2 59.9 41.2 C 59.93 41.2 59.9 38 59.9 38 L 59 38 L 59 37.4 L 59.9 37.4 L 59.9 36.3 L 60.6 36.3 L 60.6 37.4 L 62.2 37.4 L 62.2 38 L 60.6 38 C 60.6 38 60.64 41.16 60.6 41.2 C 60.6 41.8 61 42.1 61.5 42.1 C 61.8 42.1 62.1 42 62.3 41.9 C 62.3 41.9 62.6 42.4 62.6 42.4 Z M 68.5 37.4 C 68.5 37.4 65.87 43.31 65.9 43.3 C 65.4 44.3 64.9 44.7 64.1 44.7 C 63.6 44.7 63.2 44.5 62.8 44.2 C 62.8 44.2 63.2 43.7 63.2 43.7 C 63.4 43.9 63.7 44.1 64.1 44.1 C 64.6 44.1 64.9 43.8 65.2 43.2 C 65.22 43.18 65.4 42.7 65.4 42.7 L 63.1 37.4 L 63.8 37.4 L 65.8 41.9 L 67.8 37.4 L 68.5 37.4 Z M 71.6 40 C 71.6 38.5 72.7 37.4 74.3 37.4 C 75.2 37.4 75.9 37.7 76.4 38.4 C 76.4 38.4 75.8 38.8 75.8 38.8 C 75.5 38.2 74.9 38 74.3 38 C 73.1 38 72.3 38.8 72.3 40 C 72.3 41.3 73.1 42.1 74.3 42.1 C 74.9 42.1 75.5 41.9 75.8 41.3 C 75.8 41.3 76.4 41.7 76.4 41.7 C 75.9 42.4 75.2 42.7 74.3 42.7 C 72.7 42.7 71.6 41.6 71.6 40 Z M 77.1 40 C 77.1 38.5 78.3 37.4 79.8 37.4 C 81.4 37.4 82.5 38.5 82.5 40 C 82.5 41.6 81.4 42.7 79.8 42.7 C 78.3 42.7 77.1 41.6 77.1 40 Z M 81.8 40 C 81.8 38.8 80.9 38 79.8 38 C 78.7 38 77.9 38.8 77.9 40 C 77.9 41.3 78.7 42.1 79.8 42.1 C 80.9 42.1 81.8 41.3 81.8 40 Z M 88.8 39.6 C 88.76 39.63 88.8 42.7 88.8 42.7 L 88 42.7 C 88 42.7 88.05 39.7 88 39.7 C 88 38.6 87.5 38 86.5 38 C 85.3 38 84.6 38.7 84.6 39.9 C 84.63 39.92 84.6 42.7 84.6 42.7 L 83.9 42.7 L 83.9 37.4 L 84.6 37.4 C 84.6 37.4 84.6 38.39 84.6 38.4 C 85 37.7 85.7 37.4 86.6 37.4 C 87.9 37.4 88.8 38.1 88.8 39.6 Z M 93.3 42.4 C 93 42.6 92.6 42.7 92.2 42.7 C 91.2 42.7 90.6 42.2 90.6 41.2 C 90.64 41.2 90.6 38 90.6 38 L 89.7 38 L 89.7 37.4 L 90.6 37.4 L 90.6 36.3 L 91.4 36.3 L 91.4 37.4 L 93 37.4 L 93 38 L 91.4 38 C 91.4 38 91.35 41.16 91.4 41.2 C 91.4 41.8 91.7 42.1 92.3 42.1 C 92.6 42.1 92.8 42 93 41.9 C 93 41.9 93.3 42.4 93.3 42.4 Z M 97.1 37.4 C 97.1 37.4 97.1 38.1 97.1 38.1 C 97.1 38.1 97 38.1 97 38.1 C 95.9 38.1 95.2 38.8 95.2 40 C 95.19 40 95.2 42.7 95.2 42.7 L 94.5 42.7 L 94.5 37.4 L 95.2 37.4 C 95.2 37.4 95.16 38.45 95.2 38.4 C 95.5 37.7 96.2 37.4 97.1 37.4 Z M 97.7 40 C 97.7 38.5 98.9 37.4 100.4 37.4 C 102 37.4 103.1 38.5 103.1 40 C 103.1 41.6 102 42.7 100.4 42.7 C 98.9 42.7 97.7 41.6 97.7 40 Z M 102.4 40 C 102.4 38.8 101.5 38 100.4 38 C 99.3 38 98.5 38.8 98.5 40 C 98.5 41.3 99.3 42.1 100.4 42.1 C 101.5 42.1 102.4 41.3 102.4 40 Z M 104.5 35.3 L 105.2 35.3 L 105.2 42.7 L 104.5 42.7 L 104.5 35.3 Z M 106.5 42.1 C 106.5 42.1 106.8 41.5 106.8 41.5 C 107.3 41.9 108 42.1 108.7 42.1 C 109.7 42.1 110.1 41.8 110.1 41.3 C 110.1 39.9 106.7 41 106.7 38.9 C 106.7 38 107.5 37.4 108.8 37.4 C 109.5 37.4 110.2 37.6 110.7 37.9 C 110.7 37.9 110.3 38.4 110.3 38.4 C 109.9 38.1 109.3 38 108.8 38 C 107.8 38 107.4 38.4 107.4 38.9 C 107.4 40.3 110.8 39.2 110.8 41.2 C 110.8 42.1 110 42.7 108.7 42.7 C 107.8 42.7 107 42.4 106.5 42.1 Z M 114 42.1 C 114 42.1 114.4 41.5 114.4 41.5 C 114.8 41.9 115.5 42.1 116.2 42.1 C 117.2 42.1 117.6 41.8 117.6 41.3 C 117.6 39.9 114.2 41 114.2 38.9 C 114.2 38 115 37.4 116.3 37.4 C 117 37.4 117.7 37.6 118.2 37.9 C 118.2 37.9 117.9 38.4 117.9 38.4 C 117.4 38.1 116.8 38 116.3 38 C 115.4 38 114.9 38.4 114.9 38.9 C 114.9 40.3 118.3 39.2 118.3 41.2 C 118.3 42.1 117.5 42.7 116.2 42.7 C 115.3 42.7 114.5 42.4 114 42.1 Z M 124.5 39.6 C 124.5 39.63 124.5 42.7 124.5 42.7 L 123.8 42.7 C 123.8 42.7 123.79 39.7 123.8 39.7 C 123.8 38.6 123.2 38 122.2 38 C 121.1 38 120.4 38.7 120.4 39.9 C 120.37 39.92 120.4 42.7 120.4 42.7 L 119.7 42.7 L 119.7 35.3 L 120.4 35.3 C 120.4 35.3 120.37 38.34 120.4 38.3 C 120.8 37.7 121.5 37.4 122.3 37.4 C 123.6 37.4 124.5 38.1 124.5 39.6 Z M 125.9 40 C 125.9 38.5 127 37.4 128.6 37.4 C 130.1 37.4 131.2 38.5 131.2 40 C 131.2 41.6 130.1 42.7 128.6 42.7 C 127 42.7 125.9 41.6 125.9 40 Z M 130.5 40 C 130.5 38.8 129.7 38 128.6 38 C 127.4 38 126.6 38.8 126.6 40 C 126.6 41.3 127.4 42.1 128.6 42.1 C 129.7 42.1 130.5 41.3 130.5 40 Z M 137.4 37.4 L 137.4 42.7 L 136.7 42.7 C 136.7 42.7 136.71 41.72 136.7 41.7 C 136.3 42.4 135.7 42.7 134.8 42.7 C 133.5 42.7 132.6 42 132.6 40.5 C 132.6 40.47 132.6 37.4 132.6 37.4 L 133.3 37.4 C 133.3 37.4 133.31 40.4 133.3 40.4 C 133.3 41.5 133.9 42.1 134.9 42.1 C 136 42.1 136.7 41.4 136.7 40.2 C 136.68 40.18 136.7 37.4 136.7 37.4 L 137.4 37.4 Z M 139.2 35.3 L 140 35.3 L 140 42.7 L 139.2 42.7 L 139.2 35.3 Z M 146.7 35.3 L 146.7 42.7 L 146 42.7 C 146 42.7 146.05 41.64 146 41.6 C 145.6 42.3 144.9 42.7 144 42.7 C 142.5 42.7 141.4 41.6 141.4 40 C 141.4 38.5 142.5 37.4 144 37.4 C 144.9 37.4 145.6 37.7 146 38.4 C 146.02 38.42 146 35.3 146 35.3 L 146.7 35.3 Z M 146 40 C 146 38.8 145.2 38 144.1 38 C 143 38 142.1 38.8 142.1 40 C 142.1 41.3 143 42.1 144.1 42.1 C 145.2 42.1 146 41.3 146 40 Z M 156.7 40 C 156.7 41.6 155.5 42.7 154 42.7 C 153.2 42.7 152.4 42.3 152 41.6 C 152.01 41.64 152 42.7 152 42.7 L 151.3 42.7 L 151.3 35.3 L 152 35.3 C 152 35.3 152.04 38.42 152 38.4 C 152.5 37.7 153.2 37.4 154 37.4 C 155.5 37.4 156.7 38.5 156.7 40 Z M 155.9 40 C 155.9 38.8 155.1 38 154 38 C 152.9 38 152 38.8 152 40 C 152 41.3 152.9 42.1 154 42.1 C 155.1 42.1 155.9 41.3 155.9 40 Z M 162.8 40.3 C 162.8 40.3 158.4 40.3 158.4 40.3 C 158.5 41.4 159.3 42.1 160.4 42.1 C 161.1 42.1 161.7 41.9 162.1 41.4 C 162.1 41.4 162.5 41.9 162.5 41.9 C 162 42.4 161.3 42.7 160.4 42.7 C 158.8 42.7 157.7 41.6 157.7 40 C 157.7 38.5 158.8 37.4 160.2 37.4 C 161.7 37.4 162.8 38.5 162.8 40 C 162.8 40.1 162.8 40.2 162.8 40.3 Z M 158.4 39.7 C 158.4 39.7 162.1 39.7 162.1 39.7 C 162 38.7 161.3 38 160.2 38 C 159.2 38 158.5 38.7 158.4 39.7 Z M 166.9 35.3 L 167.6 35.3 L 167.6 42.7 L 166.9 42.7 L 166.9 35.3 Z M 169 40 C 169 38.5 170.1 37.4 171.7 37.4 C 173.2 37.4 174.3 38.5 174.3 40 C 174.3 41.6 173.2 42.7 171.7 42.7 C 170.1 42.7 169 41.6 169 40 Z M 173.6 40 C 173.6 38.8 172.8 38 171.7 38 C 170.5 38 169.7 38.8 169.7 40 C 169.7 41.3 170.5 42.1 171.7 42.1 C 172.8 42.1 173.6 41.3 173.6 40 Z M 175.3 40 C 175.3 38.5 176.5 37.4 178.1 37.4 C 178.9 37.4 179.7 37.7 180.1 38.4 C 180.1 38.4 179.6 38.8 179.6 38.8 C 179.2 38.2 178.7 38 178.1 38 C 176.9 38 176.1 38.8 176.1 40 C 176.1 41.3 176.9 42.1 178.1 42.1 C 178.7 42.1 179.2 41.9 179.6 41.3 C 179.6 41.3 180.1 41.7 180.1 41.7 C 179.7 42.4 178.9 42.7 178.1 42.7 C 176.5 42.7 175.3 41.6 175.3 40 Z M 185.5 39.4 C 185.52 39.42 185.5 42.7 185.5 42.7 L 184.8 42.7 C 184.8 42.7 184.85 41.86 184.8 41.9 C 184.5 42.4 183.9 42.7 183 42.7 C 181.8 42.7 181.1 42.1 181.1 41.2 C 181.1 40.4 181.6 39.7 183.1 39.7 C 183.14 39.71 184.8 39.7 184.8 39.7 C 184.8 39.7 184.82 39.39 184.8 39.4 C 184.8 38.5 184.3 38 183.3 38 C 182.6 38 182 38.2 181.6 38.6 C 181.6 38.6 181.3 38.1 181.3 38.1 C 181.8 37.6 182.6 37.4 183.4 37.4 C 184.8 37.4 185.5 38.1 185.5 39.4 Z M 184.8 41.1 C 184.82 41.1 184.8 40.2 184.8 40.2 C 184.8 40.2 183.16 40.24 183.2 40.2 C 182.1 40.2 181.8 40.6 181.8 41.2 C 181.8 41.8 182.3 42.2 183.1 42.2 C 183.9 42.2 184.5 41.8 184.8 41.1 Z M 190.1 42.4 C 189.8 42.6 189.4 42.7 189 42.7 C 188 42.7 187.4 42.2 187.4 41.2 C 187.42 41.2 187.4 38 187.4 38 L 186.5 38 L 186.5 37.4 L 187.4 37.4 L 187.4 36.3 L 188.1 36.3 L 188.1 37.4 L 189.7 37.4 L 189.7 38 L 188.1 38 C 188.1 38 188.13 41.16 188.1 41.2 C 188.1 41.8 188.4 42.1 189 42.1 C 189.3 42.1 189.6 42 189.8 41.9 C 189.8 41.9 190.1 42.4 190.1 42.4 Z M 195.7 40.3 C 195.7 40.3 191.3 40.3 191.3 40.3 C 191.4 41.4 192.3 42.1 193.4 42.1 C 194 42.1 194.6 41.9 195 41.4 C 195 41.4 195.4 41.9 195.4 41.9 C 194.9 42.4 194.2 42.7 193.4 42.7 C 191.7 42.7 190.6 41.6 190.6 40 C 190.6 38.5 191.7 37.4 193.2 37.4 C 194.7 37.4 195.7 38.5 195.7 40 C 195.7 40.1 195.7 40.2 195.7 40.3 Z M 191.3 39.7 C 191.3 39.7 195.1 39.7 195.1 39.7 C 195 38.7 194.2 38 193.2 38 C 192.2 38 191.4 38.7 191.3 39.7 Z M 202.1 35.3 L 202.1 42.7 L 201.4 42.7 C 201.4 42.7 201.39 41.64 201.4 41.6 C 201 42.3 200.2 42.7 199.4 42.7 C 197.9 42.7 196.7 41.6 196.7 40 C 196.7 38.5 197.9 37.4 199.4 37.4 C 200.2 37.4 200.9 37.7 201.4 38.4 C 201.36 38.42 201.4 35.3 201.4 35.3 L 202.1 35.3 Z M 201.4 40 C 201.4 38.8 200.5 38 199.4 38 C 198.3 38 197.5 38.8 197.5 40 C 197.5 41.3 198.3 42.1 199.4 42.1 C 200.5 42.1 201.4 41.3 201.4 40 Z M 205.9 42.1 C 205.9 42.1 206.3 41.5 206.3 41.5 C 206.7 41.9 207.4 42.1 208.1 42.1 C 209.1 42.1 209.5 41.8 209.5 41.3 C 209.5 39.9 206.1 41 206.1 38.9 C 206.1 38 206.9 37.4 208.2 37.4 C 208.9 37.4 209.6 37.6 210.1 37.9 C 210.1 37.9 209.8 38.4 209.8 38.4 C 209.3 38.1 208.8 38 208.2 38 C 207.3 38 206.8 38.4 206.8 38.9 C 206.8 40.3 210.3 39.2 210.3 41.2 C 210.3 42.1 209.5 42.7 208.1 42.7 C 207.2 42.7 206.4 42.4 205.9 42.1 Z M 211.1 40 C 211.1 38.5 212.3 37.4 213.8 37.4 C 215.3 37.4 216.5 38.5 216.5 40 C 216.5 41.6 215.3 42.7 213.8 42.7 C 212.3 42.7 211.1 41.6 211.1 40 Z M 215.8 40 C 215.8 38.8 214.9 38 213.8 38 C 212.7 38 211.8 38.8 211.8 40 C 211.8 41.3 212.7 42.1 213.8 42.1 C 214.9 42.1 215.8 41.3 215.8 40 Z M 223.3 42.4 C 223 42.6 222.6 42.7 222.2 42.7 C 221.2 42.7 220.7 42.2 220.7 41.2 C 220.67 41.2 220.7 38 220.7 38 L 219.7 38 L 219.7 37.4 L 220.7 37.4 L 220.7 36.3 L 221.4 36.3 L 221.4 37.4 L 223 37.4 L 223 38 L 221.4 38 C 221.4 38 221.38 41.16 221.4 41.2 C 221.4 41.8 221.7 42.1 222.3 42.1 C 222.6 42.1 222.9 42 223.1 41.9 C 223.1 41.9 223.3 42.4 223.3 42.4 Z M 229.3 39.6 C 229.35 39.63 229.3 42.7 229.3 42.7 L 228.6 42.7 C 228.6 42.7 228.64 39.7 228.6 39.7 C 228.6 38.6 228.1 38 227.1 38 C 225.9 38 225.2 38.7 225.2 39.9 C 225.22 39.92 225.2 42.7 225.2 42.7 L 224.5 42.7 L 224.5 35.3 L 225.2 35.3 C 225.2 35.3 225.22 38.34 225.2 38.3 C 225.6 37.7 226.3 37.4 227.2 37.4 C 228.5 37.4 229.3 38.1 229.3 39.6 Z M 235.2 39.4 C 235.17 39.42 235.2 42.7 235.2 42.7 L 234.5 42.7 C 234.5 42.7 234.49 41.86 234.5 41.9 C 234.2 42.4 233.5 42.7 232.7 42.7 C 231.5 42.7 230.8 42.1 230.8 41.2 C 230.8 40.4 231.3 39.7 232.8 39.7 C 232.79 39.71 234.5 39.7 234.5 39.7 C 234.5 39.7 234.46 39.39 234.5 39.4 C 234.5 38.5 233.9 38 233 38 C 232.3 38 231.6 38.2 231.2 38.6 C 231.2 38.6 230.9 38.1 230.9 38.1 C 231.4 37.6 232.2 37.4 233 37.4 C 234.4 37.4 235.2 38.1 235.2 39.4 Z M 234.5 41.1 C 234.46 41.1 234.5 40.2 234.5 40.2 C 234.5 40.2 232.81 40.24 232.8 40.2 C 231.8 40.2 231.5 40.6 231.5 41.2 C 231.5 41.8 231.9 42.2 232.8 42.2 C 233.6 42.2 234.2 41.8 234.5 41.1 Z M 239.7 42.4 C 239.4 42.6 239 42.7 238.6 42.7 C 237.6 42.7 237.1 42.2 237.1 41.2 C 237.06 41.2 237.1 38 237.1 38 L 236.1 38 L 236.1 37.4 L 237.1 37.4 L 237.1 36.3 L 237.8 36.3 L 237.8 37.4 L 239.4 37.4 L 239.4 38 L 237.8 38 C 237.8 38 237.77 41.16 237.8 41.2 C 237.8 41.8 238.1 42.1 238.7 42.1 C 239 42.1 239.3 42 239.5 41.9 C 239.5 41.9 239.7 42.4 239.7 42.4 Z M 246.4 42.4 C 246.1 42.6 245.7 42.7 245.3 42.7 C 244.3 42.7 243.7 42.2 243.7 41.2 C 243.74 41.2 243.7 38 243.7 38 L 242.8 38 L 242.8 37.4 L 243.7 37.4 L 243.7 36.3 L 244.5 36.3 L 244.5 37.4 L 246.1 37.4 L 246.1 38 L 244.5 38 C 244.5 38 244.45 41.16 244.5 41.2 C 244.5 41.8 244.8 42.1 245.4 42.1 C 245.7 42.1 245.9 42 246.1 41.9 C 246.1 41.9 246.4 42.4 246.4 42.4 Z M 252.4 39.6 C 252.42 39.63 252.4 42.7 252.4 42.7 L 251.7 42.7 C 251.7 42.7 251.71 39.7 251.7 39.7 C 251.7 38.6 251.1 38 250.1 38 C 249 38 248.3 38.7 248.3 39.9 C 248.29 39.92 248.3 42.7 248.3 42.7 L 247.6 42.7 L 247.6 35.3 L 248.3 35.3 C 248.3 35.3 248.29 38.34 248.3 38.3 C 248.7 37.7 249.4 37.4 250.3 37.4 C 251.5 37.4 252.4 38.1 252.4 39.6 Z M 258.9 40.3 C 258.9 40.3 254.5 40.3 254.5 40.3 C 254.6 41.4 255.4 42.1 256.6 42.1 C 257.2 42.1 257.8 41.9 258.2 41.4 C 258.2 41.4 258.6 41.9 258.6 41.9 C 258.1 42.4 257.4 42.7 256.6 42.7 C 254.9 42.7 253.8 41.6 253.8 40 C 253.8 38.5 254.9 37.4 256.4 37.4 C 257.9 37.4 258.9 38.5 258.9 40 C 258.9 40.1 258.9 40.2 258.9 40.3 Z M 254.5 39.7 C 254.5 39.7 258.2 39.7 258.2 39.7 C 258.2 38.7 257.4 38 256.4 38 C 255.4 38 254.6 38.7 254.5 39.7 Z M 264.7 37.4 C 264.7 37.4 262.08 43.31 262.1 43.3 C 261.6 44.3 261.1 44.7 260.3 44.7 C 259.8 44.7 259.4 44.5 259.1 44.2 C 259.1 44.2 259.4 43.7 259.4 43.7 C 259.6 43.9 260 44.1 260.3 44.1 C 260.8 44.1 261.1 43.8 261.4 43.2 C 261.43 43.18 261.7 42.7 261.7 42.7 L 259.3 37.4 L 260.1 37.4 L 262 41.9 L 264 37.4 L 264.7 37.4 Z M 272.3 39.4 C 272.3 39.42 272.3 42.7 272.3 42.7 L 271.6 42.7 C 271.6 42.7 271.62 41.86 271.6 41.9 C 271.3 42.4 270.7 42.7 269.8 42.7 C 268.6 42.7 267.9 42.1 267.9 41.2 C 267.9 40.4 268.4 39.7 269.9 39.7 C 269.92 39.71 271.6 39.7 271.6 39.7 C 271.6 39.7 271.59 39.39 271.6 39.4 C 271.6 38.5 271.1 38 270.1 38 C 269.4 38 268.8 38.2 268.4 38.6 C 268.4 38.6 268 38.1 268 38.1 C 268.6 37.6 269.3 37.4 270.2 37.4 C 271.5 37.4 272.3 38.1 272.3 39.4 Z M 271.6 41.1 C 271.59 41.1 271.6 40.2 271.6 40.2 C 271.6 40.2 269.94 40.24 269.9 40.2 C 268.9 40.2 268.6 40.6 268.6 41.2 C 268.6 41.8 269.1 42.2 269.9 42.2 C 270.7 42.2 271.3 41.8 271.6 41.1 Z M 276.8 37.4 C 276.8 37.4 276.8 38.1 276.8 38.1 C 276.7 38.1 276.6 38.1 276.6 38.1 C 275.5 38.1 274.8 38.8 274.8 40 C 274.83 40 274.8 42.7 274.8 42.7 L 274.1 42.7 L 274.1 37.4 L 274.8 37.4 C 274.8 37.4 274.8 38.45 274.8 38.4 C 275.1 37.7 275.8 37.4 276.8 37.4 Z M 282.5 40.3 C 282.5 40.3 278.1 40.3 278.1 40.3 C 278.2 41.4 279 42.1 280.2 42.1 C 280.8 42.1 281.4 41.9 281.8 41.4 C 281.8 41.4 282.2 41.9 282.2 41.9 C 281.7 42.4 281 42.7 280.2 42.7 C 278.5 42.7 277.4 41.6 277.4 40 C 277.4 38.5 278.5 37.4 280 37.4 C 281.5 37.4 282.5 38.5 282.5 40 C 282.5 40.1 282.5 40.2 282.5 40.3 Z M 278.1 39.7 C 278.1 39.7 281.8 39.7 281.8 39.7 C 281.8 38.7 281 38 280 38 C 278.9 38 278.2 38.7 278.1 39.7 Z M 291.2 40.3 C 291.2 40.3 286.8 40.3 286.8 40.3 C 286.8 41.4 287.7 42.1 288.8 42.1 C 289.5 42.1 290.1 41.9 290.5 41.4 C 290.5 41.4 290.8 41.9 290.8 41.9 C 290.4 42.4 289.7 42.7 288.8 42.7 C 287.2 42.7 286.1 41.6 286.1 40 C 286.1 38.5 287.1 37.4 288.6 37.4 C 290.1 37.4 291.2 38.5 291.2 40 C 291.2 40.1 291.2 40.2 291.2 40.3 Z M 286.8 39.7 C 286.8 39.7 290.5 39.7 290.5 39.7 C 290.4 38.7 289.7 38 288.6 38 C 287.6 38 286.9 38.7 286.8 39.7 Z M 296.6 39.4 C 296.56 39.42 296.6 42.7 296.6 42.7 L 295.9 42.7 C 295.9 42.7 295.88 41.86 295.9 41.9 C 295.6 42.4 294.9 42.7 294.1 42.7 C 292.9 42.7 292.2 42.1 292.2 41.2 C 292.2 40.4 292.7 39.7 294.2 39.7 C 294.18 39.71 295.9 39.7 295.9 39.7 C 295.9 39.7 295.85 39.39 295.9 39.4 C 295.9 38.5 295.3 38 294.4 38 C 293.7 38 293 38.2 292.6 38.6 C 292.6 38.6 292.3 38.1 292.3 38.1 C 292.8 37.6 293.6 37.4 294.4 37.4 C 295.8 37.4 296.6 38.1 296.6 39.4 Z M 295.9 41.1 C 295.85 41.1 295.9 40.2 295.9 40.2 C 295.9 40.2 294.2 40.24 294.2 40.2 C 293.2 40.2 292.9 40.6 292.9 41.2 C 292.9 41.8 293.3 42.2 294.2 42.2 C 295 42.2 295.6 41.8 295.9 41.1 Z M 297.8 42.1 C 297.8 42.1 298.1 41.5 298.1 41.5 C 298.5 41.9 299.2 42.1 300 42.1 C 301 42.1 301.4 41.8 301.4 41.3 C 301.4 39.9 298 41 298 38.9 C 298 38 298.7 37.4 300 37.4 C 300.7 37.4 301.5 37.6 301.9 37.9 C 301.9 37.9 301.6 38.4 301.6 38.4 C 301.1 38.1 300.6 38 300 38 C 299.1 38 298.7 38.4 298.7 38.9 C 298.7 40.3 302.1 39.2 302.1 41.2 C 302.1 42.1 301.3 42.7 299.9 42.7 C 299 42.7 298.2 42.4 297.8 42.1 Z M 303.2 35.8 C 303.2 35.5 303.5 35.3 303.8 35.3 C 304 35.3 304.3 35.5 304.3 35.7 C 304.3 36 304.1 36.3 303.8 36.3 C 303.5 36.3 303.2 36 303.2 35.8 Z M 303.4 37.4 L 304.1 37.4 L 304.1 42.7 L 303.4 42.7 L 303.4 37.4 Z M 306 35.3 L 306.7 35.3 L 306.7 42.7 L 306 42.7 L 306 35.3 Z M 313.1 37.4 C 313.1 37.4 310.46 43.31 310.5 43.3 C 310 44.3 309.5 44.7 308.7 44.7 C 308.2 44.7 307.8 44.5 307.4 44.2 C 307.4 44.2 307.8 43.7 307.8 43.7 C 308 43.9 308.3 44.1 308.7 44.1 C 309.2 44.1 309.5 43.8 309.8 43.2 C 309.81 43.18 310 42.7 310 42.7 L 307.7 37.4 L 308.4 37.4 L 310.4 41.9 L 312.4 37.4 L 313.1 37.4 Z M 316 42.1 C 316 42.1 316.3 41.5 316.3 41.5 C 316.7 41.9 317.4 42.1 318.2 42.1 C 319.2 42.1 319.6 41.8 319.6 41.3 C 319.6 39.9 316.2 41 316.2 38.9 C 316.2 38 316.9 37.4 318.3 37.4 C 318.9 37.4 319.7 37.6 320.1 37.9 C 320.1 37.9 319.8 38.4 319.8 38.4 C 319.3 38.1 318.8 38 318.3 38 C 317.3 38 316.9 38.4 316.9 38.9 C 316.9 40.3 320.3 39.2 320.3 41.2 C 320.3 42.1 319.5 42.7 318.1 42.7 C 317.3 42.7 316.4 42.4 316 42.1 Z M 326.3 40.3 C 326.3 40.3 321.9 40.3 321.9 40.3 C 322 41.4 322.8 42.1 323.9 42.1 C 324.6 42.1 325.2 41.9 325.6 41.4 C 325.6 41.4 326 41.9 326 41.9 C 325.5 42.4 324.8 42.7 323.9 42.7 C 322.3 42.7 321.2 41.6 321.2 40 C 321.2 38.5 322.3 37.4 323.7 37.4 C 325.2 37.4 326.3 38.5 326.3 40 C 326.3 40.1 326.3 40.2 326.3 40.3 Z M 321.9 39.7 C 321.9 39.7 325.6 39.7 325.6 39.7 C 325.5 38.7 324.8 38 323.7 38 C 322.7 38 322 38.7 321.9 39.7 Z M 332.4 40.3 C 332.4 40.3 328 40.3 328 40.3 C 328.1 41.4 328.9 42.1 330.1 42.1 C 330.7 42.1 331.3 41.9 331.7 41.4 C 331.7 41.4 332.1 41.9 332.1 41.9 C 331.6 42.4 330.9 42.7 330.1 42.7 C 328.4 42.7 327.3 41.6 327.3 40 C 327.3 38.5 328.4 37.4 329.9 37.4 C 331.3 37.4 332.4 38.5 332.4 40 C 332.4 40.1 332.4 40.2 332.4 40.3 Z M 328 39.7 C 328 39.7 331.7 39.7 331.7 39.7 C 331.6 38.7 330.9 38 329.9 38 C 328.8 38 328.1 38.7 328 39.7 Z M 338.7 39.6 C 338.65 39.63 338.7 42.7 338.7 42.7 L 337.9 42.7 C 337.9 42.7 337.95 39.7 337.9 39.7 C 337.9 38.6 337.4 38 336.4 38 C 335.2 38 334.5 38.7 334.5 39.9 C 334.52 39.92 334.5 42.7 334.5 42.7 L 333.8 42.7 L 333.8 37.4 L 334.5 37.4 C 334.5 37.4 334.49 38.39 334.5 38.4 C 334.9 37.7 335.6 37.4 336.5 37.4 C 337.8 37.4 338.7 38.1 338.7 39.6 Z M 347.2 39.4 C 347.17 39.42 347.2 42.7 347.2 42.7 L 346.5 42.7 C 346.5 42.7 346.5 41.86 346.5 41.9 C 346.2 42.4 345.6 42.7 344.7 42.7 C 343.5 42.7 342.8 42.1 342.8 41.2 C 342.8 40.4 343.3 39.7 344.8 39.7 C 344.79 39.71 346.5 39.7 346.5 39.7 C 346.5 39.7 346.47 39.39 346.5 39.4 C 346.5 38.5 346 38 345 38 C 344.3 38 343.7 38.2 343.2 38.6 C 343.2 38.6 342.9 38.1 342.9 38.1 C 343.4 37.6 344.2 37.4 345 37.4 C 346.4 37.4 347.2 38.1 347.2 39.4 Z M 346.5 41.1 C 346.47 41.1 346.5 40.2 346.5 40.2 C 346.5 40.2 344.81 40.24 344.8 40.2 C 343.8 40.2 343.5 40.6 343.5 41.2 C 343.5 41.8 344 42.2 344.8 42.2 C 345.6 42.2 346.2 41.8 346.5 41.1 Z M 353.8 39.6 C 353.83 39.63 353.8 42.7 353.8 42.7 L 353.1 42.7 C 353.1 42.7 353.12 39.7 353.1 39.7 C 353.1 38.6 352.5 38 351.5 38 C 350.4 38 349.7 38.7 349.7 39.9 C 349.7 39.92 349.7 42.7 349.7 42.7 L 349 42.7 L 349 37.4 L 349.7 37.4 C 349.7 37.4 349.67 38.39 349.7 38.4 C 350 37.7 350.8 37.4 351.7 37.4 C 352.9 37.4 353.8 38.1 353.8 39.6 Z M 360.5 35.3 L 360.5 42.7 L 359.9 42.7 C 359.9 42.7 359.86 41.64 359.9 41.6 C 359.4 42.3 358.7 42.7 357.8 42.7 C 356.3 42.7 355.2 41.6 355.2 40 C 355.2 38.5 356.3 37.4 357.8 37.4 C 358.7 37.4 359.4 37.7 359.8 38.4 C 359.83 38.42 359.8 35.3 359.8 35.3 L 360.5 35.3 Z M 359.8 40 C 359.8 38.8 359 38 357.9 38 C 356.8 38 355.9 38.8 355.9 40 C 355.9 41.3 356.8 42.1 357.9 42.1 C 359 42.1 359.8 41.3 359.8 40 Z M 369.7 40.3 C 369.7 40.3 365.3 40.3 365.3 40.3 C 365.4 41.4 366.2 42.1 367.4 42.1 C 368 42.1 368.6 41.9 369 41.4 C 369 41.4 369.4 41.9 369.4 41.9 C 368.9 42.4 368.2 42.7 367.4 42.7 C 365.7 42.7 364.6 41.6 364.6 40 C 364.6 38.5 365.7 37.4 367.2 37.4 C 368.7 37.4 369.7 38.5 369.7 40 C 369.7 40.1 369.7 40.2 369.7 40.3 Z M 365.3 39.7 C 365.3 39.7 369.1 39.7 369.1 39.7 C 369 38.7 368.2 38 367.2 38 C 366.2 38 365.4 38.7 365.3 39.7 Z M 375.1 39.4 C 375.11 39.42 375.1 42.7 375.1 42.7 L 374.4 42.7 C 374.4 42.7 374.43 41.86 374.4 41.9 C 374.1 42.4 373.5 42.7 372.6 42.7 C 371.4 42.7 370.7 42.1 370.7 41.2 C 370.7 40.4 371.2 39.7 372.7 39.7 C 372.73 39.71 374.4 39.7 374.4 39.7 C 374.4 39.7 374.4 39.39 374.4 39.4 C 374.4 38.5 373.9 38 372.9 38 C 372.2 38 371.6 38.2 371.2 38.6 C 371.2 38.6 370.8 38.1 370.8 38.1 C 371.4 37.6 372.2 37.4 373 37.4 C 374.3 37.4 375.1 38.1 375.1 39.4 Z M 374.4 41.1 C 374.4 41.1 374.4 40.2 374.4 40.2 C 374.4 40.2 372.75 40.24 372.8 40.2 C 371.7 40.2 371.4 40.6 371.4 41.2 C 371.4 41.8 371.9 42.2 372.7 42.2 C 373.5 42.2 374.1 41.8 374.4 41.1 Z M 376.3 42.1 C 376.3 42.1 376.6 41.5 376.6 41.5 C 377.1 41.9 377.8 42.1 378.5 42.1 C 379.5 42.1 379.9 41.8 379.9 41.3 C 379.9 39.9 376.5 41 376.5 38.9 C 376.5 38 377.3 37.4 378.6 37.4 C 379.3 37.4 380 37.6 380.5 37.9 C 380.5 37.9 380.1 38.4 380.1 38.4 C 379.7 38.1 379.1 38 378.6 38 C 377.6 38 377.2 38.4 377.2 38.9 C 377.2 40.3 380.6 39.2 380.6 41.2 C 380.6 42.1 379.8 42.7 378.5 42.7 C 377.6 42.7 376.8 42.4 376.3 42.1 Z M 381.8 35.8 C 381.8 35.5 382 35.3 382.3 35.3 C 382.6 35.3 382.8 35.5 382.8 35.7 C 382.8 36 382.6 36.3 382.3 36.3 C 382 36.3 381.8 36 381.8 35.8 Z M 381.9 37.4 L 382.7 37.4 L 382.7 42.7 L 381.9 42.7 L 381.9 37.4 Z M 384.5 35.3 L 385.2 35.3 L 385.2 42.7 L 384.5 42.7 L 384.5 35.3 Z M 391.6 37.4 C 391.6 37.4 389.01 43.31 389 43.3 C 388.6 44.3 388 44.7 387.3 44.7 C 386.8 44.7 386.3 44.5 386 44.2 C 386 44.2 386.3 43.7 386.3 43.7 C 386.6 43.9 386.9 44.1 387.3 44.1 C 387.7 44.1 388.1 43.8 388.4 43.2 C 388.36 43.18 388.6 42.7 388.6 42.7 L 386.2 37.4 L 387 37.4 L 389 41.9 L 390.9 37.4 L 391.6 37.4 Z M 399.2 39.4 C 399.23 39.42 399.2 42.7 399.2 42.7 L 398.6 42.7 C 398.6 42.7 398.55 41.86 398.6 41.9 C 398.2 42.4 397.6 42.7 396.7 42.7 C 395.6 42.7 394.8 42.1 394.8 41.2 C 394.8 40.4 395.3 39.7 396.9 39.7 C 396.85 39.71 398.5 39.7 398.5 39.7 C 398.5 39.7 398.52 39.39 398.5 39.4 C 398.5 38.5 398 38 397 38 C 396.4 38 395.7 38.2 395.3 38.6 C 395.3 38.6 395 38.1 395 38.1 C 395.5 37.6 396.3 37.4 397.1 37.4 C 398.5 37.4 399.2 38.1 399.2 39.4 Z M 398.5 41.1 C 398.52 41.1 398.5 40.2 398.5 40.2 C 398.5 40.2 396.87 40.24 396.9 40.2 C 395.9 40.2 395.5 40.6 395.5 41.2 C 395.5 41.8 396 42.2 396.9 42.2 C 397.7 42.2 398.2 41.8 398.5 41.1 Z M 400.6 40 C 400.6 38.5 401.8 37.4 403.3 37.4 C 404.2 37.4 405 37.7 405.4 38.4 C 405.4 38.4 404.9 38.8 404.9 38.8 C 404.5 38.2 403.9 38 403.3 38 C 402.2 38 401.3 38.8 401.3 40 C 401.3 41.3 402.2 42.1 403.3 42.1 C 403.9 42.1 404.5 41.9 404.9 41.3 C 404.9 41.3 405.4 41.7 405.4 41.7 C 405 42.4 404.2 42.7 403.3 42.7 C 401.8 42.7 400.6 41.6 400.6 40 Z M 406.2 40 C 406.2 38.5 407.3 37.4 408.9 37.4 C 409.8 37.4 410.5 37.7 410.9 38.4 C 410.9 38.4 410.4 38.8 410.4 38.8 C 410 38.2 409.5 38 408.9 38 C 407.7 38 406.9 38.8 406.9 40 C 406.9 41.3 407.7 42.1 408.9 42.1 C 409.5 42.1 410 41.9 410.4 41.3 C 410.4 41.3 410.9 41.7 410.9 41.7 C 410.5 42.4 409.8 42.7 408.9 42.7 C 407.3 42.7 406.2 41.6 406.2 40 Z M 416.9 40.3 C 416.9 40.3 412.5 40.3 412.5 40.3 C 412.5 41.4 413.4 42.1 414.5 42.1 C 415.2 42.1 415.7 41.9 416.1 41.4 C 416.1 41.4 416.5 41.9 416.5 41.9 C 416.1 42.4 415.3 42.7 414.5 42.7 C 412.9 42.7 411.7 41.6 411.7 40 C 411.7 38.5 412.8 37.4 414.3 37.4 C 415.8 37.4 416.9 38.5 416.9 40 C 416.9 40.1 416.9 40.2 416.9 40.3 Z M 412.5 39.7 C 412.5 39.7 416.2 39.7 416.2 39.7 C 416.1 38.7 415.3 38 414.3 38 C 413.3 38 412.5 38.7 412.5 39.7 Z M 417.7 42.1 C 417.7 42.1 418 41.5 418 41.5 C 418.4 41.9 419.1 42.1 419.9 42.1 C 420.9 42.1 421.3 41.8 421.3 41.3 C 421.3 39.9 417.9 41 417.9 38.9 C 417.9 38 418.6 37.4 419.9 37.4 C 420.6 37.4 421.4 37.6 421.8 37.9 C 421.8 37.9 421.5 38.4 421.5 38.4 C 421 38.1 420.5 38 419.9 38 C 419 38 418.6 38.4 418.6 38.9 C 418.6 40.3 422 39.2 422 41.2 C 422 42.1 421.2 42.7 419.8 42.7 C 418.9 42.7 418.1 42.4 417.7 42.1 Z M 422.7 42.1 C 422.7 42.1 423 41.5 423 41.5 C 423.5 41.9 424.2 42.1 424.9 42.1 C 425.9 42.1 426.3 41.8 426.3 41.3 C 426.3 39.9 422.9 41 422.9 38.9 C 422.9 38 423.6 37.4 425 37.4 C 425.7 37.4 426.4 37.6 426.8 37.9 C 426.8 37.9 426.5 38.4 426.5 38.4 C 426.1 38.1 425.5 38 425 38 C 424 38 423.6 38.4 423.6 38.9 C 423.6 40.3 427 39.2 427 41.2 C 427 42.1 426.2 42.7 424.9 42.7 C 424 42.7 423.1 42.4 422.7 42.1 Z M 433 40.3 C 433 40.3 428.6 40.3 428.6 40.3 C 428.7 41.4 429.5 42.1 430.7 42.1 C 431.3 42.1 431.9 41.9 432.3 41.4 C 432.3 41.4 432.7 41.9 432.7 41.9 C 432.2 42.4 431.5 42.7 430.7 42.7 C 429 42.7 427.9 41.6 427.9 40 C 427.9 38.5 429 37.4 430.5 37.4 C 432 37.4 433 38.5 433 40 C 433 40.1 433 40.2 433 40.3 Z M 428.6 39.7 C 428.6 39.7 432.3 39.7 432.3 39.7 C 432.3 38.7 431.5 38 430.5 38 C 429.5 38 428.7 38.7 428.6 39.7 Z M 439.4 35.3 L 439.4 42.7 L 438.7 42.7 C 438.7 42.7 438.67 41.64 438.7 41.6 C 438.2 42.3 437.5 42.7 436.6 42.7 C 435.1 42.7 434 41.6 434 40 C 434 38.5 435.1 37.4 436.6 37.4 C 437.5 37.4 438.2 37.7 438.6 38.4 C 438.64 38.42 438.6 35.3 438.6 35.3 L 439.4 35.3 Z M 438.7 40 C 438.7 38.8 437.8 38 436.7 38 C 435.6 38 434.7 38.8 434.7 40 C 434.7 41.3 435.6 42.1 436.7 42.1 C 437.8 42.1 438.7 41.3 438.7 40 Z M 440.9 42.2 C 440.9 41.9 441.2 41.6 441.5 41.6 C 441.8 41.6 442 41.9 442 42.2 C 442 42.5 441.8 42.7 441.5 42.7 C 441.2 42.7 440.9 42.5 440.9 42.2 Z M 446.2 39.9 C 446.2 38.1 446.6 36.5 447.3 35.3 C 447.3 35.3 448 35.3 448 35.3 C 447.2 36.6 446.9 38.2 446.9 39.9 C 446.9 41.7 447.2 43.2 448 44.6 C 448 44.6 447.3 44.6 447.3 44.6 C 446.6 43.4 446.2 41.8 446.2 39.9 Z M 451.2 36.3 L 448.7 36.3 L 448.7 35.7 L 454.4 35.7 L 454.4 36.3 L 451.9 36.3 L 451.9 42.7 L 451.2 42.7 L 451.2 36.3 Z M 460.3 39.6 C 460.32 39.63 460.3 42.7 460.3 42.7 L 459.6 42.7 C 459.6 42.7 459.61 39.7 459.6 39.7 C 459.6 38.6 459 38 458 38 C 456.9 38 456.2 38.7 456.2 39.9 C 456.19 39.92 456.2 42.7 456.2 42.7 L 455.5 42.7 L 455.5 35.3 L 456.2 35.3 C 456.2 35.3 456.19 38.34 456.2 38.3 C 456.6 37.7 457.3 37.4 458.2 37.4 C 459.4 37.4 460.3 38.1 460.3 39.6 Z M 466.8 40.3 C 466.8 40.3 462.4 40.3 462.4 40.3 C 462.5 41.4 463.3 42.1 464.5 42.1 C 465.1 42.1 465.7 41.9 466.1 41.4 C 466.1 41.4 466.5 41.9 466.5 41.9 C 466 42.4 465.3 42.7 464.5 42.7 C 462.8 42.7 461.7 41.6 461.7 40 C 461.7 38.5 462.8 37.4 464.3 37.4 C 465.8 37.4 466.8 38.5 466.8 40 C 466.8 40.1 466.8 40.2 466.8 40.3 Z M 462.4 39.7 C 462.4 39.7 466.1 39.7 466.1 39.7 C 466.1 38.7 465.3 38 464.3 38 C 463.3 38 462.5 38.7 462.4 39.7 Z " stroke="none" fill="#323132"/>
  </g>
  <g id="Polygon117427">
    <path d="M 6.8 15.7 L 6.8 8.7 L 8.5 8.7 L 8.5 14.4 L 12 14.4 L 12 15.7 L 6.8 15.7 Z M 16.3 15.7 L 16.3 14.6 L 16.2 14.4 C 16.2 14.4 16.16 12.52 16.2 12.5 C 16.2 12.2 16.1 11.9 15.9 11.7 C 15.7 11.6 15.3 11.5 14.9 11.5 C 14.6 11.5 14.4 11.5 14.1 11.6 C 13.8 11.7 13.6 11.8 13.4 12 C 13.4 12 12.8 10.9 12.8 10.9 C 13.1 10.7 13.5 10.5 13.9 10.4 C 14.3 10.3 14.7 10.2 15.1 10.2 C 16 10.2 16.6 10.4 17 10.8 C 17.5 11.2 17.7 11.8 17.7 12.6 C 17.72 12.61 17.7 15.7 17.7 15.7 L 16.3 15.7 Z M 14.6 15.8 C 14.2 15.8 13.8 15.7 13.5 15.5 C 13.2 15.4 13 15.2 12.9 15 C 12.7 14.7 12.6 14.4 12.6 14.1 C 12.6 13.8 12.7 13.5 12.8 13.3 C 13 13 13.3 12.9 13.6 12.7 C 13.9 12.6 14.4 12.5 14.9 12.5 C 14.92 12.52 16.4 12.5 16.4 12.5 L 16.4 13.4 C 16.4 13.4 15.09 13.43 15.1 13.4 C 14.7 13.4 14.5 13.5 14.3 13.6 C 14.2 13.7 14.1 13.9 14.1 14.1 C 14.1 14.3 14.2 14.4 14.4 14.5 C 14.5 14.7 14.7 14.7 15 14.7 C 15.3 14.7 15.5 14.6 15.7 14.5 C 15.9 14.4 16.1 14.2 16.2 14 C 16.2 14 16.4 14.7 16.4 14.7 C 16.3 15 16.1 15.3 15.8 15.5 C 15.5 15.7 15.1 15.8 14.6 15.8 Z M 19.6 17.7 C 19.4 17.7 19.1 17.7 18.8 17.6 C 18.5 17.5 18.3 17.4 18.1 17.2 C 18.1 17.2 18.7 16.1 18.7 16.1 C 18.8 16.2 19 16.3 19.1 16.3 C 19.3 16.4 19.4 16.4 19.6 16.4 C 19.8 16.4 20 16.4 20.1 16.3 C 20.2 16.2 20.4 16 20.5 15.8 C 20.47 15.77 20.7 15.1 20.7 15.1 L 20.9 14.9 L 22.8 10.3 L 24.3 10.3 C 24.3 10.3 21.87 16.01 21.9 16 C 21.7 16.4 21.5 16.8 21.3 17 C 21 17.3 20.8 17.4 20.5 17.5 C 20.3 17.6 20 17.7 19.6 17.7 Z M 20.6 15.9 L 18.2 10.3 L 19.8 10.3 L 21.6 14.8 L 20.6 15.9 Z M 27.4 15.8 C 26.8 15.8 26.3 15.6 25.9 15.4 C 25.4 15.2 25.1 14.8 24.8 14.4 C 24.6 14 24.4 13.5 24.4 13 C 24.4 12.4 24.6 12 24.8 11.6 C 25.1 11.1 25.4 10.8 25.9 10.6 C 26.3 10.3 26.8 10.2 27.4 10.2 C 28 10.2 28.5 10.3 28.9 10.6 C 29.4 10.8 29.7 11.1 30 11.5 C 30.2 12 30.3 12.4 30.3 13 C 30.3 13.5 30.2 14 30 14.4 C 29.7 14.8 29.4 15.2 28.9 15.4 C 28.5 15.6 28 15.8 27.4 15.8 Z M 27.4 14.5 C 27.6 14.5 27.9 14.4 28.1 14.3 C 28.3 14.2 28.5 14 28.6 13.8 C 28.7 13.6 28.8 13.3 28.8 13 C 28.8 12.7 28.7 12.4 28.6 12.2 C 28.5 12 28.3 11.8 28.1 11.7 C 27.9 11.6 27.6 11.5 27.4 11.5 C 27.1 11.5 26.9 11.6 26.7 11.7 C 26.5 11.8 26.3 12 26.2 12.2 C 26.1 12.4 26 12.7 26 13 C 26 13.3 26.1 13.6 26.2 13.8 C 26.3 14 26.5 14.2 26.7 14.3 C 26.9 14.4 27.1 14.5 27.4 14.5 Z M 33.7 15.8 C 33.2 15.8 32.8 15.7 32.5 15.5 C 32.1 15.3 31.8 15.1 31.6 14.7 C 31.4 14.3 31.4 13.9 31.4 13.3 C 31.35 13.34 31.4 10.3 31.4 10.3 L 32.9 10.3 C 32.9 10.3 32.91 13.11 32.9 13.1 C 32.9 13.6 33 13.9 33.2 14.1 C 33.4 14.3 33.7 14.4 34 14.4 C 34.2 14.4 34.5 14.4 34.6 14.3 C 34.8 14.2 35 14 35.1 13.8 C 35.2 13.6 35.2 13.3 35.2 13 C 35.24 12.96 35.2 10.3 35.2 10.3 L 36.8 10.3 L 36.8 15.7 L 35.3 15.7 L 35.3 14.2 C 35.3 14.2 35.59 14.63 35.6 14.6 C 35.4 15 35.1 15.3 34.8 15.5 C 34.4 15.7 34.1 15.8 33.7 15.8 Z M 40.5 15.8 C 39.9 15.8 39.4 15.6 39.1 15.3 C 38.7 15 38.5 14.5 38.5 13.8 C 38.53 13.83 38.5 9.1 38.5 9.1 L 40.1 9.1 C 40.1 9.1 40.09 13.81 40.1 13.8 C 40.1 14 40.1 14.2 40.3 14.3 C 40.4 14.5 40.6 14.5 40.8 14.5 C 41 14.5 41.2 14.5 41.4 14.3 C 41.4 14.3 41.8 15.4 41.8 15.4 C 41.6 15.5 41.5 15.6 41.2 15.7 C 41 15.7 40.8 15.8 40.5 15.8 Z M 37.7 11.6 L 37.7 10.4 L 41.4 10.4 L 41.4 11.6 L 37.7 11.6 Z " stroke="none" fill="#323132"/>
  </g>
</svg>