<?xml version="1.0" standalone="no"?>
<!DOCTYPE svg PUBLIC "-//W3C//DTD SVG 1.1//EN" "http://www.w3.org/Graphics/SVG/1.1/DTD/svg11.dtd">
<svg xmlns="http://www.w3.org/2000/svg" version="1.1" width="445.2px" height="92.5px" viewBox="0 0 445.2 92.5">
  <desc>the core values of the group; the framework for acceptable social behaviour; and establish the groups distinct identity.</desc>
  <defs/>
  <g id="Polygon123134">
    <path d="M 36.6 68.4 C 36.6 68.4 32.2 68.4 32.2 68.4 C 32.2 69.5 33.1 70.3 34.2 70.3 C 34.9 70.3 35.5 70 35.9 69.6 C 35.9 69.6 36.2 70 36.2 70 C 35.8 70.6 35.1 70.9 34.2 70.9 C 32.6 70.9 31.5 69.8 31.5 68.2 C 31.5 66.6 32.5 65.5 34 65.5 C 35.5 65.5 36.6 66.6 36.6 68.2 C 36.6 68.3 36.6 68.3 36.6 68.4 Z M 32.2 67.9 C 32.2 67.9 35.9 67.9 35.9 67.9 C 35.8 66.9 35.1 66.1 34 66.1 C 33 66.1 32.3 66.9 32.2 67.9 Z M 37.4 70.2 C 37.4 70.2 37.7 69.7 37.7 69.7 C 38.1 70 38.8 70.3 39.6 70.3 C 40.6 70.3 41 69.9 41 69.4 C 41 68 37.6 69.1 37.6 67 C 37.6 66.2 38.3 65.5 39.6 65.5 C 40.3 65.5 41.1 65.7 41.5 66 C 41.5 66 41.2 66.6 41.2 66.6 C 40.7 66.3 40.2 66.1 39.6 66.1 C 38.7 66.1 38.3 66.5 38.3 67 C 38.3 68.4 41.7 67.4 41.7 69.4 C 41.7 70.3 40.9 70.9 39.5 70.9 C 38.6 70.9 37.8 70.6 37.4 70.2 Z M 46 70.5 C 45.7 70.8 45.3 70.9 44.9 70.9 C 43.9 70.9 43.3 70.3 43.3 69.4 C 43.32 69.36 43.3 66.2 43.3 66.2 L 42.4 66.2 L 42.4 65.6 L 43.3 65.6 L 43.3 64.4 L 44 64.4 L 44 65.6 L 45.6 65.6 L 45.6 66.2 L 44 66.2 C 44 66.2 44.03 69.32 44 69.3 C 44 69.9 44.3 70.3 44.9 70.3 C 45.2 70.3 45.5 70.2 45.7 70 C 45.7 70 46 70.5 46 70.5 Z M 51.2 67.6 C 51.2 67.58 51.2 70.8 51.2 70.8 L 50.5 70.8 C 50.5 70.8 50.52 70.02 50.5 70 C 50.2 70.6 49.6 70.9 48.7 70.9 C 47.5 70.9 46.8 70.3 46.8 69.4 C 46.8 68.5 47.3 67.9 48.8 67.9 C 48.82 67.87 50.5 67.9 50.5 67.9 C 50.5 67.9 50.49 67.55 50.5 67.6 C 50.5 66.6 50 66.2 49 66.2 C 48.3 66.2 47.7 66.4 47.2 66.8 C 47.2 66.8 46.9 66.2 46.9 66.2 C 47.5 65.8 48.2 65.5 49.1 65.5 C 50.4 65.5 51.2 66.2 51.2 67.6 Z M 50.5 69.3 C 50.49 69.26 50.5 68.4 50.5 68.4 C 50.5 68.4 48.84 68.4 48.8 68.4 C 47.8 68.4 47.5 68.8 47.5 69.3 C 47.5 70 48 70.3 48.8 70.3 C 49.6 70.3 50.2 70 50.5 69.3 Z M 58.3 68.2 C 58.3 69.8 57.2 70.9 55.7 70.9 C 54.9 70.9 54.1 70.5 53.7 69.8 C 53.69 69.8 53.7 70.8 53.7 70.8 L 53 70.8 L 53 63.4 L 53.7 63.4 C 53.7 63.4 53.72 66.58 53.7 66.6 C 54.2 65.9 54.9 65.5 55.7 65.5 C 57.2 65.5 58.3 66.6 58.3 68.2 Z M 57.6 68.2 C 57.6 67 56.8 66.2 55.7 66.2 C 54.6 66.2 53.7 67 53.7 68.2 C 53.7 69.4 54.6 70.3 55.7 70.3 C 56.8 70.3 57.6 69.4 57.6 68.2 Z M 59.8 63.4 L 60.5 63.4 L 60.5 70.8 L 59.8 70.8 L 59.8 63.4 Z M 62.2 63.9 C 62.2 63.7 62.4 63.4 62.7 63.4 C 63 63.4 63.2 63.6 63.2 63.9 C 63.2 64.2 63 64.4 62.7 64.4 C 62.4 64.4 62.2 64.2 62.2 63.9 Z M 62.4 65.6 L 63.1 65.6 L 63.1 70.8 L 62.4 70.8 L 62.4 65.6 Z M 64.3 70.2 C 64.3 70.2 64.6 69.7 64.6 69.7 C 65.1 70 65.8 70.3 66.5 70.3 C 67.5 70.3 67.9 69.9 67.9 69.4 C 67.9 68 64.5 69.1 64.5 67 C 64.5 66.2 65.3 65.5 66.6 65.5 C 67.3 65.5 68 65.7 68.5 66 C 68.5 66 68.1 66.6 68.1 66.6 C 67.7 66.3 67.1 66.1 66.6 66.1 C 65.6 66.1 65.2 66.5 65.2 67 C 65.2 68.4 68.6 67.4 68.6 69.4 C 68.6 70.3 67.8 70.9 66.5 70.9 C 65.6 70.9 64.8 70.6 64.3 70.2 Z M 74.8 67.8 C 74.79 67.79 74.8 70.8 74.8 70.8 L 74.1 70.8 C 74.1 70.8 74.08 67.86 74.1 67.9 C 74.1 66.7 73.5 66.2 72.5 66.2 C 71.4 66.2 70.7 66.9 70.7 68.1 C 70.66 68.08 70.7 70.8 70.7 70.8 L 70 70.8 L 70 63.4 L 70.7 63.4 C 70.7 63.4 70.66 66.5 70.7 66.5 C 71.1 65.9 71.7 65.5 72.6 65.5 C 73.9 65.5 74.8 66.3 74.8 67.8 Z M 82.1 70.5 C 81.8 70.8 81.4 70.9 81 70.9 C 80 70.9 79.5 70.3 79.5 69.4 C 79.46 69.36 79.5 66.2 79.5 66.2 L 78.5 66.2 L 78.5 65.6 L 79.5 65.6 L 79.5 64.4 L 80.2 64.4 L 80.2 65.6 L 81.8 65.6 L 81.8 66.2 L 80.2 66.2 C 80.2 66.2 80.17 69.32 80.2 69.3 C 80.2 69.9 80.5 70.3 81.1 70.3 C 81.4 70.3 81.7 70.2 81.9 70 C 81.9 70 82.1 70.5 82.1 70.5 Z M 88.1 67.8 C 88.14 67.79 88.1 70.8 88.1 70.8 L 87.4 70.8 C 87.4 70.8 87.43 67.86 87.4 67.9 C 87.4 66.7 86.8 66.2 85.8 66.2 C 84.7 66.2 84 66.9 84 68.1 C 84.01 68.08 84 70.8 84 70.8 L 83.3 70.8 L 83.3 63.4 L 84 63.4 C 84 63.4 84.01 66.5 84 66.5 C 84.4 65.9 85.1 65.5 86 65.5 C 87.3 65.5 88.1 66.3 88.1 67.8 Z M 94.6 68.4 C 94.6 68.4 90.2 68.4 90.2 68.4 C 90.3 69.5 91.2 70.3 92.3 70.3 C 92.9 70.3 93.5 70 93.9 69.6 C 93.9 69.6 94.3 70 94.3 70 C 93.8 70.6 93.1 70.9 92.3 70.9 C 90.6 70.9 89.5 69.8 89.5 68.2 C 89.5 66.6 90.6 65.5 92.1 65.5 C 93.6 65.5 94.6 66.6 94.6 68.2 C 94.6 68.3 94.6 68.3 94.6 68.4 Z M 90.2 67.9 C 90.2 67.9 94 67.9 94 67.9 C 93.9 66.9 93.1 66.1 92.1 66.1 C 91.1 66.1 90.3 66.9 90.2 67.9 Z M 103.6 65.6 C 103.6 65.6 103.58 70.2 103.6 70.2 C 103.6 72 102.7 72.8 101 72.8 C 100 72.8 99.1 72.5 98.5 72 C 98.5 72 98.9 71.5 98.9 71.5 C 99.4 71.9 100.1 72.2 100.9 72.2 C 102.3 72.2 102.9 71.6 102.9 70.3 C 102.9 70.3 102.9 69.6 102.9 69.6 C 102.4 70.3 101.7 70.6 100.8 70.6 C 99.3 70.6 98.2 69.6 98.2 68.1 C 98.2 66.6 99.3 65.5 100.8 65.5 C 101.7 65.5 102.5 65.9 102.9 66.6 C 102.9 66.59 102.9 65.6 102.9 65.6 L 103.6 65.6 Z M 102.9 68.1 C 102.9 66.9 102.1 66.2 100.9 66.2 C 99.7 66.2 98.9 66.9 98.9 68.1 C 98.9 69.2 99.7 70 100.9 70 C 102.1 70 102.9 69.2 102.9 68.1 Z M 108.1 65.5 C 108.1 65.5 108.1 66.2 108.1 66.2 C 108 66.2 108 66.2 107.9 66.2 C 106.8 66.2 106.2 66.9 106.2 68.2 C 106.15 68.16 106.2 70.8 106.2 70.8 L 105.4 70.8 L 105.4 65.6 L 106.1 65.6 C 106.1 65.6 106.12 66.61 106.1 66.6 C 106.5 65.9 107.1 65.5 108.1 65.5 Z M 108.7 68.2 C 108.7 66.6 109.8 65.5 111.4 65.5 C 112.9 65.5 114.1 66.6 114.1 68.2 C 114.1 69.8 112.9 70.9 111.4 70.9 C 109.8 70.9 108.7 69.8 108.7 68.2 Z M 113.3 68.2 C 113.3 67 112.5 66.2 111.4 66.2 C 110.3 66.2 109.4 67 109.4 68.2 C 109.4 69.4 110.3 70.3 111.4 70.3 C 112.5 70.3 113.3 69.4 113.3 68.2 Z M 120.2 65.6 L 120.2 70.8 L 119.5 70.8 C 119.5 70.8 119.53 69.88 119.5 69.9 C 119.2 70.5 118.5 70.9 117.6 70.9 C 116.3 70.9 115.4 70.1 115.4 68.6 C 115.42 68.63 115.4 65.6 115.4 65.6 L 116.1 65.6 C 116.1 65.6 116.13 68.56 116.1 68.6 C 116.1 69.7 116.7 70.3 117.7 70.3 C 118.8 70.3 119.5 69.5 119.5 68.3 C 119.5 68.34 119.5 65.6 119.5 65.6 L 120.2 65.6 Z M 127.4 68.2 C 127.4 69.8 126.3 70.9 124.8 70.9 C 123.9 70.9 123.2 70.5 122.8 69.9 C 122.79 69.85 122.8 72.8 122.8 72.8 L 122.1 72.8 L 122.1 65.6 L 122.8 65.6 C 122.8 65.6 122.76 66.62 122.8 66.6 C 123.2 65.9 123.9 65.5 124.8 65.5 C 126.3 65.5 127.4 66.6 127.4 68.2 Z M 126.7 68.2 C 126.7 67 125.8 66.2 124.7 66.2 C 123.6 66.2 122.8 67 122.8 68.2 C 122.8 69.4 123.6 70.3 124.7 70.3 C 125.8 70.3 126.7 69.4 126.7 68.2 Z M 128.2 70.2 C 128.2 70.2 128.5 69.7 128.5 69.7 C 128.9 70 129.7 70.3 130.4 70.3 C 131.4 70.3 131.8 69.9 131.8 69.4 C 131.8 68 128.4 69.1 128.4 67 C 128.4 66.2 129.1 65.5 130.5 65.5 C 131.2 65.5 131.9 65.7 132.3 66 C 132.3 66 132 66.6 132 66.6 C 131.6 66.3 131 66.1 130.5 66.1 C 129.5 66.1 129.1 66.5 129.1 67 C 129.1 68.4 132.5 67.4 132.5 69.4 C 132.5 70.3 131.7 70.9 130.3 70.9 C 129.5 70.9 128.6 70.6 128.2 70.2 Z M 141.2 63.4 L 141.2 70.8 L 140.6 70.8 C 140.6 70.8 140.56 69.8 140.6 69.8 C 140.1 70.5 139.4 70.9 138.5 70.9 C 137 70.9 135.9 69.8 135.9 68.2 C 135.9 66.6 137 65.5 138.5 65.5 C 139.4 65.5 140.1 65.9 140.5 66.6 C 140.53 66.58 140.5 63.4 140.5 63.4 L 141.2 63.4 Z M 140.5 68.2 C 140.5 67 139.7 66.2 138.6 66.2 C 137.5 66.2 136.6 67 136.6 68.2 C 136.6 69.4 137.5 70.3 138.6 70.3 C 139.7 70.3 140.5 69.4 140.5 68.2 Z M 142.9 63.9 C 142.9 63.7 143.2 63.4 143.5 63.4 C 143.8 63.4 144 63.6 144 63.9 C 144 64.2 143.8 64.4 143.5 64.4 C 143.2 64.4 142.9 64.2 142.9 63.9 Z M 143.1 65.6 L 143.8 65.6 L 143.8 70.8 L 143.1 70.8 L 143.1 65.6 Z M 145.1 70.2 C 145.1 70.2 145.4 69.7 145.4 69.7 C 145.8 70 146.5 70.3 147.3 70.3 C 148.3 70.3 148.7 69.9 148.7 69.4 C 148.7 68 145.3 69.1 145.3 67 C 145.3 66.2 146 65.5 147.4 65.5 C 148 65.5 148.8 65.7 149.2 66 C 149.2 66 148.9 66.6 148.9 66.6 C 148.4 66.3 147.9 66.1 147.4 66.1 C 146.4 66.1 146 66.5 146 67 C 146 68.4 149.4 67.4 149.4 69.4 C 149.4 70.3 148.6 70.9 147.2 70.9 C 146.4 70.9 145.5 70.6 145.1 70.2 Z M 153.7 70.5 C 153.4 70.8 153 70.9 152.6 70.9 C 151.6 70.9 151 70.3 151 69.4 C 151.03 69.36 151 66.2 151 66.2 L 150.1 66.2 L 150.1 65.6 L 151 65.6 L 151 64.4 L 151.7 64.4 L 151.7 65.6 L 153.3 65.6 L 153.3 66.2 L 151.7 66.2 C 151.7 66.2 151.74 69.32 151.7 69.3 C 151.7 69.9 152.1 70.3 152.6 70.3 C 152.9 70.3 153.2 70.2 153.4 70 C 153.4 70 153.7 70.5 153.7 70.5 Z M 154.7 63.9 C 154.7 63.7 154.9 63.4 155.2 63.4 C 155.5 63.4 155.7 63.6 155.7 63.9 C 155.7 64.2 155.5 64.4 155.2 64.4 C 154.9 64.4 154.7 64.2 154.7 63.9 Z M 154.9 65.6 L 155.6 65.6 L 155.6 70.8 L 154.9 70.8 L 154.9 65.6 Z M 162.3 67.8 C 162.26 67.79 162.3 70.8 162.3 70.8 L 161.6 70.8 C 161.6 70.8 161.55 67.86 161.6 67.9 C 161.6 66.7 161 66.2 160 66.2 C 158.8 66.2 158.1 66.9 158.1 68.1 C 158.13 68.08 158.1 70.8 158.1 70.8 L 157.4 70.8 L 157.4 65.6 L 158.1 65.6 C 158.1 65.6 158.1 66.55 158.1 66.5 C 158.5 65.9 159.2 65.5 160.1 65.5 C 161.4 65.5 162.3 66.3 162.3 67.8 Z M 163.6 68.2 C 163.6 66.6 164.8 65.5 166.4 65.5 C 167.2 65.5 168 65.9 168.4 66.6 C 168.4 66.6 167.9 66.9 167.9 66.9 C 167.5 66.4 167 66.2 166.4 66.2 C 165.2 66.2 164.4 67 164.4 68.2 C 164.4 69.5 165.2 70.3 166.4 70.3 C 167 70.3 167.5 70 167.9 69.5 C 167.9 69.5 168.4 69.9 168.4 69.9 C 168 70.5 167.2 70.9 166.4 70.9 C 164.8 70.9 163.6 69.8 163.6 68.2 Z M 172.8 70.5 C 172.5 70.8 172.1 70.9 171.6 70.9 C 170.7 70.9 170.1 70.3 170.1 69.4 C 170.11 69.36 170.1 66.2 170.1 66.2 L 169.2 66.2 L 169.2 65.6 L 170.1 65.6 L 170.1 64.4 L 170.8 64.4 L 170.8 65.6 L 172.4 65.6 L 172.4 66.2 L 170.8 66.2 C 170.8 66.2 170.82 69.32 170.8 69.3 C 170.8 69.9 171.1 70.3 171.7 70.3 C 172 70.3 172.3 70.2 172.5 70 C 172.5 70 172.8 70.5 172.8 70.5 Z M 176.5 63.9 C 176.5 63.7 176.7 63.4 177 63.4 C 177.3 63.4 177.5 63.6 177.5 63.9 C 177.5 64.2 177.3 64.4 177 64.4 C 176.7 64.4 176.5 64.2 176.5 63.9 Z M 176.7 65.6 L 177.4 65.6 L 177.4 70.8 L 176.7 70.8 L 176.7 65.6 Z M 184.1 63.4 L 184.1 70.8 L 183.4 70.8 C 183.4 70.8 183.42 69.8 183.4 69.8 C 183 70.5 182.3 70.9 181.4 70.9 C 179.9 70.9 178.8 69.8 178.8 68.2 C 178.8 66.6 179.9 65.5 181.4 65.5 C 182.2 65.5 183 65.9 183.4 66.6 C 183.39 66.58 183.4 63.4 183.4 63.4 L 184.1 63.4 Z M 183.4 68.2 C 183.4 67 182.6 66.2 181.4 66.2 C 180.3 66.2 179.5 67 179.5 68.2 C 179.5 69.4 180.3 70.3 181.4 70.3 C 182.6 70.3 183.4 69.4 183.4 68.2 Z M 190.7 68.4 C 190.7 68.4 186.3 68.4 186.3 68.4 C 186.3 69.5 187.2 70.3 188.3 70.3 C 189 70.3 189.5 70 189.9 69.6 C 189.9 69.6 190.3 70 190.3 70 C 189.9 70.6 189.1 70.9 188.3 70.9 C 186.7 70.9 185.5 69.8 185.5 68.2 C 185.5 66.6 186.6 65.5 188.1 65.5 C 189.6 65.5 190.7 66.6 190.7 68.2 C 190.7 68.3 190.7 68.3 190.7 68.4 Z M 186.3 67.9 C 186.3 67.9 190 67.9 190 67.9 C 189.9 66.9 189.1 66.1 188.1 66.1 C 187.1 66.1 186.3 66.9 186.3 67.9 Z M 196.9 67.8 C 196.91 67.79 196.9 70.8 196.9 70.8 L 196.2 70.8 C 196.2 70.8 196.2 67.86 196.2 67.9 C 196.2 66.7 195.6 66.2 194.6 66.2 C 193.5 66.2 192.8 66.9 192.8 68.1 C 192.78 68.08 192.8 70.8 192.8 70.8 L 192.1 70.8 L 192.1 65.6 L 192.7 65.6 C 192.7 65.6 192.75 66.55 192.7 66.5 C 193.1 65.9 193.8 65.5 194.7 65.5 C 196 65.5 196.9 66.3 196.9 67.8 Z M 201.4 70.5 C 201.2 70.8 200.7 70.9 200.3 70.9 C 199.3 70.9 198.8 70.3 198.8 69.4 C 198.79 69.36 198.8 66.2 198.8 66.2 L 197.8 66.2 L 197.8 65.6 L 198.8 65.6 L 198.8 64.4 L 199.5 64.4 L 199.5 65.6 L 201.1 65.6 L 201.1 66.2 L 199.5 66.2 C 199.5 66.2 199.5 69.32 199.5 69.3 C 199.5 69.9 199.8 70.3 200.4 70.3 C 200.7 70.3 201 70.2 201.2 70 C 201.2 70 201.4 70.5 201.4 70.5 Z M 202.5 63.9 C 202.5 63.7 202.7 63.4 203 63.4 C 203.3 63.4 203.5 63.6 203.5 63.9 C 203.5 64.2 203.3 64.4 203 64.4 C 202.7 64.4 202.5 64.2 202.5 63.9 Z M 202.6 65.6 L 203.3 65.6 L 203.3 70.8 L 202.6 70.8 L 202.6 65.6 Z M 208 70.5 C 207.8 70.8 207.3 70.9 206.9 70.9 C 205.9 70.9 205.4 70.3 205.4 69.4 C 205.39 69.36 205.4 66.2 205.4 66.2 L 204.5 66.2 L 204.5 65.6 L 205.4 65.6 L 205.4 64.4 L 206.1 64.4 L 206.1 65.6 L 207.7 65.6 L 207.7 66.2 L 206.1 66.2 C 206.1 66.2 206.1 69.32 206.1 69.3 C 206.1 69.9 206.4 70.3 207 70.3 C 207.3 70.3 207.6 70.2 207.8 70 C 207.8 70 208 70.5 208 70.5 Z M 214 65.6 C 214 65.6 211.33 71.47 211.3 71.5 C 210.9 72.5 210.3 72.8 209.6 72.8 C 209.1 72.8 208.6 72.7 208.3 72.4 C 208.3 72.4 208.6 71.8 208.6 71.8 C 208.9 72.1 209.2 72.2 209.6 72.2 C 210.1 72.2 210.4 72 210.7 71.3 C 210.68 71.34 210.9 70.8 210.9 70.8 L 208.6 65.6 L 209.3 65.6 L 211.3 70.1 L 213.3 65.6 L 214 65.6 Z M 214.1 70.3 C 214.1 70 214.3 69.8 214.6 69.8 C 214.9 69.8 215.1 70 215.1 70.3 C 215.1 70.6 214.9 70.9 214.6 70.9 C 214.3 70.9 214.1 70.6 214.1 70.3 Z " stroke="none" fill="#323132"/>
  </g>
  <g id="Polygon123133">
    <path d="M 20.4 68.2 L 16.2 70.3 L 16.2 66.1 L 20.4 68.2 Z " stroke="none" fill="#a243ff"/>
  </g>
  <g id="Polygon123132">
    <path d="M 34.8 49.5 C 34.5 49.8 34.1 49.9 33.6 49.9 C 32.7 49.9 32.1 49.3 32.1 48.4 C 32.11 48.36 32.1 45.2 32.1 45.2 L 31.2 45.2 L 31.2 44.6 L 32.1 44.6 L 32.1 43.4 L 32.8 43.4 L 32.8 44.6 L 34.4 44.6 L 34.4 45.2 L 32.8 45.2 C 32.8 45.2 32.82 48.32 32.8 48.3 C 32.8 48.9 33.1 49.3 33.7 49.3 C 34 49.3 34.3 49.2 34.5 49 C 34.5 49 34.8 49.5 34.8 49.5 Z M 40.8 46.8 C 40.79 46.79 40.8 49.8 40.8 49.8 L 40.1 49.8 C 40.1 49.8 40.08 46.86 40.1 46.9 C 40.1 45.7 39.5 45.2 38.5 45.2 C 37.4 45.2 36.7 45.9 36.7 47.1 C 36.66 47.08 36.7 49.8 36.7 49.8 L 35.9 49.8 L 35.9 42.4 L 36.7 42.4 C 36.7 42.4 36.66 45.5 36.7 45.5 C 37 44.9 37.7 44.5 38.6 44.5 C 39.9 44.5 40.8 45.3 40.8 46.8 Z M 47.3 47.4 C 47.3 47.4 42.9 47.4 42.9 47.4 C 43 48.5 43.8 49.3 45 49.3 C 45.6 49.3 46.2 49 46.6 48.6 C 46.6 48.6 47 49 47 49 C 46.5 49.6 45.8 49.9 44.9 49.9 C 43.3 49.9 42.2 48.8 42.2 47.2 C 42.2 45.6 43.3 44.5 44.7 44.5 C 46.2 44.5 47.3 45.6 47.3 47.2 C 47.3 47.3 47.3 47.3 47.3 47.4 Z M 42.9 46.9 C 42.9 46.9 46.6 46.9 46.6 46.9 C 46.5 45.9 45.8 45.1 44.7 45.1 C 43.7 45.1 43 45.9 42.9 46.9 Z M 52.2 44 C 52.17 43.96 52.2 44.6 52.2 44.6 L 53.8 44.6 L 53.8 45.2 L 52.2 45.2 L 52.2 49.8 L 51.5 49.8 L 51.5 45.2 L 50.5 45.2 L 50.5 44.6 L 51.5 44.6 C 51.5 44.6 51.48 43.93 51.5 43.9 C 51.5 43 52 42.4 53.1 42.4 C 53.5 42.4 53.9 42.5 54.1 42.7 C 54.1 42.7 53.9 43.2 53.9 43.2 C 53.7 43.1 53.4 43 53.1 43 C 52.5 43 52.2 43.3 52.2 44 Z M 57.5 44.5 C 57.5 44.5 57.5 45.2 57.5 45.2 C 57.4 45.2 57.3 45.2 57.3 45.2 C 56.2 45.2 55.5 45.9 55.5 47.2 C 55.52 47.16 55.5 49.8 55.5 49.8 L 54.8 49.8 L 54.8 44.6 L 55.5 44.6 C 55.5 44.6 55.49 45.61 55.5 45.6 C 55.8 44.9 56.5 44.5 57.5 44.5 Z M 62.8 46.6 C 62.8 46.58 62.8 49.8 62.8 49.8 L 62.1 49.8 C 62.1 49.8 62.12 49.02 62.1 49 C 61.8 49.6 61.2 49.9 60.3 49.9 C 59.1 49.9 58.4 49.3 58.4 48.4 C 58.4 47.5 58.9 46.9 60.4 46.9 C 60.42 46.87 62.1 46.9 62.1 46.9 C 62.1 46.9 62.09 46.55 62.1 46.6 C 62.1 45.6 61.6 45.2 60.6 45.2 C 59.9 45.2 59.3 45.4 58.8 45.8 C 58.8 45.8 58.5 45.2 58.5 45.2 C 59.1 44.8 59.8 44.5 60.7 44.5 C 62 44.5 62.8 45.2 62.8 46.6 Z M 62.1 48.3 C 62.09 48.26 62.1 47.4 62.1 47.4 C 62.1 47.4 60.44 47.4 60.4 47.4 C 59.4 47.4 59.1 47.8 59.1 48.3 C 59.1 49 59.6 49.3 60.4 49.3 C 61.2 49.3 61.8 49 62.1 48.3 Z M 73.3 46.8 C 73.29 46.79 73.3 49.8 73.3 49.8 L 72.6 49.8 C 72.6 49.8 72.58 46.86 72.6 46.9 C 72.6 45.7 72 45.2 71.1 45.2 C 70 45.2 69.3 45.9 69.3 47.1 C 69.31 47.08 69.3 49.8 69.3 49.8 L 68.6 49.8 C 68.6 49.8 68.6 46.86 68.6 46.9 C 68.6 45.7 68 45.2 67.1 45.2 C 66 45.2 65.3 45.9 65.3 47.1 C 65.32 47.08 65.3 49.8 65.3 49.8 L 64.6 49.8 L 64.6 44.6 L 65.3 44.6 C 65.3 44.6 65.29 45.54 65.3 45.5 C 65.7 44.9 66.3 44.5 67.2 44.5 C 68.1 44.5 68.8 44.9 69.1 45.6 C 69.5 45 70.2 44.5 71.2 44.5 C 72.5 44.5 73.3 45.3 73.3 46.8 Z M 79.8 47.4 C 79.8 47.4 75.4 47.4 75.4 47.4 C 75.5 48.5 76.3 49.3 77.5 49.3 C 78.1 49.3 78.7 49 79.1 48.6 C 79.1 48.6 79.5 49 79.5 49 C 79 49.6 78.3 49.9 77.4 49.9 C 75.8 49.9 74.7 48.8 74.7 47.2 C 74.7 45.6 75.8 44.5 77.3 44.5 C 78.7 44.5 79.8 45.6 79.8 47.2 C 79.8 47.3 79.8 47.3 79.8 47.4 Z M 75.4 46.9 C 75.4 46.9 79.1 46.9 79.1 46.9 C 79 45.9 78.3 45.1 77.3 45.1 C 76.2 45.1 75.5 45.9 75.4 46.9 Z M 88.9 44.6 L 86.9 49.8 L 86.2 49.8 L 84.6 45.5 L 82.9 49.8 L 82.3 49.8 L 80.3 44.6 L 81 44.6 L 82.6 49.1 L 84.3 44.6 L 84.9 44.6 L 86.6 49.1 L 88.3 44.6 L 88.9 44.6 Z M 89.4 47.2 C 89.4 45.6 90.5 44.5 92.1 44.5 C 93.6 44.5 94.7 45.6 94.7 47.2 C 94.7 48.8 93.6 49.9 92.1 49.9 C 90.5 49.9 89.4 48.8 89.4 47.2 Z M 94 47.2 C 94 46 93.2 45.2 92.1 45.2 C 90.9 45.2 90.1 46 90.1 47.2 C 90.1 48.4 90.9 49.3 92.1 49.3 C 93.2 49.3 94 48.4 94 47.2 Z M 98.8 44.5 C 98.8 44.5 98.8 45.2 98.8 45.2 C 98.7 45.2 98.7 45.2 98.6 45.2 C 97.5 45.2 96.9 45.9 96.9 47.2 C 96.86 47.16 96.9 49.8 96.9 49.8 L 96.2 49.8 L 96.2 44.6 L 96.8 44.6 C 96.8 44.6 96.83 45.61 96.8 45.6 C 97.2 44.9 97.8 44.5 98.8 44.5 Z M 102 47.2 L 100.7 48.3 L 100.7 49.8 L 100 49.8 L 100 42.4 L 100.7 42.4 L 100.7 47.4 L 103.9 44.6 L 104.8 44.6 L 102.5 46.7 L 105 49.8 L 104.1 49.8 L 102 47.2 Z M 109.5 44 C 109.47 43.96 109.5 44.6 109.5 44.6 L 111.1 44.6 L 111.1 45.2 L 109.5 45.2 L 109.5 49.8 L 108.8 49.8 L 108.8 45.2 L 107.8 45.2 L 107.8 44.6 L 108.8 44.6 C 108.8 44.6 108.78 43.93 108.8 43.9 C 108.8 43 109.3 42.4 110.4 42.4 C 110.8 42.4 111.2 42.5 111.4 42.7 C 111.4 42.7 111.2 43.2 111.2 43.2 C 111 43.1 110.7 43 110.4 43 C 109.8 43 109.5 43.3 109.5 44 Z M 111.5 47.2 C 111.5 45.6 112.6 44.5 114.2 44.5 C 115.7 44.5 116.8 45.6 116.8 47.2 C 116.8 48.8 115.7 49.9 114.2 49.9 C 112.6 49.9 111.5 48.8 111.5 47.2 Z M 116.1 47.2 C 116.1 46 115.3 45.2 114.2 45.2 C 113.1 45.2 112.2 46 112.2 47.2 C 112.2 48.4 113.1 49.3 114.2 49.3 C 115.3 49.3 116.1 48.4 116.1 47.2 Z M 120.9 44.5 C 120.9 44.5 120.9 45.2 120.9 45.2 C 120.9 45.2 120.8 45.2 120.8 45.2 C 119.7 45.2 119 45.9 119 47.2 C 118.98 47.16 119 49.8 119 49.8 L 118.3 49.8 L 118.3 44.6 L 119 44.6 C 119 44.6 118.95 45.61 119 45.6 C 119.3 44.9 120 44.5 120.9 44.5 Z M 128.9 46.6 C 128.87 46.58 128.9 49.8 128.9 49.8 L 128.2 49.8 C 128.2 49.8 128.19 49.02 128.2 49 C 127.9 49.6 127.3 49.9 126.4 49.9 C 125.2 49.9 124.5 49.3 124.5 48.4 C 124.5 47.5 125 46.9 126.5 46.9 C 126.49 46.87 128.2 46.9 128.2 46.9 C 128.2 46.9 128.16 46.55 128.2 46.6 C 128.2 45.6 127.7 45.2 126.7 45.2 C 126 45.2 125.4 45.4 124.9 45.8 C 124.9 45.8 124.6 45.2 124.6 45.2 C 125.1 44.8 125.9 44.5 126.7 44.5 C 128.1 44.5 128.9 45.2 128.9 46.6 Z M 128.2 48.3 C 128.16 48.26 128.2 47.4 128.2 47.4 C 128.2 47.4 126.51 47.4 126.5 47.4 C 125.5 47.4 125.2 47.8 125.2 48.3 C 125.2 49 125.7 49.3 126.5 49.3 C 127.3 49.3 127.9 49 128.2 48.3 Z M 130.3 47.2 C 130.3 45.6 131.4 44.5 133 44.5 C 133.8 44.5 134.6 44.9 135 45.6 C 135 45.6 134.5 45.9 134.5 45.9 C 134.1 45.4 133.6 45.2 133 45.2 C 131.8 45.2 131 46 131 47.2 C 131 48.5 131.8 49.3 133 49.3 C 133.6 49.3 134.1 49 134.5 48.5 C 134.5 48.5 135 48.9 135 48.9 C 134.6 49.5 133.8 49.9 133 49.9 C 131.4 49.9 130.3 48.8 130.3 47.2 Z M 135.8 47.2 C 135.8 45.6 136.9 44.5 138.5 44.5 C 139.4 44.5 140.2 44.9 140.6 45.6 C 140.6 45.6 140 45.9 140 45.9 C 139.7 45.4 139.1 45.2 138.5 45.2 C 137.4 45.2 136.5 46 136.5 47.2 C 136.5 48.5 137.4 49.3 138.5 49.3 C 139.1 49.3 139.7 49 140 48.5 C 140 48.5 140.6 48.9 140.6 48.9 C 140.2 49.5 139.4 49.9 138.5 49.9 C 136.9 49.9 135.8 48.8 135.8 47.2 Z M 146.5 47.4 C 146.5 47.4 142.1 47.4 142.1 47.4 C 142.2 48.5 143 49.3 144.2 49.3 C 144.8 49.3 145.4 49 145.8 48.6 C 145.8 48.6 146.2 49 146.2 49 C 145.7 49.6 145 49.9 144.1 49.9 C 142.5 49.9 141.4 48.8 141.4 47.2 C 141.4 45.6 142.5 44.5 144 44.5 C 145.4 44.5 146.5 45.6 146.5 47.2 C 146.5 47.3 146.5 47.3 146.5 47.4 Z M 142.1 46.9 C 142.1 46.9 145.8 46.9 145.8 46.9 C 145.7 45.9 145 45.1 144 45.1 C 142.9 45.1 142.2 45.9 142.1 46.9 Z M 153.2 47.2 C 153.2 48.8 152.1 49.9 150.6 49.9 C 149.8 49.9 149.1 49.5 148.6 48.9 C 148.62 48.85 148.6 51.8 148.6 51.8 L 147.9 51.8 L 147.9 44.6 L 148.6 44.6 C 148.6 44.6 148.59 45.62 148.6 45.6 C 149 44.9 149.7 44.5 150.6 44.5 C 152.1 44.5 153.2 45.6 153.2 47.2 Z M 152.5 47.2 C 152.5 46 151.7 45.2 150.6 45.2 C 149.4 45.2 148.6 46 148.6 47.2 C 148.6 48.4 149.4 49.3 150.6 49.3 C 151.7 49.3 152.5 48.4 152.5 47.2 Z M 157.4 49.5 C 157.1 49.8 156.7 49.9 156.3 49.9 C 155.3 49.9 154.7 49.3 154.7 48.4 C 154.75 48.36 154.7 45.2 154.7 45.2 L 153.8 45.2 L 153.8 44.6 L 154.7 44.6 L 154.7 43.4 L 155.5 43.4 L 155.5 44.6 L 157.1 44.6 L 157.1 45.2 L 155.5 45.2 C 155.5 45.2 155.45 48.32 155.5 48.3 C 155.5 48.9 155.8 49.3 156.4 49.3 C 156.7 49.3 156.9 49.2 157.1 49 C 157.1 49 157.4 49.5 157.4 49.5 Z M 162.6 46.6 C 162.63 46.58 162.6 49.8 162.6 49.8 L 161.9 49.8 C 161.9 49.8 161.95 49.02 161.9 49 C 161.6 49.6 161 49.9 160.1 49.9 C 158.9 49.9 158.2 49.3 158.2 48.4 C 158.2 47.5 158.7 46.9 160.2 46.9 C 160.25 46.87 161.9 46.9 161.9 46.9 C 161.9 46.9 161.92 46.55 161.9 46.6 C 161.9 45.6 161.4 45.2 160.4 45.2 C 159.7 45.2 159.1 45.4 158.7 45.8 C 158.7 45.8 158.4 45.2 158.4 45.2 C 158.9 44.8 159.7 44.5 160.5 44.5 C 161.9 44.5 162.6 45.2 162.6 46.6 Z M 161.9 48.3 C 161.92 48.26 161.9 47.4 161.9 47.4 C 161.9 47.4 160.27 47.4 160.3 47.4 C 159.2 47.4 158.9 47.8 158.9 48.3 C 158.9 49 159.4 49.3 160.2 49.3 C 161 49.3 161.6 49 161.9 48.3 Z M 169.8 47.2 C 169.8 48.8 168.7 49.9 167.1 49.9 C 166.3 49.9 165.5 49.5 165.1 48.8 C 165.12 48.8 165.1 49.8 165.1 49.8 L 164.4 49.8 L 164.4 42.4 L 165.1 42.4 C 165.1 42.4 165.15 45.58 165.1 45.6 C 165.6 44.9 166.3 44.5 167.1 44.5 C 168.7 44.5 169.8 45.6 169.8 47.2 Z M 169.1 47.2 C 169.1 46 168.2 45.2 167.1 45.2 C 166 45.2 165.1 46 165.1 47.2 C 165.1 48.4 166 49.3 167.1 49.3 C 168.2 49.3 169.1 48.4 169.1 47.2 Z M 171.2 42.4 L 171.9 42.4 L 171.9 49.8 L 171.2 49.8 L 171.2 42.4 Z M 178.5 47.4 C 178.5 47.4 174.1 47.4 174.1 47.4 C 174.1 48.5 175 49.3 176.1 49.3 C 176.8 49.3 177.3 49 177.7 48.6 C 177.7 48.6 178.1 49 178.1 49 C 177.7 49.6 176.9 49.9 176.1 49.9 C 174.5 49.9 173.4 48.8 173.4 47.2 C 173.4 45.6 174.4 44.5 175.9 44.5 C 177.4 44.5 178.5 45.6 178.5 47.2 C 178.5 47.3 178.5 47.3 178.5 47.4 Z M 174.1 46.9 C 174.1 46.9 177.8 46.9 177.8 46.9 C 177.7 45.9 177 45.1 175.9 45.1 C 174.9 45.1 174.2 45.9 174.1 46.9 Z M 181.8 49.2 C 181.8 49.2 182.1 48.7 182.1 48.7 C 182.6 49 183.3 49.3 184 49.3 C 185 49.3 185.4 48.9 185.4 48.4 C 185.4 47 182 48.1 182 46 C 182 45.2 182.7 44.5 184.1 44.5 C 184.8 44.5 185.5 44.7 185.9 45 C 185.9 45 185.6 45.6 185.6 45.6 C 185.2 45.3 184.6 45.1 184.1 45.1 C 183.1 45.1 182.7 45.5 182.7 46 C 182.7 47.4 186.1 46.4 186.1 48.4 C 186.1 49.3 185.3 49.9 184 49.9 C 183.1 49.9 182.2 49.6 181.8 49.2 Z M 187 47.2 C 187 45.6 188.1 44.5 189.7 44.5 C 191.2 44.5 192.4 45.6 192.4 47.2 C 192.4 48.8 191.2 49.9 189.7 49.9 C 188.1 49.9 187 48.8 187 47.2 Z M 191.6 47.2 C 191.6 46 190.8 45.2 189.7 45.2 C 188.6 45.2 187.7 46 187.7 47.2 C 187.7 48.4 188.6 49.3 189.7 49.3 C 190.8 49.3 191.6 48.4 191.6 47.2 Z M 193.4 47.2 C 193.4 45.6 194.5 44.5 196.1 44.5 C 197 44.5 197.7 44.9 198.1 45.6 C 198.1 45.6 197.6 45.9 197.6 45.9 C 197.2 45.4 196.7 45.2 196.1 45.2 C 194.9 45.2 194.1 46 194.1 47.2 C 194.1 48.5 194.9 49.3 196.1 49.3 C 196.7 49.3 197.2 49 197.6 48.5 C 197.6 48.5 198.1 48.9 198.1 48.9 C 197.7 49.5 197 49.9 196.1 49.9 C 194.5 49.9 193.4 48.8 193.4 47.2 Z M 199.3 42.9 C 199.3 42.7 199.5 42.4 199.8 42.4 C 200.1 42.4 200.3 42.6 200.3 42.9 C 200.3 43.2 200.1 43.4 199.8 43.4 C 199.5 43.4 199.3 43.2 199.3 42.9 Z M 199.4 44.6 L 200.1 44.6 L 200.1 49.8 L 199.4 49.8 L 199.4 44.6 Z M 206 46.6 C 206.01 46.58 206 49.8 206 49.8 L 205.3 49.8 C 205.3 49.8 205.33 49.02 205.3 49 C 205 49.6 204.4 49.9 203.5 49.9 C 202.3 49.9 201.6 49.3 201.6 48.4 C 201.6 47.5 202.1 46.9 203.6 46.9 C 203.63 46.87 205.3 46.9 205.3 46.9 C 205.3 46.9 205.3 46.55 205.3 46.6 C 205.3 45.6 204.8 45.2 203.8 45.2 C 203.1 45.2 202.5 45.4 202.1 45.8 C 202.1 45.8 201.7 45.2 201.7 45.2 C 202.3 44.8 203.1 44.5 203.9 44.5 C 205.2 44.5 206 45.2 206 46.6 Z M 205.3 48.3 C 205.3 48.26 205.3 47.4 205.3 47.4 C 205.3 47.4 203.65 47.4 203.7 47.4 C 202.6 47.4 202.3 47.8 202.3 48.3 C 202.3 49 202.8 49.3 203.6 49.3 C 204.4 49.3 205 49 205.3 48.3 Z M 207.8 42.4 L 208.5 42.4 L 208.5 49.8 L 207.8 49.8 L 207.8 42.4 Z M 218.5 47.2 C 218.5 48.8 217.3 49.9 215.8 49.9 C 215 49.9 214.2 49.5 213.8 48.8 C 213.82 48.8 213.8 49.8 213.8 49.8 L 213.1 49.8 L 213.1 42.4 L 213.8 42.4 C 213.8 42.4 213.85 45.58 213.8 45.6 C 214.3 44.9 215 44.5 215.8 44.5 C 217.3 44.5 218.5 45.6 218.5 47.2 Z M 217.8 47.2 C 217.8 46 216.9 45.2 215.8 45.2 C 214.7 45.2 213.8 46 213.8 47.2 C 213.8 48.4 214.7 49.3 215.8 49.3 C 216.9 49.3 217.8 48.4 217.8 47.2 Z M 224.6 47.4 C 224.6 47.4 220.2 47.4 220.2 47.4 C 220.3 48.5 221.1 49.3 222.3 49.3 C 222.9 49.3 223.5 49 223.9 48.6 C 223.9 48.6 224.3 49 224.3 49 C 223.8 49.6 223.1 49.9 222.2 49.9 C 220.6 49.9 219.5 48.8 219.5 47.2 C 219.5 45.6 220.6 44.5 222 44.5 C 223.5 44.5 224.6 45.6 224.6 47.2 C 224.6 47.3 224.6 47.3 224.6 47.4 Z M 220.2 46.9 C 220.2 46.9 223.9 46.9 223.9 46.9 C 223.8 45.9 223.1 45.1 222 45.1 C 221 45.1 220.3 45.9 220.2 46.9 Z M 230.8 46.8 C 230.84 46.79 230.8 49.8 230.8 49.8 L 230.1 49.8 C 230.1 49.8 230.13 46.86 230.1 46.9 C 230.1 45.7 229.5 45.2 228.5 45.2 C 227.4 45.2 226.7 45.9 226.7 47.1 C 226.71 47.08 226.7 49.8 226.7 49.8 L 226 49.8 L 226 42.4 L 226.7 42.4 C 226.7 42.4 226.71 45.5 226.7 45.5 C 227.1 44.9 227.8 44.5 228.7 44.5 C 230 44.5 230.8 45.3 230.8 46.8 Z M 236.7 46.6 C 236.66 46.58 236.7 49.8 236.7 49.8 L 236 49.8 C 236 49.8 235.98 49.02 236 49 C 235.7 49.6 235 49.9 234.2 49.9 C 233 49.9 232.2 49.3 232.2 48.4 C 232.2 47.5 232.8 46.9 234.3 46.9 C 234.28 46.87 235.9 46.9 235.9 46.9 C 235.9 46.9 235.95 46.55 235.9 46.6 C 235.9 45.6 235.4 45.2 234.5 45.2 C 233.8 45.2 233.1 45.4 232.7 45.8 C 232.7 45.8 232.4 45.2 232.4 45.2 C 232.9 44.8 233.7 44.5 234.5 44.5 C 235.9 44.5 236.7 45.2 236.7 46.6 Z M 235.9 48.3 C 235.95 48.26 235.9 47.4 235.9 47.4 C 235.9 47.4 234.3 47.4 234.3 47.4 C 233.3 47.4 232.9 47.8 232.9 48.3 C 232.9 49 233.4 49.3 234.3 49.3 C 235.1 49.3 235.7 49 235.9 48.3 Z M 242.8 44.6 L 240.5 49.8 L 239.7 49.8 L 237.4 44.6 L 238.2 44.6 L 240.1 49.1 L 242.1 44.6 L 242.8 44.6 Z M 243.7 42.9 C 243.7 42.7 243.9 42.4 244.2 42.4 C 244.5 42.4 244.7 42.6 244.7 42.9 C 244.7 43.2 244.5 43.4 244.2 43.4 C 243.9 43.4 243.7 43.2 243.7 42.9 Z M 243.9 44.6 L 244.6 44.6 L 244.6 49.8 L 243.9 49.8 L 243.9 44.6 Z M 246 47.2 C 246 45.6 247.1 44.5 248.6 44.5 C 250.2 44.5 251.3 45.6 251.3 47.2 C 251.3 48.8 250.2 49.9 248.6 49.9 C 247.1 49.9 246 48.8 246 47.2 Z M 250.6 47.2 C 250.6 46 249.8 45.2 248.6 45.2 C 247.5 45.2 246.7 46 246.7 47.2 C 246.7 48.4 247.5 49.3 248.6 49.3 C 249.8 49.3 250.6 48.4 250.6 47.2 Z M 257.5 44.6 L 257.5 49.8 L 256.8 49.8 C 256.8 49.8 256.79 48.88 256.8 48.9 C 256.4 49.5 255.7 49.9 254.9 49.9 C 253.6 49.9 252.7 49.1 252.7 47.6 C 252.68 47.63 252.7 44.6 252.7 44.6 L 253.4 44.6 C 253.4 44.6 253.39 47.56 253.4 47.6 C 253.4 48.7 254 49.3 255 49.3 C 256.1 49.3 256.8 48.5 256.8 47.3 C 256.76 47.34 256.8 44.6 256.8 44.6 L 257.5 44.6 Z M 262 44.5 C 262 44.5 262 45.2 262 45.2 C 261.9 45.2 261.9 45.2 261.8 45.2 C 260.7 45.2 260 45.9 260 47.2 C 260.04 47.16 260 49.8 260 49.8 L 259.3 49.8 L 259.3 44.6 L 260 44.6 C 260 44.6 260.01 45.61 260 45.6 C 260.3 44.9 261 44.5 262 44.5 Z M 263 45.1 C 263 44.8 263.2 44.5 263.5 44.5 C 263.8 44.5 264.1 44.8 264.1 45.1 C 264.1 45.4 263.8 45.6 263.5 45.6 C 263.2 45.6 263 45.4 263 45.1 Z M 264.1 49.3 C 264.1 49.5 264 49.6 263.9 49.9 C 263.93 49.92 263.5 51.3 263.5 51.3 L 263 51.3 C 263 51.3 263.37 49.85 263.4 49.8 C 263.2 49.8 263 49.6 263 49.3 C 263 49 263.2 48.8 263.5 48.8 C 263.8 48.8 264.1 49 264.1 49.3 Z M 272.2 46.6 C 272.17 46.58 272.2 49.8 272.2 49.8 L 271.5 49.8 C 271.5 49.8 271.49 49.02 271.5 49 C 271.2 49.6 270.5 49.9 269.7 49.9 C 268.5 49.9 267.8 49.3 267.8 48.4 C 267.8 47.5 268.3 46.9 269.8 46.9 C 269.79 46.87 271.5 46.9 271.5 46.9 C 271.5 46.9 271.46 46.55 271.5 46.6 C 271.5 45.6 270.9 45.2 270 45.2 C 269.3 45.2 268.6 45.4 268.2 45.8 C 268.2 45.8 267.9 45.2 267.9 45.2 C 268.4 44.8 269.2 44.5 270 44.5 C 271.4 44.5 272.2 45.2 272.2 46.6 Z M 271.5 48.3 C 271.46 48.26 271.5 47.4 271.5 47.4 C 271.5 47.4 269.81 47.4 269.8 47.4 C 268.8 47.4 268.5 47.8 268.5 48.3 C 268.5 49 268.9 49.3 269.8 49.3 C 270.6 49.3 271.2 49 271.5 48.3 Z M 278.8 46.8 C 278.82 46.79 278.8 49.8 278.8 49.8 L 278.1 49.8 C 278.1 49.8 278.11 46.86 278.1 46.9 C 278.1 45.7 277.5 45.2 276.5 45.2 C 275.4 45.2 274.7 45.9 274.7 47.1 C 274.69 47.08 274.7 49.8 274.7 49.8 L 274 49.8 L 274 44.6 L 274.7 44.6 C 274.7 44.6 274.66 45.55 274.7 45.5 C 275 44.9 275.8 44.5 276.7 44.5 C 277.9 44.5 278.8 45.3 278.8 46.8 Z M 285.5 42.4 L 285.5 49.8 L 284.9 49.8 C 284.9 49.8 284.85 48.8 284.9 48.8 C 284.4 49.5 283.7 49.9 282.8 49.9 C 281.3 49.9 280.2 48.8 280.2 47.2 C 280.2 45.6 281.3 44.5 282.8 44.5 C 283.7 44.5 284.4 44.9 284.8 45.6 C 284.82 45.58 284.8 42.4 284.8 42.4 L 285.5 42.4 Z M 284.8 47.2 C 284.8 46 284 45.2 282.9 45.2 C 281.8 45.2 280.9 46 280.9 47.2 C 280.9 48.4 281.8 49.3 282.9 49.3 C 284 49.3 284.8 48.4 284.8 47.2 Z " stroke="none" fill="#323132"/>
  </g>
  <g id="Polygon123131">
    <path d="M 20.4 47.2 L 16.2 49.3 L 16.2 45.1 L 20.4 47.2 Z " stroke="none" fill="#a243ff"/>
  </g>
  <g id="Polygon123130">
    <path d="M 34.8 28.5 C 34.5 28.8 34.1 28.9 33.6 28.9 C 32.7 28.9 32.1 28.3 32.1 27.4 C 32.11 27.36 32.1 24.2 32.1 24.2 L 31.2 24.2 L 31.2 23.6 L 32.1 23.6 L 32.1 22.4 L 32.8 22.4 L 32.8 23.6 L 34.4 23.6 L 34.4 24.2 L 32.8 24.2 C 32.8 24.2 32.82 27.32 32.8 27.3 C 32.8 27.9 33.1 28.3 33.7 28.3 C 34 28.3 34.3 28.2 34.5 28 C 34.5 28 34.8 28.5 34.8 28.5 Z M 40.8 25.8 C 40.79 25.79 40.8 28.8 40.8 28.8 L 40.1 28.8 C 40.1 28.8 40.08 25.86 40.1 25.9 C 40.1 24.7 39.5 24.2 38.5 24.2 C 37.4 24.2 36.7 24.9 36.7 26.1 C 36.66 26.08 36.7 28.8 36.7 28.8 L 35.9 28.8 L 35.9 21.4 L 36.7 21.4 C 36.7 21.4 36.66 24.5 36.7 24.5 C 37 23.9 37.7 23.5 38.6 23.5 C 39.9 23.5 40.8 24.3 40.8 25.8 Z M 47.3 26.4 C 47.3 26.4 42.9 26.4 42.9 26.4 C 43 27.5 43.8 28.3 45 28.3 C 45.6 28.3 46.2 28 46.6 27.6 C 46.6 27.6 47 28 47 28 C 46.5 28.6 45.8 28.9 44.9 28.9 C 43.3 28.9 42.2 27.8 42.2 26.2 C 42.2 24.6 43.3 23.5 44.7 23.5 C 46.2 23.5 47.3 24.6 47.3 26.2 C 47.3 26.3 47.3 26.3 47.3 26.4 Z M 42.9 25.9 C 42.9 25.9 46.6 25.9 46.6 25.9 C 46.5 24.9 45.8 24.1 44.7 24.1 C 43.7 24.1 43 24.9 42.9 25.9 Z M 50.8 26.2 C 50.8 24.6 52 23.5 53.5 23.5 C 54.4 23.5 55.2 23.9 55.6 24.6 C 55.6 24.6 55.1 24.9 55.1 24.9 C 54.7 24.4 54.1 24.2 53.5 24.2 C 52.4 24.2 51.5 25 51.5 26.2 C 51.5 27.5 52.4 28.3 53.5 28.3 C 54.1 28.3 54.7 28 55.1 27.5 C 55.1 27.5 55.6 27.9 55.6 27.9 C 55.2 28.5 54.4 28.9 53.5 28.9 C 52 28.9 50.8 27.8 50.8 26.2 Z M 56.4 26.2 C 56.4 24.6 57.5 23.5 59.1 23.5 C 60.6 23.5 61.7 24.6 61.7 26.2 C 61.7 27.8 60.6 28.9 59.1 28.9 C 57.5 28.9 56.4 27.8 56.4 26.2 Z M 61 26.2 C 61 25 60.2 24.2 59.1 24.2 C 57.9 24.2 57.1 25 57.1 26.2 C 57.1 27.4 57.9 28.3 59.1 28.3 C 60.2 28.3 61 27.4 61 26.2 Z M 65.8 23.5 C 65.8 23.5 65.8 24.2 65.8 24.2 C 65.8 24.2 65.7 24.2 65.6 24.2 C 64.5 24.2 63.9 24.9 63.9 26.2 C 63.87 26.16 63.9 28.8 63.9 28.8 L 63.2 28.8 L 63.2 23.6 L 63.8 23.6 C 63.8 23.6 63.84 24.61 63.8 24.6 C 64.2 23.9 64.8 23.5 65.8 23.5 Z M 71.6 26.4 C 71.6 26.4 67.2 26.4 67.2 26.4 C 67.2 27.5 68.1 28.3 69.2 28.3 C 69.9 28.3 70.4 28 70.8 27.6 C 70.8 27.6 71.2 28 71.2 28 C 70.8 28.6 70 28.9 69.2 28.9 C 67.6 28.9 66.4 27.8 66.4 26.2 C 66.4 24.6 67.5 23.5 69 23.5 C 70.5 23.5 71.6 24.6 71.6 26.2 C 71.6 26.3 71.6 26.3 71.6 26.4 Z M 67.2 25.9 C 67.2 25.9 70.9 25.9 70.9 25.9 C 70.8 24.9 70 24.1 69 24.1 C 68 24.1 67.2 24.9 67.2 25.9 Z M 80.1 23.6 L 77.7 28.8 L 77 28.8 L 74.7 23.6 L 75.4 23.6 L 77.4 28.1 L 79.4 23.6 L 80.1 23.6 Z M 85.1 25.6 C 85.11 25.58 85.1 28.8 85.1 28.8 L 84.4 28.8 C 84.4 28.8 84.43 28.02 84.4 28 C 84.1 28.6 83.5 28.9 82.6 28.9 C 81.4 28.9 80.7 28.3 80.7 27.4 C 80.7 26.5 81.2 25.9 82.7 25.9 C 82.73 25.87 84.4 25.9 84.4 25.9 C 84.4 25.9 84.4 25.55 84.4 25.6 C 84.4 24.6 83.9 24.2 82.9 24.2 C 82.2 24.2 81.6 24.4 81.2 24.8 C 81.2 24.8 80.8 24.2 80.8 24.2 C 81.4 23.8 82.1 23.5 83 23.5 C 84.3 23.5 85.1 24.2 85.1 25.6 Z M 84.4 27.3 C 84.4 27.26 84.4 26.4 84.4 26.4 C 84.4 26.4 82.75 26.4 82.7 26.4 C 81.7 26.4 81.4 26.8 81.4 27.3 C 81.4 28 81.9 28.3 82.7 28.3 C 83.5 28.3 84.1 28 84.4 27.3 Z M 86.9 21.4 L 87.6 21.4 L 87.6 28.8 L 86.9 28.8 L 86.9 21.4 Z M 94.2 23.6 L 94.2 28.8 L 93.5 28.8 C 93.5 28.8 93.55 27.88 93.5 27.9 C 93.2 28.5 92.5 28.9 91.7 28.9 C 90.3 28.9 89.4 28.1 89.4 26.6 C 89.44 26.63 89.4 23.6 89.4 23.6 L 90.1 23.6 C 90.1 23.6 90.15 26.56 90.1 26.6 C 90.1 27.7 90.7 28.3 91.7 28.3 C 92.8 28.3 93.5 27.5 93.5 26.3 C 93.52 26.34 93.5 23.6 93.5 23.6 L 94.2 23.6 Z M 100.8 26.4 C 100.8 26.4 96.4 26.4 96.4 26.4 C 96.5 27.5 97.3 28.3 98.5 28.3 C 99.1 28.3 99.7 28 100.1 27.6 C 100.1 27.6 100.5 28 100.5 28 C 100 28.6 99.3 28.9 98.4 28.9 C 96.8 28.9 95.7 27.8 95.7 26.2 C 95.7 24.6 96.8 23.5 98.2 23.5 C 99.7 23.5 100.8 24.6 100.8 26.2 C 100.8 26.3 100.8 26.3 100.8 26.4 Z M 96.4 25.9 C 96.4 25.9 100.1 25.9 100.1 25.9 C 100 24.9 99.3 24.1 98.2 24.1 C 97.2 24.1 96.5 24.9 96.4 25.9 Z M 101.6 28.2 C 101.6 28.2 101.9 27.7 101.9 27.7 C 102.3 28 103 28.3 103.8 28.3 C 104.8 28.3 105.2 27.9 105.2 27.4 C 105.2 26 101.8 27.1 101.8 25 C 101.8 24.2 102.5 23.5 103.9 23.5 C 104.5 23.5 105.3 23.7 105.7 24 C 105.7 24 105.4 24.6 105.4 24.6 C 104.9 24.3 104.4 24.1 103.9 24.1 C 102.9 24.1 102.5 24.5 102.5 25 C 102.5 26.4 105.9 25.4 105.9 27.4 C 105.9 28.3 105.1 28.9 103.7 28.9 C 102.9 28.9 102 28.6 101.6 28.2 Z M 109.3 26.2 C 109.3 24.6 110.4 23.5 112 23.5 C 113.5 23.5 114.6 24.6 114.6 26.2 C 114.6 27.8 113.5 28.9 112 28.9 C 110.4 28.9 109.3 27.8 109.3 26.2 Z M 113.9 26.2 C 113.9 25 113.1 24.2 112 24.2 C 110.9 24.2 110 25 110 26.2 C 110 27.4 110.9 28.3 112 28.3 C 113.1 28.3 113.9 27.4 113.9 26.2 Z M 116.8 23 C 116.85 22.96 116.8 23.6 116.8 23.6 L 118.5 23.6 L 118.5 24.2 L 116.9 24.2 L 116.9 28.8 L 116.2 28.8 L 116.2 24.2 L 115.2 24.2 L 115.2 23.6 L 116.2 23.6 C 116.2 23.6 116.16 22.93 116.2 22.9 C 116.2 22 116.7 21.4 117.7 21.4 C 118.1 21.4 118.5 21.5 118.8 21.7 C 118.8 21.7 118.6 22.2 118.6 22.2 C 118.4 22.1 118.1 22 117.8 22 C 117.2 22 116.8 22.3 116.8 23 Z M 124.8 28.5 C 124.5 28.8 124.1 28.9 123.7 28.9 C 122.7 28.9 122.2 28.3 122.2 27.4 C 122.17 27.36 122.2 24.2 122.2 24.2 L 121.2 24.2 L 121.2 23.6 L 122.2 23.6 L 122.2 22.4 L 122.9 22.4 L 122.9 23.6 L 124.5 23.6 L 124.5 24.2 L 122.9 24.2 C 122.9 24.2 122.87 27.32 122.9 27.3 C 122.9 27.9 123.2 28.3 123.8 28.3 C 124.1 28.3 124.4 28.2 124.6 28 C 124.6 28 124.8 28.5 124.8 28.5 Z M 130.8 25.8 C 130.84 25.79 130.8 28.8 130.8 28.8 L 130.1 28.8 C 130.1 28.8 130.13 25.86 130.1 25.9 C 130.1 24.7 129.6 24.2 128.6 24.2 C 127.4 24.2 126.7 24.9 126.7 26.1 C 126.71 26.08 126.7 28.8 126.7 28.8 L 126 28.8 L 126 21.4 L 126.7 21.4 C 126.7 21.4 126.71 24.5 126.7 24.5 C 127.1 23.9 127.8 23.5 128.7 23.5 C 130 23.5 130.8 24.3 130.8 25.8 Z M 137.3 26.4 C 137.3 26.4 132.9 26.4 132.9 26.4 C 133 27.5 133.9 28.3 135 28.3 C 135.6 28.3 136.2 28 136.6 27.6 C 136.6 27.6 137 28 137 28 C 136.5 28.6 135.8 28.9 135 28.9 C 133.3 28.9 132.2 27.8 132.2 26.2 C 132.2 24.6 133.3 23.5 134.8 23.5 C 136.3 23.5 137.3 24.6 137.3 26.2 C 137.3 26.3 137.3 26.3 137.3 26.4 Z M 132.9 25.9 C 132.9 25.9 136.7 25.9 136.7 25.9 C 136.6 24.9 135.8 24.1 134.8 24.1 C 133.8 24.1 133 24.9 132.9 25.9 Z M 146.3 23.6 C 146.3 23.6 146.29 28.2 146.3 28.2 C 146.3 30 145.4 30.8 143.7 30.8 C 142.7 30.8 141.8 30.5 141.2 30 C 141.2 30 141.6 29.5 141.6 29.5 C 142.1 29.9 142.8 30.2 143.6 30.2 C 145 30.2 145.6 29.6 145.6 28.3 C 145.6 28.3 145.6 27.6 145.6 27.6 C 145.1 28.3 144.4 28.6 143.5 28.6 C 142 28.6 140.9 27.6 140.9 26.1 C 140.9 24.6 142 23.5 143.5 23.5 C 144.4 23.5 145.2 23.9 145.6 24.6 C 145.61 24.59 145.6 23.6 145.6 23.6 L 146.3 23.6 Z M 145.6 26.1 C 145.6 24.9 144.8 24.2 143.6 24.2 C 142.4 24.2 141.6 24.9 141.6 26.1 C 141.6 27.2 142.4 28 143.6 28 C 144.8 28 145.6 27.2 145.6 26.1 Z M 150.8 23.5 C 150.8 23.5 150.8 24.2 150.8 24.2 C 150.7 24.2 150.7 24.2 150.6 24.2 C 149.5 24.2 148.9 24.9 148.9 26.2 C 148.86 26.16 148.9 28.8 148.9 28.8 L 148.1 28.8 L 148.1 23.6 L 148.8 23.6 C 148.8 23.6 148.83 24.61 148.8 24.6 C 149.2 23.9 149.8 23.5 150.8 23.5 Z M 151.4 26.2 C 151.4 24.6 152.6 23.5 154.1 23.5 C 155.6 23.5 156.8 24.6 156.8 26.2 C 156.8 27.8 155.6 28.9 154.1 28.9 C 152.6 28.9 151.4 27.8 151.4 26.2 Z M 156 26.2 C 156 25 155.2 24.2 154.1 24.2 C 153 24.2 152.1 25 152.1 26.2 C 152.1 27.4 153 28.3 154.1 28.3 C 155.2 28.3 156 27.4 156 26.2 Z M 162.9 23.6 L 162.9 28.8 L 162.2 28.8 C 162.2 28.8 162.24 27.88 162.2 27.9 C 161.9 28.5 161.2 28.9 160.3 28.9 C 159 28.9 158.1 28.1 158.1 26.6 C 158.13 26.63 158.1 23.6 158.1 23.6 L 158.8 23.6 C 158.8 23.6 158.84 26.56 158.8 26.6 C 158.8 27.7 159.4 28.3 160.4 28.3 C 161.5 28.3 162.2 27.5 162.2 26.3 C 162.21 26.34 162.2 23.6 162.2 23.6 L 162.9 23.6 Z M 170.1 26.2 C 170.1 27.8 169 28.9 167.5 28.9 C 166.7 28.9 165.9 28.5 165.5 27.9 C 165.49 27.85 165.5 30.8 165.5 30.8 L 164.8 30.8 L 164.8 23.6 L 165.5 23.6 C 165.5 23.6 165.46 24.62 165.5 24.6 C 165.9 23.9 166.6 23.5 167.5 23.5 C 169 23.5 170.1 24.6 170.1 26.2 Z M 169.4 26.2 C 169.4 25 168.6 24.2 167.4 24.2 C 166.3 24.2 165.5 25 165.5 26.2 C 165.5 27.4 166.3 28.3 167.4 28.3 C 168.6 28.3 169.4 27.4 169.4 26.2 Z M 171 24.1 C 171 23.8 171.3 23.5 171.5 23.5 C 171.8 23.5 172.1 23.8 172.1 24.1 C 172.1 24.4 171.8 24.6 171.5 24.6 C 171.3 24.6 171 24.4 171 24.1 Z M 172.1 28.3 C 172.1 28.5 172 28.6 171.9 28.9 C 171.95 28.92 171.5 30.3 171.5 30.3 L 171.1 30.3 C 171.1 30.3 171.39 28.85 171.4 28.8 C 171.2 28.8 171 28.6 171 28.3 C 171 28 171.3 27.8 171.6 27.8 C 171.9 27.8 172.1 28 172.1 28.3 Z " stroke="none" fill="#323132"/>
  </g>
  <g id="Polygon123129">
    <path d="M 20.4 26.2 L 16.2 28.3 L 16.2 24.1 L 20.4 26.2 Z " stroke="none" fill="#a243ff"/>
  </g>
</svg>