<?xml version="1.0" standalone="no"?>
<!DOCTYPE svg PUBLIC "-//W3C//DTD SVG 1.1//EN" "http://www.w3.org/Graphics/SVG/1.1/DTD/svg11.dtd">
<svg xmlns="http://www.w3.org/2000/svg" version="1.1" width="158px" height="30.5px" viewBox="0 -3 158 30.5" style="top:-3px">
  <desc>Explore more</desc>
  <defs/>
  <g id="Polygon112909">
    <path d="M 11.1 15.5 L 11.1 17.4 L 1.7 17.4 L 1.7 4.8 L 10.9 4.8 L 10.9 6.8 L 4 6.8 L 4 10.1 L 10.1 10.1 L 10.1 12 L 4 12 L 4 15.5 L 11.1 15.5 Z M 19.8 17.4 L 17.4 14.1 L 14.9 17.4 L 12.4 17.4 L 16.1 12.5 L 12.5 7.8 L 15 7.8 L 17.4 11 L 19.8 7.8 L 22.2 7.8 L 18.6 12.5 L 22.4 17.4 L 19.8 17.4 Z M 34 12.6 C 34 15.6 32 17.5 29.2 17.5 C 27.9 17.5 26.8 17.1 26.1 16.3 C 26.07 16.25 26.1 20.9 26.1 20.9 L 23.8 20.9 L 23.8 7.8 L 26 7.8 C 26 7.8 25.96 9.07 26 9.1 C 26.7 8.2 27.8 7.7 29.2 7.7 C 32 7.7 34 9.6 34 12.6 Z M 31.7 12.6 C 31.7 10.8 30.5 9.6 28.9 9.6 C 27.3 9.6 26 10.8 26 12.6 C 26 14.5 27.3 15.6 28.9 15.6 C 30.5 15.6 31.7 14.5 31.7 12.6 Z M 36.1 4.1 L 38.3 4.1 L 38.3 17.4 L 36.1 17.4 L 36.1 4.1 Z M 40.3 12.6 C 40.3 9.7 42.5 7.7 45.4 7.7 C 48.4 7.7 50.6 9.7 50.6 12.6 C 50.6 15.5 48.4 17.5 45.4 17.5 C 42.5 17.5 40.3 15.5 40.3 12.6 Z M 48.3 12.6 C 48.3 10.8 47.1 9.6 45.4 9.6 C 43.8 9.6 42.6 10.8 42.6 12.6 C 42.6 14.5 43.8 15.6 45.4 15.6 C 47.1 15.6 48.3 14.5 48.3 12.6 Z M 58.1 7.7 C 58.1 7.7 58.1 9.8 58.1 9.8 C 57.9 9.8 57.8 9.8 57.6 9.8 C 55.9 9.8 54.8 10.8 54.8 12.8 C 54.81 12.76 54.8 17.4 54.8 17.4 L 52.6 17.4 L 52.6 7.8 L 54.7 7.8 C 54.7 7.8 54.7 9.22 54.7 9.2 C 55.3 8.2 56.5 7.7 58.1 7.7 Z M 68.8 13.3 C 68.8 13.3 61.3 13.3 61.3 13.3 C 61.6 14.7 62.7 15.6 64.4 15.6 C 65.5 15.6 66.3 15.3 67 14.6 C 67 14.6 68.2 16 68.2 16 C 67.4 17 66 17.5 64.3 17.5 C 61.1 17.5 59 15.5 59 12.6 C 59 9.8 61.1 7.7 64 7.7 C 66.8 7.7 68.9 9.7 68.9 12.7 C 68.9 12.9 68.8 13.1 68.8 13.3 Z M 61.3 11.8 C 61.3 11.8 66.7 11.8 66.7 11.8 C 66.5 10.5 65.5 9.5 64 9.5 C 62.5 9.5 61.5 10.4 61.3 11.8 Z M 92.1 11.9 C 92.07 11.92 92.1 17.4 92.1 17.4 L 89.8 17.4 C 89.8 17.4 89.82 12.2 89.8 12.2 C 89.8 10.5 89 9.7 87.7 9.7 C 86.2 9.7 85.2 10.6 85.2 12.5 C 85.16 12.55 85.2 17.4 85.2 17.4 L 82.9 17.4 C 82.9 17.4 82.91 12.2 82.9 12.2 C 82.9 10.5 82.1 9.7 80.7 9.7 C 79.3 9.7 78.2 10.6 78.2 12.5 C 78.24 12.55 78.2 17.4 78.2 17.4 L 76 17.4 L 76 7.8 L 78.1 7.8 C 78.1 7.8 78.14 9.04 78.1 9 C 78.9 8.2 80 7.7 81.3 7.7 C 82.7 7.7 83.9 8.2 84.5 9.3 C 85.3 8.3 86.6 7.7 88.1 7.7 C 90.4 7.7 92.1 9 92.1 11.9 Z M 94 12.6 C 94 9.7 96.1 7.7 99.1 7.7 C 102.1 7.7 104.2 9.7 104.2 12.6 C 104.2 15.5 102.1 17.5 99.1 17.5 C 96.1 17.5 94 15.5 94 12.6 Z M 102 12.6 C 102 10.8 100.7 9.6 99.1 9.6 C 97.5 9.6 96.2 10.8 96.2 12.6 C 96.2 14.5 97.5 15.6 99.1 15.6 C 100.7 15.6 102 14.5 102 12.6 Z M 111.8 7.7 C 111.8 7.7 111.8 9.8 111.8 9.8 C 111.6 9.8 111.4 9.8 111.3 9.8 C 109.6 9.8 108.5 10.8 108.5 12.8 C 108.47 12.76 108.5 17.4 108.5 17.4 L 106.2 17.4 L 106.2 7.8 L 108.4 7.8 C 108.4 7.8 108.36 9.22 108.4 9.2 C 109 8.2 110.2 7.7 111.8 7.7 Z M 122.5 13.3 C 122.5 13.3 115 13.3 115 13.3 C 115.2 14.7 116.4 15.6 118.1 15.6 C 119.1 15.6 120 15.3 120.7 14.6 C 120.7 14.6 121.9 16 121.9 16 C 121 17 119.7 17.5 118 17.5 C 114.8 17.5 112.7 15.5 112.7 12.6 C 112.7 9.8 114.8 7.7 117.7 7.7 C 120.5 7.7 122.5 9.7 122.5 12.7 C 122.5 12.9 122.5 13.1 122.5 13.3 Z M 114.9 11.8 C 114.9 11.8 120.4 11.8 120.4 11.8 C 120.2 10.5 119.1 9.5 117.7 9.5 C 116.2 9.5 115.1 10.4 114.9 11.8 Z " stroke="none" fill="#fff"/>
  </g>
</svg>