<?xml version="1.0" standalone="no"?>
<!DOCTYPE svg PUBLIC "-//W3C//DTD SVG 1.1//EN" "http://www.w3.org/Graphics/SVG/1.1/DTD/svg11.dtd">
<svg xmlns="http://www.w3.org/2000/svg" version="1.1" width="492px" height="80.5px" viewBox="0 0 492 80.5">
  <desc>Compatibility The direction of movement of a control should be compatible with the movement of the corresponding disp...</desc>
  <defs/>
  <g id="Polygon117953">
    <path d="M 6.5 55 C 6.5 53.5 7.6 52.4 9.2 52.4 C 10.1 52.4 10.8 52.7 11.2 53.4 C 11.2 53.4 10.7 53.8 10.7 53.8 C 10.3 53.2 9.8 53 9.2 53 C 8 53 7.2 53.8 7.2 55 C 7.2 56.3 8 57.1 9.2 57.1 C 9.8 57.1 10.3 56.9 10.7 56.3 C 10.7 56.3 11.2 56.7 11.2 56.7 C 10.8 57.4 10.1 57.7 9.2 57.7 C 7.6 57.7 6.5 56.6 6.5 55 Z M 12 55 C 12 53.5 13.2 52.4 14.7 52.4 C 16.2 52.4 17.4 53.5 17.4 55 C 17.4 56.6 16.2 57.7 14.7 57.7 C 13.2 57.7 12 56.6 12 55 Z M 16.6 55 C 16.6 53.8 15.8 53 14.7 53 C 13.6 53 12.7 53.8 12.7 55 C 12.7 56.3 13.6 57.1 14.7 57.1 C 15.8 57.1 16.6 56.3 16.6 55 Z M 21.4 52.4 C 21.4 52.4 21.4 53.1 21.4 53.1 C 21.4 53.1 21.3 53.1 21.3 53.1 C 20.2 53.1 19.5 53.8 19.5 55 C 19.5 55 19.5 57.7 19.5 57.7 L 18.8 57.7 L 18.8 52.4 L 19.5 52.4 C 19.5 52.4 19.47 53.45 19.5 53.4 C 19.8 52.7 20.5 52.4 21.4 52.4 Z M 25.3 52.4 C 25.3 52.4 25.3 53.1 25.3 53.1 C 25.3 53.1 25.2 53.1 25.1 53.1 C 24 53.1 23.4 53.8 23.4 55 C 23.38 55 23.4 57.7 23.4 57.7 L 22.7 57.7 L 22.7 52.4 L 23.3 52.4 C 23.3 52.4 23.35 53.45 23.3 53.4 C 23.7 52.7 24.3 52.4 25.3 52.4 Z M 31.1 55.3 C 31.1 55.3 26.7 55.3 26.7 55.3 C 26.7 56.4 27.6 57.1 28.7 57.1 C 29.4 57.1 29.9 56.9 30.3 56.4 C 30.3 56.4 30.7 56.9 30.7 56.9 C 30.3 57.4 29.5 57.7 28.7 57.7 C 27.1 57.7 25.9 56.6 25.9 55 C 25.9 53.5 27 52.4 28.5 52.4 C 30 52.4 31.1 53.5 31.1 55 C 31.1 55.1 31.1 55.2 31.1 55.3 Z M 26.7 54.7 C 26.7 54.7 30.4 54.7 30.4 54.7 C 30.3 53.7 29.5 53 28.5 53 C 27.5 53 26.7 53.7 26.7 54.7 Z M 31.9 57.1 C 31.9 57.1 32.2 56.5 32.2 56.5 C 32.6 56.9 33.3 57.1 34.1 57.1 C 35.1 57.1 35.5 56.8 35.5 56.3 C 35.5 54.9 32.1 56 32.1 53.9 C 32.1 53 32.8 52.4 34.1 52.4 C 34.8 52.4 35.6 52.6 36 52.9 C 36 52.9 35.7 53.4 35.7 53.4 C 35.2 53.1 34.7 53 34.1 53 C 33.2 53 32.8 53.4 32.8 53.9 C 32.8 55.3 36.2 54.2 36.2 56.2 C 36.2 57.1 35.4 57.7 34 57.7 C 33.1 57.7 32.3 57.4 31.9 57.1 Z M 42.8 55.1 C 42.8 56.7 41.7 57.7 40.2 57.7 C 39.4 57.7 38.6 57.4 38.2 56.7 C 38.19 56.69 38.2 59.6 38.2 59.6 L 37.5 59.6 L 37.5 52.4 L 38.2 52.4 C 38.2 52.4 38.16 53.46 38.2 53.5 C 38.6 52.8 39.3 52.4 40.2 52.4 C 41.7 52.4 42.8 53.5 42.8 55.1 Z M 42.1 55 C 42.1 53.8 41.3 53 40.1 53 C 39 53 38.2 53.8 38.2 55 C 38.2 56.3 39 57.1 40.1 57.1 C 41.3 57.1 42.1 56.3 42.1 55 Z M 43.8 55 C 43.8 53.5 45 52.4 46.5 52.4 C 48 52.4 49.2 53.5 49.2 55 C 49.2 56.6 48 57.7 46.5 57.7 C 45 57.7 43.8 56.6 43.8 55 Z M 48.5 55 C 48.5 53.8 47.6 53 46.5 53 C 45.4 53 44.5 53.8 44.5 55 C 44.5 56.3 45.4 57.1 46.5 57.1 C 47.6 57.1 48.5 56.3 48.5 55 Z M 55.4 54.6 C 55.44 54.63 55.4 57.7 55.4 57.7 L 54.7 57.7 C 54.7 57.7 54.73 54.7 54.7 54.7 C 54.7 53.6 54.1 53 53.1 53 C 52 53 51.3 53.7 51.3 54.9 C 51.31 54.92 51.3 57.7 51.3 57.7 L 50.6 57.7 L 50.6 52.4 L 51.3 52.4 C 51.3 52.4 51.28 53.39 51.3 53.4 C 51.7 52.7 52.4 52.4 53.3 52.4 C 54.6 52.4 55.4 53.1 55.4 54.6 Z M 62.1 50.3 L 62.1 57.7 L 61.5 57.7 C 61.5 57.7 61.47 56.64 61.5 56.6 C 61 57.3 60.3 57.7 59.4 57.7 C 57.9 57.7 56.8 56.6 56.8 55 C 56.8 53.5 57.9 52.4 59.4 52.4 C 60.3 52.4 61 52.7 61.4 53.4 C 61.44 53.42 61.4 50.3 61.4 50.3 L 62.1 50.3 Z M 61.5 55 C 61.5 53.8 60.6 53 59.5 53 C 58.4 53 57.5 53.8 57.5 55 C 57.5 56.3 58.4 57.1 59.5 57.1 C 60.6 57.1 61.5 56.3 61.5 55 Z M 63.9 50.8 C 63.9 50.5 64.1 50.3 64.4 50.3 C 64.7 50.3 64.9 50.5 64.9 50.7 C 64.9 51 64.7 51.3 64.4 51.3 C 64.1 51.3 63.9 51 63.9 50.8 Z M 64 52.4 L 64.7 52.4 L 64.7 57.7 L 64 57.7 L 64 52.4 Z M 71.4 54.6 C 71.41 54.63 71.4 57.7 71.4 57.7 L 70.7 57.7 C 70.7 57.7 70.7 54.7 70.7 54.7 C 70.7 53.6 70.1 53 69.1 53 C 68 53 67.3 53.7 67.3 54.9 C 67.28 54.92 67.3 57.7 67.3 57.7 L 66.6 57.7 L 66.6 52.4 L 67.2 52.4 C 67.2 52.4 67.25 53.39 67.2 53.4 C 67.6 52.7 68.3 52.4 69.2 52.4 C 70.5 52.4 71.4 53.1 71.4 54.6 Z M 78.2 52.4 C 78.2 52.4 78.17 57.04 78.2 57 C 78.2 58.9 77.3 59.7 75.5 59.7 C 74.6 59.7 73.6 59.4 73.1 58.9 C 73.1 58.9 73.4 58.3 73.4 58.3 C 73.9 58.8 74.7 59 75.5 59 C 76.9 59 77.5 58.4 77.5 57.1 C 77.5 57.1 77.5 56.5 77.5 56.5 C 77 57.1 76.3 57.5 75.4 57.5 C 73.9 57.5 72.8 56.4 72.8 54.9 C 72.8 53.4 73.9 52.4 75.4 52.4 C 76.3 52.4 77.1 52.7 77.5 53.4 C 77.49 53.43 77.5 52.4 77.5 52.4 L 78.2 52.4 Z M 77.5 54.9 C 77.5 53.8 76.6 53 75.5 53 C 74.3 53 73.5 53.8 73.5 54.9 C 73.5 56.1 74.3 56.9 75.5 56.9 C 76.6 56.9 77.5 56.1 77.5 54.9 Z M 87.6 50.3 L 87.6 57.7 L 86.9 57.7 C 86.9 57.7 86.9 56.64 86.9 56.6 C 86.5 57.3 85.7 57.7 84.9 57.7 C 83.4 57.7 82.3 56.6 82.3 55 C 82.3 53.5 83.4 52.4 84.9 52.4 C 85.7 52.4 86.4 52.7 86.9 53.4 C 86.87 53.42 86.9 50.3 86.9 50.3 L 87.6 50.3 Z M 86.9 55 C 86.9 53.8 86 53 84.9 53 C 83.8 53 83 53.8 83 55 C 83 56.3 83.8 57.1 84.9 57.1 C 86 57.1 86.9 56.3 86.9 55 Z M 89.3 50.8 C 89.3 50.5 89.5 50.3 89.8 50.3 C 90.1 50.3 90.3 50.5 90.3 50.7 C 90.3 51 90.1 51.3 89.8 51.3 C 89.5 51.3 89.3 51 89.3 50.8 Z M 89.4 52.4 L 90.2 52.4 L 90.2 57.7 L 89.4 57.7 L 89.4 52.4 Z M 91.4 57.1 C 91.4 57.1 91.7 56.5 91.7 56.5 C 92.2 56.9 92.9 57.1 93.6 57.1 C 94.6 57.1 95 56.8 95 56.3 C 95 54.9 91.6 56 91.6 53.9 C 91.6 53 92.4 52.4 93.7 52.4 C 94.4 52.4 95.1 52.6 95.6 52.9 C 95.6 52.9 95.2 53.4 95.2 53.4 C 94.8 53.1 94.2 53 93.7 53 C 92.7 53 92.3 53.4 92.3 53.9 C 92.3 55.3 95.7 54.2 95.7 56.2 C 95.7 57.1 94.9 57.7 93.6 57.7 C 92.7 57.7 91.9 57.4 91.4 57.1 Z M 102.4 55.1 C 102.4 56.7 101.3 57.7 99.8 57.7 C 98.9 57.7 98.2 57.4 97.8 56.7 C 97.75 56.69 97.8 59.6 97.8 59.6 L 97 59.6 L 97 52.4 L 97.7 52.4 C 97.7 52.4 97.72 53.46 97.7 53.5 C 98.2 52.8 98.9 52.4 99.8 52.4 C 101.3 52.4 102.4 53.5 102.4 55.1 Z M 101.7 55 C 101.7 53.8 100.8 53 99.7 53 C 98.6 53 97.7 53.8 97.7 55 C 97.7 56.3 98.6 57.1 99.7 57.1 C 100.8 57.1 101.7 56.3 101.7 55 Z M 103.8 50.3 L 104.5 50.3 L 104.5 57.7 L 103.8 57.7 L 103.8 50.3 Z M 110.4 54.4 C 110.42 54.42 110.4 57.7 110.4 57.7 L 109.7 57.7 C 109.7 57.7 109.74 56.86 109.7 56.9 C 109.4 57.4 108.8 57.7 107.9 57.7 C 106.7 57.7 106 57.1 106 56.2 C 106 55.4 106.5 54.7 108 54.7 C 108.04 54.71 109.7 54.7 109.7 54.7 C 109.7 54.7 109.71 54.39 109.7 54.4 C 109.7 53.5 109.2 53 108.2 53 C 107.5 53 106.9 53.2 106.5 53.6 C 106.5 53.6 106.1 53.1 106.1 53.1 C 106.7 52.6 107.5 52.4 108.3 52.4 C 109.6 52.4 110.4 53.1 110.4 54.4 Z M 109.7 56.1 C 109.71 56.1 109.7 55.2 109.7 55.2 C 109.7 55.2 108.06 55.24 108.1 55.2 C 107 55.2 106.7 55.6 106.7 56.2 C 106.7 56.8 107.2 57.2 108 57.2 C 108.8 57.2 109.4 56.8 109.7 56.1 Z M 116.6 52.4 C 116.6 52.4 113.94 58.31 113.9 58.3 C 113.5 59.3 112.9 59.7 112.2 59.7 C 111.7 59.7 111.2 59.5 110.9 59.2 C 110.9 59.2 111.2 58.7 111.2 58.7 C 111.5 58.9 111.8 59.1 112.2 59.1 C 112.7 59.1 113 58.8 113.3 58.2 C 113.29 58.18 113.5 57.7 113.5 57.7 L 111.2 52.4 L 111.9 52.4 L 113.9 56.9 L 115.9 52.4 L 116.6 52.4 Z M 116.7 57.2 C 116.7 56.9 116.9 56.6 117.2 56.6 C 117.5 56.6 117.8 56.9 117.8 57.2 C 117.8 57.5 117.5 57.7 117.2 57.7 C 116.9 57.7 116.7 57.5 116.7 57.2 Z " stroke="none" fill="#323132"/>
  </g>
  <g id="Polygon117952">
    <path d="M 8.5 36.3 L 6 36.3 L 6 35.7 L 11.7 35.7 L 11.7 36.3 L 9.2 36.3 L 9.2 42.7 L 8.5 42.7 L 8.5 36.3 Z M 17.6 39.6 C 17.63 39.63 17.6 42.7 17.6 42.7 L 16.9 42.7 C 16.9 42.7 16.92 39.7 16.9 39.7 C 16.9 38.6 16.3 38 15.3 38 C 14.2 38 13.5 38.7 13.5 39.9 C 13.5 39.92 13.5 42.7 13.5 42.7 L 12.8 42.7 L 12.8 35.3 L 13.5 35.3 C 13.5 35.3 13.5 38.34 13.5 38.3 C 13.9 37.7 14.6 37.4 15.5 37.4 C 16.8 37.4 17.6 38.1 17.6 39.6 Z M 24.1 40.3 C 24.1 40.3 19.7 40.3 19.7 40.3 C 19.8 41.4 20.6 42.1 21.8 42.1 C 22.4 42.1 23 41.9 23.4 41.4 C 23.4 41.4 23.8 41.9 23.8 41.9 C 23.3 42.4 22.6 42.7 21.8 42.7 C 20.1 42.7 19 41.6 19 40 C 19 38.5 20.1 37.4 21.6 37.4 C 23.1 37.4 24.1 38.5 24.1 40 C 24.1 40.1 24.1 40.2 24.1 40.3 Z M 19.7 39.7 C 19.7 39.7 23.5 39.7 23.5 39.7 C 23.4 38.7 22.6 38 21.6 38 C 20.6 38 19.8 38.7 19.7 39.7 Z M 33 35.3 L 33 42.7 L 32.3 42.7 C 32.3 42.7 32.33 41.64 32.3 41.6 C 31.9 42.3 31.2 42.7 30.3 42.7 C 28.8 42.7 27.7 41.6 27.7 40 C 27.7 38.5 28.8 37.4 30.3 37.4 C 31.1 37.4 31.9 37.7 32.3 38.4 C 32.3 38.42 32.3 35.3 32.3 35.3 L 33 35.3 Z M 32.3 40 C 32.3 38.8 31.5 38 30.4 38 C 29.2 38 28.4 38.8 28.4 40 C 28.4 41.3 29.2 42.1 30.4 42.1 C 31.5 42.1 32.3 41.3 32.3 40 Z M 34.7 35.8 C 34.7 35.5 34.9 35.3 35.2 35.3 C 35.5 35.3 35.7 35.5 35.7 35.7 C 35.7 36 35.5 36.3 35.2 36.3 C 34.9 36.3 34.7 36 34.7 35.8 Z M 34.9 37.4 L 35.6 37.4 L 35.6 42.7 L 34.9 42.7 L 34.9 37.4 Z M 40.1 37.4 C 40.1 37.4 40.1 38.1 40.1 38.1 C 40 38.1 40 38.1 39.9 38.1 C 38.8 38.1 38.1 38.8 38.1 40 C 38.13 40 38.1 42.7 38.1 42.7 L 37.4 42.7 L 37.4 37.4 L 38.1 37.4 C 38.1 37.4 38.1 38.45 38.1 38.4 C 38.4 37.7 39.1 37.4 40.1 37.4 Z M 45.8 40.3 C 45.8 40.3 41.4 40.3 41.4 40.3 C 41.5 41.4 42.3 42.1 43.5 42.1 C 44.1 42.1 44.7 41.9 45.1 41.4 C 45.1 41.4 45.5 41.9 45.5 41.9 C 45 42.4 44.3 42.7 43.5 42.7 C 41.8 42.7 40.7 41.6 40.7 40 C 40.7 38.5 41.8 37.4 43.3 37.4 C 44.8 37.4 45.8 38.5 45.8 40 C 45.8 40.1 45.8 40.2 45.8 40.3 Z M 41.4 39.7 C 41.4 39.7 45.1 39.7 45.1 39.7 C 45.1 38.7 44.3 38 43.3 38 C 42.3 38 41.5 38.7 41.4 39.7 Z M 46.8 40 C 46.8 38.5 48 37.4 49.5 37.4 C 50.4 37.4 51.2 37.7 51.6 38.4 C 51.6 38.4 51.1 38.8 51.1 38.8 C 50.7 38.2 50.1 38 49.5 38 C 48.4 38 47.5 38.8 47.5 40 C 47.5 41.3 48.4 42.1 49.5 42.1 C 50.1 42.1 50.7 41.9 51.1 41.3 C 51.1 41.3 51.6 41.7 51.6 41.7 C 51.2 42.4 50.4 42.7 49.5 42.7 C 48 42.7 46.8 41.6 46.8 40 Z M 55.9 42.4 C 55.7 42.6 55.2 42.7 54.8 42.7 C 53.8 42.7 53.3 42.2 53.3 41.2 C 53.29 41.2 53.3 38 53.3 38 L 52.3 38 L 52.3 37.4 L 53.3 37.4 L 53.3 36.3 L 54 36.3 L 54 37.4 L 55.6 37.4 L 55.6 38 L 54 38 C 54 38 54 41.16 54 41.2 C 54 41.8 54.3 42.1 54.9 42.1 C 55.2 42.1 55.5 42 55.7 41.9 C 55.7 41.9 55.9 42.4 55.9 42.4 Z M 57 35.8 C 57 35.5 57.2 35.3 57.5 35.3 C 57.8 35.3 58 35.5 58 35.7 C 58 36 57.8 36.3 57.5 36.3 C 57.2 36.3 57 36 57 35.8 Z M 57.1 37.4 L 57.8 37.4 L 57.8 42.7 L 57.1 42.7 L 57.1 37.4 Z M 59.2 40 C 59.2 38.5 60.4 37.4 61.9 37.4 C 63.5 37.4 64.6 38.5 64.6 40 C 64.6 41.6 63.5 42.7 61.9 42.7 C 60.4 42.7 59.2 41.6 59.2 40 Z M 63.9 40 C 63.9 38.8 63 38 61.9 38 C 60.8 38 60 38.8 60 40 C 60 41.3 60.8 42.1 61.9 42.1 C 63 42.1 63.9 41.3 63.9 40 Z M 70.8 39.6 C 70.85 39.63 70.8 42.7 70.8 42.7 L 70.1 42.7 C 70.1 42.7 70.14 39.7 70.1 39.7 C 70.1 38.6 69.6 38 68.6 38 C 67.4 38 66.7 38.7 66.7 39.9 C 66.72 39.92 66.7 42.7 66.7 42.7 L 66 42.7 L 66 37.4 L 66.7 37.4 C 66.7 37.4 66.69 38.39 66.7 38.4 C 67.1 37.7 67.8 37.4 68.7 37.4 C 70 37.4 70.8 38.1 70.8 39.6 Z M 74.9 40 C 74.9 38.5 76 37.4 77.5 37.4 C 79.1 37.4 80.2 38.5 80.2 40 C 80.2 41.6 79.1 42.7 77.5 42.7 C 76 42.7 74.9 41.6 74.9 40 Z M 79.5 40 C 79.5 38.8 78.7 38 77.5 38 C 76.4 38 75.6 38.8 75.6 40 C 75.6 41.3 76.4 42.1 77.5 42.1 C 78.7 42.1 79.5 41.3 79.5 40 Z M 82.4 36.8 C 82.41 36.8 82.4 37.4 82.4 37.4 L 84 37.4 L 84 38 L 82.4 38 L 82.4 42.7 L 81.7 42.7 L 81.7 38 L 80.8 38 L 80.8 37.4 L 81.7 37.4 C 81.7 37.4 81.72 36.77 81.7 36.8 C 81.7 35.8 82.3 35.2 83.3 35.2 C 83.7 35.2 84.1 35.3 84.4 35.5 C 84.4 35.5 84.1 36.1 84.1 36.1 C 83.9 35.9 83.6 35.8 83.3 35.8 C 82.7 35.8 82.4 36.1 82.4 36.8 Z M 96.3 39.6 C 96.29 39.63 96.3 42.7 96.3 42.7 L 95.6 42.7 C 95.6 42.7 95.58 39.7 95.6 39.7 C 95.6 38.6 95 38 94.1 38 C 93 38 92.3 38.7 92.3 39.9 C 92.31 39.92 92.3 42.7 92.3 42.7 L 91.6 42.7 C 91.6 42.7 91.6 39.7 91.6 39.7 C 91.6 38.6 91 38 90.1 38 C 89 38 88.3 38.7 88.3 39.9 C 88.32 39.92 88.3 42.7 88.3 42.7 L 87.6 42.7 L 87.6 37.4 L 88.3 37.4 C 88.3 37.4 88.29 38.38 88.3 38.4 C 88.7 37.7 89.3 37.4 90.2 37.4 C 91.1 37.4 91.8 37.7 92.1 38.5 C 92.5 37.8 93.2 37.4 94.2 37.4 C 95.5 37.4 96.3 38.1 96.3 39.6 Z M 97.7 40 C 97.7 38.5 98.8 37.4 100.4 37.4 C 101.9 37.4 103 38.5 103 40 C 103 41.6 101.9 42.7 100.4 42.7 C 98.8 42.7 97.7 41.6 97.7 40 Z M 102.3 40 C 102.3 38.8 101.5 38 100.4 38 C 99.2 38 98.4 38.8 98.4 40 C 98.4 41.3 99.2 42.1 100.4 42.1 C 101.5 42.1 102.3 41.3 102.3 40 Z M 108.8 37.4 L 106.5 42.7 L 105.8 42.7 L 103.4 37.4 L 104.2 37.4 L 106.1 41.9 L 108.1 37.4 L 108.8 37.4 Z M 114.3 40.3 C 114.3 40.3 109.9 40.3 109.9 40.3 C 110 41.4 110.8 42.1 112 42.1 C 112.6 42.1 113.2 41.9 113.6 41.4 C 113.6 41.4 114 41.9 114 41.9 C 113.5 42.4 112.8 42.7 112 42.7 C 110.3 42.7 109.2 41.6 109.2 40 C 109.2 38.5 110.3 37.4 111.8 37.4 C 113.3 37.4 114.3 38.5 114.3 40 C 114.3 40.1 114.3 40.2 114.3 40.3 Z M 109.9 39.7 C 109.9 39.7 113.7 39.7 113.7 39.7 C 113.6 38.7 112.8 38 111.8 38 C 110.8 38 110 38.7 109.9 39.7 Z M 124.4 39.6 C 124.41 39.63 124.4 42.7 124.4 42.7 L 123.7 42.7 C 123.7 42.7 123.7 39.7 123.7 39.7 C 123.7 38.6 123.1 38 122.2 38 C 121.1 38 120.4 38.7 120.4 39.9 C 120.43 39.92 120.4 42.7 120.4 42.7 L 119.7 42.7 C 119.7 42.7 119.72 39.7 119.7 39.7 C 119.7 38.6 119.2 38 118.2 38 C 117.1 38 116.4 38.7 116.4 39.9 C 116.44 39.92 116.4 42.7 116.4 42.7 L 115.7 42.7 L 115.7 37.4 L 116.4 37.4 C 116.4 37.4 116.41 38.38 116.4 38.4 C 116.8 37.7 117.5 37.4 118.3 37.4 C 119.2 37.4 119.9 37.7 120.2 38.5 C 120.6 37.8 121.3 37.4 122.3 37.4 C 123.6 37.4 124.4 38.1 124.4 39.6 Z M 130.9 40.3 C 130.9 40.3 126.5 40.3 126.5 40.3 C 126.6 41.4 127.4 42.1 128.6 42.1 C 129.2 42.1 129.8 41.9 130.2 41.4 C 130.2 41.4 130.6 41.9 130.6 41.9 C 130.1 42.4 129.4 42.7 128.6 42.7 C 126.9 42.7 125.8 41.6 125.8 40 C 125.8 38.5 126.9 37.4 128.4 37.4 C 129.9 37.4 130.9 38.5 130.9 40 C 130.9 40.1 130.9 40.2 130.9 40.3 Z M 126.5 39.7 C 126.5 39.7 130.2 39.7 130.2 39.7 C 130.2 38.7 129.4 38 128.4 38 C 127.4 38 126.6 38.7 126.5 39.7 Z M 137.2 39.6 C 137.17 39.63 137.2 42.7 137.2 42.7 L 136.5 42.7 C 136.5 42.7 136.46 39.7 136.5 39.7 C 136.5 38.6 135.9 38 134.9 38 C 133.7 38 133 38.7 133 39.9 C 133.04 39.92 133 42.7 133 42.7 L 132.3 42.7 L 132.3 37.4 L 133 37.4 C 133 37.4 133.01 38.39 133 38.4 C 133.4 37.7 134.1 37.4 135 37.4 C 136.3 37.4 137.2 38.1 137.2 39.6 Z M 141.7 42.4 C 141.4 42.6 141 42.7 140.6 42.7 C 139.6 42.7 139.1 42.2 139.1 41.2 C 139.05 41.2 139.1 38 139.1 38 L 138.1 38 L 138.1 37.4 L 139.1 37.4 L 139.1 36.3 L 139.8 36.3 L 139.8 37.4 L 141.4 37.4 L 141.4 38 L 139.8 38 C 139.8 38 139.76 41.16 139.8 41.2 C 139.8 41.8 140.1 42.1 140.7 42.1 C 141 42.1 141.3 42 141.5 41.9 C 141.5 41.9 141.7 42.4 141.7 42.4 Z M 145.1 40 C 145.1 38.5 146.2 37.4 147.8 37.4 C 149.3 37.4 150.4 38.5 150.4 40 C 150.4 41.6 149.3 42.7 147.8 42.7 C 146.2 42.7 145.1 41.6 145.1 40 Z M 149.7 40 C 149.7 38.8 148.9 38 147.8 38 C 146.6 38 145.8 38.8 145.8 40 C 145.8 41.3 146.6 42.1 147.8 42.1 C 148.9 42.1 149.7 41.3 149.7 40 Z M 152.6 36.8 C 152.63 36.8 152.6 37.4 152.6 37.4 L 154.2 37.4 L 154.2 38 L 152.6 38 L 152.6 42.7 L 151.9 42.7 L 151.9 38 L 151 38 L 151 37.4 L 151.9 37.4 C 151.9 37.4 151.94 36.77 151.9 36.8 C 151.9 35.8 152.5 35.2 153.5 35.2 C 153.9 35.2 154.3 35.3 154.6 35.5 C 154.6 35.5 154.3 36.1 154.3 36.1 C 154.1 35.9 153.9 35.8 153.6 35.8 C 152.9 35.8 152.6 36.1 152.6 36.8 Z M 161.8 39.4 C 161.8 39.42 161.8 42.7 161.8 42.7 L 161.1 42.7 C 161.1 42.7 161.12 41.86 161.1 41.9 C 160.8 42.4 160.2 42.7 159.3 42.7 C 158.1 42.7 157.4 42.1 157.4 41.2 C 157.4 40.4 157.9 39.7 159.4 39.7 C 159.42 39.71 161.1 39.7 161.1 39.7 C 161.1 39.7 161.09 39.39 161.1 39.4 C 161.1 38.5 160.6 38 159.6 38 C 158.9 38 158.3 38.2 157.8 38.6 C 157.8 38.6 157.5 38.1 157.5 38.1 C 158.1 37.6 158.8 37.4 159.7 37.4 C 161 37.4 161.8 38.1 161.8 39.4 Z M 161.1 41.1 C 161.09 41.1 161.1 40.2 161.1 40.2 C 161.1 40.2 159.44 40.24 159.4 40.2 C 158.4 40.2 158.1 40.6 158.1 41.2 C 158.1 41.8 158.6 42.2 159.4 42.2 C 160.2 42.2 160.8 41.8 161.1 41.1 Z M 165.8 40 C 165.8 38.5 167 37.4 168.5 37.4 C 169.4 37.4 170.2 37.7 170.6 38.4 C 170.6 38.4 170.1 38.8 170.1 38.8 C 169.7 38.2 169.1 38 168.5 38 C 167.4 38 166.5 38.8 166.5 40 C 166.5 41.3 167.4 42.1 168.5 42.1 C 169.1 42.1 169.7 41.9 170.1 41.3 C 170.1 41.3 170.6 41.7 170.6 41.7 C 170.2 42.4 169.4 42.7 168.5 42.7 C 167 42.7 165.8 41.6 165.8 40 Z M 171.4 40 C 171.4 38.5 172.5 37.4 174.1 37.4 C 175.6 37.4 176.7 38.5 176.7 40 C 176.7 41.6 175.6 42.7 174.1 42.7 C 172.5 42.7 171.4 41.6 171.4 40 Z M 176 40 C 176 38.8 175.2 38 174.1 38 C 172.9 38 172.1 38.8 172.1 40 C 172.1 41.3 172.9 42.1 174.1 42.1 C 175.2 42.1 176 41.3 176 40 Z M 183 39.6 C 182.99 39.63 183 42.7 183 42.7 L 182.3 42.7 C 182.3 42.7 182.28 39.7 182.3 39.7 C 182.3 38.6 181.7 38 180.7 38 C 179.6 38 178.9 38.7 178.9 39.9 C 178.86 39.92 178.9 42.7 178.9 42.7 L 178.2 42.7 L 178.2 37.4 L 178.8 37.4 C 178.8 37.4 178.83 38.39 178.8 38.4 C 179.2 37.7 179.9 37.4 180.8 37.4 C 182.1 37.4 183 38.1 183 39.6 Z M 187.5 42.4 C 187.2 42.6 186.8 42.7 186.4 42.7 C 185.4 42.7 184.9 42.2 184.9 41.2 C 184.87 41.2 184.9 38 184.9 38 L 183.9 38 L 183.9 37.4 L 184.9 37.4 L 184.9 36.3 L 185.6 36.3 L 185.6 37.4 L 187.2 37.4 L 187.2 38 L 185.6 38 C 185.6 38 185.58 41.16 185.6 41.2 C 185.6 41.8 185.9 42.1 186.5 42.1 C 186.8 42.1 187.1 42 187.3 41.9 C 187.3 41.9 187.5 42.4 187.5 42.4 Z M 191.4 37.4 C 191.4 37.4 191.4 38.1 191.4 38.1 C 191.3 38.1 191.2 38.1 191.2 38.1 C 190.1 38.1 189.4 38.8 189.4 40 C 189.42 40 189.4 42.7 189.4 42.7 L 188.7 42.7 L 188.7 37.4 L 189.4 37.4 C 189.4 37.4 189.39 38.45 189.4 38.4 C 189.7 37.7 190.4 37.4 191.4 37.4 Z M 192 40 C 192 38.5 193.1 37.4 194.7 37.4 C 196.2 37.4 197.3 38.5 197.3 40 C 197.3 41.6 196.2 42.7 194.7 42.7 C 193.1 42.7 192 41.6 192 40 Z M 196.6 40 C 196.6 38.8 195.8 38 194.7 38 C 193.5 38 192.7 38.8 192.7 40 C 192.7 41.3 193.5 42.1 194.7 42.1 C 195.8 42.1 196.6 41.3 196.6 40 Z M 198.8 35.3 L 199.5 35.3 L 199.5 42.7 L 198.8 42.7 L 198.8 35.3 Z M 203.3 42.1 C 203.3 42.1 203.7 41.5 203.7 41.5 C 204.1 41.9 204.8 42.1 205.5 42.1 C 206.5 42.1 206.9 41.8 206.9 41.3 C 206.9 39.9 203.5 41 203.5 38.9 C 203.5 38 204.3 37.4 205.6 37.4 C 206.3 37.4 207 37.6 207.5 37.9 C 207.5 37.9 207.2 38.4 207.2 38.4 C 206.7 38.1 206.2 38 205.6 38 C 204.7 38 204.2 38.4 204.2 38.9 C 204.2 40.3 207.7 39.2 207.7 41.2 C 207.7 42.1 206.9 42.7 205.5 42.7 C 204.6 42.7 203.8 42.4 203.3 42.1 Z M 213.8 39.6 C 213.81 39.63 213.8 42.7 213.8 42.7 L 213.1 42.7 C 213.1 42.7 213.1 39.7 213.1 39.7 C 213.1 38.6 212.5 38 211.5 38 C 210.4 38 209.7 38.7 209.7 39.9 C 209.68 39.92 209.7 42.7 209.7 42.7 L 209 42.7 L 209 35.3 L 209.7 35.3 C 209.7 35.3 209.68 38.34 209.7 38.3 C 210.1 37.7 210.8 37.4 211.6 37.4 C 212.9 37.4 213.8 38.1 213.8 39.6 Z M 215.2 40 C 215.2 38.5 216.3 37.4 217.9 37.4 C 219.4 37.4 220.5 38.5 220.5 40 C 220.5 41.6 219.4 42.7 217.9 42.7 C 216.3 42.7 215.2 41.6 215.2 40 Z M 219.8 40 C 219.8 38.8 219 38 217.9 38 C 216.7 38 215.9 38.8 215.9 40 C 215.9 41.3 216.7 42.1 217.9 42.1 C 219 42.1 219.8 41.3 219.8 40 Z M 226.7 37.4 L 226.7 42.7 L 226 42.7 C 226 42.7 226.01 41.72 226 41.7 C 225.6 42.4 225 42.7 224.1 42.7 C 222.8 42.7 221.9 42 221.9 40.5 C 221.9 40.47 221.9 37.4 221.9 37.4 L 222.6 37.4 C 222.6 37.4 222.61 40.4 222.6 40.4 C 222.6 41.5 223.2 42.1 224.2 42.1 C 225.3 42.1 226 41.4 226 40.2 C 225.98 40.18 226 37.4 226 37.4 L 226.7 37.4 Z M 228.6 35.3 L 229.3 35.3 L 229.3 42.7 L 228.6 42.7 L 228.6 35.3 Z M 236 35.3 L 236 42.7 L 235.4 42.7 C 235.4 42.7 235.35 41.64 235.4 41.6 C 234.9 42.3 234.2 42.7 233.3 42.7 C 231.8 42.7 230.7 41.6 230.7 40 C 230.7 38.5 231.8 37.4 233.3 37.4 C 234.2 37.4 234.9 37.7 235.3 38.4 C 235.32 38.42 235.3 35.3 235.3 35.3 L 236 35.3 Z M 235.3 40 C 235.3 38.8 234.5 38 233.4 38 C 232.3 38 231.4 38.8 231.4 40 C 231.4 41.3 232.3 42.1 233.4 42.1 C 234.5 42.1 235.3 41.3 235.3 40 Z M 246 40 C 246 41.6 244.8 42.7 243.3 42.7 C 242.5 42.7 241.7 42.3 241.3 41.6 C 241.31 41.64 241.3 42.7 241.3 42.7 L 240.6 42.7 L 240.6 35.3 L 241.3 35.3 C 241.3 35.3 241.34 38.42 241.3 38.4 C 241.8 37.7 242.5 37.4 243.3 37.4 C 244.8 37.4 246 38.5 246 40 Z M 245.3 40 C 245.3 38.8 244.4 38 243.3 38 C 242.2 38 241.3 38.8 241.3 40 C 241.3 41.3 242.2 42.1 243.3 42.1 C 244.4 42.1 245.3 41.3 245.3 40 Z M 252.1 40.3 C 252.1 40.3 247.7 40.3 247.7 40.3 C 247.8 41.4 248.6 42.1 249.7 42.1 C 250.4 42.1 251 41.9 251.4 41.4 C 251.4 41.4 251.8 41.9 251.8 41.9 C 251.3 42.4 250.6 42.7 249.7 42.7 C 248.1 42.7 247 41.6 247 40 C 247 38.5 248.1 37.4 249.5 37.4 C 251 37.4 252.1 38.5 252.1 40 C 252.1 40.1 252.1 40.2 252.1 40.3 Z M 247.7 39.7 C 247.7 39.7 251.4 39.7 251.4 39.7 C 251.3 38.7 250.6 38 249.5 38 C 248.5 38 247.8 38.7 247.7 39.7 Z M 255.6 40 C 255.6 38.5 256.8 37.4 258.3 37.4 C 259.2 37.4 260 37.7 260.4 38.4 C 260.4 38.4 259.9 38.8 259.9 38.8 C 259.5 38.2 258.9 38 258.3 38 C 257.2 38 256.3 38.8 256.3 40 C 256.3 41.3 257.2 42.1 258.3 42.1 C 258.9 42.1 259.5 41.9 259.9 41.3 C 259.9 41.3 260.4 41.7 260.4 41.7 C 260 42.4 259.2 42.7 258.3 42.7 C 256.8 42.7 255.6 41.6 255.6 40 Z M 261.2 40 C 261.2 38.5 262.3 37.4 263.9 37.4 C 265.4 37.4 266.5 38.5 266.5 40 C 266.5 41.6 265.4 42.7 263.9 42.7 C 262.3 42.7 261.2 41.6 261.2 40 Z M 265.8 40 C 265.8 38.8 265 38 263.9 38 C 262.7 38 261.9 38.8 261.9 40 C 261.9 41.3 262.7 42.1 263.9 42.1 C 265 42.1 265.8 41.3 265.8 40 Z M 276.6 39.6 C 276.64 39.63 276.6 42.7 276.6 42.7 L 275.9 42.7 C 275.9 42.7 275.93 39.7 275.9 39.7 C 275.9 38.6 275.4 38 274.4 38 C 273.3 38 272.7 38.7 272.7 39.9 C 272.66 39.92 272.7 42.7 272.7 42.7 L 272 42.7 C 272 42.7 271.95 39.7 272 39.7 C 272 38.6 271.4 38 270.4 38 C 269.4 38 268.7 38.7 268.7 39.9 C 268.67 39.92 268.7 42.7 268.7 42.7 L 268 42.7 L 268 37.4 L 268.6 37.4 C 268.6 37.4 268.64 38.38 268.6 38.4 C 269 37.7 269.7 37.4 270.6 37.4 C 271.4 37.4 272.1 37.7 272.4 38.5 C 272.8 37.8 273.6 37.4 274.5 37.4 C 275.8 37.4 276.6 38.1 276.6 39.6 Z M 283.8 40.1 C 283.8 41.7 282.7 42.7 281.2 42.7 C 280.3 42.7 279.6 42.4 279.2 41.7 C 279.18 41.69 279.2 44.6 279.2 44.6 L 278.5 44.6 L 278.5 37.4 L 279.1 37.4 C 279.1 37.4 279.15 38.46 279.1 38.5 C 279.6 37.8 280.3 37.4 281.2 37.4 C 282.7 37.4 283.8 38.5 283.8 40.1 Z M 283.1 40 C 283.1 38.8 282.2 38 281.1 38 C 280 38 279.2 38.8 279.2 40 C 279.2 41.3 280 42.1 281.1 42.1 C 282.2 42.1 283.1 41.3 283.1 40 Z M 289.2 39.4 C 289.21 39.42 289.2 42.7 289.2 42.7 L 288.5 42.7 C 288.5 42.7 288.53 41.86 288.5 41.9 C 288.2 42.4 287.6 42.7 286.7 42.7 C 285.5 42.7 284.8 42.1 284.8 41.2 C 284.8 40.4 285.3 39.7 286.8 39.7 C 286.83 39.71 288.5 39.7 288.5 39.7 C 288.5 39.7 288.5 39.39 288.5 39.4 C 288.5 38.5 288 38 287 38 C 286.3 38 285.7 38.2 285.3 38.6 C 285.3 38.6 284.9 38.1 284.9 38.1 C 285.5 37.6 286.3 37.4 287.1 37.4 C 288.4 37.4 289.2 38.1 289.2 39.4 Z M 288.5 41.1 C 288.5 41.1 288.5 40.2 288.5 40.2 C 288.5 40.2 286.85 40.24 286.9 40.2 C 285.8 40.2 285.5 40.6 285.5 41.2 C 285.5 41.8 286 42.2 286.8 42.2 C 287.6 42.2 288.2 41.8 288.5 41.1 Z M 293.8 42.4 C 293.5 42.6 293.1 42.7 292.6 42.7 C 291.7 42.7 291.1 42.2 291.1 41.2 C 291.11 41.2 291.1 38 291.1 38 L 290.2 38 L 290.2 37.4 L 291.1 37.4 L 291.1 36.3 L 291.8 36.3 L 291.8 37.4 L 293.4 37.4 L 293.4 38 L 291.8 38 C 291.8 38 291.82 41.16 291.8 41.2 C 291.8 41.8 292.1 42.1 292.7 42.1 C 293 42.1 293.3 42 293.5 41.9 C 293.5 41.9 293.8 42.4 293.8 42.4 Z M 294.8 35.8 C 294.8 35.5 295 35.3 295.3 35.3 C 295.6 35.3 295.8 35.5 295.8 35.7 C 295.8 36 295.6 36.3 295.3 36.3 C 295 36.3 294.8 36 294.8 35.8 Z M 294.9 37.4 L 295.7 37.4 L 295.7 42.7 L 294.9 42.7 L 294.9 37.4 Z M 302.8 40 C 302.8 41.6 301.7 42.7 300.2 42.7 C 299.3 42.7 298.6 42.3 298.2 41.6 C 298.18 41.64 298.2 42.7 298.2 42.7 L 297.5 42.7 L 297.5 35.3 L 298.2 35.3 C 298.2 35.3 298.21 38.42 298.2 38.4 C 298.6 37.7 299.4 37.4 300.2 37.4 C 301.7 37.4 302.8 38.5 302.8 40 Z M 302.1 40 C 302.1 38.8 301.3 38 300.2 38 C 299 38 298.2 38.8 298.2 40 C 298.2 41.3 299 42.1 300.2 42.1 C 301.3 42.1 302.1 41.3 302.1 40 Z M 304.3 35.3 L 305 35.3 L 305 42.7 L 304.3 42.7 L 304.3 35.3 Z M 311.5 40.3 C 311.5 40.3 307.1 40.3 307.1 40.3 C 307.2 41.4 308 42.1 309.2 42.1 C 309.8 42.1 310.4 41.9 310.8 41.4 C 310.8 41.4 311.2 41.9 311.2 41.9 C 310.7 42.4 310 42.7 309.2 42.7 C 307.5 42.7 306.4 41.6 306.4 40 C 306.4 38.5 307.5 37.4 309 37.4 C 310.5 37.4 311.5 38.5 311.5 40 C 311.5 40.1 311.5 40.2 311.5 40.3 Z M 307.1 39.7 C 307.1 39.7 310.9 39.7 310.9 39.7 C 310.8 38.7 310 38 309 38 C 308 38 307.2 38.7 307.1 39.7 Z M 323.3 37.4 L 321.3 42.7 L 320.7 42.7 L 319 38.4 L 317.3 42.7 L 316.7 42.7 L 314.7 37.4 L 315.4 37.4 L 317 41.9 L 318.7 37.4 L 319.3 37.4 L 321 41.9 L 322.7 37.4 L 323.3 37.4 Z M 324.3 35.8 C 324.3 35.5 324.5 35.3 324.8 35.3 C 325.1 35.3 325.3 35.5 325.3 35.7 C 325.3 36 325.1 36.3 324.8 36.3 C 324.5 36.3 324.3 36 324.3 35.8 Z M 324.4 37.4 L 325.1 37.4 L 325.1 42.7 L 324.4 42.7 L 324.4 37.4 Z M 329.8 42.4 C 329.6 42.6 329.1 42.7 328.7 42.7 C 327.7 42.7 327.2 42.2 327.2 41.2 C 327.19 41.2 327.2 38 327.2 38 L 326.2 38 L 326.2 37.4 L 327.2 37.4 L 327.2 36.3 L 327.9 36.3 L 327.9 37.4 L 329.5 37.4 L 329.5 38 L 327.9 38 C 327.9 38 327.9 41.16 327.9 41.2 C 327.9 41.8 328.2 42.1 328.8 42.1 C 329.1 42.1 329.4 42 329.6 41.9 C 329.6 41.9 329.8 42.4 329.8 42.4 Z M 335.9 39.6 C 335.86 39.63 335.9 42.7 335.9 42.7 L 335.2 42.7 C 335.2 42.7 335.15 39.7 335.2 39.7 C 335.2 38.6 334.6 38 333.6 38 C 332.4 38 331.7 38.7 331.7 39.9 C 331.73 39.92 331.7 42.7 331.7 42.7 L 331 42.7 L 331 35.3 L 331.7 35.3 C 331.7 35.3 331.73 38.34 331.7 38.3 C 332.1 37.7 332.8 37.4 333.7 37.4 C 335 37.4 335.9 38.1 335.9 39.6 Z M 343.2 42.4 C 342.9 42.6 342.5 42.7 342.1 42.7 C 341.1 42.7 340.5 42.2 340.5 41.2 C 340.53 41.2 340.5 38 340.5 38 L 339.6 38 L 339.6 37.4 L 340.5 37.4 L 340.5 36.3 L 341.2 36.3 L 341.2 37.4 L 342.8 37.4 L 342.8 38 L 341.2 38 C 341.2 38 341.24 41.16 341.2 41.2 C 341.2 41.8 341.6 42.1 342.2 42.1 C 342.4 42.1 342.7 42 342.9 41.9 C 342.9 41.9 343.2 42.4 343.2 42.4 Z M 349.2 39.6 C 349.21 39.63 349.2 42.7 349.2 42.7 L 348.5 42.7 C 348.5 42.7 348.5 39.7 348.5 39.7 C 348.5 38.6 347.9 38 346.9 38 C 345.8 38 345.1 38.7 345.1 39.9 C 345.08 39.92 345.1 42.7 345.1 42.7 L 344.4 42.7 L 344.4 35.3 L 345.1 35.3 C 345.1 35.3 345.08 38.34 345.1 38.3 C 345.5 37.7 346.2 37.4 347.1 37.4 C 348.3 37.4 349.2 38.1 349.2 39.6 Z M 355.7 40.3 C 355.7 40.3 351.3 40.3 351.3 40.3 C 351.4 41.4 352.2 42.1 353.4 42.1 C 354 42.1 354.6 41.9 355 41.4 C 355 41.4 355.4 41.9 355.4 41.9 C 354.9 42.4 354.2 42.7 353.4 42.7 C 351.7 42.7 350.6 41.6 350.6 40 C 350.6 38.5 351.7 37.4 353.2 37.4 C 354.6 37.4 355.7 38.5 355.7 40 C 355.7 40.1 355.7 40.2 355.7 40.3 Z M 351.3 39.7 C 351.3 39.7 355 39.7 355 39.7 C 354.9 38.7 354.2 38 353.2 38 C 352.1 38 351.4 38.7 351.3 39.7 Z M 368.5 39.6 C 368.46 39.63 368.5 42.7 368.5 42.7 L 367.8 42.7 C 367.8 42.7 367.76 39.7 367.8 39.7 C 367.8 38.6 367.2 38 366.2 38 C 365.2 38 364.5 38.7 364.5 39.9 C 364.48 39.92 364.5 42.7 364.5 42.7 L 363.8 42.7 C 363.8 42.7 363.78 39.7 363.8 39.7 C 363.8 38.6 363.2 38 362.3 38 C 361.2 38 360.5 38.7 360.5 39.9 C 360.49 39.92 360.5 42.7 360.5 42.7 L 359.8 42.7 L 359.8 37.4 L 360.5 37.4 C 360.5 37.4 360.46 38.38 360.5 38.4 C 360.8 37.7 361.5 37.4 362.4 37.4 C 363.3 37.4 363.9 37.7 364.3 38.5 C 364.6 37.8 365.4 37.4 366.3 37.4 C 367.6 37.4 368.5 38.1 368.5 39.6 Z M 369.9 40 C 369.9 38.5 371 37.4 372.5 37.4 C 374.1 37.4 375.2 38.5 375.2 40 C 375.2 41.6 374.1 42.7 372.5 42.7 C 371 42.7 369.9 41.6 369.9 40 Z M 374.5 40 C 374.5 38.8 373.7 38 372.5 38 C 371.4 38 370.6 38.8 370.6 40 C 370.6 41.3 371.4 42.1 372.5 42.1 C 373.7 42.1 374.5 41.3 374.5 40 Z M 381 37.4 L 378.7 42.7 L 377.9 42.7 L 375.6 37.4 L 376.3 37.4 L 378.3 41.9 L 380.3 37.4 L 381 37.4 Z M 386.5 40.3 C 386.5 40.3 382.1 40.3 382.1 40.3 C 382.2 41.4 383 42.1 384.2 42.1 C 384.8 42.1 385.4 41.9 385.8 41.4 C 385.8 41.4 386.2 41.9 386.2 41.9 C 385.7 42.4 385 42.7 384.1 42.7 C 382.5 42.7 381.4 41.6 381.4 40 C 381.4 38.5 382.5 37.4 384 37.4 C 385.4 37.4 386.5 38.5 386.5 40 C 386.5 40.1 386.5 40.2 386.5 40.3 Z M 382.1 39.7 C 382.1 39.7 385.8 39.7 385.8 39.7 C 385.7 38.7 385 38 384 38 C 382.9 38 382.2 38.7 382.1 39.7 Z M 396.6 39.6 C 396.58 39.63 396.6 42.7 396.6 42.7 L 395.9 42.7 C 395.9 42.7 395.88 39.7 395.9 39.7 C 395.9 38.6 395.3 38 394.4 38 C 393.3 38 392.6 38.7 392.6 39.9 C 392.6 39.92 392.6 42.7 392.6 42.7 L 391.9 42.7 C 391.9 42.7 391.9 39.7 391.9 39.7 C 391.9 38.6 391.3 38 390.4 38 C 389.3 38 388.6 38.7 388.6 39.9 C 388.61 39.92 388.6 42.7 388.6 42.7 L 387.9 42.7 L 387.9 37.4 L 388.6 37.4 C 388.6 37.4 388.58 38.38 388.6 38.4 C 389 37.7 389.6 37.4 390.5 37.4 C 391.4 37.4 392.1 37.7 392.4 38.5 C 392.8 37.8 393.5 37.4 394.5 37.4 C 395.7 37.4 396.6 38.1 396.6 39.6 Z M 403.1 40.3 C 403.1 40.3 398.7 40.3 398.7 40.3 C 398.8 41.4 399.6 42.1 400.8 42.1 C 401.4 42.1 402 41.9 402.4 41.4 C 402.4 41.4 402.8 41.9 402.8 41.9 C 402.3 42.4 401.6 42.7 400.7 42.7 C 399.1 42.7 398 41.6 398 40 C 398 38.5 399.1 37.4 400.5 37.4 C 402 37.4 403.1 38.5 403.1 40 C 403.1 40.1 403.1 40.2 403.1 40.3 Z M 398.7 39.7 C 398.7 39.7 402.4 39.7 402.4 39.7 C 402.3 38.7 401.6 38 400.5 38 C 399.5 38 398.8 38.7 398.7 39.7 Z M 409.3 39.6 C 409.34 39.63 409.3 42.7 409.3 42.7 L 408.6 42.7 C 408.6 42.7 408.63 39.7 408.6 39.7 C 408.6 38.6 408.1 38 407.1 38 C 405.9 38 405.2 38.7 405.2 39.9 C 405.21 39.92 405.2 42.7 405.2 42.7 L 404.5 42.7 L 404.5 37.4 L 405.2 37.4 C 405.2 37.4 405.18 38.39 405.2 38.4 C 405.6 37.7 406.3 37.4 407.2 37.4 C 408.5 37.4 409.3 38.1 409.3 39.6 Z M 413.9 42.4 C 413.6 42.6 413.2 42.7 412.8 42.7 C 411.8 42.7 411.2 42.2 411.2 41.2 C 411.22 41.2 411.2 38 411.2 38 L 410.3 38 L 410.3 37.4 L 411.2 37.4 L 411.2 36.3 L 411.9 36.3 L 411.9 37.4 L 413.5 37.4 L 413.5 38 L 411.9 38 C 411.9 38 411.93 41.16 411.9 41.2 C 411.9 41.8 412.3 42.1 412.8 42.1 C 413.1 42.1 413.4 42 413.6 41.9 C 413.6 41.9 413.9 42.4 413.9 42.4 Z M 417.3 40 C 417.3 38.5 418.4 37.4 419.9 37.4 C 421.5 37.4 422.6 38.5 422.6 40 C 422.6 41.6 421.5 42.7 419.9 42.7 C 418.4 42.7 417.3 41.6 417.3 40 Z M 421.9 40 C 421.9 38.8 421.1 38 419.9 38 C 418.8 38 418 38.8 418 40 C 418 41.3 418.8 42.1 419.9 42.1 C 421.1 42.1 421.9 41.3 421.9 40 Z M 424.8 36.8 C 424.8 36.8 424.8 37.4 424.8 37.4 L 426.4 37.4 L 426.4 38 L 424.8 38 L 424.8 42.7 L 424.1 42.7 L 424.1 38 L 423.2 38 L 423.2 37.4 L 424.1 37.4 C 424.1 37.4 424.11 36.77 424.1 36.8 C 424.1 35.8 424.7 35.2 425.7 35.2 C 426.1 35.2 426.5 35.3 426.7 35.5 C 426.7 35.5 426.5 36.1 426.5 36.1 C 426.3 35.9 426 35.8 425.7 35.8 C 425.1 35.8 424.8 36.1 424.8 36.8 Z M 432.8 42.4 C 432.5 42.6 432.1 42.7 431.7 42.7 C 430.7 42.7 430.1 42.2 430.1 41.2 C 430.12 41.2 430.1 38 430.1 38 L 429.2 38 L 429.2 37.4 L 430.1 37.4 L 430.1 36.3 L 430.8 36.3 L 430.8 37.4 L 432.4 37.4 L 432.4 38 L 430.8 38 C 430.8 38 430.83 41.16 430.8 41.2 C 430.8 41.8 431.1 42.1 431.7 42.1 C 432 42.1 432.3 42 432.5 41.9 C 432.5 41.9 432.8 42.4 432.8 42.4 Z M 438.8 39.6 C 438.8 39.63 438.8 42.7 438.8 42.7 L 438.1 42.7 C 438.1 42.7 438.09 39.7 438.1 39.7 C 438.1 38.6 437.5 38 436.5 38 C 435.4 38 434.7 38.7 434.7 39.9 C 434.67 39.92 434.7 42.7 434.7 42.7 L 434 42.7 L 434 35.3 L 434.7 35.3 C 434.7 35.3 434.67 38.34 434.7 38.3 C 435.1 37.7 435.7 37.4 436.6 37.4 C 437.9 37.4 438.8 38.1 438.8 39.6 Z M 445.3 40.3 C 445.3 40.3 440.9 40.3 440.9 40.3 C 441 41.4 441.8 42.1 443 42.1 C 443.6 42.1 444.2 41.9 444.6 41.4 C 444.6 41.4 445 41.9 445 41.9 C 444.5 42.4 443.8 42.7 442.9 42.7 C 441.3 42.7 440.2 41.6 440.2 40 C 440.2 38.5 441.3 37.4 442.7 37.4 C 444.2 37.4 445.3 38.5 445.3 40 C 445.3 40.1 445.3 40.2 445.3 40.3 Z M 440.9 39.7 C 440.9 39.7 444.6 39.7 444.6 39.7 C 444.5 38.7 443.8 38 442.7 38 C 441.7 38 441 38.7 440.9 39.7 Z " stroke="none" fill="#323132"/>
  </g>
  <g id="Polygon117951">
    <path d="M 10.2 15.8 C 9.6 15.8 9.1 15.7 8.7 15.5 C 8.2 15.4 7.8 15.1 7.5 14.8 C 7.1 14.5 6.9 14.1 6.7 13.6 C 6.5 13.2 6.4 12.7 6.4 12.2 C 6.4 11.7 6.5 11.2 6.7 10.7 C 6.9 10.3 7.1 9.9 7.5 9.6 C 7.8 9.3 8.2 9 8.7 8.8 C 9.1 8.6 9.6 8.6 10.2 8.6 C 10.8 8.6 11.3 8.7 11.8 8.9 C 12.3 9.1 12.7 9.4 13.1 9.8 C 13.1 9.8 12 10.8 12 10.8 C 11.8 10.5 11.5 10.3 11.2 10.1 C 10.9 10 10.6 9.9 10.3 9.9 C 9.9 9.9 9.6 10 9.4 10.1 C 9.1 10.2 8.9 10.4 8.7 10.6 C 8.5 10.8 8.3 11 8.2 11.3 C 8.1 11.5 8 11.8 8 12.2 C 8 12.5 8.1 12.8 8.2 13.1 C 8.3 13.4 8.5 13.6 8.7 13.8 C 8.9 14 9.1 14.2 9.4 14.3 C 9.6 14.4 9.9 14.4 10.3 14.4 C 10.6 14.4 10.9 14.4 11.2 14.2 C 11.5 14.1 11.8 13.9 12 13.6 C 12 13.6 13.1 14.5 13.1 14.5 C 12.7 15 12.3 15.3 11.8 15.5 C 11.3 15.7 10.8 15.8 10.2 15.8 Z M 16.6 15.8 C 16 15.8 15.5 15.6 15.1 15.4 C 14.6 15.2 14.3 14.8 14 14.4 C 13.7 14 13.6 13.5 13.6 13 C 13.6 12.4 13.7 12 14 11.6 C 14.3 11.1 14.6 10.8 15.1 10.6 C 15.5 10.3 16 10.2 16.6 10.2 C 17.1 10.2 17.7 10.3 18.1 10.6 C 18.5 10.8 18.9 11.1 19.1 11.5 C 19.4 12 19.5 12.4 19.5 13 C 19.5 13.5 19.4 14 19.1 14.4 C 18.9 14.8 18.5 15.2 18.1 15.4 C 17.7 15.6 17.1 15.8 16.6 15.8 Z M 16.6 14.5 C 16.8 14.5 17.1 14.4 17.3 14.3 C 17.5 14.2 17.6 14 17.8 13.8 C 17.9 13.6 17.9 13.3 17.9 13 C 17.9 12.7 17.9 12.4 17.8 12.2 C 17.6 12 17.5 11.8 17.3 11.7 C 17.1 11.6 16.8 11.5 16.6 11.5 C 16.3 11.5 16.1 11.6 15.9 11.7 C 15.7 11.8 15.5 12 15.4 12.2 C 15.3 12.4 15.2 12.7 15.2 13 C 15.2 13.3 15.3 13.6 15.4 13.8 C 15.5 14 15.7 14.2 15.9 14.3 C 16.1 14.4 16.3 14.5 16.6 14.5 Z M 27.5 10.2 C 27.9 10.2 28.3 10.3 28.6 10.5 C 29 10.6 29.2 10.9 29.4 11.3 C 29.6 11.6 29.7 12.1 29.7 12.6 C 29.69 12.6 29.7 15.7 29.7 15.7 L 28.1 15.7 C 28.1 15.7 28.13 12.84 28.1 12.8 C 28.1 12.4 28 12.1 27.9 11.9 C 27.7 11.7 27.4 11.6 27.1 11.6 C 26.9 11.6 26.7 11.6 26.5 11.7 C 26.3 11.8 26.2 12 26.1 12.2 C 26 12.4 25.9 12.7 25.9 13 C 25.92 12.98 25.9 15.7 25.9 15.7 L 24.4 15.7 C 24.4 15.7 24.36 12.84 24.4 12.8 C 24.4 12.4 24.3 12.1 24.1 11.9 C 23.9 11.7 23.7 11.6 23.3 11.6 C 23.1 11.6 22.9 11.6 22.7 11.7 C 22.5 11.8 22.4 12 22.3 12.2 C 22.2 12.4 22.2 12.7 22.2 13 C 22.16 12.98 22.2 15.7 22.2 15.7 L 20.6 15.7 L 20.6 10.3 L 22.1 10.3 L 22.1 11.8 C 22.1 11.8 21.81 11.34 21.8 11.3 C 22 11 22.3 10.7 22.6 10.5 C 22.9 10.3 23.3 10.2 23.8 10.2 C 24.3 10.2 24.7 10.3 25.1 10.6 C 25.4 10.8 25.7 11.2 25.8 11.7 C 25.8 11.7 25.3 11.6 25.3 11.6 C 25.4 11.2 25.7 10.8 26.1 10.6 C 26.5 10.3 27 10.2 27.5 10.2 Z M 34.3 15.8 C 33.8 15.8 33.4 15.7 33.1 15.5 C 32.7 15.3 32.5 15 32.3 14.5 C 32.1 14.1 32 13.6 32 13 C 32 12.4 32.1 11.8 32.3 11.4 C 32.4 11 32.7 10.7 33 10.5 C 33.4 10.3 33.8 10.2 34.3 10.2 C 34.8 10.2 35.2 10.3 35.6 10.6 C 36 10.8 36.4 11.1 36.6 11.5 C 36.8 11.9 36.9 12.4 36.9 13 C 36.9 13.6 36.8 14 36.6 14.5 C 36.4 14.9 36 15.2 35.6 15.4 C 35.2 15.6 34.8 15.8 34.3 15.8 Z M 31.1 17.6 L 31.1 10.3 L 32.6 10.3 L 32.6 11.4 L 32.5 13 L 32.6 14.6 L 32.6 17.6 L 31.1 17.6 Z M 34 14.5 C 34.3 14.5 34.5 14.4 34.7 14.3 C 34.9 14.2 35.1 14 35.2 13.8 C 35.3 13.6 35.4 13.3 35.4 13 C 35.4 12.7 35.3 12.4 35.2 12.2 C 35.1 12 34.9 11.8 34.7 11.7 C 34.5 11.6 34.3 11.5 34 11.5 C 33.7 11.5 33.5 11.6 33.3 11.7 C 33.1 11.8 32.9 12 32.8 12.2 C 32.7 12.4 32.6 12.7 32.6 13 C 32.6 13.3 32.7 13.6 32.8 13.8 C 32.9 14 33.1 14.2 33.3 14.3 C 33.5 14.4 33.7 14.5 34 14.5 Z M 41.3 15.7 L 41.3 14.6 L 41.2 14.4 C 41.2 14.4 41.21 12.52 41.2 12.5 C 41.2 12.2 41.1 11.9 40.9 11.7 C 40.7 11.6 40.4 11.5 40 11.5 C 39.7 11.5 39.4 11.5 39.1 11.6 C 38.8 11.7 38.6 11.8 38.4 12 C 38.4 12 37.9 10.9 37.9 10.9 C 38.1 10.7 38.5 10.5 38.9 10.4 C 39.3 10.3 39.7 10.2 40.2 10.2 C 41 10.2 41.6 10.4 42.1 10.8 C 42.5 11.2 42.8 11.8 42.8 12.6 C 42.77 12.61 42.8 15.7 42.8 15.7 L 41.3 15.7 Z M 39.7 15.8 C 39.2 15.8 38.9 15.7 38.6 15.5 C 38.3 15.4 38.1 15.2 37.9 15 C 37.7 14.7 37.7 14.4 37.7 14.1 C 37.7 13.8 37.7 13.5 37.9 13.3 C 38 13 38.3 12.9 38.6 12.7 C 39 12.6 39.4 12.5 40 12.5 C 39.97 12.52 41.4 12.5 41.4 12.5 L 41.4 13.4 C 41.4 13.4 40.14 13.43 40.1 13.4 C 39.8 13.4 39.5 13.5 39.4 13.6 C 39.2 13.7 39.2 13.9 39.2 14.1 C 39.2 14.3 39.3 14.4 39.4 14.5 C 39.6 14.7 39.8 14.7 40.1 14.7 C 40.3 14.7 40.5 14.6 40.8 14.5 C 41 14.4 41.1 14.2 41.2 14 C 41.2 14 41.4 14.7 41.4 14.7 C 41.3 15 41.1 15.3 40.8 15.5 C 40.5 15.7 40.1 15.8 39.7 15.8 Z M 46.3 15.8 C 45.7 15.8 45.2 15.6 44.9 15.3 C 44.5 15 44.3 14.5 44.3 13.8 C 44.34 13.83 44.3 9.1 44.3 9.1 L 45.9 9.1 C 45.9 9.1 45.9 13.81 45.9 13.8 C 45.9 14 46 14.2 46.1 14.3 C 46.2 14.5 46.4 14.5 46.6 14.5 C 46.8 14.5 47 14.5 47.2 14.3 C 47.2 14.3 47.6 15.4 47.6 15.4 C 47.5 15.5 47.3 15.6 47 15.7 C 46.8 15.7 46.6 15.8 46.3 15.8 Z M 43.5 11.6 L 43.5 10.4 L 47.2 10.4 L 47.2 11.6 L 43.5 11.6 Z M 48.5 15.7 L 48.5 10.3 L 50.1 10.3 L 50.1 15.7 L 48.5 15.7 Z M 49.3 9.5 C 49 9.5 48.8 9.5 48.6 9.3 C 48.4 9.1 48.3 8.9 48.3 8.7 C 48.3 8.4 48.4 8.2 48.6 8.1 C 48.8 7.9 49 7.8 49.3 7.8 C 49.6 7.8 49.8 7.9 50 8 C 50.2 8.2 50.3 8.4 50.3 8.6 C 50.3 8.9 50.2 9.1 50 9.3 C 49.8 9.5 49.6 9.5 49.3 9.5 Z M 54.7 15.8 C 54.2 15.8 53.8 15.7 53.5 15.5 C 53.1 15.3 52.9 15 52.7 14.5 C 52.5 14.1 52.4 13.6 52.4 13 C 52.4 12.4 52.5 11.8 52.7 11.4 C 52.9 11 53.2 10.7 53.5 10.5 C 53.8 10.3 54.2 10.2 54.7 10.2 C 55.2 10.2 55.7 10.3 56.1 10.6 C 56.5 10.8 56.8 11.1 57 11.5 C 57.3 11.9 57.4 12.4 57.4 13 C 57.4 13.5 57.3 14 57 14.4 C 56.8 14.9 56.5 15.2 56.1 15.4 C 55.7 15.6 55.2 15.8 54.7 15.8 Z M 51.5 15.7 L 51.5 8.3 L 53.1 8.3 L 53.1 11.4 L 53 13 L 53 14.6 L 53 15.7 L 51.5 15.7 Z M 54.4 14.5 C 54.7 14.5 54.9 14.4 55.1 14.3 C 55.3 14.2 55.5 14 55.6 13.8 C 55.7 13.6 55.8 13.3 55.8 13 C 55.8 12.7 55.7 12.4 55.6 12.2 C 55.5 12 55.3 11.8 55.1 11.7 C 54.9 11.6 54.7 11.5 54.4 11.5 C 54.2 11.5 53.9 11.6 53.7 11.7 C 53.5 11.8 53.4 12 53.2 12.2 C 53.1 12.4 53.1 12.7 53.1 13 C 53.1 13.3 53.1 13.6 53.2 13.8 C 53.4 14 53.5 14.2 53.7 14.3 C 53.9 14.4 54.2 14.5 54.4 14.5 Z M 58.4 15.7 L 58.4 10.3 L 60 10.3 L 60 15.7 L 58.4 15.7 Z M 59.2 9.5 C 58.9 9.5 58.7 9.5 58.5 9.3 C 58.3 9.1 58.3 8.9 58.3 8.7 C 58.3 8.4 58.3 8.2 58.5 8.1 C 58.7 7.9 58.9 7.8 59.2 7.8 C 59.5 7.8 59.7 7.9 59.9 8 C 60.1 8.2 60.2 8.4 60.2 8.6 C 60.2 8.9 60.1 9.1 59.9 9.3 C 59.8 9.5 59.5 9.5 59.2 9.5 Z M 61.5 15.7 L 61.5 8.3 L 63 8.3 L 63 15.7 L 61.5 15.7 Z M 64.5 15.7 L 64.5 10.3 L 66 10.3 L 66 15.7 L 64.5 15.7 Z M 65.2 9.5 C 65 9.5 64.7 9.5 64.5 9.3 C 64.4 9.1 64.3 8.9 64.3 8.7 C 64.3 8.4 64.4 8.2 64.5 8.1 C 64.7 7.9 65 7.8 65.2 7.8 C 65.5 7.8 65.8 7.9 65.9 8 C 66.1 8.2 66.2 8.4 66.2 8.6 C 66.2 8.9 66.1 9.1 65.9 9.3 C 65.8 9.5 65.5 9.5 65.2 9.5 Z M 69.7 15.8 C 69.1 15.8 68.6 15.6 68.2 15.3 C 67.9 15 67.7 14.5 67.7 13.8 C 67.7 13.83 67.7 9.1 67.7 9.1 L 69.3 9.1 C 69.3 9.1 69.26 13.81 69.3 13.8 C 69.3 14 69.3 14.2 69.4 14.3 C 69.6 14.5 69.7 14.5 69.9 14.5 C 70.2 14.5 70.4 14.5 70.6 14.3 C 70.6 14.3 71 15.4 71 15.4 C 70.8 15.5 70.6 15.6 70.4 15.7 C 70.2 15.7 70 15.8 69.7 15.8 Z M 66.9 11.6 L 66.9 10.4 L 70.6 10.4 L 70.6 11.6 L 66.9 11.6 Z M 72.7 17.7 C 72.4 17.7 72.1 17.7 71.9 17.6 C 71.6 17.5 71.4 17.4 71.2 17.2 C 71.2 17.2 71.8 16.1 71.8 16.1 C 71.9 16.2 72 16.3 72.2 16.3 C 72.3 16.4 72.5 16.4 72.6 16.4 C 72.9 16.4 73 16.4 73.2 16.3 C 73.3 16.2 73.4 16 73.5 15.8 C 73.52 15.77 73.8 15.1 73.8 15.1 L 73.9 14.9 L 75.9 10.3 L 77.4 10.3 C 77.4 10.3 74.92 16.01 74.9 16 C 74.7 16.4 74.6 16.8 74.3 17 C 74.1 17.3 73.9 17.4 73.6 17.5 C 73.3 17.6 73 17.7 72.7 17.7 Z M 73.6 15.9 L 71.2 10.3 L 72.8 10.3 L 74.7 14.8 L 73.6 15.9 Z " stroke="none" fill="#323132"/>
  </g>
</svg>