<?xml version="1.0" standalone="no"?>
<!DOCTYPE svg PUBLIC "-//W3C//DTD SVG 1.1//EN" "http://www.w3.org/Graphics/SVG/1.1/DTD/svg11.dtd">
<svg xmlns="http://www.w3.org/2000/svg" version="1.1" width="445.2px" height="105.5px" viewBox="0 0 445.2 105.5">
  <desc>the risk of injury decreases with the number of hours worked; those working less than 16 hours a week have double the...</desc>
  <defs/>
  <g id="Polygon122741">
    <path d="M 34.8 84.5 C 34.5 84.8 34.1 84.9 33.6 84.9 C 32.7 84.9 32.1 84.3 32.1 83.4 C 32.11 83.36 32.1 80.2 32.1 80.2 L 31.2 80.2 L 31.2 79.6 L 32.1 79.6 L 32.1 78.4 L 32.8 78.4 L 32.8 79.6 L 34.4 79.6 L 34.4 80.2 L 32.8 80.2 C 32.8 80.2 32.82 83.32 32.8 83.3 C 32.8 83.9 33.1 84.3 33.7 84.3 C 34 84.3 34.3 84.2 34.5 84 C 34.5 84 34.8 84.5 34.8 84.5 Z M 40.8 81.8 C 40.79 81.79 40.8 84.8 40.8 84.8 L 40.1 84.8 C 40.1 84.8 40.08 81.86 40.1 81.9 C 40.1 80.7 39.5 80.2 38.5 80.2 C 37.4 80.2 36.7 80.9 36.7 82.1 C 36.66 82.08 36.7 84.8 36.7 84.8 L 35.9 84.8 L 35.9 77.4 L 36.7 77.4 C 36.7 77.4 36.66 80.5 36.7 80.5 C 37 79.9 37.7 79.5 38.6 79.5 C 39.9 79.5 40.8 80.3 40.8 81.8 Z M 47.3 82.4 C 47.3 82.4 42.9 82.4 42.9 82.4 C 43 83.5 43.8 84.3 45 84.3 C 45.6 84.3 46.2 84 46.6 83.6 C 46.6 83.6 47 84 47 84 C 46.5 84.6 45.8 84.9 44.9 84.9 C 43.3 84.9 42.2 83.8 42.2 82.2 C 42.2 80.6 43.3 79.5 44.7 79.5 C 46.2 79.5 47.3 80.6 47.3 82.2 C 47.3 82.3 47.3 82.3 47.3 82.4 Z M 42.9 81.9 C 42.9 81.9 46.6 81.9 46.6 81.9 C 46.5 80.9 45.8 80.1 44.7 80.1 C 43.7 80.1 43 80.9 42.9 81.9 Z M 51.2 77.9 C 51.2 77.7 51.4 77.4 51.7 77.4 C 52 77.4 52.2 77.6 52.2 77.9 C 52.2 78.2 52 78.4 51.7 78.4 C 51.4 78.4 51.2 78.2 51.2 77.9 Z M 51.4 79.6 L 52.1 79.6 L 52.1 84.8 L 51.4 84.8 L 51.4 79.6 Z M 58.8 81.8 C 58.75 81.79 58.8 84.8 58.8 84.8 L 58 84.8 C 58 84.8 58.04 81.86 58 81.9 C 58 80.7 57.5 80.2 56.5 80.2 C 55.3 80.2 54.6 80.9 54.6 82.1 C 54.62 82.08 54.6 84.8 54.6 84.8 L 53.9 84.8 L 53.9 79.6 L 54.6 79.6 C 54.6 79.6 54.59 80.55 54.6 80.5 C 55 79.9 55.7 79.5 56.6 79.5 C 57.9 79.5 58.8 80.3 58.8 81.8 Z M 60.1 82.2 C 60.1 80.6 61.3 79.5 62.8 79.5 C 63.7 79.5 64.5 79.9 64.9 80.6 C 64.9 80.6 64.4 80.9 64.4 80.9 C 64 80.4 63.5 80.2 62.8 80.2 C 61.7 80.2 60.9 81 60.9 82.2 C 60.9 83.5 61.7 84.3 62.8 84.3 C 63.5 84.3 64 84 64.4 83.5 C 64.4 83.5 64.9 83.9 64.9 83.9 C 64.5 84.5 63.7 84.9 62.8 84.9 C 61.3 84.9 60.1 83.8 60.1 82.2 Z M 68.9 79.5 C 68.9 79.5 68.9 80.2 68.9 80.2 C 68.8 80.2 68.7 80.2 68.7 80.2 C 67.6 80.2 66.9 80.9 66.9 82.2 C 66.93 82.16 66.9 84.8 66.9 84.8 L 66.2 84.8 L 66.2 79.6 L 66.9 79.6 C 66.9 79.6 66.9 80.61 66.9 80.6 C 67.2 79.9 67.9 79.5 68.9 79.5 Z M 74.6 82.4 C 74.6 82.4 70.2 82.4 70.2 82.4 C 70.3 83.5 71.1 84.3 72.3 84.3 C 72.9 84.3 73.5 84 73.9 83.6 C 73.9 83.6 74.3 84 74.3 84 C 73.8 84.6 73.1 84.9 72.3 84.9 C 70.6 84.9 69.5 83.8 69.5 82.2 C 69.5 80.6 70.6 79.5 72.1 79.5 C 73.6 79.5 74.6 80.6 74.6 82.2 C 74.6 82.3 74.6 82.3 74.6 82.4 Z M 70.2 81.9 C 70.2 81.9 73.9 81.9 73.9 81.9 C 73.9 80.9 73.1 80.1 72.1 80.1 C 71 80.1 70.3 80.9 70.2 81.9 Z M 80 81.6 C 80 81.58 80 84.8 80 84.8 L 79.3 84.8 C 79.3 84.8 79.32 84.02 79.3 84 C 79 84.6 78.4 84.9 77.5 84.9 C 76.3 84.9 75.6 84.3 75.6 83.4 C 75.6 82.5 76.1 81.9 77.6 81.9 C 77.62 81.87 79.3 81.9 79.3 81.9 C 79.3 81.9 79.29 81.55 79.3 81.6 C 79.3 80.6 78.8 80.2 77.8 80.2 C 77.1 80.2 76.5 80.4 76.1 80.8 C 76.1 80.8 75.7 80.2 75.7 80.2 C 76.3 79.8 77 79.5 77.9 79.5 C 79.2 79.5 80 80.2 80 81.6 Z M 79.3 83.3 C 79.29 83.26 79.3 82.4 79.3 82.4 C 79.3 82.4 77.64 82.4 77.6 82.4 C 76.6 82.4 76.3 82.8 76.3 83.3 C 76.3 84 76.8 84.3 77.6 84.3 C 78.4 84.3 79 84 79.3 83.3 Z M 81.2 84.2 C 81.2 84.2 81.5 83.7 81.5 83.7 C 82 84 82.7 84.3 83.4 84.3 C 84.4 84.3 84.8 83.9 84.8 83.4 C 84.8 82 81.4 83.1 81.4 81 C 81.4 80.2 82.1 79.5 83.5 79.5 C 84.2 79.5 84.9 79.7 85.3 80 C 85.3 80 85 80.6 85 80.6 C 84.6 80.3 84 80.1 83.5 80.1 C 82.5 80.1 82.1 80.5 82.1 81 C 82.1 82.4 85.5 81.4 85.5 83.4 C 85.5 84.3 84.7 84.9 83.4 84.9 C 82.5 84.9 81.6 84.6 81.2 84.2 Z M 91.5 82.4 C 91.5 82.4 87.1 82.4 87.1 82.4 C 87.2 83.5 88 84.3 89.2 84.3 C 89.8 84.3 90.4 84 90.8 83.6 C 90.8 83.6 91.2 84 91.2 84 C 90.7 84.6 90 84.9 89.2 84.9 C 87.5 84.9 86.4 83.8 86.4 82.2 C 86.4 80.6 87.5 79.5 89 79.5 C 90.5 79.5 91.5 80.6 91.5 82.2 C 91.5 82.3 91.5 82.3 91.5 82.4 Z M 87.1 81.9 C 87.1 81.9 90.8 81.9 90.8 81.9 C 90.8 80.9 90 80.1 89 80.1 C 88 80.1 87.2 80.9 87.1 81.9 Z M 97.9 77.4 L 97.9 84.8 L 97.2 84.8 C 97.2 84.8 97.18 83.8 97.2 83.8 C 96.7 84.5 96 84.9 95.1 84.9 C 93.6 84.9 92.5 83.8 92.5 82.2 C 92.5 80.6 93.6 79.5 95.1 79.5 C 96 79.5 96.7 79.9 97.1 80.6 C 97.15 80.58 97.1 77.4 97.1 77.4 L 97.9 77.4 Z M 97.2 82.2 C 97.2 81 96.3 80.2 95.2 80.2 C 94.1 80.2 93.2 81 93.2 82.2 C 93.2 83.4 94.1 84.3 95.2 84.3 C 96.3 84.3 97.2 83.4 97.2 82.2 Z M 105.1 79.5 C 105.1 79.5 105.1 80.2 105.1 80.2 C 105 80.2 105 80.2 104.9 80.2 C 103.8 80.2 103.2 80.9 103.2 82.2 C 103.16 82.16 103.2 84.8 103.2 84.8 L 102.5 84.8 L 102.5 79.6 L 103.1 79.6 C 103.1 79.6 103.13 80.61 103.1 80.6 C 103.5 79.9 104.1 79.5 105.1 79.5 Z M 106.2 77.9 C 106.2 77.7 106.4 77.4 106.7 77.4 C 107 77.4 107.2 77.6 107.2 77.9 C 107.2 78.2 107 78.4 106.7 78.4 C 106.4 78.4 106.2 78.2 106.2 77.9 Z M 106.3 79.6 L 107 79.6 L 107 84.8 L 106.3 84.8 L 106.3 79.6 Z M 108.3 84.2 C 108.3 84.2 108.6 83.7 108.6 83.7 C 109 84 109.8 84.3 110.5 84.3 C 111.5 84.3 111.9 83.9 111.9 83.4 C 111.9 82 108.5 83.1 108.5 81 C 108.5 80.2 109.2 79.5 110.6 79.5 C 111.3 79.5 112 79.7 112.4 80 C 112.4 80 112.1 80.6 112.1 80.6 C 111.7 80.3 111.1 80.1 110.6 80.1 C 109.6 80.1 109.2 80.5 109.2 81 C 109.2 82.4 112.6 81.4 112.6 83.4 C 112.6 84.3 111.8 84.9 110.4 84.9 C 109.6 84.9 108.7 84.6 108.3 84.2 Z M 115.9 82.2 L 114.6 83.3 L 114.6 84.8 L 113.9 84.8 L 113.9 77.4 L 114.6 77.4 L 114.6 82.4 L 117.8 79.6 L 118.7 79.6 L 116.4 81.7 L 118.9 84.8 L 118 84.8 L 115.9 82.2 Z M 122.4 77.9 C 122.4 77.7 122.6 77.4 122.9 77.4 C 123.2 77.4 123.4 77.6 123.4 77.9 C 123.4 78.2 123.2 78.4 122.9 78.4 C 122.6 78.4 122.4 78.2 122.4 77.9 Z M 122.6 79.6 L 123.3 79.6 L 123.3 84.8 L 122.6 84.8 L 122.6 79.6 Z M 124.5 84.2 C 124.5 84.2 124.9 83.7 124.9 83.7 C 125.3 84 126 84.3 126.7 84.3 C 127.7 84.3 128.1 83.9 128.1 83.4 C 128.1 82 124.7 83.1 124.7 81 C 124.7 80.2 125.5 79.5 126.8 79.5 C 127.5 79.5 128.2 79.7 128.7 80 C 128.7 80 128.4 80.6 128.4 80.6 C 127.9 80.3 127.3 80.1 126.8 80.1 C 125.9 80.1 125.4 80.5 125.4 81 C 125.4 82.4 128.8 81.4 128.8 83.4 C 128.8 84.3 128.1 84.9 126.7 84.9 C 125.8 84.9 125 84.6 124.5 84.2 Z M 132.6 77.9 C 132.6 77.7 132.8 77.4 133.1 77.4 C 133.4 77.4 133.7 77.6 133.7 77.9 C 133.7 78.2 133.4 78.4 133.1 78.4 C 132.8 78.4 132.6 78.2 132.6 77.9 Z M 132.8 79.6 L 133.5 79.6 L 133.5 84.8 L 132.8 84.8 L 132.8 79.6 Z M 140.2 81.8 C 140.17 81.79 140.2 84.8 140.2 84.8 L 139.5 84.8 C 139.5 84.8 139.46 81.86 139.5 81.9 C 139.5 80.7 138.9 80.2 137.9 80.2 C 136.8 80.2 136 80.9 136 82.1 C 136.04 82.08 136 84.8 136 84.8 L 135.3 84.8 L 135.3 79.6 L 136 79.6 C 136 79.6 136.01 80.55 136 80.5 C 136.4 79.9 137.1 79.5 138 79.5 C 139.3 79.5 140.2 80.3 140.2 81.8 Z M 146.9 77.4 L 146.9 84.8 L 146.2 84.8 C 146.2 84.8 146.2 83.8 146.2 83.8 C 145.8 84.5 145 84.9 144.2 84.9 C 142.7 84.9 141.6 83.8 141.6 82.2 C 141.6 80.6 142.7 79.5 144.2 79.5 C 145 79.5 145.7 79.9 146.2 80.6 C 146.17 80.58 146.2 77.4 146.2 77.4 L 146.9 77.4 Z M 146.2 82.2 C 146.2 81 145.3 80.2 144.2 80.2 C 143.1 80.2 142.3 81 142.3 82.2 C 142.3 83.4 143.1 84.3 144.2 84.3 C 145.3 84.3 146.2 83.4 146.2 82.2 Z M 153.4 82.4 C 153.4 82.4 149 82.4 149 82.4 C 149.1 83.5 150 84.3 151.1 84.3 C 151.7 84.3 152.3 84 152.7 83.6 C 152.7 83.6 153.1 84 153.1 84 C 152.6 84.6 151.9 84.9 151.1 84.9 C 149.4 84.9 148.3 83.8 148.3 82.2 C 148.3 80.6 149.4 79.5 150.9 79.5 C 152.4 79.5 153.4 80.6 153.4 82.2 C 153.4 82.3 153.4 82.3 153.4 82.4 Z M 149 81.9 C 149 81.9 152.8 81.9 152.8 81.9 C 152.7 80.9 151.9 80.1 150.9 80.1 C 149.9 80.1 149.1 80.9 149 81.9 Z M 160.2 82.2 C 160.2 83.8 159.1 84.9 157.6 84.9 C 156.7 84.9 156 84.5 155.6 83.9 C 155.56 83.85 155.6 86.8 155.6 86.8 L 154.9 86.8 L 154.9 79.6 L 155.5 79.6 C 155.5 79.6 155.53 80.62 155.5 80.6 C 156 79.9 156.7 79.5 157.6 79.5 C 159.1 79.5 160.2 80.6 160.2 82.2 Z M 159.5 82.2 C 159.5 81 158.6 80.2 157.5 80.2 C 156.4 80.2 155.6 81 155.6 82.2 C 155.6 83.4 156.4 84.3 157.5 84.3 C 158.6 84.3 159.5 83.4 159.5 82.2 Z M 166.3 82.4 C 166.3 82.4 161.9 82.4 161.9 82.4 C 162 83.5 162.8 84.3 164 84.3 C 164.6 84.3 165.2 84 165.6 83.6 C 165.6 83.6 166 84 166 84 C 165.5 84.6 164.8 84.9 163.9 84.9 C 162.3 84.9 161.2 83.8 161.2 82.2 C 161.2 80.6 162.3 79.5 163.8 79.5 C 165.2 79.5 166.3 80.6 166.3 82.2 C 166.3 82.3 166.3 82.3 166.3 82.4 Z M 161.9 81.9 C 161.9 81.9 165.6 81.9 165.6 81.9 C 165.5 80.9 164.8 80.1 163.8 80.1 C 162.7 80.1 162 80.9 161.9 81.9 Z M 172.6 81.8 C 172.55 81.79 172.6 84.8 172.6 84.8 L 171.8 84.8 C 171.8 84.8 171.84 81.86 171.8 81.9 C 171.8 80.7 171.3 80.2 170.3 80.2 C 169.1 80.2 168.4 80.9 168.4 82.1 C 168.42 82.08 168.4 84.8 168.4 84.8 L 167.7 84.8 L 167.7 79.6 L 168.4 79.6 C 168.4 79.6 168.39 80.55 168.4 80.5 C 168.8 79.9 169.5 79.5 170.4 79.5 C 171.7 79.5 172.6 80.3 172.6 81.8 Z M 179.3 77.4 L 179.3 84.8 L 178.6 84.8 C 178.6 84.8 178.59 83.8 178.6 83.8 C 178.2 84.5 177.4 84.9 176.6 84.9 C 175.1 84.9 173.9 83.8 173.9 82.2 C 173.9 80.6 175.1 79.5 176.6 79.5 C 177.4 79.5 178.1 79.9 178.6 80.6 C 178.56 80.58 178.6 77.4 178.6 77.4 L 179.3 77.4 Z M 178.6 82.2 C 178.6 81 177.7 80.2 176.6 80.2 C 175.5 80.2 174.7 81 174.7 82.2 C 174.7 83.4 175.5 84.3 176.6 84.3 C 177.7 84.3 178.6 83.4 178.6 82.2 Z M 185.8 82.4 C 185.8 82.4 181.4 82.4 181.4 82.4 C 181.5 83.5 182.3 84.3 183.5 84.3 C 184.1 84.3 184.7 84 185.1 83.6 C 185.1 83.6 185.5 84 185.5 84 C 185 84.6 184.3 84.9 183.5 84.9 C 181.8 84.9 180.7 83.8 180.7 82.2 C 180.7 80.6 181.8 79.5 183.3 79.5 C 184.8 79.5 185.8 80.6 185.8 82.2 C 185.8 82.3 185.8 82.3 185.8 82.4 Z M 181.4 81.9 C 181.4 81.9 185.1 81.9 185.1 81.9 C 185.1 80.9 184.3 80.1 183.3 80.1 C 182.3 80.1 181.5 80.9 181.4 81.9 Z M 192.1 81.8 C 192.07 81.79 192.1 84.8 192.1 84.8 L 191.4 84.8 C 191.4 84.8 191.36 81.86 191.4 81.9 C 191.4 80.7 190.8 80.2 189.8 80.2 C 188.7 80.2 187.9 80.9 187.9 82.1 C 187.94 82.08 187.9 84.8 187.9 84.8 L 187.2 84.8 L 187.2 79.6 L 187.9 79.6 C 187.9 79.6 187.91 80.55 187.9 80.5 C 188.3 79.9 189 79.5 189.9 79.5 C 191.2 79.5 192.1 80.3 192.1 81.8 Z M 196.6 84.5 C 196.3 84.8 195.9 84.9 195.5 84.9 C 194.5 84.9 194 84.3 194 83.4 C 193.95 83.36 194 80.2 194 80.2 L 193 80.2 L 193 79.6 L 194 79.6 L 194 78.4 L 194.7 78.4 L 194.7 79.6 L 196.3 79.6 L 196.3 80.2 L 194.7 80.2 C 194.7 80.2 194.66 83.32 194.7 83.3 C 194.7 83.9 195 84.3 195.6 84.3 C 195.9 84.3 196.2 84.2 196.4 84 C 196.4 84 196.6 84.5 196.6 84.5 Z M 200 82.2 C 200 80.6 201.1 79.5 202.7 79.5 C 204.2 79.5 205.3 80.6 205.3 82.2 C 205.3 83.8 204.2 84.9 202.7 84.9 C 201.1 84.9 200 83.8 200 82.2 Z M 204.6 82.2 C 204.6 81 203.8 80.2 202.7 80.2 C 201.5 80.2 200.7 81 200.7 82.2 C 200.7 83.4 201.5 84.3 202.7 84.3 C 203.8 84.3 204.6 83.4 204.6 82.2 Z M 207.5 79 C 207.53 78.96 207.5 79.6 207.5 79.6 L 209.1 79.6 L 209.1 80.2 L 207.5 80.2 L 207.5 84.8 L 206.8 84.8 L 206.8 80.2 L 205.9 80.2 L 205.9 79.6 L 206.8 79.6 C 206.8 79.6 206.84 78.93 206.8 78.9 C 206.8 78 207.4 77.4 208.4 77.4 C 208.8 77.4 209.2 77.5 209.5 77.7 C 209.5 77.7 209.2 78.2 209.2 78.2 C 209 78.1 208.8 78 208.5 78 C 207.8 78 207.5 78.3 207.5 79 Z M 212.2 82.2 C 212.2 80.6 213.3 79.5 214.9 79.5 C 216.4 79.5 217.5 80.6 217.5 82.2 C 217.5 83.8 216.4 84.9 214.9 84.9 C 213.3 84.9 212.2 83.8 212.2 82.2 Z M 216.8 82.2 C 216.8 81 216 80.2 214.9 80.2 C 213.8 80.2 212.9 81 212.9 82.2 C 212.9 83.4 213.8 84.3 214.9 84.3 C 216 84.3 216.8 83.4 216.8 82.2 Z M 221.7 84.5 C 221.4 84.8 221 84.9 220.6 84.9 C 219.6 84.9 219.1 84.3 219.1 83.4 C 219.06 83.36 219.1 80.2 219.1 80.2 L 218.1 80.2 L 218.1 79.6 L 219.1 79.6 L 219.1 78.4 L 219.8 78.4 L 219.8 79.6 L 221.4 79.6 L 221.4 80.2 L 219.8 80.2 C 219.8 80.2 219.77 83.32 219.8 83.3 C 219.8 83.9 220.1 84.3 220.7 84.3 C 221 84.3 221.3 84.2 221.5 84 C 221.5 84 221.7 84.5 221.7 84.5 Z M 227.7 81.8 C 227.73 81.79 227.7 84.8 227.7 84.8 L 227 84.8 C 227 84.8 227.03 81.86 227 81.9 C 227 80.7 226.4 80.2 225.4 80.2 C 224.3 80.2 223.6 80.9 223.6 82.1 C 223.6 82.08 223.6 84.8 223.6 84.8 L 222.9 84.8 L 222.9 77.4 L 223.6 77.4 C 223.6 77.4 223.6 80.5 223.6 80.5 C 224 79.9 224.7 79.5 225.6 79.5 C 226.9 79.5 227.7 80.3 227.7 81.8 Z M 234.2 82.4 C 234.2 82.4 229.8 82.4 229.8 82.4 C 229.9 83.5 230.7 84.3 231.9 84.3 C 232.5 84.3 233.1 84 233.5 83.6 C 233.5 83.6 233.9 84 233.9 84 C 233.4 84.6 232.7 84.9 231.9 84.9 C 230.2 84.9 229.1 83.8 229.1 82.2 C 229.1 80.6 230.2 79.5 231.7 79.5 C 233.2 79.5 234.2 80.6 234.2 82.2 C 234.2 82.3 234.2 82.3 234.2 82.4 Z M 229.8 81.9 C 229.8 81.9 233.6 81.9 233.6 81.9 C 233.5 80.9 232.7 80.1 231.7 80.1 C 230.7 80.1 229.9 80.9 229.8 81.9 Z M 238.3 79.5 C 238.3 79.5 238.3 80.2 238.3 80.2 C 238.2 80.2 238.2 80.2 238.1 80.2 C 237 80.2 236.4 80.9 236.4 82.2 C 236.35 82.16 236.4 84.8 236.4 84.8 L 235.6 84.8 L 235.6 79.6 L 236.3 79.6 C 236.3 79.6 236.32 80.61 236.3 80.6 C 236.7 79.9 237.3 79.5 238.3 79.5 Z M 241.7 82.2 C 241.7 80.6 242.9 79.5 244.4 79.5 C 246 79.5 247.1 80.6 247.1 82.2 C 247.1 83.8 246 84.9 244.4 84.9 C 242.9 84.9 241.7 83.8 241.7 82.2 Z M 246.4 82.2 C 246.4 81 245.5 80.2 244.4 80.2 C 243.3 80.2 242.5 81 242.5 82.2 C 242.5 83.4 243.3 84.3 244.4 84.3 C 245.5 84.3 246.4 83.4 246.4 82.2 Z M 248.1 82.2 C 248.1 80.6 249.2 79.5 250.8 79.5 C 251.7 79.5 252.4 79.9 252.9 80.6 C 252.9 80.6 252.3 80.9 252.3 80.9 C 252 80.4 251.4 80.2 250.8 80.2 C 249.7 80.2 248.8 81 248.8 82.2 C 248.8 83.5 249.7 84.3 250.8 84.3 C 251.4 84.3 252 84 252.3 83.5 C 252.3 83.5 252.9 83.9 252.9 83.9 C 252.4 84.5 251.7 84.9 250.8 84.9 C 249.2 84.9 248.1 83.8 248.1 82.2 Z M 253.7 82.2 C 253.7 80.6 254.8 79.5 256.4 79.5 C 257.3 79.5 258 79.9 258.4 80.6 C 258.4 80.6 257.9 80.9 257.9 80.9 C 257.5 80.4 257 80.2 256.4 80.2 C 255.2 80.2 254.4 81 254.4 82.2 C 254.4 83.5 255.2 84.3 256.4 84.3 C 257 84.3 257.5 84 257.9 83.5 C 257.9 83.5 258.4 83.9 258.4 83.9 C 258 84.5 257.3 84.9 256.4 84.9 C 254.8 84.9 253.7 83.8 253.7 82.2 Z M 264.4 79.6 L 264.4 84.8 L 263.8 84.8 C 263.8 84.8 263.75 83.88 263.8 83.9 C 263.4 84.5 262.7 84.9 261.9 84.9 C 260.5 84.9 259.6 84.1 259.6 82.6 C 259.64 82.63 259.6 79.6 259.6 79.6 L 260.4 79.6 C 260.4 79.6 260.35 82.56 260.4 82.6 C 260.4 83.7 260.9 84.3 261.9 84.3 C 263 84.3 263.7 83.5 263.7 82.3 C 263.72 82.34 263.7 79.6 263.7 79.6 L 264.4 79.6 Z M 271.6 82.2 C 271.6 83.8 270.5 84.9 269 84.9 C 268.2 84.9 267.4 84.5 267 83.9 C 267.01 83.85 267 86.8 267 86.8 L 266.3 86.8 L 266.3 79.6 L 267 79.6 C 267 79.6 266.98 80.62 267 80.6 C 267.4 79.9 268.1 79.5 269 79.5 C 270.5 79.5 271.6 80.6 271.6 82.2 Z M 270.9 82.2 C 270.9 81 270.1 80.2 269 80.2 C 267.8 80.2 267 81 267 82.2 C 267 83.4 267.8 84.3 269 84.3 C 270.1 84.3 270.9 83.4 270.9 82.2 Z M 277 81.6 C 277.04 81.58 277 84.8 277 84.8 L 276.4 84.8 C 276.4 84.8 276.36 84.02 276.4 84 C 276 84.6 275.4 84.9 274.6 84.9 C 273.4 84.9 272.6 84.3 272.6 83.4 C 272.6 82.5 273.2 81.9 274.7 81.9 C 274.66 81.87 276.3 81.9 276.3 81.9 C 276.3 81.9 276.33 81.55 276.3 81.6 C 276.3 80.6 275.8 80.2 274.8 80.2 C 274.2 80.2 273.5 80.4 273.1 80.8 C 273.1 80.8 272.8 80.2 272.8 80.2 C 273.3 79.8 274.1 79.5 274.9 79.5 C 276.3 79.5 277 80.2 277 81.6 Z M 276.3 83.3 C 276.33 83.26 276.3 82.4 276.3 82.4 C 276.3 82.4 274.68 82.4 274.7 82.4 C 273.7 82.4 273.3 82.8 273.3 83.3 C 273.3 84 273.8 84.3 274.7 84.3 C 275.5 84.3 276.1 84 276.3 83.3 Z M 281.6 84.5 C 281.3 84.8 280.9 84.9 280.5 84.9 C 279.5 84.9 278.9 84.3 278.9 83.4 C 278.94 83.36 278.9 80.2 278.9 80.2 L 278 80.2 L 278 79.6 L 278.9 79.6 L 278.9 78.4 L 279.6 78.4 L 279.6 79.6 L 281.2 79.6 L 281.2 80.2 L 279.6 80.2 C 279.6 80.2 279.65 83.32 279.6 83.3 C 279.6 83.9 280 84.3 280.6 84.3 C 280.8 84.3 281.1 84.2 281.3 84 C 281.3 84 281.6 84.5 281.6 84.5 Z M 282.6 77.9 C 282.6 77.7 282.8 77.4 283.1 77.4 C 283.4 77.4 283.7 77.6 283.7 77.9 C 283.7 78.2 283.4 78.4 283.1 78.4 C 282.8 78.4 282.6 78.2 282.6 77.9 Z M 282.8 79.6 L 283.5 79.6 L 283.5 84.8 L 282.8 84.8 L 282.8 79.6 Z M 284.9 82.2 C 284.9 80.6 286 79.5 287.6 79.5 C 289.1 79.5 290.2 80.6 290.2 82.2 C 290.2 83.8 289.1 84.9 287.6 84.9 C 286 84.9 284.9 83.8 284.9 82.2 Z M 289.5 82.2 C 289.5 81 288.7 80.2 287.6 80.2 C 286.4 80.2 285.6 81 285.6 82.2 C 285.6 83.4 286.4 84.3 287.6 84.3 C 288.7 84.3 289.5 83.4 289.5 82.2 Z M 296.5 81.8 C 296.49 81.79 296.5 84.8 296.5 84.8 L 295.8 84.8 C 295.8 84.8 295.79 81.86 295.8 81.9 C 295.8 80.7 295.2 80.2 294.2 80.2 C 293.1 80.2 292.4 80.9 292.4 82.1 C 292.36 82.08 292.4 84.8 292.4 84.8 L 291.7 84.8 L 291.7 79.6 L 292.3 79.6 C 292.3 79.6 292.33 80.55 292.3 80.5 C 292.7 79.9 293.4 79.5 294.3 79.5 C 295.6 79.5 296.5 80.3 296.5 81.8 Z M 302.3 81.6 C 302.31 81.58 302.3 84.8 302.3 84.8 L 301.6 84.8 C 301.6 84.8 301.64 84.02 301.6 84 C 301.3 84.6 300.7 84.9 299.8 84.9 C 298.6 84.9 297.9 84.3 297.9 83.4 C 297.9 82.5 298.4 81.9 299.9 81.9 C 299.93 81.87 301.6 81.9 301.6 81.9 C 301.6 81.9 301.61 81.55 301.6 81.6 C 301.6 80.6 301.1 80.2 300.1 80.2 C 299.4 80.2 298.8 80.4 298.4 80.8 C 298.4 80.8 298 80.2 298 80.2 C 298.6 79.8 299.4 79.5 300.2 79.5 C 301.5 79.5 302.3 80.2 302.3 81.6 Z M 301.6 83.3 C 301.61 83.26 301.6 82.4 301.6 82.4 C 301.6 82.4 299.95 82.4 300 82.4 C 298.9 82.4 298.6 82.8 298.6 83.3 C 298.6 84 299.1 84.3 299.9 84.3 C 300.7 84.3 301.3 84 301.6 83.3 Z M 304.1 77.4 L 304.8 77.4 L 304.8 84.8 L 304.1 84.8 L 304.1 77.4 Z M 310.3 79 C 310.25 78.96 310.3 79.6 310.3 79.6 L 311.9 79.6 L 311.9 80.2 L 310.3 80.2 L 310.3 84.8 L 309.6 84.8 L 309.6 80.2 L 308.6 80.2 L 308.6 79.6 L 309.6 79.6 C 309.6 79.6 309.56 78.93 309.6 78.9 C 309.6 78 310.1 77.4 311.2 77.4 C 311.5 77.4 311.9 77.5 312.2 77.7 C 312.2 77.7 312 78.2 312 78.2 C 311.8 78.1 311.5 78 311.2 78 C 310.6 78 310.3 78.3 310.3 79 Z M 317 81.6 C 317 81.58 317 84.8 317 84.8 L 316.3 84.8 C 316.3 84.8 316.33 84.02 316.3 84 C 316 84.6 315.4 84.9 314.5 84.9 C 313.3 84.9 312.6 84.3 312.6 83.4 C 312.6 82.5 313.1 81.9 314.6 81.9 C 314.62 81.87 316.3 81.9 316.3 81.9 C 316.3 81.9 316.3 81.55 316.3 81.6 C 316.3 80.6 315.8 80.2 314.8 80.2 C 314.1 80.2 313.5 80.4 313.1 80.8 C 313.1 80.8 312.7 80.2 312.7 80.2 C 313.3 79.8 314 79.5 314.9 79.5 C 316.2 79.5 317 80.2 317 81.6 Z M 316.3 83.3 C 316.3 83.26 316.3 82.4 316.3 82.4 C 316.3 82.4 314.64 82.4 314.6 82.4 C 313.6 82.4 313.3 82.8 313.3 83.3 C 313.3 84 313.8 84.3 314.6 84.3 C 315.4 84.3 316 84 316.3 83.3 Z M 318.4 82.2 C 318.4 80.6 319.5 79.5 321.1 79.5 C 322 79.5 322.7 79.9 323.2 80.6 C 323.2 80.6 322.6 80.9 322.6 80.9 C 322.3 80.4 321.7 80.2 321.1 80.2 C 319.9 80.2 319.1 81 319.1 82.2 C 319.1 83.5 319.9 84.3 321.1 84.3 C 321.7 84.3 322.3 84 322.6 83.5 C 322.6 83.5 323.2 83.9 323.2 83.9 C 322.7 84.5 322 84.9 321.1 84.9 C 319.5 84.9 318.4 83.8 318.4 82.2 Z M 327.5 84.5 C 327.2 84.8 326.8 84.9 326.4 84.9 C 325.4 84.9 324.8 84.3 324.8 83.4 C 324.85 83.36 324.8 80.2 324.8 80.2 L 323.9 80.2 L 323.9 79.6 L 324.8 79.6 L 324.8 78.4 L 325.6 78.4 L 325.6 79.6 L 327.2 79.6 L 327.2 80.2 L 325.6 80.2 C 325.6 80.2 325.55 83.32 325.6 83.3 C 325.6 83.9 325.9 84.3 326.5 84.3 C 326.8 84.3 327 84.2 327.2 84 C 327.2 84 327.5 84.5 327.5 84.5 Z M 328 82.2 C 328 80.6 329.2 79.5 330.7 79.5 C 332.3 79.5 333.4 80.6 333.4 82.2 C 333.4 83.8 332.3 84.9 330.7 84.9 C 329.2 84.9 328 83.8 328 82.2 Z M 332.7 82.2 C 332.7 81 331.8 80.2 330.7 80.2 C 329.6 80.2 328.8 81 328.8 82.2 C 328.8 83.4 329.6 84.3 330.7 84.3 C 331.8 84.3 332.7 83.4 332.7 82.2 Z M 337.5 79.5 C 337.5 79.5 337.5 80.2 337.5 80.2 C 337.4 80.2 337.4 80.2 337.3 80.2 C 336.2 80.2 335.5 80.9 335.5 82.2 C 335.53 82.16 335.5 84.8 335.5 84.8 L 334.8 84.8 L 334.8 79.6 L 335.5 79.6 C 335.5 79.6 335.5 80.61 335.5 80.6 C 335.8 79.9 336.5 79.5 337.5 79.5 Z M 338.1 84.2 C 338.1 84.2 338.5 83.7 338.5 83.7 C 338.9 84 339.6 84.3 340.3 84.3 C 341.3 84.3 341.7 83.9 341.7 83.4 C 341.7 82 338.3 83.1 338.3 81 C 338.3 80.2 339.1 79.5 340.4 79.5 C 341.1 79.5 341.8 79.7 342.3 80 C 342.3 80 342 80.6 342 80.6 C 341.5 80.3 341 80.1 340.4 80.1 C 339.5 80.1 339 80.5 339 81 C 339 82.4 342.5 81.4 342.5 83.4 C 342.5 84.3 341.7 84.9 340.3 84.9 C 339.4 84.9 338.6 84.6 338.1 84.2 Z M 343.6 84.3 C 343.6 84 343.8 83.8 344.1 83.8 C 344.4 83.8 344.6 84 344.6 84.3 C 344.6 84.6 344.4 84.9 344.1 84.9 C 343.8 84.9 343.6 84.6 343.6 84.3 Z " stroke="none" fill="#323132"/>
  </g>
  <g id="Polygon122740">
    <path d="M 20.4 82.2 L 16.2 84.3 L 16.2 80.1 L 20.4 82.2 Z " stroke="none" fill="#a243ff"/>
  </g>
  <g id="Polygon122739">
    <path d="M 39.7 58.6 L 37.7 63.8 L 37 63.8 L 35.4 59.5 L 33.7 63.8 L 33.1 63.8 L 31.1 58.6 L 31.8 58.6 L 33.4 63.1 L 35.1 58.6 L 35.7 58.6 L 37.4 63.1 L 39.1 58.6 L 39.7 58.6 Z M 40.2 61.2 C 40.2 59.6 41.3 58.5 42.9 58.5 C 44.4 58.5 45.5 59.6 45.5 61.2 C 45.5 62.8 44.4 63.9 42.9 63.9 C 41.3 63.9 40.2 62.8 40.2 61.2 Z M 44.8 61.2 C 44.8 60 44 59.2 42.9 59.2 C 41.7 59.2 40.9 60 40.9 61.2 C 40.9 62.4 41.7 63.3 42.9 63.3 C 44 63.3 44.8 62.4 44.8 61.2 Z M 49.6 58.5 C 49.6 58.5 49.6 59.2 49.6 59.2 C 49.5 59.2 49.5 59.2 49.4 59.2 C 48.3 59.2 47.7 59.9 47.7 61.2 C 47.67 61.16 47.7 63.8 47.7 63.8 L 47 63.8 L 47 58.6 L 47.6 58.6 C 47.6 58.6 47.64 59.61 47.6 59.6 C 48 58.9 48.6 58.5 49.6 58.5 Z M 52.8 61.2 L 51.5 62.3 L 51.5 63.8 L 50.8 63.8 L 50.8 56.4 L 51.5 56.4 L 51.5 61.4 L 54.7 58.6 L 55.6 58.6 L 53.3 60.7 L 55.8 63.8 L 54.9 63.8 L 52.8 61.2 Z M 56.7 56.9 C 56.7 56.7 56.9 56.4 57.2 56.4 C 57.5 56.4 57.7 56.6 57.7 56.9 C 57.7 57.2 57.5 57.4 57.2 57.4 C 56.9 57.4 56.7 57.2 56.7 56.9 Z M 56.9 58.6 L 57.6 58.6 L 57.6 63.8 L 56.9 63.8 L 56.9 58.6 Z M 64.2 60.8 C 64.25 60.79 64.2 63.8 64.2 63.8 L 63.5 63.8 C 63.5 63.8 63.54 60.86 63.5 60.9 C 63.5 59.7 63 59.2 62 59.2 C 60.8 59.2 60.1 59.9 60.1 61.1 C 60.12 61.08 60.1 63.8 60.1 63.8 L 59.4 63.8 L 59.4 58.6 L 60.1 58.6 C 60.1 58.6 60.09 59.55 60.1 59.5 C 60.5 58.9 61.2 58.5 62.1 58.5 C 63.4 58.5 64.2 59.3 64.2 60.8 Z M 71 58.6 C 71 58.6 71.01 63.2 71 63.2 C 71 65 70.1 65.8 68.4 65.8 C 67.4 65.8 66.5 65.5 65.9 65 C 65.9 65 66.3 64.5 66.3 64.5 C 66.8 64.9 67.6 65.2 68.4 65.2 C 69.7 65.2 70.3 64.6 70.3 63.3 C 70.3 63.3 70.3 62.6 70.3 62.6 C 69.9 63.3 69.1 63.6 68.3 63.6 C 66.8 63.6 65.6 62.6 65.6 61.1 C 65.6 59.6 66.8 58.5 68.3 58.5 C 69.1 58.5 69.9 58.9 70.3 59.6 C 70.33 59.59 70.3 58.6 70.3 58.6 L 71 58.6 Z M 70.3 61.1 C 70.3 59.9 69.5 59.2 68.3 59.2 C 67.2 59.2 66.3 59.9 66.3 61.1 C 66.3 62.2 67.2 63 68.3 63 C 69.5 63 70.3 62.2 70.3 61.1 Z M 79.8 61.8 C 79.8 63 78.9 63.9 77.2 63.9 C 76.2 63.9 75.3 63.5 74.7 63 C 74.7 63 75.1 62.4 75.1 62.4 C 75.5 62.9 76.3 63.2 77.2 63.2 C 78.4 63.2 79 62.7 79 61.8 C 79 61 78.5 60.4 77.2 60.4 C 77.15 60.44 76.7 60.4 76.7 60.4 L 76.7 59.9 L 78.6 57.5 L 75 57.5 L 75 56.8 L 79.5 56.8 L 79.5 57.3 C 79.5 57.3 77.53 59.84 77.5 59.8 C 79 59.9 79.8 60.7 79.8 61.8 Z M 80.9 60.3 C 80.9 58.1 82.1 56.8 83.7 56.8 C 85.3 56.8 86.5 58.1 86.5 60.3 C 86.5 62.6 85.3 63.9 83.7 63.9 C 82.1 63.9 80.9 62.6 80.9 60.3 Z M 85.7 60.3 C 85.7 58.5 84.9 57.4 83.7 57.4 C 82.5 57.4 81.6 58.5 81.6 60.3 C 81.6 62.2 82.5 63.2 83.7 63.2 C 84.9 63.2 85.7 62.2 85.7 60.3 Z M 88 60.8 L 90.6 60.8 L 90.6 61.4 L 88 61.4 L 88 60.8 Z M 96.6 61.8 C 96.6 63 95.8 63.9 94.1 63.9 C 93.1 63.9 92.1 63.5 91.6 63 C 91.6 63 91.9 62.4 91.9 62.4 C 92.4 62.9 93.2 63.2 94.1 63.2 C 95.3 63.2 95.9 62.7 95.9 61.8 C 95.9 60.9 95.3 60.3 93.6 60.3 C 93.56 60.35 92.1 60.3 92.1 60.3 L 92.4 56.8 L 96.3 56.8 L 96.3 57.5 L 93.1 57.5 L 92.8 59.7 C 92.8 59.7 93.72 59.71 93.7 59.7 C 95.8 59.7 96.6 60.5 96.6 61.8 Z M 97.6 60.3 C 97.6 58.1 98.8 56.8 100.4 56.8 C 102.1 56.8 103.2 58.1 103.2 60.3 C 103.2 62.6 102.1 63.9 100.4 63.9 C 98.8 63.9 97.6 62.6 97.6 60.3 Z M 102.5 60.3 C 102.5 58.5 101.7 57.4 100.4 57.4 C 99.2 57.4 98.4 58.5 98.4 60.3 C 98.4 62.2 99.2 63.2 100.4 63.2 C 101.7 63.2 102.5 62.2 102.5 60.3 Z M 112.2 60.8 C 112.19 60.79 112.2 63.8 112.2 63.8 L 111.5 63.8 C 111.5 63.8 111.48 60.86 111.5 60.9 C 111.5 59.7 110.9 59.2 109.9 59.2 C 108.8 59.2 108.1 59.9 108.1 61.1 C 108.06 61.08 108.1 63.8 108.1 63.8 L 107.4 63.8 L 107.4 56.4 L 108.1 56.4 C 108.1 56.4 108.06 59.5 108.1 59.5 C 108.5 58.9 109.1 58.5 110 58.5 C 111.3 58.5 112.2 59.3 112.2 60.8 Z M 113.6 61.2 C 113.6 59.6 114.7 58.5 116.3 58.5 C 117.8 58.5 118.9 59.6 118.9 61.2 C 118.9 62.8 117.8 63.9 116.3 63.9 C 114.7 63.9 113.6 62.8 113.6 61.2 Z M 118.2 61.2 C 118.2 60 117.4 59.2 116.3 59.2 C 115.1 59.2 114.3 60 114.3 61.2 C 114.3 62.4 115.1 63.3 116.3 63.3 C 117.4 63.3 118.2 62.4 118.2 61.2 Z M 125.1 58.6 L 125.1 63.8 L 124.4 63.8 C 124.4 63.8 124.4 62.88 124.4 62.9 C 124 63.5 123.3 63.9 122.5 63.9 C 121.2 63.9 120.3 63.1 120.3 61.6 C 120.29 61.63 120.3 58.6 120.3 58.6 L 121 58.6 C 121 58.6 121 61.56 121 61.6 C 121 62.7 121.6 63.3 122.6 63.3 C 123.7 63.3 124.4 62.5 124.4 61.3 C 124.37 61.34 124.4 58.6 124.4 58.6 L 125.1 58.6 Z M 129.6 58.5 C 129.6 58.5 129.6 59.2 129.6 59.2 C 129.5 59.2 129.5 59.2 129.4 59.2 C 128.3 59.2 127.7 59.9 127.7 61.2 C 127.65 61.16 127.7 63.8 127.7 63.8 L 126.9 63.8 L 126.9 58.6 L 127.6 58.6 C 127.6 58.6 127.62 59.61 127.6 59.6 C 128 58.9 128.6 58.5 129.6 58.5 Z M 130.3 63.2 C 130.3 63.2 130.6 62.7 130.6 62.7 C 131 63 131.7 63.3 132.5 63.3 C 133.5 63.3 133.9 62.9 133.9 62.4 C 133.9 61 130.5 62.1 130.5 60 C 130.5 59.2 131.2 58.5 132.5 58.5 C 133.2 58.5 134 58.7 134.4 59 C 134.4 59 134.1 59.6 134.1 59.6 C 133.6 59.3 133.1 59.1 132.5 59.1 C 131.6 59.1 131.2 59.5 131.2 60 C 131.2 61.4 134.6 60.4 134.6 62.4 C 134.6 63.3 133.8 63.9 132.4 63.9 C 131.5 63.9 130.7 63.6 130.3 63.2 Z M 142.5 60.6 C 142.47 60.58 142.5 63.8 142.5 63.8 L 141.8 63.8 C 141.8 63.8 141.79 63.02 141.8 63 C 141.5 63.6 140.9 63.9 140 63.9 C 138.8 63.9 138.1 63.3 138.1 62.4 C 138.1 61.5 138.6 60.9 140.1 60.9 C 140.09 60.87 141.8 60.9 141.8 60.9 C 141.8 60.9 141.76 60.55 141.8 60.6 C 141.8 59.6 141.3 59.2 140.3 59.2 C 139.6 59.2 139 59.4 138.5 59.8 C 138.5 59.8 138.2 59.2 138.2 59.2 C 138.7 58.8 139.5 58.5 140.3 58.5 C 141.7 58.5 142.5 59.2 142.5 60.6 Z M 141.8 62.3 C 141.76 62.26 141.8 61.4 141.8 61.4 C 141.8 61.4 140.11 61.4 140.1 61.4 C 139.1 61.4 138.8 61.8 138.8 62.3 C 138.8 63 139.3 63.3 140.1 63.3 C 140.9 63.3 141.5 63 141.8 62.3 Z M 154.7 58.6 L 152.8 63.8 L 152.1 63.8 L 150.4 59.5 L 148.8 63.8 L 148.1 63.8 L 146.1 58.6 L 146.8 58.6 L 148.4 63.1 L 150.1 58.6 L 150.7 58.6 L 152.4 63.1 L 154.1 58.6 L 154.7 58.6 Z M 160.3 61.4 C 160.3 61.4 155.9 61.4 155.9 61.4 C 156 62.5 156.9 63.3 158 63.3 C 158.7 63.3 159.2 63 159.6 62.6 C 159.6 62.6 160 63 160 63 C 159.6 63.6 158.8 63.9 158 63.9 C 156.4 63.9 155.2 62.8 155.2 61.2 C 155.2 59.6 156.3 58.5 157.8 58.5 C 159.3 58.5 160.4 59.6 160.4 61.2 C 160.4 61.3 160.3 61.3 160.3 61.4 Z M 155.9 60.9 C 155.9 60.9 159.7 60.9 159.7 60.9 C 159.6 59.9 158.8 59.1 157.8 59.1 C 156.8 59.1 156 59.9 155.9 60.9 Z M 166.5 61.4 C 166.5 61.4 162.1 61.4 162.1 61.4 C 162.1 62.5 163 63.3 164.1 63.3 C 164.8 63.3 165.4 63 165.8 62.6 C 165.8 62.6 166.2 63 166.2 63 C 165.7 63.6 165 63.9 164.1 63.9 C 162.5 63.9 161.4 62.8 161.4 61.2 C 161.4 59.6 162.4 58.5 163.9 58.5 C 165.4 58.5 166.5 59.6 166.5 61.2 C 166.5 61.3 166.5 61.3 166.5 61.4 Z M 162.1 60.9 C 162.1 60.9 165.8 60.9 165.8 60.9 C 165.7 59.9 165 59.1 163.9 59.1 C 162.9 59.1 162.2 59.9 162.1 60.9 Z M 169.8 61.2 L 168.6 62.3 L 168.6 63.8 L 167.9 63.8 L 167.9 56.4 L 168.6 56.4 L 168.6 61.4 L 171.7 58.6 L 172.6 58.6 L 170.4 60.7 L 172.8 63.8 L 172 63.8 L 169.8 61.2 Z M 173.7 59.1 C 173.7 58.8 173.9 58.5 174.2 58.5 C 174.5 58.5 174.7 58.8 174.7 59.1 C 174.7 59.4 174.5 59.6 174.2 59.6 C 173.9 59.6 173.7 59.4 173.7 59.1 Z M 174.7 63.3 C 174.7 63.5 174.7 63.6 174.6 63.9 C 174.59 63.92 174.2 65.3 174.2 65.3 L 173.7 65.3 C 173.7 65.3 174.03 63.85 174 63.8 C 173.8 63.8 173.7 63.6 173.7 63.3 C 173.7 63 173.9 62.8 174.2 62.8 C 174.5 62.8 174.7 63 174.7 63.3 Z M 182.8 60.6 C 182.83 60.58 182.8 63.8 182.8 63.8 L 182.1 63.8 C 182.1 63.8 182.15 63.02 182.1 63 C 181.8 63.6 181.2 63.9 180.3 63.9 C 179.1 63.9 178.4 63.3 178.4 62.4 C 178.4 61.5 178.9 60.9 180.4 60.9 C 180.45 60.87 182.1 60.9 182.1 60.9 C 182.1 60.9 182.12 60.55 182.1 60.6 C 182.1 59.6 181.6 59.2 180.6 59.2 C 179.9 59.2 179.3 59.4 178.9 59.8 C 178.9 59.8 178.6 59.2 178.6 59.2 C 179.1 58.8 179.9 58.5 180.7 58.5 C 182.1 58.5 182.8 59.2 182.8 60.6 Z M 182.1 62.3 C 182.12 62.26 182.1 61.4 182.1 61.4 C 182.1 61.4 180.47 61.4 180.5 61.4 C 179.4 61.4 179.1 61.8 179.1 62.3 C 179.1 63 179.6 63.3 180.4 63.3 C 181.2 63.3 181.8 63 182.1 62.3 Z M 189.5 60.8 C 189.48 60.79 189.5 63.8 189.5 63.8 L 188.8 63.8 C 188.8 63.8 188.77 60.86 188.8 60.9 C 188.8 59.7 188.2 59.2 187.2 59.2 C 186.1 59.2 185.3 59.9 185.3 61.1 C 185.35 61.08 185.3 63.8 185.3 63.8 L 184.6 63.8 L 184.6 58.6 L 185.3 58.6 C 185.3 58.6 185.32 59.55 185.3 59.5 C 185.7 58.9 186.4 58.5 187.3 58.5 C 188.6 58.5 189.5 59.3 189.5 60.8 Z M 196.2 56.4 L 196.2 63.8 L 195.5 63.8 C 195.5 63.8 195.51 62.8 195.5 62.8 C 195.1 63.5 194.4 63.9 193.5 63.9 C 192 63.9 190.9 62.8 190.9 61.2 C 190.9 59.6 192 58.5 193.5 58.5 C 194.3 58.5 195 58.9 195.5 59.6 C 195.48 59.58 195.5 56.4 195.5 56.4 L 196.2 56.4 Z M 195.5 61.2 C 195.5 60 194.7 59.2 193.5 59.2 C 192.4 59.2 191.6 60 191.6 61.2 C 191.6 62.4 192.4 63.3 193.5 63.3 C 194.7 63.3 195.5 62.4 195.5 61.2 Z " stroke="none" fill="#323132"/>
  </g>
  <g id="Polygon122738">
    <path d="M 34.8 48.5 C 34.5 48.8 34.1 48.9 33.6 48.9 C 32.7 48.9 32.1 48.3 32.1 47.4 C 32.11 47.36 32.1 44.2 32.1 44.2 L 31.2 44.2 L 31.2 43.6 L 32.1 43.6 L 32.1 42.4 L 32.8 42.4 L 32.8 43.6 L 34.4 43.6 L 34.4 44.2 L 32.8 44.2 C 32.8 44.2 32.82 47.32 32.8 47.3 C 32.8 47.9 33.1 48.3 33.7 48.3 C 34 48.3 34.3 48.2 34.5 48 C 34.5 48 34.8 48.5 34.8 48.5 Z M 40.8 45.8 C 40.79 45.79 40.8 48.8 40.8 48.8 L 40.1 48.8 C 40.1 48.8 40.08 45.86 40.1 45.9 C 40.1 44.7 39.5 44.2 38.5 44.2 C 37.4 44.2 36.7 44.9 36.7 46.1 C 36.66 46.08 36.7 48.8 36.7 48.8 L 35.9 48.8 L 35.9 41.4 L 36.7 41.4 C 36.7 41.4 36.66 44.5 36.7 44.5 C 37 43.9 37.7 43.5 38.6 43.5 C 39.9 43.5 40.8 44.3 40.8 45.8 Z M 42.2 46.2 C 42.2 44.6 43.3 43.5 44.9 43.5 C 46.4 43.5 47.5 44.6 47.5 46.2 C 47.5 47.8 46.4 48.9 44.9 48.9 C 43.3 48.9 42.2 47.8 42.2 46.2 Z M 46.8 46.2 C 46.8 45 46 44.2 44.9 44.2 C 43.7 44.2 42.9 45 42.9 46.2 C 42.9 47.4 43.7 48.3 44.9 48.3 C 46 48.3 46.8 47.4 46.8 46.2 Z M 48.3 48.2 C 48.3 48.2 48.6 47.7 48.6 47.7 C 49.1 48 49.8 48.3 50.5 48.3 C 51.5 48.3 51.9 47.9 51.9 47.4 C 51.9 46 48.5 47.1 48.5 45 C 48.5 44.2 49.2 43.5 50.6 43.5 C 51.3 43.5 52 43.7 52.4 44 C 52.4 44 52.1 44.6 52.1 44.6 C 51.7 44.3 51.1 44.1 50.6 44.1 C 49.6 44.1 49.2 44.5 49.2 45 C 49.2 46.4 52.6 45.4 52.6 47.4 C 52.6 48.3 51.8 48.9 50.5 48.9 C 49.6 48.9 48.7 48.6 48.3 48.2 Z M 58.6 46.4 C 58.6 46.4 54.2 46.4 54.2 46.4 C 54.3 47.5 55.1 48.3 56.3 48.3 C 56.9 48.3 57.5 48 57.9 47.6 C 57.9 47.6 58.3 48 58.3 48 C 57.8 48.6 57.1 48.9 56.3 48.9 C 54.6 48.9 53.5 47.8 53.5 46.2 C 53.5 44.6 54.6 43.5 56.1 43.5 C 57.6 43.5 58.6 44.6 58.6 46.2 C 58.6 46.3 58.6 46.3 58.6 46.4 Z M 54.2 45.9 C 54.2 45.9 57.9 45.9 57.9 45.9 C 57.9 44.9 57.1 44.1 56.1 44.1 C 55.1 44.1 54.3 44.9 54.2 45.9 Z M 70.4 43.6 L 68.4 48.8 L 67.8 48.8 L 66.1 44.5 L 64.4 48.8 L 63.8 48.8 L 61.8 43.6 L 62.5 43.6 L 64.1 48.1 L 65.8 43.6 L 66.4 43.6 L 68.1 48.1 L 69.8 43.6 L 70.4 43.6 Z M 70.9 46.2 C 70.9 44.6 72 43.5 73.6 43.5 C 75.1 43.5 76.2 44.6 76.2 46.2 C 76.2 47.8 75.1 48.9 73.6 48.9 C 72 48.9 70.9 47.8 70.9 46.2 Z M 75.5 46.2 C 75.5 45 74.7 44.2 73.6 44.2 C 72.4 44.2 71.6 45 71.6 46.2 C 71.6 47.4 72.4 48.3 73.6 48.3 C 74.7 48.3 75.5 47.4 75.5 46.2 Z M 80.3 43.5 C 80.3 43.5 80.3 44.2 80.3 44.2 C 80.3 44.2 80.2 44.2 80.1 44.2 C 79 44.2 78.4 44.9 78.4 46.2 C 78.37 46.16 78.4 48.8 78.4 48.8 L 77.7 48.8 L 77.7 43.6 L 78.3 43.6 C 78.3 43.6 78.34 44.61 78.3 44.6 C 78.7 43.9 79.3 43.5 80.3 43.5 Z M 83.5 46.2 L 82.2 47.3 L 82.2 48.8 L 81.5 48.8 L 81.5 41.4 L 82.2 41.4 L 82.2 46.4 L 85.4 43.6 L 86.3 43.6 L 84 45.7 L 86.5 48.8 L 85.6 48.8 L 83.5 46.2 Z M 87.4 41.9 C 87.4 41.7 87.6 41.4 87.9 41.4 C 88.2 41.4 88.4 41.6 88.4 41.9 C 88.4 42.2 88.2 42.4 87.9 42.4 C 87.6 42.4 87.4 42.2 87.4 41.9 Z M 87.6 43.6 L 88.3 43.6 L 88.3 48.8 L 87.6 48.8 L 87.6 43.6 Z M 95 45.8 C 94.95 45.79 95 48.8 95 48.8 L 94.2 48.8 C 94.2 48.8 94.24 45.86 94.2 45.9 C 94.2 44.7 93.7 44.2 92.7 44.2 C 91.5 44.2 90.8 44.9 90.8 46.1 C 90.82 46.08 90.8 48.8 90.8 48.8 L 90.1 48.8 L 90.1 43.6 L 90.8 43.6 C 90.8 43.6 90.79 44.55 90.8 44.5 C 91.2 43.9 91.9 43.5 92.8 43.5 C 94.1 43.5 95 44.3 95 45.8 Z M 101.7 43.6 C 101.7 43.6 101.72 48.2 101.7 48.2 C 101.7 50 100.8 50.8 99.1 50.8 C 98.1 50.8 97.2 50.5 96.6 50 C 96.6 50 97 49.5 97 49.5 C 97.5 49.9 98.3 50.2 99.1 50.2 C 100.4 50.2 101 49.6 101 48.3 C 101 48.3 101 47.6 101 47.6 C 100.6 48.3 99.8 48.6 99 48.6 C 97.5 48.6 96.3 47.6 96.3 46.1 C 96.3 44.6 97.5 43.5 99 43.5 C 99.8 43.5 100.6 43.9 101 44.6 C 101.04 44.59 101 43.6 101 43.6 L 101.7 43.6 Z M 101 46.1 C 101 44.9 100.2 44.2 99 44.2 C 97.9 44.2 97 44.9 97 46.1 C 97 47.2 97.9 48 99 48 C 100.2 48 101 47.2 101 46.1 Z M 106.3 41.4 L 107 41.4 L 107 48.8 L 106.3 48.8 L 106.3 41.4 Z M 113.6 46.4 C 113.6 46.4 109.2 46.4 109.2 46.4 C 109.3 47.5 110.1 48.3 111.2 48.3 C 111.9 48.3 112.5 48 112.9 47.6 C 112.9 47.6 113.3 48 113.3 48 C 112.8 48.6 112.1 48.9 111.2 48.9 C 109.6 48.9 108.5 47.8 108.5 46.2 C 108.5 44.6 109.6 43.5 111 43.5 C 112.5 43.5 113.6 44.6 113.6 46.2 C 113.6 46.3 113.6 46.3 113.6 46.4 Z M 109.2 45.9 C 109.2 45.9 112.9 45.9 112.9 45.9 C 112.8 44.9 112.1 44.1 111 44.1 C 110 44.1 109.3 44.9 109.2 45.9 Z M 114.4 48.2 C 114.4 48.2 114.7 47.7 114.7 47.7 C 115.1 48 115.8 48.3 116.6 48.3 C 117.6 48.3 118 47.9 118 47.4 C 118 46 114.6 47.1 114.6 45 C 114.6 44.2 115.3 43.5 116.6 43.5 C 117.3 43.5 118.1 43.7 118.5 44 C 118.5 44 118.2 44.6 118.2 44.6 C 117.7 44.3 117.2 44.1 116.6 44.1 C 115.7 44.1 115.3 44.5 115.3 45 C 115.3 46.4 118.7 45.4 118.7 47.4 C 118.7 48.3 117.9 48.9 116.5 48.9 C 115.6 48.9 114.8 48.6 114.4 48.2 Z M 119.4 48.2 C 119.4 48.2 119.7 47.7 119.7 47.7 C 120.2 48 120.9 48.3 121.6 48.3 C 122.6 48.3 123 47.9 123 47.4 C 123 46 119.6 47.1 119.6 45 C 119.6 44.2 120.4 43.5 121.7 43.5 C 122.4 43.5 123.1 43.7 123.6 44 C 123.6 44 123.2 44.6 123.2 44.6 C 122.8 44.3 122.2 44.1 121.7 44.1 C 120.7 44.1 120.3 44.5 120.3 45 C 120.3 46.4 123.7 45.4 123.7 47.4 C 123.7 48.3 122.9 48.9 121.6 48.9 C 120.7 48.9 119.9 48.6 119.4 48.2 Z M 130.4 48.5 C 130.2 48.8 129.7 48.9 129.3 48.9 C 128.3 48.9 127.8 48.3 127.8 47.4 C 127.79 47.36 127.8 44.2 127.8 44.2 L 126.8 44.2 L 126.8 43.6 L 127.8 43.6 L 127.8 42.4 L 128.5 42.4 L 128.5 43.6 L 130.1 43.6 L 130.1 44.2 L 128.5 44.2 C 128.5 44.2 128.5 47.32 128.5 47.3 C 128.5 47.9 128.8 48.3 129.4 48.3 C 129.7 48.3 130 48.2 130.2 48 C 130.2 48 130.4 48.5 130.4 48.5 Z M 136.5 45.8 C 136.47 45.79 136.5 48.8 136.5 48.8 L 135.8 48.8 C 135.8 48.8 135.76 45.86 135.8 45.9 C 135.8 44.7 135.2 44.2 134.2 44.2 C 133 44.2 132.3 44.9 132.3 46.1 C 132.34 46.08 132.3 48.8 132.3 48.8 L 131.6 48.8 L 131.6 41.4 L 132.3 41.4 C 132.3 41.4 132.34 44.5 132.3 44.5 C 132.7 43.9 133.4 43.5 134.3 43.5 C 135.6 43.5 136.5 44.3 136.5 45.8 Z M 142.3 45.6 C 142.29 45.58 142.3 48.8 142.3 48.8 L 141.6 48.8 C 141.6 48.8 141.61 48.02 141.6 48 C 141.3 48.6 140.7 48.9 139.8 48.9 C 138.6 48.9 137.9 48.3 137.9 47.4 C 137.9 46.5 138.4 45.9 139.9 45.9 C 139.91 45.87 141.6 45.9 141.6 45.9 C 141.6 45.9 141.58 45.55 141.6 45.6 C 141.6 44.6 141.1 44.2 140.1 44.2 C 139.4 44.2 138.8 44.4 138.3 44.8 C 138.3 44.8 138 44.2 138 44.2 C 138.5 43.8 139.3 43.5 140.2 43.5 C 141.5 43.5 142.3 44.2 142.3 45.6 Z M 141.6 47.3 C 141.58 47.26 141.6 46.4 141.6 46.4 C 141.6 46.4 139.93 46.4 139.9 46.4 C 138.9 46.4 138.6 46.8 138.6 47.3 C 138.6 48 139.1 48.3 139.9 48.3 C 140.7 48.3 141.3 48 141.6 47.3 Z M 148.9 45.8 C 148.94 45.79 148.9 48.8 148.9 48.8 L 148.2 48.8 C 148.2 48.8 148.23 45.86 148.2 45.9 C 148.2 44.7 147.7 44.2 146.7 44.2 C 145.5 44.2 144.8 44.9 144.8 46.1 C 144.81 46.08 144.8 48.8 144.8 48.8 L 144.1 48.8 L 144.1 43.6 L 144.8 43.6 C 144.8 43.6 144.78 44.55 144.8 44.5 C 145.2 43.9 145.9 43.5 146.8 43.5 C 148.1 43.5 148.9 44.3 148.9 45.8 Z M 155 41.8 L 155 48.8 L 154.2 48.8 L 154.2 42.5 L 152.6 42.5 L 152.6 41.8 L 155 41.8 Z M 161.9 46.7 C 161.9 48.1 160.9 48.9 159.5 48.9 C 157.7 48.9 156.7 47.6 156.7 45.4 C 156.7 43 158 41.8 159.9 41.8 C 160.5 41.8 161.1 41.9 161.5 42.2 C 161.5 42.2 161.2 42.7 161.2 42.7 C 160.9 42.5 160.4 42.4 159.9 42.4 C 158.4 42.4 157.4 43.4 157.4 45.3 C 157.4 45.4 157.4 45.6 157.4 45.8 C 157.8 45.1 158.6 44.7 159.6 44.7 C 161 44.7 161.9 45.5 161.9 46.7 Z M 161.2 46.8 C 161.2 45.8 160.5 45.3 159.5 45.3 C 158.4 45.3 157.7 45.9 157.7 46.8 C 157.7 47.6 158.3 48.3 159.5 48.3 C 160.5 48.3 161.2 47.7 161.2 46.8 Z M 170.7 45.8 C 170.7 45.79 170.7 48.8 170.7 48.8 L 170 48.8 C 170 48.8 169.99 45.86 170 45.9 C 170 44.7 169.4 44.2 168.4 44.2 C 167.3 44.2 166.6 44.9 166.6 46.1 C 166.57 46.08 166.6 48.8 166.6 48.8 L 165.9 48.8 L 165.9 41.4 L 166.6 41.4 C 166.6 41.4 166.57 44.5 166.6 44.5 C 167 43.9 167.6 43.5 168.5 43.5 C 169.8 43.5 170.7 44.3 170.7 45.8 Z M 172.1 46.2 C 172.1 44.6 173.2 43.5 174.8 43.5 C 176.3 43.5 177.4 44.6 177.4 46.2 C 177.4 47.8 176.3 48.9 174.8 48.9 C 173.2 48.9 172.1 47.8 172.1 46.2 Z M 176.7 46.2 C 176.7 45 175.9 44.2 174.8 44.2 C 173.6 44.2 172.8 45 172.8 46.2 C 172.8 47.4 173.6 48.3 174.8 48.3 C 175.9 48.3 176.7 47.4 176.7 46.2 Z M 183.6 43.6 L 183.6 48.8 L 182.9 48.8 C 182.9 48.8 182.9 47.88 182.9 47.9 C 182.5 48.5 181.9 48.9 181 48.9 C 179.7 48.9 178.8 48.1 178.8 46.6 C 178.79 46.63 178.8 43.6 178.8 43.6 L 179.5 43.6 C 179.5 43.6 179.5 46.56 179.5 46.6 C 179.5 47.7 180.1 48.3 181.1 48.3 C 182.2 48.3 182.9 47.5 182.9 46.3 C 182.87 46.34 182.9 43.6 182.9 43.6 L 183.6 43.6 Z M 188.1 43.5 C 188.1 43.5 188.1 44.2 188.1 44.2 C 188 44.2 188 44.2 187.9 44.2 C 186.8 44.2 186.2 44.9 186.2 46.2 C 186.15 46.16 186.2 48.8 186.2 48.8 L 185.4 48.8 L 185.4 43.6 L 186.1 43.6 C 186.1 43.6 186.12 44.61 186.1 44.6 C 186.5 43.9 187.1 43.5 188.1 43.5 Z M 188.8 48.2 C 188.8 48.2 189.1 47.7 189.1 47.7 C 189.5 48 190.2 48.3 191 48.3 C 192 48.3 192.4 47.9 192.4 47.4 C 192.4 46 189 47.1 189 45 C 189 44.2 189.7 43.5 191 43.5 C 191.7 43.5 192.5 43.7 192.9 44 C 192.9 44 192.6 44.6 192.6 44.6 C 192.1 44.3 191.6 44.1 191 44.1 C 190.1 44.1 189.7 44.5 189.7 45 C 189.7 46.4 193.1 45.4 193.1 47.4 C 193.1 48.3 192.3 48.9 190.9 48.9 C 190 48.9 189.2 48.6 188.8 48.2 Z M 201 45.6 C 200.98 45.58 201 48.8 201 48.8 L 200.3 48.8 C 200.3 48.8 200.3 48.02 200.3 48 C 200 48.6 199.4 48.9 198.5 48.9 C 197.3 48.9 196.6 48.3 196.6 47.4 C 196.6 46.5 197.1 45.9 198.6 45.9 C 198.6 45.87 200.3 45.9 200.3 45.9 C 200.3 45.9 200.27 45.55 200.3 45.6 C 200.3 44.6 199.8 44.2 198.8 44.2 C 198.1 44.2 197.5 44.4 197 44.8 C 197 44.8 196.7 44.2 196.7 44.2 C 197.2 43.8 198 43.5 198.8 43.5 C 200.2 43.5 201 44.2 201 45.6 Z M 200.3 47.3 C 200.27 47.26 200.3 46.4 200.3 46.4 C 200.3 46.4 198.62 46.4 198.6 46.4 C 197.6 46.4 197.3 46.8 197.3 47.3 C 197.3 48 197.8 48.3 198.6 48.3 C 199.4 48.3 200 48 200.3 47.3 Z M 213.2 43.6 L 211.3 48.8 L 210.6 48.8 L 208.9 44.5 L 207.3 48.8 L 206.6 48.8 L 204.6 43.6 L 205.3 43.6 L 206.9 48.1 L 208.6 43.6 L 209.2 43.6 L 210.9 48.1 L 212.6 43.6 L 213.2 43.6 Z M 218.9 46.4 C 218.9 46.4 214.5 46.4 214.5 46.4 C 214.5 47.5 215.4 48.3 216.5 48.3 C 217.2 48.3 217.7 48 218.1 47.6 C 218.1 47.6 218.5 48 218.5 48 C 218.1 48.6 217.3 48.9 216.5 48.9 C 214.9 48.9 213.7 47.8 213.7 46.2 C 213.7 44.6 214.8 43.5 216.3 43.5 C 217.8 43.5 218.9 44.6 218.9 46.2 C 218.9 46.3 218.9 46.3 218.9 46.4 Z M 214.5 45.9 C 214.5 45.9 218.2 45.9 218.2 45.9 C 218.1 44.9 217.3 44.1 216.3 44.1 C 215.3 44.1 214.5 44.9 214.5 45.9 Z M 225 46.4 C 225 46.4 220.6 46.4 220.6 46.4 C 220.7 47.5 221.5 48.3 222.6 48.3 C 223.3 48.3 223.9 48 224.3 47.6 C 224.3 47.6 224.7 48 224.7 48 C 224.2 48.6 223.5 48.9 222.6 48.9 C 221 48.9 219.9 47.8 219.9 46.2 C 219.9 44.6 221 43.5 222.4 43.5 C 223.9 43.5 225 44.6 225 46.2 C 225 46.3 225 46.3 225 46.4 Z M 220.6 45.9 C 220.6 45.9 224.3 45.9 224.3 45.9 C 224.2 44.9 223.5 44.1 222.4 44.1 C 221.4 44.1 220.7 44.9 220.6 45.9 Z M 228.3 46.2 L 227.1 47.3 L 227.1 48.8 L 226.4 48.8 L 226.4 41.4 L 227.1 41.4 L 227.1 46.4 L 230.2 43.6 L 231.1 43.6 L 228.9 45.7 L 231.3 48.8 L 230.5 48.8 L 228.3 46.2 Z M 239.9 45.8 C 239.86 45.79 239.9 48.8 239.9 48.8 L 239.1 48.8 C 239.1 48.8 239.15 45.86 239.1 45.9 C 239.1 44.7 238.6 44.2 237.6 44.2 C 236.4 44.2 235.7 44.9 235.7 46.1 C 235.73 46.08 235.7 48.8 235.7 48.8 L 235 48.8 L 235 41.4 L 235.7 41.4 C 235.7 41.4 235.73 44.5 235.7 44.5 C 236.1 43.9 236.8 43.5 237.7 43.5 C 239 43.5 239.9 44.3 239.9 45.8 Z M 245.7 45.6 C 245.68 45.58 245.7 48.8 245.7 48.8 L 245 48.8 C 245 48.8 245 48.02 245 48 C 244.7 48.6 244.1 48.9 243.2 48.9 C 242 48.9 241.3 48.3 241.3 47.4 C 241.3 46.5 241.8 45.9 243.3 45.9 C 243.3 45.87 245 45.9 245 45.9 C 245 45.9 244.97 45.55 245 45.6 C 245 44.6 244.5 44.2 243.5 44.2 C 242.8 44.2 242.2 44.4 241.7 44.8 C 241.7 44.8 241.4 44.2 241.4 44.2 C 241.9 43.8 242.7 43.5 243.5 43.5 C 244.9 43.5 245.7 44.2 245.7 45.6 Z M 245 47.3 C 244.97 47.26 245 46.4 245 46.4 C 245 46.4 243.32 46.4 243.3 46.4 C 242.3 46.4 242 46.8 242 47.3 C 242 48 242.5 48.3 243.3 48.3 C 244.1 48.3 244.7 48 245 47.3 Z M 251.8 43.6 L 249.5 48.8 L 248.8 48.8 L 246.4 43.6 L 247.2 43.6 L 249.1 48.1 L 251.1 43.6 L 251.8 43.6 Z M 257.3 46.4 C 257.3 46.4 252.9 46.4 252.9 46.4 C 253 47.5 253.9 48.3 255 48.3 C 255.6 48.3 256.2 48 256.6 47.6 C 256.6 47.6 257 48 257 48 C 256.5 48.6 255.8 48.9 255 48.9 C 253.3 48.9 252.2 47.8 252.2 46.2 C 252.2 44.6 253.3 43.5 254.8 43.5 C 256.3 43.5 257.3 44.6 257.3 46.2 C 257.3 46.3 257.3 46.3 257.3 46.4 Z M 252.9 45.9 C 252.9 45.9 256.7 45.9 256.7 45.9 C 256.6 44.9 255.8 44.1 254.8 44.1 C 253.8 44.1 253 44.9 252.9 45.9 Z M 266.2 41.4 L 266.2 48.8 L 265.5 48.8 C 265.5 48.8 265.54 47.8 265.5 47.8 C 265.1 48.5 264.4 48.9 263.5 48.9 C 262 48.9 260.9 47.8 260.9 46.2 C 260.9 44.6 262 43.5 263.5 43.5 C 264.3 43.5 265.1 43.9 265.5 44.6 C 265.51 44.58 265.5 41.4 265.5 41.4 L 266.2 41.4 Z M 265.5 46.2 C 265.5 45 264.7 44.2 263.6 44.2 C 262.4 44.2 261.6 45 261.6 46.2 C 261.6 47.4 262.4 48.3 263.6 48.3 C 264.7 48.3 265.5 47.4 265.5 46.2 Z M 267.7 46.2 C 267.7 44.6 268.8 43.5 270.3 43.5 C 271.9 43.5 273 44.6 273 46.2 C 273 47.8 271.9 48.9 270.3 48.9 C 268.8 48.9 267.7 47.8 267.7 46.2 Z M 272.3 46.2 C 272.3 45 271.5 44.2 270.3 44.2 C 269.2 44.2 268.4 45 268.4 46.2 C 268.4 47.4 269.2 48.3 270.3 48.3 C 271.5 48.3 272.3 47.4 272.3 46.2 Z M 279.2 43.6 L 279.2 48.8 L 278.5 48.8 C 278.5 48.8 278.48 47.88 278.5 47.9 C 278.1 48.5 277.4 48.9 276.6 48.9 C 275.3 48.9 274.4 48.1 274.4 46.6 C 274.37 46.63 274.4 43.6 274.4 43.6 L 275.1 43.6 C 275.1 43.6 275.08 46.56 275.1 46.6 C 275.1 47.7 275.7 48.3 276.7 48.3 C 277.8 48.3 278.5 47.5 278.5 46.3 C 278.45 46.34 278.5 43.6 278.5 43.6 L 279.2 43.6 Z M 286.4 46.2 C 286.4 47.8 285.2 48.9 283.7 48.9 C 282.9 48.9 282.1 48.5 281.7 47.8 C 281.7 47.8 281.7 48.8 281.7 48.8 L 281 48.8 L 281 41.4 L 281.7 41.4 C 281.7 41.4 281.73 44.58 281.7 44.6 C 282.2 43.9 282.9 43.5 283.7 43.5 C 285.2 43.5 286.4 44.6 286.4 46.2 Z M 285.6 46.2 C 285.6 45 284.8 44.2 283.7 44.2 C 282.6 44.2 281.7 45 281.7 46.2 C 281.7 47.4 282.6 48.3 283.7 48.3 C 284.8 48.3 285.6 47.4 285.6 46.2 Z M 287.8 41.4 L 288.5 41.4 L 288.5 48.8 L 287.8 48.8 L 287.8 41.4 Z M 295 46.4 C 295 46.4 290.6 46.4 290.6 46.4 C 290.7 47.5 291.6 48.3 292.7 48.3 C 293.4 48.3 293.9 48 294.3 47.6 C 294.3 47.6 294.7 48 294.7 48 C 294.3 48.6 293.5 48.9 292.7 48.9 C 291.1 48.9 289.9 47.8 289.9 46.2 C 289.9 44.6 291 43.5 292.5 43.5 C 294 43.5 295.1 44.6 295.1 46.2 C 295.1 46.3 295 46.3 295 46.4 Z M 290.6 45.9 C 290.6 45.9 294.4 45.9 294.4 45.9 C 294.3 44.9 293.5 44.1 292.5 44.1 C 291.5 44.1 290.7 44.9 290.6 45.9 Z M 301.9 48.5 C 301.6 48.8 301.2 48.9 300.8 48.9 C 299.8 48.9 299.3 48.3 299.3 47.4 C 299.25 47.36 299.3 44.2 299.3 44.2 L 298.3 44.2 L 298.3 43.6 L 299.3 43.6 L 299.3 42.4 L 300 42.4 L 300 43.6 L 301.6 43.6 L 301.6 44.2 L 300 44.2 C 300 44.2 299.96 47.32 300 47.3 C 300 47.9 300.3 48.3 300.9 48.3 C 301.2 48.3 301.4 48.2 301.6 48 C 301.6 48 301.9 48.5 301.9 48.5 Z M 307.9 45.8 C 307.93 45.79 307.9 48.8 307.9 48.8 L 307.2 48.8 C 307.2 48.8 307.22 45.86 307.2 45.9 C 307.2 44.7 306.6 44.2 305.6 44.2 C 304.5 44.2 303.8 44.9 303.8 46.1 C 303.8 46.08 303.8 48.8 303.8 48.8 L 303.1 48.8 L 303.1 41.4 L 303.8 41.4 C 303.8 41.4 303.8 44.5 303.8 44.5 C 304.2 43.9 304.9 43.5 305.8 43.5 C 307 43.5 307.9 44.3 307.9 45.8 Z M 314.4 46.4 C 314.4 46.4 310 46.4 310 46.4 C 310.1 47.5 310.9 48.3 312.1 48.3 C 312.7 48.3 313.3 48 313.7 47.6 C 313.7 47.6 314.1 48 314.1 48 C 313.6 48.6 312.9 48.9 312.1 48.9 C 310.4 48.9 309.3 47.8 309.3 46.2 C 309.3 44.6 310.4 43.5 311.9 43.5 C 313.4 43.5 314.4 44.6 314.4 46.2 C 314.4 46.3 314.4 46.3 314.4 46.4 Z M 310 45.9 C 310 45.9 313.8 45.9 313.8 45.9 C 313.7 44.9 312.9 44.1 311.9 44.1 C 310.9 44.1 310.1 44.9 310 45.9 Z M 321.2 43.5 C 321.2 43.5 321.2 44.2 321.2 44.2 C 321.1 44.2 321 44.2 321 44.2 C 319.9 44.2 319.2 44.9 319.2 46.2 C 319.21 46.16 319.2 48.8 319.2 48.8 L 318.5 48.8 L 318.5 43.6 L 319.2 43.6 C 319.2 43.6 319.18 44.61 319.2 44.6 C 319.5 43.9 320.2 43.5 321.2 43.5 Z M 326.5 45.6 C 326.49 45.58 326.5 48.8 326.5 48.8 L 325.8 48.8 C 325.8 48.8 325.81 48.02 325.8 48 C 325.5 48.6 324.9 48.9 324 48.9 C 322.8 48.9 322.1 48.3 322.1 47.4 C 322.1 46.5 322.6 45.9 324.1 45.9 C 324.11 45.87 325.8 45.9 325.8 45.9 C 325.8 45.9 325.78 45.55 325.8 45.6 C 325.8 44.6 325.3 44.2 324.3 44.2 C 323.6 44.2 323 44.4 322.5 44.8 C 322.5 44.8 322.2 44.2 322.2 44.2 C 322.7 43.8 323.5 43.5 324.4 43.5 C 325.7 43.5 326.5 44.2 326.5 45.6 Z M 325.8 47.3 C 325.78 47.26 325.8 46.4 325.8 46.4 C 325.8 46.4 324.13 46.4 324.1 46.4 C 323.1 46.4 322.8 46.8 322.8 47.3 C 322.8 48 323.3 48.3 324.1 48.3 C 324.9 48.3 325.5 48 325.8 47.3 Z M 331 48.5 C 330.8 48.8 330.3 48.9 329.9 48.9 C 328.9 48.9 328.4 48.3 328.4 47.4 C 328.39 47.36 328.4 44.2 328.4 44.2 L 327.4 44.2 L 327.4 43.6 L 328.4 43.6 L 328.4 42.4 L 329.1 42.4 L 329.1 43.6 L 330.7 43.6 L 330.7 44.2 L 329.1 44.2 C 329.1 44.2 329.09 47.32 329.1 47.3 C 329.1 47.9 329.4 48.3 330 48.3 C 330.3 48.3 330.6 48.2 330.8 48 C 330.8 48 331 48.5 331 48.5 Z M 336.7 46.4 C 336.7 46.4 332.3 46.4 332.3 46.4 C 332.4 47.5 333.2 48.3 334.4 48.3 C 335 48.3 335.6 48 336 47.6 C 336 47.6 336.4 48 336.4 48 C 335.9 48.6 335.2 48.9 334.3 48.9 C 332.7 48.9 331.6 47.8 331.6 46.2 C 331.6 44.6 332.7 43.5 334.2 43.5 C 335.6 43.5 336.7 44.6 336.7 46.2 C 336.7 46.3 336.7 46.3 336.7 46.4 Z M 332.3 45.9 C 332.3 45.9 336 45.9 336 45.9 C 335.9 44.9 335.2 44.1 334.2 44.1 C 333.1 44.1 332.4 44.9 332.3 45.9 Z M 340.2 46.2 C 340.2 44.6 341.4 43.5 342.9 43.5 C 344.5 43.5 345.6 44.6 345.6 46.2 C 345.6 47.8 344.5 48.9 342.9 48.9 C 341.4 48.9 340.2 47.8 340.2 46.2 Z M 344.9 46.2 C 344.9 45 344 44.2 342.9 44.2 C 341.8 44.2 341 45 341 46.2 C 341 47.4 341.8 48.3 342.9 48.3 C 344 48.3 344.9 47.4 344.9 46.2 Z M 347.8 43 C 347.79 42.96 347.8 43.6 347.8 43.6 L 349.4 43.6 L 349.4 44.2 L 347.8 44.2 L 347.8 48.8 L 347.1 48.8 L 347.1 44.2 L 346.2 44.2 L 346.2 43.6 L 347.1 43.6 C 347.1 43.6 347.1 42.93 347.1 42.9 C 347.1 42 347.7 41.4 348.7 41.4 C 349.1 41.4 349.5 41.5 349.7 41.7 C 349.7 41.7 349.5 42.2 349.5 42.2 C 349.3 42.1 349 42 348.7 42 C 348.1 42 347.8 42.3 347.8 43 Z M 352.8 41.9 C 352.8 41.7 353.1 41.4 353.4 41.4 C 353.6 41.4 353.9 41.6 353.9 41.9 C 353.9 42.2 353.7 42.4 353.4 42.4 C 353.1 42.4 352.8 42.2 352.8 41.9 Z M 353 43.6 L 353.7 43.6 L 353.7 48.8 L 353 48.8 L 353 43.6 Z M 360.4 45.8 C 360.38 45.79 360.4 48.8 360.4 48.8 L 359.7 48.8 C 359.7 48.8 359.67 45.86 359.7 45.9 C 359.7 44.7 359.1 44.2 358.1 44.2 C 357 44.2 356.3 44.9 356.3 46.1 C 356.25 46.08 356.3 48.8 356.3 48.8 L 355.5 48.8 L 355.5 43.6 L 356.2 43.6 C 356.2 43.6 356.22 44.55 356.2 44.5 C 356.6 43.9 357.3 43.5 358.2 43.5 C 359.5 43.5 360.4 44.3 360.4 45.8 Z M 362 41.9 C 362 41.7 362.3 41.4 362.6 41.4 C 362.9 41.4 363.1 41.6 363.1 41.9 C 363.1 42.2 362.9 42.4 362.6 42.4 C 362.3 42.4 362 42.2 362 41.9 Z M 360.3 50.5 C 360.3 50.5 360.5 50 360.5 50 C 360.7 50.1 361 50.2 361.3 50.2 C 361.9 50.2 362.2 49.9 362.2 49.2 C 362.2 49.23 362.2 43.6 362.2 43.6 L 362.9 43.6 C 362.9 43.6 362.91 49.23 362.9 49.2 C 362.9 50.2 362.4 50.8 361.4 50.8 C 361 50.8 360.5 50.7 360.3 50.5 Z M 369.5 43.6 L 369.5 48.8 L 368.8 48.8 C 368.8 48.8 368.8 47.88 368.8 47.9 C 368.4 48.5 367.7 48.9 366.9 48.9 C 365.6 48.9 364.7 48.1 364.7 46.6 C 364.69 46.63 364.7 43.6 364.7 43.6 L 365.4 43.6 C 365.4 43.6 365.4 46.56 365.4 46.6 C 365.4 47.7 366 48.3 367 48.3 C 368.1 48.3 368.8 47.5 368.8 46.3 C 368.77 46.34 368.8 43.6 368.8 43.6 L 369.5 43.6 Z M 374 43.5 C 374 43.5 374 44.2 374 44.2 C 373.9 44.2 373.9 44.2 373.8 44.2 C 372.7 44.2 372 44.9 372 46.2 C 372.05 46.16 372 48.8 372 48.8 L 371.3 48.8 L 371.3 43.6 L 372 43.6 C 372 43.6 372.02 44.61 372 44.6 C 372.3 43.9 373 43.5 374 43.5 Z M 380.1 43.6 C 380.1 43.6 377.48 49.47 377.5 49.5 C 377 50.5 376.5 50.8 375.7 50.8 C 375.2 50.8 374.8 50.7 374.4 50.4 C 374.4 50.4 374.8 49.8 374.8 49.8 C 375 50.1 375.4 50.2 375.7 50.2 C 376.2 50.2 376.5 50 376.8 49.3 C 376.83 49.34 377.1 48.8 377.1 48.8 L 374.7 43.6 L 375.4 43.6 L 377.4 48.1 L 379.4 43.6 L 380.1 43.6 Z M 386.5 48.5 C 386.2 48.8 385.8 48.9 385.4 48.9 C 384.4 48.9 383.8 48.3 383.8 47.4 C 383.85 47.36 383.8 44.2 383.8 44.2 L 382.9 44.2 L 382.9 43.6 L 383.8 43.6 L 383.8 42.4 L 384.6 42.4 L 384.6 43.6 L 386.2 43.6 L 386.2 44.2 L 384.6 44.2 C 384.6 44.2 384.56 47.32 384.6 47.3 C 384.6 47.9 384.9 48.3 385.5 48.3 C 385.8 48.3 386 48.2 386.2 48 C 386.2 48 386.5 48.5 386.5 48.5 Z M 387 46.2 C 387 44.6 388.2 43.5 389.7 43.5 C 391.3 43.5 392.4 44.6 392.4 46.2 C 392.4 47.8 391.3 48.9 389.7 48.9 C 388.2 48.9 387 47.8 387 46.2 Z M 391.7 46.2 C 391.7 45 390.8 44.2 389.7 44.2 C 388.6 44.2 387.8 45 387.8 46.2 C 387.8 47.4 388.6 48.3 389.7 48.3 C 390.8 48.3 391.7 47.4 391.7 46.2 Z M 399.2 48.5 C 399 48.8 398.5 48.9 398.1 48.9 C 397.1 48.9 396.6 48.3 396.6 47.4 C 396.59 47.36 396.6 44.2 396.6 44.2 L 395.6 44.2 L 395.6 43.6 L 396.6 43.6 L 396.6 42.4 L 397.3 42.4 L 397.3 43.6 L 398.9 43.6 L 398.9 44.2 L 397.3 44.2 C 397.3 44.2 397.3 47.32 397.3 47.3 C 397.3 47.9 397.6 48.3 398.2 48.3 C 398.5 48.3 398.8 48.2 399 48 C 399 48 399.2 48.5 399.2 48.5 Z M 405.3 45.8 C 405.27 45.79 405.3 48.8 405.3 48.8 L 404.6 48.8 C 404.6 48.8 404.56 45.86 404.6 45.9 C 404.6 44.7 404 44.2 403 44.2 C 401.8 44.2 401.1 44.9 401.1 46.1 C 401.14 46.08 401.1 48.8 401.1 48.8 L 400.4 48.8 L 400.4 41.4 L 401.1 41.4 C 401.1 41.4 401.14 44.5 401.1 44.5 C 401.5 43.9 402.2 43.5 403.1 43.5 C 404.4 43.5 405.3 44.3 405.3 45.8 Z M 406.6 46.2 C 406.6 44.6 407.8 43.5 409.3 43.5 C 410.9 43.5 412 44.6 412 46.2 C 412 47.8 410.9 48.9 409.3 48.9 C 407.8 48.9 406.6 47.8 406.6 46.2 Z M 411.3 46.2 C 411.3 45 410.4 44.2 409.3 44.2 C 408.2 44.2 407.4 45 407.4 46.2 C 407.4 47.4 408.2 48.3 409.3 48.3 C 410.4 48.3 411.3 47.4 411.3 46.2 Z M 412.8 48.2 C 412.8 48.2 413.1 47.7 413.1 47.7 C 413.5 48 414.2 48.3 415 48.3 C 416 48.3 416.4 47.9 416.4 47.4 C 416.4 46 413 47.1 413 45 C 413 44.2 413.7 43.5 415.1 43.5 C 415.7 43.5 416.5 43.7 416.9 44 C 416.9 44 416.6 44.6 416.6 44.6 C 416.2 44.3 415.6 44.1 415.1 44.1 C 414.1 44.1 413.7 44.5 413.7 45 C 413.7 46.4 417.1 45.4 417.1 47.4 C 417.1 48.3 416.3 48.9 414.9 48.9 C 414.1 48.9 413.2 48.6 412.8 48.2 Z M 423.1 46.4 C 423.1 46.4 418.7 46.4 418.7 46.4 C 418.8 47.5 419.6 48.3 420.8 48.3 C 421.4 48.3 422 48 422.4 47.6 C 422.4 47.6 422.8 48 422.8 48 C 422.3 48.6 421.6 48.9 420.7 48.9 C 419.1 48.9 418 47.8 418 46.2 C 418 44.6 419.1 43.5 420.6 43.5 C 422 43.5 423.1 44.6 423.1 46.2 C 423.1 46.3 423.1 46.3 423.1 46.4 Z M 418.7 45.9 C 418.7 45.9 422.4 45.9 422.4 45.9 C 422.3 44.9 421.6 44.1 420.6 44.1 C 419.5 44.1 418.8 44.9 418.7 45.9 Z " stroke="none" fill="#323132"/>
  </g>
  <g id="Polygon122737">
    <path d="M 20.4 46.2 L 16.2 48.3 L 16.2 44.1 L 20.4 46.2 Z " stroke="none" fill="#a243ff"/>
  </g>
  <g id="Polygon122736">
    <path d="M 34.8 27.5 C 34.5 27.8 34.1 27.9 33.6 27.9 C 32.7 27.9 32.1 27.3 32.1 26.4 C 32.11 26.36 32.1 23.2 32.1 23.2 L 31.2 23.2 L 31.2 22.6 L 32.1 22.6 L 32.1 21.4 L 32.8 21.4 L 32.8 22.6 L 34.4 22.6 L 34.4 23.2 L 32.8 23.2 C 32.8 23.2 32.82 26.32 32.8 26.3 C 32.8 26.9 33.1 27.3 33.7 27.3 C 34 27.3 34.3 27.2 34.5 27 C 34.5 27 34.8 27.5 34.8 27.5 Z M 40.8 24.8 C 40.79 24.79 40.8 27.8 40.8 27.8 L 40.1 27.8 C 40.1 27.8 40.08 24.86 40.1 24.9 C 40.1 23.7 39.5 23.2 38.5 23.2 C 37.4 23.2 36.7 23.9 36.7 25.1 C 36.66 25.08 36.7 27.8 36.7 27.8 L 35.9 27.8 L 35.9 20.4 L 36.7 20.4 C 36.7 20.4 36.66 23.5 36.7 23.5 C 37 22.9 37.7 22.5 38.6 22.5 C 39.9 22.5 40.8 23.3 40.8 24.8 Z M 47.3 25.4 C 47.3 25.4 42.9 25.4 42.9 25.4 C 43 26.5 43.8 27.3 45 27.3 C 45.6 27.3 46.2 27 46.6 26.6 C 46.6 26.6 47 27 47 27 C 46.5 27.6 45.8 27.9 44.9 27.9 C 43.3 27.9 42.2 26.8 42.2 25.2 C 42.2 23.6 43.3 22.5 44.7 22.5 C 46.2 22.5 47.3 23.6 47.3 25.2 C 47.3 25.3 47.3 25.3 47.3 25.4 Z M 42.9 24.9 C 42.9 24.9 46.6 24.9 46.6 24.9 C 46.5 23.9 45.8 23.1 44.7 23.1 C 43.7 23.1 43 23.9 42.9 24.9 Z M 54 22.5 C 54 22.5 54 23.2 54 23.2 C 53.9 23.2 53.9 23.2 53.8 23.2 C 52.7 23.2 52.1 23.9 52.1 25.2 C 52.07 25.16 52.1 27.8 52.1 27.8 L 51.4 27.8 L 51.4 22.6 L 52 22.6 C 52 22.6 52.04 23.61 52 23.6 C 52.4 22.9 53 22.5 54 22.5 Z M 55.1 20.9 C 55.1 20.7 55.3 20.4 55.6 20.4 C 55.9 20.4 56.1 20.6 56.1 20.9 C 56.1 21.2 55.9 21.4 55.6 21.4 C 55.3 21.4 55.1 21.2 55.1 20.9 Z M 55.2 22.6 L 55.9 22.6 L 55.9 27.8 L 55.2 27.8 L 55.2 22.6 Z M 57.2 27.2 C 57.2 27.2 57.5 26.7 57.5 26.7 C 58 27 58.7 27.3 59.4 27.3 C 60.4 27.3 60.8 26.9 60.8 26.4 C 60.8 25 57.4 26.1 57.4 24 C 57.4 23.2 58.1 22.5 59.5 22.5 C 60.2 22.5 60.9 22.7 61.3 23 C 61.3 23 61 23.6 61 23.6 C 60.6 23.3 60 23.1 59.5 23.1 C 58.5 23.1 58.1 23.5 58.1 24 C 58.1 25.4 61.5 24.4 61.5 26.4 C 61.5 27.3 60.7 27.9 59.4 27.9 C 58.5 27.9 57.6 27.6 57.2 27.2 Z M 64.8 25.2 L 63.5 26.3 L 63.5 27.8 L 62.8 27.8 L 62.8 20.4 L 63.5 20.4 L 63.5 25.4 L 66.7 22.6 L 67.6 22.6 L 65.3 24.7 L 67.8 27.8 L 66.9 27.8 L 64.8 25.2 Z M 70.9 25.2 C 70.9 23.6 72.1 22.5 73.6 22.5 C 75.2 22.5 76.3 23.6 76.3 25.2 C 76.3 26.8 75.2 27.9 73.6 27.9 C 72.1 27.9 70.9 26.8 70.9 25.2 Z M 75.6 25.2 C 75.6 24 74.7 23.2 73.6 23.2 C 72.5 23.2 71.7 24 71.7 25.2 C 71.7 26.4 72.5 27.3 73.6 27.3 C 74.7 27.3 75.6 26.4 75.6 25.2 Z M 78.5 22 C 78.48 21.96 78.5 22.6 78.5 22.6 L 80.1 22.6 L 80.1 23.2 L 78.5 23.2 L 78.5 27.8 L 77.8 27.8 L 77.8 23.2 L 76.9 23.2 L 76.9 22.6 L 77.8 22.6 C 77.8 22.6 77.79 21.93 77.8 21.9 C 77.8 21 78.4 20.4 79.4 20.4 C 79.8 20.4 80.2 20.5 80.4 20.7 C 80.4 20.7 80.2 21.2 80.2 21.2 C 80 21.1 79.7 21 79.4 21 C 78.8 21 78.5 21.3 78.5 22 Z M 83.5 20.9 C 83.5 20.7 83.8 20.4 84 20.4 C 84.3 20.4 84.6 20.6 84.6 20.9 C 84.6 21.2 84.3 21.4 84 21.4 C 83.8 21.4 83.5 21.2 83.5 20.9 Z M 83.7 22.6 L 84.4 22.6 L 84.4 27.8 L 83.7 27.8 L 83.7 22.6 Z M 91.1 24.8 C 91.07 24.79 91.1 27.8 91.1 27.8 L 90.4 27.8 C 90.4 27.8 90.37 24.86 90.4 24.9 C 90.4 23.7 89.8 23.2 88.8 23.2 C 87.7 23.2 86.9 23.9 86.9 25.1 C 86.94 25.08 86.9 27.8 86.9 27.8 L 86.2 27.8 L 86.2 22.6 L 86.9 22.6 C 86.9 22.6 86.91 23.55 86.9 23.5 C 87.3 22.9 88 22.5 88.9 22.5 C 90.2 22.5 91.1 23.3 91.1 24.8 Z M 92.7 20.9 C 92.7 20.7 93 20.4 93.3 20.4 C 93.5 20.4 93.8 20.6 93.8 20.9 C 93.8 21.2 93.6 21.4 93.3 21.4 C 93 21.4 92.7 21.2 92.7 20.9 Z M 91 29.5 C 91 29.5 91.2 29 91.2 29 C 91.4 29.1 91.7 29.2 92 29.2 C 92.6 29.2 92.9 28.9 92.9 28.2 C 92.9 28.23 92.9 22.6 92.9 22.6 L 93.6 22.6 C 93.6 22.6 93.6 28.23 93.6 28.2 C 93.6 29.2 93.1 29.8 92.1 29.8 C 91.6 29.8 91.2 29.7 91 29.5 Z M 100.2 22.6 L 100.2 27.8 L 99.5 27.8 C 99.5 27.8 99.49 26.88 99.5 26.9 C 99.1 27.5 98.4 27.9 97.6 27.9 C 96.3 27.9 95.4 27.1 95.4 25.6 C 95.38 25.63 95.4 22.6 95.4 22.6 L 96.1 22.6 C 96.1 22.6 96.09 25.56 96.1 25.6 C 96.1 26.7 96.7 27.3 97.7 27.3 C 98.8 27.3 99.5 26.5 99.5 25.3 C 99.46 25.34 99.5 22.6 99.5 22.6 L 100.2 22.6 Z M 104.7 22.5 C 104.7 22.5 104.7 23.2 104.7 23.2 C 104.6 23.2 104.6 23.2 104.5 23.2 C 103.4 23.2 102.7 23.9 102.7 25.2 C 102.74 25.16 102.7 27.8 102.7 27.8 L 102 27.8 L 102 22.6 L 102.7 22.6 C 102.7 22.6 102.71 23.61 102.7 23.6 C 103 22.9 103.7 22.5 104.7 22.5 Z M 110.8 22.6 C 110.8 22.6 108.17 28.47 108.2 28.5 C 107.7 29.5 107.2 29.8 106.4 29.8 C 105.9 29.8 105.5 29.7 105.1 29.4 C 105.1 29.4 105.5 28.8 105.5 28.8 C 105.7 29.1 106 29.2 106.4 29.2 C 106.9 29.2 107.2 29 107.5 28.3 C 107.52 28.34 107.7 27.8 107.7 27.8 L 105.4 22.6 L 106.1 22.6 L 108.1 27.1 L 110.1 22.6 L 110.8 22.6 Z M 119.2 20.4 L 119.2 27.8 L 118.5 27.8 C 118.5 27.8 118.54 26.8 118.5 26.8 C 118.1 27.5 117.4 27.9 116.5 27.9 C 115 27.9 113.9 26.8 113.9 25.2 C 113.9 23.6 115 22.5 116.5 22.5 C 117.3 22.5 118.1 22.9 118.5 23.6 C 118.51 23.58 118.5 20.4 118.5 20.4 L 119.2 20.4 Z M 118.5 25.2 C 118.5 24 117.7 23.2 116.6 23.2 C 115.4 23.2 114.6 24 114.6 25.2 C 114.6 26.4 115.4 27.3 116.6 27.3 C 117.7 27.3 118.5 26.4 118.5 25.2 Z M 125.8 25.4 C 125.8 25.4 121.4 25.4 121.4 25.4 C 121.5 26.5 122.3 27.3 123.4 27.3 C 124.1 27.3 124.7 27 125.1 26.6 C 125.1 26.6 125.5 27 125.5 27 C 125 27.6 124.3 27.9 123.4 27.9 C 121.8 27.9 120.7 26.8 120.7 25.2 C 120.7 23.6 121.8 22.5 123.2 22.5 C 124.7 22.5 125.8 23.6 125.8 25.2 C 125.8 25.3 125.8 25.3 125.8 25.4 Z M 121.4 24.9 C 121.4 24.9 125.1 24.9 125.1 24.9 C 125 23.9 124.3 23.1 123.2 23.1 C 122.2 23.1 121.5 23.9 121.4 24.9 Z M 126.8 25.2 C 126.8 23.6 127.9 22.5 129.5 22.5 C 130.4 22.5 131.1 22.9 131.6 23.6 C 131.6 23.6 131 23.9 131 23.9 C 130.7 23.4 130.1 23.2 129.5 23.2 C 128.3 23.2 127.5 24 127.5 25.2 C 127.5 26.5 128.3 27.3 129.5 27.3 C 130.1 27.3 130.7 27 131 26.5 C 131 26.5 131.6 26.9 131.6 26.9 C 131.1 27.5 130.4 27.9 129.5 27.9 C 127.9 27.9 126.8 26.8 126.8 25.2 Z M 135.5 22.5 C 135.5 22.5 135.5 23.2 135.5 23.2 C 135.5 23.2 135.4 23.2 135.3 23.2 C 134.2 23.2 133.6 23.9 133.6 25.2 C 133.58 25.16 133.6 27.8 133.6 27.8 L 132.9 27.8 L 132.9 22.6 L 133.5 22.6 C 133.5 22.6 133.55 23.61 133.5 23.6 C 133.9 22.9 134.5 22.5 135.5 22.5 Z M 141.3 25.4 C 141.3 25.4 136.9 25.4 136.9 25.4 C 136.9 26.5 137.8 27.3 138.9 27.3 C 139.6 27.3 140.1 27 140.5 26.6 C 140.5 26.6 140.9 27 140.9 27 C 140.5 27.6 139.7 27.9 138.9 27.9 C 137.3 27.9 136.1 26.8 136.1 25.2 C 136.1 23.6 137.2 22.5 138.7 22.5 C 140.2 22.5 141.3 23.6 141.3 25.2 C 141.3 25.3 141.3 25.3 141.3 25.4 Z M 136.9 24.9 C 136.9 24.9 140.6 24.9 140.6 24.9 C 140.5 23.9 139.7 23.1 138.7 23.1 C 137.7 23.1 136.9 23.9 136.9 24.9 Z M 146.6 24.6 C 146.65 24.58 146.6 27.8 146.6 27.8 L 146 27.8 C 146 27.8 145.97 27.02 146 27 C 145.6 27.6 145 27.9 144.2 27.9 C 143 27.9 142.2 27.3 142.2 26.4 C 142.2 25.5 142.8 24.9 144.3 24.9 C 144.27 24.87 145.9 24.9 145.9 24.9 C 145.9 24.9 145.94 24.55 145.9 24.6 C 145.9 23.6 145.4 23.2 144.4 23.2 C 143.8 23.2 143.1 23.4 142.7 23.8 C 142.7 23.8 142.4 23.2 142.4 23.2 C 142.9 22.8 143.7 22.5 144.5 22.5 C 145.9 22.5 146.6 23.2 146.6 24.6 Z M 145.9 26.3 C 145.94 26.26 145.9 25.4 145.9 25.4 C 145.9 25.4 144.29 25.4 144.3 25.4 C 143.3 25.4 142.9 25.8 142.9 26.3 C 142.9 27 143.4 27.3 144.3 27.3 C 145.1 27.3 145.7 27 145.9 26.3 Z M 147.9 27.2 C 147.9 27.2 148.2 26.7 148.2 26.7 C 148.6 27 149.3 27.3 150.1 27.3 C 151.1 27.3 151.5 26.9 151.5 26.4 C 151.5 25 148.1 26.1 148.1 24 C 148.1 23.2 148.8 22.5 150.1 22.5 C 150.8 22.5 151.6 22.7 152 23 C 152 23 151.7 23.6 151.7 23.6 C 151.2 23.3 150.7 23.1 150.1 23.1 C 149.2 23.1 148.8 23.5 148.8 24 C 148.8 25.4 152.2 24.4 152.2 26.4 C 152.2 27.3 151.4 27.9 150 27.9 C 149.1 27.9 148.3 27.6 147.9 27.2 Z M 158.2 25.4 C 158.2 25.4 153.8 25.4 153.8 25.4 C 153.8 26.5 154.7 27.3 155.8 27.3 C 156.5 27.3 157 27 157.4 26.6 C 157.4 26.6 157.8 27 157.8 27 C 157.4 27.6 156.6 27.9 155.8 27.9 C 154.2 27.9 153.1 26.8 153.1 25.2 C 153.1 23.6 154.1 22.5 155.6 22.5 C 157.1 22.5 158.2 23.6 158.2 25.2 C 158.2 25.3 158.2 25.3 158.2 25.4 Z M 153.8 24.9 C 153.8 24.9 157.5 24.9 157.5 24.9 C 157.4 23.9 156.7 23.1 155.6 23.1 C 154.6 23.1 153.9 23.9 153.8 24.9 Z M 159 27.2 C 159 27.2 159.3 26.7 159.3 26.7 C 159.7 27 160.4 27.3 161.2 27.3 C 162.2 27.3 162.6 26.9 162.6 26.4 C 162.6 25 159.2 26.1 159.2 24 C 159.2 23.2 159.9 22.5 161.2 22.5 C 161.9 22.5 162.7 22.7 163.1 23 C 163.1 23 162.8 23.6 162.8 23.6 C 162.3 23.3 161.8 23.1 161.2 23.1 C 160.3 23.1 159.9 23.5 159.9 24 C 159.9 25.4 163.3 24.4 163.3 26.4 C 163.3 27.3 162.5 27.9 161.1 27.9 C 160.2 27.9 159.4 27.6 159 27.2 Z M 174.9 22.6 L 172.9 27.8 L 172.3 27.8 L 170.6 23.5 L 168.9 27.8 L 168.3 27.8 L 166.3 22.6 L 167 22.6 L 168.6 27.1 L 170.3 22.6 L 170.9 22.6 L 172.6 27.1 L 174.3 22.6 L 174.9 22.6 Z M 175.9 20.9 C 175.9 20.7 176.1 20.4 176.4 20.4 C 176.7 20.4 176.9 20.6 176.9 20.9 C 176.9 21.2 176.7 21.4 176.4 21.4 C 176.1 21.4 175.9 21.2 175.9 20.9 Z M 176 22.6 L 176.7 22.6 L 176.7 27.8 L 176 27.8 L 176 22.6 Z M 181.4 27.5 C 181.2 27.8 180.7 27.9 180.3 27.9 C 179.3 27.9 178.8 27.3 178.8 26.4 C 178.79 26.36 178.8 23.2 178.8 23.2 L 177.8 23.2 L 177.8 22.6 L 178.8 22.6 L 178.8 21.4 L 179.5 21.4 L 179.5 22.6 L 181.1 22.6 L 181.1 23.2 L 179.5 23.2 C 179.5 23.2 179.49 26.32 179.5 26.3 C 179.5 26.9 179.8 27.3 180.4 27.3 C 180.7 27.3 181 27.2 181.2 27 C 181.2 27 181.4 27.5 181.4 27.5 Z M 187.5 24.8 C 187.46 24.79 187.5 27.8 187.5 27.8 L 186.8 27.8 C 186.8 27.8 186.75 24.86 186.8 24.9 C 186.8 23.7 186.2 23.2 185.2 23.2 C 184 23.2 183.3 23.9 183.3 25.1 C 183.33 25.08 183.3 27.8 183.3 27.8 L 182.6 27.8 L 182.6 20.4 L 183.3 20.4 C 183.3 20.4 183.33 23.5 183.3 23.5 C 183.7 22.9 184.4 22.5 185.3 22.5 C 186.6 22.5 187.5 23.3 187.5 24.8 Z M 194.8 27.5 C 194.5 27.8 194.1 27.9 193.7 27.9 C 192.7 27.9 192.1 27.3 192.1 26.4 C 192.13 26.36 192.1 23.2 192.1 23.2 L 191.2 23.2 L 191.2 22.6 L 192.1 22.6 L 192.1 21.4 L 192.8 21.4 L 192.8 22.6 L 194.4 22.6 L 194.4 23.2 L 192.8 23.2 C 192.8 23.2 192.84 26.32 192.8 26.3 C 192.8 26.9 193.2 27.3 193.8 27.3 C 194 27.3 194.3 27.2 194.5 27 C 194.5 27 194.8 27.5 194.8 27.5 Z M 200.8 24.8 C 200.81 24.79 200.8 27.8 200.8 27.8 L 200.1 27.8 C 200.1 27.8 200.1 24.86 200.1 24.9 C 200.1 23.7 199.5 23.2 198.5 23.2 C 197.4 23.2 196.7 23.9 196.7 25.1 C 196.68 25.08 196.7 27.8 196.7 27.8 L 196 27.8 L 196 20.4 L 196.7 20.4 C 196.7 20.4 196.68 23.5 196.7 23.5 C 197.1 22.9 197.8 22.5 198.7 22.5 C 199.9 22.5 200.8 23.3 200.8 24.8 Z M 207.3 25.4 C 207.3 25.4 202.9 25.4 202.9 25.4 C 203 26.5 203.8 27.3 205 27.3 C 205.6 27.3 206.2 27 206.6 26.6 C 206.6 26.6 207 27 207 27 C 206.5 27.6 205.8 27.9 205 27.9 C 203.3 27.9 202.2 26.8 202.2 25.2 C 202.2 23.6 203.3 22.5 204.8 22.5 C 206.2 22.5 207.3 23.6 207.3 25.2 C 207.3 25.3 207.3 25.3 207.3 25.4 Z M 202.9 24.9 C 202.9 24.9 206.6 24.9 206.6 24.9 C 206.5 23.9 205.8 23.1 204.8 23.1 C 203.7 23.1 203 23.9 202.9 24.9 Z M 216.2 24.8 C 216.22 24.79 216.2 27.8 216.2 27.8 L 215.5 27.8 C 215.5 27.8 215.51 24.86 215.5 24.9 C 215.5 23.7 214.9 23.2 213.9 23.2 C 212.8 23.2 212.1 23.9 212.1 25.1 C 212.09 25.08 212.1 27.8 212.1 27.8 L 211.4 27.8 L 211.4 22.6 L 212.1 22.6 C 212.1 22.6 212.06 23.55 212.1 23.5 C 212.4 22.9 213.2 22.5 214.1 22.5 C 215.3 22.5 216.2 23.3 216.2 24.8 Z M 222.7 22.6 L 222.7 27.8 L 222.1 27.8 C 222.1 27.8 222.07 26.88 222.1 26.9 C 221.7 27.5 221 27.9 220.2 27.9 C 218.8 27.9 218 27.1 218 25.6 C 217.96 25.63 218 22.6 218 22.6 L 218.7 22.6 C 218.7 22.6 218.67 25.56 218.7 25.6 C 218.7 26.7 219.2 27.3 220.2 27.3 C 221.3 27.3 222 26.5 222 25.3 C 222.04 25.34 222 22.6 222 22.6 L 222.7 22.6 Z M 233.3 24.8 C 233.29 24.79 233.3 27.8 233.3 27.8 L 232.6 27.8 C 232.6 27.8 232.58 24.86 232.6 24.9 C 232.6 23.7 232 23.2 231.1 23.2 C 230 23.2 229.3 23.9 229.3 25.1 C 229.31 25.08 229.3 27.8 229.3 27.8 L 228.6 27.8 C 228.6 27.8 228.6 24.86 228.6 24.9 C 228.6 23.7 228 23.2 227.1 23.2 C 226 23.2 225.3 23.9 225.3 25.1 C 225.32 25.08 225.3 27.8 225.3 27.8 L 224.6 27.8 L 224.6 22.6 L 225.3 22.6 C 225.3 22.6 225.29 23.54 225.3 23.5 C 225.7 22.9 226.3 22.5 227.2 22.5 C 228.1 22.5 228.8 22.9 229.1 23.6 C 229.5 23 230.2 22.5 231.2 22.5 C 232.5 22.5 233.3 23.3 233.3 24.8 Z M 240.4 25.2 C 240.4 26.8 239.3 27.9 237.8 27.9 C 237 27.9 236.2 27.5 235.8 26.8 C 235.79 26.8 235.8 27.8 235.8 27.8 L 235.1 27.8 L 235.1 20.4 L 235.8 20.4 C 235.8 20.4 235.82 23.58 235.8 23.6 C 236.3 22.9 237 22.5 237.8 22.5 C 239.3 22.5 240.4 23.6 240.4 25.2 Z M 239.7 25.2 C 239.7 24 238.9 23.2 237.8 23.2 C 236.7 23.2 235.8 24 235.8 25.2 C 235.8 26.4 236.7 27.3 237.8 27.3 C 238.9 27.3 239.7 26.4 239.7 25.2 Z M 246.6 25.4 C 246.6 25.4 242.2 25.4 242.2 25.4 C 242.2 26.5 243.1 27.3 244.2 27.3 C 244.9 27.3 245.4 27 245.8 26.6 C 245.8 26.6 246.2 27 246.2 27 C 245.8 27.6 245 27.9 244.2 27.9 C 242.6 27.9 241.5 26.8 241.5 25.2 C 241.5 23.6 242.5 22.5 244 22.5 C 245.5 22.5 246.6 23.6 246.6 25.2 C 246.6 25.3 246.6 25.3 246.6 25.4 Z M 242.2 24.9 C 242.2 24.9 245.9 24.9 245.9 24.9 C 245.8 23.9 245 23.1 244 23.1 C 243 23.1 242.2 23.9 242.2 24.9 Z M 250.6 22.5 C 250.6 22.5 250.6 23.2 250.6 23.2 C 250.6 23.2 250.5 23.2 250.5 23.2 C 249.4 23.2 248.7 23.9 248.7 25.2 C 248.68 25.16 248.7 27.8 248.7 27.8 L 248 27.8 L 248 22.6 L 248.7 22.6 C 248.7 22.6 248.65 23.61 248.7 23.6 C 249 22.9 249.7 22.5 250.6 22.5 Z M 254.1 25.2 C 254.1 23.6 255.2 22.5 256.8 22.5 C 258.3 22.5 259.4 23.6 259.4 25.2 C 259.4 26.8 258.3 27.9 256.8 27.9 C 255.2 27.9 254.1 26.8 254.1 25.2 Z M 258.7 25.2 C 258.7 24 257.9 23.2 256.8 23.2 C 255.6 23.2 254.8 24 254.8 25.2 C 254.8 26.4 255.6 27.3 256.8 27.3 C 257.9 27.3 258.7 26.4 258.7 25.2 Z M 261.6 22 C 261.62 21.96 261.6 22.6 261.6 22.6 L 263.2 22.6 L 263.2 23.2 L 261.6 23.2 L 261.6 27.8 L 260.9 27.8 L 260.9 23.2 L 260 23.2 L 260 22.6 L 260.9 22.6 C 260.9 22.6 260.93 21.93 260.9 21.9 C 260.9 21 261.5 20.4 262.5 20.4 C 262.9 20.4 263.3 20.5 263.6 20.7 C 263.6 20.7 263.3 21.2 263.3 21.2 C 263.1 21.1 262.8 21 262.5 21 C 261.9 21 261.6 21.3 261.6 22 Z M 271.7 24.8 C 271.66 24.79 271.7 27.8 271.7 27.8 L 271 27.8 C 271 27.8 270.95 24.86 271 24.9 C 271 23.7 270.4 23.2 269.4 23.2 C 268.2 23.2 267.5 23.9 267.5 25.1 C 267.53 25.08 267.5 27.8 267.5 27.8 L 266.8 27.8 L 266.8 20.4 L 267.5 20.4 C 267.5 20.4 267.53 23.5 267.5 23.5 C 267.9 22.9 268.6 22.5 269.5 22.5 C 270.8 22.5 271.7 23.3 271.7 24.8 Z M 273 25.2 C 273 23.6 274.2 22.5 275.7 22.5 C 277.3 22.5 278.4 23.6 278.4 25.2 C 278.4 26.8 277.3 27.9 275.7 27.9 C 274.2 27.9 273 26.8 273 25.2 Z M 277.7 25.2 C 277.7 24 276.8 23.2 275.7 23.2 C 274.6 23.2 273.8 24 273.8 25.2 C 273.8 26.4 274.6 27.3 275.7 27.3 C 276.8 27.3 277.7 26.4 277.7 25.2 Z M 284.5 22.6 L 284.5 27.8 L 283.9 27.8 C 283.9 27.8 283.87 26.88 283.9 26.9 C 283.5 27.5 282.8 27.9 282 27.9 C 280.6 27.9 279.8 27.1 279.8 25.6 C 279.76 25.63 279.8 22.6 279.8 22.6 L 280.5 22.6 C 280.5 22.6 280.47 25.56 280.5 25.6 C 280.5 26.7 281 27.3 282 27.3 C 283.1 27.3 283.8 26.5 283.8 25.3 C 283.84 25.34 283.8 22.6 283.8 22.6 L 284.5 22.6 Z M 289.1 22.5 C 289.1 22.5 289.1 23.2 289.1 23.2 C 289 23.2 288.9 23.2 288.9 23.2 C 287.8 23.2 287.1 23.9 287.1 25.2 C 287.12 25.16 287.1 27.8 287.1 27.8 L 286.4 27.8 L 286.4 22.6 L 287.1 22.6 C 287.1 22.6 287.09 23.61 287.1 23.6 C 287.4 22.9 288.1 22.5 289.1 22.5 Z M 289.7 27.2 C 289.7 27.2 290.1 26.7 290.1 26.7 C 290.5 27 291.2 27.3 291.9 27.3 C 292.9 27.3 293.3 26.9 293.3 26.4 C 293.3 25 289.9 26.1 289.9 24 C 289.9 23.2 290.7 22.5 292 22.5 C 292.7 22.5 293.4 22.7 293.9 23 C 293.9 23 293.6 23.6 293.6 23.6 C 293.1 23.3 292.5 23.1 292 23.1 C 291.1 23.1 290.6 23.5 290.6 24 C 290.6 25.4 294 24.4 294 26.4 C 294 27.3 293.2 27.9 291.9 27.9 C 291 27.9 290.2 27.6 289.7 27.2 Z M 305.7 22.6 L 303.7 27.8 L 303 27.8 L 301.4 23.5 L 299.7 27.8 L 299 27.8 L 297.1 22.6 L 297.7 22.6 L 299.4 27.1 L 301.1 22.6 L 301.7 22.6 L 303.4 27.1 L 305 22.6 L 305.7 22.6 Z M 306.2 25.2 C 306.2 23.6 307.3 22.5 308.8 22.5 C 310.4 22.5 311.5 23.6 311.5 25.2 C 311.5 26.8 310.4 27.9 308.8 27.9 C 307.3 27.9 306.2 26.8 306.2 25.2 Z M 310.8 25.2 C 310.8 24 310 23.2 308.8 23.2 C 307.7 23.2 306.9 24 306.9 25.2 C 306.9 26.4 307.7 27.3 308.8 27.3 C 310 27.3 310.8 26.4 310.8 25.2 Z M 315.6 22.5 C 315.6 22.5 315.6 23.2 315.6 23.2 C 315.5 23.2 315.5 23.2 315.4 23.2 C 314.3 23.2 313.6 23.9 313.6 25.2 C 313.65 25.16 313.6 27.8 313.6 27.8 L 312.9 27.8 L 312.9 22.6 L 313.6 22.6 C 313.6 22.6 313.62 23.61 313.6 23.6 C 313.9 22.9 314.6 22.5 315.6 22.5 Z M 318.8 25.2 L 317.5 26.3 L 317.5 27.8 L 316.8 27.8 L 316.8 20.4 L 317.5 20.4 L 317.5 25.4 L 320.7 22.6 L 321.5 22.6 L 319.3 24.7 L 321.8 27.8 L 320.9 27.8 L 318.8 25.2 Z M 327.2 25.4 C 327.2 25.4 322.8 25.4 322.8 25.4 C 322.9 26.5 323.7 27.3 324.9 27.3 C 325.5 27.3 326.1 27 326.5 26.6 C 326.5 26.6 326.9 27 326.9 27 C 326.4 27.6 325.7 27.9 324.9 27.9 C 323.2 27.9 322.1 26.8 322.1 25.2 C 322.1 23.6 323.2 22.5 324.7 22.5 C 326.1 22.5 327.2 23.6 327.2 25.2 C 327.2 25.3 327.2 25.3 327.2 25.4 Z M 322.8 24.9 C 322.8 24.9 326.5 24.9 326.5 24.9 C 326.4 23.9 325.7 23.1 324.7 23.1 C 323.6 23.1 322.9 23.9 322.8 24.9 Z M 333.5 20.4 L 333.5 27.8 L 332.9 27.8 C 332.9 27.8 332.86 26.8 332.9 26.8 C 332.4 27.5 331.7 27.9 330.8 27.9 C 329.3 27.9 328.2 26.8 328.2 25.2 C 328.2 23.6 329.3 22.5 330.8 22.5 C 331.7 22.5 332.4 22.9 332.8 23.6 C 332.83 23.58 332.8 20.4 332.8 20.4 L 333.5 20.4 Z M 332.8 25.2 C 332.8 24 332 23.2 330.9 23.2 C 329.8 23.2 328.9 24 328.9 25.2 C 328.9 26.4 329.8 27.3 330.9 27.3 C 332 27.3 332.8 26.4 332.8 25.2 Z M 335 23.1 C 335 22.8 335.2 22.5 335.5 22.5 C 335.8 22.5 336 22.8 336 23.1 C 336 23.4 335.8 23.6 335.5 23.6 C 335.2 23.6 335 23.4 335 23.1 Z M 336 27.3 C 336 27.5 336 27.6 335.9 27.9 C 335.91 27.92 335.5 29.3 335.5 29.3 L 335 29.3 C 335 29.3 335.35 27.85 335.3 27.8 C 335.1 27.8 335 27.6 335 27.3 C 335 27 335.2 26.8 335.5 26.8 C 335.8 26.8 336 27 336 27.3 Z " stroke="none" fill="#323132"/>
  </g>
  <g id="Polygon122735">
    <path d="M 20.4 25.2 L 16.2 27.3 L 16.2 23.1 L 20.4 25.2 Z " stroke="none" fill="#a243ff"/>
  </g>
</svg>