<?xml version="1.0" standalone="no"?>
<!DOCTYPE svg PUBLIC "-//W3C//DTD SVG 1.1//EN" "http://www.w3.org/Graphics/SVG/1.1/DTD/svg11.dtd">
<svg xmlns="http://www.w3.org/2000/svg" version="1.1" width="485px" height="83px" viewBox="0 0 485 83">
  <desc>Individual factors</desc>
  <defs/>
  <g id="Polygon120370">
    <path d="M 27.7 45.4 L 27.7 31.4 L 30.9 31.4 L 30.9 45.4 L 27.7 45.4 Z M 40.4 34.4 C 41.3 34.4 42 34.6 42.7 34.9 C 43.4 35.3 43.9 35.8 44.3 36.5 C 44.7 37.2 44.9 38.1 44.9 39.2 C 44.86 39.2 44.9 45.4 44.9 45.4 L 41.7 45.4 C 41.7 45.4 41.74 39.68 41.7 39.7 C 41.7 38.8 41.6 38.2 41.2 37.8 C 40.8 37.3 40.3 37.1 39.6 37.1 C 39.1 37.1 38.6 37.2 38.2 37.4 C 37.8 37.7 37.5 38 37.3 38.4 C 37.1 38.8 37 39.4 37 40 C 36.98 40.04 37 45.4 37 45.4 L 33.9 45.4 L 33.9 34.6 L 36.8 34.6 L 36.8 37.6 C 36.8 37.6 36.28 36.68 36.3 36.7 C 36.7 36 37.2 35.4 37.9 35 C 38.7 34.6 39.5 34.4 40.4 34.4 Z M 52.1 45.5 C 51.1 45.5 50.2 45.3 49.4 44.8 C 48.6 44.4 47.9 43.7 47.5 42.9 C 47 42.1 46.8 41.1 46.8 40 C 46.8 38.8 47 37.9 47.5 37 C 47.9 36.2 48.6 35.6 49.4 35.1 C 50.2 34.7 51.1 34.4 52.1 34.4 C 53 34.4 53.8 34.6 54.5 35 C 55.2 35.4 55.7 36 56.1 36.9 C 56.5 37.7 56.7 38.7 56.7 40 C 56.7 41.2 56.5 42.3 56.1 43.1 C 55.8 43.9 55.2 44.5 54.6 44.9 C 53.9 45.3 53.1 45.5 52.1 45.5 Z M 52.7 43 C 53.2 43 53.6 42.8 54.1 42.6 C 54.5 42.4 54.8 42 55 41.6 C 55.3 41.1 55.4 40.6 55.4 40 C 55.4 39.4 55.3 38.8 55 38.4 C 54.8 37.9 54.5 37.6 54.1 37.4 C 53.6 37.1 53.2 37 52.7 37 C 52.2 37 51.7 37.1 51.3 37.4 C 50.9 37.6 50.5 37.9 50.3 38.4 C 50 38.8 49.9 39.4 49.9 40 C 49.9 40.6 50 41.1 50.3 41.6 C 50.5 42 50.9 42.4 51.3 42.6 C 51.7 42.8 52.2 43 52.7 43 Z M 55.5 45.4 L 55.5 43.2 L 55.6 40 L 55.4 36.8 L 55.4 30.5 L 58.5 30.5 L 58.5 45.4 L 55.5 45.4 Z M 61.2 45.4 L 61.2 34.6 L 64.3 34.6 L 64.3 45.4 L 61.2 45.4 Z M 62.7 33.1 C 62.1 33.1 61.7 32.9 61.3 32.6 C 61 32.3 60.8 31.9 60.8 31.4 C 60.8 30.9 61 30.5 61.3 30.1 C 61.7 29.8 62.1 29.6 62.7 29.6 C 63.3 29.6 63.8 29.8 64.1 30.1 C 64.5 30.4 64.7 30.8 64.7 31.3 C 64.7 31.8 64.5 32.2 64.1 32.6 C 63.8 32.9 63.3 33.1 62.7 33.1 Z M 70.1 45.4 L 65.5 34.6 L 68.8 34.6 L 72.5 43.9 L 70.9 43.9 L 74.8 34.6 L 77.8 34.6 L 73.3 45.4 L 70.1 45.4 Z M 79 45.4 L 79 34.6 L 82.2 34.6 L 82.2 45.4 L 79 45.4 Z M 80.6 33.1 C 80 33.1 79.6 32.9 79.2 32.6 C 78.8 32.3 78.7 31.9 78.7 31.4 C 78.7 30.9 78.8 30.5 79.2 30.1 C 79.6 29.8 80 29.6 80.6 29.6 C 81.2 29.6 81.6 29.8 82 30.1 C 82.4 30.4 82.5 30.8 82.5 31.3 C 82.5 31.8 82.4 32.2 82 32.6 C 81.7 32.9 81.2 33.1 80.6 33.1 Z M 89.5 45.5 C 88.5 45.5 87.6 45.3 86.8 44.8 C 86 44.4 85.3 43.7 84.8 42.9 C 84.4 42.1 84.1 41.1 84.1 40 C 84.1 38.8 84.4 37.9 84.8 37 C 85.3 36.2 86 35.6 86.8 35.1 C 87.6 34.7 88.5 34.4 89.5 34.4 C 90.4 34.4 91.2 34.6 91.9 35 C 92.6 35.4 93.1 36 93.5 36.9 C 93.8 37.7 94 38.7 94 40 C 94 41.2 93.8 42.3 93.5 43.1 C 93.1 43.9 92.6 44.5 91.9 44.9 C 91.3 45.3 90.5 45.5 89.5 45.5 Z M 90 43 C 90.6 43 91 42.8 91.4 42.6 C 91.8 42.4 92.2 42 92.4 41.6 C 92.7 41.1 92.8 40.6 92.8 40 C 92.8 39.4 92.7 38.8 92.4 38.4 C 92.2 37.9 91.8 37.6 91.4 37.4 C 91 37.1 90.6 37 90 37 C 89.5 37 89.1 37.1 88.6 37.4 C 88.2 37.6 87.9 37.9 87.7 38.4 C 87.4 38.8 87.3 39.4 87.3 40 C 87.3 40.6 87.4 41.1 87.7 41.6 C 87.9 42 88.2 42.4 88.6 42.6 C 89.1 42.8 89.5 43 90 43 Z M 92.9 45.4 L 92.9 43.2 L 92.9 40 L 92.7 36.8 L 92.7 30.5 L 95.8 30.5 L 95.8 45.4 L 92.9 45.4 Z M 103 45.5 C 102.1 45.5 101.3 45.3 100.6 45 C 99.9 44.7 99.4 44.1 99 43.4 C 98.6 42.7 98.4 41.8 98.4 40.7 C 98.44 40.68 98.4 34.6 98.4 34.6 L 101.6 34.6 C 101.6 34.6 101.56 40.22 101.6 40.2 C 101.6 41.1 101.7 41.8 102.1 42.2 C 102.5 42.6 103 42.8 103.7 42.8 C 104.2 42.8 104.6 42.7 105 42.5 C 105.4 42.3 105.7 42 105.9 41.5 C 106.1 41.1 106.2 40.6 106.2 39.9 C 106.22 39.92 106.2 34.6 106.2 34.6 L 109.3 34.6 L 109.3 45.4 L 106.4 45.4 L 106.4 42.4 C 106.4 42.4 106.92 43.26 106.9 43.3 C 106.6 44 106 44.6 105.3 44.9 C 104.6 45.3 103.9 45.5 103 45.5 Z M 118.7 45.4 L 118.7 43.3 L 118.5 42.8 C 118.5 42.8 118.47 39.04 118.5 39 C 118.5 38.4 118.3 37.9 117.9 37.5 C 117.4 37.1 116.8 36.9 116 36.9 C 115.4 36.9 114.8 37 114.3 37.2 C 113.7 37.4 113.3 37.6 112.9 37.9 C 112.9 37.9 111.8 35.7 111.8 35.7 C 112.4 35.3 113.1 35 113.9 34.8 C 114.7 34.6 115.6 34.4 116.4 34.4 C 118 34.4 119.3 34.8 120.2 35.6 C 121.1 36.4 121.6 37.6 121.6 39.2 C 121.59 39.22 121.6 45.4 121.6 45.4 L 118.7 45.4 Z M 115.4 45.5 C 114.5 45.5 113.8 45.4 113.2 45.1 C 112.6 44.8 112.2 44.4 111.8 43.9 C 111.5 43.4 111.4 42.9 111.4 42.3 C 111.4 41.6 111.5 41.1 111.8 40.6 C 112.1 40.1 112.6 39.7 113.3 39.4 C 114 39.2 114.9 39 116 39 C 115.99 39.04 118.8 39 118.8 39 L 118.8 40.9 C 118.8 40.9 116.33 40.86 116.3 40.9 C 115.6 40.9 115.1 41 114.8 41.2 C 114.5 41.5 114.4 41.8 114.4 42.1 C 114.4 42.5 114.6 42.8 114.9 43.1 C 115.2 43.3 115.6 43.4 116.2 43.4 C 116.7 43.4 117.2 43.3 117.6 43 C 118 42.8 118.3 42.4 118.5 42 C 118.5 42 118.9 43.4 118.9 43.4 C 118.7 44.1 118.3 44.6 117.7 45 C 117.1 45.3 116.3 45.5 115.4 45.5 Z M 124.2 45.4 L 124.2 30.5 L 127.3 30.5 L 127.3 45.4 L 124.2 45.4 Z M 136.3 45.4 C 136.3 45.4 136.26 34.36 136.3 34.4 C 136.3 33.1 136.6 32.2 137.3 31.4 C 138.1 30.7 139.1 30.4 140.4 30.4 C 140.9 30.4 141.3 30.4 141.7 30.5 C 142.1 30.6 142.5 30.7 142.8 30.9 C 142.8 30.9 142 33.2 142 33.2 C 141.8 33.1 141.6 33 141.4 32.9 C 141.2 32.9 141 32.8 140.7 32.8 C 140.3 32.8 139.9 32.9 139.7 33.2 C 139.4 33.5 139.3 33.9 139.3 34.4 C 139.3 34.38 139.3 35.4 139.3 35.4 L 139.4 36.7 L 139.4 45.4 L 136.3 45.4 Z M 134.6 37.2 L 134.6 34.8 L 142.1 34.8 L 142.1 37.2 L 134.6 37.2 Z M 150.2 45.4 L 150.2 43.3 L 150 42.8 C 150 42.8 149.98 39.04 150 39 C 150 38.4 149.8 37.9 149.4 37.5 C 149 37.1 148.3 36.9 147.5 36.9 C 146.9 36.9 146.4 37 145.8 37.2 C 145.3 37.4 144.8 37.6 144.4 37.9 C 144.4 37.9 143.3 35.7 143.3 35.7 C 143.9 35.3 144.6 35 145.4 34.8 C 146.2 34.6 147.1 34.4 147.9 34.4 C 149.6 34.4 150.8 34.8 151.7 35.6 C 152.6 36.4 153.1 37.6 153.1 39.2 C 153.1 39.22 153.1 45.4 153.1 45.4 L 150.2 45.4 Z M 146.9 45.5 C 146.1 45.5 145.3 45.4 144.7 45.1 C 144.1 44.8 143.7 44.4 143.4 43.9 C 143 43.4 142.9 42.9 142.9 42.3 C 142.9 41.6 143 41.1 143.4 40.6 C 143.7 40.1 144.2 39.7 144.8 39.4 C 145.5 39.2 146.4 39 147.5 39 C 147.5 39.04 150.4 39 150.4 39 L 150.4 40.9 C 150.4 40.9 147.84 40.86 147.8 40.9 C 147.1 40.9 146.6 41 146.3 41.2 C 146.1 41.5 145.9 41.8 145.9 42.1 C 145.9 42.5 146.1 42.8 146.4 43.1 C 146.7 43.3 147.1 43.4 147.7 43.4 C 148.2 43.4 148.7 43.3 149.1 43 C 149.5 42.8 149.8 42.4 150 42 C 150 42 150.5 43.4 150.5 43.4 C 150.2 44.1 149.8 44.6 149.2 45 C 148.6 45.3 147.8 45.5 146.9 45.5 Z M 160.9 45.5 C 159.8 45.5 158.7 45.3 157.8 44.8 C 156.9 44.3 156.2 43.7 155.7 42.8 C 155.2 42 154.9 41 154.9 40 C 154.9 38.9 155.2 37.9 155.7 37.1 C 156.2 36.3 156.9 35.6 157.8 35.1 C 158.7 34.7 159.8 34.4 160.9 34.4 C 162.1 34.4 163.1 34.7 163.9 35.1 C 164.7 35.6 165.4 36.3 165.8 37.2 C 165.8 37.2 163.3 38.5 163.3 38.5 C 163.1 38 162.7 37.6 162.3 37.4 C 161.9 37.1 161.4 37 160.9 37 C 160.4 37 159.9 37.1 159.5 37.4 C 159.1 37.6 158.7 37.9 158.5 38.4 C 158.2 38.8 158.1 39.4 158.1 40 C 158.1 40.6 158.2 41.1 158.5 41.6 C 158.7 42 159.1 42.4 159.5 42.6 C 159.9 42.8 160.4 43 160.9 43 C 161.4 43 161.9 42.8 162.3 42.6 C 162.7 42.4 163.1 42 163.3 41.5 C 163.3 41.5 165.8 42.8 165.8 42.8 C 165.4 43.7 164.7 44.3 163.9 44.8 C 163.1 45.3 162.1 45.5 160.9 45.5 Z M 172.3 45.5 C 171 45.5 170 45.2 169.3 44.5 C 168.6 43.9 168.3 42.9 168.3 41.7 C 168.28 41.66 168.3 32.2 168.3 32.2 L 171.4 32.2 C 171.4 32.2 171.4 41.62 171.4 41.6 C 171.4 42.1 171.5 42.4 171.8 42.7 C 172 42.9 172.3 43 172.7 43 C 173.2 43 173.7 42.9 174 42.6 C 174 42.6 174.8 44.8 174.8 44.8 C 174.5 45.1 174.1 45.2 173.7 45.3 C 173.2 45.5 172.8 45.5 172.3 45.5 Z M 166.6 37.2 L 166.6 34.8 L 174.1 34.8 L 174.1 37.2 L 166.6 37.2 Z M 181.4 45.5 C 180.2 45.5 179.2 45.3 178.3 44.8 C 177.4 44.3 176.7 43.7 176.2 42.8 C 175.7 42 175.5 41 175.5 40 C 175.5 38.9 175.7 37.9 176.2 37.1 C 176.7 36.3 177.4 35.6 178.3 35.1 C 179.2 34.7 180.2 34.4 181.4 34.4 C 182.5 34.4 183.5 34.7 184.4 35.1 C 185.3 35.6 186 36.3 186.5 37.1 C 187 37.9 187.3 38.9 187.3 40 C 187.3 41 187 42 186.5 42.8 C 186 43.7 185.3 44.3 184.4 44.8 C 183.5 45.3 182.5 45.5 181.4 45.5 Z M 181.4 43 C 181.9 43 182.4 42.8 182.8 42.6 C 183.2 42.4 183.5 42 183.8 41.6 C 184 41.1 184.1 40.6 184.1 40 C 184.1 39.4 184 38.8 183.8 38.4 C 183.5 37.9 183.2 37.6 182.8 37.4 C 182.4 37.1 181.9 37 181.4 37 C 180.9 37 180.4 37.1 180 37.4 C 179.6 37.6 179.2 37.9 179 38.4 C 178.7 38.8 178.6 39.4 178.6 40 C 178.6 40.6 178.7 41.1 179 41.6 C 179.2 42 179.6 42.4 180 42.6 C 180.4 42.8 180.9 43 181.4 43 Z M 189.2 45.4 L 189.2 34.6 L 192.2 34.6 L 192.2 37.6 C 192.2 37.6 191.77 36.76 191.8 36.8 C 192.1 36 192.6 35.4 193.3 35 C 194 34.6 194.9 34.4 195.9 34.4 C 195.9 34.4 195.9 37.3 195.9 37.3 C 195.8 37.3 195.6 37.3 195.5 37.3 C 195.4 37.3 195.3 37.3 195.2 37.3 C 194.3 37.3 193.6 37.5 193.1 38 C 192.6 38.5 192.3 39.3 192.3 40.3 C 192.33 40.28 192.3 45.4 192.3 45.4 L 189.2 45.4 Z M 201.5 45.5 C 200.6 45.5 199.7 45.4 198.8 45.2 C 198 45 197.3 44.7 196.8 44.4 C 196.8 44.4 197.9 42.1 197.9 42.1 C 198.3 42.4 198.9 42.7 199.6 42.9 C 200.3 43.1 200.9 43.2 201.6 43.2 C 202.3 43.2 202.8 43.1 203.1 42.9 C 203.4 42.7 203.6 42.5 203.6 42.2 C 203.6 41.9 203.5 41.7 203.2 41.6 C 203 41.5 202.7 41.4 202.3 41.3 C 201.9 41.3 201.5 41.2 201 41.1 C 200.6 41.1 200.1 41 199.6 40.8 C 199.2 40.7 198.7 40.6 198.4 40.3 C 198 40.1 197.7 39.8 197.4 39.4 C 197.2 39 197.1 38.5 197.1 37.9 C 197.1 37.2 197.3 36.6 197.7 36.1 C 198.1 35.6 198.6 35.2 199.4 34.9 C 200.1 34.6 201 34.4 202.1 34.4 C 202.8 34.4 203.5 34.5 204.3 34.7 C 205.1 34.8 205.7 35.1 206.2 35.4 C 206.2 35.4 205.2 37.6 205.2 37.6 C 204.6 37.3 204.1 37.1 203.6 37 C 203.1 36.9 202.5 36.8 202.1 36.8 C 201.4 36.8 200.9 36.9 200.5 37.1 C 200.2 37.3 200.1 37.5 200.1 37.8 C 200.1 38.1 200.2 38.3 200.4 38.4 C 200.6 38.5 200.9 38.6 201.3 38.7 C 201.7 38.8 202.1 38.9 202.6 38.9 C 203.1 39 203.5 39.1 204 39.2 C 204.5 39.3 204.9 39.5 205.3 39.7 C 205.6 39.9 206 40.2 206.2 40.6 C 206.4 41 206.6 41.5 206.6 42.1 C 206.6 42.8 206.4 43.4 206 43.9 C 205.6 44.4 205 44.8 204.2 45.1 C 203.5 45.4 202.6 45.5 201.5 45.5 Z " stroke="none" fill="#fff"/>
  </g>
</svg>