<?xml version="1.0" standalone="no"?>
<!DOCTYPE svg PUBLIC "-//W3C//DTD SVG 1.1//EN" "http://www.w3.org/Graphics/SVG/1.1/DTD/svg11.dtd">
<svg xmlns="http://www.w3.org/2000/svg" version="1.1" width="492px" height="123.5px" viewBox="0 0 492 123.5">
  <desc>Expectation Cultural influences will need to be considered, for example, in Europe flicking a switch downwards turns ...</desc>
  <defs/>
  <g id="Polygon117488">
    <path d="M 6.5 96.2 C 6.5 94.1 8.1 92.6 10.2 92.6 C 11.2 92.6 12.1 93 12.7 93.6 C 12.7 93.6 12.3 94.1 12.3 94.1 C 11.7 93.5 11 93.3 10.2 93.3 C 8.5 93.3 7.2 94.5 7.2 96.2 C 7.2 97.8 8.5 99.1 10.2 99.1 C 11 99.1 11.7 98.8 12.3 98.2 C 12.3 98.2 12.7 98.7 12.7 98.7 C 12.1 99.4 11.2 99.7 10.2 99.7 C 8.1 99.7 6.5 98.2 6.5 96.2 Z M 13.6 97 C 13.6 95.5 14.7 94.4 16.3 94.4 C 17.8 94.4 18.9 95.5 18.9 97 C 18.9 98.6 17.8 99.7 16.3 99.7 C 14.7 99.7 13.6 98.6 13.6 97 Z M 18.2 97 C 18.2 95.8 17.4 95 16.3 95 C 15.1 95 14.3 95.8 14.3 97 C 14.3 98.3 15.1 99.1 16.3 99.1 C 17.4 99.1 18.2 98.3 18.2 97 Z M 25.2 96.6 C 25.2 96.63 25.2 99.7 25.2 99.7 L 24.5 99.7 C 24.5 99.7 24.49 96.7 24.5 96.7 C 24.5 95.6 23.9 95 22.9 95 C 21.8 95 21.1 95.7 21.1 96.9 C 21.07 96.92 21.1 99.7 21.1 99.7 L 20.4 99.7 L 20.4 94.4 L 21 94.4 C 21 94.4 21.04 95.39 21 95.4 C 21.4 94.7 22.1 94.4 23 94.4 C 24.3 94.4 25.2 95.1 25.2 96.6 Z M 29.7 99.4 C 29.4 99.6 29 99.7 28.6 99.7 C 27.6 99.7 27.1 99.2 27.1 98.2 C 27.08 98.2 27.1 95 27.1 95 L 26.1 95 L 26.1 94.4 L 27.1 94.4 L 27.1 93.3 L 27.8 93.3 L 27.8 94.4 L 29.4 94.4 L 29.4 95 L 27.8 95 C 27.8 95 27.79 98.16 27.8 98.2 C 27.8 98.8 28.1 99.1 28.7 99.1 C 29 99.1 29.3 99 29.5 98.9 C 29.5 98.9 29.7 99.4 29.7 99.4 Z M 33.6 94.4 C 33.6 94.4 33.6 95.1 33.6 95.1 C 33.5 95.1 33.4 95.1 33.4 95.1 C 32.3 95.1 31.6 95.8 31.6 97 C 31.63 97 31.6 99.7 31.6 99.7 L 30.9 99.7 L 30.9 94.4 L 31.6 94.4 C 31.6 94.4 31.6 95.45 31.6 95.4 C 31.9 94.7 32.6 94.4 33.6 94.4 Z M 34.2 97 C 34.2 95.5 35.3 94.4 36.9 94.4 C 38.4 94.4 39.5 95.5 39.5 97 C 39.5 98.6 38.4 99.7 36.9 99.7 C 35.3 99.7 34.2 98.6 34.2 97 Z M 38.8 97 C 38.8 95.8 38 95 36.9 95 C 35.7 95 34.9 95.8 34.9 97 C 34.9 98.3 35.7 99.1 36.9 99.1 C 38 99.1 38.8 98.3 38.8 97 Z M 41 92.3 L 41.7 92.3 L 41.7 99.7 L 41 99.7 L 41 92.3 Z M 43 99.1 C 43 99.1 43.3 98.5 43.3 98.5 C 43.7 98.9 44.4 99.1 45.2 99.1 C 46.2 99.1 46.6 98.8 46.6 98.3 C 46.6 96.9 43.2 98 43.2 95.9 C 43.2 95 43.9 94.4 45.2 94.4 C 45.9 94.4 46.7 94.6 47.1 94.9 C 47.1 94.9 46.8 95.4 46.8 95.4 C 46.3 95.1 45.8 95 45.2 95 C 44.3 95 43.9 95.4 43.9 95.9 C 43.9 97.3 47.3 96.2 47.3 98.2 C 47.3 99.1 46.5 99.7 45.1 99.7 C 44.2 99.7 43.4 99.4 43 99.1 Z M 50.7 97 C 50.7 95.5 51.8 94.4 53.4 94.4 C 54.9 94.4 56 95.5 56 97 C 56 98.6 54.9 99.7 53.4 99.7 C 51.8 99.7 50.7 98.6 50.7 97 Z M 55.3 97 C 55.3 95.8 54.5 95 53.4 95 C 52.2 95 51.4 95.8 51.4 97 C 51.4 98.3 52.2 99.1 53.4 99.1 C 54.5 99.1 55.3 98.3 55.3 97 Z M 62.3 96.6 C 62.29 96.63 62.3 99.7 62.3 99.7 L 61.6 99.7 C 61.6 99.7 61.59 96.7 61.6 96.7 C 61.6 95.6 61 95 60 95 C 58.9 95 58.2 95.7 58.2 96.9 C 58.16 96.92 58.2 99.7 58.2 99.7 L 57.5 99.7 L 57.5 94.4 L 58.1 94.4 C 58.1 94.4 58.13 95.39 58.1 95.4 C 58.5 94.7 59.2 94.4 60.1 94.4 C 61.4 94.4 62.3 95.1 62.3 96.6 Z M 66.1 99.1 C 66.1 99.1 66.4 98.5 66.4 98.5 C 66.9 98.9 67.6 99.1 68.3 99.1 C 69.3 99.1 69.7 98.8 69.7 98.3 C 69.7 96.9 66.3 98 66.3 95.9 C 66.3 95 67 94.4 68.4 94.4 C 69.1 94.4 69.8 94.6 70.2 94.9 C 70.2 94.9 69.9 95.4 69.9 95.4 C 69.5 95.1 68.9 95 68.4 95 C 67.4 95 67 95.4 67 95.9 C 67 97.3 70.4 96.2 70.4 98.2 C 70.4 99.1 69.6 99.7 68.3 99.7 C 67.4 99.7 66.5 99.4 66.1 99.1 Z M 71.6 92.8 C 71.6 92.5 71.8 92.3 72.1 92.3 C 72.4 92.3 72.6 92.5 72.6 92.7 C 72.6 93 72.4 93.3 72.1 93.3 C 71.8 93.3 71.6 93 71.6 92.8 Z M 71.7 94.4 L 72.4 94.4 L 72.4 99.7 L 71.7 99.7 L 71.7 94.4 Z M 83 96.6 C 82.96 96.63 83 99.7 83 99.7 L 82.3 99.7 C 82.3 99.7 82.25 96.7 82.3 96.7 C 82.3 95.6 81.7 95 80.7 95 C 79.7 95 79 95.7 79 96.9 C 78.98 96.92 79 99.7 79 99.7 L 78.3 99.7 C 78.3 99.7 78.27 96.7 78.3 96.7 C 78.3 95.6 77.7 95 76.8 95 C 75.7 95 75 95.7 75 96.9 C 74.99 96.92 75 99.7 75 99.7 L 74.3 99.7 L 74.3 94.4 L 75 94.4 C 75 94.4 74.96 95.38 75 95.4 C 75.3 94.7 76 94.4 76.9 94.4 C 77.8 94.4 78.4 94.7 78.8 95.5 C 79.1 94.8 79.9 94.4 80.8 94.4 C 82.1 94.4 83 95.1 83 96.6 Z M 84.6 92.8 C 84.6 92.5 84.8 92.3 85.1 92.3 C 85.4 92.3 85.6 92.5 85.6 92.7 C 85.6 93 85.4 93.3 85.1 93.3 C 84.8 93.3 84.6 93 84.6 92.8 Z M 84.8 94.4 L 85.5 94.4 L 85.5 99.7 L 84.8 99.7 L 84.8 94.4 Z M 87.3 92.3 L 88 92.3 L 88 99.7 L 87.3 99.7 L 87.3 92.3 Z M 93.9 96.4 C 93.92 96.42 93.9 99.7 93.9 99.7 L 93.2 99.7 C 93.2 99.7 93.24 98.86 93.2 98.9 C 92.9 99.4 92.3 99.7 91.4 99.7 C 90.2 99.7 89.5 99.1 89.5 98.2 C 89.5 97.4 90 96.7 91.5 96.7 C 91.54 96.71 93.2 96.7 93.2 96.7 C 93.2 96.7 93.21 96.39 93.2 96.4 C 93.2 95.5 92.7 95 91.7 95 C 91 95 90.4 95.2 90 95.6 C 90 95.6 89.6 95.1 89.6 95.1 C 90.2 94.6 91 94.4 91.8 94.4 C 93.1 94.4 93.9 95.1 93.9 96.4 Z M 93.2 98.1 C 93.21 98.1 93.2 97.2 93.2 97.2 C 93.2 97.2 91.56 97.24 91.6 97.2 C 90.5 97.2 90.2 97.6 90.2 98.2 C 90.2 98.8 90.7 99.2 91.5 99.2 C 92.3 99.2 92.9 98.8 93.2 98.1 Z M 98.4 94.4 C 98.4 94.4 98.4 95.1 98.4 95.1 C 98.3 95.1 98.3 95.1 98.2 95.1 C 97.1 95.1 96.4 95.8 96.4 97 C 96.44 97 96.4 99.7 96.4 99.7 L 95.7 99.7 L 95.7 94.4 L 96.4 94.4 C 96.4 94.4 96.41 95.45 96.4 95.4 C 96.7 94.7 97.4 94.4 98.4 94.4 Z M 111 96.6 C 111.04 96.63 111 99.7 111 99.7 L 110.3 99.7 C 110.3 99.7 110.33 96.7 110.3 96.7 C 110.3 95.6 109.8 95 108.8 95 C 107.7 95 107.1 95.7 107.1 96.9 C 107.06 96.92 107.1 99.7 107.1 99.7 L 106.4 99.7 C 106.4 99.7 106.35 96.7 106.4 96.7 C 106.4 95.6 105.8 95 104.8 95 C 103.8 95 103.1 95.7 103.1 96.9 C 103.07 96.92 103.1 99.7 103.1 99.7 L 102.4 99.7 L 102.4 94.4 L 103 94.4 C 103 94.4 103.04 95.38 103 95.4 C 103.4 94.7 104.1 94.4 105 94.4 C 105.8 94.4 106.5 94.7 106.8 95.5 C 107.2 94.8 108 94.4 108.9 94.4 C 110.2 94.4 111 95.1 111 96.6 Z M 116.9 96.4 C 116.87 96.42 116.9 99.7 116.9 99.7 L 116.2 99.7 C 116.2 99.7 116.19 98.86 116.2 98.9 C 115.9 99.4 115.3 99.7 114.4 99.7 C 113.2 99.7 112.5 99.1 112.5 98.2 C 112.5 97.4 113 96.7 114.5 96.7 C 114.49 96.71 116.2 96.7 116.2 96.7 C 116.2 96.7 116.16 96.39 116.2 96.4 C 116.2 95.5 115.7 95 114.7 95 C 114 95 113.4 95.2 112.9 95.6 C 112.9 95.6 112.6 95.1 112.6 95.1 C 113.1 94.6 113.9 94.4 114.7 94.4 C 116.1 94.4 116.9 95.1 116.9 96.4 Z M 116.2 98.1 C 116.16 98.1 116.2 97.2 116.2 97.2 C 116.2 97.2 114.51 97.24 114.5 97.2 C 113.5 97.2 113.2 97.6 113.2 98.2 C 113.2 98.8 113.7 99.2 114.5 99.2 C 115.3 99.2 115.9 98.8 116.2 98.1 Z M 118.3 97 C 118.3 95.5 119.4 94.4 121 94.4 C 121.9 94.4 122.6 94.7 123 95.4 C 123 95.4 122.5 95.8 122.5 95.8 C 122.1 95.2 121.6 95 121 95 C 119.8 95 119 95.8 119 97 C 119 98.3 119.8 99.1 121 99.1 C 121.6 99.1 122.1 98.9 122.5 98.3 C 122.5 98.3 123 98.7 123 98.7 C 122.6 99.4 121.9 99.7 121 99.7 C 119.4 99.7 118.3 98.6 118.3 97 Z M 129.2 96.6 C 129.17 96.63 129.2 99.7 129.2 99.7 L 128.5 99.7 C 128.5 99.7 128.46 96.7 128.5 96.7 C 128.5 95.6 127.9 95 126.9 95 C 125.8 95 125 95.7 125 96.9 C 125.04 96.92 125 99.7 125 99.7 L 124.3 99.7 L 124.3 92.3 L 125 92.3 C 125 92.3 125.04 95.34 125 95.3 C 125.4 94.7 126.1 94.4 127 94.4 C 128.3 94.4 129.2 95.1 129.2 96.6 Z M 130.8 92.8 C 130.8 92.5 131 92.3 131.3 92.3 C 131.6 92.3 131.8 92.5 131.8 92.7 C 131.8 93 131.6 93.3 131.3 93.3 C 131 93.3 130.8 93 130.8 92.8 Z M 131 94.4 L 131.7 94.4 L 131.7 99.7 L 131 99.7 L 131 94.4 Z M 138.3 96.6 C 138.35 96.63 138.3 99.7 138.3 99.7 L 137.6 99.7 C 137.6 99.7 137.64 96.7 137.6 96.7 C 137.6 95.6 137.1 95 136.1 95 C 134.9 95 134.2 95.7 134.2 96.9 C 134.22 96.92 134.2 99.7 134.2 99.7 L 133.5 99.7 L 133.5 94.4 L 134.2 94.4 C 134.2 94.4 134.19 95.39 134.2 95.4 C 134.6 94.7 135.3 94.4 136.2 94.4 C 137.5 94.4 138.3 95.1 138.3 96.6 Z M 144.8 97.3 C 144.8 97.3 140.4 97.3 140.4 97.3 C 140.5 98.4 141.4 99.1 142.5 99.1 C 143.2 99.1 143.7 98.9 144.1 98.4 C 144.1 98.4 144.5 98.9 144.5 98.9 C 144.1 99.4 143.3 99.7 142.5 99.7 C 140.9 99.7 139.7 98.6 139.7 97 C 139.7 95.5 140.8 94.4 142.3 94.4 C 143.8 94.4 144.9 95.5 144.9 97 C 144.9 97.1 144.8 97.2 144.8 97.3 Z M 140.4 96.7 C 140.4 96.7 144.2 96.7 144.2 96.7 C 144.1 95.7 143.3 95 142.3 95 C 141.3 95 140.5 95.7 140.4 96.7 Z M 145.6 99.1 C 145.6 99.1 146 98.5 146 98.5 C 146.4 98.9 147.1 99.1 147.8 99.1 C 148.8 99.1 149.2 98.8 149.2 98.3 C 149.2 96.9 145.8 98 145.8 95.9 C 145.8 95 146.6 94.4 147.9 94.4 C 148.6 94.4 149.3 94.6 149.8 94.9 C 149.8 94.9 149.5 95.4 149.5 95.4 C 149 95.1 148.5 95 147.9 95 C 147 95 146.5 95.4 146.5 95.9 C 146.5 97.3 150 96.2 150 98.2 C 150 99.1 149.2 99.7 147.8 99.7 C 146.9 99.7 146.1 99.4 145.6 99.1 Z M 161.6 94.4 L 159.6 99.7 L 158.9 99.7 L 157.3 95.4 L 155.6 99.7 L 155 99.7 L 153 94.4 L 153.7 94.4 L 155.3 98.9 L 157 94.4 L 157.6 94.4 L 159.3 98.9 L 161 94.4 L 161.6 94.4 Z M 162.5 92.8 C 162.5 92.5 162.8 92.3 163.1 92.3 C 163.3 92.3 163.6 92.5 163.6 92.7 C 163.6 93 163.4 93.3 163.1 93.3 C 162.8 93.3 162.5 93 162.5 92.8 Z M 162.7 94.4 L 163.4 94.4 L 163.4 99.7 L 162.7 99.7 L 162.7 94.4 Z M 165.3 92.3 L 166 92.3 L 166 99.7 L 165.3 99.7 L 165.3 92.3 Z M 167.8 92.3 L 168.5 92.3 L 168.5 99.7 L 167.8 99.7 L 167.8 92.3 Z M 178.4 97 C 178.4 98.6 177.3 99.7 175.8 99.7 C 175 99.7 174.2 99.3 173.8 98.6 C 173.8 98.64 173.8 99.7 173.8 99.7 L 173.1 99.7 L 173.1 92.3 L 173.8 92.3 C 173.8 92.3 173.83 95.42 173.8 95.4 C 174.3 94.7 175 94.4 175.8 94.4 C 177.3 94.4 178.4 95.5 178.4 97 Z M 177.7 97 C 177.7 95.8 176.9 95 175.8 95 C 174.7 95 173.8 95.8 173.8 97 C 173.8 98.3 174.7 99.1 175.8 99.1 C 176.9 99.1 177.7 98.3 177.7 97 Z M 184.6 97.3 C 184.6 97.3 180.2 97.3 180.2 97.3 C 180.2 98.4 181.1 99.1 182.2 99.1 C 182.9 99.1 183.4 98.9 183.8 98.4 C 183.8 98.4 184.2 98.9 184.2 98.9 C 183.8 99.4 183 99.7 182.2 99.7 C 180.6 99.7 179.5 98.6 179.5 97 C 179.5 95.5 180.5 94.4 182 94.4 C 183.5 94.4 184.6 95.5 184.6 97 C 184.6 97.1 184.6 97.2 184.6 97.3 Z M 180.2 96.7 C 180.2 96.7 183.9 96.7 183.9 96.7 C 183.8 95.7 183.1 95 182 95 C 181 95 180.3 95.7 180.2 96.7 Z M 193.2 97.3 C 193.2 97.3 188.8 97.3 188.8 97.3 C 188.9 98.4 189.7 99.1 190.9 99.1 C 191.5 99.1 192.1 98.9 192.5 98.4 C 192.5 98.4 192.9 98.9 192.9 98.9 C 192.4 99.4 191.7 99.7 190.9 99.7 C 189.2 99.7 188.1 98.6 188.1 97 C 188.1 95.5 189.2 94.4 190.7 94.4 C 192.2 94.4 193.2 95.5 193.2 97 C 193.2 97.1 193.2 97.2 193.2 97.3 Z M 188.8 96.7 C 188.8 96.7 192.6 96.7 192.6 96.7 C 192.5 95.7 191.7 95 190.7 95 C 189.7 95 188.9 95.7 188.8 96.7 Z M 197.9 99.7 L 196.2 97.5 L 194.5 99.7 L 193.7 99.7 L 195.8 97 L 193.8 94.4 L 194.6 94.4 L 196.2 96.5 L 197.8 94.4 L 198.5 94.4 L 196.6 97 L 198.7 99.7 L 197.9 99.7 Z M 205.1 97.1 C 205.1 98.7 204 99.7 202.5 99.7 C 201.7 99.7 201 99.4 200.5 98.7 C 200.52 98.69 200.5 101.6 200.5 101.6 L 199.8 101.6 L 199.8 94.4 L 200.5 94.4 C 200.5 94.4 200.49 95.46 200.5 95.5 C 200.9 94.8 201.6 94.4 202.5 94.4 C 204 94.4 205.1 95.5 205.1 97.1 Z M 204.4 97 C 204.4 95.8 203.6 95 202.5 95 C 201.3 95 200.5 95.8 200.5 97 C 200.5 98.3 201.3 99.1 202.5 99.1 C 203.6 99.1 204.4 98.3 204.4 97 Z M 211.3 97.3 C 211.3 97.3 206.9 97.3 206.9 97.3 C 206.9 98.4 207.8 99.1 208.9 99.1 C 209.6 99.1 210.1 98.9 210.5 98.4 C 210.5 98.4 210.9 98.9 210.9 98.9 C 210.5 99.4 209.7 99.7 208.9 99.7 C 207.3 99.7 206.1 98.6 206.1 97 C 206.1 95.5 207.2 94.4 208.7 94.4 C 210.2 94.4 211.3 95.5 211.3 97 C 211.3 97.1 211.3 97.2 211.3 97.3 Z M 206.9 96.7 C 206.9 96.7 210.6 96.7 210.6 96.7 C 210.5 95.7 209.7 95 208.7 95 C 207.7 95 206.9 95.7 206.9 96.7 Z M 212.3 97 C 212.3 95.5 213.4 94.4 215 94.4 C 215.9 94.4 216.6 94.7 217 95.4 C 217 95.4 216.5 95.8 216.5 95.8 C 216.1 95.2 215.6 95 215 95 C 213.8 95 213 95.8 213 97 C 213 98.3 213.8 99.1 215 99.1 C 215.6 99.1 216.1 98.9 216.5 98.3 C 216.5 98.3 217 98.7 217 98.7 C 216.6 99.4 215.9 99.7 215 99.7 C 213.4 99.7 212.3 98.6 212.3 97 Z M 221.4 99.4 C 221.1 99.6 220.7 99.7 220.3 99.7 C 219.3 99.7 218.7 99.2 218.7 98.2 C 218.73 98.2 218.7 95 218.7 95 L 217.8 95 L 217.8 94.4 L 218.7 94.4 L 218.7 93.3 L 219.4 93.3 L 219.4 94.4 L 221 94.4 L 221 95 L 219.4 95 C 219.4 95 219.44 98.16 219.4 98.2 C 219.4 98.8 219.8 99.1 220.3 99.1 C 220.6 99.1 220.9 99 221.1 98.9 C 221.1 98.9 221.4 99.4 221.4 99.4 Z M 227 97.3 C 227 97.3 222.6 97.3 222.6 97.3 C 222.7 98.4 223.6 99.1 224.7 99.1 C 225.3 99.1 225.9 98.9 226.3 98.4 C 226.3 98.4 226.7 98.9 226.7 98.9 C 226.2 99.4 225.5 99.7 224.7 99.7 C 223 99.7 221.9 98.6 221.9 97 C 221.9 95.5 223 94.4 224.5 94.4 C 226 94.4 227 95.5 227 97 C 227 97.1 227 97.2 227 97.3 Z M 222.6 96.7 C 222.6 96.7 226.4 96.7 226.4 96.7 C 226.3 95.7 225.5 95 224.5 95 C 223.5 95 222.7 95.7 222.6 96.7 Z M 233.4 92.3 L 233.4 99.7 L 232.7 99.7 C 232.7 99.7 232.7 98.64 232.7 98.6 C 232.3 99.3 231.5 99.7 230.7 99.7 C 229.2 99.7 228.1 98.6 228.1 97 C 228.1 95.5 229.2 94.4 230.7 94.4 C 231.5 94.4 232.2 94.7 232.7 95.4 C 232.67 95.42 232.7 92.3 232.7 92.3 L 233.4 92.3 Z M 232.7 97 C 232.7 95.8 231.8 95 230.7 95 C 229.6 95 228.8 95.8 228.8 97 C 228.8 98.3 229.6 99.1 230.7 99.1 C 231.8 99.1 232.7 98.3 232.7 97 Z M 240.8 99.4 C 240.5 99.6 240.1 99.7 239.6 99.7 C 238.7 99.7 238.1 99.2 238.1 98.2 C 238.1 98.2 238.1 95 238.1 95 L 237.2 95 L 237.2 94.4 L 238.1 94.4 L 238.1 93.3 L 238.8 93.3 L 238.8 94.4 L 240.4 94.4 L 240.4 95 L 238.8 95 C 238.8 95 238.81 98.16 238.8 98.2 C 238.8 98.8 239.1 99.1 239.7 99.1 C 240 99.1 240.3 99 240.5 98.9 C 240.5 98.9 240.8 99.4 240.8 99.4 Z M 241.3 97 C 241.3 95.5 242.4 94.4 244 94.4 C 245.5 94.4 246.7 95.5 246.7 97 C 246.7 98.6 245.5 99.7 244 99.7 C 242.4 99.7 241.3 98.6 241.3 97 Z M 245.9 97 C 245.9 95.8 245.1 95 244 95 C 242.9 95 242 95.8 242 97 C 242 98.3 242.9 99.1 244 99.1 C 245.1 99.1 245.9 98.3 245.9 97 Z M 256.1 97.1 C 256.1 98.7 254.9 99.7 253.4 99.7 C 252.6 99.7 251.9 99.4 251.4 98.7 C 251.43 98.69 251.4 101.6 251.4 101.6 L 250.7 101.6 L 250.7 94.4 L 251.4 94.4 C 251.4 94.4 251.4 95.46 251.4 95.5 C 251.8 94.8 252.6 94.4 253.4 94.4 C 254.9 94.4 256.1 95.5 256.1 97.1 Z M 255.3 97 C 255.3 95.8 254.5 95 253.4 95 C 252.3 95 251.4 95.8 251.4 97 C 251.4 98.3 252.3 99.1 253.4 99.1 C 254.5 99.1 255.3 98.3 255.3 97 Z M 262.2 97.3 C 262.2 97.3 257.8 97.3 257.8 97.3 C 257.8 98.4 258.7 99.1 259.8 99.1 C 260.5 99.1 261 98.9 261.4 98.4 C 261.4 98.4 261.8 98.9 261.8 98.9 C 261.4 99.4 260.6 99.7 259.8 99.7 C 258.2 99.7 257.1 98.6 257.1 97 C 257.1 95.5 258.1 94.4 259.6 94.4 C 261.1 94.4 262.2 95.5 262.2 97 C 262.2 97.1 262.2 97.2 262.2 97.3 Z M 257.8 96.7 C 257.8 96.7 261.5 96.7 261.5 96.7 C 261.4 95.7 260.7 95 259.6 95 C 258.6 95 257.9 95.7 257.8 96.7 Z M 266.2 94.4 C 266.2 94.4 266.2 95.1 266.2 95.1 C 266.2 95.1 266.1 95.1 266.1 95.1 C 265 95.1 264.3 95.8 264.3 97 C 264.29 97 264.3 99.7 264.3 99.7 L 263.6 99.7 L 263.6 94.4 L 264.3 94.4 C 264.3 94.4 264.26 95.45 264.3 95.4 C 264.6 94.7 265.3 94.4 266.2 94.4 Z M 268.7 93.8 C 268.66 93.8 268.7 94.4 268.7 94.4 L 270.3 94.4 L 270.3 95 L 268.7 95 L 268.7 99.7 L 268 99.7 L 268 95 L 267 95 L 267 94.4 L 268 94.4 C 268 94.4 267.97 93.77 268 93.8 C 268 92.8 268.5 92.2 269.6 92.2 C 270 92.2 270.4 92.3 270.6 92.5 C 270.6 92.5 270.4 93.1 270.4 93.1 C 270.2 92.9 269.9 92.8 269.6 92.8 C 269 92.8 268.7 93.1 268.7 93.8 Z M 270.7 97 C 270.7 95.5 271.8 94.4 273.4 94.4 C 274.9 94.4 276 95.5 276 97 C 276 98.6 274.9 99.7 273.4 99.7 C 271.8 99.7 270.7 98.6 270.7 97 Z M 275.3 97 C 275.3 95.8 274.5 95 273.4 95 C 272.3 95 271.4 95.8 271.4 97 C 271.4 98.3 272.3 99.1 273.4 99.1 C 274.5 99.1 275.3 98.3 275.3 97 Z M 280.1 94.4 C 280.1 94.4 280.1 95.1 280.1 95.1 C 280.1 95.1 280 95.1 279.9 95.1 C 278.8 95.1 278.2 95.8 278.2 97 C 278.18 97 278.2 99.7 278.2 99.7 L 277.5 99.7 L 277.5 94.4 L 278.1 94.4 C 278.1 94.4 278.15 95.45 278.1 95.4 C 278.5 94.7 279.1 94.4 280.1 94.4 Z M 290 96.6 C 290.02 96.63 290 99.7 290 99.7 L 289.3 99.7 C 289.3 99.7 289.31 96.7 289.3 96.7 C 289.3 95.6 288.8 95 287.8 95 C 286.7 95 286 95.7 286 96.9 C 286.04 96.92 286 99.7 286 99.7 L 285.3 99.7 C 285.3 99.7 285.33 96.7 285.3 96.7 C 285.3 95.6 284.8 95 283.8 95 C 282.7 95 282.1 95.7 282.1 96.9 C 282.05 96.92 282.1 99.7 282.1 99.7 L 281.3 99.7 L 281.3 94.4 L 282 94.4 C 282 94.4 282.02 95.38 282 95.4 C 282.4 94.7 283.1 94.4 284 94.4 C 284.8 94.4 285.5 94.7 285.8 95.5 C 286.2 94.8 287 94.4 287.9 94.4 C 289.2 94.4 290 95.1 290 96.6 Z M 294.4 92.8 C 294.4 92.5 294.6 92.3 294.9 92.3 C 295.2 92.3 295.5 92.5 295.5 92.7 C 295.5 93 295.2 93.3 294.9 93.3 C 294.6 93.3 294.4 93 294.4 92.8 Z M 294.6 94.4 L 295.3 94.4 L 295.3 99.7 L 294.6 99.7 L 294.6 94.4 Z M 302 96.6 C 301.96 96.63 302 99.7 302 99.7 L 301.3 99.7 C 301.3 99.7 301.26 96.7 301.3 96.7 C 301.3 95.6 300.7 95 299.7 95 C 298.5 95 297.8 95.7 297.8 96.9 C 297.83 96.92 297.8 99.7 297.8 99.7 L 297.1 99.7 L 297.1 94.4 L 297.8 94.4 C 297.8 94.4 297.8 95.39 297.8 95.4 C 298.2 94.7 298.9 94.4 299.8 94.4 C 301.1 94.4 302 95.1 302 96.6 Z M 310.5 96.4 C 310.48 96.42 310.5 99.7 310.5 99.7 L 309.8 99.7 C 309.8 99.7 309.81 98.86 309.8 98.9 C 309.5 99.4 308.9 99.7 308 99.7 C 306.8 99.7 306.1 99.1 306.1 98.2 C 306.1 97.4 306.6 96.7 308.1 96.7 C 308.1 96.71 309.8 96.7 309.8 96.7 C 309.8 96.7 309.78 96.39 309.8 96.4 C 309.8 95.5 309.3 95 308.3 95 C 307.6 95 307 95.2 306.5 95.6 C 306.5 95.6 306.2 95.1 306.2 95.1 C 306.7 94.6 307.5 94.4 308.4 94.4 C 309.7 94.4 310.5 95.1 310.5 96.4 Z M 309.8 98.1 C 309.78 98.1 309.8 97.2 309.8 97.2 C 309.8 97.2 308.12 97.24 308.1 97.2 C 307.1 97.2 306.8 97.6 306.8 98.2 C 306.8 98.8 307.3 99.2 308.1 99.2 C 308.9 99.2 309.5 98.8 309.8 98.1 Z M 314.3 99.1 C 314.3 99.1 314.6 98.5 314.6 98.5 C 315 98.9 315.8 99.1 316.5 99.1 C 317.5 99.1 317.9 98.8 317.9 98.3 C 317.9 96.9 314.5 98 314.5 95.9 C 314.5 95 315.2 94.4 316.6 94.4 C 317.3 94.4 318 94.6 318.4 94.9 C 318.4 94.9 318.1 95.4 318.1 95.4 C 317.7 95.1 317.1 95 316.6 95 C 315.6 95 315.2 95.4 315.2 95.9 C 315.2 97.3 318.6 96.2 318.6 98.2 C 318.6 99.1 317.8 99.7 316.4 99.7 C 315.6 99.7 314.7 99.4 314.3 99.1 Z M 319.8 92.8 C 319.8 92.5 320 92.3 320.3 92.3 C 320.6 92.3 320.8 92.5 320.8 92.7 C 320.8 93 320.6 93.3 320.3 93.3 C 320 93.3 319.8 93 319.8 92.8 Z M 319.9 94.4 L 320.6 94.4 L 320.6 99.7 L 319.9 99.7 L 319.9 94.4 Z M 331.2 96.6 C 331.15 96.63 331.2 99.7 331.2 99.7 L 330.4 99.7 C 330.4 99.7 330.44 96.7 330.4 96.7 C 330.4 95.6 329.9 95 328.9 95 C 327.9 95 327.2 95.7 327.2 96.9 C 327.17 96.92 327.2 99.7 327.2 99.7 L 326.5 99.7 C 326.5 99.7 326.46 96.7 326.5 96.7 C 326.5 95.6 325.9 95 324.9 95 C 323.9 95 323.2 95.7 323.2 96.9 C 323.18 96.92 323.2 99.7 323.2 99.7 L 322.5 99.7 L 322.5 94.4 L 323.2 94.4 C 323.2 94.4 323.15 95.38 323.2 95.4 C 323.5 94.7 324.2 94.4 325.1 94.4 C 326 94.4 326.6 94.7 327 95.5 C 327.3 94.8 328.1 94.4 329 94.4 C 330.3 94.4 331.2 95.1 331.2 96.6 Z M 332.8 92.8 C 332.8 92.5 333 92.3 333.3 92.3 C 333.6 92.3 333.8 92.5 333.8 92.7 C 333.8 93 333.6 93.3 333.3 93.3 C 333 93.3 332.8 93 332.8 92.8 Z M 333 94.4 L 333.7 94.4 L 333.7 99.7 L 333 99.7 L 333 94.4 Z M 335.5 92.3 L 336.2 92.3 L 336.2 99.7 L 335.5 99.7 L 335.5 92.3 Z M 342.1 96.4 C 342.11 96.42 342.1 99.7 342.1 99.7 L 341.4 99.7 C 341.4 99.7 341.43 98.86 341.4 98.9 C 341.1 99.4 340.5 99.7 339.6 99.7 C 338.4 99.7 337.7 99.1 337.7 98.2 C 337.7 97.4 338.2 96.7 339.7 96.7 C 339.73 96.71 341.4 96.7 341.4 96.7 C 341.4 96.7 341.4 96.39 341.4 96.4 C 341.4 95.5 340.9 95 339.9 95 C 339.2 95 338.6 95.2 338.2 95.6 C 338.2 95.6 337.8 95.1 337.8 95.1 C 338.4 94.6 339.1 94.4 340 94.4 C 341.3 94.4 342.1 95.1 342.1 96.4 Z M 341.4 98.1 C 341.4 98.1 341.4 97.2 341.4 97.2 C 341.4 97.2 339.75 97.24 339.7 97.2 C 338.7 97.2 338.4 97.6 338.4 98.2 C 338.4 98.8 338.9 99.2 339.7 99.2 C 340.5 99.2 341.1 98.8 341.4 98.1 Z M 346.6 94.4 C 346.6 94.4 346.6 95.1 346.6 95.1 C 346.5 95.1 346.5 95.1 346.4 95.1 C 345.3 95.1 344.6 95.8 344.6 97 C 344.63 97 344.6 99.7 344.6 99.7 L 343.9 99.7 L 343.9 94.4 L 344.6 94.4 C 344.6 94.4 344.6 95.45 344.6 95.4 C 344.9 94.7 345.6 94.4 346.6 94.4 Z M 358.3 94.4 L 356.3 99.7 L 355.6 99.7 L 354 95.4 L 352.3 99.7 L 351.6 99.7 L 349.6 94.4 L 350.3 94.4 L 352 98.9 L 353.7 94.4 L 354.3 94.4 L 356 98.9 L 357.6 94.4 L 358.3 94.4 Z M 363.4 96.4 C 363.39 96.42 363.4 99.7 363.4 99.7 L 362.7 99.7 C 362.7 99.7 362.71 98.86 362.7 98.9 C 362.4 99.4 361.8 99.7 360.9 99.7 C 359.7 99.7 359 99.1 359 98.2 C 359 97.4 359.5 96.7 361 96.7 C 361.01 96.71 362.7 96.7 362.7 96.7 C 362.7 96.7 362.68 96.39 362.7 96.4 C 362.7 95.5 362.2 95 361.2 95 C 360.5 95 359.9 95.2 359.4 95.6 C 359.4 95.6 359.1 95.1 359.1 95.1 C 359.6 94.6 360.4 94.4 361.3 94.4 C 362.6 94.4 363.4 95.1 363.4 96.4 Z M 362.7 98.1 C 362.68 98.1 362.7 97.2 362.7 97.2 C 362.7 97.2 361.03 97.24 361 97.2 C 360 97.2 359.7 97.6 359.7 98.2 C 359.7 98.8 360.2 99.2 361 99.2 C 361.8 99.2 362.4 98.8 362.7 98.1 Z M 369.5 94.4 C 369.5 94.4 366.92 100.31 366.9 100.3 C 366.5 101.3 365.9 101.7 365.2 101.7 C 364.7 101.7 364.2 101.5 363.9 101.2 C 363.9 101.2 364.2 100.7 364.2 100.7 C 364.5 100.9 364.8 101.1 365.2 101.1 C 365.6 101.1 366 100.8 366.3 100.2 C 366.27 100.18 366.5 99.7 366.5 99.7 L 364.1 94.4 L 364.9 94.4 L 366.9 98.9 L 368.8 94.4 L 369.5 94.4 Z M 369.7 99.2 C 369.7 98.9 369.9 98.6 370.2 98.6 C 370.5 98.6 370.7 98.9 370.7 99.2 C 370.7 99.5 370.5 99.7 370.2 99.7 C 369.9 99.7 369.7 99.5 369.7 99.2 Z " stroke="none" fill="#323132"/>
  </g>
  <g id="Polygon117487">
    <path d="M 9.8 72.4 C 9.5 72.6 9.1 72.7 8.6 72.7 C 7.7 72.7 7.1 72.2 7.1 71.2 C 7.11 71.2 7.1 68 7.1 68 L 6.2 68 L 6.2 67.4 L 7.1 67.4 L 7.1 66.3 L 7.8 66.3 L 7.8 67.4 L 9.4 67.4 L 9.4 68 L 7.8 68 C 7.8 68 7.82 71.16 7.8 71.2 C 7.8 71.8 8.1 72.1 8.7 72.1 C 9 72.1 9.3 72 9.5 71.9 C 9.5 71.9 9.8 72.4 9.8 72.4 Z M 15.8 69.6 C 15.79 69.63 15.8 72.7 15.8 72.7 L 15.1 72.7 C 15.1 72.7 15.08 69.7 15.1 69.7 C 15.1 68.6 14.5 68 13.5 68 C 12.4 68 11.7 68.7 11.7 69.9 C 11.66 69.92 11.7 72.7 11.7 72.7 L 10.9 72.7 L 10.9 65.3 L 11.7 65.3 C 11.7 65.3 11.66 68.34 11.7 68.3 C 12 67.7 12.7 67.4 13.6 67.4 C 14.9 67.4 15.8 68.1 15.8 69.6 Z M 22.3 70.3 C 22.3 70.3 17.9 70.3 17.9 70.3 C 18 71.4 18.8 72.1 20 72.1 C 20.6 72.1 21.2 71.9 21.6 71.4 C 21.6 71.4 22 71.9 22 71.9 C 21.5 72.4 20.8 72.7 19.9 72.7 C 18.3 72.7 17.2 71.6 17.2 70 C 17.2 68.5 18.3 67.4 19.7 67.4 C 21.2 67.4 22.3 68.5 22.3 70 C 22.3 70.1 22.3 70.2 22.3 70.3 Z M 17.9 69.7 C 17.9 69.7 21.6 69.7 21.6 69.7 C 21.5 68.7 20.8 68 19.7 68 C 18.7 68 18 68.7 17.9 69.7 Z M 25.6 72.1 C 25.6 72.1 26 71.5 26 71.5 C 26.4 71.9 27.1 72.1 27.8 72.1 C 28.8 72.1 29.2 71.8 29.2 71.3 C 29.2 69.9 25.8 71 25.8 68.9 C 25.8 68 26.6 67.4 27.9 67.4 C 28.6 67.4 29.3 67.6 29.8 67.9 C 29.8 67.9 29.5 68.4 29.5 68.4 C 29 68.1 28.4 68 27.9 68 C 27 68 26.5 68.4 26.5 68.9 C 26.5 70.3 29.9 69.2 29.9 71.2 C 29.9 72.1 29.1 72.7 27.8 72.7 C 26.9 72.7 26.1 72.4 25.6 72.1 Z M 35.9 67.4 C 35.9 67.4 33.26 73.31 33.3 73.3 C 32.8 74.3 32.3 74.7 31.5 74.7 C 31 74.7 30.5 74.5 30.2 74.2 C 30.2 74.2 30.6 73.7 30.6 73.7 C 30.8 73.9 31.1 74.1 31.5 74.1 C 32 74.1 32.3 73.8 32.6 73.2 C 32.61 73.18 32.8 72.7 32.8 72.7 L 30.5 67.4 L 31.2 67.4 L 33.2 71.9 L 35.2 67.4 L 35.9 67.4 Z M 36.3 72.1 C 36.3 72.1 36.6 71.5 36.6 71.5 C 37 71.9 37.7 72.1 38.4 72.1 C 39.4 72.1 39.9 71.8 39.9 71.3 C 39.9 69.9 36.4 71 36.4 68.9 C 36.4 68 37.2 67.4 38.5 67.4 C 39.2 67.4 39.9 67.6 40.4 67.9 C 40.4 67.9 40.1 68.4 40.1 68.4 C 39.6 68.1 39.1 68 38.5 68 C 37.6 68 37.2 68.4 37.2 68.9 C 37.2 70.3 40.6 69.2 40.6 71.2 C 40.6 72.1 39.8 72.7 38.4 72.7 C 37.5 72.7 36.7 72.4 36.3 72.1 Z M 44.8 72.4 C 44.6 72.6 44.1 72.7 43.7 72.7 C 42.7 72.7 42.2 72.2 42.2 71.2 C 42.2 71.2 42.2 68 42.2 68 L 41.3 68 L 41.3 67.4 L 42.2 67.4 L 42.2 66.3 L 42.9 66.3 L 42.9 67.4 L 44.5 67.4 L 44.5 68 L 42.9 68 C 42.9 68 42.91 71.16 42.9 71.2 C 42.9 71.8 43.2 72.1 43.8 72.1 C 44.1 72.1 44.4 72 44.6 71.9 C 44.6 71.9 44.8 72.4 44.8 72.4 Z M 50.5 70.3 C 50.5 70.3 46.1 70.3 46.1 70.3 C 46.2 71.4 47 72.1 48.2 72.1 C 48.8 72.1 49.4 71.9 49.8 71.4 C 49.8 71.4 50.2 71.9 50.2 71.9 C 49.7 72.4 49 72.7 48.2 72.7 C 46.5 72.7 45.4 71.6 45.4 70 C 45.4 68.5 46.5 67.4 48 67.4 C 49.4 67.4 50.5 68.5 50.5 70 C 50.5 70.1 50.5 70.2 50.5 70.3 Z M 46.1 69.7 C 46.1 69.7 49.8 69.7 49.8 69.7 C 49.7 68.7 49 68 48 68 C 46.9 68 46.2 68.7 46.1 69.7 Z M 60.6 69.6 C 60.6 69.63 60.6 72.7 60.6 72.7 L 59.9 72.7 C 59.9 72.7 59.89 69.7 59.9 69.7 C 59.9 68.6 59.3 68 58.4 68 C 57.3 68 56.6 68.7 56.6 69.9 C 56.62 69.92 56.6 72.7 56.6 72.7 L 55.9 72.7 C 55.9 72.7 55.91 69.7 55.9 69.7 C 55.9 68.6 55.4 68 54.4 68 C 53.3 68 52.6 68.7 52.6 69.9 C 52.63 69.92 52.6 72.7 52.6 72.7 L 51.9 72.7 L 51.9 67.4 L 52.6 67.4 C 52.6 67.4 52.6 68.38 52.6 68.4 C 53 67.7 53.7 67.4 54.5 67.4 C 55.4 67.4 56.1 67.7 56.4 68.5 C 56.8 67.8 57.5 67.4 58.5 67.4 C 59.8 67.4 60.6 68.1 60.6 69.6 Z M 64.6 70 C 64.6 68.5 65.8 67.4 67.3 67.4 C 68.8 67.4 70 68.5 70 70 C 70 71.6 68.8 72.7 67.3 72.7 C 65.8 72.7 64.6 71.6 64.6 70 Z M 69.3 70 C 69.3 68.8 68.4 68 67.3 68 C 66.2 68 65.3 68.8 65.3 70 C 65.3 71.3 66.2 72.1 67.3 72.1 C 68.4 72.1 69.3 71.3 69.3 70 Z M 72.2 66.8 C 72.17 66.8 72.2 67.4 72.2 67.4 L 73.8 67.4 L 73.8 68 L 72.2 68 L 72.2 72.7 L 71.5 72.7 L 71.5 68 L 70.5 68 L 70.5 67.4 L 71.5 67.4 C 71.5 67.4 71.48 66.77 71.5 66.8 C 71.5 65.8 72 65.2 73.1 65.2 C 73.5 65.2 73.9 65.3 74.1 65.5 C 74.1 65.5 73.9 66.1 73.9 66.1 C 73.7 65.9 73.4 65.8 73.1 65.8 C 72.5 65.8 72.2 66.1 72.2 66.8 Z M 76 66.8 C 76.01 66.8 76 67.4 76 67.4 L 77.6 67.4 L 77.6 68 L 76 68 L 76 72.7 L 75.3 72.7 L 75.3 68 L 74.4 68 L 74.4 67.4 L 75.3 67.4 C 75.3 67.4 75.32 66.77 75.3 66.8 C 75.3 65.8 75.9 65.2 76.9 65.2 C 77.3 65.2 77.7 65.3 78 65.5 C 78 65.5 77.7 66.1 77.7 66.1 C 77.5 65.9 77.2 65.8 76.9 65.8 C 76.3 65.8 76 66.1 76 66.8 Z M 77.9 72.2 C 77.9 71.9 78.1 71.6 78.4 71.6 C 78.7 71.6 79 71.9 79 72.2 C 79 72.5 78.7 72.7 78.4 72.7 C 78.1 72.7 77.9 72.5 77.9 72.2 Z " stroke="none" fill="#323132"/>
  </g>
  <g id="Polygon117486">
    <path d="M 11.8 50.3 L 11.8 57.7 L 11.1 57.7 C 11.1 57.7 11.11 56.64 11.1 56.6 C 10.7 57.3 10 57.7 9.1 57.7 C 7.6 57.7 6.5 56.6 6.5 55 C 6.5 53.5 7.6 52.4 9.1 52.4 C 9.9 52.4 10.6 52.7 11.1 53.4 C 11.08 53.42 11.1 50.3 11.1 50.3 L 11.8 50.3 Z M 11.1 55 C 11.1 53.8 10.3 53 9.1 53 C 8 53 7.2 53.8 7.2 55 C 7.2 56.3 8 57.1 9.1 57.1 C 10.3 57.1 11.1 56.3 11.1 55 Z M 13.2 55 C 13.2 53.5 14.4 52.4 15.9 52.4 C 17.5 52.4 18.6 53.5 18.6 55 C 18.6 56.6 17.5 57.7 15.9 57.7 C 14.4 57.7 13.2 56.6 13.2 55 Z M 17.9 55 C 17.9 53.8 17 53 15.9 53 C 14.8 53 14 53.8 14 55 C 14 56.3 14.8 57.1 15.9 57.1 C 17 57.1 17.9 56.3 17.9 55 Z M 27.7 52.4 L 25.7 57.7 L 25 57.7 L 23.4 53.4 L 21.7 57.7 L 21 57.7 L 19.1 52.4 L 19.7 52.4 L 21.4 56.9 L 23.1 52.4 L 23.7 52.4 L 25.4 56.9 L 27 52.4 L 27.7 52.4 Z M 33.6 54.6 C 33.63 54.63 33.6 57.7 33.6 57.7 L 32.9 57.7 C 32.9 57.7 32.92 54.7 32.9 54.7 C 32.9 53.6 32.3 53 31.3 53 C 30.2 53 29.5 53.7 29.5 54.9 C 29.5 54.92 29.5 57.7 29.5 57.7 L 28.8 57.7 L 28.8 52.4 L 29.5 52.4 C 29.5 52.4 29.47 53.39 29.5 53.4 C 29.9 52.7 30.6 52.4 31.5 52.4 C 32.8 52.4 33.6 53.1 33.6 54.6 Z M 43.1 52.4 L 41.1 57.7 L 40.5 57.7 L 38.8 53.4 L 37.1 57.7 L 36.5 57.7 L 34.5 52.4 L 35.2 52.4 L 36.8 56.9 L 38.5 52.4 L 39.1 52.4 L 40.8 56.9 L 42.5 52.4 L 43.1 52.4 Z M 48.2 54.4 C 48.24 54.42 48.2 57.7 48.2 57.7 L 47.6 57.7 C 47.6 57.7 47.56 56.86 47.6 56.9 C 47.2 57.4 46.6 57.7 45.8 57.7 C 44.6 57.7 43.8 57.1 43.8 56.2 C 43.8 55.4 44.4 54.7 45.9 54.7 C 45.86 54.71 47.5 54.7 47.5 54.7 C 47.5 54.7 47.53 54.39 47.5 54.4 C 47.5 53.5 47 53 46 53 C 45.4 53 44.7 53.2 44.3 53.6 C 44.3 53.6 44 53.1 44 53.1 C 44.5 52.6 45.3 52.4 46.1 52.4 C 47.5 52.4 48.2 53.1 48.2 54.4 Z M 47.5 56.1 C 47.53 56.1 47.5 55.2 47.5 55.2 C 47.5 55.2 45.88 55.24 45.9 55.2 C 44.9 55.2 44.5 55.6 44.5 56.2 C 44.5 56.8 45 57.2 45.9 57.2 C 46.7 57.2 47.3 56.8 47.5 56.1 Z M 52.7 52.4 C 52.7 52.4 52.7 53.1 52.7 53.1 C 52.6 53.1 52.6 53.1 52.5 53.1 C 51.4 53.1 50.8 53.8 50.8 55 C 50.77 55 50.8 57.7 50.8 57.7 L 50.1 57.7 L 50.1 52.4 L 50.7 52.4 C 50.7 52.4 50.74 53.45 50.7 53.4 C 51.1 52.7 51.7 52.4 52.7 52.4 Z M 58.7 50.3 L 58.7 57.7 L 58 57.7 C 58 57.7 57.99 56.64 58 56.6 C 57.6 57.3 56.8 57.7 56 57.7 C 54.5 57.7 53.3 56.6 53.3 55 C 53.3 53.5 54.5 52.4 56 52.4 C 56.8 52.4 57.5 52.7 58 53.4 C 57.96 53.42 58 50.3 58 50.3 L 58.7 50.3 Z M 58 55 C 58 53.8 57.1 53 56 53 C 54.9 53 54.1 53.8 54.1 55 C 54.1 56.3 54.9 57.1 56 57.1 C 57.1 57.1 58 56.3 58 55 Z M 60 57.1 C 60 57.1 60.3 56.5 60.3 56.5 C 60.7 56.9 61.4 57.1 62.1 57.1 C 63.1 57.1 63.6 56.8 63.6 56.3 C 63.6 54.9 60.1 56 60.1 53.9 C 60.1 53 60.9 52.4 62.2 52.4 C 62.9 52.4 63.6 52.6 64.1 52.9 C 64.1 52.9 63.8 53.4 63.8 53.4 C 63.3 53.1 62.8 53 62.2 53 C 61.3 53 60.9 53.4 60.9 53.9 C 60.9 55.3 64.3 54.2 64.3 56.2 C 64.3 57.1 63.5 57.7 62.1 57.7 C 61.2 57.7 60.4 57.4 60 57.1 Z M 71 57.4 C 70.7 57.6 70.3 57.7 69.9 57.7 C 68.9 57.7 68.3 57.2 68.3 56.2 C 68.32 56.2 68.3 53 68.3 53 L 67.4 53 L 67.4 52.4 L 68.3 52.4 L 68.3 51.3 L 69 51.3 L 69 52.4 L 70.6 52.4 L 70.6 53 L 69 53 C 69 53 69.02 56.16 69 56.2 C 69 56.8 69.3 57.1 69.9 57.1 C 70.2 57.1 70.5 57 70.7 56.9 C 70.7 56.9 71 57.4 71 57.4 Z M 76.8 52.4 L 76.8 57.7 L 76.1 57.7 C 76.1 57.7 76.07 56.72 76.1 56.7 C 75.7 57.4 75 57.7 74.2 57.7 C 72.8 57.7 72 57 72 55.5 C 71.96 55.47 72 52.4 72 52.4 L 72.7 52.4 C 72.7 52.4 72.67 55.4 72.7 55.4 C 72.7 56.5 73.3 57.1 74.3 57.1 C 75.4 57.1 76 56.4 76 55.2 C 76.04 55.18 76 52.4 76 52.4 L 76.8 52.4 Z M 81.3 52.4 C 81.3 52.4 81.3 53.1 81.3 53.1 C 81.2 53.1 81.1 53.1 81.1 53.1 C 80 53.1 79.3 53.8 79.3 55 C 79.32 55 79.3 57.7 79.3 57.7 L 78.6 57.7 L 78.6 52.4 L 79.3 52.4 C 79.3 52.4 79.29 53.45 79.3 53.4 C 79.6 52.7 80.3 52.4 81.3 52.4 Z M 87.3 54.6 C 87.33 54.63 87.3 57.7 87.3 57.7 L 86.6 57.7 C 86.6 57.7 86.62 54.7 86.6 54.7 C 86.6 53.6 86 53 85 53 C 83.9 53 83.2 53.7 83.2 54.9 C 83.2 54.92 83.2 57.7 83.2 57.7 L 82.5 57.7 L 82.5 52.4 L 83.2 52.4 C 83.2 52.4 83.17 53.39 83.2 53.4 C 83.5 52.7 84.3 52.4 85.2 52.4 C 86.4 52.4 87.3 53.1 87.3 54.6 Z M 88.5 57.1 C 88.5 57.1 88.9 56.5 88.9 56.5 C 89.3 56.9 90 57.1 90.7 57.1 C 91.7 57.1 92.1 56.8 92.1 56.3 C 92.1 54.9 88.7 56 88.7 53.9 C 88.7 53 89.5 52.4 90.8 52.4 C 91.5 52.4 92.2 52.6 92.7 52.9 C 92.7 52.9 92.4 53.4 92.4 53.4 C 91.9 53.1 91.4 53 90.8 53 C 89.9 53 89.4 53.4 89.4 53.9 C 89.4 55.3 92.9 54.2 92.9 56.2 C 92.9 57.1 92.1 57.7 90.7 57.7 C 89.8 57.7 89 57.4 88.5 57.1 Z M 99.6 57.4 C 99.3 57.6 98.9 57.7 98.4 57.7 C 97.5 57.7 96.9 57.2 96.9 56.2 C 96.91 56.2 96.9 53 96.9 53 L 96 53 L 96 52.4 L 96.9 52.4 L 96.9 51.3 L 97.6 51.3 L 97.6 52.4 L 99.2 52.4 L 99.2 53 L 97.6 53 C 97.6 53 97.62 56.16 97.6 56.2 C 97.6 56.8 97.9 57.1 98.5 57.1 C 98.8 57.1 99.1 57 99.3 56.9 C 99.3 56.9 99.6 57.4 99.6 57.4 Z M 105.6 54.6 C 105.59 54.63 105.6 57.7 105.6 57.7 L 104.9 57.7 C 104.9 57.7 104.88 54.7 104.9 54.7 C 104.9 53.6 104.3 53 103.3 53 C 102.2 53 101.5 53.7 101.5 54.9 C 101.46 54.92 101.5 57.7 101.5 57.7 L 100.7 57.7 L 100.7 50.3 L 101.5 50.3 C 101.5 50.3 101.46 53.34 101.5 53.3 C 101.8 52.7 102.5 52.4 103.4 52.4 C 104.7 52.4 105.6 53.1 105.6 54.6 Z M 112.1 55.3 C 112.1 55.3 107.7 55.3 107.7 55.3 C 107.8 56.4 108.6 57.1 109.7 57.1 C 110.4 57.1 111 56.9 111.4 56.4 C 111.4 56.4 111.8 56.9 111.8 56.9 C 111.3 57.4 110.6 57.7 109.7 57.7 C 108.1 57.7 107 56.6 107 55 C 107 53.5 108.1 52.4 109.5 52.4 C 111 52.4 112.1 53.5 112.1 55 C 112.1 55.1 112.1 55.2 112.1 55.3 Z M 107.7 54.7 C 107.7 54.7 111.4 54.7 111.4 54.7 C 111.3 53.7 110.6 53 109.5 53 C 108.5 53 107.8 53.7 107.7 54.7 Z M 115.4 57.1 C 115.4 57.1 115.7 56.5 115.7 56.5 C 116.2 56.9 116.9 57.1 117.6 57.1 C 118.6 57.1 119 56.8 119 56.3 C 119 54.9 115.6 56 115.6 53.9 C 115.6 53 116.4 52.4 117.7 52.4 C 118.4 52.4 119.1 52.6 119.6 52.9 C 119.6 52.9 119.2 53.4 119.2 53.4 C 118.8 53.1 118.2 53 117.7 53 C 116.7 53 116.3 53.4 116.3 53.9 C 116.3 55.3 119.7 54.2 119.7 56.2 C 119.7 57.1 118.9 57.7 117.6 57.7 C 116.7 57.7 115.9 57.4 115.4 57.1 Z M 125.7 52.4 C 125.7 52.4 123.06 58.31 123.1 58.3 C 122.6 59.3 122.1 59.7 121.3 59.7 C 120.8 59.7 120.3 59.5 120 59.2 C 120 59.2 120.4 58.7 120.4 58.7 C 120.6 58.9 120.9 59.1 121.3 59.1 C 121.8 59.1 122.1 58.8 122.4 58.2 C 122.41 58.18 122.6 57.7 122.6 57.7 L 120.3 52.4 L 121 52.4 L 123 56.9 L 125 52.4 L 125.7 52.4 Z M 126.1 57.1 C 126.1 57.1 126.4 56.5 126.4 56.5 C 126.8 56.9 127.5 57.1 128.2 57.1 C 129.2 57.1 129.7 56.8 129.7 56.3 C 129.7 54.9 126.2 56 126.2 53.9 C 126.2 53 127 52.4 128.3 52.4 C 129 52.4 129.7 52.6 130.2 52.9 C 130.2 52.9 129.9 53.4 129.9 53.4 C 129.4 53.1 128.9 53 128.3 53 C 127.4 53 127 53.4 127 53.9 C 127 55.3 130.4 54.2 130.4 56.2 C 130.4 57.1 129.6 57.7 128.2 57.7 C 127.3 57.7 126.5 57.4 126.1 57.1 Z M 134.6 57.4 C 134.4 57.6 133.9 57.7 133.5 57.7 C 132.5 57.7 132 57.2 132 56.2 C 132 56.2 132 53 132 53 L 131.1 53 L 131.1 52.4 L 132 52.4 L 132 51.3 L 132.7 51.3 L 132.7 52.4 L 134.3 52.4 L 134.3 53 L 132.7 53 C 132.7 53 132.7 56.16 132.7 56.2 C 132.7 56.8 133 57.1 133.6 57.1 C 133.9 57.1 134.2 57 134.4 56.9 C 134.4 56.9 134.6 57.4 134.6 57.4 Z M 140.3 55.3 C 140.3 55.3 135.9 55.3 135.9 55.3 C 136 56.4 136.8 57.1 138 57.1 C 138.6 57.1 139.2 56.9 139.6 56.4 C 139.6 56.4 140 56.9 140 56.9 C 139.5 57.4 138.8 57.7 138 57.7 C 136.3 57.7 135.2 56.6 135.2 55 C 135.2 53.5 136.3 52.4 137.8 52.4 C 139.2 52.4 140.3 53.5 140.3 55 C 140.3 55.1 140.3 55.2 140.3 55.3 Z M 135.9 54.7 C 135.9 54.7 139.6 54.7 139.6 54.7 C 139.5 53.7 138.8 53 137.8 53 C 136.7 53 136 53.7 135.9 54.7 Z M 150.4 54.6 C 150.4 54.63 150.4 57.7 150.4 57.7 L 149.7 57.7 C 149.7 57.7 149.69 54.7 149.7 54.7 C 149.7 53.6 149.1 53 148.2 53 C 147.1 53 146.4 53.7 146.4 54.9 C 146.42 54.92 146.4 57.7 146.4 57.7 L 145.7 57.7 C 145.7 57.7 145.71 54.7 145.7 54.7 C 145.7 53.6 145.2 53 144.2 53 C 143.1 53 142.4 53.7 142.4 54.9 C 142.43 54.92 142.4 57.7 142.4 57.7 L 141.7 57.7 L 141.7 52.4 L 142.4 52.4 C 142.4 52.4 142.4 53.38 142.4 53.4 C 142.8 52.7 143.4 52.4 144.3 52.4 C 145.2 52.4 145.9 52.7 146.2 53.5 C 146.6 52.8 147.3 52.4 148.3 52.4 C 149.6 52.4 150.4 53.1 150.4 54.6 Z M 154.4 55 C 154.4 53.5 155.6 52.4 157.1 52.4 C 158.6 52.4 159.8 53.5 159.8 55 C 159.8 56.6 158.6 57.7 157.1 57.7 C 155.6 57.7 154.4 56.6 154.4 55 Z M 159.1 55 C 159.1 53.8 158.2 53 157.1 53 C 156 53 155.1 53.8 155.1 55 C 155.1 56.3 156 57.1 157.1 57.1 C 158.2 57.1 159.1 56.3 159.1 55 Z M 166 54.6 C 166.04 54.63 166 57.7 166 57.7 L 165.3 57.7 C 165.3 57.7 165.33 54.7 165.3 54.7 C 165.3 53.6 164.7 53 163.7 53 C 162.6 53 161.9 53.7 161.9 54.9 C 161.91 54.92 161.9 57.7 161.9 57.7 L 161.2 57.7 L 161.2 52.4 L 161.9 52.4 C 161.9 52.4 161.88 53.39 161.9 53.4 C 162.3 52.7 163 52.4 163.9 52.4 C 165.2 52.4 166 53.1 166 54.6 Z M 167.6 57.2 C 167.6 56.9 167.8 56.6 168.1 56.6 C 168.4 56.6 168.7 56.9 168.7 57.2 C 168.7 57.5 168.4 57.7 168.1 57.7 C 167.8 57.7 167.6 57.5 167.6 57.2 Z M 172.9 50.7 L 173.7 50.7 L 173.7 57.7 L 172.9 57.7 L 172.9 50.7 Z M 180.5 54.6 C 180.53 54.63 180.5 57.7 180.5 57.7 L 179.8 57.7 C 179.8 57.7 179.82 54.7 179.8 54.7 C 179.8 53.6 179.2 53 178.2 53 C 177.1 53 176.4 53.7 176.4 54.9 C 176.4 54.92 176.4 57.7 176.4 57.7 L 175.7 57.7 L 175.7 52.4 L 176.4 52.4 C 176.4 52.4 176.37 53.39 176.4 53.4 C 176.7 52.7 177.5 52.4 178.4 52.4 C 179.7 52.4 180.5 53.1 180.5 54.6 Z M 187.8 57.4 C 187.6 57.6 187.1 57.7 186.7 57.7 C 185.7 57.7 185.2 57.2 185.2 56.2 C 185.2 56.2 185.2 53 185.2 53 L 184.3 53 L 184.3 52.4 L 185.2 52.4 L 185.2 51.3 L 185.9 51.3 L 185.9 52.4 L 187.5 52.4 L 187.5 53 L 185.9 53 C 185.9 53 185.91 56.16 185.9 56.2 C 185.9 56.8 186.2 57.1 186.8 57.1 C 187.1 57.1 187.4 57 187.6 56.9 C 187.6 56.9 187.8 57.4 187.8 57.4 Z M 193.9 54.6 C 193.88 54.63 193.9 57.7 193.9 57.7 L 193.2 57.7 C 193.2 57.7 193.17 54.7 193.2 54.7 C 193.2 53.6 192.6 53 191.6 53 C 190.5 53 189.7 53.7 189.7 54.9 C 189.75 54.92 189.7 57.7 189.7 57.7 L 189 57.7 L 189 50.3 L 189.7 50.3 C 189.7 50.3 189.75 53.34 189.7 53.3 C 190.1 52.7 190.8 52.4 191.7 52.4 C 193 52.4 193.9 53.1 193.9 54.6 Z M 200.4 55.3 C 200.4 55.3 196 55.3 196 55.3 C 196 56.4 196.9 57.1 198 57.1 C 198.7 57.1 199.3 56.9 199.7 56.4 C 199.7 56.4 200.1 56.9 200.1 56.9 C 199.6 57.4 198.9 57.7 198 57.7 C 196.4 57.7 195.3 56.6 195.3 55 C 195.3 53.5 196.3 52.4 197.8 52.4 C 199.3 52.4 200.4 53.5 200.4 55 C 200.4 55.1 200.4 55.2 200.4 55.3 Z M 196 54.7 C 196 54.7 199.7 54.7 199.7 54.7 C 199.6 53.7 198.9 53 197.8 53 C 196.8 53 196.1 53.7 196 54.7 Z M 204.5 54.7 C 204.54 54.69 204.5 50.7 204.5 50.7 L 205.3 50.7 C 205.3 50.7 205.28 54.66 205.3 54.7 C 205.3 56.3 206.1 57.1 207.4 57.1 C 208.8 57.1 209.6 56.3 209.6 54.7 C 209.57 54.66 209.6 50.7 209.6 50.7 L 210.3 50.7 C 210.3 50.7 210.29 54.69 210.3 54.7 C 210.3 56.7 209.2 57.7 207.4 57.7 C 205.6 57.7 204.5 56.7 204.5 54.7 Z M 217.1 54.6 C 217.09 54.63 217.1 57.7 217.1 57.7 L 216.4 57.7 C 216.4 57.7 216.38 54.7 216.4 54.7 C 216.4 53.6 215.8 53 214.8 53 C 213.7 53 213 53.7 213 54.9 C 212.96 54.92 213 57.7 213 57.7 L 212.3 57.7 L 212.3 52.4 L 212.9 52.4 C 212.9 52.4 212.93 53.39 212.9 53.4 C 213.3 52.7 214 52.4 214.9 52.4 C 216.2 52.4 217.1 53.1 217.1 54.6 Z M 218.7 50.8 C 218.7 50.5 218.9 50.3 219.2 50.3 C 219.5 50.3 219.8 50.5 219.8 50.7 C 219.8 51 219.5 51.3 219.2 51.3 C 218.9 51.3 218.7 51 218.7 50.8 Z M 218.9 52.4 L 219.6 52.4 L 219.6 57.7 L 218.9 57.7 L 218.9 52.4 Z M 224.3 57.4 C 224 57.6 223.6 57.7 223.2 57.7 C 222.2 57.7 221.6 57.2 221.6 56.2 C 221.64 56.2 221.6 53 221.6 53 L 220.7 53 L 220.7 52.4 L 221.6 52.4 L 221.6 51.3 L 222.4 51.3 L 222.4 52.4 L 224 52.4 L 224 53 L 222.4 53 C 222.4 53 222.35 56.16 222.4 56.2 C 222.4 56.8 222.7 57.1 223.3 57.1 C 223.6 57.1 223.8 57 224 56.9 C 224 56.9 224.3 57.4 224.3 57.4 Z M 230 55.3 C 230 55.3 225.6 55.3 225.6 55.3 C 225.6 56.4 226.5 57.1 227.6 57.1 C 228.3 57.1 228.8 56.9 229.2 56.4 C 229.2 56.4 229.6 56.9 229.6 56.9 C 229.2 57.4 228.4 57.7 227.6 57.7 C 226 57.7 224.8 56.6 224.8 55 C 224.8 53.5 225.9 52.4 227.4 52.4 C 228.9 52.4 230 53.5 230 55 C 230 55.1 230 55.2 230 55.3 Z M 225.6 54.7 C 225.6 54.7 229.3 54.7 229.3 54.7 C 229.2 53.7 228.4 53 227.4 53 C 226.4 53 225.6 53.7 225.6 54.7 Z M 236.3 50.3 L 236.3 57.7 L 235.6 57.7 C 235.6 57.7 235.62 56.64 235.6 56.6 C 235.2 57.3 234.5 57.7 233.6 57.7 C 232.1 57.7 231 56.6 231 55 C 231 53.5 232.1 52.4 233.6 52.4 C 234.4 52.4 235.1 52.7 235.6 53.4 C 235.59 53.42 235.6 50.3 235.6 50.3 L 236.3 50.3 Z M 235.6 55 C 235.6 53.8 234.8 53 233.6 53 C 232.5 53 231.7 53.8 231.7 55 C 231.7 56.3 232.5 57.1 233.6 57.1 C 234.8 57.1 235.6 56.3 235.6 55 Z M 240.4 56.8 C 240.4 56.8 240.7 56.3 240.7 56.3 C 241.2 56.8 242.1 57.1 243 57.1 C 244.3 57.1 244.9 56.6 244.9 55.9 C 244.9 53.9 240.5 55.1 240.5 52.5 C 240.5 51.5 241.3 50.6 243.1 50.6 C 243.9 50.6 244.7 50.9 245.3 51.2 C 245.3 51.2 245 51.8 245 51.8 C 244.4 51.4 243.7 51.2 243.1 51.2 C 241.8 51.2 241.3 51.8 241.3 52.5 C 241.3 54.4 245.6 53.3 245.6 55.8 C 245.6 56.9 244.8 57.7 243 57.7 C 241.9 57.7 240.9 57.4 240.4 56.8 Z M 249.7 57.4 C 249.5 57.6 249 57.7 248.6 57.7 C 247.6 57.7 247.1 57.2 247.1 56.2 C 247.09 56.2 247.1 53 247.1 53 L 246.1 53 L 246.1 52.4 L 247.1 52.4 L 247.1 51.3 L 247.8 51.3 L 247.8 52.4 L 249.4 52.4 L 249.4 53 L 247.8 53 C 247.8 53 247.8 56.16 247.8 56.2 C 247.8 56.8 248.1 57.1 248.7 57.1 C 249 57.1 249.3 57 249.5 56.9 C 249.5 56.9 249.7 57.4 249.7 57.4 Z M 255 54.4 C 254.97 54.42 255 57.7 255 57.7 L 254.3 57.7 C 254.3 57.7 254.29 56.86 254.3 56.9 C 254 57.4 253.3 57.7 252.5 57.7 C 251.3 57.7 250.6 57.1 250.6 56.2 C 250.6 55.4 251.1 54.7 252.6 54.7 C 252.59 54.71 254.3 54.7 254.3 54.7 C 254.3 54.7 254.26 54.39 254.3 54.4 C 254.3 53.5 253.7 53 252.8 53 C 252.1 53 251.4 53.2 251 53.6 C 251 53.6 250.7 53.1 250.7 53.1 C 251.2 52.6 252 52.4 252.8 52.4 C 254.2 52.4 255 53.1 255 54.4 Z M 254.3 56.1 C 254.26 56.1 254.3 55.2 254.3 55.2 C 254.3 55.2 252.61 55.24 252.6 55.2 C 251.6 55.2 251.3 55.6 251.3 56.2 C 251.3 56.8 251.7 57.2 252.6 57.2 C 253.4 57.2 254 56.8 254.3 56.1 Z M 259.5 57.4 C 259.2 57.6 258.8 57.7 258.4 57.7 C 257.4 57.7 256.9 57.2 256.9 56.2 C 256.86 56.2 256.9 53 256.9 53 L 255.9 53 L 255.9 52.4 L 256.9 52.4 L 256.9 51.3 L 257.6 51.3 L 257.6 52.4 L 259.2 52.4 L 259.2 53 L 257.6 53 C 257.6 53 257.57 56.16 257.6 56.2 C 257.6 56.8 257.9 57.1 258.5 57.1 C 258.8 57.1 259.1 57 259.3 56.9 C 259.3 56.9 259.5 57.4 259.5 57.4 Z M 265.2 55.3 C 265.2 55.3 260.8 55.3 260.8 55.3 C 260.9 56.4 261.7 57.1 262.8 57.1 C 263.5 57.1 264.1 56.9 264.5 56.4 C 264.5 56.4 264.9 56.9 264.9 56.9 C 264.4 57.4 263.7 57.7 262.8 57.7 C 261.2 57.7 260.1 56.6 260.1 55 C 260.1 53.5 261.2 52.4 262.6 52.4 C 264.1 52.4 265.2 53.5 265.2 55 C 265.2 55.1 265.2 55.2 265.2 55.3 Z M 260.8 54.7 C 260.8 54.7 264.5 54.7 264.5 54.7 C 264.4 53.7 263.7 53 262.6 53 C 261.6 53 260.9 53.7 260.8 54.7 Z M 266 57.1 C 266 57.1 266.3 56.5 266.3 56.5 C 266.7 56.9 267.4 57.1 268.2 57.1 C 269.2 57.1 269.6 56.8 269.6 56.3 C 269.6 54.9 266.2 56 266.2 53.9 C 266.2 53 266.9 52.4 268.2 52.4 C 268.9 52.4 269.7 52.6 270.1 52.9 C 270.1 52.9 269.8 53.4 269.8 53.4 C 269.3 53.1 268.8 53 268.2 53 C 267.3 53 266.9 53.4 266.9 53.9 C 266.9 55.3 270.3 54.2 270.3 56.2 C 270.3 57.1 269.5 57.7 268.1 57.7 C 267.2 57.7 266.4 57.4 266 57.1 Z M 273.7 55 C 273.7 53.5 274.8 52.4 276.4 52.4 C 277.9 52.4 279 53.5 279 55 C 279 56.6 277.9 57.7 276.4 57.7 C 274.8 57.7 273.7 56.6 273.7 55 Z M 278.3 55 C 278.3 53.8 277.5 53 276.4 53 C 275.2 53 274.4 53.8 274.4 55 C 274.4 56.3 275.2 57.1 276.4 57.1 C 277.5 57.1 278.3 56.3 278.3 55 Z M 281.2 51.8 C 281.23 51.8 281.2 52.4 281.2 52.4 L 282.9 52.4 L 282.9 53 L 281.3 53 L 281.3 57.7 L 280.5 57.7 L 280.5 53 L 279.6 53 L 279.6 52.4 L 280.5 52.4 C 280.5 52.4 280.55 51.77 280.5 51.8 C 280.5 50.8 281.1 50.2 282.1 50.2 C 282.5 50.2 282.9 50.3 283.2 50.5 C 283.2 50.5 282.9 51.1 282.9 51.1 C 282.7 50.9 282.5 50.8 282.2 50.8 C 281.6 50.8 281.2 51.1 281.2 51.8 Z M 291 55.8 L 287.1 55.8 L 286.2 57.7 L 285.5 57.7 L 288.7 50.7 L 289.4 50.7 L 292.6 57.7 L 291.8 57.7 L 291 55.8 Z M 290.7 55.2 L 289 51.4 L 287.3 55.2 L 290.7 55.2 Z M 302.4 54.6 C 302.36 54.63 302.4 57.7 302.4 57.7 L 301.7 57.7 C 301.7 57.7 301.65 54.7 301.7 54.7 C 301.7 53.6 301.1 53 300.1 53 C 299.1 53 298.4 53.7 298.4 54.9 C 298.38 54.92 298.4 57.7 298.4 57.7 L 297.7 57.7 C 297.7 57.7 297.67 54.7 297.7 54.7 C 297.7 53.6 297.1 53 296.2 53 C 295.1 53 294.4 53.7 294.4 54.9 C 294.39 54.92 294.4 57.7 294.4 57.7 L 293.7 57.7 L 293.7 52.4 L 294.4 52.4 C 294.4 52.4 294.36 53.38 294.4 53.4 C 294.7 52.7 295.4 52.4 296.3 52.4 C 297.2 52.4 297.8 52.7 298.2 53.5 C 298.5 52.8 299.3 52.4 300.2 52.4 C 301.5 52.4 302.4 53.1 302.4 54.6 Z M 308.9 55.3 C 308.9 55.3 304.5 55.3 304.5 55.3 C 304.5 56.4 305.4 57.1 306.5 57.1 C 307.2 57.1 307.7 56.9 308.1 56.4 C 308.1 56.4 308.5 56.9 308.5 56.9 C 308.1 57.4 307.3 57.7 306.5 57.7 C 304.9 57.7 303.8 56.6 303.8 55 C 303.8 53.5 304.8 52.4 306.3 52.4 C 307.8 52.4 308.9 53.5 308.9 55 C 308.9 55.1 308.9 55.2 308.9 55.3 Z M 304.5 54.7 C 304.5 54.7 308.2 54.7 308.2 54.7 C 308.1 53.7 307.4 53 306.3 53 C 305.3 53 304.6 53.7 304.5 54.7 Z M 312.9 52.4 C 312.9 52.4 312.9 53.1 312.9 53.1 C 312.9 53.1 312.8 53.1 312.8 53.1 C 311.7 53.1 311 53.8 311 55 C 310.99 55 311 57.7 311 57.7 L 310.3 57.7 L 310.3 52.4 L 311 52.4 C 311 52.4 310.96 53.45 311 53.4 C 311.3 52.7 312 52.4 312.9 52.4 Z M 314 50.8 C 314 50.5 314.2 50.3 314.5 50.3 C 314.8 50.3 315 50.5 315 50.7 C 315 51 314.8 51.3 314.5 51.3 C 314.2 51.3 314 51 314 50.8 Z M 314.2 52.4 L 314.9 52.4 L 314.9 57.7 L 314.2 57.7 L 314.2 52.4 Z M 316.3 55 C 316.3 53.5 317.4 52.4 319 52.4 C 319.9 52.4 320.6 52.7 321 53.4 C 321 53.4 320.5 53.8 320.5 53.8 C 320.1 53.2 319.6 53 319 53 C 317.8 53 317 53.8 317 55 C 317 56.3 317.8 57.1 319 57.1 C 319.6 57.1 320.1 56.9 320.5 56.3 C 320.5 56.3 321 56.7 321 56.7 C 320.6 57.4 319.9 57.7 319 57.7 C 317.4 57.7 316.3 56.6 316.3 55 Z M 326.4 54.4 C 326.44 54.42 326.4 57.7 326.4 57.7 L 325.8 57.7 C 325.8 57.7 325.76 56.86 325.8 56.9 C 325.4 57.4 324.8 57.7 323.9 57.7 C 322.8 57.7 322 57.1 322 56.2 C 322 55.4 322.5 54.7 324.1 54.7 C 324.06 54.71 325.7 54.7 325.7 54.7 C 325.7 54.7 325.73 54.39 325.7 54.4 C 325.7 53.5 325.2 53 324.2 53 C 323.6 53 322.9 53.2 322.5 53.6 C 322.5 53.6 322.2 53.1 322.2 53.1 C 322.7 52.6 323.5 52.4 324.3 52.4 C 325.7 52.4 326.4 53.1 326.4 54.4 Z M 325.7 56.1 C 325.73 56.1 325.7 55.2 325.7 55.2 C 325.7 55.2 324.08 55.24 324.1 55.2 C 323.1 55.2 322.7 55.6 322.7 56.2 C 322.7 56.8 323.2 57.2 324.1 57.2 C 324.9 57.2 325.4 56.8 325.7 56.1 Z M 333.8 57.4 C 333.5 57.6 333.1 57.7 332.6 57.7 C 331.7 57.7 331.1 57.2 331.1 56.2 C 331.11 56.2 331.1 53 331.1 53 L 330.2 53 L 330.2 52.4 L 331.1 52.4 L 331.1 51.3 L 331.8 51.3 L 331.8 52.4 L 333.4 52.4 L 333.4 53 L 331.8 53 C 331.8 53 331.82 56.16 331.8 56.2 C 331.8 56.8 332.1 57.1 332.7 57.1 C 333 57.1 333.3 57 333.5 56.9 C 333.5 56.9 333.8 57.4 333.8 57.4 Z M 339.8 54.6 C 339.79 54.63 339.8 57.7 339.8 57.7 L 339.1 57.7 C 339.1 57.7 339.08 54.7 339.1 54.7 C 339.1 53.6 338.5 53 337.5 53 C 336.4 53 335.7 53.7 335.7 54.9 C 335.66 54.92 335.7 57.7 335.7 57.7 L 334.9 57.7 L 334.9 50.3 L 335.7 50.3 C 335.7 50.3 335.66 53.34 335.7 53.3 C 336 52.7 336.7 52.4 337.6 52.4 C 338.9 52.4 339.8 53.1 339.8 54.6 Z M 346.3 55.3 C 346.3 55.3 341.9 55.3 341.9 55.3 C 342 56.4 342.8 57.1 343.9 57.1 C 344.6 57.1 345.2 56.9 345.6 56.4 C 345.6 56.4 346 56.9 346 56.9 C 345.5 57.4 344.8 57.7 343.9 57.7 C 342.3 57.7 341.2 56.6 341.2 55 C 341.2 53.5 342.3 52.4 343.7 52.4 C 345.2 52.4 346.3 53.5 346.3 55 C 346.3 55.1 346.3 55.2 346.3 55.3 Z M 341.9 54.7 C 341.9 54.7 345.6 54.7 345.6 54.7 C 345.5 53.7 344.8 53 343.7 53 C 342.7 53 342 53.7 341.9 54.7 Z M 349.6 57.1 C 349.6 57.1 349.9 56.5 349.9 56.5 C 350.4 56.9 351.1 57.1 351.8 57.1 C 352.8 57.1 353.2 56.8 353.2 56.3 C 353.2 54.9 349.8 56 349.8 53.9 C 349.8 53 350.6 52.4 351.9 52.4 C 352.6 52.4 353.3 52.6 353.8 52.9 C 353.8 52.9 353.4 53.4 353.4 53.4 C 353 53.1 352.4 53 351.9 53 C 350.9 53 350.5 53.4 350.5 53.9 C 350.5 55.3 353.9 54.2 353.9 56.2 C 353.9 57.1 353.1 57.7 351.8 57.7 C 350.9 57.7 350.1 57.4 349.6 57.1 Z M 359.3 54.4 C 359.32 54.42 359.3 57.7 359.3 57.7 L 358.6 57.7 C 358.6 57.7 358.65 56.86 358.6 56.9 C 358.3 57.4 357.7 57.7 356.8 57.7 C 355.6 57.7 354.9 57.1 354.9 56.2 C 354.9 55.4 355.4 54.7 356.9 54.7 C 356.94 54.71 358.6 54.7 358.6 54.7 C 358.6 54.7 358.62 54.39 358.6 54.4 C 358.6 53.5 358.1 53 357.1 53 C 356.4 53 355.8 53.2 355.4 53.6 C 355.4 53.6 355.1 53.1 355.1 53.1 C 355.6 52.6 356.4 52.4 357.2 52.4 C 358.6 52.4 359.3 53.1 359.3 54.4 Z M 358.6 56.1 C 358.62 56.1 358.6 55.2 358.6 55.2 C 358.6 55.2 356.96 55.24 357 55.2 C 355.9 55.2 355.6 55.6 355.6 56.2 C 355.6 56.8 356.1 57.2 356.9 57.2 C 357.7 57.2 358.3 56.8 358.6 56.1 Z M 369.8 54.6 C 369.82 54.63 369.8 57.7 369.8 57.7 L 369.1 57.7 C 369.1 57.7 369.11 54.7 369.1 54.7 C 369.1 53.6 368.5 53 367.6 53 C 366.5 53 365.8 53.7 365.8 54.9 C 365.84 54.92 365.8 57.7 365.8 57.7 L 365.1 57.7 C 365.1 57.7 365.13 54.7 365.1 54.7 C 365.1 53.6 364.6 53 363.6 53 C 362.5 53 361.8 53.7 361.8 54.9 C 361.85 54.92 361.8 57.7 361.8 57.7 L 361.1 57.7 L 361.1 52.4 L 361.8 52.4 C 361.8 52.4 361.82 53.38 361.8 53.4 C 362.2 52.7 362.9 52.4 363.7 52.4 C 364.6 52.4 365.3 52.7 365.6 53.5 C 366 52.8 366.7 52.4 367.7 52.4 C 369 52.4 369.8 53.1 369.8 54.6 Z M 376.3 55.3 C 376.3 55.3 371.9 55.3 371.9 55.3 C 372 56.4 372.8 57.1 374 57.1 C 374.6 57.1 375.2 56.9 375.6 56.4 C 375.6 56.4 376 56.9 376 56.9 C 375.5 57.4 374.8 57.7 374 57.7 C 372.3 57.7 371.2 56.6 371.2 55 C 371.2 53.5 372.3 52.4 373.8 52.4 C 375.3 52.4 376.3 53.5 376.3 55 C 376.3 55.1 376.3 55.2 376.3 55.3 Z M 371.9 54.7 C 371.9 54.7 375.7 54.7 375.7 54.7 C 375.6 53.7 374.8 53 373.8 53 C 372.8 53 372 53.7 371.9 54.7 Z M 384.4 54.4 C 384.37 54.42 384.4 57.7 384.4 57.7 L 383.7 57.7 C 383.7 57.7 383.69 56.86 383.7 56.9 C 383.4 57.4 382.8 57.7 381.9 57.7 C 380.7 57.7 380 57.1 380 56.2 C 380 55.4 380.5 54.7 382 54.7 C 381.99 54.71 383.7 54.7 383.7 54.7 C 383.7 54.7 383.66 54.39 383.7 54.4 C 383.7 53.5 383.2 53 382.2 53 C 381.5 53 380.8 53.2 380.4 53.6 C 380.4 53.6 380.1 53.1 380.1 53.1 C 380.6 52.6 381.4 52.4 382.2 52.4 C 383.6 52.4 384.4 53.1 384.4 54.4 Z M 383.7 56.1 C 383.66 56.1 383.7 55.2 383.7 55.2 C 383.7 55.2 382.01 55.24 382 55.2 C 381 55.2 380.7 55.6 380.7 56.2 C 380.7 56.8 381.1 57.2 382 57.2 C 382.8 57.2 383.4 56.8 383.7 56.1 Z M 385.7 55 C 385.7 53.5 386.9 52.4 388.5 52.4 C 389.3 52.4 390.1 52.7 390.5 53.4 C 390.5 53.4 390 53.8 390 53.8 C 389.6 53.2 389.1 53 388.5 53 C 387.3 53 386.5 53.8 386.5 55 C 386.5 56.3 387.3 57.1 388.5 57.1 C 389.1 57.1 389.6 56.9 390 56.3 C 390 56.3 390.5 56.7 390.5 56.7 C 390.1 57.4 389.3 57.7 388.5 57.7 C 386.9 57.7 385.7 56.6 385.7 55 Z M 394.9 57.4 C 394.6 57.6 394.2 57.7 393.8 57.7 C 392.8 57.7 392.2 57.2 392.2 56.2 C 392.21 56.2 392.2 53 392.2 53 L 391.3 53 L 391.3 52.4 L 392.2 52.4 L 392.2 51.3 L 392.9 51.3 L 392.9 52.4 L 394.5 52.4 L 394.5 53 L 392.9 53 C 392.9 53 392.92 56.16 392.9 56.2 C 392.9 56.8 393.2 57.1 393.8 57.1 C 394.1 57.1 394.4 57 394.6 56.9 C 394.6 56.9 394.9 57.4 394.9 57.4 Z M 395.9 50.8 C 395.9 50.5 396.1 50.3 396.4 50.3 C 396.7 50.3 396.9 50.5 396.9 50.7 C 396.9 51 396.7 51.3 396.4 51.3 C 396.1 51.3 395.9 51 395.9 50.8 Z M 396.1 52.4 L 396.8 52.4 L 396.8 57.7 L 396.1 57.7 L 396.1 52.4 Z M 398.2 55 C 398.2 53.5 399.3 52.4 400.8 52.4 C 402.4 52.4 403.5 53.5 403.5 55 C 403.5 56.6 402.4 57.7 400.8 57.7 C 399.3 57.7 398.2 56.6 398.2 55 Z M 402.8 55 C 402.8 53.8 402 53 400.8 53 C 399.7 53 398.9 53.8 398.9 55 C 398.9 56.3 399.7 57.1 400.8 57.1 C 402 57.1 402.8 56.3 402.8 55 Z M 409.8 54.6 C 409.77 54.63 409.8 57.7 409.8 57.7 L 409.1 57.7 C 409.1 57.7 409.06 54.7 409.1 54.7 C 409.1 53.6 408.5 53 407.5 53 C 406.3 53 405.6 53.7 405.6 54.9 C 405.64 54.92 405.6 57.7 405.6 57.7 L 404.9 57.7 L 404.9 52.4 L 405.6 52.4 C 405.6 52.4 405.61 53.39 405.6 53.4 C 406 52.7 406.7 52.4 407.6 52.4 C 408.9 52.4 409.8 53.1 409.8 54.6 Z M 422 52.4 L 420 57.7 L 419.4 57.7 L 417.7 53.4 L 416.1 57.7 L 415.4 57.7 L 413.4 52.4 L 414.1 52.4 L 415.7 56.9 L 417.4 52.4 L 418 52.4 L 419.7 56.9 L 421.4 52.4 L 422 52.4 Z M 422.5 55 C 422.5 53.5 423.7 52.4 425.2 52.4 C 426.7 52.4 427.9 53.5 427.9 55 C 427.9 56.6 426.7 57.7 425.2 57.7 C 423.7 57.7 422.5 56.6 422.5 55 Z M 427.1 55 C 427.1 53.8 426.3 53 425.2 53 C 424.1 53 423.2 53.8 423.2 55 C 423.2 56.3 424.1 57.1 425.2 57.1 C 426.3 57.1 427.1 56.3 427.1 55 Z M 434 52.4 L 434 57.7 L 433.3 57.7 C 433.3 57.7 433.34 56.72 433.3 56.7 C 433 57.4 432.3 57.7 431.4 57.7 C 430.1 57.7 429.2 57 429.2 55.5 C 429.23 55.47 429.2 52.4 429.2 52.4 L 429.9 52.4 C 429.9 52.4 429.94 55.4 429.9 55.4 C 429.9 56.5 430.5 57.1 431.5 57.1 C 432.6 57.1 433.3 56.4 433.3 55.2 C 433.31 55.18 433.3 52.4 433.3 52.4 L 434 52.4 Z M 435.9 50.3 L 436.6 50.3 L 436.6 57.7 L 435.9 57.7 L 435.9 50.3 Z M 443.4 50.3 L 443.4 57.7 L 442.7 57.7 C 442.7 57.7 442.67 56.64 442.7 56.6 C 442.2 57.3 441.5 57.7 440.6 57.7 C 439.1 57.7 438 56.6 438 55 C 438 53.5 439.1 52.4 440.6 52.4 C 441.5 52.4 442.2 52.7 442.6 53.4 C 442.64 53.42 442.6 50.3 442.6 50.3 L 443.4 50.3 Z M 442.7 55 C 442.7 53.8 441.8 53 440.7 53 C 439.6 53 438.7 53.8 438.7 55 C 438.7 56.3 439.6 57.1 440.7 57.1 C 441.8 57.1 442.7 56.3 442.7 55 Z M 447.2 57.1 C 447.2 57.1 447.5 56.5 447.5 56.5 C 448 56.9 448.7 57.1 449.4 57.1 C 450.4 57.1 450.8 56.8 450.8 56.3 C 450.8 54.9 447.4 56 447.4 53.9 C 447.4 53 448.2 52.4 449.5 52.4 C 450.2 52.4 450.9 52.6 451.4 52.9 C 451.4 52.9 451 53.4 451 53.4 C 450.6 53.1 450 53 449.5 53 C 448.5 53 448.1 53.4 448.1 53.9 C 448.1 55.3 451.5 54.2 451.5 56.2 C 451.5 57.1 450.7 57.7 449.4 57.7 C 448.5 57.7 447.7 57.4 447.2 57.1 Z M 460.8 52.4 L 458.8 57.7 L 458.1 57.7 L 456.4 53.4 L 454.8 57.7 L 454.1 57.7 L 452.1 52.4 L 452.8 52.4 L 454.5 56.9 L 456.1 52.4 L 456.8 52.4 L 458.4 56.9 L 460.1 52.4 L 460.8 52.4 Z M 461.7 50.8 C 461.7 50.5 461.9 50.3 462.2 50.3 C 462.5 50.3 462.7 50.5 462.7 50.7 C 462.7 51 462.5 51.3 462.2 51.3 C 461.9 51.3 461.7 51 461.7 50.8 Z M 461.9 52.4 L 462.6 52.4 L 462.6 57.7 L 461.9 57.7 L 461.9 52.4 Z M 467.3 57.4 C 467 57.6 466.6 57.7 466.2 57.7 C 465.2 57.7 464.6 57.2 464.6 56.2 C 464.62 56.2 464.6 53 464.6 53 L 463.7 53 L 463.7 52.4 L 464.6 52.4 L 464.6 51.3 L 465.3 51.3 L 465.3 52.4 L 466.9 52.4 L 466.9 53 L 465.3 53 C 465.3 53 465.33 56.16 465.3 56.2 C 465.3 56.8 465.6 57.1 466.2 57.1 C 466.5 57.1 466.8 57 467 56.9 C 467 56.9 467.3 57.4 467.3 57.4 Z M 467.8 55 C 467.8 53.5 469 52.4 470.5 52.4 C 471.4 52.4 472.2 52.7 472.6 53.4 C 472.6 53.4 472.1 53.8 472.1 53.8 C 471.7 53.2 471.1 53 470.5 53 C 469.4 53 468.5 53.8 468.5 55 C 468.5 56.3 469.4 57.1 470.5 57.1 C 471.1 57.1 471.7 56.9 472.1 56.3 C 472.1 56.3 472.6 56.7 472.6 56.7 C 472.2 57.4 471.4 57.7 470.5 57.7 C 469 57.7 467.8 56.6 467.8 55 Z M 478.7 54.6 C 478.74 54.63 478.7 57.7 478.7 57.7 L 478 57.7 C 478 57.7 478.03 54.7 478 54.7 C 478 53.6 477.5 53 476.5 53 C 475.3 53 474.6 53.7 474.6 54.9 C 474.61 54.92 474.6 57.7 474.6 57.7 L 473.9 57.7 L 473.9 50.3 L 474.6 50.3 C 474.6 50.3 474.61 53.34 474.6 53.3 C 475 52.7 475.7 52.4 476.6 52.4 C 477.9 52.4 478.7 53.1 478.7 54.6 Z " stroke="none" fill="#323132"/>
  </g>
  <g id="Polygon117485">
    <path d="M 6.5 39.2 C 6.5 37.1 8.1 35.6 10.2 35.6 C 11.2 35.6 12.1 36 12.7 36.6 C 12.7 36.6 12.3 37.1 12.3 37.1 C 11.7 36.5 11 36.3 10.2 36.3 C 8.5 36.3 7.2 37.5 7.2 39.2 C 7.2 40.8 8.5 42.1 10.2 42.1 C 11 42.1 11.7 41.8 12.3 41.2 C 12.3 41.2 12.7 41.7 12.7 41.7 C 12.1 42.4 11.2 42.7 10.2 42.7 C 8.1 42.7 6.5 41.2 6.5 39.2 Z M 18.7 37.4 L 18.7 42.7 L 18 42.7 C 18 42.7 18.04 41.72 18 41.7 C 17.7 42.4 17 42.7 16.2 42.7 C 14.8 42.7 13.9 42 13.9 40.5 C 13.93 40.47 13.9 37.4 13.9 37.4 L 14.6 37.4 C 14.6 37.4 14.64 40.4 14.6 40.4 C 14.6 41.5 15.2 42.1 16.2 42.1 C 17.3 42.1 18 41.4 18 40.2 C 18.01 40.18 18 37.4 18 37.4 L 18.7 37.4 Z M 20.6 35.3 L 21.3 35.3 L 21.3 42.7 L 20.6 42.7 L 20.6 35.3 Z M 26 42.4 C 25.7 42.6 25.3 42.7 24.9 42.7 C 23.9 42.7 23.3 42.2 23.3 41.2 C 23.35 41.2 23.3 38 23.3 38 L 22.4 38 L 22.4 37.4 L 23.3 37.4 L 23.3 36.3 L 24.1 36.3 L 24.1 37.4 L 25.7 37.4 L 25.7 38 L 24.1 38 C 24.1 38 24.06 41.16 24.1 41.2 C 24.1 41.8 24.4 42.1 25 42.1 C 25.3 42.1 25.5 42 25.7 41.9 C 25.7 41.9 26 42.4 26 42.4 Z M 31.8 37.4 L 31.8 42.7 L 31.1 42.7 C 31.1 42.7 31.1 41.72 31.1 41.7 C 30.7 42.4 30.1 42.7 29.2 42.7 C 27.9 42.7 27 42 27 40.5 C 26.99 40.47 27 37.4 27 37.4 L 27.7 37.4 C 27.7 37.4 27.7 40.4 27.7 40.4 C 27.7 41.5 28.3 42.1 29.3 42.1 C 30.4 42.1 31.1 41.4 31.1 40.2 C 31.07 40.18 31.1 37.4 31.1 37.4 L 31.8 37.4 Z M 36.3 37.4 C 36.3 37.4 36.3 38.1 36.3 38.1 C 36.2 38.1 36.2 38.1 36.1 38.1 C 35 38.1 34.4 38.8 34.4 40 C 34.35 40 34.4 42.7 34.4 42.7 L 33.6 42.7 L 33.6 37.4 L 34.3 37.4 C 34.3 37.4 34.33 38.45 34.3 38.4 C 34.7 37.7 35.3 37.4 36.3 37.4 Z M 41.6 39.4 C 41.63 39.42 41.6 42.7 41.6 42.7 L 41 42.7 C 41 42.7 40.96 41.86 41 41.9 C 40.6 42.4 40 42.7 39.1 42.7 C 38 42.7 37.2 42.1 37.2 41.2 C 37.2 40.4 37.7 39.7 39.3 39.7 C 39.25 39.71 40.9 39.7 40.9 39.7 C 40.9 39.7 40.93 39.39 40.9 39.4 C 40.9 38.5 40.4 38 39.4 38 C 38.8 38 38.1 38.2 37.7 38.6 C 37.7 38.6 37.4 38.1 37.4 38.1 C 37.9 37.6 38.7 37.4 39.5 37.4 C 40.9 37.4 41.6 38.1 41.6 39.4 Z M 40.9 41.1 C 40.93 41.1 40.9 40.2 40.9 40.2 C 40.9 40.2 39.27 40.24 39.3 40.2 C 38.3 40.2 37.9 40.6 37.9 41.2 C 37.9 41.8 38.4 42.2 39.3 42.2 C 40.1 42.2 40.6 41.8 40.9 41.1 Z M 43.5 35.3 L 44.2 35.3 L 44.2 42.7 L 43.5 42.7 L 43.5 35.3 Z M 48.6 35.8 C 48.6 35.5 48.8 35.3 49.1 35.3 C 49.4 35.3 49.6 35.5 49.6 35.7 C 49.6 36 49.4 36.3 49.1 36.3 C 48.8 36.3 48.6 36 48.6 35.8 Z M 48.8 37.4 L 49.5 37.4 L 49.5 42.7 L 48.8 42.7 L 48.8 37.4 Z M 56.2 39.6 C 56.15 39.63 56.2 42.7 56.2 42.7 L 55.4 42.7 C 55.4 42.7 55.44 39.7 55.4 39.7 C 55.4 38.6 54.9 38 53.9 38 C 52.7 38 52 38.7 52 39.9 C 52.02 39.92 52 42.7 52 42.7 L 51.3 42.7 L 51.3 37.4 L 52 37.4 C 52 37.4 51.99 38.39 52 38.4 C 52.4 37.7 53.1 37.4 54 37.4 C 55.3 37.4 56.2 38.1 56.2 39.6 Z M 59.7 35.2 C 60.1 35.2 60.5 35.3 60.8 35.5 C 60.8 35.5 60.5 36.1 60.5 36.1 C 60.3 35.9 60 35.8 59.7 35.8 C 59.1 35.8 58.8 36.1 58.8 36.8 C 58.81 36.8 58.8 37.4 58.8 37.4 L 60.4 37.4 L 60.4 38 L 58.8 38 L 58.8 42.7 L 58.1 42.7 L 58.1 38 L 57.2 38 L 57.2 37.4 L 58.1 37.4 C 58.1 37.4 58.12 36.77 58.1 36.8 C 58.1 35.8 58.7 35.2 59.7 35.2 Z M 62.1 35.3 L 62.1 42.7 L 61.4 42.7 L 61.4 35.3 L 62.1 35.3 Z M 68.7 37.4 L 68.7 42.7 L 68.1 42.7 C 68.1 42.7 68.05 41.72 68.1 41.7 C 67.7 42.4 67 42.7 66.2 42.7 C 64.8 42.7 63.9 42 63.9 40.5 C 63.94 40.47 63.9 37.4 63.9 37.4 L 64.6 37.4 C 64.6 37.4 64.65 40.4 64.6 40.4 C 64.6 41.5 65.2 42.1 66.2 42.1 C 67.3 42.1 68 41.4 68 40.2 C 68.02 40.18 68 37.4 68 37.4 L 68.7 37.4 Z M 75.3 40.3 C 75.3 40.3 70.9 40.3 70.9 40.3 C 71 41.4 71.8 42.1 73 42.1 C 73.6 42.1 74.2 41.9 74.6 41.4 C 74.6 41.4 75 41.9 75 41.9 C 74.5 42.4 73.8 42.7 72.9 42.7 C 71.3 42.7 70.2 41.6 70.2 40 C 70.2 38.5 71.3 37.4 72.7 37.4 C 74.2 37.4 75.3 38.5 75.3 40 C 75.3 40.1 75.3 40.2 75.3 40.3 Z M 70.9 39.7 C 70.9 39.7 74.6 39.7 74.6 39.7 C 74.5 38.7 73.8 38 72.7 38 C 71.7 38 71 38.7 70.9 39.7 Z M 81.5 39.6 C 81.54 39.63 81.5 42.7 81.5 42.7 L 80.8 42.7 C 80.8 42.7 80.83 39.7 80.8 39.7 C 80.8 38.6 80.3 38 79.3 38 C 78.1 38 77.4 38.7 77.4 39.9 C 77.41 39.92 77.4 42.7 77.4 42.7 L 76.7 42.7 L 76.7 37.4 L 77.4 37.4 C 77.4 37.4 77.38 38.39 77.4 38.4 C 77.8 37.7 78.5 37.4 79.4 37.4 C 80.7 37.4 81.5 38.1 81.5 39.6 Z M 82.9 40 C 82.9 38.5 84.1 37.4 85.6 37.4 C 86.5 37.4 87.3 37.7 87.7 38.4 C 87.7 38.4 87.2 38.8 87.2 38.8 C 86.8 38.2 86.2 38 85.6 38 C 84.5 38 83.6 38.8 83.6 40 C 83.6 41.3 84.5 42.1 85.6 42.1 C 86.2 42.1 86.8 41.9 87.2 41.3 C 87.2 41.3 87.7 41.7 87.7 41.7 C 87.3 42.4 86.5 42.7 85.6 42.7 C 84.1 42.7 82.9 41.6 82.9 40 Z M 93.6 40.3 C 93.6 40.3 89.2 40.3 89.2 40.3 C 89.3 41.4 90.1 42.1 91.3 42.1 C 91.9 42.1 92.5 41.9 92.9 41.4 C 92.9 41.4 93.3 41.9 93.3 41.9 C 92.8 42.4 92.1 42.7 91.3 42.7 C 89.6 42.7 88.5 41.6 88.5 40 C 88.5 38.5 89.6 37.4 91.1 37.4 C 92.6 37.4 93.6 38.5 93.6 40 C 93.6 40.1 93.6 40.2 93.6 40.3 Z M 89.2 39.7 C 89.2 39.7 92.9 39.7 92.9 39.7 C 92.9 38.7 92.1 38 91.1 38 C 90.1 38 89.3 38.7 89.2 39.7 Z M 94.4 42.1 C 94.4 42.1 94.7 41.5 94.7 41.5 C 95.2 41.9 95.9 42.1 96.6 42.1 C 97.6 42.1 98 41.8 98 41.3 C 98 39.9 94.6 41 94.6 38.9 C 94.6 38 95.3 37.4 96.7 37.4 C 97.4 37.4 98.1 37.6 98.5 37.9 C 98.5 37.9 98.2 38.4 98.2 38.4 C 97.8 38.1 97.2 38 96.7 38 C 95.7 38 95.3 38.4 95.3 38.9 C 95.3 40.3 98.7 39.2 98.7 41.2 C 98.7 42.1 97.9 42.7 96.6 42.7 C 95.7 42.7 94.8 42.4 94.4 42.1 Z M 110.4 37.4 L 108.4 42.7 L 107.7 42.7 L 106.1 38.4 L 104.4 42.7 L 103.7 42.7 L 101.7 37.4 L 102.4 37.4 L 104.1 41.9 L 105.8 37.4 L 106.4 37.4 L 108.1 41.9 L 109.7 37.4 L 110.4 37.4 Z M 111.3 35.8 C 111.3 35.5 111.5 35.3 111.8 35.3 C 112.1 35.3 112.3 35.5 112.3 35.7 C 112.3 36 112.1 36.3 111.8 36.3 C 111.5 36.3 111.3 36 111.3 35.8 Z M 111.5 37.4 L 112.2 37.4 L 112.2 42.7 L 111.5 42.7 L 111.5 37.4 Z M 114 35.3 L 114.7 35.3 L 114.7 42.7 L 114 42.7 L 114 35.3 Z M 116.6 35.3 L 117.3 35.3 L 117.3 42.7 L 116.6 42.7 L 116.6 35.3 Z M 126.7 39.6 C 126.73 39.63 126.7 42.7 126.7 42.7 L 126 42.7 C 126 42.7 126.02 39.7 126 39.7 C 126 38.6 125.4 38 124.4 38 C 123.3 38 122.6 38.7 122.6 39.9 C 122.6 39.92 122.6 42.7 122.6 42.7 L 121.9 42.7 L 121.9 37.4 L 122.6 37.4 C 122.6 37.4 122.57 38.39 122.6 38.4 C 122.9 37.7 123.7 37.4 124.6 37.4 C 125.8 37.4 126.7 38.1 126.7 39.6 Z M 133.2 40.3 C 133.2 40.3 128.8 40.3 128.8 40.3 C 128.9 41.4 129.7 42.1 130.9 42.1 C 131.5 42.1 132.1 41.9 132.5 41.4 C 132.5 41.4 132.9 41.9 132.9 41.9 C 132.4 42.4 131.7 42.7 130.9 42.7 C 129.2 42.7 128.1 41.6 128.1 40 C 128.1 38.5 129.2 37.4 130.7 37.4 C 132.2 37.4 133.2 38.5 133.2 40 C 133.2 40.1 133.2 40.2 133.2 40.3 Z M 128.8 39.7 C 128.8 39.7 132.6 39.7 132.6 39.7 C 132.5 38.7 131.7 38 130.7 38 C 129.7 38 128.9 38.7 128.8 39.7 Z M 139.3 40.3 C 139.3 40.3 134.9 40.3 134.9 40.3 C 135 41.4 135.9 42.1 137 42.1 C 137.7 42.1 138.2 41.9 138.6 41.4 C 138.6 41.4 139 41.9 139 41.9 C 138.6 42.4 137.8 42.7 137 42.7 C 135.4 42.7 134.2 41.6 134.2 40 C 134.2 38.5 135.3 37.4 136.8 37.4 C 138.3 37.4 139.4 38.5 139.4 40 C 139.4 40.1 139.3 40.2 139.3 40.3 Z M 134.9 39.7 C 134.9 39.7 138.7 39.7 138.7 39.7 C 138.6 38.7 137.8 38 136.8 38 C 135.8 38 135 38.7 134.9 39.7 Z M 145.7 35.3 L 145.7 42.7 L 145 42.7 C 145 42.7 145.01 41.64 145 41.6 C 144.6 42.3 143.8 42.7 143 42.7 C 141.5 42.7 140.4 41.6 140.4 40 C 140.4 38.5 141.5 37.4 143 37.4 C 143.8 37.4 144.5 37.7 145 38.4 C 144.98 38.42 145 35.3 145 35.3 L 145.7 35.3 Z M 145 40 C 145 38.8 144.1 38 143 38 C 141.9 38 141.1 38.8 141.1 40 C 141.1 41.3 141.9 42.1 143 42.1 C 144.1 42.1 145 41.3 145 40 Z M 153.1 42.4 C 152.8 42.6 152.4 42.7 151.9 42.7 C 151 42.7 150.4 42.2 150.4 41.2 C 150.41 41.2 150.4 38 150.4 38 L 149.5 38 L 149.5 37.4 L 150.4 37.4 L 150.4 36.3 L 151.1 36.3 L 151.1 37.4 L 152.7 37.4 L 152.7 38 L 151.1 38 C 151.1 38 151.12 41.16 151.1 41.2 C 151.1 41.8 151.4 42.1 152 42.1 C 152.3 42.1 152.6 42 152.8 41.9 C 152.8 41.9 153.1 42.4 153.1 42.4 Z M 153.6 40 C 153.6 38.5 154.7 37.4 156.3 37.4 C 157.8 37.4 159 38.5 159 40 C 159 41.6 157.8 42.7 156.3 42.7 C 154.7 42.7 153.6 41.6 153.6 40 Z M 158.2 40 C 158.2 38.8 157.4 38 156.3 38 C 155.2 38 154.3 38.8 154.3 40 C 154.3 41.3 155.2 42.1 156.3 42.1 C 157.4 42.1 158.2 41.3 158.2 40 Z M 168.4 40 C 168.4 41.6 167.2 42.7 165.7 42.7 C 164.9 42.7 164.1 42.3 163.7 41.6 C 163.71 41.64 163.7 42.7 163.7 42.7 L 163 42.7 L 163 35.3 L 163.7 35.3 C 163.7 35.3 163.74 38.42 163.7 38.4 C 164.2 37.7 164.9 37.4 165.7 37.4 C 167.2 37.4 168.4 38.5 168.4 40 Z M 167.6 40 C 167.6 38.8 166.8 38 165.7 38 C 164.6 38 163.7 38.8 163.7 40 C 163.7 41.3 164.6 42.1 165.7 42.1 C 166.8 42.1 167.6 41.3 167.6 40 Z M 174.5 40.3 C 174.5 40.3 170.1 40.3 170.1 40.3 C 170.2 41.4 171 42.1 172.1 42.1 C 172.8 42.1 173.4 41.9 173.8 41.4 C 173.8 41.4 174.2 41.9 174.2 41.9 C 173.7 42.4 173 42.7 172.1 42.7 C 170.5 42.7 169.4 41.6 169.4 40 C 169.4 38.5 170.5 37.4 171.9 37.4 C 173.4 37.4 174.5 38.5 174.5 40 C 174.5 40.1 174.5 40.2 174.5 40.3 Z M 170.1 39.7 C 170.1 39.7 173.8 39.7 173.8 39.7 C 173.7 38.7 173 38 171.9 38 C 170.9 38 170.2 38.7 170.1 39.7 Z M 178 40 C 178 38.5 179.2 37.4 180.7 37.4 C 181.6 37.4 182.4 37.7 182.8 38.4 C 182.8 38.4 182.3 38.8 182.3 38.8 C 181.9 38.2 181.3 38 180.7 38 C 179.6 38 178.7 38.8 178.7 40 C 178.7 41.3 179.6 42.1 180.7 42.1 C 181.3 42.1 181.9 41.9 182.3 41.3 C 182.3 41.3 182.8 41.7 182.8 41.7 C 182.4 42.4 181.6 42.7 180.7 42.7 C 179.2 42.7 178 41.6 178 40 Z M 183.6 40 C 183.6 38.5 184.7 37.4 186.3 37.4 C 187.8 37.4 188.9 38.5 188.9 40 C 188.9 41.6 187.8 42.7 186.3 42.7 C 184.7 42.7 183.6 41.6 183.6 40 Z M 188.2 40 C 188.2 38.8 187.4 38 186.3 38 C 185.1 38 184.3 38.8 184.3 40 C 184.3 41.3 185.1 42.1 186.3 42.1 C 187.4 42.1 188.2 41.3 188.2 40 Z M 195.2 39.6 C 195.2 39.63 195.2 42.7 195.2 42.7 L 194.5 42.7 C 194.5 42.7 194.49 39.7 194.5 39.7 C 194.5 38.6 193.9 38 192.9 38 C 191.8 38 191.1 38.7 191.1 39.9 C 191.07 39.92 191.1 42.7 191.1 42.7 L 190.4 42.7 L 190.4 37.4 L 191 37.4 C 191 37.4 191.04 38.39 191 38.4 C 191.4 37.7 192.1 37.4 193 37.4 C 194.3 37.4 195.2 38.1 195.2 39.6 Z M 196.4 42.1 C 196.4 42.1 196.7 41.5 196.7 41.5 C 197.2 41.9 197.9 42.1 198.6 42.1 C 199.6 42.1 200 41.8 200 41.3 C 200 39.9 196.6 41 196.6 38.9 C 196.6 38 197.3 37.4 198.7 37.4 C 199.4 37.4 200.1 37.6 200.5 37.9 C 200.5 37.9 200.2 38.4 200.2 38.4 C 199.8 38.1 199.2 38 198.7 38 C 197.7 38 197.3 38.4 197.3 38.9 C 197.3 40.3 200.7 39.2 200.7 41.2 C 200.7 42.1 199.9 42.7 198.6 42.7 C 197.7 42.7 196.8 42.4 196.4 42.1 Z M 201.9 35.8 C 201.9 35.5 202.1 35.3 202.4 35.3 C 202.7 35.3 202.9 35.5 202.9 35.7 C 202.9 36 202.7 36.3 202.4 36.3 C 202.1 36.3 201.9 36 201.9 35.8 Z M 202 37.4 L 202.7 37.4 L 202.7 42.7 L 202 42.7 L 202 37.4 Z M 209.5 35.3 L 209.5 42.7 L 208.8 42.7 C 208.8 42.7 208.78 41.64 208.8 41.6 C 208.4 42.3 207.6 42.7 206.8 42.7 C 205.3 42.7 204.1 41.6 204.1 40 C 204.1 38.5 205.3 37.4 206.8 37.4 C 207.6 37.4 208.3 37.7 208.8 38.4 C 208.75 38.42 208.8 35.3 208.8 35.3 L 209.5 35.3 Z M 208.8 40 C 208.8 38.8 207.9 38 206.8 38 C 205.7 38 204.9 38.8 204.9 40 C 204.9 41.3 205.7 42.1 206.8 42.1 C 207.9 42.1 208.8 41.3 208.8 40 Z M 216 40.3 C 216 40.3 211.6 40.3 211.6 40.3 C 211.7 41.4 212.5 42.1 213.7 42.1 C 214.3 42.1 214.9 41.9 215.3 41.4 C 215.3 41.4 215.7 41.9 215.7 41.9 C 215.2 42.4 214.5 42.7 213.7 42.7 C 212 42.7 210.9 41.6 210.9 40 C 210.9 38.5 212 37.4 213.5 37.4 C 215 37.4 216 38.5 216 40 C 216 40.1 216 40.2 216 40.3 Z M 211.6 39.7 C 211.6 39.7 215.3 39.7 215.3 39.7 C 215.3 38.7 214.5 38 213.5 38 C 212.5 38 211.7 38.7 211.6 39.7 Z M 220.1 37.4 C 220.1 37.4 220.1 38.1 220.1 38.1 C 220 38.1 220 38.1 219.9 38.1 C 218.8 38.1 218.1 38.8 218.1 40 C 218.14 40 218.1 42.7 218.1 42.7 L 217.4 42.7 L 217.4 37.4 L 218.1 37.4 C 218.1 37.4 218.11 38.45 218.1 38.4 C 218.4 37.7 219.1 37.4 220.1 37.4 Z M 225.8 40.3 C 225.8 40.3 221.4 40.3 221.4 40.3 C 221.5 41.4 222.3 42.1 223.5 42.1 C 224.1 42.1 224.7 41.9 225.1 41.4 C 225.1 41.4 225.5 41.9 225.5 41.9 C 225 42.4 224.3 42.7 223.5 42.7 C 221.8 42.7 220.7 41.6 220.7 40 C 220.7 38.5 221.8 37.4 223.3 37.4 C 224.8 37.4 225.8 38.5 225.8 40 C 225.8 40.1 225.8 40.2 225.8 40.3 Z M 221.4 39.7 C 221.4 39.7 225.2 39.7 225.2 39.7 C 225.1 38.7 224.3 38 223.3 38 C 222.3 38 221.5 38.7 221.4 39.7 Z M 232.2 35.3 L 232.2 42.7 L 231.5 42.7 C 231.5 42.7 231.49 41.64 231.5 41.6 C 231.1 42.3 230.3 42.7 229.5 42.7 C 228 42.7 226.8 41.6 226.8 40 C 226.8 38.5 228 37.4 229.5 37.4 C 230.3 37.4 231 37.7 231.5 38.4 C 231.46 38.42 231.5 35.3 231.5 35.3 L 232.2 35.3 Z M 231.5 40 C 231.5 38.8 230.6 38 229.5 38 C 228.4 38 227.6 38.8 227.6 40 C 227.6 41.3 228.4 42.1 229.5 42.1 C 230.6 42.1 231.5 41.3 231.5 40 Z M 234.8 42.2 C 234.8 42.3 234.8 42.5 234.7 42.8 C 234.68 42.76 234.3 44.1 234.3 44.1 L 233.8 44.1 C 233.8 44.1 234.12 42.69 234.1 42.7 C 233.9 42.6 233.8 42.4 233.8 42.2 C 233.8 41.9 234 41.6 234.3 41.6 C 234.6 41.6 234.8 41.9 234.8 42.2 Z M 239.8 36.8 C 239.76 36.8 239.8 37.4 239.8 37.4 L 241.4 37.4 L 241.4 38 L 239.8 38 L 239.8 42.7 L 239.1 42.7 L 239.1 38 L 238.1 38 L 238.1 37.4 L 239.1 37.4 C 239.1 37.4 239.07 36.77 239.1 36.8 C 239.1 35.8 239.6 35.2 240.7 35.2 C 241 35.2 241.4 35.3 241.7 35.5 C 241.7 35.5 241.5 36.1 241.5 36.1 C 241.3 35.9 241 35.8 240.7 35.8 C 240.1 35.8 239.8 36.1 239.8 36.8 Z M 241.8 40 C 241.8 38.5 242.9 37.4 244.5 37.4 C 246 37.4 247.1 38.5 247.1 40 C 247.1 41.6 246 42.7 244.5 42.7 C 242.9 42.7 241.8 41.6 241.8 40 Z M 246.4 40 C 246.4 38.8 245.6 38 244.5 38 C 243.3 38 242.5 38.8 242.5 40 C 242.5 41.3 243.3 42.1 244.5 42.1 C 245.6 42.1 246.4 41.3 246.4 40 Z M 251.2 37.4 C 251.2 37.4 251.2 38.1 251.2 38.1 C 251.2 38.1 251.1 38.1 251 38.1 C 249.9 38.1 249.3 38.8 249.3 40 C 249.27 40 249.3 42.7 249.3 42.7 L 248.6 42.7 L 248.6 37.4 L 249.2 37.4 C 249.2 37.4 249.24 38.45 249.2 38.4 C 249.6 37.7 250.2 37.4 251.2 37.4 Z M 259.8 40.3 C 259.8 40.3 255.4 40.3 255.4 40.3 C 255.5 41.4 256.3 42.1 257.4 42.1 C 258.1 42.1 258.7 41.9 259.1 41.4 C 259.1 41.4 259.5 41.9 259.5 41.9 C 259 42.4 258.3 42.7 257.4 42.7 C 255.8 42.7 254.7 41.6 254.7 40 C 254.7 38.5 255.8 37.4 257.2 37.4 C 258.7 37.4 259.8 38.5 259.8 40 C 259.8 40.1 259.8 40.2 259.8 40.3 Z M 255.4 39.7 C 255.4 39.7 259.1 39.7 259.1 39.7 C 259 38.7 258.3 38 257.2 38 C 256.2 38 255.5 38.7 255.4 39.7 Z M 264.4 42.7 L 262.7 40.5 L 261.1 42.7 L 260.3 42.7 L 262.3 40 L 260.4 37.4 L 261.2 37.4 L 262.7 39.5 L 264.3 37.4 L 265.1 37.4 L 263.1 40 L 265.2 42.7 L 264.4 42.7 Z M 270.2 39.4 C 270.25 39.42 270.2 42.7 270.2 42.7 L 269.6 42.7 C 269.6 42.7 269.57 41.86 269.6 41.9 C 269.2 42.4 268.6 42.7 267.8 42.7 C 266.6 42.7 265.8 42.1 265.8 41.2 C 265.8 40.4 266.4 39.7 267.9 39.7 C 267.87 39.71 269.5 39.7 269.5 39.7 C 269.5 39.7 269.54 39.39 269.5 39.4 C 269.5 38.5 269 38 268 38 C 267.4 38 266.7 38.2 266.3 38.6 C 266.3 38.6 266 38.1 266 38.1 C 266.5 37.6 267.3 37.4 268.1 37.4 C 269.5 37.4 270.2 38.1 270.2 39.4 Z M 269.5 41.1 C 269.54 41.1 269.5 40.2 269.5 40.2 C 269.5 40.2 267.89 40.24 267.9 40.2 C 266.9 40.2 266.5 40.6 266.5 41.2 C 266.5 41.8 267 42.2 267.9 42.2 C 268.7 42.2 269.3 41.8 269.5 41.1 Z M 280.7 39.6 C 280.74 39.63 280.7 42.7 280.7 42.7 L 280 42.7 C 280 42.7 280.03 39.7 280 39.7 C 280 38.6 279.5 38 278.5 38 C 277.4 38 276.8 38.7 276.8 39.9 C 276.76 39.92 276.8 42.7 276.8 42.7 L 276.1 42.7 C 276.1 42.7 276.05 39.7 276.1 39.7 C 276.1 38.6 275.5 38 274.5 38 C 273.5 38 272.8 38.7 272.8 39.9 C 272.77 39.92 272.8 42.7 272.8 42.7 L 272.1 42.7 L 272.1 37.4 L 272.7 37.4 C 272.7 37.4 272.74 38.38 272.7 38.4 C 273.1 37.7 273.8 37.4 274.7 37.4 C 275.5 37.4 276.2 37.7 276.5 38.5 C 276.9 37.8 277.7 37.4 278.6 37.4 C 279.9 37.4 280.7 38.1 280.7 39.6 Z M 287.9 40.1 C 287.9 41.7 286.8 42.7 285.3 42.7 C 284.4 42.7 283.7 42.4 283.3 41.7 C 283.28 41.69 283.3 44.6 283.3 44.6 L 282.6 44.6 L 282.6 37.4 L 283.3 37.4 C 283.3 37.4 283.25 38.46 283.3 38.5 C 283.7 37.8 284.4 37.4 285.3 37.4 C 286.8 37.4 287.9 38.5 287.9 40.1 Z M 287.2 40 C 287.2 38.8 286.3 38 285.2 38 C 284.1 38 283.3 38.8 283.3 40 C 283.3 41.3 284.1 42.1 285.2 42.1 C 286.3 42.1 287.2 41.3 287.2 40 Z M 289.4 35.3 L 290.1 35.3 L 290.1 42.7 L 289.4 42.7 L 289.4 35.3 Z M 296.6 40.3 C 296.6 40.3 292.2 40.3 292.2 40.3 C 292.3 41.4 293.1 42.1 294.3 42.1 C 294.9 42.1 295.5 41.9 295.9 41.4 C 295.9 41.4 296.3 41.9 296.3 41.9 C 295.8 42.4 295.1 42.7 294.2 42.7 C 292.6 42.7 291.5 41.6 291.5 40 C 291.5 38.5 292.6 37.4 294.1 37.4 C 295.5 37.4 296.6 38.5 296.6 40 C 296.6 40.1 296.6 40.2 296.6 40.3 Z M 292.2 39.7 C 292.2 39.7 295.9 39.7 295.9 39.7 C 295.8 38.7 295.1 38 294.1 38 C 293 38 292.3 38.7 292.2 39.7 Z M 298.7 42.2 C 298.7 42.3 298.6 42.5 298.5 42.8 C 298.52 42.76 298.1 44.1 298.1 44.1 L 297.6 44.1 C 297.6 44.1 297.96 42.69 298 42.7 C 297.8 42.6 297.6 42.4 297.6 42.2 C 297.6 41.9 297.8 41.6 298.1 41.6 C 298.4 41.6 298.7 41.9 298.7 42.2 Z M 302.6 35.8 C 302.6 35.5 302.9 35.3 303.2 35.3 C 303.4 35.3 303.7 35.5 303.7 35.7 C 303.7 36 303.5 36.3 303.2 36.3 C 302.9 36.3 302.6 36 302.6 35.8 Z M 302.8 37.4 L 303.5 37.4 L 303.5 42.7 L 302.8 42.7 L 302.8 37.4 Z M 310.2 39.6 C 310.18 39.63 310.2 42.7 310.2 42.7 L 309.5 42.7 C 309.5 42.7 309.47 39.7 309.5 39.7 C 309.5 38.6 308.9 38 307.9 38 C 306.8 38 306.1 38.7 306.1 39.9 C 306.05 39.92 306.1 42.7 306.1 42.7 L 305.3 42.7 L 305.3 37.4 L 306 37.4 C 306 37.4 306.02 38.39 306 38.4 C 306.4 37.7 307.1 37.4 308 37.4 C 309.3 37.4 310.2 38.1 310.2 39.6 Z M 319.8 42 L 319.8 42.7 L 314.9 42.7 L 314.9 35.7 L 319.7 35.7 L 319.7 36.3 L 315.6 36.3 L 315.6 38.8 L 319.2 38.8 L 319.2 39.4 L 315.6 39.4 L 315.6 42 L 319.8 42 Z M 325.8 37.4 L 325.8 42.7 L 325.1 42.7 C 325.1 42.7 325.12 41.72 325.1 41.7 C 324.7 42.4 324.1 42.7 323.2 42.7 C 321.9 42.7 321 42 321 40.5 C 321.01 40.47 321 37.4 321 37.4 L 321.7 37.4 C 321.7 37.4 321.72 40.4 321.7 40.4 C 321.7 41.5 322.3 42.1 323.3 42.1 C 324.4 42.1 325.1 41.4 325.1 40.2 C 325.09 40.18 325.1 37.4 325.1 37.4 L 325.8 37.4 Z M 330.3 37.4 C 330.3 37.4 330.3 38.1 330.3 38.1 C 330.2 38.1 330.2 38.1 330.1 38.1 C 329 38.1 328.4 38.8 328.4 40 C 328.37 40 328.4 42.7 328.4 42.7 L 327.7 42.7 L 327.7 37.4 L 328.3 37.4 C 328.3 37.4 328.34 38.45 328.3 38.4 C 328.7 37.7 329.3 37.4 330.3 37.4 Z M 330.9 40 C 330.9 38.5 332.1 37.4 333.6 37.4 C 335.1 37.4 336.3 38.5 336.3 40 C 336.3 41.6 335.1 42.7 333.6 42.7 C 332.1 42.7 330.9 41.6 330.9 40 Z M 335.6 40 C 335.6 38.8 334.7 38 333.6 38 C 332.5 38 331.6 38.8 331.6 40 C 331.6 41.3 332.5 42.1 333.6 42.1 C 334.7 42.1 335.6 41.3 335.6 40 Z M 343 40.1 C 343 41.7 341.9 42.7 340.4 42.7 C 339.6 42.7 338.9 42.4 338.4 41.7 C 338.41 41.69 338.4 44.6 338.4 44.6 L 337.7 44.6 L 337.7 37.4 L 338.4 37.4 C 338.4 37.4 338.38 38.46 338.4 38.5 C 338.8 37.8 339.5 37.4 340.4 37.4 C 341.9 37.4 343 38.5 343 40.1 Z M 342.3 40 C 342.3 38.8 341.5 38 340.4 38 C 339.2 38 338.4 38.8 338.4 40 C 338.4 41.3 339.2 42.1 340.4 42.1 C 341.5 42.1 342.3 41.3 342.3 40 Z M 349.1 40.3 C 349.1 40.3 344.7 40.3 344.7 40.3 C 344.8 41.4 345.7 42.1 346.8 42.1 C 347.5 42.1 348 41.9 348.4 41.4 C 348.4 41.4 348.8 41.9 348.8 41.9 C 348.4 42.4 347.6 42.7 346.8 42.7 C 345.2 42.7 344 41.6 344 40 C 344 38.5 345.1 37.4 346.6 37.4 C 348.1 37.4 349.2 38.5 349.2 40 C 349.2 40.1 349.1 40.2 349.1 40.3 Z M 344.7 39.7 C 344.7 39.7 348.5 39.7 348.5 39.7 C 348.4 38.7 347.6 38 346.6 38 C 345.6 38 344.8 38.7 344.7 39.7 Z M 354.9 35.2 C 355.3 35.2 355.7 35.3 356 35.5 C 356 35.5 355.7 36.1 355.7 36.1 C 355.5 35.9 355.3 35.8 355 35.8 C 354.4 35.8 354 36.1 354 36.8 C 354.04 36.8 354 37.4 354 37.4 L 355.7 37.4 L 355.7 38 L 354.1 38 L 354.1 42.7 L 353.3 42.7 L 353.3 38 L 352.4 38 L 352.4 37.4 L 353.3 37.4 C 353.3 37.4 353.35 36.77 353.3 36.8 C 353.3 35.8 353.9 35.2 354.9 35.2 Z M 357.3 35.3 L 357.3 42.7 L 356.6 42.7 L 356.6 35.3 L 357.3 35.3 Z M 359.1 35.8 C 359.1 35.5 359.3 35.3 359.6 35.3 C 359.9 35.3 360.1 35.5 360.1 35.7 C 360.1 36 359.9 36.3 359.6 36.3 C 359.3 36.3 359.1 36 359.1 35.8 Z M 359.2 37.4 L 359.9 37.4 L 359.9 42.7 L 359.2 42.7 L 359.2 37.4 Z M 361.3 40 C 361.3 38.5 362.5 37.4 364 37.4 C 364.9 37.4 365.7 37.7 366.1 38.4 C 366.1 38.4 365.6 38.8 365.6 38.8 C 365.2 38.2 364.6 38 364 38 C 362.9 38 362 38.8 362 40 C 362 41.3 362.9 42.1 364 42.1 C 364.6 42.1 365.2 41.9 365.6 41.3 C 365.6 41.3 366.1 41.7 366.1 41.7 C 365.7 42.4 364.9 42.7 364 42.7 C 362.5 42.7 361.3 41.6 361.3 40 Z M 369.4 40 L 368.1 41.2 L 368.1 42.7 L 367.4 42.7 L 367.4 35.3 L 368.1 35.3 L 368.1 40.3 L 371.3 37.4 L 372.1 37.4 L 369.9 39.6 L 372.3 42.7 L 371.5 42.7 L 369.4 40 Z M 373.3 35.8 C 373.3 35.5 373.5 35.3 373.8 35.3 C 374.1 35.3 374.3 35.5 374.3 35.7 C 374.3 36 374.1 36.3 373.8 36.3 C 373.5 36.3 373.3 36 373.3 35.8 Z M 373.4 37.4 L 374.1 37.4 L 374.1 42.7 L 373.4 42.7 L 373.4 37.4 Z M 380.8 39.6 C 380.82 39.63 380.8 42.7 380.8 42.7 L 380.1 42.7 C 380.1 42.7 380.11 39.7 380.1 39.7 C 380.1 38.6 379.5 38 378.5 38 C 377.4 38 376.7 38.7 376.7 39.9 C 376.69 39.92 376.7 42.7 376.7 42.7 L 376 42.7 L 376 37.4 L 376.7 37.4 C 376.7 37.4 376.66 38.39 376.7 38.4 C 377 37.7 377.7 37.4 378.7 37.4 C 379.9 37.4 380.8 38.1 380.8 39.6 Z M 387.6 37.4 C 387.6 37.4 387.58 42.04 387.6 42 C 387.6 43.9 386.7 44.7 385 44.7 C 384 44.7 383.1 44.4 382.5 43.9 C 382.5 43.9 382.9 43.3 382.9 43.3 C 383.4 43.8 384.1 44 384.9 44 C 386.3 44 386.9 43.4 386.9 42.1 C 386.9 42.1 386.9 41.5 386.9 41.5 C 386.4 42.1 385.7 42.5 384.8 42.5 C 383.3 42.5 382.2 41.4 382.2 39.9 C 382.2 38.4 383.3 37.4 384.8 37.4 C 385.7 37.4 386.5 37.7 386.9 38.4 C 386.9 38.43 386.9 37.4 386.9 37.4 L 387.6 37.4 Z M 386.9 39.9 C 386.9 38.8 386.1 38 384.9 38 C 383.7 38 382.9 38.8 382.9 39.9 C 382.9 41.1 383.7 41.9 384.9 41.9 C 386.1 41.9 386.9 41.1 386.9 39.9 Z M 396.2 39.4 C 396.16 39.42 396.2 42.7 396.2 42.7 L 395.5 42.7 C 395.5 42.7 395.48 41.86 395.5 41.9 C 395.2 42.4 394.5 42.7 393.7 42.7 C 392.5 42.7 391.8 42.1 391.8 41.2 C 391.8 40.4 392.3 39.7 393.8 39.7 C 393.78 39.71 395.5 39.7 395.5 39.7 C 395.5 39.7 395.45 39.39 395.5 39.4 C 395.5 38.5 394.9 38 394 38 C 393.3 38 392.6 38.2 392.2 38.6 C 392.2 38.6 391.9 38.1 391.9 38.1 C 392.4 37.6 393.2 37.4 394 37.4 C 395.4 37.4 396.2 38.1 396.2 39.4 Z M 395.5 41.1 C 395.45 41.1 395.5 40.2 395.5 40.2 C 395.5 40.2 393.8 40.24 393.8 40.2 C 392.8 40.2 392.5 40.6 392.5 41.2 C 392.5 41.8 392.9 42.2 393.8 42.2 C 394.6 42.2 395.2 41.8 395.5 41.1 Z M 400 42.1 C 400 42.1 400.3 41.5 400.3 41.5 C 400.7 41.9 401.4 42.1 402.2 42.1 C 403.2 42.1 403.6 41.8 403.6 41.3 C 403.6 39.9 400.2 41 400.2 38.9 C 400.2 38 400.9 37.4 402.3 37.4 C 402.9 37.4 403.7 37.6 404.1 37.9 C 404.1 37.9 403.8 38.4 403.8 38.4 C 403.3 38.1 402.8 38 402.3 38 C 401.3 38 400.9 38.4 400.9 38.9 C 400.9 40.3 404.3 39.2 404.3 41.2 C 404.3 42.1 403.5 42.7 402.1 42.7 C 401.3 42.7 400.4 42.4 400 42.1 Z M 413.5 37.4 L 411.5 42.7 L 410.9 42.7 L 409.2 38.4 L 407.5 42.7 L 406.9 42.7 L 404.9 37.4 L 405.6 37.4 L 407.2 41.9 L 408.9 37.4 L 409.5 37.4 L 411.2 41.9 L 412.9 37.4 L 413.5 37.4 Z M 414.5 35.8 C 414.5 35.5 414.7 35.3 415 35.3 C 415.3 35.3 415.5 35.5 415.5 35.7 C 415.5 36 415.3 36.3 415 36.3 C 414.7 36.3 414.5 36 414.5 35.8 Z M 414.6 37.4 L 415.3 37.4 L 415.3 42.7 L 414.6 42.7 L 414.6 37.4 Z M 420 42.4 C 419.7 42.6 419.3 42.7 418.9 42.7 C 417.9 42.7 417.4 42.2 417.4 41.2 C 417.38 41.2 417.4 38 417.4 38 L 416.4 38 L 416.4 37.4 L 417.4 37.4 L 417.4 36.3 L 418.1 36.3 L 418.1 37.4 L 419.7 37.4 L 419.7 38 L 418.1 38 C 418.1 38 418.09 41.16 418.1 41.2 C 418.1 41.8 418.4 42.1 419 42.1 C 419.3 42.1 419.6 42 419.8 41.9 C 419.8 41.9 420 42.4 420 42.4 Z M 420.6 40 C 420.6 38.5 421.7 37.4 423.3 37.4 C 424.2 37.4 424.9 37.7 425.3 38.4 C 425.3 38.4 424.8 38.8 424.8 38.8 C 424.5 38.2 423.9 38 423.3 38 C 422.1 38 421.3 38.8 421.3 40 C 421.3 41.3 422.1 42.1 423.3 42.1 C 423.9 42.1 424.5 41.9 424.8 41.3 C 424.8 41.3 425.3 41.7 425.3 41.7 C 424.9 42.4 424.2 42.7 423.3 42.7 C 421.7 42.7 420.6 41.6 420.6 40 Z M 431.5 39.6 C 431.5 39.63 431.5 42.7 431.5 42.7 L 430.8 42.7 C 430.8 42.7 430.79 39.7 430.8 39.7 C 430.8 38.6 430.2 38 429.2 38 C 428.1 38 427.4 38.7 427.4 39.9 C 427.37 39.92 427.4 42.7 427.4 42.7 L 426.7 42.7 L 426.7 35.3 L 427.4 35.3 C 427.4 35.3 427.37 38.34 427.4 38.3 C 427.8 37.7 428.4 37.4 429.3 37.4 C 430.6 37.4 431.5 38.1 431.5 39.6 Z " stroke="none" fill="#323132"/>
  </g>
  <g id="Polygon117484">
    <path d="M 8.3 11.5 L 11.7 11.5 L 11.7 12.8 L 8.3 12.8 L 8.3 11.5 Z M 8.4 14.4 L 12.3 14.4 L 12.3 15.7 L 6.8 15.7 L 6.8 8.7 L 12.1 8.7 L 12.1 10 L 8.4 10 L 8.4 14.4 Z M 12.9 15.7 L 15.3 12.5 L 15.3 13.4 L 13 10.3 L 14.7 10.3 L 16.2 12.3 L 15.5 12.3 L 17.1 10.3 L 18.7 10.3 L 16.4 13.3 L 16.4 12.5 L 18.8 15.7 L 17 15.7 L 15.5 13.5 L 16.1 13.6 L 14.6 15.7 L 12.9 15.7 Z M 22.8 15.8 C 22.3 15.8 21.9 15.7 21.6 15.5 C 21.2 15.3 21 15 20.8 14.5 C 20.6 14.1 20.5 13.6 20.5 13 C 20.5 12.4 20.6 11.8 20.8 11.4 C 20.9 11 21.2 10.7 21.5 10.5 C 21.9 10.3 22.3 10.2 22.8 10.2 C 23.3 10.2 23.7 10.3 24.1 10.6 C 24.5 10.8 24.8 11.1 25.1 11.5 C 25.3 11.9 25.4 12.4 25.4 13 C 25.4 13.6 25.3 14 25.1 14.5 C 24.8 14.9 24.5 15.2 24.1 15.4 C 23.7 15.6 23.3 15.8 22.8 15.8 Z M 19.6 17.6 L 19.6 10.3 L 21.1 10.3 L 21.1 11.4 L 21 13 L 21.1 14.6 L 21.1 17.6 L 19.6 17.6 Z M 22.5 14.5 C 22.7 14.5 23 14.4 23.2 14.3 C 23.4 14.2 23.6 14 23.7 13.8 C 23.8 13.6 23.9 13.3 23.9 13 C 23.9 12.7 23.8 12.4 23.7 12.2 C 23.6 12 23.4 11.8 23.2 11.7 C 23 11.6 22.7 11.5 22.5 11.5 C 22.2 11.5 22 11.6 21.8 11.7 C 21.6 11.8 21.4 12 21.3 12.2 C 21.2 12.4 21.1 12.7 21.1 13 C 21.1 13.3 21.2 13.6 21.3 13.8 C 21.4 14 21.6 14.2 21.8 14.3 C 22 14.4 22.2 14.5 22.5 14.5 Z M 29.2 15.8 C 28.6 15.8 28.1 15.6 27.6 15.4 C 27.2 15.2 26.8 14.8 26.5 14.4 C 26.3 14 26.2 13.5 26.2 13 C 26.2 12.4 26.3 12 26.5 11.6 C 26.8 11.1 27.1 10.8 27.6 10.6 C 28 10.3 28.5 10.2 29 10.2 C 29.6 10.2 30 10.3 30.5 10.6 C 30.9 10.8 31.2 11.1 31.5 11.5 C 31.7 11.9 31.8 12.4 31.8 13 C 31.8 13.1 31.8 13.1 31.8 13.2 C 31.8 13.3 31.8 13.4 31.8 13.4 C 31.8 13.43 27.4 13.4 27.4 13.4 L 27.4 12.5 L 31 12.5 C 31 12.5 30.38 12.79 30.4 12.8 C 30.4 12.5 30.3 12.3 30.2 12.1 C 30.1 11.9 29.9 11.7 29.7 11.6 C 29.5 11.5 29.3 11.4 29 11.4 C 28.8 11.4 28.5 11.5 28.3 11.6 C 28.1 11.7 28 11.9 27.9 12.1 C 27.7 12.3 27.7 12.5 27.7 12.8 C 27.7 12.8 27.7 13 27.7 13 C 27.7 13.3 27.8 13.6 27.9 13.8 C 28 14 28.2 14.2 28.4 14.3 C 28.7 14.5 29 14.5 29.3 14.5 C 29.6 14.5 29.8 14.5 30 14.4 C 30.2 14.3 30.4 14.2 30.6 14 C 30.6 14 31.5 14.9 31.5 14.9 C 31.2 15.2 30.9 15.4 30.5 15.5 C 30.1 15.7 29.7 15.8 29.2 15.8 Z M 35.6 15.8 C 35 15.8 34.5 15.6 34 15.4 C 33.6 15.2 33.2 14.8 32.9 14.4 C 32.7 14 32.6 13.5 32.6 13 C 32.6 12.4 32.7 12 32.9 11.6 C 33.2 11.1 33.6 10.8 34 10.6 C 34.5 10.3 35 10.2 35.6 10.2 C 36.1 10.2 36.6 10.3 37 10.6 C 37.5 10.8 37.8 11.1 38 11.6 C 38 11.6 36.8 12.2 36.8 12.2 C 36.6 12 36.4 11.8 36.2 11.7 C 36 11.6 35.8 11.5 35.5 11.5 C 35.3 11.5 35 11.6 34.8 11.7 C 34.6 11.8 34.4 12 34.3 12.2 C 34.2 12.4 34.1 12.7 34.1 13 C 34.1 13.3 34.2 13.6 34.3 13.8 C 34.4 14 34.6 14.2 34.8 14.3 C 35 14.4 35.3 14.5 35.5 14.5 C 35.8 14.5 36 14.4 36.2 14.3 C 36.4 14.2 36.6 14 36.8 13.7 C 36.8 13.7 38 14.4 38 14.4 C 37.8 14.8 37.5 15.2 37 15.4 C 36.6 15.6 36.1 15.8 35.6 15.8 Z M 41.3 15.8 C 40.7 15.8 40.2 15.6 39.8 15.3 C 39.5 15 39.3 14.5 39.3 13.8 C 39.32 13.83 39.3 9.1 39.3 9.1 L 40.9 9.1 C 40.9 9.1 40.88 13.81 40.9 13.8 C 40.9 14 40.9 14.2 41.1 14.3 C 41.2 14.5 41.3 14.5 41.5 14.5 C 41.8 14.5 42 14.5 42.2 14.3 C 42.2 14.3 42.6 15.4 42.6 15.4 C 42.4 15.5 42.2 15.6 42 15.7 C 41.8 15.7 41.6 15.8 41.3 15.8 Z M 38.5 11.6 L 38.5 10.4 L 42.2 10.4 L 42.2 11.6 L 38.5 11.6 Z M 46.8 15.7 L 46.8 14.6 L 46.7 14.4 C 46.7 14.4 46.68 12.52 46.7 12.5 C 46.7 12.2 46.6 11.9 46.4 11.7 C 46.2 11.6 45.9 11.5 45.4 11.5 C 45.2 11.5 44.9 11.5 44.6 11.6 C 44.3 11.7 44.1 11.8 43.9 12 C 43.9 12 43.3 10.9 43.3 10.9 C 43.6 10.7 44 10.5 44.4 10.4 C 44.8 10.3 45.2 10.2 45.7 10.2 C 46.5 10.2 47.1 10.4 47.6 10.8 C 48 11.2 48.2 11.8 48.2 12.6 C 48.24 12.61 48.2 15.7 48.2 15.7 L 46.8 15.7 Z M 45.1 15.8 C 44.7 15.8 44.4 15.7 44.1 15.5 C 43.8 15.4 43.5 15.2 43.4 15 C 43.2 14.7 43.1 14.4 43.1 14.1 C 43.1 13.8 43.2 13.5 43.4 13.3 C 43.5 13 43.8 12.9 44.1 12.7 C 44.5 12.6 44.9 12.5 45.4 12.5 C 45.44 12.52 46.9 12.5 46.9 12.5 L 46.9 13.4 C 46.9 13.4 45.61 13.43 45.6 13.4 C 45.2 13.4 45 13.5 44.9 13.6 C 44.7 13.7 44.7 13.9 44.7 14.1 C 44.7 14.3 44.7 14.4 44.9 14.5 C 45 14.7 45.3 14.7 45.5 14.7 C 45.8 14.7 46 14.6 46.2 14.5 C 46.4 14.4 46.6 14.2 46.7 14 C 46.7 14 46.9 14.7 46.9 14.7 C 46.8 15 46.6 15.3 46.3 15.5 C 46 15.7 45.6 15.8 45.1 15.8 Z M 51.8 15.8 C 51.2 15.8 50.7 15.6 50.3 15.3 C 50 15 49.8 14.5 49.8 13.8 C 49.81 13.83 49.8 9.1 49.8 9.1 L 51.4 9.1 C 51.4 9.1 51.37 13.81 51.4 13.8 C 51.4 14 51.4 14.2 51.6 14.3 C 51.7 14.5 51.8 14.5 52 14.5 C 52.3 14.5 52.5 14.5 52.7 14.3 C 52.7 14.3 53.1 15.4 53.1 15.4 C 52.9 15.5 52.7 15.6 52.5 15.7 C 52.3 15.7 52.1 15.8 51.8 15.8 Z M 49 11.6 L 49 10.4 L 52.7 10.4 L 52.7 11.6 L 49 11.6 Z M 54 15.7 L 54 10.3 L 55.5 10.3 L 55.5 15.7 L 54 15.7 Z M 54.8 9.5 C 54.5 9.5 54.2 9.5 54.1 9.3 C 53.9 9.1 53.8 8.9 53.8 8.7 C 53.8 8.4 53.9 8.2 54.1 8.1 C 54.2 7.9 54.5 7.8 54.8 7.8 C 55 7.8 55.3 7.9 55.5 8 C 55.6 8.2 55.7 8.4 55.7 8.6 C 55.7 8.9 55.6 9.1 55.5 9.3 C 55.3 9.5 55.1 9.5 54.8 9.5 Z M 59.6 15.8 C 59 15.8 58.5 15.6 58 15.4 C 57.6 15.2 57.2 14.8 57 14.4 C 56.7 14 56.6 13.5 56.6 13 C 56.6 12.4 56.7 12 57 11.6 C 57.2 11.1 57.6 10.8 58 10.6 C 58.5 10.3 59 10.2 59.6 10.2 C 60.1 10.2 60.6 10.3 61.1 10.6 C 61.5 10.8 61.9 11.1 62.1 11.5 C 62.4 12 62.5 12.4 62.5 13 C 62.5 13.5 62.4 14 62.1 14.4 C 61.9 14.8 61.5 15.2 61.1 15.4 C 60.6 15.6 60.1 15.8 59.6 15.8 Z M 59.6 14.5 C 59.8 14.5 60 14.4 60.3 14.3 C 60.5 14.2 60.6 14 60.7 13.8 C 60.9 13.6 60.9 13.3 60.9 13 C 60.9 12.7 60.9 12.4 60.7 12.2 C 60.6 12 60.5 11.8 60.3 11.7 C 60 11.6 59.8 11.5 59.6 11.5 C 59.3 11.5 59.1 11.6 58.9 11.7 C 58.6 11.8 58.5 12 58.4 12.2 C 58.2 12.4 58.2 12.7 58.2 13 C 58.2 13.3 58.2 13.6 58.4 13.8 C 58.5 14 58.6 14.2 58.9 14.3 C 59.1 14.4 59.3 14.5 59.6 14.5 Z M 66.8 10.2 C 67.3 10.2 67.6 10.3 68 10.5 C 68.3 10.6 68.6 10.9 68.8 11.3 C 69 11.6 69.1 12.1 69.1 12.6 C 69.07 12.6 69.1 15.7 69.1 15.7 L 67.5 15.7 C 67.5 15.7 67.51 12.84 67.5 12.8 C 67.5 12.4 67.4 12.1 67.2 11.9 C 67 11.7 66.8 11.6 66.4 11.6 C 66.2 11.6 66 11.6 65.8 11.7 C 65.6 11.8 65.4 12 65.3 12.2 C 65.2 12.4 65.1 12.7 65.1 13 C 65.13 13.02 65.1 15.7 65.1 15.7 L 63.6 15.7 L 63.6 10.3 L 65.1 10.3 L 65.1 11.8 C 65.1 11.8 64.78 11.34 64.8 11.3 C 65 11 65.3 10.7 65.6 10.5 C 66 10.3 66.4 10.2 66.8 10.2 Z " stroke="none" fill="#323132"/>
  </g>
</svg>