<?xml version="1.0" standalone="no"?>
<!DOCTYPE svg PUBLIC "-//W3C//DTD SVG 1.1//EN" "http://www.w3.org/Graphics/SVG/1.1/DTD/svg11.dtd">
<svg xmlns="http://www.w3.org/2000/svg" version="1.1" width="492px" height="80.5px" viewBox="0 0 492 80.5">
  <desc>Display Operating traditional machinery utilises information received directly from the control process and from feed...</desc>
  <defs/>
  <g id="Polygon117315">
    <path d="M 11 54.4 C 10.96 54.42 11 57.7 11 57.7 L 10.3 57.7 C 10.3 57.7 10.28 56.86 10.3 56.9 C 10 57.4 9.3 57.7 8.5 57.7 C 7.3 57.7 6.6 57.1 6.6 56.2 C 6.6 55.4 7.1 54.7 8.6 54.7 C 8.58 54.71 10.3 54.7 10.3 54.7 C 10.3 54.7 10.25 54.39 10.3 54.4 C 10.3 53.5 9.7 53 8.8 53 C 8.1 53 7.4 53.2 7 53.6 C 7 53.6 6.7 53.1 6.7 53.1 C 7.2 52.6 8 52.4 8.8 52.4 C 10.2 52.4 11 53.1 11 54.4 Z M 10.3 56.1 C 10.25 56.1 10.3 55.2 10.3 55.2 C 10.3 55.2 8.6 55.24 8.6 55.2 C 7.6 55.2 7.2 55.6 7.2 56.2 C 7.2 56.8 7.7 57.2 8.6 57.2 C 9.4 57.2 10 56.8 10.3 56.1 Z M 17.6 54.6 C 17.61 54.63 17.6 57.7 17.6 57.7 L 16.9 57.7 C 16.9 57.7 16.9 54.7 16.9 54.7 C 16.9 53.6 16.3 53 15.3 53 C 14.2 53 13.5 53.7 13.5 54.9 C 13.48 54.92 13.5 57.7 13.5 57.7 L 12.8 57.7 L 12.8 52.4 L 13.5 52.4 C 13.5 52.4 13.45 53.39 13.5 53.4 C 13.8 52.7 14.5 52.4 15.5 52.4 C 16.7 52.4 17.6 53.1 17.6 54.6 Z M 24.3 50.3 L 24.3 57.7 L 23.6 57.7 C 23.6 57.7 23.65 56.64 23.6 56.6 C 23.2 57.3 22.5 57.7 21.6 57.7 C 20.1 57.7 19 56.6 19 55 C 19 53.5 20.1 52.4 21.6 52.4 C 22.5 52.4 23.2 52.7 23.6 53.4 C 23.62 53.42 23.6 50.3 23.6 50.3 L 24.3 50.3 Z M 23.6 55 C 23.6 53.8 22.8 53 21.7 53 C 20.6 53 19.7 53.8 19.7 55 C 19.7 56.3 20.6 57.1 21.7 57.1 C 22.8 57.1 23.6 56.3 23.6 55 Z M 29.7 51.8 C 29.74 51.8 29.7 52.4 29.7 52.4 L 31.4 52.4 L 31.4 53 L 29.8 53 L 29.8 57.7 L 29 57.7 L 29 53 L 28.1 53 L 28.1 52.4 L 29 52.4 C 29 52.4 29.05 51.77 29 51.8 C 29 50.8 29.6 50.2 30.6 50.2 C 31 50.2 31.4 50.3 31.7 50.5 C 31.7 50.5 31.4 51.1 31.4 51.1 C 31.2 50.9 31 50.8 30.7 50.8 C 30.1 50.8 29.7 51.1 29.7 51.8 Z M 35 52.4 C 35 52.4 35 53.1 35 53.1 C 35 53.1 34.9 53.1 34.9 53.1 C 33.8 53.1 33.1 53.8 33.1 55 C 33.08 55 33.1 57.7 33.1 57.7 L 32.4 57.7 L 32.4 52.4 L 33.1 52.4 C 33.1 52.4 33.05 53.45 33.1 53.4 C 33.4 52.7 34.1 52.4 35 52.4 Z M 35.6 55 C 35.6 53.5 36.8 52.4 38.3 52.4 C 39.9 52.4 41 53.5 41 55 C 41 56.6 39.9 57.7 38.3 57.7 C 36.8 57.7 35.6 56.6 35.6 55 Z M 40.3 55 C 40.3 53.8 39.4 53 38.3 53 C 37.2 53 36.4 53.8 36.4 55 C 36.4 56.3 37.2 57.1 38.3 57.1 C 39.4 57.1 40.3 56.3 40.3 55 Z M 51.1 54.6 C 51.1 54.63 51.1 57.7 51.1 57.7 L 50.4 57.7 C 50.4 57.7 50.39 54.7 50.4 54.7 C 50.4 53.6 49.8 53 48.9 53 C 47.8 53 47.1 53.7 47.1 54.9 C 47.12 54.92 47.1 57.7 47.1 57.7 L 46.4 57.7 C 46.4 57.7 46.41 54.7 46.4 54.7 C 46.4 53.6 45.8 53 44.9 53 C 43.8 53 43.1 53.7 43.1 54.9 C 43.13 54.92 43.1 57.7 43.1 57.7 L 42.4 57.7 L 42.4 52.4 L 43.1 52.4 C 43.1 52.4 43.1 53.38 43.1 53.4 C 43.5 52.7 44.1 52.4 45 52.4 C 45.9 52.4 46.6 52.7 46.9 53.5 C 47.3 52.8 48 52.4 49 52.4 C 50.3 52.4 51.1 53.1 51.1 54.6 Z M 56.5 51.8 C 56.46 51.8 56.5 52.4 56.5 52.4 L 58.1 52.4 L 58.1 53 L 56.5 53 L 56.5 57.7 L 55.8 57.7 L 55.8 53 L 54.8 53 L 54.8 52.4 L 55.8 52.4 C 55.8 52.4 55.77 51.77 55.8 51.8 C 55.8 50.8 56.3 50.2 57.4 50.2 C 57.7 50.2 58.1 50.3 58.4 50.5 C 58.4 50.5 58.2 51.1 58.2 51.1 C 58 50.9 57.7 50.8 57.4 50.8 C 56.8 50.8 56.5 51.1 56.5 51.8 Z M 63.6 55.3 C 63.6 55.3 59.2 55.3 59.2 55.3 C 59.3 56.4 60.1 57.1 61.3 57.1 C 61.9 57.1 62.5 56.9 62.9 56.4 C 62.9 56.4 63.3 56.9 63.3 56.9 C 62.8 57.4 62.1 57.7 61.3 57.7 C 59.6 57.7 58.5 56.6 58.5 55 C 58.5 53.5 59.6 52.4 61.1 52.4 C 62.6 52.4 63.6 53.5 63.6 55 C 63.6 55.1 63.6 55.2 63.6 55.3 Z M 59.2 54.7 C 59.2 54.7 62.9 54.7 62.9 54.7 C 62.9 53.7 62.1 53 61.1 53 C 60 53 59.3 53.7 59.2 54.7 Z M 69.7 55.3 C 69.7 55.3 65.3 55.3 65.3 55.3 C 65.4 56.4 66.3 57.1 67.4 57.1 C 68 57.1 68.6 56.9 69 56.4 C 69 56.4 69.4 56.9 69.4 56.9 C 68.9 57.4 68.2 57.7 67.4 57.7 C 65.7 57.7 64.6 56.6 64.6 55 C 64.6 53.5 65.7 52.4 67.2 52.4 C 68.7 52.4 69.7 53.5 69.7 55 C 69.7 55.1 69.7 55.2 69.7 55.3 Z M 65.3 54.7 C 65.3 54.7 69.1 54.7 69.1 54.7 C 69 53.7 68.2 53 67.2 53 C 66.2 53 65.4 53.7 65.3 54.7 Z M 76.1 50.3 L 76.1 57.7 L 75.4 57.7 C 75.4 57.7 75.39 56.64 75.4 56.6 C 75 57.3 74.2 57.7 73.4 57.7 C 71.9 57.7 70.7 56.6 70.7 55 C 70.7 53.5 71.9 52.4 73.4 52.4 C 74.2 52.4 74.9 52.7 75.4 53.4 C 75.36 53.42 75.4 50.3 75.4 50.3 L 76.1 50.3 Z M 75.4 55 C 75.4 53.8 74.5 53 73.4 53 C 72.3 53 71.5 53.8 71.5 55 C 71.5 56.3 72.3 57.1 73.4 57.1 C 74.5 57.1 75.4 56.3 75.4 55 Z M 83.3 55 C 83.3 56.6 82.1 57.7 80.6 57.7 C 79.8 57.7 79 57.3 78.6 56.6 C 78.61 56.64 78.6 57.7 78.6 57.7 L 77.9 57.7 L 77.9 50.3 L 78.6 50.3 C 78.6 50.3 78.64 53.42 78.6 53.4 C 79.1 52.7 79.8 52.4 80.6 52.4 C 82.1 52.4 83.3 53.5 83.3 55 Z M 82.6 55 C 82.6 53.8 81.7 53 80.6 53 C 79.5 53 78.6 53.8 78.6 55 C 78.6 56.3 79.5 57.1 80.6 57.1 C 81.7 57.1 82.6 56.3 82.6 55 Z M 88.7 54.4 C 88.67 54.42 88.7 57.7 88.7 57.7 L 88 57.7 C 88 57.7 88 56.86 88 56.9 C 87.7 57.4 87.1 57.7 86.2 57.7 C 85 57.7 84.3 57.1 84.3 56.2 C 84.3 55.4 84.8 54.7 86.3 54.7 C 86.29 54.71 88 54.7 88 54.7 C 88 54.7 87.97 54.39 88 54.4 C 88 53.5 87.5 53 86.5 53 C 85.8 53 85.2 53.2 84.7 53.6 C 84.7 53.6 84.4 53.1 84.4 53.1 C 84.9 52.6 85.7 52.4 86.5 52.4 C 87.9 52.4 88.7 53.1 88.7 54.4 Z M 88 56.1 C 87.97 56.1 88 55.2 88 55.2 C 88 55.2 86.31 55.24 86.3 55.2 C 85.3 55.2 85 55.6 85 56.2 C 85 56.8 85.5 57.2 86.3 57.2 C 87.1 57.2 87.7 56.8 88 56.1 Z M 90.1 55 C 90.1 53.5 91.2 52.4 92.8 52.4 C 93.7 52.4 94.4 52.7 94.8 53.4 C 94.8 53.4 94.3 53.8 94.3 53.8 C 93.9 53.2 93.4 53 92.8 53 C 91.6 53 90.8 53.8 90.8 55 C 90.8 56.3 91.6 57.1 92.8 57.1 C 93.4 57.1 93.9 56.9 94.3 56.3 C 94.3 56.3 94.8 56.7 94.8 56.7 C 94.4 57.4 93.7 57.7 92.8 57.7 C 91.2 57.7 90.1 56.6 90.1 55 Z M 98.1 55 L 96.8 56.2 L 96.8 57.7 L 96.1 57.7 L 96.1 50.3 L 96.8 50.3 L 96.8 55.3 L 100 52.4 L 100.9 52.4 L 98.6 54.6 L 101.1 57.7 L 100.2 57.7 L 98.1 55 Z M 101.9 57.2 C 101.9 56.9 102.1 56.6 102.4 56.6 C 102.7 56.6 103 56.9 103 57.2 C 103 57.5 102.7 57.7 102.4 57.7 C 102.1 57.7 101.9 57.5 101.9 57.2 Z M 107.3 50.7 L 108 50.7 L 108 57.7 L 107.3 57.7 L 107.3 50.7 Z M 114.8 54.6 C 114.85 54.63 114.8 57.7 114.8 57.7 L 114.1 57.7 C 114.1 57.7 114.14 54.7 114.1 54.7 C 114.1 53.6 113.6 53 112.6 53 C 111.4 53 110.7 53.7 110.7 54.9 C 110.72 54.92 110.7 57.7 110.7 57.7 L 110 57.7 L 110 52.4 L 110.7 52.4 C 110.7 52.4 110.69 53.39 110.7 53.4 C 111.1 52.7 111.8 52.4 112.7 52.4 C 114 52.4 114.8 53.1 114.8 54.6 Z M 117.5 51.8 C 117.45 51.8 117.5 52.4 117.5 52.4 L 119.1 52.4 L 119.1 53 L 117.5 53 L 117.5 57.7 L 116.8 57.7 L 116.8 53 L 115.8 53 L 115.8 52.4 L 116.8 52.4 C 116.8 52.4 116.76 51.77 116.8 51.8 C 116.8 50.8 117.3 50.2 118.4 50.2 C 118.7 50.2 119.1 50.3 119.4 50.5 C 119.4 50.5 119.2 51.1 119.2 51.1 C 119 50.9 118.7 50.8 118.4 50.8 C 117.8 50.8 117.5 51.1 117.5 51.8 Z M 119.5 55 C 119.5 53.5 120.6 52.4 122.2 52.4 C 123.7 52.4 124.8 53.5 124.8 55 C 124.8 56.6 123.7 57.7 122.2 57.7 C 120.6 57.7 119.5 56.6 119.5 55 Z M 124.1 55 C 124.1 53.8 123.3 53 122.2 53 C 121 53 120.2 53.8 120.2 55 C 120.2 56.3 121 57.1 122.2 57.1 C 123.3 57.1 124.1 56.3 124.1 55 Z M 128.9 52.4 C 128.9 52.4 128.9 53.1 128.9 53.1 C 128.8 53.1 128.8 53.1 128.7 53.1 C 127.6 53.1 127 53.8 127 55 C 126.97 55 127 57.7 127 57.7 L 126.3 57.7 L 126.3 52.4 L 126.9 52.4 C 126.9 52.4 126.94 53.45 126.9 53.4 C 127.3 52.7 127.9 52.4 128.9 52.4 Z M 138.8 54.6 C 138.81 54.63 138.8 57.7 138.8 57.7 L 138.1 57.7 C 138.1 57.7 138.1 54.7 138.1 54.7 C 138.1 53.6 137.5 53 136.6 53 C 135.5 53 134.8 53.7 134.8 54.9 C 134.83 54.92 134.8 57.7 134.8 57.7 L 134.1 57.7 C 134.1 57.7 134.12 54.7 134.1 54.7 C 134.1 53.6 133.6 53 132.6 53 C 131.5 53 130.8 53.7 130.8 54.9 C 130.84 54.92 130.8 57.7 130.8 57.7 L 130.1 57.7 L 130.1 52.4 L 130.8 52.4 C 130.8 52.4 130.81 53.38 130.8 53.4 C 131.2 52.7 131.9 52.4 132.7 52.4 C 133.6 52.4 134.3 52.7 134.6 53.5 C 135 52.8 135.7 52.4 136.7 52.4 C 138 52.4 138.8 53.1 138.8 54.6 Z M 144.6 54.4 C 144.64 54.42 144.6 57.7 144.6 57.7 L 144 57.7 C 144 57.7 143.96 56.86 144 56.9 C 143.6 57.4 143 57.7 142.2 57.7 C 141 57.7 140.2 57.1 140.2 56.2 C 140.2 55.4 140.8 54.7 142.3 54.7 C 142.26 54.71 143.9 54.7 143.9 54.7 C 143.9 54.7 143.93 54.39 143.9 54.4 C 143.9 53.5 143.4 53 142.4 53 C 141.8 53 141.1 53.2 140.7 53.6 C 140.7 53.6 140.4 53.1 140.4 53.1 C 140.9 52.6 141.7 52.4 142.5 52.4 C 143.9 52.4 144.6 53.1 144.6 54.4 Z M 143.9 56.1 C 143.93 56.1 143.9 55.2 143.9 55.2 C 143.9 55.2 142.28 55.24 142.3 55.2 C 141.3 55.2 140.9 55.6 140.9 56.2 C 140.9 56.8 141.4 57.2 142.3 57.2 C 143.1 57.2 143.7 56.8 143.9 56.1 Z M 149.2 57.4 C 148.9 57.6 148.5 57.7 148.1 57.7 C 147.1 57.7 146.5 57.2 146.5 56.2 C 146.54 56.2 146.5 53 146.5 53 L 145.6 53 L 145.6 52.4 L 146.5 52.4 L 146.5 51.3 L 147.2 51.3 L 147.2 52.4 L 148.8 52.4 L 148.8 53 L 147.2 53 C 147.2 53 147.25 56.16 147.2 56.2 C 147.2 56.8 147.6 57.1 148.2 57.1 C 148.4 57.1 148.7 57 148.9 56.9 C 148.9 56.9 149.2 57.4 149.2 57.4 Z M 150.2 50.8 C 150.2 50.5 150.4 50.3 150.7 50.3 C 151 50.3 151.3 50.5 151.3 50.7 C 151.3 51 151 51.3 150.7 51.3 C 150.4 51.3 150.2 51 150.2 50.8 Z M 150.4 52.4 L 151.1 52.4 L 151.1 57.7 L 150.4 57.7 L 150.4 52.4 Z M 152.5 55 C 152.5 53.5 153.6 52.4 155.2 52.4 C 156.7 52.4 157.8 53.5 157.8 55 C 157.8 56.6 156.7 57.7 155.2 57.7 C 153.6 57.7 152.5 56.6 152.5 55 Z M 157.1 55 C 157.1 53.8 156.3 53 155.2 53 C 154 53 153.2 53.8 153.2 55 C 153.2 56.3 154 57.1 155.2 57.1 C 156.3 57.1 157.1 56.3 157.1 55 Z M 164.1 54.6 C 164.09 54.63 164.1 57.7 164.1 57.7 L 163.4 57.7 C 163.4 57.7 163.39 54.7 163.4 54.7 C 163.4 53.6 162.8 53 161.8 53 C 160.7 53 160 53.7 160 54.9 C 159.96 54.92 160 57.7 160 57.7 L 159.3 57.7 L 159.3 52.4 L 159.9 52.4 C 159.9 52.4 159.93 53.39 159.9 53.4 C 160.3 52.7 161 52.4 161.9 52.4 C 163.2 52.4 164.1 53.1 164.1 54.6 Z M 168.5 50.8 C 168.5 50.5 168.7 50.3 169 50.3 C 169.3 50.3 169.5 50.5 169.5 50.7 C 169.5 51 169.3 51.3 169 51.3 C 168.7 51.3 168.5 51 168.5 50.8 Z M 168.6 52.4 L 169.4 52.4 L 169.4 57.7 L 168.6 57.7 L 168.6 52.4 Z M 170.6 57.1 C 170.6 57.1 170.9 56.5 170.9 56.5 C 171.4 56.9 172.1 57.1 172.8 57.1 C 173.8 57.1 174.2 56.8 174.2 56.3 C 174.2 54.9 170.8 56 170.8 53.9 C 170.8 53 171.6 52.4 172.9 52.4 C 173.6 52.4 174.3 52.6 174.8 52.9 C 174.8 52.9 174.4 53.4 174.4 53.4 C 174 53.1 173.4 53 172.9 53 C 171.9 53 171.5 53.4 171.5 53.9 C 171.5 55.3 174.9 54.2 174.9 56.2 C 174.9 57.1 174.1 57.7 172.8 57.7 C 171.9 57.7 171.1 57.4 170.6 57.1 Z M 182.8 54.4 C 182.83 54.42 182.8 57.7 182.8 57.7 L 182.2 57.7 C 182.2 57.7 182.15 56.86 182.2 56.9 C 181.8 57.4 181.2 57.7 180.3 57.7 C 179.2 57.7 178.4 57.1 178.4 56.2 C 178.4 55.4 178.9 54.7 180.5 54.7 C 180.45 54.71 182.1 54.7 182.1 54.7 C 182.1 54.7 182.12 54.39 182.1 54.4 C 182.1 53.5 181.6 53 180.6 53 C 180 53 179.3 53.2 178.9 53.6 C 178.9 53.6 178.6 53.1 178.6 53.1 C 179.1 52.6 179.9 52.4 180.7 52.4 C 182.1 52.4 182.8 53.1 182.8 54.4 Z M 182.1 56.1 C 182.12 56.1 182.1 55.2 182.1 55.2 C 182.1 55.2 180.47 55.24 180.5 55.2 C 179.5 55.2 179.1 55.6 179.1 56.2 C 179.1 56.8 179.6 57.2 180.5 57.2 C 181.3 57.2 181.8 56.8 182.1 56.1 Z M 184.7 50.3 L 185.4 50.3 L 185.4 57.7 L 184.7 57.7 L 184.7 50.3 Z M 186.6 57.1 C 186.6 57.1 187 56.5 187 56.5 C 187.4 56.9 188.1 57.1 188.8 57.1 C 189.8 57.1 190.2 56.8 190.2 56.3 C 190.2 54.9 186.8 56 186.8 53.9 C 186.8 53 187.6 52.4 188.9 52.4 C 189.6 52.4 190.3 52.6 190.8 52.9 C 190.8 52.9 190.5 53.4 190.5 53.4 C 190 53.1 189.5 53 188.9 53 C 188 53 187.5 53.4 187.5 53.9 C 187.5 55.3 191 54.2 191 56.2 C 191 57.1 190.2 57.7 188.8 57.7 C 187.9 57.7 187.1 57.4 186.6 57.1 Z M 191.8 55 C 191.8 53.5 193 52.4 194.5 52.4 C 196.1 52.4 197.2 53.5 197.2 55 C 197.2 56.6 196.1 57.7 194.5 57.7 C 193 57.7 191.8 56.6 191.8 55 Z M 196.5 55 C 196.5 53.8 195.6 53 194.5 53 C 193.4 53 192.6 53.8 192.6 55 C 192.6 56.3 193.4 57.1 194.5 57.1 C 195.6 57.1 196.5 56.3 196.5 55 Z M 206.6 55.1 C 206.6 56.7 205.5 57.7 204 57.7 C 203.1 57.7 202.4 57.4 202 56.7 C 201.96 56.69 202 59.6 202 59.6 L 201.3 59.6 L 201.3 52.4 L 201.9 52.4 C 201.9 52.4 201.93 53.46 201.9 53.5 C 202.4 52.8 203.1 52.4 204 52.4 C 205.5 52.4 206.6 53.5 206.6 55.1 Z M 205.9 55 C 205.9 53.8 205 53 203.9 53 C 202.8 53 202 53.8 202 55 C 202 56.3 202.8 57.1 203.9 57.1 C 205 57.1 205.9 56.3 205.9 55 Z M 210.7 52.4 C 210.7 52.4 210.7 53.1 210.7 53.1 C 210.6 53.1 210.6 53.1 210.5 53.1 C 209.4 53.1 208.7 53.8 208.7 55 C 208.74 55 208.7 57.7 208.7 57.7 L 208 57.7 L 208 52.4 L 208.7 52.4 C 208.7 52.4 208.71 53.45 208.7 53.4 C 209 52.7 209.7 52.4 210.7 52.4 Z M 211.3 55 C 211.3 53.5 212.4 52.4 214 52.4 C 215.5 52.4 216.6 53.5 216.6 55 C 216.6 56.6 215.5 57.7 214 57.7 C 212.4 57.7 211.3 56.6 211.3 55 Z M 215.9 55 C 215.9 53.8 215.1 53 214 53 C 212.9 53 212 53.8 212 55 C 212 56.3 212.9 57.1 214 57.1 C 215.1 57.1 215.9 56.3 215.9 55 Z M 222.4 52.4 L 220.1 57.7 L 219.4 57.7 L 217 52.4 L 217.8 52.4 L 219.7 56.9 L 221.7 52.4 L 222.4 52.4 Z M 223.3 50.8 C 223.3 50.5 223.5 50.3 223.8 50.3 C 224.1 50.3 224.4 50.5 224.4 50.7 C 224.4 51 224.1 51.3 223.8 51.3 C 223.5 51.3 223.3 51 223.3 50.8 Z M 223.5 52.4 L 224.2 52.4 L 224.2 57.7 L 223.5 57.7 L 223.5 52.4 Z M 230.9 50.3 L 230.9 57.7 L 230.2 57.7 C 230.2 57.7 230.23 56.64 230.2 56.6 C 229.8 57.3 229.1 57.7 228.2 57.7 C 226.7 57.7 225.6 56.6 225.6 55 C 225.6 53.5 226.7 52.4 228.2 52.4 C 229 52.4 229.8 52.7 230.2 53.4 C 230.2 53.42 230.2 50.3 230.2 50.3 L 230.9 50.3 Z M 230.2 55 C 230.2 53.8 229.4 53 228.3 53 C 227.1 53 226.3 53.8 226.3 55 C 226.3 56.3 227.1 57.1 228.3 57.1 C 229.4 57.1 230.2 56.3 230.2 55 Z M 237.5 55.3 C 237.5 55.3 233.1 55.3 233.1 55.3 C 233.1 56.4 234 57.1 235.1 57.1 C 235.8 57.1 236.3 56.9 236.7 56.4 C 236.7 56.4 237.1 56.9 237.1 56.9 C 236.7 57.4 235.9 57.7 235.1 57.7 C 233.5 57.7 232.4 56.6 232.4 55 C 232.4 53.5 233.4 52.4 234.9 52.4 C 236.4 52.4 237.5 53.5 237.5 55 C 237.5 55.1 237.5 55.2 237.5 55.3 Z M 233.1 54.7 C 233.1 54.7 236.8 54.7 236.8 54.7 C 236.7 53.7 236 53 234.9 53 C 233.9 53 233.2 53.7 233.1 54.7 Z M 243.8 50.3 L 243.8 57.7 L 243.1 57.7 C 243.1 57.7 243.12 56.64 243.1 56.6 C 242.7 57.3 242 57.7 241.1 57.7 C 239.6 57.7 238.5 56.6 238.5 55 C 238.5 53.5 239.6 52.4 241.1 52.4 C 241.9 52.4 242.7 52.7 243.1 53.4 C 243.09 53.42 243.1 50.3 243.1 50.3 L 243.8 50.3 Z M 243.1 55 C 243.1 53.8 242.3 53 241.2 53 C 240 53 239.2 53.8 239.2 55 C 239.2 56.3 240 57.1 241.2 57.1 C 242.3 57.1 243.1 56.3 243.1 55 Z M 248.2 50.8 C 248.2 50.5 248.5 50.3 248.8 50.3 C 249.1 50.3 249.3 50.5 249.3 50.7 C 249.3 51 249.1 51.3 248.8 51.3 C 248.5 51.3 248.2 51 248.2 50.8 Z M 248.4 52.4 L 249.1 52.4 L 249.1 57.7 L 248.4 57.7 L 248.4 52.4 Z M 255.8 54.6 C 255.79 54.63 255.8 57.7 255.8 57.7 L 255.1 57.7 C 255.1 57.7 255.09 54.7 255.1 54.7 C 255.1 53.6 254.5 53 253.5 53 C 252.4 53 251.7 53.7 251.7 54.9 C 251.66 54.92 251.7 57.7 251.7 57.7 L 251 57.7 L 251 52.4 L 251.6 52.4 C 251.6 52.4 251.63 53.39 251.6 53.4 C 252 52.7 252.7 52.4 253.6 52.4 C 254.9 52.4 255.8 53.1 255.8 54.6 Z M 262.5 50.3 L 262.5 57.7 L 261.8 57.7 C 261.8 57.7 261.83 56.64 261.8 56.6 C 261.4 57.3 260.7 57.7 259.8 57.7 C 258.3 57.7 257.2 56.6 257.2 55 C 257.2 53.5 258.3 52.4 259.8 52.4 C 260.6 52.4 261.4 52.7 261.8 53.4 C 261.8 53.42 261.8 50.3 261.8 50.3 L 262.5 50.3 Z M 261.8 55 C 261.8 53.8 261 53 259.9 53 C 258.7 53 257.9 53.8 257.9 55 C 257.9 56.3 258.7 57.1 259.9 57.1 C 261 57.1 261.8 56.3 261.8 55 Z M 264.2 50.8 C 264.2 50.5 264.4 50.3 264.7 50.3 C 265 50.3 265.3 50.5 265.3 50.7 C 265.3 51 265 51.3 264.7 51.3 C 264.4 51.3 264.2 51 264.2 50.8 Z M 264.4 52.4 L 265.1 52.4 L 265.1 57.7 L 264.4 57.7 L 264.4 52.4 Z M 269.6 52.4 C 269.6 52.4 269.6 53.1 269.6 53.1 C 269.5 53.1 269.5 53.1 269.4 53.1 C 268.3 53.1 267.6 53.8 267.6 55 C 267.63 55 267.6 57.7 267.6 57.7 L 266.9 57.7 L 266.9 52.4 L 267.6 52.4 C 267.6 52.4 267.6 53.45 267.6 53.4 C 267.9 52.7 268.6 52.4 269.6 52.4 Z M 275.3 55.3 C 275.3 55.3 270.9 55.3 270.9 55.3 C 271 56.4 271.8 57.1 273 57.1 C 273.6 57.1 274.2 56.9 274.6 56.4 C 274.6 56.4 275 56.9 275 56.9 C 274.5 57.4 273.8 57.7 273 57.7 C 271.3 57.7 270.2 56.6 270.2 55 C 270.2 53.5 271.3 52.4 272.8 52.4 C 274.3 52.4 275.3 53.5 275.3 55 C 275.3 55.1 275.3 55.2 275.3 55.3 Z M 270.9 54.7 C 270.9 54.7 274.6 54.7 274.6 54.7 C 274.6 53.7 273.8 53 272.8 53 C 271.8 53 271 53.7 270.9 54.7 Z M 276.3 55 C 276.3 53.5 277.5 52.4 279 52.4 C 279.9 52.4 280.7 52.7 281.1 53.4 C 281.1 53.4 280.6 53.8 280.6 53.8 C 280.2 53.2 279.6 53 279 53 C 277.9 53 277 53.8 277 55 C 277 56.3 277.9 57.1 279 57.1 C 279.6 57.1 280.2 56.9 280.6 56.3 C 280.6 56.3 281.1 56.7 281.1 56.7 C 280.7 57.4 279.9 57.7 279 57.7 C 277.5 57.7 276.3 56.6 276.3 55 Z M 285.4 57.4 C 285.2 57.6 284.7 57.7 284.3 57.7 C 283.3 57.7 282.8 57.2 282.8 56.2 C 282.79 56.2 282.8 53 282.8 53 L 281.9 53 L 281.9 52.4 L 282.8 52.4 L 282.8 51.3 L 283.5 51.3 L 283.5 52.4 L 285.1 52.4 L 285.1 53 L 283.5 53 C 283.5 53 283.5 56.16 283.5 56.2 C 283.5 56.8 283.8 57.1 284.4 57.1 C 284.7 57.1 285 57 285.2 56.9 C 285.2 56.9 285.4 57.4 285.4 57.4 Z M 286.6 50.3 L 287.3 50.3 L 287.3 57.7 L 286.6 57.7 L 286.6 50.3 Z M 293.8 52.4 C 293.8 52.4 291.14 58.31 291.1 58.3 C 290.7 59.3 290.1 59.7 289.4 59.7 C 288.9 59.7 288.4 59.5 288.1 59.2 C 288.1 59.2 288.4 58.7 288.4 58.7 C 288.7 58.9 289 59.1 289.4 59.1 C 289.9 59.1 290.2 58.8 290.5 58.2 C 290.49 58.18 290.7 57.7 290.7 57.7 L 288.4 52.4 L 289.1 52.4 L 291.1 56.9 L 293.1 52.4 L 293.8 52.4 Z M 300.2 57.4 C 299.9 57.6 299.5 57.7 299.1 57.7 C 298.1 57.7 297.5 57.2 297.5 56.2 C 297.51 56.2 297.5 53 297.5 53 L 296.6 53 L 296.6 52.4 L 297.5 52.4 L 297.5 51.3 L 298.2 51.3 L 298.2 52.4 L 299.8 52.4 L 299.8 53 L 298.2 53 C 298.2 53 298.22 56.16 298.2 56.2 C 298.2 56.8 298.5 57.1 299.1 57.1 C 299.4 57.1 299.7 57 299.9 56.9 C 299.9 56.9 300.2 57.4 300.2 57.4 Z M 306.2 54.6 C 306.19 54.63 306.2 57.7 306.2 57.7 L 305.5 57.7 C 305.5 57.7 305.48 54.7 305.5 54.7 C 305.5 53.6 304.9 53 303.9 53 C 302.8 53 302.1 53.7 302.1 54.9 C 302.06 54.92 302.1 57.7 302.1 57.7 L 301.3 57.7 L 301.3 50.3 L 302.1 50.3 C 302.1 50.3 302.06 53.34 302.1 53.3 C 302.4 52.7 303.1 52.4 304 52.4 C 305.3 52.4 306.2 53.1 306.2 54.6 Z M 310.7 52.4 C 310.7 52.4 310.7 53.1 310.7 53.1 C 310.6 53.1 310.5 53.1 310.5 53.1 C 309.4 53.1 308.7 53.8 308.7 55 C 308.71 55 308.7 57.7 308.7 57.7 L 308 57.7 L 308 52.4 L 308.7 52.4 C 308.7 52.4 308.68 53.45 308.7 53.4 C 309 52.7 309.7 52.4 310.7 52.4 Z M 311.3 55 C 311.3 53.5 312.4 52.4 313.9 52.4 C 315.5 52.4 316.6 53.5 316.6 55 C 316.6 56.6 315.5 57.7 313.9 57.7 C 312.4 57.7 311.3 56.6 311.3 55 Z M 315.9 55 C 315.9 53.8 315.1 53 313.9 53 C 312.8 53 312 53.8 312 55 C 312 56.3 312.8 57.1 313.9 57.1 C 315.1 57.1 315.9 56.3 315.9 55 Z M 322.8 52.4 L 322.8 57.7 L 322.1 57.7 C 322.1 57.7 322.09 56.72 322.1 56.7 C 321.7 57.4 321 57.7 320.2 57.7 C 318.9 57.7 318 57 318 55.5 C 317.98 55.47 318 52.4 318 52.4 L 318.7 52.4 C 318.7 52.4 318.69 55.4 318.7 55.4 C 318.7 56.5 319.3 57.1 320.3 57.1 C 321.4 57.1 322.1 56.4 322.1 55.2 C 322.06 55.18 322.1 52.4 322.1 52.4 L 322.8 52.4 Z M 329.6 52.4 C 329.6 52.4 329.6 57.04 329.6 57 C 329.6 58.9 328.7 59.7 327 59.7 C 326 59.7 325.1 59.4 324.5 58.9 C 324.5 58.9 324.9 58.3 324.9 58.3 C 325.4 58.8 326.1 59 327 59 C 328.3 59 328.9 58.4 328.9 57.1 C 328.9 57.1 328.9 56.5 328.9 56.5 C 328.5 57.1 327.7 57.5 326.8 57.5 C 325.3 57.5 324.2 56.4 324.2 54.9 C 324.2 53.4 325.3 52.4 326.8 52.4 C 327.7 52.4 328.5 52.7 328.9 53.4 C 328.92 53.43 328.9 52.4 328.9 52.4 L 329.6 52.4 Z M 328.9 54.9 C 328.9 53.8 328.1 53 326.9 53 C 325.8 53 324.9 53.8 324.9 54.9 C 324.9 56.1 325.8 56.9 326.9 56.9 C 328.1 56.9 328.9 56.1 328.9 54.9 Z M 336.3 54.6 C 336.31 54.63 336.3 57.7 336.3 57.7 L 335.6 57.7 C 335.6 57.7 335.6 54.7 335.6 54.7 C 335.6 53.6 335 53 334 53 C 332.9 53 332.2 53.7 332.2 54.9 C 332.18 54.92 332.2 57.7 332.2 57.7 L 331.5 57.7 L 331.5 50.3 L 332.2 50.3 C 332.2 50.3 332.18 53.34 332.2 53.3 C 332.6 52.7 333.3 52.4 334.1 52.4 C 335.4 52.4 336.3 53.1 336.3 54.6 Z M 345.7 50.3 L 345.7 57.7 L 345 57.7 C 345 57.7 344.98 56.64 345 56.6 C 344.5 57.3 343.8 57.7 342.9 57.7 C 341.4 57.7 340.3 56.6 340.3 55 C 340.3 53.5 341.4 52.4 342.9 52.4 C 343.8 52.4 344.5 52.7 344.9 53.4 C 344.95 53.42 344.9 50.3 344.9 50.3 L 345.7 50.3 Z M 345 55 C 345 53.8 344.1 53 343 53 C 341.9 53 341 53.8 341 55 C 341 56.3 341.9 57.1 343 57.1 C 344.1 57.1 345 56.3 345 55 Z M 347.4 50.8 C 347.4 50.5 347.6 50.3 347.9 50.3 C 348.2 50.3 348.4 50.5 348.4 50.7 C 348.4 51 348.2 51.3 347.9 51.3 C 347.6 51.3 347.4 51 347.4 50.8 Z M 347.5 52.4 L 348.2 52.4 L 348.2 57.7 L 347.5 57.7 L 347.5 52.4 Z M 354.1 54.4 C 354.1 54.42 354.1 57.7 354.1 57.7 L 353.4 57.7 C 353.4 57.7 353.42 56.86 353.4 56.9 C 353.1 57.4 352.5 57.7 351.6 57.7 C 350.4 57.7 349.7 57.1 349.7 56.2 C 349.7 55.4 350.2 54.7 351.7 54.7 C 351.72 54.71 353.4 54.7 353.4 54.7 C 353.4 54.7 353.39 54.39 353.4 54.4 C 353.4 53.5 352.9 53 351.9 53 C 351.2 53 350.6 53.2 350.2 53.6 C 350.2 53.6 349.8 53.1 349.8 53.1 C 350.4 52.6 351.1 52.4 352 52.4 C 353.3 52.4 354.1 53.1 354.1 54.4 Z M 353.4 56.1 C 353.39 56.1 353.4 55.2 353.4 55.2 C 353.4 55.2 351.74 55.24 351.7 55.2 C 350.7 55.2 350.4 55.6 350.4 56.2 C 350.4 56.8 350.9 57.2 351.7 57.2 C 352.5 57.2 353.1 56.8 353.4 56.1 Z M 355.9 50.3 L 356.6 50.3 L 356.6 57.7 L 355.9 57.7 L 355.9 50.3 Z M 357.9 57.1 C 357.9 57.1 358.2 56.5 358.2 56.5 C 358.7 56.9 359.4 57.1 360.1 57.1 C 361.1 57.1 361.5 56.8 361.5 56.3 C 361.5 54.9 358.1 56 358.1 53.9 C 358.1 53 358.8 52.4 360.2 52.4 C 360.9 52.4 361.6 52.6 362 52.9 C 362 52.9 361.7 53.4 361.7 53.4 C 361.3 53.1 360.7 53 360.2 53 C 359.2 53 358.8 53.4 358.8 53.9 C 358.8 55.3 362.2 54.2 362.2 56.2 C 362.2 57.1 361.4 57.7 360.1 57.7 C 359.2 57.7 358.3 57.4 357.9 57.1 Z M 370.1 54.4 C 370.13 54.42 370.1 57.7 370.1 57.7 L 369.4 57.7 C 369.4 57.7 369.45 56.86 369.4 56.9 C 369.1 57.4 368.5 57.7 367.6 57.7 C 366.4 57.7 365.7 57.1 365.7 56.2 C 365.7 55.4 366.2 54.7 367.7 54.7 C 367.75 54.71 369.4 54.7 369.4 54.7 C 369.4 54.7 369.42 54.39 369.4 54.4 C 369.4 53.5 368.9 53 367.9 53 C 367.2 53 366.6 53.2 366.2 53.6 C 366.2 53.6 365.9 53.1 365.9 53.1 C 366.4 52.6 367.2 52.4 368 52.4 C 369.4 52.4 370.1 53.1 370.1 54.4 Z M 369.4 56.1 C 369.42 56.1 369.4 55.2 369.4 55.2 C 369.4 55.2 367.77 55.24 367.8 55.2 C 366.7 55.2 366.4 55.6 366.4 56.2 C 366.4 56.8 366.9 57.2 367.7 57.2 C 368.5 57.2 369.1 56.8 369.4 56.1 Z M 376.8 54.6 C 376.78 54.63 376.8 57.7 376.8 57.7 L 376.1 57.7 C 376.1 57.7 376.07 54.7 376.1 54.7 C 376.1 53.6 375.5 53 374.5 53 C 373.4 53 372.6 53.7 372.6 54.9 C 372.65 54.92 372.6 57.7 372.6 57.7 L 371.9 57.7 L 371.9 52.4 L 372.6 52.4 C 372.6 52.4 372.62 53.39 372.6 53.4 C 373 52.7 373.7 52.4 374.6 52.4 C 375.9 52.4 376.8 53.1 376.8 54.6 Z M 383.5 50.3 L 383.5 57.7 L 382.8 57.7 C 382.8 57.7 382.81 56.64 382.8 56.6 C 382.4 57.3 381.7 57.7 380.8 57.7 C 379.3 57.7 378.2 56.6 378.2 55 C 378.2 53.5 379.3 52.4 380.8 52.4 C 381.6 52.4 382.3 52.7 382.8 53.4 C 382.78 53.42 382.8 50.3 382.8 50.3 L 383.5 50.3 Z M 382.8 55 C 382.8 53.8 382 53 380.8 53 C 379.7 53 378.9 53.8 378.9 55 C 378.9 56.3 379.7 57.1 380.8 57.1 C 382 57.1 382.8 56.3 382.8 55 Z M 393 52.4 C 393 52.4 392.96 57.04 393 57 C 393 58.9 392.1 59.7 390.3 59.7 C 389.4 59.7 388.4 59.4 387.9 58.9 C 387.9 58.9 388.2 58.3 388.2 58.3 C 388.7 58.8 389.5 59 390.3 59 C 391.6 59 392.3 58.4 392.3 57.1 C 392.3 57.1 392.3 56.5 392.3 56.5 C 391.8 57.1 391.1 57.5 390.2 57.5 C 388.7 57.5 387.6 56.4 387.6 54.9 C 387.6 53.4 388.7 52.4 390.2 52.4 C 391.1 52.4 391.8 52.7 392.3 53.4 C 392.28 53.43 392.3 52.4 392.3 52.4 L 393 52.4 Z M 392.3 54.9 C 392.3 53.8 391.4 53 390.3 53 C 389.1 53 388.3 53.8 388.3 54.9 C 388.3 56.1 389.1 56.9 390.3 56.9 C 391.4 56.9 392.3 56.1 392.3 54.9 Z M 398.9 54.4 C 398.87 54.42 398.9 57.7 398.9 57.7 L 398.2 57.7 C 398.2 57.7 398.19 56.86 398.2 56.9 C 397.9 57.4 397.2 57.7 396.4 57.7 C 395.2 57.7 394.5 57.1 394.5 56.2 C 394.5 55.4 395 54.7 396.5 54.7 C 396.49 54.71 398.2 54.7 398.2 54.7 C 398.2 54.7 398.16 54.39 398.2 54.4 C 398.2 53.5 397.6 53 396.7 53 C 396 53 395.3 53.2 394.9 53.6 C 394.9 53.6 394.6 53.1 394.6 53.1 C 395.1 52.6 395.9 52.4 396.7 52.4 C 398.1 52.4 398.9 53.1 398.9 54.4 Z M 398.2 56.1 C 398.16 56.1 398.2 55.2 398.2 55.2 C 398.2 55.2 396.51 55.24 396.5 55.2 C 395.5 55.2 395.2 55.6 395.2 56.2 C 395.2 56.8 395.6 57.2 396.5 57.2 C 397.3 57.2 397.9 56.8 398.2 56.1 Z M 405.4 52.4 L 405.4 57.7 L 404.7 57.7 C 404.7 57.7 404.72 56.72 404.7 56.7 C 404.3 57.4 403.7 57.7 402.8 57.7 C 401.5 57.7 400.6 57 400.6 55.5 C 400.61 55.47 400.6 52.4 400.6 52.4 L 401.3 52.4 C 401.3 52.4 401.32 55.4 401.3 55.4 C 401.3 56.5 401.9 57.1 402.9 57.1 C 404 57.1 404.7 56.4 404.7 55.2 C 404.69 55.18 404.7 52.4 404.7 52.4 L 405.4 52.4 Z M 412.2 52.4 C 412.2 52.4 412.23 57.04 412.2 57 C 412.2 58.9 411.3 59.7 409.6 59.7 C 408.6 59.7 407.7 59.4 407.1 58.9 C 407.1 58.9 407.5 58.3 407.5 58.3 C 408 58.8 408.8 59 409.6 59 C 410.9 59 411.5 58.4 411.5 57.1 C 411.5 57.1 411.5 56.5 411.5 56.5 C 411.1 57.1 410.3 57.5 409.5 57.5 C 408 57.5 406.8 56.4 406.8 54.9 C 406.8 53.4 408 52.4 409.5 52.4 C 410.3 52.4 411.1 52.7 411.5 53.4 C 411.55 53.43 411.5 52.4 411.5 52.4 L 412.2 52.4 Z M 411.5 54.9 C 411.5 53.8 410.7 53 409.5 53 C 408.4 53 407.5 53.8 407.5 54.9 C 407.5 56.1 408.4 56.9 409.5 56.9 C 410.7 56.9 411.5 56.1 411.5 54.9 Z M 418.8 55.3 C 418.8 55.3 414.4 55.3 414.4 55.3 C 414.5 56.4 415.3 57.1 416.5 57.1 C 417.1 57.1 417.7 56.9 418.1 56.4 C 418.1 56.4 418.5 56.9 418.5 56.9 C 418 57.4 417.3 57.7 416.4 57.7 C 414.8 57.7 413.7 56.6 413.7 55 C 413.7 53.5 414.8 52.4 416.2 52.4 C 417.7 52.4 418.8 53.5 418.8 55 C 418.8 55.1 418.8 55.2 418.8 55.3 Z M 414.4 54.7 C 414.4 54.7 418.1 54.7 418.1 54.7 C 418 53.7 417.3 53 416.2 53 C 415.2 53 414.5 53.7 414.4 54.7 Z M 419.6 57.1 C 419.6 57.1 419.9 56.5 419.9 56.5 C 420.3 56.9 421 57.1 421.8 57.1 C 422.8 57.1 423.2 56.8 423.2 56.3 C 423.2 54.9 419.8 56 419.8 53.9 C 419.8 53 420.5 52.4 421.9 52.4 C 422.5 52.4 423.3 52.6 423.7 52.9 C 423.7 52.9 423.4 53.4 423.4 53.4 C 423 53.1 422.4 53 421.9 53 C 420.9 53 420.5 53.4 420.5 53.9 C 420.5 55.3 423.9 54.2 423.9 56.2 C 423.9 57.1 423.1 57.7 421.7 57.7 C 420.9 57.7 420 57.4 419.6 57.1 Z M 425 57.2 C 425 56.9 425.2 56.6 425.5 56.6 C 425.8 56.6 426.1 56.9 426.1 57.2 C 426.1 57.5 425.8 57.7 425.5 57.7 C 425.2 57.7 425 57.5 425 57.2 Z " stroke="none" fill="#323132"/>
  </g>
  <g id="Polygon117314">
    <path d="M 6.5 39.2 C 6.5 37.1 8.1 35.6 10.2 35.6 C 12.3 35.6 13.9 37.1 13.9 39.2 C 13.9 41.2 12.3 42.7 10.2 42.7 C 8.1 42.7 6.5 41.2 6.5 39.2 Z M 13.1 39.2 C 13.1 37.5 11.9 36.3 10.2 36.3 C 8.5 36.3 7.2 37.5 7.2 39.2 C 7.2 40.9 8.5 42.1 10.2 42.1 C 11.9 42.1 13.1 40.9 13.1 39.2 Z M 20.8 40.1 C 20.8 41.7 19.7 42.7 18.2 42.7 C 17.3 42.7 16.6 42.4 16.2 41.7 C 16.15 41.69 16.2 44.6 16.2 44.6 L 15.4 44.6 L 15.4 37.4 L 16.1 37.4 C 16.1 37.4 16.12 38.46 16.1 38.5 C 16.6 37.8 17.3 37.4 18.2 37.4 C 19.7 37.4 20.8 38.5 20.8 40.1 Z M 20.1 40 C 20.1 38.8 19.2 38 18.1 38 C 17 38 16.1 38.8 16.1 40 C 16.1 41.3 17 42.1 18.1 42.1 C 19.2 42.1 20.1 41.3 20.1 40 Z M 26.9 40.3 C 26.9 40.3 22.5 40.3 22.5 40.3 C 22.6 41.4 23.4 42.1 24.6 42.1 C 25.2 42.1 25.8 41.9 26.2 41.4 C 26.2 41.4 26.6 41.9 26.6 41.9 C 26.1 42.4 25.4 42.7 24.5 42.7 C 22.9 42.7 21.8 41.6 21.8 40 C 21.8 38.5 22.9 37.4 24.4 37.4 C 25.8 37.4 26.9 38.5 26.9 40 C 26.9 40.1 26.9 40.2 26.9 40.3 Z M 22.5 39.7 C 22.5 39.7 26.2 39.7 26.2 39.7 C 26.1 38.7 25.4 38 24.4 38 C 23.3 38 22.6 38.7 22.5 39.7 Z M 31 37.4 C 31 37.4 31 38.1 31 38.1 C 30.9 38.1 30.8 38.1 30.8 38.1 C 29.7 38.1 29 38.8 29 40 C 29.01 40 29 42.7 29 42.7 L 28.3 42.7 L 28.3 37.4 L 29 37.4 C 29 37.4 28.98 38.45 29 38.4 C 29.3 37.7 30 37.4 31 37.4 Z M 36.3 39.4 C 36.29 39.42 36.3 42.7 36.3 42.7 L 35.6 42.7 C 35.6 42.7 35.61 41.86 35.6 41.9 C 35.3 42.4 34.7 42.7 33.8 42.7 C 32.6 42.7 31.9 42.1 31.9 41.2 C 31.9 40.4 32.4 39.7 33.9 39.7 C 33.91 39.71 35.6 39.7 35.6 39.7 C 35.6 39.7 35.58 39.39 35.6 39.4 C 35.6 38.5 35.1 38 34.1 38 C 33.4 38 32.8 38.2 32.3 38.6 C 32.3 38.6 32 38.1 32 38.1 C 32.6 37.6 33.3 37.4 34.2 37.4 C 35.5 37.4 36.3 38.1 36.3 39.4 Z M 35.6 41.1 C 35.58 41.1 35.6 40.2 35.6 40.2 C 35.6 40.2 33.93 40.24 33.9 40.2 C 32.9 40.2 32.6 40.6 32.6 41.2 C 32.6 41.8 33.1 42.2 33.9 42.2 C 34.7 42.2 35.3 41.8 35.6 41.1 Z M 40.8 42.4 C 40.6 42.6 40.1 42.7 39.7 42.7 C 38.7 42.7 38.2 42.2 38.2 41.2 C 38.19 41.2 38.2 38 38.2 38 L 37.2 38 L 37.2 37.4 L 38.2 37.4 L 38.2 36.3 L 38.9 36.3 L 38.9 37.4 L 40.5 37.4 L 40.5 38 L 38.9 38 C 38.9 38 38.9 41.16 38.9 41.2 C 38.9 41.8 39.2 42.1 39.8 42.1 C 40.1 42.1 40.4 42 40.6 41.9 C 40.6 41.9 40.8 42.4 40.8 42.4 Z M 41.9 35.8 C 41.9 35.5 42.1 35.3 42.4 35.3 C 42.7 35.3 42.9 35.5 42.9 35.7 C 42.9 36 42.7 36.3 42.4 36.3 C 42.1 36.3 41.9 36 41.9 35.8 Z M 42 37.4 L 42.7 37.4 L 42.7 42.7 L 42 42.7 L 42 37.4 Z M 49.4 39.6 C 49.42 39.63 49.4 42.7 49.4 42.7 L 48.7 42.7 C 48.7 42.7 48.71 39.7 48.7 39.7 C 48.7 38.6 48.1 38 47.1 38 C 46 38 45.3 38.7 45.3 39.9 C 45.29 39.92 45.3 42.7 45.3 42.7 L 44.6 42.7 L 44.6 37.4 L 45.3 37.4 C 45.3 37.4 45.26 38.39 45.3 38.4 C 45.6 37.7 46.3 37.4 47.3 37.4 C 48.5 37.4 49.4 38.1 49.4 39.6 Z M 56.2 37.4 C 56.2 37.4 56.18 42.04 56.2 42 C 56.2 43.9 55.3 44.7 53.6 44.7 C 52.6 44.7 51.7 44.4 51.1 43.9 C 51.1 43.9 51.5 43.3 51.5 43.3 C 52 43.8 52.7 44 53.5 44 C 54.9 44 55.5 43.4 55.5 42.1 C 55.5 42.1 55.5 41.5 55.5 41.5 C 55 42.1 54.3 42.5 53.4 42.5 C 51.9 42.5 50.8 41.4 50.8 39.9 C 50.8 38.4 51.9 37.4 53.4 37.4 C 54.3 37.4 55.1 37.7 55.5 38.4 C 55.5 38.43 55.5 37.4 55.5 37.4 L 56.2 37.4 Z M 55.5 39.9 C 55.5 38.8 54.7 38 53.5 38 C 52.3 38 51.5 38.8 51.5 39.9 C 51.5 41.1 52.3 41.9 53.5 41.9 C 54.7 41.9 55.5 41.1 55.5 39.9 Z M 63.6 42.4 C 63.3 42.6 62.9 42.7 62.5 42.7 C 61.5 42.7 60.9 42.2 60.9 41.2 C 60.91 41.2 60.9 38 60.9 38 L 60 38 L 60 37.4 L 60.9 37.4 L 60.9 36.3 L 61.6 36.3 L 61.6 37.4 L 63.2 37.4 L 63.2 38 L 61.6 38 C 61.6 38 61.62 41.16 61.6 41.2 C 61.6 41.8 61.9 42.1 62.5 42.1 C 62.8 42.1 63.1 42 63.3 41.9 C 63.3 41.9 63.6 42.4 63.6 42.4 Z M 67.4 37.4 C 67.4 37.4 67.4 38.1 67.4 38.1 C 67.3 38.1 67.3 38.1 67.2 38.1 C 66.1 38.1 65.5 38.8 65.5 40 C 65.46 40 65.5 42.7 65.5 42.7 L 64.8 42.7 L 64.8 37.4 L 65.4 37.4 C 65.4 37.4 65.43 38.45 65.4 38.4 C 65.8 37.7 66.4 37.4 67.4 37.4 Z M 72.7 39.4 C 72.74 39.42 72.7 42.7 72.7 42.7 L 72.1 42.7 C 72.1 42.7 72.06 41.86 72.1 41.9 C 71.7 42.4 71.1 42.7 70.2 42.7 C 69.1 42.7 68.3 42.1 68.3 41.2 C 68.3 40.4 68.8 39.7 70.4 39.7 C 70.36 39.71 72 39.7 72 39.7 C 72 39.7 72.03 39.39 72 39.4 C 72 38.5 71.5 38 70.5 38 C 69.9 38 69.2 38.2 68.8 38.6 C 68.8 38.6 68.5 38.1 68.5 38.1 C 69 37.6 69.8 37.4 70.6 37.4 C 72 37.4 72.7 38.1 72.7 39.4 Z M 72 41.1 C 72.03 41.1 72 40.2 72 40.2 C 72 40.2 70.38 40.24 70.4 40.2 C 69.4 40.2 69 40.6 69 41.2 C 69 41.8 69.5 42.2 70.4 42.2 C 71.2 42.2 71.8 41.8 72 41.1 Z M 79.4 35.3 L 79.4 42.7 L 78.8 42.7 C 78.8 42.7 78.77 41.64 78.8 41.6 C 78.3 42.3 77.6 42.7 76.7 42.7 C 75.2 42.7 74.1 41.6 74.1 40 C 74.1 38.5 75.2 37.4 76.7 37.4 C 77.6 37.4 78.3 37.7 78.7 38.4 C 78.74 38.42 78.7 35.3 78.7 35.3 L 79.4 35.3 Z M 78.7 40 C 78.7 38.8 77.9 38 76.8 38 C 75.7 38 74.8 38.8 74.8 40 C 74.8 41.3 75.7 42.1 76.8 42.1 C 77.9 42.1 78.7 41.3 78.7 40 Z M 81.2 35.8 C 81.2 35.5 81.4 35.3 81.7 35.3 C 82 35.3 82.2 35.5 82.2 35.7 C 82.2 36 82 36.3 81.7 36.3 C 81.4 36.3 81.2 36 81.2 35.8 Z M 81.3 37.4 L 82 37.4 L 82 42.7 L 81.3 42.7 L 81.3 37.4 Z M 86.7 42.4 C 86.4 42.6 86 42.7 85.6 42.7 C 84.6 42.7 84.1 42.2 84.1 41.2 C 84.08 41.2 84.1 38 84.1 38 L 83.1 38 L 83.1 37.4 L 84.1 37.4 L 84.1 36.3 L 84.8 36.3 L 84.8 37.4 L 86.4 37.4 L 86.4 38 L 84.8 38 C 84.8 38 84.79 41.16 84.8 41.2 C 84.8 41.8 85.1 42.1 85.7 42.1 C 86 42.1 86.3 42 86.5 41.9 C 86.5 41.9 86.7 42.4 86.7 42.4 Z M 87.8 35.8 C 87.8 35.5 88 35.3 88.3 35.3 C 88.6 35.3 88.8 35.5 88.8 35.7 C 88.8 36 88.6 36.3 88.3 36.3 C 88 36.3 87.8 36 87.8 35.8 Z M 87.9 37.4 L 88.6 37.4 L 88.6 42.7 L 87.9 42.7 L 87.9 37.4 Z M 90 40 C 90 38.5 91.2 37.4 92.7 37.4 C 94.2 37.4 95.4 38.5 95.4 40 C 95.4 41.6 94.2 42.7 92.7 42.7 C 91.2 42.7 90 41.6 90 40 Z M 94.7 40 C 94.7 38.8 93.8 38 92.7 38 C 91.6 38 90.7 38.8 90.7 40 C 90.7 41.3 91.6 42.1 92.7 42.1 C 93.8 42.1 94.7 41.3 94.7 40 Z M 101.6 39.6 C 101.64 39.63 101.6 42.7 101.6 42.7 L 100.9 42.7 C 100.9 42.7 100.93 39.7 100.9 39.7 C 100.9 38.6 100.3 38 99.3 38 C 98.2 38 97.5 38.7 97.5 39.9 C 97.51 39.92 97.5 42.7 97.5 42.7 L 96.8 42.7 L 96.8 37.4 L 97.5 37.4 C 97.5 37.4 97.48 38.39 97.5 38.4 C 97.9 37.7 98.6 37.4 99.5 37.4 C 100.8 37.4 101.6 38.1 101.6 39.6 Z M 107.5 39.4 C 107.46 39.42 107.5 42.7 107.5 42.7 L 106.8 42.7 C 106.8 42.7 106.78 41.86 106.8 41.9 C 106.5 42.4 105.8 42.7 105 42.7 C 103.8 42.7 103 42.1 103 41.2 C 103 40.4 103.6 39.7 105.1 39.7 C 105.08 39.71 106.7 39.7 106.7 39.7 C 106.7 39.7 106.75 39.39 106.7 39.4 C 106.7 38.5 106.2 38 105.3 38 C 104.6 38 103.9 38.2 103.5 38.6 C 103.5 38.6 103.2 38.1 103.2 38.1 C 103.7 37.6 104.5 37.4 105.3 37.4 C 106.7 37.4 107.5 38.1 107.5 39.4 Z M 106.7 41.1 C 106.75 41.1 106.7 40.2 106.7 40.2 C 106.7 40.2 105.1 40.24 105.1 40.2 C 104.1 40.2 103.7 40.6 103.7 41.2 C 103.7 41.8 104.2 42.2 105.1 42.2 C 105.9 42.2 106.5 41.8 106.7 41.1 Z M 109.3 35.3 L 110 35.3 L 110 42.7 L 109.3 42.7 L 109.3 35.3 Z M 123.3 39.6 C 123.26 39.63 123.3 42.7 123.3 42.7 L 122.6 42.7 C 122.6 42.7 122.55 39.7 122.6 39.7 C 122.6 38.6 122 38 121 38 C 120 38 119.3 38.7 119.3 39.9 C 119.28 39.92 119.3 42.7 119.3 42.7 L 118.6 42.7 C 118.6 42.7 118.57 39.7 118.6 39.7 C 118.6 38.6 118 38 117.1 38 C 116 38 115.3 38.7 115.3 39.9 C 115.29 39.92 115.3 42.7 115.3 42.7 L 114.6 42.7 L 114.6 37.4 L 115.3 37.4 C 115.3 37.4 115.26 38.38 115.3 38.4 C 115.6 37.7 116.3 37.4 117.2 37.4 C 118.1 37.4 118.7 37.7 119.1 38.5 C 119.4 37.8 120.2 37.4 121.1 37.4 C 122.4 37.4 123.3 38.1 123.3 39.6 Z M 129.1 39.4 C 129.09 39.42 129.1 42.7 129.1 42.7 L 128.4 42.7 C 128.4 42.7 128.41 41.86 128.4 41.9 C 128.1 42.4 127.5 42.7 126.6 42.7 C 125.4 42.7 124.7 42.1 124.7 41.2 C 124.7 40.4 125.2 39.7 126.7 39.7 C 126.71 39.71 128.4 39.7 128.4 39.7 C 128.4 39.7 128.38 39.39 128.4 39.4 C 128.4 38.5 127.9 38 126.9 38 C 126.2 38 125.6 38.2 125.1 38.6 C 125.1 38.6 124.8 38.1 124.8 38.1 C 125.4 37.6 126.1 37.4 127 37.4 C 128.3 37.4 129.1 38.1 129.1 39.4 Z M 128.4 41.1 C 128.38 41.1 128.4 40.2 128.4 40.2 C 128.4 40.2 126.73 40.24 126.7 40.2 C 125.7 40.2 125.4 40.6 125.4 41.2 C 125.4 41.8 125.9 42.2 126.7 42.2 C 127.5 42.2 128.1 41.8 128.4 41.1 Z M 130.5 40 C 130.5 38.5 131.6 37.4 133.2 37.4 C 134.1 37.4 134.8 37.7 135.2 38.4 C 135.2 38.4 134.7 38.8 134.7 38.8 C 134.4 38.2 133.8 38 133.2 38 C 132 38 131.2 38.8 131.2 40 C 131.2 41.3 132 42.1 133.2 42.1 C 133.8 42.1 134.4 41.9 134.7 41.3 C 134.7 41.3 135.2 41.7 135.2 41.7 C 134.8 42.4 134.1 42.7 133.2 42.7 C 131.6 42.7 130.5 41.6 130.5 40 Z M 141.4 39.6 C 141.39 39.63 141.4 42.7 141.4 42.7 L 140.7 42.7 C 140.7 42.7 140.68 39.7 140.7 39.7 C 140.7 38.6 140.1 38 139.1 38 C 138 38 137.3 38.7 137.3 39.9 C 137.26 39.92 137.3 42.7 137.3 42.7 L 136.6 42.7 L 136.6 35.3 L 137.3 35.3 C 137.3 35.3 137.26 38.34 137.3 38.3 C 137.7 37.7 138.3 37.4 139.2 37.4 C 140.5 37.4 141.4 38.1 141.4 39.6 Z M 143 35.8 C 143 35.5 143.2 35.3 143.5 35.3 C 143.8 35.3 144.1 35.5 144.1 35.7 C 144.1 36 143.8 36.3 143.5 36.3 C 143.2 36.3 143 36 143 35.8 Z M 143.2 37.4 L 143.9 37.4 L 143.9 42.7 L 143.2 42.7 L 143.2 37.4 Z M 150.6 39.6 C 150.57 39.63 150.6 42.7 150.6 42.7 L 149.9 42.7 C 149.9 42.7 149.86 39.7 149.9 39.7 C 149.9 38.6 149.3 38 148.3 38 C 147.1 38 146.4 38.7 146.4 39.9 C 146.44 39.92 146.4 42.7 146.4 42.7 L 145.7 42.7 L 145.7 37.4 L 146.4 37.4 C 146.4 37.4 146.41 38.39 146.4 38.4 C 146.8 37.7 147.5 37.4 148.4 37.4 C 149.7 37.4 150.6 38.1 150.6 39.6 Z M 157.1 40.3 C 157.1 40.3 152.7 40.3 152.7 40.3 C 152.7 41.4 153.6 42.1 154.7 42.1 C 155.4 42.1 155.9 41.9 156.3 41.4 C 156.3 41.4 156.7 41.9 156.7 41.9 C 156.3 42.4 155.5 42.7 154.7 42.7 C 153.1 42.7 152 41.6 152 40 C 152 38.5 153 37.4 154.5 37.4 C 156 37.4 157.1 38.5 157.1 40 C 157.1 40.1 157.1 40.2 157.1 40.3 Z M 152.7 39.7 C 152.7 39.7 156.4 39.7 156.4 39.7 C 156.3 38.7 155.6 38 154.5 38 C 153.5 38 152.8 38.7 152.7 39.7 Z M 161.1 37.4 C 161.1 37.4 161.1 38.1 161.1 38.1 C 161.1 38.1 161 38.1 161 38.1 C 159.9 38.1 159.2 38.8 159.2 40 C 159.19 40 159.2 42.7 159.2 42.7 L 158.5 42.7 L 158.5 37.4 L 159.2 37.4 C 159.2 37.4 159.16 38.45 159.2 38.4 C 159.5 37.7 160.2 37.4 161.1 37.4 Z M 167.2 37.4 C 167.2 37.4 164.61 43.31 164.6 43.3 C 164.2 44.3 163.6 44.7 162.9 44.7 C 162.4 44.7 161.9 44.5 161.6 44.2 C 161.6 44.2 161.9 43.7 161.9 43.7 C 162.2 43.9 162.5 44.1 162.9 44.1 C 163.3 44.1 163.7 43.8 164 43.2 C 163.96 43.18 164.2 42.7 164.2 42.7 L 161.8 37.4 L 162.6 37.4 L 164.6 41.9 L 166.5 37.4 L 167.2 37.4 Z M 175.6 37.4 L 175.6 42.7 L 174.9 42.7 C 174.9 42.7 174.92 41.72 174.9 41.7 C 174.6 42.4 173.9 42.7 173 42.7 C 171.7 42.7 170.8 42 170.8 40.5 C 170.82 40.47 170.8 37.4 170.8 37.4 L 171.5 37.4 C 171.5 37.4 171.52 40.4 171.5 40.4 C 171.5 41.5 172.1 42.1 173.1 42.1 C 174.2 42.1 174.9 41.4 174.9 40.2 C 174.9 40.18 174.9 37.4 174.9 37.4 L 175.6 37.4 Z M 180.3 42.4 C 180 42.6 179.6 42.7 179.2 42.7 C 178.2 42.7 177.7 42.2 177.7 41.2 C 177.68 41.2 177.7 38 177.7 38 L 176.7 38 L 176.7 37.4 L 177.7 37.4 L 177.7 36.3 L 178.4 36.3 L 178.4 37.4 L 180 37.4 L 180 38 L 178.4 38 C 178.4 38 178.39 41.16 178.4 41.2 C 178.4 41.8 178.7 42.1 179.3 42.1 C 179.6 42.1 179.9 42 180.1 41.9 C 180.1 41.9 180.3 42.4 180.3 42.4 Z M 181.4 35.8 C 181.4 35.5 181.6 35.3 181.9 35.3 C 182.2 35.3 182.4 35.5 182.4 35.7 C 182.4 36 182.2 36.3 181.9 36.3 C 181.6 36.3 181.4 36 181.4 35.8 Z M 181.5 37.4 L 182.2 37.4 L 182.2 42.7 L 181.5 42.7 L 181.5 37.4 Z M 184.1 35.3 L 184.8 35.3 L 184.8 42.7 L 184.1 42.7 L 184.1 35.3 Z M 186.5 35.8 C 186.5 35.5 186.7 35.3 187 35.3 C 187.3 35.3 187.5 35.5 187.5 35.7 C 187.5 36 187.3 36.3 187 36.3 C 186.7 36.3 186.5 36 186.5 35.8 Z M 186.6 37.4 L 187.3 37.4 L 187.3 42.7 L 186.6 42.7 L 186.6 37.4 Z M 188.6 42.1 C 188.6 42.1 188.9 41.5 188.9 41.5 C 189.4 41.9 190.1 42.1 190.8 42.1 C 191.8 42.1 192.2 41.8 192.2 41.3 C 192.2 39.9 188.8 41 188.8 38.9 C 188.8 38 189.5 37.4 190.9 37.4 C 191.6 37.4 192.3 37.6 192.7 37.9 C 192.7 37.9 192.4 38.4 192.4 38.4 C 192 38.1 191.4 38 190.9 38 C 189.9 38 189.5 38.4 189.5 38.9 C 189.5 40.3 192.9 39.2 192.9 41.2 C 192.9 42.1 192.1 42.7 190.8 42.7 C 189.9 42.7 189 42.4 188.6 42.1 Z M 198.9 40.3 C 198.9 40.3 194.5 40.3 194.5 40.3 C 194.6 41.4 195.4 42.1 196.6 42.1 C 197.2 42.1 197.8 41.9 198.2 41.4 C 198.2 41.4 198.6 41.9 198.6 41.9 C 198.1 42.4 197.4 42.7 196.6 42.7 C 194.9 42.7 193.8 41.6 193.8 40 C 193.8 38.5 194.9 37.4 196.4 37.4 C 197.8 37.4 198.9 38.5 198.9 40 C 198.9 40.1 198.9 40.2 198.9 40.3 Z M 194.5 39.7 C 194.5 39.7 198.2 39.7 198.2 39.7 C 198.1 38.7 197.4 38 196.4 38 C 195.3 38 194.6 38.7 194.5 39.7 Z M 199.7 42.1 C 199.7 42.1 200 41.5 200 41.5 C 200.5 41.9 201.2 42.1 201.9 42.1 C 202.9 42.1 203.3 41.8 203.3 41.3 C 203.3 39.9 199.9 41 199.9 38.9 C 199.9 38 200.6 37.4 202 37.4 C 202.7 37.4 203.4 37.6 203.8 37.9 C 203.8 37.9 203.5 38.4 203.5 38.4 C 203.1 38.1 202.5 38 202 38 C 201 38 200.6 38.4 200.6 38.9 C 200.6 40.3 204 39.2 204 41.2 C 204 42.1 203.2 42.7 201.9 42.7 C 201 42.7 200.1 42.4 199.7 42.1 Z M 207.8 35.8 C 207.8 35.5 208 35.3 208.3 35.3 C 208.6 35.3 208.8 35.5 208.8 35.7 C 208.8 36 208.6 36.3 208.3 36.3 C 208 36.3 207.8 36 207.8 35.8 Z M 208 37.4 L 208.7 37.4 L 208.7 42.7 L 208 42.7 L 208 37.4 Z M 215.3 39.6 C 215.34 39.63 215.3 42.7 215.3 42.7 L 214.6 42.7 C 214.6 42.7 214.63 39.7 214.6 39.7 C 214.6 38.6 214.1 38 213.1 38 C 211.9 38 211.2 38.7 211.2 39.9 C 211.21 39.92 211.2 42.7 211.2 42.7 L 210.5 42.7 L 210.5 37.4 L 211.2 37.4 C 211.2 37.4 211.18 38.39 211.2 38.4 C 211.6 37.7 212.3 37.4 213.2 37.4 C 214.5 37.4 215.3 38.1 215.3 39.6 Z M 217.9 36.8 C 217.95 36.8 217.9 37.4 217.9 37.4 L 219.6 37.4 L 219.6 38 L 218 38 L 218 42.7 L 217.3 42.7 L 217.3 38 L 216.3 38 L 216.3 37.4 L 217.3 37.4 C 217.3 37.4 217.26 36.77 217.3 36.8 C 217.3 35.8 217.8 35.2 218.8 35.2 C 219.2 35.2 219.6 35.3 219.9 35.5 C 219.9 35.5 219.7 36.1 219.7 36.1 C 219.5 35.9 219.2 35.8 218.9 35.8 C 218.3 35.8 217.9 36.1 217.9 36.8 Z M 220 40 C 220 38.5 221.1 37.4 222.7 37.4 C 224.2 37.4 225.3 38.5 225.3 40 C 225.3 41.6 224.2 42.7 222.7 42.7 C 221.1 42.7 220 41.6 220 40 Z M 224.6 40 C 224.6 38.8 223.8 38 222.7 38 C 221.5 38 220.7 38.8 220.7 40 C 220.7 41.3 221.5 42.1 222.7 42.1 C 223.8 42.1 224.6 41.3 224.6 40 Z M 229.4 37.4 C 229.4 37.4 229.4 38.1 229.4 38.1 C 229.3 38.1 229.3 38.1 229.2 38.1 C 228.1 38.1 227.5 38.8 227.5 40 C 227.46 40 227.5 42.7 227.5 42.7 L 226.8 42.7 L 226.8 37.4 L 227.4 37.4 C 227.4 37.4 227.43 38.45 227.4 38.4 C 227.8 37.7 228.4 37.4 229.4 37.4 Z M 239.3 39.6 C 239.3 39.63 239.3 42.7 239.3 42.7 L 238.6 42.7 C 238.6 42.7 238.6 39.7 238.6 39.7 C 238.6 38.6 238 38 237.1 38 C 236 38 235.3 38.7 235.3 39.9 C 235.32 39.92 235.3 42.7 235.3 42.7 L 234.6 42.7 C 234.6 42.7 234.62 39.7 234.6 39.7 C 234.6 38.6 234.1 38 233.1 38 C 232 38 231.3 38.7 231.3 39.9 C 231.33 39.92 231.3 42.7 231.3 42.7 L 230.6 42.7 L 230.6 37.4 L 231.3 37.4 C 231.3 37.4 231.3 38.38 231.3 38.4 C 231.7 37.7 232.4 37.4 233.2 37.4 C 234.1 37.4 234.8 37.7 235.1 38.5 C 235.5 37.8 236.2 37.4 237.2 37.4 C 238.5 37.4 239.3 38.1 239.3 39.6 Z M 245.1 39.4 C 245.13 39.42 245.1 42.7 245.1 42.7 L 244.5 42.7 C 244.5 42.7 244.46 41.86 244.5 41.9 C 244.1 42.4 243.5 42.7 242.6 42.7 C 241.5 42.7 240.7 42.1 240.7 41.2 C 240.7 40.4 241.2 39.7 242.8 39.7 C 242.76 39.71 244.4 39.7 244.4 39.7 C 244.4 39.7 244.43 39.39 244.4 39.4 C 244.4 38.5 243.9 38 242.9 38 C 242.3 38 241.6 38.2 241.2 38.6 C 241.2 38.6 240.9 38.1 240.9 38.1 C 241.4 37.6 242.2 37.4 243 37.4 C 244.4 37.4 245.1 38.1 245.1 39.4 Z M 244.4 41.1 C 244.43 41.1 244.4 40.2 244.4 40.2 C 244.4 40.2 242.78 40.24 242.8 40.2 C 241.8 40.2 241.4 40.6 241.4 41.2 C 241.4 41.8 241.9 42.2 242.8 42.2 C 243.6 42.2 244.1 41.8 244.4 41.1 Z M 249.7 42.4 C 249.4 42.6 249 42.7 248.6 42.7 C 247.6 42.7 247 42.2 247 41.2 C 247.03 41.2 247 38 247 38 L 246.1 38 L 246.1 37.4 L 247 37.4 L 247 36.3 L 247.7 36.3 L 247.7 37.4 L 249.3 37.4 L 249.3 38 L 247.7 38 C 247.7 38 247.74 41.16 247.7 41.2 C 247.7 41.8 248.1 42.1 248.6 42.1 C 248.9 42.1 249.2 42 249.4 41.9 C 249.4 41.9 249.7 42.4 249.7 42.4 Z M 250.7 35.8 C 250.7 35.5 250.9 35.3 251.2 35.3 C 251.5 35.3 251.7 35.5 251.7 35.7 C 251.7 36 251.5 36.3 251.2 36.3 C 250.9 36.3 250.7 36 250.7 35.8 Z M 250.9 37.4 L 251.6 37.4 L 251.6 42.7 L 250.9 42.7 L 250.9 37.4 Z M 253 40 C 253 38.5 254.1 37.4 255.7 37.4 C 257.2 37.4 258.3 38.5 258.3 40 C 258.3 41.6 257.2 42.7 255.7 42.7 C 254.1 42.7 253 41.6 253 40 Z M 257.6 40 C 257.6 38.8 256.8 38 255.7 38 C 254.5 38 253.7 38.8 253.7 40 C 253.7 41.3 254.5 42.1 255.7 42.1 C 256.8 42.1 257.6 41.3 257.6 40 Z M 264.6 39.6 C 264.59 39.63 264.6 42.7 264.6 42.7 L 263.9 42.7 C 263.9 42.7 263.88 39.7 263.9 39.7 C 263.9 38.6 263.3 38 262.3 38 C 261.2 38 260.5 38.7 260.5 39.9 C 260.46 39.92 260.5 42.7 260.5 42.7 L 259.7 42.7 L 259.7 37.4 L 260.4 37.4 C 260.4 37.4 260.43 38.39 260.4 38.4 C 260.8 37.7 261.5 37.4 262.4 37.4 C 263.7 37.4 264.6 38.1 264.6 39.6 Z M 271.8 37.4 C 271.8 37.4 271.8 38.1 271.8 38.1 C 271.7 38.1 271.7 38.1 271.6 38.1 C 270.5 38.1 269.8 38.8 269.8 40 C 269.85 40 269.8 42.7 269.8 42.7 L 269.1 42.7 L 269.1 37.4 L 269.8 37.4 C 269.8 37.4 269.82 38.45 269.8 38.4 C 270.1 37.7 270.8 37.4 271.8 37.4 Z M 277.5 40.3 C 277.5 40.3 273.1 40.3 273.1 40.3 C 273.2 41.4 274.1 42.1 275.2 42.1 C 275.8 42.1 276.4 41.9 276.8 41.4 C 276.8 41.4 277.2 41.9 277.2 41.9 C 276.7 42.4 276 42.7 275.2 42.7 C 273.5 42.7 272.4 41.6 272.4 40 C 272.4 38.5 273.5 37.4 275 37.4 C 276.5 37.4 277.5 38.5 277.5 40 C 277.5 40.1 277.5 40.2 277.5 40.3 Z M 273.1 39.7 C 273.1 39.7 276.9 39.7 276.9 39.7 C 276.8 38.7 276 38 275 38 C 274 38 273.2 38.7 273.1 39.7 Z M 278.5 40 C 278.5 38.5 279.7 37.4 281.3 37.4 C 282.1 37.4 282.9 37.7 283.3 38.4 C 283.3 38.4 282.8 38.8 282.8 38.8 C 282.4 38.2 281.9 38 281.3 38 C 280.1 38 279.3 38.8 279.3 40 C 279.3 41.3 280.1 42.1 281.3 42.1 C 281.9 42.1 282.4 41.9 282.8 41.3 C 282.8 41.3 283.3 41.7 283.3 41.7 C 282.9 42.4 282.1 42.7 281.3 42.7 C 279.7 42.7 278.5 41.6 278.5 40 Z M 289.2 40.3 C 289.2 40.3 284.8 40.3 284.8 40.3 C 284.9 41.4 285.8 42.1 286.9 42.1 C 287.5 42.1 288.1 41.9 288.5 41.4 C 288.5 41.4 288.9 41.9 288.9 41.9 C 288.4 42.4 287.7 42.7 286.9 42.7 C 285.2 42.7 284.1 41.6 284.1 40 C 284.1 38.5 285.2 37.4 286.7 37.4 C 288.2 37.4 289.2 38.5 289.2 40 C 289.2 40.1 289.2 40.2 289.2 40.3 Z M 284.8 39.7 C 284.8 39.7 288.6 39.7 288.6 39.7 C 288.5 38.7 287.7 38 286.7 38 C 285.7 38 284.9 38.7 284.8 39.7 Z M 290.5 35.8 C 290.5 35.5 290.7 35.3 291 35.3 C 291.3 35.3 291.5 35.5 291.5 35.7 C 291.5 36 291.3 36.3 291 36.3 C 290.7 36.3 290.5 36 290.5 35.8 Z M 290.6 37.4 L 291.3 37.4 L 291.3 42.7 L 290.6 42.7 L 290.6 37.4 Z M 297.8 37.4 L 295.4 42.7 L 294.7 42.7 L 292.4 37.4 L 293.1 37.4 L 295.1 41.9 L 297.1 37.4 L 297.8 37.4 Z M 303.3 40.3 C 303.3 40.3 298.9 40.3 298.9 40.3 C 299 41.4 299.8 42.1 301 42.1 C 301.6 42.1 302.2 41.9 302.6 41.4 C 302.6 41.4 303 41.9 303 41.9 C 302.5 42.4 301.8 42.7 300.9 42.7 C 299.3 42.7 298.2 41.6 298.2 40 C 298.2 38.5 299.3 37.4 300.7 37.4 C 302.2 37.4 303.3 38.5 303.3 40 C 303.3 40.1 303.3 40.2 303.3 40.3 Z M 298.9 39.7 C 298.9 39.7 302.6 39.7 302.6 39.7 C 302.5 38.7 301.8 38 300.7 38 C 299.7 38 299 38.7 298.9 39.7 Z M 309.6 35.3 L 309.6 42.7 L 308.9 42.7 C 308.9 42.7 308.94 41.64 308.9 41.6 C 308.5 42.3 307.8 42.7 306.9 42.7 C 305.4 42.7 304.3 41.6 304.3 40 C 304.3 38.5 305.4 37.4 306.9 37.4 C 307.8 37.4 308.5 37.7 308.9 38.4 C 308.91 38.42 308.9 35.3 308.9 35.3 L 309.6 35.3 Z M 308.9 40 C 308.9 38.8 308.1 38 307 38 C 305.9 38 305 38.8 305 40 C 305 41.3 305.9 42.1 307 42.1 C 308.1 42.1 308.9 41.3 308.9 40 Z M 319 35.3 L 319 42.7 L 318.3 42.7 C 318.3 42.7 318.34 41.64 318.3 41.6 C 317.9 42.3 317.2 42.7 316.3 42.7 C 314.8 42.7 313.7 41.6 313.7 40 C 313.7 38.5 314.8 37.4 316.3 37.4 C 317.2 37.4 317.9 37.7 318.3 38.4 C 318.31 38.42 318.3 35.3 318.3 35.3 L 319 35.3 Z M 318.3 40 C 318.3 38.8 317.5 38 316.4 38 C 315.3 38 314.4 38.8 314.4 40 C 314.4 41.3 315.3 42.1 316.4 42.1 C 317.5 42.1 318.3 41.3 318.3 40 Z M 320.7 35.8 C 320.7 35.5 321 35.3 321.2 35.3 C 321.5 35.3 321.8 35.5 321.8 35.7 C 321.8 36 321.5 36.3 321.2 36.3 C 321 36.3 320.7 36 320.7 35.8 Z M 320.9 37.4 L 321.6 37.4 L 321.6 42.7 L 320.9 42.7 L 320.9 37.4 Z M 326.1 37.4 C 326.1 37.4 326.1 38.1 326.1 38.1 C 326 38.1 326 38.1 325.9 38.1 C 324.8 38.1 324.1 38.8 324.1 40 C 324.15 40 324.1 42.7 324.1 42.7 L 323.4 42.7 L 323.4 37.4 L 324.1 37.4 C 324.1 37.4 324.12 38.45 324.1 38.4 C 324.4 37.7 325.1 37.4 326.1 37.4 Z M 331.8 40.3 C 331.8 40.3 327.4 40.3 327.4 40.3 C 327.5 41.4 328.3 42.1 329.5 42.1 C 330.1 42.1 330.7 41.9 331.1 41.4 C 331.1 41.4 331.5 41.9 331.5 41.9 C 331 42.4 330.3 42.7 329.5 42.7 C 327.8 42.7 326.7 41.6 326.7 40 C 326.7 38.5 327.8 37.4 329.3 37.4 C 330.8 37.4 331.8 38.5 331.8 40 C 331.8 40.1 331.8 40.2 331.8 40.3 Z M 327.4 39.7 C 327.4 39.7 331.2 39.7 331.2 39.7 C 331.1 38.7 330.3 38 329.3 38 C 328.3 38 327.5 38.7 327.4 39.7 Z M 332.8 40 C 332.8 38.5 334 37.4 335.6 37.4 C 336.4 37.4 337.2 37.7 337.6 38.4 C 337.6 38.4 337.1 38.8 337.1 38.8 C 336.7 38.2 336.2 38 335.6 38 C 334.4 38 333.6 38.8 333.6 40 C 333.6 41.3 334.4 42.1 335.6 42.1 C 336.2 42.1 336.7 41.9 337.1 41.3 C 337.1 41.3 337.6 41.7 337.6 41.7 C 337.2 42.4 336.4 42.7 335.6 42.7 C 334 42.7 332.8 41.6 332.8 40 Z M 342 42.4 C 341.7 42.6 341.3 42.7 340.8 42.7 C 339.9 42.7 339.3 42.2 339.3 41.2 C 339.31 41.2 339.3 38 339.3 38 L 338.4 38 L 338.4 37.4 L 339.3 37.4 L 339.3 36.3 L 340 36.3 L 340 37.4 L 341.6 37.4 L 341.6 38 L 340 38 C 340 38 340.01 41.16 340 41.2 C 340 41.8 340.3 42.1 340.9 42.1 C 341.2 42.1 341.5 42 341.7 41.9 C 341.7 41.9 342 42.4 342 42.4 Z M 343.1 35.3 L 343.9 35.3 L 343.9 42.7 L 343.1 42.7 L 343.1 35.3 Z M 350.3 37.4 C 350.3 37.4 347.66 43.31 347.7 43.3 C 347.2 44.3 346.7 44.7 345.9 44.7 C 345.4 44.7 344.9 44.5 344.6 44.2 C 344.6 44.2 345 43.7 345 43.7 C 345.2 43.9 345.5 44.1 345.9 44.1 C 346.4 44.1 346.7 43.8 347 43.2 C 347.01 43.18 347.2 42.7 347.2 42.7 L 344.9 37.4 L 345.6 37.4 L 347.6 41.9 L 349.6 37.4 L 350.3 37.4 Z M 354.7 36.8 C 354.71 36.8 354.7 37.4 354.7 37.4 L 356.3 37.4 L 356.3 38 L 354.7 38 L 354.7 42.7 L 354 42.7 L 354 38 L 353.1 38 L 353.1 37.4 L 354 37.4 C 354 37.4 354.03 36.77 354 36.8 C 354 35.8 354.6 35.2 355.6 35.2 C 356 35.2 356.4 35.3 356.7 35.5 C 356.7 35.5 356.4 36.1 356.4 36.1 C 356.2 35.9 355.9 35.8 355.6 35.8 C 355 35.8 354.7 36.1 354.7 36.8 Z M 360 37.4 C 360 37.4 360 38.1 360 38.1 C 359.9 38.1 359.9 38.1 359.8 38.1 C 358.7 38.1 358.1 38.8 358.1 40 C 358.06 40 358.1 42.7 358.1 42.7 L 357.4 42.7 L 357.4 37.4 L 358 37.4 C 358 37.4 358.03 38.45 358 38.4 C 358.4 37.7 359 37.4 360 37.4 Z M 360.6 40 C 360.6 38.5 361.8 37.4 363.3 37.4 C 364.8 37.4 366 38.5 366 40 C 366 41.6 364.8 42.7 363.3 42.7 C 361.8 42.7 360.6 41.6 360.6 40 Z M 365.2 40 C 365.2 38.8 364.4 38 363.3 38 C 362.2 38 361.3 38.8 361.3 40 C 361.3 41.3 362.2 42.1 363.3 42.1 C 364.4 42.1 365.2 41.3 365.2 40 Z M 376.1 39.6 C 376.07 39.63 376.1 42.7 376.1 42.7 L 375.4 42.7 C 375.4 42.7 375.37 39.7 375.4 39.7 C 375.4 38.6 374.8 38 373.9 38 C 372.8 38 372.1 38.7 372.1 39.9 C 372.09 39.92 372.1 42.7 372.1 42.7 L 371.4 42.7 C 371.4 42.7 371.39 39.7 371.4 39.7 C 371.4 38.6 370.8 38 369.9 38 C 368.8 38 368.1 38.7 368.1 39.9 C 368.1 39.92 368.1 42.7 368.1 42.7 L 367.4 42.7 L 367.4 37.4 L 368.1 37.4 C 368.1 37.4 368.07 38.38 368.1 38.4 C 368.4 37.7 369.1 37.4 370 37.4 C 370.9 37.4 371.6 37.7 371.9 38.5 C 372.3 37.8 373 37.4 374 37.4 C 375.2 37.4 376.1 38.1 376.1 39.6 Z M 383.4 42.4 C 383.1 42.6 382.7 42.7 382.3 42.7 C 381.3 42.7 380.7 42.2 380.7 41.2 C 380.75 41.2 380.7 38 380.7 38 L 379.8 38 L 379.8 37.4 L 380.7 37.4 L 380.7 36.3 L 381.5 36.3 L 381.5 37.4 L 383.1 37.4 L 383.1 38 L 381.5 38 C 381.5 38 381.45 41.16 381.5 41.2 C 381.5 41.8 381.8 42.1 382.4 42.1 C 382.7 42.1 382.9 42 383.1 41.9 C 383.1 41.9 383.4 42.4 383.4 42.4 Z M 389.4 39.6 C 389.42 39.63 389.4 42.7 389.4 42.7 L 388.7 42.7 C 388.7 42.7 388.71 39.7 388.7 39.7 C 388.7 38.6 388.1 38 387.1 38 C 386 38 385.3 38.7 385.3 39.9 C 385.29 39.92 385.3 42.7 385.3 42.7 L 384.6 42.7 L 384.6 35.3 L 385.3 35.3 C 385.3 35.3 385.29 38.34 385.3 38.3 C 385.7 37.7 386.4 37.4 387.3 37.4 C 388.5 37.4 389.4 38.1 389.4 39.6 Z M 395.9 40.3 C 395.9 40.3 391.5 40.3 391.5 40.3 C 391.6 41.4 392.4 42.1 393.6 42.1 C 394.2 42.1 394.8 41.9 395.2 41.4 C 395.2 41.4 395.6 41.9 395.6 41.9 C 395.1 42.4 394.4 42.7 393.6 42.7 C 391.9 42.7 390.8 41.6 390.8 40 C 390.8 38.5 391.9 37.4 393.4 37.4 C 394.9 37.4 395.9 38.5 395.9 40 C 395.9 40.1 395.9 40.2 395.9 40.3 Z M 391.5 39.7 C 391.5 39.7 395.2 39.7 395.2 39.7 C 395.2 38.7 394.4 38 393.4 38 C 392.4 38 391.6 38.7 391.5 39.7 Z M 399.5 40 C 399.5 38.5 400.6 37.4 402.2 37.4 C 403.1 37.4 403.8 37.7 404.2 38.4 C 404.2 38.4 403.7 38.8 403.7 38.8 C 403.3 38.2 402.8 38 402.2 38 C 401 38 400.2 38.8 400.2 40 C 400.2 41.3 401 42.1 402.2 42.1 C 402.8 42.1 403.3 41.9 403.7 41.3 C 403.7 41.3 404.2 41.7 404.2 41.7 C 403.8 42.4 403.1 42.7 402.2 42.7 C 400.6 42.7 399.5 41.6 399.5 40 Z M 405 40 C 405 38.5 406.2 37.4 407.7 37.4 C 409.2 37.4 410.4 38.5 410.4 40 C 410.4 41.6 409.2 42.7 407.7 42.7 C 406.2 42.7 405 41.6 405 40 Z M 409.7 40 C 409.7 38.8 408.8 38 407.7 38 C 406.6 38 405.7 38.8 405.7 40 C 405.7 41.3 406.6 42.1 407.7 42.1 C 408.8 42.1 409.7 41.3 409.7 40 Z M 416.6 39.6 C 416.64 39.63 416.6 42.7 416.6 42.7 L 415.9 42.7 C 415.9 42.7 415.93 39.7 415.9 39.7 C 415.9 38.6 415.3 38 414.3 38 C 413.2 38 412.5 38.7 412.5 39.9 C 412.51 39.92 412.5 42.7 412.5 42.7 L 411.8 42.7 L 411.8 37.4 L 412.5 37.4 C 412.5 37.4 412.48 38.39 412.5 38.4 C 412.9 37.7 413.6 37.4 414.5 37.4 C 415.8 37.4 416.6 38.1 416.6 39.6 Z M 421.2 42.4 C 420.9 42.6 420.5 42.7 420.1 42.7 C 419.1 42.7 418.5 42.2 418.5 41.2 C 418.52 41.2 418.5 38 418.5 38 L 417.6 38 L 417.6 37.4 L 418.5 37.4 L 418.5 36.3 L 419.2 36.3 L 419.2 37.4 L 420.8 37.4 L 420.8 38 L 419.2 38 C 419.2 38 419.23 41.16 419.2 41.2 C 419.2 41.8 419.5 42.1 420.1 42.1 C 420.4 42.1 420.7 42 420.9 41.9 C 420.9 41.9 421.2 42.4 421.2 42.4 Z M 425 37.4 C 425 37.4 425 38.1 425 38.1 C 424.9 38.1 424.9 38.1 424.8 38.1 C 423.7 38.1 423.1 38.8 423.1 40 C 423.07 40 423.1 42.7 423.1 42.7 L 422.4 42.7 L 422.4 37.4 L 423 37.4 C 423 37.4 423.04 38.45 423 38.4 C 423.4 37.7 424 37.4 425 37.4 Z M 425.6 40 C 425.6 38.5 426.8 37.4 428.3 37.4 C 429.8 37.4 431 38.5 431 40 C 431 41.6 429.8 42.7 428.3 42.7 C 426.8 42.7 425.6 41.6 425.6 40 Z M 430.3 40 C 430.3 38.8 429.4 38 428.3 38 C 427.2 38 426.3 38.8 426.3 40 C 426.3 41.3 427.2 42.1 428.3 42.1 C 429.4 42.1 430.3 41.3 430.3 40 Z M 432.4 35.3 L 433.1 35.3 L 433.1 42.7 L 432.4 42.7 L 432.4 35.3 Z M 443.1 40.1 C 443.1 41.7 441.9 42.7 440.4 42.7 C 439.6 42.7 438.9 42.4 438.4 41.7 C 438.43 41.69 438.4 44.6 438.4 44.6 L 437.7 44.6 L 437.7 37.4 L 438.4 37.4 C 438.4 37.4 438.4 38.46 438.4 38.5 C 438.8 37.8 439.6 37.4 440.4 37.4 C 441.9 37.4 443.1 38.5 443.1 40.1 Z M 442.3 40 C 442.3 38.8 441.5 38 440.4 38 C 439.3 38 438.4 38.8 438.4 40 C 438.4 41.3 439.3 42.1 440.4 42.1 C 441.5 42.1 442.3 41.3 442.3 40 Z M 447.1 37.4 C 447.1 37.4 447.1 38.1 447.1 38.1 C 447.1 38.1 447 38.1 447 38.1 C 445.9 38.1 445.2 38.8 445.2 40 C 445.21 40 445.2 42.7 445.2 42.7 L 444.5 42.7 L 444.5 37.4 L 445.2 37.4 C 445.2 37.4 445.18 38.45 445.2 38.4 C 445.5 37.7 446.2 37.4 447.1 37.4 Z M 447.8 40 C 447.8 38.5 448.9 37.4 450.4 37.4 C 452 37.4 453.1 38.5 453.1 40 C 453.1 41.6 452 42.7 450.4 42.7 C 448.9 42.7 447.8 41.6 447.8 40 Z M 452.4 40 C 452.4 38.8 451.6 38 450.4 38 C 449.3 38 448.5 38.8 448.5 40 C 448.5 41.3 449.3 42.1 450.4 42.1 C 451.6 42.1 452.4 41.3 452.4 40 Z M 454.1 40 C 454.1 38.5 455.3 37.4 456.8 37.4 C 457.7 37.4 458.5 37.7 458.9 38.4 C 458.9 38.4 458.4 38.8 458.4 38.8 C 458 38.2 457.4 38 456.8 38 C 455.7 38 454.8 38.8 454.8 40 C 454.8 41.3 455.7 42.1 456.8 42.1 C 457.4 42.1 458 41.9 458.4 41.3 C 458.4 41.3 458.9 41.7 458.9 41.7 C 458.5 42.4 457.7 42.7 456.8 42.7 C 455.3 42.7 454.1 41.6 454.1 40 Z M 464.8 40.3 C 464.8 40.3 460.4 40.3 460.4 40.3 C 460.5 41.4 461.3 42.1 462.5 42.1 C 463.1 42.1 463.7 41.9 464.1 41.4 C 464.1 41.4 464.5 41.9 464.5 41.9 C 464 42.4 463.3 42.7 462.5 42.7 C 460.8 42.7 459.7 41.6 459.7 40 C 459.7 38.5 460.8 37.4 462.3 37.4 C 463.7 37.4 464.8 38.5 464.8 40 C 464.8 40.1 464.8 40.2 464.8 40.3 Z M 460.4 39.7 C 460.4 39.7 464.1 39.7 464.1 39.7 C 464 38.7 463.3 38 462.3 38 C 461.2 38 460.5 38.7 460.4 39.7 Z M 465.6 42.1 C 465.6 42.1 465.9 41.5 465.9 41.5 C 466.4 41.9 467.1 42.1 467.8 42.1 C 468.8 42.1 469.2 41.8 469.2 41.3 C 469.2 39.9 465.8 41 465.8 38.9 C 465.8 38 466.5 37.4 467.9 37.4 C 468.6 37.4 469.3 37.6 469.7 37.9 C 469.7 37.9 469.4 38.4 469.4 38.4 C 469 38.1 468.4 38 467.9 38 C 466.9 38 466.5 38.4 466.5 38.9 C 466.5 40.3 469.9 39.2 469.9 41.2 C 469.9 42.1 469.1 42.7 467.8 42.7 C 466.9 42.7 466 42.4 465.6 42.1 Z M 470.7 42.1 C 470.7 42.1 471 41.5 471 41.5 C 471.4 41.9 472.1 42.1 472.9 42.1 C 473.9 42.1 474.3 41.8 474.3 41.3 C 474.3 39.9 470.9 41 470.9 38.9 C 470.9 38 471.6 37.4 472.9 37.4 C 473.6 37.4 474.4 37.6 474.8 37.9 C 474.8 37.9 474.5 38.4 474.5 38.4 C 474 38.1 473.5 38 472.9 38 C 472 38 471.6 38.4 471.6 38.9 C 471.6 40.3 475 39.2 475 41.2 C 475 42.1 474.2 42.7 472.8 42.7 C 471.9 42.7 471.1 42.4 470.7 42.1 Z " stroke="none" fill="#323132"/>
  </g>
  <g id="Polygon117313">
    <path d="M 6.8 15.7 L 6.8 8.7 C 6.8 8.7 10.01 8.68 10 8.7 C 10.8 8.7 11.4 8.8 12 9.1 C 12.6 9.4 13.1 9.8 13.4 10.3 C 13.7 10.8 13.9 11.5 13.9 12.2 C 13.9 12.9 13.7 13.5 13.4 14 C 13.1 14.5 12.6 15 12 15.2 C 11.4 15.5 10.8 15.7 10 15.7 C 10.01 15.68 6.8 15.7 6.8 15.7 Z M 8.5 14.3 C 8.5 14.3 9.93 14.35 9.9 14.3 C 10.4 14.3 10.8 14.3 11.1 14.1 C 11.5 13.9 11.8 13.7 11.9 13.3 C 12.1 13 12.2 12.6 12.2 12.2 C 12.2 11.7 12.1 11.3 11.9 11 C 11.8 10.7 11.5 10.5 11.1 10.3 C 10.8 10.1 10.4 10 9.9 10 C 9.93 10.01 8.5 10 8.5 10 L 8.5 14.3 Z M 15.1 15.7 L 15.1 10.3 L 16.6 10.3 L 16.6 15.7 L 15.1 15.7 Z M 15.9 9.5 C 15.6 9.5 15.3 9.5 15.2 9.3 C 15 9.1 14.9 8.9 14.9 8.7 C 14.9 8.4 15 8.2 15.2 8.1 C 15.3 7.9 15.6 7.8 15.9 7.8 C 16.1 7.8 16.4 7.9 16.6 8 C 16.7 8.2 16.8 8.4 16.8 8.6 C 16.8 8.9 16.7 9.1 16.6 9.3 C 16.4 9.5 16.1 9.5 15.9 9.5 Z M 20 15.8 C 19.5 15.8 19.1 15.7 18.6 15.6 C 18.2 15.5 17.9 15.3 17.6 15.2 C 17.6 15.2 18.2 14.1 18.2 14.1 C 18.4 14.2 18.7 14.3 19 14.4 C 19.4 14.5 19.7 14.6 20 14.6 C 20.4 14.6 20.6 14.5 20.8 14.4 C 20.9 14.4 21 14.2 21 14.1 C 21 14 21 13.9 20.8 13.8 C 20.7 13.7 20.6 13.7 20.4 13.7 C 20.2 13.6 20 13.6 19.7 13.6 C 19.5 13.5 19.3 13.5 19.1 13.4 C 18.8 13.4 18.6 13.3 18.4 13.2 C 18.2 13.1 18.1 12.9 17.9 12.7 C 17.8 12.5 17.8 12.3 17.8 12 C 17.8 11.6 17.9 11.3 18.1 11.1 C 18.3 10.8 18.6 10.6 18.9 10.4 C 19.3 10.3 19.7 10.2 20.3 10.2 C 20.6 10.2 21 10.3 21.4 10.3 C 21.8 10.4 22.1 10.5 22.3 10.7 C 22.3 10.7 21.8 11.8 21.8 11.8 C 21.6 11.6 21.3 11.5 21 11.5 C 20.8 11.4 20.5 11.4 20.3 11.4 C 19.9 11.4 19.7 11.4 19.5 11.5 C 19.3 11.6 19.3 11.8 19.3 11.9 C 19.3 12 19.3 12.1 19.4 12.2 C 19.6 12.3 19.7 12.3 19.9 12.4 C 20.1 12.4 20.3 12.4 20.5 12.5 C 20.8 12.5 21 12.5 21.2 12.6 C 21.5 12.7 21.7 12.7 21.9 12.9 C 22.1 13 22.2 13.1 22.3 13.3 C 22.5 13.5 22.5 13.7 22.5 14 C 22.5 14.4 22.4 14.7 22.2 14.9 C 22 15.2 21.7 15.4 21.3 15.5 C 21 15.7 20.5 15.8 20 15.8 Z M 26.7 15.8 C 26.3 15.8 25.9 15.7 25.5 15.5 C 25.2 15.3 24.9 15 24.7 14.5 C 24.6 14.1 24.5 13.6 24.5 13 C 24.5 12.4 24.5 11.8 24.7 11.4 C 24.9 11 25.2 10.7 25.5 10.5 C 25.8 10.3 26.3 10.2 26.7 10.2 C 27.2 10.2 27.7 10.3 28.1 10.6 C 28.5 10.8 28.8 11.1 29.1 11.5 C 29.3 11.9 29.4 12.4 29.4 13 C 29.4 13.6 29.3 14 29.1 14.5 C 28.8 14.9 28.5 15.2 28.1 15.4 C 27.7 15.6 27.2 15.8 26.7 15.8 Z M 23.5 17.6 L 23.5 10.3 L 25 10.3 L 25 11.4 L 25 13 L 25.1 14.6 L 25.1 17.6 L 23.5 17.6 Z M 26.5 14.5 C 26.7 14.5 26.9 14.4 27.2 14.3 C 27.4 14.2 27.5 14 27.6 13.8 C 27.8 13.6 27.8 13.3 27.8 13 C 27.8 12.7 27.8 12.4 27.6 12.2 C 27.5 12 27.4 11.8 27.2 11.7 C 26.9 11.6 26.7 11.5 26.5 11.5 C 26.2 11.5 26 11.6 25.8 11.7 C 25.6 11.8 25.4 12 25.3 12.2 C 25.1 12.4 25.1 12.7 25.1 13 C 25.1 13.3 25.1 13.6 25.3 13.8 C 25.4 14 25.6 14.2 25.8 14.3 C 26 14.4 26.2 14.5 26.5 14.5 Z M 30.5 15.7 L 30.5 8.3 L 32.1 8.3 L 32.1 15.7 L 30.5 15.7 Z M 36.8 15.7 L 36.8 14.6 L 36.7 14.4 C 36.7 14.4 36.72 12.52 36.7 12.5 C 36.7 12.2 36.6 11.9 36.4 11.7 C 36.2 11.6 35.9 11.5 35.5 11.5 C 35.2 11.5 34.9 11.5 34.6 11.6 C 34.4 11.7 34.1 11.8 33.9 12 C 33.9 12 33.4 10.9 33.4 10.9 C 33.7 10.7 34 10.5 34.4 10.4 C 34.8 10.3 35.3 10.2 35.7 10.2 C 36.5 10.2 37.1 10.4 37.6 10.8 C 38.1 11.2 38.3 11.8 38.3 12.6 C 38.28 12.61 38.3 15.7 38.3 15.7 L 36.8 15.7 Z M 35.2 15.8 C 34.8 15.8 34.4 15.7 34.1 15.5 C 33.8 15.4 33.6 15.2 33.4 15 C 33.3 14.7 33.2 14.4 33.2 14.1 C 33.2 13.8 33.2 13.5 33.4 13.3 C 33.6 13 33.8 12.9 34.2 12.7 C 34.5 12.6 34.9 12.5 35.5 12.5 C 35.48 12.52 36.9 12.5 36.9 12.5 L 36.9 13.4 C 36.9 13.4 35.65 13.43 35.7 13.4 C 35.3 13.4 35 13.5 34.9 13.6 C 34.8 13.7 34.7 13.9 34.7 14.1 C 34.7 14.3 34.8 14.4 34.9 14.5 C 35.1 14.7 35.3 14.7 35.6 14.7 C 35.8 14.7 36.1 14.6 36.3 14.5 C 36.5 14.4 36.6 14.2 36.7 14 C 36.7 14 37 14.7 37 14.7 C 36.8 15 36.6 15.3 36.3 15.5 C 36 15.7 35.7 15.8 35.2 15.8 Z M 40.2 17.7 C 39.9 17.7 39.6 17.7 39.4 17.6 C 39.1 17.5 38.9 17.4 38.7 17.2 C 38.7 17.2 39.3 16.1 39.3 16.1 C 39.4 16.2 39.5 16.3 39.7 16.3 C 39.8 16.4 40 16.4 40.1 16.4 C 40.4 16.4 40.5 16.4 40.7 16.3 C 40.8 16.2 40.9 16 41 15.8 C 41.02 15.77 41.3 15.1 41.3 15.1 L 41.4 14.9 L 43.4 10.3 L 44.9 10.3 C 44.9 10.3 42.42 16.01 42.4 16 C 42.3 16.4 42.1 16.8 41.8 17 C 41.6 17.3 41.4 17.4 41.1 17.5 C 40.8 17.6 40.5 17.7 40.2 17.7 Z M 41.1 15.9 L 38.7 10.3 L 40.3 10.3 L 42.2 14.8 L 41.1 15.9 Z " stroke="none" fill="#323132"/>
  </g>
</svg>