<?xml version="1.0" standalone="no"?>
<!DOCTYPE svg PUBLIC "-//W3C//DTD SVG 1.1//EN" "http://www.w3.org/Graphics/SVG/1.1/DTD/svg11.dtd">
<svg xmlns="http://www.w3.org/2000/svg" version="1.1" width="485px" height="83px" viewBox="0 0 485 83">
  <desc>Human components of work systems</desc>
  <defs/>
  <g id="Polygon117199">
    <path d="M 37.3 31.4 L 40.5 31.4 L 40.5 45.4 L 37.3 45.4 L 37.3 31.4 Z M 30.9 45.4 L 27.7 45.4 L 27.7 31.4 L 30.9 31.4 L 30.9 45.4 Z M 37.5 39.6 L 30.7 39.6 L 30.7 36.9 L 37.5 36.9 L 37.5 39.6 Z M 48 45.5 C 47.1 45.5 46.3 45.3 45.6 45 C 44.9 44.7 44.4 44.1 44 43.4 C 43.6 42.7 43.4 41.8 43.4 40.7 C 43.4 40.68 43.4 34.6 43.4 34.6 L 46.5 34.6 C 46.5 34.6 46.52 40.22 46.5 40.2 C 46.5 41.1 46.7 41.8 47.1 42.2 C 47.5 42.6 48 42.8 48.7 42.8 C 49.2 42.8 49.6 42.7 50 42.5 C 50.4 42.3 50.6 42 50.9 41.5 C 51.1 41.1 51.2 40.6 51.2 39.9 C 51.18 39.92 51.2 34.6 51.2 34.6 L 54.3 34.6 L 54.3 45.4 L 51.3 45.4 L 51.3 42.4 C 51.3 42.4 51.88 43.26 51.9 43.3 C 51.5 44 51 44.6 50.3 44.9 C 49.6 45.3 48.8 45.5 48 45.5 Z M 70.7 34.4 C 71.6 34.4 72.4 34.6 73 34.9 C 73.7 35.3 74.2 35.8 74.6 36.5 C 75 37.2 75.1 38.1 75.1 39.2 C 75.15 39.2 75.1 45.4 75.1 45.4 L 72 45.4 C 72 45.4 72.03 39.68 72 39.7 C 72 38.8 71.8 38.2 71.5 37.8 C 71.1 37.3 70.6 37.1 70 37.1 C 69.5 37.1 69.1 37.2 68.7 37.4 C 68.4 37.7 68.1 38 67.9 38.4 C 67.7 38.8 67.6 39.3 67.6 40 C 67.61 39.96 67.6 45.4 67.6 45.4 L 64.5 45.4 C 64.5 45.4 64.49 39.68 64.5 39.7 C 64.5 38.8 64.3 38.2 64 37.8 C 63.6 37.3 63.1 37.1 62.4 37.1 C 62 37.1 61.6 37.2 61.2 37.4 C 60.9 37.7 60.6 38 60.4 38.4 C 60.2 38.8 60.1 39.3 60.1 40 C 60.09 39.96 60.1 45.4 60.1 45.4 L 57 45.4 L 57 34.6 L 59.9 34.6 L 59.9 37.5 C 59.9 37.5 59.39 36.68 59.4 36.7 C 59.8 35.9 60.3 35.4 61 35 C 61.7 34.6 62.4 34.4 63.3 34.4 C 64.3 34.4 65.2 34.7 65.9 35.2 C 66.7 35.7 67.1 36.5 67.4 37.5 C 67.4 37.5 66.3 37.2 66.3 37.2 C 66.6 36.3 67.2 35.7 68 35.2 C 68.8 34.7 69.7 34.4 70.7 34.4 Z M 84.3 45.4 L 84.3 43.3 L 84.1 42.8 C 84.1 42.8 84.13 39.04 84.1 39 C 84.1 38.4 83.9 37.9 83.5 37.5 C 83.1 37.1 82.5 36.9 81.6 36.9 C 81.1 36.9 80.5 37 80 37.2 C 79.4 37.4 78.9 37.6 78.5 37.9 C 78.5 37.9 77.4 35.7 77.4 35.7 C 78 35.3 78.7 35 79.5 34.8 C 80.4 34.6 81.2 34.4 82.1 34.4 C 83.7 34.4 85 34.8 85.9 35.6 C 86.8 36.4 87.2 37.6 87.2 39.2 C 87.25 39.22 87.2 45.4 87.2 45.4 L 84.3 45.4 Z M 81 45.5 C 80.2 45.5 79.5 45.4 78.9 45.1 C 78.3 44.8 77.8 44.4 77.5 43.9 C 77.2 43.4 77 42.9 77 42.3 C 77 41.6 77.2 41.1 77.5 40.6 C 77.8 40.1 78.3 39.7 79 39.4 C 79.7 39.2 80.6 39 81.6 39 C 81.65 39.04 84.5 39 84.5 39 L 84.5 40.9 C 84.5 40.9 81.99 40.86 82 40.9 C 81.3 40.9 80.8 41 80.5 41.2 C 80.2 41.5 80.1 41.8 80.1 42.1 C 80.1 42.5 80.2 42.8 80.5 43.1 C 80.9 43.3 81.3 43.4 81.8 43.4 C 82.3 43.4 82.8 43.3 83.2 43 C 83.6 42.8 83.9 42.4 84.1 42 C 84.1 42 84.6 43.4 84.6 43.4 C 84.4 44.1 84 44.6 83.4 45 C 82.8 45.3 82 45.5 81 45.5 Z M 96.4 34.4 C 97.2 34.4 98 34.6 98.7 34.9 C 99.4 35.3 99.9 35.8 100.3 36.5 C 100.7 37.2 100.8 38.1 100.8 39.2 C 100.85 39.2 100.8 45.4 100.8 45.4 L 97.7 45.4 C 97.7 45.4 97.73 39.68 97.7 39.7 C 97.7 38.8 97.5 38.2 97.2 37.8 C 96.8 37.3 96.2 37.1 95.5 37.1 C 95.1 37.1 94.6 37.2 94.2 37.4 C 93.8 37.7 93.5 38 93.3 38.4 C 93.1 38.8 93 39.4 93 40 C 92.97 40.04 93 45.4 93 45.4 L 89.8 45.4 L 89.8 34.6 L 92.8 34.6 L 92.8 37.6 C 92.8 37.6 92.27 36.68 92.3 36.7 C 92.7 36 93.2 35.4 93.9 35 C 94.6 34.6 95.5 34.4 96.4 34.4 Z M 114.5 45.5 C 113.4 45.5 112.3 45.3 111.4 44.8 C 110.5 44.3 109.8 43.7 109.3 42.8 C 108.8 42 108.5 41 108.5 40 C 108.5 38.9 108.8 37.9 109.3 37.1 C 109.8 36.3 110.5 35.6 111.4 35.1 C 112.3 34.7 113.4 34.4 114.5 34.4 C 115.7 34.4 116.6 34.7 117.5 35.1 C 118.3 35.6 118.9 36.3 119.3 37.2 C 119.3 37.2 116.9 38.5 116.9 38.5 C 116.6 38 116.3 37.6 115.9 37.4 C 115.5 37.1 115 37 114.5 37 C 114 37 113.5 37.1 113.1 37.4 C 112.6 37.6 112.3 37.9 112.1 38.4 C 111.8 38.8 111.7 39.4 111.7 40 C 111.7 40.6 111.8 41.1 112.1 41.6 C 112.3 42 112.6 42.4 113.1 42.6 C 113.5 42.8 114 43 114.5 43 C 115 43 115.5 42.8 115.9 42.6 C 116.3 42.4 116.6 42 116.9 41.5 C 116.9 41.5 119.3 42.8 119.3 42.8 C 118.9 43.7 118.3 44.3 117.5 44.8 C 116.6 45.3 115.7 45.5 114.5 45.5 Z M 126.1 45.5 C 125 45.5 123.9 45.3 123 44.8 C 122.2 44.3 121.5 43.7 120.9 42.8 C 120.4 42 120.2 41 120.2 40 C 120.2 38.9 120.4 37.9 120.9 37.1 C 121.5 36.3 122.2 35.6 123 35.1 C 123.9 34.7 125 34.4 126.1 34.4 C 127.2 34.4 128.2 34.7 129.1 35.1 C 130 35.6 130.7 36.3 131.2 37.1 C 131.7 37.9 132 38.9 132 40 C 132 41 131.7 42 131.2 42.8 C 130.7 43.7 130 44.3 129.1 44.8 C 128.2 45.3 127.2 45.5 126.1 45.5 Z M 126.1 43 C 126.6 43 127.1 42.8 127.5 42.6 C 127.9 42.4 128.2 42 128.5 41.6 C 128.7 41.1 128.8 40.6 128.8 40 C 128.8 39.4 128.7 38.8 128.5 38.4 C 128.2 37.9 127.9 37.6 127.5 37.4 C 127.1 37.1 126.6 37 126.1 37 C 125.6 37 125.1 37.1 124.7 37.4 C 124.3 37.6 124 37.9 123.7 38.4 C 123.5 38.8 123.3 39.4 123.3 40 C 123.3 40.6 123.5 41.1 123.7 41.6 C 124 42 124.3 42.4 124.7 42.6 C 125.1 42.8 125.6 43 126.1 43 Z M 147.7 34.4 C 148.6 34.4 149.3 34.6 150 34.9 C 150.6 35.3 151.2 35.8 151.5 36.5 C 151.9 37.2 152.1 38.1 152.1 39.2 C 152.12 39.2 152.1 45.4 152.1 45.4 L 149 45.4 C 149 45.4 149 39.68 149 39.7 C 149 38.8 148.8 38.2 148.5 37.8 C 148.1 37.3 147.6 37.1 146.9 37.1 C 146.5 37.1 146.1 37.2 145.7 37.4 C 145.4 37.7 145.1 38 144.9 38.4 C 144.7 38.8 144.6 39.3 144.6 40 C 144.58 39.96 144.6 45.4 144.6 45.4 L 141.5 45.4 C 141.5 45.4 141.46 39.68 141.5 39.7 C 141.5 38.8 141.3 38.2 140.9 37.8 C 140.6 37.3 140.1 37.1 139.4 37.1 C 139 37.1 138.6 37.2 138.2 37.4 C 137.8 37.7 137.6 38 137.4 38.4 C 137.2 38.8 137.1 39.3 137.1 40 C 137.06 39.96 137.1 45.4 137.1 45.4 L 133.9 45.4 L 133.9 34.6 L 136.9 34.6 L 136.9 37.5 C 136.9 37.5 136.36 36.68 136.4 36.7 C 136.7 35.9 137.3 35.4 137.9 35 C 138.6 34.6 139.4 34.4 140.3 34.4 C 141.3 34.4 142.1 34.7 142.9 35.2 C 143.6 35.7 144.1 36.5 144.4 37.5 C 144.4 37.5 143.3 37.2 143.3 37.2 C 143.6 36.3 144.2 35.7 145 35.2 C 145.8 34.7 146.7 34.4 147.7 34.4 Z M 161.1 45.5 C 160.2 45.5 159.4 45.3 158.7 44.9 C 158 44.5 157.5 43.9 157.1 43.1 C 156.7 42.3 156.5 41.2 156.5 40 C 156.5 38.7 156.7 37.7 157.1 36.9 C 157.4 36 157.9 35.4 158.6 35 C 159.3 34.6 160.1 34.4 161.1 34.4 C 162.1 34.4 163 34.7 163.8 35.1 C 164.6 35.6 165.2 36.2 165.7 37.1 C 166.2 37.9 166.4 38.9 166.4 40 C 166.4 41.1 166.2 42.1 165.7 42.9 C 165.2 43.7 164.6 44.4 163.8 44.8 C 163 45.3 162.1 45.5 161.1 45.5 Z M 154.7 49.2 L 154.7 34.6 L 157.7 34.6 L 157.7 36.8 L 157.6 40 L 157.8 43.2 L 157.8 49.2 L 154.7 49.2 Z M 160.5 43 C 161 43 161.5 42.8 161.9 42.6 C 162.3 42.4 162.6 42 162.9 41.6 C 163.1 41.1 163.3 40.6 163.3 40 C 163.3 39.4 163.1 38.8 162.9 38.4 C 162.6 37.9 162.3 37.6 161.9 37.4 C 161.5 37.1 161 37 160.5 37 C 160 37 159.5 37.1 159.1 37.4 C 158.7 37.6 158.4 37.9 158.1 38.4 C 157.9 38.8 157.8 39.4 157.8 40 C 157.8 40.6 157.9 41.1 158.1 41.6 C 158.4 42 158.7 42.4 159.1 42.6 C 159.5 42.8 160 43 160.5 43 Z M 173.6 45.5 C 172.4 45.5 171.4 45.3 170.5 44.8 C 169.7 44.3 169 43.7 168.4 42.8 C 167.9 42 167.7 41 167.7 40 C 167.7 38.9 167.9 37.9 168.4 37.1 C 169 36.3 169.7 35.6 170.5 35.1 C 171.4 34.7 172.4 34.4 173.6 34.4 C 174.7 34.4 175.7 34.7 176.6 35.1 C 177.5 35.6 178.2 36.3 178.7 37.1 C 179.2 37.9 179.5 38.9 179.5 40 C 179.5 41 179.2 42 178.7 42.8 C 178.2 43.7 177.5 44.3 176.6 44.8 C 175.7 45.3 174.7 45.5 173.6 45.5 Z M 173.6 43 C 174.1 43 174.6 42.8 175 42.6 C 175.4 42.4 175.7 42 176 41.6 C 176.2 41.1 176.3 40.6 176.3 40 C 176.3 39.4 176.2 38.8 176 38.4 C 175.7 37.9 175.4 37.6 175 37.4 C 174.6 37.1 174.1 37 173.6 37 C 173.1 37 172.6 37.1 172.2 37.4 C 171.8 37.6 171.4 37.9 171.2 38.4 C 171 38.8 170.8 39.4 170.8 40 C 170.8 40.6 171 41.1 171.2 41.6 C 171.4 42 171.8 42.4 172.2 42.6 C 172.6 42.8 173.1 43 173.6 43 Z M 188 34.4 C 188.8 34.4 189.6 34.6 190.3 34.9 C 190.9 35.3 191.5 35.8 191.8 36.5 C 192.2 37.2 192.4 38.1 192.4 39.2 C 192.42 39.2 192.4 45.4 192.4 45.4 L 189.3 45.4 C 189.3 45.4 189.3 39.68 189.3 39.7 C 189.3 38.8 189.1 38.2 188.7 37.8 C 188.4 37.3 187.8 37.1 187.1 37.1 C 186.6 37.1 186.2 37.2 185.8 37.4 C 185.4 37.7 185.1 38 184.9 38.4 C 184.7 38.8 184.5 39.4 184.5 40 C 184.54 40.04 184.5 45.4 184.5 45.4 L 181.4 45.4 L 181.4 34.6 L 184.4 34.6 L 184.4 37.6 C 184.4 37.6 183.84 36.68 183.8 36.7 C 184.2 36 184.8 35.4 185.5 35 C 186.2 34.6 187 34.4 188 34.4 Z M 200.4 45.5 C 199.2 45.5 198.1 45.3 197.2 44.8 C 196.2 44.3 195.5 43.7 195 42.8 C 194.5 42 194.3 41 194.3 40 C 194.3 38.9 194.5 37.9 195 37.1 C 195.5 36.3 196.2 35.6 197.1 35.1 C 197.9 34.7 198.9 34.4 200 34.4 C 201.1 34.4 202 34.7 202.9 35.1 C 203.7 35.6 204.4 36.2 204.9 37 C 205.4 37.9 205.6 38.9 205.6 40 C 205.6 40.1 205.6 40.3 205.6 40.4 C 205.6 40.6 205.6 40.7 205.5 40.9 C 205.54 40.86 196.8 40.9 196.8 40.9 L 196.8 39 L 203.9 39 C 203.9 39 202.7 39.58 202.7 39.6 C 202.7 39 202.6 38.5 202.4 38.1 C 202.1 37.7 201.8 37.4 201.4 37.1 C 201 36.9 200.6 36.8 200 36.8 C 199.5 36.8 199 36.9 198.6 37.1 C 198.2 37.4 197.9 37.7 197.7 38.1 C 197.4 38.5 197.3 39 197.3 39.6 C 197.3 39.6 197.3 40.1 197.3 40.1 C 197.3 40.7 197.5 41.2 197.7 41.6 C 198 42.1 198.3 42.4 198.8 42.7 C 199.3 42.9 199.8 43 200.5 43 C 201.1 43 201.6 42.9 202 42.8 C 202.4 42.6 202.8 42.3 203.2 42 C 203.2 42 204.8 43.8 204.8 43.8 C 204.3 44.3 203.7 44.8 203 45.1 C 202.2 45.4 201.4 45.5 200.4 45.5 Z M 214.1 34.4 C 214.9 34.4 215.7 34.6 216.3 34.9 C 217 35.3 217.5 35.8 217.9 36.5 C 218.3 37.2 218.5 38.1 218.5 39.2 C 218.51 39.2 218.5 45.4 218.5 45.4 L 215.4 45.4 C 215.4 45.4 215.39 39.68 215.4 39.7 C 215.4 38.8 215.2 38.2 214.8 37.8 C 214.4 37.3 213.9 37.1 213.2 37.1 C 212.7 37.1 212.3 37.2 211.9 37.4 C 211.5 37.7 211.2 38 211 38.4 C 210.7 38.8 210.6 39.4 210.6 40 C 210.63 40.04 210.6 45.4 210.6 45.4 L 207.5 45.4 L 207.5 34.6 L 210.5 34.6 L 210.5 37.6 C 210.5 37.6 209.93 36.68 209.9 36.7 C 210.3 36 210.9 35.4 211.6 35 C 212.3 34.6 213.1 34.4 214.1 34.4 Z M 225.5 45.5 C 224.2 45.5 223.2 45.2 222.5 44.5 C 221.8 43.9 221.5 42.9 221.5 41.7 C 221.45 41.66 221.5 32.2 221.5 32.2 L 224.6 32.2 C 224.6 32.2 224.57 41.62 224.6 41.6 C 224.6 42.1 224.7 42.4 224.9 42.7 C 225.2 42.9 225.5 43 225.9 43 C 226.4 43 226.8 42.9 227.2 42.6 C 227.2 42.6 228 44.8 228 44.8 C 227.7 45.1 227.3 45.2 226.9 45.3 C 226.4 45.5 226 45.5 225.5 45.5 Z M 219.8 37.2 L 219.8 34.8 L 227.3 34.8 L 227.3 37.2 L 219.8 37.2 Z M 233.6 45.5 C 232.7 45.5 231.8 45.4 231 45.2 C 230.1 45 229.5 44.7 229 44.4 C 229 44.4 230 42.1 230 42.1 C 230.5 42.4 231.1 42.7 231.8 42.9 C 232.4 43.1 233.1 43.2 233.7 43.2 C 234.5 43.2 235 43.1 235.3 42.9 C 235.6 42.7 235.7 42.5 235.7 42.2 C 235.7 41.9 235.6 41.7 235.4 41.6 C 235.1 41.5 234.8 41.4 234.4 41.3 C 234.1 41.3 233.6 41.2 233.2 41.1 C 232.7 41.1 232.2 41 231.8 40.8 C 231.3 40.7 230.9 40.6 230.5 40.3 C 230.1 40.1 229.8 39.8 229.6 39.4 C 229.3 39 229.2 38.5 229.2 37.9 C 229.2 37.2 229.4 36.6 229.8 36.1 C 230.2 35.6 230.8 35.2 231.5 34.9 C 232.3 34.6 233.2 34.4 234.2 34.4 C 234.9 34.4 235.7 34.5 236.4 34.7 C 237.2 34.8 237.8 35.1 238.3 35.4 C 238.3 35.4 237.3 37.6 237.3 37.6 C 236.8 37.3 236.3 37.1 235.7 37 C 235.2 36.9 234.7 36.8 234.2 36.8 C 233.5 36.8 233 36.9 232.7 37.1 C 232.4 37.3 232.2 37.5 232.2 37.8 C 232.2 38.1 232.3 38.3 232.6 38.4 C 232.8 38.5 233.1 38.6 233.5 38.7 C 233.9 38.8 234.3 38.9 234.8 38.9 C 235.2 39 235.7 39.1 236.1 39.2 C 236.6 39.3 237 39.5 237.4 39.7 C 237.8 39.9 238.1 40.2 238.3 40.6 C 238.6 41 238.7 41.5 238.7 42.1 C 238.7 42.8 238.5 43.4 238.1 43.9 C 237.7 44.4 237.1 44.8 236.4 45.1 C 235.6 45.4 234.7 45.5 233.6 45.5 Z M 251.4 45.5 C 250.3 45.5 249.2 45.3 248.3 44.8 C 247.5 44.3 246.8 43.7 246.2 42.8 C 245.7 42 245.5 41 245.5 40 C 245.5 38.9 245.7 37.9 246.2 37.1 C 246.8 36.3 247.5 35.6 248.3 35.1 C 249.2 34.7 250.3 34.4 251.4 34.4 C 252.5 34.4 253.5 34.7 254.4 35.1 C 255.3 35.6 256 36.3 256.5 37.1 C 257 37.9 257.3 38.9 257.3 40 C 257.3 41 257 42 256.5 42.8 C 256 43.7 255.3 44.3 254.4 44.8 C 253.5 45.3 252.5 45.5 251.4 45.5 Z M 251.4 43 C 251.9 43 252.4 42.8 252.8 42.6 C 253.2 42.4 253.5 42 253.8 41.6 C 254 41.1 254.1 40.6 254.1 40 C 254.1 39.4 254 38.8 253.8 38.4 C 253.5 37.9 253.2 37.6 252.8 37.4 C 252.4 37.1 251.9 37 251.4 37 C 250.9 37 250.4 37.1 250 37.4 C 249.6 37.6 249.3 37.9 249 38.4 C 248.8 38.8 248.6 39.4 248.6 40 C 248.6 40.6 248.8 41.1 249 41.6 C 249.3 42 249.6 42.4 250 42.6 C 250.4 42.8 250.9 43 251.4 43 Z M 259.7 45.4 C 259.7 45.4 259.7 34.36 259.7 34.4 C 259.7 33.1 260.1 32.2 260.8 31.4 C 261.5 30.7 262.5 30.4 263.9 30.4 C 264.3 30.4 264.8 30.4 265.2 30.5 C 265.6 30.6 266 30.7 266.2 30.9 C 266.2 30.9 265.4 33.2 265.4 33.2 C 265.3 33.1 265.1 33 264.8 32.9 C 264.6 32.9 264.4 32.8 264.2 32.8 C 263.7 32.8 263.4 32.9 263.1 33.2 C 262.9 33.5 262.7 33.9 262.7 34.4 C 262.74 34.38 262.7 35.4 262.7 35.4 L 262.8 36.7 L 262.8 45.4 L 259.7 45.4 Z M 258 37.2 L 258 34.8 L 265.5 34.8 L 265.5 37.2 L 258 37.2 Z M 275.2 45.4 L 271.3 34.6 L 274.2 34.6 L 277.5 43.9 L 276.1 43.9 L 279.4 34.6 L 282.1 34.6 L 285.3 43.9 L 283.9 43.9 L 287.2 34.6 L 290 34.6 L 286.1 45.4 L 283.1 45.4 L 280.2 37.4 L 281.1 37.4 L 278.2 45.4 L 275.2 45.4 Z M 296.1 45.5 C 295 45.5 294 45.3 293.1 44.8 C 292.2 44.3 291.5 43.7 291 42.8 C 290.5 42 290.2 41 290.2 40 C 290.2 38.9 290.5 37.9 291 37.1 C 291.5 36.3 292.2 35.6 293.1 35.1 C 294 34.7 295 34.4 296.1 34.4 C 297.3 34.4 298.3 34.7 299.2 35.1 C 300.1 35.6 300.8 36.3 301.3 37.1 C 301.8 37.9 302 38.9 302 40 C 302 41 301.8 42 301.3 42.8 C 300.8 43.7 300.1 44.3 299.2 44.8 C 298.3 45.3 297.3 45.5 296.1 45.5 Z M 296.1 43 C 296.7 43 297.1 42.8 297.5 42.6 C 298 42.4 298.3 42 298.5 41.6 C 298.8 41.1 298.9 40.6 298.9 40 C 298.9 39.4 298.8 38.8 298.5 38.4 C 298.3 37.9 298 37.6 297.5 37.4 C 297.1 37.1 296.7 37 296.1 37 C 295.6 37 295.2 37.1 294.7 37.4 C 294.3 37.6 294 37.9 293.8 38.4 C 293.5 38.8 293.4 39.4 293.4 40 C 293.4 40.6 293.5 41.1 293.8 41.6 C 294 42 294.3 42.4 294.7 42.6 C 295.2 42.8 295.6 43 296.1 43 Z M 304 45.4 L 304 34.6 L 307 34.6 L 307 37.6 C 307 37.6 306.54 36.76 306.5 36.8 C 306.9 36 307.4 35.4 308.1 35 C 308.8 34.6 309.6 34.4 310.7 34.4 C 310.7 34.4 310.7 37.3 310.7 37.3 C 310.5 37.3 310.4 37.3 310.3 37.3 C 310.2 37.3 310.1 37.3 310 37.3 C 309.1 37.3 308.4 37.5 307.9 38 C 307.4 38.5 307.1 39.3 307.1 40.3 C 307.1 40.28 307.1 45.4 307.1 45.4 L 304 45.4 Z M 314.8 43.2 L 314.9 39.4 L 319.9 34.6 L 323.6 34.6 L 318.8 39.5 L 317.2 40.8 L 314.8 43.2 Z M 312.2 45.4 L 312.2 30.5 L 315.3 30.5 L 315.3 45.4 L 312.2 45.4 Z M 320.2 45.4 L 316.6 40.8 L 318.6 38.4 L 324 45.4 L 320.2 45.4 Z M 334.7 45.5 C 333.8 45.5 332.9 45.4 332.1 45.2 C 331.2 45 330.5 44.7 330 44.4 C 330 44.4 331.1 42.1 331.1 42.1 C 331.6 42.4 332.2 42.7 332.8 42.9 C 333.5 43.1 334.2 43.2 334.8 43.2 C 335.5 43.2 336.1 43.1 336.4 42.9 C 336.7 42.7 336.8 42.5 336.8 42.2 C 336.8 41.9 336.7 41.7 336.5 41.6 C 336.2 41.5 335.9 41.4 335.5 41.3 C 335.1 41.3 334.7 41.2 334.3 41.1 C 333.8 41.1 333.3 41 332.9 40.8 C 332.4 40.7 332 40.6 331.6 40.3 C 331.2 40.1 330.9 39.8 330.7 39.4 C 330.4 39 330.3 38.5 330.3 37.9 C 330.3 37.2 330.5 36.6 330.9 36.1 C 331.3 35.6 331.9 35.2 332.6 34.9 C 333.4 34.6 334.2 34.4 335.3 34.4 C 336 34.4 336.8 34.5 337.5 34.7 C 338.3 34.8 338.9 35.1 339.4 35.4 C 339.4 35.4 338.4 37.6 338.4 37.6 C 337.9 37.3 337.3 37.1 336.8 37 C 336.3 36.9 335.8 36.8 335.3 36.8 C 334.6 36.8 334.1 36.9 333.8 37.1 C 333.4 37.3 333.3 37.5 333.3 37.8 C 333.3 38.1 333.4 38.3 333.6 38.4 C 333.9 38.5 334.2 38.6 334.6 38.7 C 335 38.8 335.4 38.9 335.8 38.9 C 336.3 39 336.8 39.1 337.2 39.2 C 337.7 39.3 338.1 39.5 338.5 39.7 C 338.9 39.9 339.2 40.2 339.4 40.6 C 339.7 41 339.8 41.5 339.8 42.1 C 339.8 42.8 339.6 43.4 339.2 43.9 C 338.8 44.4 338.2 44.8 337.5 45.1 C 336.7 45.4 335.8 45.5 334.7 45.5 Z M 343.2 49.4 C 342.7 49.4 342.1 49.3 341.6 49.1 C 341 49 340.6 48.7 340.2 48.4 C 340.2 48.4 341.4 46.2 341.4 46.2 C 341.6 46.4 341.9 46.6 342.2 46.7 C 342.5 46.8 342.8 46.9 343.1 46.9 C 343.6 46.9 343.9 46.8 344.2 46.6 C 344.5 46.4 344.7 46 344.9 45.5 C 344.9 45.54 345.5 44.2 345.5 44.2 L 345.7 43.9 L 349.6 34.6 L 352.6 34.6 C 352.6 34.6 347.7 46.02 347.7 46 C 347.4 46.9 347 47.6 346.5 48.1 C 346.1 48.6 345.6 48.9 345 49.1 C 344.5 49.3 343.9 49.4 343.2 49.4 Z M 345.1 45.8 L 340.3 34.6 L 343.5 34.6 L 347.2 43.6 L 345.1 45.8 Z M 357.3 45.5 C 356.4 45.5 355.5 45.4 354.7 45.2 C 353.8 45 353.2 44.7 352.7 44.4 C 352.7 44.4 353.7 42.1 353.7 42.1 C 354.2 42.4 354.8 42.7 355.5 42.9 C 356.1 43.1 356.8 43.2 357.4 43.2 C 358.2 43.2 358.7 43.1 359 42.9 C 359.3 42.7 359.4 42.5 359.4 42.2 C 359.4 41.9 359.3 41.7 359.1 41.6 C 358.8 41.5 358.5 41.4 358.1 41.3 C 357.8 41.3 357.3 41.2 356.9 41.1 C 356.4 41.1 356 41 355.5 40.8 C 355 40.7 354.6 40.6 354.2 40.3 C 353.8 40.1 353.5 39.8 353.3 39.4 C 353 39 352.9 38.5 352.9 37.9 C 352.9 37.2 353.1 36.6 353.5 36.1 C 353.9 35.6 354.5 35.2 355.2 34.9 C 356 34.6 356.9 34.4 357.9 34.4 C 358.6 34.4 359.4 34.5 360.1 34.7 C 360.9 34.8 361.5 35.1 362 35.4 C 362 35.4 361 37.6 361 37.6 C 360.5 37.3 360 37.1 359.4 37 C 358.9 36.9 358.4 36.8 357.9 36.8 C 357.2 36.8 356.7 36.9 356.4 37.1 C 356.1 37.3 355.9 37.5 355.9 37.8 C 355.9 38.1 356 38.3 356.3 38.4 C 356.5 38.5 356.8 38.6 357.2 38.7 C 357.6 38.8 358 38.9 358.5 38.9 C 358.9 39 359.4 39.1 359.8 39.2 C 360.3 39.3 360.7 39.5 361.1 39.7 C 361.5 39.9 361.8 40.2 362 40.6 C 362.3 41 362.4 41.5 362.4 42.1 C 362.4 42.8 362.2 43.4 361.8 43.9 C 361.4 44.4 360.8 44.8 360.1 45.1 C 359.3 45.4 358.4 45.5 357.3 45.5 Z M 368.8 45.5 C 367.6 45.5 366.6 45.2 365.9 44.5 C 365.2 43.9 364.8 42.9 364.8 41.7 C 364.82 41.66 364.8 32.2 364.8 32.2 L 367.9 32.2 C 367.9 32.2 367.94 41.62 367.9 41.6 C 367.9 42.1 368.1 42.4 368.3 42.7 C 368.5 42.9 368.9 43 369.3 43 C 369.8 43 370.2 42.9 370.5 42.6 C 370.5 42.6 371.4 44.8 371.4 44.8 C 371.1 45.1 370.7 45.2 370.2 45.3 C 369.8 45.5 369.3 45.5 368.8 45.5 Z M 363.2 37.2 L 363.2 34.8 L 370.6 34.8 L 370.6 37.2 L 363.2 37.2 Z M 378.2 45.5 C 377 45.5 375.9 45.3 375 44.8 C 374 44.3 373.3 43.7 372.8 42.8 C 372.3 42 372.1 41 372.1 40 C 372.1 38.9 372.3 37.9 372.8 37.1 C 373.3 36.3 374 35.6 374.9 35.1 C 375.7 34.7 376.7 34.4 377.8 34.4 C 378.8 34.4 379.8 34.7 380.6 35.1 C 381.5 35.6 382.2 36.2 382.7 37 C 383.1 37.9 383.4 38.9 383.4 40 C 383.4 40.1 383.4 40.3 383.4 40.4 C 383.4 40.6 383.3 40.7 383.3 40.9 C 383.34 40.86 374.6 40.9 374.6 40.9 L 374.6 39 L 381.7 39 C 381.7 39 380.5 39.58 380.5 39.6 C 380.5 39 380.4 38.5 380.2 38.1 C 379.9 37.7 379.6 37.4 379.2 37.1 C 378.8 36.9 378.3 36.8 377.8 36.8 C 377.3 36.8 376.8 36.9 376.4 37.1 C 376 37.4 375.7 37.7 375.5 38.1 C 375.2 38.5 375.1 39 375.1 39.6 C 375.1 39.6 375.1 40.1 375.1 40.1 C 375.1 40.7 375.2 41.2 375.5 41.6 C 375.8 42.1 376.1 42.4 376.6 42.7 C 377.1 42.9 377.6 43 378.3 43 C 378.8 43 379.4 42.9 379.8 42.8 C 380.2 42.6 380.6 42.3 381 42 C 381 42 382.6 43.8 382.6 43.8 C 382.1 44.3 381.5 44.8 380.8 45.1 C 380 45.4 379.2 45.5 378.2 45.5 Z M 399.1 34.4 C 399.9 34.4 400.7 34.6 401.4 34.9 C 402 35.3 402.5 35.8 402.9 36.5 C 403.3 37.2 403.5 38.1 403.5 39.2 C 403.48 39.2 403.5 45.4 403.5 45.4 L 400.4 45.4 C 400.4 45.4 400.36 39.68 400.4 39.7 C 400.4 38.8 400.2 38.2 399.8 37.8 C 399.5 37.3 399 37.1 398.3 37.1 C 397.9 37.1 397.4 37.2 397.1 37.4 C 396.7 37.7 396.4 38 396.2 38.4 C 396 38.8 395.9 39.3 395.9 40 C 395.94 39.96 395.9 45.4 395.9 45.4 L 392.8 45.4 C 392.8 45.4 392.82 39.68 392.8 39.7 C 392.8 38.8 392.6 38.2 392.3 37.8 C 391.9 37.3 391.4 37.1 390.8 37.1 C 390.3 37.1 389.9 37.2 389.6 37.4 C 389.2 37.7 388.9 38 388.7 38.4 C 388.5 38.8 388.4 39.3 388.4 40 C 388.42 39.96 388.4 45.4 388.4 45.4 L 385.3 45.4 L 385.3 34.6 L 388.3 34.6 L 388.3 37.5 C 388.3 37.5 387.72 36.68 387.7 36.7 C 388.1 35.9 388.6 35.4 389.3 35 C 390 34.6 390.8 34.4 391.7 34.4 C 392.7 34.4 393.5 34.7 394.3 35.2 C 395 35.7 395.5 36.5 395.7 37.5 C 395.7 37.5 394.6 37.2 394.6 37.2 C 395 36.3 395.6 35.7 396.4 35.2 C 397.1 34.7 398.1 34.4 399.1 34.4 Z M 409.9 45.5 C 408.9 45.5 408.1 45.4 407.2 45.2 C 406.4 45 405.7 44.7 405.2 44.4 C 405.2 44.4 406.2 42.1 406.2 42.1 C 406.7 42.4 407.3 42.7 408 42.9 C 408.7 43.1 409.3 43.2 410 43.2 C 410.7 43.2 411.2 43.1 411.5 42.9 C 411.8 42.7 412 42.5 412 42.2 C 412 41.9 411.8 41.7 411.6 41.6 C 411.4 41.5 411.1 41.4 410.7 41.3 C 410.3 41.3 409.9 41.2 409.4 41.1 C 408.9 41.1 408.5 41 408 40.8 C 407.5 40.7 407.1 40.6 406.7 40.3 C 406.3 40.1 406 39.8 405.8 39.4 C 405.6 39 405.5 38.5 405.5 37.9 C 405.5 37.2 405.7 36.6 406 36.1 C 406.4 35.6 407 35.2 407.8 34.9 C 408.5 34.6 409.4 34.4 410.4 34.4 C 411.2 34.4 411.9 34.5 412.7 34.7 C 413.4 34.8 414.1 35.1 414.6 35.4 C 414.6 35.4 413.5 37.6 413.5 37.6 C 413 37.3 412.5 37.1 412 37 C 411.4 36.9 410.9 36.8 410.4 36.8 C 409.7 36.8 409.2 36.9 408.9 37.1 C 408.6 37.3 408.4 37.5 408.4 37.8 C 408.4 38.1 408.6 38.3 408.8 38.4 C 409 38.5 409.3 38.6 409.7 38.7 C 410.1 38.8 410.5 38.9 411 38.9 C 411.4 39 411.9 39.1 412.4 39.2 C 412.8 39.3 413.3 39.5 413.6 39.7 C 414 39.9 414.3 40.2 414.6 40.6 C 414.8 41 414.9 41.5 414.9 42.1 C 414.9 42.8 414.7 43.4 414.3 43.9 C 413.9 44.4 413.4 44.8 412.6 45.1 C 411.9 45.4 410.9 45.5 409.9 45.5 Z " stroke="none" fill="#fff"/>
  </g>
</svg>