<?xml version="1.0" standalone="no"?>
<!DOCTYPE svg PUBLIC "-//W3C//DTD SVG 1.1//EN" "http://www.w3.org/Graphics/SVG/1.1/DTD/svg11.dtd">
<svg xmlns="http://www.w3.org/2000/svg" version="1.1" width="445.3px" height="96px" viewBox="0 0 445.3 96">
  <desc>The scientific discipline concerned with the understanding of the interactions among humans and other elements of a s...</desc>
  <defs/>
  <g id="Polygon115344">
    <path d="M 34.7 67.2 C 34.7 66.9 34.9 66.7 35.2 66.7 C 35.5 66.7 35.7 66.9 35.7 67.1 C 35.7 67.4 35.5 67.7 35.2 67.7 C 34.9 67.7 34.7 67.5 34.7 67.2 Z M 34.5 68.8 L 35.2 68.8 L 34.2 74.1 L 33.5 74.1 L 34.5 68.8 Z M 41.5 70.5 C 41.5 70.7 41.5 70.9 41.4 71.1 C 41.45 71.09 40.8 74.1 40.8 74.1 L 40.1 74.1 C 40.1 74.1 40.74 71.08 40.7 71.1 C 40.8 70.9 40.8 70.8 40.8 70.6 C 40.8 69.9 40.3 69.4 39.4 69.4 C 38.3 69.4 37.5 70 37.3 71.3 C 37.29 71.26 36.7 74.1 36.7 74.1 L 36 74.1 L 37.1 68.8 L 37.7 68.8 C 37.7 68.8 37.57 69.66 37.6 69.7 C 38.1 69.1 38.8 68.8 39.6 68.8 C 40.8 68.8 41.5 69.4 41.5 70.5 Z M 45.4 71.9 C 45.4 70.1 46.6 68.8 48.4 68.8 C 49.9 68.8 50.8 69.6 50.8 71 C 50.8 72.8 49.5 74.1 47.7 74.1 C 46.3 74.1 45.4 73.3 45.4 71.9 Z M 50.1 71 C 50.1 70 49.4 69.4 48.3 69.4 C 47 69.4 46.1 70.4 46.1 71.9 C 46.1 72.9 46.7 73.5 47.8 73.5 C 49.1 73.5 50.1 72.5 50.1 71 Z M 55.3 68.8 C 55.3 68.8 55.2 69.5 55.2 69.5 C 55.1 69.5 55.1 69.5 55 69.5 C 53.9 69.5 53.1 70.1 52.9 71.4 C 52.87 71.41 52.3 74.1 52.3 74.1 L 51.6 74.1 L 52.7 68.8 L 53.3 68.8 C 53.3 68.8 53.17 69.78 53.2 69.8 C 53.6 69.1 54.3 68.8 55.3 68.8 Z M 61.8 66.7 L 60.3 74.1 L 59.6 74.1 C 59.6 74.1 59.79 73.25 59.8 73.3 C 59.3 73.8 58.6 74.1 57.7 74.1 C 56.4 74.1 55.4 73.3 55.4 71.9 C 55.4 70.1 56.7 68.8 58.4 68.8 C 59.4 68.8 60.1 69.2 60.4 69.9 C 60.42 69.92 61.1 66.7 61.1 66.7 L 61.8 66.7 Z M 60.2 71 C 60.2 70 59.5 69.4 58.4 69.4 C 57.1 69.4 56.2 70.4 56.2 71.9 C 56.2 72.9 56.8 73.5 57.9 73.5 C 59.2 73.5 60.2 72.5 60.2 71 Z M 62.9 71.7 C 62.9 71.7 62.9 71.8 62.9 71.9 C 62.9 72.9 63.5 73.5 64.7 73.5 C 65.4 73.5 66 73.3 66.4 72.8 C 66.4 72.8 66.8 73.4 66.8 73.4 C 66.3 73.8 65.5 74.1 64.7 74.1 C 63.1 74.1 62.2 73.3 62.2 71.9 C 62.2 70.1 63.4 68.8 65.1 68.8 C 66.5 68.8 67.4 69.6 67.4 71 C 67.4 71.2 67.4 71.5 67.3 71.7 C 67.3 71.7 62.9 71.7 62.9 71.7 Z M 63 71.1 C 63 71.1 66.7 71.1 66.7 71.1 C 66.7 71.1 66.7 71 66.7 70.9 C 66.7 69.9 66.1 69.4 65.1 69.4 C 64 69.4 63.2 70.1 63 71.1 Z M 71.9 68.8 C 71.9 68.8 71.8 69.5 71.8 69.5 C 71.7 69.5 71.7 69.5 71.6 69.5 C 70.5 69.5 69.7 70.1 69.5 71.4 C 69.48 71.41 68.9 74.1 68.9 74.1 L 68.2 74.1 L 69.3 68.8 L 70 68.8 C 70 68.8 69.78 69.78 69.8 69.8 C 70.2 69.1 70.9 68.8 71.9 68.8 Z M 76 72.5 C 76 72.6 76 72.7 76 72.8 C 76 73.3 76.2 73.5 76.7 73.5 C 77 73.5 77.3 73.4 77.5 73.3 C 77.5 73.3 77.7 73.8 77.7 73.8 C 77.4 74 76.9 74.1 76.5 74.1 C 75.7 74.1 75.3 73.7 75.3 72.9 C 75.3 72.8 75.3 72.7 75.3 72.5 C 75.3 72.52 75.9 69.4 75.9 69.4 L 75 69.4 L 75.1 68.8 L 76 68.8 L 76.3 67.7 L 77 67.7 L 76.7 68.8 L 78.3 68.8 L 78.2 69.4 L 76.6 69.4 C 76.6 69.4 76 72.49 76 72.5 Z M 78.6 71.9 C 78.6 70.1 79.9 68.8 81.6 68.8 C 83.1 68.8 84 69.6 84 71 C 84 72.8 82.8 74.1 81 74.1 C 79.5 74.1 78.6 73.3 78.6 71.9 Z M 83.3 71 C 83.3 70 82.7 69.4 81.6 69.4 C 80.3 69.4 79.3 70.4 79.3 71.9 C 79.3 72.9 79.9 73.5 81 73.5 C 82.3 73.5 83.3 72.5 83.3 71 Z M 87.5 71.9 C 87.5 70.1 88.8 68.8 90.5 68.8 C 92 68.8 92.9 69.6 92.9 71 C 92.9 72.8 91.6 74.1 89.9 74.1 C 88.4 74.1 87.5 73.3 87.5 71.9 Z M 92.2 71 C 92.2 70 91.6 69.4 90.5 69.4 C 89.2 69.4 88.2 70.4 88.2 71.9 C 88.2 72.9 88.8 73.5 89.9 73.5 C 91.2 73.5 92.2 72.5 92.2 71 Z M 99.6 71 C 99.6 72.8 98.4 74.1 96.7 74.1 C 95.7 74.1 95 73.7 94.7 73 C 94.67 72.98 94.1 76 94.1 76 L 93.4 76 L 94.8 68.8 L 95.5 68.8 C 95.5 68.8 95.3 69.66 95.3 69.7 C 95.8 69.1 96.5 68.8 97.3 68.8 C 98.7 68.8 99.6 69.6 99.6 71 Z M 98.9 71 C 98.9 70 98.3 69.4 97.2 69.4 C 95.9 69.4 94.9 70.4 94.9 71.9 C 94.9 72.9 95.6 73.5 96.7 73.5 C 98 73.5 98.9 72.5 98.9 71 Z M 101.6 72.5 C 101.6 72.6 101.6 72.7 101.6 72.8 C 101.6 73.3 101.8 73.5 102.3 73.5 C 102.6 73.5 102.9 73.4 103.1 73.3 C 103.1 73.3 103.3 73.8 103.3 73.8 C 103 74 102.5 74.1 102.1 74.1 C 101.3 74.1 100.9 73.7 100.9 72.9 C 100.9 72.8 100.9 72.7 100.9 72.5 C 100.89 72.52 101.5 69.4 101.5 69.4 L 100.6 69.4 L 100.7 68.8 L 101.6 68.8 L 101.8 67.7 L 102.6 67.7 L 102.3 68.8 L 103.9 68.8 L 103.8 69.4 L 102.2 69.4 C 102.2 69.4 101.6 72.49 101.6 72.5 Z M 105.6 67.2 C 105.6 66.9 105.9 66.7 106.2 66.7 C 106.5 66.7 106.7 66.9 106.7 67.1 C 106.7 67.4 106.4 67.7 106.1 67.7 C 105.8 67.7 105.6 67.5 105.6 67.2 Z M 105.4 68.8 L 106.2 68.8 L 105.1 74.1 L 104.4 74.1 L 105.4 68.8 Z M 116.3 70.5 C 116.3 70.7 116.3 70.9 116.2 71.1 C 116.22 71.09 115.6 74.1 115.6 74.1 L 114.9 74.1 C 114.9 74.1 115.51 71.08 115.5 71.1 C 115.5 70.9 115.6 70.7 115.6 70.6 C 115.6 69.9 115.1 69.4 114.3 69.4 C 113.2 69.4 112.5 70 112.2 71.2 C 112.22 71.18 111.6 74.1 111.6 74.1 L 110.9 74.1 C 110.9 74.1 111.53 71.08 111.5 71.1 C 111.6 70.9 111.6 70.8 111.6 70.6 C 111.6 69.9 111.2 69.4 110.3 69.4 C 109.2 69.4 108.5 70 108.2 71.3 C 108.22 71.26 107.7 74.1 107.7 74.1 L 106.9 74.1 L 108 68.8 L 108.7 68.8 C 108.7 68.8 108.5 69.66 108.5 69.7 C 109 69.1 109.7 68.8 110.5 68.8 C 111.4 68.8 112 69.2 112.2 69.8 C 112.7 69.1 113.5 68.8 114.4 68.8 C 115.6 68.8 116.3 69.4 116.3 70.5 Z M 118.6 67.2 C 118.6 66.9 118.9 66.7 119.2 66.7 C 119.5 66.7 119.7 66.9 119.7 67.1 C 119.7 67.4 119.4 67.7 119.1 67.7 C 118.8 67.7 118.6 67.5 118.6 67.2 Z M 118.5 68.8 L 119.2 68.8 L 118.1 74.1 L 117.4 74.1 L 118.5 68.8 Z M 124.5 69.3 L 120.4 73.5 L 123.7 73.5 L 123.6 74.1 L 119.3 74.1 L 119.4 73.6 L 123.5 69.4 L 120.3 69.4 L 120.5 68.8 L 124.6 68.8 L 124.5 69.3 Z M 125.5 71.7 C 125.5 71.7 125.5 71.8 125.5 71.9 C 125.5 72.9 126.1 73.5 127.3 73.5 C 128 73.5 128.6 73.3 129 72.8 C 129 72.8 129.3 73.4 129.3 73.4 C 128.8 73.8 128 74.1 127.2 74.1 C 125.7 74.1 124.8 73.3 124.8 71.9 C 124.8 70.1 126 68.8 127.7 68.8 C 129.1 68.8 130 69.6 130 71 C 130 71.2 129.9 71.5 129.9 71.7 C 129.9 71.7 125.5 71.7 125.5 71.7 Z M 125.5 71.1 C 125.5 71.1 129.3 71.1 129.3 71.1 C 129.3 71.1 129.3 71 129.3 70.9 C 129.3 69.9 128.6 69.4 127.7 69.4 C 126.6 69.4 125.8 70.1 125.5 71.1 Z M 139 70.5 C 139 70.7 138.9 70.9 138.9 71.1 C 138.9 71.09 138.3 74.1 138.3 74.1 L 137.6 74.1 C 137.6 74.1 138.2 71.08 138.2 71.1 C 138.2 70.9 138.2 70.8 138.2 70.6 C 138.2 69.9 137.8 69.4 136.9 69.4 C 135.8 69.4 135 70 134.7 71.3 C 134.75 71.26 134.2 74.1 134.2 74.1 L 133.5 74.1 L 135 66.7 L 135.7 66.7 C 135.7 66.7 135.08 69.61 135.1 69.6 C 135.6 69 136.3 68.8 137.1 68.8 C 138.3 68.8 139 69.4 139 70.5 Z M 145.8 68.8 L 144.8 74.1 L 144.1 74.1 C 144.1 74.1 144.26 73.24 144.3 73.2 C 143.7 73.9 143 74.1 142.2 74.1 C 141 74.1 140.4 73.5 140.4 72.4 C 140.4 72.2 140.4 72 140.4 71.8 C 140.42 71.82 141 68.8 141 68.8 L 141.7 68.8 C 141.7 68.8 141.13 71.82 141.1 71.8 C 141.1 72 141.1 72.1 141.1 72.3 C 141.1 73.1 141.5 73.5 142.4 73.5 C 143.5 73.5 144.3 72.9 144.5 71.7 C 144.55 71.65 145.1 68.8 145.1 68.8 L 145.8 68.8 Z M 156 70.5 C 156 70.7 155.9 70.9 155.9 71.1 C 155.89 71.09 155.3 74.1 155.3 74.1 L 154.6 74.1 C 154.6 74.1 155.18 71.08 155.2 71.1 C 155.2 70.9 155.2 70.7 155.2 70.6 C 155.2 69.9 154.8 69.4 153.9 69.4 C 152.9 69.4 152.1 70 151.9 71.2 C 151.89 71.18 151.3 74.1 151.3 74.1 L 150.6 74.1 C 150.6 74.1 151.2 71.08 151.2 71.1 C 151.2 70.9 151.3 70.8 151.3 70.6 C 151.3 69.9 150.8 69.4 150 69.4 C 148.9 69.4 148.1 70 147.9 71.3 C 147.89 71.26 147.3 74.1 147.3 74.1 L 146.6 74.1 L 147.7 68.8 L 148.3 68.8 C 148.3 68.8 148.17 69.66 148.2 69.7 C 148.7 69.1 149.4 68.8 150.2 68.8 C 151.1 68.8 151.7 69.2 151.9 69.8 C 152.4 69.1 153.2 68.8 154.1 68.8 C 155.3 68.8 156 69.4 156 70.5 Z M 163 68.8 L 162 74.1 L 161.3 74.1 C 161.3 74.1 161.48 73.25 161.5 73.3 C 161 73.8 160.3 74.1 159.4 74.1 C 158.1 74.1 157.1 73.3 157.1 71.9 C 157.1 70.1 158.4 68.8 160.1 68.8 C 161.1 68.8 161.8 69.2 162.1 69.9 C 162.11 69.92 162.3 68.8 162.3 68.8 L 163 68.8 Z M 161.9 71 C 161.9 70 161.2 69.4 160.1 69.4 C 158.8 69.4 157.8 70.4 157.8 71.9 C 157.8 72.9 158.5 73.5 159.6 73.5 C 160.9 73.5 161.9 72.5 161.9 71 Z M 169.3 70.5 C 169.3 70.7 169.3 70.9 169.3 71.1 C 169.27 71.09 168.7 74.1 168.7 74.1 L 168 74.1 C 168 74.1 168.56 71.08 168.6 71.1 C 168.6 70.9 168.6 70.8 168.6 70.6 C 168.6 69.9 168.2 69.4 167.3 69.4 C 166.1 69.4 165.4 70 165.1 71.3 C 165.11 71.26 164.6 74.1 164.6 74.1 L 163.8 74.1 L 164.9 68.8 L 165.6 68.8 C 165.6 68.8 165.39 69.66 165.4 69.7 C 165.9 69.1 166.6 68.8 167.5 68.8 C 168.6 68.8 169.3 69.4 169.3 70.5 Z M 182 68.8 L 179.1 74.1 L 178.4 74.1 L 177.5 69.8 L 175 74.1 L 174.4 74.1 L 173.3 68.8 L 174 68.8 L 174.8 73.3 L 177.4 68.8 L 178 68.8 L 178.8 73.3 L 181.3 68.8 L 182 68.8 Z M 182.7 71.7 C 182.7 71.7 182.7 71.8 182.7 71.9 C 182.7 72.9 183.3 73.5 184.5 73.5 C 185.2 73.5 185.8 73.3 186.2 72.8 C 186.2 72.8 186.5 73.4 186.5 73.4 C 186 73.8 185.2 74.1 184.4 74.1 C 182.9 74.1 182 73.3 182 71.9 C 182 70.1 183.2 68.8 184.9 68.8 C 186.3 68.8 187.2 69.6 187.2 71 C 187.2 71.2 187.1 71.5 187.1 71.7 C 187.1 71.7 182.7 71.7 182.7 71.7 Z M 182.8 71.1 C 182.8 71.1 186.5 71.1 186.5 71.1 C 186.5 71.1 186.5 71 186.5 70.9 C 186.5 69.9 185.8 69.4 184.9 69.4 C 183.8 69.4 183 70.1 182.8 71.1 Z M 189.5 66.7 L 190.2 66.7 L 188.7 74.1 L 188 74.1 L 189.5 66.7 Z M 192 66.7 L 192.7 66.7 L 191.3 74.1 L 190.6 74.1 L 192 66.7 Z M 193.4 71.1 L 196 71.1 L 195.9 71.7 L 193.3 71.7 L 193.4 71.1 Z M 203 71 C 203 72.8 201.7 74.1 200 74.1 C 199 74.1 198.3 73.7 198 72.9 C 197.97 72.93 197.7 74.1 197.7 74.1 L 197.1 74.1 L 198.5 66.7 L 199.2 66.7 C 199.2 66.7 198.66 69.61 198.7 69.6 C 199.1 69.1 199.8 68.8 200.7 68.8 C 202 68.8 203 69.6 203 71 Z M 202.2 71 C 202.2 70 201.6 69.4 200.5 69.4 C 199.2 69.4 198.2 70.4 198.2 71.9 C 198.2 72.9 198.9 73.5 200 73.5 C 201.3 73.5 202.2 72.5 202.2 71 Z M 204.6 71.7 C 204.6 71.7 204.6 71.8 204.6 71.9 C 204.6 72.9 205.2 73.5 206.4 73.5 C 207.1 73.5 207.7 73.3 208.1 72.8 C 208.1 72.8 208.4 73.4 208.4 73.4 C 208 73.8 207.2 74.1 206.3 74.1 C 204.8 74.1 203.9 73.3 203.9 71.9 C 203.9 70.1 205.1 68.8 206.8 68.8 C 208.2 68.8 209.1 69.6 209.1 71 C 209.1 71.2 209.1 71.5 209 71.7 C 209 71.7 204.6 71.7 204.6 71.7 Z M 204.7 71.1 C 204.7 71.1 208.4 71.1 208.4 71.1 C 208.4 71.1 208.4 71 208.4 70.9 C 208.4 69.9 207.8 69.4 206.8 69.4 C 205.7 69.4 204.9 70.1 204.7 71.1 Z M 211.2 67.2 C 211.2 66.9 211.4 66.7 211.7 66.7 C 212 66.7 212.2 66.9 212.2 67.1 C 212.2 67.4 212 67.7 211.6 67.7 C 211.4 67.7 211.2 67.5 211.2 67.2 Z M 211 68.8 L 211.7 68.8 L 210.6 74.1 L 209.9 74.1 L 211 68.8 Z M 218 70.5 C 218 70.7 217.9 70.9 217.9 71.1 C 217.91 71.09 217.3 74.1 217.3 74.1 L 216.6 74.1 C 216.6 74.1 217.2 71.08 217.2 71.1 C 217.2 70.9 217.3 70.8 217.3 70.6 C 217.3 69.9 216.8 69.4 215.9 69.4 C 214.8 69.4 214 70 213.8 71.3 C 213.75 71.26 213.2 74.1 213.2 74.1 L 212.5 74.1 L 213.5 68.8 L 214.2 68.8 C 214.2 68.8 214.03 69.66 214 69.7 C 214.5 69.1 215.3 68.8 216.1 68.8 C 217.3 68.8 218 69.4 218 70.5 Z M 225.1 68.8 C 225.1 68.8 224.14 73.44 224.1 73.4 C 223.8 75.3 222.8 76.1 221.1 76.1 C 220.1 76.1 219.3 75.8 218.7 75.3 C 218.7 75.3 219.2 74.7 219.2 74.7 C 219.6 75.2 220.3 75.4 221.1 75.4 C 222.5 75.4 223.2 74.8 223.4 73.6 C 223.4 73.6 223.5 73 223.5 73 C 223 73.5 222.3 73.9 221.4 73.9 C 220 73.9 219.1 73.1 219.1 71.8 C 219.1 70.1 220.4 68.8 222.1 68.8 C 223.1 68.8 223.9 69.2 224.2 70 C 224.16 69.98 224.4 68.8 224.4 68.8 L 225.1 68.8 Z M 223.9 70.9 C 223.9 70 223.2 69.4 222.1 69.4 C 220.8 69.4 219.8 70.4 219.8 71.7 C 219.8 72.7 220.5 73.3 221.6 73.3 C 222.9 73.3 223.9 72.3 223.9 70.9 Z M 234.5 68.8 L 233.4 74.1 L 232.7 74.1 C 232.7 74.1 232.91 73.25 232.9 73.3 C 232.4 73.8 231.7 74.1 230.9 74.1 C 229.5 74.1 228.6 73.3 228.6 71.9 C 228.6 70.1 229.8 68.8 231.5 68.8 C 232.5 68.8 233.2 69.2 233.5 69.9 C 233.54 69.92 233.8 68.8 233.8 68.8 L 234.5 68.8 Z M 233.3 71 C 233.3 70 232.7 69.4 231.6 69.4 C 230.3 69.4 229.3 70.4 229.3 71.9 C 229.3 72.9 229.9 73.5 231 73.5 C 232.3 73.5 233.3 72.5 233.3 71 Z M 240.8 70.5 C 240.8 70.7 240.7 70.9 240.7 71.1 C 240.71 71.09 240.1 74.1 240.1 74.1 L 239.4 74.1 C 239.4 74.1 240 71.08 240 71.1 C 240 70.9 240 70.8 240 70.6 C 240 69.9 239.6 69.4 238.7 69.4 C 237.6 69.4 236.8 70 236.5 71.3 C 236.55 71.26 236 74.1 236 74.1 L 235.3 74.1 L 236.3 68.8 L 237 68.8 C 237 68.8 236.83 69.66 236.8 69.7 C 237.3 69.1 238.1 68.8 238.9 68.8 C 240.1 68.8 240.8 69.4 240.8 70.5 Z M 248.3 66.7 L 246.8 74.1 L 246.1 74.1 C 246.1 74.1 246.28 73.25 246.3 73.3 C 245.8 73.8 245.1 74.1 244.2 74.1 C 242.9 74.1 241.9 73.3 241.9 71.9 C 241.9 70.1 243.2 68.8 244.9 68.8 C 245.9 68.8 246.6 69.2 246.9 69.9 C 246.91 69.92 247.6 66.7 247.6 66.7 L 248.3 66.7 Z M 246.7 71 C 246.7 70 246 69.4 244.9 69.4 C 243.6 69.4 242.6 70.4 242.6 71.9 C 242.6 72.9 243.3 73.5 244.4 73.5 C 245.7 73.5 246.7 72.5 246.7 71 Z M 251.3 71.9 C 251.3 70.1 252.6 68.8 254.4 68.8 C 255.8 68.8 256.8 69.6 256.8 71 C 256.8 72.8 255.5 74.1 253.7 74.1 C 252.3 74.1 251.3 73.3 251.3 71.9 Z M 256.1 71 C 256.1 70 255.4 69.4 254.3 69.4 C 253 69.4 252 70.4 252 71.9 C 252 72.9 252.7 73.5 253.8 73.5 C 255.1 73.5 256.1 72.5 256.1 71 Z M 263 68.8 L 259.6 74.1 L 258.9 74.1 L 257.6 68.8 L 258.3 68.8 L 259.4 73.3 L 262.3 68.8 L 263 68.8 Z M 263.6 71.7 C 263.6 71.7 263.6 71.8 263.6 71.9 C 263.6 72.9 264.2 73.5 265.4 73.5 C 266.1 73.5 266.7 73.3 267.1 72.8 C 267.1 72.8 267.4 73.4 267.4 73.4 C 266.9 73.8 266.2 74.1 265.3 74.1 C 263.8 74.1 262.9 73.3 262.9 71.9 C 262.9 70.1 264.1 68.8 265.8 68.8 C 267.2 68.8 268.1 69.6 268.1 71 C 268.1 71.2 268.1 71.5 268 71.7 C 268 71.7 263.6 71.7 263.6 71.7 Z M 263.7 71.1 C 263.7 71.1 267.4 71.1 267.4 71.1 C 267.4 71.1 267.4 71 267.4 70.9 C 267.4 69.9 266.8 69.4 265.8 69.4 C 264.7 69.4 263.9 70.1 263.7 71.1 Z M 272.6 68.8 C 272.6 68.8 272.5 69.5 272.5 69.5 C 272.4 69.5 272.4 69.5 272.3 69.5 C 271.2 69.5 270.4 70.1 270.2 71.4 C 270.16 71.41 269.6 74.1 269.6 74.1 L 268.9 74.1 L 270 68.8 L 270.6 68.8 C 270.6 68.8 270.46 69.78 270.5 69.8 C 270.9 69.1 271.6 68.8 272.6 68.8 Z M 278.6 68.8 L 277.6 74.1 L 276.9 74.1 C 276.9 74.1 277.08 73.25 277.1 73.3 C 276.6 73.8 275.9 74.1 275 74.1 C 273.7 74.1 272.7 73.3 272.7 71.9 C 272.7 70.1 274 68.8 275.7 68.8 C 276.7 68.8 277.4 69.2 277.7 69.9 C 277.71 69.92 277.9 68.8 277.9 68.8 L 278.6 68.8 Z M 277.5 71 C 277.5 70 276.8 69.4 275.7 69.4 C 274.4 69.4 273.4 70.4 273.4 71.9 C 273.4 72.9 274.1 73.5 275.2 73.5 C 276.5 73.5 277.5 72.5 277.5 71 Z M 280.9 66.7 L 281.6 66.7 L 280.2 74.1 L 279.4 74.1 L 280.9 66.7 Z M 283.5 66.7 L 284.2 66.7 L 282.7 74.1 L 282 74.1 L 283.5 66.7 Z M 286.7 73.5 C 286.7 73.5 287.1 72.9 287.1 72.9 C 287.5 73.3 288.2 73.5 288.9 73.5 C 289.9 73.5 290.5 73.2 290.5 72.6 C 290.5 71.4 287.5 72.2 287.5 70.4 C 287.5 69.4 288.4 68.8 289.8 68.8 C 290.4 68.8 291.1 69 291.5 69.3 C 291.5 69.3 291.2 69.8 291.2 69.8 C 290.8 69.5 290.2 69.4 289.7 69.4 C 288.7 69.4 288.2 69.8 288.2 70.4 C 288.2 71.6 291.2 70.7 291.2 72.5 C 291.2 73.5 290.2 74.1 288.8 74.1 C 288 74.1 287.2 73.9 286.7 73.5 Z M 297.8 68.8 C 297.8 68.8 293.93 74.76 293.9 74.8 C 293.3 75.8 292.8 76.1 292 76.1 C 291.5 76.1 291 75.9 290.8 75.6 C 290.8 75.6 291.2 75.1 291.2 75.1 C 291.4 75.3 291.7 75.5 292.1 75.5 C 292.5 75.5 292.9 75.3 293.3 74.6 C 293.3 74.61 293.7 74.1 293.7 74.1 L 292.4 68.8 L 293.1 68.8 L 294.2 73.3 L 297 68.8 L 297.8 68.8 Z M 297.3 73.5 C 297.3 73.5 297.6 72.9 297.6 72.9 C 298 73.3 298.7 73.5 299.4 73.5 C 300.5 73.5 301 73.2 301 72.6 C 301 71.4 298 72.2 298 70.4 C 298 69.4 298.9 68.8 300.3 68.8 C 301 68.8 301.7 69 302.1 69.3 C 302.1 69.3 301.8 69.8 301.8 69.8 C 301.4 69.5 300.8 69.4 300.2 69.4 C 299.3 69.4 298.7 69.8 298.7 70.4 C 298.7 71.6 301.7 70.7 301.7 72.5 C 301.7 73.5 300.8 74.1 299.4 74.1 C 298.5 74.1 297.7 73.9 297.3 73.5 Z M 304 72.5 C 304 72.6 303.9 72.7 303.9 72.8 C 303.9 73.3 304.2 73.5 304.7 73.5 C 305 73.5 305.3 73.4 305.5 73.3 C 305.5 73.3 305.7 73.8 305.7 73.8 C 305.4 74 304.9 74.1 304.5 74.1 C 303.7 74.1 303.2 73.7 303.2 72.9 C 303.2 72.8 303.2 72.7 303.3 72.5 C 303.28 72.52 303.9 69.4 303.9 69.4 L 303 69.4 L 303.1 68.8 L 304 68.8 L 304.2 67.7 L 304.9 67.7 L 304.7 68.8 L 306.3 68.8 L 306.2 69.4 L 304.6 69.4 C 304.6 69.4 303.99 72.49 304 72.5 Z M 307.3 71.7 C 307.3 71.7 307.3 71.8 307.3 71.9 C 307.3 72.9 307.9 73.5 309.1 73.5 C 309.8 73.5 310.4 73.3 310.8 72.8 C 310.8 72.8 311.1 73.4 311.1 73.4 C 310.7 73.8 309.9 74.1 309 74.1 C 307.5 74.1 306.6 73.3 306.6 71.9 C 306.6 70.1 307.8 68.8 309.5 68.8 C 310.9 68.8 311.8 69.6 311.8 71 C 311.8 71.2 311.8 71.5 311.7 71.7 C 311.7 71.7 307.3 71.7 307.3 71.7 Z M 307.4 71.1 C 307.4 71.1 311.1 71.1 311.1 71.1 C 311.1 71.1 311.1 71 311.1 70.9 C 311.1 69.9 310.5 69.4 309.5 69.4 C 308.4 69.4 307.6 70.1 307.4 71.1 Z M 322 70.5 C 322 70.7 321.9 70.9 321.9 71.1 C 321.9 71.09 321.3 74.1 321.3 74.1 L 320.6 74.1 C 320.6 74.1 321.19 71.08 321.2 71.1 C 321.2 70.9 321.2 70.7 321.2 70.6 C 321.2 69.9 320.8 69.4 319.9 69.4 C 318.9 69.4 318.1 70 317.9 71.2 C 317.9 71.18 317.3 74.1 317.3 74.1 L 316.6 74.1 C 316.6 74.1 317.21 71.08 317.2 71.1 C 317.2 70.9 317.3 70.8 317.3 70.6 C 317.3 69.9 316.8 69.4 316 69.4 C 314.9 69.4 314.1 70 313.9 71.3 C 313.9 71.26 313.3 74.1 313.3 74.1 L 312.6 74.1 L 313.7 68.8 L 314.3 68.8 C 314.3 68.8 314.18 69.66 314.2 69.7 C 314.7 69.1 315.4 68.8 316.2 68.8 C 317.1 68.8 317.7 69.2 317.9 69.8 C 318.4 69.1 319.2 68.8 320.1 68.8 C 321.3 68.8 322 69.4 322 70.5 Z M 331.8 71 C 331.8 72.8 330.5 74.1 328.8 74.1 C 327.8 74.1 327.1 73.7 326.8 73 C 326.78 72.98 326.2 76 326.2 76 L 325.5 76 L 326.9 68.8 L 327.6 68.8 C 327.6 68.8 327.41 69.66 327.4 69.7 C 327.9 69.1 328.6 68.8 329.5 68.8 C 330.8 68.8 331.8 69.6 331.8 71 Z M 331 71 C 331 70 330.4 69.4 329.3 69.4 C 328 69.4 327 70.4 327 71.9 C 327 72.9 327.7 73.5 328.8 73.5 C 330.1 73.5 331 72.5 331 71 Z M 333.4 71.7 C 333.4 71.7 333.4 71.8 333.4 71.9 C 333.4 72.9 334 73.5 335.2 73.5 C 335.9 73.5 336.5 73.3 336.9 72.8 C 336.9 72.8 337.3 73.4 337.3 73.4 C 336.8 73.8 336 74.1 335.2 74.1 C 333.6 74.1 332.7 73.3 332.7 71.9 C 332.7 70.1 333.9 68.8 335.6 68.8 C 337 68.8 337.9 69.6 337.9 71 C 337.9 71.2 337.9 71.5 337.8 71.7 C 337.8 71.7 333.4 71.7 333.4 71.7 Z M 333.5 71.1 C 333.5 71.1 337.2 71.1 337.2 71.1 C 337.2 71.1 337.2 71 337.2 70.9 C 337.2 69.9 336.6 69.4 335.6 69.4 C 334.5 69.4 333.7 70.1 333.5 71.1 Z M 342.4 68.8 C 342.4 68.8 342.3 69.5 342.3 69.5 C 342.2 69.5 342.2 69.5 342.1 69.5 C 341 69.5 340.2 70.1 340 71.4 C 339.98 71.41 339.4 74.1 339.4 74.1 L 338.7 74.1 L 339.8 68.8 L 340.5 68.8 C 340.5 68.8 340.28 69.78 340.3 69.8 C 340.7 69.1 341.4 68.8 342.4 68.8 Z M 345 68.2 C 344.97 68.24 344.8 68.8 344.8 68.8 L 346.5 68.8 L 346.3 69.4 L 344.7 69.4 L 343.8 74.1 L 343.1 74.1 L 344 69.4 L 343.1 69.4 L 343.2 68.8 L 344.2 68.8 C 344.2 68.8 344.29 68.16 344.3 68.2 C 344.5 67.2 345.1 66.6 346.1 66.6 C 346.5 66.6 346.9 66.7 347.1 67 C 347.1 67 346.8 67.5 346.8 67.5 C 346.6 67.3 346.4 67.2 346.1 67.2 C 345.5 67.2 345.1 67.5 345 68.2 Z M 346.4 71.9 C 346.4 70.1 347.6 68.8 349.4 68.8 C 350.9 68.8 351.8 69.6 351.8 71 C 351.8 72.8 350.5 74.1 348.8 74.1 C 347.3 74.1 346.4 73.3 346.4 71.9 Z M 351.1 71 C 351.1 70 350.5 69.4 349.4 69.4 C 348 69.4 347.1 70.4 347.1 71.9 C 347.1 72.9 347.7 73.5 348.8 73.5 C 350.1 73.5 351.1 72.5 351.1 71 Z M 356.3 68.8 C 356.3 68.8 356.2 69.5 356.2 69.5 C 356.1 69.5 356.1 69.5 356 69.5 C 354.9 69.5 354.1 70.1 353.9 71.4 C 353.88 71.41 353.3 74.1 353.3 74.1 L 352.6 74.1 L 353.7 68.8 L 354.4 68.8 C 354.4 68.8 354.18 69.78 354.2 69.8 C 354.6 69.1 355.3 68.8 356.3 68.8 Z M 365.8 70.5 C 365.8 70.7 365.8 70.9 365.8 71.1 C 365.76 71.09 365.2 74.1 365.2 74.1 L 364.5 74.1 C 364.5 74.1 365.05 71.08 365.1 71.1 C 365.1 70.9 365.1 70.7 365.1 70.6 C 365.1 69.9 364.7 69.4 363.8 69.4 C 362.8 69.4 362 70 361.8 71.2 C 361.76 71.18 361.2 74.1 361.2 74.1 L 360.5 74.1 C 360.5 74.1 361.07 71.08 361.1 71.1 C 361.1 70.9 361.1 70.8 361.1 70.6 C 361.1 69.9 360.7 69.4 359.8 69.4 C 358.8 69.4 358 70 357.8 71.3 C 357.76 71.26 357.2 74.1 357.2 74.1 L 356.5 74.1 L 357.5 68.8 L 358.2 68.8 C 358.2 68.8 358.04 69.66 358 69.7 C 358.5 69.1 359.2 68.8 360 68.8 C 360.9 68.8 361.5 69.2 361.8 69.8 C 362.3 69.1 363.1 68.8 364 68.8 C 365.2 68.8 365.8 69.4 365.8 70.5 Z M 372.9 68.8 L 371.9 74.1 L 371.2 74.1 C 371.2 74.1 371.35 73.25 371.3 73.3 C 370.8 73.8 370.1 74.1 369.3 74.1 C 367.9 74.1 367 73.3 367 71.9 C 367 70.1 368.3 68.8 370 68.8 C 371 68.8 371.7 69.2 372 69.9 C 371.98 69.92 372.2 68.8 372.2 68.8 L 372.9 68.8 Z M 371.7 71 C 371.7 70 371.1 69.4 370 69.4 C 368.7 69.4 367.7 70.4 367.7 71.9 C 367.7 72.9 368.3 73.5 369.4 73.5 C 370.8 73.5 371.7 72.5 371.7 71 Z M 379.2 70.5 C 379.2 70.7 379.2 70.9 379.1 71.1 C 379.14 71.09 378.5 74.1 378.5 74.1 L 377.8 74.1 C 377.8 74.1 378.43 71.08 378.4 71.1 C 378.5 70.9 378.5 70.8 378.5 70.6 C 378.5 69.9 378 69.4 377.1 69.4 C 376 69.4 375.2 70 375 71.3 C 374.98 71.26 374.4 74.1 374.4 74.1 L 373.7 74.1 L 374.7 68.8 L 375.4 68.8 C 375.4 68.8 375.26 69.66 375.3 69.7 C 375.8 69.1 376.5 68.8 377.3 68.8 C 378.5 68.8 379.2 69.4 379.2 70.5 Z M 380.3 71.9 C 380.3 70.1 381.6 68.8 383.4 68.8 C 384.4 68.8 385.1 69.1 385.5 69.8 C 385.5 69.8 384.9 70.2 384.9 70.2 C 384.6 69.7 384.1 69.4 383.3 69.4 C 382 69.4 381.1 70.4 381.1 71.9 C 381.1 72.9 381.7 73.5 382.8 73.5 C 383.5 73.5 384.1 73.2 384.5 72.7 C 384.5 72.7 385 73.1 385 73.1 C 384.5 73.8 383.7 74.1 382.8 74.1 C 381.3 74.1 380.3 73.3 380.3 71.9 Z M 386.7 71.7 C 386.7 71.7 386.7 71.8 386.7 71.9 C 386.7 72.9 387.3 73.5 388.5 73.5 C 389.2 73.5 389.8 73.3 390.2 72.8 C 390.2 72.8 390.5 73.4 390.5 73.4 C 390 73.8 389.2 74.1 388.4 74.1 C 386.9 74.1 386 73.3 386 71.9 C 386 70.1 387.2 68.8 388.9 68.8 C 390.3 68.8 391.2 69.6 391.2 71 C 391.2 71.2 391.1 71.5 391.1 71.7 C 391.1 71.7 386.7 71.7 386.7 71.7 Z M 386.7 71.1 C 386.7 71.1 390.5 71.1 390.5 71.1 C 390.5 71.1 390.5 71 390.5 70.9 C 390.5 69.9 389.8 69.4 388.8 69.4 C 387.8 69.4 387 70.1 386.7 71.1 Z M 391.8 73.6 C 391.8 73.3 392 73 392.3 73 C 392.6 73 392.8 73.3 392.8 73.6 C 392.8 73.9 392.6 74.1 392.3 74.1 C 392 74.1 391.8 73.9 391.8 73.6 Z " stroke="none" fill="#000"/>
  </g>
  <g id="Polygon115343">
    <path d="M 39.4 56 C 39.4 57.8 38.1 59.1 36.4 59.1 C 35.4 59.1 34.7 58.7 34.4 58 C 34.39 57.98 33.8 61 33.8 61 L 33.1 61 L 34.5 53.8 L 35.2 53.8 C 35.2 53.8 35.02 54.66 35 54.7 C 35.5 54.1 36.2 53.8 37.1 53.8 C 38.4 53.8 39.4 54.6 39.4 56 Z M 38.7 56 C 38.7 55 38 54.4 36.9 54.4 C 35.6 54.4 34.7 55.4 34.7 56.9 C 34.7 57.9 35.3 58.5 36.4 58.5 C 37.7 58.5 38.7 57.5 38.7 56 Z M 43.9 53.8 C 43.9 53.8 43.8 54.5 43.8 54.5 C 43.7 54.5 43.7 54.5 43.6 54.5 C 42.5 54.5 41.7 55.1 41.4 56.4 C 41.45 56.41 40.9 59.1 40.9 59.1 L 40.2 59.1 L 41.2 53.8 L 41.9 53.8 C 41.9 53.8 41.75 54.78 41.7 54.8 C 42.2 54.1 42.9 53.8 43.9 53.8 Z M 44 56.9 C 44 55.1 45.3 53.8 47.1 53.8 C 48.5 53.8 49.4 54.6 49.4 56 C 49.4 57.8 48.2 59.1 46.4 59.1 C 44.9 59.1 44 58.3 44 56.9 Z M 48.7 56 C 48.7 55 48.1 54.4 47 54.4 C 45.7 54.4 44.7 55.4 44.7 56.9 C 44.7 57.9 45.4 58.5 46.5 58.5 C 47.8 58.5 48.7 57.5 48.7 56 Z M 52.3 53.2 C 52.27 53.24 52.1 53.8 52.1 53.8 L 53.8 53.8 L 53.6 54.4 L 52 54.4 L 51.1 59.1 L 50.4 59.1 L 51.3 54.4 L 50.4 54.4 L 50.5 53.8 L 51.5 53.8 C 51.5 53.8 51.59 53.16 51.6 53.2 C 51.8 52.2 52.4 51.6 53.4 51.6 C 53.8 51.6 54.2 51.7 54.4 52 C 54.4 52 54.1 52.5 54.1 52.5 C 53.9 52.3 53.7 52.2 53.4 52.2 C 52.8 52.2 52.4 52.5 52.3 53.2 Z M 54.4 56.7 C 54.4 56.7 54.4 56.8 54.4 56.9 C 54.4 57.9 55 58.5 56.2 58.5 C 56.9 58.5 57.5 58.3 57.9 57.8 C 57.9 57.8 58.2 58.4 58.2 58.4 C 57.7 58.8 57 59.1 56.1 59.1 C 54.6 59.1 53.7 58.3 53.7 56.9 C 53.7 55.1 54.9 53.8 56.6 53.8 C 58 53.8 58.9 54.6 58.9 56 C 58.9 56.2 58.9 56.5 58.8 56.7 C 58.8 56.7 54.4 56.7 54.4 56.7 Z M 54.5 56.1 C 54.5 56.1 58.2 56.1 58.2 56.1 C 58.2 56.1 58.2 56 58.2 55.9 C 58.2 54.9 57.6 54.4 56.6 54.4 C 55.5 54.4 54.7 55.1 54.5 56.1 Z M 59.3 58.5 C 59.3 58.5 59.6 57.9 59.6 57.9 C 60 58.3 60.7 58.5 61.4 58.5 C 62.5 58.5 63 58.2 63 57.6 C 63 56.4 60 57.2 60 55.4 C 60 54.4 60.9 53.8 62.3 53.8 C 63 53.8 63.7 54 64.1 54.3 C 64.1 54.3 63.8 54.8 63.8 54.8 C 63.4 54.5 62.8 54.4 62.2 54.4 C 61.3 54.4 60.7 54.8 60.7 55.4 C 60.7 56.6 63.7 55.7 63.7 57.5 C 63.7 58.5 62.8 59.1 61.4 59.1 C 60.5 59.1 59.7 58.9 59.3 58.5 Z M 64.3 58.5 C 64.3 58.5 64.7 57.9 64.7 57.9 C 65.1 58.3 65.8 58.5 66.5 58.5 C 67.5 58.5 68 58.2 68 57.6 C 68 56.4 65.1 57.2 65.1 55.4 C 65.1 54.4 66 53.8 67.3 53.8 C 68 53.8 68.7 54 69.1 54.3 C 69.1 54.3 68.8 54.8 68.8 54.8 C 68.4 54.5 67.8 54.4 67.3 54.4 C 66.3 54.4 65.8 54.8 65.8 55.4 C 65.8 56.6 68.7 55.7 68.7 57.5 C 68.7 58.5 67.8 59.1 66.4 59.1 C 65.5 59.1 64.7 58.9 64.3 58.5 Z M 70.9 52.2 C 70.9 51.9 71.2 51.7 71.5 51.7 C 71.8 51.7 72 51.9 72 52.1 C 72 52.4 71.7 52.7 71.4 52.7 C 71.1 52.7 70.9 52.5 70.9 52.2 Z M 70.7 53.8 L 71.5 53.8 L 70.4 59.1 L 69.7 59.1 L 70.7 53.8 Z M 72.3 56.9 C 72.3 55.1 73.5 53.8 75.3 53.8 C 76.8 53.8 77.7 54.6 77.7 56 C 77.7 57.8 76.4 59.1 74.7 59.1 C 73.2 59.1 72.3 58.3 72.3 56.9 Z M 77 56 C 77 55 76.4 54.4 75.3 54.4 C 73.9 54.4 73 55.4 73 56.9 C 73 57.9 73.6 58.5 74.7 58.5 C 76 58.5 77 57.5 77 56 Z M 84 55.5 C 84 55.7 84 55.9 84 56.1 C 83.96 56.09 83.4 59.1 83.4 59.1 L 82.7 59.1 C 82.7 59.1 83.26 56.08 83.3 56.1 C 83.3 55.9 83.3 55.8 83.3 55.6 C 83.3 54.9 82.9 54.4 81.9 54.4 C 80.8 54.4 80.1 55 79.8 56.3 C 79.81 56.26 79.2 59.1 79.2 59.1 L 78.5 59.1 L 79.6 53.8 L 80.3 53.8 C 80.3 53.8 80.09 54.66 80.1 54.7 C 80.6 54.1 81.3 53.8 82.1 53.8 C 83.3 53.8 84 54.4 84 55.5 Z M 89.1 57.5 C 89 57.6 89 57.7 89 57.8 C 89 58.3 89.3 58.5 89.8 58.5 C 90.1 58.5 90.4 58.4 90.6 58.3 C 90.6 58.3 90.8 58.8 90.8 58.8 C 90.4 59 90 59.1 89.6 59.1 C 88.8 59.1 88.3 58.7 88.3 57.9 C 88.3 57.8 88.3 57.7 88.4 57.5 C 88.35 57.52 89 54.4 89 54.4 L 88 54.4 L 88.1 53.8 L 89.1 53.8 L 89.3 52.7 L 90 52.7 L 89.8 53.8 L 91.4 53.8 L 91.3 54.4 L 89.7 54.4 C 89.7 54.4 89.06 57.49 89.1 57.5 Z M 97.4 55.5 C 97.4 55.7 97.3 55.9 97.3 56.1 C 97.29 56.09 96.7 59.1 96.7 59.1 L 96 59.1 C 96 59.1 96.59 56.08 96.6 56.1 C 96.6 55.9 96.6 55.8 96.6 55.6 C 96.6 54.9 96.2 54.4 95.3 54.4 C 94.2 54.4 93.4 55 93.1 56.3 C 93.14 56.26 92.6 59.1 92.6 59.1 L 91.9 59.1 L 93.3 51.7 L 94.1 51.7 C 94.1 51.7 93.47 54.61 93.5 54.6 C 94 54 94.7 53.8 95.5 53.8 C 96.7 53.8 97.4 54.4 97.4 55.5 Z M 104.4 53.8 L 103.4 59.1 L 102.7 59.1 C 102.7 59.1 102.87 58.25 102.9 58.3 C 102.4 58.8 101.7 59.1 100.8 59.1 C 99.5 59.1 98.5 58.3 98.5 56.9 C 98.5 55.1 99.8 53.8 101.5 53.8 C 102.5 53.8 103.2 54.2 103.5 54.9 C 103.5 54.92 103.7 53.8 103.7 53.8 L 104.4 53.8 Z M 103.2 56 C 103.2 55 102.6 54.4 101.5 54.4 C 100.2 54.4 99.2 55.4 99.2 56.9 C 99.2 57.9 99.9 58.5 101 58.5 C 102.3 58.5 103.2 57.5 103.2 56 Z M 106.5 57.5 C 106.4 57.6 106.4 57.7 106.4 57.8 C 106.4 58.3 106.7 58.5 107.2 58.5 C 107.5 58.5 107.7 58.4 108 58.3 C 108 58.3 108.2 58.8 108.2 58.8 C 107.8 59 107.4 59.1 107 59.1 C 106.2 59.1 105.7 58.7 105.7 57.9 C 105.7 57.8 105.7 57.7 105.7 57.5 C 105.74 57.52 106.4 54.4 106.4 54.4 L 105.4 54.4 L 105.5 53.8 L 106.5 53.8 L 106.7 52.7 L 107.4 52.7 L 107.2 53.8 L 108.8 53.8 L 108.7 54.4 L 107.1 54.4 C 107.1 54.4 106.45 57.49 106.5 57.5 Z M 117.8 53.8 L 116.8 59.1 L 116.1 59.1 C 116.1 59.1 116.28 58.25 116.3 58.3 C 115.8 58.8 115.1 59.1 114.2 59.1 C 112.9 59.1 111.9 58.3 111.9 56.9 C 111.9 55.1 113.2 53.8 114.9 53.8 C 115.9 53.8 116.6 54.2 116.9 54.9 C 116.91 54.92 117.1 53.8 117.1 53.8 L 117.8 53.8 Z M 116.7 56 C 116.7 55 116 54.4 114.9 54.4 C 113.6 54.4 112.7 55.4 112.7 56.9 C 112.7 57.9 113.3 58.5 114.4 58.5 C 115.7 58.5 116.7 57.5 116.7 56 Z M 124.6 56 C 124.6 57.8 123.3 59.1 121.6 59.1 C 120.6 59.1 119.9 58.7 119.6 58 C 119.58 57.98 119 61 119 61 L 118.3 61 L 119.7 53.8 L 120.4 53.8 C 120.4 53.8 120.21 54.66 120.2 54.7 C 120.7 54.1 121.4 53.8 122.3 53.8 C 123.6 53.8 124.6 54.6 124.6 56 Z M 123.8 56 C 123.8 55 123.2 54.4 122.1 54.4 C 120.8 54.4 119.8 55.4 119.8 56.9 C 119.8 57.9 120.5 58.5 121.6 58.5 C 122.9 58.5 123.8 57.5 123.8 56 Z M 131.3 56 C 131.3 57.8 130 59.1 128.3 59.1 C 127.3 59.1 126.6 58.7 126.3 58 C 126.32 57.98 125.7 61 125.7 61 L 125 61 L 126.4 53.8 L 127.1 53.8 C 127.1 53.8 126.95 54.66 126.9 54.7 C 127.4 54.1 128.1 53.8 129 53.8 C 130.3 53.8 131.3 54.6 131.3 56 Z M 130.6 56 C 130.6 55 129.9 54.4 128.8 54.4 C 127.5 54.4 126.6 55.4 126.6 56.9 C 126.6 57.9 127.2 58.5 128.3 58.5 C 129.6 58.5 130.6 57.5 130.6 56 Z M 133.6 51.7 L 134.3 51.7 L 132.8 59.1 L 132.1 59.1 L 133.6 51.7 Z M 135.9 52.2 C 135.9 51.9 136.1 51.7 136.5 51.7 C 136.7 51.7 136.9 51.9 136.9 52.1 C 136.9 52.4 136.7 52.7 136.4 52.7 C 136.1 52.7 135.9 52.5 135.9 52.2 Z M 135.7 53.8 L 136.4 53.8 L 135.4 59.1 L 134.7 59.1 L 135.7 53.8 Z M 138 56.7 C 138 56.7 138 56.8 138 56.9 C 138 57.9 138.6 58.5 139.8 58.5 C 140.5 58.5 141.1 58.3 141.5 57.8 C 141.5 57.8 141.8 58.4 141.8 58.4 C 141.3 58.8 140.5 59.1 139.7 59.1 C 138.2 59.1 137.3 58.3 137.3 56.9 C 137.3 55.1 138.5 53.8 140.2 53.8 C 141.6 53.8 142.5 54.6 142.5 56 C 142.5 56.2 142.4 56.5 142.4 56.7 C 142.4 56.7 138 56.7 138 56.7 Z M 138.1 56.1 C 138.1 56.1 141.8 56.1 141.8 56.1 C 141.8 56.1 141.8 56 141.8 55.9 C 141.8 54.9 141.1 54.4 140.2 54.4 C 139.1 54.4 138.3 55.1 138.1 56.1 Z M 142.9 58.5 C 142.9 58.5 143.2 57.9 143.2 57.9 C 143.6 58.3 144.3 58.5 145 58.5 C 146 58.5 146.6 58.2 146.6 57.6 C 146.6 56.4 143.6 57.2 143.6 55.4 C 143.6 54.4 144.5 53.8 145.9 53.8 C 146.6 53.8 147.3 54 147.7 54.3 C 147.7 54.3 147.4 54.8 147.4 54.8 C 147 54.5 146.4 54.4 145.8 54.4 C 144.9 54.4 144.3 54.8 144.3 55.4 C 144.3 56.6 147.3 55.7 147.3 57.5 C 147.3 58.5 146.4 59.1 145 59.1 C 144.1 59.1 143.3 58.9 142.9 58.5 Z M 152.1 57.5 C 152.1 57.6 152 57.7 152 57.8 C 152 58.3 152.3 58.5 152.8 58.5 C 153.1 58.5 153.4 58.4 153.6 58.3 C 153.6 58.3 153.8 58.8 153.8 58.8 C 153.5 59 153 59.1 152.6 59.1 C 151.8 59.1 151.3 58.7 151.3 57.9 C 151.3 57.8 151.3 57.7 151.4 57.5 C 151.37 57.52 152 54.4 152 54.4 L 151.1 54.4 L 151.2 53.8 L 152.1 53.8 L 152.3 52.7 L 153 52.7 L 152.8 53.8 L 154.4 53.8 L 154.3 54.4 L 152.7 54.4 C 152.7 54.4 152.08 57.49 152.1 57.5 Z M 160.4 55.5 C 160.4 55.7 160.4 55.9 160.3 56.1 C 160.31 56.09 159.7 59.1 159.7 59.1 L 159 59.1 C 159 59.1 159.6 56.08 159.6 56.1 C 159.6 55.9 159.7 55.8 159.7 55.6 C 159.7 54.9 159.2 54.4 158.3 54.4 C 157.2 54.4 156.4 55 156.2 56.3 C 156.15 56.26 155.6 59.1 155.6 59.1 L 154.9 59.1 L 156.4 51.7 L 157.1 51.7 C 157.1 51.7 156.48 54.61 156.5 54.6 C 157 54 157.7 53.8 158.5 53.8 C 159.7 53.8 160.4 54.4 160.4 55.5 Z M 162.3 56.7 C 162.2 56.7 162.2 56.8 162.2 56.9 C 162.2 57.9 162.8 58.5 164.1 58.5 C 164.8 58.5 165.4 58.3 165.8 57.8 C 165.8 57.8 166.1 58.4 166.1 58.4 C 165.6 58.8 164.8 59.1 164 59.1 C 162.5 59.1 161.5 58.3 161.5 56.9 C 161.5 55.1 162.8 53.8 164.5 53.8 C 165.8 53.8 166.7 54.6 166.7 56 C 166.7 56.2 166.7 56.5 166.7 56.7 C 166.7 56.7 162.3 56.7 162.3 56.7 Z M 162.3 56.1 C 162.3 56.1 166.1 56.1 166.1 56.1 C 166.1 56.1 166.1 56 166.1 55.9 C 166.1 54.9 165.4 54.4 164.4 54.4 C 163.4 54.4 162.6 55.1 162.3 56.1 Z M 167.7 56.9 C 167.7 55.1 168.9 53.8 170.7 53.8 C 172.2 53.8 173.1 54.6 173.1 56 C 173.1 57.8 171.8 59.1 170 59.1 C 168.6 59.1 167.7 58.3 167.7 56.9 Z M 172.4 56 C 172.4 55 171.7 54.4 170.6 54.4 C 169.3 54.4 168.4 55.4 168.4 56.9 C 168.4 57.9 169 58.5 170.1 58.5 C 171.4 58.5 172.4 57.5 172.4 56 Z M 177.6 53.8 C 177.6 53.8 177.5 54.5 177.5 54.5 C 177.4 54.5 177.4 54.5 177.3 54.5 C 176.2 54.5 175.4 55.1 175.2 56.4 C 175.16 56.41 174.6 59.1 174.6 59.1 L 173.9 59.1 L 175 53.8 L 175.6 53.8 C 175.6 53.8 175.46 54.78 175.5 54.8 C 175.9 54.1 176.6 53.8 177.6 53.8 Z M 178.5 56.7 C 178.5 56.7 178.5 56.8 178.5 56.9 C 178.5 57.9 179.1 58.5 180.3 58.5 C 181 58.5 181.6 58.3 182 57.8 C 182 57.8 182.3 58.4 182.3 58.4 C 181.8 58.8 181 59.1 180.2 59.1 C 178.7 59.1 177.8 58.3 177.8 56.9 C 177.8 55.1 179 53.8 180.7 53.8 C 182.1 53.8 183 54.6 183 56 C 183 56.2 182.9 56.5 182.9 56.7 C 182.9 56.7 178.5 56.7 178.5 56.7 Z M 178.5 56.1 C 178.5 56.1 182.3 56.1 182.3 56.1 C 182.3 56.1 182.3 56 182.3 55.9 C 182.3 54.9 181.6 54.4 180.6 54.4 C 179.6 54.4 178.8 55.1 178.5 56.1 Z M 184.9 57.5 C 184.9 57.6 184.8 57.7 184.8 57.8 C 184.8 58.3 185.1 58.5 185.6 58.5 C 185.9 58.5 186.2 58.4 186.4 58.3 C 186.4 58.3 186.6 58.8 186.6 58.8 C 186.2 59 185.8 59.1 185.4 59.1 C 184.6 59.1 184.1 58.7 184.1 57.9 C 184.1 57.8 184.1 57.7 184.2 57.5 C 184.16 57.52 184.8 54.4 184.8 54.4 L 183.8 54.4 L 184 53.8 L 184.9 53.8 L 185.1 52.7 L 185.8 52.7 L 185.6 53.8 L 187.2 53.8 L 187.1 54.4 L 185.5 54.4 C 185.5 54.4 184.87 57.49 184.9 57.5 Z M 188.9 52.2 C 188.9 51.9 189.1 51.7 189.4 51.7 C 189.7 51.7 189.9 51.9 189.9 52.1 C 189.9 52.4 189.7 52.7 189.4 52.7 C 189.1 52.7 188.9 52.5 188.9 52.2 Z M 188.7 53.8 L 189.4 53.8 L 188.4 59.1 L 187.7 59.1 L 188.7 53.8 Z M 190.2 56.9 C 190.2 55.1 191.5 53.8 193.3 53.8 C 194.3 53.8 195 54.1 195.4 54.8 C 195.4 54.8 194.8 55.2 194.8 55.2 C 194.5 54.7 194 54.4 193.2 54.4 C 191.9 54.4 190.9 55.4 190.9 56.9 C 190.9 57.9 191.6 58.5 192.7 58.5 C 193.4 58.5 194 58.2 194.4 57.7 C 194.4 57.7 194.9 58.1 194.9 58.1 C 194.4 58.8 193.6 59.1 192.7 59.1 C 191.2 59.1 190.2 58.3 190.2 56.9 Z M 201.7 53.8 L 200.7 59.1 L 200 59.1 C 200 59.1 200.18 58.25 200.2 58.3 C 199.7 58.8 199 59.1 198.1 59.1 C 196.8 59.1 195.8 58.3 195.8 56.9 C 195.8 55.1 197.1 53.8 198.8 53.8 C 199.8 53.8 200.5 54.2 200.8 54.9 C 200.81 54.92 201 53.8 201 53.8 L 201.7 53.8 Z M 200.6 56 C 200.6 55 199.9 54.4 198.8 54.4 C 197.5 54.4 196.5 55.4 196.5 56.9 C 196.5 57.9 197.2 58.5 198.3 58.5 C 199.6 58.5 200.6 57.5 200.6 56 Z M 204 51.7 L 204.7 51.7 L 203.3 59.1 L 202.5 59.1 L 204 51.7 Z M 213.7 56 C 213.7 57.8 212.5 59.1 210.8 59.1 C 209.8 59.1 209.1 58.7 208.8 58 C 208.77 57.98 208.2 61 208.2 61 L 207.5 61 L 208.9 53.8 L 209.6 53.8 C 209.6 53.8 209.4 54.66 209.4 54.7 C 209.9 54.1 210.6 53.8 211.5 53.8 C 212.8 53.8 213.7 54.6 213.7 56 Z M 213 56 C 213 55 212.4 54.4 211.3 54.4 C 210 54.4 209 55.4 209 56.9 C 209 57.9 209.7 58.5 210.8 58.5 C 212.1 58.5 213 57.5 213 56 Z M 218.3 53.8 C 218.3 53.8 218.2 54.5 218.2 54.5 C 218.1 54.5 218 54.5 218 54.5 C 216.8 54.5 216.1 55.1 215.8 56.4 C 215.83 56.41 215.3 59.1 215.3 59.1 L 214.6 59.1 L 215.6 53.8 L 216.3 53.8 C 216.3 53.8 216.13 54.78 216.1 54.8 C 216.6 54.1 217.3 53.8 218.3 53.8 Z M 219.7 52.2 C 219.7 51.9 219.9 51.7 220.2 51.7 C 220.5 51.7 220.7 51.9 220.7 52.1 C 220.7 52.4 220.5 52.7 220.1 52.7 C 219.9 52.7 219.7 52.5 219.7 52.2 Z M 219.5 53.8 L 220.2 53.8 L 219.1 59.1 L 218.4 59.1 L 219.5 53.8 Z M 226.5 55.5 C 226.5 55.7 226.5 55.9 226.4 56.1 C 226.41 56.09 225.8 59.1 225.8 59.1 L 225.1 59.1 C 225.1 59.1 225.71 56.08 225.7 56.1 C 225.7 55.9 225.8 55.8 225.8 55.6 C 225.8 54.9 225.3 54.4 224.4 54.4 C 223.3 54.4 222.5 55 222.3 56.3 C 222.26 56.26 221.7 59.1 221.7 59.1 L 221 59.1 L 222 53.8 L 222.7 53.8 C 222.7 53.8 222.54 54.66 222.5 54.7 C 223 54.1 223.8 53.8 224.6 53.8 C 225.8 53.8 226.5 54.4 226.5 55.5 Z M 227.6 56.9 C 227.6 55.1 228.9 53.8 230.7 53.8 C 231.6 53.8 232.4 54.1 232.8 54.8 C 232.8 54.8 232.2 55.2 232.2 55.2 C 231.9 54.7 231.3 54.4 230.6 54.4 C 229.3 54.4 228.3 55.4 228.3 56.9 C 228.3 57.9 229 58.5 230.1 58.5 C 230.8 58.5 231.4 58.2 231.7 57.7 C 231.7 57.7 232.3 58.1 232.3 58.1 C 231.8 58.8 231 59.1 230.1 59.1 C 228.6 59.1 227.6 58.3 227.6 56.9 Z M 234.4 52.2 C 234.4 51.9 234.7 51.7 235 51.7 C 235.3 51.7 235.5 51.9 235.5 52.1 C 235.5 52.4 235.2 52.7 234.9 52.7 C 234.6 52.7 234.4 52.5 234.4 52.2 Z M 234.3 53.8 L 235 53.8 L 233.9 59.1 L 233.2 59.1 L 234.3 53.8 Z M 241.7 56 C 241.7 57.8 240.4 59.1 238.7 59.1 C 237.7 59.1 237 58.7 236.7 58 C 236.72 57.98 236.1 61 236.1 61 L 235.4 61 L 236.8 53.8 L 237.5 53.8 C 237.5 53.8 237.35 54.66 237.4 54.7 C 237.9 54.1 238.6 53.8 239.4 53.8 C 240.8 53.8 241.7 54.6 241.7 56 Z M 241 56 C 241 55 240.4 54.4 239.3 54.4 C 237.9 54.4 237 55.4 237 56.9 C 237 57.9 237.6 58.5 238.7 58.5 C 240 58.5 241 57.5 241 56 Z M 244 51.7 L 244.7 51.7 L 243.2 59.1 L 242.5 59.1 L 244 51.7 Z M 245.8 56.7 C 245.8 56.7 245.8 56.8 245.8 56.9 C 245.8 57.9 246.4 58.5 247.6 58.5 C 248.3 58.5 249 58.3 249.4 57.8 C 249.4 57.8 249.7 58.4 249.7 58.4 C 249.2 58.8 248.4 59.1 247.6 59.1 C 246.1 59.1 245.1 58.3 245.1 56.9 C 245.1 55.1 246.4 53.8 248 53.8 C 249.4 53.8 250.3 54.6 250.3 56 C 250.3 56.2 250.3 56.5 250.3 56.7 C 250.3 56.7 245.8 56.7 245.8 56.7 Z M 245.9 56.1 C 245.9 56.1 249.7 56.1 249.7 56.1 C 249.7 56.1 249.7 56 249.7 55.9 C 249.7 54.9 249 54.4 248 54.4 C 247 54.4 246.2 55.1 245.9 56.1 Z M 250.7 58.5 C 250.7 58.5 251.1 57.9 251.1 57.9 C 251.5 58.3 252.2 58.5 252.9 58.5 C 253.9 58.5 254.4 58.2 254.4 57.6 C 254.4 56.4 251.5 57.2 251.5 55.4 C 251.5 54.4 252.4 53.8 253.7 53.8 C 254.4 53.8 255.1 54 255.5 54.3 C 255.5 54.3 255.2 54.8 255.2 54.8 C 254.8 54.5 254.2 54.4 253.7 54.4 C 252.7 54.4 252.2 54.8 252.2 55.4 C 252.2 56.6 255.1 55.7 255.1 57.5 C 255.1 58.5 254.2 59.1 252.8 59.1 C 252 59.1 251.1 58.9 250.7 58.5 Z M 257.2 58.6 C 257.2 58.7 257.1 58.9 257 59.1 C 256.97 59.09 256.2 60.5 256.2 60.5 L 255.7 60.5 C 255.7 60.5 256.37 59.07 256.4 59.1 C 256.2 59 256.1 58.8 256.1 58.6 C 256.1 58.3 256.3 58 256.6 58 C 256.9 58 257.2 58.3 257.2 58.6 Z M 267.5 51.7 L 266 59.1 L 265.3 59.1 C 265.3 59.1 265.49 58.25 265.5 58.3 C 265 58.8 264.3 59.1 263.4 59.1 C 262.1 59.1 261.2 58.3 261.2 56.9 C 261.2 55.1 262.4 53.8 264.1 53.8 C 265.1 53.8 265.8 54.2 266.1 54.9 C 266.12 54.92 266.8 51.7 266.8 51.7 L 267.5 51.7 Z M 265.9 56 C 265.9 55 265.2 54.4 264.1 54.4 C 262.8 54.4 261.9 55.4 261.9 56.9 C 261.9 57.9 262.5 58.5 263.6 58.5 C 264.9 58.5 265.9 57.5 265.9 56 Z M 273.8 53.8 L 272.7 59.1 L 272 59.1 C 272 59.1 272.21 58.25 272.2 58.3 C 271.7 58.8 271 59.1 270.2 59.1 C 268.8 59.1 267.9 58.3 267.9 56.9 C 267.9 55.1 269.1 53.8 270.8 53.8 C 271.8 53.8 272.5 54.2 272.8 54.9 C 272.84 54.92 273.1 53.8 273.1 53.8 L 273.8 53.8 Z M 272.6 56 C 272.6 55 272 54.4 270.9 54.4 C 269.5 54.4 268.6 55.4 268.6 56.9 C 268.6 57.9 269.2 58.5 270.3 58.5 C 271.6 58.5 272.6 57.5 272.6 56 Z M 275.8 57.5 C 275.8 57.6 275.7 57.7 275.7 57.8 C 275.7 58.3 276 58.5 276.5 58.5 C 276.8 58.5 277.1 58.4 277.3 58.3 C 277.3 58.3 277.5 58.8 277.5 58.8 C 277.2 59 276.7 59.1 276.3 59.1 C 275.5 59.1 275 58.7 275 57.9 C 275 57.8 275 57.7 275.1 57.5 C 275.08 57.52 275.7 54.4 275.7 54.4 L 274.8 54.4 L 274.9 53.8 L 275.8 53.8 L 276 52.7 L 276.7 52.7 L 276.5 53.8 L 278.1 53.8 L 278 54.4 L 276.4 54.4 C 276.4 54.4 275.79 57.49 275.8 57.5 Z M 284.3 53.8 L 283.2 59.1 L 282.6 59.1 C 282.6 59.1 282.72 58.25 282.7 58.3 C 282.2 58.8 281.5 59.1 280.7 59.1 C 279.3 59.1 278.4 58.3 278.4 56.9 C 278.4 55.1 279.6 53.8 281.4 53.8 C 282.4 53.8 283.1 54.2 283.4 54.9 C 283.35 54.92 283.6 53.8 283.6 53.8 L 284.3 53.8 Z M 283.1 56 C 283.1 55 282.5 54.4 281.4 54.4 C 280.1 54.4 279.1 55.4 279.1 56.9 C 279.1 57.9 279.7 58.5 280.8 58.5 C 282.1 58.5 283.1 57.5 283.1 56 Z M 293.7 53.8 L 292.6 59.1 L 292 59.1 C 292 59.1 292.12 58.25 292.1 58.3 C 291.6 58.8 290.9 59.1 290.1 59.1 C 288.7 59.1 287.8 58.3 287.8 56.9 C 287.8 55.1 289 53.8 290.8 53.8 C 291.8 53.8 292.5 54.2 292.8 54.9 C 292.75 54.92 293 53.8 293 53.8 L 293.7 53.8 Z M 292.5 56 C 292.5 55 291.9 54.4 290.8 54.4 C 289.5 54.4 288.5 55.4 288.5 56.9 C 288.5 57.9 289.1 58.5 290.2 58.5 C 291.5 58.5 292.5 57.5 292.5 56 Z M 300 55.5 C 300 55.7 300 55.9 299.9 56.1 C 299.92 56.09 299.3 59.1 299.3 59.1 L 298.6 59.1 C 298.6 59.1 299.21 56.08 299.2 56.1 C 299.2 55.9 299.3 55.8 299.3 55.6 C 299.3 54.9 298.8 54.4 297.9 54.4 C 296.8 54.4 296 55 295.8 56.3 C 295.76 56.26 295.2 59.1 295.2 59.1 L 294.5 59.1 L 295.5 53.8 L 296.2 53.8 C 296.2 53.8 296.04 54.66 296 54.7 C 296.5 54.1 297.3 53.8 298.1 53.8 C 299.3 53.8 300 54.4 300 55.5 Z M 307.5 51.7 L 306 59.1 L 305.3 59.1 C 305.3 59.1 305.49 58.25 305.5 58.3 C 305 58.8 304.3 59.1 303.4 59.1 C 302.1 59.1 301.1 58.3 301.1 56.9 C 301.1 55.1 302.4 53.8 304.1 53.8 C 305.1 53.8 305.8 54.2 306.1 54.9 C 306.12 54.92 306.8 51.7 306.8 51.7 L 307.5 51.7 Z M 305.9 56 C 305.9 55 305.2 54.4 304.1 54.4 C 302.8 54.4 301.9 55.4 301.9 56.9 C 301.9 57.9 302.5 58.5 303.6 58.5 C 304.9 58.5 305.9 57.5 305.9 56 Z M 319.9 55.5 C 319.9 55.7 319.9 55.9 319.9 56.1 C 319.87 56.09 319.3 59.1 319.3 59.1 L 318.6 59.1 C 318.6 59.1 319.16 56.08 319.2 56.1 C 319.2 55.9 319.2 55.7 319.2 55.6 C 319.2 54.9 318.8 54.4 317.9 54.4 C 316.9 54.4 316.1 55 315.9 56.2 C 315.87 56.18 315.3 59.1 315.3 59.1 L 314.6 59.1 C 314.6 59.1 315.18 56.08 315.2 56.1 C 315.2 55.9 315.2 55.8 315.2 55.6 C 315.2 54.9 314.8 54.4 313.9 54.4 C 312.9 54.4 312.1 55 311.9 56.3 C 311.87 56.26 311.3 59.1 311.3 59.1 L 310.6 59.1 L 311.6 53.8 L 312.3 53.8 C 312.3 53.8 312.15 54.66 312.1 54.7 C 312.6 54.1 313.3 53.8 314.1 53.8 C 315 53.8 315.6 54.2 315.9 54.8 C 316.4 54.1 317.2 53.8 318.1 53.8 C 319.3 53.8 319.9 54.4 319.9 55.5 Z M 321.8 56.7 C 321.8 56.7 321.8 56.8 321.8 56.9 C 321.8 57.9 322.4 58.5 323.6 58.5 C 324.3 58.5 325 58.3 325.3 57.8 C 325.3 57.8 325.7 58.4 325.7 58.4 C 325.2 58.8 324.4 59.1 323.6 59.1 C 322 59.1 321.1 58.3 321.1 56.9 C 321.1 55.1 322.3 53.8 324 53.8 C 325.4 53.8 326.3 54.6 326.3 56 C 326.3 56.2 326.3 56.5 326.2 56.7 C 326.2 56.7 321.8 56.7 321.8 56.7 Z M 321.9 56.1 C 321.9 56.1 325.6 56.1 325.6 56.1 C 325.7 56.1 325.7 56 325.7 55.9 C 325.7 54.9 325 54.4 324 54.4 C 322.9 54.4 322.2 55.1 321.9 56.1 Z M 328.2 57.5 C 328.2 57.6 328.2 57.7 328.2 57.8 C 328.2 58.3 328.4 58.5 329 58.5 C 329.2 58.5 329.5 58.4 329.8 58.3 C 329.8 58.3 329.9 58.8 329.9 58.8 C 329.6 59 329.2 59.1 328.8 59.1 C 328 59.1 327.5 58.7 327.5 57.9 C 327.5 57.8 327.5 57.7 327.5 57.5 C 327.53 57.52 328.1 54.4 328.1 54.4 L 327.2 54.4 L 327.3 53.8 L 328.3 53.8 L 328.5 52.7 L 329.2 52.7 L 329 53.8 L 330.6 53.8 L 330.4 54.4 L 328.8 54.4 C 328.8 54.4 328.24 57.49 328.2 57.5 Z M 336.5 55.5 C 336.5 55.7 336.5 55.9 336.5 56.1 C 336.47 56.09 335.9 59.1 335.9 59.1 L 335.2 59.1 C 335.2 59.1 335.76 56.08 335.8 56.1 C 335.8 55.9 335.8 55.8 335.8 55.6 C 335.8 54.9 335.4 54.4 334.4 54.4 C 333.3 54.4 332.6 55 332.3 56.3 C 332.31 56.26 331.7 59.1 331.7 59.1 L 331 59.1 L 332.5 51.7 L 333.2 51.7 C 333.2 51.7 332.64 54.61 332.6 54.6 C 333.1 54 333.8 53.8 334.6 53.8 C 335.8 53.8 336.5 54.4 336.5 55.5 Z M 337.7 56.9 C 337.7 55.1 338.9 53.8 340.7 53.8 C 342.2 53.8 343.1 54.6 343.1 56 C 343.1 57.8 341.8 59.1 340.1 59.1 C 338.6 59.1 337.7 58.3 337.7 56.9 Z M 342.4 56 C 342.4 55 341.8 54.4 340.7 54.4 C 339.4 54.4 338.4 55.4 338.4 56.9 C 338.4 57.9 339 58.5 340.1 58.5 C 341.4 58.5 342.4 57.5 342.4 56 Z M 350.4 51.7 L 348.9 59.1 L 348.2 59.1 C 348.2 59.1 348.37 58.25 348.4 58.3 C 347.9 58.8 347.2 59.1 346.3 59.1 C 345 59.1 344 58.3 344 56.9 C 344 55.1 345.3 53.8 347 53.8 C 348 53.8 348.7 54.2 349 54.9 C 349 54.92 349.7 51.7 349.7 51.7 L 350.4 51.7 Z M 348.8 56 C 348.8 55 348.1 54.4 347 54.4 C 345.7 54.4 344.7 55.4 344.7 56.9 C 344.7 57.9 345.4 58.5 346.5 58.5 C 347.8 58.5 348.8 57.5 348.8 56 Z M 350.3 58.5 C 350.3 58.5 350.7 57.9 350.7 57.9 C 351.1 58.3 351.8 58.5 352.5 58.5 C 353.5 58.5 354.1 58.2 354.1 57.6 C 354.1 56.4 351.1 57.2 351.1 55.4 C 351.1 54.4 352 53.8 353.4 53.8 C 354 53.8 354.7 54 355.1 54.3 C 355.1 54.3 354.8 54.8 354.8 54.8 C 354.4 54.5 353.8 54.4 353.3 54.4 C 352.3 54.4 351.8 54.8 351.8 55.4 C 351.8 56.6 354.8 55.7 354.8 57.5 C 354.8 58.5 353.8 59.1 352.4 59.1 C 351.6 59.1 350.7 58.9 350.3 58.5 Z M 359.5 57.5 C 359.5 57.6 359.5 57.7 359.5 57.8 C 359.5 58.3 359.8 58.5 360.3 58.5 C 360.6 58.5 360.8 58.4 361.1 58.3 C 361.1 58.3 361.2 58.8 361.2 58.8 C 360.9 59 360.5 59.1 360.1 59.1 C 359.3 59.1 358.8 58.7 358.8 57.9 C 358.8 57.8 358.8 57.7 358.8 57.5 C 358.84 57.52 359.4 54.4 359.4 54.4 L 358.5 54.4 L 358.6 53.8 L 359.6 53.8 L 359.8 52.7 L 360.5 52.7 L 360.3 53.8 L 361.9 53.8 L 361.8 54.4 L 360.2 54.4 C 360.2 54.4 359.55 57.49 359.5 57.5 Z M 362.1 56.9 C 362.1 55.1 363.4 53.8 365.2 53.8 C 366.6 53.8 367.6 54.6 367.6 56 C 367.6 57.8 366.3 59.1 364.5 59.1 C 363.1 59.1 362.1 58.3 362.1 56.9 Z M 366.9 56 C 366.9 55 366.2 54.4 365.1 54.4 C 363.8 54.4 362.8 55.4 362.8 56.9 C 362.8 57.9 363.5 58.5 364.6 58.5 C 365.9 58.5 366.9 57.5 366.9 56 Z M 377.4 51.7 L 375.9 59.1 L 375.2 59.1 C 375.2 59.1 375.36 58.25 375.4 58.3 C 374.9 58.8 374.2 59.1 373.3 59.1 C 372 59.1 371 58.3 371 56.9 C 371 55.1 372.3 53.8 374 53.8 C 375 53.8 375.7 54.2 376 54.9 C 375.99 54.92 376.6 51.7 376.6 51.7 L 377.4 51.7 Z M 375.7 56 C 375.7 55 375.1 54.4 374 54.4 C 372.7 54.4 371.7 55.4 371.7 56.9 C 371.7 57.9 372.4 58.5 373.5 58.5 C 374.8 58.5 375.7 57.5 375.7 56 Z M 378.5 56.7 C 378.5 56.7 378.5 56.8 378.5 56.9 C 378.5 57.9 379.1 58.5 380.3 58.5 C 381 58.5 381.6 58.3 382 57.8 C 382 57.8 382.3 58.4 382.3 58.4 C 381.8 58.8 381 59.1 380.2 59.1 C 378.7 59.1 377.8 58.3 377.8 56.9 C 377.8 55.1 379 53.8 380.7 53.8 C 382.1 53.8 383 54.6 383 56 C 383 56.2 382.9 56.5 382.9 56.7 C 382.9 56.7 378.5 56.7 378.5 56.7 Z M 378.6 56.1 C 378.6 56.1 382.3 56.1 382.3 56.1 C 382.3 56.1 382.3 56 382.3 55.9 C 382.3 54.9 381.6 54.4 380.7 54.4 C 379.6 54.4 378.8 55.1 378.6 56.1 Z M 383.4 58.5 C 383.4 58.5 383.7 57.9 383.7 57.9 C 384.1 58.3 384.8 58.5 385.5 58.5 C 386.5 58.5 387.1 58.2 387.1 57.6 C 387.1 56.4 384.1 57.2 384.1 55.4 C 384.1 54.4 385 53.8 386.4 53.8 C 387.1 53.8 387.8 54 388.2 54.3 C 388.2 54.3 387.9 54.8 387.9 54.8 C 387.5 54.5 386.9 54.4 386.3 54.4 C 385.4 54.4 384.8 54.8 384.8 55.4 C 384.8 56.6 387.8 55.7 387.8 57.5 C 387.8 58.5 386.9 59.1 385.5 59.1 C 384.6 59.1 383.8 58.9 383.4 58.5 Z M 390 52.2 C 390 51.9 390.2 51.7 390.5 51.7 C 390.8 51.7 391 51.9 391 52.1 C 391 52.4 390.8 52.7 390.5 52.7 C 390.2 52.7 390 52.5 390 52.2 Z M 389.8 53.8 L 390.5 53.8 L 389.5 59.1 L 388.8 59.1 L 389.8 53.8 Z M 397.3 53.8 C 397.3 53.8 396.38 58.44 396.4 58.4 C 396 60.3 395 61.1 393.3 61.1 C 392.3 61.1 391.5 60.8 391 60.3 C 391 60.3 391.4 59.7 391.4 59.7 C 391.8 60.2 392.5 60.4 393.4 60.4 C 394.7 60.4 395.4 59.8 395.7 58.6 C 395.7 58.6 395.8 58 395.8 58 C 395.3 58.5 394.6 58.9 393.7 58.9 C 392.3 58.9 391.4 58.1 391.4 56.8 C 391.4 55.1 392.6 53.8 394.4 53.8 C 395.3 53.8 396.1 54.2 396.4 55 C 396.4 54.98 396.6 53.8 396.6 53.8 L 397.3 53.8 Z M 396.1 55.9 C 396.1 55 395.5 54.4 394.4 54.4 C 393 54.4 392.1 55.4 392.1 56.7 C 392.1 57.7 392.7 58.3 393.8 58.3 C 395.1 58.3 396.1 57.3 396.1 55.9 Z M 403.6 55.5 C 403.6 55.7 403.6 55.9 403.5 56.1 C 403.54 56.09 402.9 59.1 402.9 59.1 L 402.2 59.1 C 402.2 59.1 402.83 56.08 402.8 56.1 C 402.9 55.9 402.9 55.8 402.9 55.6 C 402.9 54.9 402.4 54.4 401.5 54.4 C 400.4 54.4 399.6 55 399.4 56.3 C 399.38 56.26 398.8 59.1 398.8 59.1 L 398.1 59.1 L 399.1 53.8 L 399.8 53.8 C 399.8 53.8 399.66 54.66 399.7 54.7 C 400.2 54.1 400.9 53.8 401.7 53.8 C 402.9 53.8 403.6 54.4 403.6 55.5 Z " stroke="none" fill="#000"/>
  </g>
  <g id="Polygon115342">
    <path d="M 34.7 37.2 C 34.7 36.9 34.9 36.7 35.2 36.7 C 35.5 36.7 35.7 36.9 35.7 37.1 C 35.7 37.4 35.5 37.7 35.2 37.7 C 34.9 37.7 34.7 37.5 34.7 37.2 Z M 34.5 38.8 L 35.2 38.8 L 34.2 44.1 L 33.5 44.1 L 34.5 38.8 Z M 41.5 40.5 C 41.5 40.7 41.5 40.9 41.4 41.1 C 41.45 41.09 40.8 44.1 40.8 44.1 L 40.1 44.1 C 40.1 44.1 40.74 41.08 40.7 41.1 C 40.8 40.9 40.8 40.8 40.8 40.6 C 40.8 39.9 40.3 39.4 39.4 39.4 C 38.3 39.4 37.5 40 37.3 41.3 C 37.29 41.26 36.7 44.1 36.7 44.1 L 36 44.1 L 37.1 38.8 L 37.7 38.8 C 37.7 38.8 37.57 39.66 37.6 39.7 C 38.1 39.1 38.8 38.8 39.6 38.8 C 40.8 38.8 41.5 39.4 41.5 40.5 Z M 43.7 42.5 C 43.7 42.6 43.7 42.7 43.7 42.8 C 43.7 43.3 43.9 43.5 44.4 43.5 C 44.7 43.5 45 43.4 45.2 43.3 C 45.2 43.3 45.4 43.8 45.4 43.8 C 45.1 44 44.6 44.1 44.2 44.1 C 43.5 44.1 43 43.7 43 42.9 C 43 42.8 43 42.7 43 42.5 C 43.01 42.52 43.6 39.4 43.6 39.4 L 42.7 39.4 L 42.8 38.8 L 43.7 38.8 L 44 37.7 L 44.7 37.7 L 44.4 38.8 L 46 38.8 L 45.9 39.4 L 44.3 39.4 C 44.3 39.4 43.72 42.49 43.7 42.5 Z M 47 41.7 C 47 41.7 47 41.8 47 41.9 C 47 42.9 47.6 43.5 48.8 43.5 C 49.5 43.5 50.2 43.3 50.6 42.8 C 50.6 42.8 50.9 43.4 50.9 43.4 C 50.4 43.8 49.6 44.1 48.8 44.1 C 47.3 44.1 46.3 43.3 46.3 41.9 C 46.3 40.1 47.6 38.8 49.2 38.8 C 50.6 38.8 51.5 39.6 51.5 41 C 51.5 41.2 51.5 41.5 51.5 41.7 C 51.5 41.7 47 41.7 47 41.7 Z M 47.1 41.1 C 47.1 41.1 50.9 41.1 50.9 41.1 C 50.9 41.1 50.9 41 50.9 40.9 C 50.9 39.9 50.2 39.4 49.2 39.4 C 48.2 39.4 47.4 40.1 47.1 41.1 Z M 56.1 38.8 C 56.1 38.8 55.9 39.5 55.9 39.5 C 55.9 39.5 55.8 39.5 55.7 39.5 C 54.6 39.5 53.9 40.1 53.6 41.4 C 53.6 41.41 53.1 44.1 53.1 44.1 L 52.4 44.1 L 53.4 38.8 L 54.1 38.8 C 54.1 38.8 53.9 39.78 53.9 39.8 C 54.4 39.1 55.1 38.8 56.1 38.8 Z M 62.1 38.8 L 61 44.1 L 60.4 44.1 C 60.4 44.1 60.52 43.25 60.5 43.3 C 60 43.8 59.3 44.1 58.5 44.1 C 57.1 44.1 56.2 43.3 56.2 41.9 C 56.2 40.1 57.4 38.8 59.2 38.8 C 60.2 38.8 60.9 39.2 61.2 39.9 C 61.15 39.92 61.4 38.8 61.4 38.8 L 62.1 38.8 Z M 60.9 41 C 60.9 40 60.3 39.4 59.2 39.4 C 57.9 39.4 56.9 40.4 56.9 41.9 C 56.9 42.9 57.5 43.5 58.6 43.5 C 59.9 43.5 60.9 42.5 60.9 41 Z M 62.9 41.9 C 62.9 40.1 64.2 38.8 66 38.8 C 66.9 38.8 67.7 39.1 68 39.8 C 68 39.8 67.4 40.2 67.4 40.2 C 67.1 39.7 66.6 39.4 65.9 39.4 C 64.6 39.4 63.6 40.4 63.6 41.9 C 63.6 42.9 64.3 43.5 65.4 43.5 C 66 43.5 66.7 43.2 67 42.7 C 67 42.7 67.5 43.1 67.5 43.1 C 67.1 43.8 66.2 44.1 65.3 44.1 C 63.8 44.1 62.9 43.3 62.9 41.9 Z M 69.8 42.5 C 69.8 42.6 69.8 42.7 69.8 42.8 C 69.8 43.3 70 43.5 70.6 43.5 C 70.8 43.5 71.1 43.4 71.4 43.3 C 71.4 43.3 71.5 43.8 71.5 43.8 C 71.2 44 70.8 44.1 70.4 44.1 C 69.6 44.1 69.1 43.7 69.1 42.9 C 69.1 42.8 69.1 42.7 69.1 42.5 C 69.12 42.52 69.7 39.4 69.7 39.4 L 68.8 39.4 L 68.9 38.8 L 69.9 38.8 L 70.1 37.7 L 70.8 37.7 L 70.6 38.8 L 72.2 38.8 L 72 39.4 L 70.4 39.4 C 70.4 39.4 69.83 42.49 69.8 42.5 Z M 73.9 37.2 C 73.9 36.9 74.1 36.7 74.4 36.7 C 74.7 36.7 74.9 36.9 74.9 37.1 C 74.9 37.4 74.7 37.7 74.3 37.7 C 74.1 37.7 73.9 37.5 73.9 37.2 Z M 73.7 38.8 L 74.4 38.8 L 73.3 44.1 L 72.6 44.1 L 73.7 38.8 Z M 75.2 41.9 C 75.2 40.1 76.5 38.8 78.2 38.8 C 79.7 38.8 80.6 39.6 80.6 41 C 80.6 42.8 79.4 44.1 77.6 44.1 C 76.1 44.1 75.2 43.3 75.2 41.9 Z M 79.9 41 C 79.9 40 79.3 39.4 78.2 39.4 C 76.9 39.4 75.9 40.4 75.9 41.9 C 75.9 42.9 76.5 43.5 77.6 43.5 C 78.9 43.5 79.9 42.5 79.9 41 Z M 87 40.5 C 87 40.7 86.9 40.9 86.9 41.1 C 86.89 41.09 86.3 44.1 86.3 44.1 L 85.6 44.1 C 85.6 44.1 86.18 41.08 86.2 41.1 C 86.2 40.9 86.2 40.8 86.2 40.6 C 86.2 39.9 85.8 39.4 84.9 39.4 C 83.8 39.4 83 40 82.7 41.3 C 82.73 41.26 82.2 44.1 82.2 44.1 L 81.5 44.1 L 82.5 38.8 L 83.2 38.8 C 83.2 38.8 83.01 39.66 83 39.7 C 83.5 39.1 84.2 38.8 85.1 38.8 C 86.3 38.8 87 39.4 87 40.5 Z M 87.7 43.5 C 87.7 43.5 88 42.9 88 42.9 C 88.4 43.3 89.1 43.5 89.8 43.5 C 90.8 43.5 91.4 43.2 91.4 42.6 C 91.4 41.4 88.4 42.2 88.4 40.4 C 88.4 39.4 89.3 38.8 90.7 38.8 C 91.3 38.8 92.1 39 92.5 39.3 C 92.5 39.3 92.2 39.8 92.2 39.8 C 91.7 39.5 91.2 39.4 90.6 39.4 C 89.6 39.4 89.1 39.8 89.1 40.4 C 89.1 41.6 92.1 40.7 92.1 42.5 C 92.1 43.5 91.1 44.1 89.7 44.1 C 88.9 44.1 88.1 43.9 87.7 43.5 Z M 101.6 38.8 L 100.5 44.1 L 99.8 44.1 C 99.8 44.1 100.01 43.25 100 43.3 C 99.5 43.8 98.8 44.1 98 44.1 C 96.6 44.1 95.7 43.3 95.7 41.9 C 95.7 40.1 96.9 38.8 98.6 38.8 C 99.6 38.8 100.3 39.2 100.6 39.9 C 100.64 39.92 100.9 38.8 100.9 38.8 L 101.6 38.8 Z M 100.4 41 C 100.4 40 99.8 39.4 98.7 39.4 C 97.4 39.4 96.4 40.4 96.4 41.9 C 96.4 42.9 97 43.5 98.1 43.5 C 99.4 43.5 100.4 42.5 100.4 41 Z M 111.7 40.5 C 111.7 40.7 111.7 40.9 111.6 41.1 C 111.64 41.09 111 44.1 111 44.1 L 110.3 44.1 C 110.3 44.1 110.93 41.08 110.9 41.1 C 111 40.9 111 40.7 111 40.6 C 111 39.9 110.6 39.4 109.7 39.4 C 108.6 39.4 107.9 40 107.6 41.2 C 107.64 41.18 107.1 44.1 107.1 44.1 L 106.4 44.1 C 106.4 44.1 106.95 41.08 107 41.1 C 107 40.9 107 40.8 107 40.6 C 107 39.9 106.6 39.4 105.7 39.4 C 104.6 39.4 103.9 40 103.6 41.3 C 103.64 41.26 103.1 44.1 103.1 44.1 L 102.4 44.1 L 103.4 38.8 L 104.1 38.8 C 104.1 38.8 103.92 39.66 103.9 39.7 C 104.4 39.1 105.1 38.8 105.9 38.8 C 106.8 38.8 107.4 39.2 107.6 39.8 C 108.2 39.1 108.9 38.8 109.9 38.8 C 111 38.8 111.7 39.4 111.7 40.5 Z M 112.9 41.9 C 112.9 40.1 114.1 38.8 115.9 38.8 C 117.4 38.8 118.3 39.6 118.3 41 C 118.3 42.8 117 44.1 115.3 44.1 C 113.8 44.1 112.9 43.3 112.9 41.9 Z M 117.6 41 C 117.6 40 117 39.4 115.9 39.4 C 114.5 39.4 113.6 40.4 113.6 41.9 C 113.6 42.9 114.2 43.5 115.3 43.5 C 116.6 43.5 117.6 42.5 117.6 41 Z M 124.6 40.5 C 124.6 40.7 124.6 40.9 124.6 41.1 C 124.57 41.09 124 44.1 124 44.1 L 123.3 44.1 C 123.3 44.1 123.86 41.08 123.9 41.1 C 123.9 40.9 123.9 40.8 123.9 40.6 C 123.9 39.9 123.5 39.4 122.5 39.4 C 121.4 39.4 120.7 40 120.4 41.3 C 120.41 41.26 119.8 44.1 119.8 44.1 L 119.1 44.1 L 120.2 38.8 L 120.9 38.8 C 120.9 38.8 120.69 39.66 120.7 39.7 C 121.2 39.1 121.9 38.8 122.7 38.8 C 123.9 38.8 124.6 39.4 124.6 40.5 Z M 131.7 38.8 C 131.7 38.8 130.8 43.44 130.8 43.4 C 130.4 45.3 129.5 46.1 127.7 46.1 C 126.8 46.1 125.9 45.8 125.4 45.3 C 125.4 45.3 125.8 44.7 125.8 44.7 C 126.2 45.2 127 45.4 127.8 45.4 C 129.1 45.4 129.8 44.8 130.1 43.6 C 130.1 43.6 130.2 43 130.2 43 C 129.7 43.5 129 43.9 128.1 43.9 C 126.7 43.9 125.8 43.1 125.8 41.8 C 125.8 40.1 127 38.8 128.8 38.8 C 129.7 38.8 130.5 39.2 130.8 40 C 130.82 39.98 131 38.8 131 38.8 L 131.7 38.8 Z M 130.5 40.9 C 130.5 40 129.9 39.4 128.8 39.4 C 127.5 39.4 126.5 40.4 126.5 41.7 C 126.5 42.7 127.1 43.3 128.2 43.3 C 129.6 43.3 130.5 42.3 130.5 40.9 Z M 140.8 40.5 C 140.8 40.7 140.7 40.9 140.7 41.1 C 140.71 41.09 140.1 44.1 140.1 44.1 L 139.4 44.1 C 139.4 44.1 140 41.08 140 41.1 C 140 40.9 140.1 40.8 140.1 40.6 C 140.1 39.9 139.6 39.4 138.7 39.4 C 137.6 39.4 136.8 40 136.6 41.3 C 136.55 41.26 136 44.1 136 44.1 L 135.3 44.1 L 136.8 36.7 L 137.5 36.7 C 137.5 36.7 136.88 39.61 136.9 39.6 C 137.4 39 138.1 38.8 138.9 38.8 C 140.1 38.8 140.8 39.4 140.8 40.5 Z M 147.6 38.8 L 146.6 44.1 L 145.9 44.1 C 145.9 44.1 146.06 43.24 146.1 43.2 C 145.6 43.9 144.8 44.1 144 44.1 C 142.9 44.1 142.2 43.5 142.2 42.4 C 142.2 42.2 142.2 42 142.2 41.8 C 142.22 41.82 142.8 38.8 142.8 38.8 L 143.5 38.8 C 143.5 38.8 142.93 41.82 142.9 41.8 C 142.9 42 142.9 42.1 142.9 42.3 C 142.9 43.1 143.3 43.5 144.2 43.5 C 145.3 43.5 146.1 42.9 146.4 41.7 C 146.35 41.65 146.9 38.8 146.9 38.8 L 147.6 38.8 Z M 157.8 40.5 C 157.8 40.7 157.7 40.9 157.7 41.1 C 157.7 41.09 157.1 44.1 157.1 44.1 L 156.4 44.1 C 156.4 44.1 156.99 41.08 157 41.1 C 157 40.9 157 40.7 157 40.6 C 157 39.9 156.6 39.4 155.7 39.4 C 154.7 39.4 153.9 40 153.7 41.2 C 153.7 41.18 153.1 44.1 153.1 44.1 L 152.4 44.1 C 152.4 44.1 153.01 41.08 153 41.1 C 153 40.9 153.1 40.8 153.1 40.6 C 153.1 39.9 152.6 39.4 151.8 39.4 C 150.7 39.4 149.9 40 149.7 41.3 C 149.7 41.26 149.1 44.1 149.1 44.1 L 148.4 44.1 L 149.5 38.8 L 150.1 38.8 C 150.1 38.8 149.98 39.66 150 39.7 C 150.5 39.1 151.2 38.8 152 38.8 C 152.9 38.8 153.5 39.2 153.7 39.8 C 154.2 39.1 155 38.8 155.9 38.8 C 157.1 38.8 157.8 39.4 157.8 40.5 Z M 164.8 38.8 L 163.8 44.1 L 163.1 44.1 C 163.1 44.1 163.28 43.25 163.3 43.3 C 162.8 43.8 162.1 44.1 161.2 44.1 C 159.9 44.1 158.9 43.3 158.9 41.9 C 158.9 40.1 160.2 38.8 161.9 38.8 C 162.9 38.8 163.6 39.2 163.9 39.9 C 163.91 39.92 164.1 38.8 164.1 38.8 L 164.8 38.8 Z M 163.7 41 C 163.7 40 163 39.4 161.9 39.4 C 160.6 39.4 159.7 40.4 159.7 41.9 C 159.7 42.9 160.3 43.5 161.4 43.5 C 162.7 43.5 163.7 42.5 163.7 41 Z M 171.1 40.5 C 171.1 40.7 171.1 40.9 171.1 41.1 C 171.08 41.09 170.5 44.1 170.5 44.1 L 169.8 44.1 C 169.8 44.1 170.37 41.08 170.4 41.1 C 170.4 40.9 170.4 40.8 170.4 40.6 C 170.4 39.9 170 39.4 169.1 39.4 C 167.9 39.4 167.2 40 166.9 41.3 C 166.92 41.26 166.4 44.1 166.4 44.1 L 165.6 44.1 L 166.7 38.8 L 167.4 38.8 C 167.4 38.8 167.2 39.66 167.2 39.7 C 167.7 39.1 168.4 38.8 169.3 38.8 C 170.4 38.8 171.1 39.4 171.1 40.5 Z M 171.8 43.5 C 171.8 43.5 172.2 42.9 172.2 42.9 C 172.6 43.3 173.3 43.5 174 43.5 C 175 43.5 175.6 43.2 175.6 42.6 C 175.6 41.4 172.6 42.2 172.6 40.4 C 172.6 39.4 173.5 38.8 174.9 38.8 C 175.5 38.8 176.2 39 176.6 39.3 C 176.6 39.3 176.3 39.8 176.3 39.8 C 175.9 39.5 175.3 39.4 174.8 39.4 C 173.8 39.4 173.3 39.8 173.3 40.4 C 173.3 41.6 176.3 40.7 176.3 42.5 C 176.3 43.5 175.3 44.1 173.9 44.1 C 173.1 44.1 172.2 43.9 171.8 43.5 Z M 185.8 38.8 L 184.7 44.1 L 184 44.1 C 184 44.1 184.19 43.25 184.2 43.3 C 183.7 43.8 183 44.1 182.1 44.1 C 180.8 44.1 179.9 43.3 179.9 41.9 C 179.9 40.1 181.1 38.8 182.8 38.8 C 183.8 38.8 184.5 39.2 184.8 39.9 C 184.82 39.92 185 38.8 185 38.8 L 185.8 38.8 Z M 184.6 41 C 184.6 40 183.9 39.4 182.8 39.4 C 181.5 39.4 180.6 40.4 180.6 41.9 C 180.6 42.9 181.2 43.5 182.3 43.5 C 183.6 43.5 184.6 42.5 184.6 41 Z M 192 40.5 C 192 40.7 192 40.9 192 41.1 C 191.98 41.09 191.4 44.1 191.4 44.1 L 190.7 44.1 C 190.7 44.1 191.27 41.08 191.3 41.1 C 191.3 40.9 191.3 40.8 191.3 40.6 C 191.3 39.9 190.9 39.4 190 39.4 C 188.8 39.4 188.1 40 187.8 41.3 C 187.82 41.26 187.3 44.1 187.3 44.1 L 186.6 44.1 L 187.6 38.8 L 188.3 38.8 C 188.3 38.8 188.1 39.66 188.1 39.7 C 188.6 39.1 189.3 38.8 190.2 38.8 C 191.4 38.8 192 39.4 192 40.5 Z M 199.5 36.7 L 198.1 44.1 L 197.4 44.1 C 197.4 44.1 197.56 43.25 197.6 43.3 C 197.1 43.8 196.4 44.1 195.5 44.1 C 194.2 44.1 193.2 43.3 193.2 41.9 C 193.2 40.1 194.5 38.8 196.2 38.8 C 197.2 38.8 197.9 39.2 198.2 39.9 C 198.19 39.92 198.8 36.7 198.8 36.7 L 199.5 36.7 Z M 197.9 41 C 197.9 40 197.3 39.4 196.2 39.4 C 194.9 39.4 193.9 40.4 193.9 41.9 C 193.9 42.9 194.6 43.5 195.7 43.5 C 197 43.5 197.9 42.5 197.9 41 Z M 202.6 41.9 C 202.6 40.1 203.9 38.8 205.7 38.8 C 207.1 38.8 208 39.6 208 41 C 208 42.8 206.8 44.1 205 44.1 C 203.5 44.1 202.6 43.3 202.6 41.9 Z M 207.3 41 C 207.3 40 206.7 39.4 205.6 39.4 C 204.3 39.4 203.3 40.4 203.3 41.9 C 203.3 42.9 204 43.5 205.1 43.5 C 206.4 43.5 207.3 42.5 207.3 41 Z M 210 42.5 C 210 42.6 210 42.7 210 42.8 C 210 43.3 210.2 43.5 210.7 43.5 C 211 43.5 211.3 43.4 211.5 43.3 C 211.5 43.3 211.7 43.8 211.7 43.8 C 211.4 44 210.9 44.1 210.5 44.1 C 209.7 44.1 209.3 43.7 209.3 42.9 C 209.3 42.8 209.3 42.7 209.3 42.5 C 209.29 42.52 209.9 39.4 209.9 39.4 L 209 39.4 L 209.1 38.8 L 210 38.8 L 210.3 37.7 L 211 37.7 L 210.7 38.8 L 212.3 38.8 L 212.2 39.4 L 210.6 39.4 C 210.6 39.4 210 42.49 210 42.5 Z M 218.3 40.5 C 218.3 40.7 218.3 40.9 218.2 41.1 C 218.23 41.09 217.6 44.1 217.6 44.1 L 216.9 44.1 C 216.9 44.1 217.52 41.08 217.5 41.1 C 217.6 40.9 217.6 40.8 217.6 40.6 C 217.6 39.9 217.1 39.4 216.2 39.4 C 215.1 39.4 214.3 40 214.1 41.3 C 214.07 41.26 213.5 44.1 213.5 44.1 L 212.8 44.1 L 214.3 36.7 L 215 36.7 C 215 36.7 214.4 39.61 214.4 39.6 C 214.9 39 215.6 38.8 216.4 38.8 C 217.6 38.8 218.3 39.4 218.3 40.5 Z M 220.2 41.7 C 220.2 41.7 220.2 41.8 220.2 41.9 C 220.2 42.9 220.8 43.5 222 43.5 C 222.7 43.5 223.3 43.3 223.7 42.8 C 223.7 42.8 224 43.4 224 43.4 C 223.5 43.8 222.7 44.1 221.9 44.1 C 220.4 44.1 219.5 43.3 219.5 41.9 C 219.5 40.1 220.7 38.8 222.4 38.8 C 223.8 38.8 224.7 39.6 224.7 41 C 224.7 41.2 224.6 41.5 224.6 41.7 C 224.6 41.7 220.2 41.7 220.2 41.7 Z M 220.2 41.1 C 220.2 41.1 224 41.1 224 41.1 C 224 41.1 224 41 224 40.9 C 224 39.9 223.3 39.4 222.4 39.4 C 221.3 39.4 220.5 40.1 220.2 41.1 Z M 229.2 38.8 C 229.2 38.8 229.1 39.5 229.1 39.5 C 229 39.5 229 39.5 228.9 39.5 C 227.8 39.5 227 40.1 226.7 41.4 C 226.74 41.41 226.2 44.1 226.2 44.1 L 225.5 44.1 L 226.5 38.8 L 227.2 38.8 C 227.2 38.8 227.04 39.78 227 39.8 C 227.5 39.1 228.2 38.8 229.2 38.8 Z M 232.8 41.7 C 232.8 41.7 232.8 41.8 232.8 41.9 C 232.8 42.9 233.4 43.5 234.6 43.5 C 235.3 43.5 235.9 43.3 236.3 42.8 C 236.3 42.8 236.6 43.4 236.6 43.4 C 236.1 43.8 235.4 44.1 234.5 44.1 C 233 44.1 232.1 43.3 232.1 41.9 C 232.1 40.1 233.3 38.8 235 38.8 C 236.4 38.8 237.3 39.6 237.3 41 C 237.3 41.2 237.3 41.5 237.2 41.7 C 237.2 41.7 232.8 41.7 232.8 41.7 Z M 232.9 41.1 C 232.9 41.1 236.6 41.1 236.6 41.1 C 236.6 41.1 236.6 41 236.6 40.9 C 236.6 39.9 236 39.4 235 39.4 C 233.9 39.4 233.1 40.1 232.9 41.1 Z M 239.6 36.7 L 240.3 36.7 L 238.8 44.1 L 238.1 44.1 L 239.6 36.7 Z M 241.4 41.7 C 241.4 41.7 241.4 41.8 241.4 41.9 C 241.4 42.9 242 43.5 243.2 43.5 C 243.9 43.5 244.6 43.3 244.9 42.8 C 244.9 42.8 245.3 43.4 245.3 43.4 C 244.8 43.8 244 44.1 243.2 44.1 C 241.6 44.1 240.7 43.3 240.7 41.9 C 240.7 40.1 241.9 38.8 243.6 38.8 C 245 38.8 245.9 39.6 245.9 41 C 245.9 41.2 245.9 41.5 245.8 41.7 C 245.8 41.7 241.4 41.7 241.4 41.7 Z M 241.5 41.1 C 241.5 41.1 245.2 41.1 245.2 41.1 C 245.3 41.1 245.3 41 245.3 40.9 C 245.3 39.9 244.6 39.4 243.6 39.4 C 242.5 39.4 241.8 40.1 241.5 41.1 Z M 256.1 40.5 C 256.1 40.7 256.1 40.9 256 41.1 C 256.02 41.09 255.4 44.1 255.4 44.1 L 254.7 44.1 C 254.7 44.1 255.31 41.08 255.3 41.1 C 255.3 40.9 255.4 40.7 255.4 40.6 C 255.4 39.9 254.9 39.4 254.1 39.4 C 253 39.4 252.3 40 252 41.2 C 252.02 41.18 251.4 44.1 251.4 44.1 L 250.7 44.1 C 250.7 44.1 251.33 41.08 251.3 41.1 C 251.4 40.9 251.4 40.8 251.4 40.6 C 251.4 39.9 251 39.4 250.1 39.4 C 249 39.4 248.3 40 248 41.3 C 248.02 41.26 247.5 44.1 247.5 44.1 L 246.7 44.1 L 247.8 38.8 L 248.5 38.8 C 248.5 38.8 248.3 39.66 248.3 39.7 C 248.8 39.1 249.5 38.8 250.3 38.8 C 251.2 38.8 251.8 39.2 252 39.8 C 252.5 39.1 253.3 38.8 254.2 38.8 C 255.4 38.8 256.1 39.4 256.1 40.5 Z M 258 41.7 C 258 41.7 258 41.8 258 41.9 C 258 42.9 258.6 43.5 259.8 43.5 C 260.5 43.5 261.1 43.3 261.5 42.8 C 261.5 42.8 261.8 43.4 261.8 43.4 C 261.3 43.8 260.5 44.1 259.7 44.1 C 258.2 44.1 257.3 43.3 257.3 41.9 C 257.3 40.1 258.5 38.8 260.2 38.8 C 261.6 38.8 262.5 39.6 262.5 41 C 262.5 41.2 262.4 41.5 262.4 41.7 C 262.4 41.7 258 41.7 258 41.7 Z M 258 41.1 C 258 41.1 261.8 41.1 261.8 41.1 C 261.8 41.1 261.8 41 261.8 40.9 C 261.8 39.9 261.1 39.4 260.2 39.4 C 259.1 39.4 258.3 40.1 258 41.1 Z M 268.8 40.5 C 268.8 40.7 268.8 40.9 268.7 41.1 C 268.73 41.09 268.1 44.1 268.1 44.1 L 267.4 44.1 C 267.4 44.1 268.02 41.08 268 41.1 C 268.1 40.9 268.1 40.8 268.1 40.6 C 268.1 39.9 267.6 39.4 266.7 39.4 C 265.6 39.4 264.8 40 264.6 41.3 C 264.57 41.26 264 44.1 264 44.1 L 263.3 44.1 L 264.3 38.8 L 265 38.8 C 265 38.8 264.85 39.66 264.9 39.7 C 265.4 39.1 266.1 38.8 266.9 38.8 C 268.1 38.8 268.8 39.4 268.8 40.5 Z M 271 42.5 C 271 42.6 271 42.7 271 42.8 C 271 43.3 271.2 43.5 271.7 43.5 C 272 43.5 272.3 43.4 272.5 43.3 C 272.5 43.3 272.7 43.8 272.7 43.8 C 272.4 44 271.9 44.1 271.5 44.1 C 270.7 44.1 270.3 43.7 270.3 42.9 C 270.3 42.8 270.3 42.7 270.3 42.5 C 270.29 42.52 270.9 39.4 270.9 39.4 L 270 39.4 L 270.1 38.8 L 271 38.8 L 271.3 37.7 L 272 37.7 L 271.7 38.8 L 273.3 38.8 L 273.2 39.4 L 271.6 39.4 C 271.6 39.4 271 42.49 271 42.5 Z M 273.5 43.5 C 273.5 43.5 273.8 42.9 273.8 42.9 C 274.2 43.3 274.9 43.5 275.7 43.5 C 276.7 43.5 277.2 43.2 277.2 42.6 C 277.2 41.4 274.2 42.2 274.2 40.4 C 274.2 39.4 275.1 38.8 276.5 38.8 C 277.2 38.8 277.9 39 278.3 39.3 C 278.3 39.3 278 39.8 278 39.8 C 277.6 39.5 277 39.4 276.5 39.4 C 275.5 39.4 274.9 39.8 274.9 40.4 C 274.9 41.6 277.9 40.7 277.9 42.5 C 277.9 43.5 277 44.1 275.6 44.1 C 274.7 44.1 273.9 43.9 273.5 43.5 Z M 281.5 41.9 C 281.5 40.1 282.8 38.8 284.6 38.8 C 286 38.8 287 39.6 287 41 C 287 42.8 285.7 44.1 283.9 44.1 C 282.5 44.1 281.5 43.3 281.5 41.9 Z M 286.2 41 C 286.2 40 285.6 39.4 284.5 39.4 C 283.2 39.4 282.2 40.4 282.2 41.9 C 282.2 42.9 282.9 43.5 284 43.5 C 285.3 43.5 286.2 42.5 286.2 41 Z M 289.8 38.2 C 289.78 38.24 289.7 38.8 289.7 38.8 L 291.3 38.8 L 291.1 39.4 L 289.6 39.4 L 288.6 44.1 L 287.9 44.1 L 288.9 39.4 L 287.9 39.4 L 288 38.8 L 289 38.8 C 289 38.8 289.1 38.16 289.1 38.2 C 289.3 37.2 289.9 36.6 290.9 36.6 C 291.3 36.6 291.7 36.7 292 37 C 292 37 291.6 37.5 291.6 37.5 C 291.5 37.3 291.2 37.2 290.9 37.2 C 290.3 37.2 289.9 37.5 289.8 38.2 Z M 299.7 38.8 L 298.6 44.1 L 297.9 44.1 C 297.9 44.1 298.1 43.25 298.1 43.3 C 297.6 43.8 296.9 44.1 296 44.1 C 294.7 44.1 293.8 43.3 293.8 41.9 C 293.8 40.1 295 38.8 296.7 38.8 C 297.7 38.8 298.4 39.2 298.7 39.9 C 298.73 39.92 298.9 38.8 298.9 38.8 L 299.7 38.8 Z M 298.5 41 C 298.5 40 297.8 39.4 296.7 39.4 C 295.4 39.4 294.5 40.4 294.5 41.9 C 294.5 42.9 295.1 43.5 296.2 43.5 C 297.5 43.5 298.5 42.5 298.5 41 Z M 302.7 43.5 C 302.7 43.5 303 42.9 303 42.9 C 303.4 43.3 304.1 43.5 304.8 43.5 C 305.8 43.5 306.4 43.2 306.4 42.6 C 306.4 41.4 303.4 42.2 303.4 40.4 C 303.4 39.4 304.3 38.8 305.7 38.8 C 306.3 38.8 307 39 307.4 39.3 C 307.4 39.3 307.1 39.8 307.1 39.8 C 306.7 39.5 306.2 39.4 305.6 39.4 C 304.6 39.4 304.1 39.8 304.1 40.4 C 304.1 41.6 307.1 40.7 307.1 42.5 C 307.1 43.5 306.1 44.1 304.7 44.1 C 303.9 44.1 303.1 43.9 302.7 43.5 Z M 313.7 38.8 C 313.7 38.8 309.84 44.76 309.8 44.8 C 309.2 45.8 308.7 46.1 307.9 46.1 C 307.4 46.1 306.9 45.9 306.7 45.6 C 306.7 45.6 307.1 45.1 307.1 45.1 C 307.3 45.3 307.6 45.5 308 45.5 C 308.4 45.5 308.8 45.3 309.2 44.6 C 309.21 44.61 309.6 44.1 309.6 44.1 L 308.3 38.8 L 309 38.8 L 310.1 43.3 L 312.9 38.8 L 313.7 38.8 Z M 313.2 43.5 C 313.2 43.5 313.5 42.9 313.5 42.9 C 313.9 43.3 314.6 43.5 315.3 43.5 C 316.4 43.5 316.9 43.2 316.9 42.6 C 316.9 41.4 313.9 42.2 313.9 40.4 C 313.9 39.4 314.8 38.8 316.2 38.8 C 316.9 38.8 317.6 39 318 39.3 C 318 39.3 317.7 39.8 317.7 39.8 C 317.3 39.5 316.7 39.4 316.1 39.4 C 315.2 39.4 314.6 39.8 314.6 40.4 C 314.6 41.6 317.6 40.7 317.6 42.5 C 317.6 43.5 316.7 44.1 315.3 44.1 C 314.4 44.1 313.6 43.9 313.2 43.5 Z M 319.9 42.5 C 319.9 42.6 319.9 42.7 319.9 42.8 C 319.9 43.3 320.1 43.5 320.6 43.5 C 320.9 43.5 321.2 43.4 321.4 43.3 C 321.4 43.3 321.6 43.8 321.6 43.8 C 321.3 44 320.8 44.1 320.4 44.1 C 319.6 44.1 319.1 43.7 319.1 42.9 C 319.1 42.8 319.2 42.7 319.2 42.5 C 319.19 42.52 319.8 39.4 319.8 39.4 L 318.9 39.4 L 319 38.8 L 319.9 38.8 L 320.1 37.7 L 320.9 37.7 L 320.6 38.8 L 322.2 38.8 L 322.1 39.4 L 320.5 39.4 C 320.5 39.4 319.9 42.49 319.9 42.5 Z M 323.2 41.7 C 323.2 41.7 323.2 41.8 323.2 41.9 C 323.2 42.9 323.8 43.5 325 43.5 C 325.7 43.5 326.3 43.3 326.7 42.8 C 326.7 42.8 327.1 43.4 327.1 43.4 C 326.6 43.8 325.8 44.1 325 44.1 C 323.4 44.1 322.5 43.3 322.5 41.9 C 322.5 40.1 323.7 38.8 325.4 38.8 C 326.8 38.8 327.7 39.6 327.7 41 C 327.7 41.2 327.7 41.5 327.6 41.7 C 327.6 41.7 323.2 41.7 323.2 41.7 Z M 323.3 41.1 C 323.3 41.1 327 41.1 327 41.1 C 327 41.1 327 41 327 40.9 C 327 39.9 326.4 39.4 325.4 39.4 C 324.3 39.4 323.5 40.1 323.3 41.1 Z M 337.9 40.5 C 337.9 40.7 337.8 40.9 337.8 41.1 C 337.81 41.09 337.2 44.1 337.2 44.1 L 336.5 44.1 C 336.5 44.1 337.1 41.08 337.1 41.1 C 337.1 40.9 337.1 40.7 337.1 40.6 C 337.1 39.9 336.7 39.4 335.8 39.4 C 334.8 39.4 334 40 333.8 41.2 C 333.81 41.18 333.2 44.1 333.2 44.1 L 332.5 44.1 C 332.5 44.1 333.12 41.08 333.1 41.1 C 333.1 40.9 333.2 40.8 333.2 40.6 C 333.2 39.9 332.7 39.4 331.9 39.4 C 330.8 39.4 330.1 40 329.8 41.3 C 329.81 41.26 329.2 44.1 329.2 44.1 L 328.5 44.1 L 329.6 38.8 L 330.3 38.8 C 330.3 38.8 330.09 39.66 330.1 39.7 C 330.6 39.1 331.3 38.8 332.1 38.8 C 333 38.8 333.6 39.2 333.8 39.8 C 334.3 39.1 335.1 38.8 336 38.8 C 337.2 38.8 337.9 39.4 337.9 40.5 Z M 339.9 43.6 C 339.9 43.7 339.8 43.9 339.7 44.1 C 339.72 44.09 339 45.5 339 45.5 L 338.5 45.5 C 338.5 45.5 339.12 44.07 339.1 44.1 C 338.9 44 338.8 43.8 338.8 43.6 C 338.8 43.3 339.1 43 339.4 43 C 339.7 43 339.9 43.3 339.9 43.6 Z M 349.8 38.8 L 348.7 44.1 L 348.1 44.1 C 348.1 44.1 348.24 43.25 348.2 43.3 C 347.7 43.8 347 44.1 346.2 44.1 C 344.8 44.1 343.9 43.3 343.9 41.9 C 343.9 40.1 345.2 38.8 346.9 38.8 C 347.9 38.8 348.6 39.2 348.9 39.9 C 348.87 39.92 349.1 38.8 349.1 38.8 L 349.8 38.8 Z M 348.6 41 C 348.6 40 348 39.4 346.9 39.4 C 345.6 39.4 344.6 40.4 344.6 41.9 C 344.6 42.9 345.2 43.5 346.3 43.5 C 347.6 43.5 348.6 42.5 348.6 41 Z M 356.1 40.5 C 356.1 40.7 356.1 40.9 356 41.1 C 356.03 41.09 355.4 44.1 355.4 44.1 L 354.7 44.1 C 354.7 44.1 355.32 41.08 355.3 41.1 C 355.4 40.9 355.4 40.8 355.4 40.6 C 355.4 39.9 354.9 39.4 354 39.4 C 352.9 39.4 352.1 40 351.9 41.3 C 351.87 41.26 351.3 44.1 351.3 44.1 L 350.6 44.1 L 351.6 38.8 L 352.3 38.8 C 352.3 38.8 352.15 39.66 352.2 39.7 C 352.7 39.1 353.4 38.8 354.2 38.8 C 355.4 38.8 356.1 39.4 356.1 40.5 Z M 363.6 36.7 L 362.1 44.1 L 361.4 44.1 C 361.4 44.1 361.6 43.25 361.6 43.3 C 361.1 43.8 360.4 44.1 359.6 44.1 C 358.2 44.1 357.3 43.3 357.3 41.9 C 357.3 40.1 358.5 38.8 360.2 38.8 C 361.2 38.8 361.9 39.2 362.2 39.9 C 362.23 39.92 362.9 36.7 362.9 36.7 L 363.6 36.7 Z M 362 41 C 362 40 361.4 39.4 360.3 39.4 C 358.9 39.4 358 40.4 358 41.9 C 358 42.9 358.6 43.5 359.7 43.5 C 361 43.5 362 42.5 362 41 Z M 367.9 42.5 C 367.8 42.6 367.8 42.7 367.8 42.8 C 367.8 43.3 368.1 43.5 368.6 43.5 C 368.9 43.5 369.1 43.4 369.4 43.3 C 369.4 43.3 369.6 43.8 369.6 43.8 C 369.2 44 368.8 44.1 368.4 44.1 C 367.6 44.1 367.1 43.7 367.1 42.9 C 367.1 42.8 367.1 42.7 367.1 42.5 C 367.14 42.52 367.8 39.4 367.8 39.4 L 366.8 39.4 L 366.9 38.8 L 367.9 38.8 L 368.1 37.7 L 368.8 37.7 L 368.6 38.8 L 370.2 38.8 L 370.1 39.4 L 368.5 39.4 C 368.5 39.4 367.85 42.49 367.9 42.5 Z M 376.1 40.5 C 376.1 40.7 376.1 40.9 376.1 41.1 C 376.08 41.09 375.5 44.1 375.5 44.1 L 374.8 44.1 C 374.8 44.1 375.37 41.08 375.4 41.1 C 375.4 40.9 375.4 40.8 375.4 40.6 C 375.4 39.9 375 39.4 374.1 39.4 C 372.9 39.4 372.2 40 371.9 41.3 C 371.92 41.26 371.4 44.1 371.4 44.1 L 370.7 44.1 L 372.1 36.7 L 372.8 36.7 C 372.8 36.7 372.25 39.61 372.3 39.6 C 372.8 39 373.5 38.8 374.3 38.8 C 375.5 38.8 376.1 39.4 376.1 40.5 Z M 378 41.7 C 378 41.7 378 41.8 378 41.9 C 378 42.9 378.6 43.5 379.8 43.5 C 380.5 43.5 381.2 43.3 381.5 42.8 C 381.5 42.8 381.9 43.4 381.9 43.4 C 381.4 43.8 380.6 44.1 379.8 44.1 C 378.2 44.1 377.3 43.3 377.3 41.9 C 377.3 40.1 378.5 38.8 380.2 38.8 C 381.6 38.8 382.5 39.6 382.5 41 C 382.5 41.2 382.5 41.5 382.4 41.7 C 382.4 41.7 378 41.7 378 41.7 Z M 378.1 41.1 C 378.1 41.1 381.8 41.1 381.8 41.1 C 381.9 41.1 381.9 41 381.9 40.9 C 381.9 39.9 381.2 39.4 380.2 39.4 C 379.1 39.4 378.4 40.1 378.1 41.1 Z " stroke="none" fill="#000"/>
  </g>
  <g id="Polygon115341">
    <path d="M 36.3 22.7 L 33.8 22.7 L 33.9 22.1 L 39.6 22.1 L 39.4 22.7 L 37 22.7 L 35.7 29.1 L 35 29.1 L 36.3 22.7 Z M 44.7 25.5 C 44.7 25.7 44.7 25.9 44.7 26.1 C 44.67 26.09 44.1 29.1 44.1 29.1 L 43.4 29.1 C 43.4 29.1 43.96 26.08 44 26.1 C 44 25.9 44 25.8 44 25.6 C 44 24.9 43.6 24.4 42.7 24.4 C 41.5 24.4 40.8 25 40.5 26.3 C 40.51 26.26 40 29.1 40 29.1 L 39.2 29.1 L 40.7 21.7 L 41.4 21.7 C 41.4 21.7 40.84 24.61 40.8 24.6 C 41.3 24 42 23.8 42.9 23.8 C 44 23.8 44.7 24.4 44.7 25.5 Z M 46.6 26.7 C 46.6 26.7 46.6 26.8 46.6 26.9 C 46.6 27.9 47.2 28.5 48.4 28.5 C 49.1 28.5 49.7 28.3 50.1 27.8 C 50.1 27.8 50.5 28.4 50.5 28.4 C 50 28.8 49.2 29.1 48.4 29.1 C 46.8 29.1 45.9 28.3 45.9 26.9 C 45.9 25.1 47.1 23.8 48.8 23.8 C 50.2 23.8 51.1 24.6 51.1 26 C 51.1 26.2 51.1 26.5 51 26.7 C 51 26.7 46.6 26.7 46.6 26.7 Z M 46.7 26.1 C 46.7 26.1 50.4 26.1 50.4 26.1 C 50.4 26.1 50.4 26 50.4 25.9 C 50.4 24.9 49.8 24.4 48.8 24.4 C 47.7 24.4 46.9 25.1 46.7 26.1 Z M 54.1 28.5 C 54.1 28.5 54.4 27.9 54.4 27.9 C 54.8 28.3 55.5 28.5 56.2 28.5 C 57.2 28.5 57.8 28.2 57.8 27.6 C 57.8 26.4 54.8 27.2 54.8 25.4 C 54.8 24.4 55.7 23.8 57.1 23.8 C 57.7 23.8 58.5 24 58.9 24.3 C 58.9 24.3 58.6 24.8 58.6 24.8 C 58.1 24.5 57.6 24.4 57 24.4 C 56 24.4 55.5 24.8 55.5 25.4 C 55.5 26.6 58.5 25.7 58.5 27.5 C 58.5 28.5 57.5 29.1 56.1 29.1 C 55.3 29.1 54.5 28.9 54.1 28.5 Z M 59.5 26.9 C 59.5 25.1 60.7 23.8 62.5 23.8 C 63.5 23.8 64.2 24.1 64.6 24.8 C 64.6 24.8 64 25.2 64 25.2 C 63.7 24.7 63.2 24.4 62.5 24.4 C 61.1 24.4 60.2 25.4 60.2 26.9 C 60.2 27.9 60.8 28.5 61.9 28.5 C 62.6 28.5 63.2 28.2 63.6 27.7 C 63.6 27.7 64.1 28.1 64.1 28.1 C 63.6 28.8 62.8 29.1 61.9 29.1 C 60.4 29.1 59.5 28.3 59.5 26.9 Z M 66.3 22.2 C 66.3 21.9 66.5 21.7 66.8 21.7 C 67.1 21.7 67.3 21.9 67.3 22.1 C 67.3 22.4 67.1 22.7 66.8 22.7 C 66.5 22.7 66.3 22.5 66.3 22.2 Z M 66.1 23.8 L 66.8 23.8 L 65.8 29.1 L 65.1 29.1 L 66.1 23.8 Z M 68.4 26.7 C 68.3 26.7 68.3 26.8 68.3 26.9 C 68.3 27.9 68.9 28.5 70.2 28.5 C 70.9 28.5 71.5 28.3 71.9 27.8 C 71.9 27.8 72.2 28.4 72.2 28.4 C 71.7 28.8 70.9 29.1 70.1 29.1 C 68.6 29.1 67.7 28.3 67.7 26.9 C 67.7 25.1 68.9 23.8 70.6 23.8 C 71.9 23.8 72.8 24.6 72.8 26 C 72.8 26.2 72.8 26.5 72.8 26.7 C 72.8 26.7 68.4 26.7 68.4 26.7 Z M 68.4 26.1 C 68.4 26.1 72.2 26.1 72.2 26.1 C 72.2 26.1 72.2 26 72.2 25.9 C 72.2 24.9 71.5 24.4 70.5 24.4 C 69.5 24.4 68.7 25.1 68.4 26.1 Z M 79.2 25.5 C 79.2 25.7 79.2 25.9 79.1 26.1 C 79.11 26.09 78.5 29.1 78.5 29.1 L 77.8 29.1 C 77.8 29.1 78.4 26.08 78.4 26.1 C 78.4 25.9 78.5 25.8 78.5 25.6 C 78.5 24.9 78 24.4 77.1 24.4 C 76 24.4 75.2 25 75 26.3 C 74.95 26.26 74.4 29.1 74.4 29.1 L 73.7 29.1 L 74.7 23.8 L 75.4 23.8 C 75.4 23.8 75.23 24.66 75.2 24.7 C 75.7 24.1 76.5 23.8 77.3 23.8 C 78.5 23.8 79.2 24.4 79.2 25.5 Z M 81.4 27.5 C 81.4 27.6 81.3 27.7 81.3 27.8 C 81.3 28.3 81.6 28.5 82.1 28.5 C 82.4 28.5 82.7 28.4 82.9 28.3 C 82.9 28.3 83.1 28.8 83.1 28.8 C 82.8 29 82.3 29.1 81.9 29.1 C 81.1 29.1 80.6 28.7 80.6 27.9 C 80.6 27.8 80.6 27.7 80.7 27.5 C 80.68 27.52 81.3 24.4 81.3 24.4 L 80.4 24.4 L 80.5 23.8 L 81.4 23.8 L 81.6 22.7 L 82.3 22.7 L 82.1 23.8 L 83.7 23.8 L 83.6 24.4 L 82 24.4 C 82 24.4 81.39 27.49 81.4 27.5 Z M 85.4 22.2 C 85.4 21.9 85.6 21.7 86 21.7 C 86.2 21.7 86.4 21.9 86.4 22.1 C 86.4 22.4 86.2 22.7 85.9 22.7 C 85.6 22.7 85.4 22.5 85.4 22.2 Z M 85.2 23.8 L 85.9 23.8 L 84.9 29.1 L 84.2 29.1 L 85.2 23.8 Z M 89.9 21.6 C 90.4 21.6 90.8 21.7 91 22 C 91 22 90.7 22.5 90.7 22.5 C 90.5 22.3 90.2 22.2 89.9 22.2 C 89.3 22.2 89 22.5 88.8 23.2 C 88.81 23.24 88.7 23.8 88.7 23.8 L 90.3 23.8 L 90.2 24.4 L 88.6 24.4 L 87.7 29.1 L 87 29.1 L 87.9 24.4 L 86.9 24.4 L 87.1 23.8 L 88 23.8 C 88 23.8 88.13 23.16 88.1 23.2 C 88.3 22.2 88.9 21.6 89.9 21.6 Z M 93.3 22.1 C 93.3 22.4 93 22.7 92.7 22.7 C 92.4 22.7 92.2 22.5 92.2 22.2 C 92.2 21.9 92.5 21.7 92.8 21.7 C 93.1 21.7 93.3 21.9 93.3 22.1 Z M 92.1 23.8 L 92.8 23.8 L 91.7 29.1 L 91 29.1 L 92.1 23.8 Z M 93.6 26.9 C 93.6 25.1 94.9 23.8 96.7 23.8 C 97.6 23.8 98.4 24.1 98.7 24.8 C 98.7 24.8 98.1 25.2 98.1 25.2 C 97.8 24.7 97.3 24.4 96.6 24.4 C 95.3 24.4 94.3 25.4 94.3 26.9 C 94.3 27.9 95 28.5 96.1 28.5 C 96.7 28.5 97.4 28.2 97.7 27.7 C 97.7 27.7 98.2 28.1 98.2 28.1 C 97.8 28.8 96.9 29.1 96 29.1 C 94.5 29.1 93.6 28.3 93.6 26.9 Z M 108.2 21.7 L 106.7 29.1 L 106 29.1 C 106 29.1 106.2 28.25 106.2 28.3 C 105.7 28.8 105 29.1 104.2 29.1 C 102.8 29.1 101.9 28.3 101.9 26.9 C 101.9 25.1 103.1 23.8 104.8 23.8 C 105.8 23.8 106.5 24.2 106.8 24.9 C 106.83 24.92 107.5 21.7 107.5 21.7 L 108.2 21.7 Z M 106.6 26 C 106.6 25 106 24.4 104.9 24.4 C 103.5 24.4 102.6 25.4 102.6 26.9 C 102.6 27.9 103.2 28.5 104.3 28.5 C 105.6 28.5 106.6 27.5 106.6 26 Z M 109.8 22.2 C 109.8 21.9 110 21.7 110.3 21.7 C 110.6 21.7 110.8 21.9 110.8 22.1 C 110.8 22.4 110.6 22.7 110.3 22.7 C 110 22.7 109.8 22.5 109.8 22.2 Z M 109.6 23.8 L 110.3 23.8 L 109.3 29.1 L 108.6 29.1 L 109.6 23.8 Z M 110.7 28.5 C 110.7 28.5 111.1 27.9 111.1 27.9 C 111.5 28.3 112.2 28.5 112.9 28.5 C 113.9 28.5 114.4 28.2 114.4 27.6 C 114.4 26.4 111.5 27.2 111.5 25.4 C 111.5 24.4 112.4 23.8 113.7 23.8 C 114.4 23.8 115.1 24 115.5 24.3 C 115.5 24.3 115.2 24.8 115.2 24.8 C 114.8 24.5 114.2 24.4 113.7 24.4 C 112.7 24.4 112.2 24.8 112.2 25.4 C 112.2 26.6 115.1 25.7 115.1 27.5 C 115.1 28.5 114.2 29.1 112.8 29.1 C 111.9 29.1 111.1 28.9 110.7 28.5 Z M 116.1 26.9 C 116.1 25.1 117.4 23.8 119.2 23.8 C 120.1 23.8 120.9 24.1 121.2 24.8 C 121.2 24.8 120.6 25.2 120.6 25.2 C 120.3 24.7 119.8 24.4 119.1 24.4 C 117.8 24.4 116.8 25.4 116.8 26.9 C 116.8 27.9 117.5 28.5 118.6 28.5 C 119.2 28.5 119.9 28.2 120.2 27.7 C 120.2 27.7 120.7 28.1 120.7 28.1 C 120.3 28.8 119.4 29.1 118.5 29.1 C 117 29.1 116.1 28.3 116.1 26.9 Z M 122.9 22.2 C 122.9 21.9 123.2 21.7 123.5 21.7 C 123.8 21.7 124 21.9 124 22.1 C 124 22.4 123.7 22.7 123.4 22.7 C 123.1 22.7 122.9 22.5 122.9 22.2 Z M 122.8 23.8 L 123.5 23.8 L 122.4 29.1 L 121.7 29.1 L 122.8 23.8 Z M 130.2 26 C 130.2 27.8 128.9 29.1 127.2 29.1 C 126.2 29.1 125.5 28.7 125.2 28 C 125.22 27.98 124.6 31 124.6 31 L 123.9 31 L 125.3 23.8 L 126 23.8 C 126 23.8 125.85 24.66 125.8 24.7 C 126.3 24.1 127 23.8 127.9 23.8 C 129.2 23.8 130.2 24.6 130.2 26 Z M 129.5 26 C 129.5 25 128.8 24.4 127.7 24.4 C 126.4 24.4 125.5 25.4 125.5 26.9 C 125.5 27.9 126.1 28.5 127.2 28.5 C 128.5 28.5 129.5 27.5 129.5 26 Z M 132.5 21.7 L 133.2 21.7 L 131.7 29.1 L 131 29.1 L 132.5 21.7 Z M 134.8 22.2 C 134.8 21.9 135 21.7 135.4 21.7 C 135.6 21.7 135.8 21.9 135.8 22.1 C 135.8 22.4 135.6 22.7 135.3 22.7 C 135 22.7 134.8 22.5 134.8 22.2 Z M 134.6 23.8 L 135.3 23.8 L 134.3 29.1 L 133.6 29.1 L 134.6 23.8 Z M 141.6 25.5 C 141.6 25.7 141.6 25.9 141.6 26.1 C 141.56 26.09 141 29.1 141 29.1 L 140.3 29.1 C 140.3 29.1 140.85 26.08 140.9 26.1 C 140.9 25.9 140.9 25.8 140.9 25.6 C 140.9 24.9 140.5 24.4 139.5 24.4 C 138.4 24.4 137.7 25 137.4 26.3 C 137.4 26.26 136.8 29.1 136.8 29.1 L 136.1 29.1 L 137.2 23.8 L 137.9 23.8 C 137.9 23.8 137.68 24.66 137.7 24.7 C 138.2 24.1 138.9 23.8 139.7 23.8 C 140.9 23.8 141.6 24.4 141.6 25.5 Z M 143.5 26.7 C 143.5 26.7 143.5 26.8 143.5 26.9 C 143.5 27.9 144.1 28.5 145.3 28.5 C 146 28.5 146.6 28.3 147 27.8 C 147 27.8 147.3 28.4 147.3 28.4 C 146.9 28.8 146.1 29.1 145.2 29.1 C 143.7 29.1 142.8 28.3 142.8 26.9 C 142.8 25.1 144 23.8 145.7 23.8 C 147.1 23.8 148 24.6 148 26 C 148 26.2 148 26.5 147.9 26.7 C 147.9 26.7 143.5 26.7 143.5 26.7 Z M 143.6 26.1 C 143.6 26.1 147.3 26.1 147.3 26.1 C 147.3 26.1 147.3 26 147.3 25.9 C 147.3 24.9 146.7 24.4 145.7 24.4 C 144.6 24.4 143.8 25.1 143.6 26.1 Z M 151.5 26.9 C 151.5 25.1 152.7 23.8 154.5 23.8 C 155.5 23.8 156.2 24.1 156.6 24.8 C 156.6 24.8 156 25.2 156 25.2 C 155.7 24.7 155.2 24.4 154.5 24.4 C 153.1 24.4 152.2 25.4 152.2 26.9 C 152.2 27.9 152.8 28.5 153.9 28.5 C 154.6 28.5 155.2 28.2 155.6 27.7 C 155.6 27.7 156.1 28.1 156.1 28.1 C 155.6 28.8 154.8 29.1 153.9 29.1 C 152.4 29.1 151.5 28.3 151.5 26.9 Z M 157.1 26.9 C 157.1 25.1 158.3 23.8 160.1 23.8 C 161.6 23.8 162.5 24.6 162.5 26 C 162.5 27.8 161.2 29.1 159.4 29.1 C 158 29.1 157.1 28.3 157.1 26.9 Z M 161.8 26 C 161.8 25 161.1 24.4 160 24.4 C 158.7 24.4 157.8 25.4 157.8 26.9 C 157.8 27.9 158.4 28.5 159.5 28.5 C 160.8 28.5 161.8 27.5 161.8 26 Z M 168.8 25.5 C 168.8 25.7 168.8 25.9 168.8 26.1 C 168.76 26.09 168.2 29.1 168.2 29.1 L 167.4 29.1 C 167.4 29.1 168.05 26.08 168 26.1 C 168.1 25.9 168.1 25.8 168.1 25.6 C 168.1 24.9 167.6 24.4 166.7 24.4 C 165.6 24.4 164.8 25 164.6 26.3 C 164.6 26.26 164 29.1 164 29.1 L 163.3 29.1 L 164.4 23.8 L 165 23.8 C 165 23.8 164.88 24.66 164.9 24.7 C 165.4 24.1 166.1 23.8 166.9 23.8 C 168.1 23.8 168.8 24.4 168.8 25.5 Z M 170 26.9 C 170 25.1 171.2 23.8 173 23.8 C 174 23.8 174.7 24.1 175.1 24.8 C 175.1 24.8 174.5 25.2 174.5 25.2 C 174.2 24.7 173.7 24.4 173 24.4 C 171.6 24.4 170.7 25.4 170.7 26.9 C 170.7 27.9 171.3 28.5 172.4 28.5 C 173.1 28.5 173.7 28.2 174.1 27.7 C 174.1 27.7 174.6 28.1 174.6 28.1 C 174.1 28.8 173.3 29.1 172.4 29.1 C 170.9 29.1 170 28.3 170 26.9 Z M 176.3 26.7 C 176.3 26.7 176.3 26.8 176.3 26.9 C 176.3 27.9 176.9 28.5 178.1 28.5 C 178.8 28.5 179.4 28.3 179.8 27.8 C 179.8 27.8 180.1 28.4 180.1 28.4 C 179.6 28.8 178.8 29.1 178 29.1 C 176.5 29.1 175.6 28.3 175.6 26.9 C 175.6 25.1 176.8 23.8 178.5 23.8 C 179.9 23.8 180.8 24.6 180.8 26 C 180.8 26.2 180.7 26.5 180.7 26.7 C 180.7 26.7 176.3 26.7 176.3 26.7 Z M 176.4 26.1 C 176.4 26.1 180.1 26.1 180.1 26.1 C 180.1 26.1 180.1 26 180.1 25.9 C 180.1 24.9 179.4 24.4 178.5 24.4 C 177.4 24.4 176.6 25.1 176.4 26.1 Z M 185.3 23.8 C 185.3 23.8 185.2 24.5 185.2 24.5 C 185.1 24.5 185.1 24.5 185 24.5 C 183.9 24.5 183.1 25.1 182.9 26.4 C 182.85 26.41 182.3 29.1 182.3 29.1 L 181.6 29.1 L 182.7 23.8 L 183.3 23.8 C 183.3 23.8 183.15 24.78 183.2 24.8 C 183.6 24.1 184.3 23.8 185.3 23.8 Z M 191 25.5 C 191 25.7 190.9 25.9 190.9 26.1 C 190.89 26.09 190.3 29.1 190.3 29.1 L 189.6 29.1 C 189.6 29.1 190.18 26.08 190.2 26.1 C 190.2 25.9 190.2 25.8 190.2 25.6 C 190.2 24.9 189.8 24.4 188.9 24.4 C 187.8 24.4 187 25 186.7 26.3 C 186.73 26.26 186.2 29.1 186.2 29.1 L 185.5 29.1 L 186.5 23.8 L 187.2 23.8 C 187.2 23.8 187.01 24.66 187 24.7 C 187.5 24.1 188.2 23.8 189.1 23.8 C 190.3 23.8 191 24.4 191 25.5 Z M 192.8 26.7 C 192.8 26.7 192.8 26.8 192.8 26.9 C 192.8 27.9 193.4 28.5 194.6 28.5 C 195.3 28.5 196 28.3 196.4 27.8 C 196.4 27.8 196.7 28.4 196.7 28.4 C 196.2 28.8 195.4 29.1 194.6 29.1 C 193.1 29.1 192.1 28.3 192.1 26.9 C 192.1 25.1 193.4 23.8 195 23.8 C 196.4 23.8 197.3 24.6 197.3 26 C 197.3 26.2 197.3 26.5 197.3 26.7 C 197.3 26.7 192.8 26.7 192.8 26.7 Z M 192.9 26.1 C 192.9 26.1 196.7 26.1 196.7 26.1 C 196.7 26.1 196.7 26 196.7 25.9 C 196.7 24.9 196 24.4 195 24.4 C 194 24.4 193.2 25.1 192.9 26.1 Z M 204.6 21.7 L 203.1 29.1 L 202.4 29.1 C 202.4 29.1 202.57 28.25 202.6 28.3 C 202.1 28.8 201.4 29.1 200.5 29.1 C 199.2 29.1 198.2 28.3 198.2 26.9 C 198.2 25.1 199.5 23.8 201.2 23.8 C 202.2 23.8 202.9 24.2 203.2 24.9 C 203.2 24.92 203.8 21.7 203.8 21.7 L 204.6 21.7 Z M 202.9 26 C 202.9 25 202.3 24.4 201.2 24.4 C 199.9 24.4 198.9 25.4 198.9 26.9 C 198.9 27.9 199.6 28.5 200.7 28.5 C 202 28.5 202.9 27.5 202.9 26 Z M 216.5 23.8 L 213.5 29.1 L 212.8 29.1 L 211.9 24.8 L 209.5 29.1 L 208.8 29.1 L 207.8 23.8 L 208.4 23.8 L 209.3 28.3 L 211.8 23.8 L 212.4 23.8 L 213.3 28.3 L 215.8 23.8 L 216.5 23.8 Z M 217.7 22.2 C 217.7 21.9 217.9 21.7 218.3 21.7 C 218.5 21.7 218.7 21.9 218.7 22.1 C 218.7 22.4 218.5 22.7 218.2 22.7 C 217.9 22.7 217.7 22.5 217.7 22.2 Z M 217.5 23.8 L 218.2 23.8 L 217.2 29.1 L 216.5 29.1 L 217.5 23.8 Z M 220.3 27.5 C 220.2 27.6 220.2 27.7 220.2 27.8 C 220.2 28.3 220.5 28.5 221 28.5 C 221.3 28.5 221.5 28.4 221.8 28.3 C 221.8 28.3 222 28.8 222 28.8 C 221.6 29 221.2 29.1 220.8 29.1 C 220 29.1 219.5 28.7 219.5 27.9 C 219.5 27.8 219.5 27.7 219.5 27.5 C 219.54 27.52 220.2 24.4 220.2 24.4 L 219.2 24.4 L 219.3 23.8 L 220.3 23.8 L 220.5 22.7 L 221.2 22.7 L 221 23.8 L 222.6 23.8 L 222.5 24.4 L 220.9 24.4 C 220.9 24.4 220.25 27.49 220.3 27.5 Z M 228.5 25.5 C 228.5 25.7 228.5 25.9 228.5 26.1 C 228.48 26.09 227.9 29.1 227.9 29.1 L 227.2 29.1 C 227.2 29.1 227.78 26.08 227.8 26.1 C 227.8 25.9 227.8 25.8 227.8 25.6 C 227.8 24.9 227.4 24.4 226.5 24.4 C 225.3 24.4 224.6 25 224.3 26.3 C 224.33 26.26 223.8 29.1 223.8 29.1 L 223.1 29.1 L 224.5 21.7 L 225.2 21.7 C 225.2 21.7 224.66 24.61 224.7 24.6 C 225.2 24 225.9 23.8 226.7 23.8 C 227.9 23.8 228.5 24.4 228.5 25.5 Z M 233.6 27.5 C 233.6 27.6 233.5 27.7 233.5 27.8 C 233.5 28.3 233.8 28.5 234.3 28.5 C 234.6 28.5 234.9 28.4 235.1 28.3 C 235.1 28.3 235.3 28.8 235.3 28.8 C 235 29 234.5 29.1 234.1 29.1 C 233.3 29.1 232.8 28.7 232.8 27.9 C 232.8 27.8 232.8 27.7 232.9 27.5 C 232.88 27.52 233.5 24.4 233.5 24.4 L 232.6 24.4 L 232.7 23.8 L 233.6 23.8 L 233.8 22.7 L 234.5 22.7 L 234.3 23.8 L 235.9 23.8 L 235.8 24.4 L 234.2 24.4 C 234.2 24.4 233.58 27.49 233.6 27.5 Z M 241.9 25.5 C 241.9 25.7 241.9 25.9 241.8 26.1 C 241.82 26.09 241.2 29.1 241.2 29.1 L 240.5 29.1 C 240.5 29.1 241.11 26.08 241.1 26.1 C 241.1 25.9 241.2 25.8 241.2 25.6 C 241.2 24.9 240.7 24.4 239.8 24.4 C 238.7 24.4 237.9 25 237.7 26.3 C 237.66 26.26 237.1 29.1 237.1 29.1 L 236.4 29.1 L 237.9 21.7 L 238.6 21.7 C 238.6 21.7 237.99 24.61 238 24.6 C 238.5 24 239.2 23.8 240 23.8 C 241.2 23.8 241.9 24.4 241.9 25.5 Z M 243.8 26.7 C 243.7 26.7 243.7 26.8 243.7 26.9 C 243.7 27.9 244.3 28.5 245.6 28.5 C 246.3 28.5 246.9 28.3 247.3 27.8 C 247.3 27.8 247.6 28.4 247.6 28.4 C 247.1 28.8 246.3 29.1 245.5 29.1 C 244 29.1 243 28.3 243 26.9 C 243 25.1 244.3 23.8 246 23.8 C 247.3 23.8 248.2 24.6 248.2 26 C 248.2 26.2 248.2 26.5 248.2 26.7 C 248.2 26.7 243.8 26.7 243.8 26.7 Z M 243.8 26.1 C 243.8 26.1 247.6 26.1 247.6 26.1 C 247.6 26.1 247.6 26 247.6 25.9 C 247.6 24.9 246.9 24.4 245.9 24.4 C 244.9 24.4 244.1 25.1 243.8 26.1 Z M 257.5 23.8 L 256.5 29.1 L 255.8 29.1 C 255.8 29.1 255.99 28.24 256 28.2 C 255.5 28.9 254.8 29.1 254 29.1 C 252.8 29.1 252.1 28.5 252.1 27.4 C 252.1 27.2 252.1 27 252.1 26.8 C 252.15 26.82 252.7 23.8 252.7 23.8 L 253.5 23.8 C 253.5 23.8 252.86 26.82 252.9 26.8 C 252.8 27 252.8 27.1 252.8 27.3 C 252.8 28.1 253.2 28.5 254.1 28.5 C 255.3 28.5 256 27.9 256.3 26.7 C 256.28 26.65 256.8 23.8 256.8 23.8 L 257.5 23.8 Z M 263.8 25.5 C 263.8 25.7 263.8 25.9 263.8 26.1 C 263.78 26.09 263.2 29.1 263.2 29.1 L 262.5 29.1 C 262.5 29.1 263.07 26.08 263.1 26.1 C 263.1 25.9 263.1 25.8 263.1 25.6 C 263.1 24.9 262.7 24.4 261.8 24.4 C 260.6 24.4 259.9 25 259.6 26.3 C 259.62 26.26 259.1 29.1 259.1 29.1 L 258.4 29.1 L 259.4 23.8 L 260.1 23.8 C 260.1 23.8 259.9 24.66 259.9 24.7 C 260.4 24.1 261.1 23.8 262 23.8 C 263.2 23.8 263.8 24.4 263.8 25.5 Z M 271.3 21.7 L 269.9 29.1 L 269.2 29.1 C 269.2 29.1 269.36 28.25 269.4 28.3 C 268.9 28.8 268.2 29.1 267.3 29.1 C 266 29.1 265 28.3 265 26.9 C 265 25.1 266.3 23.8 268 23.8 C 269 23.8 269.7 24.2 270 24.9 C 269.99 24.92 270.6 21.7 270.6 21.7 L 271.3 21.7 Z M 269.7 26 C 269.7 25 269.1 24.4 268 24.4 C 266.7 24.4 265.7 25.4 265.7 26.9 C 265.7 27.9 266.4 28.5 267.5 28.5 C 268.8 28.5 269.7 27.5 269.7 26 Z M 272.5 26.7 C 272.5 26.7 272.5 26.8 272.5 26.9 C 272.5 27.9 273.1 28.5 274.3 28.5 C 275 28.5 275.6 28.3 276 27.8 C 276 27.8 276.3 28.4 276.3 28.4 C 275.8 28.8 275 29.1 274.2 29.1 C 272.7 29.1 271.8 28.3 271.8 26.9 C 271.8 25.1 273 23.8 274.7 23.8 C 276.1 23.8 277 24.6 277 26 C 277 26.2 276.9 26.5 276.9 26.7 C 276.9 26.7 272.5 26.7 272.5 26.7 Z M 272.5 26.1 C 272.5 26.1 276.3 26.1 276.3 26.1 C 276.3 26.1 276.3 26 276.3 25.9 C 276.3 24.9 275.6 24.4 274.7 24.4 C 273.6 24.4 272.8 25.1 272.5 26.1 Z M 281.5 23.8 C 281.5 23.8 281.4 24.5 281.4 24.5 C 281.3 24.5 281.3 24.5 281.2 24.5 C 280.1 24.5 279.3 25.1 279 26.4 C 279.04 26.41 278.5 29.1 278.5 29.1 L 277.8 29.1 L 278.8 23.8 L 279.5 23.8 C 279.5 23.8 279.34 24.78 279.3 24.8 C 279.8 24.1 280.5 23.8 281.5 23.8 Z M 281.3 28.5 C 281.3 28.5 281.7 27.9 281.7 27.9 C 282.1 28.3 282.8 28.5 283.5 28.5 C 284.5 28.5 285 28.2 285 27.6 C 285 26.4 282.1 27.2 282.1 25.4 C 282.1 24.4 283 23.8 284.3 23.8 C 285 23.8 285.7 24 286.1 24.3 C 286.1 24.3 285.8 24.8 285.8 24.8 C 285.4 24.5 284.8 24.4 284.3 24.4 C 283.3 24.4 282.8 24.8 282.8 25.4 C 282.8 26.6 285.7 25.7 285.7 27.5 C 285.7 28.5 284.8 29.1 283.4 29.1 C 282.6 29.1 281.7 28.9 281.3 28.5 Z M 288 27.5 C 288 27.6 288 27.7 288 27.8 C 288 28.3 288.2 28.5 288.7 28.5 C 289 28.5 289.3 28.4 289.6 28.3 C 289.6 28.3 289.7 28.8 289.7 28.8 C 289.4 29 289 29.1 288.6 29.1 C 287.8 29.1 287.3 28.7 287.3 27.9 C 287.3 27.8 287.3 27.7 287.3 27.5 C 287.32 27.52 287.9 24.4 287.9 24.4 L 287 24.4 L 287.1 23.8 L 288 23.8 L 288.3 22.7 L 289 22.7 L 288.8 23.8 L 290.4 23.8 L 290.2 24.4 L 288.6 24.4 C 288.6 24.4 288.03 27.49 288 27.5 Z M 296.5 23.8 L 295.5 29.1 L 294.8 29.1 C 294.8 29.1 294.96 28.25 295 28.3 C 294.5 28.8 293.8 29.1 292.9 29.1 C 291.6 29.1 290.6 28.3 290.6 26.9 C 290.6 25.1 291.9 23.8 293.6 23.8 C 294.6 23.8 295.3 24.2 295.6 24.9 C 295.59 24.92 295.8 23.8 295.8 23.8 L 296.5 23.8 Z M 295.3 26 C 295.3 25 294.7 24.4 293.6 24.4 C 292.3 24.4 291.3 25.4 291.3 26.9 C 291.3 27.9 292 28.5 293.1 28.5 C 294.4 28.5 295.3 27.5 295.3 26 Z M 302.8 25.5 C 302.8 25.7 302.8 25.9 302.8 26.1 C 302.76 26.09 302.2 29.1 302.2 29.1 L 301.4 29.1 C 301.4 29.1 302.05 26.08 302 26.1 C 302.1 25.9 302.1 25.8 302.1 25.6 C 302.1 24.9 301.6 24.4 300.7 24.4 C 299.6 24.4 298.8 25 298.6 26.3 C 298.6 26.26 298 29.1 298 29.1 L 297.3 29.1 L 298.4 23.8 L 299 23.8 C 299 23.8 298.88 24.66 298.9 24.7 C 299.4 24.1 300.1 23.8 300.9 23.8 C 302.1 23.8 302.8 24.4 302.8 25.5 Z M 310.3 21.7 L 308.8 29.1 L 308.2 29.1 C 308.2 29.1 308.33 28.25 308.3 28.3 C 307.8 28.8 307.1 29.1 306.3 29.1 C 304.9 29.1 304 28.3 304 26.9 C 304 25.1 305.2 23.8 307 23.8 C 308 23.8 308.6 24.2 309 24.9 C 308.96 24.92 309.6 21.7 309.6 21.7 L 310.3 21.7 Z M 308.7 26 C 308.7 25 308.1 24.4 307 24.4 C 305.7 24.4 304.7 25.4 304.7 26.9 C 304.7 27.9 305.3 28.5 306.4 28.5 C 307.7 28.5 308.7 27.5 308.7 26 Z M 311.9 22.2 C 311.9 21.9 312.1 21.7 312.5 21.7 C 312.7 21.7 313 21.9 313 22.1 C 313 22.4 312.7 22.7 312.4 22.7 C 312.1 22.7 311.9 22.5 311.9 22.2 Z M 311.7 23.8 L 312.4 23.8 L 311.4 29.1 L 310.7 29.1 L 311.7 23.8 Z M 318.7 25.5 C 318.7 25.7 318.7 25.9 318.7 26.1 C 318.67 26.09 318.1 29.1 318.1 29.1 L 317.4 29.1 C 317.4 29.1 317.96 26.08 318 26.1 C 318 25.9 318 25.8 318 25.6 C 318 24.9 317.6 24.4 316.7 24.4 C 315.5 24.4 314.8 25 314.5 26.3 C 314.51 26.26 314 29.1 314 29.1 L 313.2 29.1 L 314.3 23.8 L 315 23.8 C 315 23.8 314.79 24.66 314.8 24.7 C 315.3 24.1 316 23.8 316.9 23.8 C 318 23.8 318.7 24.4 318.7 25.5 Z M 325.8 23.8 C 325.8 23.8 324.91 28.44 324.9 28.4 C 324.5 30.3 323.6 31.1 321.8 31.1 C 320.9 31.1 320 30.8 319.5 30.3 C 319.5 30.3 319.9 29.7 319.9 29.7 C 320.3 30.2 321.1 30.4 321.9 30.4 C 323.2 30.4 323.9 29.8 324.2 28.6 C 324.2 28.6 324.3 28 324.3 28 C 323.8 28.5 323.1 28.9 322.2 28.9 C 320.8 28.9 319.9 28.1 319.9 26.8 C 319.9 25.1 321.1 23.8 322.9 23.8 C 323.8 23.8 324.6 24.2 324.9 25 C 324.93 24.98 325.1 23.8 325.1 23.8 L 325.8 23.8 Z M 324.6 25.9 C 324.6 25 324 24.4 322.9 24.4 C 321.6 24.4 320.6 25.4 320.6 26.7 C 320.6 27.7 321.2 28.3 322.3 28.3 C 323.7 28.3 324.6 27.3 324.6 25.9 Z M 329.3 26.9 C 329.3 25.1 330.6 23.8 332.4 23.8 C 333.8 23.8 334.8 24.6 334.8 26 C 334.8 27.8 333.5 29.1 331.7 29.1 C 330.3 29.1 329.3 28.3 329.3 26.9 Z M 334.1 26 C 334.1 25 333.4 24.4 332.3 24.4 C 331 24.4 330 25.4 330 26.9 C 330 27.9 330.7 28.5 331.8 28.5 C 333.1 28.5 334.1 27.5 334.1 26 Z M 337.6 23.2 C 337.59 23.24 337.5 23.8 337.5 23.8 L 339.1 23.8 L 339 24.4 L 337.4 24.4 L 336.4 29.1 L 335.7 29.1 L 336.7 24.4 L 335.7 24.4 L 335.8 23.8 L 336.8 23.8 C 336.8 23.8 336.91 23.16 336.9 23.2 C 337.1 22.2 337.7 21.6 338.7 21.6 C 339.1 21.6 339.5 21.7 339.8 22 C 339.8 22 339.5 22.5 339.5 22.5 C 339.3 22.3 339 22.2 338.7 22.2 C 338.1 22.2 337.7 22.5 337.6 23.2 Z M 342.8 27.5 C 342.7 27.6 342.7 27.7 342.7 27.8 C 342.7 28.3 343 28.5 343.5 28.5 C 343.8 28.5 344 28.4 344.3 28.3 C 344.3 28.3 344.5 28.8 344.5 28.8 C 344.1 29 343.7 29.1 343.3 29.1 C 342.5 29.1 342 28.7 342 27.9 C 342 27.8 342 27.7 342.1 27.5 C 342.05 27.52 342.7 24.4 342.7 24.4 L 341.7 24.4 L 341.8 23.8 L 342.8 23.8 L 343 22.7 L 343.7 22.7 L 343.5 23.8 L 345.1 23.8 L 345 24.4 L 343.4 24.4 C 343.4 24.4 342.76 27.49 342.8 27.5 Z M 351.1 25.5 C 351.1 25.7 351 25.9 351 26.1 C 350.99 26.09 350.4 29.1 350.4 29.1 L 349.7 29.1 C 349.7 29.1 350.28 26.08 350.3 26.1 C 350.3 25.9 350.3 25.8 350.3 25.6 C 350.3 24.9 349.9 24.4 349 24.4 C 347.9 24.4 347.1 25 346.8 26.3 C 346.83 26.26 346.3 29.1 346.3 29.1 L 345.6 29.1 L 347 21.7 L 347.8 21.7 C 347.8 21.7 347.16 24.61 347.2 24.6 C 347.7 24 348.4 23.8 349.2 23.8 C 350.4 23.8 351.1 24.4 351.1 25.5 Z M 352.9 26.7 C 352.9 26.7 352.9 26.8 352.9 26.9 C 352.9 27.9 353.5 28.5 354.7 28.5 C 355.4 28.5 356.1 28.3 356.5 27.8 C 356.5 27.8 356.8 28.4 356.8 28.4 C 356.3 28.8 355.5 29.1 354.7 29.1 C 353.2 29.1 352.2 28.3 352.2 26.9 C 352.2 25.1 353.5 23.8 355.1 23.8 C 356.5 23.8 357.4 24.6 357.4 26 C 357.4 26.2 357.4 26.5 357.4 26.7 C 357.4 26.7 352.9 26.7 352.9 26.7 Z M 353 26.1 C 353 26.1 356.8 26.1 356.8 26.1 C 356.8 26.1 356.8 26 356.8 25.9 C 356.8 24.9 356.1 24.4 355.1 24.4 C 354.1 24.4 353.3 25.1 353 26.1 Z " stroke="none" fill="#000"/>
  </g>
</svg>