<?xml version="1.0" standalone="no"?>
<!DOCTYPE svg PUBLIC "-//W3C//DTD SVG 1.1//EN" "http://www.w3.org/Graphics/SVG/1.1/DTD/svg11.dtd">
<svg xmlns="http://www.w3.org/2000/svg" version="1.1" width="353px" height="367.5px" viewBox="0 -2 353 367.5" style="top:-2px">
  <desc>Watch the below video and answer the following questions: What are the two categories of human failure? What are the ...</desc>
  <defs/>
  <g id="Polygon112857">
    <path d="M 41.4 128.4 C 41.4 128.4 38.78 134.31 38.8 134.3 C 38.3 135.3 37.8 135.7 37 135.7 C 36.5 135.7 36.1 135.5 35.8 135.2 C 35.8 135.2 36.1 134.7 36.1 134.7 C 36.3 134.9 36.7 135.1 37 135.1 C 37.5 135.1 37.8 134.8 38.1 134.2 C 38.13 134.18 38.4 133.7 38.4 133.7 L 36 128.4 L 36.8 128.4 L 38.7 132.9 L 40.7 128.4 L 41.4 128.4 Z M 41.7 131 C 41.7 129.5 42.9 128.4 44.4 128.4 C 46 128.4 47.1 129.5 47.1 131 C 47.1 132.6 46 133.7 44.4 133.7 C 42.9 133.7 41.7 132.6 41.7 131 Z M 46.4 131 C 46.4 129.8 45.5 129 44.4 129 C 43.3 129 42.4 129.8 42.4 131 C 42.4 132.3 43.3 133.1 44.4 133.1 C 45.5 133.1 46.4 132.3 46.4 131 Z M 53.3 128.4 L 53.3 133.7 L 52.6 133.7 C 52.6 133.7 52.59 132.72 52.6 132.7 C 52.2 133.4 51.5 133.7 50.7 133.7 C 49.4 133.7 48.5 133 48.5 131.5 C 48.48 131.47 48.5 128.4 48.5 128.4 L 49.2 128.4 C 49.2 128.4 49.19 131.4 49.2 131.4 C 49.2 132.5 49.8 133.1 50.8 133.1 C 51.9 133.1 52.6 132.4 52.6 131.2 C 52.56 131.18 52.6 128.4 52.6 128.4 L 53.3 128.4 Z M 57.9 128.4 C 57.9 128.4 57.9 129.1 57.9 129.1 C 57.8 129.1 57.8 129.1 57.7 129.1 C 56.6 129.1 56 129.8 56 131 C 55.97 131 56 133.7 56 133.7 L 55.3 133.7 L 55.3 128.4 L 55.9 128.4 C 55.9 128.4 55.94 129.45 55.9 129.4 C 56.3 128.7 56.9 128.4 57.9 128.4 Z M 61.4 131 C 61.4 129.5 62.5 128.4 64 128.4 C 65.6 128.4 66.7 129.5 66.7 131 C 66.7 132.6 65.6 133.7 64 133.7 C 62.5 133.7 61.4 132.6 61.4 131 Z M 66 131 C 66 129.8 65.2 129 64 129 C 62.9 129 62.1 129.8 62.1 131 C 62.1 132.3 62.9 133.1 64 133.1 C 65.2 133.1 66 132.3 66 131 Z M 70.8 128.4 C 70.8 128.4 70.8 129.1 70.8 129.1 C 70.7 129.1 70.7 129.1 70.6 129.1 C 69.5 129.1 68.9 129.8 68.9 131 C 68.87 131 68.9 133.7 68.9 133.7 L 68.2 133.7 L 68.2 128.4 L 68.8 128.4 C 68.8 128.4 68.84 129.45 68.8 129.4 C 69.2 128.7 69.8 128.4 70.8 128.4 Z M 76.9 128.4 C 76.9 128.4 76.91 133.04 76.9 133 C 76.9 134.9 76 135.7 74.3 135.7 C 73.3 135.7 72.4 135.4 71.8 134.9 C 71.8 134.9 72.2 134.3 72.2 134.3 C 72.7 134.8 73.4 135 74.3 135 C 75.6 135 76.2 134.4 76.2 133.1 C 76.2 133.1 76.2 132.5 76.2 132.5 C 75.8 133.1 75 133.5 74.1 133.5 C 72.6 133.5 71.5 132.4 71.5 130.9 C 71.5 129.4 72.6 128.4 74.1 128.4 C 75 128.4 75.8 128.7 76.2 129.4 C 76.23 129.43 76.2 128.4 76.2 128.4 L 76.9 128.4 Z M 76.2 130.9 C 76.2 129.8 75.4 129 74.2 129 C 73.1 129 72.2 129.8 72.2 130.9 C 72.2 132.1 73.1 132.9 74.2 132.9 C 75.4 132.9 76.2 132.1 76.2 130.9 Z M 82.9 130.4 C 82.87 130.42 82.9 133.7 82.9 133.7 L 82.2 133.7 C 82.2 133.7 82.19 132.86 82.2 132.9 C 81.9 133.4 81.2 133.7 80.4 133.7 C 79.2 133.7 78.5 133.1 78.5 132.2 C 78.5 131.4 79 130.7 80.5 130.7 C 80.49 130.71 82.2 130.7 82.2 130.7 C 82.2 130.7 82.16 130.39 82.2 130.4 C 82.2 129.5 81.6 129 80.7 129 C 80 129 79.3 129.2 78.9 129.6 C 78.9 129.6 78.6 129.1 78.6 129.1 C 79.1 128.6 79.9 128.4 80.7 128.4 C 82.1 128.4 82.9 129.1 82.9 130.4 Z M 82.2 132.1 C 82.16 132.1 82.2 131.2 82.2 131.2 C 82.2 131.2 80.51 131.24 80.5 131.2 C 79.5 131.2 79.2 131.6 79.2 132.2 C 79.2 132.8 79.6 133.2 80.5 133.2 C 81.3 133.2 81.9 132.8 82.2 132.1 Z M 89.6 130.6 C 89.64 130.63 89.6 133.7 89.6 133.7 L 88.9 133.7 C 88.9 133.7 88.93 130.7 88.9 130.7 C 88.9 129.6 88.3 129 87.3 129 C 86.2 129 85.5 129.7 85.5 130.9 C 85.51 130.92 85.5 133.7 85.5 133.7 L 84.8 133.7 L 84.8 128.4 L 85.5 128.4 C 85.5 128.4 85.48 129.39 85.5 129.4 C 85.9 128.7 86.6 128.4 87.5 128.4 C 88.8 128.4 89.6 129.1 89.6 130.6 Z M 91.4 126.8 C 91.4 126.5 91.6 126.3 91.9 126.3 C 92.2 126.3 92.4 126.5 92.4 126.7 C 92.4 127 92.2 127.3 91.9 127.3 C 91.6 127.3 91.4 127 91.4 126.8 Z M 91.6 128.4 L 92.3 128.4 L 92.3 133.7 L 91.6 133.7 L 91.6 128.4 Z M 93.5 133.1 C 93.5 133.1 93.8 132.5 93.8 132.5 C 94.3 132.9 95 133.1 95.7 133.1 C 96.7 133.1 97.1 132.8 97.1 132.3 C 97.1 130.9 93.7 132 93.7 129.9 C 93.7 129 94.5 128.4 95.8 128.4 C 96.5 128.4 97.2 128.6 97.7 128.9 C 97.7 128.9 97.3 129.4 97.3 129.4 C 96.9 129.1 96.3 129 95.8 129 C 94.8 129 94.4 129.4 94.4 129.9 C 94.4 131.3 97.8 130.2 97.8 132.2 C 97.8 133.1 97 133.7 95.7 133.7 C 94.8 133.7 94 133.4 93.5 133.1 Z M 103.1 130.4 C 103.12 130.42 103.1 133.7 103.1 133.7 L 102.4 133.7 C 102.4 133.7 102.44 132.86 102.4 132.9 C 102.1 133.4 101.5 133.7 100.6 133.7 C 99.4 133.7 98.7 133.1 98.7 132.2 C 98.7 131.4 99.2 130.7 100.7 130.7 C 100.74 130.71 102.4 130.7 102.4 130.7 C 102.4 130.7 102.41 130.39 102.4 130.4 C 102.4 129.5 101.9 129 100.9 129 C 100.2 129 99.6 129.2 99.2 129.6 C 99.2 129.6 98.8 129.1 98.8 129.1 C 99.4 128.6 100.2 128.4 101 128.4 C 102.3 128.4 103.1 129.1 103.1 130.4 Z M 102.4 132.1 C 102.41 132.1 102.4 131.2 102.4 131.2 C 102.4 131.2 100.76 131.24 100.8 131.2 C 99.7 131.2 99.4 131.6 99.4 132.2 C 99.4 132.8 99.9 133.2 100.7 133.2 C 101.5 133.2 102.1 132.8 102.4 132.1 Z M 107.8 133.4 C 107.5 133.6 107.1 133.7 106.7 133.7 C 105.7 133.7 105.2 133.2 105.2 132.2 C 105.17 132.2 105.2 129 105.2 129 L 104.2 129 L 104.2 128.4 L 105.2 128.4 L 105.2 127.3 L 105.9 127.3 L 105.9 128.4 L 107.5 128.4 L 107.5 129 L 105.9 129 C 105.9 129 105.88 132.16 105.9 132.2 C 105.9 132.8 106.2 133.1 106.8 133.1 C 107.1 133.1 107.4 133 107.6 132.9 C 107.6 132.9 107.8 133.4 107.8 133.4 Z M 108.9 126.8 C 108.9 126.5 109.2 126.3 109.5 126.3 C 109.8 126.3 110 126.5 110 126.7 C 110 127 109.8 127.3 109.5 127.3 C 109.2 127.3 108.9 127 108.9 126.8 Z M 109.1 128.4 L 109.8 128.4 L 109.8 133.7 L 109.1 133.7 L 109.1 128.4 Z M 111.3 131 C 111.3 129.5 112.4 128.4 113.9 128.4 C 115.5 128.4 116.6 129.5 116.6 131 C 116.6 132.6 115.5 133.7 113.9 133.7 C 112.4 133.7 111.3 132.6 111.3 131 Z M 115.9 131 C 115.9 129.8 115.1 129 113.9 129 C 112.8 129 112 129.8 112 131 C 112 132.3 112.8 133.1 113.9 133.1 C 115.1 133.1 115.9 132.3 115.9 131 Z M 122.9 130.6 C 122.91 130.63 122.9 133.7 122.9 133.7 L 122.2 133.7 C 122.2 133.7 122.2 130.7 122.2 130.7 C 122.2 129.6 121.6 129 120.6 129 C 119.5 129 118.8 129.7 118.8 130.9 C 118.78 130.92 118.8 133.7 118.8 133.7 L 118.1 133.7 L 118.1 128.4 L 118.7 128.4 C 118.7 128.4 118.75 129.39 118.7 129.4 C 119.1 128.7 119.8 128.4 120.7 128.4 C 122 128.4 122.9 129.1 122.9 130.6 Z M 127.5 128.5 C 127.5 127.8 127 127.2 125.9 127.2 C 125.1 127.2 124.5 127.5 124 128.1 C 124 128.1 123.5 127.7 123.5 127.7 C 124 127 124.9 126.6 126 126.6 C 127.4 126.6 128.3 127.3 128.3 128.4 C 128.3 130.1 126.5 130.2 126.5 131.6 C 126.5 131.6 125.7 131.6 125.7 131.6 C 125.7 129.9 127.5 129.8 127.5 128.5 Z M 125.6 133.2 C 125.6 132.9 125.8 132.7 126.1 132.7 C 126.4 132.7 126.6 132.9 126.6 133.2 C 126.6 133.5 126.4 133.7 126.1 133.7 C 125.8 133.7 125.6 133.5 125.6 133.2 Z " stroke="none" fill="#000"/>
  </g>
  <g id="Polygon112856">
    <path d="M 25.3 116.6 C 25.3 117.8 24.4 118.7 22.7 118.7 C 21.7 118.7 20.8 118.4 20.2 117.8 C 20.2 117.8 20.6 117.3 20.6 117.3 C 21 117.7 21.8 118.1 22.7 118.1 C 23.9 118.1 24.5 117.5 24.5 116.6 C 24.5 115.7 24 115.2 22.2 115.2 C 22.2 115.19 20.7 115.2 20.7 115.2 L 21.1 111.7 L 24.9 111.7 L 24.9 112.3 L 21.7 112.3 L 21.5 114.6 C 21.5 114.6 22.36 114.55 22.4 114.6 C 24.5 114.6 25.3 115.4 25.3 116.6 Z M 26.2 118.2 C 26.2 117.9 26.4 117.6 26.7 117.6 C 27 117.6 27.3 117.9 27.3 118.2 C 27.3 118.5 27 118.7 26.7 118.7 C 26.4 118.7 26.2 118.5 26.2 118.2 Z M 46.7 111.7 L 44.4 118.7 L 43.6 118.7 L 41.6 112.7 L 39.5 118.7 L 38.7 118.7 L 36.4 111.7 L 37.1 111.7 L 39.2 117.7 L 41.2 111.7 L 41.9 111.7 L 44 117.7 L 46 111.7 L 46.7 111.7 Z M 52.9 115.6 C 52.94 115.63 52.9 118.7 52.9 118.7 L 52.2 118.7 C 52.2 118.7 52.23 115.7 52.2 115.7 C 52.2 114.6 51.7 114 50.6 114 C 49.5 114 48.8 114.7 48.8 115.9 C 48.81 115.92 48.8 118.7 48.8 118.7 L 48.1 118.7 L 48.1 111.3 L 48.8 111.3 C 48.8 111.3 48.81 114.34 48.8 114.3 C 49.2 113.7 49.9 113.4 50.8 113.4 C 52.1 113.4 52.9 114.1 52.9 115.6 Z M 58.8 115.4 C 58.84 115.42 58.8 118.7 58.8 118.7 L 58.2 118.7 C 58.2 118.7 58.16 117.86 58.2 117.9 C 57.8 118.4 57.2 118.7 56.3 118.7 C 55.2 118.7 54.4 118.1 54.4 117.2 C 54.4 116.4 54.9 115.7 56.5 115.7 C 56.46 115.71 58.1 115.7 58.1 115.7 C 58.1 115.7 58.13 115.39 58.1 115.4 C 58.1 114.5 57.6 114 56.6 114 C 56 114 55.3 114.2 54.9 114.6 C 54.9 114.6 54.6 114.1 54.6 114.1 C 55.1 113.6 55.9 113.4 56.7 113.4 C 58.1 113.4 58.8 114.1 58.8 115.4 Z M 58.1 117.1 C 58.13 117.1 58.1 116.2 58.1 116.2 C 58.1 116.2 56.48 116.24 56.5 116.2 C 55.5 116.2 55.1 116.6 55.1 117.2 C 55.1 117.8 55.6 118.2 56.5 118.2 C 57.3 118.2 57.9 117.8 58.1 117.1 Z M 63.5 118.4 C 63.3 118.6 62.8 118.7 62.4 118.7 C 61.4 118.7 60.9 118.2 60.9 117.2 C 60.89 117.2 60.9 114 60.9 114 L 60 114 L 60 113.4 L 60.9 113.4 L 60.9 112.3 L 61.6 112.3 L 61.6 113.4 L 63.2 113.4 L 63.2 114 L 61.6 114 C 61.6 114 61.6 117.16 61.6 117.2 C 61.6 117.8 61.9 118.1 62.5 118.1 C 62.8 118.1 63.1 118 63.3 117.9 C 63.3 117.9 63.5 118.4 63.5 118.4 Z M 70.1 113.4 C 70.1 113.4 70.1 114.1 70.1 114.1 C 70 114.1 70 114.1 69.9 114.1 C 68.8 114.1 68.2 114.8 68.2 116 C 68.16 116 68.2 118.7 68.2 118.7 L 67.5 118.7 L 67.5 113.4 L 68.1 113.4 C 68.1 113.4 68.13 114.45 68.1 114.4 C 68.5 113.7 69.1 113.4 70.1 113.4 Z M 76.2 113.4 L 76.2 118.7 L 75.5 118.7 C 75.5 118.7 75.52 117.72 75.5 117.7 C 75.1 118.4 74.5 118.7 73.6 118.7 C 72.3 118.7 71.4 118 71.4 116.5 C 71.41 116.47 71.4 113.4 71.4 113.4 L 72.1 113.4 C 72.1 113.4 72.12 116.4 72.1 116.4 C 72.1 117.5 72.7 118.1 73.7 118.1 C 74.8 118.1 75.5 117.4 75.5 116.2 C 75.49 116.18 75.5 113.4 75.5 113.4 L 76.2 113.4 Z M 78.2 111.3 L 78.9 111.3 L 78.9 118.7 L 78.2 118.7 L 78.2 111.3 Z M 85.5 116.3 C 85.5 116.3 81.1 116.3 81.1 116.3 C 81.1 117.4 82 118.1 83.1 118.1 C 83.8 118.1 84.3 117.9 84.7 117.4 C 84.7 117.4 85.1 117.9 85.1 117.9 C 84.7 118.4 83.9 118.7 83.1 118.7 C 81.5 118.7 80.3 117.6 80.3 116 C 80.3 114.5 81.4 113.4 82.9 113.4 C 84.4 113.4 85.5 114.5 85.5 116 C 85.5 116.1 85.5 116.2 85.5 116.3 Z M 81.1 115.7 C 81.1 115.7 84.8 115.7 84.8 115.7 C 84.7 114.7 83.9 114 82.9 114 C 81.9 114 81.1 114.7 81.1 115.7 Z M 89 116 C 89 114.5 90.1 113.4 91.7 113.4 C 93.2 113.4 94.4 114.5 94.4 116 C 94.4 117.6 93.2 118.7 91.7 118.7 C 90.1 118.7 89 117.6 89 116 Z M 93.6 116 C 93.6 114.8 92.8 114 91.7 114 C 90.6 114 89.7 114.8 89.7 116 C 89.7 117.3 90.6 118.1 91.7 118.1 C 92.8 118.1 93.6 117.3 93.6 116 Z M 98.5 113.4 C 98.5 113.4 98.5 114.1 98.5 114.1 C 98.4 114.1 98.3 114.1 98.3 114.1 C 97.2 114.1 96.5 114.8 96.5 116 C 96.52 116 96.5 118.7 96.5 118.7 L 95.8 118.7 L 95.8 113.4 L 96.5 113.4 C 96.5 113.4 96.49 114.45 96.5 114.4 C 96.8 113.7 97.5 113.4 98.5 113.4 Z M 104.4 116 L 103.1 117.2 L 103.1 118.7 L 102.4 118.7 L 102.4 111.3 L 103.1 111.3 L 103.1 116.3 L 106.3 113.4 L 107.2 113.4 L 104.9 115.6 L 107.4 118.7 L 106.5 118.7 L 104.4 116 Z M 113.2 115.6 C 113.21 115.63 113.2 118.7 113.2 118.7 L 112.5 118.7 C 112.5 118.7 112.5 115.7 112.5 115.7 C 112.5 114.6 111.9 114 110.9 114 C 109.8 114 109.1 114.7 109.1 115.9 C 109.08 115.92 109.1 118.7 109.1 118.7 L 108.4 118.7 L 108.4 113.4 L 109 113.4 C 109 113.4 109.05 114.39 109 114.4 C 109.4 113.7 110.1 113.4 111 113.4 C 112.3 113.4 113.2 114.1 113.2 115.6 Z M 114.6 116 C 114.6 114.5 115.8 113.4 117.3 113.4 C 118.8 113.4 120 114.5 120 116 C 120 117.6 118.8 118.7 117.3 118.7 C 115.8 118.7 114.6 117.6 114.6 116 Z M 119.3 116 C 119.3 114.8 118.4 114 117.3 114 C 116.2 114 115.3 114.8 115.3 116 C 115.3 117.3 116.2 118.1 117.3 118.1 C 118.4 118.1 119.3 117.3 119.3 116 Z M 129 113.4 L 127 118.7 L 126.3 118.7 L 124.7 114.4 L 123 118.7 L 122.3 118.7 L 120.4 113.4 L 121 113.4 L 122.7 117.9 L 124.4 113.4 L 125 113.4 L 126.7 117.9 L 128.3 113.4 L 129 113.4 Z M 130.1 111.3 L 130.8 111.3 L 130.8 118.7 L 130.1 118.7 L 130.1 111.3 Z M 137.3 116.3 C 137.3 116.3 132.9 116.3 132.9 116.3 C 133 117.4 133.9 118.1 135 118.1 C 135.6 118.1 136.2 117.9 136.6 117.4 C 136.6 117.4 137 117.9 137 117.9 C 136.5 118.4 135.8 118.7 135 118.7 C 133.3 118.7 132.2 117.6 132.2 116 C 132.2 114.5 133.3 113.4 134.8 113.4 C 136.3 113.4 137.3 114.5 137.3 116 C 137.3 116.1 137.3 116.2 137.3 116.3 Z M 132.9 115.7 C 132.9 115.7 136.7 115.7 136.7 115.7 C 136.6 114.7 135.8 114 134.8 114 C 133.8 114 133 114.7 132.9 115.7 Z M 143.6 111.3 L 143.6 118.7 L 142.9 118.7 C 142.9 118.7 142.92 117.64 142.9 117.6 C 142.5 118.3 141.8 118.7 140.9 118.7 C 139.4 118.7 138.3 117.6 138.3 116 C 138.3 114.5 139.4 113.4 140.9 113.4 C 141.7 113.4 142.4 113.7 142.9 114.4 C 142.89 114.42 142.9 111.3 142.9 111.3 L 143.6 111.3 Z M 142.9 116 C 142.9 114.8 142.1 114 140.9 114 C 139.8 114 139 114.8 139 116 C 139 117.3 139.8 118.1 140.9 118.1 C 142.1 118.1 142.9 117.3 142.9 116 Z M 150.4 113.4 C 150.4 113.4 150.45 118.04 150.4 118 C 150.4 119.9 149.6 120.7 147.8 120.7 C 146.9 120.7 145.9 120.4 145.4 119.9 C 145.4 119.9 145.7 119.3 145.7 119.3 C 146.2 119.8 147 120 147.8 120 C 149.1 120 149.7 119.4 149.7 118.1 C 149.7 118.1 149.7 117.5 149.7 117.5 C 149.3 118.1 148.5 118.5 147.7 118.5 C 146.2 118.5 145 117.4 145 115.9 C 145 114.4 146.2 113.4 147.7 113.4 C 148.6 113.4 149.3 113.7 149.8 114.4 C 149.77 114.43 149.8 113.4 149.8 113.4 L 150.4 113.4 Z M 149.8 115.9 C 149.8 114.8 148.9 114 147.8 114 C 146.6 114 145.8 114.8 145.8 115.9 C 145.8 117.1 146.6 117.9 147.8 117.9 C 148.9 117.9 149.8 117.1 149.8 115.9 Z M 157 116.3 C 157 116.3 152.6 116.3 152.6 116.3 C 152.7 117.4 153.5 118.1 154.7 118.1 C 155.3 118.1 155.9 117.9 156.3 117.4 C 156.3 117.4 156.7 117.9 156.7 117.9 C 156.2 118.4 155.5 118.7 154.7 118.7 C 153 118.7 151.9 117.6 151.9 116 C 151.9 114.5 153 113.4 154.5 113.4 C 156 113.4 157 114.5 157 116 C 157 116.1 157 116.2 157 116.3 Z M 152.6 115.7 C 152.6 115.7 156.3 115.7 156.3 115.7 C 156.3 114.7 155.5 114 154.5 114 C 153.5 114 152.7 114.7 152.6 115.7 Z M 166.4 116 C 166.4 117.6 165.3 118.7 163.8 118.7 C 162.9 118.7 162.2 118.3 161.8 117.6 C 161.78 117.64 161.8 118.7 161.8 118.7 L 161.1 118.7 L 161.1 111.3 L 161.8 111.3 C 161.8 111.3 161.81 114.42 161.8 114.4 C 162.2 113.7 163 113.4 163.8 113.4 C 165.3 113.4 166.4 114.5 166.4 116 Z M 165.7 116 C 165.7 114.8 164.9 114 163.8 114 C 162.6 114 161.8 114.8 161.8 116 C 161.8 117.3 162.6 118.1 163.8 118.1 C 164.9 118.1 165.7 117.3 165.7 116 Z M 171.8 115.4 C 171.82 115.42 171.8 118.7 171.8 118.7 L 171.1 118.7 C 171.1 118.7 171.14 117.86 171.1 117.9 C 170.8 118.4 170.2 118.7 169.3 118.7 C 168.1 118.7 167.4 118.1 167.4 117.2 C 167.4 116.4 167.9 115.7 169.4 115.7 C 169.44 115.71 171.1 115.7 171.1 115.7 C 171.1 115.7 171.11 115.39 171.1 115.4 C 171.1 114.5 170.6 114 169.6 114 C 168.9 114 168.3 114.2 167.9 114.6 C 167.9 114.6 167.5 114.1 167.5 114.1 C 168.1 113.6 168.9 113.4 169.7 113.4 C 171 113.4 171.8 114.1 171.8 115.4 Z M 171.1 117.1 C 171.11 117.1 171.1 116.2 171.1 116.2 C 171.1 116.2 169.46 116.24 169.5 116.2 C 168.4 116.2 168.1 116.6 168.1 117.2 C 168.1 117.8 168.6 118.2 169.4 118.2 C 170.2 118.2 170.8 117.8 171.1 117.1 Z M 173 118.1 C 173 118.1 173.3 117.5 173.3 117.5 C 173.8 117.9 174.5 118.1 175.2 118.1 C 176.2 118.1 176.6 117.8 176.6 117.3 C 176.6 115.9 173.2 117 173.2 114.9 C 173.2 114 173.9 113.4 175.3 113.4 C 176 113.4 176.7 113.6 177.1 113.9 C 177.1 113.9 176.8 114.4 176.8 114.4 C 176.4 114.1 175.8 114 175.3 114 C 174.3 114 173.9 114.4 173.9 114.9 C 173.9 116.3 177.3 115.2 177.3 117.2 C 177.3 118.1 176.5 118.7 175.2 118.7 C 174.3 118.7 173.4 118.4 173 118.1 Z M 183.2 116.3 C 183.2 116.3 178.8 116.3 178.8 116.3 C 178.9 117.4 179.7 118.1 180.9 118.1 C 181.5 118.1 182.1 117.9 182.5 117.4 C 182.5 117.4 182.9 117.9 182.9 117.9 C 182.4 118.4 181.7 118.7 180.9 118.7 C 179.2 118.7 178.1 117.6 178.1 116 C 178.1 114.5 179.2 113.4 180.7 113.4 C 182.2 113.4 183.2 114.5 183.2 116 C 183.2 116.1 183.2 116.2 183.2 116.3 Z M 178.8 115.7 C 178.8 115.7 182.5 115.7 182.5 115.7 C 182.5 114.7 181.7 114 180.7 114 C 179.7 114 178.9 114.7 178.8 115.7 Z M 189.5 111.3 L 189.5 118.7 L 188.8 118.7 C 188.8 118.7 188.8 117.64 188.8 117.6 C 188.4 118.3 187.6 118.7 186.8 118.7 C 185.3 118.7 184.1 117.6 184.1 116 C 184.1 114.5 185.3 113.4 186.8 113.4 C 187.6 113.4 188.3 113.7 188.8 114.4 C 188.77 114.42 188.8 111.3 188.8 111.3 L 189.5 111.3 Z M 188.8 116 C 188.8 114.8 187.9 114 186.8 114 C 185.7 114 184.9 114.8 184.9 116 C 184.9 117.3 185.7 118.1 186.8 118.1 C 187.9 118.1 188.8 117.3 188.8 116 Z M 202.8 115.6 C 202.76 115.63 202.8 118.7 202.8 118.7 L 202 118.7 C 202 118.7 202.05 115.7 202 115.7 C 202 114.6 201.5 114 200.5 114 C 199.5 114 198.8 114.7 198.8 115.9 C 198.78 115.92 198.8 118.7 198.8 118.7 L 198.1 118.7 C 198.1 118.7 198.07 115.7 198.1 115.7 C 198.1 114.6 197.5 114 196.5 114 C 195.5 114 194.8 114.7 194.8 115.9 C 194.79 115.92 194.8 118.7 194.8 118.7 L 194.1 118.7 L 194.1 113.4 L 194.8 113.4 C 194.8 113.4 194.76 114.38 194.8 114.4 C 195.1 113.7 195.8 113.4 196.7 113.4 C 197.6 113.4 198.2 113.7 198.6 114.5 C 198.9 113.8 199.7 113.4 200.6 113.4 C 201.9 113.4 202.8 114.1 202.8 115.6 Z M 204.5 111.8 C 204.5 111.5 204.8 111.3 205 111.3 C 205.3 111.3 205.6 111.5 205.6 111.7 C 205.6 112 205.3 112.3 205 112.3 C 204.8 112.3 204.5 112 204.5 111.8 Z M 204.7 113.4 L 205.4 113.4 L 205.4 118.7 L 204.7 118.7 L 204.7 113.4 Z M 206.6 118.1 C 206.6 118.1 207 117.5 207 117.5 C 207.4 117.9 208.1 118.1 208.8 118.1 C 209.8 118.1 210.2 117.8 210.2 117.3 C 210.2 115.9 206.8 117 206.8 114.9 C 206.8 114 207.6 113.4 208.9 113.4 C 209.6 113.4 210.3 113.6 210.8 113.9 C 210.8 113.9 210.5 114.4 210.5 114.4 C 210 114.1 209.5 114 208.9 114 C 208 114 207.5 114.4 207.5 114.9 C 207.5 116.3 211 115.2 211 117.2 C 211 118.1 210.2 118.7 208.8 118.7 C 207.9 118.7 207.1 118.4 206.6 118.1 Z M 215 118.4 C 214.8 118.6 214.3 118.7 213.9 118.7 C 212.9 118.7 212.4 118.2 212.4 117.2 C 212.39 117.2 212.4 114 212.4 114 L 211.4 114 L 211.4 113.4 L 212.4 113.4 L 212.4 112.3 L 213.1 112.3 L 213.1 113.4 L 214.7 113.4 L 214.7 114 L 213.1 114 C 213.1 114 213.1 117.16 213.1 117.2 C 213.1 117.8 213.4 118.1 214 118.1 C 214.3 118.1 214.6 118 214.8 117.9 C 214.8 117.9 215 118.4 215 118.4 Z M 220.3 115.4 C 220.3 115.42 220.3 118.7 220.3 118.7 L 219.6 118.7 C 219.6 118.7 219.62 117.86 219.6 117.9 C 219.3 118.4 218.7 118.7 217.8 118.7 C 216.6 118.7 215.9 118.1 215.9 117.2 C 215.9 116.4 216.4 115.7 217.9 115.7 C 217.92 115.71 219.6 115.7 219.6 115.7 C 219.6 115.7 219.59 115.39 219.6 115.4 C 219.6 114.5 219.1 114 218.1 114 C 217.4 114 216.8 114.2 216.3 114.6 C 216.3 114.6 216 114.1 216 114.1 C 216.6 113.6 217.3 113.4 218.2 113.4 C 219.5 113.4 220.3 114.1 220.3 115.4 Z M 219.6 117.1 C 219.59 117.1 219.6 116.2 219.6 116.2 C 219.6 116.2 217.94 116.24 217.9 116.2 C 216.9 116.2 216.6 116.6 216.6 117.2 C 216.6 117.8 217.1 118.2 217.9 118.2 C 218.7 118.2 219.3 117.8 219.6 117.1 Z M 224.2 116 L 222.9 117.2 L 222.9 118.7 L 222.2 118.7 L 222.2 111.3 L 222.9 111.3 L 222.9 116.3 L 226.1 113.4 L 227 113.4 L 224.7 115.6 L 227.2 118.7 L 226.3 118.7 L 224.2 116 Z M 232.6 116.3 C 232.6 116.3 228.2 116.3 228.2 116.3 C 228.3 117.4 229.1 118.1 230.3 118.1 C 230.9 118.1 231.5 117.9 231.9 117.4 C 231.9 117.4 232.3 117.9 232.3 117.9 C 231.8 118.4 231.1 118.7 230.3 118.7 C 228.6 118.7 227.5 117.6 227.5 116 C 227.5 114.5 228.6 113.4 230.1 113.4 C 231.5 113.4 232.6 114.5 232.6 116 C 232.6 116.1 232.6 116.2 232.6 116.3 Z M 228.2 115.7 C 228.2 115.7 231.9 115.7 231.9 115.7 C 231.8 114.7 231.1 114 230.1 114 C 229 114 228.3 114.7 228.2 115.7 Z M 233.3 118.1 C 233.3 118.1 233.7 117.5 233.7 117.5 C 234.1 117.9 234.8 118.1 235.5 118.1 C 236.5 118.1 236.9 117.8 236.9 117.3 C 236.9 115.9 233.5 117 233.5 114.9 C 233.5 114 234.3 113.4 235.6 113.4 C 236.3 113.4 237 113.6 237.5 113.9 C 237.5 113.9 237.2 114.4 237.2 114.4 C 236.7 114.1 236.1 114 235.6 114 C 234.7 114 234.2 114.4 234.2 114.9 C 234.2 116.3 237.6 115.2 237.6 117.2 C 237.6 118.1 236.8 118.7 235.5 118.7 C 234.6 118.7 233.8 118.4 233.3 118.1 Z M 246.4 115.6 C 246.42 115.63 246.4 118.7 246.4 118.7 L 245.7 118.7 C 245.7 118.7 245.71 115.7 245.7 115.7 C 245.7 114.6 245.1 114 244.1 114 C 243 114 242.3 114.7 242.3 115.9 C 242.29 115.92 242.3 118.7 242.3 118.7 L 241.6 118.7 L 241.6 111.3 L 242.3 111.3 C 242.3 111.3 242.29 114.34 242.3 114.3 C 242.7 113.7 243.4 113.4 244.3 113.4 C 245.5 113.4 246.4 114.1 246.4 115.6 Z M 252.3 115.4 C 252.32 115.42 252.3 118.7 252.3 118.7 L 251.6 118.7 C 251.6 118.7 251.64 117.86 251.6 117.9 C 251.3 118.4 250.7 118.7 249.8 118.7 C 248.6 118.7 247.9 118.1 247.9 117.2 C 247.9 116.4 248.4 115.7 249.9 115.7 C 249.94 115.71 251.6 115.7 251.6 115.7 C 251.6 115.7 251.61 115.39 251.6 115.4 C 251.6 114.5 251.1 114 250.1 114 C 249.4 114 248.8 114.2 248.4 114.6 C 248.4 114.6 248 114.1 248 114.1 C 248.6 113.6 249.4 113.4 250.2 113.4 C 251.5 113.4 252.3 114.1 252.3 115.4 Z M 251.6 117.1 C 251.61 117.1 251.6 116.2 251.6 116.2 C 251.6 116.2 249.96 116.24 250 116.2 C 248.9 116.2 248.6 116.6 248.6 117.2 C 248.6 117.8 249.1 118.2 249.9 118.2 C 250.7 118.2 251.3 117.8 251.6 117.1 Z M 258.6 113.4 L 256.2 118.7 L 255.5 118.7 L 253.2 113.4 L 253.9 113.4 L 255.9 117.9 L 257.9 113.4 L 258.6 113.4 Z M 264 116.3 C 264 116.3 259.6 116.3 259.6 116.3 C 259.7 117.4 260.5 118.1 261.7 118.1 C 262.3 118.1 262.9 117.9 263.3 117.4 C 263.3 117.4 263.7 117.9 263.7 117.9 C 263.2 118.4 262.5 118.7 261.6 118.7 C 260 118.7 258.9 117.6 258.9 116 C 258.9 114.5 260 113.4 261.5 113.4 C 262.9 113.4 264 114.5 264 116 C 264 116.1 264 116.2 264 116.3 Z M 259.6 115.7 C 259.6 115.7 263.3 115.7 263.3 115.7 C 263.2 114.7 262.5 114 261.5 114 C 260.4 114 259.7 114.7 259.6 115.7 Z M 273.4 116 C 273.4 117.6 272.3 118.7 270.8 118.7 C 269.9 118.7 269.2 118.3 268.8 117.6 C 268.76 117.64 268.8 118.7 268.8 118.7 L 268.1 118.7 L 268.1 111.3 L 268.8 111.3 C 268.8 111.3 268.79 114.42 268.8 114.4 C 269.2 113.7 269.9 113.4 270.8 113.4 C 272.3 113.4 273.4 114.5 273.4 116 Z M 272.7 116 C 272.7 114.8 271.8 114 270.7 114 C 269.6 114 268.8 114.8 268.8 116 C 268.8 117.3 269.6 118.1 270.7 118.1 C 271.8 118.1 272.7 117.3 272.7 116 Z M 279.4 116.3 C 279.4 116.3 275 116.3 275 116.3 C 275.1 117.4 276 118.1 277.1 118.1 C 277.7 118.1 278.3 117.9 278.7 117.4 C 278.7 117.4 279.1 117.9 279.1 117.9 C 278.6 118.4 277.9 118.7 277.1 118.7 C 275.4 118.7 274.3 117.6 274.3 116 C 274.3 114.5 275.4 113.4 276.9 113.4 C 278.4 113.4 279.4 114.5 279.4 116 C 279.4 116.1 279.4 116.2 279.4 116.3 Z M 275 115.7 C 275 115.7 278.8 115.7 278.8 115.7 C 278.7 114.7 277.9 114 276.9 114 C 275.9 114 275.1 114.7 275 115.7 Z M 285.5 116.3 C 285.5 116.3 281.1 116.3 281.1 116.3 C 281.2 117.4 282 118.1 283.1 118.1 C 283.8 118.1 284.4 117.9 284.8 117.4 C 284.8 117.4 285.2 117.9 285.2 117.9 C 284.7 118.4 284 118.7 283.1 118.7 C 281.5 118.7 280.4 117.6 280.4 116 C 280.4 114.5 281.5 113.4 282.9 113.4 C 284.4 113.4 285.5 114.5 285.5 116 C 285.5 116.1 285.5 116.2 285.5 116.3 Z M 281.1 115.7 C 281.1 115.7 284.8 115.7 284.8 115.7 C 284.7 114.7 284 114 282.9 114 C 281.9 114 281.2 114.7 281.1 115.7 Z M 291.8 115.6 C 291.78 115.63 291.8 118.7 291.8 118.7 L 291.1 118.7 C 291.1 118.7 291.07 115.7 291.1 115.7 C 291.1 114.6 290.5 114 289.5 114 C 288.4 114 287.6 114.7 287.6 115.9 C 287.65 115.92 287.6 118.7 287.6 118.7 L 286.9 118.7 L 286.9 113.4 L 287.6 113.4 C 287.6 113.4 287.62 114.39 287.6 114.4 C 288 113.7 288.7 113.4 289.6 113.4 C 290.9 113.4 291.8 114.1 291.8 115.6 Z M 305 115.6 C 305.01 115.63 305 118.7 305 118.7 L 304.3 118.7 C 304.3 118.7 304.3 115.7 304.3 115.7 C 304.3 114.6 303.7 114 302.8 114 C 301.7 114 301 114.7 301 115.9 C 301.03 115.92 301 118.7 301 118.7 L 300.3 118.7 C 300.3 118.7 300.32 115.7 300.3 115.7 C 300.3 114.6 299.8 114 298.8 114 C 297.7 114 297 114.7 297 115.9 C 297.04 115.92 297 118.7 297 118.7 L 296.3 118.7 L 296.3 113.4 L 297 113.4 C 297 113.4 297.01 114.38 297 114.4 C 297.4 113.7 298.1 113.4 298.9 113.4 C 299.8 113.4 300.5 113.7 300.8 114.5 C 301.2 113.8 301.9 113.4 302.9 113.4 C 304.2 113.4 305 114.1 305 115.6 Z M 310.9 115.4 C 310.91 115.42 310.9 118.7 310.9 118.7 L 310.2 118.7 C 310.2 118.7 310.23 117.86 310.2 117.9 C 309.9 118.4 309.3 118.7 308.4 118.7 C 307.2 118.7 306.5 118.1 306.5 117.2 C 306.5 116.4 307 115.7 308.5 115.7 C 308.53 115.71 310.2 115.7 310.2 115.7 C 310.2 115.7 310.2 115.39 310.2 115.4 C 310.2 114.5 309.7 114 308.7 114 C 308 114 307.4 114.2 307 114.6 C 307 114.6 306.6 114.1 306.6 114.1 C 307.2 113.6 307.9 113.4 308.8 113.4 C 310.1 113.4 310.9 114.1 310.9 115.4 Z M 310.2 117.1 C 310.2 117.1 310.2 116.2 310.2 116.2 C 310.2 116.2 308.55 116.24 308.5 116.2 C 307.5 116.2 307.2 116.6 307.2 117.2 C 307.2 117.8 307.7 118.2 308.5 118.2 C 309.3 118.2 309.9 117.8 310.2 117.1 Z M 317.7 111.3 L 317.7 118.7 L 317 118.7 C 317 118.7 316.98 117.64 317 117.6 C 316.5 118.3 315.8 118.7 314.9 118.7 C 313.4 118.7 312.3 117.6 312.3 116 C 312.3 114.5 313.4 113.4 314.9 113.4 C 315.8 113.4 316.5 113.7 316.9 114.4 C 316.95 114.42 316.9 111.3 316.9 111.3 L 317.7 111.3 Z M 317 116 C 317 114.8 316.1 114 315 114 C 313.9 114 313 114.8 313 116 C 313 117.3 313.9 118.1 315 118.1 C 316.1 118.1 317 117.3 317 116 Z M 324.2 116.3 C 324.2 116.3 319.8 116.3 319.8 116.3 C 319.9 117.4 320.7 118.1 321.9 118.1 C 322.5 118.1 323.1 117.9 323.5 117.4 C 323.5 117.4 323.9 117.9 323.9 117.9 C 323.4 118.4 322.7 118.7 321.9 118.7 C 320.2 118.7 319.1 117.6 319.1 116 C 319.1 114.5 320.2 113.4 321.7 113.4 C 323.2 113.4 324.2 114.5 324.2 116 C 324.2 116.1 324.2 116.2 324.2 116.3 Z M 319.8 115.7 C 319.8 115.7 323.5 115.7 323.5 115.7 C 323.5 114.7 322.7 114 321.7 114 C 320.7 114 319.9 114.7 319.8 115.7 Z M 328.1 111.8 C 328.1 111.5 328.4 111.3 328.7 111.3 C 328.9 111.3 329.2 111.5 329.2 111.7 C 329.2 112 329 112.3 328.7 112.3 C 328.4 112.3 328.1 112 328.1 111.8 Z M 328.3 113.4 L 329 113.4 L 329 118.7 L 328.3 118.7 L 328.3 113.4 Z M 335.8 115.6 C 335.83 115.63 335.8 118.7 335.8 118.7 L 335.1 118.7 C 335.1 118.7 335.12 115.7 335.1 115.7 C 335.1 114.6 334.5 114 333.5 114 C 332.4 114 331.7 114.7 331.7 115.9 C 331.7 115.92 331.7 118.7 331.7 118.7 L 331 118.7 L 331 113.4 L 331.7 113.4 C 331.7 113.4 331.67 114.39 331.7 114.4 C 332 113.7 332.8 113.4 333.7 113.4 C 334.9 113.4 335.8 114.1 335.8 115.6 Z " stroke="none" fill="#000"/>
  </g>
  <g id="Polygon112855">
    <path d="M 26.5 98.8 L 25.1 98.8 L 25.1 100.7 L 24.4 100.7 L 24.4 98.8 L 20.4 98.8 L 20.4 98.3 L 24.1 93.7 L 24.9 93.7 L 21.3 98.2 L 24.4 98.2 L 24.4 96.6 L 25.1 96.6 L 25.1 98.2 L 26.5 98.2 L 26.5 98.8 Z M 27.3 100.2 C 27.3 99.9 27.6 99.6 27.9 99.6 C 28.2 99.6 28.4 99.9 28.4 100.2 C 28.4 100.5 28.2 100.7 27.9 100.7 C 27.6 100.7 27.3 100.5 27.3 100.2 Z M 46.7 93.7 L 44.4 100.7 L 43.6 100.7 L 41.6 94.7 L 39.5 100.7 L 38.7 100.7 L 36.4 93.7 L 37.1 93.7 L 39.2 99.7 L 41.2 93.7 L 41.9 93.7 L 44 99.7 L 46 93.7 L 46.7 93.7 Z M 52.9 97.6 C 52.94 97.63 52.9 100.7 52.9 100.7 L 52.2 100.7 C 52.2 100.7 52.23 97.7 52.2 97.7 C 52.2 96.6 51.7 96 50.6 96 C 49.5 96 48.8 96.7 48.8 97.9 C 48.81 97.92 48.8 100.7 48.8 100.7 L 48.1 100.7 L 48.1 93.3 L 48.8 93.3 C 48.8 93.3 48.81 96.34 48.8 96.3 C 49.2 95.7 49.9 95.4 50.8 95.4 C 52.1 95.4 52.9 96.1 52.9 97.6 Z M 58.8 97.4 C 58.84 97.42 58.8 100.7 58.8 100.7 L 58.2 100.7 C 58.2 100.7 58.16 99.86 58.2 99.9 C 57.8 100.4 57.2 100.7 56.3 100.7 C 55.2 100.7 54.4 100.1 54.4 99.2 C 54.4 98.4 54.9 97.7 56.5 97.7 C 56.46 97.71 58.1 97.7 58.1 97.7 C 58.1 97.7 58.13 97.39 58.1 97.4 C 58.1 96.5 57.6 96 56.6 96 C 56 96 55.3 96.2 54.9 96.6 C 54.9 96.6 54.6 96.1 54.6 96.1 C 55.1 95.6 55.9 95.4 56.7 95.4 C 58.1 95.4 58.8 96.1 58.8 97.4 Z M 58.1 99.1 C 58.13 99.1 58.1 98.2 58.1 98.2 C 58.1 98.2 56.48 98.24 56.5 98.2 C 55.5 98.2 55.1 98.6 55.1 99.2 C 55.1 99.8 55.6 100.2 56.5 100.2 C 57.3 100.2 57.9 99.8 58.1 99.1 Z M 63.5 100.4 C 63.3 100.6 62.8 100.7 62.4 100.7 C 61.4 100.7 60.9 100.2 60.9 99.2 C 60.89 99.2 60.9 96 60.9 96 L 60 96 L 60 95.4 L 60.9 95.4 L 60.9 94.3 L 61.6 94.3 L 61.6 95.4 L 63.2 95.4 L 63.2 96 L 61.6 96 C 61.6 96 61.6 99.16 61.6 99.2 C 61.6 99.8 61.9 100.1 62.5 100.1 C 62.8 100.1 63.1 100 63.3 99.9 C 63.3 99.9 63.5 100.4 63.5 100.4 Z M 66.7 100.1 C 66.7 100.1 67 99.5 67 99.5 C 67.5 99.9 68.2 100.1 68.9 100.1 C 69.9 100.1 70.3 99.8 70.3 99.3 C 70.3 97.9 66.9 99 66.9 96.9 C 66.9 96 67.6 95.4 69 95.4 C 69.7 95.4 70.4 95.6 70.8 95.9 C 70.8 95.9 70.5 96.4 70.5 96.4 C 70.1 96.1 69.5 96 69 96 C 68 96 67.6 96.4 67.6 96.9 C 67.6 98.3 71 97.2 71 99.2 C 71 100.1 70.2 100.7 68.9 100.7 C 68 100.7 67.1 100.4 66.7 100.1 Z M 74.3 98 L 73 99.2 L 73 100.7 L 72.3 100.7 L 72.3 93.3 L 73 93.3 L 73 98.3 L 76.2 95.4 L 77.1 95.4 L 74.8 97.6 L 77.3 100.7 L 76.4 100.7 L 74.3 98 Z M 78.1 93.8 C 78.1 93.5 78.3 93.3 78.6 93.3 C 78.9 93.3 79.1 93.5 79.1 93.7 C 79.1 94 78.9 94.3 78.6 94.3 C 78.3 94.3 78.1 94 78.1 93.8 Z M 78.3 95.4 L 79 95.4 L 79 100.7 L 78.3 100.7 L 78.3 95.4 Z M 81 93.3 L 81.7 93.3 L 81.7 100.7 L 81 100.7 L 81 93.3 Z M 83.7 93.3 L 84.4 93.3 L 84.4 100.7 L 83.7 100.7 L 83.7 93.3 Z M 86 97.7 L 88.6 97.7 L 88.6 98.3 L 86 98.3 L 86 97.7 Z M 95.5 98 C 95.5 99.6 94.4 100.7 92.9 100.7 C 92 100.7 91.3 100.3 90.8 99.6 C 90.84 99.64 90.8 100.7 90.8 100.7 L 90.2 100.7 L 90.2 93.3 L 90.9 93.3 C 90.9 93.3 90.87 96.42 90.9 96.4 C 91.3 95.7 92 95.4 92.9 95.4 C 94.4 95.4 95.5 96.5 95.5 98 Z M 94.8 98 C 94.8 96.8 93.9 96 92.8 96 C 91.7 96 90.9 96.8 90.9 98 C 90.9 99.3 91.7 100.1 92.8 100.1 C 93.9 100.1 94.8 99.3 94.8 98 Z M 100.9 97.4 C 100.88 97.42 100.9 100.7 100.9 100.7 L 100.2 100.7 C 100.2 100.7 100.2 99.86 100.2 99.9 C 99.9 100.4 99.3 100.7 98.4 100.7 C 97.2 100.7 96.5 100.1 96.5 99.2 C 96.5 98.4 97 97.7 98.5 97.7 C 98.5 97.71 100.2 97.7 100.2 97.7 C 100.2 97.7 100.17 97.39 100.2 97.4 C 100.2 96.5 99.7 96 98.7 96 C 98 96 97.4 96.2 96.9 96.6 C 96.9 96.6 96.6 96.1 96.6 96.1 C 97.1 95.6 97.9 95.4 98.7 95.4 C 100.1 95.4 100.9 96.1 100.9 97.4 Z M 100.2 99.1 C 100.17 99.1 100.2 98.2 100.2 98.2 C 100.2 98.2 98.52 98.24 98.5 98.2 C 97.5 98.2 97.2 98.6 97.2 99.2 C 97.2 99.8 97.7 100.2 98.5 100.2 C 99.3 100.2 99.9 99.8 100.2 99.1 Z M 102.1 100.1 C 102.1 100.1 102.4 99.5 102.4 99.5 C 102.8 99.9 103.5 100.1 104.3 100.1 C 105.3 100.1 105.7 99.8 105.7 99.3 C 105.7 97.9 102.3 99 102.3 96.9 C 102.3 96 103 95.4 104.3 95.4 C 105 95.4 105.8 95.6 106.2 95.9 C 106.2 95.9 105.9 96.4 105.9 96.4 C 105.4 96.1 104.9 96 104.3 96 C 103.4 96 103 96.4 103 96.9 C 103 98.3 106.4 97.2 106.4 99.2 C 106.4 100.1 105.6 100.7 104.2 100.7 C 103.3 100.7 102.5 100.4 102.1 100.1 Z M 112.3 98.3 C 112.3 98.3 107.9 98.3 107.9 98.3 C 108 99.4 108.8 100.1 109.9 100.1 C 110.6 100.1 111.2 99.9 111.6 99.4 C 111.6 99.4 112 99.9 112 99.9 C 111.5 100.4 110.8 100.7 109.9 100.7 C 108.3 100.7 107.2 99.6 107.2 98 C 107.2 96.5 108.3 95.4 109.7 95.4 C 111.2 95.4 112.3 96.5 112.3 98 C 112.3 98.1 112.3 98.2 112.3 98.3 Z M 107.9 97.7 C 107.9 97.7 111.6 97.7 111.6 97.7 C 111.5 96.7 110.8 96 109.7 96 C 108.7 96 108 96.7 107.9 97.7 Z M 118.5 93.3 L 118.5 100.7 L 117.9 100.7 C 117.9 100.7 117.86 99.64 117.9 99.6 C 117.4 100.3 116.7 100.7 115.8 100.7 C 114.3 100.7 113.2 99.6 113.2 98 C 113.2 96.5 114.3 95.4 115.8 95.4 C 116.7 95.4 117.4 95.7 117.8 96.4 C 117.83 96.42 117.8 93.3 117.8 93.3 L 118.5 93.3 Z M 117.8 98 C 117.8 96.8 117 96 115.9 96 C 114.8 96 113.9 96.8 113.9 98 C 113.9 99.3 114.8 100.1 115.9 100.1 C 117 100.1 117.8 99.3 117.8 98 Z M 127.7 98.3 C 127.7 98.3 123.3 98.3 123.3 98.3 C 123.4 99.4 124.2 100.1 125.4 100.1 C 126 100.1 126.6 99.9 127 99.4 C 127 99.4 127.4 99.9 127.4 99.9 C 126.9 100.4 126.2 100.7 125.4 100.7 C 123.7 100.7 122.6 99.6 122.6 98 C 122.6 96.5 123.7 95.4 125.2 95.4 C 126.7 95.4 127.7 96.5 127.7 98 C 127.7 98.1 127.7 98.2 127.7 98.3 Z M 123.3 97.7 C 123.3 97.7 127 97.7 127 97.7 C 127 96.7 126.2 96 125.2 96 C 124.2 96 123.4 96.7 123.3 97.7 Z M 131.8 95.4 C 131.8 95.4 131.8 96.1 131.8 96.1 C 131.8 96.1 131.7 96.1 131.7 96.1 C 130.6 96.1 129.9 96.8 129.9 98 C 129.89 98 129.9 100.7 129.9 100.7 L 129.2 100.7 L 129.2 95.4 L 129.9 95.4 C 129.9 95.4 129.86 96.45 129.9 96.4 C 130.2 95.7 130.9 95.4 131.8 95.4 Z M 135.8 95.4 C 135.8 95.4 135.8 96.1 135.8 96.1 C 135.7 96.1 135.6 96.1 135.6 96.1 C 134.5 96.1 133.8 96.8 133.8 98 C 133.82 98 133.8 100.7 133.8 100.7 L 133.1 100.7 L 133.1 95.4 L 133.8 95.4 C 133.8 95.4 133.79 96.45 133.8 96.4 C 134.1 95.7 134.8 95.4 135.8 95.4 Z M 136.5 98 C 136.5 96.5 137.6 95.4 139.1 95.4 C 140.7 95.4 141.8 96.5 141.8 98 C 141.8 99.6 140.7 100.7 139.1 100.7 C 137.6 100.7 136.5 99.6 136.5 98 Z M 141.1 98 C 141.1 96.8 140.3 96 139.1 96 C 138 96 137.2 96.8 137.2 98 C 137.2 99.3 138 100.1 139.1 100.1 C 140.3 100.1 141.1 99.3 141.1 98 Z M 145.9 95.4 C 145.9 95.4 145.9 96.1 145.9 96.1 C 145.8 96.1 145.8 96.1 145.7 96.1 C 144.6 96.1 144 96.8 144 98 C 143.97 98 144 100.7 144 100.7 L 143.3 100.7 L 143.3 95.4 L 143.9 95.4 C 143.9 95.4 143.94 96.45 143.9 96.4 C 144.3 95.7 144.9 95.4 145.9 95.4 Z M 146.5 100.1 C 146.5 100.1 146.8 99.5 146.8 99.5 C 147.2 99.9 147.9 100.1 148.7 100.1 C 149.7 100.1 150.1 99.8 150.1 99.3 C 150.1 97.9 146.7 99 146.7 96.9 C 146.7 96 147.4 95.4 148.8 95.4 C 149.4 95.4 150.2 95.6 150.6 95.9 C 150.6 95.9 150.3 96.4 150.3 96.4 C 149.9 96.1 149.3 96 148.8 96 C 147.8 96 147.4 96.4 147.4 96.9 C 147.4 98.3 150.8 97.2 150.8 99.2 C 150.8 100.1 150 100.7 148.6 100.7 C 147.8 100.7 146.9 100.4 146.5 100.1 Z M 159.6 97.6 C 159.58 97.63 159.6 100.7 159.6 100.7 L 158.9 100.7 C 158.9 100.7 158.87 97.7 158.9 97.7 C 158.9 96.6 158.3 96 157.3 96 C 156.2 96 155.4 96.7 155.4 97.9 C 155.45 97.92 155.4 100.7 155.4 100.7 L 154.7 100.7 L 154.7 93.3 L 155.4 93.3 C 155.4 93.3 155.45 96.34 155.4 96.3 C 155.8 95.7 156.5 95.4 157.4 95.4 C 158.7 95.4 159.6 96.1 159.6 97.6 Z M 165.5 97.4 C 165.48 97.42 165.5 100.7 165.5 100.7 L 164.8 100.7 C 164.8 100.7 164.8 99.86 164.8 99.9 C 164.5 100.4 163.9 100.7 163 100.7 C 161.8 100.7 161.1 100.1 161.1 99.2 C 161.1 98.4 161.6 97.7 163.1 97.7 C 163.1 97.71 164.8 97.7 164.8 97.7 C 164.8 97.7 164.77 97.39 164.8 97.4 C 164.8 96.5 164.3 96 163.3 96 C 162.6 96 162 96.2 161.5 96.6 C 161.5 96.6 161.2 96.1 161.2 96.1 C 161.7 95.6 162.5 95.4 163.3 95.4 C 164.7 95.4 165.5 96.1 165.5 97.4 Z M 164.8 99.1 C 164.77 99.1 164.8 98.2 164.8 98.2 C 164.8 98.2 163.12 98.24 163.1 98.2 C 162.1 98.2 161.8 98.6 161.8 99.2 C 161.8 99.8 162.3 100.2 163.1 100.2 C 163.9 100.2 164.5 99.8 164.8 99.1 Z M 171.7 95.4 L 169.4 100.7 L 168.7 100.7 L 166.3 95.4 L 167.1 95.4 L 169 99.9 L 171 95.4 L 171.7 95.4 Z M 177.2 98.3 C 177.2 98.3 172.8 98.3 172.8 98.3 C 172.8 99.4 173.7 100.1 174.8 100.1 C 175.5 100.1 176 99.9 176.4 99.4 C 176.4 99.4 176.8 99.9 176.8 99.9 C 176.4 100.4 175.6 100.7 174.8 100.7 C 173.2 100.7 172 99.6 172 98 C 172 96.5 173.1 95.4 174.6 95.4 C 176.1 95.4 177.2 96.5 177.2 98 C 177.2 98.1 177.2 98.2 177.2 98.3 Z M 172.8 97.7 C 172.8 97.7 176.5 97.7 176.5 97.7 C 176.4 96.7 175.6 96 174.6 96 C 173.6 96 172.8 96.7 172.8 97.7 Z M 186.6 98 C 186.6 99.6 185.4 100.7 183.9 100.7 C 183.1 100.7 182.3 100.3 181.9 99.6 C 181.92 99.64 181.9 100.7 181.9 100.7 L 181.2 100.7 L 181.2 93.3 L 181.9 93.3 C 181.9 93.3 181.95 96.42 181.9 96.4 C 182.4 95.7 183.1 95.4 183.9 95.4 C 185.4 95.4 186.6 96.5 186.6 98 Z M 185.9 98 C 185.9 96.8 185 96 183.9 96 C 182.8 96 181.9 96.8 181.9 98 C 181.9 99.3 182.8 100.1 183.9 100.1 C 185 100.1 185.9 99.3 185.9 98 Z M 192.6 98.3 C 192.6 98.3 188.2 98.3 188.2 98.3 C 188.3 99.4 189.1 100.1 190.3 100.1 C 190.9 100.1 191.5 99.9 191.9 99.4 C 191.9 99.4 192.3 99.9 192.3 99.9 C 191.8 100.4 191.1 100.7 190.2 100.7 C 188.6 100.7 187.5 99.6 187.5 98 C 187.5 96.5 188.6 95.4 190.1 95.4 C 191.5 95.4 192.6 96.5 192.6 98 C 192.6 98.1 192.6 98.2 192.6 98.3 Z M 188.2 97.7 C 188.2 97.7 191.9 97.7 191.9 97.7 C 191.8 96.7 191.1 96 190.1 96 C 189 96 188.3 96.7 188.2 97.7 Z M 198.6 98.3 C 198.6 98.3 194.2 98.3 194.2 98.3 C 194.3 99.4 195.2 100.1 196.3 100.1 C 196.9 100.1 197.5 99.9 197.9 99.4 C 197.9 99.4 198.3 99.9 198.3 99.9 C 197.8 100.4 197.1 100.7 196.3 100.7 C 194.6 100.7 193.5 99.6 193.5 98 C 193.5 96.5 194.6 95.4 196.1 95.4 C 197.6 95.4 198.6 96.5 198.6 98 C 198.6 98.1 198.6 98.2 198.6 98.3 Z M 194.2 97.7 C 194.2 97.7 198 97.7 198 97.7 C 197.9 96.7 197.1 96 196.1 96 C 195.1 96 194.3 96.7 194.2 97.7 Z M 204.9 97.6 C 204.94 97.63 204.9 100.7 204.9 100.7 L 204.2 100.7 C 204.2 100.7 204.23 97.7 204.2 97.7 C 204.2 96.6 203.6 96 202.6 96 C 201.5 96 200.8 96.7 200.8 97.9 C 200.81 97.92 200.8 100.7 200.8 100.7 L 200.1 100.7 L 200.1 95.4 L 200.8 95.4 C 200.8 95.4 200.78 96.39 200.8 96.4 C 201.2 95.7 201.9 95.4 202.8 95.4 C 204.1 95.4 204.9 96.1 204.9 97.6 Z M 218.2 97.6 C 218.17 97.63 218.2 100.7 218.2 100.7 L 217.5 100.7 C 217.5 100.7 217.46 97.7 217.5 97.7 C 217.5 96.6 216.9 96 215.9 96 C 214.9 96 214.2 96.7 214.2 97.9 C 214.19 97.92 214.2 100.7 214.2 100.7 L 213.5 100.7 C 213.5 100.7 213.48 97.7 213.5 97.7 C 213.5 96.6 212.9 96 212 96 C 210.9 96 210.2 96.7 210.2 97.9 C 210.2 97.92 210.2 100.7 210.2 100.7 L 209.5 100.7 L 209.5 95.4 L 210.2 95.4 C 210.2 95.4 210.17 96.38 210.2 96.4 C 210.5 95.7 211.2 95.4 212.1 95.4 C 213 95.4 213.6 95.7 214 96.5 C 214.3 95.8 215.1 95.4 216 95.4 C 217.3 95.4 218.2 96.1 218.2 97.6 Z M 224.1 97.4 C 224.07 97.42 224.1 100.7 224.1 100.7 L 223.4 100.7 C 223.4 100.7 223.39 99.86 223.4 99.9 C 223.1 100.4 222.4 100.7 221.6 100.7 C 220.4 100.7 219.7 100.1 219.7 99.2 C 219.7 98.4 220.2 97.7 221.7 97.7 C 221.69 97.71 223.4 97.7 223.4 97.7 C 223.4 97.7 223.36 97.39 223.4 97.4 C 223.4 96.5 222.8 96 221.9 96 C 221.2 96 220.5 96.2 220.1 96.6 C 220.1 96.6 219.8 96.1 219.8 96.1 C 220.3 95.6 221.1 95.4 221.9 95.4 C 223.3 95.4 224.1 96.1 224.1 97.4 Z M 223.4 99.1 C 223.36 99.1 223.4 98.2 223.4 98.2 C 223.4 98.2 221.71 98.24 221.7 98.2 C 220.7 98.2 220.4 98.6 220.4 99.2 C 220.4 99.8 220.8 100.2 221.7 100.2 C 222.5 100.2 223.1 99.8 223.4 99.1 Z M 230.8 93.3 L 230.8 100.7 L 230.1 100.7 C 230.1 100.7 230.14 99.64 230.1 99.6 C 229.7 100.3 229 100.7 228.1 100.7 C 226.6 100.7 225.5 99.6 225.5 98 C 225.5 96.5 226.6 95.4 228.1 95.4 C 228.9 95.4 229.7 95.7 230.1 96.4 C 230.11 96.42 230.1 93.3 230.1 93.3 L 230.8 93.3 Z M 230.1 98 C 230.1 96.8 229.3 96 228.2 96 C 227 96 226.2 96.8 226.2 98 C 226.2 99.3 227 100.1 228.2 100.1 C 229.3 100.1 230.1 99.3 230.1 98 Z M 237.4 98.3 C 237.4 98.3 233 98.3 233 98.3 C 233.1 99.4 233.9 100.1 235 100.1 C 235.7 100.1 236.3 99.9 236.7 99.4 C 236.7 99.4 237.1 99.9 237.1 99.9 C 236.6 100.4 235.9 100.7 235 100.7 C 233.4 100.7 232.3 99.6 232.3 98 C 232.3 96.5 233.4 95.4 234.8 95.4 C 236.3 95.4 237.4 96.5 237.4 98 C 237.4 98.1 237.4 98.2 237.4 98.3 Z M 233 97.7 C 233 97.7 236.7 97.7 236.7 97.7 C 236.6 96.7 235.9 96 234.8 96 C 233.8 96 233.1 96.7 233 97.7 Z M 241.3 93.8 C 241.3 93.5 241.5 93.3 241.8 93.3 C 242.1 93.3 242.3 93.5 242.3 93.7 C 242.3 94 242.1 94.3 241.8 94.3 C 241.5 94.3 241.3 94 241.3 93.8 Z M 241.5 95.4 L 242.2 95.4 L 242.2 100.7 L 241.5 100.7 L 241.5 95.4 Z M 249 97.6 C 248.99 97.63 249 100.7 249 100.7 L 248.3 100.7 C 248.3 100.7 248.28 97.7 248.3 97.7 C 248.3 96.6 247.7 96 246.7 96 C 245.6 96 244.9 96.7 244.9 97.9 C 244.86 97.92 244.9 100.7 244.9 100.7 L 244.1 100.7 L 244.1 95.4 L 244.8 95.4 C 244.8 95.4 244.83 96.39 244.8 96.4 C 245.2 95.7 245.9 95.4 246.8 95.4 C 248.1 95.4 249 96.1 249 97.6 Z M 258 95.4 C 258 95.4 255.33 101.31 255.3 101.3 C 254.9 102.3 254.3 102.7 253.6 102.7 C 253.1 102.7 252.6 102.5 252.3 102.2 C 252.3 102.2 252.6 101.7 252.6 101.7 C 252.9 101.9 253.2 102.1 253.6 102.1 C 254.1 102.1 254.4 101.8 254.7 101.2 C 254.68 101.18 254.9 100.7 254.9 100.7 L 252.6 95.4 L 253.3 95.4 L 255.3 99.9 L 257.3 95.4 L 258 95.4 Z M 258.3 98 C 258.3 96.5 259.4 95.4 261 95.4 C 262.5 95.4 263.6 96.5 263.6 98 C 263.6 99.6 262.5 100.7 261 100.7 C 259.4 100.7 258.3 99.6 258.3 98 Z M 262.9 98 C 262.9 96.8 262.1 96 261 96 C 259.8 96 259 96.8 259 98 C 259 99.3 259.8 100.1 261 100.1 C 262.1 100.1 262.9 99.3 262.9 98 Z M 269.8 95.4 L 269.8 100.7 L 269.1 100.7 C 269.1 100.7 269.14 99.72 269.1 99.7 C 268.8 100.4 268.1 100.7 267.2 100.7 C 265.9 100.7 265 100 265 98.5 C 265.03 98.47 265 95.4 265 95.4 L 265.7 95.4 C 265.7 95.4 265.74 98.4 265.7 98.4 C 265.7 99.5 266.3 100.1 267.3 100.1 C 268.4 100.1 269.1 99.4 269.1 98.2 C 269.11 98.18 269.1 95.4 269.1 95.4 L 269.8 95.4 Z M 274.5 95.4 C 274.5 95.4 274.5 96.1 274.5 96.1 C 274.4 96.1 274.3 96.1 274.3 96.1 C 273.2 96.1 272.5 96.8 272.5 98 C 272.52 98 272.5 100.7 272.5 100.7 L 271.8 100.7 L 271.8 95.4 L 272.5 95.4 C 272.5 95.4 272.49 96.45 272.5 96.4 C 272.8 95.7 273.5 95.4 274.5 95.4 Z M 277.9 98 C 277.9 96.5 279 95.4 280.6 95.4 C 282.1 95.4 283.3 96.5 283.3 98 C 283.3 99.6 282.1 100.7 280.6 100.7 C 279 100.7 277.9 99.6 277.9 98 Z M 282.5 98 C 282.5 96.8 281.7 96 280.6 96 C 279.5 96 278.6 96.8 278.6 98 C 278.6 99.3 279.5 100.1 280.6 100.1 C 281.7 100.1 282.5 99.3 282.5 98 Z M 287.4 95.4 C 287.4 95.4 287.4 96.1 287.4 96.1 C 287.3 96.1 287.2 96.1 287.2 96.1 C 286.1 96.1 285.4 96.8 285.4 98 C 285.42 98 285.4 100.7 285.4 100.7 L 284.7 100.7 L 284.7 95.4 L 285.4 95.4 C 285.4 95.4 285.39 96.45 285.4 96.4 C 285.7 95.7 286.4 95.4 287.4 95.4 Z M 293.5 95.4 C 293.5 95.4 293.46 100.04 293.5 100 C 293.5 101.9 292.6 102.7 290.8 102.7 C 289.9 102.7 288.9 102.4 288.4 101.9 C 288.4 101.9 288.7 101.3 288.7 101.3 C 289.2 101.8 290 102 290.8 102 C 292.1 102 292.7 101.4 292.7 100.1 C 292.7 100.1 292.7 99.5 292.7 99.5 C 292.3 100.1 291.6 100.5 290.7 100.5 C 289.2 100.5 288.1 99.4 288.1 97.9 C 288.1 96.4 289.2 95.4 290.7 95.4 C 291.6 95.4 292.3 95.7 292.8 96.4 C 292.78 96.43 292.8 95.4 292.8 95.4 L 293.5 95.4 Z M 292.8 97.9 C 292.8 96.8 291.9 96 290.8 96 C 289.6 96 288.8 96.8 288.8 97.9 C 288.8 99.1 289.6 99.9 290.8 99.9 C 291.9 99.9 292.8 99.1 292.8 97.9 Z M 299.4 97.4 C 299.42 97.42 299.4 100.7 299.4 100.7 L 298.7 100.7 C 298.7 100.7 298.74 99.86 298.7 99.9 C 298.4 100.4 297.8 100.7 296.9 100.7 C 295.7 100.7 295 100.1 295 99.2 C 295 98.4 295.5 97.7 297 97.7 C 297.04 97.71 298.7 97.7 298.7 97.7 C 298.7 97.7 298.71 97.39 298.7 97.4 C 298.7 96.5 298.2 96 297.2 96 C 296.5 96 295.9 96.2 295.5 96.6 C 295.5 96.6 295.1 96.1 295.1 96.1 C 295.7 95.6 296.5 95.4 297.3 95.4 C 298.6 95.4 299.4 96.1 299.4 97.4 Z M 298.7 99.1 C 298.71 99.1 298.7 98.2 298.7 98.2 C 298.7 98.2 297.06 98.24 297.1 98.2 C 296 98.2 295.7 98.6 295.7 99.2 C 295.7 99.8 296.2 100.2 297 100.2 C 297.8 100.2 298.4 99.8 298.7 99.1 Z M 306.2 97.6 C 306.19 97.63 306.2 100.7 306.2 100.7 L 305.5 100.7 C 305.5 100.7 305.48 97.7 305.5 97.7 C 305.5 96.6 304.9 96 303.9 96 C 302.8 96 302.1 96.7 302.1 97.9 C 302.06 97.92 302.1 100.7 302.1 100.7 L 301.3 100.7 L 301.3 95.4 L 302 95.4 C 302 95.4 302.03 96.39 302 96.4 C 302.4 95.7 303.1 95.4 304 95.4 C 305.3 95.4 306.2 96.1 306.2 97.6 Z M 308 93.8 C 308 93.5 308.2 93.3 308.5 93.3 C 308.8 93.3 309 93.5 309 93.7 C 309 94 308.8 94.3 308.5 94.3 C 308.2 94.3 308 94 308 93.8 Z M 308.1 95.4 L 308.8 95.4 L 308.8 100.7 L 308.1 100.7 L 308.1 95.4 Z M 310.1 100.1 C 310.1 100.1 310.4 99.5 310.4 99.5 C 310.8 99.9 311.5 100.1 312.3 100.1 C 313.3 100.1 313.7 99.8 313.7 99.3 C 313.7 97.9 310.3 99 310.3 96.9 C 310.3 96 311 95.4 312.3 95.4 C 313 95.4 313.8 95.6 314.2 95.9 C 314.2 95.9 313.9 96.4 313.9 96.4 C 313.4 96.1 312.9 96 312.3 96 C 311.4 96 311 96.4 311 96.9 C 311 98.3 314.4 97.2 314.4 99.2 C 314.4 100.1 313.6 100.7 312.2 100.7 C 311.3 100.7 310.5 100.4 310.1 100.1 Z M 319.7 97.4 C 319.67 97.42 319.7 100.7 319.7 100.7 L 319 100.7 C 319 100.7 318.99 99.86 319 99.9 C 318.7 100.4 318 100.7 317.2 100.7 C 316 100.7 315.3 100.1 315.3 99.2 C 315.3 98.4 315.8 97.7 317.3 97.7 C 317.29 97.71 319 97.7 319 97.7 C 319 97.7 318.96 97.39 319 97.4 C 319 96.5 318.4 96 317.5 96 C 316.8 96 316.1 96.2 315.7 96.6 C 315.7 96.6 315.4 96.1 315.4 96.1 C 315.9 95.6 316.7 95.4 317.5 95.4 C 318.9 95.4 319.7 96.1 319.7 97.4 Z M 319 99.1 C 318.96 99.1 319 98.2 319 98.2 C 319 98.2 317.31 98.24 317.3 98.2 C 316.3 98.2 316 98.6 316 99.2 C 316 99.8 316.4 100.2 317.3 100.2 C 318.1 100.2 318.7 99.8 319 99.1 Z M 324.4 100.4 C 324.1 100.6 323.7 100.7 323.3 100.7 C 322.3 100.7 321.7 100.2 321.7 99.2 C 321.72 99.2 321.7 96 321.7 96 L 320.8 96 L 320.8 95.4 L 321.7 95.4 L 321.7 94.3 L 322.4 94.3 L 322.4 95.4 L 324 95.4 L 324 96 L 322.4 96 C 322.4 96 322.43 99.16 322.4 99.2 C 322.4 99.8 322.7 100.1 323.3 100.1 C 323.6 100.1 323.9 100 324.1 99.9 C 324.1 99.9 324.4 100.4 324.4 100.4 Z M 325.5 93.8 C 325.5 93.5 325.7 93.3 326 93.3 C 326.3 93.3 326.5 93.5 326.5 93.7 C 326.5 94 326.3 94.3 326 94.3 C 325.7 94.3 325.5 94 325.5 93.8 Z M 325.7 95.4 L 326.4 95.4 L 326.4 100.7 L 325.7 100.7 L 325.7 95.4 Z M 327.8 98 C 327.8 96.5 329 95.4 330.5 95.4 C 332 95.4 333.2 96.5 333.2 98 C 333.2 99.6 332 100.7 330.5 100.7 C 329 100.7 327.8 99.6 327.8 98 Z M 332.4 98 C 332.4 96.8 331.6 96 330.5 96 C 329.4 96 328.5 96.8 328.5 98 C 328.5 99.3 329.4 100.1 330.5 100.1 C 331.6 100.1 332.4 99.3 332.4 98 Z M 339.5 97.6 C 339.46 97.63 339.5 100.7 339.5 100.7 L 338.7 100.7 C 338.7 100.7 338.75 97.7 338.7 97.7 C 338.7 96.6 338.2 96 337.2 96 C 336 96 335.3 96.7 335.3 97.9 C 335.33 97.92 335.3 100.7 335.3 100.7 L 334.6 100.7 L 334.6 95.4 L 335.3 95.4 C 335.3 95.4 335.3 96.39 335.3 96.4 C 335.7 95.7 336.4 95.4 337.3 95.4 C 338.6 95.4 339.5 96.1 339.5 97.6 Z M 344.1 95.5 C 344.1 94.8 343.5 94.2 342.5 94.2 C 341.6 94.2 341 94.5 340.6 95.1 C 340.6 95.1 340 94.7 340 94.7 C 340.6 94 341.4 93.6 342.5 93.6 C 343.9 93.6 344.8 94.3 344.8 95.4 C 344.8 97.1 343 97.2 343 98.6 C 343 98.6 342.3 98.6 342.3 98.6 C 342.3 96.9 344.1 96.8 344.1 95.5 Z M 342.1 100.2 C 342.1 99.9 342.3 99.7 342.6 99.7 C 342.9 99.7 343.2 99.9 343.2 100.2 C 343.2 100.5 342.9 100.7 342.6 100.7 C 342.3 100.7 342.1 100.5 342.1 100.2 Z " stroke="none" fill="#000"/>
  </g>
  <g id="Polygon112854">
    <path d="M 25.1 80.7 C 25.1 81.8 24.3 82.7 22.6 82.7 C 21.6 82.7 20.6 82.4 20.1 81.8 C 20.1 81.8 20.4 81.3 20.4 81.3 C 20.9 81.7 21.7 82.1 22.6 82.1 C 23.8 82.1 24.4 81.5 24.4 80.7 C 24.4 79.8 23.8 79.3 22.5 79.3 C 22.52 79.28 22 79.3 22 79.3 L 22 78.8 L 24 76.3 L 20.4 76.3 L 20.4 75.7 L 24.9 75.7 L 24.9 76.2 C 24.9 76.2 22.9 78.68 22.9 78.7 C 24.4 78.8 25.1 79.5 25.1 80.7 Z M 26.2 82.2 C 26.2 81.9 26.4 81.6 26.7 81.6 C 27 81.6 27.2 81.9 27.2 82.2 C 27.2 82.5 27 82.7 26.7 82.7 C 26.4 82.7 26.2 82.5 26.2 82.2 Z M 46.7 75.7 L 44.4 82.7 L 43.6 82.7 L 41.6 76.7 L 39.5 82.7 L 38.7 82.7 L 36.4 75.7 L 37.1 75.7 L 39.2 81.7 L 41.2 75.7 L 41.9 75.7 L 44 81.7 L 46 75.7 L 46.7 75.7 Z M 52.9 79.6 C 52.94 79.63 52.9 82.7 52.9 82.7 L 52.2 82.7 C 52.2 82.7 52.23 79.7 52.2 79.7 C 52.2 78.6 51.7 78 50.6 78 C 49.5 78 48.8 78.7 48.8 79.9 C 48.81 79.92 48.8 82.7 48.8 82.7 L 48.1 82.7 L 48.1 75.3 L 48.8 75.3 C 48.8 75.3 48.81 78.34 48.8 78.3 C 49.2 77.7 49.9 77.4 50.8 77.4 C 52.1 77.4 52.9 78.1 52.9 79.6 Z M 58.8 79.4 C 58.84 79.42 58.8 82.7 58.8 82.7 L 58.2 82.7 C 58.2 82.7 58.16 81.86 58.2 81.9 C 57.8 82.4 57.2 82.7 56.3 82.7 C 55.2 82.7 54.4 82.1 54.4 81.2 C 54.4 80.4 54.9 79.7 56.5 79.7 C 56.46 79.71 58.1 79.7 58.1 79.7 C 58.1 79.7 58.13 79.39 58.1 79.4 C 58.1 78.5 57.6 78 56.6 78 C 56 78 55.3 78.2 54.9 78.6 C 54.9 78.6 54.6 78.1 54.6 78.1 C 55.1 77.6 55.9 77.4 56.7 77.4 C 58.1 77.4 58.8 78.1 58.8 79.4 Z M 58.1 81.1 C 58.13 81.1 58.1 80.2 58.1 80.2 C 58.1 80.2 56.48 80.24 56.5 80.2 C 55.5 80.2 55.1 80.6 55.1 81.2 C 55.1 81.8 55.6 82.2 56.5 82.2 C 57.3 82.2 57.9 81.8 58.1 81.1 Z M 63.5 82.4 C 63.3 82.6 62.8 82.7 62.4 82.7 C 61.4 82.7 60.9 82.2 60.9 81.2 C 60.89 81.2 60.9 78 60.9 78 L 60 78 L 60 77.4 L 60.9 77.4 L 60.9 76.3 L 61.6 76.3 L 61.6 77.4 L 63.2 77.4 L 63.2 78 L 61.6 78 C 61.6 78 61.6 81.16 61.6 81.2 C 61.6 81.8 61.9 82.1 62.5 82.1 C 62.8 82.1 63.1 82 63.3 81.9 C 63.3 81.9 63.5 82.4 63.5 82.4 Z M 71.4 79.4 C 71.42 79.42 71.4 82.7 71.4 82.7 L 70.7 82.7 C 70.7 82.7 70.74 81.86 70.7 81.9 C 70.4 82.4 69.8 82.7 68.9 82.7 C 67.7 82.7 67 82.1 67 81.2 C 67 80.4 67.5 79.7 69 79.7 C 69.04 79.71 70.7 79.7 70.7 79.7 C 70.7 79.7 70.71 79.39 70.7 79.4 C 70.7 78.5 70.2 78 69.2 78 C 68.5 78 67.9 78.2 67.5 78.6 C 67.5 78.6 67.1 78.1 67.1 78.1 C 67.7 77.6 68.5 77.4 69.3 77.4 C 70.7 77.4 71.4 78.1 71.4 79.4 Z M 70.7 81.1 C 70.71 81.1 70.7 80.2 70.7 80.2 C 70.7 80.2 69.06 80.24 69.1 80.2 C 68 80.2 67.7 80.6 67.7 81.2 C 67.7 81.8 68.2 82.2 69 82.2 C 69.8 82.2 70.4 81.8 70.7 81.1 Z M 76 77.4 C 76 77.4 76 78.1 76 78.1 C 75.9 78.1 75.9 78.1 75.8 78.1 C 74.7 78.1 74.1 78.8 74.1 80 C 74.06 80 74.1 82.7 74.1 82.7 L 73.4 82.7 L 73.4 77.4 L 74 77.4 C 74 77.4 74.03 78.45 74 78.4 C 74.4 77.7 75 77.4 76 77.4 Z M 81.8 80.3 C 81.8 80.3 77.4 80.3 77.4 80.3 C 77.5 81.4 78.3 82.1 79.5 82.1 C 80.1 82.1 80.7 81.9 81.1 81.4 C 81.1 81.4 81.5 81.9 81.5 81.9 C 81 82.4 80.3 82.7 79.5 82.7 C 77.8 82.7 76.7 81.6 76.7 80 C 76.7 78.5 77.8 77.4 79.3 77.4 C 80.8 77.4 81.8 78.5 81.8 80 C 81.8 80.1 81.8 80.2 81.8 80.3 Z M 77.4 79.7 C 77.4 79.7 81.1 79.7 81.1 79.7 C 81.1 78.7 80.3 78 79.3 78 C 78.2 78 77.5 78.7 77.4 79.7 Z M 88.7 82.4 C 88.4 82.6 88 82.7 87.5 82.7 C 86.6 82.7 86 82.2 86 81.2 C 86.01 81.2 86 78 86 78 L 85.1 78 L 85.1 77.4 L 86 77.4 L 86 76.3 L 86.7 76.3 L 86.7 77.4 L 88.3 77.4 L 88.3 78 L 86.7 78 C 86.7 78 86.72 81.16 86.7 81.2 C 86.7 81.8 87 82.1 87.6 82.1 C 87.9 82.1 88.2 82 88.4 81.9 C 88.4 81.9 88.7 82.4 88.7 82.4 Z M 94.8 79.6 C 94.79 79.63 94.8 82.7 94.8 82.7 L 94.1 82.7 C 94.1 82.7 94.08 79.7 94.1 79.7 C 94.1 78.6 93.5 78 92.5 78 C 91.4 78 90.7 78.7 90.7 79.9 C 90.66 79.92 90.7 82.7 90.7 82.7 L 89.9 82.7 L 89.9 75.3 L 90.7 75.3 C 90.7 75.3 90.66 78.34 90.7 78.3 C 91 77.7 91.7 77.4 92.6 77.4 C 93.9 77.4 94.8 78.1 94.8 79.6 Z M 101.3 80.3 C 101.3 80.3 96.9 80.3 96.9 80.3 C 97 81.4 97.8 82.1 99 82.1 C 99.6 82.1 100.2 81.9 100.6 81.4 C 100.6 81.4 101 81.9 101 81.9 C 100.5 82.4 99.8 82.7 99 82.7 C 97.3 82.7 96.2 81.6 96.2 80 C 96.2 78.5 97.3 77.4 98.8 77.4 C 100.3 77.4 101.3 78.5 101.3 80 C 101.3 80.1 101.3 80.2 101.3 80.3 Z M 96.9 79.7 C 96.9 79.7 100.6 79.7 100.6 79.7 C 100.6 78.7 99.8 78 98.8 78 C 97.8 78 97 78.7 96.9 79.7 Z M 108.2 82.4 C 107.9 82.6 107.5 82.7 107.1 82.7 C 106.1 82.7 105.5 82.2 105.5 81.2 C 105.52 81.2 105.5 78 105.5 78 L 104.6 78 L 104.6 77.4 L 105.5 77.4 L 105.5 76.3 L 106.2 76.3 L 106.2 77.4 L 107.8 77.4 L 107.8 78 L 106.2 78 C 106.2 78 106.23 81.16 106.2 81.2 C 106.2 81.8 106.5 82.1 107.1 82.1 C 107.4 82.1 107.7 82 107.9 81.9 C 107.9 81.9 108.2 82.4 108.2 82.4 Z M 114.3 79.6 C 114.3 79.63 114.3 82.7 114.3 82.7 L 113.6 82.7 C 113.6 82.7 113.59 79.7 113.6 79.7 C 113.6 78.6 113 78 112 78 C 110.9 78 110.2 78.7 110.2 79.9 C 110.17 79.92 110.2 82.7 110.2 82.7 L 109.5 82.7 L 109.5 75.3 L 110.2 75.3 C 110.2 75.3 110.17 78.34 110.2 78.3 C 110.6 77.7 111.2 77.4 112.1 77.4 C 113.4 77.4 114.3 78.1 114.3 79.6 Z M 118.9 77.4 C 118.9 77.4 118.9 78.1 118.9 78.1 C 118.8 78.1 118.8 78.1 118.7 78.1 C 117.6 78.1 116.9 78.8 116.9 80 C 116.94 80 116.9 82.7 116.9 82.7 L 116.2 82.7 L 116.2 77.4 L 116.9 77.4 C 116.9 77.4 116.91 78.45 116.9 78.4 C 117.2 77.7 117.9 77.4 118.9 77.4 Z M 124.7 80.3 C 124.7 80.3 120.3 80.3 120.3 80.3 C 120.4 81.4 121.2 82.1 122.4 82.1 C 123 82.1 123.6 81.9 124 81.4 C 124 81.4 124.4 81.9 124.4 81.9 C 123.9 82.4 123.2 82.7 122.3 82.7 C 120.7 82.7 119.6 81.6 119.6 80 C 119.6 78.5 120.7 77.4 122.1 77.4 C 123.6 77.4 124.7 78.5 124.7 80 C 124.7 80.1 124.7 80.2 124.7 80.3 Z M 120.3 79.7 C 120.3 79.7 124 79.7 124 79.7 C 123.9 78.7 123.2 78 122.1 78 C 121.1 78 120.4 78.7 120.3 79.7 Z M 130.7 80.3 C 130.7 80.3 126.3 80.3 126.3 80.3 C 126.4 81.4 127.2 82.1 128.4 82.1 C 129 82.1 129.6 81.9 130 81.4 C 130 81.4 130.4 81.9 130.4 81.9 C 129.9 82.4 129.2 82.7 128.4 82.7 C 126.7 82.7 125.6 81.6 125.6 80 C 125.6 78.5 126.7 77.4 128.2 77.4 C 129.7 77.4 130.7 78.5 130.7 80 C 130.7 80.1 130.7 80.2 130.7 80.3 Z M 126.3 79.7 C 126.3 79.7 130.1 79.7 130.1 79.7 C 130 78.7 129.2 78 128.2 78 C 127.2 78 126.4 78.7 126.3 79.7 Z M 137.6 82.4 C 137.3 82.6 136.9 82.7 136.5 82.7 C 135.5 82.7 134.9 82.2 134.9 81.2 C 134.93 81.2 134.9 78 134.9 78 L 134 78 L 134 77.4 L 134.9 77.4 L 134.9 76.3 L 135.6 76.3 L 135.6 77.4 L 137.2 77.4 L 137.2 78 L 135.6 78 C 135.6 78 135.64 81.16 135.6 81.2 C 135.6 81.8 136 82.1 136.5 82.1 C 136.8 82.1 137.1 82 137.3 81.9 C 137.3 81.9 137.6 82.4 137.6 82.4 Z M 143.2 77.4 C 143.2 77.4 140.56 83.31 140.6 83.3 C 140.1 84.3 139.6 84.7 138.8 84.7 C 138.3 84.7 137.8 84.5 137.5 84.2 C 137.5 84.2 137.9 83.7 137.9 83.7 C 138.1 83.9 138.4 84.1 138.8 84.1 C 139.3 84.1 139.6 83.8 139.9 83.2 C 139.91 83.18 140.1 82.7 140.1 82.7 L 137.8 77.4 L 138.5 77.4 L 140.5 81.9 L 142.5 77.4 L 143.2 77.4 Z M 149.5 80.1 C 149.5 81.7 148.4 82.7 146.9 82.7 C 146.1 82.7 145.3 82.4 144.9 81.7 C 144.9 81.69 144.9 84.6 144.9 84.6 L 144.2 84.6 L 144.2 77.4 L 144.9 77.4 C 144.9 77.4 144.87 78.46 144.9 78.5 C 145.3 77.8 146 77.4 146.9 77.4 C 148.4 77.4 149.5 78.5 149.5 80.1 Z M 148.8 80 C 148.8 78.8 148 78 146.8 78 C 145.7 78 144.9 78.8 144.9 80 C 144.9 81.3 145.7 82.1 146.8 82.1 C 148 82.1 148.8 81.3 148.8 80 Z M 155.5 80.3 C 155.5 80.3 151.1 80.3 151.1 80.3 C 151.2 81.4 152.1 82.1 153.2 82.1 C 153.9 82.1 154.4 81.9 154.8 81.4 C 154.8 81.4 155.2 81.9 155.2 81.9 C 154.8 82.4 154 82.7 153.2 82.7 C 151.6 82.7 150.4 81.6 150.4 80 C 150.4 78.5 151.5 77.4 153 77.4 C 154.5 77.4 155.6 78.5 155.6 80 C 155.6 80.1 155.5 80.2 155.5 80.3 Z M 151.1 79.7 C 151.1 79.7 154.9 79.7 154.9 79.7 C 154.8 78.7 154 78 153 78 C 152 78 151.2 78.7 151.1 79.7 Z M 156.3 82.1 C 156.3 82.1 156.6 81.5 156.6 81.5 C 157 81.9 157.7 82.1 158.5 82.1 C 159.5 82.1 159.9 81.8 159.9 81.3 C 159.9 79.9 156.5 81 156.5 78.9 C 156.5 78 157.2 77.4 158.5 77.4 C 159.2 77.4 160 77.6 160.4 77.9 C 160.4 77.9 160.1 78.4 160.1 78.4 C 159.6 78.1 159.1 78 158.5 78 C 157.6 78 157.2 78.4 157.2 78.9 C 157.2 80.3 160.6 79.2 160.6 81.2 C 160.6 82.1 159.8 82.7 158.4 82.7 C 157.5 82.7 156.7 82.4 156.3 82.1 Z M 164 80 C 164 78.5 165.1 77.4 166.7 77.4 C 168.2 77.4 169.3 78.5 169.3 80 C 169.3 81.6 168.2 82.7 166.7 82.7 C 165.1 82.7 164 81.6 164 80 Z M 168.6 80 C 168.6 78.8 167.8 78 166.7 78 C 165.5 78 164.7 78.8 164.7 80 C 164.7 81.3 165.5 82.1 166.7 82.1 C 167.8 82.1 168.6 81.3 168.6 80 Z M 171.6 76.8 C 171.6 76.8 171.6 77.4 171.6 77.4 L 173.2 77.4 L 173.2 78 L 171.6 78 L 171.6 82.7 L 170.9 82.7 L 170.9 78 L 170 78 L 170 77.4 L 170.9 77.4 C 170.9 77.4 170.91 76.77 170.9 76.8 C 170.9 75.8 171.5 75.2 172.5 75.2 C 172.9 75.2 173.3 75.3 173.5 75.5 C 173.5 75.5 173.3 76.1 173.3 76.1 C 173.1 75.9 172.8 75.8 172.5 75.8 C 171.9 75.8 171.6 76.1 171.6 76.8 Z M 181.2 77.4 L 178.9 82.7 L 178.1 82.7 L 175.8 77.4 L 176.6 77.4 L 178.5 81.9 L 180.5 77.4 L 181.2 77.4 Z M 182.1 75.8 C 182.1 75.5 182.3 75.3 182.6 75.3 C 182.9 75.3 183.1 75.5 183.1 75.7 C 183.1 76 182.9 76.3 182.6 76.3 C 182.3 76.3 182.1 76 182.1 75.8 Z M 182.2 77.4 L 182.9 77.4 L 182.9 82.7 L 182.2 82.7 L 182.2 77.4 Z M 184.4 80 C 184.4 78.5 185.5 77.4 187.1 77.4 C 188.6 77.4 189.7 78.5 189.7 80 C 189.7 81.6 188.6 82.7 187.1 82.7 C 185.5 82.7 184.4 81.6 184.4 80 Z M 189 80 C 189 78.8 188.2 78 187.1 78 C 185.9 78 185.1 78.8 185.1 80 C 185.1 81.3 185.9 82.1 187.1 82.1 C 188.2 82.1 189 81.3 189 80 Z M 191.2 75.3 L 191.9 75.3 L 191.9 82.7 L 191.2 82.7 L 191.2 75.3 Z M 197.8 79.4 C 197.84 79.42 197.8 82.7 197.8 82.7 L 197.2 82.7 C 197.2 82.7 197.16 81.86 197.2 81.9 C 196.8 82.4 196.2 82.7 195.3 82.7 C 194.2 82.7 193.4 82.1 193.4 81.2 C 193.4 80.4 193.9 79.7 195.5 79.7 C 195.46 79.71 197.1 79.7 197.1 79.7 C 197.1 79.7 197.13 79.39 197.1 79.4 C 197.1 78.5 196.6 78 195.6 78 C 195 78 194.3 78.2 193.9 78.6 C 193.9 78.6 193.6 78.1 193.6 78.1 C 194.1 77.6 194.9 77.4 195.7 77.4 C 197.1 77.4 197.8 78.1 197.8 79.4 Z M 197.1 81.1 C 197.13 81.1 197.1 80.2 197.1 80.2 C 197.1 80.2 195.48 80.24 195.5 80.2 C 194.5 80.2 194.1 80.6 194.1 81.2 C 194.1 81.8 194.6 82.2 195.5 82.2 C 196.3 82.2 196.8 81.8 197.1 81.1 Z M 202.5 82.4 C 202.3 82.6 201.8 82.7 201.4 82.7 C 200.4 82.7 199.9 82.2 199.9 81.2 C 199.89 81.2 199.9 78 199.9 78 L 198.9 78 L 198.9 77.4 L 199.9 77.4 L 199.9 76.3 L 200.6 76.3 L 200.6 77.4 L 202.2 77.4 L 202.2 78 L 200.6 78 C 200.6 78 200.6 81.16 200.6 81.2 C 200.6 81.8 200.9 82.1 201.5 82.1 C 201.8 82.1 202.1 82 202.3 81.9 C 202.3 81.9 202.5 82.4 202.5 82.4 Z M 203.7 75.8 C 203.7 75.5 203.9 75.3 204.2 75.3 C 204.5 75.3 204.7 75.5 204.7 75.7 C 204.7 76 204.5 76.3 204.2 76.3 C 203.9 76.3 203.7 76 203.7 75.8 Z M 203.8 77.4 L 204.5 77.4 L 204.5 82.7 L 203.8 82.7 L 203.8 77.4 Z M 206 80 C 206 78.5 207.1 77.4 208.7 77.4 C 210.2 77.4 211.3 78.5 211.3 80 C 211.3 81.6 210.2 82.7 208.7 82.7 C 207.1 82.7 206 81.6 206 80 Z M 210.6 80 C 210.6 78.8 209.8 78 208.7 78 C 207.5 78 206.7 78.8 206.7 80 C 206.7 81.3 207.5 82.1 208.7 82.1 C 209.8 82.1 210.6 81.3 210.6 80 Z M 217.6 79.6 C 217.63 79.63 217.6 82.7 217.6 82.7 L 216.9 82.7 C 216.9 82.7 216.92 79.7 216.9 79.7 C 216.9 78.6 216.3 78 215.3 78 C 214.2 78 213.5 78.7 213.5 79.9 C 213.5 79.92 213.5 82.7 213.5 82.7 L 212.8 82.7 L 212.8 77.4 L 213.5 77.4 C 213.5 77.4 213.47 78.39 213.5 78.4 C 213.8 77.7 214.6 77.4 215.5 77.4 C 216.7 77.4 217.6 78.1 217.6 79.6 Z M 218.8 82.1 C 218.8 82.1 219.1 81.5 219.1 81.5 C 219.6 81.9 220.3 82.1 221 82.1 C 222 82.1 222.4 81.8 222.4 81.3 C 222.4 79.9 219 81 219 78.9 C 219 78 219.8 77.4 221.1 77.4 C 221.8 77.4 222.5 77.6 223 77.9 C 223 77.9 222.6 78.4 222.6 78.4 C 222.2 78.1 221.6 78 221.1 78 C 220.1 78 219.7 78.4 219.7 78.9 C 219.7 80.3 223.1 79.2 223.1 81.2 C 223.1 82.1 222.3 82.7 221 82.7 C 220.1 82.7 219.3 82.4 218.8 82.1 Z M 227.5 77.5 C 227.5 76.8 226.9 76.2 225.8 76.2 C 225 76.2 224.4 76.5 223.9 77.1 C 223.9 77.1 223.4 76.7 223.4 76.7 C 223.9 76 224.8 75.6 225.9 75.6 C 227.3 75.6 228.2 76.3 228.2 77.4 C 228.2 79.1 226.4 79.2 226.4 80.6 C 226.4 80.6 225.6 80.6 225.6 80.6 C 225.6 78.9 227.5 78.8 227.5 77.5 Z M 225.5 82.2 C 225.5 81.9 225.7 81.7 226 81.7 C 226.3 81.7 226.5 81.9 226.5 82.2 C 226.5 82.5 226.3 82.7 226 82.7 C 225.7 82.7 225.5 82.5 225.5 82.2 Z " stroke="none" fill="#000"/>
  </g>
  <g id="Polygon112853">
    <path d="M 25.3 64 L 25.3 64.7 L 20.4 64.7 L 20.4 64.2 C 20.4 64.2 23.3 61.32 23.3 61.3 C 24.1 60.5 24.2 60.1 24.2 59.6 C 24.2 58.8 23.7 58.3 22.6 58.3 C 21.8 58.3 21.2 58.5 20.7 59.1 C 20.7 59.1 20.2 58.6 20.2 58.6 C 20.7 58 21.6 57.6 22.7 57.6 C 24.1 57.6 25 58.3 25 59.5 C 25 60.2 24.8 60.8 23.8 61.7 C 23.83 61.7 21.5 64 21.5 64 L 25.3 64 Z M 26.3 64.2 C 26.3 63.9 26.6 63.6 26.8 63.6 C 27.1 63.6 27.4 63.9 27.4 64.2 C 27.4 64.5 27.1 64.7 26.8 64.7 C 26.6 64.7 26.3 64.5 26.3 64.2 Z M 46.7 57.7 L 44.4 64.7 L 43.6 64.7 L 41.6 58.7 L 39.5 64.7 L 38.7 64.7 L 36.4 57.7 L 37.1 57.7 L 39.2 63.7 L 41.2 57.7 L 41.9 57.7 L 44 63.7 L 46 57.7 L 46.7 57.7 Z M 52.9 61.6 C 52.94 61.63 52.9 64.7 52.9 64.7 L 52.2 64.7 C 52.2 64.7 52.23 61.7 52.2 61.7 C 52.2 60.6 51.7 60 50.6 60 C 49.5 60 48.8 60.7 48.8 61.9 C 48.81 61.92 48.8 64.7 48.8 64.7 L 48.1 64.7 L 48.1 57.3 L 48.8 57.3 C 48.8 57.3 48.81 60.34 48.8 60.3 C 49.2 59.7 49.9 59.4 50.8 59.4 C 52.1 59.4 52.9 60.1 52.9 61.6 Z M 58.8 61.4 C 58.84 61.42 58.8 64.7 58.8 64.7 L 58.2 64.7 C 58.2 64.7 58.16 63.86 58.2 63.9 C 57.8 64.4 57.2 64.7 56.3 64.7 C 55.2 64.7 54.4 64.1 54.4 63.2 C 54.4 62.4 54.9 61.7 56.5 61.7 C 56.46 61.71 58.1 61.7 58.1 61.7 C 58.1 61.7 58.13 61.39 58.1 61.4 C 58.1 60.5 57.6 60 56.6 60 C 56 60 55.3 60.2 54.9 60.6 C 54.9 60.6 54.6 60.1 54.6 60.1 C 55.1 59.6 55.9 59.4 56.7 59.4 C 58.1 59.4 58.8 60.1 58.8 61.4 Z M 58.1 63.1 C 58.13 63.1 58.1 62.2 58.1 62.2 C 58.1 62.2 56.48 62.24 56.5 62.2 C 55.5 62.2 55.1 62.6 55.1 63.2 C 55.1 63.8 55.6 64.2 56.5 64.2 C 57.3 64.2 57.9 63.8 58.1 63.1 Z M 63.5 64.4 C 63.3 64.6 62.8 64.7 62.4 64.7 C 61.4 64.7 60.9 64.2 60.9 63.2 C 60.89 63.2 60.9 60 60.9 60 L 60 60 L 60 59.4 L 60.9 59.4 L 60.9 58.3 L 61.6 58.3 L 61.6 59.4 L 63.2 59.4 L 63.2 60 L 61.6 60 C 61.6 60 61.6 63.16 61.6 63.2 C 61.6 63.8 61.9 64.1 62.5 64.1 C 62.8 64.1 63.1 64 63.3 63.9 C 63.3 63.9 63.5 64.4 63.5 64.4 Z M 71.4 61.4 C 71.42 61.42 71.4 64.7 71.4 64.7 L 70.7 64.7 C 70.7 64.7 70.74 63.86 70.7 63.9 C 70.4 64.4 69.8 64.7 68.9 64.7 C 67.7 64.7 67 64.1 67 63.2 C 67 62.4 67.5 61.7 69 61.7 C 69.04 61.71 70.7 61.7 70.7 61.7 C 70.7 61.7 70.71 61.39 70.7 61.4 C 70.7 60.5 70.2 60 69.2 60 C 68.5 60 67.9 60.2 67.5 60.6 C 67.5 60.6 67.1 60.1 67.1 60.1 C 67.7 59.6 68.5 59.4 69.3 59.4 C 70.7 59.4 71.4 60.1 71.4 61.4 Z M 70.7 63.1 C 70.71 63.1 70.7 62.2 70.7 62.2 C 70.7 62.2 69.06 62.24 69.1 62.2 C 68 62.2 67.7 62.6 67.7 63.2 C 67.7 63.8 68.2 64.2 69 64.2 C 69.8 64.2 70.4 63.8 70.7 63.1 Z M 76 59.4 C 76 59.4 76 60.1 76 60.1 C 75.9 60.1 75.9 60.1 75.8 60.1 C 74.7 60.1 74.1 60.8 74.1 62 C 74.06 62 74.1 64.7 74.1 64.7 L 73.4 64.7 L 73.4 59.4 L 74 59.4 C 74 59.4 74.03 60.45 74 60.4 C 74.4 59.7 75 59.4 76 59.4 Z M 81.8 62.3 C 81.8 62.3 77.4 62.3 77.4 62.3 C 77.5 63.4 78.3 64.1 79.5 64.1 C 80.1 64.1 80.7 63.9 81.1 63.4 C 81.1 63.4 81.5 63.9 81.5 63.9 C 81 64.4 80.3 64.7 79.5 64.7 C 77.8 64.7 76.7 63.6 76.7 62 C 76.7 60.5 77.8 59.4 79.3 59.4 C 80.8 59.4 81.8 60.5 81.8 62 C 81.8 62.1 81.8 62.2 81.8 62.3 Z M 77.4 61.7 C 77.4 61.7 81.1 61.7 81.1 61.7 C 81.1 60.7 80.3 60 79.3 60 C 78.2 60 77.5 60.7 77.4 61.7 Z M 88.7 64.4 C 88.4 64.6 88 64.7 87.5 64.7 C 86.6 64.7 86 64.2 86 63.2 C 86.01 63.2 86 60 86 60 L 85.1 60 L 85.1 59.4 L 86 59.4 L 86 58.3 L 86.7 58.3 L 86.7 59.4 L 88.3 59.4 L 88.3 60 L 86.7 60 C 86.7 60 86.72 63.16 86.7 63.2 C 86.7 63.8 87 64.1 87.6 64.1 C 87.9 64.1 88.2 64 88.4 63.9 C 88.4 63.9 88.7 64.4 88.7 64.4 Z M 94.8 61.6 C 94.79 61.63 94.8 64.7 94.8 64.7 L 94.1 64.7 C 94.1 64.7 94.08 61.7 94.1 61.7 C 94.1 60.6 93.5 60 92.5 60 C 91.4 60 90.7 60.7 90.7 61.9 C 90.66 61.92 90.7 64.7 90.7 64.7 L 89.9 64.7 L 89.9 57.3 L 90.7 57.3 C 90.7 57.3 90.66 60.34 90.7 60.3 C 91 59.7 91.7 59.4 92.6 59.4 C 93.9 59.4 94.8 60.1 94.8 61.6 Z M 101.3 62.3 C 101.3 62.3 96.9 62.3 96.9 62.3 C 97 63.4 97.8 64.1 99 64.1 C 99.6 64.1 100.2 63.9 100.6 63.4 C 100.6 63.4 101 63.9 101 63.9 C 100.5 64.4 99.8 64.7 99 64.7 C 97.3 64.7 96.2 63.6 96.2 62 C 96.2 60.5 97.3 59.4 98.8 59.4 C 100.3 59.4 101.3 60.5 101.3 62 C 101.3 62.1 101.3 62.2 101.3 62.3 Z M 96.9 61.7 C 96.9 61.7 100.6 61.7 100.6 61.7 C 100.6 60.7 99.8 60 98.8 60 C 97.8 60 97 60.7 96.9 61.7 Z M 108.2 64.4 C 107.9 64.6 107.5 64.7 107.1 64.7 C 106.1 64.7 105.5 64.2 105.5 63.2 C 105.52 63.2 105.5 60 105.5 60 L 104.6 60 L 104.6 59.4 L 105.5 59.4 L 105.5 58.3 L 106.2 58.3 L 106.2 59.4 L 107.8 59.4 L 107.8 60 L 106.2 60 C 106.2 60 106.23 63.16 106.2 63.2 C 106.2 63.8 106.5 64.1 107.1 64.1 C 107.4 64.1 107.7 64 107.9 63.9 C 107.9 63.9 108.2 64.4 108.2 64.4 Z M 117.1 59.4 L 115.1 64.7 L 114.4 64.7 L 112.8 60.4 L 111.1 64.7 L 110.4 64.7 L 108.4 59.4 L 109.1 59.4 L 110.8 63.9 L 112.5 59.4 L 113.1 59.4 L 114.8 63.9 L 116.4 59.4 L 117.1 59.4 Z M 117.5 62 C 117.5 60.5 118.6 59.4 120.1 59.4 C 121.7 59.4 122.8 60.5 122.8 62 C 122.8 63.6 121.7 64.7 120.1 64.7 C 118.6 64.7 117.5 63.6 117.5 62 Z M 122.1 62 C 122.1 60.8 121.3 60 120.1 60 C 119 60 118.2 60.8 118.2 62 C 118.2 63.3 119 64.1 120.1 64.1 C 121.3 64.1 122.1 63.3 122.1 62 Z M 129.7 64.4 C 129.4 64.6 129 64.7 128.5 64.7 C 127.6 64.7 127 64.2 127 63.2 C 127.01 63.2 127 60 127 60 L 126.1 60 L 126.1 59.4 L 127 59.4 L 127 58.3 L 127.7 58.3 L 127.7 59.4 L 129.3 59.4 L 129.3 60 L 127.7 60 C 127.7 60 127.72 63.16 127.7 63.2 C 127.7 63.8 128 64.1 128.6 64.1 C 128.9 64.1 129.2 64 129.4 63.9 C 129.4 63.9 129.7 64.4 129.7 64.4 Z M 135.3 59.4 C 135.3 59.4 132.64 65.31 132.6 65.3 C 132.2 66.3 131.6 66.7 130.9 66.7 C 130.4 66.7 129.9 66.5 129.6 66.2 C 129.6 66.2 129.9 65.7 129.9 65.7 C 130.2 65.9 130.5 66.1 130.9 66.1 C 131.4 66.1 131.7 65.8 132 65.2 C 131.99 65.18 132.2 64.7 132.2 64.7 L 129.9 59.4 L 130.6 59.4 L 132.6 63.9 L 134.6 59.4 L 135.3 59.4 Z M 141.6 62.1 C 141.6 63.7 140.5 64.7 139 64.7 C 138.1 64.7 137.4 64.4 137 63.7 C 136.98 63.69 137 66.6 137 66.6 L 136.3 66.6 L 136.3 59.4 L 136.9 59.4 C 136.9 59.4 136.95 60.46 136.9 60.5 C 137.4 59.8 138.1 59.4 139 59.4 C 140.5 59.4 141.6 60.5 141.6 62.1 Z M 140.9 62 C 140.9 60.8 140 60 138.9 60 C 137.8 60 137 60.8 137 62 C 137 63.3 137.8 64.1 138.9 64.1 C 140 64.1 140.9 63.3 140.9 62 Z M 147.6 62.3 C 147.6 62.3 143.2 62.3 143.2 62.3 C 143.3 63.4 144.1 64.1 145.3 64.1 C 145.9 64.1 146.5 63.9 146.9 63.4 C 146.9 63.4 147.3 63.9 147.3 63.9 C 146.8 64.4 146.1 64.7 145.3 64.7 C 143.6 64.7 142.5 63.6 142.5 62 C 142.5 60.5 143.6 59.4 145.1 59.4 C 146.6 59.4 147.6 60.5 147.6 62 C 147.6 62.1 147.6 62.2 147.6 62.3 Z M 143.2 61.7 C 143.2 61.7 147 61.7 147 61.7 C 146.9 60.7 146.1 60 145.1 60 C 144.1 60 143.3 60.7 143.2 61.7 Z M 148.4 64.1 C 148.4 64.1 148.7 63.5 148.7 63.5 C 149.1 63.9 149.8 64.1 150.5 64.1 C 151.5 64.1 152 63.8 152 63.3 C 152 61.9 148.5 63 148.5 60.9 C 148.5 60 149.3 59.4 150.6 59.4 C 151.3 59.4 152 59.6 152.5 59.9 C 152.5 59.9 152.2 60.4 152.2 60.4 C 151.7 60.1 151.2 60 150.6 60 C 149.7 60 149.3 60.4 149.3 60.9 C 149.3 62.3 152.7 61.2 152.7 63.2 C 152.7 64.1 151.9 64.7 150.5 64.7 C 149.6 64.7 148.8 64.4 148.4 64.1 Z M 156.1 62 C 156.1 60.5 157.2 59.4 158.7 59.4 C 160.3 59.4 161.4 60.5 161.4 62 C 161.4 63.6 160.3 64.7 158.7 64.7 C 157.2 64.7 156.1 63.6 156.1 62 Z M 160.7 62 C 160.7 60.8 159.9 60 158.7 60 C 157.6 60 156.8 60.8 156.8 62 C 156.8 63.3 157.6 64.1 158.7 64.1 C 159.9 64.1 160.7 63.3 160.7 62 Z M 163.7 58.8 C 163.68 58.8 163.7 59.4 163.7 59.4 L 165.3 59.4 L 165.3 60 L 163.7 60 L 163.7 64.7 L 163 64.7 L 163 60 L 162 60 L 162 59.4 L 163 59.4 C 163 59.4 162.99 58.77 163 58.8 C 163 57.8 163.5 57.2 164.6 57.2 C 165 57.2 165.4 57.3 165.6 57.5 C 165.6 57.5 165.4 58.1 165.4 58.1 C 165.2 57.9 164.9 57.8 164.6 57.8 C 164 57.8 163.7 58.1 163.7 58.8 Z M 173.5 62.3 C 173.5 62.3 169.1 62.3 169.1 62.3 C 169.1 63.4 170 64.1 171.1 64.1 C 171.8 64.1 172.3 63.9 172.7 63.4 C 172.7 63.4 173.1 63.9 173.1 63.9 C 172.7 64.4 171.9 64.7 171.1 64.7 C 169.5 64.7 168.3 63.6 168.3 62 C 168.3 60.5 169.4 59.4 170.9 59.4 C 172.4 59.4 173.5 60.5 173.5 62 C 173.5 62.1 173.5 62.2 173.5 62.3 Z M 169.1 61.7 C 169.1 61.7 172.8 61.7 172.8 61.7 C 172.7 60.7 171.9 60 170.9 60 C 169.9 60 169.1 60.7 169.1 61.7 Z M 177.6 59.4 C 177.6 59.4 177.6 60.1 177.6 60.1 C 177.5 60.1 177.4 60.1 177.4 60.1 C 176.3 60.1 175.6 60.8 175.6 62 C 175.63 62 175.6 64.7 175.6 64.7 L 174.9 64.7 L 174.9 59.4 L 175.6 59.4 C 175.6 59.4 175.6 60.45 175.6 60.4 C 175.9 59.7 176.6 59.4 177.6 59.4 Z M 181.5 59.4 C 181.5 59.4 181.5 60.1 181.5 60.1 C 181.4 60.1 181.4 60.1 181.3 60.1 C 180.2 60.1 179.6 60.8 179.6 62 C 179.56 62 179.6 64.7 179.6 64.7 L 178.8 64.7 L 178.8 59.4 L 179.5 59.4 C 179.5 59.4 179.53 60.45 179.5 60.4 C 179.9 59.7 180.5 59.4 181.5 59.4 Z M 182.2 62 C 182.2 60.5 183.3 59.4 184.9 59.4 C 186.4 59.4 187.5 60.5 187.5 62 C 187.5 63.6 186.4 64.7 184.9 64.7 C 183.3 64.7 182.2 63.6 182.2 62 Z M 186.8 62 C 186.8 60.8 186 60 184.9 60 C 183.8 60 182.9 60.8 182.9 62 C 182.9 63.3 183.8 64.1 184.9 64.1 C 186 64.1 186.8 63.3 186.8 62 Z M 191.6 59.4 C 191.6 59.4 191.6 60.1 191.6 60.1 C 191.6 60.1 191.5 60.1 191.5 60.1 C 190.4 60.1 189.7 60.8 189.7 62 C 189.71 62 189.7 64.7 189.7 64.7 L 189 64.7 L 189 59.4 L 189.7 59.4 C 189.7 59.4 189.68 60.45 189.7 60.4 C 190 59.7 190.7 59.4 191.6 59.4 Z M 192.2 64.1 C 192.2 64.1 192.6 63.5 192.6 63.5 C 193 63.9 193.7 64.1 194.4 64.1 C 195.4 64.1 195.8 63.8 195.8 63.3 C 195.8 61.9 192.4 63 192.4 60.9 C 192.4 60 193.2 59.4 194.5 59.4 C 195.2 59.4 195.9 59.6 196.4 59.9 C 196.4 59.9 196.1 60.4 196.1 60.4 C 195.6 60.1 195 60 194.5 60 C 193.6 60 193.1 60.4 193.1 60.9 C 193.1 62.3 196.5 61.2 196.5 63.2 C 196.5 64.1 195.7 64.7 194.4 64.7 C 193.5 64.7 192.7 64.4 192.2 64.1 Z M 200.9 59.5 C 200.9 58.8 200.3 58.2 199.3 58.2 C 198.4 58.2 197.8 58.5 197.3 59.1 C 197.3 59.1 196.8 58.7 196.8 58.7 C 197.4 58 198.2 57.6 199.3 57.6 C 200.7 57.6 201.6 58.3 201.6 59.4 C 201.6 61.1 199.8 61.2 199.8 62.6 C 199.8 62.6 199 62.6 199 62.6 C 199 60.9 200.9 60.8 200.9 59.5 Z M 198.9 64.2 C 198.9 63.9 199.1 63.7 199.4 63.7 C 199.7 63.7 199.9 63.9 199.9 64.2 C 199.9 64.5 199.7 64.7 199.4 64.7 C 199.1 64.7 198.9 64.5 198.9 64.2 Z " stroke="none" fill="#000"/>
  </g>
  <g id="Polygon112852">
    <path d="M 22.5 39.7 L 22.5 46.7 L 21.7 46.7 L 21.7 40.3 L 20.1 40.3 L 20.1 39.7 L 22.5 39.7 Z M 24.1 46.2 C 24.1 45.9 24.4 45.6 24.7 45.6 C 25 45.6 25.2 45.9 25.2 46.2 C 25.2 46.5 25 46.7 24.7 46.7 C 24.4 46.7 24.1 46.5 24.1 46.2 Z M 46.7 39.7 L 44.4 46.7 L 43.6 46.7 L 41.6 40.7 L 39.5 46.7 L 38.7 46.7 L 36.4 39.7 L 37.1 39.7 L 39.2 45.7 L 41.2 39.7 L 41.9 39.7 L 44 45.7 L 46 39.7 L 46.7 39.7 Z M 52.9 43.6 C 52.94 43.63 52.9 46.7 52.9 46.7 L 52.2 46.7 C 52.2 46.7 52.23 43.7 52.2 43.7 C 52.2 42.6 51.7 42 50.6 42 C 49.5 42 48.8 42.7 48.8 43.9 C 48.81 43.92 48.8 46.7 48.8 46.7 L 48.1 46.7 L 48.1 39.3 L 48.8 39.3 C 48.8 39.3 48.81 42.34 48.8 42.3 C 49.2 41.7 49.9 41.4 50.8 41.4 C 52.1 41.4 52.9 42.1 52.9 43.6 Z M 58.8 43.4 C 58.84 43.42 58.8 46.7 58.8 46.7 L 58.2 46.7 C 58.2 46.7 58.16 45.86 58.2 45.9 C 57.8 46.4 57.2 46.7 56.3 46.7 C 55.2 46.7 54.4 46.1 54.4 45.2 C 54.4 44.4 54.9 43.7 56.5 43.7 C 56.46 43.71 58.1 43.7 58.1 43.7 C 58.1 43.7 58.13 43.39 58.1 43.4 C 58.1 42.5 57.6 42 56.6 42 C 56 42 55.3 42.2 54.9 42.6 C 54.9 42.6 54.6 42.1 54.6 42.1 C 55.1 41.6 55.9 41.4 56.7 41.4 C 58.1 41.4 58.8 42.1 58.8 43.4 Z M 58.1 45.1 C 58.13 45.1 58.1 44.2 58.1 44.2 C 58.1 44.2 56.48 44.24 56.5 44.2 C 55.5 44.2 55.1 44.6 55.1 45.2 C 55.1 45.8 55.6 46.2 56.5 46.2 C 57.3 46.2 57.9 45.8 58.1 45.1 Z M 63.5 46.4 C 63.3 46.6 62.8 46.7 62.4 46.7 C 61.4 46.7 60.9 46.2 60.9 45.2 C 60.89 45.2 60.9 42 60.9 42 L 60 42 L 60 41.4 L 60.9 41.4 L 60.9 40.3 L 61.6 40.3 L 61.6 41.4 L 63.2 41.4 L 63.2 42 L 61.6 42 C 61.6 42 61.6 45.16 61.6 45.2 C 61.6 45.8 61.9 46.1 62.5 46.1 C 62.8 46.1 63.1 46 63.3 45.9 C 63.3 45.9 63.5 46.4 63.5 46.4 Z M 71.4 43.4 C 71.42 43.42 71.4 46.7 71.4 46.7 L 70.7 46.7 C 70.7 46.7 70.74 45.86 70.7 45.9 C 70.4 46.4 69.8 46.7 68.9 46.7 C 67.7 46.7 67 46.1 67 45.2 C 67 44.4 67.5 43.7 69 43.7 C 69.04 43.71 70.7 43.7 70.7 43.7 C 70.7 43.7 70.71 43.39 70.7 43.4 C 70.7 42.5 70.2 42 69.2 42 C 68.5 42 67.9 42.2 67.5 42.6 C 67.5 42.6 67.1 42.1 67.1 42.1 C 67.7 41.6 68.5 41.4 69.3 41.4 C 70.7 41.4 71.4 42.1 71.4 43.4 Z M 70.7 45.1 C 70.71 45.1 70.7 44.2 70.7 44.2 C 70.7 44.2 69.06 44.24 69.1 44.2 C 68 44.2 67.7 44.6 67.7 45.2 C 67.7 45.8 68.2 46.2 69 46.2 C 69.8 46.2 70.4 45.8 70.7 45.1 Z M 76 41.4 C 76 41.4 76 42.1 76 42.1 C 75.9 42.1 75.9 42.1 75.8 42.1 C 74.7 42.1 74.1 42.8 74.1 44 C 74.06 44 74.1 46.7 74.1 46.7 L 73.4 46.7 L 73.4 41.4 L 74 41.4 C 74 41.4 74.03 42.45 74 42.4 C 74.4 41.7 75 41.4 76 41.4 Z M 81.8 44.3 C 81.8 44.3 77.4 44.3 77.4 44.3 C 77.5 45.4 78.3 46.1 79.5 46.1 C 80.1 46.1 80.7 45.9 81.1 45.4 C 81.1 45.4 81.5 45.9 81.5 45.9 C 81 46.4 80.3 46.7 79.5 46.7 C 77.8 46.7 76.7 45.6 76.7 44 C 76.7 42.5 77.8 41.4 79.3 41.4 C 80.8 41.4 81.8 42.5 81.8 44 C 81.8 44.1 81.8 44.2 81.8 44.3 Z M 77.4 43.7 C 77.4 43.7 81.1 43.7 81.1 43.7 C 81.1 42.7 80.3 42 79.3 42 C 78.2 42 77.5 42.7 77.4 43.7 Z M 88.7 46.4 C 88.4 46.6 88 46.7 87.5 46.7 C 86.6 46.7 86 46.2 86 45.2 C 86.01 45.2 86 42 86 42 L 85.1 42 L 85.1 41.4 L 86 41.4 L 86 40.3 L 86.7 40.3 L 86.7 41.4 L 88.3 41.4 L 88.3 42 L 86.7 42 C 86.7 42 86.72 45.16 86.7 45.2 C 86.7 45.8 87 46.1 87.6 46.1 C 87.9 46.1 88.2 46 88.4 45.9 C 88.4 45.9 88.7 46.4 88.7 46.4 Z M 94.8 43.6 C 94.79 43.63 94.8 46.7 94.8 46.7 L 94.1 46.7 C 94.1 46.7 94.08 43.7 94.1 43.7 C 94.1 42.6 93.5 42 92.5 42 C 91.4 42 90.7 42.7 90.7 43.9 C 90.66 43.92 90.7 46.7 90.7 46.7 L 89.9 46.7 L 89.9 39.3 L 90.7 39.3 C 90.7 39.3 90.66 42.34 90.7 42.3 C 91 41.7 91.7 41.4 92.6 41.4 C 93.9 41.4 94.8 42.1 94.8 43.6 Z M 101.3 44.3 C 101.3 44.3 96.9 44.3 96.9 44.3 C 97 45.4 97.8 46.1 99 46.1 C 99.6 46.1 100.2 45.9 100.6 45.4 C 100.6 45.4 101 45.9 101 45.9 C 100.5 46.4 99.8 46.7 99 46.7 C 97.3 46.7 96.2 45.6 96.2 44 C 96.2 42.5 97.3 41.4 98.8 41.4 C 100.3 41.4 101.3 42.5 101.3 44 C 101.3 44.1 101.3 44.2 101.3 44.3 Z M 96.9 43.7 C 96.9 43.7 100.6 43.7 100.6 43.7 C 100.6 42.7 99.8 42 98.8 42 C 97.8 42 97 42.7 96.9 43.7 Z M 108.2 46.4 C 107.9 46.6 107.5 46.7 107.1 46.7 C 106.1 46.7 105.5 46.2 105.5 45.2 C 105.52 45.2 105.5 42 105.5 42 L 104.6 42 L 104.6 41.4 L 105.5 41.4 L 105.5 40.3 L 106.2 40.3 L 106.2 41.4 L 107.8 41.4 L 107.8 42 L 106.2 42 C 106.2 42 106.23 45.16 106.2 45.2 C 106.2 45.8 106.5 46.1 107.1 46.1 C 107.4 46.1 107.7 46 107.9 45.9 C 107.9 45.9 108.2 46.4 108.2 46.4 Z M 117.1 41.4 L 115.1 46.7 L 114.4 46.7 L 112.8 42.4 L 111.1 46.7 L 110.4 46.7 L 108.4 41.4 L 109.1 41.4 L 110.8 45.9 L 112.5 41.4 L 113.1 41.4 L 114.8 45.9 L 116.4 41.4 L 117.1 41.4 Z M 117.5 44 C 117.5 42.5 118.6 41.4 120.1 41.4 C 121.7 41.4 122.8 42.5 122.8 44 C 122.8 45.6 121.7 46.7 120.1 46.7 C 118.6 46.7 117.5 45.6 117.5 44 Z M 122.1 44 C 122.1 42.8 121.3 42 120.1 42 C 119 42 118.2 42.8 118.2 44 C 118.2 45.3 119 46.1 120.1 46.1 C 121.3 46.1 122.1 45.3 122.1 44 Z M 126.4 44 C 126.4 42.5 127.5 41.4 129.1 41.4 C 130 41.4 130.7 41.7 131.1 42.4 C 131.1 42.4 130.6 42.8 130.6 42.8 C 130.2 42.2 129.7 42 129.1 42 C 127.9 42 127.1 42.8 127.1 44 C 127.1 45.3 127.9 46.1 129.1 46.1 C 129.7 46.1 130.2 45.9 130.6 45.3 C 130.6 45.3 131.1 45.7 131.1 45.7 C 130.7 46.4 130 46.7 129.1 46.7 C 127.5 46.7 126.4 45.6 126.4 44 Z M 136.5 43.4 C 136.49 43.42 136.5 46.7 136.5 46.7 L 135.8 46.7 C 135.8 46.7 135.81 45.86 135.8 45.9 C 135.5 46.4 134.9 46.7 134 46.7 C 132.8 46.7 132.1 46.1 132.1 45.2 C 132.1 44.4 132.6 43.7 134.1 43.7 C 134.11 43.71 135.8 43.7 135.8 43.7 C 135.8 43.7 135.78 43.39 135.8 43.4 C 135.8 42.5 135.3 42 134.3 42 C 133.6 42 133 42.2 132.5 42.6 C 132.5 42.6 132.2 42.1 132.2 42.1 C 132.7 41.6 133.5 41.4 134.4 41.4 C 135.7 41.4 136.5 42.1 136.5 43.4 Z M 135.8 45.1 C 135.78 45.1 135.8 44.2 135.8 44.2 C 135.8 44.2 134.13 44.24 134.1 44.2 C 133.1 44.2 132.8 44.6 132.8 45.2 C 132.8 45.8 133.3 46.2 134.1 46.2 C 134.9 46.2 135.5 45.8 135.8 45.1 Z M 141.2 46.4 C 140.9 46.6 140.5 46.7 140.1 46.7 C 139.1 46.7 138.5 46.2 138.5 45.2 C 138.54 45.2 138.5 42 138.5 42 L 137.6 42 L 137.6 41.4 L 138.5 41.4 L 138.5 40.3 L 139.2 40.3 L 139.2 41.4 L 140.8 41.4 L 140.8 42 L 139.2 42 C 139.2 42 139.25 45.16 139.2 45.2 C 139.2 45.8 139.6 46.1 140.2 46.1 C 140.4 46.1 140.7 46 140.9 45.9 C 140.9 45.9 141.2 46.4 141.2 46.4 Z M 146.9 44.3 C 146.9 44.3 142.5 44.3 142.5 44.3 C 142.5 45.4 143.4 46.1 144.5 46.1 C 145.2 46.1 145.7 45.9 146.1 45.4 C 146.1 45.4 146.5 45.9 146.5 45.9 C 146.1 46.4 145.3 46.7 144.5 46.7 C 142.9 46.7 141.8 45.6 141.8 44 C 141.8 42.5 142.8 41.4 144.3 41.4 C 145.8 41.4 146.9 42.5 146.9 44 C 146.9 44.1 146.9 44.2 146.9 44.3 Z M 142.5 43.7 C 142.5 43.7 146.2 43.7 146.2 43.7 C 146.1 42.7 145.4 42 144.3 42 C 143.3 42 142.6 42.7 142.5 43.7 Z M 153.2 41.4 C 153.2 41.4 153.2 46.04 153.2 46 C 153.2 47.9 152.3 48.7 150.6 48.7 C 149.6 48.7 148.7 48.4 148.1 47.9 C 148.1 47.9 148.5 47.3 148.5 47.3 C 149 47.8 149.7 48 150.5 48 C 151.9 48 152.5 47.4 152.5 46.1 C 152.5 46.1 152.5 45.5 152.5 45.5 C 152 46.1 151.3 46.5 150.4 46.5 C 148.9 46.5 147.8 45.4 147.8 43.9 C 147.8 42.4 148.9 41.4 150.4 41.4 C 151.3 41.4 152.1 41.7 152.5 42.4 C 152.52 42.43 152.5 41.4 152.5 41.4 L 153.2 41.4 Z M 152.5 43.9 C 152.5 42.8 151.7 42 150.5 42 C 149.3 42 148.5 42.8 148.5 43.9 C 148.5 45.1 149.3 45.9 150.5 45.9 C 151.7 45.9 152.5 45.1 152.5 43.9 Z M 154.7 44 C 154.7 42.5 155.8 41.4 157.3 41.4 C 158.9 41.4 160 42.5 160 44 C 160 45.6 158.9 46.7 157.3 46.7 C 155.8 46.7 154.7 45.6 154.7 44 Z M 159.3 44 C 159.3 42.8 158.5 42 157.3 42 C 156.2 42 155.4 42.8 155.4 44 C 155.4 45.3 156.2 46.1 157.3 46.1 C 158.5 46.1 159.3 45.3 159.3 44 Z M 164.1 41.4 C 164.1 41.4 164.1 42.1 164.1 42.1 C 164 42.1 164 42.1 163.9 42.1 C 162.8 42.1 162.2 42.8 162.2 44 C 162.17 44 162.2 46.7 162.2 46.7 L 161.5 46.7 L 161.5 41.4 L 162.1 41.4 C 162.1 41.4 162.14 42.45 162.1 42.4 C 162.5 41.7 163.1 41.4 164.1 41.4 Z M 165.2 39.8 C 165.2 39.5 165.5 39.3 165.7 39.3 C 166 39.3 166.3 39.5 166.3 39.7 C 166.3 40 166 40.3 165.7 40.3 C 165.5 40.3 165.2 40 165.2 39.8 Z M 165.4 41.4 L 166.1 41.4 L 166.1 46.7 L 165.4 46.7 L 165.4 41.4 Z M 172.7 44.3 C 172.7 44.3 168.3 44.3 168.3 44.3 C 168.3 45.4 169.2 46.1 170.3 46.1 C 171 46.1 171.5 45.9 171.9 45.4 C 171.9 45.4 172.3 45.9 172.3 45.9 C 171.9 46.4 171.1 46.7 170.3 46.7 C 168.7 46.7 167.5 45.6 167.5 44 C 167.5 42.5 168.6 41.4 170.1 41.4 C 171.6 41.4 172.7 42.5 172.7 44 C 172.7 44.1 172.7 44.2 172.7 44.3 Z M 168.3 43.7 C 168.3 43.7 172 43.7 172 43.7 C 171.9 42.7 171.1 42 170.1 42 C 169.1 42 168.3 42.7 168.3 43.7 Z M 173.4 46.1 C 173.4 46.1 173.7 45.5 173.7 45.5 C 174.1 45.9 174.8 46.1 175.6 46.1 C 176.6 46.1 177 45.8 177 45.3 C 177 43.9 173.6 45 173.6 42.9 C 173.6 42 174.3 41.4 175.7 41.4 C 176.3 41.4 177.1 41.6 177.5 41.9 C 177.5 41.9 177.2 42.4 177.2 42.4 C 176.7 42.1 176.2 42 175.7 42 C 174.7 42 174.3 42.4 174.3 42.9 C 174.3 44.3 177.7 43.2 177.7 45.2 C 177.7 46.1 176.9 46.7 175.5 46.7 C 174.7 46.7 173.8 46.4 173.4 46.1 Z M 181.1 44 C 181.1 42.5 182.2 41.4 183.8 41.4 C 185.3 41.4 186.4 42.5 186.4 44 C 186.4 45.6 185.3 46.7 183.8 46.7 C 182.2 46.7 181.1 45.6 181.1 44 Z M 185.7 44 C 185.7 42.8 184.9 42 183.8 42 C 182.7 42 181.8 42.8 181.8 44 C 181.8 45.3 182.7 46.1 183.8 46.1 C 184.9 46.1 185.7 45.3 185.7 44 Z M 188.7 40.8 C 188.71 40.8 188.7 41.4 188.7 41.4 L 190.3 41.4 L 190.3 42 L 188.7 42 L 188.7 46.7 L 188 46.7 L 188 42 L 187.1 42 L 187.1 41.4 L 188 41.4 C 188 41.4 188.02 40.77 188 40.8 C 188 39.8 188.6 39.2 189.6 39.2 C 190 39.2 190.4 39.3 190.7 39.5 C 190.7 39.5 190.4 40.1 190.4 40.1 C 190.2 39.9 189.9 39.8 189.6 39.8 C 189 39.8 188.7 40.1 188.7 40.8 Z M 198.7 43.6 C 198.75 43.63 198.7 46.7 198.7 46.7 L 198 46.7 C 198 46.7 198.04 43.7 198 43.7 C 198 42.6 197.5 42 196.5 42 C 195.3 42 194.6 42.7 194.6 43.9 C 194.62 43.92 194.6 46.7 194.6 46.7 L 193.9 46.7 L 193.9 39.3 L 194.6 39.3 C 194.6 39.3 194.62 42.34 194.6 42.3 C 195 41.7 195.7 41.4 196.6 41.4 C 197.9 41.4 198.7 42.1 198.7 43.6 Z M 205.4 41.4 L 205.4 46.7 L 204.7 46.7 C 204.7 46.7 204.74 45.72 204.7 45.7 C 204.4 46.4 203.7 46.7 202.8 46.7 C 201.5 46.7 200.6 46 200.6 44.5 C 200.63 44.47 200.6 41.4 200.6 41.4 L 201.3 41.4 C 201.3 41.4 201.34 44.4 201.3 44.4 C 201.3 45.5 201.9 46.1 202.9 46.1 C 204 46.1 204.7 45.4 204.7 44.2 C 204.71 44.18 204.7 41.4 204.7 41.4 L 205.4 41.4 Z M 216.1 43.6 C 216.09 43.63 216.1 46.7 216.1 46.7 L 215.4 46.7 C 215.4 46.7 215.38 43.7 215.4 43.7 C 215.4 42.6 214.8 42 213.9 42 C 212.8 42 212.1 42.7 212.1 43.9 C 212.11 43.92 212.1 46.7 212.1 46.7 L 211.4 46.7 C 211.4 46.7 211.4 43.7 211.4 43.7 C 211.4 42.6 210.8 42 209.9 42 C 208.8 42 208.1 42.7 208.1 43.9 C 208.12 43.92 208.1 46.7 208.1 46.7 L 207.4 46.7 L 207.4 41.4 L 208.1 41.4 C 208.1 41.4 208.09 42.38 208.1 42.4 C 208.5 41.7 209.1 41.4 210 41.4 C 210.9 41.4 211.6 41.7 211.9 42.5 C 212.3 41.8 213 41.4 214 41.4 C 215.2 41.4 216.1 42.1 216.1 43.6 Z M 222 43.4 C 221.99 43.42 222 46.7 222 46.7 L 221.3 46.7 C 221.3 46.7 221.31 45.86 221.3 45.9 C 221 46.4 220.4 46.7 219.5 46.7 C 218.3 46.7 217.6 46.1 217.6 45.2 C 217.6 44.4 218.1 43.7 219.6 43.7 C 219.61 43.71 221.3 43.7 221.3 43.7 C 221.3 43.7 221.28 43.39 221.3 43.4 C 221.3 42.5 220.8 42 219.8 42 C 219.1 42 218.5 42.2 218 42.6 C 218 42.6 217.7 42.1 217.7 42.1 C 218.2 41.6 219 41.4 219.9 41.4 C 221.2 41.4 222 42.1 222 43.4 Z M 221.3 45.1 C 221.28 45.1 221.3 44.2 221.3 44.2 C 221.3 44.2 219.63 44.24 219.6 44.2 C 218.6 44.2 218.3 44.6 218.3 45.2 C 218.3 45.8 218.8 46.2 219.6 46.2 C 220.4 46.2 221 45.8 221.3 45.1 Z M 228.8 43.6 C 228.76 43.63 228.8 46.7 228.8 46.7 L 228 46.7 C 228 46.7 228.05 43.7 228 43.7 C 228 42.6 227.5 42 226.5 42 C 225.3 42 224.6 42.7 224.6 43.9 C 224.63 43.92 224.6 46.7 224.6 46.7 L 223.9 46.7 L 223.9 41.4 L 224.6 41.4 C 224.6 41.4 224.6 42.39 224.6 42.4 C 225 41.7 225.7 41.4 226.6 41.4 C 227.9 41.4 228.8 42.1 228.8 43.6 Z M 234.1 40.8 C 234.12 40.8 234.1 41.4 234.1 41.4 L 235.7 41.4 L 235.7 42 L 234.1 42 L 234.1 46.7 L 233.4 46.7 L 233.4 42 L 232.5 42 L 232.5 41.4 L 233.4 41.4 C 233.4 41.4 233.43 40.77 233.4 40.8 C 233.4 39.8 234 39.2 235 39.2 C 235.4 39.2 235.8 39.3 236.1 39.5 C 236.1 39.5 235.8 40.1 235.8 40.1 C 235.6 39.9 235.3 39.8 235 39.8 C 234.4 39.8 234.1 40.1 234.1 40.8 Z M 240.6 43.4 C 240.57 43.42 240.6 46.7 240.6 46.7 L 239.9 46.7 C 239.9 46.7 239.89 45.86 239.9 45.9 C 239.6 46.4 238.9 46.7 238.1 46.7 C 236.9 46.7 236.2 46.1 236.2 45.2 C 236.2 44.4 236.7 43.7 238.2 43.7 C 238.19 43.71 239.9 43.7 239.9 43.7 C 239.9 43.7 239.86 43.39 239.9 43.4 C 239.9 42.5 239.3 42 238.4 42 C 237.7 42 237 42.2 236.6 42.6 C 236.6 42.6 236.3 42.1 236.3 42.1 C 236.8 41.6 237.6 41.4 238.4 41.4 C 239.8 41.4 240.6 42.1 240.6 43.4 Z M 239.9 45.1 C 239.86 45.1 239.9 44.2 239.9 44.2 C 239.9 44.2 238.21 44.24 238.2 44.2 C 237.2 44.2 236.9 44.6 236.9 45.2 C 236.9 45.8 237.3 46.2 238.2 46.2 C 239 46.2 239.6 45.8 239.9 45.1 Z M 242.3 39.8 C 242.3 39.5 242.6 39.3 242.9 39.3 C 243.1 39.3 243.4 39.5 243.4 39.7 C 243.4 40 243.2 40.3 242.9 40.3 C 242.6 40.3 242.3 40 242.3 39.8 Z M 242.5 41.4 L 243.2 41.4 L 243.2 46.7 L 242.5 46.7 L 242.5 41.4 Z M 245.2 39.3 L 245.9 39.3 L 245.9 46.7 L 245.2 46.7 L 245.2 39.3 Z M 252.6 41.4 L 252.6 46.7 L 251.9 46.7 C 251.9 46.7 251.94 45.72 251.9 45.7 C 251.6 46.4 250.9 46.7 250 46.7 C 248.7 46.7 247.8 46 247.8 44.5 C 247.83 44.47 247.8 41.4 247.8 41.4 L 248.5 41.4 C 248.5 41.4 248.54 44.4 248.5 44.4 C 248.5 45.5 249.1 46.1 250.1 46.1 C 251.2 46.1 251.9 45.4 251.9 44.2 C 251.91 44.18 251.9 41.4 251.9 41.4 L 252.6 41.4 Z M 257.3 41.4 C 257.3 41.4 257.3 42.1 257.3 42.1 C 257.2 42.1 257.1 42.1 257.1 42.1 C 256 42.1 255.3 42.8 255.3 44 C 255.32 44 255.3 46.7 255.3 46.7 L 254.6 46.7 L 254.6 41.4 L 255.3 41.4 C 255.3 41.4 255.29 42.45 255.3 42.4 C 255.6 41.7 256.3 41.4 257.3 41.4 Z M 263.1 44.3 C 263.1 44.3 258.7 44.3 258.7 44.3 C 258.7 45.4 259.6 46.1 260.7 46.1 C 261.4 46.1 261.9 45.9 262.3 45.4 C 262.3 45.4 262.7 45.9 262.7 45.9 C 262.3 46.4 261.5 46.7 260.7 46.7 C 259.1 46.7 258 45.6 258 44 C 258 42.5 259 41.4 260.5 41.4 C 262 41.4 263.1 42.5 263.1 44 C 263.1 44.1 263.1 44.2 263.1 44.3 Z M 258.7 43.7 C 258.7 43.7 262.4 43.7 262.4 43.7 C 262.3 42.7 261.6 42 260.5 42 C 259.5 42 258.8 42.7 258.7 43.7 Z M 267.2 41.5 C 267.2 40.8 266.6 40.2 265.6 40.2 C 264.8 40.2 264.2 40.5 263.7 41.1 C 263.7 41.1 263.2 40.7 263.2 40.7 C 263.7 40 264.6 39.6 265.7 39.6 C 267.1 39.6 268 40.3 268 41.4 C 268 43.1 266.1 43.2 266.1 44.6 C 266.1 44.6 265.4 44.6 265.4 44.6 C 265.4 42.9 267.2 42.8 267.2 41.5 Z M 265.3 46.2 C 265.3 45.9 265.5 45.7 265.8 45.7 C 266.1 45.7 266.3 45.9 266.3 46.2 C 266.3 46.5 266.1 46.7 265.8 46.7 C 265.5 46.7 265.3 46.5 265.3 46.2 Z " stroke="none" fill="#000"/>
  </g>
  <g id="Polygon112851">
    <path d="M 10.7 2.7 L 8.4 9.7 L 7.6 9.7 L 5.6 3.7 L 3.5 9.7 L 2.7 9.7 L 0.4 2.7 L 1.1 2.7 L 3.2 8.7 L 5.2 2.7 L 5.9 2.7 L 8 8.7 L 10 2.7 L 10.7 2.7 Z M 15.8 6.4 C 15.77 6.42 15.8 9.7 15.8 9.7 L 15.1 9.7 C 15.1 9.7 15.09 8.86 15.1 8.9 C 14.8 9.4 14.2 9.7 13.3 9.7 C 12.1 9.7 11.4 9.1 11.4 8.2 C 11.4 7.4 11.9 6.7 13.4 6.7 C 13.39 6.71 15.1 6.7 15.1 6.7 C 15.1 6.7 15.06 6.39 15.1 6.4 C 15.1 5.5 14.6 5 13.6 5 C 12.9 5 12.2 5.2 11.8 5.6 C 11.8 5.6 11.5 5.1 11.5 5.1 C 12 4.6 12.8 4.4 13.6 4.4 C 15 4.4 15.8 5.1 15.8 6.4 Z M 15.1 8.1 C 15.06 8.1 15.1 7.2 15.1 7.2 C 15.1 7.2 13.41 7.24 13.4 7.2 C 12.4 7.2 12.1 7.6 12.1 8.2 C 12.1 8.8 12.5 9.2 13.4 9.2 C 14.2 9.2 14.8 8.8 15.1 8.1 Z M 20.3 9.4 C 20 9.6 19.6 9.7 19.2 9.7 C 18.2 9.7 17.7 9.2 17.7 8.2 C 17.67 8.2 17.7 5 17.7 5 L 16.7 5 L 16.7 4.4 L 17.7 4.4 L 17.7 3.3 L 18.4 3.3 L 18.4 4.4 L 20 4.4 L 20 5 L 18.4 5 C 18.4 5 18.37 8.16 18.4 8.2 C 18.4 8.8 18.7 9.1 19.3 9.1 C 19.6 9.1 19.9 9 20.1 8.9 C 20.1 8.9 20.3 9.4 20.3 9.4 Z M 20.9 7 C 20.9 5.5 22 4.4 23.6 4.4 C 24.5 4.4 25.2 4.7 25.6 5.4 C 25.6 5.4 25.1 5.8 25.1 5.8 C 24.7 5.2 24.2 5 23.6 5 C 22.4 5 21.6 5.8 21.6 7 C 21.6 8.3 22.4 9.1 23.6 9.1 C 24.2 9.1 24.7 8.9 25.1 8.3 C 25.1 8.3 25.6 8.7 25.6 8.7 C 25.2 9.4 24.5 9.7 23.6 9.7 C 22 9.7 20.9 8.6 20.9 7 Z M 31.8 6.6 C 31.79 6.63 31.8 9.7 31.8 9.7 L 31.1 9.7 C 31.1 9.7 31.08 6.7 31.1 6.7 C 31.1 5.6 30.5 5 29.5 5 C 28.4 5 27.7 5.7 27.7 6.9 C 27.66 6.92 27.7 9.7 27.7 9.7 L 26.9 9.7 L 26.9 2.3 L 27.7 2.3 C 27.7 2.3 27.66 5.34 27.7 5.3 C 28 4.7 28.7 4.4 29.6 4.4 C 30.9 4.4 31.8 5.1 31.8 6.6 Z M 39.1 9.4 C 38.8 9.6 38.4 9.7 38 9.7 C 37 9.7 36.5 9.2 36.5 8.2 C 36.46 8.2 36.5 5 36.5 5 L 35.5 5 L 35.5 4.4 L 36.5 4.4 L 36.5 3.3 L 37.2 3.3 L 37.2 4.4 L 38.8 4.4 L 38.8 5 L 37.2 5 C 37.2 5 37.17 8.16 37.2 8.2 C 37.2 8.8 37.5 9.1 38.1 9.1 C 38.4 9.1 38.7 9 38.9 8.9 C 38.9 8.9 39.1 9.4 39.1 9.4 Z M 45.1 6.6 C 45.14 6.63 45.1 9.7 45.1 9.7 L 44.4 9.7 C 44.4 9.7 44.43 6.7 44.4 6.7 C 44.4 5.6 43.8 5 42.8 5 C 41.7 5 41 5.7 41 6.9 C 41.01 6.92 41 9.7 41 9.7 L 40.3 9.7 L 40.3 2.3 L 41 2.3 C 41 2.3 41.01 5.34 41 5.3 C 41.4 4.7 42.1 4.4 43 4.4 C 44.3 4.4 45.1 5.1 45.1 6.6 Z M 51.6 7.3 C 51.6 7.3 47.2 7.3 47.2 7.3 C 47.3 8.4 48.1 9.1 49.3 9.1 C 49.9 9.1 50.5 8.9 50.9 8.4 C 50.9 8.4 51.3 8.9 51.3 8.9 C 50.8 9.4 50.1 9.7 49.3 9.7 C 47.6 9.7 46.5 8.6 46.5 7 C 46.5 5.5 47.6 4.4 49.1 4.4 C 50.6 4.4 51.6 5.5 51.6 7 C 51.6 7.1 51.6 7.2 51.6 7.3 Z M 47.2 6.7 C 47.2 6.7 51 6.7 51 6.7 C 50.9 5.7 50.1 5 49.1 5 C 48.1 5 47.3 5.7 47.2 6.7 Z M 61 7 C 61 8.6 59.9 9.7 58.4 9.7 C 57.5 9.7 56.8 9.3 56.4 8.6 C 56.39 8.64 56.4 9.7 56.4 9.7 L 55.7 9.7 L 55.7 2.3 L 56.4 2.3 C 56.4 2.3 56.42 5.42 56.4 5.4 C 56.9 4.7 57.6 4.4 58.4 4.4 C 59.9 4.4 61 5.5 61 7 Z M 60.3 7 C 60.3 5.8 59.5 5 58.4 5 C 57.2 5 56.4 5.8 56.4 7 C 56.4 8.3 57.2 9.1 58.4 9.1 C 59.5 9.1 60.3 8.3 60.3 7 Z M 67.2 7.3 C 67.2 7.3 62.8 7.3 62.8 7.3 C 62.8 8.4 63.7 9.1 64.8 9.1 C 65.5 9.1 66 8.9 66.4 8.4 C 66.4 8.4 66.8 8.9 66.8 8.9 C 66.4 9.4 65.6 9.7 64.8 9.7 C 63.2 9.7 62 8.6 62 7 C 62 5.5 63.1 4.4 64.6 4.4 C 66.1 4.4 67.2 5.5 67.2 7 C 67.2 7.1 67.2 7.2 67.2 7.3 Z M 62.8 6.7 C 62.8 6.7 66.5 6.7 66.5 6.7 C 66.4 5.7 65.6 5 64.6 5 C 63.6 5 62.8 5.7 62.8 6.7 Z M 68.6 2.3 L 69.3 2.3 L 69.3 9.7 L 68.6 9.7 L 68.6 2.3 Z M 70.7 7 C 70.7 5.5 71.9 4.4 73.4 4.4 C 74.9 4.4 76.1 5.5 76.1 7 C 76.1 8.6 74.9 9.7 73.4 9.7 C 71.9 9.7 70.7 8.6 70.7 7 Z M 75.3 7 C 75.3 5.8 74.5 5 73.4 5 C 72.3 5 71.4 5.8 71.4 7 C 71.4 8.3 72.3 9.1 73.4 9.1 C 74.5 9.1 75.3 8.3 75.3 7 Z M 85.2 4.4 L 83.2 9.7 L 82.5 9.7 L 80.9 5.4 L 79.2 9.7 L 78.5 9.7 L 76.6 4.4 L 77.2 4.4 L 78.9 8.9 L 80.6 4.4 L 81.2 4.4 L 82.9 8.9 L 84.5 4.4 L 85.2 4.4 Z M 93.3 4.4 L 90.9 9.7 L 90.2 9.7 L 87.9 4.4 L 88.6 4.4 L 90.6 8.9 L 92.6 4.4 L 93.3 4.4 Z M 94.2 2.8 C 94.2 2.5 94.4 2.3 94.7 2.3 C 95 2.3 95.2 2.5 95.2 2.7 C 95.2 3 95 3.3 94.7 3.3 C 94.4 3.3 94.2 3 94.2 2.8 Z M 94.3 4.4 L 95 4.4 L 95 9.7 L 94.3 9.7 L 94.3 4.4 Z M 101.8 2.3 L 101.8 9.7 L 101.1 9.7 C 101.1 9.7 101.09 8.64 101.1 8.6 C 100.7 9.3 99.9 9.7 99.1 9.7 C 97.6 9.7 96.4 8.6 96.4 7 C 96.4 5.5 97.6 4.4 99.1 4.4 C 99.9 4.4 100.6 4.7 101.1 5.4 C 101.06 5.42 101.1 2.3 101.1 2.3 L 101.8 2.3 Z M 101.1 7 C 101.1 5.8 100.2 5 99.1 5 C 98 5 97.2 5.8 97.2 7 C 97.2 8.3 98 9.1 99.1 9.1 C 100.2 9.1 101.1 8.3 101.1 7 Z M 108.3 7.3 C 108.3 7.3 103.9 7.3 103.9 7.3 C 104 8.4 104.8 9.1 106 9.1 C 106.6 9.1 107.2 8.9 107.6 8.4 C 107.6 8.4 108 8.9 108 8.9 C 107.5 9.4 106.8 9.7 106 9.7 C 104.3 9.7 103.2 8.6 103.2 7 C 103.2 5.5 104.3 4.4 105.8 4.4 C 107.3 4.4 108.3 5.5 108.3 7 C 108.3 7.1 108.3 7.2 108.3 7.3 Z M 103.9 6.7 C 103.9 6.7 107.7 6.7 107.7 6.7 C 107.6 5.7 106.8 5 105.8 5 C 104.8 5 104 5.7 103.9 6.7 Z M 109.3 7 C 109.3 5.5 110.5 4.4 112 4.4 C 113.6 4.4 114.7 5.5 114.7 7 C 114.7 8.6 113.6 9.7 112 9.7 C 110.5 9.7 109.3 8.6 109.3 7 Z M 114 7 C 114 5.8 113.1 5 112 5 C 110.9 5 110.1 5.8 110.1 7 C 110.1 8.3 110.9 9.1 112 9.1 C 113.1 9.1 114 8.3 114 7 Z M 122.7 6.4 C 122.72 6.42 122.7 9.7 122.7 9.7 L 122 9.7 C 122 9.7 122.04 8.86 122 8.9 C 121.7 9.4 121.1 9.7 120.2 9.7 C 119 9.7 118.3 9.1 118.3 8.2 C 118.3 7.4 118.8 6.7 120.3 6.7 C 120.34 6.71 122 6.7 122 6.7 C 122 6.7 122.01 6.39 122 6.4 C 122 5.5 121.5 5 120.5 5 C 119.8 5 119.2 5.2 118.8 5.6 C 118.8 5.6 118.5 5.1 118.5 5.1 C 119 4.6 119.8 4.4 120.6 4.4 C 122 4.4 122.7 5.1 122.7 6.4 Z M 122 8.1 C 122.01 8.1 122 7.2 122 7.2 C 122 7.2 120.36 7.24 120.4 7.2 C 119.3 7.2 119 7.6 119 8.2 C 119 8.8 119.5 9.2 120.3 9.2 C 121.1 9.2 121.7 8.8 122 8.1 Z M 129.4 6.6 C 129.38 6.63 129.4 9.7 129.4 9.7 L 128.7 9.7 C 128.7 9.7 128.67 6.7 128.7 6.7 C 128.7 5.6 128.1 5 127.1 5 C 126 5 125.2 5.7 125.2 6.9 C 125.25 6.92 125.2 9.7 125.2 9.7 L 124.5 9.7 L 124.5 4.4 L 125.2 4.4 C 125.2 4.4 125.22 5.39 125.2 5.4 C 125.6 4.7 126.3 4.4 127.2 4.4 C 128.5 4.4 129.4 5.1 129.4 6.6 Z M 136.1 2.3 L 136.1 9.7 L 135.4 9.7 C 135.4 9.7 135.41 8.64 135.4 8.6 C 135 9.3 134.2 9.7 133.4 9.7 C 131.9 9.7 130.8 8.6 130.8 7 C 130.8 5.5 131.9 4.4 133.4 4.4 C 134.2 4.4 134.9 4.7 135.4 5.4 C 135.38 5.42 135.4 2.3 135.4 2.3 L 136.1 2.3 Z M 135.4 7 C 135.4 5.8 134.5 5 133.4 5 C 132.3 5 131.5 5.8 131.5 7 C 131.5 8.3 132.3 9.1 133.4 9.1 C 134.5 9.1 135.4 8.3 135.4 7 Z M 144.7 6.4 C 144.66 6.42 144.7 9.7 144.7 9.7 L 144 9.7 C 144 9.7 143.98 8.86 144 8.9 C 143.7 9.4 143 9.7 142.2 9.7 C 141 9.7 140.2 9.1 140.2 8.2 C 140.2 7.4 140.8 6.7 142.3 6.7 C 142.28 6.71 143.9 6.7 143.9 6.7 C 143.9 6.7 143.95 6.39 143.9 6.4 C 143.9 5.5 143.4 5 142.5 5 C 141.8 5 141.1 5.2 140.7 5.6 C 140.7 5.6 140.4 5.1 140.4 5.1 C 140.9 4.6 141.7 4.4 142.5 4.4 C 143.9 4.4 144.7 5.1 144.7 6.4 Z M 143.9 8.1 C 143.95 8.1 143.9 7.2 143.9 7.2 C 143.9 7.2 142.3 7.24 142.3 7.2 C 141.3 7.2 140.9 7.6 140.9 8.2 C 140.9 8.8 141.4 9.2 142.3 9.2 C 143.1 9.2 143.7 8.8 143.9 8.1 Z M 151.3 6.6 C 151.31 6.63 151.3 9.7 151.3 9.7 L 150.6 9.7 C 150.6 9.7 150.6 6.7 150.6 6.7 C 150.6 5.6 150 5 149 5 C 147.9 5 147.2 5.7 147.2 6.9 C 147.18 6.92 147.2 9.7 147.2 9.7 L 146.5 9.7 L 146.5 4.4 L 147.2 4.4 C 147.2 4.4 147.15 5.39 147.2 5.4 C 147.5 4.7 148.2 4.4 149.2 4.4 C 150.4 4.4 151.3 5.1 151.3 6.6 Z M 152.5 9.1 C 152.5 9.1 152.9 8.5 152.9 8.5 C 153.3 8.9 154 9.1 154.7 9.1 C 155.7 9.1 156.1 8.8 156.1 8.3 C 156.1 6.9 152.7 8 152.7 5.9 C 152.7 5 153.5 4.4 154.8 4.4 C 155.5 4.4 156.2 4.6 156.7 4.9 C 156.7 4.9 156.4 5.4 156.4 5.4 C 155.9 5.1 155.3 5 154.8 5 C 153.9 5 153.4 5.4 153.4 5.9 C 153.4 7.3 156.8 6.2 156.8 8.2 C 156.8 9.1 156 9.7 154.7 9.7 C 153.8 9.7 153 9.4 152.5 9.1 Z M 166.1 4.4 L 164.1 9.7 L 163.4 9.7 L 161.7 5.4 L 160.1 9.7 L 159.4 9.7 L 157.4 4.4 L 158.1 4.4 L 159.8 8.9 L 161.5 4.4 L 162.1 4.4 L 163.7 8.9 L 165.4 4.4 L 166.1 4.4 Z M 171.7 7.3 C 171.7 7.3 167.3 7.3 167.3 7.3 C 167.3 8.4 168.2 9.1 169.3 9.1 C 170 9.1 170.6 8.9 171 8.4 C 171 8.4 171.3 8.9 171.3 8.9 C 170.9 9.4 170.2 9.7 169.3 9.7 C 167.7 9.7 166.6 8.6 166.6 7 C 166.6 5.5 167.6 4.4 169.1 4.4 C 170.6 4.4 171.7 5.5 171.7 7 C 171.7 7.1 171.7 7.2 171.7 7.3 Z M 167.3 6.7 C 167.3 6.7 171 6.7 171 6.7 C 170.9 5.7 170.2 5 169.1 5 C 168.1 5 167.4 5.7 167.3 6.7 Z M 175.7 4.4 C 175.7 4.4 175.7 5.1 175.7 5.1 C 175.7 5.1 175.6 5.1 175.6 5.1 C 174.5 5.1 173.8 5.8 173.8 7 C 173.79 7 173.8 9.7 173.8 9.7 L 173.1 9.7 L 173.1 4.4 L 173.8 4.4 C 173.8 4.4 173.76 5.45 173.8 5.4 C 174.1 4.7 174.8 4.4 175.7 4.4 Z M 182.5 9.4 C 182.2 9.6 181.8 9.7 181.4 9.7 C 180.4 9.7 179.8 9.2 179.8 8.2 C 179.83 8.2 179.8 5 179.8 5 L 178.9 5 L 178.9 4.4 L 179.8 4.4 L 179.8 3.3 L 180.5 3.3 L 180.5 4.4 L 182.1 4.4 L 182.1 5 L 180.5 5 C 180.5 5 180.54 8.16 180.5 8.2 C 180.5 8.8 180.9 9.1 181.5 9.1 C 181.7 9.1 182 9 182.2 8.9 C 182.2 8.9 182.5 9.4 182.5 9.4 Z M 188.5 6.6 C 188.51 6.63 188.5 9.7 188.5 9.7 L 187.8 9.7 C 187.8 9.7 187.8 6.7 187.8 6.7 C 187.8 5.6 187.2 5 186.2 5 C 185.1 5 184.4 5.7 184.4 6.9 C 184.38 6.92 184.4 9.7 184.4 9.7 L 183.7 9.7 L 183.7 2.3 L 184.4 2.3 C 184.4 2.3 184.38 5.34 184.4 5.3 C 184.8 4.7 185.5 4.4 186.4 4.4 C 187.6 4.4 188.5 5.1 188.5 6.6 Z M 195 7.3 C 195 7.3 190.6 7.3 190.6 7.3 C 190.7 8.4 191.5 9.1 192.7 9.1 C 193.3 9.1 193.9 8.9 194.3 8.4 C 194.3 8.4 194.7 8.9 194.7 8.9 C 194.2 9.4 193.5 9.7 192.7 9.7 C 191 9.7 189.9 8.6 189.9 7 C 189.9 5.5 191 4.4 192.5 4.4 C 193.9 4.4 195 5.5 195 7 C 195 7.1 195 7.2 195 7.3 Z M 190.6 6.7 C 190.6 6.7 194.3 6.7 194.3 6.7 C 194.2 5.7 193.5 5 192.5 5 C 191.4 5 190.7 5.7 190.6 6.7 Z M 199.9 3.8 C 199.89 3.8 199.9 4.4 199.9 4.4 L 201.5 4.4 L 201.5 5 L 199.9 5 L 199.9 9.7 L 199.2 9.7 L 199.2 5 L 198.3 5 L 198.3 4.4 L 199.2 4.4 C 199.2 4.4 199.2 3.77 199.2 3.8 C 199.2 2.8 199.8 2.2 200.8 2.2 C 201.2 2.2 201.6 2.3 201.8 2.5 C 201.8 2.5 201.6 3.1 201.6 3.1 C 201.4 2.9 201.1 2.8 200.8 2.8 C 200.2 2.8 199.9 3.1 199.9 3.8 Z M 201.9 7 C 201.9 5.5 203.1 4.4 204.6 4.4 C 206.1 4.4 207.3 5.5 207.3 7 C 207.3 8.6 206.1 9.7 204.6 9.7 C 203.1 9.7 201.9 8.6 201.9 7 Z M 206.6 7 C 206.6 5.8 205.7 5 204.6 5 C 203.5 5 202.6 5.8 202.6 7 C 202.6 8.3 203.5 9.1 204.6 9.1 C 205.7 9.1 206.6 8.3 206.6 7 Z M 208.7 2.3 L 209.4 2.3 L 209.4 9.7 L 208.7 9.7 L 208.7 2.3 Z M 211.3 2.3 L 212 2.3 L 212 9.7 L 211.3 9.7 L 211.3 2.3 Z M 213.4 7 C 213.4 5.5 214.5 4.4 216.1 4.4 C 217.6 4.4 218.7 5.5 218.7 7 C 218.7 8.6 217.6 9.7 216.1 9.7 C 214.5 9.7 213.4 8.6 213.4 7 Z M 218 7 C 218 5.8 217.2 5 216.1 5 C 215 5 214.1 5.8 214.1 7 C 214.1 8.3 215 9.1 216.1 9.1 C 217.2 9.1 218 8.3 218 7 Z M 227.9 4.4 L 225.9 9.7 L 225.2 9.7 L 223.5 5.4 L 221.9 9.7 L 221.2 9.7 L 219.2 4.4 L 219.9 4.4 L 221.6 8.9 L 223.3 4.4 L 223.9 4.4 L 225.5 8.9 L 227.2 4.4 L 227.9 4.4 Z M 228.8 2.8 C 228.8 2.5 229 2.3 229.3 2.3 C 229.6 2.3 229.8 2.5 229.8 2.7 C 229.8 3 229.6 3.3 229.3 3.3 C 229 3.3 228.8 3 228.8 2.8 Z M 229 4.4 L 229.7 4.4 L 229.7 9.7 L 229 9.7 L 229 4.4 Z M 236.3 6.6 C 236.35 6.63 236.3 9.7 236.3 9.7 L 235.6 9.7 C 235.6 9.7 235.64 6.7 235.6 6.7 C 235.6 5.6 235.1 5 234.1 5 C 232.9 5 232.2 5.7 232.2 6.9 C 232.22 6.92 232.2 9.7 232.2 9.7 L 231.5 9.7 L 231.5 4.4 L 232.2 4.4 C 232.2 4.4 232.19 5.39 232.2 5.4 C 232.6 4.7 233.3 4.4 234.2 4.4 C 235.5 4.4 236.3 5.1 236.3 6.6 Z M 243.1 4.4 C 243.1 4.4 243.11 9.04 243.1 9 C 243.1 10.9 242.2 11.7 240.5 11.7 C 239.5 11.7 238.6 11.4 238 10.9 C 238 10.9 238.4 10.3 238.4 10.3 C 238.9 10.8 239.6 11 240.5 11 C 241.8 11 242.4 10.4 242.4 9.1 C 242.4 9.1 242.4 8.5 242.4 8.5 C 242 9.1 241.2 9.5 240.3 9.5 C 238.8 9.5 237.7 8.4 237.7 6.9 C 237.7 5.4 238.8 4.4 240.3 4.4 C 241.2 4.4 242 4.7 242.4 5.4 C 242.43 5.43 242.4 4.4 242.4 4.4 L 243.1 4.4 Z M 242.4 6.9 C 242.4 5.8 241.6 5 240.4 5 C 239.3 5 238.4 5.8 238.4 6.9 C 238.4 8.1 239.3 8.9 240.4 8.9 C 241.6 8.9 242.4 8.1 242.4 6.9 Z M 252.5 4.4 L 252.5 11.6 L 251.8 11.6 C 251.8 11.6 251.81 8.69 251.8 8.7 C 251.4 9.4 250.6 9.7 249.8 9.7 C 248.3 9.7 247.2 8.7 247.2 7 C 247.2 5.5 248.3 4.4 249.8 4.4 C 250.7 4.4 251.4 4.8 251.8 5.5 C 251.84 5.46 251.8 4.4 251.8 4.4 L 252.5 4.4 Z M 251.8 7 C 251.8 5.8 251 5 249.9 5 C 248.7 5 247.9 5.8 247.9 7.1 C 247.9 8.3 248.7 9.1 249.9 9.1 C 251 9.1 251.8 8.3 251.8 7 Z M 259.1 4.4 L 259.1 9.7 L 258.4 9.7 C 258.4 9.7 258.44 8.72 258.4 8.7 C 258.1 9.4 257.4 9.7 256.6 9.7 C 255.2 9.7 254.3 9 254.3 7.5 C 254.33 7.47 254.3 4.4 254.3 4.4 L 255 4.4 C 255 4.4 255.04 7.4 255 7.4 C 255 8.5 255.6 9.1 256.6 9.1 C 257.7 9.1 258.4 8.4 258.4 7.2 C 258.41 7.18 258.4 4.4 258.4 4.4 L 259.1 4.4 Z M 265.7 7.3 C 265.7 7.3 261.3 7.3 261.3 7.3 C 261.4 8.4 262.2 9.1 263.4 9.1 C 264 9.1 264.6 8.9 265 8.4 C 265 8.4 265.4 8.9 265.4 8.9 C 264.9 9.4 264.2 9.7 263.3 9.7 C 261.7 9.7 260.6 8.6 260.6 7 C 260.6 5.5 261.7 4.4 263.1 4.4 C 264.6 4.4 265.7 5.5 265.7 7 C 265.7 7.1 265.7 7.2 265.7 7.3 Z M 261.3 6.7 C 261.3 6.7 265 6.7 265 6.7 C 264.9 5.7 264.2 5 263.1 5 C 262.1 5 261.4 5.7 261.3 6.7 Z M 266.5 9.1 C 266.5 9.1 266.8 8.5 266.8 8.5 C 267.2 8.9 267.9 9.1 268.7 9.1 C 269.7 9.1 270.1 8.8 270.1 8.3 C 270.1 6.9 266.7 8 266.7 5.9 C 266.7 5 267.4 4.4 268.8 4.4 C 269.4 4.4 270.2 4.6 270.6 4.9 C 270.6 4.9 270.3 5.4 270.3 5.4 C 269.8 5.1 269.3 5 268.8 5 C 267.8 5 267.4 5.4 267.4 5.9 C 267.4 7.3 270.8 6.2 270.8 8.2 C 270.8 9.1 270 9.7 268.6 9.7 C 267.8 9.7 266.9 9.4 266.5 9.1 Z M 275.1 9.4 C 274.8 9.6 274.4 9.7 274 9.7 C 273 9.7 272.4 9.2 272.4 8.2 C 272.43 8.2 272.4 5 272.4 5 L 271.5 5 L 271.5 4.4 L 272.4 4.4 L 272.4 3.3 L 273.1 3.3 L 273.1 4.4 L 274.7 4.4 L 274.7 5 L 273.1 5 C 273.1 5 273.14 8.16 273.1 8.2 C 273.1 8.8 273.5 9.1 274 9.1 C 274.3 9.1 274.6 9 274.8 8.9 C 274.8 8.9 275.1 9.4 275.1 9.4 Z M 276.1 2.8 C 276.1 2.5 276.3 2.3 276.6 2.3 C 276.9 2.3 277.1 2.5 277.1 2.7 C 277.1 3 276.9 3.3 276.6 3.3 C 276.3 3.3 276.1 3 276.1 2.8 Z M 276.3 4.4 L 277 4.4 L 277 9.7 L 276.3 9.7 L 276.3 4.4 Z M 278.4 7 C 278.4 5.5 279.5 4.4 281.1 4.4 C 282.6 4.4 283.7 5.5 283.7 7 C 283.7 8.6 282.6 9.7 281.1 9.7 C 279.5 9.7 278.4 8.6 278.4 7 Z M 283 7 C 283 5.8 282.2 5 281.1 5 C 279.9 5 279.1 5.8 279.1 7 C 279.1 8.3 279.9 9.1 281.1 9.1 C 282.2 9.1 283 8.3 283 7 Z M 290 6.6 C 289.99 6.63 290 9.7 290 9.7 L 289.3 9.7 C 289.3 9.7 289.28 6.7 289.3 6.7 C 289.3 5.6 288.7 5 287.7 5 C 286.6 5 285.9 5.7 285.9 6.9 C 285.86 6.92 285.9 9.7 285.9 9.7 L 285.1 9.7 L 285.1 4.4 L 285.8 4.4 C 285.8 4.4 285.83 5.39 285.8 5.4 C 286.2 4.7 286.9 4.4 287.8 4.4 C 289.1 4.4 290 5.1 290 6.6 Z M 291.2 9.1 C 291.2 9.1 291.5 8.5 291.5 8.5 C 291.9 8.9 292.7 9.1 293.4 9.1 C 294.4 9.1 294.8 8.8 294.8 8.3 C 294.8 6.9 291.4 8 291.4 5.9 C 291.4 5 292.1 4.4 293.5 4.4 C 294.2 4.4 294.9 4.6 295.3 4.9 C 295.3 4.9 295 5.4 295 5.4 C 294.6 5.1 294 5 293.5 5 C 292.5 5 292.1 5.4 292.1 5.9 C 292.1 7.3 295.5 6.2 295.5 8.2 C 295.5 9.1 294.7 9.7 293.3 9.7 C 292.5 9.7 291.6 9.4 291.2 9.1 Z M 296.4 4.9 C 296.4 4.6 296.7 4.4 297 4.4 C 297.3 4.4 297.5 4.6 297.5 4.9 C 297.5 5.2 297.3 5.5 297 5.5 C 296.7 5.5 296.4 5.2 296.4 4.9 Z M 296.4 9.2 C 296.4 8.9 296.7 8.6 297 8.6 C 297.3 8.6 297.5 8.9 297.5 9.2 C 297.5 9.5 297.3 9.7 297 9.7 C 296.7 9.7 296.4 9.5 296.4 9.2 Z " stroke="none" fill="#323132"/>
  </g>
</svg>