<?xml version="1.0" standalone="no"?>
<!DOCTYPE svg PUBLIC "-//W3C//DTD SVG 1.1//EN" "http://www.w3.org/Graphics/SVG/1.1/DTD/svg11.dtd">
<svg xmlns="http://www.w3.org/2000/svg" version="1.1" width="142px" height="20.5px" viewBox="0 -2 142 20.5" style="top:-2px">
  <desc>2.7 Human failure and hu...</desc>
  <defs/>
  <g class="svg-textframe-underlines">
    <rect class="svg-underline" x="0" y="10.4" width="131.9" height="0.5" style="fill:#000;"/>
  </g>
  <g id="Polygon118941">
    <path d="M 5.3 9 L 5.3 9.7 L 0.4 9.7 L 0.4 9.2 C 0.4 9.2 3.3 6.32 3.3 6.3 C 4.1 5.5 4.2 5.1 4.2 4.6 C 4.2 3.8 3.7 3.3 2.6 3.3 C 1.8 3.3 1.2 3.5 0.7 4.1 C 0.7 4.1 0.2 3.6 0.2 3.6 C 0.7 3 1.6 2.6 2.7 2.6 C 4.1 2.6 5 3.3 5 4.5 C 5 5.2 4.8 5.8 3.8 6.7 C 3.83 6.7 1.5 9 1.5 9 L 5.3 9 Z M 6.4 9.2 C 6.4 8.9 6.6 8.6 6.9 8.6 C 7.2 8.6 7.4 8.9 7.4 9.2 C 7.4 9.5 7.2 9.7 6.9 9.7 C 6.6 9.7 6.4 9.5 6.4 9.2 Z M 13.1 2.7 L 13.1 3.2 L 10.1 9.7 L 9.4 9.7 L 12.2 3.3 L 8.6 3.3 L 8.6 4.6 L 7.9 4.6 L 7.9 2.7 L 13.1 2.7 Z M 23.1 2.7 L 23.1 9.7 L 22.4 9.7 L 22.4 6.4 L 18 6.4 L 18 9.7 L 17.3 9.7 L 17.3 2.7 L 18 2.7 L 18 5.8 L 22.4 5.8 L 22.4 2.7 L 23.1 2.7 Z M 29.9 4.4 L 29.9 9.7 L 29.2 9.7 C 29.2 9.7 29.21 8.72 29.2 8.7 C 28.8 9.4 28.2 9.7 27.3 9.7 C 26 9.7 25.1 9 25.1 7.5 C 25.1 7.47 25.1 4.4 25.1 4.4 L 25.8 4.4 C 25.8 4.4 25.81 7.4 25.8 7.4 C 25.8 8.5 26.4 9.1 27.4 9.1 C 28.5 9.1 29.2 8.4 29.2 7.2 C 29.18 7.18 29.2 4.4 29.2 4.4 L 29.9 4.4 Z M 40.4 6.6 C 40.43 6.63 40.4 9.7 40.4 9.7 L 39.7 9.7 C 39.7 9.7 39.72 6.7 39.7 6.7 C 39.7 5.6 39.2 5 38.2 5 C 37.1 5 36.4 5.7 36.4 6.9 C 36.45 6.92 36.4 9.7 36.4 9.7 L 35.7 9.7 C 35.7 9.7 35.74 6.7 35.7 6.7 C 35.7 5.6 35.2 5 34.2 5 C 33.2 5 32.5 5.7 32.5 6.9 C 32.46 6.92 32.5 9.7 32.5 9.7 L 31.8 9.7 L 31.8 4.4 L 32.4 4.4 C 32.4 4.4 32.43 5.38 32.4 5.4 C 32.8 4.7 33.5 4.4 34.4 4.4 C 35.2 4.4 35.9 4.7 36.2 5.5 C 36.6 4.8 37.4 4.4 38.3 4.4 C 39.6 4.4 40.4 5.1 40.4 6.6 Z M 46.3 6.4 C 46.26 6.42 46.3 9.7 46.3 9.7 L 45.6 9.7 C 45.6 9.7 45.58 8.86 45.6 8.9 C 45.3 9.4 44.6 9.7 43.8 9.7 C 42.6 9.7 41.9 9.1 41.9 8.2 C 41.9 7.4 42.4 6.7 43.9 6.7 C 43.88 6.71 45.6 6.7 45.6 6.7 C 45.6 6.7 45.55 6.39 45.6 6.4 C 45.6 5.5 45 5 44.1 5 C 43.4 5 42.7 5.2 42.3 5.6 C 42.3 5.6 42 5.1 42 5.1 C 42.5 4.6 43.3 4.4 44.1 4.4 C 45.5 4.4 46.3 5.1 46.3 6.4 Z M 45.6 8.1 C 45.55 8.1 45.6 7.2 45.6 7.2 C 45.6 7.2 43.9 7.24 43.9 7.2 C 42.9 7.2 42.5 7.6 42.5 8.2 C 42.5 8.8 43 9.2 43.9 9.2 C 44.7 9.2 45.3 8.8 45.6 8.1 Z M 52.9 6.6 C 52.91 6.63 52.9 9.7 52.9 9.7 L 52.2 9.7 C 52.2 9.7 52.2 6.7 52.2 6.7 C 52.2 5.6 51.6 5 50.6 5 C 49.5 5 48.8 5.7 48.8 6.9 C 48.78 6.92 48.8 9.7 48.8 9.7 L 48.1 9.7 L 48.1 4.4 L 48.8 4.4 C 48.8 4.4 48.75 5.39 48.8 5.4 C 49.1 4.7 49.8 4.4 50.8 4.4 C 52 4.4 52.9 5.1 52.9 6.6 Z M 58.3 3.8 C 58.27 3.8 58.3 4.4 58.3 4.4 L 59.9 4.4 L 59.9 5 L 58.3 5 L 58.3 9.7 L 57.6 9.7 L 57.6 5 L 56.6 5 L 56.6 4.4 L 57.6 4.4 C 57.6 4.4 57.58 3.77 57.6 3.8 C 57.6 2.8 58.1 2.2 59.2 2.2 C 59.6 2.2 60 2.3 60.2 2.5 C 60.2 2.5 60 3.1 60 3.1 C 59.8 2.9 59.5 2.8 59.2 2.8 C 58.6 2.8 58.3 3.1 58.3 3.8 Z M 65 6.4 C 65.03 6.42 65 9.7 65 9.7 L 64.3 9.7 C 64.3 9.7 64.35 8.86 64.3 8.9 C 64 9.4 63.4 9.7 62.5 9.7 C 61.3 9.7 60.6 9.1 60.6 8.2 C 60.6 7.4 61.1 6.7 62.6 6.7 C 62.65 6.71 64.3 6.7 64.3 6.7 C 64.3 6.7 64.32 6.39 64.3 6.4 C 64.3 5.5 63.8 5 62.8 5 C 62.1 5 61.5 5.2 61.1 5.6 C 61.1 5.6 60.8 5.1 60.8 5.1 C 61.3 4.6 62.1 4.4 62.9 4.4 C 64.3 4.4 65 5.1 65 6.4 Z M 64.3 8.1 C 64.32 8.1 64.3 7.2 64.3 7.2 C 64.3 7.2 62.67 7.24 62.7 7.2 C 61.6 7.2 61.3 7.6 61.3 8.2 C 61.3 8.8 61.8 9.2 62.6 9.2 C 63.4 9.2 64 8.8 64.3 8.1 Z M 66.7 2.8 C 66.7 2.5 66.9 2.3 67.2 2.3 C 67.5 2.3 67.7 2.5 67.7 2.7 C 67.7 3 67.5 3.3 67.2 3.3 C 66.9 3.3 66.7 3 66.7 2.8 Z M 66.8 4.4 L 67.5 4.4 L 67.5 9.7 L 66.8 9.7 L 66.8 4.4 Z M 69.4 2.3 L 70.1 2.3 L 70.1 9.7 L 69.4 9.7 L 69.4 2.3 Z M 76.7 4.4 L 76.7 9.7 L 76 9.7 C 76 9.7 76 8.72 76 8.7 C 75.6 9.4 75 9.7 74.1 9.7 C 72.8 9.7 71.9 9 71.9 7.5 C 71.89 7.47 71.9 4.4 71.9 4.4 L 72.6 4.4 C 72.6 4.4 72.6 7.4 72.6 7.4 C 72.6 8.5 73.2 9.1 74.2 9.1 C 75.3 9.1 76 8.4 76 7.2 C 75.97 7.18 76 4.4 76 4.4 L 76.7 4.4 Z M 81.2 4.4 C 81.2 4.4 81.2 5.1 81.2 5.1 C 81.1 5.1 81.1 5.1 81 5.1 C 79.9 5.1 79.3 5.8 79.3 7 C 79.25 7 79.3 9.7 79.3 9.7 L 78.5 9.7 L 78.5 4.4 L 79.2 4.4 C 79.2 4.4 79.22 5.45 79.2 5.4 C 79.6 4.7 80.2 4.4 81.2 4.4 Z M 86.9 7.3 C 86.9 7.3 82.5 7.3 82.5 7.3 C 82.6 8.4 83.5 9.1 84.6 9.1 C 85.2 9.1 85.8 8.9 86.2 8.4 C 86.2 8.4 86.6 8.9 86.6 8.9 C 86.1 9.4 85.4 9.7 84.6 9.7 C 82.9 9.7 81.8 8.6 81.8 7 C 81.8 5.5 82.9 4.4 84.4 4.4 C 85.9 4.4 86.9 5.5 86.9 7 C 86.9 7.1 86.9 7.2 86.9 7.3 Z M 82.5 6.7 C 82.5 6.7 86.3 6.7 86.3 6.7 C 86.2 5.7 85.4 5 84.4 5 C 83.4 5 82.6 5.7 82.5 6.7 Z M 95 6.4 C 94.99 6.42 95 9.7 95 9.7 L 94.3 9.7 C 94.3 9.7 94.31 8.86 94.3 8.9 C 94 9.4 93.4 9.7 92.5 9.7 C 91.3 9.7 90.6 9.1 90.6 8.2 C 90.6 7.4 91.1 6.7 92.6 6.7 C 92.61 6.71 94.3 6.7 94.3 6.7 C 94.3 6.7 94.28 6.39 94.3 6.4 C 94.3 5.5 93.8 5 92.8 5 C 92.1 5 91.5 5.2 91 5.6 C 91 5.6 90.7 5.1 90.7 5.1 C 91.2 4.6 92 4.4 92.9 4.4 C 94.2 4.4 95 5.1 95 6.4 Z M 94.3 8.1 C 94.28 8.1 94.3 7.2 94.3 7.2 C 94.3 7.2 92.63 7.24 92.6 7.2 C 91.6 7.2 91.3 7.6 91.3 8.2 C 91.3 8.8 91.8 9.2 92.6 9.2 C 93.4 9.2 94 8.8 94.3 8.1 Z M 101.6 6.6 C 101.64 6.63 101.6 9.7 101.6 9.7 L 100.9 9.7 C 100.9 9.7 100.93 6.7 100.9 6.7 C 100.9 5.6 100.4 5 99.4 5 C 98.2 5 97.5 5.7 97.5 6.9 C 97.51 6.92 97.5 9.7 97.5 9.7 L 96.8 9.7 L 96.8 4.4 L 97.5 4.4 C 97.5 4.4 97.48 5.39 97.5 5.4 C 97.9 4.7 98.6 4.4 99.5 4.4 C 100.8 4.4 101.6 5.1 101.6 6.6 Z M 108.4 2.3 L 108.4 9.7 L 107.7 9.7 C 107.7 9.7 107.67 8.64 107.7 8.6 C 107.2 9.3 106.5 9.7 105.6 9.7 C 104.1 9.7 103 8.6 103 7 C 103 5.5 104.1 4.4 105.6 4.4 C 106.5 4.4 107.2 4.7 107.6 5.4 C 107.64 5.42 107.6 2.3 107.6 2.3 L 108.4 2.3 Z M 107.7 7 C 107.7 5.8 106.8 5 105.7 5 C 104.6 5 103.7 5.8 103.7 7 C 103.7 8.3 104.6 9.1 105.7 9.1 C 106.8 9.1 107.7 8.3 107.7 7 Z M 117.8 6.6 C 117.79 6.63 117.8 9.7 117.8 9.7 L 117.1 9.7 C 117.1 9.7 117.08 6.7 117.1 6.7 C 117.1 5.6 116.5 5 115.5 5 C 114.4 5 113.7 5.7 113.7 6.9 C 113.66 6.92 113.7 9.7 113.7 9.7 L 113 9.7 L 113 2.3 L 113.7 2.3 C 113.7 2.3 113.66 5.34 113.7 5.3 C 114.1 4.7 114.7 4.4 115.6 4.4 C 116.9 4.4 117.8 5.1 117.8 6.6 Z M 124.3 4.4 L 124.3 9.7 L 123.6 9.7 C 123.6 9.7 123.64 8.72 123.6 8.7 C 123.3 9.4 122.6 9.7 121.7 9.7 C 120.4 9.7 119.5 9 119.5 7.5 C 119.53 7.47 119.5 4.4 119.5 4.4 L 120.2 4.4 C 120.2 4.4 120.24 7.4 120.2 7.4 C 120.2 8.5 120.8 9.1 121.8 9.1 C 122.9 9.1 123.6 8.4 123.6 7.2 C 123.61 7.18 123.6 4.4 123.6 4.4 L 124.3 4.4 Z M 125.9 9.2 C 125.9 8.9 126.1 8.6 126.4 8.6 C 126.7 8.6 127 8.9 127 9.2 C 127 9.5 126.7 9.7 126.4 9.7 C 126.1 9.7 125.9 9.5 125.9 9.2 Z M 128.1 9.2 C 128.1 8.9 128.3 8.6 128.6 8.6 C 128.9 8.6 129.2 8.9 129.2 9.2 C 129.2 9.5 128.9 9.7 128.6 9.7 C 128.3 9.7 128.1 9.5 128.1 9.2 Z M 130.3 9.2 C 130.3 8.9 130.5 8.6 130.8 8.6 C 131.1 8.6 131.3 8.9 131.3 9.2 C 131.3 9.5 131.1 9.7 130.8 9.7 C 130.5 9.7 130.3 9.5 130.3 9.2 Z " stroke="none" fill="#000"/>
  </g>
</svg>