<?xml version="1.0" standalone="no"?>
<!DOCTYPE svg PUBLIC "-//W3C//DTD SVG 1.1//EN" "http://www.w3.org/Graphics/SVG/1.1/DTD/svg11.dtd">
<svg xmlns="http://www.w3.org/2000/svg" version="1.1" width="445.2px" height="115.5px" viewBox="0 0 445.2 115.5">
  <desc>A period of preparation by out going personnel; Handover where out going and in coming personnel communicate to excha...</desc>
  <defs/>
  <g id="Polygon123270">
    <path d="M 35 92 C 35 92 35 92.7 35 92.7 C 34.9 92.7 34.9 92.7 34.8 92.7 C 33.6 92.7 32.9 93.4 32.9 94.7 C 32.87 94.66 32.9 97.3 32.9 97.3 L 32.1 97.3 L 32.1 92.1 L 32.8 92.1 C 32.8 92.1 32.84 93.11 32.8 93.1 C 33.2 92.4 33.9 92 35 92 Z M 41.3 94.9 C 41.3 94.9 36.5 94.9 36.5 94.9 C 36.6 96 37.5 96.8 38.8 96.8 C 39.5 96.8 40.1 96.5 40.5 96.1 C 40.5 96.1 41 96.5 41 96.5 C 40.5 97.1 39.6 97.4 38.7 97.4 C 36.9 97.4 35.7 96.3 35.7 94.7 C 35.7 93.1 36.9 92 38.5 92 C 40.2 92 41.3 93.1 41.3 94.7 C 41.3 94.8 41.3 94.8 41.3 94.9 Z M 36.5 94.4 C 36.5 94.4 40.6 94.4 40.6 94.4 C 40.5 93.4 39.7 92.6 38.5 92.6 C 37.4 92.6 36.6 93.4 36.5 94.4 Z M 42.2 96.7 C 42.2 96.7 42.6 96.2 42.6 96.2 C 43 96.5 43.8 96.8 44.6 96.8 C 45.7 96.8 46.2 96.4 46.2 95.9 C 46.2 94.5 42.4 95.6 42.4 93.5 C 42.4 92.7 43.2 92 44.7 92 C 45.4 92 46.3 92.2 46.7 92.5 C 46.7 92.5 46.4 93.1 46.4 93.1 C 45.9 92.8 45.3 92.6 44.7 92.6 C 43.7 92.6 43.2 93 43.2 93.5 C 43.2 94.9 46.9 93.9 46.9 95.9 C 46.9 96.8 46.1 97.4 44.6 97.4 C 43.6 97.4 42.7 97.1 42.2 96.7 Z M 54.3 94.7 C 54.3 96.3 53 97.4 51.4 97.4 C 50.4 97.4 49.7 97 49.2 96.4 C 49.17 96.35 49.2 99.3 49.2 99.3 L 48.4 99.3 L 48.4 92.1 L 49.1 92.1 C 49.1 92.1 49.14 93.12 49.1 93.1 C 49.6 92.4 50.4 92 51.4 92 C 53 92 54.3 93.1 54.3 94.7 Z M 53.5 94.7 C 53.5 93.5 52.5 92.7 51.3 92.7 C 50.1 92.7 49.2 93.5 49.2 94.7 C 49.2 95.9 50.1 96.8 51.3 96.8 C 52.5 96.8 53.5 95.9 53.5 94.7 Z M 55.4 94.7 C 55.4 93.1 56.6 92 58.3 92 C 60 92 61.2 93.1 61.2 94.7 C 61.2 96.3 60 97.4 58.3 97.4 C 56.6 97.4 55.4 96.3 55.4 94.7 Z M 60.5 94.7 C 60.5 93.5 59.5 92.7 58.3 92.7 C 57.1 92.7 56.2 93.5 56.2 94.7 C 56.2 95.9 57.1 96.8 58.3 96.8 C 59.5 96.8 60.5 95.9 60.5 94.7 Z M 68.1 94.3 C 68.14 94.29 68.1 97.3 68.1 97.3 L 67.4 97.3 C 67.4 97.3 67.36 94.36 67.4 94.4 C 67.4 93.2 66.7 92.7 65.6 92.7 C 64.4 92.7 63.6 93.4 63.6 94.6 C 63.59 94.58 63.6 97.3 63.6 97.3 L 62.8 97.3 L 62.8 92.1 L 63.6 92.1 C 63.6 92.1 63.56 93.05 63.6 93 C 64 92.4 64.8 92 65.8 92 C 67.2 92 68.1 92.8 68.1 94.3 Z M 69.5 96.7 C 69.5 96.7 69.8 96.2 69.8 96.2 C 70.3 96.5 71.1 96.8 71.9 96.8 C 73 96.8 73.4 96.4 73.4 95.9 C 73.4 94.5 69.7 95.6 69.7 93.5 C 69.7 92.7 70.5 92 72 92 C 72.7 92 73.5 92.2 74 92.5 C 74 92.5 73.7 93.1 73.7 93.1 C 73.2 92.8 72.6 92.6 72 92.6 C 70.9 92.6 70.5 93 70.5 93.5 C 70.5 94.9 74.2 93.9 74.2 95.9 C 74.2 96.8 73.3 97.4 71.8 97.4 C 70.9 97.4 70 97.1 69.5 96.7 Z M 75.5 90.4 C 75.5 90.2 75.7 89.9 76 89.9 C 76.4 89.9 76.6 90.1 76.6 90.4 C 76.6 90.7 76.4 90.9 76 90.9 C 75.7 90.9 75.5 90.7 75.5 90.4 Z M 75.7 92.1 L 76.4 92.1 L 76.4 97.3 L 75.7 97.3 L 75.7 92.1 Z M 84.3 94.7 C 84.3 96.3 83.1 97.4 81.4 97.4 C 80.5 97.4 79.7 97 79.2 96.3 C 79.21 96.3 79.2 97.3 79.2 97.3 L 78.5 97.3 L 78.5 89.9 L 79.2 89.9 C 79.2 89.9 79.24 93.08 79.2 93.1 C 79.7 92.4 80.5 92 81.4 92 C 83.1 92 84.3 93.1 84.3 94.7 Z M 83.5 94.7 C 83.5 93.5 82.6 92.7 81.4 92.7 C 80.2 92.7 79.2 93.5 79.2 94.7 C 79.2 95.9 80.2 96.8 81.4 96.8 C 82.6 96.8 83.5 95.9 83.5 94.7 Z M 85.7 90.4 C 85.7 90.2 86 89.9 86.3 89.9 C 86.6 89.9 86.9 90.1 86.9 90.4 C 86.9 90.7 86.6 90.9 86.3 90.9 C 86 90.9 85.7 90.7 85.7 90.4 Z M 85.9 92.1 L 86.7 92.1 L 86.7 97.3 L 85.9 97.3 L 85.9 92.1 Z M 88.7 89.9 L 89.5 89.9 L 89.5 97.3 L 88.7 97.3 L 88.7 89.9 Z M 91.3 90.4 C 91.3 90.2 91.6 89.9 91.9 89.9 C 92.2 89.9 92.5 90.1 92.5 90.4 C 92.5 90.7 92.2 90.9 91.9 90.9 C 91.6 90.9 91.3 90.7 91.3 90.4 Z M 91.5 92.1 L 92.3 92.1 L 92.3 97.3 L 91.5 97.3 L 91.5 92.1 Z M 97.5 97 C 97.2 97.3 96.7 97.4 96.3 97.4 C 95.2 97.4 94.6 96.8 94.6 95.9 C 94.56 95.86 94.6 92.7 94.6 92.7 L 93.5 92.7 L 93.5 92.1 L 94.6 92.1 L 94.6 90.9 L 95.3 90.9 L 95.3 92.1 L 97.1 92.1 L 97.1 92.7 L 95.3 92.7 C 95.3 92.7 95.34 95.82 95.3 95.8 C 95.3 96.4 95.7 96.8 96.3 96.8 C 96.7 96.8 97 96.7 97.2 96.5 C 97.2 96.5 97.5 97 97.5 97 Z M 104 92.1 C 104 92.1 101.09 97.97 101.1 98 C 100.6 99 100 99.3 99.2 99.3 C 98.6 99.3 98.1 99.2 97.8 98.9 C 97.8 98.9 98.1 98.3 98.1 98.3 C 98.4 98.6 98.8 98.7 99.2 98.7 C 99.7 98.7 100 98.5 100.4 97.8 C 100.38 97.84 100.6 97.3 100.6 97.3 L 98 92.1 L 98.9 92.1 L 101 96.6 L 103.2 92.1 L 104 92.1 Z M 108.9 91.5 C 108.86 91.46 108.9 92.1 108.9 92.1 L 110.6 92.1 L 110.6 92.7 L 108.9 92.7 L 108.9 97.3 L 108.1 97.3 L 108.1 92.7 L 107.1 92.7 L 107.1 92.1 L 108.1 92.1 C 108.1 92.1 108.1 91.43 108.1 91.4 C 108.1 90.5 108.7 89.9 109.8 89.9 C 110.3 89.9 110.7 90 111 90.2 C 111 90.2 110.7 90.7 110.7 90.7 C 110.5 90.6 110.2 90.5 109.9 90.5 C 109.2 90.5 108.9 90.8 108.9 91.5 Z M 111.1 94.7 C 111.1 93.1 112.3 92 114 92 C 115.7 92 117 93.1 117 94.7 C 117 96.3 115.7 97.4 114 97.4 C 112.3 97.4 111.1 96.3 111.1 94.7 Z M 116.2 94.7 C 116.2 93.5 115.3 92.7 114 92.7 C 112.8 92.7 111.9 93.5 111.9 94.7 C 111.9 95.9 112.8 96.8 114 96.8 C 115.3 96.8 116.2 95.9 116.2 94.7 Z M 121.5 92 C 121.5 92 121.5 92.7 121.5 92.7 C 121.4 92.7 121.3 92.7 121.3 92.7 C 120.1 92.7 119.3 93.4 119.3 94.7 C 119.32 94.66 119.3 97.3 119.3 97.3 L 118.5 97.3 L 118.5 92.1 L 119.3 92.1 C 119.3 92.1 119.29 93.11 119.3 93.1 C 119.7 92.4 120.4 92 121.5 92 Z M 128.9 97 C 128.6 97.3 128.1 97.4 127.7 97.4 C 126.6 97.4 126 96.8 126 95.9 C 125.97 95.86 126 92.7 126 92.7 L 124.9 92.7 L 124.9 92.1 L 126 92.1 L 126 90.9 L 126.7 90.9 L 126.7 92.1 L 128.5 92.1 L 128.5 92.7 L 126.7 92.7 C 126.7 92.7 126.75 95.82 126.7 95.8 C 126.7 96.4 127.1 96.8 127.7 96.8 C 128.1 96.8 128.4 96.7 128.6 96.5 C 128.6 96.5 128.9 97 128.9 97 Z M 135.5 94.3 C 135.51 94.29 135.5 97.3 135.5 97.3 L 134.7 97.3 C 134.7 97.3 134.73 94.36 134.7 94.4 C 134.7 93.2 134.1 92.7 133 92.7 C 131.8 92.7 131 93.4 131 94.6 C 130.97 94.58 131 97.3 131 97.3 L 130.2 97.3 L 130.2 89.9 L 131 89.9 C 131 89.9 130.97 93 131 93 C 131.4 92.4 132.2 92 133.1 92 C 134.5 92 135.5 92.8 135.5 94.3 Z M 142.7 94.9 C 142.7 94.9 137.8 94.9 137.8 94.9 C 137.9 96 138.8 96.8 140.1 96.8 C 140.8 96.8 141.4 96.5 141.9 96.1 C 141.9 96.1 142.3 96.5 142.3 96.5 C 141.8 97.1 141 97.4 140.1 97.4 C 138.3 97.4 137 96.3 137 94.7 C 137 93.1 138.2 92 139.9 92 C 141.5 92 142.7 93.1 142.7 94.7 C 142.7 94.8 142.7 94.8 142.7 94.9 Z M 137.8 94.4 C 137.8 94.4 141.9 94.4 141.9 94.4 C 141.8 93.4 141 92.6 139.9 92.6 C 138.7 92.6 137.9 93.4 137.8 94.4 Z M 150.2 97 C 149.9 97.3 149.4 97.4 149 97.4 C 147.9 97.4 147.3 96.8 147.3 95.9 C 147.28 95.86 147.3 92.7 147.3 92.7 L 146.2 92.7 L 146.2 92.1 L 147.3 92.1 L 147.3 90.9 L 148.1 90.9 L 148.1 92.1 L 149.8 92.1 L 149.8 92.7 L 148.1 92.7 C 148.1 92.7 148.06 95.82 148.1 95.8 C 148.1 96.4 148.4 96.8 149.1 96.8 C 149.4 96.8 149.7 96.7 149.9 96.5 C 149.9 96.5 150.2 97 150.2 97 Z M 155.9 94.1 C 155.94 94.08 155.9 97.3 155.9 97.3 L 155.2 97.3 C 155.2 97.3 155.2 96.52 155.2 96.5 C 154.8 97.1 154.2 97.4 153.2 97.4 C 151.9 97.4 151.1 96.8 151.1 95.9 C 151.1 95 151.7 94.4 153.3 94.4 C 153.33 94.37 155.2 94.4 155.2 94.4 C 155.2 94.4 155.16 94.05 155.2 94.1 C 155.2 93.1 154.6 92.7 153.5 92.7 C 152.8 92.7 152.1 92.9 151.6 93.3 C 151.6 93.3 151.2 92.7 151.2 92.7 C 151.8 92.3 152.7 92 153.6 92 C 155.1 92 155.9 92.7 155.9 94.1 Z M 155.2 95.8 C 155.16 95.76 155.2 94.9 155.2 94.9 C 155.2 94.9 153.35 94.9 153.3 94.9 C 152.2 94.9 151.9 95.3 151.9 95.8 C 151.9 96.5 152.4 96.8 153.3 96.8 C 154.2 96.8 154.9 96.5 155.2 95.8 Z M 157.3 96.7 C 157.3 96.7 157.6 96.2 157.6 96.2 C 158.1 96.5 158.9 96.8 159.7 96.8 C 160.8 96.8 161.2 96.4 161.2 95.9 C 161.2 94.5 157.5 95.6 157.5 93.5 C 157.5 92.7 158.3 92 159.8 92 C 160.5 92 161.3 92.2 161.8 92.5 C 161.8 92.5 161.5 93.1 161.5 93.1 C 161 92.8 160.4 92.6 159.8 92.6 C 158.7 92.6 158.3 93 158.3 93.5 C 158.3 94.9 162 93.9 162 95.9 C 162 96.8 161.1 97.4 159.6 97.4 C 158.7 97.4 157.8 97.1 157.3 96.7 Z M 165.6 94.7 L 164.2 95.8 L 164.2 97.3 L 163.5 97.3 L 163.5 89.9 L 164.2 89.9 L 164.2 94.9 L 167.7 92.1 L 168.7 92.1 L 166.2 94.2 L 168.9 97.3 L 167.9 97.3 L 165.6 94.7 Z M 169.8 96.8 C 169.8 96.5 170.1 96.3 170.4 96.3 C 170.7 96.3 171 96.5 171 96.8 C 171 97.1 170.7 97.4 170.4 97.4 C 170.1 97.4 169.8 97.1 169.8 96.8 Z " stroke="none" fill="#323132"/>
  </g>
  <g id="Polygon123269">
    <path d="M 31.6 78.8 C 31.6 76.8 33.3 75.3 35.6 75.3 C 36.7 75.3 37.7 75.6 38.4 76.3 C 38.4 76.3 37.9 76.8 37.9 76.8 C 37.3 76.2 36.5 75.9 35.6 75.9 C 33.8 75.9 32.4 77.2 32.4 78.8 C 32.4 80.5 33.8 81.7 35.6 81.7 C 36.5 81.7 37.3 81.5 37.9 80.9 C 37.9 80.9 38.4 81.4 38.4 81.4 C 37.7 82 36.7 82.4 35.6 82.4 C 33.3 82.4 31.6 80.9 31.6 78.8 Z M 42.8 77 C 42.8 77 42.8 77.7 42.8 77.7 C 42.7 77.7 42.6 77.7 42.6 77.7 C 41.4 77.7 40.6 78.4 40.6 79.7 C 40.63 79.66 40.6 82.3 40.6 82.3 L 39.9 82.3 L 39.9 77.1 L 40.6 77.1 C 40.6 77.1 40.6 78.11 40.6 78.1 C 41 77.4 41.7 77 42.8 77 Z M 43.4 79.7 C 43.4 78.1 44.7 77 46.4 77 C 48.1 77 49.3 78.1 49.3 79.7 C 49.3 81.3 48.1 82.4 46.4 82.4 C 44.7 82.4 43.4 81.3 43.4 79.7 Z M 48.5 79.7 C 48.5 78.5 47.6 77.7 46.4 77.7 C 45.2 77.7 44.2 78.5 44.2 79.7 C 44.2 80.9 45.2 81.8 46.4 81.8 C 47.6 81.8 48.5 80.9 48.5 79.7 Z M 50.2 81.7 C 50.2 81.7 50.6 81.2 50.6 81.2 C 51 81.5 51.8 81.8 52.6 81.8 C 53.7 81.8 54.2 81.4 54.2 80.9 C 54.2 79.5 50.4 80.6 50.4 78.5 C 50.4 77.7 51.2 77 52.7 77 C 53.5 77 54.3 77.2 54.8 77.5 C 54.8 77.5 54.4 78.1 54.4 78.1 C 53.9 77.8 53.3 77.6 52.7 77.6 C 51.7 77.6 51.2 78 51.2 78.5 C 51.2 79.9 55 78.9 55 80.9 C 55 81.8 54.1 82.4 52.6 82.4 C 51.6 82.4 50.7 82.1 50.2 81.7 Z M 55.8 81.7 C 55.8 81.7 56.1 81.2 56.1 81.2 C 56.6 81.5 57.4 81.8 58.2 81.8 C 59.3 81.8 59.7 81.4 59.7 80.9 C 59.7 79.5 56 80.6 56 78.5 C 56 77.7 56.8 77 58.3 77 C 59 77 59.8 77.2 60.3 77.5 C 60.3 77.5 60 78.1 60 78.1 C 59.5 77.8 58.9 77.6 58.3 77.6 C 57.2 77.6 56.8 78 56.8 78.5 C 56.8 79.9 60.5 78.9 60.5 80.9 C 60.5 81.8 59.6 82.4 58.1 82.4 C 57.2 82.4 56.2 82.1 55.8 81.7 Z M 61.6 79.3 L 64.4 79.3 L 64.4 79.9 L 61.6 79.9 L 61.6 79.3 Z M 65.9 79.7 C 65.9 78.1 67.1 77 68.8 77 C 69.8 77 70.7 77.4 71.1 78.1 C 71.1 78.1 70.5 78.4 70.5 78.4 C 70.1 77.9 69.5 77.7 68.8 77.7 C 67.6 77.7 66.7 78.5 66.7 79.7 C 66.7 81 67.6 81.8 68.8 81.8 C 69.5 81.8 70.1 81.5 70.5 81 C 70.5 81 71.1 81.4 71.1 81.4 C 70.7 82 69.8 82.4 68.8 82.4 C 67.1 82.4 65.9 81.3 65.9 79.7 Z M 77.9 79.3 C 77.88 79.29 77.9 82.3 77.9 82.3 L 77.1 82.3 C 77.1 82.3 77.1 79.36 77.1 79.4 C 77.1 78.2 76.5 77.7 75.4 77.7 C 74.1 77.7 73.3 78.4 73.3 79.6 C 73.34 79.58 73.3 82.3 73.3 82.3 L 72.6 82.3 L 72.6 74.9 L 73.3 74.9 C 73.3 74.9 73.34 78 73.3 78 C 73.8 77.4 74.5 77 75.5 77 C 76.9 77 77.9 77.8 77.9 79.3 Z M 85 79.9 C 85 79.9 80.2 79.9 80.2 79.9 C 80.3 81 81.2 81.8 82.5 81.8 C 83.2 81.8 83.8 81.5 84.2 81.1 C 84.2 81.1 84.7 81.5 84.7 81.5 C 84.2 82.1 83.4 82.4 82.4 82.4 C 80.6 82.4 79.4 81.3 79.4 79.7 C 79.4 78.1 80.6 77 82.2 77 C 83.9 77 85 78.1 85 79.7 C 85 79.8 85 79.8 85 79.9 Z M 80.2 79.4 C 80.2 79.4 84.3 79.4 84.3 79.4 C 84.2 78.4 83.4 77.6 82.2 77.6 C 81.1 77.6 80.3 78.4 80.2 79.4 Z M 86.1 79.7 C 86.1 78.1 87.4 77 89.1 77 C 90.1 77 90.9 77.4 91.4 78.1 C 91.4 78.1 90.8 78.4 90.8 78.4 C 90.4 77.9 89.8 77.7 89.1 77.7 C 87.9 77.7 86.9 78.5 86.9 79.7 C 86.9 81 87.9 81.8 89.1 81.8 C 89.8 81.8 90.4 81.5 90.8 81 C 90.8 81 91.4 81.4 91.4 81.4 C 90.9 82 90.1 82.4 89.1 82.4 C 87.4 82.4 86.1 81.3 86.1 79.7 Z M 95 79.7 L 93.6 80.8 L 93.6 82.3 L 92.8 82.3 L 92.8 74.9 L 93.6 74.9 L 93.6 79.9 L 97.1 77.1 L 98 77.1 L 95.6 79.2 L 98.3 82.3 L 97.3 82.3 L 95 79.7 Z M 99.3 75.4 C 99.3 75.2 99.5 74.9 99.9 74.9 C 100.2 74.9 100.4 75.1 100.4 75.4 C 100.4 75.7 100.2 75.9 99.9 75.9 C 99.5 75.9 99.3 75.7 99.3 75.4 Z M 99.5 77.1 L 100.2 77.1 L 100.2 82.3 L 99.5 82.3 L 99.5 77.1 Z M 107.6 79.3 C 107.59 79.29 107.6 82.3 107.6 82.3 L 106.8 82.3 C 106.8 82.3 106.81 79.36 106.8 79.4 C 106.8 78.2 106.2 77.7 105.1 77.7 C 103.8 77.7 103 78.4 103 79.6 C 103.04 79.58 103 82.3 103 82.3 L 102.3 82.3 L 102.3 77.1 L 103 77.1 C 103 77.1 103.01 78.05 103 78 C 103.4 77.4 104.2 77 105.2 77 C 106.6 77 107.6 77.8 107.6 79.3 Z M 115 77.1 C 115 77.1 115.03 81.7 115 81.7 C 115 83.5 114 84.3 112.1 84.3 C 111.1 84.3 110 84 109.4 83.5 C 109.4 83.5 109.8 83 109.8 83 C 110.4 83.4 111.2 83.7 112.1 83.7 C 113.6 83.7 114.2 83.1 114.2 81.8 C 114.2 81.8 114.2 81.1 114.2 81.1 C 113.8 81.8 112.9 82.1 112 82.1 C 110.3 82.1 109.1 81.1 109.1 79.6 C 109.1 78.1 110.3 77 112 77 C 113 77 113.8 77.4 114.3 78.1 C 114.28 78.09 114.3 77.1 114.3 77.1 L 115 77.1 Z M 114.3 79.6 C 114.3 78.4 113.3 77.7 112.1 77.7 C 110.8 77.7 109.9 78.4 109.9 79.6 C 109.9 80.7 110.8 81.5 112.1 81.5 C 113.3 81.5 114.3 80.7 114.3 79.6 Z M 119.5 79.7 C 119.5 78.1 120.8 77 122.5 77 C 124.2 77 125.4 78.1 125.4 79.7 C 125.4 81.3 124.2 82.4 122.5 82.4 C 120.8 82.4 119.5 81.3 119.5 79.7 Z M 124.6 79.7 C 124.6 78.5 123.7 77.7 122.5 77.7 C 121.2 77.7 120.3 78.5 120.3 79.7 C 120.3 80.9 121.2 81.8 122.5 81.8 C 123.7 81.8 124.6 80.9 124.6 79.7 Z M 127.8 76.5 C 127.82 76.46 127.8 77.1 127.8 77.1 L 129.6 77.1 L 129.6 77.7 L 127.8 77.7 L 127.8 82.3 L 127.1 82.3 L 127.1 77.7 L 126 77.7 L 126 77.1 L 127.1 77.1 C 127.1 77.1 127.06 76.43 127.1 76.4 C 127.1 75.5 127.7 74.9 128.8 74.9 C 129.2 74.9 129.7 75 130 75.2 C 130 75.2 129.7 75.7 129.7 75.7 C 129.5 75.6 129.2 75.5 128.8 75.5 C 128.2 75.5 127.8 75.8 127.8 76.5 Z M 133.4 75.4 C 133.4 75.2 133.6 74.9 133.9 74.9 C 134.3 74.9 134.5 75.1 134.5 75.4 C 134.5 75.7 134.3 75.9 133.9 75.9 C 133.6 75.9 133.4 75.7 133.4 75.4 Z M 133.5 77.1 L 134.3 77.1 L 134.3 82.3 L 133.5 82.3 L 133.5 77.1 Z M 141.7 79.3 C 141.67 79.29 141.7 82.3 141.7 82.3 L 140.9 82.3 C 140.9 82.3 140.89 79.36 140.9 79.4 C 140.9 78.2 140.2 77.7 139.1 77.7 C 137.9 77.7 137.1 78.4 137.1 79.6 C 137.12 79.58 137.1 82.3 137.1 82.3 L 136.3 82.3 L 136.3 77.1 L 137.1 77.1 C 137.1 77.1 137.09 78.05 137.1 78 C 137.5 77.4 138.3 77 139.3 77 C 140.7 77 141.7 77.8 141.7 79.3 Z M 144.5 76.5 C 144.53 76.46 144.5 77.1 144.5 77.1 L 146.3 77.1 L 146.3 77.7 L 144.6 77.7 L 144.6 82.3 L 143.8 82.3 L 143.8 77.7 L 142.7 77.7 L 142.7 77.1 L 143.8 77.1 C 143.8 77.1 143.77 76.43 143.8 76.4 C 143.8 75.5 144.4 74.9 145.5 74.9 C 145.9 74.9 146.4 75 146.7 75.2 C 146.7 75.2 146.4 75.7 146.4 75.7 C 146.2 75.6 145.9 75.5 145.6 75.5 C 144.9 75.5 144.5 75.8 144.5 76.5 Z M 146.8 79.7 C 146.8 78.1 148 77 149.7 77 C 151.4 77 152.6 78.1 152.6 79.7 C 152.6 81.3 151.4 82.4 149.7 82.4 C 148 82.4 146.8 81.3 146.8 79.7 Z M 151.9 79.7 C 151.9 78.5 150.9 77.7 149.7 77.7 C 148.5 77.7 147.6 78.5 147.6 79.7 C 147.6 80.9 148.5 81.8 149.7 81.8 C 150.9 81.8 151.9 80.9 151.9 79.7 Z M 157.1 77 C 157.1 77 157.1 77.7 157.1 77.7 C 157.1 77.7 157 77.7 156.9 77.7 C 155.7 77.7 155 78.4 155 79.7 C 155 79.66 155 82.3 155 82.3 L 154.2 82.3 L 154.2 77.1 L 155 77.1 C 155 77.1 154.96 78.11 155 78.1 C 155.3 77.4 156.1 77 157.1 77 Z M 168 79.3 C 168.03 79.29 168 82.3 168 82.3 L 167.2 82.3 C 167.2 82.3 167.25 79.36 167.2 79.4 C 167.2 78.2 166.6 77.7 165.6 77.7 C 164.4 77.7 163.6 78.4 163.6 79.6 C 163.65 79.58 163.6 82.3 163.6 82.3 L 162.9 82.3 C 162.9 82.3 162.87 79.36 162.9 79.4 C 162.9 78.2 162.3 77.7 161.2 77.7 C 160 77.7 159.3 78.4 159.3 79.6 C 159.26 79.58 159.3 82.3 159.3 82.3 L 158.5 82.3 L 158.5 77.1 L 159.2 77.1 C 159.2 77.1 159.23 78.04 159.2 78 C 159.6 77.4 160.4 77 161.3 77 C 162.3 77 163.1 77.4 163.4 78.1 C 163.8 77.5 164.6 77 165.7 77 C 167.1 77 168 77.8 168 79.3 Z M 174.4 79.1 C 174.44 79.08 174.4 82.3 174.4 82.3 L 173.7 82.3 C 173.7 82.3 173.69 81.52 173.7 81.5 C 173.3 82.1 172.7 82.4 171.7 82.4 C 170.4 82.4 169.6 81.8 169.6 80.9 C 169.6 80 170.2 79.4 171.8 79.4 C 171.82 79.37 173.7 79.4 173.7 79.4 C 173.7 79.4 173.66 79.05 173.7 79.1 C 173.7 78.1 173.1 77.7 172 77.7 C 171.3 77.7 170.6 77.9 170.1 78.3 C 170.1 78.3 169.7 77.7 169.7 77.7 C 170.3 77.3 171.2 77 172.1 77 C 173.6 77 174.4 77.7 174.4 79.1 Z M 173.7 80.8 C 173.66 80.76 173.7 79.9 173.7 79.9 C 173.7 79.9 171.84 79.9 171.8 79.9 C 170.7 79.9 170.4 80.3 170.4 80.8 C 170.4 81.5 170.9 81.8 171.8 81.8 C 172.7 81.8 173.4 81.5 173.7 80.8 Z M 179.4 82 C 179.1 82.3 178.7 82.4 178.2 82.4 C 177.1 82.4 176.5 81.8 176.5 80.9 C 176.52 80.86 176.5 77.7 176.5 77.7 L 175.5 77.7 L 175.5 77.1 L 176.5 77.1 L 176.5 75.9 L 177.3 75.9 L 177.3 77.1 L 179.1 77.1 L 179.1 77.7 L 177.3 77.7 C 177.3 77.7 177.3 80.82 177.3 80.8 C 177.3 81.4 177.7 81.8 178.3 81.8 C 178.6 81.8 178.9 81.7 179.2 81.5 C 179.2 81.5 179.4 82 179.4 82 Z M 180.6 75.4 C 180.6 75.2 180.8 74.9 181.1 74.9 C 181.5 74.9 181.7 75.1 181.7 75.4 C 181.7 75.7 181.5 75.9 181.1 75.9 C 180.8 75.9 180.6 75.7 180.6 75.4 Z M 180.7 77.1 L 181.5 77.1 L 181.5 82.3 L 180.7 82.3 L 180.7 77.1 Z M 183.1 79.7 C 183.1 78.1 184.3 77 186 77 C 187.7 77 188.9 78.1 188.9 79.7 C 188.9 81.3 187.7 82.4 186 82.4 C 184.3 82.4 183.1 81.3 183.1 79.7 Z M 188.2 79.7 C 188.2 78.5 187.2 77.7 186 77.7 C 184.8 77.7 183.9 78.5 183.9 79.7 C 183.9 80.9 184.8 81.8 186 81.8 C 187.2 81.8 188.2 80.9 188.2 79.7 Z M 195.8 79.3 C 195.84 79.29 195.8 82.3 195.8 82.3 L 195.1 82.3 C 195.1 82.3 195.06 79.36 195.1 79.4 C 195.1 78.2 194.4 77.7 193.3 77.7 C 192.1 77.7 191.3 78.4 191.3 79.6 C 191.29 79.58 191.3 82.3 191.3 82.3 L 190.5 82.3 L 190.5 77.1 L 191.3 77.1 C 191.3 77.1 191.26 78.05 191.3 78 C 191.7 77.4 192.5 77 193.5 77 C 194.9 77 195.8 77.8 195.8 79.3 Z M 206.7 79.7 C 206.7 81.3 205.5 82.4 203.8 82.4 C 202.9 82.4 202.1 82 201.6 81.3 C 201.59 81.3 201.6 82.3 201.6 82.3 L 200.8 82.3 L 200.8 74.9 L 201.6 74.9 C 201.6 74.9 201.62 78.08 201.6 78.1 C 202.1 77.4 202.9 77 203.8 77 C 205.5 77 206.7 78.1 206.7 79.7 Z M 205.9 79.7 C 205.9 78.5 205 77.7 203.8 77.7 C 202.5 77.7 201.6 78.5 201.6 79.7 C 201.6 80.9 202.5 81.8 203.8 81.8 C 205 81.8 205.9 80.9 205.9 79.7 Z M 213.1 77.1 C 213.1 77.1 210.18 82.97 210.2 83 C 209.7 84 209.1 84.3 208.3 84.3 C 207.7 84.3 207.2 84.2 206.8 83.9 C 206.8 83.9 207.2 83.3 207.2 83.3 C 207.5 83.6 207.8 83.7 208.3 83.7 C 208.8 83.7 209.1 83.5 209.5 82.8 C 209.46 82.84 209.7 82.3 209.7 82.3 L 207.1 77.1 L 207.9 77.1 L 210.1 81.6 L 212.3 77.1 L 213.1 77.1 Z M 216.9 75.4 C 216.9 75.2 217.1 74.9 217.5 74.9 C 217.8 74.9 218 75.1 218 75.4 C 218 75.7 217.8 75.9 217.5 75.9 C 217.1 75.9 216.9 75.7 216.9 75.4 Z M 217.1 77.1 L 217.8 77.1 L 217.8 82.3 L 217.1 82.3 L 217.1 77.1 Z M 225.2 79.3 C 225.19 79.29 225.2 82.3 225.2 82.3 L 224.4 82.3 C 224.4 82.3 224.41 79.36 224.4 79.4 C 224.4 78.2 223.8 77.7 222.7 77.7 C 221.4 77.7 220.6 78.4 220.6 79.6 C 220.64 79.58 220.6 82.3 220.6 82.3 L 219.9 82.3 L 219.9 77.1 L 220.6 77.1 C 220.6 77.1 220.61 78.05 220.6 78 C 221 77.4 221.8 77 222.8 77 C 224.2 77 225.2 77.8 225.2 79.3 Z M 226.9 79.3 L 229.8 79.3 L 229.8 79.9 L 226.9 79.9 L 226.9 79.3 Z M 231.3 79.7 C 231.3 78.1 232.5 77 234.2 77 C 235.2 77 236 77.4 236.5 78.1 C 236.5 78.1 235.9 78.4 235.9 78.4 C 235.5 77.9 234.9 77.7 234.2 77.7 C 233 77.7 232 78.5 232 79.7 C 232 81 233 81.8 234.2 81.8 C 234.9 81.8 235.5 81.5 235.9 81 C 235.9 81 236.5 81.4 236.5 81.4 C 236 82 235.2 82.4 234.2 82.4 C 232.5 82.4 231.3 81.3 231.3 79.7 Z M 237.4 79.7 C 237.4 78.1 238.6 77 240.3 77 C 242 77 243.2 78.1 243.2 79.7 C 243.2 81.3 242 82.4 240.3 82.4 C 238.6 82.4 237.4 81.3 237.4 79.7 Z M 242.5 79.7 C 242.5 78.5 241.5 77.7 240.3 77.7 C 239.1 77.7 238.2 78.5 238.2 79.7 C 238.2 80.9 239.1 81.8 240.3 81.8 C 241.5 81.8 242.5 80.9 242.5 79.7 Z M 254.4 79.3 C 254.37 79.29 254.4 82.3 254.4 82.3 L 253.6 82.3 C 253.6 82.3 253.59 79.36 253.6 79.4 C 253.6 78.2 253 77.7 251.9 77.7 C 250.7 77.7 250 78.4 250 79.6 C 249.99 79.58 250 82.3 250 82.3 L 249.2 82.3 C 249.2 82.3 249.21 79.36 249.2 79.4 C 249.2 78.2 248.6 77.7 247.5 77.7 C 246.4 77.7 245.6 78.4 245.6 79.6 C 245.6 79.58 245.6 82.3 245.6 82.3 L 244.8 82.3 L 244.8 77.1 L 245.6 77.1 C 245.6 77.1 245.57 78.04 245.6 78 C 246 77.4 246.7 77 247.7 77 C 248.6 77 249.4 77.4 249.7 78.1 C 250.2 77.5 251 77 252 77 C 253.4 77 254.4 77.8 254.4 79.3 Z M 256.2 75.4 C 256.2 75.2 256.4 74.9 256.8 74.9 C 257.1 74.9 257.3 75.1 257.3 75.4 C 257.3 75.7 257.1 75.9 256.8 75.9 C 256.4 75.9 256.2 75.7 256.2 75.4 Z M 256.4 77.1 L 257.1 77.1 L 257.1 82.3 L 256.4 82.3 L 256.4 77.1 Z M 264.5 79.3 C 264.49 79.29 264.5 82.3 264.5 82.3 L 263.7 82.3 C 263.7 82.3 263.71 79.36 263.7 79.4 C 263.7 78.2 263.1 77.7 262 77.7 C 260.7 77.7 259.9 78.4 259.9 79.6 C 259.94 79.58 259.9 82.3 259.9 82.3 L 259.2 82.3 L 259.2 77.1 L 259.9 77.1 C 259.9 77.1 259.91 78.05 259.9 78 C 260.3 77.4 261.1 77 262.1 77 C 263.5 77 264.5 77.8 264.5 79.3 Z M 271.9 77.1 C 271.9 77.1 271.93 81.7 271.9 81.7 C 271.9 83.5 271 84.3 269 84.3 C 268 84.3 266.9 84 266.3 83.5 C 266.3 83.5 266.7 83 266.7 83 C 267.3 83.4 268.1 83.7 269 83.7 C 270.5 83.7 271.1 83.1 271.1 81.8 C 271.1 81.8 271.1 81.1 271.1 81.1 C 270.7 81.8 269.8 82.1 268.9 82.1 C 267.2 82.1 266 81.1 266 79.6 C 266 78.1 267.2 77 268.9 77 C 269.9 77 270.7 77.4 271.2 78.1 C 271.18 78.09 271.2 77.1 271.2 77.1 L 271.9 77.1 Z M 271.2 79.6 C 271.2 78.4 270.2 77.7 269 77.7 C 267.7 77.7 266.8 78.4 266.8 79.6 C 266.8 80.7 267.7 81.5 269 81.5 C 270.2 81.5 271.2 80.7 271.2 79.6 Z M 282.9 79.7 C 282.9 81.3 281.6 82.4 280 82.4 C 279.1 82.4 278.3 82 277.8 81.4 C 277.78 81.35 277.8 84.3 277.8 84.3 L 277 84.3 L 277 77.1 L 277.7 77.1 C 277.7 77.1 277.75 78.12 277.7 78.1 C 278.2 77.4 279 77 280 77 C 281.6 77 282.9 78.1 282.9 79.7 Z M 282.1 79.7 C 282.1 78.5 281.1 77.7 279.9 77.7 C 278.7 77.7 277.8 78.5 277.8 79.7 C 277.8 80.9 278.7 81.8 279.9 81.8 C 281.1 81.8 282.1 80.9 282.1 79.7 Z M 289.6 79.9 C 289.6 79.9 284.8 79.9 284.8 79.9 C 284.8 81 285.8 81.8 287 81.8 C 287.7 81.8 288.4 81.5 288.8 81.1 C 288.8 81.1 289.2 81.5 289.2 81.5 C 288.7 82.1 287.9 82.4 287 82.4 C 285.2 82.4 284 81.3 284 79.7 C 284 78.1 285.2 77 286.8 77 C 288.4 77 289.6 78.1 289.6 79.7 C 289.6 79.8 289.6 79.8 289.6 79.9 Z M 284.8 79.4 C 284.8 79.4 288.9 79.4 288.9 79.4 C 288.8 78.4 287.9 77.6 286.8 77.6 C 285.7 77.6 284.8 78.4 284.8 79.4 Z M 294.1 77 C 294.1 77 294.1 77.7 294.1 77.7 C 294 77.7 293.9 77.7 293.9 77.7 C 292.7 77.7 291.9 78.4 291.9 79.7 C 291.93 79.66 291.9 82.3 291.9 82.3 L 291.1 82.3 L 291.1 77.1 L 291.9 77.1 C 291.9 77.1 291.89 78.11 291.9 78.1 C 292.3 77.4 293 77 294.1 77 Z M 294.8 81.7 C 294.8 81.7 295.2 81.2 295.2 81.2 C 295.6 81.5 296.4 81.8 297.2 81.8 C 298.3 81.8 298.8 81.4 298.8 80.9 C 298.8 79.5 295 80.6 295 78.5 C 295 77.7 295.8 77 297.3 77 C 298 77 298.9 77.2 299.3 77.5 C 299.3 77.5 299 78.1 299 78.1 C 298.5 77.8 297.9 77.6 297.3 77.6 C 296.3 77.6 295.8 78 295.8 78.5 C 295.8 79.9 299.5 78.9 299.5 80.9 C 299.5 81.8 298.7 82.4 297.2 82.4 C 296.2 82.4 295.3 82.1 294.8 81.7 Z M 300.5 79.7 C 300.5 78.1 301.8 77 303.5 77 C 305.1 77 306.4 78.1 306.4 79.7 C 306.4 81.3 305.1 82.4 303.5 82.4 C 301.8 82.4 300.5 81.3 300.5 79.7 Z M 305.6 79.7 C 305.6 78.5 304.7 77.7 303.5 77.7 C 302.2 77.7 301.3 78.5 301.3 79.7 C 301.3 80.9 302.2 81.8 303.5 81.8 C 304.7 81.8 305.6 80.9 305.6 79.7 Z M 313.3 79.3 C 313.28 79.29 313.3 82.3 313.3 82.3 L 312.5 82.3 C 312.5 82.3 312.5 79.36 312.5 79.4 C 312.5 78.2 311.9 77.7 310.8 77.7 C 309.5 77.7 308.7 78.4 308.7 79.6 C 308.74 79.58 308.7 82.3 308.7 82.3 L 308 82.3 L 308 77.1 L 308.7 77.1 C 308.7 77.1 308.71 78.05 308.7 78 C 309.1 77.4 309.9 77 310.9 77 C 312.3 77 313.3 77.8 313.3 79.3 Z M 320.6 79.3 C 320.6 79.29 320.6 82.3 320.6 82.3 L 319.8 82.3 C 319.8 82.3 319.82 79.36 319.8 79.4 C 319.8 78.2 319.2 77.7 318.1 77.7 C 316.8 77.7 316.1 78.4 316.1 79.6 C 316.06 79.58 316.1 82.3 316.1 82.3 L 315.3 82.3 L 315.3 77.1 L 316 77.1 C 316 77.1 316.03 78.05 316 78 C 316.4 77.4 317.2 77 318.2 77 C 319.6 77 320.6 77.8 320.6 79.3 Z M 327.7 79.9 C 327.7 79.9 322.9 79.9 322.9 79.9 C 323 81 323.9 81.8 325.2 81.8 C 325.9 81.8 326.5 81.5 327 81.1 C 327 81.1 327.4 81.5 327.4 81.5 C 326.9 82.1 326.1 82.4 325.2 82.4 C 323.4 82.4 322.1 81.3 322.1 79.7 C 322.1 78.1 323.3 77 325 77 C 326.6 77 327.8 78.1 327.8 79.7 C 327.8 79.8 327.7 79.8 327.7 79.9 Z M 322.9 79.4 C 322.9 79.4 327 79.4 327 79.4 C 326.9 78.4 326.1 77.6 325 77.6 C 323.8 77.6 323 78.4 322.9 79.4 Z M 329.3 74.9 L 330.1 74.9 L 330.1 82.3 L 329.3 82.3 L 329.3 74.9 Z M 339.5 79.1 C 339.52 79.08 339.5 82.3 339.5 82.3 L 338.8 82.3 C 338.8 82.3 338.77 81.52 338.8 81.5 C 338.4 82.1 337.7 82.4 336.8 82.4 C 335.5 82.4 334.7 81.8 334.7 80.9 C 334.7 80 335.2 79.4 336.9 79.4 C 336.9 79.37 338.7 79.4 338.7 79.4 C 338.7 79.4 338.74 79.05 338.7 79.1 C 338.7 78.1 338.2 77.7 337.1 77.7 C 336.4 77.7 335.6 77.9 335.2 78.3 C 335.2 78.3 334.8 77.7 334.8 77.7 C 335.4 77.3 336.3 77 337.2 77 C 338.7 77 339.5 77.7 339.5 79.1 Z M 338.7 80.8 C 338.74 80.76 338.7 79.9 338.7 79.9 C 338.7 79.9 336.93 79.9 336.9 79.9 C 335.8 79.9 335.4 80.3 335.4 80.8 C 335.4 81.5 336 81.8 336.9 81.8 C 337.8 81.8 338.4 81.5 338.7 80.8 Z M 340.9 81.7 C 340.9 81.7 341.2 81.2 341.2 81.2 C 341.7 81.5 342.5 81.8 343.3 81.8 C 344.4 81.8 344.8 81.4 344.8 80.9 C 344.8 79.5 341.1 80.6 341.1 78.5 C 341.1 77.7 341.9 77 343.4 77 C 344.1 77 344.9 77.2 345.4 77.5 C 345.4 77.5 345.1 78.1 345.1 78.1 C 344.6 77.8 344 77.6 343.4 77.6 C 342.3 77.6 341.8 78 341.8 78.5 C 341.8 79.9 345.6 78.9 345.6 80.9 C 345.6 81.8 344.7 82.4 343.2 82.4 C 342.3 82.4 341.3 82.1 340.9 81.7 Z M 353 82 C 352.7 82.3 352.2 82.4 351.7 82.4 C 350.7 82.4 350.1 81.8 350.1 80.9 C 350.06 80.86 350.1 77.7 350.1 77.7 L 349 77.7 L 349 77.1 L 350.1 77.1 L 350.1 75.9 L 350.8 75.9 L 350.8 77.1 L 352.6 77.1 L 352.6 77.7 L 350.8 77.7 C 350.8 77.7 350.83 80.82 350.8 80.8 C 350.8 81.4 351.2 81.8 351.8 81.8 C 352.2 81.8 352.5 81.7 352.7 81.5 C 352.7 81.5 353 82 353 82 Z M 359.6 79.3 C 359.6 79.29 359.6 82.3 359.6 82.3 L 358.8 82.3 C 358.8 82.3 358.82 79.36 358.8 79.4 C 358.8 78.2 358.2 77.7 357.1 77.7 C 355.8 77.7 355.1 78.4 355.1 79.6 C 355.06 79.58 355.1 82.3 355.1 82.3 L 354.3 82.3 L 354.3 74.9 L 355.1 74.9 C 355.1 74.9 355.06 78 355.1 78 C 355.5 77.4 356.2 77 357.2 77 C 358.6 77 359.6 77.8 359.6 79.3 Z M 366.7 79.9 C 366.7 79.9 361.9 79.9 361.9 79.9 C 362 81 362.9 81.8 364.2 81.8 C 364.9 81.8 365.5 81.5 366 81.1 C 366 81.1 366.4 81.5 366.4 81.5 C 365.9 82.1 365.1 82.4 364.2 82.4 C 362.4 82.4 361.1 81.3 361.1 79.7 C 361.1 78.1 362.3 77 363.9 77 C 365.6 77 366.8 78.1 366.8 79.7 C 366.8 79.8 366.7 79.8 366.7 79.9 Z M 361.9 79.4 C 361.9 79.4 366 79.4 366 79.4 C 365.9 78.4 365.1 77.6 363.9 77.6 C 362.8 77.6 362 78.4 361.9 79.4 Z M 373.1 77.1 C 373.1 77.1 370.23 82.97 370.2 83 C 369.7 84 369.1 84.3 368.3 84.3 C 367.8 84.3 367.3 84.2 366.9 83.9 C 366.9 83.9 367.3 83.3 367.3 83.3 C 367.5 83.6 367.9 83.7 368.3 83.7 C 368.8 83.7 369.2 83.5 369.5 82.8 C 369.52 82.84 369.8 82.3 369.8 82.3 L 367.2 77.1 L 368 77.1 L 370.2 81.6 L 372.4 77.1 L 373.1 77.1 Z M 381.5 79.1 C 381.47 79.08 381.5 82.3 381.5 82.3 L 380.7 82.3 C 380.7 82.3 380.73 81.52 380.7 81.5 C 380.4 82.1 379.7 82.4 378.7 82.4 C 377.4 82.4 376.6 81.8 376.6 80.9 C 376.6 80 377.2 79.4 378.9 79.4 C 378.86 79.37 380.7 79.4 380.7 79.4 C 380.7 79.4 380.69 79.05 380.7 79.1 C 380.7 78.1 380.1 77.7 379.1 77.7 C 378.3 77.7 377.6 77.9 377.1 78.3 C 377.1 78.3 376.8 77.7 376.8 77.7 C 377.4 77.3 378.2 77 379.1 77 C 380.6 77 381.5 77.7 381.5 79.1 Z M 380.7 80.8 C 380.69 80.76 380.7 79.9 380.7 79.9 C 380.7 79.9 378.88 79.9 378.9 79.9 C 377.8 79.9 377.4 80.3 377.4 80.8 C 377.4 81.5 377.9 81.8 378.9 81.8 C 379.7 81.8 380.4 81.5 380.7 80.8 Z M 382.8 81.7 C 382.8 81.7 383.2 81.2 383.2 81.2 C 383.6 81.5 384.4 81.8 385.2 81.8 C 386.3 81.8 386.8 81.4 386.8 80.9 C 386.8 79.5 383 80.6 383 78.5 C 383 77.7 383.8 77 385.3 77 C 386.1 77 386.9 77.2 387.4 77.5 C 387.4 77.5 387 78.1 387 78.1 C 386.5 77.8 385.9 77.6 385.3 77.6 C 384.3 77.6 383.8 78 383.8 78.5 C 383.8 79.9 387.6 78.9 387.6 80.9 C 387.6 81.8 386.7 82.4 385.2 82.4 C 384.2 82.4 383.3 82.1 382.8 81.7 Z M 388.4 81.7 C 388.4 81.7 388.7 81.2 388.7 81.2 C 389.2 81.5 390 81.8 390.8 81.8 C 391.9 81.8 392.3 81.4 392.3 80.9 C 392.3 79.5 388.6 80.6 388.6 78.5 C 388.6 77.7 389.4 77 390.9 77 C 391.6 77 392.4 77.2 392.9 77.5 C 392.9 77.5 392.6 78.1 392.6 78.1 C 392.1 77.8 391.5 77.6 390.9 77.6 C 389.8 77.6 389.4 78 389.4 78.5 C 389.4 79.9 393.1 78.9 393.1 80.9 C 393.1 81.8 392.2 82.4 390.7 82.4 C 389.8 82.4 388.8 82.1 388.4 81.7 Z M 399.7 77.1 L 399.7 82.3 L 399 82.3 C 399 82.3 398.98 81.38 399 81.4 C 398.6 82 397.8 82.4 396.9 82.4 C 395.4 82.4 394.5 81.6 394.5 80.1 C 394.46 80.13 394.5 77.1 394.5 77.1 L 395.2 77.1 C 395.2 77.1 395.24 80.06 395.2 80.1 C 395.2 81.2 395.9 81.8 397 81.8 C 398.2 81.8 398.9 81 398.9 79.8 C 398.95 79.84 398.9 77.1 398.9 77.1 L 399.7 77.1 Z M 411.3 79.3 C 411.32 79.29 411.3 82.3 411.3 82.3 L 410.5 82.3 C 410.5 82.3 410.54 79.36 410.5 79.4 C 410.5 78.2 409.9 77.7 408.9 77.7 C 407.7 77.7 406.9 78.4 406.9 79.6 C 406.94 79.58 406.9 82.3 406.9 82.3 L 406.2 82.3 C 406.2 82.3 406.16 79.36 406.2 79.4 C 406.2 78.2 405.5 77.7 404.5 77.7 C 403.3 77.7 402.6 78.4 402.6 79.6 C 402.55 79.58 402.6 82.3 402.6 82.3 L 401.8 82.3 L 401.8 77.1 L 402.5 77.1 C 402.5 77.1 402.52 78.04 402.5 78 C 402.9 77.4 403.7 77 404.6 77 C 405.6 77 406.4 77.4 406.7 78.1 C 407.1 77.5 407.9 77 409 77 C 410.4 77 411.3 77.8 411.3 79.3 Z M 418.5 79.9 C 418.5 79.9 413.6 79.9 413.6 79.9 C 413.7 81 414.6 81.8 415.9 81.8 C 416.6 81.8 417.2 81.5 417.7 81.1 C 417.7 81.1 418.1 81.5 418.1 81.5 C 417.6 82.1 416.8 82.4 415.9 82.4 C 414.1 82.4 412.9 81.3 412.9 79.7 C 412.9 78.1 414.1 77 415.7 77 C 417.3 77 418.5 78.1 418.5 79.7 C 418.5 79.8 418.5 79.8 418.5 79.9 Z M 413.6 79.4 C 413.6 79.4 417.7 79.4 417.7 79.4 C 417.6 78.4 416.8 77.6 415.7 77.6 C 414.6 77.6 413.7 78.4 413.6 79.4 Z " stroke="none" fill="#323132"/>
  </g>
  <g id="Polygon123268">
    <path d="M 21 79.7 L 16.3 81.8 L 16.3 77.6 L 21 79.7 Z " stroke="none" fill="#a243ff"/>
  </g>
  <g id="Polygon123267">
    <path d="M 37.1 58.9 C 37.1 58.9 32.3 58.9 32.3 58.9 C 32.4 60 33.3 60.8 34.6 60.8 C 35.3 60.8 35.9 60.5 36.3 60.1 C 36.3 60.1 36.8 60.5 36.8 60.5 C 36.3 61.1 35.5 61.4 34.5 61.4 C 32.7 61.4 31.5 60.3 31.5 58.7 C 31.5 57.1 32.7 56 34.3 56 C 36 56 37.1 57.1 37.1 58.7 C 37.1 58.8 37.1 58.8 37.1 58.9 Z M 32.3 58.4 C 32.3 58.4 36.4 58.4 36.4 58.4 C 36.3 57.4 35.5 56.6 34.3 56.6 C 33.2 56.6 32.4 57.4 32.3 58.4 Z M 42.2 61.3 L 40.4 59.1 L 38.5 61.3 L 37.7 61.3 L 39.9 58.6 L 37.8 56.1 L 38.7 56.1 L 40.4 58.1 L 42.1 56.1 L 43 56.1 L 40.8 58.6 L 43.1 61.3 L 42.2 61.3 Z M 43.6 58.7 C 43.6 57.1 44.9 56 46.6 56 C 47.6 56 48.4 56.4 48.9 57.1 C 48.9 57.1 48.3 57.4 48.3 57.4 C 47.9 56.9 47.3 56.7 46.6 56.7 C 45.3 56.7 44.4 57.5 44.4 58.7 C 44.4 60 45.3 60.8 46.6 60.8 C 47.3 60.8 47.9 60.5 48.3 60 C 48.3 60 48.9 60.4 48.9 60.4 C 48.4 61 47.6 61.4 46.6 61.4 C 44.9 61.4 43.6 60.3 43.6 58.7 Z M 55.6 58.3 C 55.64 58.29 55.6 61.3 55.6 61.3 L 54.9 61.3 C 54.9 61.3 54.86 58.36 54.9 58.4 C 54.9 57.2 54.2 56.7 53.1 56.7 C 51.9 56.7 51.1 57.4 51.1 58.6 C 51.1 58.58 51.1 61.3 51.1 61.3 L 50.3 61.3 L 50.3 53.9 L 51.1 53.9 C 51.1 53.9 51.1 57 51.1 57 C 51.5 56.4 52.3 56 53.3 56 C 54.7 56 55.6 56.8 55.6 58.3 Z M 62 58.1 C 62.05 58.08 62 61.3 62 61.3 L 61.3 61.3 C 61.3 61.3 61.3 60.52 61.3 60.5 C 60.9 61.1 60.3 61.4 59.3 61.4 C 58 61.4 57.2 60.8 57.2 59.9 C 57.2 59 57.8 58.4 59.4 58.4 C 59.43 58.37 61.3 58.4 61.3 58.4 C 61.3 58.4 61.27 58.05 61.3 58.1 C 61.3 57.1 60.7 56.7 59.6 56.7 C 58.9 56.7 58.2 56.9 57.7 57.3 C 57.7 57.3 57.3 56.7 57.3 56.7 C 57.9 56.3 58.8 56 59.7 56 C 61.2 56 62 56.7 62 58.1 Z M 61.3 59.8 C 61.27 59.76 61.3 58.9 61.3 58.9 C 61.3 58.9 59.45 58.9 59.4 58.9 C 58.3 58.9 58 59.3 58 59.8 C 58 60.5 58.5 60.8 59.4 60.8 C 60.3 60.8 61 60.5 61.3 59.8 Z M 69.4 58.3 C 69.36 58.29 69.4 61.3 69.4 61.3 L 68.6 61.3 C 68.6 61.3 68.59 58.36 68.6 58.4 C 68.6 57.2 67.9 56.7 66.8 56.7 C 65.6 56.7 64.8 57.4 64.8 58.6 C 64.82 58.58 64.8 61.3 64.8 61.3 L 64 61.3 L 64 56.1 L 64.8 56.1 C 64.8 56.1 64.79 57.05 64.8 57 C 65.2 56.4 66 56 67 56 C 68.4 56 69.4 56.8 69.4 58.3 Z M 76.8 56.1 C 76.8 56.1 76.8 60.7 76.8 60.7 C 76.8 62.5 75.8 63.3 73.9 63.3 C 72.9 63.3 71.8 63 71.2 62.5 C 71.2 62.5 71.6 62 71.6 62 C 72.2 62.4 73 62.7 73.9 62.7 C 75.4 62.7 76 62.1 76 60.8 C 76 60.8 76 60.1 76 60.1 C 75.5 60.8 74.7 61.1 73.8 61.1 C 72.1 61.1 70.9 60.1 70.9 58.6 C 70.9 57.1 72.1 56 73.8 56 C 74.7 56 75.6 56.4 76.1 57.1 C 76.06 57.09 76.1 56.1 76.1 56.1 L 76.8 56.1 Z M 76 58.6 C 76 57.4 75.1 56.7 73.8 56.7 C 72.6 56.7 71.7 57.4 71.7 58.6 C 71.7 59.7 72.6 60.5 73.8 60.5 C 75.1 60.5 76 59.7 76 58.6 Z M 84 58.9 C 84 58.9 79.2 58.9 79.2 58.9 C 79.3 60 80.2 60.8 81.5 60.8 C 82.2 60.8 82.8 60.5 83.2 60.1 C 83.2 60.1 83.7 60.5 83.7 60.5 C 83.2 61.1 82.3 61.4 81.4 61.4 C 79.6 61.4 78.4 60.3 78.4 58.7 C 78.4 57.1 79.6 56 81.2 56 C 82.9 56 84 57.1 84 58.7 C 84 58.8 84 58.8 84 58.9 Z M 79.2 58.4 C 79.2 58.4 83.3 58.4 83.3 58.4 C 83.2 57.4 82.4 56.6 81.2 56.6 C 80.1 56.6 79.3 57.4 79.2 58.4 Z M 91.6 61 C 91.2 61.3 90.8 61.4 90.3 61.4 C 89.2 61.4 88.6 60.8 88.6 59.9 C 88.64 59.86 88.6 56.7 88.6 56.7 L 87.6 56.7 L 87.6 56.1 L 88.6 56.1 L 88.6 54.9 L 89.4 54.9 L 89.4 56.1 L 91.2 56.1 L 91.2 56.7 L 89.4 56.7 C 89.4 56.7 89.42 59.82 89.4 59.8 C 89.4 60.4 89.8 60.8 90.4 60.8 C 90.7 60.8 91.1 60.7 91.3 60.5 C 91.3 60.5 91.6 61 91.6 61 Z M 97.3 58.1 C 97.31 58.08 97.3 61.3 97.3 61.3 L 96.6 61.3 C 96.6 61.3 96.56 60.52 96.6 60.5 C 96.2 61.1 95.5 61.4 94.6 61.4 C 93.3 61.4 92.5 60.8 92.5 59.9 C 92.5 59 93 58.4 94.7 58.4 C 94.69 58.37 96.5 58.4 96.5 58.4 C 96.5 58.4 96.53 58.05 96.5 58.1 C 96.5 57.1 96 56.7 94.9 56.7 C 94.1 56.7 93.4 56.9 93 57.3 C 93 57.3 92.6 56.7 92.6 56.7 C 93.2 56.3 94.1 56 95 56 C 96.5 56 97.3 56.7 97.3 58.1 Z M 96.5 59.8 C 96.53 59.76 96.5 58.9 96.5 58.9 C 96.5 58.9 94.71 58.9 94.7 58.9 C 93.6 58.9 93.2 59.3 93.2 59.8 C 93.2 60.5 93.8 60.8 94.7 60.8 C 95.6 60.8 96.2 60.5 96.5 59.8 Z M 98.6 60.7 C 98.6 60.7 99 60.2 99 60.2 C 99.5 60.5 100.2 60.8 101.1 60.8 C 102.2 60.8 102.6 60.4 102.6 59.9 C 102.6 58.5 98.9 59.6 98.9 57.5 C 98.9 56.7 99.7 56 101.1 56 C 101.9 56 102.7 56.2 103.2 56.5 C 103.2 56.5 102.8 57.1 102.8 57.1 C 102.3 56.8 101.7 56.6 101.1 56.6 C 100.1 56.6 99.6 57 99.6 57.5 C 99.6 58.9 103.4 57.9 103.4 59.9 C 103.4 60.8 102.5 61.4 101 61.4 C 100 61.4 99.1 61.1 98.6 60.7 Z M 107 58.7 L 105.6 59.8 L 105.6 61.3 L 104.8 61.3 L 104.8 53.9 L 105.6 53.9 L 105.6 58.9 L 109.1 56.1 L 110 56.1 L 107.6 58.2 L 110.3 61.3 L 109.3 61.3 L 107 58.7 Z M 110.6 58.3 L 113.5 58.3 L 113.5 58.9 L 110.6 58.9 L 110.6 58.3 Z M 118.2 56 C 118.2 56 118.2 56.7 118.2 56.7 C 118.1 56.7 118.1 56.7 118 56.7 C 116.8 56.7 116.1 57.4 116.1 58.7 C 116.05 58.66 116.1 61.3 116.1 61.3 L 115.3 61.3 L 115.3 56.1 L 116 56.1 C 116 56.1 116.02 57.11 116 57.1 C 116.4 56.4 117.1 56 118.2 56 Z M 124.5 58.9 C 124.5 58.9 119.7 58.9 119.7 58.9 C 119.8 60 120.7 60.8 121.9 60.8 C 122.6 60.8 123.3 60.5 123.7 60.1 C 123.7 60.1 124.2 60.5 124.2 60.5 C 123.6 61.1 122.8 61.4 121.9 61.4 C 120.1 61.4 118.9 60.3 118.9 58.7 C 118.9 57.1 120.1 56 121.7 56 C 123.3 56 124.5 57.1 124.5 58.7 C 124.5 58.8 124.5 58.8 124.5 58.9 Z M 119.7 58.4 C 119.7 58.4 123.8 58.4 123.8 58.4 C 123.7 57.4 122.8 56.6 121.7 56.6 C 120.6 56.6 119.8 57.4 119.7 58.4 Z M 126.1 53.9 L 126.9 53.9 L 126.9 61.3 L 126.1 61.3 L 126.1 53.9 Z M 134 58.9 C 134 58.9 129.2 58.9 129.2 58.9 C 129.3 60 130.2 60.8 131.5 60.8 C 132.2 60.8 132.8 60.5 133.2 60.1 C 133.2 60.1 133.7 60.5 133.7 60.5 C 133.2 61.1 132.4 61.4 131.5 61.4 C 129.7 61.4 128.4 60.3 128.4 58.7 C 128.4 57.1 129.6 56 131.2 56 C 132.9 56 134.1 57.1 134.1 58.7 C 134.1 58.8 134 58.8 134 58.9 Z M 129.2 58.4 C 129.2 58.4 133.3 58.4 133.3 58.4 C 133.2 57.4 132.4 56.6 131.2 56.6 C 130.1 56.6 129.3 57.4 129.2 58.4 Z M 140.4 56.1 L 137.8 61.3 L 137 61.3 L 134.5 56.1 L 135.3 56.1 L 137.5 60.6 L 139.7 56.1 L 140.4 56.1 Z M 146 58.1 C 145.98 58.08 146 61.3 146 61.3 L 145.2 61.3 C 145.2 61.3 145.23 60.52 145.2 60.5 C 144.9 61.1 144.2 61.4 143.2 61.4 C 141.9 61.4 141.1 60.8 141.1 59.9 C 141.1 59 141.7 58.4 143.4 58.4 C 143.36 58.37 145.2 58.4 145.2 58.4 C 145.2 58.4 145.2 58.05 145.2 58.1 C 145.2 57.1 144.6 56.7 143.6 56.7 C 142.8 56.7 142.1 56.9 141.6 57.3 C 141.6 57.3 141.3 56.7 141.3 56.7 C 141.9 56.3 142.7 56 143.6 56 C 145.1 56 146 56.7 146 58.1 Z M 145.2 59.8 C 145.2 59.76 145.2 58.9 145.2 58.9 C 145.2 58.9 143.38 58.9 143.4 58.9 C 142.3 58.9 141.9 59.3 141.9 59.8 C 141.9 60.5 142.4 60.8 143.4 60.8 C 144.2 60.8 144.9 60.5 145.2 59.8 Z M 153.3 58.3 C 153.3 58.29 153.3 61.3 153.3 61.3 L 152.5 61.3 C 152.5 61.3 152.52 58.36 152.5 58.4 C 152.5 57.2 151.9 56.7 150.8 56.7 C 149.5 56.7 148.8 57.4 148.8 58.6 C 148.76 58.58 148.8 61.3 148.8 61.3 L 148 61.3 L 148 56.1 L 148.7 56.1 C 148.7 56.1 148.72 57.05 148.7 57 C 149.1 56.4 149.9 56 150.9 56 C 152.3 56 153.3 56.8 153.3 58.3 Z M 158.3 61 C 158 61.3 157.5 61.4 157.1 61.4 C 156 61.4 155.4 60.8 155.4 59.9 C 155.37 59.86 155.4 56.7 155.4 56.7 L 154.3 56.7 L 154.3 56.1 L 155.4 56.1 L 155.4 54.9 L 156.1 54.9 L 156.1 56.1 L 157.9 56.1 L 157.9 56.7 L 156.1 56.7 C 156.1 56.7 156.15 59.82 156.1 59.8 C 156.1 60.4 156.5 60.8 157.2 60.8 C 157.5 60.8 157.8 60.7 158 60.5 C 158 60.5 158.3 61 158.3 61 Z M 162.4 54.4 C 162.4 54.2 162.7 53.9 163 53.9 C 163.3 53.9 163.6 54.1 163.6 54.4 C 163.6 54.7 163.3 54.9 163 54.9 C 162.7 54.9 162.4 54.7 162.4 54.4 Z M 162.6 56.1 L 163.4 56.1 L 163.4 61.3 L 162.6 61.3 L 162.6 56.1 Z M 170.7 58.3 C 170.72 58.29 170.7 61.3 170.7 61.3 L 169.9 61.3 C 169.9 61.3 169.94 58.36 169.9 58.4 C 169.9 57.2 169.3 56.7 168.2 56.7 C 167 56.7 166.2 57.4 166.2 58.6 C 166.17 58.58 166.2 61.3 166.2 61.3 L 165.4 61.3 L 165.4 56.1 L 166.1 56.1 C 166.1 56.1 166.14 57.05 166.1 57 C 166.6 56.4 167.3 56 168.3 56 C 169.7 56 170.7 56.8 170.7 58.3 Z M 173.6 55.5 C 173.58 55.46 173.6 56.1 173.6 56.1 L 175.4 56.1 L 175.4 56.7 L 173.6 56.7 L 173.6 61.3 L 172.8 61.3 L 172.8 56.7 L 171.8 56.7 L 171.8 56.1 L 172.8 56.1 C 172.8 56.1 172.82 55.43 172.8 55.4 C 172.8 54.5 173.4 53.9 174.6 53.9 C 175 53.9 175.4 54 175.7 54.2 C 175.7 54.2 175.5 54.7 175.5 54.7 C 175.2 54.6 174.9 54.5 174.6 54.5 C 173.9 54.5 173.6 54.8 173.6 55.5 Z M 175.8 58.7 C 175.8 57.1 177.1 56 178.8 56 C 180.5 56 181.7 57.1 181.7 58.7 C 181.7 60.3 180.5 61.4 178.8 61.4 C 177.1 61.4 175.8 60.3 175.8 58.7 Z M 180.9 58.7 C 180.9 57.5 180 56.7 178.8 56.7 C 177.5 56.7 176.6 57.5 176.6 58.7 C 176.6 59.9 177.5 60.8 178.8 60.8 C 180 60.8 180.9 59.9 180.9 58.7 Z M 186.2 56 C 186.2 56 186.2 56.7 186.2 56.7 C 186.1 56.7 186 56.7 186 56.7 C 184.8 56.7 184 57.4 184 58.7 C 184.05 58.66 184 61.3 184 61.3 L 183.3 61.3 L 183.3 56.1 L 184 56.1 C 184 56.1 184.01 57.11 184 57.1 C 184.4 56.4 185.1 56 186.2 56 Z M 197.1 58.3 C 197.07 58.29 197.1 61.3 197.1 61.3 L 196.3 61.3 C 196.3 61.3 196.29 58.36 196.3 58.4 C 196.3 57.2 195.7 56.7 194.6 56.7 C 193.4 56.7 192.7 57.4 192.7 58.6 C 192.7 58.58 192.7 61.3 192.7 61.3 L 191.9 61.3 C 191.9 61.3 191.92 58.36 191.9 58.4 C 191.9 57.2 191.3 56.7 190.2 56.7 C 189.1 56.7 188.3 57.4 188.3 58.6 C 188.31 58.58 188.3 61.3 188.3 61.3 L 187.5 61.3 L 187.5 56.1 L 188.3 56.1 C 188.3 56.1 188.27 57.04 188.3 57 C 188.7 56.4 189.4 56 190.4 56 C 191.4 56 192.1 56.4 192.5 57.1 C 192.9 56.5 193.7 56 194.7 56 C 196.2 56 197.1 56.8 197.1 58.3 Z M 203.5 58.1 C 203.49 58.08 203.5 61.3 203.5 61.3 L 202.7 61.3 C 202.7 61.3 202.74 60.52 202.7 60.5 C 202.4 61.1 201.7 61.4 200.7 61.4 C 199.4 61.4 198.6 60.8 198.6 59.9 C 198.6 59 199.2 58.4 200.9 58.4 C 200.87 58.37 202.7 58.4 202.7 58.4 C 202.7 58.4 202.71 58.05 202.7 58.1 C 202.7 57.1 202.1 56.7 201.1 56.7 C 200.3 56.7 199.6 56.9 199.1 57.3 C 199.1 57.3 198.8 56.7 198.8 56.7 C 199.4 56.3 200.2 56 201.1 56 C 202.6 56 203.5 56.7 203.5 58.1 Z M 202.7 59.8 C 202.71 59.76 202.7 58.9 202.7 58.9 C 202.7 58.9 200.89 58.9 200.9 58.9 C 199.8 58.9 199.4 59.3 199.4 59.8 C 199.4 60.5 199.9 60.8 200.9 60.8 C 201.7 60.8 202.4 60.5 202.7 59.8 Z M 208.5 61 C 208.2 61.3 207.7 61.4 207.3 61.4 C 206.2 61.4 205.6 60.8 205.6 59.9 C 205.57 59.86 205.6 56.7 205.6 56.7 L 204.5 56.7 L 204.5 56.1 L 205.6 56.1 L 205.6 54.9 L 206.4 54.9 L 206.4 56.1 L 208.1 56.1 L 208.1 56.7 L 206.4 56.7 C 206.4 56.7 206.35 59.82 206.4 59.8 C 206.4 60.4 206.7 60.8 207.4 60.8 C 207.7 60.8 208 60.7 208.2 60.5 C 208.2 60.5 208.5 61 208.5 61 Z M 209.6 54.4 C 209.6 54.2 209.9 53.9 210.2 53.9 C 210.5 53.9 210.8 54.1 210.8 54.4 C 210.8 54.7 210.5 54.9 210.2 54.9 C 209.9 54.9 209.6 54.7 209.6 54.4 Z M 209.8 56.1 L 210.6 56.1 L 210.6 61.3 L 209.8 61.3 L 209.8 56.1 Z M 212.1 58.7 C 212.1 57.1 213.4 56 215.1 56 C 216.8 56 218 57.1 218 58.7 C 218 60.3 216.8 61.4 215.1 61.4 C 213.4 61.4 212.1 60.3 212.1 58.7 Z M 217.2 58.7 C 217.2 57.5 216.3 56.7 215.1 56.7 C 213.8 56.7 212.9 57.5 212.9 58.7 C 212.9 59.9 213.8 60.8 215.1 60.8 C 216.3 60.8 217.2 59.9 217.2 58.7 Z M 224.9 58.3 C 224.89 58.29 224.9 61.3 224.9 61.3 L 224.1 61.3 C 224.1 61.3 224.11 58.36 224.1 58.4 C 224.1 57.2 223.5 56.7 222.4 56.7 C 221.1 56.7 220.3 57.4 220.3 58.6 C 220.34 58.58 220.3 61.3 220.3 61.3 L 219.6 61.3 L 219.6 56.1 L 220.3 56.1 C 220.3 56.1 220.31 57.05 220.3 57 C 220.7 56.4 221.5 56 222.5 56 C 223.9 56 224.9 56.8 224.9 58.3 Z M 226.3 56.6 C 226.3 56.3 226.6 56 226.9 56 C 227.2 56 227.5 56.3 227.5 56.6 C 227.5 56.9 227.2 57.1 226.9 57.1 C 226.6 57.1 226.3 56.9 226.3 56.6 Z M 227.5 60.8 C 227.5 61 227.5 61.1 227.4 61.4 C 227.36 61.42 226.9 62.8 226.9 62.8 L 226.4 62.8 C 226.4 62.8 226.75 61.35 226.7 61.3 C 226.5 61.3 226.3 61.1 226.3 60.8 C 226.3 60.5 226.6 60.3 226.9 60.3 C 227.3 60.3 227.5 60.5 227.5 60.8 Z M 236.4 58.1 C 236.42 58.08 236.4 61.3 236.4 61.3 L 235.7 61.3 C 235.7 61.3 235.68 60.52 235.7 60.5 C 235.3 61.1 234.6 61.4 233.7 61.4 C 232.4 61.4 231.6 60.8 231.6 59.9 C 231.6 59 232.1 58.4 233.8 58.4 C 233.81 58.37 235.6 58.4 235.6 58.4 C 235.6 58.4 235.64 58.05 235.6 58.1 C 235.6 57.1 235.1 56.7 234 56.7 C 233.3 56.7 232.6 56.9 232.1 57.3 C 232.1 57.3 231.7 56.7 231.7 56.7 C 232.3 56.3 233.2 56 234.1 56 C 235.6 56 236.4 56.7 236.4 58.1 Z M 235.6 59.8 C 235.64 59.76 235.6 58.9 235.6 58.9 C 235.6 58.9 233.83 58.9 233.8 58.9 C 232.7 58.9 232.3 59.3 232.3 59.8 C 232.3 60.5 232.9 60.8 233.8 60.8 C 234.7 60.8 235.3 60.5 235.6 59.8 Z M 243.7 58.3 C 243.74 58.29 243.7 61.3 243.7 61.3 L 243 61.3 C 243 61.3 242.96 58.36 243 58.4 C 243 57.2 242.3 56.7 241.2 56.7 C 240 56.7 239.2 57.4 239.2 58.6 C 239.2 58.58 239.2 61.3 239.2 61.3 L 238.4 61.3 L 238.4 56.1 L 239.2 56.1 C 239.2 56.1 239.17 57.05 239.2 57 C 239.6 56.4 240.4 56 241.4 56 C 242.8 56 243.7 56.8 243.7 58.3 Z M 251.1 53.9 L 251.1 61.3 L 250.4 61.3 C 250.4 61.3 250.38 60.3 250.4 60.3 C 249.9 61 249.1 61.4 248.1 61.4 C 246.5 61.4 245.3 60.3 245.3 58.7 C 245.3 57.1 246.5 56 248.1 56 C 249.1 56 249.9 56.4 250.3 57.1 C 250.35 57.08 250.3 53.9 250.3 53.9 L 251.1 53.9 Z M 250.4 58.7 C 250.4 57.5 249.4 56.7 248.2 56.7 C 247 56.7 246.1 57.5 246.1 58.7 C 246.1 59.9 247 60.8 248.2 60.8 C 249.4 60.8 250.4 59.9 250.4 58.7 Z " stroke="none" fill="#323132"/>
  </g>
  <g id="Polygon123266">
    <path d="M 38.7 39.3 L 38.7 46.3 L 37.9 46.3 L 37.9 43.1 L 33.1 43.1 L 33.1 46.3 L 32.3 46.3 L 32.3 39.3 L 33.1 39.3 L 33.1 42.5 L 37.9 42.5 L 37.9 39.3 L 38.7 39.3 Z M 45.4 43.1 C 45.37 43.08 45.4 46.3 45.4 46.3 L 44.6 46.3 C 44.6 46.3 44.62 45.52 44.6 45.5 C 44.3 46.1 43.6 46.4 42.6 46.4 C 41.3 46.4 40.5 45.8 40.5 44.9 C 40.5 44 41.1 43.4 42.8 43.4 C 42.75 43.37 44.6 43.4 44.6 43.4 C 44.6 43.4 44.59 43.05 44.6 43.1 C 44.6 42.1 44 41.7 42.9 41.7 C 42.2 41.7 41.5 41.9 41 42.3 C 41 42.3 40.7 41.7 40.7 41.7 C 41.3 41.3 42.1 41 43 41 C 44.5 41 45.4 41.7 45.4 43.1 Z M 44.6 44.8 C 44.59 44.76 44.6 43.9 44.6 43.9 C 44.6 43.9 42.77 43.9 42.8 43.9 C 41.7 43.9 41.3 44.3 41.3 44.8 C 41.3 45.5 41.8 45.8 42.8 45.8 C 43.6 45.8 44.3 45.5 44.6 44.8 Z M 52.7 43.3 C 52.69 43.29 52.7 46.3 52.7 46.3 L 51.9 46.3 C 51.9 46.3 51.91 43.36 51.9 43.4 C 51.9 42.2 51.3 41.7 50.2 41.7 C 48.9 41.7 48.1 42.4 48.1 43.6 C 48.14 43.58 48.1 46.3 48.1 46.3 L 47.4 46.3 L 47.4 41.1 L 48.1 41.1 C 48.1 41.1 48.11 42.05 48.1 42 C 48.5 41.4 49.3 41 50.3 41 C 51.7 41 52.7 41.8 52.7 43.3 Z M 60.1 38.9 L 60.1 46.3 L 59.3 46.3 C 59.3 46.3 59.33 45.3 59.3 45.3 C 58.9 46 58 46.4 57.1 46.4 C 55.4 46.4 54.2 45.3 54.2 43.7 C 54.2 42.1 55.4 41 57.1 41 C 58 41 58.8 41.4 59.3 42.1 C 59.29 42.08 59.3 38.9 59.3 38.9 L 60.1 38.9 Z M 59.3 43.7 C 59.3 42.5 58.4 41.7 57.2 41.7 C 55.9 41.7 55 42.5 55 43.7 C 55 44.9 55.9 45.8 57.2 45.8 C 58.4 45.8 59.3 44.9 59.3 43.7 Z M 61.7 43.7 C 61.7 42.1 62.9 41 64.6 41 C 66.3 41 67.5 42.1 67.5 43.7 C 67.5 45.3 66.3 46.4 64.6 46.4 C 62.9 46.4 61.7 45.3 61.7 43.7 Z M 66.8 43.7 C 66.8 42.5 65.8 41.7 64.6 41.7 C 63.4 41.7 62.5 42.5 62.5 43.7 C 62.5 44.9 63.4 45.8 64.6 45.8 C 65.8 45.8 66.8 44.9 66.8 43.7 Z M 73.9 41.1 L 71.3 46.3 L 70.5 46.3 L 68 41.1 L 68.8 41.1 L 71 45.6 L 73.1 41.1 L 73.9 41.1 Z M 80 43.9 C 80 43.9 75.1 43.9 75.1 43.9 C 75.2 45 76.1 45.8 77.4 45.8 C 78.1 45.8 78.7 45.5 79.2 45.1 C 79.2 45.1 79.6 45.5 79.6 45.5 C 79.1 46.1 78.3 46.4 77.4 46.4 C 75.6 46.4 74.3 45.3 74.3 43.7 C 74.3 42.1 75.5 41 77.2 41 C 78.8 41 80 42.1 80 43.7 C 80 43.8 80 43.8 80 43.9 Z M 75.1 43.4 C 75.1 43.4 79.2 43.4 79.2 43.4 C 79.1 42.4 78.3 41.6 77.2 41.6 C 76 41.6 75.2 42.4 75.1 43.4 Z M 84.4 41 C 84.4 41 84.4 41.7 84.4 41.7 C 84.4 41.7 84.3 41.7 84.2 41.7 C 83 41.7 82.3 42.4 82.3 43.7 C 82.29 43.66 82.3 46.3 82.3 46.3 L 81.5 46.3 L 81.5 41.1 L 82.3 41.1 C 82.3 41.1 82.26 42.11 82.3 42.1 C 82.6 41.4 83.4 41 84.4 41 Z M 97.3 41.1 L 95.1 46.3 L 94.4 46.3 L 92.5 42 L 90.7 46.3 L 90 46.3 L 87.8 41.1 L 88.6 41.1 L 90.4 45.6 L 92.2 41.1 L 92.9 41.1 L 94.7 45.6 L 96.6 41.1 L 97.3 41.1 Z M 103.8 43.3 C 103.82 43.29 103.8 46.3 103.8 46.3 L 103 46.3 C 103 46.3 103.04 43.36 103 43.4 C 103 42.2 102.4 41.7 101.3 41.7 C 100.1 41.7 99.3 42.4 99.3 43.6 C 99.28 43.58 99.3 46.3 99.3 46.3 L 98.5 46.3 L 98.5 38.9 L 99.3 38.9 C 99.3 38.9 99.28 42 99.3 42 C 99.7 41.4 100.5 41 101.4 41 C 102.9 41 103.8 41.8 103.8 43.3 Z M 111 43.9 C 111 43.9 106.1 43.9 106.1 43.9 C 106.2 45 107.1 45.8 108.4 45.8 C 109.1 45.8 109.7 45.5 110.2 45.1 C 110.2 45.1 110.6 45.5 110.6 45.5 C 110.1 46.1 109.3 46.4 108.4 46.4 C 106.6 46.4 105.3 45.3 105.3 43.7 C 105.3 42.1 106.5 41 108.2 41 C 109.8 41 111 42.1 111 43.7 C 111 43.8 111 43.8 111 43.9 Z M 106.1 43.4 C 106.1 43.4 110.2 43.4 110.2 43.4 C 110.1 42.4 109.3 41.6 108.2 41.6 C 107.1 41.6 106.2 42.4 106.1 43.4 Z M 115.4 41 C 115.4 41 115.4 41.7 115.4 41.7 C 115.4 41.7 115.3 41.7 115.2 41.7 C 114 41.7 113.3 42.4 113.3 43.7 C 113.3 43.66 113.3 46.3 113.3 46.3 L 112.5 46.3 L 112.5 41.1 L 113.3 41.1 C 113.3 41.1 113.27 42.11 113.3 42.1 C 113.6 41.4 114.4 41 115.4 41 Z M 121.8 43.9 C 121.8 43.9 116.9 43.9 116.9 43.9 C 117 45 117.9 45.8 119.2 45.8 C 119.9 45.8 120.5 45.5 121 45.1 C 121 45.1 121.4 45.5 121.4 45.5 C 120.9 46.1 120.1 46.4 119.2 46.4 C 117.4 46.4 116.1 45.3 116.1 43.7 C 116.1 42.1 117.3 41 119 41 C 120.6 41 121.8 42.1 121.8 43.7 C 121.8 43.8 121.8 43.8 121.8 43.9 Z M 116.9 43.4 C 116.9 43.4 121 43.4 121 43.4 C 120.9 42.4 120.1 41.6 119 41.6 C 117.8 41.6 117 42.4 116.9 43.4 Z M 125.7 43.7 C 125.7 42.1 126.9 41 128.6 41 C 130.3 41 131.5 42.1 131.5 43.7 C 131.5 45.3 130.3 46.4 128.6 46.4 C 126.9 46.4 125.7 45.3 125.7 43.7 Z M 130.8 43.7 C 130.8 42.5 129.8 41.7 128.6 41.7 C 127.4 41.7 126.4 42.5 126.4 43.7 C 126.4 44.9 127.4 45.8 128.6 45.8 C 129.8 45.8 130.8 44.9 130.8 43.7 Z M 138.3 41.1 L 138.3 46.3 L 137.6 46.3 C 137.6 46.3 137.56 45.38 137.6 45.4 C 137.2 46 136.4 46.4 135.5 46.4 C 134 46.4 133 45.6 133 44.1 C 133.04 44.13 133 41.1 133 41.1 L 133.8 41.1 C 133.8 41.1 133.82 44.06 133.8 44.1 C 133.8 45.2 134.5 45.8 135.6 45.8 C 136.8 45.8 137.5 45 137.5 43.8 C 137.53 43.84 137.5 41.1 137.5 41.1 L 138.3 41.1 Z M 143.5 46 C 143.2 46.3 142.7 46.4 142.3 46.4 C 141.2 46.4 140.6 45.8 140.6 44.9 C 140.6 44.86 140.6 41.7 140.6 41.7 L 139.6 41.7 L 139.6 41.1 L 140.6 41.1 L 140.6 39.9 L 141.4 39.9 L 141.4 41.1 L 143.1 41.1 L 143.1 41.7 L 141.4 41.7 C 141.4 41.7 141.38 44.82 141.4 44.8 C 141.4 45.4 141.7 45.8 142.4 45.8 C 142.7 45.8 143 45.7 143.2 45.5 C 143.2 45.5 143.5 46 143.5 46 Z M 143.8 43.3 L 146.7 43.3 L 146.7 43.9 L 143.8 43.9 L 143.8 43.3 Z M 154.1 41.1 C 154.1 41.1 154.08 45.7 154.1 45.7 C 154.1 47.5 153.1 48.3 151.2 48.3 C 150.1 48.3 149.1 48 148.5 47.5 C 148.5 47.5 148.9 47 148.9 47 C 149.4 47.4 150.3 47.7 151.2 47.7 C 152.6 47.7 153.3 47.1 153.3 45.8 C 153.3 45.8 153.3 45.1 153.3 45.1 C 152.8 45.8 152 46.1 151 46.1 C 149.4 46.1 148.1 45.1 148.1 43.6 C 148.1 42.1 149.4 41 151 41 C 152 41 152.9 41.4 153.3 42.1 C 153.34 42.09 153.3 41.1 153.3 41.1 L 154.1 41.1 Z M 153.3 43.6 C 153.3 42.4 152.4 41.7 151.1 41.7 C 149.8 41.7 148.9 42.4 148.9 43.6 C 148.9 44.7 149.8 45.5 151.1 45.5 C 152.4 45.5 153.3 44.7 153.3 43.6 Z M 155.7 43.7 C 155.7 42.1 156.9 41 158.6 41 C 160.3 41 161.6 42.1 161.6 43.7 C 161.6 45.3 160.3 46.4 158.6 46.4 C 156.9 46.4 155.7 45.3 155.7 43.7 Z M 160.8 43.7 C 160.8 42.5 159.9 41.7 158.6 41.7 C 157.4 41.7 156.5 42.5 156.5 43.7 C 156.5 44.9 157.4 45.8 158.6 45.8 C 159.9 45.8 160.8 44.9 160.8 43.7 Z M 162.9 39.4 C 162.9 39.2 163.2 38.9 163.5 38.9 C 163.8 38.9 164.1 39.1 164.1 39.4 C 164.1 39.7 163.8 39.9 163.5 39.9 C 163.2 39.9 162.9 39.7 162.9 39.4 Z M 163.1 41.1 L 163.9 41.1 L 163.9 46.3 L 163.1 46.3 L 163.1 41.1 Z M 171.2 43.3 C 171.24 43.29 171.2 46.3 171.2 46.3 L 170.5 46.3 C 170.5 46.3 170.46 43.36 170.5 43.4 C 170.5 42.2 169.8 41.7 168.7 41.7 C 167.5 41.7 166.7 42.4 166.7 43.6 C 166.69 43.58 166.7 46.3 166.7 46.3 L 165.9 46.3 L 165.9 41.1 L 166.7 41.1 C 166.7 41.1 166.66 42.05 166.7 42 C 167.1 41.4 167.9 41 168.9 41 C 170.3 41 171.2 41.8 171.2 43.3 Z M 178.7 41.1 C 178.7 41.1 178.68 45.7 178.7 45.7 C 178.7 47.5 177.7 48.3 175.8 48.3 C 174.7 48.3 173.7 48 173.1 47.5 C 173.1 47.5 173.5 47 173.5 47 C 174 47.4 174.9 47.7 175.8 47.7 C 177.2 47.7 177.9 47.1 177.9 45.8 C 177.9 45.8 177.9 45.1 177.9 45.1 C 177.4 45.8 176.6 46.1 175.6 46.1 C 174 46.1 172.7 45.1 172.7 43.6 C 172.7 42.1 174 41 175.6 41 C 176.6 41 177.4 41.4 177.9 42.1 C 177.93 42.09 177.9 41.1 177.9 41.1 L 178.7 41.1 Z M 177.9 43.6 C 177.9 42.4 177 41.7 175.7 41.7 C 174.4 41.7 173.5 42.4 173.5 43.6 C 173.5 44.7 174.4 45.5 175.7 45.5 C 177 45.5 177.9 44.7 177.9 43.6 Z M 188.1 43.1 C 188.11 43.08 188.1 46.3 188.1 46.3 L 187.4 46.3 C 187.4 46.3 187.37 45.52 187.4 45.5 C 187 46.1 186.3 46.4 185.4 46.4 C 184.1 46.4 183.3 45.8 183.3 44.9 C 183.3 44 183.8 43.4 185.5 43.4 C 185.5 43.37 187.3 43.4 187.3 43.4 C 187.3 43.4 187.33 43.05 187.3 43.1 C 187.3 42.1 186.8 41.7 185.7 41.7 C 184.9 41.7 184.2 41.9 183.8 42.3 C 183.8 42.3 183.4 41.7 183.4 41.7 C 184 41.3 184.9 41 185.8 41 C 187.3 41 188.1 41.7 188.1 43.1 Z M 187.3 44.8 C 187.33 44.76 187.3 43.9 187.3 43.9 C 187.3 43.9 185.52 43.9 185.5 43.9 C 184.4 43.9 184 44.3 184 44.8 C 184 45.5 184.6 45.8 185.5 45.8 C 186.4 45.8 187 45.5 187.3 44.8 Z M 195.4 43.3 C 195.43 43.29 195.4 46.3 195.4 46.3 L 194.7 46.3 C 194.7 46.3 194.65 43.36 194.7 43.4 C 194.7 42.2 194 41.7 192.9 41.7 C 191.7 41.7 190.9 42.4 190.9 43.6 C 190.89 43.58 190.9 46.3 190.9 46.3 L 190.1 46.3 L 190.1 41.1 L 190.9 41.1 C 190.9 41.1 190.86 42.05 190.9 42 C 191.3 41.4 192.1 41 193.1 41 C 194.5 41 195.4 41.8 195.4 43.3 Z M 202.8 38.9 L 202.8 46.3 L 202.1 46.3 C 202.1 46.3 202.07 45.3 202.1 45.3 C 201.6 46 200.8 46.4 199.8 46.4 C 198.2 46.4 197 45.3 197 43.7 C 197 42.1 198.2 41 199.8 41 C 200.8 41 201.6 41.4 202 42.1 C 202.04 42.08 202 38.9 202 38.9 L 202.8 38.9 Z M 202 43.7 C 202 42.5 201.1 41.7 199.9 41.7 C 198.7 41.7 197.7 42.5 197.7 43.7 C 197.7 44.9 198.7 45.8 199.9 45.8 C 201.1 45.8 202 44.9 202 43.7 Z M 207.7 39.4 C 207.7 39.2 208 38.9 208.3 38.9 C 208.6 38.9 208.8 39.1 208.8 39.4 C 208.8 39.7 208.6 39.9 208.3 39.9 C 208 39.9 207.7 39.7 207.7 39.4 Z M 207.9 41.1 L 208.7 41.1 L 208.7 46.3 L 207.9 46.3 L 207.9 41.1 Z M 216 43.3 C 216.01 43.29 216 46.3 216 46.3 L 215.2 46.3 C 215.2 46.3 215.23 43.36 215.2 43.4 C 215.2 42.2 214.6 41.7 213.5 41.7 C 212.2 41.7 211.5 42.4 211.5 43.6 C 211.46 43.58 211.5 46.3 211.5 46.3 L 210.7 46.3 L 210.7 41.1 L 211.4 41.1 C 211.4 41.1 211.43 42.05 211.4 42 C 211.8 41.4 212.6 41 213.6 41 C 215 41 216 41.8 216 43.3 Z M 217.8 43.3 L 220.6 43.3 L 220.6 43.9 L 217.8 43.9 L 217.8 43.3 Z M 222.1 43.7 C 222.1 42.1 223.3 41 225.1 41 C 226 41 226.9 41.4 227.3 42.1 C 227.3 42.1 226.7 42.4 226.7 42.4 C 226.3 41.9 225.7 41.7 225.1 41.7 C 223.8 41.7 222.9 42.5 222.9 43.7 C 222.9 45 223.8 45.8 225.1 45.8 C 225.7 45.8 226.3 45.5 226.7 45 C 226.7 45 227.3 45.4 227.3 45.4 C 226.9 46 226 46.4 225.1 46.4 C 223.3 46.4 222.1 45.3 222.1 43.7 Z M 228.2 43.7 C 228.2 42.1 229.4 41 231.1 41 C 232.8 41 234.1 42.1 234.1 43.7 C 234.1 45.3 232.8 46.4 231.1 46.4 C 229.4 46.4 228.2 45.3 228.2 43.7 Z M 233.3 43.7 C 233.3 42.5 232.4 41.7 231.1 41.7 C 229.9 41.7 229 42.5 229 43.7 C 229 44.9 229.9 45.8 231.1 45.8 C 232.4 45.8 233.3 44.9 233.3 43.7 Z M 245.2 43.3 C 245.19 43.29 245.2 46.3 245.2 46.3 L 244.4 46.3 C 244.4 46.3 244.41 43.36 244.4 43.4 C 244.4 42.2 243.8 41.7 242.7 41.7 C 241.6 41.7 240.8 42.4 240.8 43.6 C 240.81 43.58 240.8 46.3 240.8 46.3 L 240 46.3 C 240 46.3 240.03 43.36 240 43.4 C 240 42.2 239.4 41.7 238.4 41.7 C 237.2 41.7 236.4 42.4 236.4 43.6 C 236.42 43.58 236.4 46.3 236.4 46.3 L 235.6 46.3 L 235.6 41.1 L 236.4 41.1 C 236.4 41.1 236.39 42.04 236.4 42 C 236.8 41.4 237.5 41 238.5 41 C 239.5 41 240.2 41.4 240.6 42.1 C 241 41.5 241.8 41 242.9 41 C 244.3 41 245.2 41.8 245.2 43.3 Z M 247 39.4 C 247 39.2 247.3 38.9 247.6 38.9 C 247.9 38.9 248.1 39.1 248.1 39.4 C 248.1 39.7 247.9 39.9 247.6 39.9 C 247.3 39.9 247 39.7 247 39.4 Z M 247.2 41.1 L 248 41.1 L 248 46.3 L 247.2 46.3 L 247.2 41.1 Z M 255.3 43.3 C 255.31 43.29 255.3 46.3 255.3 46.3 L 254.5 46.3 C 254.5 46.3 254.53 43.36 254.5 43.4 C 254.5 42.2 253.9 41.7 252.8 41.7 C 251.5 41.7 250.8 42.4 250.8 43.6 C 250.77 43.58 250.8 46.3 250.8 46.3 L 250 46.3 L 250 41.1 L 250.7 41.1 C 250.7 41.1 250.73 42.05 250.7 42 C 251.2 41.4 251.9 41 252.9 41 C 254.3 41 255.3 41.8 255.3 43.3 Z M 262.8 41.1 C 262.8 41.1 262.75 45.7 262.8 45.7 C 262.8 47.5 261.8 48.3 259.9 48.3 C 258.8 48.3 257.8 48 257.2 47.5 C 257.2 47.5 257.6 47 257.6 47 C 258.1 47.4 258.9 47.7 259.8 47.7 C 261.3 47.7 262 47.1 262 45.8 C 262 45.8 262 45.1 262 45.1 C 261.5 45.8 260.7 46.1 259.7 46.1 C 258.1 46.1 256.8 45.1 256.8 43.6 C 256.8 42.1 258.1 41 259.7 41 C 260.7 41 261.5 41.4 262 42.1 C 262 42.09 262 41.1 262 41.1 L 262.8 41.1 Z M 262 43.6 C 262 42.4 261.1 41.7 259.8 41.7 C 258.5 41.7 257.6 42.4 257.6 43.6 C 257.6 44.7 258.5 45.5 259.8 45.5 C 261.1 45.5 262 44.7 262 43.6 Z M 273.7 43.7 C 273.7 45.3 272.5 46.4 270.8 46.4 C 269.9 46.4 269.1 46 268.6 45.4 C 268.6 45.35 268.6 48.3 268.6 48.3 L 267.8 48.3 L 267.8 41.1 L 268.6 41.1 C 268.6 41.1 268.57 42.12 268.6 42.1 C 269 41.4 269.8 41 270.8 41 C 272.5 41 273.7 42.1 273.7 43.7 Z M 272.9 43.7 C 272.9 42.5 272 41.7 270.7 41.7 C 269.5 41.7 268.6 42.5 268.6 43.7 C 268.6 44.9 269.5 45.8 270.7 45.8 C 272 45.8 272.9 44.9 272.9 43.7 Z M 280.4 43.9 C 280.4 43.9 275.6 43.9 275.6 43.9 C 275.7 45 276.6 45.8 277.9 45.8 C 278.6 45.8 279.2 45.5 279.6 45.1 C 279.6 45.1 280.1 45.5 280.1 45.5 C 279.5 46.1 278.7 46.4 277.8 46.4 C 276 46.4 274.8 45.3 274.8 43.7 C 274.8 42.1 276 41 277.6 41 C 279.2 41 280.4 42.1 280.4 43.7 C 280.4 43.8 280.4 43.8 280.4 43.9 Z M 275.6 43.4 C 275.6 43.4 279.7 43.4 279.7 43.4 C 279.6 42.4 278.8 41.6 277.6 41.6 C 276.5 41.6 275.7 42.4 275.6 43.4 Z M 284.9 41 C 284.9 41 284.9 41.7 284.9 41.7 C 284.8 41.7 284.8 41.7 284.7 41.7 C 283.5 41.7 282.7 42.4 282.7 43.7 C 282.75 43.66 282.7 46.3 282.7 46.3 L 282 46.3 L 282 41.1 L 282.7 41.1 C 282.7 41.1 282.72 42.11 282.7 42.1 C 283.1 41.4 283.8 41 284.9 41 Z M 285.6 45.7 C 285.6 45.7 286 45.2 286 45.2 C 286.4 45.5 287.2 45.8 288 45.8 C 289.1 45.8 289.6 45.4 289.6 44.9 C 289.6 43.5 285.8 44.6 285.8 42.5 C 285.8 41.7 286.6 41 288.1 41 C 288.9 41 289.7 41.2 290.2 41.5 C 290.2 41.5 289.8 42.1 289.8 42.1 C 289.3 41.8 288.7 41.6 288.1 41.6 C 287.1 41.6 286.6 42 286.6 42.5 C 286.6 43.9 290.4 42.9 290.4 44.9 C 290.4 45.8 289.5 46.4 288 46.4 C 287 46.4 286.1 46.1 285.6 45.7 Z M 291.3 43.7 C 291.3 42.1 292.6 41 294.3 41 C 296 41 297.2 42.1 297.2 43.7 C 297.2 45.3 296 46.4 294.3 46.4 C 292.6 46.4 291.3 45.3 291.3 43.7 Z M 296.4 43.7 C 296.4 42.5 295.5 41.7 294.3 41.7 C 293 41.7 292.1 42.5 292.1 43.7 C 292.1 44.9 293 45.8 294.3 45.8 C 295.5 45.8 296.4 44.9 296.4 43.7 Z M 304.1 43.3 C 304.11 43.29 304.1 46.3 304.1 46.3 L 303.3 46.3 C 303.3 46.3 303.33 43.36 303.3 43.4 C 303.3 42.2 302.7 41.7 301.6 41.7 C 300.3 41.7 299.6 42.4 299.6 43.6 C 299.56 43.58 299.6 46.3 299.6 46.3 L 298.8 46.3 L 298.8 41.1 L 299.5 41.1 C 299.5 41.1 299.53 42.05 299.5 42 C 299.9 41.4 300.7 41 301.7 41 C 303.1 41 304.1 41.8 304.1 43.3 Z M 311.4 43.3 C 311.43 43.29 311.4 46.3 311.4 46.3 L 310.6 46.3 C 310.6 46.3 310.65 43.36 310.6 43.4 C 310.6 42.2 310 41.7 308.9 41.7 C 307.7 41.7 306.9 42.4 306.9 43.6 C 306.88 43.58 306.9 46.3 306.9 46.3 L 306.1 46.3 L 306.1 41.1 L 306.8 41.1 C 306.8 41.1 306.85 42.05 306.8 42 C 307.3 41.4 308 41 309.1 41 C 310.5 41 311.4 41.8 311.4 43.3 Z M 318.6 43.9 C 318.6 43.9 313.7 43.9 313.7 43.9 C 313.8 45 314.7 45.8 316 45.8 C 316.7 45.8 317.3 45.5 317.8 45.1 C 317.8 45.1 318.2 45.5 318.2 45.5 C 317.7 46.1 316.9 46.4 316 46.4 C 314.2 46.4 312.9 45.3 312.9 43.7 C 312.9 42.1 314.1 41 315.8 41 C 317.4 41 318.6 42.1 318.6 43.7 C 318.6 43.8 318.6 43.8 318.6 43.9 Z M 313.7 43.4 C 313.7 43.4 317.8 43.4 317.8 43.4 C 317.7 42.4 316.9 41.6 315.8 41.6 C 314.7 41.6 313.8 42.4 313.7 43.4 Z M 320.1 38.9 L 320.9 38.9 L 320.9 46.3 L 320.1 46.3 L 320.1 38.9 Z M 325.4 43.7 C 325.4 42.1 326.6 41 328.4 41 C 329.4 41 330.2 41.4 330.6 42.1 C 330.6 42.1 330.1 42.4 330.1 42.4 C 329.7 41.9 329 41.7 328.4 41.7 C 327.1 41.7 326.2 42.5 326.2 43.7 C 326.2 45 327.1 45.8 328.4 45.8 C 329 45.8 329.7 45.5 330.1 45 C 330.1 45 330.6 45.4 330.6 45.4 C 330.2 46 329.4 46.4 328.4 46.4 C 326.6 46.4 325.4 45.3 325.4 43.7 Z M 331.5 43.7 C 331.5 42.1 332.8 41 334.5 41 C 336.2 41 337.4 42.1 337.4 43.7 C 337.4 45.3 336.2 46.4 334.5 46.4 C 332.8 46.4 331.5 45.3 331.5 43.7 Z M 336.6 43.7 C 336.6 42.5 335.7 41.7 334.5 41.7 C 333.2 41.7 332.3 42.5 332.3 43.7 C 332.3 44.9 333.2 45.8 334.5 45.8 C 335.7 45.8 336.6 44.9 336.6 43.7 Z M 348.5 43.3 C 348.51 43.29 348.5 46.3 348.5 46.3 L 347.7 46.3 C 347.7 46.3 347.73 43.36 347.7 43.4 C 347.7 42.2 347.1 41.7 346.1 41.7 C 344.9 41.7 344.1 42.4 344.1 43.6 C 344.13 43.58 344.1 46.3 344.1 46.3 L 343.4 46.3 C 343.4 46.3 343.35 43.36 343.4 43.4 C 343.4 42.2 342.7 41.7 341.7 41.7 C 340.5 41.7 339.7 42.4 339.7 43.6 C 339.74 43.58 339.7 46.3 339.7 46.3 L 339 46.3 L 339 41.1 L 339.7 41.1 C 339.7 41.1 339.71 42.04 339.7 42 C 340.1 41.4 340.9 41 341.8 41 C 342.8 41 343.5 41.4 343.9 42.1 C 344.3 41.5 345.1 41 346.2 41 C 347.6 41 348.5 41.8 348.5 43.3 Z M 360.1 43.3 C 360.06 43.29 360.1 46.3 360.1 46.3 L 359.3 46.3 C 359.3 46.3 359.28 43.36 359.3 43.4 C 359.3 42.2 358.7 41.7 357.6 41.7 C 356.4 41.7 355.7 42.4 355.7 43.6 C 355.68 43.58 355.7 46.3 355.7 46.3 L 354.9 46.3 C 354.9 46.3 354.9 43.36 354.9 43.4 C 354.9 42.2 354.3 41.7 353.2 41.7 C 352.1 41.7 351.3 42.4 351.3 43.6 C 351.29 43.58 351.3 46.3 351.3 46.3 L 350.5 46.3 L 350.5 41.1 L 351.3 41.1 C 351.3 41.1 351.26 42.04 351.3 42 C 351.7 41.4 352.4 41 353.4 41 C 354.3 41 355.1 41.4 355.4 42.1 C 355.9 41.5 356.7 41 357.7 41 C 359.1 41 360.1 41.8 360.1 43.3 Z M 367.2 41.1 L 367.2 46.3 L 366.5 46.3 C 366.5 46.3 366.5 45.38 366.5 45.4 C 366.1 46 365.3 46.4 364.4 46.4 C 362.9 46.4 362 45.6 362 44.1 C 361.98 44.13 362 41.1 362 41.1 L 362.8 41.1 C 362.8 41.1 362.76 44.06 362.8 44.1 C 362.8 45.2 363.4 45.8 364.5 45.8 C 365.7 45.8 366.5 45 366.5 43.8 C 366.47 43.84 366.5 41.1 366.5 41.1 L 367.2 41.1 Z M 374.6 43.3 C 374.62 43.29 374.6 46.3 374.6 46.3 L 373.8 46.3 C 373.8 46.3 373.84 43.36 373.8 43.4 C 373.8 42.2 373.2 41.7 372.1 41.7 C 370.9 41.7 370.1 42.4 370.1 43.6 C 370.08 43.58 370.1 46.3 370.1 46.3 L 369.3 46.3 L 369.3 41.1 L 370 41.1 C 370 41.1 370.05 42.05 370 42 C 370.5 41.4 371.2 41 372.2 41 C 373.7 41 374.6 41.8 374.6 43.3 Z M 376.4 39.4 C 376.4 39.2 376.7 38.9 377 38.9 C 377.3 38.9 377.6 39.1 377.6 39.4 C 377.6 39.7 377.3 39.9 377 39.9 C 376.7 39.9 376.4 39.7 376.4 39.4 Z M 376.6 41.1 L 377.4 41.1 L 377.4 46.3 L 376.6 46.3 L 376.6 41.1 Z M 378.9 43.7 C 378.9 42.1 380.2 41 381.9 41 C 382.9 41 383.7 41.4 384.1 42.1 C 384.1 42.1 383.6 42.4 383.6 42.4 C 383.2 41.9 382.5 41.7 381.9 41.7 C 380.6 41.7 379.7 42.5 379.7 43.7 C 379.7 45 380.6 45.8 381.9 45.8 C 382.5 45.8 383.2 45.5 383.6 45 C 383.6 45 384.1 45.4 384.1 45.4 C 383.7 46 382.9 46.4 381.9 46.4 C 380.2 46.4 378.9 45.3 378.9 43.7 Z M 390.1 43.1 C 390.1 43.08 390.1 46.3 390.1 46.3 L 389.4 46.3 C 389.4 46.3 389.35 45.52 389.4 45.5 C 389 46.1 388.3 46.4 387.4 46.4 C 386 46.4 385.2 45.8 385.2 44.9 C 385.2 44 385.8 43.4 387.5 43.4 C 387.48 43.37 389.3 43.4 389.3 43.4 C 389.3 43.4 389.32 43.05 389.3 43.1 C 389.3 42.1 388.8 41.7 387.7 41.7 C 386.9 41.7 386.2 41.9 385.8 42.3 C 385.8 42.3 385.4 41.7 385.4 41.7 C 386 41.3 386.8 41 387.8 41 C 389.3 41 390.1 41.7 390.1 43.1 Z M 389.3 44.8 C 389.32 44.76 389.3 43.9 389.3 43.9 C 389.3 43.9 387.5 43.9 387.5 43.9 C 386.4 43.9 386 44.3 386 44.8 C 386 45.5 386.6 45.8 387.5 45.8 C 388.4 45.8 389 45.5 389.3 44.8 Z M 395.1 46 C 394.8 46.3 394.3 46.4 393.9 46.4 C 392.8 46.4 392.2 45.8 392.2 44.9 C 392.18 44.86 392.2 41.7 392.2 41.7 L 391.1 41.7 L 391.1 41.1 L 392.2 41.1 L 392.2 39.9 L 393 39.9 L 393 41.1 L 394.7 41.1 L 394.7 41.7 L 393 41.7 C 393 41.7 392.96 44.82 393 44.8 C 393 45.4 393.3 45.8 394 45.8 C 394.3 45.8 394.6 45.7 394.8 45.5 C 394.8 45.5 395.1 46 395.1 46 Z M 401.3 43.9 C 401.3 43.9 396.5 43.9 396.5 43.9 C 396.6 45 397.5 45.8 398.8 45.8 C 399.5 45.8 400.1 45.5 400.5 45.1 C 400.5 45.1 401 45.5 401 45.5 C 400.5 46.1 399.7 46.4 398.7 46.4 C 396.9 46.4 395.7 45.3 395.7 43.7 C 395.7 42.1 396.9 41 398.5 41 C 400.2 41 401.3 42.1 401.3 43.7 C 401.3 43.8 401.3 43.8 401.3 43.9 Z M 396.5 43.4 C 396.5 43.4 400.6 43.4 400.6 43.4 C 400.5 42.4 399.7 41.6 398.5 41.6 C 397.4 41.6 396.6 42.4 396.5 43.4 Z M 408.9 46 C 408.6 46.3 408.1 46.4 407.6 46.4 C 406.5 46.4 405.9 45.8 405.9 44.9 C 405.95 44.86 405.9 41.7 405.9 41.7 L 404.9 41.7 L 404.9 41.1 L 405.9 41.1 L 405.9 39.9 L 406.7 39.9 L 406.7 41.1 L 408.5 41.1 L 408.5 41.7 L 406.7 41.7 C 406.7 41.7 406.73 44.82 406.7 44.8 C 406.7 45.4 407.1 45.8 407.7 45.8 C 408 45.8 408.4 45.7 408.6 45.5 C 408.6 45.5 408.9 46 408.9 46 Z M 409.5 43.7 C 409.5 42.1 410.7 41 412.4 41 C 414.1 41 415.4 42.1 415.4 43.7 C 415.4 45.3 414.1 46.4 412.4 46.4 C 410.7 46.4 409.5 45.3 409.5 43.7 Z M 414.6 43.7 C 414.6 42.5 413.6 41.7 412.4 41.7 C 411.2 41.7 410.3 42.5 410.3 43.7 C 410.3 44.9 411.2 45.8 412.4 45.8 C 413.6 45.8 414.6 44.9 414.6 43.7 Z " stroke="none" fill="#323132"/>
  </g>
  <g id="Polygon123265">
    <path d="M 21 43.7 L 16.3 45.8 L 16.3 41.6 L 21 43.7 Z " stroke="none" fill="#a243ff"/>
  </g>
  <g id="Polygon123264">
    <path d="M 37.1 23.5 L 32.8 23.5 L 31.9 25.3 L 31 25.3 L 34.5 18.3 L 35.3 18.3 L 38.9 25.3 L 38 25.3 L 37.1 23.5 Z M 36.8 22.9 L 34.9 19.1 L 33.1 22.9 L 36.8 22.9 Z M 48.7 22.7 C 48.7 24.3 47.5 25.4 45.8 25.4 C 44.9 25.4 44.1 25 43.6 24.4 C 43.64 24.35 43.6 27.3 43.6 27.3 L 42.9 27.3 L 42.9 20.1 L 43.6 20.1 C 43.6 20.1 43.61 21.12 43.6 21.1 C 44.1 20.4 44.9 20 45.8 20 C 47.5 20 48.7 21.1 48.7 22.7 Z M 47.9 22.7 C 47.9 21.5 47 20.7 45.8 20.7 C 44.6 20.7 43.6 21.5 43.6 22.7 C 43.6 23.9 44.6 24.8 45.8 24.8 C 47 24.8 47.9 23.9 47.9 22.7 Z M 55.4 22.9 C 55.4 22.9 50.6 22.9 50.6 22.9 C 50.7 24 51.6 24.8 52.9 24.8 C 53.6 24.8 54.2 24.5 54.7 24.1 C 54.7 24.1 55.1 24.5 55.1 24.5 C 54.6 25.1 53.8 25.4 52.9 25.4 C 51.1 25.4 49.8 24.3 49.8 22.7 C 49.8 21.1 51 20 52.7 20 C 54.3 20 55.5 21.1 55.5 22.7 C 55.5 22.8 55.4 22.8 55.4 22.9 Z M 50.6 22.4 C 50.6 22.4 54.7 22.4 54.7 22.4 C 54.6 21.4 53.8 20.6 52.7 20.6 C 51.5 20.6 50.7 21.4 50.6 22.4 Z M 59.9 20 C 59.9 20 59.9 20.7 59.9 20.7 C 59.9 20.7 59.8 20.7 59.7 20.7 C 58.5 20.7 57.8 21.4 57.8 22.7 C 57.79 22.66 57.8 25.3 57.8 25.3 L 57 25.3 L 57 20.1 L 57.8 20.1 C 57.8 20.1 57.75 21.11 57.8 21.1 C 58.1 20.4 58.9 20 59.9 20 Z M 61.1 18.4 C 61.1 18.2 61.3 17.9 61.7 17.9 C 62 17.9 62.2 18.1 62.2 18.4 C 62.2 18.7 62 18.9 61.7 18.9 C 61.3 18.9 61.1 18.7 61.1 18.4 Z M 61.3 20.1 L 62 20.1 L 62 25.3 L 61.3 25.3 L 61.3 20.1 Z M 63.6 22.7 C 63.6 21.1 64.8 20 66.5 20 C 68.2 20 69.5 21.1 69.5 22.7 C 69.5 24.3 68.2 25.4 66.5 25.4 C 64.8 25.4 63.6 24.3 63.6 22.7 Z M 68.7 22.7 C 68.7 21.5 67.8 20.7 66.5 20.7 C 65.3 20.7 64.4 21.5 64.4 22.7 C 64.4 23.9 65.3 24.8 66.5 24.8 C 67.8 24.8 68.7 23.9 68.7 22.7 Z M 76.4 17.9 L 76.4 25.3 L 75.7 25.3 C 75.7 25.3 75.69 24.3 75.7 24.3 C 75.2 25 74.4 25.4 73.5 25.4 C 71.8 25.4 70.6 24.3 70.6 22.7 C 70.6 21.1 71.8 20 73.5 20 C 74.4 20 75.2 20.4 75.7 21.1 C 75.66 21.08 75.7 17.9 75.7 17.9 L 76.4 17.9 Z M 75.7 22.7 C 75.7 21.5 74.7 20.7 73.5 20.7 C 72.3 20.7 71.4 21.5 71.4 22.7 C 71.4 23.9 72.3 24.8 73.5 24.8 C 74.7 24.8 75.7 23.9 75.7 22.7 Z M 80.9 22.7 C 80.9 21.1 82.2 20 83.9 20 C 85.6 20 86.8 21.1 86.8 22.7 C 86.8 24.3 85.6 25.4 83.9 25.4 C 82.2 25.4 80.9 24.3 80.9 22.7 Z M 86 22.7 C 86 21.5 85.1 20.7 83.9 20.7 C 82.6 20.7 81.7 21.5 81.7 22.7 C 81.7 23.9 82.6 24.8 83.9 24.8 C 85.1 24.8 86 23.9 86 22.7 Z M 89.2 19.5 C 89.22 19.46 89.2 20.1 89.2 20.1 L 91 20.1 L 91 20.7 L 89.2 20.7 L 89.2 25.3 L 88.5 25.3 L 88.5 20.7 L 87.4 20.7 L 87.4 20.1 L 88.5 20.1 C 88.5 20.1 88.46 19.43 88.5 19.4 C 88.5 18.5 89.1 17.9 90.2 17.9 C 90.6 17.9 91.1 18 91.4 18.2 C 91.4 18.2 91.1 18.7 91.1 18.7 C 90.9 18.6 90.6 18.5 90.2 18.5 C 89.6 18.5 89.2 18.8 89.2 19.5 Z M 100.8 22.7 C 100.8 24.3 99.6 25.4 97.9 25.4 C 97 25.4 96.2 25 95.7 24.4 C 95.72 24.35 95.7 27.3 95.7 27.3 L 94.9 27.3 L 94.9 20.1 L 95.7 20.1 C 95.7 20.1 95.68 21.12 95.7 21.1 C 96.2 20.4 97 20 97.9 20 C 99.6 20 100.8 21.1 100.8 22.7 Z M 100 22.7 C 100 21.5 99.1 20.7 97.9 20.7 C 96.6 20.7 95.7 21.5 95.7 22.7 C 95.7 23.9 96.6 24.8 97.9 24.8 C 99.1 24.8 100 23.9 100 22.7 Z M 105.3 20 C 105.3 20 105.3 20.7 105.3 20.7 C 105.2 20.7 105.2 20.7 105.1 20.7 C 103.9 20.7 103.2 21.4 103.2 22.7 C 103.17 22.66 103.2 25.3 103.2 25.3 L 102.4 25.3 L 102.4 20.1 L 103.1 20.1 C 103.1 20.1 103.13 21.11 103.1 21.1 C 103.5 20.4 104.2 20 105.3 20 Z M 111.6 22.9 C 111.6 22.9 106.8 22.9 106.8 22.9 C 106.9 24 107.8 24.8 109.1 24.8 C 109.8 24.8 110.4 24.5 110.8 24.1 C 110.8 24.1 111.3 24.5 111.3 24.5 C 110.7 25.1 109.9 25.4 109 25.4 C 107.2 25.4 106 24.3 106 22.7 C 106 21.1 107.2 20 108.8 20 C 110.5 20 111.6 21.1 111.6 22.7 C 111.6 22.8 111.6 22.8 111.6 22.9 Z M 106.8 22.4 C 106.8 22.4 110.9 22.4 110.9 22.4 C 110.8 21.4 110 20.6 108.8 20.6 C 107.7 20.6 106.9 21.4 106.8 22.4 Z M 119 22.7 C 119 24.3 117.8 25.4 116.2 25.4 C 115.2 25.4 114.4 25 114 24.4 C 113.95 24.35 114 27.3 114 27.3 L 113.2 27.3 L 113.2 20.1 L 113.9 20.1 C 113.9 20.1 113.92 21.12 113.9 21.1 C 114.4 20.4 115.2 20 116.2 20 C 117.8 20 119 21.1 119 22.7 Z M 118.3 22.7 C 118.3 21.5 117.3 20.7 116.1 20.7 C 114.9 20.7 113.9 21.5 113.9 22.7 C 113.9 23.9 114.9 24.8 116.1 24.8 C 117.3 24.8 118.3 23.9 118.3 22.7 Z M 125 22.1 C 124.99 22.08 125 25.3 125 25.3 L 124.2 25.3 C 124.2 25.3 124.24 24.52 124.2 24.5 C 123.9 25.1 123.2 25.4 122.3 25.4 C 120.9 25.4 120.1 24.8 120.1 23.9 C 120.1 23 120.7 22.4 122.4 22.4 C 122.37 22.37 124.2 22.4 124.2 22.4 C 124.2 22.4 124.21 22.05 124.2 22.1 C 124.2 21.1 123.6 20.7 122.6 20.7 C 121.8 20.7 121.1 20.9 120.6 21.3 C 120.6 21.3 120.3 20.7 120.3 20.7 C 120.9 20.3 121.7 20 122.6 20 C 124.1 20 125 20.7 125 22.1 Z M 124.2 23.8 C 124.21 23.76 124.2 22.9 124.2 22.9 C 124.2 22.9 122.4 22.9 122.4 22.9 C 121.3 22.9 120.9 23.3 120.9 23.8 C 120.9 24.5 121.4 24.8 122.4 24.8 C 123.3 24.8 123.9 24.5 124.2 23.8 Z M 129.9 20 C 129.9 20 129.9 20.7 129.9 20.7 C 129.8 20.7 129.8 20.7 129.7 20.7 C 128.5 20.7 127.8 21.4 127.8 22.7 C 127.77 22.66 127.8 25.3 127.8 25.3 L 127 25.3 L 127 20.1 L 127.7 20.1 C 127.7 20.1 127.73 21.11 127.7 21.1 C 128.1 20.4 128.8 20 129.9 20 Z M 135.8 22.1 C 135.77 22.08 135.8 25.3 135.8 25.3 L 135 25.3 C 135 25.3 135.03 24.52 135 24.5 C 134.7 25.1 134 25.4 133 25.4 C 131.7 25.4 130.9 24.8 130.9 23.9 C 130.9 23 131.5 22.4 133.2 22.4 C 133.16 22.37 135 22.4 135 22.4 C 135 22.4 134.99 22.05 135 22.1 C 135 21.1 134.4 20.7 133.4 20.7 C 132.6 20.7 131.9 20.9 131.4 21.3 C 131.4 21.3 131.1 20.7 131.1 20.7 C 131.7 20.3 132.5 20 133.4 20 C 134.9 20 135.8 20.7 135.8 22.1 Z M 135 23.8 C 134.99 23.76 135 22.9 135 22.9 C 135 22.9 133.18 22.9 133.2 22.9 C 132.1 22.9 131.7 23.3 131.7 23.8 C 131.7 24.5 132.2 24.8 133.2 24.8 C 134 24.8 134.7 24.5 135 23.8 Z M 140.8 25 C 140.5 25.3 140 25.4 139.6 25.4 C 138.5 25.4 137.9 24.8 137.9 23.9 C 137.86 23.86 137.9 20.7 137.9 20.7 L 136.8 20.7 L 136.8 20.1 L 137.9 20.1 L 137.9 18.9 L 138.6 18.9 L 138.6 20.1 L 140.4 20.1 L 140.4 20.7 L 138.6 20.7 C 138.6 20.7 138.64 23.82 138.6 23.8 C 138.6 24.4 139 24.8 139.6 24.8 C 140 24.8 140.3 24.7 140.5 24.5 C 140.5 24.5 140.8 25 140.8 25 Z M 141.9 18.4 C 141.9 18.2 142.2 17.9 142.5 17.9 C 142.8 17.9 143 18.1 143 18.4 C 143 18.7 142.8 18.9 142.5 18.9 C 142.2 18.9 141.9 18.7 141.9 18.4 Z M 142.1 20.1 L 142.9 20.1 L 142.9 25.3 L 142.1 25.3 L 142.1 20.1 Z M 144.4 22.7 C 144.4 21.1 145.6 20 147.3 20 C 149 20 150.3 21.1 150.3 22.7 C 150.3 24.3 149 25.4 147.3 25.4 C 145.6 25.4 144.4 24.3 144.4 22.7 Z M 149.5 22.7 C 149.5 21.5 148.6 20.7 147.3 20.7 C 146.1 20.7 145.2 21.5 145.2 22.7 C 145.2 23.9 146.1 24.8 147.3 24.8 C 148.6 24.8 149.5 23.9 149.5 22.7 Z M 157.2 22.3 C 157.17 22.29 157.2 25.3 157.2 25.3 L 156.4 25.3 C 156.4 25.3 156.39 22.36 156.4 22.4 C 156.4 21.2 155.8 20.7 154.7 20.7 C 153.4 20.7 152.6 21.4 152.6 22.6 C 152.63 22.58 152.6 25.3 152.6 25.3 L 151.9 25.3 L 151.9 20.1 L 152.6 20.1 C 152.6 20.1 152.6 21.05 152.6 21 C 153 20.4 153.8 20 154.8 20 C 156.2 20 157.2 20.8 157.2 22.3 Z M 168 22.7 C 168 24.3 166.8 25.4 165.2 25.4 C 164.2 25.4 163.4 25 162.9 24.3 C 162.93 24.3 162.9 25.3 162.9 25.3 L 162.2 25.3 L 162.2 17.9 L 163 17.9 C 163 17.9 162.96 21.08 163 21.1 C 163.4 20.4 164.2 20 165.2 20 C 166.8 20 168 21.1 168 22.7 Z M 167.3 22.7 C 167.3 21.5 166.3 20.7 165.1 20.7 C 163.9 20.7 162.9 21.5 162.9 22.7 C 162.9 23.9 163.9 24.8 165.1 24.8 C 166.3 24.8 167.3 23.9 167.3 22.7 Z M 174.4 20.1 C 174.4 20.1 171.52 25.97 171.5 26 C 171 27 170.4 27.3 169.6 27.3 C 169.1 27.3 168.5 27.2 168.2 26.9 C 168.2 26.9 168.5 26.3 168.5 26.3 C 168.8 26.6 169.2 26.7 169.6 26.7 C 170.1 26.7 170.5 26.5 170.8 25.8 C 170.8 25.84 171.1 25.3 171.1 25.3 L 168.5 20.1 L 169.3 20.1 L 171.5 24.6 L 173.6 20.1 L 174.4 20.1 Z M 177.8 22.7 C 177.8 21.1 179.1 20 180.8 20 C 182.4 20 183.7 21.1 183.7 22.7 C 183.7 24.3 182.4 25.4 180.8 25.4 C 179.1 25.4 177.8 24.3 177.8 22.7 Z M 182.9 22.7 C 182.9 21.5 182 20.7 180.8 20.7 C 179.5 20.7 178.6 21.5 178.6 22.7 C 178.6 23.9 179.5 24.8 180.8 24.8 C 182 24.8 182.9 23.9 182.9 22.7 Z M 190.5 20.1 L 190.5 25.3 L 189.7 25.3 C 189.7 25.3 189.71 24.38 189.7 24.4 C 189.3 25 188.6 25.4 187.6 25.4 C 186.2 25.4 185.2 24.6 185.2 23.1 C 185.19 23.13 185.2 20.1 185.2 20.1 L 186 20.1 C 186 20.1 185.97 23.06 186 23.1 C 186 24.2 186.6 24.8 187.7 24.8 C 188.9 24.8 189.7 24 189.7 22.8 C 189.68 22.84 189.7 20.1 189.7 20.1 L 190.5 20.1 Z M 195.7 25 C 195.4 25.3 194.9 25.4 194.4 25.4 C 193.3 25.4 192.7 24.8 192.7 23.9 C 192.75 23.86 192.7 20.7 192.7 20.7 L 191.7 20.7 L 191.7 20.1 L 192.7 20.1 L 192.7 18.9 L 193.5 18.9 L 193.5 20.1 L 195.3 20.1 L 195.3 20.7 L 193.5 20.7 C 193.5 20.7 193.53 23.82 193.5 23.8 C 193.5 24.4 193.9 24.8 194.5 24.8 C 194.8 24.8 195.2 24.7 195.4 24.5 C 195.4 24.5 195.7 25 195.7 25 Z M 196 22.3 L 198.9 22.3 L 198.9 22.9 L 196 22.9 L 196 22.3 Z M 206.2 20.1 C 206.2 20.1 206.23 24.7 206.2 24.7 C 206.2 26.5 205.3 27.3 203.3 27.3 C 202.3 27.3 201.2 27 200.6 26.5 C 200.6 26.5 201 26 201 26 C 201.6 26.4 202.4 26.7 203.3 26.7 C 204.8 26.7 205.5 26.1 205.5 24.8 C 205.5 24.8 205.5 24.1 205.5 24.1 C 205 24.8 204.1 25.1 203.2 25.1 C 201.5 25.1 200.3 24.1 200.3 22.6 C 200.3 21.1 201.5 20 203.2 20 C 204.2 20 205 20.4 205.5 21.1 C 205.48 21.09 205.5 20.1 205.5 20.1 L 206.2 20.1 Z M 205.5 22.6 C 205.5 21.4 204.5 20.7 203.3 20.7 C 202 20.7 201.1 21.4 201.1 22.6 C 201.1 23.7 202 24.5 203.3 24.5 C 204.5 24.5 205.5 23.7 205.5 22.6 Z M 207.8 22.7 C 207.8 21.1 209.1 20 210.8 20 C 212.5 20 213.7 21.1 213.7 22.7 C 213.7 24.3 212.5 25.4 210.8 25.4 C 209.1 25.4 207.8 24.3 207.8 22.7 Z M 212.9 22.7 C 212.9 21.5 212 20.7 210.8 20.7 C 209.5 20.7 208.6 21.5 208.6 22.7 C 208.6 23.9 209.5 24.8 210.8 24.8 C 212 24.8 212.9 23.9 212.9 22.7 Z M 215.1 18.4 C 215.1 18.2 215.3 17.9 215.6 17.9 C 216 17.9 216.2 18.1 216.2 18.4 C 216.2 18.7 216 18.9 215.6 18.9 C 215.3 18.9 215.1 18.7 215.1 18.4 Z M 215.3 20.1 L 216 20.1 L 216 25.3 L 215.3 25.3 L 215.3 20.1 Z M 223.4 22.3 C 223.38 22.29 223.4 25.3 223.4 25.3 L 222.6 25.3 C 222.6 25.3 222.6 22.36 222.6 22.4 C 222.6 21.2 222 20.7 220.9 20.7 C 219.6 20.7 218.8 21.4 218.8 22.6 C 218.84 22.58 218.8 25.3 218.8 25.3 L 218.1 25.3 L 218.1 20.1 L 218.8 20.1 C 218.8 20.1 218.81 21.05 218.8 21 C 219.2 20.4 220 20 221 20 C 222.4 20 223.4 20.8 223.4 22.3 Z M 230.8 20.1 C 230.8 20.1 230.82 24.7 230.8 24.7 C 230.8 26.5 229.8 27.3 227.9 27.3 C 226.9 27.3 225.8 27 225.2 26.5 C 225.2 26.5 225.6 26 225.6 26 C 226.2 26.4 227 26.7 227.9 26.7 C 229.4 26.7 230 26.1 230 24.8 C 230 24.8 230 24.1 230 24.1 C 229.6 24.8 228.7 25.1 227.8 25.1 C 226.1 25.1 224.9 24.1 224.9 22.6 C 224.9 21.1 226.1 20 227.8 20 C 228.8 20 229.6 20.4 230.1 21.1 C 230.08 21.09 230.1 20.1 230.1 20.1 L 230.8 20.1 Z M 230.1 22.6 C 230.1 21.4 229.1 20.7 227.9 20.7 C 226.6 20.7 225.7 21.4 225.7 22.6 C 225.7 23.7 226.6 24.5 227.9 24.5 C 229.1 24.5 230.1 23.7 230.1 22.6 Z M 241.8 22.7 C 241.8 24.3 240.5 25.4 238.9 25.4 C 238 25.4 237.2 25 236.7 24.4 C 236.68 24.35 236.7 27.3 236.7 27.3 L 235.9 27.3 L 235.9 20.1 L 236.6 20.1 C 236.6 20.1 236.64 21.12 236.6 21.1 C 237.1 20.4 237.9 20 238.9 20 C 240.5 20 241.8 21.1 241.8 22.7 Z M 241 22.7 C 241 21.5 240 20.7 238.8 20.7 C 237.6 20.7 236.7 21.5 236.7 22.7 C 236.7 23.9 237.6 24.8 238.8 24.8 C 240 24.8 241 23.9 241 22.7 Z M 248.5 22.9 C 248.5 22.9 243.6 22.9 243.6 22.9 C 243.7 24 244.7 24.8 245.9 24.8 C 246.6 24.8 247.3 24.5 247.7 24.1 C 247.7 24.1 248.1 24.5 248.1 24.5 C 247.6 25.1 246.8 25.4 245.9 25.4 C 244.1 25.4 242.9 24.3 242.9 22.7 C 242.9 21.1 244.1 20 245.7 20 C 247.3 20 248.5 21.1 248.5 22.7 C 248.5 22.8 248.5 22.8 248.5 22.9 Z M 243.6 22.4 C 243.6 22.4 247.8 22.4 247.8 22.4 C 247.7 21.4 246.8 20.6 245.7 20.6 C 244.6 20.6 243.7 21.4 243.6 22.4 Z M 253 20 C 253 20 253 20.7 253 20.7 C 252.9 20.7 252.8 20.7 252.8 20.7 C 251.6 20.7 250.8 21.4 250.8 22.7 C 250.82 22.66 250.8 25.3 250.8 25.3 L 250 25.3 L 250 20.1 L 250.8 20.1 C 250.8 20.1 250.79 21.11 250.8 21.1 C 251.2 20.4 251.9 20 253 20 Z M 253.7 24.7 C 253.7 24.7 254.1 24.2 254.1 24.2 C 254.5 24.5 255.3 24.8 256.1 24.8 C 257.2 24.8 257.7 24.4 257.7 23.9 C 257.7 22.5 253.9 23.6 253.9 21.5 C 253.9 20.7 254.7 20 256.2 20 C 256.9 20 257.8 20.2 258.2 20.5 C 258.2 20.5 257.9 21.1 257.9 21.1 C 257.4 20.8 256.8 20.6 256.2 20.6 C 255.1 20.6 254.7 21 254.7 21.5 C 254.7 22.9 258.4 21.9 258.4 23.9 C 258.4 24.8 257.6 25.4 256.1 25.4 C 255.1 25.4 254.2 25.1 253.7 24.7 Z M 259.4 22.7 C 259.4 21.1 260.7 20 262.4 20 C 264 20 265.3 21.1 265.3 22.7 C 265.3 24.3 264 25.4 262.4 25.4 C 260.7 25.4 259.4 24.3 259.4 22.7 Z M 264.5 22.7 C 264.5 21.5 263.6 20.7 262.4 20.7 C 261.1 20.7 260.2 21.5 260.2 22.7 C 260.2 23.9 261.1 24.8 262.4 24.8 C 263.6 24.8 264.5 23.9 264.5 22.7 Z M 272.2 22.3 C 272.18 22.29 272.2 25.3 272.2 25.3 L 271.4 25.3 C 271.4 25.3 271.4 22.36 271.4 22.4 C 271.4 21.2 270.8 20.7 269.7 20.7 C 268.4 20.7 267.6 21.4 267.6 22.6 C 267.64 22.58 267.6 25.3 267.6 25.3 L 266.9 25.3 L 266.9 20.1 L 267.6 20.1 C 267.6 20.1 267.6 21.05 267.6 21 C 268 20.4 268.8 20 269.8 20 C 271.2 20 272.2 20.8 272.2 22.3 Z M 279.5 22.3 C 279.5 22.29 279.5 25.3 279.5 25.3 L 278.7 25.3 C 278.7 25.3 278.72 22.36 278.7 22.4 C 278.7 21.2 278.1 20.7 277 20.7 C 275.7 20.7 275 21.4 275 22.6 C 274.96 22.58 275 25.3 275 25.3 L 274.2 25.3 L 274.2 20.1 L 274.9 20.1 C 274.9 20.1 274.92 21.05 274.9 21 C 275.3 20.4 276.1 20 277.1 20 C 278.5 20 279.5 20.8 279.5 22.3 Z M 286.6 22.9 C 286.6 22.9 281.8 22.9 281.8 22.9 C 281.9 24 282.8 24.8 284.1 24.8 C 284.8 24.8 285.4 24.5 285.9 24.1 C 285.9 24.1 286.3 24.5 286.3 24.5 C 285.8 25.1 285 25.4 284.1 25.4 C 282.3 25.4 281 24.3 281 22.7 C 281 21.1 282.2 20 283.8 20 C 285.5 20 286.7 21.1 286.7 22.7 C 286.7 22.8 286.6 22.8 286.6 22.9 Z M 281.8 22.4 C 281.8 22.4 285.9 22.4 285.9 22.4 C 285.8 21.4 285 20.6 283.8 20.6 C 282.7 20.6 281.9 21.4 281.8 22.4 Z M 288.2 17.9 L 289 17.9 L 289 25.3 L 288.2 25.3 L 288.2 17.9 Z M 290.6 20.6 C 290.6 20.3 290.8 20 291.2 20 C 291.5 20 291.7 20.3 291.7 20.6 C 291.7 20.9 291.5 21.1 291.2 21.1 C 290.8 21.1 290.6 20.9 290.6 20.6 Z M 291.7 24.8 C 291.7 25 291.7 25.1 291.6 25.4 C 291.59 25.42 291.1 26.8 291.1 26.8 L 290.6 26.8 C 290.6 26.8 290.98 25.35 291 25.3 C 290.7 25.3 290.6 25.1 290.6 24.8 C 290.6 24.5 290.8 24.3 291.2 24.3 C 291.5 24.3 291.7 24.5 291.7 24.8 Z " stroke="none" fill="#323132"/>
  </g>
  <g id="Polygon123263">
    <path d="M 21 22.7 L 16.3 24.8 L 16.3 20.6 L 21 22.7 Z " stroke="none" fill="#a243ff"/>
  </g>
</svg>