<?xml version="1.0" standalone="no"?>
<!DOCTYPE svg PUBLIC "-//W3C//DTD SVG 1.1//EN" "http://www.w3.org/Graphics/SVG/1.1/DTD/svg11.dtd">
<svg xmlns="http://www.w3.org/2000/svg" version="1.1" width="31px" height="20.5px" viewBox="0 -2 31 20.5" style="top:-2px">
  <desc>Book</desc>
  <defs/>
  <g id="Polygon114652">
    <path d="M 7 7.8 C 7 9 6.1 9.7 4.4 9.7 C 4.36 9.68 1.1 9.7 1.1 9.7 L 1.1 2.7 C 1.1 2.7 4.16 2.68 4.2 2.7 C 5.7 2.7 6.6 3.3 6.6 4.5 C 6.6 5.3 6.2 5.8 5.6 6.1 C 6.5 6.3 7 6.9 7 7.8 Z M 1.9 3.3 L 1.9 5.8 C 1.9 5.8 4.11 5.83 4.1 5.8 C 5.2 5.8 5.9 5.4 5.9 4.6 C 5.9 3.7 5.2 3.3 4.1 3.3 C 4.11 3.29 1.9 3.3 1.9 3.3 Z M 6.3 7.7 C 6.3 6.8 5.6 6.4 4.4 6.4 C 4.35 6.44 1.9 6.4 1.9 6.4 L 1.9 9.1 C 1.9 9.1 4.35 9.07 4.4 9.1 C 5.6 9.1 6.3 8.7 6.3 7.7 Z M 8.1 7 C 8.1 5.5 9.3 4.4 10.8 4.4 C 12.3 4.4 13.5 5.5 13.5 7 C 13.5 8.6 12.3 9.7 10.8 9.7 C 9.3 9.7 8.1 8.6 8.1 7 Z M 12.7 7 C 12.7 5.8 11.9 5 10.8 5 C 9.7 5 8.8 5.8 8.8 7 C 8.8 8.3 9.7 9.1 10.8 9.1 C 11.9 9.1 12.7 8.3 12.7 7 Z M 14.5 7 C 14.5 5.5 15.6 4.4 17.2 4.4 C 18.7 4.4 19.8 5.5 19.8 7 C 19.8 8.6 18.7 9.7 17.2 9.7 C 15.6 9.7 14.5 8.6 14.5 7 Z M 19.1 7 C 19.1 5.8 18.3 5 17.2 5 C 16 5 15.2 5.8 15.2 7 C 15.2 8.3 16 9.1 17.2 9.1 C 18.3 9.1 19.1 8.3 19.1 7 Z M 23.2 7 L 22 8.2 L 22 9.7 L 21.2 9.7 L 21.2 2.3 L 22 2.3 L 22 7.3 L 25.1 4.4 L 26 4.4 L 23.7 6.6 L 26.2 9.7 L 25.3 9.7 L 23.2 7 Z " stroke="none" fill="#000"/>
  </g>
</svg>