<?xml version="1.0" standalone="no"?>
<!DOCTYPE svg PUBLIC "-//W3C//DTD SVG 1.1//EN" "http://www.w3.org/Graphics/SVG/1.1/DTD/svg11.dtd">
<svg xmlns="http://www.w3.org/2000/svg" version="1.1" width="485px" height="83px" viewBox="0 0 485 83">
  <desc>Organisational factors</desc>
  <defs/>
  <g id="Polygon122390">
    <path d="M 34.5 45.6 C 33.4 45.6 32.3 45.4 31.4 45.1 C 30.5 44.7 29.6 44.2 29 43.5 C 28.3 42.9 27.7 42.1 27.4 41.2 C 27 40.4 26.8 39.4 26.8 38.4 C 26.8 37.3 27 36.4 27.4 35.5 C 27.7 34.6 28.3 33.8 29 33.2 C 29.7 32.5 30.5 32 31.4 31.7 C 32.3 31.3 33.3 31.1 34.4 31.1 C 35.5 31.1 36.6 31.3 37.5 31.7 C 38.4 32 39.2 32.5 39.9 33.2 C 40.6 33.8 41.1 34.6 41.5 35.5 C 41.9 36.3 42.1 37.3 42.1 38.4 C 42.1 39.4 41.9 40.4 41.5 41.2 C 41.1 42.1 40.6 42.9 39.9 43.5 C 39.2 44.2 38.4 44.7 37.5 45.1 C 36.6 45.4 35.6 45.6 34.5 45.6 Z M 34.4 42.8 C 35.1 42.8 35.6 42.7 36.2 42.5 C 36.7 42.3 37.2 42 37.6 41.6 C 38 41.2 38.3 40.7 38.5 40.2 C 38.7 39.6 38.8 39 38.8 38.4 C 38.8 37.7 38.7 37.1 38.5 36.5 C 38.3 36 38 35.5 37.6 35.1 C 37.2 34.7 36.7 34.4 36.2 34.2 C 35.6 34 35.1 33.9 34.4 33.9 C 33.8 33.9 33.2 34 32.7 34.2 C 32.2 34.4 31.7 34.7 31.3 35.1 C 30.9 35.5 30.6 36 30.4 36.5 C 30.2 37.1 30.1 37.7 30.1 38.4 C 30.1 39 30.2 39.6 30.4 40.2 C 30.6 40.7 30.9 41.2 31.3 41.6 C 31.7 42 32.2 42.3 32.7 42.5 C 33.2 42.7 33.8 42.8 34.4 42.8 Z M 44.3 45.4 L 44.3 34.6 L 47.3 34.6 L 47.3 37.6 C 47.3 37.6 46.88 36.76 46.9 36.8 C 47.2 36 47.7 35.4 48.4 35 C 49.1 34.6 50 34.4 51 34.4 C 51 34.4 51 37.3 51 37.3 C 50.9 37.3 50.7 37.3 50.6 37.3 C 50.5 37.3 50.4 37.3 50.3 37.3 C 49.4 37.3 48.8 37.5 48.2 38 C 47.7 38.5 47.4 39.3 47.4 40.3 C 47.44 40.28 47.4 45.4 47.4 45.4 L 44.3 45.4 Z M 57.8 49.4 C 56.8 49.4 55.8 49.3 54.9 49 C 54 48.8 53.2 48.4 52.6 47.9 C 52.6 47.9 53.8 45.7 53.8 45.7 C 54.3 46.1 54.8 46.3 55.5 46.6 C 56.2 46.8 56.9 46.9 57.6 46.9 C 58.7 46.9 59.5 46.7 60 46.2 C 60.5 45.7 60.8 44.9 60.8 44 C 60.76 43.96 60.8 42.3 60.8 42.3 L 61 39.6 L 60.9 36.9 L 60.9 34.6 L 63.9 34.6 C 63.9 34.6 63.88 43.56 63.9 43.6 C 63.9 45.6 63.4 47 62.3 48 C 61.3 48.9 59.8 49.4 57.8 49.4 Z M 57.4 44.8 C 56.4 44.8 55.5 44.6 54.6 44.2 C 53.8 43.8 53.2 43.1 52.7 42.4 C 52.2 41.6 52 40.7 52 39.6 C 52 38.6 52.2 37.7 52.7 36.9 C 53.2 36.1 53.8 35.5 54.6 35.1 C 55.5 34.7 56.4 34.4 57.4 34.4 C 58.3 34.4 59.1 34.6 59.8 35 C 60.5 35.4 61 35.9 61.4 36.7 C 61.8 37.5 62 38.4 62 39.6 C 62 40.8 61.8 41.8 61.4 42.6 C 61 43.3 60.5 43.9 59.8 44.3 C 59.1 44.7 58.3 44.8 57.4 44.8 Z M 58 42.3 C 58.5 42.3 59 42.2 59.4 41.9 C 59.9 41.7 60.2 41.4 60.4 41 C 60.7 40.6 60.8 40.2 60.8 39.6 C 60.8 39.1 60.7 38.6 60.4 38.2 C 60.2 37.9 59.9 37.5 59.4 37.3 C 59 37.1 58.5 37 58 37 C 57.4 37 56.9 37.1 56.5 37.3 C 56.1 37.5 55.8 37.9 55.5 38.2 C 55.3 38.6 55.1 39.1 55.1 39.6 C 55.1 40.2 55.3 40.6 55.5 41 C 55.8 41.4 56.1 41.7 56.5 41.9 C 56.9 42.2 57.4 42.3 58 42.3 Z M 73.2 45.4 L 73.2 43.3 L 73 42.8 C 73 42.8 73.02 39.04 73 39 C 73 38.4 72.8 37.9 72.4 37.5 C 72 37.1 71.4 36.9 70.5 36.9 C 70 36.9 69.4 37 68.8 37.2 C 68.3 37.4 67.8 37.6 67.4 37.9 C 67.4 37.9 66.3 35.7 66.3 35.7 C 66.9 35.3 67.6 35 68.4 34.8 C 69.3 34.6 70.1 34.4 71 34.4 C 72.6 34.4 73.9 34.8 74.8 35.6 C 75.7 36.4 76.1 37.6 76.1 39.2 C 76.14 39.22 76.1 45.4 76.1 45.4 L 73.2 45.4 Z M 69.9 45.5 C 69.1 45.5 68.4 45.4 67.8 45.1 C 67.2 44.8 66.7 44.4 66.4 43.9 C 66.1 43.4 65.9 42.9 65.9 42.3 C 65.9 41.6 66.1 41.1 66.4 40.6 C 66.7 40.1 67.2 39.7 67.9 39.4 C 68.6 39.2 69.4 39 70.5 39 C 70.54 39.04 73.4 39 73.4 39 L 73.4 40.9 C 73.4 40.9 70.88 40.86 70.9 40.9 C 70.1 40.9 69.6 41 69.4 41.2 C 69.1 41.5 69 41.8 69 42.1 C 69 42.5 69.1 42.8 69.4 43.1 C 69.7 43.3 70.2 43.4 70.7 43.4 C 71.2 43.4 71.7 43.3 72.1 43 C 72.5 42.8 72.8 42.4 73 42 C 73 42 73.5 43.4 73.5 43.4 C 73.3 44.1 72.9 44.6 72.3 45 C 71.7 45.3 70.9 45.5 69.9 45.5 Z M 85.3 34.4 C 86.1 34.4 86.9 34.6 87.6 34.9 C 88.2 35.3 88.8 35.8 89.2 36.5 C 89.5 37.2 89.7 38.1 89.7 39.2 C 89.74 39.2 89.7 45.4 89.7 45.4 L 86.6 45.4 C 86.6 45.4 86.62 39.68 86.6 39.7 C 86.6 38.8 86.4 38.2 86 37.8 C 85.7 37.3 85.1 37.1 84.4 37.1 C 83.9 37.1 83.5 37.2 83.1 37.4 C 82.7 37.7 82.4 38 82.2 38.4 C 82 38.8 81.9 39.4 81.9 40 C 81.86 40.04 81.9 45.4 81.9 45.4 L 78.7 45.4 L 78.7 34.6 L 81.7 34.6 L 81.7 37.6 C 81.7 37.6 81.16 36.68 81.2 36.7 C 81.5 36 82.1 35.4 82.8 35 C 83.5 34.6 84.4 34.4 85.3 34.4 Z M 92.3 45.4 L 92.3 34.6 L 95.4 34.6 L 95.4 45.4 L 92.3 45.4 Z M 93.8 33.1 C 93.3 33.1 92.8 32.9 92.4 32.6 C 92.1 32.3 91.9 31.9 91.9 31.4 C 91.9 30.9 92.1 30.5 92.4 30.1 C 92.8 29.8 93.3 29.6 93.8 29.6 C 94.4 29.6 94.9 29.8 95.2 30.1 C 95.6 30.4 95.8 30.8 95.8 31.3 C 95.8 31.8 95.6 32.2 95.2 32.6 C 94.9 32.9 94.4 33.1 93.8 33.1 Z M 101.9 45.5 C 101 45.5 100.1 45.4 99.2 45.2 C 98.4 45 97.7 44.7 97.2 44.4 C 97.2 44.4 98.3 42.1 98.3 42.1 C 98.8 42.4 99.3 42.7 100 42.9 C 100.7 43.1 101.3 43.2 102 43.2 C 102.7 43.2 103.2 43.1 103.5 42.9 C 103.8 42.7 104 42.5 104 42.2 C 104 41.9 103.9 41.7 103.6 41.6 C 103.4 41.5 103.1 41.4 102.7 41.3 C 102.3 41.3 101.9 41.2 101.4 41.1 C 101 41.1 100.5 41 100 40.8 C 99.6 40.7 99.1 40.6 98.8 40.3 C 98.4 40.1 98.1 39.8 97.8 39.4 C 97.6 39 97.5 38.5 97.5 37.9 C 97.5 37.2 97.7 36.6 98.1 36.1 C 98.5 35.6 99 35.2 99.8 34.9 C 100.5 34.6 101.4 34.4 102.5 34.4 C 103.2 34.4 103.9 34.5 104.7 34.7 C 105.5 34.8 106.1 35.1 106.6 35.4 C 106.6 35.4 105.6 37.6 105.6 37.6 C 105 37.3 104.5 37.1 104 37 C 103.5 36.9 103 36.8 102.5 36.8 C 101.8 36.8 101.3 36.9 100.9 37.1 C 100.6 37.3 100.5 37.5 100.5 37.8 C 100.5 38.1 100.6 38.3 100.8 38.4 C 101 38.5 101.4 38.6 101.7 38.7 C 102.1 38.8 102.5 38.9 103 38.9 C 103.5 39 103.9 39.1 104.4 39.2 C 104.9 39.3 105.3 39.5 105.7 39.7 C 106 39.9 106.4 40.2 106.6 40.6 C 106.8 41 107 41.5 107 42.1 C 107 42.8 106.8 43.4 106.4 43.9 C 106 44.4 105.4 44.8 104.6 45.1 C 103.9 45.4 103 45.5 101.9 45.5 Z M 115.5 45.4 L 115.5 43.3 L 115.3 42.8 C 115.3 42.8 115.27 39.04 115.3 39 C 115.3 38.4 115.1 37.9 114.7 37.5 C 114.3 37.1 113.6 36.9 112.8 36.9 C 112.2 36.9 111.7 37 111.1 37.2 C 110.5 37.4 110.1 37.6 109.7 37.9 C 109.7 37.9 108.6 35.7 108.6 35.7 C 109.2 35.3 109.9 35 110.7 34.8 C 111.5 34.6 112.4 34.4 113.2 34.4 C 114.9 34.4 116.1 34.8 117 35.6 C 117.9 36.4 118.4 37.6 118.4 39.2 C 118.39 39.22 118.4 45.4 118.4 45.4 L 115.5 45.4 Z M 112.2 45.5 C 111.4 45.5 110.6 45.4 110 45.1 C 109.4 44.8 109 44.4 108.7 43.9 C 108.3 43.4 108.2 42.9 108.2 42.3 C 108.2 41.6 108.3 41.1 108.6 40.6 C 109 40.1 109.5 39.7 110.1 39.4 C 110.8 39.2 111.7 39 112.8 39 C 112.79 39.04 115.7 39 115.7 39 L 115.7 40.9 C 115.7 40.9 113.13 40.86 113.1 40.9 C 112.4 40.9 111.9 41 111.6 41.2 C 111.3 41.5 111.2 41.8 111.2 42.1 C 111.2 42.5 111.4 42.8 111.7 43.1 C 112 43.3 112.4 43.4 113 43.4 C 113.5 43.4 114 43.3 114.4 43 C 114.8 42.8 115.1 42.4 115.3 42 C 115.3 42 115.8 43.4 115.8 43.4 C 115.5 44.1 115.1 44.6 114.5 45 C 113.9 45.3 113.1 45.5 112.2 45.5 Z M 125.3 45.5 C 124.1 45.5 123.1 45.2 122.4 44.5 C 121.7 43.9 121.3 42.9 121.3 41.7 C 121.32 41.66 121.3 32.2 121.3 32.2 L 124.4 32.2 C 124.4 32.2 124.44 41.62 124.4 41.6 C 124.4 42.1 124.6 42.4 124.8 42.7 C 125 42.9 125.4 43 125.8 43 C 126.3 43 126.7 42.9 127 42.6 C 127 42.6 127.9 44.8 127.9 44.8 C 127.6 45.1 127.2 45.2 126.7 45.3 C 126.3 45.5 125.8 45.5 125.3 45.5 Z M 119.7 37.2 L 119.7 34.8 L 127.1 34.8 L 127.1 37.2 L 119.7 37.2 Z M 129.5 45.4 L 129.5 34.6 L 132.6 34.6 L 132.6 45.4 L 129.5 45.4 Z M 131 33.1 C 130.4 33.1 130 32.9 129.6 32.6 C 129.3 32.3 129.1 31.9 129.1 31.4 C 129.1 30.9 129.3 30.5 129.6 30.1 C 130 29.8 130.4 29.6 131 29.6 C 131.6 29.6 132.1 29.8 132.4 30.1 C 132.8 30.4 133 30.8 133 31.3 C 133 31.8 132.8 32.2 132.4 32.6 C 132.1 32.9 131.6 33.1 131 33.1 Z M 140.4 45.5 C 139.2 45.5 138.2 45.3 137.3 44.8 C 136.4 44.3 135.7 43.7 135.2 42.8 C 134.7 42 134.5 41 134.5 40 C 134.5 38.9 134.7 37.9 135.2 37.1 C 135.7 36.3 136.4 35.6 137.3 35.1 C 138.2 34.7 139.2 34.4 140.4 34.4 C 141.5 34.4 142.5 34.7 143.4 35.1 C 144.3 35.6 145 36.3 145.5 37.1 C 146 37.9 146.3 38.9 146.3 40 C 146.3 41 146 42 145.5 42.8 C 145 43.7 144.3 44.3 143.4 44.8 C 142.5 45.3 141.5 45.5 140.4 45.5 Z M 140.4 43 C 140.9 43 141.4 42.8 141.8 42.6 C 142.2 42.4 142.5 42 142.8 41.6 C 143 41.1 143.1 40.6 143.1 40 C 143.1 39.4 143 38.8 142.8 38.4 C 142.5 37.9 142.2 37.6 141.8 37.4 C 141.4 37.1 140.9 37 140.4 37 C 139.9 37 139.4 37.1 139 37.4 C 138.6 37.6 138.2 37.9 138 38.4 C 137.7 38.8 137.6 39.4 137.6 40 C 137.6 40.6 137.7 41.1 138 41.6 C 138.2 42 138.6 42.4 139 42.6 C 139.4 42.8 139.9 43 140.4 43 Z M 154.8 34.4 C 155.6 34.4 156.4 34.6 157.1 34.9 C 157.7 35.3 158.3 35.8 158.6 36.5 C 159 37.2 159.2 38.1 159.2 39.2 C 159.22 39.2 159.2 45.4 159.2 45.4 L 156.1 45.4 C 156.1 45.4 156.1 39.68 156.1 39.7 C 156.1 38.8 155.9 38.2 155.5 37.8 C 155.2 37.3 154.6 37.1 153.9 37.1 C 153.4 37.1 153 37.2 152.6 37.4 C 152.2 37.7 151.9 38 151.7 38.4 C 151.5 38.8 151.3 39.4 151.3 40 C 151.34 40.04 151.3 45.4 151.3 45.4 L 148.2 45.4 L 148.2 34.6 L 151.2 34.6 L 151.2 37.6 C 151.2 37.6 150.64 36.68 150.6 36.7 C 151 36 151.6 35.4 152.3 35 C 153 34.6 153.8 34.4 154.8 34.4 Z M 168.4 45.4 L 168.4 43.3 L 168.2 42.8 C 168.2 42.8 168.21 39.04 168.2 39 C 168.2 38.4 168 37.9 167.6 37.5 C 167.2 37.1 166.6 36.9 165.7 36.9 C 165.2 36.9 164.6 37 164 37.2 C 163.5 37.4 163 37.6 162.6 37.9 C 162.6 37.9 161.5 35.7 161.5 35.7 C 162.1 35.3 162.8 35 163.6 34.8 C 164.5 34.6 165.3 34.4 166.1 34.4 C 167.8 34.4 169.1 34.8 170 35.6 C 170.9 36.4 171.3 37.6 171.3 39.2 C 171.33 39.22 171.3 45.4 171.3 45.4 L 168.4 45.4 Z M 165.1 45.5 C 164.3 45.5 163.6 45.4 163 45.1 C 162.4 44.8 161.9 44.4 161.6 43.9 C 161.3 43.4 161.1 42.9 161.1 42.3 C 161.1 41.6 161.3 41.1 161.6 40.6 C 161.9 40.1 162.4 39.7 163.1 39.4 C 163.7 39.2 164.6 39 165.7 39 C 165.73 39.04 168.6 39 168.6 39 L 168.6 40.9 C 168.6 40.9 166.07 40.86 166.1 40.9 C 165.3 40.9 164.8 41 164.6 41.2 C 164.3 41.5 164.1 41.8 164.1 42.1 C 164.1 42.5 164.3 42.8 164.6 43.1 C 164.9 43.3 165.4 43.4 165.9 43.4 C 166.4 43.4 166.9 43.3 167.3 43 C 167.7 42.8 168 42.4 168.2 42 C 168.2 42 168.7 43.4 168.7 43.4 C 168.5 44.1 168 44.6 167.4 45 C 166.8 45.3 166.1 45.5 165.1 45.5 Z M 173.9 45.4 L 173.9 30.5 L 177.1 30.5 L 177.1 45.4 L 173.9 45.4 Z M 186 45.4 C 186 45.4 186 34.36 186 34.4 C 186 33.1 186.4 32.2 187.1 31.4 C 187.8 30.7 188.8 30.4 190.2 30.4 C 190.6 30.4 191.1 30.4 191.5 30.5 C 191.9 30.6 192.2 30.7 192.5 30.9 C 192.5 30.9 191.7 33.2 191.7 33.2 C 191.5 33.1 191.4 33 191.1 32.9 C 190.9 32.9 190.7 32.8 190.5 32.8 C 190 32.8 189.7 32.9 189.4 33.2 C 189.2 33.5 189 33.9 189 34.4 C 189.04 34.38 189 35.4 189 35.4 L 189.1 36.7 L 189.1 45.4 L 186 45.4 Z M 184.3 37.2 L 184.3 34.8 L 191.8 34.8 L 191.8 37.2 L 184.3 37.2 Z M 199.9 45.4 L 199.9 43.3 L 199.7 42.8 C 199.7 42.8 199.72 39.04 199.7 39 C 199.7 38.4 199.5 37.9 199.1 37.5 C 198.7 37.1 198.1 36.9 197.2 36.9 C 196.7 36.9 196.1 37 195.6 37.2 C 195 37.4 194.5 37.6 194.1 37.9 C 194.1 37.9 193 35.7 193 35.7 C 193.6 35.3 194.3 35 195.1 34.8 C 196 34.6 196.8 34.4 197.7 34.4 C 199.3 34.4 200.6 34.8 201.5 35.6 C 202.4 36.4 202.8 37.6 202.8 39.2 C 202.84 39.22 202.8 45.4 202.8 45.4 L 199.9 45.4 Z M 196.6 45.5 C 195.8 45.5 195.1 45.4 194.5 45.1 C 193.9 44.8 193.4 44.4 193.1 43.9 C 192.8 43.4 192.6 42.9 192.6 42.3 C 192.6 41.6 192.8 41.1 193.1 40.6 C 193.4 40.1 193.9 39.7 194.6 39.4 C 195.3 39.2 196.2 39 197.2 39 C 197.24 39.04 200.1 39 200.1 39 L 200.1 40.9 C 200.1 40.9 197.58 40.86 197.6 40.9 C 196.9 40.9 196.3 41 196.1 41.2 C 195.8 41.5 195.7 41.8 195.7 42.1 C 195.7 42.5 195.8 42.8 196.1 43.1 C 196.4 43.3 196.9 43.4 197.4 43.4 C 197.9 43.4 198.4 43.3 198.8 43 C 199.2 42.8 199.5 42.4 199.7 42 C 199.7 42 200.2 43.4 200.2 43.4 C 200 44.1 199.6 44.6 199 45 C 198.4 45.3 197.6 45.5 196.6 45.5 Z M 210.7 45.5 C 209.5 45.5 208.5 45.3 207.6 44.8 C 206.7 44.3 206 43.7 205.5 42.8 C 204.9 42 204.7 41 204.7 40 C 204.7 38.9 204.9 37.9 205.5 37.1 C 206 36.3 206.7 35.6 207.6 35.1 C 208.5 34.7 209.5 34.4 210.7 34.4 C 211.8 34.4 212.8 34.7 213.6 35.1 C 214.5 35.6 215.1 36.3 215.5 37.2 C 215.5 37.2 213.1 38.5 213.1 38.5 C 212.8 38 212.5 37.6 212 37.4 C 211.6 37.1 211.2 37 210.7 37 C 210.1 37 209.6 37.1 209.2 37.4 C 208.8 37.6 208.5 37.9 208.2 38.4 C 208 38.8 207.8 39.4 207.8 40 C 207.8 40.6 208 41.1 208.2 41.6 C 208.5 42 208.8 42.4 209.2 42.6 C 209.6 42.8 210.1 43 210.7 43 C 211.2 43 211.6 42.8 212 42.6 C 212.5 42.4 212.8 42 213.1 41.5 C 213.1 41.5 215.5 42.8 215.5 42.8 C 215.1 43.7 214.5 44.3 213.6 44.8 C 212.8 45.3 211.8 45.5 210.7 45.5 Z M 222 45.5 C 220.8 45.5 219.8 45.2 219.1 44.5 C 218.4 43.9 218 42.9 218 41.7 C 218.02 41.66 218 32.2 218 32.2 L 221.1 32.2 C 221.1 32.2 221.14 41.62 221.1 41.6 C 221.1 42.1 221.3 42.4 221.5 42.7 C 221.7 42.9 222.1 43 222.5 43 C 223 43 223.4 42.9 223.7 42.6 C 223.7 42.6 224.6 44.8 224.6 44.8 C 224.3 45.1 223.9 45.2 223.4 45.3 C 223 45.5 222.5 45.5 222 45.5 Z M 216.4 37.2 L 216.4 34.8 L 223.8 34.8 L 223.8 37.2 L 216.4 37.2 Z M 231.1 45.5 C 230 45.5 229 45.3 228.1 44.8 C 227.2 44.3 226.5 43.7 226 42.8 C 225.5 42 225.2 41 225.2 40 C 225.2 38.9 225.5 37.9 226 37.1 C 226.5 36.3 227.2 35.6 228.1 35.1 C 229 34.7 230 34.4 231.1 34.4 C 232.2 34.4 233.3 34.7 234.2 35.1 C 235 35.6 235.7 36.3 236.3 37.1 C 236.8 37.9 237 38.9 237 40 C 237 41 236.8 42 236.3 42.8 C 235.7 43.7 235 44.3 234.2 44.8 C 233.3 45.3 232.2 45.5 231.1 45.5 Z M 231.1 43 C 231.6 43 232.1 42.8 232.5 42.6 C 232.9 42.4 233.3 42 233.5 41.6 C 233.7 41.1 233.9 40.6 233.9 40 C 233.9 39.4 233.7 38.8 233.5 38.4 C 233.3 37.9 232.9 37.6 232.5 37.4 C 232.1 37.1 231.6 37 231.1 37 C 230.6 37 230.1 37.1 229.7 37.4 C 229.3 37.6 229 37.9 228.7 38.4 C 228.5 38.8 228.4 39.4 228.4 40 C 228.4 40.6 228.5 41.1 228.7 41.6 C 229 42 229.3 42.4 229.7 42.6 C 230.1 42.8 230.6 43 231.1 43 Z M 239 45.4 L 239 34.6 L 241.9 34.6 L 241.9 37.6 C 241.9 37.6 241.51 36.76 241.5 36.8 C 241.8 36 242.3 35.4 243.1 35 C 243.8 34.6 244.6 34.4 245.6 34.4 C 245.6 34.4 245.6 37.3 245.6 37.3 C 245.5 37.3 245.4 37.3 245.3 37.3 C 245.2 37.3 245.1 37.3 244.9 37.3 C 244.1 37.3 243.4 37.5 242.9 38 C 242.3 38.5 242.1 39.3 242.1 40.3 C 242.07 40.28 242.1 45.4 242.1 45.4 L 239 45.4 Z M 251.2 45.5 C 250.3 45.5 249.4 45.4 248.6 45.2 C 247.7 45 247.1 44.7 246.6 44.4 C 246.6 44.4 247.6 42.1 247.6 42.1 C 248.1 42.4 248.7 42.7 249.3 42.9 C 250 43.1 250.7 43.2 251.3 43.2 C 252.1 43.2 252.6 43.1 252.9 42.9 C 253.2 42.7 253.3 42.5 253.3 42.2 C 253.3 41.9 253.2 41.7 253 41.6 C 252.7 41.5 252.4 41.4 252 41.3 C 251.7 41.3 251.2 41.2 250.8 41.1 C 250.3 41.1 249.8 41 249.4 40.8 C 248.9 40.7 248.5 40.6 248.1 40.3 C 247.7 40.1 247.4 39.8 247.2 39.4 C 246.9 39 246.8 38.5 246.8 37.9 C 246.8 37.2 247 36.6 247.4 36.1 C 247.8 35.6 248.4 35.2 249.1 34.9 C 249.9 34.6 250.8 34.4 251.8 34.4 C 252.5 34.4 253.3 34.5 254 34.7 C 254.8 34.8 255.4 35.1 255.9 35.4 C 255.9 35.4 254.9 37.6 254.9 37.6 C 254.4 37.3 253.9 37.1 253.3 37 C 252.8 36.9 252.3 36.8 251.8 36.8 C 251.1 36.8 250.6 36.9 250.3 37.1 C 250 37.3 249.8 37.5 249.8 37.8 C 249.8 38.1 249.9 38.3 250.1 38.4 C 250.4 38.5 250.7 38.6 251.1 38.7 C 251.5 38.8 251.9 38.9 252.3 38.9 C 252.8 39 253.3 39.1 253.7 39.2 C 254.2 39.3 254.6 39.5 255 39.7 C 255.4 39.9 255.7 40.2 255.9 40.6 C 256.2 41 256.3 41.5 256.3 42.1 C 256.3 42.8 256.1 43.4 255.7 43.9 C 255.3 44.4 254.7 44.8 254 45.1 C 253.2 45.4 252.3 45.5 251.2 45.5 Z " stroke="none" fill="#fff"/>
  </g>
</svg>