<?xml version="1.0" standalone="no"?>
<!DOCTYPE svg PUBLIC "-//W3C//DTD SVG 1.1//EN" "http://www.w3.org/Graphics/SVG/1.1/DTD/svg11.dtd">
<svg xmlns="http://www.w3.org/2000/svg" version="1.1" width="445.2px" height="98.5px" viewBox="0 0 445.2 98.5">
  <desc>a work activity scheduled outside standard daytime hours, where there may be a handover of duty from one individual o...</desc>
  <defs/>
  <g id="Polygon122801">
    <path d="M 36 75.1 C 35.96 75.08 36 78.3 36 78.3 L 35.3 78.3 C 35.3 78.3 35.28 77.52 35.3 77.5 C 35 78.1 34.3 78.4 33.5 78.4 C 32.3 78.4 31.6 77.8 31.6 76.9 C 31.6 76 32.1 75.4 33.6 75.4 C 33.58 75.37 35.3 75.4 35.3 75.4 C 35.3 75.4 35.25 75.05 35.3 75.1 C 35.3 74.1 34.7 73.7 33.8 73.7 C 33.1 73.7 32.4 73.9 32 74.3 C 32 74.3 31.7 73.7 31.7 73.7 C 32.2 73.3 33 73 33.8 73 C 35.2 73 36 73.7 36 75.1 Z M 35.3 76.8 C 35.25 76.76 35.3 75.9 35.3 75.9 C 35.3 75.9 33.6 75.9 33.6 75.9 C 32.6 75.9 32.2 76.3 32.2 76.8 C 32.2 77.5 32.7 77.8 33.6 77.8 C 34.4 77.8 35 77.5 35.3 76.8 Z M 44.8 77.7 L 44.8 78.3 L 39.9 78.3 L 39.9 77.8 C 39.9 77.8 42.82 74.98 42.8 75 C 43.6 74.2 43.8 73.7 43.8 73.3 C 43.8 72.4 43.2 71.9 42.1 71.9 C 41.3 71.9 40.7 72.2 40.2 72.7 C 40.2 72.7 39.7 72.3 39.7 72.3 C 40.2 71.6 41.1 71.3 42.2 71.3 C 43.6 71.3 44.5 72 44.5 73.2 C 44.5 73.8 44.3 74.4 43.4 75.4 C 43.35 75.36 41 77.7 41 77.7 L 44.8 77.7 Z M 51.4 76.5 L 50 76.5 L 50 78.3 L 49.3 78.3 L 49.3 76.5 L 45.3 76.5 L 45.3 76 L 49 71.3 L 49.8 71.3 L 46.3 75.9 L 49.3 75.9 L 49.3 74.2 L 50 74.2 L 50 75.9 L 51.4 75.9 L 51.4 76.5 Z M 60 75.3 C 59.99 75.29 60 78.3 60 78.3 L 59.3 78.3 C 59.3 78.3 59.28 75.36 59.3 75.4 C 59.3 74.2 58.7 73.7 57.7 73.7 C 56.6 73.7 55.9 74.4 55.9 75.6 C 55.86 75.58 55.9 78.3 55.9 78.3 L 55.1 78.3 L 55.1 70.9 L 55.9 70.9 C 55.9 70.9 55.86 74 55.9 74 C 56.2 73.4 56.9 73 57.8 73 C 59.1 73 60 73.8 60 75.3 Z M 61.4 75.7 C 61.4 74.1 62.5 73 64.1 73 C 65.6 73 66.7 74.1 66.7 75.7 C 66.7 77.3 65.6 78.4 64.1 78.4 C 62.5 78.4 61.4 77.3 61.4 75.7 Z M 66 75.7 C 66 74.5 65.2 73.7 64.1 73.7 C 62.9 73.7 62.1 74.5 62.1 75.7 C 62.1 76.9 62.9 77.8 64.1 77.8 C 65.2 77.8 66 76.9 66 75.7 Z M 72.9 73.1 L 72.9 78.3 L 72.2 78.3 C 72.2 78.3 72.2 77.38 72.2 77.4 C 71.8 78 71.1 78.4 70.3 78.4 C 69 78.4 68.1 77.6 68.1 76.1 C 68.09 76.13 68.1 73.1 68.1 73.1 L 68.8 73.1 C 68.8 73.1 68.79 76.06 68.8 76.1 C 68.8 77.2 69.4 77.8 70.4 77.8 C 71.5 77.8 72.2 77 72.2 75.8 C 72.17 75.84 72.2 73.1 72.2 73.1 L 72.9 73.1 Z M 77.4 73 C 77.4 73 77.4 73.7 77.4 73.7 C 77.3 73.7 77.3 73.7 77.2 73.7 C 76.1 73.7 75.4 74.4 75.4 75.7 C 75.45 75.66 75.4 78.3 75.4 78.3 L 74.7 78.3 L 74.7 73.1 L 75.4 73.1 C 75.4 73.1 75.42 74.11 75.4 74.1 C 75.7 73.4 76.4 73 77.4 73 Z M 86.7 75.7 C 86.7 77.3 85.6 78.4 84.1 78.4 C 83.2 78.4 82.5 78 82.1 77.4 C 82.08 77.35 82.1 80.3 82.1 80.3 L 81.4 80.3 L 81.4 73.1 L 82 73.1 C 82 73.1 82.05 74.12 82 74.1 C 82.5 73.4 83.2 73 84.1 73 C 85.6 73 86.7 74.1 86.7 75.7 Z M 86 75.7 C 86 74.5 85.1 73.7 84 73.7 C 82.9 73.7 82.1 74.5 82.1 75.7 C 82.1 76.9 82.9 77.8 84 77.8 C 85.1 77.8 86 76.9 86 75.7 Z M 92.8 75.9 C 92.8 75.9 88.4 75.9 88.4 75.9 C 88.5 77 89.3 77.8 90.5 77.8 C 91.1 77.8 91.7 77.5 92.1 77.1 C 92.1 77.1 92.5 77.5 92.5 77.5 C 92 78.1 91.3 78.4 90.5 78.4 C 88.8 78.4 87.7 77.3 87.7 75.7 C 87.7 74.1 88.8 73 90.3 73 C 91.8 73 92.8 74.1 92.8 75.7 C 92.8 75.8 92.8 75.8 92.8 75.9 Z M 88.4 75.4 C 88.4 75.4 92.1 75.4 92.1 75.4 C 92.1 74.4 91.3 73.6 90.3 73.6 C 89.3 73.6 88.5 74.4 88.4 75.4 Z M 96.9 73 C 96.9 73 96.9 73.7 96.9 73.7 C 96.8 73.7 96.8 73.7 96.7 73.7 C 95.6 73.7 94.9 74.4 94.9 75.7 C 94.94 75.66 94.9 78.3 94.9 78.3 L 94.2 78.3 L 94.2 73.1 L 94.9 73.1 C 94.9 73.1 94.91 74.11 94.9 74.1 C 95.2 73.4 95.9 73 96.9 73 Z M 97.9 71.4 C 97.9 71.2 98.2 70.9 98.5 70.9 C 98.8 70.9 99 71.1 99 71.4 C 99 71.7 98.8 71.9 98.5 71.9 C 98.2 71.9 97.9 71.7 97.9 71.4 Z M 98.1 73.1 L 98.8 73.1 L 98.8 78.3 L 98.1 78.3 L 98.1 73.1 Z M 100.2 75.7 C 100.2 74.1 101.3 73 102.9 73 C 104.4 73 105.6 74.1 105.6 75.7 C 105.6 77.3 104.4 78.4 102.9 78.4 C 101.3 78.4 100.2 77.3 100.2 75.7 Z M 104.8 75.7 C 104.8 74.5 104 73.7 102.9 73.7 C 101.8 73.7 100.9 74.5 100.9 75.7 C 100.9 76.9 101.8 77.8 102.9 77.8 C 104 77.8 104.8 76.9 104.8 75.7 Z M 111.9 70.9 L 111.9 78.3 L 111.2 78.3 C 111.2 78.3 111.21 77.3 111.2 77.3 C 110.8 78 110.1 78.4 109.2 78.4 C 107.7 78.4 106.6 77.3 106.6 75.7 C 106.6 74.1 107.7 73 109.2 73 C 110 73 110.7 73.4 111.2 74.1 C 111.18 74.08 111.2 70.9 111.2 70.9 L 111.9 70.9 Z M 111.2 75.7 C 111.2 74.5 110.4 73.7 109.2 73.7 C 108.1 73.7 107.3 74.5 107.3 75.7 C 107.3 76.9 108.1 77.8 109.2 77.8 C 110.4 77.8 111.2 76.9 111.2 75.7 Z M 113.5 77.8 C 113.5 77.5 113.7 77.3 114 77.3 C 114.3 77.3 114.5 77.5 114.5 77.8 C 114.5 78.1 114.3 78.4 114 78.4 C 113.7 78.4 113.5 78.1 113.5 77.8 Z " stroke="none" fill="#323132"/>
  </g>
  <g id="Polygon122800">
    <path d="M 36 60.1 C 35.96 60.08 36 63.3 36 63.3 L 35.3 63.3 C 35.3 63.3 35.28 62.52 35.3 62.5 C 35 63.1 34.3 63.4 33.5 63.4 C 32.3 63.4 31.6 62.8 31.6 61.9 C 31.6 61 32.1 60.4 33.6 60.4 C 33.58 60.37 35.3 60.4 35.3 60.4 C 35.3 60.4 35.25 60.05 35.3 60.1 C 35.3 59.1 34.7 58.7 33.8 58.7 C 33.1 58.7 32.4 58.9 32 59.3 C 32 59.3 31.7 58.7 31.7 58.7 C 32.2 58.3 33 58 33.8 58 C 35.2 58 36 58.7 36 60.1 Z M 35.3 61.8 C 35.25 61.76 35.3 60.9 35.3 60.9 C 35.3 60.9 33.6 60.9 33.6 60.9 C 32.6 60.9 32.2 61.3 32.2 61.8 C 32.2 62.5 32.7 62.8 33.6 62.8 C 34.4 62.8 35 62.5 35.3 61.8 Z M 45.8 60.7 C 45.8 62.3 44.7 63.4 43.2 63.4 C 42.4 63.4 41.7 63 41.2 62.4 C 41.22 62.35 41.2 65.3 41.2 65.3 L 40.5 65.3 L 40.5 58.1 L 41.2 58.1 C 41.2 58.1 41.19 59.12 41.2 59.1 C 41.6 58.4 42.3 58 43.2 58 C 44.7 58 45.8 59.1 45.8 60.7 Z M 45.1 60.7 C 45.1 59.5 44.3 58.7 43.2 58.7 C 42 58.7 41.2 59.5 41.2 60.7 C 41.2 61.9 42 62.8 43.2 62.8 C 44.3 62.8 45.1 61.9 45.1 60.7 Z M 51.3 60.1 C 51.25 60.08 51.3 63.3 51.3 63.3 L 50.6 63.3 C 50.6 63.3 50.58 62.52 50.6 62.5 C 50.3 63.1 49.6 63.4 48.8 63.4 C 47.6 63.4 46.8 62.8 46.8 61.9 C 46.8 61 47.4 60.4 48.9 60.4 C 48.87 60.37 50.5 60.4 50.5 60.4 C 50.5 60.4 50.55 60.05 50.5 60.1 C 50.5 59.1 50 58.7 49.1 58.7 C 48.4 58.7 47.7 58.9 47.3 59.3 C 47.3 59.3 47 58.7 47 58.7 C 47.5 58.3 48.3 58 49.1 58 C 50.5 58 51.3 58.7 51.3 60.1 Z M 50.5 61.8 C 50.55 61.76 50.5 60.9 50.5 60.9 C 50.5 60.9 48.89 60.9 48.9 60.9 C 47.9 60.9 47.5 61.3 47.5 61.8 C 47.5 62.5 48 62.8 48.9 62.8 C 49.7 62.8 50.3 62.5 50.5 61.8 Z M 55.8 63 C 55.5 63.3 55.1 63.4 54.7 63.4 C 53.7 63.4 53.2 62.8 53.2 61.9 C 53.15 61.86 53.2 58.7 53.2 58.7 L 52.2 58.7 L 52.2 58.1 L 53.2 58.1 L 53.2 56.9 L 53.9 56.9 L 53.9 58.1 L 55.5 58.1 L 55.5 58.7 L 53.9 58.7 C 53.9 58.7 53.86 61.82 53.9 61.8 C 53.9 62.4 54.2 62.8 54.8 62.8 C 55.1 62.8 55.3 62.7 55.5 62.5 C 55.5 62.5 55.8 63 55.8 63 Z M 60 63 C 59.7 63.3 59.3 63.4 58.9 63.4 C 57.9 63.4 57.3 62.8 57.3 61.9 C 57.34 61.86 57.3 58.7 57.3 58.7 L 56.4 58.7 L 56.4 58.1 L 57.3 58.1 L 57.3 56.9 L 58.1 56.9 L 58.1 58.1 L 59.7 58.1 L 59.7 58.7 L 58.1 58.7 C 58.1 58.7 58.05 61.82 58.1 61.8 C 58.1 62.4 58.4 62.8 59 62.8 C 59.3 62.8 59.5 62.7 59.7 62.5 C 59.7 62.5 60 63 60 63 Z M 65.7 60.9 C 65.7 60.9 61.3 60.9 61.3 60.9 C 61.3 62 62.2 62.8 63.3 62.8 C 64 62.8 64.5 62.5 64.9 62.1 C 64.9 62.1 65.3 62.5 65.3 62.5 C 64.9 63.1 64.1 63.4 63.3 63.4 C 61.7 63.4 60.5 62.3 60.5 60.7 C 60.5 59.1 61.6 58 63.1 58 C 64.6 58 65.7 59.1 65.7 60.7 C 65.7 60.8 65.7 60.8 65.7 60.9 Z M 61.3 60.4 C 61.3 60.4 65 60.4 65 60.4 C 64.9 59.4 64.1 58.6 63.1 58.6 C 62.1 58.6 61.3 59.4 61.3 60.4 Z M 69.7 58 C 69.7 58 69.7 58.7 69.7 58.7 C 69.7 58.7 69.6 58.7 69.5 58.7 C 68.4 58.7 67.8 59.4 67.8 60.7 C 67.77 60.66 67.8 63.3 67.8 63.3 L 67.1 63.3 L 67.1 58.1 L 67.7 58.1 C 67.7 58.1 67.74 59.11 67.7 59.1 C 68.1 58.4 68.7 58 69.7 58 Z M 75.8 60.3 C 75.78 60.29 75.8 63.3 75.8 63.3 L 75.1 63.3 C 75.1 63.3 75.07 60.36 75.1 60.4 C 75.1 59.2 74.5 58.7 73.5 58.7 C 72.4 58.7 71.6 59.4 71.6 60.6 C 71.65 60.58 71.6 63.3 71.6 63.3 L 70.9 63.3 L 70.9 58.1 L 71.6 58.1 C 71.6 58.1 71.62 59.05 71.6 59 C 72 58.4 72.7 58 73.6 58 C 74.9 58 75.8 58.8 75.8 60.3 Z M 79.8 60.7 C 79.8 59.1 80.9 58 82.5 58 C 84 58 85.1 59.1 85.1 60.7 C 85.1 62.3 84 63.4 82.5 63.4 C 80.9 63.4 79.8 62.3 79.8 60.7 Z M 84.4 60.7 C 84.4 59.5 83.6 58.7 82.5 58.7 C 81.4 58.7 80.5 59.5 80.5 60.7 C 80.5 61.9 81.4 62.8 82.5 62.8 C 83.6 62.8 84.4 61.9 84.4 60.7 Z M 87.3 57.5 C 87.35 57.46 87.3 58.1 87.3 58.1 L 89 58.1 L 89 58.7 L 87.4 58.7 L 87.4 63.3 L 86.7 63.3 L 86.7 58.7 L 85.7 58.7 L 85.7 58.1 L 86.7 58.1 C 86.7 58.1 86.66 57.43 86.7 57.4 C 86.7 56.5 87.2 55.9 88.2 55.9 C 88.6 55.9 89 56 89.3 56.2 C 89.3 56.2 89.1 56.7 89.1 56.7 C 88.9 56.6 88.6 56.5 88.3 56.5 C 87.7 56.5 87.3 56.8 87.3 57.5 Z M 100.3 58.1 L 98.3 63.3 L 97.6 63.3 L 95.9 59 L 94.3 63.3 L 93.6 63.3 L 91.6 58.1 L 92.3 58.1 L 94 62.6 L 95.7 58.1 L 96.3 58.1 L 97.9 62.6 L 99.6 58.1 L 100.3 58.1 Z M 100.7 60.7 C 100.7 59.1 101.9 58 103.4 58 C 105 58 106.1 59.1 106.1 60.7 C 106.1 62.3 105 63.4 103.4 63.4 C 101.9 63.4 100.7 62.3 100.7 60.7 Z M 105.4 60.7 C 105.4 59.5 104.5 58.7 103.4 58.7 C 102.3 58.7 101.5 59.5 101.5 60.7 C 101.5 61.9 102.3 62.8 103.4 62.8 C 104.5 62.8 105.4 61.9 105.4 60.7 Z M 110.2 58 C 110.2 58 110.2 58.7 110.2 58.7 C 110.1 58.7 110 58.7 110 58.7 C 108.9 58.7 108.2 59.4 108.2 60.7 C 108.22 60.66 108.2 63.3 108.2 63.3 L 107.5 63.3 L 107.5 58.1 L 108.2 58.1 C 108.2 58.1 108.19 59.11 108.2 59.1 C 108.5 58.4 109.2 58 110.2 58 Z M 113.3 60.7 L 112.1 61.8 L 112.1 63.3 L 111.4 63.3 L 111.4 55.9 L 112.1 55.9 L 112.1 60.9 L 115.2 58.1 L 116.1 58.1 L 113.9 60.2 L 116.3 63.3 L 115.5 63.3 L 113.3 60.7 Z M 127.7 58.1 L 125.7 63.3 L 125.1 63.3 L 123.4 59 L 121.8 63.3 L 121.1 63.3 L 119.1 58.1 L 119.8 58.1 L 121.4 62.6 L 123.1 58.1 L 123.7 58.1 L 125.4 62.6 L 127.1 58.1 L 127.7 58.1 Z M 133.7 60.3 C 133.67 60.29 133.7 63.3 133.7 63.3 L 133 63.3 C 133 63.3 132.96 60.36 133 60.4 C 133 59.2 132.4 58.7 131.4 58.7 C 130.3 58.7 129.5 59.4 129.5 60.6 C 129.54 60.58 129.5 63.3 129.5 63.3 L 128.8 63.3 L 128.8 55.9 L 129.5 55.9 C 129.5 55.9 129.54 59 129.5 59 C 129.9 58.4 130.6 58 131.5 58 C 132.8 58 133.7 58.8 133.7 60.3 Z M 140.2 60.9 C 140.2 60.9 135.8 60.9 135.8 60.9 C 135.8 62 136.7 62.8 137.8 62.8 C 138.5 62.8 139 62.5 139.4 62.1 C 139.4 62.1 139.8 62.5 139.8 62.5 C 139.4 63.1 138.6 63.4 137.8 63.4 C 136.2 63.4 135.1 62.3 135.1 60.7 C 135.1 59.1 136.1 58 137.6 58 C 139.1 58 140.2 59.1 140.2 60.7 C 140.2 60.8 140.2 60.8 140.2 60.9 Z M 135.8 60.4 C 135.8 60.4 139.5 60.4 139.5 60.4 C 139.4 59.4 138.7 58.6 137.6 58.6 C 136.6 58.6 135.9 59.4 135.8 60.4 Z M 144.2 58 C 144.2 58 144.2 58.7 144.2 58.7 C 144.2 58.7 144.1 58.7 144.1 58.7 C 143 58.7 142.3 59.4 142.3 60.7 C 142.29 60.66 142.3 63.3 142.3 63.3 L 141.6 63.3 L 141.6 58.1 L 142.3 58.1 C 142.3 58.1 142.26 59.11 142.3 59.1 C 142.6 58.4 143.3 58 144.2 58 Z M 150 60.9 C 150 60.9 145.6 60.9 145.6 60.9 C 145.6 62 146.5 62.8 147.6 62.8 C 148.3 62.8 148.9 62.5 149.3 62.1 C 149.3 62.1 149.7 62.5 149.7 62.5 C 149.2 63.1 148.5 63.4 147.6 63.4 C 146 63.4 144.9 62.3 144.9 60.7 C 144.9 59.1 145.9 58 147.4 58 C 148.9 58 150 59.1 150 60.7 C 150 60.8 150 60.8 150 60.9 Z M 145.6 60.4 C 145.6 60.4 149.3 60.4 149.3 60.4 C 149.2 59.4 148.5 58.6 147.4 58.6 C 146.4 58.6 145.7 59.4 145.6 60.4 Z M 153.5 60.7 C 153.5 59.1 154.7 58 156.2 58 C 157.7 58 158.9 59.1 158.9 60.7 C 158.9 62.3 157.7 63.4 156.2 63.4 C 154.7 63.4 153.5 62.3 153.5 60.7 Z M 158.2 60.7 C 158.2 59.5 157.3 58.7 156.2 58.7 C 155.1 58.7 154.2 59.5 154.2 60.7 C 154.2 61.9 155.1 62.8 156.2 62.8 C 157.3 62.8 158.2 61.9 158.2 60.7 Z M 165.1 60.3 C 165.14 60.29 165.1 63.3 165.1 63.3 L 164.4 63.3 C 164.4 63.3 164.43 60.36 164.4 60.4 C 164.4 59.2 163.8 58.7 162.8 58.7 C 161.7 58.7 161 59.4 161 60.6 C 161.01 60.58 161 63.3 161 63.3 L 160.3 63.3 L 160.3 58.1 L 161 58.1 C 161 58.1 160.98 59.05 161 59 C 161.4 58.4 162.1 58 163 58 C 164.3 58 165.1 58.8 165.1 60.3 Z M 171.6 60.9 C 171.6 60.9 167.2 60.9 167.2 60.9 C 167.3 62 168.1 62.8 169.3 62.8 C 169.9 62.8 170.5 62.5 170.9 62.1 C 170.9 62.1 171.3 62.5 171.3 62.5 C 170.8 63.1 170.1 63.4 169.3 63.4 C 167.6 63.4 166.5 62.3 166.5 60.7 C 166.5 59.1 167.6 58 169.1 58 C 170.6 58 171.6 59.1 171.6 60.7 C 171.6 60.8 171.6 60.8 171.6 60.9 Z M 167.2 60.4 C 167.2 60.4 171 60.4 171 60.4 C 170.9 59.4 170.1 58.6 169.1 58.6 C 168.1 58.6 167.3 59.4 167.2 60.4 Z M 180.3 60.9 C 180.3 60.9 175.9 60.9 175.9 60.9 C 176 62 176.8 62.8 178 62.8 C 178.6 62.8 179.2 62.5 179.6 62.1 C 179.6 62.1 180 62.5 180 62.5 C 179.5 63.1 178.8 63.4 177.9 63.4 C 176.3 63.4 175.2 62.3 175.2 60.7 C 175.2 59.1 176.3 58 177.7 58 C 179.2 58 180.3 59.1 180.3 60.7 C 180.3 60.8 180.3 60.8 180.3 60.9 Z M 175.9 60.4 C 175.9 60.4 179.6 60.4 179.6 60.4 C 179.5 59.4 178.8 58.6 177.7 58.6 C 176.7 58.6 176 59.4 175.9 60.4 Z M 190.4 60.3 C 190.38 60.29 190.4 63.3 190.4 63.3 L 189.7 63.3 C 189.7 63.3 189.67 60.36 189.7 60.4 C 189.7 59.2 189.1 58.7 188.2 58.7 C 187.1 58.7 186.4 59.4 186.4 60.6 C 186.4 60.58 186.4 63.3 186.4 63.3 L 185.7 63.3 C 185.7 63.3 185.69 60.36 185.7 60.4 C 185.7 59.2 185.1 58.7 184.2 58.7 C 183.1 58.7 182.4 59.4 182.4 60.6 C 182.41 60.58 182.4 63.3 182.4 63.3 L 181.7 63.3 L 181.7 58.1 L 182.4 58.1 C 182.4 58.1 182.38 59.04 182.4 59 C 182.8 58.4 183.4 58 184.3 58 C 185.2 58 185.9 58.4 186.2 59.1 C 186.6 58.5 187.3 58 188.3 58 C 189.5 58 190.4 58.8 190.4 60.3 Z M 197.5 60.7 C 197.5 62.3 196.4 63.4 194.9 63.4 C 194.1 63.4 193.4 63 192.9 62.4 C 192.92 62.35 192.9 65.3 192.9 65.3 L 192.2 65.3 L 192.2 58.1 L 192.9 58.1 C 192.9 58.1 192.89 59.12 192.9 59.1 C 193.3 58.4 194.1 58 194.9 58 C 196.4 58 197.5 59.1 197.5 60.7 Z M 196.8 60.7 C 196.8 59.5 196 58.7 194.9 58.7 C 193.8 58.7 192.9 59.5 192.9 60.7 C 192.9 61.9 193.8 62.8 194.9 62.8 C 196 62.8 196.8 61.9 196.8 60.7 Z M 199 55.9 L 199.7 55.9 L 199.7 63.3 L 199 63.3 L 199 55.9 Z M 201.1 60.7 C 201.1 59.1 202.3 58 203.8 58 C 205.3 58 206.5 59.1 206.5 60.7 C 206.5 62.3 205.3 63.4 203.8 63.4 C 202.3 63.4 201.1 62.3 201.1 60.7 Z M 205.8 60.7 C 205.8 59.5 204.9 58.7 203.8 58.7 C 202.7 58.7 201.8 59.5 201.8 60.7 C 201.8 61.9 202.7 62.8 203.8 62.8 C 204.9 62.8 205.8 61.9 205.8 60.7 Z M 212.3 58.1 C 212.3 58.1 209.63 63.97 209.6 64 C 209.2 65 208.6 65.3 207.9 65.3 C 207.4 65.3 206.9 65.2 206.6 64.9 C 206.6 64.9 206.9 64.3 206.9 64.3 C 207.2 64.6 207.5 64.7 207.9 64.7 C 208.4 64.7 208.7 64.5 209 63.8 C 208.98 63.84 209.2 63.3 209.2 63.3 L 206.9 58.1 L 207.6 58.1 L 209.6 62.6 L 211.6 58.1 L 212.3 58.1 Z M 217.8 60.9 C 217.8 60.9 213.4 60.9 213.4 60.9 C 213.4 62 214.3 62.8 215.4 62.8 C 216.1 62.8 216.6 62.5 217 62.1 C 217 62.1 217.4 62.5 217.4 62.5 C 217 63.1 216.2 63.4 215.4 63.4 C 213.8 63.4 212.6 62.3 212.6 60.7 C 212.6 59.1 213.7 58 215.2 58 C 216.7 58 217.8 59.1 217.8 60.7 C 217.8 60.8 217.8 60.8 217.8 60.9 Z M 213.4 60.4 C 213.4 60.4 217.1 60.4 217.1 60.4 C 217 59.4 216.2 58.6 215.2 58.6 C 214.2 58.6 213.4 59.4 213.4 60.4 Z M 223.9 60.9 C 223.9 60.9 219.5 60.9 219.5 60.9 C 219.6 62 220.4 62.8 221.5 62.8 C 222.2 62.8 222.8 62.5 223.2 62.1 C 223.2 62.1 223.6 62.5 223.6 62.5 C 223.1 63.1 222.4 63.4 221.5 63.4 C 219.9 63.4 218.8 62.3 218.8 60.7 C 218.8 59.1 219.9 58 221.3 58 C 222.8 58 223.9 59.1 223.9 60.7 C 223.9 60.8 223.9 60.8 223.9 60.9 Z M 219.5 60.4 C 219.5 60.4 223.2 60.4 223.2 60.4 C 223.1 59.4 222.4 58.6 221.3 58.6 C 220.3 58.6 219.6 59.4 219.5 60.4 Z M 230.6 58 C 230.6 58 230.6 58.7 230.6 58.7 C 230.5 58.7 230.5 58.7 230.4 58.7 C 229.3 58.7 228.7 59.4 228.7 60.7 C 228.66 60.66 228.7 63.3 228.7 63.3 L 228 63.3 L 228 58.1 L 228.6 58.1 C 228.6 58.1 228.63 59.11 228.6 59.1 C 229 58.4 229.6 58 230.6 58 Z M 236.3 60.9 C 236.3 60.9 231.9 60.9 231.9 60.9 C 232 62 232.9 62.8 234 62.8 C 234.7 62.8 235.2 62.5 235.6 62.1 C 235.6 62.1 236 62.5 236 62.5 C 235.6 63.1 234.8 63.4 234 63.4 C 232.4 63.4 231.2 62.3 231.2 60.7 C 231.2 59.1 232.3 58 233.8 58 C 235.3 58 236.4 59.1 236.4 60.7 C 236.4 60.8 236.3 60.8 236.3 60.9 Z M 231.9 60.4 C 231.9 60.4 235.7 60.4 235.7 60.4 C 235.6 59.4 234.8 58.6 233.8 58.6 C 232.8 58.6 232 59.4 231.9 60.4 Z M 243.1 60.7 C 243.1 62.3 242 63.4 240.5 63.4 C 239.6 63.4 238.9 63 238.5 62.4 C 238.47 62.35 238.5 65.3 238.5 65.3 L 237.8 65.3 L 237.8 58.1 L 238.4 58.1 C 238.4 58.1 238.44 59.12 238.4 59.1 C 238.9 58.4 239.6 58 240.5 58 C 242 58 243.1 59.1 243.1 60.7 Z M 242.4 60.7 C 242.4 59.5 241.5 58.7 240.4 58.7 C 239.3 58.7 238.5 59.5 238.5 60.7 C 238.5 61.9 239.3 62.8 240.4 62.8 C 241.5 62.8 242.4 61.9 242.4 60.7 Z M 244.5 55.9 L 245.3 55.9 L 245.3 63.3 L 244.5 63.3 L 244.5 55.9 Z M 251.1 60.1 C 251.13 60.08 251.1 63.3 251.1 63.3 L 250.5 63.3 C 250.5 63.3 250.45 62.52 250.5 62.5 C 250.1 63.1 249.5 63.4 248.6 63.4 C 247.5 63.4 246.7 62.8 246.7 61.9 C 246.7 61 247.2 60.4 248.8 60.4 C 248.75 60.37 250.4 60.4 250.4 60.4 C 250.4 60.4 250.42 60.05 250.4 60.1 C 250.4 59.1 249.9 58.7 248.9 58.7 C 248.3 58.7 247.6 58.9 247.2 59.3 C 247.2 59.3 246.9 58.7 246.9 58.7 C 247.4 58.3 248.2 58 249 58 C 250.4 58 251.1 58.7 251.1 60.1 Z M 250.4 61.8 C 250.42 61.76 250.4 60.9 250.4 60.9 C 250.4 60.9 248.77 60.9 248.8 60.9 C 247.8 60.9 247.4 61.3 247.4 61.8 C 247.4 62.5 247.9 62.8 248.8 62.8 C 249.6 62.8 250.1 62.5 250.4 61.8 Z M 252.5 60.7 C 252.5 59.1 253.7 58 255.2 58 C 256.1 58 256.9 58.4 257.3 59.1 C 257.3 59.1 256.8 59.4 256.8 59.4 C 256.4 58.9 255.8 58.7 255.2 58.7 C 254.1 58.7 253.2 59.5 253.2 60.7 C 253.2 62 254.1 62.8 255.2 62.8 C 255.8 62.8 256.4 62.5 256.8 62 C 256.8 62 257.3 62.4 257.3 62.4 C 256.9 63 256.1 63.4 255.2 63.4 C 253.7 63.4 252.5 62.3 252.5 60.7 Z M 263.2 60.9 C 263.2 60.9 258.8 60.9 258.8 60.9 C 258.9 62 259.7 62.8 260.9 62.8 C 261.5 62.8 262.1 62.5 262.5 62.1 C 262.5 62.1 262.9 62.5 262.9 62.5 C 262.4 63.1 261.7 63.4 260.8 63.4 C 259.2 63.4 258.1 62.3 258.1 60.7 C 258.1 59.1 259.2 58 260.7 58 C 262.1 58 263.2 59.1 263.2 60.7 C 263.2 60.8 263.2 60.8 263.2 60.9 Z M 258.8 60.4 C 258.8 60.4 262.5 60.4 262.5 60.4 C 262.4 59.4 261.7 58.6 260.7 58.6 C 259.6 58.6 258.9 59.4 258.8 60.4 Z M 264 62.7 C 264 62.7 264.3 62.2 264.3 62.2 C 264.7 62.5 265.5 62.8 266.2 62.8 C 267.2 62.8 267.6 62.4 267.6 61.9 C 267.6 60.5 264.2 61.6 264.2 59.5 C 264.2 58.7 264.9 58 266.3 58 C 267 58 267.7 58.2 268.1 58.5 C 268.1 58.5 267.8 59.1 267.8 59.1 C 267.4 58.8 266.8 58.6 266.3 58.6 C 265.3 58.6 264.9 59 264.9 59.5 C 264.9 60.9 268.3 59.9 268.3 61.9 C 268.3 62.8 267.5 63.4 266.1 63.4 C 265.3 63.4 264.4 63.1 264 62.7 Z M 276.2 60.1 C 276.21 60.08 276.2 63.3 276.2 63.3 L 275.5 63.3 C 275.5 63.3 275.53 62.52 275.5 62.5 C 275.2 63.1 274.6 63.4 273.7 63.4 C 272.5 63.4 271.8 62.8 271.8 61.9 C 271.8 61 272.3 60.4 273.8 60.4 C 273.83 60.37 275.5 60.4 275.5 60.4 C 275.5 60.4 275.5 60.05 275.5 60.1 C 275.5 59.1 275 58.7 274 58.7 C 273.3 58.7 272.7 58.9 272.3 59.3 C 272.3 59.3 271.9 58.7 271.9 58.7 C 272.5 58.3 273.3 58 274.1 58 C 275.4 58 276.2 58.7 276.2 60.1 Z M 275.5 61.8 C 275.5 61.76 275.5 60.9 275.5 60.9 C 275.5 60.9 273.85 60.9 273.9 60.9 C 272.8 60.9 272.5 61.3 272.5 61.8 C 272.5 62.5 273 62.8 273.8 62.8 C 274.6 62.8 275.2 62.5 275.5 61.8 Z M 282.9 60.3 C 282.87 60.29 282.9 63.3 282.9 63.3 L 282.2 63.3 C 282.2 63.3 282.16 60.36 282.2 60.4 C 282.2 59.2 281.6 58.7 280.6 58.7 C 279.4 58.7 278.7 59.4 278.7 60.6 C 278.74 60.58 278.7 63.3 278.7 63.3 L 278 63.3 L 278 58.1 L 278.7 58.1 C 278.7 58.1 278.71 59.05 278.7 59 C 279.1 58.4 279.8 58 280.7 58 C 282 58 282.9 58.8 282.9 60.3 Z M 284.3 60.7 C 284.3 59.1 285.4 58 286.9 58 C 288.5 58 289.6 59.1 289.6 60.7 C 289.6 62.3 288.5 63.4 286.9 63.4 C 285.4 63.4 284.3 62.3 284.3 60.7 Z M 288.9 60.7 C 288.9 59.5 288.1 58.7 286.9 58.7 C 285.8 58.7 285 59.5 285 60.7 C 285 61.9 285.8 62.8 286.9 62.8 C 288.1 62.8 288.9 61.9 288.9 60.7 Z M 293.8 63 C 293.5 63.3 293.1 63.4 292.6 63.4 C 291.7 63.4 291.1 62.8 291.1 61.9 C 291.11 61.86 291.1 58.7 291.1 58.7 L 290.2 58.7 L 290.2 58.1 L 291.1 58.1 L 291.1 56.9 L 291.8 56.9 L 291.8 58.1 L 293.4 58.1 L 293.4 58.7 L 291.8 58.7 C 291.8 58.7 291.82 61.82 291.8 61.8 C 291.8 62.4 292.1 62.8 292.7 62.8 C 293 62.8 293.3 62.7 293.5 62.5 C 293.5 62.5 293.8 63 293.8 63 Z M 299.8 60.3 C 299.78 60.29 299.8 63.3 299.8 63.3 L 299.1 63.3 C 299.1 63.3 299.08 60.36 299.1 60.4 C 299.1 59.2 298.5 58.7 297.5 58.7 C 296.4 58.7 295.7 59.4 295.7 60.6 C 295.65 60.58 295.7 63.3 295.7 63.3 L 294.9 63.3 L 294.9 55.9 L 295.7 55.9 C 295.7 55.9 295.65 59 295.7 59 C 296 58.4 296.7 58 297.6 58 C 298.9 58 299.8 58.8 299.8 60.3 Z M 306.3 60.9 C 306.3 60.9 301.9 60.9 301.9 60.9 C 302 62 302.8 62.8 303.9 62.8 C 304.6 62.8 305.2 62.5 305.6 62.1 C 305.6 62.1 306 62.5 306 62.5 C 305.5 63.1 304.8 63.4 303.9 63.4 C 302.3 63.4 301.2 62.3 301.2 60.7 C 301.2 59.1 302.3 58 303.7 58 C 305.2 58 306.3 59.1 306.3 60.7 C 306.3 60.8 306.3 60.8 306.3 60.9 Z M 301.9 60.4 C 301.9 60.4 305.6 60.4 305.6 60.4 C 305.5 59.4 304.8 58.6 303.7 58.6 C 302.7 58.6 302 59.4 301.9 60.4 Z M 310.3 58 C 310.3 58 310.3 58.7 310.3 58.7 C 310.3 58.7 310.2 58.7 310.2 58.7 C 309.1 58.7 308.4 59.4 308.4 60.7 C 308.4 60.66 308.4 63.3 308.4 63.3 L 307.7 63.3 L 307.7 58.1 L 308.4 58.1 C 308.4 58.1 308.37 59.11 308.4 59.1 C 308.7 58.4 309.4 58 310.3 58 Z M 313.8 60.7 C 313.8 59.1 314.9 58 316.5 58 C 318 58 319.1 59.1 319.1 60.7 C 319.1 62.3 318 63.4 316.5 63.4 C 314.9 63.4 313.8 62.3 313.8 60.7 Z M 318.4 60.7 C 318.4 59.5 317.6 58.7 316.5 58.7 C 315.4 58.7 314.5 59.5 314.5 60.7 C 314.5 61.9 315.4 62.8 316.5 62.8 C 317.6 62.8 318.4 61.9 318.4 60.7 Z M 325.4 60.3 C 325.41 60.29 325.4 63.3 325.4 63.3 L 324.7 63.3 C 324.7 63.3 324.7 60.36 324.7 60.4 C 324.7 59.2 324.1 58.7 323.1 58.7 C 322 58.7 321.3 59.4 321.3 60.6 C 321.28 60.58 321.3 63.3 321.3 63.3 L 320.6 63.3 L 320.6 58.1 L 321.2 58.1 C 321.2 58.1 321.25 59.05 321.2 59 C 321.6 58.4 322.3 58 323.2 58 C 324.5 58 325.4 58.8 325.4 60.3 Z M 332.7 63 C 332.4 63.3 332 63.4 331.6 63.4 C 330.6 63.4 330.1 62.8 330.1 61.9 C 330.08 61.86 330.1 58.7 330.1 58.7 L 329.1 58.7 L 329.1 58.1 L 330.1 58.1 L 330.1 56.9 L 330.8 56.9 L 330.8 58.1 L 332.4 58.1 L 332.4 58.7 L 330.8 58.7 C 330.8 58.7 330.79 61.82 330.8 61.8 C 330.8 62.4 331.1 62.8 331.7 62.8 C 332 62.8 332.3 62.7 332.5 62.5 C 332.5 62.5 332.7 63 332.7 63 Z M 338.8 60.3 C 338.75 60.29 338.8 63.3 338.8 63.3 L 338 63.3 C 338 63.3 338.05 60.36 338 60.4 C 338 59.2 337.5 58.7 336.5 58.7 C 335.3 58.7 334.6 59.4 334.6 60.6 C 334.62 60.58 334.6 63.3 334.6 63.3 L 333.9 63.3 L 333.9 55.9 L 334.6 55.9 C 334.6 55.9 334.62 59 334.6 59 C 335 58.4 335.7 58 336.6 58 C 337.9 58 338.8 58.8 338.8 60.3 Z M 345.2 60.9 C 345.2 60.9 340.8 60.9 340.8 60.9 C 340.9 62 341.8 62.8 342.9 62.8 C 343.6 62.8 344.1 62.5 344.5 62.1 C 344.5 62.1 344.9 62.5 344.9 62.5 C 344.5 63.1 343.7 63.4 342.9 63.4 C 341.3 63.4 340.1 62.3 340.1 60.7 C 340.1 59.1 341.2 58 342.7 58 C 344.2 58 345.3 59.1 345.3 60.7 C 345.3 60.8 345.2 60.8 345.2 60.9 Z M 340.8 60.4 C 340.8 60.4 344.6 60.4 344.6 60.4 C 344.5 59.4 343.7 58.6 342.7 58.6 C 341.7 58.6 340.9 59.4 340.8 60.4 Z M 348.6 62.7 C 348.6 62.7 348.9 62.2 348.9 62.2 C 349.3 62.5 350 62.8 350.8 62.8 C 351.8 62.8 352.2 62.4 352.2 61.9 C 352.2 60.5 348.8 61.6 348.8 59.5 C 348.8 58.7 349.5 58 350.9 58 C 351.5 58 352.3 58.2 352.7 58.5 C 352.7 58.5 352.4 59.1 352.4 59.1 C 352 58.8 351.4 58.6 350.9 58.6 C 349.9 58.6 349.5 59 349.5 59.5 C 349.5 60.9 352.9 59.9 352.9 61.9 C 352.9 62.8 352.1 63.4 350.7 63.4 C 349.9 63.4 349 63.1 348.6 62.7 Z M 358.3 60.1 C 358.29 60.08 358.3 63.3 358.3 63.3 L 357.6 63.3 C 357.6 63.3 357.61 62.52 357.6 62.5 C 357.3 63.1 356.7 63.4 355.8 63.4 C 354.6 63.4 353.9 62.8 353.9 61.9 C 353.9 61 354.4 60.4 355.9 60.4 C 355.91 60.37 357.6 60.4 357.6 60.4 C 357.6 60.4 357.58 60.05 357.6 60.1 C 357.6 59.1 357.1 58.7 356.1 58.7 C 355.4 58.7 354.8 58.9 354.3 59.3 C 354.3 59.3 354 58.7 354 58.7 C 354.6 58.3 355.3 58 356.2 58 C 357.5 58 358.3 58.7 358.3 60.1 Z M 357.6 61.8 C 357.58 61.76 357.6 60.9 357.6 60.9 C 357.6 60.9 355.93 60.9 355.9 60.9 C 354.9 60.9 354.6 61.3 354.6 61.8 C 354.6 62.5 355.1 62.8 355.9 62.8 C 356.7 62.8 357.3 62.5 357.6 61.8 Z M 368.8 60.3 C 368.79 60.29 368.8 63.3 368.8 63.3 L 368.1 63.3 C 368.1 63.3 368.08 60.36 368.1 60.4 C 368.1 59.2 367.5 58.7 366.6 58.7 C 365.5 58.7 364.8 59.4 364.8 60.6 C 364.81 60.58 364.8 63.3 364.8 63.3 L 364.1 63.3 C 364.1 63.3 364.1 60.36 364.1 60.4 C 364.1 59.2 363.5 58.7 362.6 58.7 C 361.5 58.7 360.8 59.4 360.8 60.6 C 360.82 60.58 360.8 63.3 360.8 63.3 L 360.1 63.3 L 360.1 58.1 L 360.8 58.1 C 360.8 58.1 360.79 59.04 360.8 59 C 361.2 58.4 361.8 58 362.7 58 C 363.6 58 364.3 58.4 364.6 59.1 C 365 58.5 365.7 58 366.7 58 C 367.9 58 368.8 58.8 368.8 60.3 Z M 375.3 60.9 C 375.3 60.9 370.9 60.9 370.9 60.9 C 371 62 371.8 62.8 373 62.8 C 373.6 62.8 374.2 62.5 374.6 62.1 C 374.6 62.1 375 62.5 375 62.5 C 374.5 63.1 373.8 63.4 372.9 63.4 C 371.3 63.4 370.2 62.3 370.2 60.7 C 370.2 59.1 371.3 58 372.7 58 C 374.2 58 375.3 59.1 375.3 60.7 C 375.3 60.8 375.3 60.8 375.3 60.9 Z M 370.9 60.4 C 370.9 60.4 374.6 60.4 374.6 60.4 C 374.5 59.4 373.8 58.6 372.7 58.6 C 371.7 58.6 371 59.4 370.9 60.4 Z M 379.3 56.4 C 379.3 56.2 379.5 55.9 379.8 55.9 C 380.1 55.9 380.3 56.1 380.3 56.4 C 380.3 56.7 380.1 56.9 379.8 56.9 C 379.5 56.9 379.3 56.7 379.3 56.4 Z M 377.5 65 C 377.5 65 377.7 64.5 377.7 64.5 C 377.9 64.6 378.2 64.7 378.6 64.7 C 379.1 64.7 379.4 64.4 379.4 63.7 C 379.42 63.73 379.4 58.1 379.4 58.1 L 380.1 58.1 C 380.1 58.1 380.13 63.73 380.1 63.7 C 380.1 64.7 379.6 65.3 378.6 65.3 C 378.2 65.3 377.7 65.2 377.5 65 Z M 381.5 60.7 C 381.5 59.1 382.7 58 384.2 58 C 385.7 58 386.9 59.1 386.9 60.7 C 386.9 62.3 385.7 63.4 384.2 63.4 C 382.7 63.4 381.5 62.3 381.5 60.7 Z M 386.2 60.7 C 386.2 59.5 385.3 58.7 384.2 58.7 C 383.1 58.7 382.2 59.5 382.2 60.7 C 382.2 61.9 383.1 62.8 384.2 62.8 C 385.3 62.8 386.2 61.9 386.2 60.7 Z M 393.6 60.7 C 393.6 62.3 392.5 63.4 391 63.4 C 390.1 63.4 389.4 63 389 62.3 C 388.98 62.3 389 63.3 389 63.3 L 388.3 63.3 L 388.3 55.9 L 389 55.9 C 389 55.9 389.01 59.08 389 59.1 C 389.4 58.4 390.2 58 391 58 C 392.5 58 393.6 59.1 393.6 60.7 Z M 392.9 60.7 C 392.9 59.5 392.1 58.7 391 58.7 C 389.8 58.7 389 59.5 389 60.7 C 389 61.9 389.8 62.8 391 62.8 C 392.1 62.8 392.9 61.9 392.9 60.7 Z M 405.4 58.1 L 403.4 63.3 L 402.8 63.3 L 401.1 59 L 399.4 63.3 L 398.8 63.3 L 396.8 58.1 L 397.5 58.1 L 399.1 62.6 L 400.8 58.1 L 401.4 58.1 L 403.1 62.6 L 404.8 58.1 L 405.4 58.1 Z M 406.4 56.4 C 406.4 56.2 406.6 55.9 406.9 55.9 C 407.2 55.9 407.4 56.1 407.4 56.4 C 407.4 56.7 407.2 56.9 406.9 56.9 C 406.6 56.9 406.4 56.7 406.4 56.4 Z M 406.5 58.1 L 407.2 58.1 L 407.2 63.3 L 406.5 63.3 L 406.5 58.1 Z M 411.9 63 C 411.6 63.3 411.2 63.4 410.8 63.4 C 409.8 63.4 409.3 62.8 409.3 61.9 C 409.28 61.86 409.3 58.7 409.3 58.7 L 408.3 58.7 L 408.3 58.1 L 409.3 58.1 L 409.3 56.9 L 410 56.9 L 410 58.1 L 411.6 58.1 L 411.6 58.7 L 410 58.7 C 410 58.7 409.99 61.82 410 61.8 C 410 62.4 410.3 62.8 410.9 62.8 C 411.2 62.8 411.5 62.7 411.7 62.5 C 411.7 62.5 411.9 63 411.9 63 Z M 418 60.3 C 417.96 60.29 418 63.3 418 63.3 L 417.2 63.3 C 417.2 63.3 417.25 60.36 417.2 60.4 C 417.2 59.2 416.7 58.7 415.7 58.7 C 414.5 58.7 413.8 59.4 413.8 60.6 C 413.83 60.58 413.8 63.3 413.8 63.3 L 413.1 63.3 L 413.1 55.9 L 413.8 55.9 C 413.8 55.9 413.83 59 413.8 59 C 414.2 58.4 414.9 58 415.8 58 C 417.1 58 418 58.8 418 60.3 Z M 419.6 56.4 C 419.6 56.2 419.8 55.9 420.1 55.9 C 420.4 55.9 420.6 56.1 420.6 56.4 C 420.6 56.7 420.4 56.9 420.1 56.9 C 419.8 56.9 419.6 56.7 419.6 56.4 Z M 419.7 58.1 L 420.5 58.1 L 420.5 63.3 L 419.7 63.3 L 419.7 58.1 Z M 427.1 60.3 C 427.13 60.29 427.1 63.3 427.1 63.3 L 426.4 63.3 C 426.4 63.3 426.42 60.36 426.4 60.4 C 426.4 59.2 425.8 58.7 424.8 58.7 C 423.7 58.7 423 59.4 423 60.6 C 423 60.58 423 63.3 423 63.3 L 422.3 63.3 L 422.3 58.1 L 423 58.1 C 423 58.1 422.97 59.05 423 59 C 423.4 58.4 424.1 58 425 58 C 426.3 58 427.1 58.8 427.1 60.3 Z " stroke="none" fill="#323132"/>
  </g>
  <g id="Polygon122799">
    <path d="M 20.4 60.7 L 16.2 62.8 L 16.2 58.6 L 20.4 60.7 Z " stroke="none" fill="#a243ff"/>
  </g>
  <g id="Polygon122798">
    <path d="M 36 39.1 C 35.96 39.08 36 42.3 36 42.3 L 35.3 42.3 C 35.3 42.3 35.28 41.52 35.3 41.5 C 35 42.1 34.3 42.4 33.5 42.4 C 32.3 42.4 31.6 41.8 31.6 40.9 C 31.6 40 32.1 39.4 33.6 39.4 C 33.58 39.37 35.3 39.4 35.3 39.4 C 35.3 39.4 35.25 39.05 35.3 39.1 C 35.3 38.1 34.7 37.7 33.8 37.7 C 33.1 37.7 32.4 37.9 32 38.3 C 32 38.3 31.7 37.7 31.7 37.7 C 32.2 37.3 33 37 33.8 37 C 35.2 37 36 37.7 36 39.1 Z M 35.3 40.8 C 35.25 40.76 35.3 39.9 35.3 39.9 C 35.3 39.9 33.6 39.9 33.6 39.9 C 32.6 39.9 32.2 40.3 32.2 40.8 C 32.2 41.5 32.7 41.8 33.6 41.8 C 34.4 41.8 35 41.5 35.3 40.8 Z M 45.3 39.3 C 45.35 39.29 45.3 42.3 45.3 42.3 L 44.6 42.3 C 44.6 42.3 44.64 39.36 44.6 39.4 C 44.6 38.2 44.1 37.7 43.1 37.7 C 41.9 37.7 41.2 38.4 41.2 39.6 C 41.22 39.58 41.2 42.3 41.2 42.3 L 40.5 42.3 L 40.5 34.9 L 41.2 34.9 C 41.2 34.9 41.22 38 41.2 38 C 41.6 37.4 42.3 37 43.2 37 C 44.5 37 45.3 37.8 45.3 39.3 Z M 51.2 39.1 C 51.17 39.08 51.2 42.3 51.2 42.3 L 50.5 42.3 C 50.5 42.3 50.49 41.52 50.5 41.5 C 50.2 42.1 49.6 42.4 48.7 42.4 C 47.5 42.4 46.8 41.8 46.8 40.9 C 46.8 40 47.3 39.4 48.8 39.4 C 48.79 39.37 50.5 39.4 50.5 39.4 C 50.5 39.4 50.46 39.05 50.5 39.1 C 50.5 38.1 50 37.7 49 37.7 C 48.3 37.7 47.6 37.9 47.2 38.3 C 47.2 38.3 46.9 37.7 46.9 37.7 C 47.4 37.3 48.2 37 49 37 C 50.4 37 51.2 37.7 51.2 39.1 Z M 50.5 40.8 C 50.46 40.76 50.5 39.9 50.5 39.9 C 50.5 39.9 48.81 39.9 48.8 39.9 C 47.8 39.9 47.5 40.3 47.5 40.8 C 47.5 41.5 47.9 41.8 48.8 41.8 C 49.6 41.8 50.2 41.5 50.5 40.8 Z M 57.8 39.3 C 57.82 39.29 57.8 42.3 57.8 42.3 L 57.1 42.3 C 57.1 42.3 57.11 39.36 57.1 39.4 C 57.1 38.2 56.5 37.7 55.5 37.7 C 54.4 37.7 53.7 38.4 53.7 39.6 C 53.69 39.58 53.7 42.3 53.7 42.3 L 53 42.3 L 53 37.1 L 53.7 37.1 C 53.7 37.1 53.66 38.05 53.7 38 C 54 37.4 54.8 37 55.7 37 C 56.9 37 57.8 37.8 57.8 39.3 Z M 64.5 34.9 L 64.5 42.3 L 63.9 42.3 C 63.9 42.3 63.86 41.3 63.9 41.3 C 63.4 42 62.7 42.4 61.8 42.4 C 60.3 42.4 59.2 41.3 59.2 39.7 C 59.2 38.1 60.3 37 61.8 37 C 62.7 37 63.4 37.4 63.8 38.1 C 63.83 38.08 63.8 34.9 63.8 34.9 L 64.5 34.9 Z M 63.8 39.7 C 63.8 38.5 63 37.7 61.9 37.7 C 60.8 37.7 59.9 38.5 59.9 39.7 C 59.9 40.9 60.8 41.8 61.9 41.8 C 63 41.8 63.8 40.9 63.8 39.7 Z M 66 39.7 C 66 38.1 67.1 37 68.7 37 C 70.2 37 71.3 38.1 71.3 39.7 C 71.3 41.3 70.2 42.4 68.7 42.4 C 67.1 42.4 66 41.3 66 39.7 Z M 70.6 39.7 C 70.6 38.5 69.8 37.7 68.7 37.7 C 67.5 37.7 66.7 38.5 66.7 39.7 C 66.7 40.9 67.5 41.8 68.7 41.8 C 69.8 41.8 70.6 40.9 70.6 39.7 Z M 77.1 37.1 L 74.8 42.3 L 74 42.3 L 71.7 37.1 L 72.5 37.1 L 74.4 41.6 L 76.4 37.1 L 77.1 37.1 Z M 82.6 39.9 C 82.6 39.9 78.2 39.9 78.2 39.9 C 78.3 41 79.1 41.8 80.3 41.8 C 80.9 41.8 81.5 41.5 81.9 41.1 C 81.9 41.1 82.3 41.5 82.3 41.5 C 81.8 42.1 81.1 42.4 80.3 42.4 C 78.6 42.4 77.5 41.3 77.5 39.7 C 77.5 38.1 78.6 37 80.1 37 C 81.6 37 82.6 38.1 82.6 39.7 C 82.6 39.8 82.6 39.8 82.6 39.9 Z M 78.2 39.4 C 78.2 39.4 81.9 39.4 81.9 39.4 C 81.9 38.4 81.1 37.6 80.1 37.6 C 79.1 37.6 78.3 38.4 78.2 39.4 Z M 86.7 37 C 86.7 37 86.7 37.7 86.7 37.7 C 86.6 37.7 86.6 37.7 86.5 37.7 C 85.4 37.7 84.7 38.4 84.7 39.7 C 84.74 39.66 84.7 42.3 84.7 42.3 L 84 42.3 L 84 37.1 L 84.7 37.1 C 84.7 37.1 84.71 38.11 84.7 38.1 C 85 37.4 85.7 37 86.7 37 Z M 90.1 39.7 C 90.1 38.1 91.3 37 92.8 37 C 94.3 37 95.5 38.1 95.5 39.7 C 95.5 41.3 94.3 42.4 92.8 42.4 C 91.3 42.4 90.1 41.3 90.1 39.7 Z M 94.8 39.7 C 94.8 38.5 93.9 37.7 92.8 37.7 C 91.7 37.7 90.8 38.5 90.8 39.7 C 90.8 40.9 91.7 41.8 92.8 41.8 C 93.9 41.8 94.8 40.9 94.8 39.7 Z M 97.7 36.5 C 97.67 36.46 97.7 37.1 97.7 37.1 L 99.3 37.1 L 99.3 37.7 L 97.7 37.7 L 97.7 42.3 L 97 42.3 L 97 37.7 L 96 37.7 L 96 37.1 L 97 37.1 C 97 37.1 96.98 36.43 97 36.4 C 97 35.5 97.5 34.9 98.6 34.9 C 99 34.9 99.4 35 99.6 35.2 C 99.6 35.2 99.4 35.7 99.4 35.7 C 99.2 35.6 98.9 35.5 98.6 35.5 C 98 35.5 97.7 35.8 97.7 36.5 Z M 107.7 34.9 L 107.7 42.3 L 107 42.3 C 107 42.3 106.99 41.3 107 41.3 C 106.6 42 105.8 42.4 105 42.4 C 103.5 42.4 102.3 41.3 102.3 39.7 C 102.3 38.1 103.5 37 105 37 C 105.8 37 106.5 37.4 107 38.1 C 106.96 38.08 107 34.9 107 34.9 L 107.7 34.9 Z M 107 39.7 C 107 38.5 106.1 37.7 105 37.7 C 103.9 37.7 103.1 38.5 103.1 39.7 C 103.1 40.9 103.9 41.8 105 41.8 C 106.1 41.8 107 40.9 107 39.7 Z M 114.3 37.1 L 114.3 42.3 L 113.6 42.3 C 113.6 42.3 113.6 41.38 113.6 41.4 C 113.2 42 112.5 42.4 111.7 42.4 C 110.4 42.4 109.5 41.6 109.5 40.1 C 109.49 40.13 109.5 37.1 109.5 37.1 L 110.2 37.1 C 110.2 37.1 110.2 40.06 110.2 40.1 C 110.2 41.2 110.8 41.8 111.8 41.8 C 112.9 41.8 113.6 41 113.6 39.8 C 113.57 39.84 113.6 37.1 113.6 37.1 L 114.3 37.1 Z M 119 42 C 118.7 42.3 118.3 42.4 117.9 42.4 C 116.9 42.4 116.4 41.8 116.4 40.9 C 116.35 40.86 116.4 37.7 116.4 37.7 L 115.4 37.7 L 115.4 37.1 L 116.4 37.1 L 116.4 35.9 L 117.1 35.9 L 117.1 37.1 L 118.7 37.1 L 118.7 37.7 L 117.1 37.7 C 117.1 37.7 117.06 40.82 117.1 40.8 C 117.1 41.4 117.4 41.8 118 41.8 C 118.3 41.8 118.6 41.7 118.8 41.5 C 118.8 41.5 119 42 119 42 Z M 124.9 37.1 C 124.9 37.1 122.29 42.97 122.3 43 C 121.9 44 121.3 44.3 120.5 44.3 C 120.1 44.3 119.6 44.2 119.3 43.9 C 119.3 43.9 119.6 43.3 119.6 43.3 C 119.9 43.6 120.2 43.7 120.6 43.7 C 121 43.7 121.3 43.5 121.6 42.8 C 121.64 42.84 121.9 42.3 121.9 42.3 L 119.5 37.1 L 120.3 37.1 L 122.2 41.6 L 124.2 37.1 L 124.9 37.1 Z M 129.3 36.5 C 129.35 36.46 129.3 37.1 129.3 37.1 L 131 37.1 L 131 37.7 L 129.4 37.7 L 129.4 42.3 L 128.7 42.3 L 128.7 37.7 L 127.7 37.7 L 127.7 37.1 L 128.7 37.1 C 128.7 37.1 128.66 36.43 128.7 36.4 C 128.7 35.5 129.2 34.9 130.2 34.9 C 130.6 34.9 131 35 131.3 35.2 C 131.3 35.2 131.1 35.7 131.1 35.7 C 130.9 35.6 130.6 35.5 130.3 35.5 C 129.7 35.5 129.3 35.8 129.3 36.5 Z M 134.6 37 C 134.6 37 134.6 37.7 134.6 37.7 C 134.6 37.7 134.5 37.7 134.5 37.7 C 133.4 37.7 132.7 38.4 132.7 39.7 C 132.7 39.66 132.7 42.3 132.7 42.3 L 132 42.3 L 132 37.1 L 132.7 37.1 C 132.7 37.1 132.67 38.11 132.7 38.1 C 133 37.4 133.7 37 134.6 37 Z M 135.3 39.7 C 135.3 38.1 136.4 37 137.9 37 C 139.5 37 140.6 38.1 140.6 39.7 C 140.6 41.3 139.5 42.4 137.9 42.4 C 136.4 42.4 135.3 41.3 135.3 39.7 Z M 139.9 39.7 C 139.9 38.5 139.1 37.7 137.9 37.7 C 136.8 37.7 136 38.5 136 39.7 C 136 40.9 136.8 41.8 137.9 41.8 C 139.1 41.8 139.9 40.9 139.9 39.7 Z M 150.7 39.3 C 150.71 39.29 150.7 42.3 150.7 42.3 L 150 42.3 C 150 42.3 150 39.36 150 39.4 C 150 38.2 149.4 37.7 148.5 37.7 C 147.4 37.7 146.7 38.4 146.7 39.6 C 146.73 39.58 146.7 42.3 146.7 42.3 L 146 42.3 C 146 42.3 146.02 39.36 146 39.4 C 146 38.2 145.5 37.7 144.5 37.7 C 143.4 37.7 142.7 38.4 142.7 39.6 C 142.74 39.58 142.7 42.3 142.7 42.3 L 142 42.3 L 142 37.1 L 142.7 37.1 C 142.7 37.1 142.71 38.04 142.7 38 C 143.1 37.4 143.8 37 144.6 37 C 145.5 37 146.2 37.4 146.5 38.1 C 146.9 37.5 147.6 37 148.6 37 C 149.9 37 150.7 37.8 150.7 39.3 Z M 154.7 39.7 C 154.7 38.1 155.9 37 157.4 37 C 159 37 160.1 38.1 160.1 39.7 C 160.1 41.3 159 42.4 157.4 42.4 C 155.9 42.4 154.7 41.3 154.7 39.7 Z M 159.4 39.7 C 159.4 38.5 158.5 37.7 157.4 37.7 C 156.3 37.7 155.4 38.5 155.4 39.7 C 155.4 40.9 156.3 41.8 157.4 41.8 C 158.5 41.8 159.4 40.9 159.4 39.7 Z M 166.3 39.3 C 166.35 39.29 166.3 42.3 166.3 42.3 L 165.6 42.3 C 165.6 42.3 165.64 39.36 165.6 39.4 C 165.6 38.2 165.1 37.7 164.1 37.7 C 162.9 37.7 162.2 38.4 162.2 39.6 C 162.22 39.58 162.2 42.3 162.2 42.3 L 161.5 42.3 L 161.5 37.1 L 162.2 37.1 C 162.2 37.1 162.19 38.05 162.2 38 C 162.6 37.4 163.3 37 164.2 37 C 165.5 37 166.3 37.8 166.3 39.3 Z M 172.8 39.9 C 172.8 39.9 168.4 39.9 168.4 39.9 C 168.5 41 169.4 41.8 170.5 41.8 C 171.1 41.8 171.7 41.5 172.1 41.1 C 172.1 41.1 172.5 41.5 172.5 41.5 C 172 42.1 171.3 42.4 170.5 42.4 C 168.8 42.4 167.7 41.3 167.7 39.7 C 167.7 38.1 168.8 37 170.3 37 C 171.8 37 172.8 38.1 172.8 39.7 C 172.8 39.8 172.8 39.8 172.8 39.9 Z M 168.4 39.4 C 168.4 39.4 172.2 39.4 172.2 39.4 C 172.1 38.4 171.3 37.6 170.3 37.6 C 169.3 37.6 168.5 38.4 168.4 39.4 Z M 176.8 35.4 C 176.8 35.2 177 34.9 177.3 34.9 C 177.6 34.9 177.8 35.1 177.8 35.4 C 177.8 35.7 177.6 35.9 177.3 35.9 C 177 35.9 176.8 35.7 176.8 35.4 Z M 176.9 37.1 L 177.6 37.1 L 177.6 42.3 L 176.9 42.3 L 176.9 37.1 Z M 184.3 39.3 C 184.31 39.29 184.3 42.3 184.3 42.3 L 183.6 42.3 C 183.6 42.3 183.6 39.36 183.6 39.4 C 183.6 38.2 183 37.7 182 37.7 C 180.9 37.7 180.2 38.4 180.2 39.6 C 180.18 39.58 180.2 42.3 180.2 42.3 L 179.5 42.3 L 179.5 37.1 L 180.2 37.1 C 180.2 37.1 180.15 38.05 180.2 38 C 180.5 37.4 181.2 37 182.2 37 C 183.4 37 184.3 37.8 184.3 39.3 Z M 191 34.9 L 191 42.3 L 190.3 42.3 C 190.3 42.3 190.34 41.3 190.3 41.3 C 189.9 42 189.2 42.4 188.3 42.4 C 186.8 42.4 185.7 41.3 185.7 39.7 C 185.7 38.1 186.8 37 188.3 37 C 189.2 37 189.9 37.4 190.3 38.1 C 190.31 38.08 190.3 34.9 190.3 34.9 L 191 34.9 Z M 190.3 39.7 C 190.3 38.5 189.5 37.7 188.4 37.7 C 187.3 37.7 186.4 38.5 186.4 39.7 C 186.4 40.9 187.3 41.8 188.4 41.8 C 189.5 41.8 190.3 40.9 190.3 39.7 Z M 192.7 35.4 C 192.7 35.2 193 34.9 193.2 34.9 C 193.5 34.9 193.8 35.1 193.8 35.4 C 193.8 35.7 193.5 35.9 193.2 35.9 C 193 35.9 192.7 35.7 192.7 35.4 Z M 192.9 37.1 L 193.6 37.1 L 193.6 42.3 L 192.9 42.3 L 192.9 37.1 Z M 200 37.1 L 197.7 42.3 L 197 42.3 L 194.6 37.1 L 195.4 37.1 L 197.3 41.6 L 199.3 37.1 L 200 37.1 Z M 200.9 35.4 C 200.9 35.2 201.1 34.9 201.4 34.9 C 201.7 34.9 202 35.1 202 35.4 C 202 35.7 201.7 35.9 201.4 35.9 C 201.1 35.9 200.9 35.7 200.9 35.4 Z M 201.1 37.1 L 201.8 37.1 L 201.8 42.3 L 201.1 42.3 L 201.1 37.1 Z M 208.5 34.9 L 208.5 42.3 L 207.8 42.3 C 207.8 42.3 207.83 41.3 207.8 41.3 C 207.4 42 206.7 42.4 205.8 42.4 C 204.3 42.4 203.2 41.3 203.2 39.7 C 203.2 38.1 204.3 37 205.8 37 C 206.6 37 207.4 37.4 207.8 38.1 C 207.8 38.08 207.8 34.9 207.8 34.9 L 208.5 34.9 Z M 207.8 39.7 C 207.8 38.5 207 37.7 205.9 37.7 C 204.7 37.7 203.9 38.5 203.9 39.7 C 203.9 40.9 204.7 41.8 205.9 41.8 C 207 41.8 207.8 40.9 207.8 39.7 Z M 215.1 37.1 L 215.1 42.3 L 214.4 42.3 C 214.4 42.3 214.43 41.38 214.4 41.4 C 214.1 42 213.4 42.4 212.5 42.4 C 211.2 42.4 210.3 41.6 210.3 40.1 C 210.32 40.13 210.3 37.1 210.3 37.1 L 211 37.1 C 211 37.1 211.03 40.06 211 40.1 C 211 41.2 211.6 41.8 212.6 41.8 C 213.7 41.8 214.4 41 214.4 39.8 C 214.4 39.84 214.4 37.1 214.4 37.1 L 215.1 37.1 Z M 221 39.1 C 221.02 39.08 221 42.3 221 42.3 L 220.3 42.3 C 220.3 42.3 220.34 41.52 220.3 41.5 C 220 42.1 219.4 42.4 218.5 42.4 C 217.3 42.4 216.6 41.8 216.6 40.9 C 216.6 40 217.1 39.4 218.6 39.4 C 218.64 39.37 220.3 39.4 220.3 39.4 C 220.3 39.4 220.31 39.05 220.3 39.1 C 220.3 38.1 219.8 37.7 218.8 37.7 C 218.1 37.7 217.5 37.9 217.1 38.3 C 217.1 38.3 216.7 37.7 216.7 37.7 C 217.3 37.3 218.1 37 218.9 37 C 220.2 37 221 37.7 221 39.1 Z M 220.3 40.8 C 220.31 40.76 220.3 39.9 220.3 39.9 C 220.3 39.9 218.66 39.9 218.7 39.9 C 217.6 39.9 217.3 40.3 217.3 40.8 C 217.3 41.5 217.8 41.8 218.6 41.8 C 219.4 41.8 220 41.5 220.3 40.8 Z M 222.8 34.9 L 223.5 34.9 L 223.5 42.3 L 222.8 42.3 L 222.8 34.9 Z M 227.6 39.7 C 227.6 38.1 228.8 37 230.3 37 C 231.8 37 233 38.1 233 39.7 C 233 41.3 231.8 42.4 230.3 42.4 C 228.8 42.4 227.6 41.3 227.6 39.7 Z M 232.2 39.7 C 232.2 38.5 231.4 37.7 230.3 37.7 C 229.2 37.7 228.3 38.5 228.3 39.7 C 228.3 40.9 229.2 41.8 230.3 41.8 C 231.4 41.8 232.2 40.9 232.2 39.7 Z M 237 37 C 237 37 237 37.7 237 37.7 C 237 37.7 236.9 37.7 236.9 37.7 C 235.8 37.7 235.1 38.4 235.1 39.7 C 235.1 39.66 235.1 42.3 235.1 42.3 L 234.4 42.3 L 234.4 37.1 L 235.1 37.1 C 235.1 37.1 235.07 38.11 235.1 38.1 C 235.4 37.4 236.1 37 237 37 Z M 248.7 37.1 L 246.7 42.3 L 246.1 42.3 L 244.4 38 L 242.8 42.3 L 242.1 42.3 L 240.1 37.1 L 240.8 37.1 L 242.4 41.6 L 244.1 37.1 L 244.7 37.1 L 246.4 41.6 L 248.1 37.1 L 248.7 37.1 Z M 249.2 39.7 C 249.2 38.1 250.4 37 251.9 37 C 253.4 37 254.6 38.1 254.6 39.7 C 254.6 41.3 253.4 42.4 251.9 42.4 C 250.4 42.4 249.2 41.3 249.2 39.7 Z M 253.8 39.7 C 253.8 38.5 253 37.7 251.9 37.7 C 250.8 37.7 249.9 38.5 249.9 39.7 C 249.9 40.9 250.8 41.8 251.9 41.8 C 253 41.8 253.8 40.9 253.8 39.7 Z M 258.6 37 C 258.6 37 258.6 37.7 258.6 37.7 C 258.6 37.7 258.5 37.7 258.5 37.7 C 257.4 37.7 256.7 38.4 256.7 39.7 C 256.7 39.66 256.7 42.3 256.7 42.3 L 256 42.3 L 256 37.1 L 256.7 37.1 C 256.7 37.1 256.67 38.11 256.7 38.1 C 257 37.4 257.7 37 258.6 37 Z M 261.8 39.7 L 260.6 40.8 L 260.6 42.3 L 259.9 42.3 L 259.9 34.9 L 260.6 34.9 L 260.6 39.9 L 263.7 37.1 L 264.6 37.1 L 262.3 39.2 L 264.8 42.3 L 263.9 42.3 L 261.8 39.7 Z M 273.4 37.1 C 273.4 37.1 273.36 41.7 273.4 41.7 C 273.4 43.5 272.5 44.3 270.7 44.3 C 269.8 44.3 268.8 44 268.3 43.5 C 268.3 43.5 268.6 43 268.6 43 C 269.1 43.4 269.9 43.7 270.7 43.7 C 272 43.7 272.7 43.1 272.7 41.8 C 272.7 41.8 272.7 41.1 272.7 41.1 C 272.2 41.8 271.5 42.1 270.6 42.1 C 269.1 42.1 268 41.1 268 39.6 C 268 38.1 269.1 37 270.6 37 C 271.5 37 272.2 37.4 272.7 38.1 C 272.68 38.09 272.7 37.1 272.7 37.1 L 273.4 37.1 Z M 272.7 39.6 C 272.7 38.4 271.8 37.7 270.7 37.7 C 269.5 37.7 268.7 38.4 268.7 39.6 C 268.7 40.7 269.5 41.5 270.7 41.5 C 271.8 41.5 272.7 40.7 272.7 39.6 Z M 277.9 37 C 277.9 37 277.9 37.7 277.9 37.7 C 277.8 37.7 277.8 37.7 277.7 37.7 C 276.6 37.7 275.9 38.4 275.9 39.7 C 275.93 39.66 275.9 42.3 275.9 42.3 L 275.2 42.3 L 275.2 37.1 L 275.9 37.1 C 275.9 37.1 275.9 38.11 275.9 38.1 C 276.2 37.4 276.9 37 277.9 37 Z M 278.5 39.7 C 278.5 38.1 279.6 37 281.2 37 C 282.7 37 283.8 38.1 283.8 39.7 C 283.8 41.3 282.7 42.4 281.2 42.4 C 279.6 42.4 278.5 41.3 278.5 39.7 Z M 283.1 39.7 C 283.1 38.5 282.3 37.7 281.2 37.7 C 280.1 37.7 279.2 38.5 279.2 39.7 C 279.2 40.9 280.1 41.8 281.2 41.8 C 282.3 41.8 283.1 40.9 283.1 39.7 Z M 290 37.1 L 290 42.3 L 289.3 42.3 C 289.3 42.3 289.31 41.38 289.3 41.4 C 288.9 42 288.3 42.4 287.4 42.4 C 286.1 42.4 285.2 41.6 285.2 40.1 C 285.2 40.13 285.2 37.1 285.2 37.1 L 285.9 37.1 C 285.9 37.1 285.91 40.06 285.9 40.1 C 285.9 41.2 286.5 41.8 287.5 41.8 C 288.6 41.8 289.3 41 289.3 39.8 C 289.28 39.84 289.3 37.1 289.3 37.1 L 290 37.1 Z M 297.2 39.7 C 297.2 41.3 296.1 42.4 294.6 42.4 C 293.7 42.4 293 42 292.6 41.4 C 292.57 41.35 292.6 44.3 292.6 44.3 L 291.9 44.3 L 291.9 37.1 L 292.5 37.1 C 292.5 37.1 292.54 38.12 292.5 38.1 C 293 37.4 293.7 37 294.6 37 C 296.1 37 297.2 38.1 297.2 39.7 Z M 296.5 39.7 C 296.5 38.5 295.6 37.7 294.5 37.7 C 293.4 37.7 292.6 38.5 292.6 39.7 C 292.6 40.9 293.4 41.8 294.5 41.8 C 295.6 41.8 296.5 40.9 296.5 39.7 Z M 304 42 C 303.7 42.3 303.3 42.4 302.9 42.4 C 301.9 42.4 301.4 41.8 301.4 40.9 C 301.38 40.86 301.4 37.7 301.4 37.7 L 300.4 37.7 L 300.4 37.1 L 301.4 37.1 L 301.4 35.9 L 302.1 35.9 L 302.1 37.1 L 303.7 37.1 L 303.7 37.7 L 302.1 37.7 C 302.1 37.7 302.09 40.82 302.1 40.8 C 302.1 41.4 302.4 41.8 303 41.8 C 303.3 41.8 303.6 41.7 303.8 41.5 C 303.8 41.5 304 42 304 42 Z M 304.6 39.7 C 304.6 38.1 305.7 37 307.3 37 C 308.8 37 309.9 38.1 309.9 39.7 C 309.9 41.3 308.8 42.4 307.3 42.4 C 305.7 42.4 304.6 41.3 304.6 39.7 Z M 309.2 39.7 C 309.2 38.5 308.4 37.7 307.3 37.7 C 306.1 37.7 305.3 38.5 305.3 39.7 C 305.3 40.9 306.1 41.8 307.3 41.8 C 308.4 41.8 309.2 40.9 309.2 39.7 Z M 318 39.1 C 317.97 39.08 318 42.3 318 42.3 L 317.3 42.3 C 317.3 42.3 317.29 41.52 317.3 41.5 C 317 42.1 316.3 42.4 315.5 42.4 C 314.3 42.4 313.6 41.8 313.6 40.9 C 313.6 40 314.1 39.4 315.6 39.4 C 315.59 39.37 317.3 39.4 317.3 39.4 C 317.3 39.4 317.26 39.05 317.3 39.1 C 317.3 38.1 316.7 37.7 315.8 37.7 C 315.1 37.7 314.4 37.9 314 38.3 C 314 38.3 313.7 37.7 313.7 37.7 C 314.2 37.3 315 37 315.8 37 C 317.2 37 318 37.7 318 39.1 Z M 317.3 40.8 C 317.26 40.76 317.3 39.9 317.3 39.9 C 317.3 39.9 315.61 39.9 315.6 39.9 C 314.6 39.9 314.3 40.3 314.3 40.8 C 314.3 41.5 314.7 41.8 315.6 41.8 C 316.4 41.8 317 41.5 317.3 40.8 Z M 324.6 39.3 C 324.62 39.29 324.6 42.3 324.6 42.3 L 323.9 42.3 C 323.9 42.3 323.91 39.36 323.9 39.4 C 323.9 38.2 323.3 37.7 322.3 37.7 C 321.2 37.7 320.5 38.4 320.5 39.6 C 320.49 39.58 320.5 42.3 320.5 42.3 L 319.8 42.3 L 319.8 37.1 L 320.5 37.1 C 320.5 37.1 320.46 38.05 320.5 38 C 320.8 37.4 321.6 37 322.5 37 C 323.7 37 324.6 37.8 324.6 39.3 Z M 326 39.7 C 326 38.1 327.1 37 328.7 37 C 330.2 37 331.4 38.1 331.4 39.7 C 331.4 41.3 330.2 42.4 328.7 42.4 C 327.1 42.4 326 41.3 326 39.7 Z M 330.6 39.7 C 330.6 38.5 329.8 37.7 328.7 37.7 C 327.6 37.7 326.7 38.5 326.7 39.7 C 326.7 40.9 327.6 41.8 328.7 41.8 C 329.8 41.8 330.6 40.9 330.6 39.7 Z M 335.5 42 C 335.2 42.3 334.8 42.4 334.4 42.4 C 333.4 42.4 332.9 41.8 332.9 40.9 C 332.86 40.86 332.9 37.7 332.9 37.7 L 331.9 37.7 L 331.9 37.1 L 332.9 37.1 L 332.9 35.9 L 333.6 35.9 L 333.6 37.1 L 335.2 37.1 L 335.2 37.7 L 333.6 37.7 C 333.6 37.7 333.57 40.82 333.6 40.8 C 333.6 41.4 333.9 41.8 334.5 41.8 C 334.8 41.8 335.1 41.7 335.3 41.5 C 335.3 41.5 335.5 42 335.5 42 Z M 341.5 39.3 C 341.54 39.29 341.5 42.3 341.5 42.3 L 340.8 42.3 C 340.8 42.3 340.83 39.36 340.8 39.4 C 340.8 38.2 340.2 37.7 339.2 37.7 C 338.1 37.7 337.4 38.4 337.4 39.6 C 337.41 39.58 337.4 42.3 337.4 42.3 L 336.7 42.3 L 336.7 34.9 L 337.4 34.9 C 337.4 34.9 337.41 38 337.4 38 C 337.8 37.4 338.5 37 339.4 37 C 340.7 37 341.5 37.8 341.5 39.3 Z M 348 39.9 C 348 39.9 343.6 39.9 343.6 39.9 C 343.7 41 344.6 41.8 345.7 41.8 C 346.3 41.8 346.9 41.5 347.3 41.1 C 347.3 41.1 347.7 41.5 347.7 41.5 C 347.2 42.1 346.5 42.4 345.7 42.4 C 344 42.4 342.9 41.3 342.9 39.7 C 342.9 38.1 344 37 345.5 37 C 347 37 348 38.1 348 39.7 C 348 39.8 348 39.8 348 39.9 Z M 343.6 39.4 C 343.6 39.4 347.4 39.4 347.4 39.4 C 347.3 38.4 346.5 37.6 345.5 37.6 C 344.5 37.6 343.7 38.4 343.6 39.4 Z M 352.1 37 C 352.1 37 352.1 37.7 352.1 37.7 C 352 37.7 352 37.7 351.9 37.7 C 350.8 37.7 350.2 38.4 350.2 39.7 C 350.15 39.66 350.2 42.3 350.2 42.3 L 349.4 42.3 L 349.4 37.1 L 350.1 37.1 C 350.1 37.1 350.12 38.11 350.1 38.1 C 350.5 37.4 351.1 37 352.1 37 Z M 353.1 37.6 C 353.1 37.3 353.4 37 353.6 37 C 353.9 37 354.2 37.3 354.2 37.6 C 354.2 37.9 353.9 38.1 353.6 38.1 C 353.4 38.1 353.1 37.9 353.1 37.6 Z M 354.2 41.8 C 354.2 42 354.1 42.1 354 42.4 C 354.04 42.42 353.6 43.8 353.6 43.8 L 353.1 43.8 C 353.1 43.8 353.48 42.35 353.5 42.3 C 353.3 42.3 353.1 42.1 353.1 41.8 C 353.1 41.5 353.4 41.3 353.7 41.3 C 354 41.3 354.2 41.5 354.2 41.8 Z M 357.8 39.7 C 357.8 38.1 358.9 37 360.5 37 C 362 37 363.1 38.1 363.1 39.7 C 363.1 41.3 362 42.4 360.5 42.4 C 358.9 42.4 357.8 41.3 357.8 39.7 Z M 362.4 39.7 C 362.4 38.5 361.6 37.7 360.5 37.7 C 359.3 37.7 358.5 38.5 358.5 39.7 C 358.5 40.9 359.3 41.8 360.5 41.8 C 361.6 41.8 362.4 40.9 362.4 39.7 Z M 367.2 37 C 367.2 37 367.2 37.7 367.2 37.7 C 367.1 37.7 367.1 37.7 367 37.7 C 365.9 37.7 365.3 38.4 365.3 39.7 C 365.27 39.66 365.3 42.3 365.3 42.3 L 364.6 42.3 L 364.6 37.1 L 365.2 37.1 C 365.2 37.1 365.24 38.11 365.2 38.1 C 365.6 37.4 366.2 37 367.2 37 Z " stroke="none" fill="#323132"/>
  </g>
  <g id="Polygon122797">
    <path d="M 36 24.1 C 35.96 24.08 36 27.3 36 27.3 L 35.3 27.3 C 35.3 27.3 35.28 26.52 35.3 26.5 C 35 27.1 34.3 27.4 33.5 27.4 C 32.3 27.4 31.6 26.8 31.6 25.9 C 31.6 25 32.1 24.4 33.6 24.4 C 33.58 24.37 35.3 24.4 35.3 24.4 C 35.3 24.4 35.25 24.05 35.3 24.1 C 35.3 23.1 34.7 22.7 33.8 22.7 C 33.1 22.7 32.4 22.9 32 23.3 C 32 23.3 31.7 22.7 31.7 22.7 C 32.2 22.3 33 22 33.8 22 C 35.2 22 36 22.7 36 24.1 Z M 35.3 25.8 C 35.25 25.76 35.3 24.9 35.3 24.9 C 35.3 24.9 33.6 24.9 33.6 24.9 C 32.6 24.9 32.2 25.3 32.2 25.8 C 32.2 26.5 32.7 26.8 33.6 26.8 C 34.4 26.8 35 26.5 35.3 25.8 Z M 48.2 22.1 L 46.2 27.3 L 45.6 27.3 L 43.9 23 L 42.3 27.3 L 41.6 27.3 L 39.6 22.1 L 40.3 22.1 L 41.9 26.6 L 43.6 22.1 L 44.2 22.1 L 45.9 26.6 L 47.6 22.1 L 48.2 22.1 Z M 48.7 24.7 C 48.7 23.1 49.8 22 51.4 22 C 52.9 22 54.1 23.1 54.1 24.7 C 54.1 26.3 52.9 27.4 51.4 27.4 C 49.8 27.4 48.7 26.3 48.7 24.7 Z M 53.3 24.7 C 53.3 23.5 52.5 22.7 51.4 22.7 C 50.3 22.7 49.4 23.5 49.4 24.7 C 49.4 25.9 50.3 26.8 51.4 26.8 C 52.5 26.8 53.3 25.9 53.3 24.7 Z M 58.1 22 C 58.1 22 58.1 22.7 58.1 22.7 C 58.1 22.7 58 22.7 58 22.7 C 56.9 22.7 56.2 23.4 56.2 24.7 C 56.19 24.66 56.2 27.3 56.2 27.3 L 55.5 27.3 L 55.5 22.1 L 56.2 22.1 C 56.2 22.1 56.16 23.11 56.2 23.1 C 56.5 22.4 57.2 22 58.1 22 Z M 61.3 24.7 L 60.1 25.8 L 60.1 27.3 L 59.4 27.3 L 59.4 19.9 L 60.1 19.9 L 60.1 24.9 L 63.2 22.1 L 64.1 22.1 L 61.8 24.2 L 64.3 27.3 L 63.4 27.3 L 61.3 24.7 Z M 72 24.1 C 71.95 24.08 72 27.3 72 27.3 L 71.3 27.3 C 71.3 27.3 71.27 26.52 71.3 26.5 C 71 27.1 70.3 27.4 69.5 27.4 C 68.3 27.4 67.5 26.8 67.5 25.9 C 67.5 25 68.1 24.4 69.6 24.4 C 69.57 24.37 71.2 24.4 71.2 24.4 C 71.2 24.4 71.24 24.05 71.2 24.1 C 71.2 23.1 70.7 22.7 69.8 22.7 C 69.1 22.7 68.4 22.9 68 23.3 C 68 23.3 67.7 22.7 67.7 22.7 C 68.2 22.3 69 22 69.8 22 C 71.2 22 72 22.7 72 24.1 Z M 71.2 25.8 C 71.24 25.76 71.2 24.9 71.2 24.9 C 71.2 24.9 69.59 24.9 69.6 24.9 C 68.6 24.9 68.2 25.3 68.2 25.8 C 68.2 26.5 68.7 26.8 69.6 26.8 C 70.4 26.8 71 26.5 71.2 25.8 Z M 73.3 24.7 C 73.3 23.1 74.5 22 76 22 C 76.9 22 77.7 22.4 78.1 23.1 C 78.1 23.1 77.6 23.4 77.6 23.4 C 77.2 22.9 76.6 22.7 76 22.7 C 74.9 22.7 74 23.5 74 24.7 C 74 26 74.9 26.8 76 26.8 C 76.6 26.8 77.2 26.5 77.6 26 C 77.6 26 78.1 26.4 78.1 26.4 C 77.7 27 76.9 27.4 76 27.4 C 74.5 27.4 73.3 26.3 73.3 24.7 Z M 82.4 27 C 82.2 27.3 81.7 27.4 81.3 27.4 C 80.3 27.4 79.8 26.8 79.8 25.9 C 79.79 25.86 79.8 22.7 79.8 22.7 L 78.9 22.7 L 78.9 22.1 L 79.8 22.1 L 79.8 20.9 L 80.5 20.9 L 80.5 22.1 L 82.1 22.1 L 82.1 22.7 L 80.5 22.7 C 80.5 22.7 80.5 25.82 80.5 25.8 C 80.5 26.4 80.8 26.8 81.4 26.8 C 81.7 26.8 82 26.7 82.2 26.5 C 82.2 26.5 82.4 27 82.4 27 Z M 83.5 20.4 C 83.5 20.2 83.7 19.9 84 19.9 C 84.3 19.9 84.5 20.1 84.5 20.4 C 84.5 20.7 84.3 20.9 84 20.9 C 83.7 20.9 83.5 20.7 83.5 20.4 Z M 83.6 22.1 L 84.3 22.1 L 84.3 27.3 L 83.6 27.3 L 83.6 22.1 Z M 90.8 22.1 L 88.4 27.3 L 87.7 27.3 L 85.4 22.1 L 86.1 22.1 L 88.1 26.6 L 90.1 22.1 L 90.8 22.1 Z M 91.7 20.4 C 91.7 20.2 91.9 19.9 92.2 19.9 C 92.5 19.9 92.7 20.1 92.7 20.4 C 92.7 20.7 92.5 20.9 92.2 20.9 C 91.9 20.9 91.7 20.7 91.7 20.4 Z M 91.8 22.1 L 92.5 22.1 L 92.5 27.3 L 91.8 27.3 L 91.8 22.1 Z M 97.2 27 C 97 27.3 96.5 27.4 96.1 27.4 C 95.1 27.4 94.6 26.8 94.6 25.9 C 94.59 25.86 94.6 22.7 94.6 22.7 L 93.6 22.7 L 93.6 22.1 L 94.6 22.1 L 94.6 20.9 L 95.3 20.9 L 95.3 22.1 L 96.9 22.1 L 96.9 22.7 L 95.3 22.7 C 95.3 22.7 95.29 25.82 95.3 25.8 C 95.3 26.4 95.6 26.8 96.2 26.8 C 96.5 26.8 96.8 26.7 97 26.5 C 97 26.5 97.2 27 97.2 27 Z M 103.2 22.1 C 103.2 22.1 100.52 27.97 100.5 28 C 100.1 29 99.5 29.3 98.8 29.3 C 98.3 29.3 97.8 29.2 97.5 28.9 C 97.5 28.9 97.8 28.3 97.8 28.3 C 98.1 28.6 98.4 28.7 98.8 28.7 C 99.3 28.7 99.6 28.5 99.9 27.8 C 99.87 27.84 100.1 27.3 100.1 27.3 L 97.8 22.1 L 98.5 22.1 L 100.5 26.6 L 102.5 22.1 L 103.2 22.1 Z M 106 26.7 C 106 26.7 106.4 26.2 106.4 26.2 C 106.8 26.5 107.5 26.8 108.2 26.8 C 109.2 26.8 109.6 26.4 109.6 25.9 C 109.6 24.5 106.2 25.6 106.2 23.5 C 106.2 22.7 107 22 108.3 22 C 109 22 109.7 22.2 110.2 22.5 C 110.2 22.5 109.9 23.1 109.9 23.1 C 109.4 22.8 108.9 22.6 108.3 22.6 C 107.4 22.6 106.9 23 106.9 23.5 C 106.9 24.9 110.4 23.9 110.4 25.9 C 110.4 26.8 109.6 27.4 108.2 27.4 C 107.3 27.4 106.5 27.1 106 26.7 Z M 111.2 24.7 C 111.2 23.1 112.4 22 113.9 22 C 114.8 22 115.6 22.4 116 23.1 C 116 23.1 115.5 23.4 115.5 23.4 C 115.1 22.9 114.5 22.7 113.9 22.7 C 112.8 22.7 111.9 23.5 111.9 24.7 C 111.9 26 112.8 26.8 113.9 26.8 C 114.5 26.8 115.1 26.5 115.5 26 C 115.5 26 116 26.4 116 26.4 C 115.6 27 114.8 27.4 113.9 27.4 C 112.4 27.4 111.2 26.3 111.2 24.7 Z M 122.2 24.3 C 122.15 24.29 122.2 27.3 122.2 27.3 L 121.4 27.3 C 121.4 27.3 121.44 24.36 121.4 24.4 C 121.4 23.2 120.9 22.7 119.9 22.7 C 118.7 22.7 118 23.4 118 24.6 C 118.02 24.58 118 27.3 118 27.3 L 117.3 27.3 L 117.3 19.9 L 118 19.9 C 118 19.9 118.02 23 118 23 C 118.4 22.4 119.1 22 120 22 C 121.3 22 122.2 22.8 122.2 24.3 Z M 128.6 24.9 C 128.6 24.9 124.2 24.9 124.2 24.9 C 124.3 26 125.2 26.8 126.3 26.8 C 127 26.8 127.5 26.5 127.9 26.1 C 127.9 26.1 128.3 26.5 128.3 26.5 C 127.9 27.1 127.1 27.4 126.3 27.4 C 124.7 27.4 123.5 26.3 123.5 24.7 C 123.5 23.1 124.6 22 126.1 22 C 127.6 22 128.7 23.1 128.7 24.7 C 128.7 24.8 128.6 24.8 128.6 24.9 Z M 124.2 24.4 C 124.2 24.4 128 24.4 128 24.4 C 127.9 23.4 127.1 22.6 126.1 22.6 C 125.1 22.6 124.3 23.4 124.2 24.4 Z M 135 19.9 L 135 27.3 L 134.3 27.3 C 134.3 27.3 134.31 26.3 134.3 26.3 C 133.9 27 133.1 27.4 132.3 27.4 C 130.8 27.4 129.7 26.3 129.7 24.7 C 129.7 23.1 130.8 22 132.3 22 C 133.1 22 133.8 22.4 134.3 23.1 C 134.28 23.08 134.3 19.9 134.3 19.9 L 135 19.9 Z M 134.3 24.7 C 134.3 23.5 133.4 22.7 132.3 22.7 C 131.2 22.7 130.4 23.5 130.4 24.7 C 130.4 25.9 131.2 26.8 132.3 26.8 C 133.4 26.8 134.3 25.9 134.3 24.7 Z M 141.6 22.1 L 141.6 27.3 L 140.9 27.3 C 140.9 27.3 140.91 26.38 140.9 26.4 C 140.5 27 139.9 27.4 139 27.4 C 137.7 27.4 136.8 26.6 136.8 25.1 C 136.8 25.13 136.8 22.1 136.8 22.1 L 137.5 22.1 C 137.5 22.1 137.51 25.06 137.5 25.1 C 137.5 26.2 138.1 26.8 139.1 26.8 C 140.2 26.8 140.9 26 140.9 24.8 C 140.88 24.84 140.9 22.1 140.9 22.1 L 141.6 22.1 Z M 143.5 19.9 L 144.2 19.9 L 144.2 27.3 L 143.5 27.3 L 143.5 19.9 Z M 150.7 24.9 C 150.7 24.9 146.3 24.9 146.3 24.9 C 146.4 26 147.2 26.8 148.4 26.8 C 149 26.8 149.6 26.5 150 26.1 C 150 26.1 150.4 26.5 150.4 26.5 C 149.9 27.1 149.2 27.4 148.3 27.4 C 146.7 27.4 145.6 26.3 145.6 24.7 C 145.6 23.1 146.7 22 148.2 22 C 149.6 22 150.7 23.1 150.7 24.7 C 150.7 24.8 150.7 24.8 150.7 24.9 Z M 146.3 24.4 C 146.3 24.4 150 24.4 150 24.4 C 149.9 23.4 149.2 22.6 148.2 22.6 C 147.1 22.6 146.4 23.4 146.3 24.4 Z M 157 19.9 L 157 27.3 L 156.4 27.3 C 156.4 27.3 156.35 26.3 156.4 26.3 C 155.9 27 155.2 27.4 154.3 27.4 C 152.8 27.4 151.7 26.3 151.7 24.7 C 151.7 23.1 152.8 22 154.3 22 C 155.2 22 155.9 22.4 156.3 23.1 C 156.32 23.08 156.3 19.9 156.3 19.9 L 157 19.9 Z M 156.3 24.7 C 156.3 23.5 155.5 22.7 154.4 22.7 C 153.3 22.7 152.4 23.5 152.4 24.7 C 152.4 25.9 153.3 26.8 154.4 26.8 C 155.5 26.8 156.3 25.9 156.3 24.7 Z M 161.1 24.7 C 161.1 23.1 162.2 22 163.8 22 C 165.3 22 166.5 23.1 166.5 24.7 C 166.5 26.3 165.3 27.4 163.8 27.4 C 162.2 27.4 161.1 26.3 161.1 24.7 Z M 165.7 24.7 C 165.7 23.5 164.9 22.7 163.8 22.7 C 162.7 22.7 161.8 23.5 161.8 24.7 C 161.8 25.9 162.7 26.8 163.8 26.8 C 164.9 26.8 165.7 25.9 165.7 24.7 Z M 172.6 22.1 L 172.6 27.3 L 171.9 27.3 C 171.9 27.3 171.93 26.38 171.9 26.4 C 171.6 27 170.9 27.4 170 27.4 C 168.7 27.4 167.8 26.6 167.8 25.1 C 167.82 25.13 167.8 22.1 167.8 22.1 L 168.5 22.1 C 168.5 22.1 168.53 25.06 168.5 25.1 C 168.5 26.2 169.1 26.8 170.1 26.8 C 171.2 26.8 171.9 26 171.9 24.8 C 171.9 24.84 171.9 22.1 171.9 22.1 L 172.6 22.1 Z M 177.3 27 C 177.1 27.3 176.6 27.4 176.2 27.4 C 175.2 27.4 174.7 26.8 174.7 25.9 C 174.68 25.86 174.7 22.7 174.7 22.7 L 173.7 22.7 L 173.7 22.1 L 174.7 22.1 L 174.7 20.9 L 175.4 20.9 L 175.4 22.1 L 177 22.1 L 177 22.7 L 175.4 22.7 C 175.4 22.7 175.39 25.82 175.4 25.8 C 175.4 26.4 175.7 26.8 176.3 26.8 C 176.6 26.8 176.9 26.7 177.1 26.5 C 177.1 26.5 177.3 27 177.3 27 Z M 178.1 26.7 C 178.1 26.7 178.4 26.2 178.4 26.2 C 178.9 26.5 179.6 26.8 180.3 26.8 C 181.3 26.8 181.7 26.4 181.7 25.9 C 181.7 24.5 178.3 25.6 178.3 23.5 C 178.3 22.7 179.1 22 180.4 22 C 181.1 22 181.8 22.2 182.3 22.5 C 182.3 22.5 181.9 23.1 181.9 23.1 C 181.5 22.8 180.9 22.6 180.4 22.6 C 179.4 22.6 179 23 179 23.5 C 179 24.9 182.4 23.9 182.4 25.9 C 182.4 26.8 181.6 27.4 180.3 27.4 C 179.4 27.4 178.6 27.1 178.1 26.7 Z M 183.6 20.4 C 183.6 20.2 183.8 19.9 184.1 19.9 C 184.4 19.9 184.6 20.1 184.6 20.4 C 184.6 20.7 184.4 20.9 184.1 20.9 C 183.8 20.9 183.6 20.7 183.6 20.4 Z M 183.7 22.1 L 184.5 22.1 L 184.5 27.3 L 183.7 27.3 L 183.7 22.1 Z M 191.2 19.9 L 191.2 27.3 L 190.5 27.3 C 190.5 27.3 190.5 26.3 190.5 26.3 C 190.1 27 189.3 27.4 188.5 27.4 C 187 27.4 185.8 26.3 185.8 24.7 C 185.8 23.1 187 22 188.5 22 C 189.3 22 190 22.4 190.5 23.1 C 190.47 23.08 190.5 19.9 190.5 19.9 L 191.2 19.9 Z M 190.5 24.7 C 190.5 23.5 189.6 22.7 188.5 22.7 C 187.4 22.7 186.6 23.5 186.6 24.7 C 186.6 25.9 187.4 26.8 188.5 26.8 C 189.6 26.8 190.5 25.9 190.5 24.7 Z M 197.7 24.9 C 197.7 24.9 193.3 24.9 193.3 24.9 C 193.4 26 194.2 26.8 195.4 26.8 C 196 26.8 196.6 26.5 197 26.1 C 197 26.1 197.4 26.5 197.4 26.5 C 196.9 27.1 196.2 27.4 195.4 27.4 C 193.7 27.4 192.6 26.3 192.6 24.7 C 192.6 23.1 193.7 22 195.2 22 C 196.7 22 197.7 23.1 197.7 24.7 C 197.7 24.8 197.7 24.8 197.7 24.9 Z M 193.3 24.4 C 193.3 24.4 197.1 24.4 197.1 24.4 C 197 23.4 196.2 22.6 195.2 22.6 C 194.2 22.6 193.4 23.4 193.3 24.4 Z M 201.1 26.7 C 201.1 26.7 201.4 26.2 201.4 26.2 C 201.8 26.5 202.5 26.8 203.3 26.8 C 204.3 26.8 204.7 26.4 204.7 25.9 C 204.7 24.5 201.3 25.6 201.3 23.5 C 201.3 22.7 202 22 203.3 22 C 204 22 204.8 22.2 205.2 22.5 C 205.2 22.5 204.9 23.1 204.9 23.1 C 204.4 22.8 203.9 22.6 203.3 22.6 C 202.4 22.6 202 23 202 23.5 C 202 24.9 205.4 23.9 205.4 25.9 C 205.4 26.8 204.6 27.4 203.2 27.4 C 202.3 27.4 201.5 27.1 201.1 26.7 Z M 209.7 27 C 209.4 27.3 209 27.4 208.6 27.4 C 207.6 27.4 207 26.8 207 25.9 C 207.02 25.86 207 22.7 207 22.7 L 206.1 22.7 L 206.1 22.1 L 207 22.1 L 207 20.9 L 207.7 20.9 L 207.7 22.1 L 209.3 22.1 L 209.3 22.7 L 207.7 22.7 C 207.7 22.7 207.73 25.82 207.7 25.8 C 207.7 26.4 208.1 26.8 208.6 26.8 C 208.9 26.8 209.2 26.7 209.4 26.5 C 209.4 26.5 209.7 27 209.7 27 Z M 214.9 24.1 C 214.9 24.08 214.9 27.3 214.9 27.3 L 214.2 27.3 C 214.2 27.3 214.22 26.52 214.2 26.5 C 213.9 27.1 213.3 27.4 212.4 27.4 C 211.2 27.4 210.5 26.8 210.5 25.9 C 210.5 25 211 24.4 212.5 24.4 C 212.52 24.37 214.2 24.4 214.2 24.4 C 214.2 24.4 214.19 24.05 214.2 24.1 C 214.2 23.1 213.7 22.7 212.7 22.7 C 212 22.7 211.4 22.9 211 23.3 C 211 23.3 210.6 22.7 210.6 22.7 C 211.2 22.3 211.9 22 212.8 22 C 214.1 22 214.9 22.7 214.9 24.1 Z M 214.2 25.8 C 214.19 25.76 214.2 24.9 214.2 24.9 C 214.2 24.9 212.54 24.9 212.5 24.9 C 211.5 24.9 211.2 25.3 211.2 25.8 C 211.2 26.5 211.7 26.8 212.5 26.8 C 213.3 26.8 213.9 26.5 214.2 25.8 Z M 221.6 24.3 C 221.55 24.29 221.6 27.3 221.6 27.3 L 220.8 27.3 C 220.8 27.3 220.85 24.36 220.8 24.4 C 220.8 23.2 220.3 22.7 219.3 22.7 C 218.1 22.7 217.4 23.4 217.4 24.6 C 217.42 24.58 217.4 27.3 217.4 27.3 L 216.7 27.3 L 216.7 22.1 L 217.4 22.1 C 217.4 22.1 217.39 23.05 217.4 23 C 217.8 22.4 218.5 22 219.4 22 C 220.7 22 221.6 22.8 221.6 24.3 Z M 228.3 19.9 L 228.3 27.3 L 227.6 27.3 C 227.6 27.3 227.59 26.3 227.6 26.3 C 227.2 27 226.4 27.4 225.6 27.4 C 224.1 27.4 222.9 26.3 222.9 24.7 C 222.9 23.1 224.1 22 225.6 22 C 226.4 22 227.1 22.4 227.6 23.1 C 227.56 23.08 227.6 19.9 227.6 19.9 L 228.3 19.9 Z M 227.6 24.7 C 227.6 23.5 226.7 22.7 225.6 22.7 C 224.5 22.7 223.7 23.5 223.7 24.7 C 223.7 25.9 224.5 26.8 225.6 26.8 C 226.7 26.8 227.6 25.9 227.6 24.7 Z M 234.2 24.1 C 234.17 24.08 234.2 27.3 234.2 27.3 L 233.5 27.3 C 233.5 27.3 233.49 26.52 233.5 26.5 C 233.2 27.1 232.5 27.4 231.7 27.4 C 230.5 27.4 229.8 26.8 229.8 25.9 C 229.8 25 230.3 24.4 231.8 24.4 C 231.79 24.37 233.5 24.4 233.5 24.4 C 233.5 24.4 233.46 24.05 233.5 24.1 C 233.5 23.1 232.9 22.7 232 22.7 C 231.3 22.7 230.6 22.9 230.2 23.3 C 230.2 23.3 229.9 22.7 229.9 22.7 C 230.4 22.3 231.2 22 232 22 C 233.4 22 234.2 22.7 234.2 24.1 Z M 233.5 25.8 C 233.46 25.76 233.5 24.9 233.5 24.9 C 233.5 24.9 231.81 24.9 231.8 24.9 C 230.8 24.9 230.5 25.3 230.5 25.8 C 230.5 26.5 230.9 26.8 231.8 26.8 C 232.6 26.8 233.2 26.5 233.5 25.8 Z M 238.6 22 C 238.6 22 238.6 22.7 238.6 22.7 C 238.6 22.7 238.5 22.7 238.5 22.7 C 237.4 22.7 236.7 23.4 236.7 24.7 C 236.69 24.66 236.7 27.3 236.7 27.3 L 236 27.3 L 236 22.1 L 236.7 22.1 C 236.7 22.1 236.66 23.11 236.7 23.1 C 237 22.4 237.7 22 238.6 22 Z M 244.6 19.9 L 244.6 27.3 L 243.9 27.3 C 243.9 27.3 243.91 26.3 243.9 26.3 C 243.5 27 242.8 27.4 241.9 27.4 C 240.4 27.4 239.3 26.3 239.3 24.7 C 239.3 23.1 240.4 22 241.9 22 C 242.7 22 243.4 22.4 243.9 23.1 C 243.88 23.08 243.9 19.9 243.9 19.9 L 244.6 19.9 Z M 243.9 24.7 C 243.9 23.5 243.1 22.7 241.9 22.7 C 240.8 22.7 240 23.5 240 24.7 C 240 25.9 240.8 26.8 241.9 26.8 C 243.1 26.8 243.9 25.9 243.9 24.7 Z M 254 19.9 L 254 27.3 L 253.3 27.3 C 253.3 27.3 253.31 26.3 253.3 26.3 C 252.9 27 252.2 27.4 251.3 27.4 C 249.8 27.4 248.7 26.3 248.7 24.7 C 248.7 23.1 249.8 22 251.3 22 C 252.1 22 252.8 22.4 253.3 23.1 C 253.28 23.08 253.3 19.9 253.3 19.9 L 254 19.9 Z M 253.3 24.7 C 253.3 23.5 252.5 22.7 251.3 22.7 C 250.2 22.7 249.4 23.5 249.4 24.7 C 249.4 25.9 250.2 26.8 251.3 26.8 C 252.5 26.8 253.3 25.9 253.3 24.7 Z M 259.9 24.1 C 259.89 24.08 259.9 27.3 259.9 27.3 L 259.2 27.3 C 259.2 27.3 259.21 26.52 259.2 26.5 C 258.9 27.1 258.3 27.4 257.4 27.4 C 256.2 27.4 255.5 26.8 255.5 25.9 C 255.5 25 256 24.4 257.5 24.4 C 257.51 24.37 259.2 24.4 259.2 24.4 C 259.2 24.4 259.18 24.05 259.2 24.1 C 259.2 23.1 258.7 22.7 257.7 22.7 C 257 22.7 256.4 22.9 255.9 23.3 C 255.9 23.3 255.6 22.7 255.6 22.7 C 256.2 22.3 256.9 22 257.8 22 C 259.1 22 259.9 22.7 259.9 24.1 Z M 259.2 25.8 C 259.18 25.76 259.2 24.9 259.2 24.9 C 259.2 24.9 257.53 24.9 257.5 24.9 C 256.5 24.9 256.2 25.3 256.2 25.8 C 256.2 26.5 256.7 26.8 257.5 26.8 C 258.3 26.8 258.9 26.5 259.2 25.8 Z M 266 22.1 C 266 22.1 263.42 27.97 263.4 28 C 263 29 262.4 29.3 261.7 29.3 C 261.2 29.3 260.7 29.2 260.4 28.9 C 260.4 28.9 260.7 28.3 260.7 28.3 C 261 28.6 261.3 28.7 261.7 28.7 C 262.1 28.7 262.5 28.5 262.8 27.8 C 262.77 27.84 263 27.3 263 27.3 L 260.6 22.1 L 261.4 22.1 L 263.4 26.6 L 265.3 22.1 L 266 22.1 Z M 270.3 27 C 270 27.3 269.6 27.4 269.1 27.4 C 268.2 27.4 267.6 26.8 267.6 25.9 C 267.61 25.86 267.6 22.7 267.6 22.7 L 266.7 22.7 L 266.7 22.1 L 267.6 22.1 L 267.6 20.9 L 268.3 20.9 L 268.3 22.1 L 269.9 22.1 L 269.9 22.7 L 268.3 22.7 C 268.3 22.7 268.32 25.82 268.3 25.8 C 268.3 26.4 268.6 26.8 269.2 26.8 C 269.5 26.8 269.8 26.7 270 26.5 C 270 26.5 270.3 27 270.3 27 Z M 271.3 20.4 C 271.3 20.2 271.5 19.9 271.8 19.9 C 272.1 19.9 272.3 20.1 272.3 20.4 C 272.3 20.7 272.1 20.9 271.8 20.9 C 271.5 20.9 271.3 20.7 271.3 20.4 Z M 271.4 22.1 L 272.2 22.1 L 272.2 27.3 L 271.4 27.3 L 271.4 22.1 Z M 282.7 24.3 C 282.68 24.29 282.7 27.3 282.7 27.3 L 282 27.3 C 282 27.3 281.97 24.36 282 24.4 C 282 23.2 281.4 22.7 280.5 22.7 C 279.4 22.7 278.7 23.4 278.7 24.6 C 278.7 24.58 278.7 27.3 278.7 27.3 L 278 27.3 C 278 27.3 277.99 24.36 278 24.4 C 278 23.2 277.4 22.7 276.5 22.7 C 275.4 22.7 274.7 23.4 274.7 24.6 C 274.71 24.58 274.7 27.3 274.7 27.3 L 274 27.3 L 274 22.1 L 274.7 22.1 C 274.7 22.1 274.68 23.04 274.7 23 C 275 22.4 275.7 22 276.6 22 C 277.5 22 278.2 22.4 278.5 23.1 C 278.9 22.5 279.6 22 280.6 22 C 281.8 22 282.7 22.8 282.7 24.3 Z M 289.2 24.9 C 289.2 24.9 284.8 24.9 284.8 24.9 C 284.9 26 285.7 26.8 286.9 26.8 C 287.5 26.8 288.1 26.5 288.5 26.1 C 288.5 26.1 288.9 26.5 288.9 26.5 C 288.4 27.1 287.7 27.4 286.8 27.4 C 285.2 27.4 284.1 26.3 284.1 24.7 C 284.1 23.1 285.2 22 286.6 22 C 288.1 22 289.2 23.1 289.2 24.7 C 289.2 24.8 289.2 24.8 289.2 24.9 Z M 284.8 24.4 C 284.8 24.4 288.5 24.4 288.5 24.4 C 288.4 23.4 287.7 22.6 286.6 22.6 C 285.6 22.6 284.9 23.4 284.8 24.4 Z M 298.1 24.3 C 298.1 24.29 298.1 27.3 298.1 27.3 L 297.4 27.3 C 297.4 27.3 297.39 24.36 297.4 24.4 C 297.4 23.2 296.8 22.7 295.8 22.7 C 294.7 22.7 294 23.4 294 24.6 C 293.97 24.58 294 27.3 294 27.3 L 293.3 27.3 L 293.3 19.9 L 294 19.9 C 294 19.9 293.97 23 294 23 C 294.4 22.4 295.1 22 295.9 22 C 297.2 22 298.1 22.8 298.1 24.3 Z M 299.5 24.7 C 299.5 23.1 300.6 22 302.2 22 C 303.7 22 304.8 23.1 304.8 24.7 C 304.8 26.3 303.7 27.4 302.2 27.4 C 300.6 27.4 299.5 26.3 299.5 24.7 Z M 304.1 24.7 C 304.1 23.5 303.3 22.7 302.2 22.7 C 301 22.7 300.2 23.5 300.2 24.7 C 300.2 25.9 301 26.8 302.2 26.8 C 303.3 26.8 304.1 25.9 304.1 24.7 Z M 311 22.1 L 311 27.3 L 310.3 27.3 C 310.3 27.3 310.31 26.38 310.3 26.4 C 309.9 27 309.3 27.4 308.4 27.4 C 307.1 27.4 306.2 26.6 306.2 25.1 C 306.2 25.13 306.2 22.1 306.2 22.1 L 306.9 22.1 C 306.9 22.1 306.91 25.06 306.9 25.1 C 306.9 26.2 307.5 26.8 308.5 26.8 C 309.6 26.8 310.3 26 310.3 24.8 C 310.28 24.84 310.3 22.1 310.3 22.1 L 311 22.1 Z M 315.5 22 C 315.5 22 315.5 22.7 315.5 22.7 C 315.4 22.7 315.4 22.7 315.3 22.7 C 314.2 22.7 313.6 23.4 313.6 24.7 C 313.56 24.66 313.6 27.3 313.6 27.3 L 312.8 27.3 L 312.8 22.1 L 313.5 22.1 C 313.5 22.1 313.53 23.11 313.5 23.1 C 313.9 22.4 314.5 22 315.5 22 Z M 316.2 26.7 C 316.2 26.7 316.5 26.2 316.5 26.2 C 316.9 26.5 317.6 26.8 318.4 26.8 C 319.4 26.8 319.8 26.4 319.8 25.9 C 319.8 24.5 316.4 25.6 316.4 23.5 C 316.4 22.7 317.1 22 318.4 22 C 319.1 22 319.9 22.2 320.3 22.5 C 320.3 22.5 320 23.1 320 23.1 C 319.5 22.8 319 22.6 318.4 22.6 C 317.5 22.6 317.1 23 317.1 23.5 C 317.1 24.9 320.5 23.9 320.5 25.9 C 320.5 26.8 319.7 27.4 318.3 27.4 C 317.4 27.4 316.6 27.1 316.2 26.7 Z M 322.7 26.8 C 322.7 27 322.6 27.1 322.5 27.4 C 322.51 27.42 322.1 28.8 322.1 28.8 L 321.6 28.8 C 321.6 28.8 321.95 27.35 322 27.3 C 321.7 27.3 321.6 27.1 321.6 26.8 C 321.6 26.5 321.8 26.3 322.1 26.3 C 322.4 26.3 322.7 26.5 322.7 26.8 Z M 334.5 22.1 L 332.5 27.3 L 331.8 27.3 L 330.2 23 L 328.5 27.3 L 327.9 27.3 L 325.9 22.1 L 326.6 22.1 L 328.2 26.6 L 329.9 22.1 L 330.5 22.1 L 332.2 26.6 L 333.9 22.1 L 334.5 22.1 Z M 340.4 24.3 C 340.43 24.29 340.4 27.3 340.4 27.3 L 339.7 27.3 C 339.7 27.3 339.73 24.36 339.7 24.4 C 339.7 23.2 339.1 22.7 338.1 22.7 C 337 22.7 336.3 23.4 336.3 24.6 C 336.3 24.58 336.3 27.3 336.3 27.3 L 335.6 27.3 L 335.6 19.9 L 336.3 19.9 C 336.3 19.9 336.3 23 336.3 23 C 336.7 22.4 337.4 22 338.3 22 C 339.6 22 340.4 22.8 340.4 24.3 Z M 346.9 24.9 C 346.9 24.9 342.5 24.9 342.5 24.9 C 342.6 26 343.4 26.8 344.6 26.8 C 345.2 26.8 345.8 26.5 346.2 26.1 C 346.2 26.1 346.6 26.5 346.6 26.5 C 346.1 27.1 345.4 27.4 344.6 27.4 C 342.9 27.4 341.8 26.3 341.8 24.7 C 341.8 23.1 342.9 22 344.4 22 C 345.9 22 346.9 23.1 346.9 24.7 C 346.9 24.8 346.9 24.8 346.9 24.9 Z M 342.5 24.4 C 342.5 24.4 346.3 24.4 346.3 24.4 C 346.2 23.4 345.4 22.6 344.4 22.6 C 343.4 22.6 342.6 23.4 342.5 24.4 Z M 351 22 C 351 22 351 22.7 351 22.7 C 350.9 22.7 350.9 22.7 350.8 22.7 C 349.7 22.7 349.1 23.4 349.1 24.7 C 349.05 24.66 349.1 27.3 349.1 27.3 L 348.3 27.3 L 348.3 22.1 L 349 22.1 C 349 22.1 349.02 23.11 349 23.1 C 349.4 22.4 350 22 351 22 Z M 356.7 24.9 C 356.7 24.9 352.3 24.9 352.3 24.9 C 352.4 26 353.3 26.8 354.4 26.8 C 355 26.8 355.6 26.5 356 26.1 C 356 26.1 356.4 26.5 356.4 26.5 C 355.9 27.1 355.2 27.4 354.4 27.4 C 352.7 27.4 351.6 26.3 351.6 24.7 C 351.6 23.1 352.7 22 354.2 22 C 355.7 22 356.7 23.1 356.7 24.7 C 356.7 24.8 356.7 24.8 356.7 24.9 Z M 352.3 24.4 C 352.3 24.4 356.1 24.4 356.1 24.4 C 356 23.4 355.2 22.6 354.2 22.6 C 353.2 22.6 352.4 23.4 352.3 24.4 Z M 363.6 27 C 363.3 27.3 362.9 27.4 362.5 27.4 C 361.5 27.4 360.9 26.8 360.9 25.9 C 360.93 25.86 360.9 22.7 360.9 22.7 L 360 22.7 L 360 22.1 L 360.9 22.1 L 360.9 20.9 L 361.6 20.9 L 361.6 22.1 L 363.2 22.1 L 363.2 22.7 L 361.6 22.7 C 361.6 22.7 361.64 25.82 361.6 25.8 C 361.6 26.4 362 26.8 362.6 26.8 C 362.8 26.8 363.1 26.7 363.3 26.5 C 363.3 26.5 363.6 27 363.6 27 Z M 369.6 24.3 C 369.61 24.29 369.6 27.3 369.6 27.3 L 368.9 27.3 C 368.9 27.3 368.9 24.36 368.9 24.4 C 368.9 23.2 368.3 22.7 367.3 22.7 C 366.2 22.7 365.5 23.4 365.5 24.6 C 365.48 24.58 365.5 27.3 365.5 27.3 L 364.8 27.3 L 364.8 19.9 L 365.5 19.9 C 365.5 19.9 365.48 23 365.5 23 C 365.9 22.4 366.6 22 367.5 22 C 368.7 22 369.6 22.8 369.6 24.3 Z M 376.1 24.9 C 376.1 24.9 371.7 24.9 371.7 24.9 C 371.8 26 372.6 26.8 373.8 26.8 C 374.4 26.8 375 26.5 375.4 26.1 C 375.4 26.1 375.8 26.5 375.8 26.5 C 375.3 27.1 374.6 27.4 373.8 27.4 C 372.1 27.4 371 26.3 371 24.7 C 371 23.1 372.1 22 373.6 22 C 375 22 376.1 23.1 376.1 24.7 C 376.1 24.8 376.1 24.8 376.1 24.9 Z M 371.7 24.4 C 371.7 24.4 375.4 24.4 375.4 24.4 C 375.3 23.4 374.6 22.6 373.6 22.6 C 372.5 22.6 371.8 23.4 371.7 24.4 Z M 380.2 22 C 380.2 22 380.2 22.7 380.2 22.7 C 380.1 22.7 380 22.7 380 22.7 C 378.9 22.7 378.2 23.4 378.2 24.7 C 378.23 24.66 378.2 27.3 378.2 27.3 L 377.5 27.3 L 377.5 22.1 L 378.2 22.1 C 378.2 22.1 378.2 23.11 378.2 23.1 C 378.5 22.4 379.2 22 380.2 22 Z M 385.9 24.9 C 385.9 24.9 381.5 24.9 381.5 24.9 C 381.6 26 382.4 26.8 383.6 26.8 C 384.2 26.8 384.8 26.5 385.2 26.1 C 385.2 26.1 385.6 26.5 385.6 26.5 C 385.1 27.1 384.4 27.4 383.6 27.4 C 381.9 27.4 380.8 26.3 380.8 24.7 C 380.8 23.1 381.9 22 383.4 22 C 384.9 22 385.9 23.1 385.9 24.7 C 385.9 24.8 385.9 24.8 385.9 24.9 Z M 381.5 24.4 C 381.5 24.4 385.2 24.4 385.2 24.4 C 385.2 23.4 384.4 22.6 383.4 22.6 C 382.3 22.6 381.6 23.4 381.5 24.4 Z M 398.7 24.3 C 398.67 24.29 398.7 27.3 398.7 27.3 L 398 27.3 C 398 27.3 397.96 24.36 398 24.4 C 398 23.2 397.4 22.7 396.4 22.7 C 395.4 22.7 394.7 23.4 394.7 24.6 C 394.69 24.58 394.7 27.3 394.7 27.3 L 394 27.3 C 394 27.3 393.98 24.36 394 24.4 C 394 23.2 393.4 22.7 392.5 22.7 C 391.4 22.7 390.7 23.4 390.7 24.6 C 390.7 24.58 390.7 27.3 390.7 27.3 L 390 27.3 L 390 22.1 L 390.7 22.1 C 390.7 22.1 390.67 23.04 390.7 23 C 391 22.4 391.7 22 392.6 22 C 393.5 22 394.1 22.4 394.5 23.1 C 394.8 22.5 395.6 22 396.5 22 C 397.8 22 398.7 22.8 398.7 24.3 Z M 404.5 24.1 C 404.5 24.08 404.5 27.3 404.5 27.3 L 403.8 27.3 C 403.8 27.3 403.82 26.52 403.8 26.5 C 403.5 27.1 402.9 27.4 402 27.4 C 400.8 27.4 400.1 26.8 400.1 25.9 C 400.1 25 400.6 24.4 402.1 24.4 C 402.12 24.37 403.8 24.4 403.8 24.4 C 403.8 24.4 403.79 24.05 403.8 24.1 C 403.8 23.1 403.3 22.7 402.3 22.7 C 401.6 22.7 401 22.9 400.5 23.3 C 400.5 23.3 400.2 22.7 400.2 22.7 C 400.8 22.3 401.5 22 402.4 22 C 403.7 22 404.5 22.7 404.5 24.1 Z M 403.8 25.8 C 403.79 25.76 403.8 24.9 403.8 24.9 C 403.8 24.9 402.14 24.9 402.1 24.9 C 401.1 24.9 400.8 25.3 400.8 25.8 C 400.8 26.5 401.3 26.8 402.1 26.8 C 402.9 26.8 403.5 26.5 403.8 25.8 Z M 410.7 22.1 C 410.7 22.1 408.03 27.97 408 28 C 407.6 29 407 29.3 406.3 29.3 C 405.8 29.3 405.3 29.2 405 28.9 C 405 28.9 405.3 28.3 405.3 28.3 C 405.6 28.6 405.9 28.7 406.3 28.7 C 406.8 28.7 407.1 28.5 407.4 27.8 C 407.38 27.84 407.6 27.3 407.6 27.3 L 405.3 22.1 L 406 22.1 L 408 26.6 L 410 22.1 L 410.7 22.1 Z M 419.6 24.7 C 419.6 26.3 418.5 27.4 417 27.4 C 416.1 27.4 415.4 27 415 26.3 C 414.95 26.3 415 27.3 415 27.3 L 414.3 27.3 L 414.3 19.9 L 415 19.9 C 415 19.9 414.98 23.08 415 23.1 C 415.4 22.4 416.1 22 417 22 C 418.5 22 419.6 23.1 419.6 24.7 Z M 418.9 24.7 C 418.9 23.5 418 22.7 416.9 22.7 C 415.8 22.7 415 23.5 415 24.7 C 415 25.9 415.8 26.8 416.9 26.8 C 418 26.8 418.9 25.9 418.9 24.7 Z M 425.7 24.9 C 425.7 24.9 421.3 24.9 421.3 24.9 C 421.4 26 422.2 26.8 423.4 26.8 C 424 26.8 424.6 26.5 425 26.1 C 425 26.1 425.4 26.5 425.4 26.5 C 424.9 27.1 424.2 27.4 423.4 27.4 C 421.7 27.4 420.6 26.3 420.6 24.7 C 420.6 23.1 421.7 22 423.2 22 C 424.7 22 425.7 23.1 425.7 24.7 C 425.7 24.8 425.7 24.8 425.7 24.9 Z M 421.3 24.4 C 421.3 24.4 425.1 24.4 425.1 24.4 C 425 23.4 424.2 22.6 423.2 22.6 C 422.2 22.6 421.4 23.4 421.3 24.4 Z " stroke="none" fill="#323132"/>
  </g>
  <g id="Polygon122796">
    <path d="M 20.4 24.7 L 16.2 26.8 L 16.2 22.6 L 20.4 24.7 Z " stroke="none" fill="#a243ff"/>
  </g>
</svg>