<?xml version="1.0" standalone="no"?>
<!DOCTYPE svg PUBLIC "-//W3C//DTD SVG 1.1//EN" "http://www.w3.org/Graphics/SVG/1.1/DTD/svg11.dtd">
<svg xmlns="http://www.w3.org/2000/svg" version="1.1" width="492px" height="97.8px" viewBox="0 0 492 97.8">
  <desc>Feedback Accurate controls are engineered to ensure there is a high level of correspondence between the movement of t...</desc>
  <defs/>
  <g id="Polygon118186">
    <path d="M 15.7 69.6 C 15.67 69.63 15.7 72.7 15.7 72.7 L 15 72.7 C 15 72.7 14.96 69.7 15 69.7 C 15 68.6 14.4 68 13.5 68 C 12.4 68 11.7 68.7 11.7 69.9 C 11.69 69.92 11.7 72.7 11.7 72.7 L 11 72.7 C 11 72.7 10.98 69.7 11 69.7 C 11 68.6 10.4 68 9.5 68 C 8.4 68 7.7 68.7 7.7 69.9 C 7.7 69.92 7.7 72.7 7.7 72.7 L 7 72.7 L 7 67.4 L 7.7 67.4 C 7.7 67.4 7.67 68.38 7.7 68.4 C 8 67.7 8.7 67.4 9.6 67.4 C 10.5 67.4 11.2 67.7 11.5 68.5 C 11.8 67.8 12.6 67.4 13.6 67.4 C 14.8 67.4 15.7 68.1 15.7 69.6 Z M 17.1 70 C 17.1 68.5 18.2 67.4 19.7 67.4 C 21.3 67.4 22.4 68.5 22.4 70 C 22.4 71.6 21.3 72.7 19.7 72.7 C 18.2 72.7 17.1 71.6 17.1 70 Z M 21.7 70 C 21.7 68.8 20.9 68 19.7 68 C 18.6 68 17.8 68.8 17.8 70 C 17.8 71.3 18.6 72.1 19.7 72.1 C 20.9 72.1 21.7 71.3 21.7 70 Z M 28.2 67.4 L 25.9 72.7 L 25.1 72.7 L 22.8 67.4 L 23.5 67.4 L 25.5 71.9 L 27.5 67.4 L 28.2 67.4 Z M 33.7 70.3 C 33.7 70.3 29.3 70.3 29.3 70.3 C 29.4 71.4 30.2 72.1 31.4 72.1 C 32 72.1 32.6 71.9 33 71.4 C 33 71.4 33.4 71.9 33.4 71.9 C 32.9 72.4 32.2 72.7 31.3 72.7 C 29.7 72.7 28.6 71.6 28.6 70 C 28.6 68.5 29.7 67.4 31.2 67.4 C 32.6 67.4 33.7 68.5 33.7 70 C 33.7 70.1 33.7 70.2 33.7 70.3 Z M 29.3 69.7 C 29.3 69.7 33 69.7 33 69.7 C 32.9 68.7 32.2 68 31.2 68 C 30.1 68 29.4 68.7 29.3 69.7 Z M 43.8 69.6 C 43.79 69.63 43.8 72.7 43.8 72.7 L 43.1 72.7 C 43.1 72.7 43.08 69.7 43.1 69.7 C 43.1 68.6 42.5 68 41.6 68 C 40.5 68 39.8 68.7 39.8 69.9 C 39.81 69.92 39.8 72.7 39.8 72.7 L 39.1 72.7 C 39.1 72.7 39.1 69.7 39.1 69.7 C 39.1 68.6 38.5 68 37.6 68 C 36.5 68 35.8 68.7 35.8 69.9 C 35.82 69.92 35.8 72.7 35.8 72.7 L 35.1 72.7 L 35.1 67.4 L 35.8 67.4 C 35.8 67.4 35.79 68.38 35.8 68.4 C 36.2 67.7 36.8 67.4 37.7 67.4 C 38.6 67.4 39.3 67.7 39.6 68.5 C 40 67.8 40.7 67.4 41.7 67.4 C 43 67.4 43.8 68.1 43.8 69.6 Z M 50.3 70.3 C 50.3 70.3 45.9 70.3 45.9 70.3 C 46 71.4 46.8 72.1 48 72.1 C 48.6 72.1 49.2 71.9 49.6 71.4 C 49.6 71.4 50 71.9 50 71.9 C 49.5 72.4 48.8 72.7 47.9 72.7 C 46.3 72.7 45.2 71.6 45.2 70 C 45.2 68.5 46.3 67.4 47.8 67.4 C 49.2 67.4 50.3 68.5 50.3 70 C 50.3 70.1 50.3 70.2 50.3 70.3 Z M 45.9 69.7 C 45.9 69.7 49.6 69.7 49.6 69.7 C 49.5 68.7 48.8 68 47.8 68 C 46.7 68 46 68.7 45.9 69.7 Z M 56.5 69.6 C 56.54 69.63 56.5 72.7 56.5 72.7 L 55.8 72.7 C 55.8 72.7 55.84 69.7 55.8 69.7 C 55.8 68.6 55.3 68 54.3 68 C 53.1 68 52.4 68.7 52.4 69.9 C 52.41 69.92 52.4 72.7 52.4 72.7 L 51.7 72.7 L 51.7 67.4 L 52.4 67.4 C 52.4 67.4 52.38 68.39 52.4 68.4 C 52.8 67.7 53.5 67.4 54.4 67.4 C 55.7 67.4 56.5 68.1 56.5 69.6 Z M 61.1 72.4 C 60.8 72.6 60.4 72.7 60 72.7 C 59 72.7 58.4 72.2 58.4 71.2 C 58.43 71.2 58.4 68 58.4 68 L 57.5 68 L 57.5 67.4 L 58.4 67.4 L 58.4 66.3 L 59.1 66.3 L 59.1 67.4 L 60.7 67.4 L 60.7 68 L 59.1 68 C 59.1 68 59.14 71.16 59.1 71.2 C 59.1 71.8 59.5 72.1 60 72.1 C 60.3 72.1 60.6 72 60.8 71.9 C 60.8 71.9 61.1 72.4 61.1 72.4 Z M 64.5 70 C 64.5 68.5 65.6 67.4 67.1 67.4 C 68.7 67.4 69.8 68.5 69.8 70 C 69.8 71.6 68.7 72.7 67.1 72.7 C 65.6 72.7 64.5 71.6 64.5 70 Z M 69.1 70 C 69.1 68.8 68.3 68 67.1 68 C 66 68 65.2 68.8 65.2 70 C 65.2 71.3 66 72.1 67.1 72.1 C 68.3 72.1 69.1 71.3 69.1 70 Z M 72 66.8 C 72 66.8 72 67.4 72 67.4 L 73.6 67.4 L 73.6 68 L 72 68 L 72 72.7 L 71.3 72.7 L 71.3 68 L 70.4 68 L 70.4 67.4 L 71.3 67.4 C 71.3 67.4 71.31 66.77 71.3 66.8 C 71.3 65.8 71.9 65.2 72.9 65.2 C 73.3 65.2 73.7 65.3 74 65.5 C 74 65.5 73.7 66.1 73.7 66.1 C 73.5 65.9 73.2 65.8 72.9 65.8 C 72.3 65.8 72 66.1 72 66.8 Z M 81.2 69.4 C 81.17 69.42 81.2 72.7 81.2 72.7 L 80.5 72.7 C 80.5 72.7 80.49 71.86 80.5 71.9 C 80.2 72.4 79.6 72.7 78.7 72.7 C 77.5 72.7 76.8 72.1 76.8 71.2 C 76.8 70.4 77.3 69.7 78.8 69.7 C 78.79 69.71 80.5 69.7 80.5 69.7 C 80.5 69.7 80.46 69.39 80.5 69.4 C 80.5 68.5 80 68 79 68 C 78.3 68 77.7 68.2 77.2 68.6 C 77.2 68.6 76.9 68.1 76.9 68.1 C 77.4 67.6 78.2 67.4 79 67.4 C 80.4 67.4 81.2 68.1 81.2 69.4 Z M 80.5 71.1 C 80.46 71.1 80.5 70.2 80.5 70.2 C 80.5 70.2 78.81 70.24 78.8 70.2 C 77.8 70.2 77.5 70.6 77.5 71.2 C 77.5 71.8 78 72.2 78.8 72.2 C 79.6 72.2 80.2 71.8 80.5 71.1 Z M 85 72.1 C 85 72.1 85.3 71.5 85.3 71.5 C 85.7 71.9 86.4 72.1 87.2 72.1 C 88.2 72.1 88.6 71.8 88.6 71.3 C 88.6 69.9 85.2 71 85.2 68.9 C 85.2 68 85.9 67.4 87.3 67.4 C 87.9 67.4 88.7 67.6 89.1 67.9 C 89.1 67.9 88.8 68.4 88.8 68.4 C 88.4 68.1 87.8 68 87.3 68 C 86.3 68 85.9 68.4 85.9 68.9 C 85.9 70.3 89.3 69.2 89.3 71.2 C 89.3 72.1 88.5 72.7 87.1 72.7 C 86.3 72.7 85.4 72.4 85 72.1 Z M 93.6 72.4 C 93.3 72.6 92.9 72.7 92.5 72.7 C 91.5 72.7 90.9 72.2 90.9 71.2 C 90.94 71.2 90.9 68 90.9 68 L 90 68 L 90 67.4 L 90.9 67.4 L 90.9 66.3 L 91.6 66.3 L 91.6 67.4 L 93.2 67.4 L 93.2 68 L 91.6 68 C 91.6 68 91.65 71.16 91.6 71.2 C 91.6 71.8 92 72.1 92.6 72.1 C 92.8 72.1 93.1 72 93.3 71.9 C 93.3 71.9 93.6 72.4 93.6 72.4 Z M 99.2 70.3 C 99.2 70.3 94.8 70.3 94.8 70.3 C 94.9 71.4 95.8 72.1 96.9 72.1 C 97.6 72.1 98.1 71.9 98.5 71.4 C 98.5 71.4 98.9 71.9 98.9 71.9 C 98.5 72.4 97.7 72.7 96.9 72.7 C 95.3 72.7 94.1 71.6 94.1 70 C 94.1 68.5 95.2 67.4 96.7 67.4 C 98.2 67.4 99.3 68.5 99.3 70 C 99.3 70.1 99.2 70.2 99.2 70.3 Z M 94.8 69.7 C 94.8 69.7 98.6 69.7 98.6 69.7 C 98.5 68.7 97.7 68 96.7 68 C 95.7 68 94.9 68.7 94.8 69.7 Z M 105.4 70.3 C 105.4 70.3 101 70.3 101 70.3 C 101 71.4 101.9 72.1 103 72.1 C 103.7 72.1 104.3 71.9 104.7 71.4 C 104.7 71.4 105 71.9 105 71.9 C 104.6 72.4 103.9 72.7 103 72.7 C 101.4 72.7 100.3 71.6 100.3 70 C 100.3 68.5 101.3 67.4 102.8 67.4 C 104.3 67.4 105.4 68.5 105.4 70 C 105.4 70.1 105.4 70.2 105.4 70.3 Z M 101 69.7 C 101 69.7 104.7 69.7 104.7 69.7 C 104.6 68.7 103.9 68 102.8 68 C 101.8 68 101.1 68.7 101 69.7 Z M 109.4 67.4 C 109.4 67.4 109.4 68.1 109.4 68.1 C 109.4 68.1 109.3 68.1 109.3 68.1 C 108.2 68.1 107.5 68.8 107.5 70 C 107.49 70 107.5 72.7 107.5 72.7 L 106.8 72.7 L 106.8 67.4 L 107.5 67.4 C 107.5 67.4 107.46 68.45 107.5 68.4 C 107.8 67.7 108.5 67.4 109.4 67.4 Z M 110.5 65.8 C 110.5 65.5 110.7 65.3 111 65.3 C 111.3 65.3 111.5 65.5 111.5 65.7 C 111.5 66 111.3 66.3 111 66.3 C 110.7 66.3 110.5 66 110.5 65.8 Z M 110.7 67.4 L 111.4 67.4 L 111.4 72.7 L 110.7 72.7 L 110.7 67.4 Z M 118 69.6 C 118.05 69.63 118 72.7 118 72.7 L 117.3 72.7 C 117.3 72.7 117.34 69.7 117.3 69.7 C 117.3 68.6 116.8 68 115.8 68 C 114.6 68 113.9 68.7 113.9 69.9 C 113.92 69.92 113.9 72.7 113.9 72.7 L 113.2 72.7 L 113.2 67.4 L 113.9 67.4 C 113.9 67.4 113.89 68.39 113.9 68.4 C 114.3 67.7 115 67.4 115.9 67.4 C 117.2 67.4 118 68.1 118 69.6 Z M 124.8 67.4 C 124.8 67.4 124.81 72.04 124.8 72 C 124.8 73.9 123.9 74.7 122.2 74.7 C 121.2 74.7 120.3 74.4 119.7 73.9 C 119.7 73.9 120.1 73.3 120.1 73.3 C 120.6 73.8 121.4 74 122.2 74 C 123.5 74 124.1 73.4 124.1 72.1 C 124.1 72.1 124.1 71.5 124.1 71.5 C 123.7 72.1 122.9 72.5 122.1 72.5 C 120.6 72.5 119.4 71.4 119.4 69.9 C 119.4 68.4 120.6 67.4 122.1 67.4 C 122.9 67.4 123.7 67.7 124.1 68.4 C 124.13 68.43 124.1 67.4 124.1 67.4 L 124.8 67.4 Z M 124.1 69.9 C 124.1 68.8 123.3 68 122.1 68 C 121 68 120.1 68.8 120.1 69.9 C 120.1 71.1 121 71.9 122.1 71.9 C 123.3 71.9 124.1 71.1 124.1 69.9 Z M 137.1 67.4 L 135.2 72.7 L 134.5 72.7 L 132.8 68.4 L 131.2 72.7 L 130.5 72.7 L 128.5 67.4 L 129.2 67.4 L 130.8 71.9 L 132.5 67.4 L 133.1 67.4 L 134.8 71.9 L 136.5 67.4 L 137.1 67.4 Z M 143.1 69.6 C 143.08 69.63 143.1 72.7 143.1 72.7 L 142.4 72.7 C 142.4 72.7 142.37 69.7 142.4 69.7 C 142.4 68.6 141.8 68 140.8 68 C 139.7 68 138.9 68.7 138.9 69.9 C 138.95 69.92 138.9 72.7 138.9 72.7 L 138.2 72.7 L 138.2 65.3 L 138.9 65.3 C 138.9 65.3 138.95 68.34 138.9 68.3 C 139.3 67.7 140 67.4 140.9 67.4 C 142.2 67.4 143.1 68.1 143.1 69.6 Z M 149.6 70.3 C 149.6 70.3 145.2 70.3 145.2 70.3 C 145.3 71.4 146.1 72.1 147.2 72.1 C 147.9 72.1 148.5 71.9 148.9 71.4 C 148.9 71.4 149.3 71.9 149.3 71.9 C 148.8 72.4 148.1 72.7 147.2 72.7 C 145.6 72.7 144.5 71.6 144.5 70 C 144.5 68.5 145.6 67.4 147 67.4 C 148.5 67.4 149.6 68.5 149.6 70 C 149.6 70.1 149.6 70.2 149.6 70.3 Z M 145.2 69.7 C 145.2 69.7 148.9 69.7 148.9 69.7 C 148.8 68.7 148.1 68 147 68 C 146 68 145.3 68.7 145.2 69.7 Z M 155.7 70.3 C 155.7 70.3 151.3 70.3 151.3 70.3 C 151.4 71.4 152.2 72.1 153.4 72.1 C 154 72.1 154.6 71.9 155 71.4 C 155 71.4 155.4 71.9 155.4 71.9 C 154.9 72.4 154.2 72.7 153.3 72.7 C 151.7 72.7 150.6 71.6 150.6 70 C 150.6 68.5 151.7 67.4 153.2 67.4 C 154.6 67.4 155.7 68.5 155.7 70 C 155.7 70.1 155.7 70.2 155.7 70.3 Z M 151.3 69.7 C 151.3 69.7 155 69.7 155 69.7 C 154.9 68.7 154.2 68 153.2 68 C 152.1 68 151.4 68.7 151.3 69.7 Z M 157.1 65.3 L 157.8 65.3 L 157.8 72.7 L 157.1 72.7 L 157.1 65.3 Z M 166.4 69.4 C 166.4 69.42 166.4 72.7 166.4 72.7 L 165.7 72.7 C 165.7 72.7 165.72 71.86 165.7 71.9 C 165.4 72.4 164.8 72.7 163.9 72.7 C 162.7 72.7 162 72.1 162 71.2 C 162 70.4 162.5 69.7 164 69.7 C 164.02 69.71 165.7 69.7 165.7 69.7 C 165.7 69.7 165.69 69.39 165.7 69.4 C 165.7 68.5 165.2 68 164.2 68 C 163.5 68 162.9 68.2 162.4 68.6 C 162.4 68.6 162.1 68.1 162.1 68.1 C 162.7 67.6 163.4 67.4 164.3 67.4 C 165.6 67.4 166.4 68.1 166.4 69.4 Z M 165.7 71.1 C 165.69 71.1 165.7 70.2 165.7 70.2 C 165.7 70.2 164.04 70.24 164 70.2 C 163 70.2 162.7 70.6 162.7 71.2 C 162.7 71.8 163.2 72.2 164 72.2 C 164.8 72.2 165.4 71.8 165.7 71.1 Z M 173.1 69.6 C 173.05 69.63 173.1 72.7 173.1 72.7 L 172.3 72.7 C 172.3 72.7 172.34 69.7 172.3 69.7 C 172.3 68.6 171.8 68 170.8 68 C 169.6 68 168.9 68.7 168.9 69.9 C 168.92 69.92 168.9 72.7 168.9 72.7 L 168.2 72.7 L 168.2 67.4 L 168.9 67.4 C 168.9 67.4 168.89 68.39 168.9 68.4 C 169.3 67.7 170 67.4 170.9 67.4 C 172.2 67.4 173.1 68.1 173.1 69.6 Z M 179.8 65.3 L 179.8 72.7 L 179.1 72.7 C 179.1 72.7 179.09 71.64 179.1 71.6 C 178.7 72.3 177.9 72.7 177.1 72.7 C 175.6 72.7 174.4 71.6 174.4 70 C 174.4 68.5 175.6 67.4 177.1 67.4 C 177.9 67.4 178.6 67.7 179.1 68.4 C 179.06 68.42 179.1 65.3 179.1 65.3 L 179.8 65.3 Z M 179.1 70 C 179.1 68.8 178.2 68 177.1 68 C 176 68 175.2 68.8 175.2 70 C 175.2 71.3 176 72.1 177.1 72.1 C 178.2 72.1 179.1 71.3 179.1 70 Z M 187.1 72.4 C 186.9 72.6 186.4 72.7 186 72.7 C 185 72.7 184.5 72.2 184.5 71.2 C 184.49 71.2 184.5 68 184.5 68 L 183.5 68 L 183.5 67.4 L 184.5 67.4 L 184.5 66.3 L 185.2 66.3 L 185.2 67.4 L 186.8 67.4 L 186.8 68 L 185.2 68 C 185.2 68 185.19 71.16 185.2 71.2 C 185.2 71.8 185.5 72.1 186.1 72.1 C 186.4 72.1 186.7 72 186.9 71.9 C 186.9 71.9 187.1 72.4 187.1 72.4 Z M 193.2 69.6 C 193.16 69.63 193.2 72.7 193.2 72.7 L 192.5 72.7 C 192.5 72.7 192.45 69.7 192.5 69.7 C 192.5 68.6 191.9 68 190.9 68 C 189.7 68 189 68.7 189 69.9 C 189.03 69.92 189 72.7 189 72.7 L 188.3 72.7 L 188.3 65.3 L 189 65.3 C 189 65.3 189.03 68.34 189 68.3 C 189.4 67.7 190.1 67.4 191 67.4 C 192.3 67.4 193.2 68.1 193.2 69.6 Z M 199.7 70.3 C 199.7 70.3 195.3 70.3 195.3 70.3 C 195.3 71.4 196.2 72.1 197.3 72.1 C 198 72.1 198.5 71.9 198.9 71.4 C 198.9 71.4 199.3 71.9 199.3 71.9 C 198.9 72.4 198.1 72.7 197.3 72.7 C 195.7 72.7 194.5 71.6 194.5 70 C 194.5 68.5 195.6 67.4 197.1 67.4 C 198.6 67.4 199.7 68.5 199.7 70 C 199.7 70.1 199.7 70.2 199.7 70.3 Z M 195.3 69.7 C 195.3 69.7 199 69.7 199 69.7 C 198.9 68.7 198.1 68 197.1 68 C 196.1 68 195.3 68.7 195.3 69.7 Z M 203.2 70 C 203.2 68.5 204.3 67.4 205.9 67.4 C 206.8 67.4 207.6 67.7 208 68.4 C 208 68.4 207.4 68.8 207.4 68.8 C 207.1 68.2 206.5 68 205.9 68 C 204.8 68 203.9 68.8 203.9 70 C 203.9 71.3 204.8 72.1 205.9 72.1 C 206.5 72.1 207.1 71.9 207.4 71.3 C 207.4 71.3 208 71.7 208 71.7 C 207.6 72.4 206.8 72.7 205.9 72.7 C 204.3 72.7 203.2 71.6 203.2 70 Z M 208.8 70 C 208.8 68.5 209.9 67.4 211.4 67.4 C 213 67.4 214.1 68.5 214.1 70 C 214.1 71.6 213 72.7 211.4 72.7 C 209.9 72.7 208.8 71.6 208.8 70 Z M 213.4 70 C 213.4 68.8 212.6 68 211.4 68 C 210.3 68 209.5 68.8 209.5 70 C 209.5 71.3 210.3 72.1 211.4 72.1 C 212.6 72.1 213.4 71.3 213.4 70 Z M 218.2 67.4 C 218.2 67.4 218.2 68.1 218.2 68.1 C 218.1 68.1 218.1 68.1 218 68.1 C 216.9 68.1 216.2 68.8 216.2 70 C 216.25 70 216.2 72.7 216.2 72.7 L 215.5 72.7 L 215.5 67.4 L 216.2 67.4 C 216.2 67.4 216.22 68.45 216.2 68.4 C 216.5 67.7 217.2 67.4 218.2 67.4 Z M 222.1 67.4 C 222.1 67.4 222.1 68.1 222.1 68.1 C 222 68.1 221.9 68.1 221.9 68.1 C 220.8 68.1 220.1 68.8 220.1 70 C 220.12 70 220.1 72.7 220.1 72.7 L 219.4 72.7 L 219.4 67.4 L 220.1 67.4 C 220.1 67.4 220.09 68.45 220.1 68.4 C 220.4 67.7 221.1 67.4 222.1 67.4 Z M 227.8 70.3 C 227.8 70.3 223.4 70.3 223.4 70.3 C 223.5 71.4 224.3 72.1 225.5 72.1 C 226.1 72.1 226.7 71.9 227.1 71.4 C 227.1 71.4 227.5 71.9 227.5 71.9 C 227 72.4 226.3 72.7 225.5 72.7 C 223.8 72.7 222.7 71.6 222.7 70 C 222.7 68.5 223.8 67.4 225.3 67.4 C 226.7 67.4 227.8 68.5 227.8 70 C 227.8 70.1 227.8 70.2 227.8 70.3 Z M 223.4 69.7 C 223.4 69.7 227.1 69.7 227.1 69.7 C 227 68.7 226.3 68 225.3 68 C 224.2 68 223.5 68.7 223.4 69.7 Z M 228.6 72.1 C 228.6 72.1 228.9 71.5 228.9 71.5 C 229.3 71.9 230.1 72.1 230.8 72.1 C 231.8 72.1 232.2 71.8 232.2 71.3 C 232.2 69.9 228.8 71 228.8 68.9 C 228.8 68 229.5 67.4 230.9 67.4 C 231.6 67.4 232.3 67.6 232.7 67.9 C 232.7 67.9 232.4 68.4 232.4 68.4 C 232 68.1 231.4 68 230.9 68 C 229.9 68 229.5 68.4 229.5 68.9 C 229.5 70.3 232.9 69.2 232.9 71.2 C 232.9 72.1 232.1 72.7 230.7 72.7 C 229.9 72.7 229 72.4 228.6 72.1 Z M 239.6 70.1 C 239.6 71.7 238.4 72.7 236.9 72.7 C 236.1 72.7 235.4 72.4 234.9 71.7 C 234.94 71.69 234.9 74.6 234.9 74.6 L 234.2 74.6 L 234.2 67.4 L 234.9 67.4 C 234.9 67.4 234.91 68.46 234.9 68.5 C 235.3 67.8 236.1 67.4 236.9 67.4 C 238.4 67.4 239.6 68.5 239.6 70.1 Z M 238.9 70 C 238.9 68.8 238 68 236.9 68 C 235.8 68 234.9 68.8 234.9 70 C 234.9 71.3 235.8 72.1 236.9 72.1 C 238 72.1 238.9 71.3 238.9 70 Z M 240.6 70 C 240.6 68.5 241.7 67.4 243.2 67.4 C 244.8 67.4 245.9 68.5 245.9 70 C 245.9 71.6 244.8 72.7 243.2 72.7 C 241.7 72.7 240.6 71.6 240.6 70 Z M 245.2 70 C 245.2 68.8 244.4 68 243.2 68 C 242.1 68 241.3 68.8 241.3 70 C 241.3 71.3 242.1 72.1 243.2 72.1 C 244.4 72.1 245.2 71.3 245.2 70 Z M 252.2 69.6 C 252.18 69.63 252.2 72.7 252.2 72.7 L 251.5 72.7 C 251.5 72.7 251.47 69.7 251.5 69.7 C 251.5 68.6 250.9 68 249.9 68 C 248.8 68 248.1 68.7 248.1 69.9 C 248.05 69.92 248.1 72.7 248.1 72.7 L 247.3 72.7 L 247.3 67.4 L 248 67.4 C 248 67.4 248.02 68.39 248 68.4 C 248.4 67.7 249.1 67.4 250 67.4 C 251.3 67.4 252.2 68.1 252.2 69.6 Z M 258.9 65.3 L 258.9 72.7 L 258.2 72.7 C 258.2 72.7 258.22 71.64 258.2 71.6 C 257.8 72.3 257.1 72.7 256.2 72.7 C 254.7 72.7 253.6 71.6 253.6 70 C 253.6 68.5 254.7 67.4 256.2 67.4 C 257 67.4 257.7 67.7 258.2 68.4 C 258.19 68.42 258.2 65.3 258.2 65.3 L 258.9 65.3 Z M 258.2 70 C 258.2 68.8 257.4 68 256.2 68 C 255.1 68 254.3 68.8 254.3 70 C 254.3 71.3 255.1 72.1 256.2 72.1 C 257.4 72.1 258.2 71.3 258.2 70 Z M 260.6 65.8 C 260.6 65.5 260.8 65.3 261.1 65.3 C 261.4 65.3 261.6 65.5 261.6 65.7 C 261.6 66 261.4 66.3 261.1 66.3 C 260.8 66.3 260.6 66 260.6 65.8 Z M 260.8 67.4 L 261.5 67.4 L 261.5 72.7 L 260.8 72.7 L 260.8 67.4 Z M 268.2 69.6 C 268.15 69.63 268.2 72.7 268.2 72.7 L 267.4 72.7 C 267.4 72.7 267.44 69.7 267.4 69.7 C 267.4 68.6 266.9 68 265.9 68 C 264.7 68 264 68.7 264 69.9 C 264.02 69.92 264 72.7 264 72.7 L 263.3 72.7 L 263.3 67.4 L 264 67.4 C 264 67.4 263.99 68.39 264 68.4 C 264.4 67.7 265.1 67.4 266 67.4 C 267.3 67.4 268.2 68.1 268.2 69.6 Z M 274.9 67.4 C 274.9 67.4 274.92 72.04 274.9 72 C 274.9 73.9 274 74.7 272.3 74.7 C 271.3 74.7 270.4 74.4 269.8 73.9 C 269.8 73.9 270.2 73.3 270.2 73.3 C 270.7 73.8 271.5 74 272.3 74 C 273.6 74 274.2 73.4 274.2 72.1 C 274.2 72.1 274.2 71.5 274.2 71.5 C 273.8 72.1 273 72.5 272.2 72.5 C 270.7 72.5 269.5 71.4 269.5 69.9 C 269.5 68.4 270.7 67.4 272.2 67.4 C 273 67.4 273.8 67.7 274.2 68.4 C 274.24 68.43 274.2 67.4 274.2 67.4 L 274.9 67.4 Z M 274.2 69.9 C 274.2 68.8 273.4 68 272.2 68 C 271.1 68 270.2 68.8 270.2 69.9 C 270.2 71.1 271.1 71.9 272.2 71.9 C 273.4 71.9 274.2 71.1 274.2 69.9 Z M 288.2 69.6 C 288.21 69.63 288.2 72.7 288.2 72.7 L 287.5 72.7 C 287.5 72.7 287.5 69.7 287.5 69.7 C 287.5 68.6 286.9 68 286 68 C 284.9 68 284.2 68.7 284.2 69.9 C 284.23 69.92 284.2 72.7 284.2 72.7 L 283.5 72.7 C 283.5 72.7 283.52 69.7 283.5 69.7 C 283.5 68.6 283 68 282 68 C 280.9 68 280.2 68.7 280.2 69.9 C 280.24 69.92 280.2 72.7 280.2 72.7 L 279.5 72.7 L 279.5 67.4 L 280.2 67.4 C 280.2 67.4 280.21 68.38 280.2 68.4 C 280.6 67.7 281.3 67.4 282.1 67.4 C 283 67.4 283.7 67.7 284 68.5 C 284.4 67.8 285.1 67.4 286.1 67.4 C 287.4 67.4 288.2 68.1 288.2 69.6 Z M 289.6 70 C 289.6 68.5 290.7 67.4 292.3 67.4 C 293.8 67.4 294.9 68.5 294.9 70 C 294.9 71.6 293.8 72.7 292.3 72.7 C 290.7 72.7 289.6 71.6 289.6 70 Z M 294.2 70 C 294.2 68.8 293.4 68 292.3 68 C 291.2 68 290.3 68.8 290.3 70 C 290.3 71.3 291.2 72.1 292.3 72.1 C 293.4 72.1 294.2 71.3 294.2 70 Z M 300.7 67.4 L 298.4 72.7 L 297.7 72.7 L 295.3 67.4 L 296.1 67.4 L 298 71.9 L 300 67.4 L 300.7 67.4 Z M 306.2 70.3 C 306.2 70.3 301.8 70.3 301.8 70.3 C 301.9 71.4 302.8 72.1 303.9 72.1 C 304.5 72.1 305.1 71.9 305.5 71.4 C 305.5 71.4 305.9 71.9 305.9 71.9 C 305.4 72.4 304.7 72.7 303.9 72.7 C 302.2 72.7 301.1 71.6 301.1 70 C 301.1 68.5 302.2 67.4 303.7 67.4 C 305.2 67.4 306.2 68.5 306.2 70 C 306.2 70.1 306.2 70.2 306.2 70.3 Z M 301.8 69.7 C 301.8 69.7 305.6 69.7 305.6 69.7 C 305.5 68.7 304.7 68 303.7 68 C 302.7 68 301.9 68.7 301.8 69.7 Z M 316.3 69.6 C 316.32 69.63 316.3 72.7 316.3 72.7 L 315.6 72.7 C 315.6 72.7 315.62 69.7 315.6 69.7 C 315.6 68.6 315.1 68 314.1 68 C 313 68 312.3 68.7 312.3 69.9 C 312.34 69.92 312.3 72.7 312.3 72.7 L 311.6 72.7 C 311.6 72.7 311.64 69.7 311.6 69.7 C 311.6 68.6 311.1 68 310.1 68 C 309 68 308.4 68.7 308.4 69.9 C 308.35 69.92 308.4 72.7 308.4 72.7 L 307.6 72.7 L 307.6 67.4 L 308.3 67.4 C 308.3 67.4 308.32 68.38 308.3 68.4 C 308.7 67.7 309.4 67.4 310.3 67.4 C 311.1 67.4 311.8 67.7 312.1 68.5 C 312.5 67.8 313.3 67.4 314.2 67.4 C 315.5 67.4 316.3 68.1 316.3 69.6 Z M 322.8 70.3 C 322.8 70.3 318.4 70.3 318.4 70.3 C 318.5 71.4 319.3 72.1 320.5 72.1 C 321.1 72.1 321.7 71.9 322.1 71.4 C 322.1 71.4 322.5 71.9 322.5 71.9 C 322 72.4 321.3 72.7 320.5 72.7 C 318.8 72.7 317.7 71.6 317.7 70 C 317.7 68.5 318.8 67.4 320.3 67.4 C 321.8 67.4 322.8 68.5 322.8 70 C 322.8 70.1 322.8 70.2 322.8 70.3 Z M 318.4 69.7 C 318.4 69.7 322.2 69.7 322.2 69.7 C 322.1 68.7 321.3 68 320.3 68 C 319.3 68 318.5 68.7 318.4 69.7 Z M 329.1 69.6 C 329.08 69.63 329.1 72.7 329.1 72.7 L 328.4 72.7 C 328.4 72.7 328.37 69.7 328.4 69.7 C 328.4 68.6 327.8 68 326.8 68 C 325.7 68 325 68.7 325 69.9 C 324.95 69.92 325 72.7 325 72.7 L 324.2 72.7 L 324.2 67.4 L 324.9 67.4 C 324.9 67.4 324.92 68.39 324.9 68.4 C 325.3 67.7 326 67.4 326.9 67.4 C 328.2 67.4 329.1 68.1 329.1 69.6 Z M 333.6 72.4 C 333.3 72.6 332.9 72.7 332.5 72.7 C 331.5 72.7 331 72.2 331 71.2 C 330.96 71.2 331 68 331 68 L 330 68 L 330 67.4 L 331 67.4 L 331 66.3 L 331.7 66.3 L 331.7 67.4 L 333.3 67.4 L 333.3 68 L 331.7 68 C 331.7 68 331.67 71.16 331.7 71.2 C 331.7 71.8 332 72.1 332.6 72.1 C 332.9 72.1 333.2 72 333.4 71.9 C 333.4 71.9 333.6 72.4 333.6 72.4 Z M 337 70 C 337 68.5 338.1 67.4 339.7 67.4 C 341.2 67.4 342.3 68.5 342.3 70 C 342.3 71.6 341.2 72.7 339.7 72.7 C 338.1 72.7 337 71.6 337 70 Z M 341.6 70 C 341.6 68.8 340.8 68 339.7 68 C 338.6 68 337.7 68.8 337.7 70 C 337.7 71.3 338.6 72.1 339.7 72.1 C 340.8 72.1 341.6 71.3 341.6 70 Z M 344.5 66.8 C 344.54 66.8 344.5 67.4 344.5 67.4 L 346.2 67.4 L 346.2 68 L 344.6 68 L 344.6 72.7 L 343.9 72.7 L 343.9 68 L 342.9 68 L 342.9 67.4 L 343.9 67.4 C 343.9 67.4 343.85 66.77 343.9 66.8 C 343.9 65.8 344.4 65.2 345.4 65.2 C 345.8 65.2 346.2 65.3 346.5 65.5 C 346.5 65.5 346.2 66.1 346.2 66.1 C 346 65.9 345.8 65.8 345.5 65.8 C 344.9 65.8 344.5 66.1 344.5 66.8 Z M 352.5 72.4 C 352.2 72.6 351.8 72.7 351.4 72.7 C 350.4 72.7 349.9 72.2 349.9 71.2 C 349.86 71.2 349.9 68 349.9 68 L 348.9 68 L 348.9 67.4 L 349.9 67.4 L 349.9 66.3 L 350.6 66.3 L 350.6 67.4 L 352.2 67.4 L 352.2 68 L 350.6 68 C 350.6 68 350.57 71.16 350.6 71.2 C 350.6 71.8 350.9 72.1 351.5 72.1 C 351.8 72.1 352.1 72 352.3 71.9 C 352.3 71.9 352.5 72.4 352.5 72.4 Z M 358.5 69.6 C 358.54 69.63 358.5 72.7 358.5 72.7 L 357.8 72.7 C 357.8 72.7 357.83 69.7 357.8 69.7 C 357.8 68.6 357.2 68 356.2 68 C 355.1 68 354.4 68.7 354.4 69.9 C 354.41 69.92 354.4 72.7 354.4 72.7 L 353.7 72.7 L 353.7 65.3 L 354.4 65.3 C 354.4 65.3 354.41 68.34 354.4 68.3 C 354.8 67.7 355.5 67.4 356.4 67.4 C 357.7 67.4 358.5 68.1 358.5 69.6 Z M 365 70.3 C 365 70.3 360.6 70.3 360.6 70.3 C 360.7 71.4 361.6 72.1 362.7 72.1 C 363.3 72.1 363.9 71.9 364.3 71.4 C 364.3 71.4 364.7 71.9 364.7 71.9 C 364.2 72.4 363.5 72.7 362.7 72.7 C 361 72.7 359.9 71.6 359.9 70 C 359.9 68.5 361 67.4 362.5 67.4 C 364 67.4 365 68.5 365 70 C 365 70.1 365 70.2 365 70.3 Z M 360.6 69.7 C 360.6 69.7 364.4 69.7 364.4 69.7 C 364.3 68.7 363.5 68 362.5 68 C 361.5 68 360.7 68.7 360.6 69.7 Z M 373.5 67.4 L 371.2 72.7 L 370.5 72.7 L 368.1 67.4 L 368.9 67.4 L 370.8 71.9 L 372.8 67.4 L 373.5 67.4 Z M 379 70.3 C 379 70.3 374.6 70.3 374.6 70.3 C 374.7 71.4 375.5 72.1 376.7 72.1 C 377.3 72.1 377.9 71.9 378.3 71.4 C 378.3 71.4 378.7 71.9 378.7 71.9 C 378.2 72.4 377.5 72.7 376.7 72.7 C 375 72.7 373.9 71.6 373.9 70 C 373.9 68.5 375 67.4 376.5 67.4 C 378 67.4 379 68.5 379 70 C 379 70.1 379 70.2 379 70.3 Z M 374.6 69.7 C 374.6 69.7 378.4 69.7 378.4 69.7 C 378.3 68.7 377.5 68 376.5 68 C 375.5 68 374.7 68.7 374.6 69.7 Z M 385.3 69.6 C 385.28 69.63 385.3 72.7 385.3 72.7 L 384.6 72.7 C 384.6 72.7 384.57 69.7 384.6 69.7 C 384.6 68.6 384 68 383 68 C 381.9 68 381.2 68.7 381.2 69.9 C 381.15 69.92 381.2 72.7 381.2 72.7 L 380.4 72.7 L 380.4 65.3 L 381.2 65.3 C 381.2 65.3 381.15 68.34 381.2 68.3 C 381.5 67.7 382.2 67.4 383.1 67.4 C 384.4 67.4 385.3 68.1 385.3 69.6 Z M 386.9 65.8 C 386.9 65.5 387.1 65.3 387.4 65.3 C 387.7 65.3 387.9 65.5 387.9 65.7 C 387.9 66 387.7 66.3 387.4 66.3 C 387.1 66.3 386.9 66 386.9 65.8 Z M 387.1 67.4 L 387.8 67.4 L 387.8 72.7 L 387.1 72.7 L 387.1 67.4 Z M 389.2 70 C 389.2 68.5 390.3 67.4 391.9 67.4 C 392.8 67.4 393.5 67.7 393.9 68.4 C 393.9 68.4 393.4 68.8 393.4 68.8 C 393 68.2 392.5 68 391.9 68 C 390.7 68 389.9 68.8 389.9 70 C 389.9 71.3 390.7 72.1 391.9 72.1 C 392.5 72.1 393 71.9 393.4 71.3 C 393.4 71.3 393.9 71.7 393.9 71.7 C 393.5 72.4 392.8 72.7 391.9 72.7 C 390.3 72.7 389.2 71.6 389.2 70 Z M 395.2 65.3 L 396 65.3 L 396 72.7 L 395.2 72.7 L 395.2 65.3 Z M 402.5 70.3 C 402.5 70.3 398.1 70.3 398.1 70.3 C 398.2 71.4 399 72.1 400.2 72.1 C 400.8 72.1 401.4 71.9 401.8 71.4 C 401.8 71.4 402.2 71.9 402.2 71.9 C 401.7 72.4 401 72.7 400.1 72.7 C 398.5 72.7 397.4 71.6 397.4 70 C 397.4 68.5 398.5 67.4 399.9 67.4 C 401.4 67.4 402.5 68.5 402.5 70 C 402.5 70.1 402.5 70.2 402.5 70.3 Z M 398.1 69.7 C 398.1 69.7 401.8 69.7 401.8 69.7 C 401.7 68.7 401 68 399.9 68 C 398.9 68 398.2 68.7 398.1 69.7 Z M 406 70 C 406 68.5 407.2 67.4 408.7 67.4 C 410.3 67.4 411.4 68.5 411.4 70 C 411.4 71.6 410.3 72.7 408.7 72.7 C 407.2 72.7 406 71.6 406 70 Z M 410.7 70 C 410.7 68.8 409.8 68 408.7 68 C 407.6 68 406.8 68.8 406.8 70 C 406.8 71.3 407.6 72.1 408.7 72.1 C 409.8 72.1 410.7 71.3 410.7 70 Z M 417.7 69.6 C 417.66 69.63 417.7 72.7 417.7 72.7 L 416.9 72.7 C 416.9 72.7 416.95 69.7 416.9 69.7 C 416.9 68.6 416.4 68 415.4 68 C 414.2 68 413.5 68.7 413.5 69.9 C 413.53 69.92 413.5 72.7 413.5 72.7 L 412.8 72.7 L 412.8 67.4 L 413.5 67.4 C 413.5 67.4 413.5 68.39 413.5 68.4 C 413.9 67.7 414.6 67.4 415.5 67.4 C 416.8 67.4 417.7 68.1 417.7 69.6 Z M 425 72.4 C 424.7 72.6 424.3 72.7 423.9 72.7 C 422.9 72.7 422.3 72.2 422.3 71.2 C 422.33 71.2 422.3 68 422.3 68 L 421.4 68 L 421.4 67.4 L 422.3 67.4 L 422.3 66.3 L 423 66.3 L 423 67.4 L 424.6 67.4 L 424.6 68 L 423 68 C 423 68 423.03 71.16 423 71.2 C 423 71.8 423.4 72.1 423.9 72.1 C 424.2 72.1 424.5 72 424.7 71.9 C 424.7 71.9 425 72.4 425 72.4 Z M 431 69.6 C 431 69.63 431 72.7 431 72.7 L 430.3 72.7 C 430.3 72.7 430.29 69.7 430.3 69.7 C 430.3 68.6 429.7 68 428.7 68 C 427.6 68 426.9 68.7 426.9 69.9 C 426.87 69.92 426.9 72.7 426.9 72.7 L 426.2 72.7 L 426.2 65.3 L 426.9 65.3 C 426.9 65.3 426.87 68.34 426.9 68.3 C 427.3 67.7 428 67.4 428.8 67.4 C 430.1 67.4 431 68.1 431 69.6 Z M 437.5 70.3 C 437.5 70.3 433.1 70.3 433.1 70.3 C 433.2 71.4 434 72.1 435.2 72.1 C 435.8 72.1 436.4 71.9 436.8 71.4 C 436.8 71.4 437.2 71.9 437.2 71.9 C 436.7 72.4 436 72.7 435.1 72.7 C 433.5 72.7 432.4 71.6 432.4 70 C 432.4 68.5 433.5 67.4 435 67.4 C 436.4 67.4 437.5 68.5 437.5 70 C 437.5 70.1 437.5 70.2 437.5 70.3 Z M 433.1 69.7 C 433.1 69.7 436.8 69.7 436.8 69.7 C 436.7 68.7 436 68 435 68 C 433.9 68 433.2 68.7 433.1 69.7 Z M 444.2 67.4 C 444.2 67.4 444.2 68.1 444.2 68.1 C 444.2 68.1 444.1 68.1 444.1 68.1 C 443 68.1 442.3 68.8 442.3 70 C 442.29 70 442.3 72.7 442.3 72.7 L 441.6 72.7 L 441.6 67.4 L 442.3 67.4 C 442.3 67.4 442.26 68.45 442.3 68.4 C 442.6 67.7 443.3 67.4 444.2 67.4 Z M 444.8 70 C 444.8 68.5 446 67.4 447.5 67.4 C 449.1 67.4 450.2 68.5 450.2 70 C 450.2 71.6 449.1 72.7 447.5 72.7 C 446 72.7 444.8 71.6 444.8 70 Z M 449.5 70 C 449.5 68.8 448.6 68 447.5 68 C 446.4 68 445.6 68.8 445.6 70 C 445.6 71.3 446.4 72.1 447.5 72.1 C 448.6 72.1 449.5 71.3 449.5 70 Z M 455.6 69.4 C 455.61 69.42 455.6 72.7 455.6 72.7 L 454.9 72.7 C 454.9 72.7 454.93 71.86 454.9 71.9 C 454.6 72.4 454 72.7 453.1 72.7 C 451.9 72.7 451.2 72.1 451.2 71.2 C 451.2 70.4 451.7 69.7 453.2 69.7 C 453.23 69.71 454.9 69.7 454.9 69.7 C 454.9 69.7 454.9 69.39 454.9 69.4 C 454.9 68.5 454.4 68 453.4 68 C 452.7 68 452.1 68.2 451.7 68.6 C 451.7 68.6 451.3 68.1 451.3 68.1 C 451.9 67.6 452.6 67.4 453.5 67.4 C 454.8 67.4 455.6 68.1 455.6 69.4 Z M 454.9 71.1 C 454.9 71.1 454.9 70.2 454.9 70.2 C 454.9 70.2 453.25 70.24 453.2 70.2 C 452.2 70.2 451.9 70.6 451.9 71.2 C 451.9 71.8 452.4 72.2 453.2 72.2 C 454 72.2 454.6 71.8 454.9 71.1 Z M 462.3 65.3 L 462.3 72.7 L 461.6 72.7 C 461.6 72.7 461.64 71.64 461.6 71.6 C 461.2 72.3 460.5 72.7 459.6 72.7 C 458.1 72.7 457 71.6 457 70 C 457 68.5 458.1 67.4 459.6 67.4 C 460.4 67.4 461.2 67.7 461.6 68.4 C 461.61 68.42 461.6 65.3 461.6 65.3 L 462.3 65.3 Z M 461.6 70 C 461.6 68.8 460.8 68 459.7 68 C 458.5 68 457.7 68.8 457.7 70 C 457.7 71.3 458.5 72.1 459.7 72.1 C 460.8 72.1 461.6 71.3 461.6 70 Z M 463.9 72.2 C 463.9 71.9 464.1 71.6 464.4 71.6 C 464.7 71.6 465 71.9 465 72.2 C 465 72.5 464.7 72.7 464.4 72.7 C 464.1 72.7 463.9 72.5 463.9 72.2 Z " stroke="none" fill="#323132"/>
  </g>
  <g id="Polygon118185">
    <path d="M 9.8 57.4 C 9.5 57.6 9.1 57.7 8.6 57.7 C 7.7 57.7 7.1 57.2 7.1 56.2 C 7.11 56.2 7.1 53 7.1 53 L 6.2 53 L 6.2 52.4 L 7.1 52.4 L 7.1 51.3 L 7.8 51.3 L 7.8 52.4 L 9.4 52.4 L 9.4 53 L 7.8 53 C 7.8 53 7.82 56.16 7.8 56.2 C 7.8 56.8 8.1 57.1 8.7 57.1 C 9 57.1 9.3 57 9.5 56.9 C 9.5 56.9 9.8 57.4 9.8 57.4 Z M 15.8 54.6 C 15.79 54.63 15.8 57.7 15.8 57.7 L 15.1 57.7 C 15.1 57.7 15.08 54.7 15.1 54.7 C 15.1 53.6 14.5 53 13.5 53 C 12.4 53 11.7 53.7 11.7 54.9 C 11.66 54.92 11.7 57.7 11.7 57.7 L 10.9 57.7 L 10.9 50.3 L 11.7 50.3 C 11.7 50.3 11.66 53.34 11.7 53.3 C 12 52.7 12.7 52.4 13.6 52.4 C 14.9 52.4 15.8 53.1 15.8 54.6 Z M 22.3 55.3 C 22.3 55.3 17.9 55.3 17.9 55.3 C 18 56.4 18.8 57.1 20 57.1 C 20.6 57.1 21.2 56.9 21.6 56.4 C 21.6 56.4 22 56.9 22 56.9 C 21.5 57.4 20.8 57.7 19.9 57.7 C 18.3 57.7 17.2 56.6 17.2 55 C 17.2 53.5 18.3 52.4 19.7 52.4 C 21.2 52.4 22.3 53.5 22.3 55 C 22.3 55.1 22.3 55.2 22.3 55.3 Z M 17.9 54.7 C 17.9 54.7 21.6 54.7 21.6 54.7 C 21.5 53.7 20.8 53 19.7 53 C 18.7 53 18 53.7 17.9 54.7 Z M 35 54.6 C 35.04 54.63 35 57.7 35 57.7 L 34.3 57.7 C 34.3 57.7 34.33 54.7 34.3 54.7 C 34.3 53.6 33.8 53 32.8 53 C 31.7 53 31.1 53.7 31.1 54.9 C 31.06 54.92 31.1 57.7 31.1 57.7 L 30.4 57.7 C 30.4 57.7 30.35 54.7 30.4 54.7 C 30.4 53.6 29.8 53 28.8 53 C 27.8 53 27.1 53.7 27.1 54.9 C 27.07 54.92 27.1 57.7 27.1 57.7 L 26.4 57.7 L 26.4 52.4 L 27 52.4 C 27 52.4 27.04 53.38 27 53.4 C 27.4 52.7 28.1 52.4 29 52.4 C 29.8 52.4 30.5 52.7 30.8 53.5 C 31.2 52.8 32 52.4 32.9 52.4 C 34.2 52.4 35 53.1 35 54.6 Z M 36.4 55 C 36.4 53.5 37.6 52.4 39.1 52.4 C 40.7 52.4 41.8 53.5 41.8 55 C 41.8 56.6 40.7 57.7 39.1 57.7 C 37.6 57.7 36.4 56.6 36.4 55 Z M 41.1 55 C 41.1 53.8 40.2 53 39.1 53 C 38 53 37.2 53.8 37.2 55 C 37.2 56.3 38 57.1 39.1 57.1 C 40.2 57.1 41.1 56.3 41.1 55 Z M 47.6 52.4 L 45.2 57.7 L 44.5 57.7 L 42.2 52.4 L 42.9 52.4 L 44.9 56.9 L 46.9 52.4 L 47.6 52.4 Z M 53.1 55.3 C 53.1 55.3 48.7 55.3 48.7 55.3 C 48.7 56.4 49.6 57.1 50.7 57.1 C 51.4 57.1 51.9 56.9 52.3 56.4 C 52.3 56.4 52.7 56.9 52.7 56.9 C 52.3 57.4 51.5 57.7 50.7 57.7 C 49.1 57.7 48 56.6 48 55 C 48 53.5 49 52.4 50.5 52.4 C 52 52.4 53.1 53.5 53.1 55 C 53.1 55.1 53.1 55.2 53.1 55.3 Z M 48.7 54.7 C 48.7 54.7 52.4 54.7 52.4 54.7 C 52.3 53.7 51.6 53 50.5 53 C 49.5 53 48.8 53.7 48.7 54.7 Z M 63.2 54.6 C 63.16 54.63 63.2 57.7 63.2 57.7 L 62.5 57.7 C 62.5 57.7 62.45 54.7 62.5 54.7 C 62.5 53.6 61.9 53 60.9 53 C 59.9 53 59.2 53.7 59.2 54.9 C 59.18 54.92 59.2 57.7 59.2 57.7 L 58.5 57.7 C 58.5 57.7 58.47 54.7 58.5 54.7 C 58.5 53.6 57.9 53 57 53 C 55.9 53 55.2 53.7 55.2 54.9 C 55.19 54.92 55.2 57.7 55.2 57.7 L 54.5 57.7 L 54.5 52.4 L 55.2 52.4 C 55.2 52.4 55.16 53.38 55.2 53.4 C 55.5 52.7 56.2 52.4 57.1 52.4 C 58 52.4 58.6 52.7 59 53.5 C 59.3 52.8 60.1 52.4 61 52.4 C 62.3 52.4 63.2 53.1 63.2 54.6 Z M 69.7 55.3 C 69.7 55.3 65.3 55.3 65.3 55.3 C 65.3 56.4 66.2 57.1 67.3 57.1 C 68 57.1 68.5 56.9 68.9 56.4 C 68.9 56.4 69.3 56.9 69.3 56.9 C 68.9 57.4 68.1 57.7 67.3 57.7 C 65.7 57.7 64.6 56.6 64.6 55 C 64.6 53.5 65.6 52.4 67.1 52.4 C 68.6 52.4 69.7 53.5 69.7 55 C 69.7 55.1 69.7 55.2 69.7 55.3 Z M 65.3 54.7 C 65.3 54.7 69 54.7 69 54.7 C 68.9 53.7 68.2 53 67.1 53 C 66.1 53 65.4 53.7 65.3 54.7 Z M 75.9 54.6 C 75.92 54.63 75.9 57.7 75.9 57.7 L 75.2 57.7 C 75.2 57.7 75.21 54.7 75.2 54.7 C 75.2 53.6 74.6 53 73.6 53 C 72.5 53 71.8 53.7 71.8 54.9 C 71.79 54.92 71.8 57.7 71.8 57.7 L 71.1 57.7 L 71.1 52.4 L 71.8 52.4 C 71.8 52.4 71.76 53.39 71.8 53.4 C 72.1 52.7 72.8 52.4 73.8 52.4 C 75 52.4 75.9 53.1 75.9 54.6 Z M 80.4 57.4 C 80.2 57.6 79.7 57.7 79.3 57.7 C 78.3 57.7 77.8 57.2 77.8 56.2 C 77.8 56.2 77.8 53 77.8 53 L 76.9 53 L 76.9 52.4 L 77.8 52.4 L 77.8 51.3 L 78.5 51.3 L 78.5 52.4 L 80.1 52.4 L 80.1 53 L 78.5 53 C 78.5 53 78.51 56.16 78.5 56.2 C 78.5 56.8 78.8 57.1 79.4 57.1 C 79.7 57.1 80 57 80.2 56.9 C 80.2 56.9 80.4 57.4 80.4 57.4 Z M 83.8 55 C 83.8 53.5 85 52.4 86.5 52.4 C 88 52.4 89.2 53.5 89.2 55 C 89.2 56.6 88 57.7 86.5 57.7 C 85 57.7 83.8 56.6 83.8 55 Z M 88.5 55 C 88.5 53.8 87.6 53 86.5 53 C 85.4 53 84.5 53.8 84.5 55 C 84.5 56.3 85.4 57.1 86.5 57.1 C 87.6 57.1 88.5 56.3 88.5 55 Z M 91.4 51.8 C 91.37 51.8 91.4 52.4 91.4 52.4 L 93 52.4 L 93 53 L 91.4 53 L 91.4 57.7 L 90.7 57.7 L 90.7 53 L 89.7 53 L 89.7 52.4 L 90.7 52.4 C 90.7 52.4 90.69 51.77 90.7 51.8 C 90.7 50.8 91.2 50.2 92.3 50.2 C 92.7 50.2 93.1 50.3 93.3 50.5 C 93.3 50.5 93.1 51.1 93.1 51.1 C 92.9 50.9 92.6 50.8 92.3 50.8 C 91.7 50.8 91.4 51.1 91.4 51.8 Z M 99.3 57.4 C 99.1 57.6 98.6 57.7 98.2 57.7 C 97.2 57.7 96.7 57.2 96.7 56.2 C 96.7 56.2 96.7 53 96.7 53 L 95.8 53 L 95.8 52.4 L 96.7 52.4 L 96.7 51.3 L 97.4 51.3 L 97.4 52.4 L 99 52.4 L 99 53 L 97.4 53 C 97.4 53 97.4 56.16 97.4 56.2 C 97.4 56.8 97.7 57.1 98.3 57.1 C 98.6 57.1 98.9 57 99.1 56.9 C 99.1 56.9 99.3 57.4 99.3 57.4 Z M 105.4 54.6 C 105.37 54.63 105.4 57.7 105.4 57.7 L 104.7 57.7 C 104.7 57.7 104.66 54.7 104.7 54.7 C 104.7 53.6 104.1 53 103.1 53 C 102 53 101.2 53.7 101.2 54.9 C 101.24 54.92 101.2 57.7 101.2 57.7 L 100.5 57.7 L 100.5 50.3 L 101.2 50.3 C 101.2 50.3 101.24 53.34 101.2 53.3 C 101.6 52.7 102.3 52.4 103.2 52.4 C 104.5 52.4 105.4 53.1 105.4 54.6 Z M 111.9 55.3 C 111.9 55.3 107.5 55.3 107.5 55.3 C 107.5 56.4 108.4 57.1 109.5 57.1 C 110.2 57.1 110.7 56.9 111.1 56.4 C 111.1 56.4 111.5 56.9 111.5 56.9 C 111.1 57.4 110.3 57.7 109.5 57.7 C 107.9 57.7 106.8 56.6 106.8 55 C 106.8 53.5 107.8 52.4 109.3 52.4 C 110.8 52.4 111.9 53.5 111.9 55 C 111.9 55.1 111.9 55.2 111.9 55.3 Z M 107.5 54.7 C 107.5 54.7 111.2 54.7 111.2 54.7 C 111.1 53.7 110.4 53 109.3 53 C 108.3 53 107.6 53.7 107.5 54.7 Z M 115.4 55 C 115.4 53.5 116.6 52.4 118.1 52.4 C 119 52.4 119.8 52.7 120.2 53.4 C 120.2 53.4 119.7 53.8 119.7 53.8 C 119.3 53.2 118.7 53 118.1 53 C 117 53 116.1 53.8 116.1 55 C 116.1 56.3 117 57.1 118.1 57.1 C 118.7 57.1 119.3 56.9 119.7 56.3 C 119.7 56.3 120.2 56.7 120.2 56.7 C 119.8 57.4 119 57.7 118.1 57.7 C 116.6 57.7 115.4 56.6 115.4 55 Z M 121 55 C 121 53.5 122.1 52.4 123.7 52.4 C 125.2 52.4 126.3 53.5 126.3 55 C 126.3 56.6 125.2 57.7 123.7 57.7 C 122.1 57.7 121 56.6 121 55 Z M 125.6 55 C 125.6 53.8 124.8 53 123.7 53 C 122.5 53 121.7 53.8 121.7 55 C 121.7 56.3 122.5 57.1 123.7 57.1 C 124.8 57.1 125.6 56.3 125.6 55 Z M 132.6 54.6 C 132.59 54.63 132.6 57.7 132.6 57.7 L 131.9 57.7 C 131.9 57.7 131.88 54.7 131.9 54.7 C 131.9 53.6 131.3 53 130.3 53 C 129.2 53 128.5 53.7 128.5 54.9 C 128.46 54.92 128.5 57.7 128.5 57.7 L 127.7 57.7 L 127.7 52.4 L 128.4 52.4 C 128.4 52.4 128.43 53.39 128.4 53.4 C 128.8 52.7 129.5 52.4 130.4 52.4 C 131.7 52.4 132.6 53.1 132.6 54.6 Z M 137.1 57.4 C 136.8 57.6 136.4 57.7 136 57.7 C 135 57.7 134.5 57.2 134.5 56.2 C 134.47 56.2 134.5 53 134.5 53 L 133.5 53 L 133.5 52.4 L 134.5 52.4 L 134.5 51.3 L 135.2 51.3 L 135.2 52.4 L 136.8 52.4 L 136.8 53 L 135.2 53 C 135.2 53 135.18 56.16 135.2 56.2 C 135.2 56.8 135.5 57.1 136.1 57.1 C 136.4 57.1 136.7 57 136.9 56.9 C 136.9 56.9 137.1 57.4 137.1 57.4 Z M 141 52.4 C 141 52.4 141 53.1 141 53.1 C 140.9 53.1 140.8 53.1 140.8 53.1 C 139.7 53.1 139 53.8 139 55 C 139.02 55 139 57.7 139 57.7 L 138.3 57.7 L 138.3 52.4 L 139 52.4 C 139 52.4 138.99 53.45 139 53.4 C 139.3 52.7 140 52.4 141 52.4 Z M 141.6 55 C 141.6 53.5 142.7 52.4 144.3 52.4 C 145.8 52.4 146.9 53.5 146.9 55 C 146.9 56.6 145.8 57.7 144.3 57.7 C 142.7 57.7 141.6 56.6 141.6 55 Z M 146.2 55 C 146.2 53.8 145.4 53 144.3 53 C 143.1 53 142.3 53.8 142.3 55 C 142.3 56.3 143.1 57.1 144.3 57.1 C 145.4 57.1 146.2 56.3 146.2 55 Z M 148.4 50.3 L 149.1 50.3 L 149.1 57.7 L 148.4 57.7 L 148.4 50.3 Z M 157.6 54.4 C 157.64 54.42 157.6 57.7 157.6 57.7 L 157 57.7 C 157 57.7 156.96 56.86 157 56.9 C 156.6 57.4 156 57.7 155.2 57.7 C 154 57.7 153.2 57.1 153.2 56.2 C 153.2 55.4 153.8 54.7 155.3 54.7 C 155.26 54.71 156.9 54.7 156.9 54.7 C 156.9 54.7 156.93 54.39 156.9 54.4 C 156.9 53.5 156.4 53 155.4 53 C 154.8 53 154.1 53.2 153.7 53.6 C 153.7 53.6 153.4 53.1 153.4 53.1 C 153.9 52.6 154.7 52.4 155.5 52.4 C 156.9 52.4 157.6 53.1 157.6 54.4 Z M 156.9 56.1 C 156.93 56.1 156.9 55.2 156.9 55.2 C 156.9 55.2 155.28 55.24 155.3 55.2 C 154.3 55.2 153.9 55.6 153.9 56.2 C 153.9 56.8 154.4 57.2 155.3 57.2 C 156.1 57.2 156.7 56.8 156.9 56.1 Z M 164.3 54.6 C 164.3 54.63 164.3 57.7 164.3 57.7 L 163.6 57.7 C 163.6 57.7 163.59 54.7 163.6 54.7 C 163.6 53.6 163 53 162 53 C 160.9 53 160.2 53.7 160.2 54.9 C 160.17 54.92 160.2 57.7 160.2 57.7 L 159.5 57.7 L 159.5 52.4 L 160.1 52.4 C 160.1 52.4 160.14 53.39 160.1 53.4 C 160.5 52.7 161.2 52.4 162.1 52.4 C 163.4 52.4 164.3 53.1 164.3 54.6 Z M 171 50.3 L 171 57.7 L 170.3 57.7 C 170.3 57.7 170.33 56.64 170.3 56.6 C 169.9 57.3 169.2 57.7 168.3 57.7 C 166.8 57.7 165.7 56.6 165.7 55 C 165.7 53.5 166.8 52.4 168.3 52.4 C 169.1 52.4 169.9 52.7 170.3 53.4 C 170.3 53.42 170.3 50.3 170.3 50.3 L 171 50.3 Z M 170.3 55 C 170.3 53.8 169.5 53 168.4 53 C 167.2 53 166.4 53.8 166.4 55 C 166.4 56.3 167.2 57.1 168.4 57.1 C 169.5 57.1 170.3 56.3 170.3 55 Z M 178.4 57.4 C 178.1 57.6 177.7 57.7 177.3 57.7 C 176.3 57.7 175.7 57.2 175.7 56.2 C 175.73 56.2 175.7 53 175.7 53 L 174.8 53 L 174.8 52.4 L 175.7 52.4 L 175.7 51.3 L 176.4 51.3 L 176.4 52.4 L 178 52.4 L 178 53 L 176.4 53 C 176.4 53 176.44 56.16 176.4 56.2 C 176.4 56.8 176.8 57.1 177.3 57.1 C 177.6 57.1 177.9 57 178.1 56.9 C 178.1 56.9 178.4 57.4 178.4 57.4 Z M 184.4 54.6 C 184.41 54.63 184.4 57.7 184.4 57.7 L 183.7 57.7 C 183.7 57.7 183.7 54.7 183.7 54.7 C 183.7 53.6 183.1 53 182.1 53 C 181 53 180.3 53.7 180.3 54.9 C 180.28 54.92 180.3 57.7 180.3 57.7 L 179.6 57.7 L 179.6 50.3 L 180.3 50.3 C 180.3 50.3 180.28 53.34 180.3 53.3 C 180.7 52.7 181.4 52.4 182.2 52.4 C 183.5 52.4 184.4 53.1 184.4 54.6 Z M 190.9 55.3 C 190.9 55.3 186.5 55.3 186.5 55.3 C 186.6 56.4 187.4 57.1 188.6 57.1 C 189.2 57.1 189.8 56.9 190.2 56.4 C 190.2 56.4 190.6 56.9 190.6 56.9 C 190.1 57.4 189.4 57.7 188.6 57.7 C 186.9 57.7 185.8 56.6 185.8 55 C 185.8 53.5 186.9 52.4 188.4 52.4 C 189.8 52.4 190.9 53.5 190.9 55 C 190.9 55.1 190.9 55.2 190.9 55.3 Z M 186.5 54.7 C 186.5 54.7 190.2 54.7 190.2 54.7 C 190.1 53.7 189.4 53 188.4 53 C 187.3 53 186.6 53.7 186.5 54.7 Z M 197.6 52.4 C 197.6 52.4 197.6 53.1 197.6 53.1 C 197.6 53.1 197.5 53.1 197.5 53.1 C 196.4 53.1 195.7 53.8 195.7 55 C 195.69 55 195.7 57.7 195.7 57.7 L 195 57.7 L 195 52.4 L 195.7 52.4 C 195.7 52.4 195.66 53.45 195.7 53.4 C 196 52.7 196.7 52.4 197.6 52.4 Z M 203.4 55.3 C 203.4 55.3 199 55.3 199 55.3 C 199.1 56.4 199.9 57.1 201 57.1 C 201.7 57.1 202.3 56.9 202.7 56.4 C 202.7 56.4 203.1 56.9 203.1 56.9 C 202.6 57.4 201.9 57.7 201 57.7 C 199.4 57.7 198.3 56.6 198.3 55 C 198.3 53.5 199.4 52.4 200.8 52.4 C 202.3 52.4 203.4 53.5 203.4 55 C 203.4 55.1 203.4 55.2 203.4 55.3 Z M 199 54.7 C 199 54.7 202.7 54.7 202.7 54.7 C 202.6 53.7 201.9 53 200.8 53 C 199.8 53 199.1 53.7 199 54.7 Z M 204.2 57.1 C 204.2 57.1 204.5 56.5 204.5 56.5 C 204.9 56.9 205.6 57.1 206.4 57.1 C 207.4 57.1 207.8 56.8 207.8 56.3 C 207.8 54.9 204.4 56 204.4 53.9 C 204.4 53 205.1 52.4 206.4 52.4 C 207.1 52.4 207.9 52.6 208.3 52.9 C 208.3 52.9 208 53.4 208 53.4 C 207.5 53.1 207 53 206.4 53 C 205.5 53 205.1 53.4 205.1 53.9 C 205.1 55.3 208.5 54.2 208.5 56.2 C 208.5 57.1 207.7 57.7 206.3 57.7 C 205.4 57.7 204.6 57.4 204.2 57.1 Z M 215.1 55.1 C 215.1 56.7 214 57.7 212.5 57.7 C 211.7 57.7 210.9 57.4 210.5 56.7 C 210.51 56.69 210.5 59.6 210.5 59.6 L 209.8 59.6 L 209.8 52.4 L 210.5 52.4 C 210.5 52.4 210.48 53.46 210.5 53.5 C 210.9 52.8 211.6 52.4 212.5 52.4 C 214 52.4 215.1 53.5 215.1 55.1 Z M 214.4 55 C 214.4 53.8 213.6 53 212.5 53 C 211.3 53 210.5 53.8 210.5 55 C 210.5 56.3 211.3 57.1 212.5 57.1 C 213.6 57.1 214.4 56.3 214.4 55 Z M 216.1 55 C 216.1 53.5 217.3 52.4 218.8 52.4 C 220.4 52.4 221.5 53.5 221.5 55 C 221.5 56.6 220.4 57.7 218.8 57.7 C 217.3 57.7 216.1 56.6 216.1 55 Z M 220.8 55 C 220.8 53.8 219.9 53 218.8 53 C 217.7 53 216.9 53.8 216.9 55 C 216.9 56.3 217.7 57.1 218.8 57.1 C 219.9 57.1 220.8 56.3 220.8 55 Z M 227.7 54.6 C 227.75 54.63 227.7 57.7 227.7 57.7 L 227 57.7 C 227 57.7 227.04 54.7 227 54.7 C 227 53.6 226.5 53 225.5 53 C 224.3 53 223.6 53.7 223.6 54.9 C 223.62 54.92 223.6 57.7 223.6 57.7 L 222.9 57.7 L 222.9 52.4 L 223.6 52.4 C 223.6 52.4 223.59 53.39 223.6 53.4 C 224 52.7 224.7 52.4 225.6 52.4 C 226.9 52.4 227.7 53.1 227.7 54.6 Z M 229 57.1 C 229 57.1 229.3 56.5 229.3 56.5 C 229.7 56.9 230.4 57.1 231.2 57.1 C 232.2 57.1 232.6 56.8 232.6 56.3 C 232.6 54.9 229.2 56 229.2 53.9 C 229.2 53 229.9 52.4 231.2 52.4 C 231.9 52.4 232.7 52.6 233.1 52.9 C 233.1 52.9 232.8 53.4 232.8 53.4 C 232.3 53.1 231.8 53 231.2 53 C 230.3 53 229.9 53.4 229.9 53.9 C 229.9 55.3 233.3 54.2 233.3 56.2 C 233.3 57.1 232.5 57.7 231.1 57.7 C 230.2 57.7 229.4 57.4 229 57.1 Z M 239.3 55.3 C 239.3 55.3 234.9 55.3 234.9 55.3 C 234.9 56.4 235.8 57.1 236.9 57.1 C 237.6 57.1 238.1 56.9 238.5 56.4 C 238.5 56.4 238.9 56.9 238.9 56.9 C 238.5 57.4 237.7 57.7 236.9 57.7 C 235.3 57.7 234.2 56.6 234.2 55 C 234.2 53.5 235.2 52.4 236.7 52.4 C 238.2 52.4 239.3 53.5 239.3 55 C 239.3 55.1 239.3 55.2 239.3 55.3 Z M 234.9 54.7 C 234.9 54.7 238.6 54.7 238.6 54.7 C 238.5 53.7 237.8 53 236.7 53 C 235.7 53 235 53.7 234.9 54.7 Z M 242.8 55 C 242.8 53.5 244 52.4 245.5 52.4 C 247 52.4 248.2 53.5 248.2 55 C 248.2 56.6 247 57.7 245.5 57.7 C 244 57.7 242.8 56.6 242.8 55 Z M 247.4 55 C 247.4 53.8 246.6 53 245.5 53 C 244.4 53 243.5 53.8 243.5 55 C 243.5 56.3 244.4 57.1 245.5 57.1 C 246.6 57.1 247.4 56.3 247.4 55 Z M 250.4 51.8 C 250.36 51.8 250.4 52.4 250.4 52.4 L 252 52.4 L 252 53 L 250.4 53 L 250.4 57.7 L 249.7 57.7 L 249.7 53 L 248.7 53 L 248.7 52.4 L 249.7 52.4 C 249.7 52.4 249.67 51.77 249.7 51.8 C 249.7 50.8 250.2 50.2 251.3 50.2 C 251.7 50.2 252.1 50.3 252.3 50.5 C 252.3 50.5 252.1 51.1 252.1 51.1 C 251.9 50.9 251.6 50.8 251.3 50.8 C 250.7 50.8 250.4 51.1 250.4 51.8 Z M 258.3 57.4 C 258.1 57.6 257.6 57.7 257.2 57.7 C 256.2 57.7 255.7 57.2 255.7 56.2 C 255.68 56.2 255.7 53 255.7 53 L 254.7 53 L 254.7 52.4 L 255.7 52.4 L 255.7 51.3 L 256.4 51.3 L 256.4 52.4 L 258 52.4 L 258 53 L 256.4 53 C 256.4 53 256.39 56.16 256.4 56.2 C 256.4 56.8 256.7 57.1 257.3 57.1 C 257.6 57.1 257.9 57 258.1 56.9 C 258.1 56.9 258.3 57.4 258.3 57.4 Z M 264.4 54.6 C 264.36 54.63 264.4 57.7 264.4 57.7 L 263.7 57.7 C 263.7 57.7 263.65 54.7 263.7 54.7 C 263.7 53.6 263.1 53 262.1 53 C 260.9 53 260.2 53.7 260.2 54.9 C 260.23 54.92 260.2 57.7 260.2 57.7 L 259.5 57.7 L 259.5 50.3 L 260.2 50.3 C 260.2 50.3 260.23 53.34 260.2 53.3 C 260.6 52.7 261.3 52.4 262.2 52.4 C 263.5 52.4 264.4 53.1 264.4 54.6 Z M 270.9 55.3 C 270.9 55.3 266.5 55.3 266.5 55.3 C 266.5 56.4 267.4 57.1 268.5 57.1 C 269.2 57.1 269.7 56.9 270.1 56.4 C 270.1 56.4 270.5 56.9 270.5 56.9 C 270.1 57.4 269.3 57.7 268.5 57.7 C 266.9 57.7 265.7 56.6 265.7 55 C 265.7 53.5 266.8 52.4 268.3 52.4 C 269.8 52.4 270.9 53.5 270.9 55 C 270.9 55.1 270.9 55.2 270.9 55.3 Z M 266.5 54.7 C 266.5 54.7 270.2 54.7 270.2 54.7 C 270.1 53.7 269.3 53 268.3 53 C 267.3 53 266.5 53.7 266.5 54.7 Z M 274.4 55 C 274.4 53.5 275.5 52.4 277.1 52.4 C 278 52.4 278.8 52.7 279.2 53.4 C 279.2 53.4 278.6 53.8 278.6 53.8 C 278.3 53.2 277.7 53 277.1 53 C 276 53 275.1 53.8 275.1 55 C 275.1 56.3 276 57.1 277.1 57.1 C 277.7 57.1 278.3 56.9 278.6 56.3 C 278.6 56.3 279.2 56.7 279.2 56.7 C 278.8 57.4 278 57.7 277.1 57.7 C 275.5 57.7 274.4 56.6 274.4 55 Z M 280 55 C 280 53.5 281.1 52.4 282.6 52.4 C 284.2 52.4 285.3 53.5 285.3 55 C 285.3 56.6 284.2 57.7 282.6 57.7 C 281.1 57.7 280 56.6 280 55 Z M 284.6 55 C 284.6 53.8 283.8 53 282.6 53 C 281.5 53 280.7 53.8 280.7 55 C 280.7 56.3 281.5 57.1 282.6 57.1 C 283.8 57.1 284.6 56.3 284.6 55 Z M 291.6 54.6 C 291.58 54.63 291.6 57.7 291.6 57.7 L 290.9 57.7 C 290.9 57.7 290.87 54.7 290.9 54.7 C 290.9 53.6 290.3 53 289.3 53 C 288.2 53 287.4 53.7 287.4 54.9 C 287.45 54.92 287.4 57.7 287.4 57.7 L 286.7 57.7 L 286.7 52.4 L 287.4 52.4 C 287.4 52.4 287.42 53.39 287.4 53.4 C 287.8 52.7 288.5 52.4 289.4 52.4 C 290.7 52.4 291.6 53.1 291.6 54.6 Z M 296.1 57.4 C 295.8 57.6 295.4 57.7 295 57.7 C 294 57.7 293.5 57.2 293.5 56.2 C 293.46 56.2 293.5 53 293.5 53 L 292.5 53 L 292.5 52.4 L 293.5 52.4 L 293.5 51.3 L 294.2 51.3 L 294.2 52.4 L 295.8 52.4 L 295.8 53 L 294.2 53 C 294.2 53 294.17 56.16 294.2 56.2 C 294.2 56.8 294.5 57.1 295.1 57.1 C 295.4 57.1 295.7 57 295.9 56.9 C 295.9 56.9 296.1 57.4 296.1 57.4 Z M 299.9 52.4 C 299.9 52.4 299.9 53.1 299.9 53.1 C 299.9 53.1 299.8 53.1 299.8 53.1 C 298.7 53.1 298 53.8 298 55 C 298.01 55 298 57.7 298 57.7 L 297.3 57.7 L 297.3 52.4 L 298 52.4 C 298 52.4 297.98 53.45 298 53.4 C 298.3 52.7 299 52.4 299.9 52.4 Z M 300.6 55 C 300.6 53.5 301.7 52.4 303.2 52.4 C 304.8 52.4 305.9 53.5 305.9 55 C 305.9 56.6 304.8 57.7 303.2 57.7 C 301.7 57.7 300.6 56.6 300.6 55 Z M 305.2 55 C 305.2 53.8 304.4 53 303.2 53 C 302.1 53 301.3 53.8 301.3 55 C 301.3 56.3 302.1 57.1 303.2 57.1 C 304.4 57.1 305.2 56.3 305.2 55 Z M 307.4 50.3 L 308.1 50.3 L 308.1 57.7 L 307.4 57.7 L 307.4 50.3 Z M 309.9 50.3 L 310.6 50.3 L 310.6 57.7 L 309.9 57.7 L 309.9 50.3 Z M 317.1 55.3 C 317.1 55.3 312.7 55.3 312.7 55.3 C 312.8 56.4 313.7 57.1 314.8 57.1 C 315.5 57.1 316 56.9 316.4 56.4 C 316.4 56.4 316.8 56.9 316.8 56.9 C 316.4 57.4 315.6 57.7 314.8 57.7 C 313.2 57.7 312 56.6 312 55 C 312 53.5 313.1 52.4 314.6 52.4 C 316.1 52.4 317.2 53.5 317.2 55 C 317.2 55.1 317.1 55.2 317.1 55.3 Z M 312.7 54.7 C 312.7 54.7 316.5 54.7 316.5 54.7 C 316.4 53.7 315.6 53 314.6 53 C 313.6 53 312.8 53.7 312.7 54.7 Z M 323.5 50.3 L 323.5 57.7 L 322.8 57.7 C 322.8 57.7 322.81 56.64 322.8 56.6 C 322.4 57.3 321.6 57.7 320.8 57.7 C 319.3 57.7 318.2 56.6 318.2 55 C 318.2 53.5 319.3 52.4 320.8 52.4 C 321.6 52.4 322.3 52.7 322.8 53.4 C 322.78 53.42 322.8 50.3 322.8 50.3 L 323.5 50.3 Z M 322.8 55 C 322.8 53.8 321.9 53 320.8 53 C 319.7 53 318.9 53.8 318.9 55 C 318.9 56.3 319.7 57.1 320.8 57.1 C 321.9 57.1 322.8 56.3 322.8 55 Z M 333.4 55.1 C 333.4 56.7 332.3 57.7 330.8 57.7 C 330 57.7 329.2 57.4 328.8 56.7 C 328.8 56.69 328.8 59.6 328.8 59.6 L 328.1 59.6 L 328.1 52.4 L 328.8 52.4 C 328.8 52.4 328.77 53.46 328.8 53.5 C 329.2 52.8 329.9 52.4 330.8 52.4 C 332.3 52.4 333.4 53.5 333.4 55.1 Z M 332.7 55 C 332.7 53.8 331.9 53 330.7 53 C 329.6 53 328.8 53.8 328.8 55 C 328.8 56.3 329.6 57.1 330.7 57.1 C 331.9 57.1 332.7 56.3 332.7 55 Z M 337.5 52.4 C 337.5 52.4 337.5 53.1 337.5 53.1 C 337.4 53.1 337.4 53.1 337.3 53.1 C 336.2 53.1 335.6 53.8 335.6 55 C 335.57 55 335.6 57.7 335.6 57.7 L 334.9 57.7 L 334.9 52.4 L 335.5 52.4 C 335.5 52.4 335.54 53.45 335.5 53.4 C 335.9 52.7 336.5 52.4 337.5 52.4 Z M 338.1 55 C 338.1 53.5 339.3 52.4 340.8 52.4 C 342.3 52.4 343.5 53.5 343.5 55 C 343.5 56.6 342.3 57.7 340.8 57.7 C 339.3 57.7 338.1 56.6 338.1 55 Z M 342.8 55 C 342.8 53.8 341.9 53 340.8 53 C 339.7 53 338.8 53.8 338.8 55 C 338.8 56.3 339.7 57.1 340.8 57.1 C 341.9 57.1 342.8 56.3 342.8 55 Z M 344.5 55 C 344.5 53.5 345.6 52.4 347.2 52.4 C 348.1 52.4 348.8 52.7 349.3 53.4 C 349.3 53.4 348.7 53.8 348.7 53.8 C 348.4 53.2 347.8 53 347.2 53 C 346 53 345.2 53.8 345.2 55 C 345.2 56.3 346 57.1 347.2 57.1 C 347.8 57.1 348.4 56.9 348.7 56.3 C 348.7 56.3 349.3 56.7 349.3 56.7 C 348.8 57.4 348.1 57.7 347.2 57.7 C 345.6 57.7 344.5 56.6 344.5 55 Z M 355.2 55.3 C 355.2 55.3 350.8 55.3 350.8 55.3 C 350.8 56.4 351.7 57.1 352.8 57.1 C 353.5 57.1 354.1 56.9 354.5 56.4 C 354.5 56.4 354.9 56.9 354.9 56.9 C 354.4 57.4 353.7 57.7 352.8 57.7 C 351.2 57.7 350.1 56.6 350.1 55 C 350.1 53.5 351.1 52.4 352.6 52.4 C 354.1 52.4 355.2 53.5 355.2 55 C 355.2 55.1 355.2 55.2 355.2 55.3 Z M 350.8 54.7 C 350.8 54.7 354.5 54.7 354.5 54.7 C 354.4 53.7 353.7 53 352.6 53 C 351.6 53 350.9 53.7 350.8 54.7 Z M 356 57.1 C 356 57.1 356.3 56.5 356.3 56.5 C 356.7 56.9 357.4 57.1 358.2 57.1 C 359.2 57.1 359.6 56.8 359.6 56.3 C 359.6 54.9 356.2 56 356.2 53.9 C 356.2 53 356.9 52.4 358.2 52.4 C 358.9 52.4 359.7 52.6 360.1 52.9 C 360.1 52.9 359.8 53.4 359.8 53.4 C 359.3 53.1 358.8 53 358.2 53 C 357.3 53 356.9 53.4 356.9 53.9 C 356.9 55.3 360.3 54.2 360.3 56.2 C 360.3 57.1 359.5 57.7 358.1 57.7 C 357.2 57.7 356.4 57.4 356 57.1 Z M 361 57.1 C 361 57.1 361.3 56.5 361.3 56.5 C 361.8 56.9 362.5 57.1 363.2 57.1 C 364.2 57.1 364.6 56.8 364.6 56.3 C 364.6 54.9 361.2 56 361.2 53.9 C 361.2 53 362 52.4 363.3 52.4 C 364 52.4 364.7 52.6 365.2 52.9 C 365.2 52.9 364.8 53.4 364.8 53.4 C 364.4 53.1 363.8 53 363.3 53 C 362.3 53 361.9 53.4 361.9 53.9 C 361.9 55.3 365.3 54.2 365.3 56.2 C 365.3 57.1 364.5 57.7 363.2 57.7 C 362.3 57.7 361.5 57.4 361 57.1 Z M 367.5 57.2 C 367.5 57.3 367.5 57.5 367.4 57.8 C 367.37 57.76 366.9 59.1 366.9 59.1 L 366.5 59.1 C 366.5 59.1 366.81 57.69 366.8 57.7 C 366.6 57.6 366.4 57.4 366.4 57.2 C 366.4 56.9 366.7 56.6 367 56.6 C 367.3 56.6 367.5 56.9 367.5 57.2 Z M 372.4 51.8 C 372.45 51.8 372.4 52.4 372.4 52.4 L 374.1 52.4 L 374.1 53 L 372.5 53 L 372.5 57.7 L 371.8 57.7 L 371.8 53 L 370.8 53 L 370.8 52.4 L 371.8 52.4 C 371.8 52.4 371.76 51.77 371.8 51.8 C 371.8 50.8 372.3 50.2 373.3 50.2 C 373.7 50.2 374.1 50.3 374.4 50.5 C 374.4 50.5 374.2 51.1 374.2 51.1 C 374 50.9 373.7 50.8 373.4 50.8 C 372.8 50.8 372.4 51.1 372.4 51.8 Z M 374.5 55 C 374.5 53.5 375.6 52.4 377.2 52.4 C 378.7 52.4 379.8 53.5 379.8 55 C 379.8 56.6 378.7 57.7 377.2 57.7 C 375.6 57.7 374.5 56.6 374.5 55 Z M 379.1 55 C 379.1 53.8 378.3 53 377.2 53 C 376 53 375.2 53.8 375.2 55 C 375.2 56.3 376 57.1 377.2 57.1 C 378.3 57.1 379.1 56.3 379.1 55 Z M 383.9 52.4 C 383.9 52.4 383.9 53.1 383.9 53.1 C 383.8 53.1 383.8 53.1 383.7 53.1 C 382.6 53.1 382 53.8 382 55 C 381.96 55 382 57.7 382 57.7 L 381.3 57.7 L 381.3 52.4 L 381.9 52.4 C 381.9 52.4 381.93 53.45 381.9 53.4 C 382.3 52.7 382.9 52.4 383.9 52.4 Z M 392.5 55.3 C 392.5 55.3 388.1 55.3 388.1 55.3 C 388.1 56.4 389 57.1 390.1 57.1 C 390.8 57.1 391.3 56.9 391.7 56.4 C 391.7 56.4 392.1 56.9 392.1 56.9 C 391.7 57.4 390.9 57.7 390.1 57.7 C 388.5 57.7 387.4 56.6 387.4 55 C 387.4 53.5 388.4 52.4 389.9 52.4 C 391.4 52.4 392.5 53.5 392.5 55 C 392.5 55.1 392.5 55.2 392.5 55.3 Z M 388.1 54.7 C 388.1 54.7 391.8 54.7 391.8 54.7 C 391.7 53.7 391 53 389.9 53 C 388.9 53 388.2 53.7 388.1 54.7 Z M 397.1 57.7 L 395.4 55.5 L 393.7 57.7 L 392.9 57.7 L 395 55 L 393 52.4 L 393.8 52.4 L 395.4 54.5 L 397 52.4 L 397.8 52.4 L 395.8 55 L 397.9 57.7 L 397.1 57.7 Z M 402.9 54.4 C 402.94 54.42 402.9 57.7 402.9 57.7 L 402.3 57.7 C 402.3 57.7 402.26 56.86 402.3 56.9 C 401.9 57.4 401.3 57.7 400.4 57.7 C 399.3 57.7 398.5 57.1 398.5 56.2 C 398.5 55.4 399 54.7 400.6 54.7 C 400.56 54.71 402.2 54.7 402.2 54.7 C 402.2 54.7 402.23 54.39 402.2 54.4 C 402.2 53.5 401.7 53 400.7 53 C 400.1 53 399.4 53.2 399 53.6 C 399 53.6 398.7 53.1 398.7 53.1 C 399.2 52.6 400 52.4 400.8 52.4 C 402.2 52.4 402.9 53.1 402.9 54.4 Z M 402.2 56.1 C 402.23 56.1 402.2 55.2 402.2 55.2 C 402.2 55.2 400.58 55.24 400.6 55.2 C 399.6 55.2 399.2 55.6 399.2 56.2 C 399.2 56.8 399.7 57.2 400.6 57.2 C 401.4 57.2 401.9 56.8 402.2 56.1 Z M 413.4 54.6 C 413.43 54.63 413.4 57.7 413.4 57.7 L 412.7 57.7 C 412.7 57.7 412.72 54.7 412.7 54.7 C 412.7 53.6 412.2 53 411.2 53 C 410.1 53 409.5 53.7 409.5 54.9 C 409.45 54.92 409.5 57.7 409.5 57.7 L 408.7 57.7 C 408.7 57.7 408.74 54.7 408.7 54.7 C 408.7 53.6 408.2 53 407.2 53 C 406.2 53 405.5 53.7 405.5 54.9 C 405.46 54.92 405.5 57.7 405.5 57.7 L 404.8 57.7 L 404.8 52.4 L 405.4 52.4 C 405.4 52.4 405.43 53.38 405.4 53.4 C 405.8 52.7 406.5 52.4 407.4 52.4 C 408.2 52.4 408.9 52.7 409.2 53.5 C 409.6 52.8 410.4 52.4 411.3 52.4 C 412.6 52.4 413.4 53.1 413.4 54.6 Z M 420.6 55.1 C 420.6 56.7 419.5 57.7 418 57.7 C 417.1 57.7 416.4 57.4 416 56.7 C 415.97 56.69 416 59.6 416 59.6 L 415.3 59.6 L 415.3 52.4 L 415.9 52.4 C 415.9 52.4 415.94 53.46 415.9 53.5 C 416.4 52.8 417.1 52.4 418 52.4 C 419.5 52.4 420.6 53.5 420.6 55.1 Z M 419.9 55 C 419.9 53.8 419 53 417.9 53 C 416.8 53 416 53.8 416 55 C 416 56.3 416.8 57.1 417.9 57.1 C 419 57.1 419.9 56.3 419.9 55 Z M 422 50.3 L 422.8 50.3 L 422.8 57.7 L 422 57.7 L 422 50.3 Z M 429.3 55.3 C 429.3 55.3 424.9 55.3 424.9 55.3 C 425 56.4 425.8 57.1 427 57.1 C 427.6 57.1 428.2 56.9 428.6 56.4 C 428.6 56.4 429 56.9 429 56.9 C 428.5 57.4 427.8 57.7 426.9 57.7 C 425.3 57.7 424.2 56.6 424.2 55 C 424.2 53.5 425.3 52.4 426.7 52.4 C 428.2 52.4 429.3 53.5 429.3 55 C 429.3 55.1 429.3 55.2 429.3 55.3 Z M 424.9 54.7 C 424.9 54.7 428.6 54.7 428.6 54.7 C 428.5 53.7 427.8 53 426.7 53 C 425.7 53 425 53.7 424.9 54.7 Z M 431.3 57.2 C 431.3 57.3 431.3 57.5 431.2 57.8 C 431.21 57.76 430.8 59.1 430.8 59.1 L 430.3 59.1 C 430.3 59.1 430.65 57.69 430.7 57.7 C 430.4 57.6 430.3 57.4 430.3 57.2 C 430.3 56.9 430.5 56.6 430.8 56.6 C 431.1 56.6 431.3 56.9 431.3 57.2 Z M 438.2 57.4 C 438 57.6 437.5 57.7 437.1 57.7 C 436.1 57.7 435.6 57.2 435.6 56.2 C 435.6 56.2 435.6 53 435.6 53 L 434.7 53 L 434.7 52.4 L 435.6 52.4 L 435.6 51.3 L 436.3 51.3 L 436.3 52.4 L 437.9 52.4 L 437.9 53 L 436.3 53 C 436.3 53 436.31 56.16 436.3 56.2 C 436.3 56.8 436.6 57.1 437.2 57.1 C 437.5 57.1 437.8 57 438 56.9 C 438 56.9 438.2 57.4 438.2 57.4 Z M 444.3 54.6 C 444.28 54.63 444.3 57.7 444.3 57.7 L 443.6 57.7 C 443.6 57.7 443.57 54.7 443.6 54.7 C 443.6 53.6 443 53 442 53 C 440.9 53 440.1 53.7 440.1 54.9 C 440.15 54.92 440.1 57.7 440.1 57.7 L 439.4 57.7 L 439.4 50.3 L 440.1 50.3 C 440.1 50.3 440.15 53.34 440.1 53.3 C 440.5 52.7 441.2 52.4 442.1 52.4 C 443.4 52.4 444.3 53.1 444.3 54.6 Z M 450.8 55.3 C 450.8 55.3 446.4 55.3 446.4 55.3 C 446.5 56.4 447.3 57.1 448.4 57.1 C 449.1 57.1 449.7 56.9 450.1 56.4 C 450.1 56.4 450.5 56.9 450.5 56.9 C 450 57.4 449.3 57.7 448.4 57.7 C 446.8 57.7 445.7 56.6 445.7 55 C 445.7 53.5 446.8 52.4 448.2 52.4 C 449.7 52.4 450.8 53.5 450.8 55 C 450.8 55.1 450.8 55.2 450.8 55.3 Z M 446.4 54.7 C 446.4 54.7 450.1 54.7 450.1 54.7 C 450 53.7 449.3 53 448.2 53 C 447.2 53 446.5 53.7 446.4 54.7 Z " stroke="none" fill="#323132"/>
  </g>
  <g id="Polygon118184">
    <path d="M 11.5 40.8 L 7.6 40.8 L 6.8 42.7 L 6 42.7 L 9.2 35.7 L 9.9 35.7 L 13.1 42.7 L 12.4 42.7 L 11.5 40.8 Z M 11.3 40.2 L 9.6 36.4 L 7.9 40.2 L 11.3 40.2 Z M 13.6 40 C 13.6 38.5 14.7 37.4 16.3 37.4 C 17.2 37.4 17.9 37.7 18.4 38.4 C 18.4 38.4 17.8 38.8 17.8 38.8 C 17.5 38.2 16.9 38 16.3 38 C 15.2 38 14.3 38.8 14.3 40 C 14.3 41.3 15.2 42.1 16.3 42.1 C 16.9 42.1 17.5 41.9 17.8 41.3 C 17.8 41.3 18.4 41.7 18.4 41.7 C 17.9 42.4 17.2 42.7 16.3 42.7 C 14.7 42.7 13.6 41.6 13.6 40 Z M 19.2 40 C 19.2 38.5 20.3 37.4 21.9 37.4 C 22.8 37.4 23.5 37.7 23.9 38.4 C 23.9 38.4 23.4 38.8 23.4 38.8 C 23 38.2 22.5 38 21.9 38 C 20.7 38 19.9 38.8 19.9 40 C 19.9 41.3 20.7 42.1 21.9 42.1 C 22.5 42.1 23 41.9 23.4 41.3 C 23.4 41.3 23.9 41.7 23.9 41.7 C 23.5 42.4 22.8 42.7 21.9 42.7 C 20.3 42.7 19.2 41.6 19.2 40 Z M 29.9 37.4 L 29.9 42.7 L 29.3 42.7 C 29.3 42.7 29.25 41.72 29.3 41.7 C 28.9 42.4 28.2 42.7 27.4 42.7 C 26 42.7 25.1 42 25.1 40.5 C 25.14 40.47 25.1 37.4 25.1 37.4 L 25.9 37.4 C 25.9 37.4 25.85 40.4 25.9 40.4 C 25.9 41.5 26.4 42.1 27.4 42.1 C 28.5 42.1 29.2 41.4 29.2 40.2 C 29.22 40.18 29.2 37.4 29.2 37.4 L 29.9 37.4 Z M 34.4 37.4 C 34.4 37.4 34.4 38.1 34.4 38.1 C 34.4 38.1 34.3 38.1 34.3 38.1 C 33.2 38.1 32.5 38.8 32.5 40 C 32.5 40 32.5 42.7 32.5 42.7 L 31.8 42.7 L 31.8 37.4 L 32.5 37.4 C 32.5 37.4 32.47 38.45 32.5 38.4 C 32.8 37.7 33.5 37.4 34.4 37.4 Z M 39.8 39.4 C 39.78 39.42 39.8 42.7 39.8 42.7 L 39.1 42.7 C 39.1 42.7 39.1 41.86 39.1 41.9 C 38.8 42.4 38.2 42.7 37.3 42.7 C 36.1 42.7 35.4 42.1 35.4 41.2 C 35.4 40.4 35.9 39.7 37.4 39.7 C 37.4 39.71 39.1 39.7 39.1 39.7 C 39.1 39.7 39.07 39.39 39.1 39.4 C 39.1 38.5 38.6 38 37.6 38 C 36.9 38 36.3 38.2 35.8 38.6 C 35.8 38.6 35.5 38.1 35.5 38.1 C 36 37.6 36.8 37.4 37.7 37.4 C 39 37.4 39.8 38.1 39.8 39.4 Z M 39.1 41.1 C 39.07 41.1 39.1 40.2 39.1 40.2 C 39.1 40.2 37.42 40.24 37.4 40.2 C 36.4 40.2 36.1 40.6 36.1 41.2 C 36.1 41.8 36.6 42.2 37.4 42.2 C 38.2 42.2 38.8 41.8 39.1 41.1 Z M 44.3 42.4 C 44 42.6 43.6 42.7 43.2 42.7 C 42.2 42.7 41.7 42.2 41.7 41.2 C 41.68 41.2 41.7 38 41.7 38 L 40.7 38 L 40.7 37.4 L 41.7 37.4 L 41.7 36.3 L 42.4 36.3 L 42.4 37.4 L 44 37.4 L 44 38 L 42.4 38 C 42.4 38 42.39 41.16 42.4 41.2 C 42.4 41.8 42.7 42.1 43.3 42.1 C 43.6 42.1 43.9 42 44.1 41.9 C 44.1 41.9 44.3 42.4 44.3 42.4 Z M 50 40.3 C 50 40.3 45.6 40.3 45.6 40.3 C 45.7 41.4 46.5 42.1 47.7 42.1 C 48.3 42.1 48.9 41.9 49.3 41.4 C 49.3 41.4 49.7 41.9 49.7 41.9 C 49.2 42.4 48.5 42.7 47.6 42.7 C 46 42.7 44.9 41.6 44.9 40 C 44.9 38.5 46 37.4 47.4 37.4 C 48.9 37.4 50 38.5 50 40 C 50 40.1 50 40.2 50 40.3 Z M 45.6 39.7 C 45.6 39.7 49.3 39.7 49.3 39.7 C 49.2 38.7 48.5 38 47.4 38 C 46.4 38 45.7 38.7 45.6 39.7 Z M 53.5 40 C 53.5 38.5 54.7 37.4 56.2 37.4 C 57.1 37.4 57.9 37.7 58.3 38.4 C 58.3 38.4 57.8 38.8 57.8 38.8 C 57.4 38.2 56.9 38 56.2 38 C 55.1 38 54.3 38.8 54.3 40 C 54.3 41.3 55.1 42.1 56.2 42.1 C 56.9 42.1 57.4 41.9 57.8 41.3 C 57.8 41.3 58.3 41.7 58.3 41.7 C 57.9 42.4 57.1 42.7 56.2 42.7 C 54.7 42.7 53.5 41.6 53.5 40 Z M 59.1 40 C 59.1 38.5 60.2 37.4 61.8 37.4 C 63.3 37.4 64.4 38.5 64.4 40 C 64.4 41.6 63.3 42.7 61.8 42.7 C 60.2 42.7 59.1 41.6 59.1 40 Z M 63.7 40 C 63.7 38.8 62.9 38 61.8 38 C 60.7 38 59.8 38.8 59.8 40 C 59.8 41.3 60.7 42.1 61.8 42.1 C 62.9 42.1 63.7 41.3 63.7 40 Z M 70.7 39.6 C 70.71 39.63 70.7 42.7 70.7 42.7 L 70 42.7 C 70 42.7 70 39.7 70 39.7 C 70 38.6 69.4 38 68.4 38 C 67.3 38 66.6 38.7 66.6 39.9 C 66.58 39.92 66.6 42.7 66.6 42.7 L 65.9 42.7 L 65.9 37.4 L 66.6 37.4 C 66.6 37.4 66.55 38.39 66.6 38.4 C 66.9 37.7 67.6 37.4 68.6 37.4 C 69.8 37.4 70.7 38.1 70.7 39.6 Z M 75.2 42.4 C 75 42.6 74.5 42.7 74.1 42.7 C 73.1 42.7 72.6 42.2 72.6 41.2 C 72.59 41.2 72.6 38 72.6 38 L 71.7 38 L 71.7 37.4 L 72.6 37.4 L 72.6 36.3 L 73.3 36.3 L 73.3 37.4 L 74.9 37.4 L 74.9 38 L 73.3 38 C 73.3 38 73.3 41.16 73.3 41.2 C 73.3 41.8 73.6 42.1 74.2 42.1 C 74.5 42.1 74.8 42 75 41.9 C 75 41.9 75.2 42.4 75.2 42.4 Z M 79.1 37.4 C 79.1 37.4 79.1 38.1 79.1 38.1 C 79 38.1 79 38.1 78.9 38.1 C 77.8 38.1 77.1 38.8 77.1 40 C 77.14 40 77.1 42.7 77.1 42.7 L 76.4 42.7 L 76.4 37.4 L 77.1 37.4 C 77.1 37.4 77.11 38.45 77.1 38.4 C 77.4 37.7 78.1 37.4 79.1 37.4 Z M 79.7 40 C 79.7 38.5 80.8 37.4 82.4 37.4 C 83.9 37.4 85 38.5 85 40 C 85 41.6 83.9 42.7 82.4 42.7 C 80.8 42.7 79.7 41.6 79.7 40 Z M 84.3 40 C 84.3 38.8 83.5 38 82.4 38 C 81.3 38 80.4 38.8 80.4 40 C 80.4 41.3 81.3 42.1 82.4 42.1 C 83.5 42.1 84.3 41.3 84.3 40 Z M 86.5 35.3 L 87.2 35.3 L 87.2 42.7 L 86.5 42.7 L 86.5 35.3 Z M 88.5 42.1 C 88.5 42.1 88.8 41.5 88.8 41.5 C 89.2 41.9 89.9 42.1 90.7 42.1 C 91.7 42.1 92.1 41.8 92.1 41.3 C 92.1 39.9 88.7 41 88.7 38.9 C 88.7 38 89.4 37.4 90.8 37.4 C 91.4 37.4 92.2 37.6 92.6 37.9 C 92.6 37.9 92.3 38.4 92.3 38.4 C 91.8 38.1 91.3 38 90.8 38 C 89.8 38 89.4 38.4 89.4 38.9 C 89.4 40.3 92.8 39.2 92.8 41.2 C 92.8 42.1 92 42.7 90.6 42.7 C 89.8 42.7 88.9 42.4 88.5 42.1 Z M 100.7 39.4 C 100.69 39.42 100.7 42.7 100.7 42.7 L 100 42.7 C 100 42.7 100.01 41.86 100 41.9 C 99.7 42.4 99.1 42.7 98.2 42.7 C 97 42.7 96.3 42.1 96.3 41.2 C 96.3 40.4 96.8 39.7 98.3 39.7 C 98.31 39.71 100 39.7 100 39.7 C 100 39.7 99.98 39.39 100 39.4 C 100 38.5 99.5 38 98.5 38 C 97.8 38 97.2 38.2 96.7 38.6 C 96.7 38.6 96.4 38.1 96.4 38.1 C 97 37.6 97.7 37.4 98.6 37.4 C 99.9 37.4 100.7 38.1 100.7 39.4 Z M 100 41.1 C 99.98 41.1 100 40.2 100 40.2 C 100 40.2 98.33 40.24 98.3 40.2 C 97.3 40.2 97 40.6 97 41.2 C 97 41.8 97.5 42.2 98.3 42.2 C 99.1 42.2 99.7 41.8 100 41.1 Z M 105.2 37.4 C 105.2 37.4 105.2 38.1 105.2 38.1 C 105.1 38.1 105 38.1 105 38.1 C 103.9 38.1 103.2 38.8 103.2 40 C 103.21 40 103.2 42.7 103.2 42.7 L 102.5 42.7 L 102.5 37.4 L 103.2 37.4 C 103.2 37.4 103.18 38.45 103.2 38.4 C 103.5 37.7 104.2 37.4 105.2 37.4 Z M 110.9 40.3 C 110.9 40.3 106.5 40.3 106.5 40.3 C 106.6 41.4 107.4 42.1 108.6 42.1 C 109.2 42.1 109.8 41.9 110.2 41.4 C 110.2 41.4 110.6 41.9 110.6 41.9 C 110.1 42.4 109.4 42.7 108.5 42.7 C 106.9 42.7 105.8 41.6 105.8 40 C 105.8 38.5 106.9 37.4 108.4 37.4 C 109.8 37.4 110.9 38.5 110.9 40 C 110.9 40.1 110.9 40.2 110.9 40.3 Z M 106.5 39.7 C 106.5 39.7 110.2 39.7 110.2 39.7 C 110.1 38.7 109.4 38 108.4 38 C 107.3 38 106.6 38.7 106.5 39.7 Z M 119.6 40.3 C 119.6 40.3 115.2 40.3 115.2 40.3 C 115.2 41.4 116.1 42.1 117.2 42.1 C 117.9 42.1 118.4 41.9 118.8 41.4 C 118.8 41.4 119.2 41.9 119.2 41.9 C 118.8 42.4 118 42.7 117.2 42.7 C 115.6 42.7 114.4 41.6 114.4 40 C 114.4 38.5 115.5 37.4 117 37.4 C 118.5 37.4 119.6 38.5 119.6 40 C 119.6 40.1 119.6 40.2 119.6 40.3 Z M 115.2 39.7 C 115.2 39.7 118.9 39.7 118.9 39.7 C 118.8 38.7 118 38 117 38 C 116 38 115.2 38.7 115.2 39.7 Z M 125.8 39.6 C 125.81 39.63 125.8 42.7 125.8 42.7 L 125.1 42.7 C 125.1 42.7 125.1 39.7 125.1 39.7 C 125.1 38.6 124.5 38 123.5 38 C 122.4 38 121.7 38.7 121.7 39.9 C 121.68 39.92 121.7 42.7 121.7 42.7 L 121 42.7 L 121 37.4 L 121.7 37.4 C 121.7 37.4 121.65 38.39 121.7 38.4 C 122 37.7 122.7 37.4 123.7 37.4 C 124.9 37.4 125.8 38.1 125.8 39.6 Z M 132.6 37.4 C 132.6 37.4 132.57 42.04 132.6 42 C 132.6 43.9 131.7 44.7 129.9 44.7 C 129 44.7 128 44.4 127.5 43.9 C 127.5 43.9 127.9 43.3 127.9 43.3 C 128.4 43.8 129.1 44 129.9 44 C 131.3 44 131.9 43.4 131.9 42.1 C 131.9 42.1 131.9 41.5 131.9 41.5 C 131.4 42.1 130.7 42.5 129.8 42.5 C 128.3 42.5 127.2 41.4 127.2 39.9 C 127.2 38.4 128.3 37.4 129.8 37.4 C 130.7 37.4 131.5 37.7 131.9 38.4 C 131.9 38.43 131.9 37.4 131.9 37.4 L 132.6 37.4 Z M 131.9 39.9 C 131.9 38.8 131 38 129.9 38 C 128.7 38 127.9 38.8 127.9 39.9 C 127.9 41.1 128.7 41.9 129.9 41.9 C 131 41.9 131.9 41.1 131.9 39.9 Z M 134.3 35.8 C 134.3 35.5 134.5 35.3 134.8 35.3 C 135.1 35.3 135.3 35.5 135.3 35.7 C 135.3 36 135.1 36.3 134.8 36.3 C 134.5 36.3 134.3 36 134.3 35.8 Z M 134.4 37.4 L 135.2 37.4 L 135.2 42.7 L 134.4 42.7 L 134.4 37.4 Z M 141.8 39.6 C 141.84 39.63 141.8 42.7 141.8 42.7 L 141.1 42.7 C 141.1 42.7 141.13 39.7 141.1 39.7 C 141.1 38.6 140.5 38 139.5 38 C 138.4 38 137.7 38.7 137.7 39.9 C 137.71 39.92 137.7 42.7 137.7 42.7 L 137 42.7 L 137 37.4 L 137.7 37.4 C 137.7 37.4 137.68 38.39 137.7 38.4 C 138.1 37.7 138.8 37.4 139.7 37.4 C 141 37.4 141.8 38.1 141.8 39.6 Z M 148.3 40.3 C 148.3 40.3 143.9 40.3 143.9 40.3 C 144 41.4 144.8 42.1 146 42.1 C 146.6 42.1 147.2 41.9 147.6 41.4 C 147.6 41.4 148 41.9 148 41.9 C 147.5 42.4 146.8 42.7 146 42.7 C 144.3 42.7 143.2 41.6 143.2 40 C 143.2 38.5 144.3 37.4 145.8 37.4 C 147.3 37.4 148.3 38.5 148.3 40 C 148.3 40.1 148.3 40.2 148.3 40.3 Z M 143.9 39.7 C 143.9 39.7 147.7 39.7 147.7 39.7 C 147.6 38.7 146.8 38 145.8 38 C 144.8 38 144 38.7 143.9 39.7 Z M 154.4 40.3 C 154.4 40.3 150 40.3 150 40.3 C 150.1 41.4 151 42.1 152.1 42.1 C 152.8 42.1 153.3 41.9 153.7 41.4 C 153.7 41.4 154.1 41.9 154.1 41.9 C 153.7 42.4 152.9 42.7 152.1 42.7 C 150.5 42.7 149.3 41.6 149.3 40 C 149.3 38.5 150.4 37.4 151.9 37.4 C 153.4 37.4 154.5 38.5 154.5 40 C 154.5 40.1 154.4 40.2 154.4 40.3 Z M 150 39.7 C 150 39.7 153.8 39.7 153.8 39.7 C 153.7 38.7 152.9 38 151.9 38 C 150.9 38 150.1 38.7 150 39.7 Z M 158.5 37.4 C 158.5 37.4 158.5 38.1 158.5 38.1 C 158.5 38.1 158.4 38.1 158.3 38.1 C 157.2 38.1 156.6 38.8 156.6 40 C 156.57 40 156.6 42.7 156.6 42.7 L 155.9 42.7 L 155.9 37.4 L 156.5 37.4 C 156.5 37.4 156.54 38.45 156.5 38.4 C 156.9 37.7 157.5 37.4 158.5 37.4 Z M 164.3 40.3 C 164.3 40.3 159.9 40.3 159.9 40.3 C 159.9 41.4 160.8 42.1 161.9 42.1 C 162.6 42.1 163.1 41.9 163.5 41.4 C 163.5 41.4 163.9 41.9 163.9 41.9 C 163.5 42.4 162.7 42.7 161.9 42.7 C 160.3 42.7 159.1 41.6 159.1 40 C 159.1 38.5 160.2 37.4 161.7 37.4 C 163.2 37.4 164.3 38.5 164.3 40 C 164.3 40.1 164.3 40.2 164.3 40.3 Z M 159.9 39.7 C 159.9 39.7 163.6 39.7 163.6 39.7 C 163.5 38.7 162.7 38 161.7 38 C 160.7 38 159.9 38.7 159.9 39.7 Z M 170.6 35.3 L 170.6 42.7 L 169.9 42.7 C 169.9 42.7 169.92 41.64 169.9 41.6 C 169.5 42.3 168.8 42.7 167.9 42.7 C 166.4 42.7 165.3 41.6 165.3 40 C 165.3 38.5 166.4 37.4 167.9 37.4 C 168.7 37.4 169.4 37.7 169.9 38.4 C 169.89 38.42 169.9 35.3 169.9 35.3 L 170.6 35.3 Z M 169.9 40 C 169.9 38.8 169.1 38 167.9 38 C 166.8 38 166 38.8 166 40 C 166 41.3 166.8 42.1 167.9 42.1 C 169.1 42.1 169.9 41.3 169.9 40 Z M 178 42.4 C 177.7 42.6 177.3 42.7 176.9 42.7 C 175.9 42.7 175.3 42.2 175.3 41.2 C 175.32 41.2 175.3 38 175.3 38 L 174.4 38 L 174.4 37.4 L 175.3 37.4 L 175.3 36.3 L 176 36.3 L 176 37.4 L 177.6 37.4 L 177.6 38 L 176 38 C 176 38 176.03 41.16 176 41.2 C 176 41.8 176.3 42.1 176.9 42.1 C 177.2 42.1 177.5 42 177.7 41.9 C 177.7 41.9 178 42.4 178 42.4 Z M 178.5 40 C 178.5 38.5 179.7 37.4 181.2 37.4 C 182.7 37.4 183.9 38.5 183.9 40 C 183.9 41.6 182.7 42.7 181.2 42.7 C 179.7 42.7 178.5 41.6 178.5 40 Z M 183.1 40 C 183.1 38.8 182.3 38 181.2 38 C 180.1 38 179.2 38.8 179.2 40 C 179.2 41.3 180.1 42.1 181.2 42.1 C 182.3 42.1 183.1 41.3 183.1 40 Z M 192.5 40.3 C 192.5 40.3 188.1 40.3 188.1 40.3 C 188.2 41.4 189 42.1 190.2 42.1 C 190.8 42.1 191.4 41.9 191.8 41.4 C 191.8 41.4 192.2 41.9 192.2 41.9 C 191.7 42.4 191 42.7 190.2 42.7 C 188.5 42.7 187.4 41.6 187.4 40 C 187.4 38.5 188.5 37.4 190 37.4 C 191.5 37.4 192.5 38.5 192.5 40 C 192.5 40.1 192.5 40.2 192.5 40.3 Z M 188.1 39.7 C 188.1 39.7 191.8 39.7 191.8 39.7 C 191.8 38.7 191 38 190 38 C 189 38 188.2 38.7 188.1 39.7 Z M 198.8 39.6 C 198.77 39.63 198.8 42.7 198.8 42.7 L 198.1 42.7 C 198.1 42.7 198.06 39.7 198.1 39.7 C 198.1 38.6 197.5 38 196.5 38 C 195.4 38 194.6 38.7 194.6 39.9 C 194.64 39.92 194.6 42.7 194.6 42.7 L 193.9 42.7 L 193.9 37.4 L 194.6 37.4 C 194.6 37.4 194.61 38.39 194.6 38.4 C 195 37.7 195.7 37.4 196.6 37.4 C 197.9 37.4 198.8 38.1 198.8 39.6 Z M 200 42.1 C 200 42.1 200.3 41.5 200.3 41.5 C 200.7 41.9 201.4 42.1 202.2 42.1 C 203.2 42.1 203.6 41.8 203.6 41.3 C 203.6 39.9 200.2 41 200.2 38.9 C 200.2 38 200.9 37.4 202.3 37.4 C 202.9 37.4 203.7 37.6 204.1 37.9 C 204.1 37.9 203.8 38.4 203.8 38.4 C 203.4 38.1 202.8 38 202.3 38 C 201.3 38 200.9 38.4 200.9 38.9 C 200.9 40.3 204.3 39.2 204.3 41.2 C 204.3 42.1 203.5 42.7 202.1 42.7 C 201.3 42.7 200.4 42.4 200 42.1 Z M 210.3 37.4 L 210.3 42.7 L 209.6 42.7 C 209.6 42.7 209.64 41.72 209.6 41.7 C 209.3 42.4 208.6 42.7 207.7 42.7 C 206.4 42.7 205.5 42 205.5 40.5 C 205.53 40.47 205.5 37.4 205.5 37.4 L 206.2 37.4 C 206.2 37.4 206.23 40.4 206.2 40.4 C 206.2 41.5 206.8 42.1 207.8 42.1 C 208.9 42.1 209.6 41.4 209.6 40.2 C 209.61 40.18 209.6 37.4 209.6 37.4 L 210.3 37.4 Z M 214.8 37.4 C 214.8 37.4 214.8 38.1 214.8 38.1 C 214.8 38.1 214.7 38.1 214.7 38.1 C 213.6 38.1 212.9 38.8 212.9 40 C 212.89 40 212.9 42.7 212.9 42.7 L 212.2 42.7 L 212.2 37.4 L 212.9 37.4 C 212.9 37.4 212.86 38.45 212.9 38.4 C 213.2 37.7 213.9 37.4 214.8 37.4 Z M 220.6 40.3 C 220.6 40.3 216.2 40.3 216.2 40.3 C 216.2 41.4 217.1 42.1 218.2 42.1 C 218.9 42.1 219.4 41.9 219.8 41.4 C 219.8 41.4 220.2 41.9 220.2 41.9 C 219.8 42.4 219 42.7 218.2 42.7 C 216.6 42.7 215.5 41.6 215.5 40 C 215.5 38.5 216.5 37.4 218 37.4 C 219.5 37.4 220.6 38.5 220.6 40 C 220.6 40.1 220.6 40.2 220.6 40.3 Z M 216.2 39.7 C 216.2 39.7 219.9 39.7 219.9 39.7 C 219.8 38.7 219.1 38 218 38 C 217 38 216.3 38.7 216.2 39.7 Z M 227.4 42.4 C 227.1 42.6 226.7 42.7 226.3 42.7 C 225.3 42.7 224.8 42.2 224.8 41.2 C 224.77 41.2 224.8 38 224.8 38 L 223.8 38 L 223.8 37.4 L 224.8 37.4 L 224.8 36.3 L 225.5 36.3 L 225.5 37.4 L 227.1 37.4 L 227.1 38 L 225.5 38 C 225.5 38 225.48 41.16 225.5 41.2 C 225.5 41.8 225.8 42.1 226.4 42.1 C 226.7 42.1 227 42 227.2 41.9 C 227.2 41.9 227.4 42.4 227.4 42.4 Z M 233.4 39.6 C 233.45 39.63 233.4 42.7 233.4 42.7 L 232.7 42.7 C 232.7 42.7 232.74 39.7 232.7 39.7 C 232.7 38.6 232.2 38 231.2 38 C 230 38 229.3 38.7 229.3 39.9 C 229.32 39.92 229.3 42.7 229.3 42.7 L 228.6 42.7 L 228.6 35.3 L 229.3 35.3 C 229.3 35.3 229.32 38.34 229.3 38.3 C 229.7 37.7 230.4 37.4 231.3 37.4 C 232.6 37.4 233.4 38.1 233.4 39.6 Z M 239.9 40.3 C 239.9 40.3 235.5 40.3 235.5 40.3 C 235.6 41.4 236.5 42.1 237.6 42.1 C 238.3 42.1 238.8 41.9 239.2 41.4 C 239.2 41.4 239.6 41.9 239.6 41.9 C 239.2 42.4 238.4 42.7 237.6 42.7 C 235.9 42.7 234.8 41.6 234.8 40 C 234.8 38.5 235.9 37.4 237.4 37.4 C 238.9 37.4 239.9 38.5 239.9 40 C 239.9 40.1 239.9 40.2 239.9 40.3 Z M 235.5 39.7 C 235.5 39.7 239.3 39.7 239.3 39.7 C 239.2 38.7 238.4 38 237.4 38 C 236.4 38 235.6 38.7 235.5 39.7 Z M 244 37.4 C 244 37.4 244 38.1 244 38.1 C 243.9 38.1 243.9 38.1 243.8 38.1 C 242.7 38.1 242.1 38.8 242.1 40 C 242.06 40 242.1 42.7 242.1 42.7 L 241.4 42.7 L 241.4 37.4 L 242 37.4 C 242 37.4 242.03 38.45 242 38.4 C 242.4 37.7 243 37.4 244 37.4 Z M 249.7 40.3 C 249.7 40.3 245.3 40.3 245.3 40.3 C 245.4 41.4 246.3 42.1 247.4 42.1 C 248.1 42.1 248.6 41.9 249 41.4 C 249 41.4 249.4 41.9 249.4 41.9 C 249 42.4 248.2 42.7 247.4 42.7 C 245.8 42.7 244.6 41.6 244.6 40 C 244.6 38.5 245.7 37.4 247.2 37.4 C 248.7 37.4 249.8 38.5 249.8 40 C 249.8 40.1 249.7 40.2 249.7 40.3 Z M 245.3 39.7 C 245.3 39.7 249.1 39.7 249.1 39.7 C 249 38.7 248.2 38 247.2 38 C 246.2 38 245.4 38.7 245.3 39.7 Z M 253.7 35.8 C 253.7 35.5 253.9 35.3 254.2 35.3 C 254.5 35.3 254.7 35.5 254.7 35.7 C 254.7 36 254.5 36.3 254.2 36.3 C 253.9 36.3 253.7 36 253.7 35.8 Z M 253.8 37.4 L 254.5 37.4 L 254.5 42.7 L 253.8 42.7 L 253.8 37.4 Z M 255.8 42.1 C 255.8 42.1 256.1 41.5 256.1 41.5 C 256.5 41.9 257.3 42.1 258 42.1 C 259 42.1 259.4 41.8 259.4 41.3 C 259.4 39.9 256 41 256 38.9 C 256 38 256.7 37.4 258.1 37.4 C 258.8 37.4 259.5 37.6 259.9 37.9 C 259.9 37.9 259.6 38.4 259.6 38.4 C 259.2 38.1 258.6 38 258.1 38 C 257.1 38 256.7 38.4 256.7 38.9 C 256.7 40.3 260.1 39.2 260.1 41.2 C 260.1 42.1 259.3 42.7 257.9 42.7 C 257.1 42.7 256.2 42.4 255.8 42.1 Z M 268 39.4 C 268.01 39.42 268 42.7 268 42.7 L 267.3 42.7 C 267.3 42.7 267.33 41.86 267.3 41.9 C 267 42.4 266.4 42.7 265.5 42.7 C 264.3 42.7 263.6 42.1 263.6 41.2 C 263.6 40.4 264.1 39.7 265.6 39.7 C 265.63 39.71 267.3 39.7 267.3 39.7 C 267.3 39.7 267.31 39.39 267.3 39.4 C 267.3 38.5 266.8 38 265.8 38 C 265.1 38 264.5 38.2 264.1 38.6 C 264.1 38.6 263.7 38.1 263.7 38.1 C 264.3 37.6 265.1 37.4 265.9 37.4 C 267.2 37.4 268 38.1 268 39.4 Z M 267.3 41.1 C 267.31 41.1 267.3 40.2 267.3 40.2 C 267.3 40.2 265.65 40.24 265.7 40.2 C 264.6 40.2 264.3 40.6 264.3 41.2 C 264.3 41.8 264.8 42.2 265.6 42.2 C 266.4 42.2 267 41.8 267.3 41.1 Z M 277.4 39.6 C 277.4 39.63 277.4 42.7 277.4 42.7 L 276.7 42.7 C 276.7 42.7 276.69 39.7 276.7 39.7 C 276.7 38.6 276.1 38 275.1 38 C 274 38 273.3 38.7 273.3 39.9 C 273.27 39.92 273.3 42.7 273.3 42.7 L 272.6 42.7 L 272.6 35.3 L 273.3 35.3 C 273.3 35.3 273.27 38.34 273.3 38.3 C 273.7 37.7 274.4 37.4 275.2 37.4 C 276.5 37.4 277.4 38.1 277.4 39.6 Z M 279 35.8 C 279 35.5 279.3 35.3 279.5 35.3 C 279.8 35.3 280.1 35.5 280.1 35.7 C 280.1 36 279.8 36.3 279.5 36.3 C 279.3 36.3 279 36 279 35.8 Z M 279.2 37.4 L 279.9 37.4 L 279.9 42.7 L 279.2 42.7 L 279.2 37.4 Z M 286.7 37.4 C 286.7 37.4 286.67 42.04 286.7 42 C 286.7 43.9 285.8 44.7 284 44.7 C 283.1 44.7 282.1 44.4 281.6 43.9 C 281.6 43.9 281.9 43.3 281.9 43.3 C 282.4 43.8 283.2 44 284 44 C 285.4 44 286 43.4 286 42.1 C 286 42.1 286 41.5 286 41.5 C 285.5 42.1 284.8 42.5 283.9 42.5 C 282.4 42.5 281.3 41.4 281.3 39.9 C 281.3 38.4 282.4 37.4 283.9 37.4 C 284.8 37.4 285.6 37.7 286 38.4 C 285.99 38.43 286 37.4 286 37.4 L 286.7 37.4 Z M 286 39.9 C 286 38.8 285.1 38 284 38 C 282.8 38 282 38.8 282 39.9 C 282 41.1 282.8 41.9 284 41.9 C 285.1 41.9 286 41.1 286 39.9 Z M 293.4 39.6 C 293.37 39.63 293.4 42.7 293.4 42.7 L 292.7 42.7 C 292.7 42.7 292.66 39.7 292.7 39.7 C 292.7 38.6 292.1 38 291.1 38 C 290 38 289.2 38.7 289.2 39.9 C 289.24 39.92 289.2 42.7 289.2 42.7 L 288.5 42.7 L 288.5 35.3 L 289.2 35.3 C 289.2 35.3 289.24 38.34 289.2 38.3 C 289.6 37.7 290.3 37.4 291.2 37.4 C 292.5 37.4 293.4 38.1 293.4 39.6 Z M 297.9 35.3 L 298.6 35.3 L 298.6 42.7 L 297.9 42.7 L 297.9 35.3 Z M 305.2 40.3 C 305.2 40.3 300.8 40.3 300.8 40.3 C 300.8 41.4 301.7 42.1 302.8 42.1 C 303.5 42.1 304 41.9 304.4 41.4 C 304.4 41.4 304.8 41.9 304.8 41.9 C 304.4 42.4 303.6 42.7 302.8 42.7 C 301.2 42.7 300.1 41.6 300.1 40 C 300.1 38.5 301.1 37.4 302.6 37.4 C 304.1 37.4 305.2 38.5 305.2 40 C 305.2 40.1 305.2 40.2 305.2 40.3 Z M 300.8 39.7 C 300.8 39.7 304.5 39.7 304.5 39.7 C 304.4 38.7 303.7 38 302.6 38 C 301.6 38 300.9 38.7 300.8 39.7 Z M 311 37.4 L 308.6 42.7 L 307.9 42.7 L 305.6 37.4 L 306.3 37.4 L 308.3 41.9 L 310.3 37.4 L 311 37.4 Z M 316.5 40.3 C 316.5 40.3 312.1 40.3 312.1 40.3 C 312.1 41.4 313 42.1 314.1 42.1 C 314.8 42.1 315.3 41.9 315.7 41.4 C 315.7 41.4 316.1 41.9 316.1 41.9 C 315.7 42.4 314.9 42.7 314.1 42.7 C 312.5 42.7 311.4 41.6 311.4 40 C 311.4 38.5 312.4 37.4 313.9 37.4 C 315.4 37.4 316.5 38.5 316.5 40 C 316.5 40.1 316.5 40.2 316.5 40.3 Z M 312.1 39.7 C 312.1 39.7 315.8 39.7 315.8 39.7 C 315.7 38.7 315 38 313.9 38 C 312.9 38 312.2 38.7 312.1 39.7 Z M 317.9 35.3 L 318.6 35.3 L 318.6 42.7 L 317.9 42.7 L 317.9 35.3 Z M 322.7 40 C 322.7 38.5 323.8 37.4 325.3 37.4 C 326.9 37.4 328 38.5 328 40 C 328 41.6 326.9 42.7 325.3 42.7 C 323.8 42.7 322.7 41.6 322.7 40 Z M 327.3 40 C 327.3 38.8 326.5 38 325.3 38 C 324.2 38 323.4 38.8 323.4 40 C 323.4 41.3 324.2 42.1 325.3 42.1 C 326.5 42.1 327.3 41.3 327.3 40 Z M 330.2 36.8 C 330.22 36.8 330.2 37.4 330.2 37.4 L 331.8 37.4 L 331.8 38 L 330.2 38 L 330.2 42.7 L 329.5 42.7 L 329.5 38 L 328.6 38 L 328.6 37.4 L 329.5 37.4 C 329.5 37.4 329.53 36.77 329.5 36.8 C 329.5 35.8 330.1 35.2 331.1 35.2 C 331.5 35.2 331.9 35.3 332.2 35.5 C 332.2 35.5 331.9 36.1 331.9 36.1 C 331.7 35.9 331.4 35.8 331.1 35.8 C 330.5 35.8 330.2 36.1 330.2 36.8 Z M 334.9 40 C 334.9 38.5 336 37.4 337.6 37.4 C 338.5 37.4 339.2 37.7 339.7 38.4 C 339.7 38.4 339.1 38.8 339.1 38.8 C 338.8 38.2 338.2 38 337.6 38 C 336.4 38 335.6 38.8 335.6 40 C 335.6 41.3 336.4 42.1 337.6 42.1 C 338.2 42.1 338.8 41.9 339.1 41.3 C 339.1 41.3 339.7 41.7 339.7 41.7 C 339.2 42.4 338.5 42.7 337.6 42.7 C 336 42.7 334.9 41.6 334.9 40 Z M 340.4 40 C 340.4 38.5 341.6 37.4 343.1 37.4 C 344.7 37.4 345.8 38.5 345.8 40 C 345.8 41.6 344.7 42.7 343.1 42.7 C 341.6 42.7 340.4 41.6 340.4 40 Z M 345.1 40 C 345.1 38.8 344.2 38 343.1 38 C 342 38 341.2 38.8 341.2 40 C 341.2 41.3 342 42.1 343.1 42.1 C 344.2 42.1 345.1 41.3 345.1 40 Z M 349.9 37.4 C 349.9 37.4 349.9 38.1 349.9 38.1 C 349.8 38.1 349.7 38.1 349.7 38.1 C 348.6 38.1 347.9 38.8 347.9 40 C 347.93 40 347.9 42.7 347.9 42.7 L 347.2 42.7 L 347.2 37.4 L 347.9 37.4 C 347.9 37.4 347.9 38.45 347.9 38.4 C 348.2 37.7 348.9 37.4 349.9 37.4 Z M 353.7 37.4 C 353.7 37.4 353.7 38.1 353.7 38.1 C 353.7 38.1 353.6 38.1 353.6 38.1 C 352.5 38.1 351.8 38.8 351.8 40 C 351.8 40 351.8 42.7 351.8 42.7 L 351.1 42.7 L 351.1 37.4 L 351.8 37.4 C 351.8 37.4 351.77 38.45 351.8 38.4 C 352.1 37.7 352.8 37.4 353.7 37.4 Z M 359.5 40.3 C 359.5 40.3 355.1 40.3 355.1 40.3 C 355.2 41.4 356 42.1 357.2 42.1 C 357.8 42.1 358.4 41.9 358.8 41.4 C 358.8 41.4 359.2 41.9 359.2 41.9 C 358.7 42.4 358 42.7 357.1 42.7 C 355.5 42.7 354.4 41.6 354.4 40 C 354.4 38.5 355.5 37.4 356.9 37.4 C 358.4 37.4 359.5 38.5 359.5 40 C 359.5 40.1 359.5 40.2 359.5 40.3 Z M 355.1 39.7 C 355.1 39.7 358.8 39.7 358.8 39.7 C 358.7 38.7 358 38 356.9 38 C 355.9 38 355.2 38.7 355.1 39.7 Z M 360.3 42.1 C 360.3 42.1 360.6 41.5 360.6 41.5 C 361 41.9 361.7 42.1 362.5 42.1 C 363.5 42.1 363.9 41.8 363.9 41.3 C 363.9 39.9 360.5 41 360.5 38.9 C 360.5 38 361.2 37.4 362.6 37.4 C 363.2 37.4 364 37.6 364.4 37.9 C 364.4 37.9 364.1 38.4 364.1 38.4 C 363.6 38.1 363.1 38 362.6 38 C 361.6 38 361.2 38.4 361.2 38.9 C 361.2 40.3 364.6 39.2 364.6 41.2 C 364.6 42.1 363.8 42.7 362.4 42.7 C 361.6 42.7 360.7 42.4 360.3 42.1 Z M 371.2 40.1 C 371.2 41.7 370.1 42.7 368.6 42.7 C 367.8 42.7 367.1 42.4 366.6 41.7 C 366.62 41.69 366.6 44.6 366.6 44.6 L 365.9 44.6 L 365.9 37.4 L 366.6 37.4 C 366.6 37.4 366.59 38.46 366.6 38.5 C 367 37.8 367.8 37.4 368.6 37.4 C 370.1 37.4 371.2 38.5 371.2 40.1 Z M 370.5 40 C 370.5 38.8 369.7 38 368.6 38 C 367.5 38 366.6 38.8 366.6 40 C 366.6 41.3 367.5 42.1 368.6 42.1 C 369.7 42.1 370.5 41.3 370.5 40 Z M 372.2 40 C 372.2 38.5 373.4 37.4 374.9 37.4 C 376.5 37.4 377.6 38.5 377.6 40 C 377.6 41.6 376.5 42.7 374.9 42.7 C 373.4 42.7 372.2 41.6 372.2 40 Z M 376.9 40 C 376.9 38.8 376 38 374.9 38 C 373.8 38 373 38.8 373 40 C 373 41.3 373.8 42.1 374.9 42.1 C 376 42.1 376.9 41.3 376.9 40 Z M 383.9 39.6 C 383.86 39.63 383.9 42.7 383.9 42.7 L 383.2 42.7 C 383.2 42.7 383.15 39.7 383.2 39.7 C 383.2 38.6 382.6 38 381.6 38 C 380.4 38 379.7 38.7 379.7 39.9 C 379.73 39.92 379.7 42.7 379.7 42.7 L 379 42.7 L 379 37.4 L 379.7 37.4 C 379.7 37.4 379.7 38.39 379.7 38.4 C 380.1 37.7 380.8 37.4 381.7 37.4 C 383 37.4 383.9 38.1 383.9 39.6 Z M 390.6 35.3 L 390.6 42.7 L 389.9 42.7 C 389.9 42.7 389.9 41.64 389.9 41.6 C 389.5 42.3 388.7 42.7 387.9 42.7 C 386.4 42.7 385.2 41.6 385.2 40 C 385.2 38.5 386.4 37.4 387.9 37.4 C 388.7 37.4 389.4 37.7 389.9 38.4 C 389.87 38.42 389.9 35.3 389.9 35.3 L 390.6 35.3 Z M 389.9 40 C 389.9 38.8 389 38 387.9 38 C 386.8 38 386 38.8 386 40 C 386 41.3 386.8 42.1 387.9 42.1 C 389 42.1 389.9 41.3 389.9 40 Z M 397.1 40.3 C 397.1 40.3 392.7 40.3 392.7 40.3 C 392.8 41.4 393.6 42.1 394.8 42.1 C 395.4 42.1 396 41.9 396.4 41.4 C 396.4 41.4 396.8 41.9 396.8 41.9 C 396.3 42.4 395.6 42.7 394.8 42.7 C 393.1 42.7 392 41.6 392 40 C 392 38.5 393.1 37.4 394.6 37.4 C 396.1 37.4 397.1 38.5 397.1 40 C 397.1 40.1 397.1 40.2 397.1 40.3 Z M 392.7 39.7 C 392.7 39.7 396.5 39.7 396.5 39.7 C 396.4 38.7 395.6 38 394.6 38 C 393.6 38 392.8 38.7 392.7 39.7 Z M 403.4 39.6 C 403.38 39.63 403.4 42.7 403.4 42.7 L 402.7 42.7 C 402.7 42.7 402.67 39.7 402.7 39.7 C 402.7 38.6 402.1 38 401.1 38 C 400 38 399.3 38.7 399.3 39.9 C 399.25 39.92 399.3 42.7 399.3 42.7 L 398.5 42.7 L 398.5 37.4 L 399.2 37.4 C 399.2 37.4 399.22 38.39 399.2 38.4 C 399.6 37.7 400.3 37.4 401.2 37.4 C 402.5 37.4 403.4 38.1 403.4 39.6 Z M 404.8 40 C 404.8 38.5 405.9 37.4 407.5 37.4 C 408.4 37.4 409.1 37.7 409.5 38.4 C 409.5 38.4 409 38.8 409 38.8 C 408.6 38.2 408.1 38 407.5 38 C 406.3 38 405.5 38.8 405.5 40 C 405.5 41.3 406.3 42.1 407.5 42.1 C 408.1 42.1 408.6 41.9 409 41.3 C 409 41.3 409.5 41.7 409.5 41.7 C 409.1 42.4 408.4 42.7 407.5 42.7 C 405.9 42.7 404.8 41.6 404.8 40 Z M 415.5 40.3 C 415.5 40.3 411.1 40.3 411.1 40.3 C 411.1 41.4 412 42.1 413.1 42.1 C 413.8 42.1 414.3 41.9 414.7 41.4 C 414.7 41.4 415.1 41.9 415.1 41.9 C 414.7 42.4 413.9 42.7 413.1 42.7 C 411.5 42.7 410.3 41.6 410.3 40 C 410.3 38.5 411.4 37.4 412.9 37.4 C 414.4 37.4 415.5 38.5 415.5 40 C 415.5 40.1 415.5 40.2 415.5 40.3 Z M 411.1 39.7 C 411.1 39.7 414.8 39.7 414.8 39.7 C 414.7 38.7 413.9 38 412.9 38 C 411.9 38 411.1 38.7 411.1 39.7 Z M 424.9 40 C 424.9 41.6 423.7 42.7 422.2 42.7 C 421.4 42.7 420.6 42.3 420.2 41.6 C 420.21 41.64 420.2 42.7 420.2 42.7 L 419.5 42.7 L 419.5 35.3 L 420.2 35.3 C 420.2 35.3 420.24 38.42 420.2 38.4 C 420.7 37.7 421.4 37.4 422.2 37.4 C 423.7 37.4 424.9 38.5 424.9 40 Z M 424.2 40 C 424.2 38.8 423.3 38 422.2 38 C 421.1 38 420.2 38.8 420.2 40 C 420.2 41.3 421.1 42.1 422.2 42.1 C 423.3 42.1 424.2 41.3 424.2 40 Z M 431 40.3 C 431 40.3 426.6 40.3 426.6 40.3 C 426.7 41.4 427.5 42.1 428.7 42.1 C 429.3 42.1 429.9 41.9 430.3 41.4 C 430.3 41.4 430.7 41.9 430.7 41.9 C 430.2 42.4 429.5 42.7 428.6 42.7 C 427 42.7 425.9 41.6 425.9 40 C 425.9 38.5 427 37.4 428.4 37.4 C 429.9 37.4 431 38.5 431 40 C 431 40.1 431 40.2 431 40.3 Z M 426.6 39.7 C 426.6 39.7 430.3 39.7 430.3 39.7 C 430.2 38.7 429.5 38 428.4 38 C 427.4 38 426.7 38.7 426.6 39.7 Z M 435.1 42.4 C 434.8 42.6 434.4 42.7 434 42.7 C 433 42.7 432.5 42.2 432.5 41.2 C 432.47 41.2 432.5 38 432.5 38 L 431.5 38 L 431.5 37.4 L 432.5 37.4 L 432.5 36.3 L 433.2 36.3 L 433.2 37.4 L 434.8 37.4 L 434.8 38 L 433.2 38 C 433.2 38 433.18 41.16 433.2 41.2 C 433.2 41.8 433.5 42.1 434.1 42.1 C 434.4 42.1 434.7 42 434.9 41.9 C 434.9 41.9 435.1 42.4 435.1 42.4 Z M 444.3 37.4 L 442.3 42.7 L 441.6 42.7 L 440 38.4 L 438.3 42.7 L 437.7 42.7 L 435.7 37.4 L 436.4 37.4 L 438 41.9 L 439.7 37.4 L 440.3 37.4 L 442 41.9 L 443.7 37.4 L 444.3 37.4 Z M 449.9 40.3 C 449.9 40.3 445.5 40.3 445.5 40.3 C 445.6 41.4 446.4 42.1 447.6 42.1 C 448.2 42.1 448.8 41.9 449.2 41.4 C 449.2 41.4 449.6 41.9 449.6 41.9 C 449.1 42.4 448.4 42.7 447.6 42.7 C 445.9 42.7 444.8 41.6 444.8 40 C 444.8 38.5 445.9 37.4 447.4 37.4 C 448.9 37.4 449.9 38.5 449.9 40 C 449.9 40.1 449.9 40.2 449.9 40.3 Z M 445.5 39.7 C 445.5 39.7 449.2 39.7 449.2 39.7 C 449.2 38.7 448.4 38 447.4 38 C 446.4 38 445.6 38.7 445.5 39.7 Z M 456 40.3 C 456 40.3 451.6 40.3 451.6 40.3 C 451.7 41.4 452.6 42.1 453.7 42.1 C 454.3 42.1 454.9 41.9 455.3 41.4 C 455.3 41.4 455.7 41.9 455.7 41.9 C 455.2 42.4 454.5 42.7 453.7 42.7 C 452 42.7 450.9 41.6 450.9 40 C 450.9 38.5 452 37.4 453.5 37.4 C 455 37.4 456 38.5 456 40 C 456 40.1 456 40.2 456 40.3 Z M 451.6 39.7 C 451.6 39.7 455.4 39.7 455.4 39.7 C 455.3 38.7 454.5 38 453.5 38 C 452.5 38 451.7 38.7 451.6 39.7 Z M 462.3 39.6 C 462.29 39.63 462.3 42.7 462.3 42.7 L 461.6 42.7 C 461.6 42.7 461.58 39.7 461.6 39.7 C 461.6 38.6 461 38 460 38 C 458.9 38 458.2 38.7 458.2 39.9 C 458.16 39.92 458.2 42.7 458.2 42.7 L 457.4 42.7 L 457.4 37.4 L 458.1 37.4 C 458.1 37.4 458.13 38.39 458.1 38.4 C 458.5 37.7 459.2 37.4 460.1 37.4 C 461.4 37.4 462.3 38.1 462.3 39.6 Z " stroke="none" fill="#323132"/>
  </g>
  <g id="Polygon118183">
    <path d="M 8.3 11.8 L 11.7 11.8 L 11.7 13.1 L 8.3 13.1 L 8.3 11.8 Z M 8.5 15.7 L 6.8 15.7 L 6.8 8.7 L 12.1 8.7 L 12.1 10 L 8.5 10 L 8.5 15.7 Z M 15.7 15.8 C 15.1 15.8 14.6 15.6 14.1 15.4 C 13.6 15.2 13.3 14.8 13 14.4 C 12.8 14 12.6 13.5 12.6 13 C 12.6 12.4 12.8 12 13 11.6 C 13.3 11.1 13.6 10.8 14 10.6 C 14.5 10.3 15 10.2 15.5 10.2 C 16 10.2 16.5 10.3 16.9 10.6 C 17.4 10.8 17.7 11.1 17.9 11.5 C 18.2 11.9 18.3 12.4 18.3 13 C 18.3 13.1 18.3 13.1 18.3 13.2 C 18.3 13.3 18.3 13.4 18.3 13.4 C 18.28 13.43 13.9 13.4 13.9 13.4 L 13.9 12.5 L 17.5 12.5 C 17.5 12.5 16.86 12.79 16.9 12.8 C 16.9 12.5 16.8 12.3 16.7 12.1 C 16.6 11.9 16.4 11.7 16.2 11.6 C 16 11.5 15.8 11.4 15.5 11.4 C 15.3 11.4 15 11.5 14.8 11.6 C 14.6 11.7 14.5 11.9 14.3 12.1 C 14.2 12.3 14.2 12.5 14.2 12.8 C 14.2 12.8 14.2 13 14.2 13 C 14.2 13.3 14.2 13.6 14.4 13.8 C 14.5 14 14.7 14.2 14.9 14.3 C 15.1 14.5 15.4 14.5 15.7 14.5 C 16 14.5 16.3 14.5 16.5 14.4 C 16.7 14.3 16.9 14.2 17.1 14 C 17.1 14 17.9 14.9 17.9 14.9 C 17.7 15.2 17.4 15.4 17 15.5 C 16.6 15.7 16.2 15.8 15.7 15.8 Z M 22.1 15.8 C 21.5 15.8 20.9 15.6 20.5 15.4 C 20 15.2 19.7 14.8 19.4 14.4 C 19.2 14 19 13.5 19 13 C 19 12.4 19.2 12 19.4 11.6 C 19.7 11.1 20 10.8 20.4 10.6 C 20.9 10.3 21.4 10.2 21.9 10.2 C 22.4 10.2 22.9 10.3 23.3 10.6 C 23.7 10.8 24.1 11.1 24.3 11.5 C 24.6 11.9 24.7 12.4 24.7 13 C 24.7 13.1 24.7 13.1 24.7 13.2 C 24.7 13.3 24.7 13.4 24.7 13.4 C 24.67 13.43 20.3 13.4 20.3 13.4 L 20.3 12.5 L 23.9 12.5 C 23.9 12.5 23.25 12.79 23.3 12.8 C 23.3 12.5 23.2 12.3 23.1 12.1 C 23 11.9 22.8 11.7 22.6 11.6 C 22.4 11.5 22.2 11.4 21.9 11.4 C 21.6 11.4 21.4 11.5 21.2 11.6 C 21 11.7 20.8 11.9 20.7 12.1 C 20.6 12.3 20.6 12.5 20.6 12.8 C 20.6 12.8 20.6 13 20.6 13 C 20.6 13.3 20.6 13.6 20.8 13.8 C 20.9 14 21.1 14.2 21.3 14.3 C 21.5 14.5 21.8 14.5 22.1 14.5 C 22.4 14.5 22.7 14.5 22.9 14.4 C 23.1 14.3 23.3 14.2 23.5 14 C 23.5 14 24.3 14.9 24.3 14.9 C 24.1 15.2 23.8 15.4 23.4 15.5 C 23 15.7 22.6 15.8 22.1 15.8 Z M 28.1 15.8 C 27.6 15.8 27.2 15.6 26.8 15.4 C 26.3 15.2 26 14.9 25.8 14.4 C 25.6 14 25.4 13.5 25.4 13 C 25.4 12.4 25.6 11.9 25.8 11.5 C 26 11.1 26.3 10.8 26.8 10.6 C 27.2 10.3 27.6 10.2 28.1 10.2 C 28.6 10.2 29 10.3 29.3 10.5 C 29.7 10.7 29.9 11 30.1 11.4 C 30.3 11.8 30.4 12.4 30.4 13 C 30.4 13.6 30.3 14.1 30.1 14.5 C 29.9 15 29.7 15.3 29.3 15.5 C 29 15.7 28.6 15.8 28.1 15.8 Z M 28.4 14.5 C 28.6 14.5 28.9 14.4 29.1 14.3 C 29.3 14.2 29.5 14 29.6 13.8 C 29.7 13.6 29.8 13.3 29.8 13 C 29.8 12.7 29.7 12.4 29.6 12.2 C 29.5 12 29.3 11.8 29.1 11.7 C 28.9 11.6 28.6 11.5 28.4 11.5 C 28.1 11.5 27.9 11.6 27.7 11.7 C 27.5 11.8 27.3 12 27.2 12.2 C 27.1 12.4 27 12.7 27 13 C 27 13.3 27.1 13.6 27.2 13.8 C 27.3 14 27.5 14.2 27.7 14.3 C 27.9 14.4 28.1 14.5 28.4 14.5 Z M 29.8 15.7 L 29.8 14.6 L 29.8 13 L 29.7 11.4 L 29.7 8.3 L 31.3 8.3 L 31.3 15.7 L 29.8 15.7 Z M 35.9 15.8 C 35.4 15.8 35 15.7 34.7 15.5 C 34.3 15.3 34.1 15 33.9 14.5 C 33.7 14.1 33.6 13.6 33.6 13 C 33.6 12.4 33.7 11.8 33.9 11.4 C 34.1 11 34.4 10.7 34.7 10.5 C 35.1 10.3 35.5 10.2 35.9 10.2 C 36.4 10.2 36.9 10.3 37.3 10.6 C 37.7 10.8 38 11.1 38.2 11.5 C 38.5 11.9 38.6 12.4 38.6 13 C 38.6 13.5 38.5 14 38.2 14.4 C 38 14.9 37.7 15.2 37.3 15.4 C 36.9 15.6 36.4 15.8 35.9 15.8 Z M 32.7 15.7 L 32.7 8.3 L 34.3 8.3 L 34.3 11.4 L 34.2 13 L 34.2 14.6 L 34.2 15.7 L 32.7 15.7 Z M 35.6 14.5 C 35.9 14.5 36.1 14.4 36.3 14.3 C 36.5 14.2 36.7 14 36.8 13.8 C 36.9 13.6 37 13.3 37 13 C 37 12.7 36.9 12.4 36.8 12.2 C 36.7 12 36.5 11.8 36.3 11.7 C 36.1 11.6 35.9 11.5 35.6 11.5 C 35.4 11.5 35.1 11.6 34.9 11.7 C 34.7 11.8 34.6 12 34.4 12.2 C 34.3 12.4 34.3 12.7 34.3 13 C 34.3 13.3 34.3 13.6 34.4 13.8 C 34.6 14 34.7 14.2 34.9 14.3 C 35.1 14.4 35.4 14.5 35.6 14.5 Z M 42.9 15.7 L 42.9 14.6 L 42.8 14.4 C 42.8 14.4 42.85 12.52 42.8 12.5 C 42.8 12.2 42.7 11.9 42.5 11.7 C 42.3 11.6 42 11.5 41.6 11.5 C 41.3 11.5 41 11.5 40.8 11.6 C 40.5 11.7 40.2 11.8 40.1 12 C 40.1 12 39.5 10.9 39.5 10.9 C 39.8 10.7 40.1 10.5 40.6 10.4 C 41 10.3 41.4 10.2 41.8 10.2 C 42.6 10.2 43.3 10.4 43.7 10.8 C 44.2 11.2 44.4 11.8 44.4 12.6 C 44.41 12.61 44.4 15.7 44.4 15.7 L 42.9 15.7 Z M 41.3 15.8 C 40.9 15.8 40.5 15.7 40.2 15.5 C 39.9 15.4 39.7 15.2 39.5 15 C 39.4 14.7 39.3 14.4 39.3 14.1 C 39.3 13.8 39.4 13.5 39.5 13.3 C 39.7 13 39.9 12.9 40.3 12.7 C 40.6 12.6 41.1 12.5 41.6 12.5 C 41.61 12.52 43 12.5 43 12.5 L 43 13.4 C 43 13.4 41.78 13.43 41.8 13.4 C 41.4 13.4 41.2 13.5 41 13.6 C 40.9 13.7 40.8 13.9 40.8 14.1 C 40.8 14.3 40.9 14.4 41.1 14.5 C 41.2 14.7 41.4 14.7 41.7 14.7 C 42 14.7 42.2 14.6 42.4 14.5 C 42.6 14.4 42.8 14.2 42.8 14 C 42.8 14 43.1 14.7 43.1 14.7 C 43 15 42.8 15.3 42.5 15.5 C 42.2 15.7 41.8 15.8 41.3 15.8 Z M 48.4 15.8 C 47.8 15.8 47.3 15.6 46.9 15.4 C 46.4 15.2 46.1 14.8 45.8 14.4 C 45.6 14 45.4 13.5 45.4 13 C 45.4 12.4 45.6 12 45.8 11.6 C 46.1 11.1 46.4 10.8 46.9 10.6 C 47.3 10.3 47.8 10.2 48.4 10.2 C 49 10.2 49.5 10.3 49.9 10.6 C 50.3 10.8 50.6 11.1 50.8 11.6 C 50.8 11.6 49.6 12.2 49.6 12.2 C 49.5 12 49.3 11.8 49.1 11.7 C 48.9 11.6 48.7 11.5 48.4 11.5 C 48.2 11.5 47.9 11.6 47.7 11.7 C 47.5 11.8 47.3 12 47.2 12.2 C 47.1 12.4 47 12.7 47 13 C 47 13.3 47.1 13.6 47.2 13.8 C 47.3 14 47.5 14.2 47.7 14.3 C 47.9 14.4 48.2 14.5 48.4 14.5 C 48.7 14.5 48.9 14.4 49.1 14.3 C 49.3 14.2 49.5 14 49.6 13.7 C 49.6 13.7 50.8 14.4 50.8 14.4 C 50.6 14.8 50.3 15.2 49.9 15.4 C 49.5 15.6 49 15.8 48.4 15.8 Z M 53.1 14.6 L 53.1 12.7 L 55.6 10.3 L 57.5 10.3 L 55.1 12.7 L 54.3 13.4 L 53.1 14.6 Z M 51.8 15.7 L 51.8 8.3 L 53.4 8.3 L 53.4 15.7 L 51.8 15.7 Z M 55.8 15.7 L 54 13.4 L 55 12.2 L 57.7 15.7 L 55.8 15.7 Z " stroke="none" fill="#323132"/>
  </g>
</svg>