<?xml version="1.0" standalone="no"?>
<!DOCTYPE svg PUBLIC "-//W3C//DTD SVG 1.1//EN" "http://www.w3.org/Graphics/SVG/1.1/DTD/svg11.dtd">
<svg xmlns="http://www.w3.org/2000/svg" version="1.1" width="445.2px" height="105.5px" viewBox="0 0 445.2 105.5">
  <desc>to be higher on the night shift; to rise with increasing shift length over eight hours; to increase over successive s...</desc>
  <defs/>
  <g id="Polygon122996">
    <path d="M 34.8 87.4 C 34.5 87.6 34.1 87.7 33.6 87.7 C 32.7 87.7 32.1 87.2 32.1 86.2 C 32.11 86.2 32.1 83 32.1 83 L 31.2 83 L 31.2 82.4 L 32.1 82.4 L 32.1 81.3 L 32.8 81.3 L 32.8 82.4 L 34.4 82.4 L 34.4 83 L 32.8 83 C 32.8 83 32.82 86.16 32.8 86.2 C 32.8 86.8 33.1 87.1 33.7 87.1 C 34 87.1 34.3 87 34.5 86.9 C 34.5 86.9 34.8 87.4 34.8 87.4 Z M 35.3 85 C 35.3 83.5 36.5 82.4 38 82.4 C 39.5 82.4 40.7 83.5 40.7 85 C 40.7 86.6 39.5 87.7 38 87.7 C 36.5 87.7 35.3 86.6 35.3 85 Z M 39.9 85 C 39.9 83.8 39.1 83 38 83 C 36.9 83 36 83.8 36 85 C 36 86.3 36.9 87.1 38 87.1 C 39.1 87.1 39.9 86.3 39.9 85 Z M 44.6 80.8 C 44.6 80.5 44.8 80.3 45.1 80.3 C 45.4 80.3 45.6 80.5 45.6 80.7 C 45.6 81 45.4 81.3 45.1 81.3 C 44.8 81.3 44.6 81 44.6 80.8 Z M 44.7 82.4 L 45.4 82.4 L 45.4 87.7 L 44.7 87.7 L 44.7 82.4 Z M 52.1 84.6 C 52.12 84.63 52.1 87.7 52.1 87.7 L 51.4 87.7 C 51.4 87.7 51.41 84.7 51.4 84.7 C 51.4 83.6 50.8 83 49.8 83 C 48.7 83 48 83.7 48 84.9 C 47.99 84.92 48 87.7 48 87.7 L 47.3 87.7 L 47.3 82.4 L 48 82.4 C 48 82.4 47.96 83.39 48 83.4 C 48.3 82.7 49.1 82.4 50 82.4 C 51.2 82.4 52.1 83.1 52.1 84.6 Z M 53.5 85 C 53.5 83.5 54.6 82.4 56.2 82.4 C 57.1 82.4 57.9 82.7 58.3 83.4 C 58.3 83.4 57.7 83.8 57.7 83.8 C 57.4 83.2 56.8 83 56.2 83 C 55.1 83 54.2 83.8 54.2 85 C 54.2 86.3 55.1 87.1 56.2 87.1 C 56.8 87.1 57.4 86.9 57.7 86.3 C 57.7 86.3 58.3 86.7 58.3 86.7 C 57.9 87.4 57.1 87.7 56.2 87.7 C 54.6 87.7 53.5 86.6 53.5 85 Z M 62.2 82.4 C 62.2 82.4 62.2 83.1 62.2 83.1 C 62.2 83.1 62.1 83.1 62.1 83.1 C 61 83.1 60.3 83.8 60.3 85 C 60.3 85 60.3 87.7 60.3 87.7 L 59.6 87.7 L 59.6 82.4 L 60.3 82.4 C 60.3 82.4 60.27 83.45 60.3 83.4 C 60.6 82.7 61.3 82.4 62.2 82.4 Z M 68 85.3 C 68 85.3 63.6 85.3 63.6 85.3 C 63.7 86.4 64.5 87.1 65.7 87.1 C 66.3 87.1 66.9 86.9 67.3 86.4 C 67.3 86.4 67.7 86.9 67.7 86.9 C 67.2 87.4 66.5 87.7 65.6 87.7 C 64 87.7 62.9 86.6 62.9 85 C 62.9 83.5 64 82.4 65.4 82.4 C 66.9 82.4 68 83.5 68 85 C 68 85.1 68 85.2 68 85.3 Z M 63.6 84.7 C 63.6 84.7 67.3 84.7 67.3 84.7 C 67.2 83.7 66.5 83 65.4 83 C 64.4 83 63.7 83.7 63.6 84.7 Z M 73.4 84.4 C 73.37 84.42 73.4 87.7 73.4 87.7 L 72.7 87.7 C 72.7 87.7 72.69 86.86 72.7 86.9 C 72.4 87.4 71.8 87.7 70.9 87.7 C 69.7 87.7 69 87.1 69 86.2 C 69 85.4 69.5 84.7 71 84.7 C 70.99 84.71 72.7 84.7 72.7 84.7 C 72.7 84.7 72.66 84.39 72.7 84.4 C 72.7 83.5 72.2 83 71.2 83 C 70.5 83 69.9 83.2 69.4 83.6 C 69.4 83.6 69.1 83.1 69.1 83.1 C 69.6 82.6 70.4 82.4 71.2 82.4 C 72.6 82.4 73.4 83.1 73.4 84.4 Z M 72.7 86.1 C 72.66 86.1 72.7 85.2 72.7 85.2 C 72.7 85.2 71.01 85.24 71 85.2 C 70 85.2 69.7 85.6 69.7 86.2 C 69.7 86.8 70.2 87.2 71 87.2 C 71.8 87.2 72.4 86.8 72.7 86.1 Z M 74.6 87.1 C 74.6 87.1 74.9 86.5 74.9 86.5 C 75.3 86.9 76 87.1 76.8 87.1 C 77.8 87.1 78.2 86.8 78.2 86.3 C 78.2 84.9 74.8 86 74.8 83.9 C 74.8 83 75.5 82.4 76.9 82.4 C 77.5 82.4 78.3 82.6 78.7 82.9 C 78.7 82.9 78.4 83.4 78.4 83.4 C 77.9 83.1 77.4 83 76.9 83 C 75.9 83 75.5 83.4 75.5 83.9 C 75.5 85.3 78.9 84.2 78.9 86.2 C 78.9 87.1 78.1 87.7 76.7 87.7 C 75.9 87.7 75 87.4 74.6 87.1 Z M 84.9 85.3 C 84.9 85.3 80.5 85.3 80.5 85.3 C 80.6 86.4 81.4 87.1 82.6 87.1 C 83.2 87.1 83.8 86.9 84.2 86.4 C 84.2 86.4 84.6 86.9 84.6 86.9 C 84.1 87.4 83.4 87.7 82.5 87.7 C 80.9 87.7 79.8 86.6 79.8 85 C 79.8 83.5 80.9 82.4 82.3 82.4 C 83.8 82.4 84.9 83.5 84.9 85 C 84.9 85.1 84.9 85.2 84.9 85.3 Z M 80.5 84.7 C 80.5 84.7 84.2 84.7 84.2 84.7 C 84.1 83.7 83.4 83 82.3 83 C 81.3 83 80.6 83.7 80.5 84.7 Z M 96.7 82.4 L 94.7 87.7 L 94 87.7 L 92.4 83.4 L 90.7 87.7 L 90 87.7 L 88.1 82.4 L 88.7 82.4 L 90.4 86.9 L 92.1 82.4 L 92.7 82.4 L 94.4 86.9 L 96 82.4 L 96.7 82.4 Z M 102.6 84.6 C 102.62 84.63 102.6 87.7 102.6 87.7 L 101.9 87.7 C 101.9 87.7 101.91 84.7 101.9 84.7 C 101.9 83.6 101.3 83 100.3 83 C 99.2 83 98.5 83.7 98.5 84.9 C 98.49 84.92 98.5 87.7 98.5 87.7 L 97.8 87.7 L 97.8 80.3 L 98.5 80.3 C 98.5 80.3 98.49 83.34 98.5 83.3 C 98.9 82.7 99.6 82.4 100.5 82.4 C 101.7 82.4 102.6 83.1 102.6 84.6 Z M 109.1 85.3 C 109.1 85.3 104.7 85.3 104.7 85.3 C 104.8 86.4 105.6 87.1 106.8 87.1 C 107.4 87.1 108 86.9 108.4 86.4 C 108.4 86.4 108.8 86.9 108.8 86.9 C 108.3 87.4 107.6 87.7 106.8 87.7 C 105.1 87.7 104 86.6 104 85 C 104 83.5 105.1 82.4 106.6 82.4 C 108.1 82.4 109.1 83.5 109.1 85 C 109.1 85.1 109.1 85.2 109.1 85.3 Z M 104.7 84.7 C 104.7 84.7 108.4 84.7 108.4 84.7 C 108.4 83.7 107.6 83 106.6 83 C 105.5 83 104.8 83.7 104.7 84.7 Z M 115.4 84.6 C 115.36 84.63 115.4 87.7 115.4 87.7 L 114.7 87.7 C 114.7 87.7 114.65 84.7 114.7 84.7 C 114.7 83.6 114.1 83 113.1 83 C 111.9 83 111.2 83.7 111.2 84.9 C 111.23 84.92 111.2 87.7 111.2 87.7 L 110.5 87.7 L 110.5 82.4 L 111.2 82.4 C 111.2 82.4 111.2 83.39 111.2 83.4 C 111.6 82.7 112.3 82.4 113.2 82.4 C 114.5 82.4 115.4 83.1 115.4 84.6 Z M 122.7 87.4 C 122.4 87.6 122 87.7 121.6 87.7 C 120.6 87.7 120 87.2 120 86.2 C 120.03 86.2 120 83 120 83 L 119.1 83 L 119.1 82.4 L 120 82.4 L 120 81.3 L 120.7 81.3 L 120.7 82.4 L 122.3 82.4 L 122.3 83 L 120.7 83 C 120.7 83 120.74 86.16 120.7 86.2 C 120.7 86.8 121.1 87.1 121.7 87.1 C 121.9 87.1 122.2 87 122.4 86.9 C 122.4 86.9 122.7 87.4 122.7 87.4 Z M 128.7 84.6 C 128.71 84.63 128.7 87.7 128.7 87.7 L 128 87.7 C 128 87.7 128 84.7 128 84.7 C 128 83.6 127.4 83 126.4 83 C 125.3 83 124.6 83.7 124.6 84.9 C 124.58 84.92 124.6 87.7 124.6 87.7 L 123.9 87.7 L 123.9 80.3 L 124.6 80.3 C 124.6 80.3 124.58 83.34 124.6 83.3 C 125 82.7 125.7 82.4 126.6 82.4 C 127.8 82.4 128.7 83.1 128.7 84.6 Z M 135.2 85.3 C 135.2 85.3 130.8 85.3 130.8 85.3 C 130.9 86.4 131.7 87.1 132.9 87.1 C 133.5 87.1 134.1 86.9 134.5 86.4 C 134.5 86.4 134.9 86.9 134.9 86.9 C 134.4 87.4 133.7 87.7 132.9 87.7 C 131.2 87.7 130.1 86.6 130.1 85 C 130.1 83.5 131.2 82.4 132.7 82.4 C 134.1 82.4 135.2 83.5 135.2 85 C 135.2 85.1 135.2 85.2 135.2 85.3 Z M 130.8 84.7 C 130.8 84.7 134.5 84.7 134.5 84.7 C 134.4 83.7 133.7 83 132.7 83 C 131.6 83 130.9 83.7 130.8 84.7 Z M 139.3 82.4 C 139.3 82.4 139.3 83.1 139.3 83.1 C 139.2 83.1 139.1 83.1 139.1 83.1 C 138 83.1 137.3 83.8 137.3 85 C 137.33 85 137.3 87.7 137.3 87.7 L 136.6 87.7 L 136.6 82.4 L 137.3 82.4 C 137.3 82.4 137.3 83.45 137.3 83.4 C 137.6 82.7 138.3 82.4 139.3 82.4 Z M 145 85.3 C 145 85.3 140.6 85.3 140.6 85.3 C 140.7 86.4 141.5 87.1 142.7 87.1 C 143.3 87.1 143.9 86.9 144.3 86.4 C 144.3 86.4 144.7 86.9 144.7 86.9 C 144.2 87.4 143.5 87.7 142.7 87.7 C 141 87.7 139.9 86.6 139.9 85 C 139.9 83.5 141 82.4 142.5 82.4 C 144 82.4 145 83.5 145 85 C 145 85.1 145 85.2 145 85.3 Z M 140.6 84.7 C 140.6 84.7 144.3 84.7 144.3 84.7 C 144.3 83.7 143.5 83 142.5 83 C 141.4 83 140.7 83.7 140.6 84.7 Z M 153.1 84.4 C 153.06 84.42 153.1 87.7 153.1 87.7 L 152.4 87.7 C 152.4 87.7 152.38 86.86 152.4 86.9 C 152.1 87.4 151.4 87.7 150.6 87.7 C 149.4 87.7 148.7 87.1 148.7 86.2 C 148.7 85.4 149.2 84.7 150.7 84.7 C 150.68 84.71 152.4 84.7 152.4 84.7 C 152.4 84.7 152.35 84.39 152.4 84.4 C 152.4 83.5 151.8 83 150.9 83 C 150.2 83 149.5 83.2 149.1 83.6 C 149.1 83.6 148.8 83.1 148.8 83.1 C 149.3 82.6 150.1 82.4 150.9 82.4 C 152.3 82.4 153.1 83.1 153.1 84.4 Z M 152.4 86.1 C 152.35 86.1 152.4 85.2 152.4 85.2 C 152.4 85.2 150.7 85.24 150.7 85.2 C 149.7 85.2 149.3 85.6 149.3 86.2 C 149.3 86.8 149.8 87.2 150.7 87.2 C 151.5 87.2 152.1 86.8 152.4 86.1 Z M 157.5 82.4 C 157.5 82.4 157.5 83.1 157.5 83.1 C 157.5 83.1 157.4 83.1 157.4 83.1 C 156.3 83.1 155.6 83.8 155.6 85 C 155.58 85 155.6 87.7 155.6 87.7 L 154.9 87.7 L 154.9 82.4 L 155.6 82.4 C 155.6 82.4 155.55 83.45 155.6 83.4 C 155.9 82.7 156.6 82.4 157.5 82.4 Z M 163.3 85.3 C 163.3 85.3 158.9 85.3 158.9 85.3 C 158.9 86.4 159.8 87.1 160.9 87.1 C 161.6 87.1 162.1 86.9 162.5 86.4 C 162.5 86.4 162.9 86.9 162.9 86.9 C 162.5 87.4 161.7 87.7 160.9 87.7 C 159.3 87.7 158.2 86.6 158.2 85 C 158.2 83.5 159.2 82.4 160.7 82.4 C 162.2 82.4 163.3 83.5 163.3 85 C 163.3 85.1 163.3 85.2 163.3 85.3 Z M 158.9 84.7 C 158.9 84.7 162.6 84.7 162.6 84.7 C 162.5 83.7 161.8 83 160.7 83 C 159.7 83 159 83.7 158.9 84.7 Z M 172.2 84.6 C 172.18 84.63 172.2 87.7 172.2 87.7 L 171.5 87.7 C 171.5 87.7 171.48 84.7 171.5 84.7 C 171.5 83.6 170.9 83 169.9 83 C 168.8 83 168.1 83.7 168.1 84.9 C 168.05 84.92 168.1 87.7 168.1 87.7 L 167.3 87.7 L 167.3 82.4 L 168 82.4 C 168 82.4 168.03 83.39 168 83.4 C 168.4 82.7 169.1 82.4 170 82.4 C 171.3 82.4 172.2 83.1 172.2 84.6 Z M 173.6 85 C 173.6 83.5 174.7 82.4 176.2 82.4 C 177.8 82.4 178.9 83.5 178.9 85 C 178.9 86.6 177.8 87.7 176.2 87.7 C 174.7 87.7 173.6 86.6 173.6 85 Z M 178.2 85 C 178.2 83.8 177.4 83 176.2 83 C 175.1 83 174.3 83.8 174.3 85 C 174.3 86.3 175.1 87.1 176.2 87.1 C 177.4 87.1 178.2 86.3 178.2 85 Z M 183.1 87.4 C 182.8 87.6 182.4 87.7 182 87.7 C 181 87.7 180.4 87.2 180.4 86.2 C 180.43 86.2 180.4 83 180.4 83 L 179.5 83 L 179.5 82.4 L 180.4 82.4 L 180.4 81.3 L 181.1 81.3 L 181.1 82.4 L 182.7 82.4 L 182.7 83 L 181.1 83 C 181.1 83 181.13 86.16 181.1 86.2 C 181.1 86.8 181.5 87.1 182 87.1 C 182.3 87.1 182.6 87 182.8 86.9 C 182.8 86.9 183.1 87.4 183.1 87.4 Z M 191.6 85.3 C 191.6 85.3 187.2 85.3 187.2 85.3 C 187.2 86.4 188.1 87.1 189.2 87.1 C 189.9 87.1 190.4 86.9 190.8 86.4 C 190.8 86.4 191.2 86.9 191.2 86.9 C 190.8 87.4 190 87.7 189.2 87.7 C 187.6 87.7 186.5 86.6 186.5 85 C 186.5 83.5 187.5 82.4 189 82.4 C 190.5 82.4 191.6 83.5 191.6 85 C 191.6 85.1 191.6 85.2 191.6 85.3 Z M 187.2 84.7 C 187.2 84.7 190.9 84.7 190.9 84.7 C 190.8 83.7 190.1 83 189 83 C 188 83 187.3 83.7 187.2 84.7 Z M 197.8 84.6 C 197.82 84.63 197.8 87.7 197.8 87.7 L 197.1 87.7 C 197.1 87.7 197.11 84.7 197.1 84.7 C 197.1 83.6 196.5 83 195.5 83 C 194.4 83 193.7 83.7 193.7 84.9 C 193.69 84.92 193.7 87.7 193.7 87.7 L 193 87.7 L 193 82.4 L 193.7 82.4 C 193.7 82.4 193.66 83.39 193.7 83.4 C 194 82.7 194.7 82.4 195.7 82.4 C 196.9 82.4 197.8 83.1 197.8 84.6 Z M 199.2 85 C 199.2 83.5 200.3 82.4 201.9 82.4 C 203.4 82.4 204.6 83.5 204.6 85 C 204.6 86.6 203.4 87.7 201.9 87.7 C 200.3 87.7 199.2 86.6 199.2 85 Z M 203.8 85 C 203.8 83.8 203 83 201.9 83 C 200.8 83 199.9 83.8 199.9 85 C 199.9 86.3 200.8 87.1 201.9 87.1 C 203 87.1 203.8 86.3 203.8 85 Z M 210.7 82.4 L 210.7 87.7 L 210 87.7 C 210 87.7 210.03 86.72 210 86.7 C 209.7 87.4 209 87.7 208.1 87.7 C 206.8 87.7 205.9 87 205.9 85.5 C 205.92 85.47 205.9 82.4 205.9 82.4 L 206.6 82.4 C 206.6 82.4 206.63 85.4 206.6 85.4 C 206.6 86.5 207.2 87.1 208.2 87.1 C 209.3 87.1 210 86.4 210 85.2 C 210 85.18 210 82.4 210 82.4 L 210.7 82.4 Z M 217.5 82.4 C 217.5 82.4 217.54 87.04 217.5 87 C 217.5 88.9 216.6 89.7 214.9 89.7 C 213.9 89.7 213 89.4 212.5 88.9 C 212.5 88.9 212.8 88.3 212.8 88.3 C 213.3 88.8 214.1 89 214.9 89 C 216.2 89 216.8 88.4 216.8 87.1 C 216.8 87.1 216.8 86.5 216.8 86.5 C 216.4 87.1 215.6 87.5 214.8 87.5 C 213.3 87.5 212.1 86.4 212.1 84.9 C 212.1 83.4 213.3 82.4 214.8 82.4 C 215.7 82.4 216.4 82.7 216.9 83.4 C 216.86 83.43 216.9 82.4 216.9 82.4 L 217.5 82.4 Z M 216.8 84.9 C 216.8 83.8 216 83 214.8 83 C 213.7 83 212.9 83.8 212.9 84.9 C 212.9 86.1 213.7 86.9 214.8 86.9 C 216 86.9 216.8 86.1 216.8 84.9 Z M 224.2 84.6 C 224.24 84.63 224.2 87.7 224.2 87.7 L 223.5 87.7 C 223.5 87.7 223.53 84.7 223.5 84.7 C 223.5 83.6 222.9 83 221.9 83 C 220.8 83 220.1 83.7 220.1 84.9 C 220.11 84.92 220.1 87.7 220.1 87.7 L 219.4 87.7 L 219.4 80.3 L 220.1 80.3 C 220.1 80.3 220.11 83.34 220.1 83.3 C 220.5 82.7 221.2 82.4 222.1 82.4 C 223.4 82.4 224.2 83.1 224.2 84.6 Z M 234.1 85 C 234.1 86.6 233 87.7 231.5 87.7 C 230.6 87.7 229.9 87.3 229.5 86.6 C 229.47 86.64 229.5 87.7 229.5 87.7 L 228.8 87.7 L 228.8 80.3 L 229.5 80.3 C 229.5 80.3 229.5 83.42 229.5 83.4 C 229.9 82.7 230.7 82.4 231.5 82.4 C 233 82.4 234.1 83.5 234.1 85 Z M 233.4 85 C 233.4 83.8 232.6 83 231.4 83 C 230.3 83 229.5 83.8 229.5 85 C 229.5 86.3 230.3 87.1 231.4 87.1 C 232.6 87.1 233.4 86.3 233.4 85 Z M 238.2 82.4 C 238.2 82.4 238.2 83.1 238.2 83.1 C 238.2 83.1 238.1 83.1 238 83.1 C 236.9 83.1 236.3 83.8 236.3 85 C 236.27 85 236.3 87.7 236.3 87.7 L 235.6 87.7 L 235.6 82.4 L 236.2 82.4 C 236.2 82.4 236.24 83.45 236.2 83.4 C 236.6 82.7 237.2 82.4 238.2 82.4 Z M 244 85.3 C 244 85.3 239.6 85.3 239.6 85.3 C 239.6 86.4 240.5 87.1 241.6 87.1 C 242.3 87.1 242.8 86.9 243.2 86.4 C 243.2 86.4 243.6 86.9 243.6 86.9 C 243.2 87.4 242.4 87.7 241.6 87.7 C 240 87.7 238.8 86.6 238.8 85 C 238.8 83.5 239.9 82.4 241.4 82.4 C 242.9 82.4 244 83.5 244 85 C 244 85.1 244 85.2 244 85.3 Z M 239.6 84.7 C 239.6 84.7 243.3 84.7 243.3 84.7 C 243.2 83.7 242.4 83 241.4 83 C 240.4 83 239.6 83.7 239.6 84.7 Z M 249.3 84.4 C 249.34 84.42 249.3 87.7 249.3 87.7 L 248.7 87.7 C 248.7 87.7 248.66 86.86 248.7 86.9 C 248.3 87.4 247.7 87.7 246.9 87.7 C 245.7 87.7 244.9 87.1 244.9 86.2 C 244.9 85.4 245.5 84.7 247 84.7 C 246.96 84.71 248.6 84.7 248.6 84.7 C 248.6 84.7 248.63 84.39 248.6 84.4 C 248.6 83.5 248.1 83 247.1 83 C 246.5 83 245.8 83.2 245.4 83.6 C 245.4 83.6 245.1 83.1 245.1 83.1 C 245.6 82.6 246.4 82.4 247.2 82.4 C 248.6 82.4 249.3 83.1 249.3 84.4 Z M 248.6 86.1 C 248.63 86.1 248.6 85.2 248.6 85.2 C 248.6 85.2 246.98 85.24 247 85.2 C 246 85.2 245.6 85.6 245.6 86.2 C 245.6 86.8 246.1 87.2 247 87.2 C 247.8 87.2 248.4 86.8 248.6 86.1 Z M 253.1 85 L 251.9 86.2 L 251.9 87.7 L 251.2 87.7 L 251.2 80.3 L 251.9 80.3 L 251.9 85.3 L 255 82.4 L 255.9 82.4 L 253.6 84.6 L 256.1 87.7 L 255.2 87.7 L 253.1 85 Z M 256.7 87.1 C 256.7 87.1 257 86.5 257 86.5 C 257.4 86.9 258.1 87.1 258.8 87.1 C 259.8 87.1 260.3 86.8 260.3 86.3 C 260.3 84.9 256.8 86 256.8 83.9 C 256.8 83 257.6 82.4 258.9 82.4 C 259.6 82.4 260.3 82.6 260.8 82.9 C 260.8 82.9 260.5 83.4 260.5 83.4 C 260 83.1 259.5 83 258.9 83 C 258 83 257.5 83.4 257.5 83.9 C 257.5 85.3 261 84.2 261 86.2 C 261 87.1 260.2 87.7 258.8 87.7 C 257.9 87.7 257.1 87.4 256.7 87.1 Z M 269.7 84.6 C 269.73 84.63 269.7 87.7 269.7 87.7 L 269 87.7 C 269 87.7 269.02 84.7 269 84.7 C 269 83.6 268.4 83 267.4 83 C 266.3 83 265.6 83.7 265.6 84.9 C 265.6 84.92 265.6 87.7 265.6 87.7 L 264.9 87.7 L 264.9 82.4 L 265.6 82.4 C 265.6 82.4 265.57 83.39 265.6 83.4 C 265.9 82.7 266.7 82.4 267.6 82.4 C 268.9 82.4 269.7 83.1 269.7 84.6 Z M 271.4 80.8 C 271.4 80.5 271.6 80.3 271.9 80.3 C 272.2 80.3 272.4 80.5 272.4 80.7 C 272.4 81 272.2 81.3 271.9 81.3 C 271.6 81.3 271.4 81 271.4 80.8 Z M 271.5 82.4 L 272.2 82.4 L 272.2 87.7 L 271.5 87.7 L 271.5 82.4 Z M 279 82.4 C 279 82.4 279 87.04 279 87 C 279 88.9 278.1 89.7 276.4 89.7 C 275.4 89.7 274.5 89.4 273.9 88.9 C 273.9 88.9 274.3 88.3 274.3 88.3 C 274.8 88.8 275.5 89 276.3 89 C 277.7 89 278.3 88.4 278.3 87.1 C 278.3 87.1 278.3 86.5 278.3 86.5 C 277.8 87.1 277.1 87.5 276.2 87.5 C 274.7 87.5 273.6 86.4 273.6 84.9 C 273.6 83.4 274.7 82.4 276.2 82.4 C 277.1 82.4 277.9 82.7 278.3 83.4 C 278.32 83.43 278.3 82.4 278.3 82.4 L 279 82.4 Z M 278.3 84.9 C 278.3 83.8 277.5 83 276.3 83 C 275.1 83 274.3 83.8 274.3 84.9 C 274.3 86.1 275.1 86.9 276.3 86.9 C 277.5 86.9 278.3 86.1 278.3 84.9 Z M 285.7 84.6 C 285.7 84.63 285.7 87.7 285.7 87.7 L 285 87.7 C 285 87.7 284.99 84.7 285 84.7 C 285 83.6 284.4 83 283.4 83 C 282.3 83 281.6 83.7 281.6 84.9 C 281.57 84.92 281.6 87.7 281.6 87.7 L 280.9 87.7 L 280.9 80.3 L 281.6 80.3 C 281.6 80.3 281.57 83.34 281.6 83.3 C 282 82.7 282.6 82.4 283.5 82.4 C 284.8 82.4 285.7 83.1 285.7 84.6 Z M 290.2 87.4 C 289.9 87.6 289.5 87.7 289.1 87.7 C 288.1 87.7 287.6 87.2 287.6 86.2 C 287.58 86.2 287.6 83 287.6 83 L 286.6 83 L 286.6 82.4 L 287.6 82.4 L 287.6 81.3 L 288.3 81.3 L 288.3 82.4 L 289.9 82.4 L 289.9 83 L 288.3 83 C 288.3 83 288.29 86.16 288.3 86.2 C 288.3 86.8 288.6 87.1 289.2 87.1 C 289.5 87.1 289.8 87 290 86.9 C 290 86.9 290.2 87.4 290.2 87.4 Z M 293.4 87.1 C 293.4 87.1 293.7 86.5 293.7 86.5 C 294.1 86.9 294.9 87.1 295.6 87.1 C 296.6 87.1 297 86.8 297 86.3 C 297 84.9 293.6 86 293.6 83.9 C 293.6 83 294.3 82.4 295.7 82.4 C 296.4 82.4 297.1 82.6 297.5 82.9 C 297.5 82.9 297.2 83.4 297.2 83.4 C 296.8 83.1 296.2 83 295.7 83 C 294.7 83 294.3 83.4 294.3 83.9 C 294.3 85.3 297.7 84.2 297.7 86.2 C 297.7 87.1 296.9 87.7 295.5 87.7 C 294.7 87.7 293.8 87.4 293.4 87.1 Z M 303.9 84.6 C 303.87 84.63 303.9 87.7 303.9 87.7 L 303.2 87.7 C 303.2 87.7 303.16 84.7 303.2 84.7 C 303.2 83.6 302.6 83 301.6 83 C 300.5 83 299.7 83.7 299.7 84.9 C 299.74 84.92 299.7 87.7 299.7 87.7 L 299 87.7 L 299 80.3 L 299.7 80.3 C 299.7 80.3 299.74 83.34 299.7 83.3 C 300.1 82.7 300.8 82.4 301.7 82.4 C 303 82.4 303.9 83.1 303.9 84.6 Z M 305.5 80.8 C 305.5 80.5 305.7 80.3 306 80.3 C 306.3 80.3 306.5 80.5 306.5 80.7 C 306.5 81 306.3 81.3 306 81.3 C 305.7 81.3 305.5 81 305.5 80.8 Z M 305.7 82.4 L 306.4 82.4 L 306.4 87.7 L 305.7 87.7 L 305.7 82.4 Z M 309.1 81.8 C 309.11 81.8 309.1 82.4 309.1 82.4 L 310.7 82.4 L 310.7 83 L 309.1 83 L 309.1 87.7 L 308.4 87.7 L 308.4 83 L 307.5 83 L 307.5 82.4 L 308.4 82.4 C 308.4 82.4 308.42 81.77 308.4 81.8 C 308.4 80.8 309 80.2 310 80.2 C 310.4 80.2 310.8 80.3 311.1 80.5 C 311.1 80.5 310.8 81.1 310.8 81.1 C 310.6 80.9 310.3 80.8 310 80.8 C 309.4 80.8 309.1 81.1 309.1 81.8 Z M 314.9 87.4 C 314.6 87.6 314.2 87.7 313.8 87.7 C 312.8 87.7 312.3 87.2 312.3 86.2 C 312.27 86.2 312.3 83 312.3 83 L 311.3 83 L 311.3 82.4 L 312.3 82.4 L 312.3 81.3 L 313 81.3 L 313 82.4 L 314.6 82.4 L 314.6 83 L 313 83 C 313 83 312.97 86.16 313 86.2 C 313 86.8 313.3 87.1 313.9 87.1 C 314.2 87.1 314.5 87 314.7 86.9 C 314.7 86.9 314.9 87.4 314.9 87.4 Z M 315.9 87.2 C 315.9 86.9 316.1 86.6 316.4 86.6 C 316.7 86.6 317 86.9 317 87.2 C 317 87.5 316.7 87.7 316.4 87.7 C 316.1 87.7 315.9 87.5 315.9 87.2 Z " stroke="none" fill="#323132"/>
  </g>
  <g id="Polygon122995">
    <path d="M 20.4 85 L 16.2 87.1 L 16.2 82.9 L 20.4 85 Z " stroke="none" fill="#a243ff"/>
  </g>
  <g id="Polygon122994">
    <path d="M 34.8 66.4 C 34.5 66.6 34.1 66.7 33.6 66.7 C 32.7 66.7 32.1 66.2 32.1 65.2 C 32.11 65.2 32.1 62 32.1 62 L 31.2 62 L 31.2 61.4 L 32.1 61.4 L 32.1 60.3 L 32.8 60.3 L 32.8 61.4 L 34.4 61.4 L 34.4 62 L 32.8 62 C 32.8 62 32.82 65.16 32.8 65.2 C 32.8 65.8 33.1 66.1 33.7 66.1 C 34 66.1 34.3 66 34.5 65.9 C 34.5 65.9 34.8 66.4 34.8 66.4 Z M 35.3 64 C 35.3 62.5 36.5 61.4 38 61.4 C 39.5 61.4 40.7 62.5 40.7 64 C 40.7 65.6 39.5 66.7 38 66.7 C 36.5 66.7 35.3 65.6 35.3 64 Z M 39.9 64 C 39.9 62.8 39.1 62 38 62 C 36.9 62 36 62.8 36 64 C 36 65.3 36.9 66.1 38 66.1 C 39.1 66.1 39.9 65.3 39.9 64 Z M 44.6 59.8 C 44.6 59.5 44.8 59.3 45.1 59.3 C 45.4 59.3 45.6 59.5 45.6 59.7 C 45.6 60 45.4 60.3 45.1 60.3 C 44.8 60.3 44.6 60 44.6 59.8 Z M 44.7 61.4 L 45.4 61.4 L 45.4 66.7 L 44.7 66.7 L 44.7 61.4 Z M 52.1 63.6 C 52.12 63.63 52.1 66.7 52.1 66.7 L 51.4 66.7 C 51.4 66.7 51.41 63.7 51.4 63.7 C 51.4 62.6 50.8 62 49.8 62 C 48.7 62 48 62.7 48 63.9 C 47.99 63.92 48 66.7 48 66.7 L 47.3 66.7 L 47.3 61.4 L 48 61.4 C 48 61.4 47.96 62.39 48 62.4 C 48.3 61.7 49.1 61.4 50 61.4 C 51.2 61.4 52.1 62.1 52.1 63.6 Z M 53.5 64 C 53.5 62.5 54.6 61.4 56.2 61.4 C 57.1 61.4 57.9 61.7 58.3 62.4 C 58.3 62.4 57.7 62.8 57.7 62.8 C 57.4 62.2 56.8 62 56.2 62 C 55.1 62 54.2 62.8 54.2 64 C 54.2 65.3 55.1 66.1 56.2 66.1 C 56.8 66.1 57.4 65.9 57.7 65.3 C 57.7 65.3 58.3 65.7 58.3 65.7 C 57.9 66.4 57.1 66.7 56.2 66.7 C 54.6 66.7 53.5 65.6 53.5 64 Z M 62.2 61.4 C 62.2 61.4 62.2 62.1 62.2 62.1 C 62.2 62.1 62.1 62.1 62.1 62.1 C 61 62.1 60.3 62.8 60.3 64 C 60.3 64 60.3 66.7 60.3 66.7 L 59.6 66.7 L 59.6 61.4 L 60.3 61.4 C 60.3 61.4 60.27 62.45 60.3 62.4 C 60.6 61.7 61.3 61.4 62.2 61.4 Z M 68 64.3 C 68 64.3 63.6 64.3 63.6 64.3 C 63.7 65.4 64.5 66.1 65.7 66.1 C 66.3 66.1 66.9 65.9 67.3 65.4 C 67.3 65.4 67.7 65.9 67.7 65.9 C 67.2 66.4 66.5 66.7 65.6 66.7 C 64 66.7 62.9 65.6 62.9 64 C 62.9 62.5 64 61.4 65.4 61.4 C 66.9 61.4 68 62.5 68 64 C 68 64.1 68 64.2 68 64.3 Z M 63.6 63.7 C 63.6 63.7 67.3 63.7 67.3 63.7 C 67.2 62.7 66.5 62 65.4 62 C 64.4 62 63.7 62.7 63.6 63.7 Z M 73.4 63.4 C 73.37 63.42 73.4 66.7 73.4 66.7 L 72.7 66.7 C 72.7 66.7 72.69 65.86 72.7 65.9 C 72.4 66.4 71.8 66.7 70.9 66.7 C 69.7 66.7 69 66.1 69 65.2 C 69 64.4 69.5 63.7 71 63.7 C 70.99 63.71 72.7 63.7 72.7 63.7 C 72.7 63.7 72.66 63.39 72.7 63.4 C 72.7 62.5 72.2 62 71.2 62 C 70.5 62 69.9 62.2 69.4 62.6 C 69.4 62.6 69.1 62.1 69.1 62.1 C 69.6 61.6 70.4 61.4 71.2 61.4 C 72.6 61.4 73.4 62.1 73.4 63.4 Z M 72.7 65.1 C 72.66 65.1 72.7 64.2 72.7 64.2 C 72.7 64.2 71.01 64.24 71 64.2 C 70 64.2 69.7 64.6 69.7 65.2 C 69.7 65.8 70.2 66.2 71 66.2 C 71.8 66.2 72.4 65.8 72.7 65.1 Z M 74.6 66.1 C 74.6 66.1 74.9 65.5 74.9 65.5 C 75.3 65.9 76 66.1 76.8 66.1 C 77.8 66.1 78.2 65.8 78.2 65.3 C 78.2 63.9 74.8 65 74.8 62.9 C 74.8 62 75.5 61.4 76.9 61.4 C 77.5 61.4 78.3 61.6 78.7 61.9 C 78.7 61.9 78.4 62.4 78.4 62.4 C 77.9 62.1 77.4 62 76.9 62 C 75.9 62 75.5 62.4 75.5 62.9 C 75.5 64.3 78.9 63.2 78.9 65.2 C 78.9 66.1 78.1 66.7 76.7 66.7 C 75.9 66.7 75 66.4 74.6 66.1 Z M 84.9 64.3 C 84.9 64.3 80.5 64.3 80.5 64.3 C 80.6 65.4 81.4 66.1 82.6 66.1 C 83.2 66.1 83.8 65.9 84.2 65.4 C 84.2 65.4 84.6 65.9 84.6 65.9 C 84.1 66.4 83.4 66.7 82.5 66.7 C 80.9 66.7 79.8 65.6 79.8 64 C 79.8 62.5 80.9 61.4 82.3 61.4 C 83.8 61.4 84.9 62.5 84.9 64 C 84.9 64.1 84.9 64.2 84.9 64.3 Z M 80.5 63.7 C 80.5 63.7 84.2 63.7 84.2 63.7 C 84.1 62.7 83.4 62 82.3 62 C 81.3 62 80.6 62.7 80.5 63.7 Z M 88.4 64 C 88.4 62.5 89.6 61.4 91.1 61.4 C 92.7 61.4 93.8 62.5 93.8 64 C 93.8 65.6 92.7 66.7 91.1 66.7 C 89.6 66.7 88.4 65.6 88.4 64 Z M 93.1 64 C 93.1 62.8 92.2 62 91.1 62 C 90 62 89.2 62.8 89.2 64 C 89.2 65.3 90 66.1 91.1 66.1 C 92.2 66.1 93.1 65.3 93.1 64 Z M 99.6 61.4 L 97.2 66.7 L 96.5 66.7 L 94.2 61.4 L 94.9 61.4 L 96.9 65.9 L 98.9 61.4 L 99.6 61.4 Z M 105.1 64.3 C 105.1 64.3 100.7 64.3 100.7 64.3 C 100.7 65.4 101.6 66.1 102.7 66.1 C 103.4 66.1 103.9 65.9 104.3 65.4 C 104.3 65.4 104.7 65.9 104.7 65.9 C 104.3 66.4 103.5 66.7 102.7 66.7 C 101.1 66.7 100 65.6 100 64 C 100 62.5 101 61.4 102.5 61.4 C 104 61.4 105.1 62.5 105.1 64 C 105.1 64.1 105.1 64.2 105.1 64.3 Z M 100.7 63.7 C 100.7 63.7 104.4 63.7 104.4 63.7 C 104.3 62.7 103.6 62 102.5 62 C 101.5 62 100.8 62.7 100.7 63.7 Z M 109.1 61.4 C 109.1 61.4 109.1 62.1 109.1 62.1 C 109.1 62.1 109 62.1 109 62.1 C 107.9 62.1 107.2 62.8 107.2 64 C 107.19 64 107.2 66.7 107.2 66.7 L 106.5 66.7 L 106.5 61.4 L 107.2 61.4 C 107.2 61.4 107.16 62.45 107.2 62.4 C 107.5 61.7 108.2 61.4 109.1 61.4 Z M 112.4 66.1 C 112.4 66.1 112.7 65.5 112.7 65.5 C 113.1 65.9 113.8 66.1 114.6 66.1 C 115.6 66.1 116 65.8 116 65.3 C 116 63.9 112.6 65 112.6 62.9 C 112.6 62 113.3 61.4 114.7 61.4 C 115.3 61.4 116.1 61.6 116.5 61.9 C 116.5 61.9 116.2 62.4 116.2 62.4 C 115.7 62.1 115.2 62 114.7 62 C 113.7 62 113.3 62.4 113.3 62.9 C 113.3 64.3 116.7 63.2 116.7 65.2 C 116.7 66.1 115.9 66.7 114.5 66.7 C 113.7 66.7 112.8 66.4 112.4 66.1 Z M 122.7 61.4 L 122.7 66.7 L 122 66.7 C 122 66.7 122.03 65.72 122 65.7 C 121.7 66.4 121 66.7 120.1 66.7 C 118.8 66.7 117.9 66 117.9 64.5 C 117.92 64.47 117.9 61.4 117.9 61.4 L 118.6 61.4 C 118.6 61.4 118.62 64.4 118.6 64.4 C 118.6 65.5 119.2 66.1 120.2 66.1 C 121.3 66.1 122 65.4 122 64.2 C 122 64.18 122 61.4 122 61.4 L 122.7 61.4 Z M 124.2 64 C 124.2 62.5 125.3 61.4 126.9 61.4 C 127.8 61.4 128.5 61.7 128.9 62.4 C 128.9 62.4 128.4 62.8 128.4 62.8 C 128 62.2 127.5 62 126.9 62 C 125.7 62 124.9 62.8 124.9 64 C 124.9 65.3 125.7 66.1 126.9 66.1 C 127.5 66.1 128 65.9 128.4 65.3 C 128.4 65.3 128.9 65.7 128.9 65.7 C 128.5 66.4 127.8 66.7 126.9 66.7 C 125.3 66.7 124.2 65.6 124.2 64 Z M 129.7 64 C 129.7 62.5 130.8 61.4 132.4 61.4 C 133.3 61.4 134.1 61.7 134.5 62.4 C 134.5 62.4 133.9 62.8 133.9 62.8 C 133.6 62.2 133 62 132.4 62 C 131.3 62 130.4 62.8 130.4 64 C 130.4 65.3 131.3 66.1 132.4 66.1 C 133 66.1 133.6 65.9 133.9 65.3 C 133.9 65.3 134.5 65.7 134.5 65.7 C 134.1 66.4 133.3 66.7 132.4 66.7 C 130.8 66.7 129.7 65.6 129.7 64 Z M 140.4 64.3 C 140.4 64.3 136 64.3 136 64.3 C 136.1 65.4 136.9 66.1 138.1 66.1 C 138.7 66.1 139.3 65.9 139.7 65.4 C 139.7 65.4 140.1 65.9 140.1 65.9 C 139.6 66.4 138.9 66.7 138 66.7 C 136.4 66.7 135.3 65.6 135.3 64 C 135.3 62.5 136.4 61.4 137.9 61.4 C 139.3 61.4 140.4 62.5 140.4 64 C 140.4 64.1 140.4 64.2 140.4 64.3 Z M 136 63.7 C 136 63.7 139.7 63.7 139.7 63.7 C 139.6 62.7 138.9 62 137.9 62 C 136.8 62 136.1 62.7 136 63.7 Z M 141.2 66.1 C 141.2 66.1 141.5 65.5 141.5 65.5 C 141.9 65.9 142.7 66.1 143.4 66.1 C 144.4 66.1 144.8 65.8 144.8 65.3 C 144.8 63.9 141.4 65 141.4 62.9 C 141.4 62 142.1 61.4 143.5 61.4 C 144.2 61.4 144.9 61.6 145.3 61.9 C 145.3 61.9 145 62.4 145 62.4 C 144.6 62.1 144 62 143.5 62 C 142.5 62 142.1 62.4 142.1 62.9 C 142.1 64.3 145.5 63.2 145.5 65.2 C 145.5 66.1 144.7 66.7 143.3 66.7 C 142.5 66.7 141.6 66.4 141.2 66.1 Z M 146.3 66.1 C 146.3 66.1 146.6 65.5 146.6 65.5 C 147 65.9 147.7 66.1 148.4 66.1 C 149.4 66.1 149.9 65.8 149.9 65.3 C 149.9 63.9 146.4 65 146.4 62.9 C 146.4 62 147.2 61.4 148.5 61.4 C 149.2 61.4 149.9 61.6 150.4 61.9 C 150.4 61.9 150.1 62.4 150.1 62.4 C 149.6 62.1 149.1 62 148.5 62 C 147.6 62 147.2 62.4 147.2 62.9 C 147.2 64.3 150.6 63.2 150.6 65.2 C 150.6 66.1 149.8 66.7 148.4 66.7 C 147.5 66.7 146.7 66.4 146.3 66.1 Z M 151.7 59.8 C 151.7 59.5 151.9 59.3 152.2 59.3 C 152.5 59.3 152.7 59.5 152.7 59.7 C 152.7 60 152.5 60.3 152.2 60.3 C 151.9 60.3 151.7 60 151.7 59.8 Z M 151.9 61.4 L 152.6 61.4 L 152.6 66.7 L 151.9 66.7 L 151.9 61.4 Z M 159 61.4 L 156.7 66.7 L 155.9 66.7 L 153.6 61.4 L 154.4 61.4 L 156.3 65.9 L 158.3 61.4 L 159 61.4 Z M 164.5 64.3 C 164.5 64.3 160.1 64.3 160.1 64.3 C 160.2 65.4 161 66.1 162.2 66.1 C 162.8 66.1 163.4 65.9 163.8 65.4 C 163.8 65.4 164.2 65.9 164.2 65.9 C 163.7 66.4 163 66.7 162.2 66.7 C 160.5 66.7 159.4 65.6 159.4 64 C 159.4 62.5 160.5 61.4 162 61.4 C 163.5 61.4 164.5 62.5 164.5 64 C 164.5 64.1 164.5 64.2 164.5 64.3 Z M 160.1 63.7 C 160.1 63.7 163.8 63.7 163.8 63.7 C 163.8 62.7 163 62 162 62 C 161 62 160.2 62.7 160.1 63.7 Z M 167.9 66.1 C 167.9 66.1 168.2 65.5 168.2 65.5 C 168.6 65.9 169.3 66.1 170.1 66.1 C 171.1 66.1 171.5 65.8 171.5 65.3 C 171.5 63.9 168.1 65 168.1 62.9 C 168.1 62 168.8 61.4 170.1 61.4 C 170.8 61.4 171.6 61.6 172 61.9 C 172 61.9 171.7 62.4 171.7 62.4 C 171.2 62.1 170.7 62 170.1 62 C 169.2 62 168.8 62.4 168.8 62.9 C 168.8 64.3 172.2 63.2 172.2 65.2 C 172.2 66.1 171.4 66.7 170 66.7 C 169.1 66.7 168.3 66.4 167.9 66.1 Z M 178.3 63.6 C 178.32 63.63 178.3 66.7 178.3 66.7 L 177.6 66.7 C 177.6 66.7 177.61 63.7 177.6 63.7 C 177.6 62.6 177 62 176 62 C 174.9 62 174.2 62.7 174.2 63.9 C 174.19 63.92 174.2 66.7 174.2 66.7 L 173.5 66.7 L 173.5 59.3 L 174.2 59.3 C 174.2 59.3 174.19 62.34 174.2 62.3 C 174.6 61.7 175.3 61.4 176.2 61.4 C 177.4 61.4 178.3 62.1 178.3 63.6 Z M 179.9 59.8 C 179.9 59.5 180.2 59.3 180.5 59.3 C 180.8 59.3 181 59.5 181 59.7 C 181 60 180.8 60.3 180.5 60.3 C 180.2 60.3 179.9 60 179.9 59.8 Z M 180.1 61.4 L 180.8 61.4 L 180.8 66.7 L 180.1 66.7 L 180.1 61.4 Z M 183.6 60.8 C 183.56 60.8 183.6 61.4 183.6 61.4 L 185.2 61.4 L 185.2 62 L 183.6 62 L 183.6 66.7 L 182.9 66.7 L 182.9 62 L 181.9 62 L 181.9 61.4 L 182.9 61.4 C 182.9 61.4 182.87 60.77 182.9 60.8 C 182.9 59.8 183.4 59.2 184.5 59.2 C 184.9 59.2 185.3 59.3 185.5 59.5 C 185.5 59.5 185.3 60.1 185.3 60.1 C 185.1 59.9 184.8 59.8 184.5 59.8 C 183.9 59.8 183.6 60.1 183.6 60.8 Z M 189.4 66.4 C 189.1 66.6 188.7 66.7 188.3 66.7 C 187.3 66.7 186.7 66.2 186.7 65.2 C 186.72 65.2 186.7 62 186.7 62 L 185.8 62 L 185.8 61.4 L 186.7 61.4 L 186.7 60.3 L 187.4 60.3 L 187.4 61.4 L 189 61.4 L 189 62 L 187.4 62 C 187.4 62 187.43 65.16 187.4 65.2 C 187.4 65.8 187.7 66.1 188.3 66.1 C 188.6 66.1 188.9 66 189.1 65.9 C 189.1 65.9 189.4 66.4 189.4 66.4 Z M 190.2 66.1 C 190.2 66.1 190.5 65.5 190.5 65.5 C 190.9 65.9 191.6 66.1 192.3 66.1 C 193.3 66.1 193.8 65.8 193.8 65.3 C 193.8 63.9 190.3 65 190.3 62.9 C 190.3 62 191.1 61.4 192.4 61.4 C 193.1 61.4 193.8 61.6 194.3 61.9 C 194.3 61.9 194 62.4 194 62.4 C 193.5 62.1 193 62 192.4 62 C 191.5 62 191.1 62.4 191.1 62.9 C 191.1 64.3 194.5 63.2 194.5 65.2 C 194.5 66.1 193.7 66.7 192.3 66.7 C 191.4 66.7 190.6 66.4 190.2 66.1 Z M 196.6 66.2 C 196.6 66.3 196.6 66.5 196.5 66.8 C 196.5 66.76 196.1 68.1 196.1 68.1 L 195.6 68.1 C 195.6 68.1 195.94 66.69 195.9 66.7 C 195.7 66.6 195.6 66.4 195.6 66.2 C 195.6 65.9 195.8 65.6 196.1 65.6 C 196.4 65.6 196.6 65.9 196.6 66.2 Z M 205.3 64.3 C 205.3 64.3 200.9 64.3 200.9 64.3 C 201 65.4 201.9 66.1 203 66.1 C 203.7 66.1 204.2 65.9 204.6 65.4 C 204.6 65.4 205 65.9 205 65.9 C 204.6 66.4 203.8 66.7 203 66.7 C 201.4 66.7 200.2 65.6 200.2 64 C 200.2 62.5 201.3 61.4 202.8 61.4 C 204.3 61.4 205.4 62.5 205.4 64 C 205.4 64.1 205.3 64.2 205.3 64.3 Z M 200.9 63.7 C 200.9 63.7 204.7 63.7 204.7 63.7 C 204.6 62.7 203.8 62 202.8 62 C 201.8 62 201 62.7 200.9 63.7 Z M 206.2 66.1 C 206.2 66.1 206.5 65.5 206.5 65.5 C 206.9 65.9 207.6 66.1 208.3 66.1 C 209.3 66.1 209.8 65.8 209.8 65.3 C 209.8 63.9 206.3 65 206.3 62.9 C 206.3 62 207.1 61.4 208.4 61.4 C 209.1 61.4 209.8 61.6 210.3 61.9 C 210.3 61.9 210 62.4 210 62.4 C 209.5 62.1 209 62 208.4 62 C 207.5 62 207.1 62.4 207.1 62.9 C 207.1 64.3 210.5 63.2 210.5 65.2 C 210.5 66.1 209.7 66.7 208.3 66.7 C 207.4 66.7 206.6 66.4 206.2 66.1 Z M 217.1 64.1 C 217.1 65.7 216 66.7 214.5 66.7 C 213.6 66.7 212.9 66.4 212.5 65.7 C 212.48 65.69 212.5 68.6 212.5 68.6 L 211.8 68.6 L 211.8 61.4 L 212.5 61.4 C 212.5 61.4 212.45 62.46 212.5 62.5 C 212.9 61.8 213.6 61.4 214.5 61.4 C 216 61.4 217.1 62.5 217.1 64.1 Z M 216.4 64 C 216.4 62.8 215.5 62 214.4 62 C 213.3 62 212.5 62.8 212.5 64 C 212.5 65.3 213.3 66.1 214.4 66.1 C 215.5 66.1 216.4 65.3 216.4 64 Z M 223.2 64.3 C 223.2 64.3 218.8 64.3 218.8 64.3 C 218.9 65.4 219.7 66.1 220.9 66.1 C 221.5 66.1 222.1 65.9 222.5 65.4 C 222.5 65.4 222.9 65.9 222.9 65.9 C 222.4 66.4 221.7 66.7 220.9 66.7 C 219.2 66.7 218.1 65.6 218.1 64 C 218.1 62.5 219.2 61.4 220.7 61.4 C 222.2 61.4 223.2 62.5 223.2 64 C 223.2 64.1 223.2 64.2 223.2 64.3 Z M 218.8 63.7 C 218.8 63.7 222.6 63.7 222.6 63.7 C 222.5 62.7 221.7 62 220.7 62 C 219.7 62 218.9 62.7 218.8 63.7 Z M 224.2 64 C 224.2 62.5 225.4 61.4 226.9 61.4 C 227.8 61.4 228.6 61.7 229 62.4 C 229 62.4 228.5 62.8 228.5 62.8 C 228.1 62.2 227.6 62 226.9 62 C 225.8 62 225 62.8 225 64 C 225 65.3 225.8 66.1 226.9 66.1 C 227.6 66.1 228.1 65.9 228.5 65.3 C 228.5 65.3 229 65.7 229 65.7 C 228.6 66.4 227.8 66.7 226.9 66.7 C 225.4 66.7 224.2 65.6 224.2 64 Z M 230.1 59.8 C 230.1 59.5 230.4 59.3 230.7 59.3 C 230.9 59.3 231.2 59.5 231.2 59.7 C 231.2 60 231 60.3 230.7 60.3 C 230.4 60.3 230.1 60 230.1 59.8 Z M 230.3 61.4 L 231 61.4 L 231 66.7 L 230.3 66.7 L 230.3 61.4 Z M 236.9 63.4 C 236.88 63.42 236.9 66.7 236.9 66.7 L 236.2 66.7 C 236.2 66.7 236.2 65.86 236.2 65.9 C 235.9 66.4 235.3 66.7 234.4 66.7 C 233.2 66.7 232.5 66.1 232.5 65.2 C 232.5 64.4 233 63.7 234.5 63.7 C 234.5 63.71 236.2 63.7 236.2 63.7 C 236.2 63.7 236.17 63.39 236.2 63.4 C 236.2 62.5 235.7 62 234.7 62 C 234 62 233.4 62.2 232.9 62.6 C 232.9 62.6 232.6 62.1 232.6 62.1 C 233.1 61.6 233.9 61.4 234.8 61.4 C 236.1 61.4 236.9 62.1 236.9 63.4 Z M 236.2 65.1 C 236.17 65.1 236.2 64.2 236.2 64.2 C 236.2 64.2 234.52 64.24 234.5 64.2 C 233.5 64.2 233.2 64.6 233.2 65.2 C 233.2 65.8 233.7 66.2 234.5 66.2 C 235.3 66.2 235.9 65.8 236.2 65.1 Z M 238.7 59.3 L 239.4 59.3 L 239.4 66.7 L 238.7 66.7 L 238.7 59.3 Z M 241.2 59.3 L 242 59.3 L 242 66.7 L 241.2 66.7 L 241.2 59.3 Z M 248.4 61.4 C 248.4 61.4 245.76 67.31 245.8 67.3 C 245.3 68.3 244.8 68.7 244 68.7 C 243.5 68.7 243.1 68.5 242.7 68.2 C 242.7 68.2 243.1 67.7 243.1 67.7 C 243.3 67.9 243.6 68.1 244 68.1 C 244.5 68.1 244.8 67.8 245.1 67.2 C 245.11 67.18 245.3 66.7 245.3 66.7 L 243 61.4 L 243.7 61.4 L 245.7 65.9 L 247.7 61.4 L 248.4 61.4 Z M 251.9 59.8 C 251.9 59.5 252.1 59.3 252.4 59.3 C 252.7 59.3 252.9 59.5 252.9 59.7 C 252.9 60 252.7 60.3 252.4 60.3 C 252.1 60.3 251.9 60 251.9 59.8 Z M 252 61.4 L 252.7 61.4 L 252.7 66.7 L 252 66.7 L 252 61.4 Z M 255.5 60.8 C 255.47 60.8 255.5 61.4 255.5 61.4 L 257.1 61.4 L 257.1 62 L 255.5 62 L 255.5 66.7 L 254.8 66.7 L 254.8 62 L 253.8 62 L 253.8 61.4 L 254.8 61.4 C 254.8 61.4 254.78 60.77 254.8 60.8 C 254.8 59.8 255.3 59.2 256.4 59.2 C 256.8 59.2 257.2 59.3 257.4 59.5 C 257.4 59.5 257.2 60.1 257.2 60.1 C 257 59.9 256.7 59.8 256.4 59.8 C 255.8 59.8 255.5 60.1 255.5 60.8 Z M 263.4 66.4 C 263.2 66.6 262.7 66.7 262.3 66.7 C 261.3 66.7 260.8 66.2 260.8 65.2 C 260.79 65.2 260.8 62 260.8 62 L 259.8 62 L 259.8 61.4 L 260.8 61.4 L 260.8 60.3 L 261.5 60.3 L 261.5 61.4 L 263.1 61.4 L 263.1 62 L 261.5 62 C 261.5 62 261.5 65.16 261.5 65.2 C 261.5 65.8 261.8 66.1 262.4 66.1 C 262.7 66.1 263 66 263.2 65.9 C 263.2 65.9 263.4 66.4 263.4 66.4 Z M 269.5 63.6 C 269.46 63.63 269.5 66.7 269.5 66.7 L 268.8 66.7 C 268.8 66.7 268.76 63.7 268.8 63.7 C 268.8 62.6 268.2 62 267.2 62 C 266 62 265.3 62.7 265.3 63.9 C 265.33 63.92 265.3 66.7 265.3 66.7 L 264.6 66.7 L 264.6 59.3 L 265.3 59.3 C 265.3 59.3 265.33 62.34 265.3 62.3 C 265.7 61.7 266.4 61.4 267.3 61.4 C 268.6 61.4 269.5 62.1 269.5 63.6 Z M 276 64.3 C 276 64.3 271.6 64.3 271.6 64.3 C 271.6 65.4 272.5 66.1 273.6 66.1 C 274.3 66.1 274.8 65.9 275.2 65.4 C 275.2 65.4 275.6 65.9 275.6 65.9 C 275.2 66.4 274.4 66.7 273.6 66.7 C 272 66.7 270.8 65.6 270.8 64 C 270.8 62.5 271.9 61.4 273.4 61.4 C 274.9 61.4 276 62.5 276 64 C 276 64.1 276 64.2 276 64.3 Z M 271.6 63.7 C 271.6 63.7 275.3 63.7 275.3 63.7 C 275.2 62.7 274.4 62 273.4 62 C 272.4 62 271.6 62.7 271.6 63.7 Z M 281.8 61.4 C 281.8 61.4 279.13 67.31 279.1 67.3 C 278.7 68.3 278.1 68.7 277.4 68.7 C 276.9 68.7 276.4 68.5 276.1 68.2 C 276.1 68.2 276.4 67.7 276.4 67.7 C 276.7 67.9 277 68.1 277.4 68.1 C 277.9 68.1 278.2 67.8 278.5 67.2 C 278.48 67.18 278.7 66.7 278.7 66.7 L 276.4 61.4 L 277.1 61.4 L 279.1 65.9 L 281.1 61.4 L 281.8 61.4 Z M 289.3 63.4 C 289.35 63.42 289.3 66.7 289.3 66.7 L 288.7 66.7 C 288.7 66.7 288.67 65.86 288.7 65.9 C 288.4 66.4 287.7 66.7 286.9 66.7 C 285.7 66.7 284.9 66.1 284.9 65.2 C 284.9 64.4 285.5 63.7 287 63.7 C 286.97 63.71 288.6 63.7 288.6 63.7 C 288.6 63.7 288.64 63.39 288.6 63.4 C 288.6 62.5 288.1 62 287.1 62 C 286.5 62 285.8 62.2 285.4 62.6 C 285.4 62.6 285.1 62.1 285.1 62.1 C 285.6 61.6 286.4 61.4 287.2 61.4 C 288.6 61.4 289.3 62.1 289.3 63.4 Z M 288.6 65.1 C 288.64 65.1 288.6 64.2 288.6 64.2 C 288.6 64.2 286.99 64.24 287 64.2 C 286 64.2 285.6 64.6 285.6 65.2 C 285.6 65.8 286.1 66.2 287 66.2 C 287.8 66.2 288.4 65.8 288.6 65.1 Z M 293.8 61.4 C 293.8 61.4 293.8 62.1 293.8 62.1 C 293.8 62.1 293.7 62.1 293.6 62.1 C 292.5 62.1 291.9 62.8 291.9 64 C 291.87 64 291.9 66.7 291.9 66.7 L 291.2 66.7 L 291.2 61.4 L 291.8 61.4 C 291.8 61.4 291.84 62.45 291.8 62.4 C 292.2 61.7 292.8 61.4 293.8 61.4 Z M 299.6 64.3 C 299.6 64.3 295.2 64.3 295.2 64.3 C 295.2 65.4 296.1 66.1 297.2 66.1 C 297.9 66.1 298.4 65.9 298.8 65.4 C 298.8 65.4 299.2 65.9 299.2 65.9 C 298.8 66.4 298 66.7 297.2 66.7 C 295.6 66.7 294.4 65.6 294.4 64 C 294.4 62.5 295.5 61.4 297 61.4 C 298.5 61.4 299.6 62.5 299.6 64 C 299.6 64.1 299.6 64.2 299.6 64.3 Z M 295.2 63.7 C 295.2 63.7 298.9 63.7 298.9 63.7 C 298.8 62.7 298 62 297 62 C 296 62 295.2 62.7 295.2 63.7 Z M 308.5 63.6 C 308.47 63.63 308.5 66.7 308.5 66.7 L 307.8 66.7 C 307.8 66.7 307.77 63.7 307.8 63.7 C 307.8 62.6 307.2 62 306.2 62 C 305.1 62 304.3 62.7 304.3 63.9 C 304.34 63.92 304.3 66.7 304.3 66.7 L 303.6 66.7 L 303.6 61.4 L 304.3 61.4 C 304.3 61.4 304.32 62.39 304.3 62.4 C 304.7 61.7 305.4 61.4 306.3 61.4 C 307.6 61.4 308.5 62.1 308.5 63.6 Z M 310.1 59.8 C 310.1 59.5 310.3 59.3 310.6 59.3 C 310.9 59.3 311.1 59.5 311.1 59.7 C 311.1 60 310.9 60.3 310.6 60.3 C 310.3 60.3 310.1 60 310.1 59.8 Z M 310.3 61.4 L 311 61.4 L 311 66.7 L 310.3 66.7 L 310.3 61.4 Z M 317.7 61.4 C 317.7 61.4 317.74 66.04 317.7 66 C 317.7 67.9 316.9 68.7 315.1 68.7 C 314.2 68.7 313.2 68.4 312.7 67.9 C 312.7 67.9 313 67.3 313 67.3 C 313.5 67.8 314.3 68 315.1 68 C 316.4 68 317 67.4 317 66.1 C 317 66.1 317 65.5 317 65.5 C 316.6 66.1 315.8 66.5 315 66.5 C 313.5 66.5 312.3 65.4 312.3 63.9 C 312.3 62.4 313.5 61.4 315 61.4 C 315.9 61.4 316.6 61.7 317.1 62.4 C 317.06 62.43 317.1 61.4 317.1 61.4 L 317.7 61.4 Z M 317.1 63.9 C 317.1 62.8 316.2 62 315.1 62 C 313.9 62 313.1 62.8 313.1 63.9 C 313.1 65.1 313.9 65.9 315.1 65.9 C 316.2 65.9 317.1 65.1 317.1 63.9 Z M 324.4 63.6 C 324.44 63.63 324.4 66.7 324.4 66.7 L 323.7 66.7 C 323.7 66.7 323.73 63.7 323.7 63.7 C 323.7 62.6 323.2 62 322.2 62 C 321 62 320.3 62.7 320.3 63.9 C 320.31 63.92 320.3 66.7 320.3 66.7 L 319.6 66.7 L 319.6 59.3 L 320.3 59.3 C 320.3 59.3 320.31 62.34 320.3 62.3 C 320.7 61.7 321.4 61.4 322.3 61.4 C 323.6 61.4 324.4 62.1 324.4 63.6 Z M 329 66.4 C 328.7 66.6 328.3 66.7 327.9 66.7 C 326.9 66.7 326.3 66.2 326.3 65.2 C 326.33 65.2 326.3 62 326.3 62 L 325.4 62 L 325.4 61.4 L 326.3 61.4 L 326.3 60.3 L 327 60.3 L 327 61.4 L 328.6 61.4 L 328.6 62 L 327 62 C 327 62 327.03 65.16 327 65.2 C 327 65.8 327.4 66.1 327.9 66.1 C 328.2 66.1 328.5 66 328.7 65.9 C 328.7 65.9 329 66.4 329 66.4 Z M 332.2 66.1 C 332.2 66.1 332.5 65.5 332.5 65.5 C 332.9 65.9 333.6 66.1 334.3 66.1 C 335.3 66.1 335.8 65.8 335.8 65.3 C 335.8 63.9 332.3 65 332.3 62.9 C 332.3 62 333.1 61.4 334.4 61.4 C 335.1 61.4 335.8 61.6 336.3 61.9 C 336.3 61.9 336 62.4 336 62.4 C 335.5 62.1 335 62 334.4 62 C 333.5 62 333.1 62.4 333.1 62.9 C 333.1 64.3 336.5 63.2 336.5 65.2 C 336.5 66.1 335.7 66.7 334.3 66.7 C 333.4 66.7 332.6 66.4 332.2 66.1 Z M 342.6 63.6 C 342.62 63.63 342.6 66.7 342.6 66.7 L 341.9 66.7 C 341.9 66.7 341.91 63.7 341.9 63.7 C 341.9 62.6 341.3 62 340.3 62 C 339.2 62 338.5 62.7 338.5 63.9 C 338.49 63.92 338.5 66.7 338.5 66.7 L 337.8 66.7 L 337.8 59.3 L 338.5 59.3 C 338.5 59.3 338.49 62.34 338.5 62.3 C 338.9 61.7 339.6 61.4 340.5 61.4 C 341.7 61.4 342.6 62.1 342.6 63.6 Z M 344.2 59.8 C 344.2 59.5 344.5 59.3 344.8 59.3 C 345.1 59.3 345.3 59.5 345.3 59.7 C 345.3 60 345.1 60.3 344.8 60.3 C 344.5 60.3 344.2 60 344.2 59.8 Z M 344.4 61.4 L 345.1 61.4 L 345.1 66.7 L 344.4 66.7 L 344.4 61.4 Z M 347.9 60.8 C 347.86 60.8 347.9 61.4 347.9 61.4 L 349.5 61.4 L 349.5 62 L 347.9 62 L 347.9 66.7 L 347.2 66.7 L 347.2 62 L 346.2 62 L 346.2 61.4 L 347.2 61.4 C 347.2 61.4 347.17 60.77 347.2 60.8 C 347.2 59.8 347.7 59.2 348.8 59.2 C 349.1 59.2 349.5 59.3 349.8 59.5 C 349.8 59.5 349.6 60.1 349.6 60.1 C 349.4 59.9 349.1 59.8 348.8 59.8 C 348.2 59.8 347.9 60.1 347.9 60.8 Z M 353.7 66.4 C 353.4 66.6 353 66.7 352.6 66.7 C 351.6 66.7 351 66.2 351 65.2 C 351.01 65.2 351 62 351 62 L 350.1 62 L 350.1 61.4 L 351 61.4 L 351 60.3 L 351.7 60.3 L 351.7 61.4 L 353.3 61.4 L 353.3 62 L 351.7 62 C 351.7 62 351.72 65.16 351.7 65.2 C 351.7 65.8 352 66.1 352.6 66.1 C 352.9 66.1 353.2 66 353.4 65.9 C 353.4 65.9 353.7 66.4 353.7 66.4 Z M 354.5 66.1 C 354.5 66.1 354.8 65.5 354.8 65.5 C 355.2 65.9 355.9 66.1 356.6 66.1 C 357.6 66.1 358.1 65.8 358.1 65.3 C 358.1 63.9 354.6 65 354.6 62.9 C 354.6 62 355.4 61.4 356.7 61.4 C 357.4 61.4 358.1 61.6 358.6 61.9 C 358.6 61.9 358.3 62.4 358.3 62.4 C 357.8 62.1 357.3 62 356.7 62 C 355.8 62 355.4 62.4 355.4 62.9 C 355.4 64.3 358.8 63.2 358.8 65.2 C 358.8 66.1 358 66.7 356.6 66.7 C 355.7 66.7 354.9 66.4 354.5 66.1 Z M 359.7 61.9 C 359.7 61.6 359.9 61.4 360.2 61.4 C 360.5 61.4 360.7 61.6 360.7 61.9 C 360.7 62.2 360.5 62.5 360.2 62.5 C 359.9 62.5 359.7 62.2 359.7 61.9 Z M 360.7 66.2 C 360.7 66.3 360.7 66.5 360.6 66.8 C 360.61 66.76 360.2 68.1 360.2 68.1 L 359.7 68.1 C 359.7 68.1 360.05 66.69 360.1 66.7 C 359.8 66.6 359.7 66.4 359.7 66.2 C 359.7 65.9 359.9 65.6 360.2 65.6 C 360.5 65.6 360.7 65.9 360.7 66.2 Z M 368.8 63.4 C 368.85 63.42 368.8 66.7 368.8 66.7 L 368.2 66.7 C 368.2 66.7 368.17 65.86 368.2 65.9 C 367.9 66.4 367.2 66.7 366.4 66.7 C 365.2 66.7 364.4 66.1 364.4 65.2 C 364.4 64.4 365 63.7 366.5 63.7 C 366.47 63.71 368.1 63.7 368.1 63.7 C 368.1 63.7 368.14 63.39 368.1 63.4 C 368.1 62.5 367.6 62 366.7 62 C 366 62 365.3 62.2 364.9 62.6 C 364.9 62.6 364.6 62.1 364.6 62.1 C 365.1 61.6 365.9 61.4 366.7 61.4 C 368.1 61.4 368.8 62.1 368.8 63.4 Z M 368.1 65.1 C 368.14 65.1 368.1 64.2 368.1 64.2 C 368.1 64.2 366.49 64.24 366.5 64.2 C 365.5 64.2 365.1 64.6 365.1 65.2 C 365.1 65.8 365.6 66.2 366.5 66.2 C 367.3 66.2 367.9 65.8 368.1 65.1 Z M 375.5 63.6 C 375.5 63.63 375.5 66.7 375.5 66.7 L 374.8 66.7 C 374.8 66.7 374.8 63.7 374.8 63.7 C 374.8 62.6 374.2 62 373.2 62 C 372.1 62 371.4 62.7 371.4 63.9 C 371.37 63.92 371.4 66.7 371.4 66.7 L 370.7 66.7 L 370.7 61.4 L 371.3 61.4 C 371.3 61.4 371.34 62.39 371.3 62.4 C 371.7 61.7 372.4 61.4 373.3 61.4 C 374.6 61.4 375.5 62.1 375.5 63.6 Z M 382.2 59.3 L 382.2 66.7 L 381.5 66.7 C 381.5 66.7 381.54 65.64 381.5 65.6 C 381.1 66.3 380.4 66.7 379.5 66.7 C 378 66.7 376.9 65.6 376.9 64 C 376.9 62.5 378 61.4 379.5 61.4 C 380.3 61.4 381.1 61.7 381.5 62.4 C 381.51 62.42 381.5 59.3 381.5 59.3 L 382.2 59.3 Z M 381.5 64 C 381.5 62.8 380.7 62 379.6 62 C 378.4 62 377.6 62.8 377.6 64 C 377.6 65.3 378.4 66.1 379.6 66.1 C 380.7 66.1 381.5 65.3 381.5 64 Z " stroke="none" fill="#323132"/>
  </g>
  <g id="Polygon122993">
    <path d="M 20.4 64 L 16.2 66.1 L 16.2 61.9 L 20.4 64 Z " stroke="none" fill="#a243ff"/>
  </g>
  <g id="Polygon122992">
    <path d="M 34.8 45.4 C 34.5 45.6 34.1 45.7 33.6 45.7 C 32.7 45.7 32.1 45.2 32.1 44.2 C 32.11 44.2 32.1 41 32.1 41 L 31.2 41 L 31.2 40.4 L 32.1 40.4 L 32.1 39.3 L 32.8 39.3 L 32.8 40.4 L 34.4 40.4 L 34.4 41 L 32.8 41 C 32.8 41 32.82 44.16 32.8 44.2 C 32.8 44.8 33.1 45.1 33.7 45.1 C 34 45.1 34.3 45 34.5 44.9 C 34.5 44.9 34.8 45.4 34.8 45.4 Z M 35.3 43 C 35.3 41.5 36.5 40.4 38 40.4 C 39.5 40.4 40.7 41.5 40.7 43 C 40.7 44.6 39.5 45.7 38 45.7 C 36.5 45.7 35.3 44.6 35.3 43 Z M 39.9 43 C 39.9 41.8 39.1 41 38 41 C 36.9 41 36 41.8 36 43 C 36 44.3 36.9 45.1 38 45.1 C 39.1 45.1 39.9 44.3 39.9 43 Z M 47.4 40.4 C 47.4 40.4 47.4 41.1 47.4 41.1 C 47.3 41.1 47.3 41.1 47.2 41.1 C 46.1 41.1 45.4 41.8 45.4 43 C 45.44 43 45.4 45.7 45.4 45.7 L 44.7 45.7 L 44.7 40.4 L 45.4 40.4 C 45.4 40.4 45.41 41.45 45.4 41.4 C 45.7 40.7 46.4 40.4 47.4 40.4 Z M 48.4 38.8 C 48.4 38.5 48.7 38.3 49 38.3 C 49.3 38.3 49.5 38.5 49.5 38.7 C 49.5 39 49.3 39.3 49 39.3 C 48.7 39.3 48.4 39 48.4 38.8 Z M 48.6 40.4 L 49.3 40.4 L 49.3 45.7 L 48.6 45.7 L 48.6 40.4 Z M 50.6 45.1 C 50.6 45.1 50.9 44.5 50.9 44.5 C 51.3 44.9 52 45.1 52.8 45.1 C 53.8 45.1 54.2 44.8 54.2 44.3 C 54.2 42.9 50.8 44 50.8 41.9 C 50.8 41 51.5 40.4 52.9 40.4 C 53.5 40.4 54.3 40.6 54.7 40.9 C 54.7 40.9 54.4 41.4 54.4 41.4 C 53.9 41.1 53.4 41 52.9 41 C 51.9 41 51.5 41.4 51.5 41.9 C 51.5 43.3 54.9 42.2 54.9 44.2 C 54.9 45.1 54.1 45.7 52.7 45.7 C 51.9 45.7 51 45.4 50.6 45.1 Z M 60.9 43.3 C 60.9 43.3 56.5 43.3 56.5 43.3 C 56.6 44.4 57.4 45.1 58.6 45.1 C 59.2 45.1 59.8 44.9 60.2 44.4 C 60.2 44.4 60.6 44.9 60.6 44.9 C 60.1 45.4 59.4 45.7 58.5 45.7 C 56.9 45.7 55.8 44.6 55.8 43 C 55.8 41.5 56.9 40.4 58.3 40.4 C 59.8 40.4 60.9 41.5 60.9 43 C 60.9 43.1 60.9 43.2 60.9 43.3 Z M 56.5 42.7 C 56.5 42.7 60.2 42.7 60.2 42.7 C 60.1 41.7 59.4 41 58.3 41 C 57.3 41 56.6 41.7 56.5 42.7 Z M 72.7 40.4 L 70.7 45.7 L 70 45.7 L 68.4 41.4 L 66.7 45.7 L 66 45.7 L 64.1 40.4 L 64.7 40.4 L 66.4 44.9 L 68.1 40.4 L 68.7 40.4 L 70.4 44.9 L 72 40.4 L 72.7 40.4 Z M 73.6 38.8 C 73.6 38.5 73.8 38.3 74.1 38.3 C 74.4 38.3 74.7 38.5 74.7 38.7 C 74.7 39 74.4 39.3 74.1 39.3 C 73.8 39.3 73.6 39 73.6 38.8 Z M 73.8 40.4 L 74.5 40.4 L 74.5 45.7 L 73.8 45.7 L 73.8 40.4 Z M 79.2 45.4 C 78.9 45.6 78.5 45.7 78.1 45.7 C 77.1 45.7 76.5 45.2 76.5 44.2 C 76.54 44.2 76.5 41 76.5 41 L 75.6 41 L 75.6 40.4 L 76.5 40.4 L 76.5 39.3 L 77.3 39.3 L 77.3 40.4 L 78.9 40.4 L 78.9 41 L 77.3 41 C 77.3 41 77.25 44.16 77.3 44.2 C 77.3 44.8 77.6 45.1 78.2 45.1 C 78.5 45.1 78.7 45 78.9 44.9 C 78.9 44.9 79.2 45.4 79.2 45.4 Z M 85.2 42.6 C 85.22 42.63 85.2 45.7 85.2 45.7 L 84.5 45.7 C 84.5 45.7 84.51 42.7 84.5 42.7 C 84.5 41.6 83.9 41 82.9 41 C 81.8 41 81.1 41.7 81.1 42.9 C 81.09 42.92 81.1 45.7 81.1 45.7 L 80.4 45.7 L 80.4 38.3 L 81.1 38.3 C 81.1 38.3 81.09 41.34 81.1 41.3 C 81.5 40.7 82.2 40.4 83.1 40.4 C 84.3 40.4 85.2 41.1 85.2 42.6 Z M 89.6 38.8 C 89.6 38.5 89.8 38.3 90.1 38.3 C 90.4 38.3 90.6 38.5 90.6 38.7 C 90.6 39 90.4 39.3 90.1 39.3 C 89.8 39.3 89.6 39 89.6 38.8 Z M 89.8 40.4 L 90.5 40.4 L 90.5 45.7 L 89.8 45.7 L 89.8 40.4 Z M 97.2 42.6 C 97.16 42.63 97.2 45.7 97.2 45.7 L 96.5 45.7 C 96.5 45.7 96.45 42.7 96.5 42.7 C 96.5 41.6 95.9 41 94.9 41 C 93.7 41 93 41.7 93 42.9 C 93.03 42.92 93 45.7 93 45.7 L 92.3 45.7 L 92.3 40.4 L 93 40.4 C 93 40.4 93 41.39 93 41.4 C 93.4 40.7 94.1 40.4 95 40.4 C 96.3 40.4 97.2 41.1 97.2 42.6 Z M 98.5 43 C 98.5 41.5 99.7 40.4 101.3 40.4 C 102.1 40.4 102.9 40.7 103.3 41.4 C 103.3 41.4 102.8 41.8 102.8 41.8 C 102.4 41.2 101.9 41 101.3 41 C 100.1 41 99.3 41.8 99.3 43 C 99.3 44.3 100.1 45.1 101.3 45.1 C 101.9 45.1 102.4 44.9 102.8 44.3 C 102.8 44.3 103.3 44.7 103.3 44.7 C 102.9 45.4 102.1 45.7 101.3 45.7 C 99.7 45.7 98.5 44.6 98.5 43 Z M 107.3 40.4 C 107.3 40.4 107.3 41.1 107.3 41.1 C 107.2 41.1 107.2 41.1 107.1 41.1 C 106 41.1 105.3 41.8 105.3 43 C 105.34 43 105.3 45.7 105.3 45.7 L 104.6 45.7 L 104.6 40.4 L 105.3 40.4 C 105.3 40.4 105.31 41.45 105.3 41.4 C 105.6 40.7 106.3 40.4 107.3 40.4 Z M 113 43.3 C 113 43.3 108.6 43.3 108.6 43.3 C 108.7 44.4 109.5 45.1 110.7 45.1 C 111.3 45.1 111.9 44.9 112.3 44.4 C 112.3 44.4 112.7 44.9 112.7 44.9 C 112.2 45.4 111.5 45.7 110.7 45.7 C 109 45.7 107.9 44.6 107.9 43 C 107.9 41.5 109 40.4 110.5 40.4 C 112 40.4 113 41.5 113 43 C 113 43.1 113 43.2 113 43.3 Z M 108.6 42.7 C 108.6 42.7 112.3 42.7 112.3 42.7 C 112.3 41.7 111.5 41 110.5 41 C 109.5 41 108.7 41.7 108.6 42.7 Z M 118.4 42.4 C 118.41 42.42 118.4 45.7 118.4 45.7 L 117.7 45.7 C 117.7 45.7 117.73 44.86 117.7 44.9 C 117.4 45.4 116.8 45.7 115.9 45.7 C 114.7 45.7 114 45.1 114 44.2 C 114 43.4 114.5 42.7 116 42.7 C 116.03 42.71 117.7 42.7 117.7 42.7 C 117.7 42.7 117.7 42.39 117.7 42.4 C 117.7 41.5 117.2 41 116.2 41 C 115.5 41 114.9 41.2 114.5 41.6 C 114.5 41.6 114.1 41.1 114.1 41.1 C 114.7 40.6 115.4 40.4 116.3 40.4 C 117.6 40.4 118.4 41.1 118.4 42.4 Z M 117.7 44.1 C 117.7 44.1 117.7 43.2 117.7 43.2 C 117.7 43.2 116.05 43.24 116 43.2 C 115 43.2 114.7 43.6 114.7 44.2 C 114.7 44.8 115.2 45.2 116 45.2 C 116.8 45.2 117.4 44.8 117.7 44.1 Z M 119.6 45.1 C 119.6 45.1 119.9 44.5 119.9 44.5 C 120.4 44.9 121.1 45.1 121.8 45.1 C 122.8 45.1 123.2 44.8 123.2 44.3 C 123.2 42.9 119.8 44 119.8 41.9 C 119.8 41 120.6 40.4 121.9 40.4 C 122.6 40.4 123.3 40.6 123.8 40.9 C 123.8 40.9 123.4 41.4 123.4 41.4 C 123 41.1 122.4 41 121.9 41 C 120.9 41 120.5 41.4 120.5 41.9 C 120.5 43.3 123.9 42.2 123.9 44.2 C 123.9 45.1 123.1 45.7 121.8 45.7 C 120.9 45.7 120.1 45.4 119.6 45.1 Z M 125.1 38.8 C 125.1 38.5 125.3 38.3 125.6 38.3 C 125.9 38.3 126.1 38.5 126.1 38.7 C 126.1 39 125.9 39.3 125.6 39.3 C 125.3 39.3 125.1 39 125.1 38.8 Z M 125.2 40.4 L 125.9 40.4 L 125.9 45.7 L 125.2 45.7 L 125.2 40.4 Z M 132.6 42.6 C 132.63 42.63 132.6 45.7 132.6 45.7 L 131.9 45.7 C 131.9 45.7 131.92 42.7 131.9 42.7 C 131.9 41.6 131.3 41 130.3 41 C 129.2 41 128.5 41.7 128.5 42.9 C 128.5 42.92 128.5 45.7 128.5 45.7 L 127.8 45.7 L 127.8 40.4 L 128.5 40.4 C 128.5 40.4 128.47 41.39 128.5 41.4 C 128.9 40.7 129.6 40.4 130.5 40.4 C 131.8 40.4 132.6 41.1 132.6 42.6 Z M 139.4 40.4 C 139.4 40.4 139.39 45.04 139.4 45 C 139.4 46.9 138.5 47.7 136.8 47.7 C 135.8 47.7 134.9 47.4 134.3 46.9 C 134.3 46.9 134.7 46.3 134.7 46.3 C 135.2 46.8 135.9 47 136.7 47 C 138.1 47 138.7 46.4 138.7 45.1 C 138.7 45.1 138.7 44.5 138.7 44.5 C 138.2 45.1 137.5 45.5 136.6 45.5 C 135.1 45.5 134 44.4 134 42.9 C 134 41.4 135.1 40.4 136.6 40.4 C 137.5 40.4 138.3 40.7 138.7 41.4 C 138.72 41.43 138.7 40.4 138.7 40.4 L 139.4 40.4 Z M 138.7 42.9 C 138.7 41.8 137.9 41 136.7 41 C 135.5 41 134.7 41.8 134.7 42.9 C 134.7 44.1 135.5 44.9 136.7 44.9 C 137.9 44.9 138.7 44.1 138.7 42.9 Z M 143.3 45.1 C 143.3 45.1 143.6 44.5 143.6 44.5 C 144 44.9 144.7 45.1 145.5 45.1 C 146.5 45.1 146.9 44.8 146.9 44.3 C 146.9 42.9 143.5 44 143.5 41.9 C 143.5 41 144.2 40.4 145.5 40.4 C 146.2 40.4 147 40.6 147.4 40.9 C 147.4 40.9 147.1 41.4 147.1 41.4 C 146.6 41.1 146.1 41 145.5 41 C 144.6 41 144.2 41.4 144.2 41.9 C 144.2 43.3 147.6 42.2 147.6 44.2 C 147.6 45.1 146.8 45.7 145.4 45.7 C 144.5 45.7 143.7 45.4 143.3 45.1 Z M 153.7 42.6 C 153.74 42.63 153.7 45.7 153.7 45.7 L 153 45.7 C 153 45.7 153.03 42.7 153 42.7 C 153 41.6 152.4 41 151.4 41 C 150.3 41 149.6 41.7 149.6 42.9 C 149.61 42.92 149.6 45.7 149.6 45.7 L 148.9 45.7 L 148.9 38.3 L 149.6 38.3 C 149.6 38.3 149.61 41.34 149.6 41.3 C 150 40.7 150.7 40.4 151.6 40.4 C 152.9 40.4 153.7 41.1 153.7 42.6 Z M 155.4 38.8 C 155.4 38.5 155.6 38.3 155.9 38.3 C 156.2 38.3 156.4 38.5 156.4 38.7 C 156.4 39 156.2 39.3 155.9 39.3 C 155.6 39.3 155.4 39 155.4 38.8 Z M 155.5 40.4 L 156.2 40.4 L 156.2 45.7 L 155.5 45.7 L 155.5 40.4 Z M 159 39.8 C 158.98 39.8 159 40.4 159 40.4 L 160.6 40.4 L 160.6 41 L 159 41 L 159 45.7 L 158.3 45.7 L 158.3 41 L 157.3 41 L 157.3 40.4 L 158.3 40.4 C 158.3 40.4 158.29 39.77 158.3 39.8 C 158.3 38.8 158.8 38.2 159.9 38.2 C 160.3 38.2 160.7 38.3 160.9 38.5 C 160.9 38.5 160.7 39.1 160.7 39.1 C 160.5 38.9 160.2 38.8 159.9 38.8 C 159.3 38.8 159 39.1 159 39.8 Z M 164.8 45.4 C 164.5 45.6 164.1 45.7 163.7 45.7 C 162.7 45.7 162.1 45.2 162.1 44.2 C 162.13 44.2 162.1 41 162.1 41 L 161.2 41 L 161.2 40.4 L 162.1 40.4 L 162.1 39.3 L 162.8 39.3 L 162.8 40.4 L 164.4 40.4 L 164.4 41 L 162.8 41 C 162.8 41 162.84 44.16 162.8 44.2 C 162.8 44.8 163.2 45.1 163.8 45.1 C 164 45.1 164.3 45 164.5 44.9 C 164.5 44.9 164.8 45.4 164.8 45.4 Z M 168.7 38.3 L 169.4 38.3 L 169.4 45.7 L 168.7 45.7 L 168.7 38.3 Z M 175.9 43.3 C 175.9 43.3 171.5 43.3 171.5 43.3 C 171.6 44.4 172.5 45.1 173.6 45.1 C 174.2 45.1 174.8 44.9 175.2 44.4 C 175.2 44.4 175.6 44.9 175.6 44.9 C 175.1 45.4 174.4 45.7 173.6 45.7 C 171.9 45.7 170.8 44.6 170.8 43 C 170.8 41.5 171.9 40.4 173.4 40.4 C 174.9 40.4 175.9 41.5 175.9 43 C 175.9 43.1 175.9 43.2 175.9 43.3 Z M 171.5 42.7 C 171.5 42.7 175.3 42.7 175.3 42.7 C 175.2 41.7 174.4 41 173.4 41 C 172.4 41 171.6 41.7 171.5 42.7 Z M 182.2 42.6 C 182.19 42.63 182.2 45.7 182.2 45.7 L 181.5 45.7 C 181.5 45.7 181.48 42.7 181.5 42.7 C 181.5 41.6 180.9 41 179.9 41 C 178.8 41 178.1 41.7 178.1 42.9 C 178.06 42.92 178.1 45.7 178.1 45.7 L 177.3 45.7 L 177.3 40.4 L 178 40.4 C 178 40.4 178.03 41.39 178 41.4 C 178.4 40.7 179.1 40.4 180 40.4 C 181.3 40.4 182.2 41.1 182.2 42.6 Z M 189 40.4 C 189 40.4 188.95 45.04 189 45 C 189 46.9 188.1 47.7 186.3 47.7 C 185.4 47.7 184.4 47.4 183.9 46.9 C 183.9 46.9 184.2 46.3 184.2 46.3 C 184.7 46.8 185.5 47 186.3 47 C 187.6 47 188.2 46.4 188.2 45.1 C 188.2 45.1 188.2 44.5 188.2 44.5 C 187.8 45.1 187.1 45.5 186.2 45.5 C 184.7 45.5 183.6 44.4 183.6 42.9 C 183.6 41.4 184.7 40.4 186.2 40.4 C 187.1 40.4 187.8 40.7 188.3 41.4 C 188.27 41.43 188.3 40.4 188.3 40.4 L 189 40.4 Z M 188.3 42.9 C 188.3 41.8 187.4 41 186.3 41 C 185.1 41 184.3 41.8 184.3 42.9 C 184.3 44.1 185.1 44.9 186.3 44.9 C 187.4 44.9 188.3 44.1 188.3 42.9 Z M 193.7 45.4 C 193.4 45.6 193 45.7 192.6 45.7 C 191.6 45.7 191 45.2 191 44.2 C 191.03 44.2 191 41 191 41 L 190.1 41 L 190.1 40.4 L 191 40.4 L 191 39.3 L 191.7 39.3 L 191.7 40.4 L 193.3 40.4 L 193.3 41 L 191.7 41 C 191.7 41 191.74 44.16 191.7 44.2 C 191.7 44.8 192.1 45.1 192.6 45.1 C 192.9 45.1 193.2 45 193.4 44.9 C 193.4 44.9 193.7 45.4 193.7 45.4 Z M 199.7 42.6 C 199.7 42.63 199.7 45.7 199.7 45.7 L 199 45.7 C 199 45.7 199 42.7 199 42.7 C 199 41.6 198.4 41 197.4 41 C 196.3 41 195.6 41.7 195.6 42.9 C 195.57 42.92 195.6 45.7 195.6 45.7 L 194.9 45.7 L 194.9 38.3 L 195.6 38.3 C 195.6 38.3 195.57 41.34 195.6 41.3 C 196 40.7 196.7 40.4 197.5 40.4 C 198.8 40.4 199.7 41.1 199.7 42.6 Z M 203.7 43 C 203.7 41.5 204.9 40.4 206.4 40.4 C 207.9 40.4 209.1 41.5 209.1 43 C 209.1 44.6 207.9 45.7 206.4 45.7 C 204.9 45.7 203.7 44.6 203.7 43 Z M 208.4 43 C 208.4 41.8 207.5 41 206.4 41 C 205.3 41 204.4 41.8 204.4 43 C 204.4 44.3 205.3 45.1 206.4 45.1 C 207.5 45.1 208.4 44.3 208.4 43 Z M 214.9 40.4 L 212.5 45.7 L 211.8 45.7 L 209.5 40.4 L 210.2 40.4 L 212.2 44.9 L 214.2 40.4 L 214.9 40.4 Z M 220.4 43.3 C 220.4 43.3 216 43.3 216 43.3 C 216 44.4 216.9 45.1 218 45.1 C 218.7 45.1 219.2 44.9 219.6 44.4 C 219.6 44.4 220 44.9 220 44.9 C 219.6 45.4 218.8 45.7 218 45.7 C 216.4 45.7 215.2 44.6 215.2 43 C 215.2 41.5 216.3 40.4 217.8 40.4 C 219.3 40.4 220.4 41.5 220.4 43 C 220.4 43.1 220.4 43.2 220.4 43.3 Z M 216 42.7 C 216 42.7 219.7 42.7 219.7 42.7 C 219.6 41.7 218.8 41 217.8 41 C 216.8 41 216 41.7 216 42.7 Z M 224.4 40.4 C 224.4 40.4 224.4 41.1 224.4 41.1 C 224.4 41.1 224.3 41.1 224.3 41.1 C 223.2 41.1 222.5 41.8 222.5 43 C 222.48 43 222.5 45.7 222.5 45.7 L 221.8 45.7 L 221.8 40.4 L 222.5 40.4 C 222.5 40.4 222.45 41.45 222.5 41.4 C 222.8 40.7 223.5 40.4 224.4 40.4 Z M 233 43.3 C 233 43.3 228.6 43.3 228.6 43.3 C 228.7 44.4 229.5 45.1 230.7 45.1 C 231.3 45.1 231.9 44.9 232.3 44.4 C 232.3 44.4 232.7 44.9 232.7 44.9 C 232.2 45.4 231.5 45.7 230.6 45.7 C 229 45.7 227.9 44.6 227.9 43 C 227.9 41.5 229 40.4 230.4 40.4 C 231.9 40.4 233 41.5 233 43 C 233 43.1 233 43.2 233 43.3 Z M 228.6 42.7 C 228.6 42.7 232.3 42.7 232.3 42.7 C 232.2 41.7 231.5 41 230.4 41 C 229.4 41 228.7 41.7 228.6 42.7 Z M 234.2 38.8 C 234.2 38.5 234.5 38.3 234.8 38.3 C 235 38.3 235.3 38.5 235.3 38.7 C 235.3 39 235.1 39.3 234.8 39.3 C 234.5 39.3 234.2 39 234.2 38.8 Z M 234.4 40.4 L 235.1 40.4 L 235.1 45.7 L 234.4 45.7 L 234.4 40.4 Z M 241.9 40.4 C 241.9 40.4 241.87 45.04 241.9 45 C 241.9 46.9 241 47.7 239.2 47.7 C 238.3 47.7 237.3 47.4 236.8 46.9 C 236.8 46.9 237.2 46.3 237.2 46.3 C 237.7 46.8 238.4 47 239.2 47 C 240.6 47 241.2 46.4 241.2 45.1 C 241.2 45.1 241.2 44.5 241.2 44.5 C 240.7 45.1 240 45.5 239.1 45.5 C 237.6 45.5 236.5 44.4 236.5 42.9 C 236.5 41.4 237.6 40.4 239.1 40.4 C 240 40.4 240.8 40.7 241.2 41.4 C 241.19 41.43 241.2 40.4 241.2 40.4 L 241.9 40.4 Z M 241.2 42.9 C 241.2 41.8 240.3 41 239.2 41 C 238 41 237.2 41.8 237.2 42.9 C 237.2 44.1 238 44.9 239.2 44.9 C 240.3 44.9 241.2 44.1 241.2 42.9 Z M 248.6 42.6 C 248.57 42.63 248.6 45.7 248.6 45.7 L 247.9 45.7 C 247.9 45.7 247.87 42.7 247.9 42.7 C 247.9 41.6 247.3 41 246.3 41 C 245.2 41 244.4 41.7 244.4 42.9 C 244.44 42.92 244.4 45.7 244.4 45.7 L 243.7 45.7 L 243.7 38.3 L 244.4 38.3 C 244.4 38.3 244.44 41.34 244.4 41.3 C 244.8 40.7 245.5 40.4 246.4 40.4 C 247.7 40.4 248.6 41.1 248.6 42.6 Z M 253.1 45.4 C 252.8 45.6 252.4 45.7 252 45.7 C 251 45.7 250.5 45.2 250.5 44.2 C 250.46 44.2 250.5 41 250.5 41 L 249.5 41 L 249.5 40.4 L 250.5 40.4 L 250.5 39.3 L 251.2 39.3 L 251.2 40.4 L 252.8 40.4 L 252.8 41 L 251.2 41 C 251.2 41 251.17 44.16 251.2 44.2 C 251.2 44.8 251.5 45.1 252.1 45.1 C 252.4 45.1 252.7 45 252.9 44.9 C 252.9 44.9 253.1 45.4 253.1 45.4 Z M 261.9 42.6 C 261.86 42.63 261.9 45.7 261.9 45.7 L 261.1 45.7 C 261.1 45.7 261.15 42.7 261.1 42.7 C 261.1 41.6 260.6 41 259.6 41 C 258.4 41 257.7 41.7 257.7 42.9 C 257.73 42.92 257.7 45.7 257.7 45.7 L 257 45.7 L 257 38.3 L 257.7 38.3 C 257.7 38.3 257.73 41.34 257.7 41.3 C 258.1 40.7 258.8 40.4 259.7 40.4 C 261 40.4 261.9 41.1 261.9 42.6 Z M 263.2 43 C 263.2 41.5 264.4 40.4 265.9 40.4 C 267.5 40.4 268.6 41.5 268.6 43 C 268.6 44.6 267.5 45.7 265.9 45.7 C 264.4 45.7 263.2 44.6 263.2 43 Z M 267.9 43 C 267.9 41.8 267 41 265.9 41 C 264.8 41 264 41.8 264 43 C 264 44.3 264.8 45.1 265.9 45.1 C 267 45.1 267.9 44.3 267.9 43 Z M 274.7 40.4 L 274.7 45.7 L 274.1 45.7 C 274.1 45.7 274.06 44.72 274.1 44.7 C 273.7 45.4 273 45.7 272.2 45.7 C 270.8 45.7 270 45 270 43.5 C 269.95 43.47 270 40.4 270 40.4 L 270.7 40.4 C 270.7 40.4 270.66 43.4 270.7 43.4 C 270.7 44.5 271.2 45.1 272.2 45.1 C 273.3 45.1 274 44.4 274 43.2 C 274.03 43.18 274 40.4 274 40.4 L 274.7 40.4 Z M 279.3 40.4 C 279.3 40.4 279.3 41.1 279.3 41.1 C 279.2 41.1 279.1 41.1 279.1 41.1 C 278 41.1 277.3 41.8 277.3 43 C 277.32 43 277.3 45.7 277.3 45.7 L 276.6 45.7 L 276.6 40.4 L 277.3 40.4 C 277.3 40.4 277.29 41.45 277.3 41.4 C 277.6 40.7 278.3 40.4 279.3 40.4 Z M 279.9 45.1 C 279.9 45.1 280.2 44.5 280.2 44.5 C 280.7 44.9 281.4 45.1 282.1 45.1 C 283.1 45.1 283.5 44.8 283.5 44.3 C 283.5 42.9 280.1 44 280.1 41.9 C 280.1 41 280.9 40.4 282.2 40.4 C 282.9 40.4 283.6 40.6 284.1 40.9 C 284.1 40.9 283.7 41.4 283.7 41.4 C 283.3 41.1 282.7 41 282.2 41 C 281.2 41 280.8 41.4 280.8 41.9 C 280.8 43.3 284.2 42.2 284.2 44.2 C 284.2 45.1 283.4 45.7 282.1 45.7 C 281.2 45.7 280.4 45.4 279.9 45.1 Z M 285.2 40.9 C 285.2 40.6 285.4 40.4 285.7 40.4 C 286 40.4 286.2 40.6 286.2 40.9 C 286.2 41.2 286 41.5 285.7 41.5 C 285.4 41.5 285.2 41.2 285.2 40.9 Z M 286.2 45.2 C 286.2 45.3 286.2 45.5 286.1 45.8 C 286.09 45.76 285.7 47.1 285.7 47.1 L 285.2 47.1 C 285.2 47.1 285.53 45.69 285.5 45.7 C 285.3 45.6 285.2 45.4 285.2 45.2 C 285.2 44.9 285.4 44.6 285.7 44.6 C 286 44.6 286.2 44.9 286.2 45.2 Z " stroke="none" fill="#323132"/>
  </g>
  <g id="Polygon122991">
    <path d="M 20.4 43 L 16.2 45.1 L 16.2 40.9 L 20.4 43 Z " stroke="none" fill="#a243ff"/>
  </g>
  <g id="Polygon122990">
    <path d="M 34.8 24.4 C 34.5 24.6 34.1 24.7 33.6 24.7 C 32.7 24.7 32.1 24.2 32.1 23.2 C 32.11 23.2 32.1 20 32.1 20 L 31.2 20 L 31.2 19.4 L 32.1 19.4 L 32.1 18.3 L 32.8 18.3 L 32.8 19.4 L 34.4 19.4 L 34.4 20 L 32.8 20 C 32.8 20 32.82 23.16 32.8 23.2 C 32.8 23.8 33.1 24.1 33.7 24.1 C 34 24.1 34.3 24 34.5 23.9 C 34.5 23.9 34.8 24.4 34.8 24.4 Z M 35.3 22 C 35.3 20.5 36.5 19.4 38 19.4 C 39.5 19.4 40.7 20.5 40.7 22 C 40.7 23.6 39.5 24.7 38 24.7 C 36.5 24.7 35.3 23.6 35.3 22 Z M 39.9 22 C 39.9 20.8 39.1 20 38 20 C 36.9 20 36 20.8 36 22 C 36 23.3 36.9 24.1 38 24.1 C 39.1 24.1 39.9 23.3 39.9 22 Z M 50.1 22 C 50.1 23.6 48.9 24.7 47.4 24.7 C 46.6 24.7 45.8 24.3 45.4 23.6 C 45.41 23.64 45.4 24.7 45.4 24.7 L 44.7 24.7 L 44.7 17.3 L 45.4 17.3 C 45.4 17.3 45.44 20.42 45.4 20.4 C 45.9 19.7 46.6 19.4 47.4 19.4 C 48.9 19.4 50.1 20.5 50.1 22 Z M 49.4 22 C 49.4 20.8 48.5 20 47.4 20 C 46.3 20 45.4 20.8 45.4 22 C 45.4 23.3 46.3 24.1 47.4 24.1 C 48.5 24.1 49.4 23.3 49.4 22 Z M 56.2 22.3 C 56.2 22.3 51.8 22.3 51.8 22.3 C 51.9 23.4 52.7 24.1 53.8 24.1 C 54.5 24.1 55.1 23.9 55.5 23.4 C 55.5 23.4 55.9 23.9 55.9 23.9 C 55.4 24.4 54.7 24.7 53.8 24.7 C 52.2 24.7 51.1 23.6 51.1 22 C 51.1 20.5 52.2 19.4 53.6 19.4 C 55.1 19.4 56.2 20.5 56.2 22 C 56.2 22.1 56.2 22.2 56.2 22.3 Z M 51.8 21.7 C 51.8 21.7 55.5 21.7 55.5 21.7 C 55.4 20.7 54.7 20 53.6 20 C 52.6 20 51.9 20.7 51.8 21.7 Z M 65.1 21.6 C 65.1 21.63 65.1 24.7 65.1 24.7 L 64.4 24.7 C 64.4 24.7 64.39 21.7 64.4 21.7 C 64.4 20.6 63.8 20 62.8 20 C 61.7 20 61 20.7 61 21.9 C 60.97 21.92 61 24.7 61 24.7 L 60.3 24.7 L 60.3 17.3 L 61 17.3 C 61 17.3 60.97 20.34 61 20.3 C 61.4 19.7 62 19.4 62.9 19.4 C 64.2 19.4 65.1 20.1 65.1 21.6 Z M 66.7 17.8 C 66.7 17.5 67 17.3 67.2 17.3 C 67.5 17.3 67.8 17.5 67.8 17.7 C 67.8 18 67.5 18.3 67.2 18.3 C 67 18.3 66.7 18 66.7 17.8 Z M 66.9 19.4 L 67.6 19.4 L 67.6 24.7 L 66.9 24.7 L 66.9 19.4 Z M 74.4 19.4 C 74.4 19.4 74.36 24.04 74.4 24 C 74.4 25.9 73.5 26.7 71.7 26.7 C 70.8 26.7 69.8 26.4 69.3 25.9 C 69.3 25.9 69.6 25.3 69.6 25.3 C 70.1 25.8 70.9 26 71.7 26 C 73 26 73.7 25.4 73.7 24.1 C 73.7 24.1 73.7 23.5 73.7 23.5 C 73.2 24.1 72.5 24.5 71.6 24.5 C 70.1 24.5 69 23.4 69 21.9 C 69 20.4 70.1 19.4 71.6 19.4 C 72.5 19.4 73.2 19.7 73.7 20.4 C 73.68 20.43 73.7 19.4 73.7 19.4 L 74.4 19.4 Z M 73.7 21.9 C 73.7 20.8 72.8 20 71.7 20 C 70.5 20 69.7 20.8 69.7 21.9 C 69.7 23.1 70.5 23.9 71.7 23.9 C 72.8 23.9 73.7 23.1 73.7 21.9 Z M 81.1 21.6 C 81.06 21.63 81.1 24.7 81.1 24.7 L 80.4 24.7 C 80.4 24.7 80.36 21.7 80.4 21.7 C 80.4 20.6 79.8 20 78.8 20 C 77.6 20 76.9 20.7 76.9 21.9 C 76.93 21.92 76.9 24.7 76.9 24.7 L 76.2 24.7 L 76.2 17.3 L 76.9 17.3 C 76.9 17.3 76.93 20.34 76.9 20.3 C 77.3 19.7 78 19.4 78.9 19.4 C 80.2 19.4 81.1 20.1 81.1 21.6 Z M 87.6 22.3 C 87.6 22.3 83.2 22.3 83.2 22.3 C 83.2 23.4 84.1 24.1 85.2 24.1 C 85.9 24.1 86.4 23.9 86.8 23.4 C 86.8 23.4 87.2 23.9 87.2 23.9 C 86.8 24.4 86 24.7 85.2 24.7 C 83.6 24.7 82.4 23.6 82.4 22 C 82.4 20.5 83.5 19.4 85 19.4 C 86.5 19.4 87.6 20.5 87.6 22 C 87.6 22.1 87.6 22.2 87.6 22.3 Z M 83.2 21.7 C 83.2 21.7 86.9 21.7 86.9 21.7 C 86.8 20.7 86 20 85 20 C 84 20 83.2 20.7 83.2 21.7 Z M 91.6 19.4 C 91.6 19.4 91.6 20.1 91.6 20.1 C 91.6 20.1 91.5 20.1 91.5 20.1 C 90.4 20.1 89.7 20.8 89.7 22 C 89.68 22 89.7 24.7 89.7 24.7 L 89 24.7 L 89 19.4 L 89.7 19.4 C 89.7 19.4 89.65 20.45 89.7 20.4 C 90 19.7 90.7 19.4 91.6 19.4 Z M 95.1 22 C 95.1 20.5 96.2 19.4 97.8 19.4 C 99.3 19.4 100.4 20.5 100.4 22 C 100.4 23.6 99.3 24.7 97.8 24.7 C 96.2 24.7 95.1 23.6 95.1 22 Z M 99.7 22 C 99.7 20.8 98.9 20 97.8 20 C 96.6 20 95.8 20.8 95.8 22 C 95.8 23.3 96.6 24.1 97.8 24.1 C 98.9 24.1 99.7 23.3 99.7 22 Z M 106.7 21.6 C 106.69 21.63 106.7 24.7 106.7 24.7 L 106 24.7 C 106 24.7 105.98 21.7 106 21.7 C 106 20.6 105.4 20 104.4 20 C 103.3 20 102.6 20.7 102.6 21.9 C 102.56 21.92 102.6 24.7 102.6 24.7 L 101.8 24.7 L 101.8 19.4 L 102.5 19.4 C 102.5 19.4 102.53 20.39 102.5 20.4 C 102.9 19.7 103.6 19.4 104.5 19.4 C 105.8 19.4 106.7 20.1 106.7 21.6 Z M 114 24.4 C 113.7 24.6 113.3 24.7 112.9 24.7 C 111.9 24.7 111.4 24.2 111.4 23.2 C 111.36 23.2 111.4 20 111.4 20 L 110.4 20 L 110.4 19.4 L 111.4 19.4 L 111.4 18.3 L 112.1 18.3 L 112.1 19.4 L 113.7 19.4 L 113.7 20 L 112.1 20 C 112.1 20 112.07 23.16 112.1 23.2 C 112.1 23.8 112.4 24.1 113 24.1 C 113.3 24.1 113.6 24 113.8 23.9 C 113.8 23.9 114 24.4 114 24.4 Z M 120 21.6 C 120.03 21.63 120 24.7 120 24.7 L 119.3 24.7 C 119.3 24.7 119.33 21.7 119.3 21.7 C 119.3 20.6 118.7 20 117.7 20 C 116.6 20 115.9 20.7 115.9 21.9 C 115.9 21.92 115.9 24.7 115.9 24.7 L 115.2 24.7 L 115.2 17.3 L 115.9 17.3 C 115.9 17.3 115.9 20.34 115.9 20.3 C 116.3 19.7 117 19.4 117.9 19.4 C 119.2 19.4 120 20.1 120 21.6 Z M 126.5 22.3 C 126.5 22.3 122.1 22.3 122.1 22.3 C 122.2 23.4 123 24.1 124.2 24.1 C 124.8 24.1 125.4 23.9 125.8 23.4 C 125.8 23.4 126.2 23.9 126.2 23.9 C 125.7 24.4 125 24.7 124.2 24.7 C 122.5 24.7 121.4 23.6 121.4 22 C 121.4 20.5 122.5 19.4 124 19.4 C 125.5 19.4 126.5 20.5 126.5 22 C 126.5 22.1 126.5 22.2 126.5 22.3 Z M 122.1 21.7 C 122.1 21.7 125.9 21.7 125.9 21.7 C 125.8 20.7 125 20 124 20 C 123 20 122.2 20.7 122.1 21.7 Z M 135.4 21.6 C 135.45 21.63 135.4 24.7 135.4 24.7 L 134.7 24.7 C 134.7 24.7 134.74 21.7 134.7 21.7 C 134.7 20.6 134.2 20 133.2 20 C 132 20 131.3 20.7 131.3 21.9 C 131.32 21.92 131.3 24.7 131.3 24.7 L 130.6 24.7 L 130.6 19.4 L 131.3 19.4 C 131.3 19.4 131.29 20.39 131.3 20.4 C 131.7 19.7 132.4 19.4 133.3 19.4 C 134.6 19.4 135.4 20.1 135.4 21.6 Z M 137.1 17.8 C 137.1 17.5 137.3 17.3 137.6 17.3 C 137.9 17.3 138.1 17.5 138.1 17.7 C 138.1 18 137.9 18.3 137.6 18.3 C 137.3 18.3 137.1 18 137.1 17.8 Z M 137.2 19.4 L 137.9 19.4 L 137.9 24.7 L 137.2 24.7 L 137.2 19.4 Z M 144.7 19.4 C 144.7 19.4 144.71 24.04 144.7 24 C 144.7 25.9 143.8 26.7 142.1 26.7 C 141.1 26.7 140.2 26.4 139.6 25.9 C 139.6 25.9 140 25.3 140 25.3 C 140.5 25.8 141.3 26 142.1 26 C 143.4 26 144 25.4 144 24.1 C 144 24.1 144 23.5 144 23.5 C 143.6 24.1 142.8 24.5 142 24.5 C 140.5 24.5 139.3 23.4 139.3 21.9 C 139.3 20.4 140.5 19.4 142 19.4 C 142.8 19.4 143.6 19.7 144 20.4 C 144.03 20.43 144 19.4 144 19.4 L 144.7 19.4 Z M 144 21.9 C 144 20.8 143.2 20 142 20 C 140.9 20 140 20.8 140 21.9 C 140 23.1 140.9 23.9 142 23.9 C 143.2 23.9 144 23.1 144 21.9 Z M 151.4 21.6 C 151.42 21.63 151.4 24.7 151.4 24.7 L 150.7 24.7 C 150.7 24.7 150.71 21.7 150.7 21.7 C 150.7 20.6 150.1 20 149.1 20 C 148 20 147.3 20.7 147.3 21.9 C 147.29 21.92 147.3 24.7 147.3 24.7 L 146.6 24.7 L 146.6 17.3 L 147.3 17.3 C 147.3 17.3 147.29 20.34 147.3 20.3 C 147.7 19.7 148.4 19.4 149.3 19.4 C 150.5 19.4 151.4 20.1 151.4 21.6 Z M 155.9 24.4 C 155.7 24.6 155.2 24.7 154.8 24.7 C 153.8 24.7 153.3 24.2 153.3 23.2 C 153.3 23.2 153.3 20 153.3 20 L 152.4 20 L 152.4 19.4 L 153.3 19.4 L 153.3 18.3 L 154 18.3 L 154 19.4 L 155.6 19.4 L 155.6 20 L 154 20 C 154 20 154.01 23.16 154 23.2 C 154 23.8 154.3 24.1 154.9 24.1 C 155.2 24.1 155.5 24 155.7 23.9 C 155.7 23.9 155.9 24.4 155.9 24.4 Z M 159.1 24.1 C 159.1 24.1 159.4 23.5 159.4 23.5 C 159.9 23.9 160.6 24.1 161.3 24.1 C 162.3 24.1 162.7 23.8 162.7 23.3 C 162.7 21.9 159.3 23 159.3 20.9 C 159.3 20 160.1 19.4 161.4 19.4 C 162.1 19.4 162.8 19.6 163.3 19.9 C 163.3 19.9 162.9 20.4 162.9 20.4 C 162.5 20.1 161.9 20 161.4 20 C 160.4 20 160 20.4 160 20.9 C 160 22.3 163.4 21.2 163.4 23.2 C 163.4 24.1 162.6 24.7 161.3 24.7 C 160.4 24.7 159.6 24.4 159.1 24.1 Z M 169.6 21.6 C 169.59 21.63 169.6 24.7 169.6 24.7 L 168.9 24.7 C 168.9 24.7 168.88 21.7 168.9 21.7 C 168.9 20.6 168.3 20 167.3 20 C 166.2 20 165.5 20.7 165.5 21.9 C 165.46 21.92 165.5 24.7 165.5 24.7 L 164.8 24.7 L 164.8 17.3 L 165.5 17.3 C 165.5 17.3 165.46 20.34 165.5 20.3 C 165.8 19.7 166.5 19.4 167.4 19.4 C 168.7 19.4 169.6 20.1 169.6 21.6 Z M 171.2 17.8 C 171.2 17.5 171.4 17.3 171.7 17.3 C 172 17.3 172.3 17.5 172.3 17.7 C 172.3 18 172 18.3 171.7 18.3 C 171.4 18.3 171.2 18 171.2 17.8 Z M 171.4 19.4 L 172.1 19.4 L 172.1 24.7 L 171.4 24.7 L 171.4 19.4 Z M 174.8 18.8 C 174.83 18.8 174.8 19.4 174.8 19.4 L 176.4 19.4 L 176.4 20 L 174.8 20 L 174.8 24.7 L 174.1 24.7 L 174.1 20 L 173.2 20 L 173.2 19.4 L 174.1 19.4 C 174.1 19.4 174.14 18.77 174.1 18.8 C 174.1 17.8 174.7 17.2 175.7 17.2 C 176.1 17.2 176.5 17.3 176.8 17.5 C 176.8 17.5 176.5 18.1 176.5 18.1 C 176.3 17.9 176.1 17.8 175.8 17.8 C 175.1 17.8 174.8 18.1 174.8 18.8 Z M 180.6 24.4 C 180.4 24.6 179.9 24.7 179.5 24.7 C 178.5 24.7 178 24.2 178 23.2 C 177.98 23.2 178 20 178 20 L 177 20 L 177 19.4 L 178 19.4 L 178 18.3 L 178.7 18.3 L 178.7 19.4 L 180.3 19.4 L 180.3 20 L 178.7 20 C 178.7 20 178.69 23.16 178.7 23.2 C 178.7 23.8 179 24.1 179.6 24.1 C 179.9 24.1 180.2 24 180.4 23.9 C 180.4 23.9 180.6 24.4 180.6 24.4 Z M 181.6 19.9 C 181.6 19.6 181.8 19.4 182.1 19.4 C 182.4 19.4 182.7 19.6 182.7 19.9 C 182.7 20.2 182.4 20.5 182.1 20.5 C 181.8 20.5 181.6 20.2 181.6 19.9 Z M 182.7 24.2 C 182.7 24.3 182.6 24.5 182.5 24.8 C 182.54 24.76 182.1 26.1 182.1 26.1 L 181.6 26.1 C 181.6 26.1 181.98 24.69 182 24.7 C 181.8 24.6 181.6 24.4 181.6 24.2 C 181.6 23.9 181.8 23.6 182.1 23.6 C 182.5 23.6 182.7 23.9 182.7 24.2 Z " stroke="none" fill="#323132"/>
  </g>
  <g id="Polygon122989">
    <path d="M 20.4 22 L 16.2 24.1 L 16.2 19.9 L 20.4 22 Z " stroke="none" fill="#a243ff"/>
  </g>
</svg>