<?xml version="1.0" standalone="no"?>
<!DOCTYPE svg PUBLIC "-//W3C//DTD SVG 1.1//EN" "http://www.w3.org/Graphics/SVG/1.1/DTD/svg11.dtd">
<svg xmlns="http://www.w3.org/2000/svg" version="1.1" width="38px" height="20.5px" viewBox="0 -2 38 20.5" style="top:-2px">
  <desc>More</desc>
  <defs/>
  <g id="Polygon113177">
    <path d="M 8.4 2.7 L 8.4 9.7 L 7.7 9.7 L 7.7 4.1 L 5 8.8 L 4.6 8.8 L 1.8 4.1 L 1.8 9.7 L 1.1 9.7 L 1.1 2.7 L 1.7 2.7 L 4.8 7.9 L 7.8 2.7 L 8.4 2.7 Z M 10 7 C 10 5.5 11.2 4.4 12.7 4.4 C 14.3 4.4 15.4 5.5 15.4 7 C 15.4 8.6 14.3 9.7 12.7 9.7 C 11.2 9.7 10 8.6 10 7 Z M 14.7 7 C 14.7 5.8 13.8 5 12.7 5 C 11.6 5 10.8 5.8 10.8 7 C 10.8 8.3 11.6 9.1 12.7 9.1 C 13.8 9.1 14.7 8.3 14.7 7 Z M 19.5 4.4 C 19.5 4.4 19.5 5.1 19.5 5.1 C 19.4 5.1 19.3 5.1 19.3 5.1 C 18.2 5.1 17.5 5.8 17.5 7 C 17.52 7 17.5 9.7 17.5 9.7 L 16.8 9.7 L 16.8 4.4 L 17.5 4.4 C 17.5 4.4 17.49 5.45 17.5 5.4 C 17.8 4.7 18.5 4.4 19.5 4.4 Z M 25.2 7.3 C 25.2 7.3 20.8 7.3 20.8 7.3 C 20.9 8.4 21.7 9.1 22.9 9.1 C 23.5 9.1 24.1 8.9 24.5 8.4 C 24.5 8.4 24.9 8.9 24.9 8.9 C 24.4 9.4 23.7 9.7 22.8 9.7 C 21.2 9.7 20.1 8.6 20.1 7 C 20.1 5.5 21.2 4.4 22.7 4.4 C 24.1 4.4 25.2 5.5 25.2 7 C 25.2 7.1 25.2 7.2 25.2 7.3 Z M 20.8 6.7 C 20.8 6.7 24.5 6.7 24.5 6.7 C 24.4 5.7 23.7 5 22.7 5 C 21.6 5 20.9 5.7 20.8 6.7 Z " stroke="none" fill="#3127a4"/>
  </g>
</svg>