<?xml version="1.0" standalone="no"?>
<!DOCTYPE svg PUBLIC "-//W3C//DTD SVG 1.1//EN" "http://www.w3.org/Graphics/SVG/1.1/DTD/svg11.dtd">
<svg xmlns="http://www.w3.org/2000/svg" version="1.1" width="492px" height="97.8px" viewBox="0 0 492 97.8">
  <desc>Control design Anthropometric data should be used to determine appropriate dimensions for controls and the controls s...</desc>
  <defs/>
  <g id="Polygon118128">
    <path d="M 12.3 70.1 C 12.3 71.7 11.2 72.7 9.7 72.7 C 8.9 72.7 8.1 72.4 7.7 71.7 C 7.7 71.69 7.7 74.6 7.7 74.6 L 7 74.6 L 7 67.4 L 7.7 67.4 C 7.7 67.4 7.67 68.46 7.7 68.5 C 8.1 67.8 8.8 67.4 9.7 67.4 C 11.2 67.4 12.3 68.5 12.3 70.1 Z M 11.6 70 C 11.6 68.8 10.8 68 9.6 68 C 8.5 68 7.7 68.8 7.7 70 C 7.7 71.3 8.5 72.1 9.6 72.1 C 10.8 72.1 11.6 71.3 11.6 70 Z M 16.4 67.4 C 16.4 67.4 16.4 68.1 16.4 68.1 C 16.4 68.1 16.3 68.1 16.2 68.1 C 15.1 68.1 14.5 68.8 14.5 70 C 14.47 70 14.5 72.7 14.5 72.7 L 13.8 72.7 L 13.8 67.4 L 14.4 67.4 C 14.4 67.4 14.44 68.45 14.4 68.4 C 14.8 67.7 15.4 67.4 16.4 67.4 Z M 22.2 70.3 C 22.2 70.3 17.8 70.3 17.8 70.3 C 17.8 71.4 18.7 72.1 19.8 72.1 C 20.5 72.1 21 71.9 21.4 71.4 C 21.4 71.4 21.8 71.9 21.8 71.9 C 21.4 72.4 20.6 72.7 19.8 72.7 C 18.2 72.7 17 71.6 17 70 C 17 68.5 18.1 67.4 19.6 67.4 C 21.1 67.4 22.2 68.5 22.2 70 C 22.2 70.1 22.2 70.2 22.2 70.3 Z M 17.8 69.7 C 17.8 69.7 21.5 69.7 21.5 69.7 C 21.4 68.7 20.6 68 19.6 68 C 18.6 68 17.8 68.7 17.8 69.7 Z M 23 72.1 C 23 72.1 23.3 71.5 23.3 71.5 C 23.7 71.9 24.4 72.1 25.1 72.1 C 26.1 72.1 26.6 71.8 26.6 71.3 C 26.6 69.9 23.1 71 23.1 68.9 C 23.1 68 23.9 67.4 25.2 67.4 C 25.9 67.4 26.6 67.6 27.1 67.9 C 27.1 67.9 26.8 68.4 26.8 68.4 C 26.3 68.1 25.8 68 25.2 68 C 24.3 68 23.9 68.4 23.9 68.9 C 23.9 70.3 27.3 69.2 27.3 71.2 C 27.3 72.1 26.5 72.7 25.1 72.7 C 24.2 72.7 23.4 72.4 23 72.1 Z M 28 72.1 C 28 72.1 28.3 71.5 28.3 71.5 C 28.8 71.9 29.5 72.1 30.2 72.1 C 31.2 72.1 31.6 71.8 31.6 71.3 C 31.6 69.9 28.2 71 28.2 68.9 C 28.2 68 28.9 67.4 30.3 67.4 C 31 67.4 31.7 67.6 32.1 67.9 C 32.1 67.9 31.8 68.4 31.8 68.4 C 31.4 68.1 30.8 68 30.3 68 C 29.3 68 28.9 68.4 28.9 68.9 C 28.9 70.3 32.3 69.2 32.3 71.2 C 32.3 72.1 31.5 72.7 30.2 72.7 C 29.3 72.7 28.4 72.4 28 72.1 Z M 38.3 67.4 L 38.3 72.7 L 37.7 72.7 C 37.7 72.7 37.66 71.72 37.7 71.7 C 37.3 72.4 36.6 72.7 35.8 72.7 C 34.4 72.7 33.5 72 33.5 70.5 C 33.55 70.47 33.5 67.4 33.5 67.4 L 34.3 67.4 C 34.3 67.4 34.26 70.4 34.3 70.4 C 34.3 71.5 34.8 72.1 35.8 72.1 C 36.9 72.1 37.6 71.4 37.6 70.2 C 37.63 70.18 37.6 67.4 37.6 67.4 L 38.3 67.4 Z M 42.8 67.4 C 42.8 67.4 42.8 68.1 42.8 68.1 C 42.8 68.1 42.7 68.1 42.7 68.1 C 41.6 68.1 40.9 68.8 40.9 70 C 40.91 70 40.9 72.7 40.9 72.7 L 40.2 72.7 L 40.2 67.4 L 40.9 67.4 C 40.9 67.4 40.88 68.45 40.9 68.4 C 41.2 67.7 41.9 67.4 42.8 67.4 Z M 48.6 70.3 C 48.6 70.3 44.2 70.3 44.2 70.3 C 44.3 71.4 45.1 72.1 46.3 72.1 C 46.9 72.1 47.5 71.9 47.9 71.4 C 47.9 71.4 48.3 71.9 48.3 71.9 C 47.8 72.4 47.1 72.7 46.2 72.7 C 44.6 72.7 43.5 71.6 43.5 70 C 43.5 68.5 44.6 67.4 46.1 67.4 C 47.5 67.4 48.6 68.5 48.6 70 C 48.6 70.1 48.6 70.2 48.6 70.3 Z M 44.2 69.7 C 44.2 69.7 47.9 69.7 47.9 69.7 C 47.8 68.7 47.1 68 46.1 68 C 45 68 44.3 68.7 44.2 69.7 Z M 52.1 70 C 52.1 68.5 53.3 67.4 54.8 67.4 C 56.4 67.4 57.5 68.5 57.5 70 C 57.5 71.6 56.4 72.7 54.8 72.7 C 53.3 72.7 52.1 71.6 52.1 70 Z M 56.8 70 C 56.8 68.8 55.9 68 54.8 68 C 53.7 68 52.9 68.8 52.9 70 C 52.9 71.3 53.7 72.1 54.8 72.1 C 55.9 72.1 56.8 71.3 56.8 70 Z M 63.8 69.6 C 63.76 69.63 63.8 72.7 63.8 72.7 L 63 72.7 C 63 72.7 63.05 69.7 63 69.7 C 63 68.6 62.5 68 61.5 68 C 60.3 68 59.6 68.7 59.6 69.9 C 59.63 69.92 59.6 72.7 59.6 72.7 L 58.9 72.7 L 58.9 67.4 L 59.6 67.4 C 59.6 67.4 59.6 68.39 59.6 68.4 C 60 67.7 60.7 67.4 61.6 67.4 C 62.9 67.4 63.8 68.1 63.8 69.6 Z M 73.6 70 C 73.6 71.6 72.5 72.7 71 72.7 C 70.1 72.7 69.4 72.3 69 71.6 C 68.99 71.64 69 72.7 69 72.7 L 68.3 72.7 L 68.3 65.3 L 69 65.3 C 69 65.3 69.02 68.42 69 68.4 C 69.5 67.7 70.2 67.4 71 67.4 C 72.5 67.4 73.6 68.5 73.6 70 Z M 72.9 70 C 72.9 68.8 72.1 68 71 68 C 69.8 68 69 68.8 69 70 C 69 71.3 69.8 72.1 71 72.1 C 72.1 72.1 72.9 71.3 72.9 70 Z M 74.6 70 C 74.6 68.5 75.8 67.4 77.3 67.4 C 78.9 67.4 80 68.5 80 70 C 80 71.6 78.9 72.7 77.3 72.7 C 75.8 72.7 74.6 71.6 74.6 70 Z M 79.3 70 C 79.3 68.8 78.4 68 77.3 68 C 76.2 68 75.4 68.8 75.4 70 C 75.4 71.3 76.2 72.1 77.3 72.1 C 78.4 72.1 79.3 71.3 79.3 70 Z M 86.3 65.3 L 86.3 72.7 L 85.7 72.7 C 85.7 72.7 85.65 71.64 85.7 71.6 C 85.2 72.3 84.5 72.7 83.6 72.7 C 82.1 72.7 81 71.6 81 70 C 81 68.5 82.1 67.4 83.6 67.4 C 84.5 67.4 85.2 67.7 85.6 68.4 C 85.62 68.42 85.6 65.3 85.6 65.3 L 86.3 65.3 Z M 85.6 70 C 85.6 68.8 84.8 68 83.7 68 C 82.6 68 81.7 68.8 81.7 70 C 81.7 71.3 82.6 72.1 83.7 72.1 C 84.8 72.1 85.6 71.3 85.6 70 Z M 92.8 67.4 C 92.8 67.4 90.15 73.31 90.1 73.3 C 89.7 74.3 89.1 74.7 88.4 74.7 C 87.9 74.7 87.4 74.5 87.1 74.2 C 87.1 74.2 87.4 73.7 87.4 73.7 C 87.7 73.9 88 74.1 88.4 74.1 C 88.9 74.1 89.2 73.8 89.5 73.2 C 89.5 73.18 89.7 72.7 89.7 72.7 L 87.4 67.4 L 88.1 67.4 L 90.1 71.9 L 92.1 67.4 L 92.8 67.4 Z M 101.7 70.1 C 101.7 71.7 100.6 72.7 99.1 72.7 C 98.3 72.7 97.5 72.4 97.1 71.7 C 97.11 71.69 97.1 74.6 97.1 74.6 L 96.4 74.6 L 96.4 67.4 L 97.1 67.4 C 97.1 67.4 97.08 68.46 97.1 68.5 C 97.5 67.8 98.2 67.4 99.1 67.4 C 100.6 67.4 101.7 68.5 101.7 70.1 Z M 101 70 C 101 68.8 100.2 68 99.1 68 C 97.9 68 97.1 68.8 97.1 70 C 97.1 71.3 97.9 72.1 99.1 72.1 C 100.2 72.1 101 71.3 101 70 Z M 107.1 69.4 C 107.14 69.42 107.1 72.7 107.1 72.7 L 106.5 72.7 C 106.5 72.7 106.46 71.86 106.5 71.9 C 106.1 72.4 105.5 72.7 104.7 72.7 C 103.5 72.7 102.7 72.1 102.7 71.2 C 102.7 70.4 103.3 69.7 104.8 69.7 C 104.76 69.71 106.4 69.7 106.4 69.7 C 106.4 69.7 106.43 69.39 106.4 69.4 C 106.4 68.5 105.9 68 104.9 68 C 104.3 68 103.6 68.2 103.2 68.6 C 103.2 68.6 102.9 68.1 102.9 68.1 C 103.4 67.6 104.2 67.4 105 67.4 C 106.4 67.4 107.1 68.1 107.1 69.4 Z M 106.4 71.1 C 106.43 71.1 106.4 70.2 106.4 70.2 C 106.4 70.2 104.78 70.24 104.8 70.2 C 103.8 70.2 103.4 70.6 103.4 71.2 C 103.4 71.8 103.9 72.2 104.8 72.2 C 105.6 72.2 106.2 71.8 106.4 71.1 Z M 111.6 67.4 C 111.6 67.4 111.6 68.1 111.6 68.1 C 111.5 68.1 111.5 68.1 111.4 68.1 C 110.3 68.1 109.7 68.8 109.7 70 C 109.67 70 109.7 72.7 109.7 72.7 L 109 72.7 L 109 67.4 L 109.6 67.4 C 109.6 67.4 109.64 68.45 109.6 68.4 C 110 67.7 110.6 67.4 111.6 67.4 Z M 116 72.4 C 115.7 72.6 115.3 72.7 114.9 72.7 C 113.9 72.7 113.3 72.2 113.3 71.2 C 113.35 71.2 113.3 68 113.3 68 L 112.4 68 L 112.4 67.4 L 113.3 67.4 L 113.3 66.3 L 114.1 66.3 L 114.1 67.4 L 115.7 67.4 L 115.7 68 L 114.1 68 C 114.1 68 114.06 71.16 114.1 71.2 C 114.1 71.8 114.4 72.1 115 72.1 C 115.3 72.1 115.5 72 115.7 71.9 C 115.7 71.9 116 72.4 116 72.4 Z M 116.8 72.1 C 116.8 72.1 117.1 71.5 117.1 71.5 C 117.5 71.9 118.2 72.1 119 72.1 C 120 72.1 120.4 71.8 120.4 71.3 C 120.4 69.9 117 71 117 68.9 C 117 68 117.7 67.4 119.1 67.4 C 119.7 67.4 120.5 67.6 120.9 67.9 C 120.9 67.9 120.6 68.4 120.6 68.4 C 120.1 68.1 119.6 68 119.1 68 C 118.1 68 117.7 68.4 117.7 68.9 C 117.7 70.3 121.1 69.2 121.1 71.2 C 121.1 72.1 120.3 72.7 118.9 72.7 C 118.1 72.7 117.2 72.4 116.8 72.1 Z M 122.2 72.2 C 122.2 71.9 122.4 71.6 122.7 71.6 C 123 71.6 123.3 71.9 123.3 72.2 C 123.3 72.5 123 72.7 122.7 72.7 C 122.4 72.7 122.2 72.5 122.2 72.2 Z M 128.9 66.3 L 126.5 66.3 L 126.5 65.7 L 132.1 65.7 L 132.1 66.3 L 129.7 66.3 L 129.7 72.7 L 128.9 72.7 L 128.9 66.3 Z M 138 69.6 C 138.05 69.63 138 72.7 138 72.7 L 137.3 72.7 C 137.3 72.7 137.34 69.7 137.3 69.7 C 137.3 68.6 136.8 68 135.8 68 C 134.6 68 133.9 68.7 133.9 69.9 C 133.92 69.92 133.9 72.7 133.9 72.7 L 133.2 72.7 L 133.2 65.3 L 133.9 65.3 C 133.9 65.3 133.92 68.34 133.9 68.3 C 134.3 67.7 135 67.4 135.9 67.4 C 137.2 67.4 138 68.1 138 69.6 Z M 144.5 70.3 C 144.5 70.3 140.1 70.3 140.1 70.3 C 140.2 71.4 141.1 72.1 142.2 72.1 C 142.8 72.1 143.4 71.9 143.8 71.4 C 143.8 71.4 144.2 71.9 144.2 71.9 C 143.7 72.4 143 72.7 142.2 72.7 C 140.5 72.7 139.4 71.6 139.4 70 C 139.4 68.5 140.5 67.4 142 67.4 C 143.5 67.4 144.5 68.5 144.5 70 C 144.5 70.1 144.5 70.2 144.5 70.3 Z M 140.1 69.7 C 140.1 69.7 143.9 69.7 143.9 69.7 C 143.8 68.7 143 68 142 68 C 141 68 140.2 68.7 140.1 69.7 Z M 149.4 66.8 C 149.43 66.8 149.4 67.4 149.4 67.4 L 151 67.4 L 151 68 L 149.4 68 L 149.4 72.7 L 148.7 72.7 L 148.7 68 L 147.8 68 L 147.8 67.4 L 148.7 67.4 C 148.7 67.4 148.74 66.77 148.7 66.8 C 148.7 65.8 149.3 65.2 150.3 65.2 C 150.7 65.2 151.1 65.3 151.4 65.5 C 151.4 65.5 151.1 66.1 151.1 66.1 C 150.9 65.9 150.7 65.8 150.4 65.8 C 149.7 65.8 149.4 66.1 149.4 66.8 Z M 151.5 70 C 151.5 68.5 152.6 67.4 154.1 67.4 C 155.7 67.4 156.8 68.5 156.8 70 C 156.8 71.6 155.7 72.7 154.1 72.7 C 152.6 72.7 151.5 71.6 151.5 70 Z M 156.1 70 C 156.1 68.8 155.3 68 154.1 68 C 153 68 152.2 68.8 152.2 70 C 152.2 71.3 153 72.1 154.1 72.1 C 155.3 72.1 156.1 71.3 156.1 70 Z M 158.2 65.3 L 159 65.3 L 159 72.7 L 158.2 72.7 L 158.2 65.3 Z M 160.8 65.3 L 161.5 65.3 L 161.5 72.7 L 160.8 72.7 L 160.8 65.3 Z M 162.9 70 C 162.9 68.5 164.1 67.4 165.6 67.4 C 167.2 67.4 168.3 68.5 168.3 70 C 168.3 71.6 167.2 72.7 165.6 72.7 C 164.1 72.7 162.9 71.6 162.9 70 Z M 167.6 70 C 167.6 68.8 166.7 68 165.6 68 C 164.5 68 163.6 68.8 163.6 70 C 163.6 71.3 164.5 72.1 165.6 72.1 C 166.7 72.1 167.6 71.3 167.6 70 Z M 177.4 67.4 L 175.4 72.7 L 174.7 72.7 L 173.1 68.4 L 171.4 72.7 L 170.7 72.7 L 168.8 67.4 L 169.4 67.4 L 171.1 71.9 L 172.8 67.4 L 173.4 67.4 L 175.1 71.9 L 176.7 67.4 L 177.4 67.4 Z M 178.3 65.8 C 178.3 65.5 178.6 65.3 178.8 65.3 C 179.1 65.3 179.4 65.5 179.4 65.7 C 179.4 66 179.1 66.3 178.8 66.3 C 178.6 66.3 178.3 66 178.3 65.8 Z M 178.5 67.4 L 179.2 67.4 L 179.2 72.7 L 178.5 72.7 L 178.5 67.4 Z M 185.9 69.6 C 185.88 69.63 185.9 72.7 185.9 72.7 L 185.2 72.7 C 185.2 72.7 185.17 69.7 185.2 69.7 C 185.2 68.6 184.6 68 183.6 68 C 182.5 68 181.7 68.7 181.7 69.9 C 181.75 69.92 181.7 72.7 181.7 72.7 L 181 72.7 L 181 67.4 L 181.7 67.4 C 181.7 67.4 181.72 68.39 181.7 68.4 C 182.1 67.7 182.8 67.4 183.7 67.4 C 185 67.4 185.9 68.1 185.9 69.6 Z M 192.6 67.4 C 192.6 67.4 192.64 72.04 192.6 72 C 192.6 73.9 191.8 74.7 190 74.7 C 189.1 74.7 188.1 74.4 187.6 73.9 C 187.6 73.9 187.9 73.3 187.9 73.3 C 188.4 73.8 189.2 74 190 74 C 191.3 74 191.9 73.4 191.9 72.1 C 191.9 72.1 191.9 71.5 191.9 71.5 C 191.5 72.1 190.7 72.5 189.9 72.5 C 188.4 72.5 187.2 71.4 187.2 69.9 C 187.2 68.4 188.4 67.4 189.9 67.4 C 190.8 67.4 191.5 67.7 192 68.4 C 191.96 68.43 192 67.4 192 67.4 L 192.6 67.4 Z M 192 69.9 C 192 68.8 191.1 68 190 68 C 188.8 68 188 68.8 188 69.9 C 188 71.1 188.8 71.9 190 71.9 C 191.1 71.9 192 71.1 192 69.9 Z M 201.7 67.4 L 199.3 72.7 L 198.6 72.7 L 196.3 67.4 L 197 67.4 L 199 71.9 L 201 67.4 L 201.7 67.4 Z M 206.7 69.4 C 206.73 69.42 206.7 72.7 206.7 72.7 L 206 72.7 C 206 72.7 206.05 71.86 206 71.9 C 205.7 72.4 205.1 72.7 204.2 72.7 C 203 72.7 202.3 72.1 202.3 71.2 C 202.3 70.4 202.8 69.7 204.3 69.7 C 204.35 69.71 206 69.7 206 69.7 C 206 69.7 206.02 69.39 206 69.4 C 206 68.5 205.5 68 204.5 68 C 203.8 68 203.2 68.2 202.8 68.6 C 202.8 68.6 202.5 68.1 202.5 68.1 C 203 67.6 203.8 67.4 204.6 67.4 C 206 67.4 206.7 68.1 206.7 69.4 Z M 206 71.1 C 206.02 71.1 206 70.2 206 70.2 C 206 70.2 204.37 70.24 204.4 70.2 C 203.3 70.2 203 70.6 203 71.2 C 203 71.8 203.5 72.2 204.3 72.2 C 205.1 72.2 205.7 71.8 206 71.1 Z M 211.2 67.4 C 211.2 67.4 211.2 68.1 211.2 68.1 C 211.1 68.1 211.1 68.1 211 68.1 C 209.9 68.1 209.2 68.8 209.2 70 C 209.25 70 209.2 72.7 209.2 72.7 L 208.5 72.7 L 208.5 67.4 L 209.2 67.4 C 209.2 67.4 209.22 68.45 209.2 68.4 C 209.5 67.7 210.2 67.4 211.2 67.4 Z M 212.3 65.8 C 212.3 65.5 212.5 65.3 212.8 65.3 C 213.1 65.3 213.3 65.5 213.3 65.7 C 213.3 66 213.1 66.3 212.8 66.3 C 212.5 66.3 212.3 66 212.3 65.8 Z M 212.4 67.4 L 213.1 67.4 L 213.1 72.7 L 212.4 72.7 L 212.4 67.4 Z M 219 69.4 C 219 69.42 219 72.7 219 72.7 L 218.3 72.7 C 218.3 72.7 218.32 71.86 218.3 71.9 C 218 72.4 217.4 72.7 216.5 72.7 C 215.3 72.7 214.6 72.1 214.6 71.2 C 214.6 70.4 215.1 69.7 216.6 69.7 C 216.62 69.71 218.3 69.7 218.3 69.7 C 218.3 69.7 218.29 69.39 218.3 69.4 C 218.3 68.5 217.8 68 216.8 68 C 216.1 68 215.5 68.2 215 68.6 C 215 68.6 214.7 68.1 214.7 68.1 C 215.3 67.6 216 67.4 216.9 67.4 C 218.2 67.4 219 68.1 219 69.4 Z M 218.3 71.1 C 218.29 71.1 218.3 70.2 218.3 70.2 C 218.3 70.2 216.64 70.24 216.6 70.2 C 215.6 70.2 215.3 70.6 215.3 71.2 C 215.3 71.8 215.8 72.2 216.6 72.2 C 217.4 72.2 218 71.8 218.3 71.1 Z M 226.1 70 C 226.1 71.6 225 72.7 223.5 72.7 C 222.7 72.7 221.9 72.3 221.5 71.6 C 221.49 71.64 221.5 72.7 221.5 72.7 L 220.8 72.7 L 220.8 65.3 L 221.5 65.3 C 221.5 65.3 221.52 68.42 221.5 68.4 C 222 67.7 222.7 67.4 223.5 67.4 C 225 67.4 226.1 68.5 226.1 70 Z M 225.4 70 C 225.4 68.8 224.6 68 223.5 68 C 222.4 68 221.5 68.8 221.5 70 C 221.5 71.3 222.4 72.1 223.5 72.1 C 224.6 72.1 225.4 71.3 225.4 70 Z M 227.6 65.3 L 228.3 65.3 L 228.3 72.7 L 227.6 72.7 L 227.6 65.3 Z M 234.8 70.3 C 234.8 70.3 230.4 70.3 230.4 70.3 C 230.5 71.4 231.4 72.1 232.5 72.1 C 233.1 72.1 233.7 71.9 234.1 71.4 C 234.1 71.4 234.5 71.9 234.5 71.9 C 234 72.4 233.3 72.7 232.5 72.7 C 230.8 72.7 229.7 71.6 229.7 70 C 229.7 68.5 230.8 67.4 232.3 67.4 C 233.8 67.4 234.8 68.5 234.8 70 C 234.8 70.1 234.8 70.2 234.8 70.3 Z M 230.4 69.7 C 230.4 69.7 234.2 69.7 234.2 69.7 C 234.1 68.7 233.3 68 232.3 68 C 231.3 68 230.5 68.7 230.4 69.7 Z M 235.6 72.1 C 235.6 72.1 236 71.5 236 71.5 C 236.4 71.9 237.1 72.1 237.8 72.1 C 238.8 72.1 239.2 71.8 239.2 71.3 C 239.2 69.9 235.8 71 235.8 68.9 C 235.8 68 236.6 67.4 237.9 67.4 C 238.6 67.4 239.3 67.6 239.8 67.9 C 239.8 67.9 239.5 68.4 239.5 68.4 C 239 68.1 238.5 68 237.9 68 C 237 68 236.5 68.4 236.5 68.9 C 236.5 70.3 240 69.2 240 71.2 C 240 72.1 239.2 72.7 237.8 72.7 C 236.9 72.7 236.1 72.4 235.6 72.1 Z M 243.2 72.1 C 243.2 72.1 243.5 71.5 243.5 71.5 C 243.9 71.9 244.6 72.1 245.3 72.1 C 246.3 72.1 246.8 71.8 246.8 71.3 C 246.8 69.9 243.3 71 243.3 68.9 C 243.3 68 244.1 67.4 245.4 67.4 C 246.1 67.4 246.8 67.6 247.3 67.9 C 247.3 67.9 247 68.4 247 68.4 C 246.5 68.1 246 68 245.4 68 C 244.5 68 244.1 68.4 244.1 68.9 C 244.1 70.3 247.5 69.2 247.5 71.2 C 247.5 72.1 246.7 72.7 245.3 72.7 C 244.4 72.7 243.6 72.4 243.2 72.1 Z M 253.6 69.6 C 253.61 69.63 253.6 72.7 253.6 72.7 L 252.9 72.7 C 252.9 72.7 252.91 69.7 252.9 69.7 C 252.9 68.6 252.3 68 251.3 68 C 250.2 68 249.5 68.7 249.5 69.9 C 249.48 69.92 249.5 72.7 249.5 72.7 L 248.8 72.7 L 248.8 65.3 L 249.5 65.3 C 249.5 65.3 249.48 68.34 249.5 68.3 C 249.9 67.7 250.6 67.4 251.5 67.4 C 252.7 67.4 253.6 68.1 253.6 69.6 Z M 255 70 C 255 68.5 256.1 67.4 257.7 67.4 C 259.2 67.4 260.3 68.5 260.3 70 C 260.3 71.6 259.2 72.7 257.7 72.7 C 256.1 72.7 255 71.6 255 70 Z M 259.6 70 C 259.6 68.8 258.8 68 257.7 68 C 256.6 68 255.7 68.8 255.7 70 C 255.7 71.3 256.6 72.1 257.7 72.1 C 258.8 72.1 259.6 71.3 259.6 70 Z M 266.5 67.4 L 266.5 72.7 L 265.8 72.7 C 265.8 72.7 265.82 71.72 265.8 71.7 C 265.5 72.4 264.8 72.7 263.9 72.7 C 262.6 72.7 261.7 72 261.7 70.5 C 261.71 70.47 261.7 67.4 261.7 67.4 L 262.4 67.4 C 262.4 67.4 262.42 70.4 262.4 70.4 C 262.4 71.5 263 72.1 264 72.1 C 265.1 72.1 265.8 71.4 265.8 70.2 C 265.79 70.18 265.8 67.4 265.8 67.4 L 266.5 67.4 Z M 268.4 65.3 L 269.1 65.3 L 269.1 72.7 L 268.4 72.7 L 268.4 65.3 Z M 275.8 65.3 L 275.8 72.7 L 275.2 72.7 C 275.2 72.7 275.16 71.64 275.2 71.6 C 274.7 72.3 274 72.7 273.1 72.7 C 271.6 72.7 270.5 71.6 270.5 70 C 270.5 68.5 271.6 67.4 273.1 67.4 C 274 67.4 274.7 67.7 275.1 68.4 C 275.13 68.42 275.1 65.3 275.1 65.3 L 275.8 65.3 Z M 275.1 70 C 275.1 68.8 274.3 68 273.2 68 C 272.1 68 271.2 68.8 271.2 70 C 271.2 71.3 272.1 72.1 273.2 72.1 C 274.3 72.1 275.1 71.3 275.1 70 Z M 284.4 69.4 C 284.41 69.42 284.4 72.7 284.4 72.7 L 283.7 72.7 C 283.7 72.7 283.73 71.86 283.7 71.9 C 283.4 72.4 282.8 72.7 281.9 72.7 C 280.7 72.7 280 72.1 280 71.2 C 280 70.4 280.5 69.7 282 69.7 C 282.03 69.71 283.7 69.7 283.7 69.7 C 283.7 69.7 283.7 69.39 283.7 69.4 C 283.7 68.5 283.2 68 282.2 68 C 281.5 68 280.9 68.2 280.5 68.6 C 280.5 68.6 280.1 68.1 280.1 68.1 C 280.7 67.6 281.4 67.4 282.3 67.4 C 283.6 67.4 284.4 68.1 284.4 69.4 Z M 283.7 71.1 C 283.7 71.1 283.7 70.2 283.7 70.2 C 283.7 70.2 282.05 70.24 282 70.2 C 281 70.2 280.7 70.6 280.7 71.2 C 280.7 71.8 281.2 72.2 282 72.2 C 282.8 72.2 283.4 71.8 283.7 71.1 Z M 286.2 65.3 L 286.9 65.3 L 286.9 72.7 L 286.2 72.7 L 286.2 65.3 Z M 288.2 72.1 C 288.2 72.1 288.5 71.5 288.5 71.5 C 289 71.9 289.7 72.1 290.4 72.1 C 291.4 72.1 291.8 71.8 291.8 71.3 C 291.8 69.9 288.4 71 288.4 68.9 C 288.4 68 289.2 67.4 290.5 67.4 C 291.2 67.4 291.9 67.6 292.4 67.9 C 292.4 67.9 292 68.4 292 68.4 C 291.6 68.1 291 68 290.5 68 C 289.5 68 289.1 68.4 289.1 68.9 C 289.1 70.3 292.5 69.2 292.5 71.2 C 292.5 72.1 291.7 72.7 290.4 72.7 C 289.5 72.7 288.7 72.4 288.2 72.1 Z M 293.4 70 C 293.4 68.5 294.5 67.4 296.1 67.4 C 297.6 67.4 298.8 68.5 298.8 70 C 298.8 71.6 297.6 72.7 296.1 72.7 C 294.5 72.7 293.4 71.6 293.4 70 Z M 298 70 C 298 68.8 297.2 68 296.1 68 C 295 68 294.1 68.8 294.1 70 C 294.1 71.3 295 72.1 296.1 72.1 C 297.2 72.1 298 71.3 298 70 Z M 308.2 70 C 308.2 71.6 307 72.7 305.5 72.7 C 304.7 72.7 303.9 72.3 303.5 71.6 C 303.51 71.64 303.5 72.7 303.5 72.7 L 302.8 72.7 L 302.8 65.3 L 303.5 65.3 C 303.5 65.3 303.54 68.42 303.5 68.4 C 304 67.7 304.7 67.4 305.5 67.4 C 307 67.4 308.2 68.5 308.2 70 Z M 307.4 70 C 307.4 68.8 306.6 68 305.5 68 C 304.4 68 303.5 68.8 303.5 70 C 303.5 71.3 304.4 72.1 305.5 72.1 C 306.6 72.1 307.4 71.3 307.4 70 Z M 314.3 70.3 C 314.3 70.3 309.9 70.3 309.9 70.3 C 310 71.4 310.8 72.1 311.9 72.1 C 312.6 72.1 313.2 71.9 313.6 71.4 C 313.6 71.4 314 71.9 314 71.9 C 313.5 72.4 312.8 72.7 311.9 72.7 C 310.3 72.7 309.2 71.6 309.2 70 C 309.2 68.5 310.3 67.4 311.7 67.4 C 313.2 67.4 314.3 68.5 314.3 70 C 314.3 70.1 314.3 70.2 314.3 70.3 Z M 309.9 69.7 C 309.9 69.7 313.6 69.7 313.6 69.7 C 313.5 68.7 312.8 68 311.7 68 C 310.7 68 310 68.7 309.9 69.7 Z M 317.8 70 C 317.8 68.5 319 67.4 320.5 67.4 C 321.4 67.4 322.2 67.7 322.6 68.4 C 322.6 68.4 322.1 68.8 322.1 68.8 C 321.7 68.2 321.1 68 320.5 68 C 319.4 68 318.5 68.8 318.5 70 C 318.5 71.3 319.4 72.1 320.5 72.1 C 321.1 72.1 321.7 71.9 322.1 71.3 C 322.1 71.3 322.6 71.7 322.6 71.7 C 322.2 72.4 321.4 72.7 320.5 72.7 C 319 72.7 317.8 71.6 317.8 70 Z M 323.4 70 C 323.4 68.5 324.5 67.4 326.1 67.4 C 327.6 67.4 328.7 68.5 328.7 70 C 328.7 71.6 327.6 72.7 326.1 72.7 C 324.5 72.7 323.4 71.6 323.4 70 Z M 328 70 C 328 68.8 327.2 68 326.1 68 C 324.9 68 324.1 68.8 324.1 70 C 324.1 71.3 324.9 72.1 326.1 72.1 C 327.2 72.1 328 71.3 328 70 Z M 335 69.6 C 335 69.63 335 72.7 335 72.7 L 334.3 72.7 C 334.3 72.7 334.29 69.7 334.3 69.7 C 334.3 68.6 333.7 68 332.7 68 C 331.6 68 330.9 68.7 330.9 69.9 C 330.87 69.92 330.9 72.7 330.9 72.7 L 330.2 72.7 L 330.2 67.4 L 330.8 67.4 C 330.8 67.4 330.84 68.39 330.8 68.4 C 331.2 67.7 331.9 67.4 332.8 67.4 C 334.1 67.4 335 68.1 335 69.6 Z M 336.2 72.1 C 336.2 72.1 336.5 71.5 336.5 71.5 C 337 71.9 337.7 72.1 338.4 72.1 C 339.4 72.1 339.8 71.8 339.8 71.3 C 339.8 69.9 336.4 71 336.4 68.9 C 336.4 68 337.1 67.4 338.5 67.4 C 339.2 67.4 339.9 67.6 340.3 67.9 C 340.3 67.9 340 68.4 340 68.4 C 339.6 68.1 339 68 338.5 68 C 337.5 68 337.1 68.4 337.1 68.9 C 337.1 70.3 340.5 69.2 340.5 71.2 C 340.5 72.1 339.7 72.7 338.4 72.7 C 337.5 72.7 336.6 72.4 336.2 72.1 Z M 341.7 65.8 C 341.7 65.5 341.9 65.3 342.2 65.3 C 342.5 65.3 342.7 65.5 342.7 65.7 C 342.7 66 342.5 66.3 342.2 66.3 C 341.9 66.3 341.7 66 341.7 65.8 Z M 341.8 67.4 L 342.5 67.4 L 342.5 72.7 L 341.8 72.7 L 341.8 67.4 Z M 349.3 65.3 L 349.3 72.7 L 348.6 72.7 C 348.6 72.7 348.59 71.64 348.6 71.6 C 348.2 72.3 347.4 72.7 346.6 72.7 C 345.1 72.7 343.9 71.6 343.9 70 C 343.9 68.5 345.1 67.4 346.6 67.4 C 347.4 67.4 348.1 67.7 348.6 68.4 C 348.56 68.42 348.6 65.3 348.6 65.3 L 349.3 65.3 Z M 348.6 70 C 348.6 68.8 347.7 68 346.6 68 C 345.5 68 344.7 68.8 344.7 70 C 344.7 71.3 345.5 72.1 346.6 72.1 C 347.7 72.1 348.6 71.3 348.6 70 Z M 355.8 70.3 C 355.8 70.3 351.4 70.3 351.4 70.3 C 351.5 71.4 352.3 72.1 353.5 72.1 C 354.1 72.1 354.7 71.9 355.1 71.4 C 355.1 71.4 355.5 71.9 355.5 71.9 C 355 72.4 354.3 72.7 353.5 72.7 C 351.8 72.7 350.7 71.6 350.7 70 C 350.7 68.5 351.8 67.4 353.3 67.4 C 354.8 67.4 355.8 68.5 355.8 70 C 355.8 70.1 355.8 70.2 355.8 70.3 Z M 351.4 69.7 C 351.4 69.7 355.2 69.7 355.2 69.7 C 355.1 68.7 354.3 68 353.3 68 C 352.3 68 351.5 68.7 351.4 69.7 Z M 359.9 67.4 C 359.9 67.4 359.9 68.1 359.9 68.1 C 359.8 68.1 359.8 68.1 359.7 68.1 C 358.6 68.1 357.9 68.8 357.9 70 C 357.94 70 357.9 72.7 357.9 72.7 L 357.2 72.7 L 357.2 67.4 L 357.9 67.4 C 357.9 67.4 357.91 68.45 357.9 68.4 C 358.2 67.7 358.9 67.4 359.9 67.4 Z M 365.6 70.3 C 365.6 70.3 361.2 70.3 361.2 70.3 C 361.3 71.4 362.1 72.1 363.3 72.1 C 363.9 72.1 364.5 71.9 364.9 71.4 C 364.9 71.4 365.3 71.9 365.3 71.9 C 364.8 72.4 364.1 72.7 363.3 72.7 C 361.6 72.7 360.5 71.6 360.5 70 C 360.5 68.5 361.6 67.4 363.1 67.4 C 364.6 67.4 365.6 68.5 365.6 70 C 365.6 70.1 365.6 70.2 365.6 70.3 Z M 361.2 69.7 C 361.2 69.7 365 69.7 365 69.7 C 364.9 68.7 364.1 68 363.1 68 C 362.1 68 361.3 68.7 361.2 69.7 Z M 372 65.3 L 372 72.7 L 371.3 72.7 C 371.3 72.7 371.29 71.64 371.3 71.6 C 370.9 72.3 370.1 72.7 369.3 72.7 C 367.8 72.7 366.6 71.6 366.6 70 C 366.6 68.5 367.8 67.4 369.3 67.4 C 370.1 67.4 370.8 67.7 371.3 68.4 C 371.26 68.42 371.3 65.3 371.3 65.3 L 372 65.3 Z M 371.3 70 C 371.3 68.8 370.4 68 369.3 68 C 368.2 68 367.4 68.8 367.4 70 C 367.4 71.3 368.2 72.1 369.3 72.1 C 370.4 72.1 371.3 71.3 371.3 70 Z M 373.4 67.9 C 373.4 67.6 373.6 67.4 373.9 67.4 C 374.2 67.4 374.5 67.6 374.5 67.9 C 374.5 68.2 374.2 68.5 373.9 68.5 C 373.6 68.5 373.4 68.2 373.4 67.9 Z M 373.4 72.2 C 373.4 71.9 373.6 71.6 373.9 71.6 C 374.2 71.6 374.5 71.9 374.5 72.2 C 374.5 72.5 374.2 72.7 373.9 72.7 C 373.6 72.7 373.4 72.5 373.4 72.2 Z " stroke="none" fill="#323132"/>
  </g>
  <g id="Polygon118127">
    <path d="M 9.8 57.4 C 9.5 57.6 9.1 57.7 8.6 57.7 C 7.7 57.7 7.1 57.2 7.1 56.2 C 7.11 56.2 7.1 53 7.1 53 L 6.2 53 L 6.2 52.4 L 7.1 52.4 L 7.1 51.3 L 7.8 51.3 L 7.8 52.4 L 9.4 52.4 L 9.4 53 L 7.8 53 C 7.8 53 7.82 56.16 7.8 56.2 C 7.8 56.8 8.1 57.1 8.7 57.1 C 9 57.1 9.3 57 9.5 56.9 C 9.5 56.9 9.8 57.4 9.8 57.4 Z M 15.8 54.6 C 15.79 54.63 15.8 57.7 15.8 57.7 L 15.1 57.7 C 15.1 57.7 15.08 54.7 15.1 54.7 C 15.1 53.6 14.5 53 13.5 53 C 12.4 53 11.7 53.7 11.7 54.9 C 11.66 54.92 11.7 57.7 11.7 57.7 L 10.9 57.7 L 10.9 50.3 L 11.7 50.3 C 11.7 50.3 11.66 53.34 11.7 53.3 C 12 52.7 12.7 52.4 13.6 52.4 C 14.9 52.4 15.8 53.1 15.8 54.6 Z M 22.3 55.3 C 22.3 55.3 17.9 55.3 17.9 55.3 C 18 56.4 18.8 57.1 20 57.1 C 20.6 57.1 21.2 56.9 21.6 56.4 C 21.6 56.4 22 56.9 22 56.9 C 21.5 57.4 20.8 57.7 19.9 57.7 C 18.3 57.7 17.2 56.6 17.2 55 C 17.2 53.5 18.3 52.4 19.7 52.4 C 21.2 52.4 22.3 53.5 22.3 55 C 22.3 55.1 22.3 55.2 22.3 55.3 Z M 17.9 54.7 C 17.9 54.7 21.6 54.7 21.6 54.7 C 21.5 53.7 20.8 53 19.7 53 C 18.7 53 18 53.7 17.9 54.7 Z M 25.8 55 C 25.8 53.5 27 52.4 28.5 52.4 C 29.4 52.4 30.2 52.7 30.6 53.4 C 30.6 53.4 30.1 53.8 30.1 53.8 C 29.7 53.2 29.1 53 28.5 53 C 27.4 53 26.5 53.8 26.5 55 C 26.5 56.3 27.4 57.1 28.5 57.1 C 29.1 57.1 29.7 56.9 30.1 56.3 C 30.1 56.3 30.6 56.7 30.6 56.7 C 30.2 57.4 29.4 57.7 28.5 57.7 C 27 57.7 25.8 56.6 25.8 55 Z M 31.4 55 C 31.4 53.5 32.5 52.4 34.1 52.4 C 35.6 52.4 36.7 53.5 36.7 55 C 36.7 56.6 35.6 57.7 34.1 57.7 C 32.5 57.7 31.4 56.6 31.4 55 Z M 36 55 C 36 53.8 35.2 53 34.1 53 C 32.9 53 32.1 53.8 32.1 55 C 32.1 56.3 32.9 57.1 34.1 57.1 C 35.2 57.1 36 56.3 36 55 Z M 43 54.6 C 43 54.63 43 57.7 43 57.7 L 42.3 57.7 C 42.3 57.7 42.29 54.7 42.3 54.7 C 42.3 53.6 41.7 53 40.7 53 C 39.6 53 38.9 53.7 38.9 54.9 C 38.87 54.92 38.9 57.7 38.9 57.7 L 38.2 57.7 L 38.2 52.4 L 38.8 52.4 C 38.8 52.4 38.84 53.39 38.8 53.4 C 39.2 52.7 39.9 52.4 40.8 52.4 C 42.1 52.4 43 53.1 43 54.6 Z M 47.5 57.4 C 47.3 57.6 46.8 57.7 46.4 57.7 C 45.4 57.7 44.9 57.2 44.9 56.2 C 44.89 56.2 44.9 53 44.9 53 L 43.9 53 L 43.9 52.4 L 44.9 52.4 L 44.9 51.3 L 45.6 51.3 L 45.6 52.4 L 47.2 52.4 L 47.2 53 L 45.6 53 C 45.6 53 45.59 56.16 45.6 56.2 C 45.6 56.8 45.9 57.1 46.5 57.1 C 46.8 57.1 47.1 57 47.3 56.9 C 47.3 56.9 47.5 57.4 47.5 57.4 Z M 51.4 52.4 C 51.4 52.4 51.4 53.1 51.4 53.1 C 51.3 53.1 51.3 53.1 51.2 53.1 C 50.1 53.1 49.4 53.8 49.4 55 C 49.43 55 49.4 57.7 49.4 57.7 L 48.7 57.7 L 48.7 52.4 L 49.4 52.4 C 49.4 52.4 49.4 53.45 49.4 53.4 C 49.7 52.7 50.4 52.4 51.4 52.4 Z M 52 55 C 52 53.5 53.1 52.4 54.7 52.4 C 56.2 52.4 57.3 53.5 57.3 55 C 57.3 56.6 56.2 57.7 54.7 57.7 C 53.1 57.7 52 56.6 52 55 Z M 56.6 55 C 56.6 53.8 55.8 53 54.7 53 C 53.5 53 52.7 53.8 52.7 55 C 52.7 56.3 53.5 57.1 54.7 57.1 C 55.8 57.1 56.6 56.3 56.6 55 Z M 58.8 50.3 L 59.5 50.3 L 59.5 57.7 L 58.8 57.7 L 58.8 50.3 Z M 60.8 57.1 C 60.8 57.1 61.1 56.5 61.1 56.5 C 61.5 56.9 62.2 57.1 63 57.1 C 64 57.1 64.4 56.8 64.4 56.3 C 64.4 54.9 61 56 61 53.9 C 61 53 61.7 52.4 63 52.4 C 63.7 52.4 64.5 52.6 64.9 52.9 C 64.9 52.9 64.6 53.4 64.6 53.4 C 64.1 53.1 63.6 53 63 53 C 62.1 53 61.7 53.4 61.7 53.9 C 61.7 55.3 65.1 54.2 65.1 56.2 C 65.1 57.1 64.3 57.7 62.9 57.7 C 62 57.7 61.2 57.4 60.8 57.1 Z M 68.3 57.1 C 68.3 57.1 68.6 56.5 68.6 56.5 C 69 56.9 69.7 57.1 70.5 57.1 C 71.5 57.1 71.9 56.8 71.9 56.3 C 71.9 54.9 68.5 56 68.5 53.9 C 68.5 53 69.2 52.4 70.6 52.4 C 71.2 52.4 72 52.6 72.4 52.9 C 72.4 52.9 72.1 53.4 72.1 53.4 C 71.6 53.1 71.1 53 70.6 53 C 69.6 53 69.2 53.4 69.2 53.9 C 69.2 55.3 72.6 54.2 72.6 56.2 C 72.6 57.1 71.8 57.7 70.4 57.7 C 69.6 57.7 68.7 57.4 68.3 57.1 Z M 78.7 54.6 C 78.75 54.63 78.7 57.7 78.7 57.7 L 78 57.7 C 78 57.7 78.04 54.7 78 54.7 C 78 53.6 77.5 53 76.5 53 C 75.3 53 74.6 53.7 74.6 54.9 C 74.62 54.92 74.6 57.7 74.6 57.7 L 73.9 57.7 L 73.9 50.3 L 74.6 50.3 C 74.6 50.3 74.62 53.34 74.6 53.3 C 75 52.7 75.7 52.4 76.6 52.4 C 77.9 52.4 78.7 53.1 78.7 54.6 Z M 80.1 55 C 80.1 53.5 81.3 52.4 82.8 52.4 C 84.3 52.4 85.5 53.5 85.5 55 C 85.5 56.6 84.3 57.7 82.8 57.7 C 81.3 57.7 80.1 56.6 80.1 55 Z M 84.8 55 C 84.8 53.8 83.9 53 82.8 53 C 81.7 53 80.8 53.8 80.8 55 C 80.8 56.3 81.7 57.1 82.8 57.1 C 83.9 57.1 84.8 56.3 84.8 55 Z M 91.6 52.4 L 91.6 57.7 L 91 57.7 C 91 57.7 90.95 56.72 91 56.7 C 90.6 57.4 89.9 57.7 89.1 57.7 C 87.7 57.7 86.8 57 86.8 55.5 C 86.84 55.47 86.8 52.4 86.8 52.4 L 87.6 52.4 C 87.6 52.4 87.55 55.4 87.6 55.4 C 87.6 56.5 88.1 57.1 89.1 57.1 C 90.2 57.1 90.9 56.4 90.9 55.2 C 90.92 55.18 90.9 52.4 90.9 52.4 L 91.6 52.4 Z M 93.5 50.3 L 94.2 50.3 L 94.2 57.7 L 93.5 57.7 L 93.5 50.3 Z M 101 50.3 L 101 57.7 L 100.3 57.7 C 100.3 57.7 100.29 56.64 100.3 56.6 C 99.9 57.3 99.1 57.7 98.3 57.7 C 96.8 57.7 95.6 56.6 95.6 55 C 95.6 53.5 96.8 52.4 98.3 52.4 C 99.1 52.4 99.8 52.7 100.3 53.4 C 100.26 53.42 100.3 50.3 100.3 50.3 L 101 50.3 Z M 100.3 55 C 100.3 53.8 99.4 53 98.3 53 C 97.2 53 96.4 53.8 96.4 55 C 96.4 56.3 97.2 57.1 98.3 57.1 C 99.4 57.1 100.3 56.3 100.3 55 Z M 110.9 55 C 110.9 56.6 109.8 57.7 108.3 57.7 C 107.4 57.7 106.7 57.3 106.2 56.6 C 106.25 56.64 106.2 57.7 106.2 57.7 L 105.6 57.7 L 105.6 50.3 L 106.3 50.3 C 106.3 50.3 106.28 53.42 106.3 53.4 C 106.7 52.7 107.4 52.4 108.3 52.4 C 109.8 52.4 110.9 53.5 110.9 55 Z M 110.2 55 C 110.2 53.8 109.3 53 108.2 53 C 107.1 53 106.3 53.8 106.3 55 C 106.3 56.3 107.1 57.1 108.2 57.1 C 109.3 57.1 110.2 56.3 110.2 55 Z M 117 55.3 C 117 55.3 112.6 55.3 112.6 55.3 C 112.7 56.4 113.5 57.1 114.7 57.1 C 115.3 57.1 115.9 56.9 116.3 56.4 C 116.3 56.4 116.7 56.9 116.7 56.9 C 116.2 57.4 115.5 57.7 114.7 57.7 C 113 57.7 111.9 56.6 111.9 55 C 111.9 53.5 113 52.4 114.5 52.4 C 116 52.4 117 53.5 117 55 C 117 55.1 117 55.2 117 55.3 Z M 112.6 54.7 C 112.6 54.7 116.3 54.7 116.3 54.7 C 116.3 53.7 115.5 53 114.5 53 C 113.5 53 112.7 53.7 112.6 54.7 Z M 125.9 50.3 L 125.9 57.7 L 125.2 57.7 C 125.2 57.7 125.22 56.64 125.2 56.6 C 124.8 57.3 124.1 57.7 123.2 57.7 C 121.7 57.7 120.6 56.6 120.6 55 C 120.6 53.5 121.7 52.4 123.2 52.4 C 124 52.4 124.7 52.7 125.2 53.4 C 125.19 53.42 125.2 50.3 125.2 50.3 L 125.9 50.3 Z M 125.2 55 C 125.2 53.8 124.4 53 123.2 53 C 122.1 53 121.3 53.8 121.3 55 C 121.3 56.3 122.1 57.1 123.2 57.1 C 124.4 57.1 125.2 56.3 125.2 55 Z M 132.4 55.3 C 132.4 55.3 128 55.3 128 55.3 C 128.1 56.4 129 57.1 130.1 57.1 C 130.8 57.1 131.3 56.9 131.7 56.4 C 131.7 56.4 132.1 56.9 132.1 56.9 C 131.7 57.4 130.9 57.7 130.1 57.7 C 128.5 57.7 127.3 56.6 127.3 55 C 127.3 53.5 128.4 52.4 129.9 52.4 C 131.4 52.4 132.5 53.5 132.5 55 C 132.5 55.1 132.4 55.2 132.4 55.3 Z M 128 54.7 C 128 54.7 131.8 54.7 131.8 54.7 C 131.7 53.7 130.9 53 129.9 53 C 128.9 53 128.1 53.7 128 54.7 Z M 133.3 57.1 C 133.3 57.1 133.6 56.5 133.6 56.5 C 134 56.9 134.7 57.1 135.4 57.1 C 136.4 57.1 136.9 56.8 136.9 56.3 C 136.9 54.9 133.4 56 133.4 53.9 C 133.4 53 134.2 52.4 135.5 52.4 C 136.2 52.4 136.9 52.6 137.4 52.9 C 137.4 52.9 137.1 53.4 137.1 53.4 C 136.6 53.1 136.1 53 135.5 53 C 134.6 53 134.2 53.4 134.2 53.9 C 134.2 55.3 137.6 54.2 137.6 56.2 C 137.6 57.1 136.8 57.7 135.4 57.7 C 134.5 57.7 133.7 57.4 133.3 57.1 Z M 138.7 50.8 C 138.7 50.5 138.9 50.3 139.2 50.3 C 139.5 50.3 139.7 50.5 139.7 50.7 C 139.7 51 139.5 51.3 139.2 51.3 C 138.9 51.3 138.7 51 138.7 50.8 Z M 138.9 52.4 L 139.6 52.4 L 139.6 57.7 L 138.9 57.7 L 138.9 52.4 Z M 146.4 52.4 C 146.4 52.4 146.35 57.04 146.4 57 C 146.4 58.9 145.5 59.7 143.7 59.7 C 142.8 59.7 141.8 59.4 141.3 58.9 C 141.3 58.9 141.6 58.3 141.6 58.3 C 142.1 58.8 142.9 59 143.7 59 C 145 59 145.6 58.4 145.6 57.1 C 145.6 57.1 145.6 56.5 145.6 56.5 C 145.2 57.1 144.5 57.5 143.6 57.5 C 142.1 57.5 141 56.4 141 54.9 C 141 53.4 142.1 52.4 143.6 52.4 C 144.5 52.4 145.2 52.7 145.7 53.4 C 145.67 53.43 145.7 52.4 145.7 52.4 L 146.4 52.4 Z M 145.7 54.9 C 145.7 53.8 144.8 53 143.7 53 C 142.5 53 141.7 53.8 141.7 54.9 C 141.7 56.1 142.5 56.9 143.7 56.9 C 144.8 56.9 145.7 56.1 145.7 54.9 Z M 153.1 54.6 C 153.05 54.63 153.1 57.7 153.1 57.7 L 152.3 57.7 C 152.3 57.7 152.34 54.7 152.3 54.7 C 152.3 53.6 151.8 53 150.8 53 C 149.6 53 148.9 53.7 148.9 54.9 C 148.92 54.92 148.9 57.7 148.9 57.7 L 148.2 57.7 L 148.2 52.4 L 148.9 52.4 C 148.9 52.4 148.89 53.39 148.9 53.4 C 149.3 52.7 150 52.4 150.9 52.4 C 152.2 52.4 153.1 53.1 153.1 54.6 Z M 159.5 55.3 C 159.5 55.3 155.1 55.3 155.1 55.3 C 155.2 56.4 156.1 57.1 157.2 57.1 C 157.9 57.1 158.4 56.9 158.8 56.4 C 158.8 56.4 159.2 56.9 159.2 56.9 C 158.8 57.4 158 57.7 157.2 57.7 C 155.6 57.7 154.4 56.6 154.4 55 C 154.4 53.5 155.5 52.4 157 52.4 C 158.5 52.4 159.6 53.5 159.6 55 C 159.6 55.1 159.5 55.2 159.5 55.3 Z M 155.1 54.7 C 155.1 54.7 158.9 54.7 158.9 54.7 C 158.8 53.7 158 53 157 53 C 156 53 155.2 53.7 155.1 54.7 Z M 165.9 50.3 L 165.9 57.7 L 165.2 57.7 C 165.2 57.7 165.21 56.64 165.2 56.6 C 164.8 57.3 164 57.7 163.2 57.7 C 161.7 57.7 160.6 56.6 160.6 55 C 160.6 53.5 161.7 52.4 163.2 52.4 C 164 52.4 164.7 52.7 165.2 53.4 C 165.18 53.42 165.2 50.3 165.2 50.3 L 165.9 50.3 Z M 165.2 55 C 165.2 53.8 164.3 53 163.2 53 C 162.1 53 161.3 53.8 161.3 55 C 161.3 56.3 162.1 57.1 163.2 57.1 C 164.3 57.1 165.2 56.3 165.2 55 Z M 174.5 54.4 C 174.46 54.42 174.5 57.7 174.5 57.7 L 173.8 57.7 C 173.8 57.7 173.78 56.86 173.8 56.9 C 173.5 57.4 172.8 57.7 172 57.7 C 170.8 57.7 170 57.1 170 56.2 C 170 55.4 170.6 54.7 172.1 54.7 C 172.08 54.71 173.7 54.7 173.7 54.7 C 173.7 54.7 173.75 54.39 173.7 54.4 C 173.7 53.5 173.2 53 172.3 53 C 171.6 53 170.9 53.2 170.5 53.6 C 170.5 53.6 170.2 53.1 170.2 53.1 C 170.7 52.6 171.5 52.4 172.3 52.4 C 173.7 52.4 174.5 53.1 174.5 54.4 Z M 173.7 56.1 C 173.75 56.1 173.7 55.2 173.7 55.2 C 173.7 55.2 172.1 55.24 172.1 55.2 C 171.1 55.2 170.7 55.6 170.7 56.2 C 170.7 56.8 171.2 57.2 172.1 57.2 C 172.9 57.2 173.5 56.8 173.7 56.1 Z M 181.1 54.6 C 181.11 54.63 181.1 57.7 181.1 57.7 L 180.4 57.7 C 180.4 57.7 180.4 54.7 180.4 54.7 C 180.4 53.6 179.8 53 178.8 53 C 177.7 53 177 53.7 177 54.9 C 176.98 54.92 177 57.7 177 57.7 L 176.3 57.7 L 176.3 52.4 L 177 52.4 C 177 52.4 176.95 53.39 177 53.4 C 177.3 52.7 178 52.4 179 52.4 C 180.2 52.4 181.1 53.1 181.1 54.6 Z M 187.8 50.3 L 187.8 57.7 L 187.1 57.7 C 187.1 57.7 187.15 56.64 187.1 56.6 C 186.7 57.3 186 57.7 185.1 57.7 C 183.6 57.7 182.5 56.6 182.5 55 C 182.5 53.5 183.6 52.4 185.1 52.4 C 186 52.4 186.7 52.7 187.1 53.4 C 187.12 53.42 187.1 50.3 187.1 50.3 L 187.8 50.3 Z M 187.1 55 C 187.1 53.8 186.3 53 185.2 53 C 184.1 53 183.2 53.8 183.2 55 C 183.2 56.3 184.1 57.1 185.2 57.1 C 186.3 57.1 187.1 56.3 187.1 55 Z M 197.8 55.1 C 197.8 56.7 196.6 57.7 195.1 57.7 C 194.3 57.7 193.6 57.4 193.1 56.7 C 193.13 56.69 193.1 59.6 193.1 59.6 L 192.4 59.6 L 192.4 52.4 L 193.1 52.4 C 193.1 52.4 193.1 53.46 193.1 53.5 C 193.5 52.8 194.3 52.4 195.1 52.4 C 196.6 52.4 197.8 53.5 197.8 55.1 Z M 197 55 C 197 53.8 196.2 53 195.1 53 C 194 53 193.1 53.8 193.1 55 C 193.1 56.3 194 57.1 195.1 57.1 C 196.2 57.1 197 56.3 197 55 Z M 198.8 55 C 198.8 53.5 199.9 52.4 201.4 52.4 C 203 52.4 204.1 53.5 204.1 55 C 204.1 56.6 203 57.7 201.4 57.7 C 199.9 57.7 198.8 56.6 198.8 55 Z M 203.4 55 C 203.4 53.8 202.6 53 201.4 53 C 200.3 53 199.5 53.8 199.5 55 C 199.5 56.3 200.3 57.1 201.4 57.1 C 202.6 57.1 203.4 56.3 203.4 55 Z M 204.9 57.1 C 204.9 57.1 205.2 56.5 205.2 56.5 C 205.6 56.9 206.4 57.1 207.1 57.1 C 208.1 57.1 208.5 56.8 208.5 56.3 C 208.5 54.9 205.1 56 205.1 53.9 C 205.1 53 205.8 52.4 207.2 52.4 C 207.9 52.4 208.6 52.6 209 52.9 C 209 52.9 208.7 53.4 208.7 53.4 C 208.3 53.1 207.7 53 207.2 53 C 206.2 53 205.8 53.4 205.8 53.9 C 205.8 55.3 209.2 54.2 209.2 56.2 C 209.2 57.1 208.4 57.7 207 57.7 C 206.2 57.7 205.3 57.4 204.9 57.1 Z M 210.4 50.8 C 210.4 50.5 210.6 50.3 210.9 50.3 C 211.2 50.3 211.4 50.5 211.4 50.7 C 211.4 51 211.2 51.3 210.9 51.3 C 210.6 51.3 210.4 51 210.4 50.8 Z M 210.5 52.4 L 211.2 52.4 L 211.2 57.7 L 210.5 57.7 L 210.5 52.4 Z M 215.9 57.4 C 215.7 57.6 215.2 57.7 214.8 57.7 C 213.8 57.7 213.3 57.2 213.3 56.2 C 213.29 56.2 213.3 53 213.3 53 L 212.4 53 L 212.4 52.4 L 213.3 52.4 L 213.3 51.3 L 214 51.3 L 214 52.4 L 215.6 52.4 L 215.6 53 L 214 53 C 214 53 214 56.16 214 56.2 C 214 56.8 214.3 57.1 214.9 57.1 C 215.2 57.1 215.5 57 215.7 56.9 C 215.7 56.9 215.9 57.4 215.9 57.4 Z M 217 50.8 C 217 50.5 217.2 50.3 217.5 50.3 C 217.8 50.3 218 50.5 218 50.7 C 218 51 217.8 51.3 217.5 51.3 C 217.2 51.3 217 51 217 50.8 Z M 217.1 52.4 L 217.8 52.4 L 217.8 57.7 L 217.1 57.7 L 217.1 52.4 Z M 219.2 55 C 219.2 53.5 220.4 52.4 221.9 52.4 C 223.5 52.4 224.6 53.5 224.6 55 C 224.6 56.6 223.5 57.7 221.9 57.7 C 220.4 57.7 219.2 56.6 219.2 55 Z M 223.9 55 C 223.9 53.8 223 53 221.9 53 C 220.8 53 220 53.8 220 55 C 220 56.3 220.8 57.1 221.9 57.1 C 223 57.1 223.9 56.3 223.9 55 Z M 230.8 54.6 C 230.85 54.63 230.8 57.7 230.8 57.7 L 230.1 57.7 C 230.1 57.7 230.14 54.7 230.1 54.7 C 230.1 53.6 229.6 53 228.6 53 C 227.4 53 226.7 53.7 226.7 54.9 C 226.72 54.92 226.7 57.7 226.7 57.7 L 226 57.7 L 226 52.4 L 226.7 52.4 C 226.7 52.4 226.69 53.39 226.7 53.4 C 227.1 52.7 227.8 52.4 228.7 52.4 C 230 52.4 230.8 53.1 230.8 54.6 Z M 237.3 55.3 C 237.3 55.3 232.9 55.3 232.9 55.3 C 233 56.4 233.9 57.1 235 57.1 C 235.7 57.1 236.2 56.9 236.6 56.4 C 236.6 56.4 237 56.9 237 56.9 C 236.6 57.4 235.8 57.7 235 57.7 C 233.4 57.7 232.2 56.6 232.2 55 C 232.2 53.5 233.3 52.4 234.8 52.4 C 236.3 52.4 237.4 53.5 237.4 55 C 237.4 55.1 237.3 55.2 237.3 55.3 Z M 232.9 54.7 C 232.9 54.7 236.7 54.7 236.7 54.7 C 236.6 53.7 235.8 53 234.8 53 C 233.8 53 233 53.7 232.9 54.7 Z M 243.7 50.3 L 243.7 57.7 L 243 57.7 C 243 57.7 243 56.64 243 56.6 C 242.6 57.3 241.8 57.7 241 57.7 C 239.5 57.7 238.4 56.6 238.4 55 C 238.4 53.5 239.5 52.4 241 52.4 C 241.8 52.4 242.5 52.7 243 53.4 C 242.97 53.42 243 50.3 243 50.3 L 243.7 50.3 Z M 243 55 C 243 53.8 242.1 53 241 53 C 239.9 53 239.1 53.8 239.1 55 C 239.1 56.3 239.9 57.1 241 57.1 C 242.1 57.1 243 56.3 243 55 Z M 251.1 57.4 C 250.8 57.6 250.4 57.7 249.9 57.7 C 249 57.7 248.4 57.2 248.4 56.2 C 248.4 56.2 248.4 53 248.4 53 L 247.5 53 L 247.5 52.4 L 248.4 52.4 L 248.4 51.3 L 249.1 51.3 L 249.1 52.4 L 250.7 52.4 L 250.7 53 L 249.1 53 C 249.1 53 249.11 56.16 249.1 56.2 C 249.1 56.8 249.4 57.1 250 57.1 C 250.3 57.1 250.6 57 250.8 56.9 C 250.8 56.9 251.1 57.4 251.1 57.4 Z M 251.6 55 C 251.6 53.5 252.7 52.4 254.3 52.4 C 255.8 52.4 257 53.5 257 55 C 257 56.6 255.8 57.7 254.3 57.7 C 252.7 57.7 251.6 56.6 251.6 55 Z M 256.2 55 C 256.2 53.8 255.4 53 254.3 53 C 253.2 53 252.3 53.8 252.3 55 C 252.3 56.3 253.2 57.1 254.3 57.1 C 255.4 57.1 256.2 56.3 256.2 55 Z M 260.5 55 C 260.5 53.5 261.6 52.4 263.2 52.4 C 264.7 52.4 265.8 53.5 265.8 55 C 265.8 56.6 264.7 57.7 263.2 57.7 C 261.6 57.7 260.5 56.6 260.5 55 Z M 265.1 55 C 265.1 53.8 264.3 53 263.2 53 C 262.1 53 261.2 53.8 261.2 55 C 261.2 56.3 262.1 57.1 263.2 57.1 C 264.3 57.1 265.1 56.3 265.1 55 Z M 272.6 55.1 C 272.6 56.7 271.5 57.7 270 57.7 C 269.1 57.7 268.4 57.4 268 56.7 C 267.98 56.69 268 59.6 268 59.6 L 267.3 59.6 L 267.3 52.4 L 267.9 52.4 C 267.9 52.4 267.95 53.46 267.9 53.5 C 268.4 52.8 269.1 52.4 270 52.4 C 271.5 52.4 272.6 53.5 272.6 55.1 Z M 271.9 55 C 271.9 53.8 271 53 269.9 53 C 268.8 53 268 53.8 268 55 C 268 56.3 268.8 57.1 269.9 57.1 C 271 57.1 271.9 56.3 271.9 55 Z M 278.7 55.3 C 278.7 55.3 274.3 55.3 274.3 55.3 C 274.4 56.4 275.2 57.1 276.4 57.1 C 277 57.1 277.6 56.9 278 56.4 C 278 56.4 278.4 56.9 278.4 56.9 C 277.9 57.4 277.2 57.7 276.4 57.7 C 274.7 57.7 273.6 56.6 273.6 55 C 273.6 53.5 274.7 52.4 276.2 52.4 C 277.7 52.4 278.7 53.5 278.7 55 C 278.7 55.1 278.7 55.2 278.7 55.3 Z M 274.3 54.7 C 274.3 54.7 278 54.7 278 54.7 C 278 53.7 277.2 53 276.2 53 C 275.2 53 274.4 53.7 274.3 54.7 Z M 282.8 52.4 C 282.8 52.4 282.8 53.1 282.8 53.1 C 282.7 53.1 282.7 53.1 282.6 53.1 C 281.5 53.1 280.8 53.8 280.8 55 C 280.84 55 280.8 57.7 280.8 57.7 L 280.1 57.7 L 280.1 52.4 L 280.8 52.4 C 280.8 52.4 280.81 53.45 280.8 53.4 C 281.1 52.7 281.8 52.4 282.8 52.4 Z M 288.1 54.4 C 288.12 54.42 288.1 57.7 288.1 57.7 L 287.4 57.7 C 287.4 57.7 287.44 56.86 287.4 56.9 C 287.1 57.4 286.5 57.7 285.6 57.7 C 284.4 57.7 283.7 57.1 283.7 56.2 C 283.7 55.4 284.2 54.7 285.7 54.7 C 285.74 54.71 287.4 54.7 287.4 54.7 C 287.4 54.7 287.41 54.39 287.4 54.4 C 287.4 53.5 286.9 53 285.9 53 C 285.2 53 284.6 53.2 284.2 53.6 C 284.2 53.6 283.9 53.1 283.9 53.1 C 284.4 52.6 285.2 52.4 286 52.4 C 287.4 52.4 288.1 53.1 288.1 54.4 Z M 287.4 56.1 C 287.41 56.1 287.4 55.2 287.4 55.2 C 287.4 55.2 285.76 55.24 285.8 55.2 C 284.7 55.2 284.4 55.6 284.4 56.2 C 284.4 56.8 284.9 57.2 285.7 57.2 C 286.5 57.2 287.1 56.8 287.4 56.1 Z M 292.7 57.4 C 292.4 57.6 292 57.7 291.6 57.7 C 290.6 57.7 290 57.2 290 56.2 C 290.02 56.2 290 53 290 53 L 289.1 53 L 289.1 52.4 L 290 52.4 L 290 51.3 L 290.7 51.3 L 290.7 52.4 L 292.3 52.4 L 292.3 53 L 290.7 53 C 290.7 53 290.72 56.16 290.7 56.2 C 290.7 56.8 291 57.1 291.6 57.1 C 291.9 57.1 292.2 57 292.4 56.9 C 292.4 56.9 292.7 57.4 292.7 57.4 Z M 298.3 55.3 C 298.3 55.3 293.9 55.3 293.9 55.3 C 294 56.4 294.8 57.1 296 57.1 C 296.6 57.1 297.2 56.9 297.6 56.4 C 297.6 56.4 298 56.9 298 56.9 C 297.5 57.4 296.8 57.7 296 57.7 C 294.3 57.7 293.2 56.6 293.2 55 C 293.2 53.5 294.3 52.4 295.8 52.4 C 297.3 52.4 298.3 53.5 298.3 55 C 298.3 55.1 298.3 55.2 298.3 55.3 Z M 293.9 54.7 C 293.9 54.7 297.7 54.7 297.7 54.7 C 297.6 53.7 296.8 53 295.8 53 C 294.8 53 294 53.7 293.9 54.7 Z M 302.2 50.8 C 302.2 50.5 302.5 50.3 302.8 50.3 C 303.1 50.3 303.3 50.5 303.3 50.7 C 303.3 51 303.1 51.3 302.8 51.3 C 302.5 51.3 302.2 51 302.2 50.8 Z M 302.4 52.4 L 303.1 52.4 L 303.1 57.7 L 302.4 57.7 L 302.4 52.4 Z M 309.8 54.6 C 309.8 54.63 309.8 57.7 309.8 57.7 L 309.1 57.7 C 309.1 57.7 309.09 54.7 309.1 54.7 C 309.1 53.6 308.5 53 307.5 53 C 306.4 53 305.7 53.7 305.7 54.9 C 305.67 54.92 305.7 57.7 305.7 57.7 L 305 57.7 L 305 52.4 L 305.6 52.4 C 305.6 52.4 305.64 53.39 305.6 53.4 C 306 52.7 306.7 52.4 307.6 52.4 C 308.9 52.4 309.8 53.1 309.8 54.6 Z M 314.3 50.3 L 315.1 50.3 L 315.1 57.7 L 314.3 57.7 L 314.3 50.3 Z M 316.5 55 C 316.5 53.5 317.6 52.4 319.2 52.4 C 320.7 52.4 321.8 53.5 321.8 55 C 321.8 56.6 320.7 57.7 319.2 57.7 C 317.6 57.7 316.5 56.6 316.5 55 Z M 321.1 55 C 321.1 53.8 320.3 53 319.2 53 C 318 53 317.2 53.8 317.2 55 C 317.2 56.3 318 57.1 319.2 57.1 C 320.3 57.1 321.1 56.3 321.1 55 Z M 330.9 52.4 L 329 57.7 L 328.3 57.7 L 326.6 53.4 L 325 57.7 L 324.3 57.7 L 322.3 52.4 L 323 52.4 L 324.6 56.9 L 326.3 52.4 L 326.9 52.4 L 328.6 56.9 L 330.3 52.4 L 330.9 52.4 Z M 333.9 57.1 C 333.9 57.1 334.2 56.5 334.2 56.5 C 334.6 56.9 335.4 57.1 336.1 57.1 C 337.1 57.1 337.5 56.8 337.5 56.3 C 337.5 54.9 334.1 56 334.1 53.9 C 334.1 53 334.8 52.4 336.2 52.4 C 336.9 52.4 337.6 52.6 338 52.9 C 338 52.9 337.7 53.4 337.7 53.4 C 337.3 53.1 336.7 53 336.2 53 C 335.2 53 334.8 53.4 334.8 53.9 C 334.8 55.3 338.2 54.2 338.2 56.2 C 338.2 57.1 337.4 57.7 336 57.7 C 335.2 57.7 334.3 57.4 333.9 57.1 Z M 342.5 57.4 C 342.2 57.6 341.8 57.7 341.4 57.7 C 340.4 57.7 339.8 57.2 339.8 56.2 C 339.85 56.2 339.8 53 339.8 53 L 338.9 53 L 338.9 52.4 L 339.8 52.4 L 339.8 51.3 L 340.6 51.3 L 340.6 52.4 L 342.2 52.4 L 342.2 53 L 340.6 53 C 340.6 53 340.56 56.16 340.6 56.2 C 340.6 56.8 340.9 57.1 341.5 57.1 C 341.8 57.1 342 57 342.2 56.9 C 342.2 56.9 342.5 57.4 342.5 57.4 Z M 346.3 52.4 C 346.3 52.4 346.3 53.1 346.3 53.1 C 346.3 53.1 346.2 53.1 346.2 53.1 C 345.1 53.1 344.4 53.8 344.4 55 C 344.4 55 344.4 57.7 344.4 57.7 L 343.7 57.7 L 343.7 52.4 L 344.4 52.4 C 344.4 52.4 344.37 53.45 344.4 53.4 C 344.7 52.7 345.4 52.4 346.3 52.4 Z M 352.1 55.3 C 352.1 55.3 347.7 55.3 347.7 55.3 C 347.8 56.4 348.6 57.1 349.7 57.1 C 350.4 57.1 351 56.9 351.4 56.4 C 351.4 56.4 351.8 56.9 351.8 56.9 C 351.3 57.4 350.6 57.7 349.7 57.7 C 348.1 57.7 347 56.6 347 55 C 347 53.5 348.1 52.4 349.5 52.4 C 351 52.4 352.1 53.5 352.1 55 C 352.1 55.1 352.1 55.2 352.1 55.3 Z M 347.7 54.7 C 347.7 54.7 351.4 54.7 351.4 54.7 C 351.3 53.7 350.6 53 349.5 53 C 348.5 53 347.8 53.7 347.7 54.7 Z M 352.9 57.1 C 352.9 57.1 353.2 56.5 353.2 56.5 C 353.6 56.9 354.3 57.1 355.1 57.1 C 356.1 57.1 356.5 56.8 356.5 56.3 C 356.5 54.9 353.1 56 353.1 53.9 C 353.1 53 353.8 52.4 355.2 52.4 C 355.8 52.4 356.6 52.6 357 52.9 C 357 52.9 356.7 53.4 356.7 53.4 C 356.2 53.1 355.7 53 355.2 53 C 354.2 53 353.8 53.4 353.8 53.9 C 353.8 55.3 357.2 54.2 357.2 56.2 C 357.2 57.1 356.4 57.7 355 57.7 C 354.2 57.7 353.3 57.4 352.9 57.1 Z M 357.9 57.1 C 357.9 57.1 358.3 56.5 358.3 56.5 C 358.7 56.9 359.4 57.1 360.1 57.1 C 361.1 57.1 361.5 56.8 361.5 56.3 C 361.5 54.9 358.1 56 358.1 53.9 C 358.1 53 358.9 52.4 360.2 52.4 C 360.9 52.4 361.6 52.6 362.1 52.9 C 362.1 52.9 361.8 53.4 361.8 53.4 C 361.3 53.1 360.7 53 360.2 53 C 359.3 53 358.8 53.4 358.8 53.9 C 358.8 55.3 362.2 54.2 362.2 56.2 C 362.2 57.1 361.4 57.7 360.1 57.7 C 359.2 57.7 358.4 57.4 357.9 57.1 Z M 371.5 55.1 C 371.5 56.7 370.4 57.7 368.9 57.7 C 368 57.7 367.3 57.4 366.9 56.7 C 366.89 56.69 366.9 59.6 366.9 59.6 L 366.2 59.6 L 366.2 52.4 L 366.9 52.4 C 366.9 52.4 366.86 53.46 366.9 53.5 C 367.3 52.8 368 52.4 368.9 52.4 C 370.4 52.4 371.5 53.5 371.5 55.1 Z M 370.8 55 C 370.8 53.8 369.9 53 368.8 53 C 367.7 53 366.9 53.8 366.9 55 C 366.9 56.3 367.7 57.1 368.8 57.1 C 369.9 57.1 370.8 56.3 370.8 55 Z M 372.5 55 C 372.5 53.5 373.7 52.4 375.2 52.4 C 376.7 52.4 377.9 53.5 377.9 55 C 377.9 56.6 376.7 57.7 375.2 57.7 C 373.7 57.7 372.5 56.6 372.5 55 Z M 377.1 55 C 377.1 53.8 376.3 53 375.2 53 C 374.1 53 373.2 53.8 373.2 55 C 373.2 56.3 374.1 57.1 375.2 57.1 C 376.3 57.1 377.1 56.3 377.1 55 Z M 378.7 57.1 C 378.7 57.1 379 56.5 379 56.5 C 379.4 56.9 380.1 57.1 380.9 57.1 C 381.9 57.1 382.3 56.8 382.3 56.3 C 382.3 54.9 378.9 56 378.9 53.9 C 378.9 53 379.6 52.4 380.9 52.4 C 381.6 52.4 382.4 52.6 382.8 52.9 C 382.8 52.9 382.5 53.4 382.5 53.4 C 382 53.1 381.5 53 380.9 53 C 380 53 379.6 53.4 379.6 53.9 C 379.6 55.3 383 54.2 383 56.2 C 383 57.1 382.2 57.7 380.8 57.7 C 379.9 57.7 379.1 57.4 378.7 57.1 Z M 387.3 57.4 C 387 57.6 386.6 57.7 386.1 57.7 C 385.2 57.7 384.6 57.2 384.6 56.2 C 384.6 56.2 384.6 53 384.6 53 L 383.7 53 L 383.7 52.4 L 384.6 52.4 L 384.6 51.3 L 385.3 51.3 L 385.3 52.4 L 386.9 52.4 L 386.9 53 L 385.3 53 C 385.3 53 385.31 56.16 385.3 56.2 C 385.3 56.8 385.6 57.1 386.2 57.1 C 386.5 57.1 386.8 57 387 56.9 C 387 56.9 387.3 57.4 387.3 57.4 Z M 393 52.4 L 393 57.7 L 392.4 57.7 C 392.4 57.7 392.36 56.72 392.4 56.7 C 392 57.4 391.3 57.7 390.5 57.7 C 389.1 57.7 388.3 57 388.3 55.5 C 388.25 55.47 388.3 52.4 388.3 52.4 L 389 52.4 C 389 52.4 388.96 55.4 389 55.4 C 389 56.5 389.5 57.1 390.5 57.1 C 391.6 57.1 392.3 56.4 392.3 55.2 C 392.33 55.18 392.3 52.4 392.3 52.4 L 393 52.4 Z M 397.6 52.4 C 397.6 52.4 397.6 53.1 397.6 53.1 C 397.5 53.1 397.4 53.1 397.4 53.1 C 396.3 53.1 395.6 53.8 395.6 55 C 395.61 55 395.6 57.7 395.6 57.7 L 394.9 57.7 L 394.9 52.4 L 395.6 52.4 C 395.6 52.4 395.58 53.45 395.6 53.4 C 395.9 52.7 396.6 52.4 397.6 52.4 Z M 403.3 55.3 C 403.3 55.3 398.9 55.3 398.9 55.3 C 399 56.4 399.8 57.1 401 57.1 C 401.6 57.1 402.2 56.9 402.6 56.4 C 402.6 56.4 403 56.9 403 56.9 C 402.5 57.4 401.8 57.7 400.9 57.7 C 399.3 57.7 398.2 56.6 398.2 55 C 398.2 53.5 399.3 52.4 400.8 52.4 C 402.2 52.4 403.3 53.5 403.3 55 C 403.3 55.1 403.3 55.2 403.3 55.3 Z M 398.9 54.7 C 398.9 54.7 402.6 54.7 402.6 54.7 C 402.5 53.7 401.8 53 400.8 53 C 399.7 53 399 53.7 398.9 54.7 Z M 404.1 57.1 C 404.1 57.1 404.4 56.5 404.4 56.5 C 404.8 56.9 405.5 57.1 406.3 57.1 C 407.3 57.1 407.7 56.8 407.7 56.3 C 407.7 54.9 404.3 56 404.3 53.9 C 404.3 53 405 52.4 406.4 52.4 C 407 52.4 407.8 52.6 408.2 52.9 C 408.2 52.9 407.9 53.4 407.9 53.4 C 407.5 53.1 406.9 53 406.4 53 C 405.4 53 405 53.4 405 53.9 C 405 55.3 408.4 54.2 408.4 56.2 C 408.4 57.1 407.6 57.7 406.2 57.7 C 405.4 57.7 404.5 57.4 404.1 57.1 Z M 420.1 52.4 L 418.1 57.7 L 417.4 57.7 L 415.7 53.4 L 414.1 57.7 L 413.4 57.7 L 411.4 52.4 L 412.1 52.4 L 413.8 56.9 L 415.4 52.4 L 416.1 52.4 L 417.7 56.9 L 419.4 52.4 L 420.1 52.4 Z M 421 50.8 C 421 50.5 421.2 50.3 421.5 50.3 C 421.8 50.3 422 50.5 422 50.7 C 422 51 421.8 51.3 421.5 51.3 C 421.2 51.3 421 51 421 50.8 Z M 421.2 52.4 L 421.9 52.4 L 421.9 57.7 L 421.2 57.7 L 421.2 52.4 Z M 426.6 57.4 C 426.3 57.6 425.9 57.7 425.5 57.7 C 424.5 57.7 423.9 57.2 423.9 56.2 C 423.92 56.2 423.9 53 423.9 53 L 423 53 L 423 52.4 L 423.9 52.4 L 423.9 51.3 L 424.6 51.3 L 424.6 52.4 L 426.2 52.4 L 426.2 53 L 424.6 53 C 424.6 53 424.63 56.16 424.6 56.2 C 424.6 56.8 424.9 57.1 425.5 57.1 C 425.8 57.1 426.1 57 426.3 56.9 C 426.3 56.9 426.6 57.4 426.6 57.4 Z M 432.6 54.6 C 432.6 54.63 432.6 57.7 432.6 57.7 L 431.9 57.7 C 431.9 57.7 431.89 54.7 431.9 54.7 C 431.9 53.6 431.3 53 430.3 53 C 429.2 53 428.5 53.7 428.5 54.9 C 428.47 54.92 428.5 57.7 428.5 57.7 L 427.8 57.7 L 427.8 50.3 L 428.5 50.3 C 428.5 50.3 428.47 53.34 428.5 53.3 C 428.9 52.7 429.5 52.4 430.4 52.4 C 431.7 52.4 432.6 53.1 432.6 54.6 Z M 445.8 54.6 C 445.83 54.63 445.8 57.7 445.8 57.7 L 445.1 57.7 C 445.1 57.7 445.12 54.7 445.1 54.7 C 445.1 53.6 444.6 53 443.6 53 C 442.5 53 441.8 53.7 441.8 54.9 C 441.85 54.92 441.8 57.7 441.8 57.7 L 441.1 57.7 C 441.1 57.7 441.14 54.7 441.1 54.7 C 441.1 53.6 440.6 53 439.6 53 C 438.5 53 437.9 53.7 437.9 54.9 C 437.86 54.92 437.9 57.7 437.9 57.7 L 437.1 57.7 L 437.1 52.4 L 437.8 52.4 C 437.8 52.4 437.83 53.38 437.8 53.4 C 438.2 52.7 438.9 52.4 439.8 52.4 C 440.6 52.4 441.3 52.7 441.6 53.5 C 442 52.8 442.8 52.4 443.7 52.4 C 445 52.4 445.8 53.1 445.8 54.6 Z M 447.5 50.8 C 447.5 50.5 447.7 50.3 448 50.3 C 448.3 50.3 448.5 50.5 448.5 50.7 C 448.5 51 448.3 51.3 448 51.3 C 447.7 51.3 447.5 51 447.5 50.8 Z M 447.6 52.4 L 448.3 52.4 L 448.3 57.7 L 447.6 57.7 L 447.6 52.4 Z M 455 54.6 C 455.03 54.63 455 57.7 455 57.7 L 454.3 57.7 C 454.3 57.7 454.32 54.7 454.3 54.7 C 454.3 53.6 453.7 53 452.7 53 C 451.6 53 450.9 53.7 450.9 54.9 C 450.9 54.92 450.9 57.7 450.9 57.7 L 450.2 57.7 L 450.2 52.4 L 450.9 52.4 C 450.9 52.4 450.87 53.39 450.9 53.4 C 451.2 52.7 452 52.4 452.9 52.4 C 454.1 52.4 455 53.1 455 54.6 Z M 456.7 50.8 C 456.7 50.5 456.9 50.3 457.2 50.3 C 457.5 50.3 457.7 50.5 457.7 50.7 C 457.7 51 457.5 51.3 457.2 51.3 C 456.9 51.3 456.7 51 456.7 50.8 Z M 456.8 52.4 L 457.5 52.4 L 457.5 57.7 L 456.8 57.7 L 456.8 52.4 Z M 468 54.6 C 468.04 54.63 468 57.7 468 57.7 L 467.3 57.7 C 467.3 57.7 467.33 54.7 467.3 54.7 C 467.3 53.6 466.8 53 465.8 53 C 464.7 53 464.1 53.7 464.1 54.9 C 464.06 54.92 464.1 57.7 464.1 57.7 L 463.4 57.7 C 463.4 57.7 463.35 54.7 463.4 54.7 C 463.4 53.6 462.8 53 461.8 53 C 460.8 53 460.1 53.7 460.1 54.9 C 460.07 54.92 460.1 57.7 460.1 57.7 L 459.4 57.7 L 459.4 52.4 L 460 52.4 C 460 52.4 460.04 53.38 460 53.4 C 460.4 52.7 461.1 52.4 462 52.4 C 462.8 52.4 463.5 52.7 463.8 53.5 C 464.2 52.8 465 52.4 465.9 52.4 C 467.2 52.4 468 53.1 468 54.6 Z M 473.9 54.4 C 473.87 54.42 473.9 57.7 473.9 57.7 L 473.2 57.7 C 473.2 57.7 473.19 56.86 473.2 56.9 C 472.9 57.4 472.3 57.7 471.4 57.7 C 470.2 57.7 469.5 57.1 469.5 56.2 C 469.5 55.4 470 54.7 471.5 54.7 C 471.49 54.71 473.2 54.7 473.2 54.7 C 473.2 54.7 473.16 54.39 473.2 54.4 C 473.2 53.5 472.7 53 471.7 53 C 471 53 470.4 53.2 469.9 53.6 C 469.9 53.6 469.6 53.1 469.6 53.1 C 470.1 52.6 470.9 52.4 471.7 52.4 C 473.1 52.4 473.9 53.1 473.9 54.4 Z M 473.2 56.1 C 473.16 56.1 473.2 55.2 473.2 55.2 C 473.2 55.2 471.51 55.24 471.5 55.2 C 470.5 55.2 470.2 55.6 470.2 56.2 C 470.2 56.8 470.7 57.2 471.5 57.2 C 472.3 57.2 472.9 56.8 473.2 56.1 Z M 475.7 50.3 L 476.4 50.3 L 476.4 57.7 L 475.7 57.7 L 475.7 50.3 Z " stroke="none" fill="#323132"/>
  </g>
  <g id="Polygon118126">
    <path d="M 11.5 40.8 L 7.6 40.8 L 6.8 42.7 L 6 42.7 L 9.2 35.7 L 9.9 35.7 L 13.1 42.7 L 12.4 42.7 L 11.5 40.8 Z M 11.3 40.2 L 9.6 36.4 L 7.9 40.2 L 11.3 40.2 Z M 19.1 39.6 C 19.08 39.63 19.1 42.7 19.1 42.7 L 18.4 42.7 C 18.4 42.7 18.37 39.7 18.4 39.7 C 18.4 38.6 17.8 38 16.8 38 C 15.7 38 14.9 38.7 14.9 39.9 C 14.95 39.92 14.9 42.7 14.9 42.7 L 14.2 42.7 L 14.2 37.4 L 14.9 37.4 C 14.9 37.4 14.92 38.39 14.9 38.4 C 15.3 37.7 16 37.4 16.9 37.4 C 18.2 37.4 19.1 38.1 19.1 39.6 Z M 23.6 42.4 C 23.3 42.6 22.9 42.7 22.5 42.7 C 21.5 42.7 21 42.2 21 41.2 C 20.96 41.2 21 38 21 38 L 20 38 L 20 37.4 L 21 37.4 L 21 36.3 L 21.7 36.3 L 21.7 37.4 L 23.3 37.4 L 23.3 38 L 21.7 38 C 21.7 38 21.67 41.16 21.7 41.2 C 21.7 41.8 22 42.1 22.6 42.1 C 22.9 42.1 23.2 42 23.4 41.9 C 23.4 41.9 23.6 42.4 23.6 42.4 Z M 29.6 39.6 C 29.64 39.63 29.6 42.7 29.6 42.7 L 28.9 42.7 C 28.9 42.7 28.93 39.7 28.9 39.7 C 28.9 38.6 28.3 38 27.3 38 C 26.2 38 25.5 38.7 25.5 39.9 C 25.51 39.92 25.5 42.7 25.5 42.7 L 24.8 42.7 L 24.8 35.3 L 25.5 35.3 C 25.5 35.3 25.51 38.34 25.5 38.3 C 25.9 37.7 26.6 37.4 27.5 37.4 C 28.8 37.4 29.6 38.1 29.6 39.6 Z M 34.1 37.4 C 34.1 37.4 34.1 38.1 34.1 38.1 C 34 38.1 34 38.1 33.9 38.1 C 32.8 38.1 32.2 38.8 32.2 40 C 32.16 40 32.2 42.7 32.2 42.7 L 31.5 42.7 L 31.5 37.4 L 32.1 37.4 C 32.1 37.4 32.13 38.45 32.1 38.4 C 32.5 37.7 33.1 37.4 34.1 37.4 Z M 34.7 40 C 34.7 38.5 35.9 37.4 37.4 37.4 C 38.9 37.4 40.1 38.5 40.1 40 C 40.1 41.6 38.9 42.7 37.4 42.7 C 35.9 42.7 34.7 41.6 34.7 40 Z M 39.3 40 C 39.3 38.8 38.5 38 37.4 38 C 36.3 38 35.4 38.8 35.4 40 C 35.4 41.3 36.3 42.1 37.4 42.1 C 38.5 42.1 39.3 41.3 39.3 40 Z M 46.8 40.1 C 46.8 41.7 45.7 42.7 44.2 42.7 C 43.4 42.7 42.6 42.4 42.2 41.7 C 42.2 41.69 42.2 44.6 42.2 44.6 L 41.5 44.6 L 41.5 37.4 L 42.2 37.4 C 42.2 37.4 42.17 38.46 42.2 38.5 C 42.6 37.8 43.3 37.4 44.2 37.4 C 45.7 37.4 46.8 38.5 46.8 40.1 Z M 46.1 40 C 46.1 38.8 45.3 38 44.2 38 C 43 38 42.2 38.8 42.2 40 C 42.2 41.3 43 42.1 44.2 42.1 C 45.3 42.1 46.1 41.3 46.1 40 Z M 47.8 40 C 47.8 38.5 49 37.4 50.5 37.4 C 52.1 37.4 53.2 38.5 53.2 40 C 53.2 41.6 52.1 42.7 50.5 42.7 C 49 42.7 47.8 41.6 47.8 40 Z M 52.5 40 C 52.5 38.8 51.6 38 50.5 38 C 49.4 38 48.5 38.8 48.5 40 C 48.5 41.3 49.4 42.1 50.5 42.1 C 51.6 42.1 52.5 41.3 52.5 40 Z M 63.3 39.6 C 63.29 39.63 63.3 42.7 63.3 42.7 L 62.6 42.7 C 62.6 42.7 62.58 39.7 62.6 39.7 C 62.6 38.6 62 38 61.1 38 C 60 38 59.3 38.7 59.3 39.9 C 59.31 39.92 59.3 42.7 59.3 42.7 L 58.6 42.7 C 58.6 42.7 58.6 39.7 58.6 39.7 C 58.6 38.6 58 38 57.1 38 C 56 38 55.3 38.7 55.3 39.9 C 55.32 39.92 55.3 42.7 55.3 42.7 L 54.6 42.7 L 54.6 37.4 L 55.3 37.4 C 55.3 37.4 55.29 38.38 55.3 38.4 C 55.7 37.7 56.3 37.4 57.2 37.4 C 58.1 37.4 58.8 37.7 59.1 38.5 C 59.5 37.8 60.2 37.4 61.2 37.4 C 62.4 37.4 63.3 38.1 63.3 39.6 Z M 69.8 40.3 C 69.8 40.3 65.4 40.3 65.4 40.3 C 65.5 41.4 66.3 42.1 67.5 42.1 C 68.1 42.1 68.7 41.9 69.1 41.4 C 69.1 41.4 69.5 41.9 69.5 41.9 C 69 42.4 68.3 42.7 67.4 42.7 C 65.8 42.7 64.7 41.6 64.7 40 C 64.7 38.5 65.8 37.4 67.2 37.4 C 68.7 37.4 69.8 38.5 69.8 40 C 69.8 40.1 69.8 40.2 69.8 40.3 Z M 65.4 39.7 C 65.4 39.7 69.1 39.7 69.1 39.7 C 69 38.7 68.3 38 67.2 38 C 66.2 38 65.5 38.7 65.4 39.7 Z M 73.9 42.4 C 73.7 42.6 73.2 42.7 72.8 42.7 C 71.8 42.7 71.3 42.2 71.3 41.2 C 71.28 41.2 71.3 38 71.3 38 L 70.3 38 L 70.3 37.4 L 71.3 37.4 L 71.3 36.3 L 72 36.3 L 72 37.4 L 73.6 37.4 L 73.6 38 L 72 38 C 72 38 71.99 41.16 72 41.2 C 72 41.8 72.3 42.1 72.9 42.1 C 73.2 42.1 73.5 42 73.7 41.9 C 73.7 41.9 73.9 42.4 73.9 42.4 Z M 77.8 37.4 C 77.8 37.4 77.8 38.1 77.8 38.1 C 77.7 38.1 77.6 38.1 77.6 38.1 C 76.5 38.1 75.8 38.8 75.8 40 C 75.83 40 75.8 42.7 75.8 42.7 L 75.1 42.7 L 75.1 37.4 L 75.8 37.4 C 75.8 37.4 75.8 38.45 75.8 38.4 C 76.1 37.7 76.8 37.4 77.8 37.4 Z M 78.8 35.8 C 78.8 35.5 79.1 35.3 79.4 35.3 C 79.6 35.3 79.9 35.5 79.9 35.7 C 79.9 36 79.7 36.3 79.4 36.3 C 79.1 36.3 78.8 36 78.8 35.8 Z M 79 37.4 L 79.7 37.4 L 79.7 42.7 L 79 42.7 L 79 37.4 Z M 81.1 40 C 81.1 38.5 82.2 37.4 83.8 37.4 C 84.7 37.4 85.4 37.7 85.9 38.4 C 85.9 38.4 85.3 38.8 85.3 38.8 C 85 38.2 84.4 38 83.8 38 C 82.7 38 81.8 38.8 81.8 40 C 81.8 41.3 82.7 42.1 83.8 42.1 C 84.4 42.1 85 41.9 85.3 41.3 C 85.3 41.3 85.9 41.7 85.9 41.7 C 85.4 42.4 84.7 42.7 83.8 42.7 C 82.2 42.7 81.1 41.6 81.1 40 Z M 94.7 35.3 L 94.7 42.7 L 94 42.7 C 94 42.7 94 41.64 94 41.6 C 93.6 42.3 92.8 42.7 92 42.7 C 90.5 42.7 89.3 41.6 89.3 40 C 89.3 38.5 90.5 37.4 92 37.4 C 92.8 37.4 93.5 37.7 94 38.4 C 93.97 38.42 94 35.3 94 35.3 L 94.7 35.3 Z M 94 40 C 94 38.8 93.1 38 92 38 C 90.9 38 90.1 38.8 90.1 40 C 90.1 41.3 90.9 42.1 92 42.1 C 93.1 42.1 94 41.3 94 40 Z M 100.6 39.4 C 100.58 39.42 100.6 42.7 100.6 42.7 L 99.9 42.7 C 99.9 42.7 99.9 41.86 99.9 41.9 C 99.6 42.4 99 42.7 98.1 42.7 C 96.9 42.7 96.2 42.1 96.2 41.2 C 96.2 40.4 96.7 39.7 98.2 39.7 C 98.2 39.71 99.9 39.7 99.9 39.7 C 99.9 39.7 99.87 39.39 99.9 39.4 C 99.9 38.5 99.4 38 98.4 38 C 97.7 38 97.1 38.2 96.6 38.6 C 96.6 38.6 96.3 38.1 96.3 38.1 C 96.8 37.6 97.6 37.4 98.4 37.4 C 99.8 37.4 100.6 38.1 100.6 39.4 Z M 99.9 41.1 C 99.87 41.1 99.9 40.2 99.9 40.2 C 99.9 40.2 98.22 40.24 98.2 40.2 C 97.2 40.2 96.9 40.6 96.9 41.2 C 96.9 41.8 97.4 42.2 98.2 42.2 C 99 42.2 99.6 41.8 99.9 41.1 Z M 105.1 42.4 C 104.8 42.6 104.4 42.7 104 42.7 C 103 42.7 102.5 42.2 102.5 41.2 C 102.47 41.2 102.5 38 102.5 38 L 101.5 38 L 101.5 37.4 L 102.5 37.4 L 102.5 36.3 L 103.2 36.3 L 103.2 37.4 L 104.8 37.4 L 104.8 38 L 103.2 38 C 103.2 38 103.18 41.16 103.2 41.2 C 103.2 41.8 103.5 42.1 104.1 42.1 C 104.4 42.1 104.7 42 104.9 41.9 C 104.9 41.9 105.1 42.4 105.1 42.4 Z M 110.4 39.4 C 110.35 39.42 110.4 42.7 110.4 42.7 L 109.7 42.7 C 109.7 42.7 109.67 41.86 109.7 41.9 C 109.4 42.4 108.7 42.7 107.9 42.7 C 106.7 42.7 105.9 42.1 105.9 41.2 C 105.9 40.4 106.5 39.7 108 39.7 C 107.97 39.71 109.6 39.7 109.6 39.7 C 109.6 39.7 109.64 39.39 109.6 39.4 C 109.6 38.5 109.1 38 108.2 38 C 107.5 38 106.8 38.2 106.4 38.6 C 106.4 38.6 106.1 38.1 106.1 38.1 C 106.6 37.6 107.4 37.4 108.2 37.4 C 109.6 37.4 110.4 38.1 110.4 39.4 Z M 109.6 41.1 C 109.64 41.1 109.6 40.2 109.6 40.2 C 109.6 40.2 107.99 40.24 108 40.2 C 107 40.2 106.6 40.6 106.6 41.2 C 106.6 41.8 107.1 42.2 108 42.2 C 108.8 42.2 109.4 41.8 109.6 41.1 Z M 114.2 42.1 C 114.2 42.1 114.5 41.5 114.5 41.5 C 114.9 41.9 115.6 42.1 116.4 42.1 C 117.4 42.1 117.8 41.8 117.8 41.3 C 117.8 39.9 114.4 41 114.4 38.9 C 114.4 38 115.1 37.4 116.4 37.4 C 117.1 37.4 117.9 37.6 118.3 37.9 C 118.3 37.9 118 38.4 118 38.4 C 117.5 38.1 117 38 116.4 38 C 115.5 38 115.1 38.4 115.1 38.9 C 115.1 40.3 118.5 39.2 118.5 41.2 C 118.5 42.1 117.7 42.7 116.3 42.7 C 115.4 42.7 114.6 42.4 114.2 42.1 Z M 124.6 39.6 C 124.63 39.63 124.6 42.7 124.6 42.7 L 123.9 42.7 C 123.9 42.7 123.93 39.7 123.9 39.7 C 123.9 38.6 123.3 38 122.3 38 C 121.2 38 120.5 38.7 120.5 39.9 C 120.5 39.92 120.5 42.7 120.5 42.7 L 119.8 42.7 L 119.8 35.3 L 120.5 35.3 C 120.5 35.3 120.5 38.34 120.5 38.3 C 120.9 37.7 121.6 37.4 122.5 37.4 C 123.8 37.4 124.6 38.1 124.6 39.6 Z M 126 40 C 126 38.5 127.2 37.4 128.7 37.4 C 130.2 37.4 131.4 38.5 131.4 40 C 131.4 41.6 130.2 42.7 128.7 42.7 C 127.2 42.7 126 41.6 126 40 Z M 130.6 40 C 130.6 38.8 129.8 38 128.7 38 C 127.6 38 126.7 38.8 126.7 40 C 126.7 41.3 127.6 42.1 128.7 42.1 C 129.8 42.1 130.6 41.3 130.6 40 Z M 137.5 37.4 L 137.5 42.7 L 136.8 42.7 C 136.8 42.7 136.84 41.72 136.8 41.7 C 136.5 42.4 135.8 42.7 135 42.7 C 133.6 42.7 132.7 42 132.7 40.5 C 132.73 40.47 132.7 37.4 132.7 37.4 L 133.4 37.4 C 133.4 37.4 133.44 40.4 133.4 40.4 C 133.4 41.5 134 42.1 135 42.1 C 136.1 42.1 136.8 41.4 136.8 40.2 C 136.81 40.18 136.8 37.4 136.8 37.4 L 137.5 37.4 Z M 139.4 35.3 L 140.1 35.3 L 140.1 42.7 L 139.4 42.7 L 139.4 35.3 Z M 146.9 35.3 L 146.9 42.7 L 146.2 42.7 C 146.2 42.7 146.18 41.64 146.2 41.6 C 145.7 42.3 145 42.7 144.1 42.7 C 142.6 42.7 141.5 41.6 141.5 40 C 141.5 38.5 142.6 37.4 144.1 37.4 C 145 37.4 145.7 37.7 146.1 38.4 C 146.15 38.42 146.1 35.3 146.1 35.3 L 146.9 35.3 Z M 146.2 40 C 146.2 38.8 145.3 38 144.2 38 C 143.1 38 142.2 38.8 142.2 40 C 142.2 41.3 143.1 42.1 144.2 42.1 C 145.3 42.1 146.2 41.3 146.2 40 Z M 156.8 40 C 156.8 41.6 155.7 42.7 154.2 42.7 C 153.3 42.7 152.6 42.3 152.1 41.6 C 152.14 41.64 152.1 42.7 152.1 42.7 L 151.5 42.7 L 151.5 35.3 L 152.2 35.3 C 152.2 35.3 152.17 38.42 152.2 38.4 C 152.6 37.7 153.3 37.4 154.2 37.4 C 155.7 37.4 156.8 38.5 156.8 40 Z M 156.1 40 C 156.1 38.8 155.2 38 154.1 38 C 153 38 152.2 38.8 152.2 40 C 152.2 41.3 153 42.1 154.1 42.1 C 155.2 42.1 156.1 41.3 156.1 40 Z M 162.9 40.3 C 162.9 40.3 158.5 40.3 158.5 40.3 C 158.6 41.4 159.4 42.1 160.6 42.1 C 161.2 42.1 161.8 41.9 162.2 41.4 C 162.2 41.4 162.6 41.9 162.6 41.9 C 162.1 42.4 161.4 42.7 160.6 42.7 C 158.9 42.7 157.8 41.6 157.8 40 C 157.8 38.5 158.9 37.4 160.4 37.4 C 161.8 37.4 162.9 38.5 162.9 40 C 162.9 40.1 162.9 40.2 162.9 40.3 Z M 158.5 39.7 C 158.5 39.7 162.2 39.7 162.2 39.7 C 162.1 38.7 161.4 38 160.4 38 C 159.3 38 158.6 38.7 158.5 39.7 Z M 171.7 37.4 L 171.7 42.7 L 171 42.7 C 171 42.7 171.05 41.72 171 41.7 C 170.7 42.4 170 42.7 169.2 42.7 C 167.8 42.7 166.9 42 166.9 40.5 C 166.94 40.47 166.9 37.4 166.9 37.4 L 167.6 37.4 C 167.6 37.4 167.65 40.4 167.6 40.4 C 167.6 41.5 168.2 42.1 169.2 42.1 C 170.3 42.1 171 41.4 171 40.2 C 171.02 40.18 171 37.4 171 37.4 L 171.7 37.4 Z M 173 42.1 C 173 42.1 173.3 41.5 173.3 41.5 C 173.8 41.9 174.5 42.1 175.2 42.1 C 176.2 42.1 176.6 41.8 176.6 41.3 C 176.6 39.9 173.2 41 173.2 38.9 C 173.2 38 173.9 37.4 175.3 37.4 C 176 37.4 176.7 37.6 177.1 37.9 C 177.1 37.9 176.8 38.4 176.8 38.4 C 176.4 38.1 175.8 38 175.3 38 C 174.3 38 173.9 38.4 173.9 38.9 C 173.9 40.3 177.3 39.2 177.3 41.2 C 177.3 42.1 176.5 42.7 175.2 42.7 C 174.3 42.7 173.4 42.4 173 42.1 Z M 183.3 40.3 C 183.3 40.3 178.9 40.3 178.9 40.3 C 179 41.4 179.8 42.1 181 42.1 C 181.6 42.1 182.2 41.9 182.6 41.4 C 182.6 41.4 183 41.9 183 41.9 C 182.5 42.4 181.8 42.7 181 42.7 C 179.3 42.7 178.2 41.6 178.2 40 C 178.2 38.5 179.3 37.4 180.8 37.4 C 182.3 37.4 183.3 38.5 183.3 40 C 183.3 40.1 183.3 40.2 183.3 40.3 Z M 178.9 39.7 C 178.9 39.7 182.6 39.7 182.6 39.7 C 182.6 38.7 181.8 38 180.8 38 C 179.8 38 179 38.7 178.9 39.7 Z M 189.7 35.3 L 189.7 42.7 L 189 42.7 C 189 42.7 188.98 41.64 189 41.6 C 188.5 42.3 187.8 42.7 186.9 42.7 C 185.4 42.7 184.3 41.6 184.3 40 C 184.3 38.5 185.4 37.4 186.9 37.4 C 187.8 37.4 188.5 37.7 188.9 38.4 C 188.95 38.42 188.9 35.3 188.9 35.3 L 189.7 35.3 Z M 189 40 C 189 38.8 188.1 38 187 38 C 185.9 38 185 38.8 185 40 C 185 41.3 185.9 42.1 187 42.1 C 188.1 42.1 189 41.3 189 40 Z M 197 42.4 C 196.7 42.6 196.3 42.7 195.9 42.7 C 194.9 42.7 194.4 42.2 194.4 41.2 C 194.38 41.2 194.4 38 194.4 38 L 193.4 38 L 193.4 37.4 L 194.4 37.4 L 194.4 36.3 L 195.1 36.3 L 195.1 37.4 L 196.7 37.4 L 196.7 38 L 195.1 38 C 195.1 38 195.08 41.16 195.1 41.2 C 195.1 41.8 195.4 42.1 196 42.1 C 196.3 42.1 196.6 42 196.8 41.9 C 196.8 41.9 197 42.4 197 42.4 Z M 197.6 40 C 197.6 38.5 198.7 37.4 200.3 37.4 C 201.8 37.4 202.9 38.5 202.9 40 C 202.9 41.6 201.8 42.7 200.3 42.7 C 198.7 42.7 197.6 41.6 197.6 40 Z M 202.2 40 C 202.2 38.8 201.4 38 200.3 38 C 199.1 38 198.3 38.8 198.3 40 C 198.3 41.3 199.1 42.1 200.3 42.1 C 201.4 42.1 202.2 41.3 202.2 40 Z M 211.8 35.3 L 211.8 42.7 L 211.1 42.7 C 211.1 42.7 211.12 41.64 211.1 41.6 C 210.7 42.3 210 42.7 209.1 42.7 C 207.6 42.7 206.5 41.6 206.5 40 C 206.5 38.5 207.6 37.4 209.1 37.4 C 209.9 37.4 210.6 37.7 211.1 38.4 C 211.09 38.42 211.1 35.3 211.1 35.3 L 211.8 35.3 Z M 211.1 40 C 211.1 38.8 210.3 38 209.1 38 C 208 38 207.2 38.8 207.2 40 C 207.2 41.3 208 42.1 209.1 42.1 C 210.3 42.1 211.1 41.3 211.1 40 Z M 218.3 40.3 C 218.3 40.3 213.9 40.3 213.9 40.3 C 214 41.4 214.9 42.1 216 42.1 C 216.7 42.1 217.2 41.9 217.6 41.4 C 217.6 41.4 218 41.9 218 41.9 C 217.6 42.4 216.8 42.7 216 42.7 C 214.4 42.7 213.2 41.6 213.2 40 C 213.2 38.5 214.3 37.4 215.8 37.4 C 217.3 37.4 218.4 38.5 218.4 40 C 218.4 40.1 218.3 40.2 218.3 40.3 Z M 213.9 39.7 C 213.9 39.7 217.7 39.7 217.7 39.7 C 217.6 38.7 216.8 38 215.8 38 C 214.8 38 214 38.7 213.9 39.7 Z M 222.5 42.4 C 222.2 42.6 221.8 42.7 221.4 42.7 C 220.4 42.7 219.8 42.2 219.8 41.2 C 219.84 41.2 219.8 38 219.8 38 L 218.9 38 L 218.9 37.4 L 219.8 37.4 L 219.8 36.3 L 220.6 36.3 L 220.6 37.4 L 222.2 37.4 L 222.2 38 L 220.6 38 C 220.6 38 220.55 41.16 220.6 41.2 C 220.6 41.8 220.9 42.1 221.5 42.1 C 221.8 42.1 222 42 222.2 41.9 C 222.2 41.9 222.5 42.4 222.5 42.4 Z M 228.2 40.3 C 228.2 40.3 223.8 40.3 223.8 40.3 C 223.8 41.4 224.7 42.1 225.8 42.1 C 226.5 42.1 227 41.9 227.4 41.4 C 227.4 41.4 227.8 41.9 227.8 41.9 C 227.4 42.4 226.6 42.7 225.8 42.7 C 224.2 42.7 223 41.6 223 40 C 223 38.5 224.1 37.4 225.6 37.4 C 227.1 37.4 228.2 38.5 228.2 40 C 228.2 40.1 228.2 40.2 228.2 40.3 Z M 223.8 39.7 C 223.8 39.7 227.5 39.7 227.5 39.7 C 227.4 38.7 226.6 38 225.6 38 C 224.6 38 223.8 38.7 223.8 39.7 Z M 232.2 37.4 C 232.2 37.4 232.2 38.1 232.2 38.1 C 232.2 38.1 232.1 38.1 232 38.1 C 230.9 38.1 230.3 38.8 230.3 40 C 230.28 40 230.3 42.7 230.3 42.7 L 229.6 42.7 L 229.6 37.4 L 230.2 37.4 C 230.2 37.4 230.25 38.45 230.2 38.4 C 230.6 37.7 231.2 37.4 232.2 37.4 Z M 242.1 39.6 C 242.12 39.63 242.1 42.7 242.1 42.7 L 241.4 42.7 C 241.4 42.7 241.41 39.7 241.4 39.7 C 241.4 38.6 240.9 38 239.9 38 C 238.8 38 238.1 38.7 238.1 39.9 C 238.14 39.92 238.1 42.7 238.1 42.7 L 237.4 42.7 C 237.4 42.7 237.43 39.7 237.4 39.7 C 237.4 38.6 236.9 38 235.9 38 C 234.8 38 234.2 38.7 234.2 39.9 C 234.15 39.92 234.2 42.7 234.2 42.7 L 233.4 42.7 L 233.4 37.4 L 234.1 37.4 C 234.1 37.4 234.12 38.38 234.1 38.4 C 234.5 37.7 235.2 37.4 236.1 37.4 C 236.9 37.4 237.6 37.7 237.9 38.5 C 238.3 37.8 239.1 37.4 240 37.4 C 241.3 37.4 242.1 38.1 242.1 39.6 Z M 243.8 35.8 C 243.8 35.5 244 35.3 244.3 35.3 C 244.6 35.3 244.8 35.5 244.8 35.7 C 244.8 36 244.6 36.3 244.3 36.3 C 244 36.3 243.8 36 243.8 35.8 Z M 243.9 37.4 L 244.6 37.4 L 244.6 42.7 L 243.9 42.7 L 243.9 37.4 Z M 251.3 39.6 C 251.32 39.63 251.3 42.7 251.3 42.7 L 250.6 42.7 C 250.6 42.7 250.61 39.7 250.6 39.7 C 250.6 38.6 250 38 249 38 C 247.9 38 247.2 38.7 247.2 39.9 C 247.19 39.92 247.2 42.7 247.2 42.7 L 246.5 42.7 L 246.5 37.4 L 247.2 37.4 C 247.2 37.4 247.16 38.39 247.2 38.4 C 247.5 37.7 248.3 37.4 249.2 37.4 C 250.4 37.4 251.3 38.1 251.3 39.6 Z M 257.8 40.3 C 257.8 40.3 253.4 40.3 253.4 40.3 C 253.5 41.4 254.3 42.1 255.5 42.1 C 256.1 42.1 256.7 41.9 257.1 41.4 C 257.1 41.4 257.5 41.9 257.5 41.9 C 257 42.4 256.3 42.7 255.5 42.7 C 253.8 42.7 252.7 41.6 252.7 40 C 252.7 38.5 253.8 37.4 255.3 37.4 C 256.8 37.4 257.8 38.5 257.8 40 C 257.8 40.1 257.8 40.2 257.8 40.3 Z M 253.4 39.7 C 253.4 39.7 257.1 39.7 257.1 39.7 C 257.1 38.7 256.3 38 255.3 38 C 254.3 38 253.5 38.7 253.4 39.7 Z M 265.9 39.4 C 265.86 39.42 265.9 42.7 265.9 42.7 L 265.2 42.7 C 265.2 42.7 265.18 41.86 265.2 41.9 C 264.9 42.4 264.2 42.7 263.4 42.7 C 262.2 42.7 261.5 42.1 261.5 41.2 C 261.5 40.4 262 39.7 263.5 39.7 C 263.48 39.71 265.2 39.7 265.2 39.7 C 265.2 39.7 265.15 39.39 265.2 39.4 C 265.2 38.5 264.6 38 263.7 38 C 263 38 262.3 38.2 261.9 38.6 C 261.9 38.6 261.6 38.1 261.6 38.1 C 262.1 37.6 262.9 37.4 263.7 37.4 C 265.1 37.4 265.9 38.1 265.9 39.4 Z M 265.2 41.1 C 265.15 41.1 265.2 40.2 265.2 40.2 C 265.2 40.2 263.5 40.24 263.5 40.2 C 262.5 40.2 262.2 40.6 262.2 41.2 C 262.2 41.8 262.6 42.2 263.5 42.2 C 264.3 42.2 264.9 41.8 265.2 41.1 Z M 273 40.1 C 273 41.7 271.9 42.7 270.4 42.7 C 269.5 42.7 268.8 42.4 268.4 41.7 C 268.39 41.69 268.4 44.6 268.4 44.6 L 267.7 44.6 L 267.7 37.4 L 268.4 37.4 C 268.4 37.4 268.36 38.46 268.4 38.5 C 268.8 37.8 269.5 37.4 270.4 37.4 C 271.9 37.4 273 38.5 273 40.1 Z M 272.3 40 C 272.3 38.8 271.4 38 270.3 38 C 269.2 38 268.4 38.8 268.4 40 C 268.4 41.3 269.2 42.1 270.3 42.1 C 271.4 42.1 272.3 41.3 272.3 40 Z M 279.8 40.1 C 279.8 41.7 278.7 42.7 277.2 42.7 C 276.3 42.7 275.6 42.4 275.2 41.7 C 275.16 41.69 275.2 44.6 275.2 44.6 L 274.5 44.6 L 274.5 37.4 L 275.1 37.4 C 275.1 37.4 275.13 38.46 275.1 38.5 C 275.6 37.8 276.3 37.4 277.2 37.4 C 278.7 37.4 279.8 38.5 279.8 40.1 Z M 279.1 40 C 279.1 38.8 278.2 38 277.1 38 C 276 38 275.2 38.8 275.2 40 C 275.2 41.3 276 42.1 277.1 42.1 C 278.2 42.1 279.1 41.3 279.1 40 Z M 283.9 37.4 C 283.9 37.4 283.9 38.1 283.9 38.1 C 283.8 38.1 283.8 38.1 283.7 38.1 C 282.6 38.1 281.9 38.8 281.9 40 C 281.93 40 281.9 42.7 281.9 42.7 L 281.2 42.7 L 281.2 37.4 L 281.9 37.4 C 281.9 37.4 281.9 38.45 281.9 38.4 C 282.2 37.7 282.9 37.4 283.9 37.4 Z M 284.5 40 C 284.5 38.5 285.6 37.4 287.2 37.4 C 288.7 37.4 289.8 38.5 289.8 40 C 289.8 41.6 288.7 42.7 287.2 42.7 C 285.6 42.7 284.5 41.6 284.5 40 Z M 289.1 40 C 289.1 38.8 288.3 38 287.2 38 C 286.1 38 285.2 38.8 285.2 40 C 285.2 41.3 286.1 42.1 287.2 42.1 C 288.3 42.1 289.1 41.3 289.1 40 Z M 296.6 40.1 C 296.6 41.7 295.5 42.7 294 42.7 C 293.1 42.7 292.4 42.4 292 41.7 C 291.98 41.69 292 44.6 292 44.6 L 291.3 44.6 L 291.3 37.4 L 291.9 37.4 C 291.9 37.4 291.95 38.46 291.9 38.5 C 292.4 37.8 293.1 37.4 294 37.4 C 295.5 37.4 296.6 38.5 296.6 40.1 Z M 295.9 40 C 295.9 38.8 295 38 293.9 38 C 292.8 38 292 38.8 292 40 C 292 41.3 292.8 42.1 293.9 42.1 C 295 42.1 295.9 41.3 295.9 40 Z M 300.7 37.4 C 300.7 37.4 300.7 38.1 300.7 38.1 C 300.6 38.1 300.6 38.1 300.5 38.1 C 299.4 38.1 298.7 38.8 298.7 40 C 298.75 40 298.7 42.7 298.7 42.7 L 298 42.7 L 298 37.4 L 298.7 37.4 C 298.7 37.4 298.72 38.45 298.7 38.4 C 299 37.7 299.7 37.4 300.7 37.4 Z M 301.8 35.8 C 301.8 35.5 302 35.3 302.3 35.3 C 302.6 35.3 302.8 35.5 302.8 35.7 C 302.8 36 302.6 36.3 302.3 36.3 C 302 36.3 301.8 36 301.8 35.8 Z M 301.9 37.4 L 302.6 37.4 L 302.6 42.7 L 301.9 42.7 L 301.9 37.4 Z M 308.5 39.4 C 308.5 39.42 308.5 42.7 308.5 42.7 L 307.8 42.7 C 307.8 42.7 307.82 41.86 307.8 41.9 C 307.5 42.4 306.9 42.7 306 42.7 C 304.8 42.7 304.1 42.1 304.1 41.2 C 304.1 40.4 304.6 39.7 306.1 39.7 C 306.12 39.71 307.8 39.7 307.8 39.7 C 307.8 39.7 307.79 39.39 307.8 39.4 C 307.8 38.5 307.3 38 306.3 38 C 305.6 38 305 38.2 304.5 38.6 C 304.5 38.6 304.2 38.1 304.2 38.1 C 304.8 37.6 305.5 37.4 306.4 37.4 C 307.7 37.4 308.5 38.1 308.5 39.4 Z M 307.8 41.1 C 307.79 41.1 307.8 40.2 307.8 40.2 C 307.8 40.2 306.14 40.24 306.1 40.2 C 305.1 40.2 304.8 40.6 304.8 41.2 C 304.8 41.8 305.3 42.2 306.1 42.2 C 306.9 42.2 307.5 41.8 307.8 41.1 Z M 313 42.4 C 312.8 42.6 312.3 42.7 311.9 42.7 C 310.9 42.7 310.4 42.2 310.4 41.2 C 310.39 41.2 310.4 38 310.4 38 L 309.5 38 L 309.5 37.4 L 310.4 37.4 L 310.4 36.3 L 311.1 36.3 L 311.1 37.4 L 312.7 37.4 L 312.7 38 L 311.1 38 C 311.1 38 311.1 41.16 311.1 41.2 C 311.1 41.8 311.4 42.1 312 42.1 C 312.3 42.1 312.6 42 312.8 41.9 C 312.8 41.9 313 42.4 313 42.4 Z M 318.7 40.3 C 318.7 40.3 314.3 40.3 314.3 40.3 C 314.4 41.4 315.2 42.1 316.4 42.1 C 317 42.1 317.6 41.9 318 41.4 C 318 41.4 318.4 41.9 318.4 41.9 C 317.9 42.4 317.2 42.7 316.4 42.7 C 314.7 42.7 313.6 41.6 313.6 40 C 313.6 38.5 314.7 37.4 316.2 37.4 C 317.6 37.4 318.7 38.5 318.7 40 C 318.7 40.1 318.7 40.2 318.7 40.3 Z M 314.3 39.7 C 314.3 39.7 318 39.7 318 39.7 C 317.9 38.7 317.2 38 316.2 38 C 315.1 38 314.4 38.7 314.3 39.7 Z M 327.6 35.3 L 327.6 42.7 L 326.9 42.7 C 326.9 42.7 326.9 41.64 326.9 41.6 C 326.5 42.3 325.7 42.7 324.9 42.7 C 323.4 42.7 322.3 41.6 322.3 40 C 322.3 38.5 323.4 37.4 324.9 37.4 C 325.7 37.4 326.4 37.7 326.9 38.4 C 326.87 38.42 326.9 35.3 326.9 35.3 L 327.6 35.3 Z M 326.9 40 C 326.9 38.8 326 38 324.9 38 C 323.8 38 323 38.8 323 40 C 323 41.3 323.8 42.1 324.9 42.1 C 326 42.1 326.9 41.3 326.9 40 Z M 329.3 35.8 C 329.3 35.5 329.5 35.3 329.8 35.3 C 330.1 35.3 330.3 35.5 330.3 35.7 C 330.3 36 330.1 36.3 329.8 36.3 C 329.5 36.3 329.3 36 329.3 35.8 Z M 329.4 37.4 L 330.2 37.4 L 330.2 42.7 L 329.4 42.7 L 329.4 37.4 Z M 340.7 39.6 C 340.68 39.63 340.7 42.7 340.7 42.7 L 340 42.7 C 340 42.7 339.97 39.7 340 39.7 C 340 38.6 339.4 38 338.5 38 C 337.4 38 336.7 38.7 336.7 39.9 C 336.7 39.92 336.7 42.7 336.7 42.7 L 336 42.7 C 336 42.7 335.99 39.7 336 39.7 C 336 38.6 335.4 38 334.5 38 C 333.4 38 332.7 38.7 332.7 39.9 C 332.71 39.92 332.7 42.7 332.7 42.7 L 332 42.7 L 332 37.4 L 332.7 37.4 C 332.7 37.4 332.68 38.38 332.7 38.4 C 333 37.7 333.7 37.4 334.6 37.4 C 335.5 37.4 336.2 37.7 336.5 38.5 C 336.9 37.8 337.6 37.4 338.6 37.4 C 339.8 37.4 340.7 38.1 340.7 39.6 Z M 347.2 40.3 C 347.2 40.3 342.8 40.3 342.8 40.3 C 342.9 41.4 343.7 42.1 344.9 42.1 C 345.5 42.1 346.1 41.9 346.5 41.4 C 346.5 41.4 346.9 41.9 346.9 41.9 C 346.4 42.4 345.7 42.7 344.8 42.7 C 343.2 42.7 342.1 41.6 342.1 40 C 342.1 38.5 343.2 37.4 344.6 37.4 C 346.1 37.4 347.2 38.5 347.2 40 C 347.2 40.1 347.2 40.2 347.2 40.3 Z M 342.8 39.7 C 342.8 39.7 346.5 39.7 346.5 39.7 C 346.4 38.7 345.7 38 344.6 38 C 343.6 38 342.9 38.7 342.8 39.7 Z M 353.4 39.6 C 353.43 39.63 353.4 42.7 353.4 42.7 L 352.7 42.7 C 352.7 42.7 352.73 39.7 352.7 39.7 C 352.7 38.6 352.1 38 351.1 38 C 350 38 349.3 38.7 349.3 39.9 C 349.3 39.92 349.3 42.7 349.3 42.7 L 348.6 42.7 L 348.6 37.4 L 349.3 37.4 C 349.3 37.4 349.27 38.39 349.3 38.4 C 349.7 37.7 350.4 37.4 351.3 37.4 C 352.6 37.4 353.4 38.1 353.4 39.6 Z M 354.7 42.1 C 354.7 42.1 355 41.5 355 41.5 C 355.4 41.9 356.1 42.1 356.8 42.1 C 357.8 42.1 358.3 41.8 358.3 41.3 C 358.3 39.9 354.8 41 354.8 38.9 C 354.8 38 355.6 37.4 356.9 37.4 C 357.6 37.4 358.3 37.6 358.8 37.9 C 358.8 37.9 358.5 38.4 358.5 38.4 C 358 38.1 357.5 38 356.9 38 C 356 38 355.6 38.4 355.6 38.9 C 355.6 40.3 359 39.2 359 41.2 C 359 42.1 358.2 42.7 356.8 42.7 C 355.9 42.7 355.1 42.4 354.7 42.1 Z M 360.1 35.8 C 360.1 35.5 360.3 35.3 360.6 35.3 C 360.9 35.3 361.1 35.5 361.1 35.7 C 361.1 36 360.9 36.3 360.6 36.3 C 360.3 36.3 360.1 36 360.1 35.8 Z M 360.3 37.4 L 361 37.4 L 361 42.7 L 360.3 42.7 L 360.3 37.4 Z M 362.4 40 C 362.4 38.5 363.5 37.4 365.1 37.4 C 366.6 37.4 367.7 38.5 367.7 40 C 367.7 41.6 366.6 42.7 365.1 42.7 C 363.5 42.7 362.4 41.6 362.4 40 Z M 367 40 C 367 38.8 366.2 38 365.1 38 C 363.9 38 363.1 38.8 363.1 40 C 363.1 41.3 363.9 42.1 365.1 42.1 C 366.2 42.1 367 41.3 367 40 Z M 374 39.6 C 373.99 39.63 374 42.7 374 42.7 L 373.3 42.7 C 373.3 42.7 373.28 39.7 373.3 39.7 C 373.3 38.6 372.7 38 371.7 38 C 370.6 38 369.9 38.7 369.9 39.9 C 369.86 39.92 369.9 42.7 369.9 42.7 L 369.1 42.7 L 369.1 37.4 L 369.8 37.4 C 369.8 37.4 369.83 38.39 369.8 38.4 C 370.2 37.7 370.9 37.4 371.8 37.4 C 373.1 37.4 374 38.1 374 39.6 Z M 375.2 42.1 C 375.2 42.1 375.5 41.5 375.5 41.5 C 375.9 41.9 376.7 42.1 377.4 42.1 C 378.4 42.1 378.8 41.8 378.8 41.3 C 378.8 39.9 375.4 41 375.4 38.9 C 375.4 38 376.1 37.4 377.5 37.4 C 378.2 37.4 378.9 37.6 379.3 37.9 C 379.3 37.9 379 38.4 379 38.4 C 378.6 38.1 378 38 377.5 38 C 376.5 38 376.1 38.4 376.1 38.9 C 376.1 40.3 379.5 39.2 379.5 41.2 C 379.5 42.1 378.7 42.7 377.3 42.7 C 376.5 42.7 375.6 42.4 375.2 42.1 Z M 384.3 36.8 C 384.26 36.8 384.3 37.4 384.3 37.4 L 385.9 37.4 L 385.9 38 L 384.3 38 L 384.3 42.7 L 383.6 42.7 L 383.6 38 L 382.6 38 L 382.6 37.4 L 383.6 37.4 C 383.6 37.4 383.57 36.77 383.6 36.8 C 383.6 35.8 384.1 35.2 385.2 35.2 C 385.5 35.2 385.9 35.3 386.2 35.5 C 386.2 35.5 386 36.1 386 36.1 C 385.8 35.9 385.5 35.8 385.2 35.8 C 384.6 35.8 384.3 36.1 384.3 36.8 Z M 386.3 40 C 386.3 38.5 387.4 37.4 389 37.4 C 390.5 37.4 391.6 38.5 391.6 40 C 391.6 41.6 390.5 42.7 389 42.7 C 387.4 42.7 386.3 41.6 386.3 40 Z M 390.9 40 C 390.9 38.8 390.1 38 389 38 C 387.8 38 387 38.8 387 40 C 387 41.3 387.8 42.1 389 42.1 C 390.1 42.1 390.9 41.3 390.9 40 Z M 395.7 37.4 C 395.7 37.4 395.7 38.1 395.7 38.1 C 395.7 38.1 395.6 38.1 395.5 38.1 C 394.4 38.1 393.8 38.8 393.8 40 C 393.77 40 393.8 42.7 393.8 42.7 L 393.1 42.7 L 393.1 37.4 L 393.7 37.4 C 393.7 37.4 393.74 38.45 393.7 38.4 C 394.1 37.7 394.7 37.4 395.7 37.4 Z M 399.2 40 C 399.2 38.5 400.3 37.4 401.9 37.4 C 402.8 37.4 403.5 37.7 403.9 38.4 C 403.9 38.4 403.4 38.8 403.4 38.8 C 403 38.2 402.5 38 401.9 38 C 400.7 38 399.9 38.8 399.9 40 C 399.9 41.3 400.7 42.1 401.9 42.1 C 402.5 42.1 403 41.9 403.4 41.3 C 403.4 41.3 403.9 41.7 403.9 41.7 C 403.5 42.4 402.8 42.7 401.9 42.7 C 400.3 42.7 399.2 41.6 399.2 40 Z M 404.7 40 C 404.7 38.5 405.9 37.4 407.4 37.4 C 408.9 37.4 410.1 38.5 410.1 40 C 410.1 41.6 408.9 42.7 407.4 42.7 C 405.9 42.7 404.7 41.6 404.7 40 Z M 409.4 40 C 409.4 38.8 408.5 38 407.4 38 C 406.3 38 405.4 38.8 405.4 40 C 405.4 41.3 406.3 42.1 407.4 42.1 C 408.5 42.1 409.4 41.3 409.4 40 Z M 416.3 39.6 C 416.34 39.63 416.3 42.7 416.3 42.7 L 415.6 42.7 C 415.6 42.7 415.63 39.7 415.6 39.7 C 415.6 38.6 415 38 414 38 C 412.9 38 412.2 38.7 412.2 39.9 C 412.21 39.92 412.2 42.7 412.2 42.7 L 411.5 42.7 L 411.5 37.4 L 412.2 37.4 C 412.2 37.4 412.18 38.39 412.2 38.4 C 412.6 37.7 413.3 37.4 414.2 37.4 C 415.5 37.4 416.3 38.1 416.3 39.6 Z M 420.9 42.4 C 420.6 42.6 420.2 42.7 419.8 42.7 C 418.8 42.7 418.2 42.2 418.2 41.2 C 418.22 41.2 418.2 38 418.2 38 L 417.3 38 L 417.3 37.4 L 418.2 37.4 L 418.2 36.3 L 418.9 36.3 L 418.9 37.4 L 420.5 37.4 L 420.5 38 L 418.9 38 C 418.9 38 418.93 41.16 418.9 41.2 C 418.9 41.8 419.2 42.1 419.8 42.1 C 420.1 42.1 420.4 42 420.6 41.9 C 420.6 41.9 420.9 42.4 420.9 42.4 Z M 424.7 37.4 C 424.7 37.4 424.7 38.1 424.7 38.1 C 424.6 38.1 424.6 38.1 424.5 38.1 C 423.4 38.1 422.8 38.8 422.8 40 C 422.77 40 422.8 42.7 422.8 42.7 L 422.1 42.7 L 422.1 37.4 L 422.7 37.4 C 422.7 37.4 422.74 38.45 422.7 38.4 C 423.1 37.7 423.7 37.4 424.7 37.4 Z M 425.3 40 C 425.3 38.5 426.5 37.4 428 37.4 C 429.5 37.4 430.7 38.5 430.7 40 C 430.7 41.6 429.5 42.7 428 42.7 C 426.5 42.7 425.3 41.6 425.3 40 Z M 430 40 C 430 38.8 429.1 38 428 38 C 426.9 38 426 38.8 426 40 C 426 41.3 426.9 42.1 428 42.1 C 429.1 42.1 430 41.3 430 40 Z M 432.1 35.3 L 432.8 35.3 L 432.8 42.7 L 432.1 42.7 L 432.1 35.3 Z M 434.1 42.1 C 434.1 42.1 434.4 41.5 434.4 41.5 C 434.8 41.9 435.6 42.1 436.3 42.1 C 437.3 42.1 437.7 41.8 437.7 41.3 C 437.7 39.9 434.3 41 434.3 38.9 C 434.3 38 435 37.4 436.4 37.4 C 437.1 37.4 437.8 37.6 438.2 37.9 C 438.2 37.9 437.9 38.4 437.9 38.4 C 437.5 38.1 436.9 38 436.4 38 C 435.4 38 435 38.4 435 38.9 C 435 40.3 438.4 39.2 438.4 41.2 C 438.4 42.1 437.6 42.7 436.2 42.7 C 435.4 42.7 434.5 42.4 434.1 42.1 Z M 446.3 39.4 C 446.32 39.42 446.3 42.7 446.3 42.7 L 445.6 42.7 C 445.6 42.7 445.64 41.86 445.6 41.9 C 445.3 42.4 444.7 42.7 443.8 42.7 C 442.6 42.7 441.9 42.1 441.9 41.2 C 441.9 40.4 442.4 39.7 443.9 39.7 C 443.94 39.71 445.6 39.7 445.6 39.7 C 445.6 39.7 445.61 39.39 445.6 39.4 C 445.6 38.5 445.1 38 444.1 38 C 443.4 38 442.8 38.2 442.4 38.6 C 442.4 38.6 442 38.1 442 38.1 C 442.6 37.6 443.4 37.4 444.2 37.4 C 445.5 37.4 446.3 38.1 446.3 39.4 Z M 445.6 41.1 C 445.61 41.1 445.6 40.2 445.6 40.2 C 445.6 40.2 443.96 40.24 444 40.2 C 442.9 40.2 442.6 40.6 442.6 41.2 C 442.6 41.8 443.1 42.2 443.9 42.2 C 444.7 42.2 445.3 41.8 445.6 41.1 Z M 453 39.6 C 452.97 39.63 453 42.7 453 42.7 L 452.3 42.7 C 452.3 42.7 452.26 39.7 452.3 39.7 C 452.3 38.6 451.7 38 450.7 38 C 449.6 38 448.8 38.7 448.8 39.9 C 448.84 39.92 448.8 42.7 448.8 42.7 L 448.1 42.7 L 448.1 37.4 L 448.8 37.4 C 448.8 37.4 448.81 38.39 448.8 38.4 C 449.2 37.7 449.9 37.4 450.8 37.4 C 452.1 37.4 453 38.1 453 39.6 Z M 459.7 35.3 L 459.7 42.7 L 459 42.7 C 459 42.7 459 41.64 459 41.6 C 458.6 42.3 457.8 42.7 457 42.7 C 455.5 42.7 454.4 41.6 454.4 40 C 454.4 38.5 455.5 37.4 457 37.4 C 457.8 37.4 458.5 37.7 459 38.4 C 458.97 38.42 459 35.3 459 35.3 L 459.7 35.3 Z M 459 40 C 459 38.8 458.1 38 457 38 C 455.9 38 455.1 38.8 455.1 40 C 455.1 41.3 455.9 42.1 457 42.1 C 458.1 42.1 459 41.3 459 40 Z " stroke="none" fill="#323132"/>
  </g>
  <g id="Polygon118125">
    <path d="M 10.2 15.8 C 9.6 15.8 9.1 15.7 8.7 15.5 C 8.2 15.4 7.8 15.1 7.5 14.8 C 7.1 14.5 6.9 14.1 6.7 13.6 C 6.5 13.2 6.4 12.7 6.4 12.2 C 6.4 11.7 6.5 11.2 6.7 10.7 C 6.9 10.3 7.1 9.9 7.5 9.6 C 7.8 9.3 8.2 9 8.7 8.8 C 9.1 8.6 9.6 8.6 10.2 8.6 C 10.8 8.6 11.3 8.7 11.8 8.9 C 12.3 9.1 12.7 9.4 13.1 9.8 C 13.1 9.8 12 10.8 12 10.8 C 11.8 10.5 11.5 10.3 11.2 10.1 C 10.9 10 10.6 9.9 10.3 9.9 C 9.9 9.9 9.6 10 9.4 10.1 C 9.1 10.2 8.9 10.4 8.7 10.6 C 8.5 10.8 8.3 11 8.2 11.3 C 8.1 11.5 8 11.8 8 12.2 C 8 12.5 8.1 12.8 8.2 13.1 C 8.3 13.4 8.5 13.6 8.7 13.8 C 8.9 14 9.1 14.2 9.4 14.3 C 9.6 14.4 9.9 14.4 10.3 14.4 C 10.6 14.4 10.9 14.4 11.2 14.2 C 11.5 14.1 11.8 13.9 12 13.6 C 12 13.6 13.1 14.5 13.1 14.5 C 12.7 15 12.3 15.3 11.8 15.5 C 11.3 15.7 10.8 15.8 10.2 15.8 Z M 16.6 15.8 C 16 15.8 15.5 15.6 15.1 15.4 C 14.6 15.2 14.3 14.8 14 14.4 C 13.7 14 13.6 13.5 13.6 13 C 13.6 12.4 13.7 12 14 11.6 C 14.3 11.1 14.6 10.8 15.1 10.6 C 15.5 10.3 16 10.2 16.6 10.2 C 17.1 10.2 17.7 10.3 18.1 10.6 C 18.5 10.8 18.9 11.1 19.1 11.5 C 19.4 12 19.5 12.4 19.5 13 C 19.5 13.5 19.4 14 19.1 14.4 C 18.9 14.8 18.5 15.2 18.1 15.4 C 17.7 15.6 17.1 15.8 16.6 15.8 Z M 16.6 14.5 C 16.8 14.5 17.1 14.4 17.3 14.3 C 17.5 14.2 17.6 14 17.8 13.8 C 17.9 13.6 17.9 13.3 17.9 13 C 17.9 12.7 17.9 12.4 17.8 12.2 C 17.6 12 17.5 11.8 17.3 11.7 C 17.1 11.6 16.8 11.5 16.6 11.5 C 16.3 11.5 16.1 11.6 15.9 11.7 C 15.7 11.8 15.5 12 15.4 12.2 C 15.3 12.4 15.2 12.7 15.2 13 C 15.2 13.3 15.3 13.6 15.4 13.8 C 15.5 14 15.7 14.2 15.9 14.3 C 16.1 14.4 16.3 14.5 16.6 14.5 Z M 23.9 10.2 C 24.3 10.2 24.7 10.3 25 10.5 C 25.3 10.6 25.6 10.9 25.8 11.3 C 26 11.6 26.1 12.1 26.1 12.6 C 26.1 12.6 26.1 15.7 26.1 15.7 L 24.5 15.7 C 24.5 15.7 24.54 12.84 24.5 12.8 C 24.5 12.4 24.4 12.1 24.3 11.9 C 24.1 11.7 23.8 11.6 23.4 11.6 C 23.2 11.6 23 11.6 22.8 11.7 C 22.6 11.8 22.4 12 22.3 12.2 C 22.2 12.4 22.2 12.7 22.2 13 C 22.16 13.02 22.2 15.7 22.2 15.7 L 20.6 15.7 L 20.6 10.3 L 22.1 10.3 L 22.1 11.8 C 22.1 11.8 21.81 11.34 21.8 11.3 C 22 11 22.3 10.7 22.6 10.5 C 23 10.3 23.4 10.2 23.9 10.2 Z M 29.7 15.8 C 29 15.8 28.6 15.6 28.2 15.3 C 27.8 15 27.7 14.5 27.7 13.8 C 27.67 13.83 27.7 9.1 27.7 9.1 L 29.2 9.1 C 29.2 9.1 29.23 13.81 29.2 13.8 C 29.2 14 29.3 14.2 29.4 14.3 C 29.5 14.5 29.7 14.5 29.9 14.5 C 30.1 14.5 30.4 14.5 30.5 14.3 C 30.5 14.3 31 15.4 31 15.4 C 30.8 15.5 30.6 15.6 30.4 15.7 C 30.2 15.7 29.9 15.8 29.7 15.8 Z M 26.8 11.6 L 26.8 10.4 L 30.6 10.4 L 30.6 11.6 L 26.8 11.6 Z M 31.8 15.7 L 31.8 10.3 L 33.3 10.3 L 33.3 11.8 C 33.3 11.8 33.13 11.38 33.1 11.4 C 33.3 11 33.5 10.7 33.9 10.5 C 34.2 10.3 34.7 10.2 35.2 10.2 C 35.2 10.2 35.2 11.7 35.2 11.7 C 35.1 11.7 35.1 11.6 35 11.6 C 35 11.6 34.9 11.6 34.8 11.6 C 34.4 11.6 34.1 11.8 33.8 12 C 33.5 12.2 33.4 12.6 33.4 13.1 C 33.41 13.14 33.4 15.7 33.4 15.7 L 31.8 15.7 Z M 38.7 15.8 C 38.1 15.8 37.6 15.6 37.2 15.4 C 36.7 15.2 36.4 14.8 36.1 14.4 C 35.9 14 35.7 13.5 35.7 13 C 35.7 12.4 35.9 12 36.1 11.6 C 36.4 11.1 36.7 10.8 37.2 10.6 C 37.6 10.3 38.1 10.2 38.7 10.2 C 39.3 10.2 39.8 10.3 40.2 10.6 C 40.7 10.8 41 11.1 41.3 11.5 C 41.5 12 41.7 12.4 41.7 13 C 41.7 13.5 41.5 14 41.3 14.4 C 41 14.8 40.7 15.2 40.2 15.4 C 39.8 15.6 39.3 15.8 38.7 15.8 Z M 38.7 14.5 C 39 14.5 39.2 14.4 39.4 14.3 C 39.6 14.2 39.8 14 39.9 13.8 C 40 13.6 40.1 13.3 40.1 13 C 40.1 12.7 40 12.4 39.9 12.2 C 39.8 12 39.6 11.8 39.4 11.7 C 39.2 11.6 39 11.5 38.7 11.5 C 38.4 11.5 38.2 11.6 38 11.7 C 37.8 11.8 37.6 12 37.5 12.2 C 37.4 12.4 37.3 12.7 37.3 13 C 37.3 13.3 37.4 13.6 37.5 13.8 C 37.6 14 37.8 14.2 38 14.3 C 38.2 14.4 38.4 14.5 38.7 14.5 Z M 42.7 15.7 L 42.7 8.3 L 44.3 8.3 L 44.3 15.7 L 42.7 15.7 Z M 50.9 15.8 C 50.4 15.8 49.9 15.6 49.5 15.4 C 49.1 15.2 48.8 14.9 48.6 14.4 C 48.3 14 48.2 13.5 48.2 13 C 48.2 12.4 48.3 11.9 48.6 11.5 C 48.8 11.1 49.1 10.8 49.5 10.6 C 49.9 10.3 50.4 10.2 50.9 10.2 C 51.3 10.2 51.7 10.3 52.1 10.5 C 52.4 10.7 52.7 11 52.9 11.4 C 53.1 11.8 53.1 12.4 53.1 13 C 53.1 13.6 53.1 14.1 52.9 14.5 C 52.7 15 52.4 15.3 52.1 15.5 C 51.8 15.7 51.4 15.8 50.9 15.8 Z M 51.2 14.5 C 51.4 14.5 51.6 14.4 51.8 14.3 C 52.1 14.2 52.2 14 52.3 13.8 C 52.5 13.6 52.5 13.3 52.5 13 C 52.5 12.7 52.5 12.4 52.3 12.2 C 52.2 12 52.1 11.8 51.8 11.7 C 51.6 11.6 51.4 11.5 51.2 11.5 C 50.9 11.5 50.7 11.6 50.5 11.7 C 50.3 11.8 50.1 12 50 12.2 C 49.8 12.4 49.8 12.7 49.8 13 C 49.8 13.3 49.8 13.6 50 13.8 C 50.1 14 50.3 14.2 50.5 14.3 C 50.7 14.4 50.9 14.5 51.2 14.5 Z M 52.6 15.7 L 52.6 14.6 L 52.6 13 L 52.5 11.4 L 52.5 8.3 L 54.1 8.3 L 54.1 15.7 L 52.6 15.7 Z M 58.2 15.8 C 57.6 15.8 57 15.6 56.6 15.4 C 56.1 15.2 55.8 14.8 55.5 14.4 C 55.3 14 55.1 13.5 55.1 13 C 55.1 12.4 55.3 12 55.5 11.6 C 55.8 11.1 56.1 10.8 56.5 10.6 C 57 10.3 57.5 10.2 58 10.2 C 58.5 10.2 59 10.3 59.4 10.6 C 59.8 10.8 60.2 11.1 60.4 11.5 C 60.7 11.9 60.8 12.4 60.8 13 C 60.8 13.1 60.8 13.1 60.8 13.2 C 60.8 13.3 60.8 13.4 60.8 13.4 C 60.77 13.43 56.4 13.4 56.4 13.4 L 56.4 12.5 L 59.9 12.5 C 59.9 12.5 59.35 12.79 59.3 12.8 C 59.3 12.5 59.3 12.3 59.2 12.1 C 59.1 11.9 58.9 11.7 58.7 11.6 C 58.5 11.5 58.3 11.4 58 11.4 C 57.7 11.4 57.5 11.5 57.3 11.6 C 57.1 11.7 56.9 11.9 56.8 12.1 C 56.7 12.3 56.7 12.5 56.7 12.8 C 56.7 12.8 56.7 13 56.7 13 C 56.7 13.3 56.7 13.6 56.9 13.8 C 57 14 57.2 14.2 57.4 14.3 C 57.6 14.5 57.9 14.5 58.2 14.5 C 58.5 14.5 58.8 14.5 59 14.4 C 59.2 14.3 59.4 14.2 59.6 14 C 59.6 14 60.4 14.9 60.4 14.9 C 60.2 15.2 59.9 15.4 59.5 15.5 C 59.1 15.7 58.7 15.8 58.2 15.8 Z M 63.7 15.8 C 63.3 15.8 62.8 15.7 62.4 15.6 C 62 15.5 61.7 15.3 61.4 15.2 C 61.4 15.2 61.9 14.1 61.9 14.1 C 62.2 14.2 62.5 14.3 62.8 14.4 C 63.1 14.5 63.5 14.6 63.8 14.6 C 64.2 14.6 64.4 14.5 64.6 14.4 C 64.7 14.4 64.8 14.2 64.8 14.1 C 64.8 14 64.7 13.9 64.6 13.8 C 64.5 13.7 64.3 13.7 64.1 13.7 C 64 13.6 63.7 13.6 63.5 13.6 C 63.3 13.5 63.1 13.5 62.8 13.4 C 62.6 13.4 62.4 13.3 62.2 13.2 C 62 13.1 61.8 12.9 61.7 12.7 C 61.6 12.5 61.5 12.3 61.5 12 C 61.5 11.6 61.6 11.3 61.8 11.1 C 62 10.8 62.3 10.6 62.7 10.4 C 63.1 10.3 63.5 10.2 64 10.2 C 64.4 10.2 64.8 10.3 65.1 10.3 C 65.5 10.4 65.8 10.5 66.1 10.7 C 66.1 10.7 65.6 11.8 65.6 11.8 C 65.3 11.6 65.1 11.5 64.8 11.5 C 64.5 11.4 64.3 11.4 64 11.4 C 63.7 11.4 63.4 11.4 63.3 11.5 C 63.1 11.6 63 11.8 63 11.9 C 63 12 63.1 12.1 63.2 12.2 C 63.3 12.3 63.5 12.3 63.7 12.4 C 63.9 12.4 64.1 12.4 64.3 12.5 C 64.5 12.5 64.8 12.5 65 12.6 C 65.2 12.7 65.4 12.7 65.6 12.9 C 65.8 13 66 13.1 66.1 13.3 C 66.2 13.5 66.3 13.7 66.3 14 C 66.3 14.4 66.2 14.7 66 14.9 C 65.8 15.2 65.5 15.4 65.1 15.5 C 64.7 15.7 64.3 15.8 63.7 15.8 Z M 67.3 15.7 L 67.3 10.3 L 68.9 10.3 L 68.9 15.7 L 67.3 15.7 Z M 68.1 9.5 C 67.8 9.5 67.6 9.5 67.4 9.3 C 67.2 9.1 67.1 8.9 67.1 8.7 C 67.1 8.4 67.2 8.2 67.4 8.1 C 67.6 7.9 67.8 7.8 68.1 7.8 C 68.4 7.8 68.6 7.9 68.8 8 C 69 8.2 69.1 8.4 69.1 8.6 C 69.1 8.9 69 9.1 68.8 9.3 C 68.6 9.5 68.4 9.5 68.1 9.5 Z M 72.8 17.7 C 72.3 17.7 71.8 17.6 71.4 17.5 C 70.9 17.4 70.5 17.2 70.2 17 C 70.2 17 70.8 15.8 70.8 15.8 C 71.1 16 71.3 16.2 71.7 16.3 C 72 16.4 72.4 16.4 72.7 16.4 C 73.3 16.4 73.7 16.3 73.9 16.1 C 74.2 15.8 74.3 15.5 74.3 15 C 74.3 14.98 74.3 14.2 74.3 14.2 L 74.4 12.8 L 74.4 11.5 L 74.4 10.3 L 75.9 10.3 C 75.9 10.3 75.86 14.78 75.9 14.8 C 75.9 15.8 75.6 16.5 75.1 17 C 74.6 17.5 73.8 17.7 72.8 17.7 Z M 72.6 15.4 C 72.1 15.4 71.7 15.3 71.2 15.1 C 70.8 14.9 70.5 14.6 70.3 14.2 C 70 13.8 69.9 13.3 69.9 12.8 C 69.9 12.3 70 11.8 70.3 11.4 C 70.5 11.1 70.8 10.8 71.2 10.5 C 71.7 10.3 72.1 10.2 72.6 10.2 C 73.1 10.2 73.5 10.3 73.8 10.5 C 74.2 10.7 74.4 11 74.6 11.3 C 74.8 11.7 74.9 12.2 74.9 12.8 C 74.9 13.4 74.8 13.9 74.6 14.3 C 74.4 14.7 74.2 15 73.8 15.1 C 73.5 15.3 73.1 15.4 72.6 15.4 Z M 72.9 14.1 C 73.2 14.1 73.4 14.1 73.6 14 C 73.9 13.9 74 13.7 74.1 13.5 C 74.3 13.3 74.3 13.1 74.3 12.8 C 74.3 12.6 74.3 12.3 74.1 12.1 C 74 11.9 73.9 11.8 73.6 11.7 C 73.4 11.6 73.2 11.5 72.9 11.5 C 72.6 11.5 72.4 11.6 72.2 11.7 C 72 11.8 71.8 11.9 71.7 12.1 C 71.6 12.3 71.5 12.6 71.5 12.8 C 71.5 13.1 71.6 13.3 71.7 13.5 C 71.8 13.7 72 13.9 72.2 14 C 72.4 14.1 72.6 14.1 72.9 14.1 Z M 80.6 10.2 C 81 10.2 81.4 10.3 81.7 10.5 C 82.1 10.6 82.3 10.9 82.5 11.3 C 82.7 11.6 82.8 12.1 82.8 12.6 C 82.81 12.6 82.8 15.7 82.8 15.7 L 81.2 15.7 C 81.2 15.7 81.25 12.84 81.2 12.8 C 81.2 12.4 81.2 12.1 81 11.9 C 80.8 11.7 80.5 11.6 80.2 11.6 C 79.9 11.6 79.7 11.6 79.5 11.7 C 79.3 11.8 79.1 12 79 12.2 C 78.9 12.4 78.9 12.7 78.9 13 C 78.87 13.02 78.9 15.7 78.9 15.7 L 77.3 15.7 L 77.3 10.3 L 78.8 10.3 L 78.8 11.8 C 78.8 11.8 78.52 11.34 78.5 11.3 C 78.7 11 79 10.7 79.3 10.5 C 79.7 10.3 80.1 10.2 80.6 10.2 Z " stroke="none" fill="#323132"/>
  </g>
</svg>