<?xml version="1.0" standalone="no"?>
<!DOCTYPE svg PUBLIC "-//W3C//DTD SVG 1.1//EN" "http://www.w3.org/Graphics/SVG/1.1/DTD/svg11.dtd">
<svg xmlns="http://www.w3.org/2000/svg" version="1.1" width="445.2px" height="154.5px" viewBox="0 0 445.2 154.5">
  <desc>the desire to cut corners to save time and energy the perception that the rules are too restrictive the belief that t...</desc>
  <defs/>
  <g id="Polygon112653">
    <path d="M 34.6 125 C 34.6 125 34.6 125.7 34.6 125.7 C 34.6 125.7 34.5 125.7 34.5 125.7 C 33.4 125.7 32.7 126.4 32.7 127.6 C 32.7 127.63 32.7 130.3 32.7 130.3 L 32 130.3 L 32 125.1 L 32.7 125.1 C 32.7 125.1 32.67 126.08 32.7 126.1 C 33 125.4 33.7 125 34.6 125 Z M 40.4 127.9 C 40.4 127.9 36 127.9 36 127.9 C 36.1 129 36.9 129.7 38.1 129.7 C 38.7 129.7 39.3 129.5 39.7 129 C 39.7 129 40.1 129.5 40.1 129.5 C 39.6 130.1 38.9 130.4 38 130.4 C 36.4 130.4 35.3 129.2 35.3 127.7 C 35.3 126.1 36.4 125 37.8 125 C 39.3 125 40.4 126.1 40.4 127.7 C 40.4 127.7 40.4 127.8 40.4 127.9 Z M 36 127.4 C 36 127.4 39.7 127.4 39.7 127.4 C 39.6 126.3 38.9 125.6 37.8 125.6 C 36.8 125.6 36.1 126.3 36 127.4 Z M 45.8 127.1 C 45.77 127.05 45.8 130.3 45.8 130.3 L 45.1 130.3 C 45.1 130.3 45.09 129.49 45.1 129.5 C 44.8 130 44.2 130.4 43.3 130.4 C 42.1 130.4 41.4 129.7 41.4 128.8 C 41.4 128 41.9 127.3 43.4 127.3 C 43.39 127.34 45.1 127.3 45.1 127.3 C 45.1 127.3 45.06 127.02 45.1 127 C 45.1 126.1 44.6 125.6 43.6 125.6 C 42.9 125.6 42.3 125.9 41.8 126.3 C 41.8 126.3 41.5 125.7 41.5 125.7 C 42 125.3 42.8 125 43.6 125 C 45 125 45.8 125.7 45.8 127.1 Z M 45.1 128.7 C 45.06 128.73 45.1 127.9 45.1 127.9 C 45.1 127.9 43.41 127.87 43.4 127.9 C 42.4 127.9 42.1 128.3 42.1 128.8 C 42.1 129.4 42.6 129.8 43.4 129.8 C 44.2 129.8 44.8 129.4 45.1 128.7 Z M 47.6 122.9 L 48.3 122.9 L 48.3 130.3 L 47.6 130.3 L 47.6 122.9 Z M 50 123.4 C 50 123.1 50.2 122.9 50.5 122.9 C 50.8 122.9 51 123.1 51 123.4 C 51 123.7 50.8 123.9 50.5 123.9 C 50.2 123.9 50 123.7 50 123.4 Z M 50.1 125.1 L 50.9 125.1 L 50.9 130.3 L 50.1 130.3 L 50.1 125.1 Z M 52.1 129.7 C 52.1 129.7 52.4 129.2 52.4 129.2 C 52.9 129.5 53.6 129.7 54.3 129.7 C 55.3 129.7 55.7 129.4 55.7 128.9 C 55.7 127.5 52.3 128.6 52.3 126.5 C 52.3 125.7 53.1 125 54.4 125 C 55.1 125 55.8 125.2 56.3 125.5 C 56.3 125.5 55.9 126.1 55.9 126.1 C 55.5 125.8 54.9 125.6 54.4 125.6 C 53.4 125.6 53 126 53 126.5 C 53 127.9 56.4 126.8 56.4 128.9 C 56.4 129.8 55.6 130.4 54.3 130.4 C 53.4 130.4 52.6 130.1 52.1 129.7 Z M 57.6 123.4 C 57.6 123.1 57.8 122.9 58.1 122.9 C 58.4 122.9 58.6 123.1 58.6 123.4 C 58.6 123.7 58.4 123.9 58.1 123.9 C 57.8 123.9 57.6 123.7 57.6 123.4 Z M 57.7 125.1 L 58.4 125.1 L 58.4 130.3 L 57.7 130.3 L 57.7 125.1 Z M 65.1 127.3 C 65.13 127.26 65.1 130.3 65.1 130.3 L 64.4 130.3 C 64.4 130.3 64.42 127.33 64.4 127.3 C 64.4 126.2 63.8 125.7 62.8 125.7 C 61.7 125.7 61 126.4 61 127.6 C 61 127.55 61 130.3 61 130.3 L 60.3 130.3 L 60.3 125.1 L 61 125.1 C 61 125.1 60.97 126.02 61 126 C 61.3 125.4 62.1 125 63 125 C 64.3 125 65.1 125.8 65.1 127.3 Z M 71.9 125.1 C 71.9 125.1 71.89 129.67 71.9 129.7 C 71.9 131.5 71 132.3 69.3 132.3 C 68.3 132.3 67.4 132 66.8 131.5 C 66.8 131.5 67.2 131 67.2 131 C 67.7 131.4 68.4 131.7 69.2 131.7 C 70.6 131.7 71.2 131.1 71.2 129.8 C 71.2 129.8 71.2 129.1 71.2 129.1 C 70.7 129.8 70 130.1 69.1 130.1 C 67.6 130.1 66.5 129.1 66.5 127.6 C 66.5 126 67.6 125 69.1 125 C 70 125 70.8 125.4 71.2 126.1 C 71.21 126.06 71.2 125.1 71.2 125.1 L 71.9 125.1 Z M 71.2 127.6 C 71.2 126.4 70.4 125.6 69.2 125.6 C 68 125.6 67.2 126.4 67.2 127.6 C 67.2 128.7 68 129.5 69.2 129.5 C 70.4 129.5 71.2 128.7 71.2 127.6 Z M 79.3 130 C 79 130.2 78.6 130.4 78.2 130.4 C 77.2 130.4 76.6 129.8 76.6 128.8 C 76.62 128.83 76.6 125.7 76.6 125.7 L 75.7 125.7 L 75.7 125.1 L 76.6 125.1 L 76.6 123.9 L 77.3 123.9 L 77.3 125.1 L 78.9 125.1 L 78.9 125.7 L 77.3 125.7 C 77.3 125.7 77.33 128.79 77.3 128.8 C 77.3 129.4 77.7 129.8 78.2 129.8 C 78.5 129.8 78.8 129.7 79 129.5 C 79 129.5 79.3 130 79.3 130 Z M 85.3 127.3 C 85.3 127.26 85.3 130.3 85.3 130.3 L 84.6 130.3 C 84.6 130.3 84.59 127.33 84.6 127.3 C 84.6 126.2 84 125.7 83 125.7 C 81.9 125.7 81.2 126.4 81.2 127.6 C 81.17 127.55 81.2 130.3 81.2 130.3 L 80.5 130.3 L 80.5 122.9 L 81.2 122.9 C 81.2 122.9 81.17 125.97 81.2 126 C 81.6 125.4 82.3 125 83.1 125 C 84.4 125 85.3 125.8 85.3 127.3 Z M 91.1 127.1 C 91.12 127.05 91.1 130.3 91.1 130.3 L 90.4 130.3 C 90.4 130.3 90.44 129.49 90.4 129.5 C 90.1 130 89.5 130.4 88.6 130.4 C 87.4 130.4 86.7 129.7 86.7 128.8 C 86.7 128 87.2 127.3 88.7 127.3 C 88.74 127.34 90.4 127.3 90.4 127.3 C 90.4 127.3 90.41 127.02 90.4 127 C 90.4 126.1 89.9 125.6 88.9 125.6 C 88.2 125.6 87.6 125.9 87.2 126.3 C 87.2 126.3 86.9 125.7 86.9 125.7 C 87.4 125.3 88.2 125 89 125 C 90.4 125 91.1 125.7 91.1 127.1 Z M 90.4 128.7 C 90.41 128.73 90.4 127.9 90.4 127.9 C 90.4 127.9 88.76 127.87 88.8 127.9 C 87.7 127.9 87.4 128.3 87.4 128.8 C 87.4 129.4 87.9 129.8 88.7 129.8 C 89.5 129.8 90.1 129.4 90.4 128.7 Z M 95.7 130 C 95.4 130.2 95 130.4 94.6 130.4 C 93.6 130.4 93 129.8 93 128.8 C 93.02 128.83 93 125.7 93 125.7 L 92.1 125.7 L 92.1 125.1 L 93 125.1 L 93 123.9 L 93.7 123.9 L 93.7 125.1 L 95.3 125.1 L 95.3 125.7 L 93.7 125.7 C 93.7 125.7 93.73 128.79 93.7 128.8 C 93.7 129.4 94 129.8 94.6 129.8 C 94.9 129.8 95.2 129.7 95.4 129.5 C 95.4 129.5 95.7 130 95.7 130 Z M 102.3 130 C 102.1 130.2 101.6 130.4 101.2 130.4 C 100.2 130.4 99.7 129.8 99.7 128.8 C 99.7 128.83 99.7 125.7 99.7 125.7 L 98.8 125.7 L 98.8 125.1 L 99.7 125.1 L 99.7 123.9 L 100.4 123.9 L 100.4 125.1 L 102 125.1 L 102 125.7 L 100.4 125.7 C 100.4 125.7 100.41 128.79 100.4 128.8 C 100.4 129.4 100.7 129.8 101.3 129.8 C 101.6 129.8 101.9 129.7 102.1 129.5 C 102.1 129.5 102.3 130 102.3 130 Z M 108.4 127.3 C 108.37 127.26 108.4 130.3 108.4 130.3 L 107.7 130.3 C 107.7 130.3 107.66 127.33 107.7 127.3 C 107.7 126.2 107.1 125.7 106.1 125.7 C 105 125.7 104.2 126.4 104.2 127.6 C 104.24 127.55 104.2 130.3 104.2 130.3 L 103.5 130.3 L 103.5 122.9 L 104.2 122.9 C 104.2 122.9 104.24 125.97 104.2 126 C 104.6 125.4 105.3 125 106.2 125 C 107.5 125 108.4 125.8 108.4 127.3 Z M 110 123.4 C 110 123.1 110.2 122.9 110.5 122.9 C 110.8 122.9 111 123.1 111 123.4 C 111 123.7 110.8 123.9 110.5 123.9 C 110.2 123.9 110 123.7 110 123.4 Z M 110.2 125.1 L 110.9 125.1 L 110.9 130.3 L 110.2 130.3 L 110.2 125.1 Z M 112.1 129.7 C 112.1 129.7 112.5 129.2 112.5 129.2 C 112.9 129.5 113.6 129.7 114.3 129.7 C 115.3 129.7 115.7 129.4 115.7 128.9 C 115.7 127.5 112.3 128.6 112.3 126.5 C 112.3 125.7 113.1 125 114.4 125 C 115.1 125 115.8 125.2 116.3 125.5 C 116.3 125.5 116 126.1 116 126.1 C 115.5 125.8 114.9 125.6 114.4 125.6 C 113.5 125.6 113 126 113 126.5 C 113 127.9 116.4 126.8 116.4 128.9 C 116.4 129.8 115.6 130.4 114.3 130.4 C 113.4 130.4 112.6 130.1 112.1 129.7 Z M 120.2 123.4 C 120.2 123.1 120.4 122.9 120.7 122.9 C 121 122.9 121.3 123.1 121.3 123.4 C 121.3 123.7 121 123.9 120.7 123.9 C 120.4 123.9 120.2 123.7 120.2 123.4 Z M 120.4 125.1 L 121.1 125.1 L 121.1 130.3 L 120.4 130.3 L 120.4 125.1 Z M 122.4 129.7 C 122.4 129.7 122.7 129.2 122.7 129.2 C 123.1 129.5 123.8 129.7 124.5 129.7 C 125.5 129.7 126 129.4 126 128.9 C 126 127.5 122.5 128.6 122.5 126.5 C 122.5 125.7 123.3 125 124.6 125 C 125.3 125 126 125.2 126.5 125.5 C 126.5 125.5 126.2 126.1 126.2 126.1 C 125.7 125.8 125.2 125.6 124.6 125.6 C 123.7 125.6 123.3 126 123.3 126.5 C 123.3 127.9 126.7 126.8 126.7 128.9 C 126.7 129.8 125.9 130.4 124.5 130.4 C 123.6 130.4 122.8 130.1 122.4 129.7 Z M 135.4 127.3 C 135.43 127.26 135.4 130.3 135.4 130.3 L 134.7 130.3 C 134.7 130.3 134.73 127.33 134.7 127.3 C 134.7 126.2 134.1 125.7 133.1 125.7 C 132 125.7 131.3 126.4 131.3 127.6 C 131.3 127.55 131.3 130.3 131.3 130.3 L 130.6 130.3 L 130.6 125.1 L 131.3 125.1 C 131.3 125.1 131.27 126.02 131.3 126 C 131.7 125.4 132.4 125 133.3 125 C 134.6 125 135.4 125.8 135.4 127.3 Z M 136.8 127.7 C 136.8 126.1 138 125 139.5 125 C 141 125 142.2 126.1 142.2 127.7 C 142.2 129.2 141 130.4 139.5 130.4 C 138 130.4 136.8 129.2 136.8 127.7 Z M 141.4 127.7 C 141.4 126.5 140.6 125.6 139.5 125.6 C 138.4 125.6 137.5 126.5 137.5 127.7 C 137.5 128.9 138.4 129.7 139.5 129.7 C 140.6 129.7 141.4 128.9 141.4 127.7 Z M 146.3 130 C 146 130.2 145.6 130.4 145.2 130.4 C 144.2 130.4 143.7 129.8 143.7 128.8 C 143.68 128.83 143.7 125.7 143.7 125.7 L 142.7 125.7 L 142.7 125.1 L 143.7 125.1 L 143.7 123.9 L 144.4 123.9 L 144.4 125.1 L 146 125.1 L 146 125.7 L 144.4 125.7 C 144.4 125.7 144.38 128.79 144.4 128.8 C 144.4 129.4 144.7 129.8 145.3 129.8 C 145.6 129.8 145.9 129.7 146.1 129.5 C 146.1 129.5 146.3 130 146.3 130 Z M 153 130 C 152.7 130.2 152.3 130.4 151.9 130.4 C 150.9 130.4 150.4 129.8 150.4 128.8 C 150.36 128.83 150.4 125.7 150.4 125.7 L 149.4 125.7 L 149.4 125.1 L 150.4 125.1 L 150.4 123.9 L 151.1 123.9 L 151.1 125.1 L 152.7 125.1 L 152.7 125.7 L 151.1 125.7 C 151.1 125.7 151.06 128.79 151.1 128.8 C 151.1 129.4 151.4 129.8 152 129.8 C 152.3 129.8 152.6 129.7 152.8 129.5 C 152.8 129.5 153 130 153 130 Z M 159 127.3 C 159.03 127.26 159 130.3 159 130.3 L 158.3 130.3 C 158.3 130.3 158.32 127.33 158.3 127.3 C 158.3 126.2 157.7 125.7 156.7 125.7 C 155.6 125.7 154.9 126.4 154.9 127.6 C 154.9 127.55 154.9 130.3 154.9 130.3 L 154.2 130.3 L 154.2 122.9 L 154.9 122.9 C 154.9 122.9 154.9 125.97 154.9 126 C 155.3 125.4 156 125 156.9 125 C 158.2 125 159 125.8 159 127.3 Z M 165.5 127.9 C 165.5 127.9 161.1 127.9 161.1 127.9 C 161.2 129 162 129.7 163.2 129.7 C 163.8 129.7 164.4 129.5 164.8 129 C 164.8 129 165.2 129.5 165.2 129.5 C 164.7 130.1 164 130.4 163.2 130.4 C 161.5 130.4 160.4 129.2 160.4 127.7 C 160.4 126.1 161.5 125 163 125 C 164.5 125 165.5 126.1 165.5 127.7 C 165.5 127.7 165.5 127.8 165.5 127.9 Z M 161.1 127.4 C 161.1 127.4 164.9 127.4 164.9 127.4 C 164.8 126.3 164 125.6 163 125.6 C 162 125.6 161.2 126.3 161.1 127.4 Z M 169.1 127.7 C 169.1 126.1 170.2 125 171.8 125 C 172.7 125 173.4 125.4 173.8 126.1 C 173.8 126.1 173.3 126.4 173.3 126.4 C 173 125.9 172.4 125.6 171.8 125.6 C 170.6 125.6 169.8 126.5 169.8 127.7 C 169.8 128.9 170.6 129.7 171.8 129.7 C 172.4 129.7 173 129.5 173.3 129 C 173.3 129 173.8 129.3 173.8 129.3 C 173.4 130 172.7 130.4 171.8 130.4 C 170.2 130.4 169.1 129.3 169.1 127.7 Z M 174.6 127.7 C 174.6 126.1 175.8 125 177.3 125 C 178.9 125 180 126.1 180 127.7 C 180 129.2 178.9 130.4 177.3 130.4 C 175.8 130.4 174.6 129.2 174.6 127.7 Z M 179.3 127.7 C 179.3 126.5 178.4 125.6 177.3 125.6 C 176.2 125.6 175.4 126.5 175.4 127.7 C 175.4 128.9 176.2 129.7 177.3 129.7 C 178.4 129.7 179.3 128.9 179.3 127.7 Z M 184.1 125 C 184.1 125 184.1 125.7 184.1 125.7 C 184 125.7 183.9 125.7 183.9 125.7 C 182.8 125.7 182.1 126.4 182.1 127.6 C 182.12 127.63 182.1 130.3 182.1 130.3 L 181.4 130.3 L 181.4 125.1 L 182.1 125.1 C 182.1 125.1 182.09 126.08 182.1 126.1 C 182.4 125.4 183.1 125 184.1 125 Z M 187.9 125 C 187.9 125 187.9 125.7 187.9 125.7 C 187.9 125.7 187.8 125.7 187.8 125.7 C 186.7 125.7 186 126.4 186 127.6 C 185.99 127.63 186 130.3 186 130.3 L 185.3 130.3 L 185.3 125.1 L 186 125.1 C 186 125.1 185.96 126.08 186 126.1 C 186.3 125.4 187 125 187.9 125 Z M 193.7 127.9 C 193.7 127.9 189.3 127.9 189.3 127.9 C 189.4 129 190.2 129.7 191.3 129.7 C 192 129.7 192.6 129.5 193 129 C 193 129 193.4 129.5 193.4 129.5 C 192.9 130.1 192.2 130.4 191.3 130.4 C 189.7 130.4 188.6 129.2 188.6 127.7 C 188.6 126.1 189.7 125 191.1 125 C 192.6 125 193.7 126.1 193.7 127.7 C 193.7 127.7 193.7 127.8 193.7 127.9 Z M 189.3 127.4 C 189.3 127.4 193 127.4 193 127.4 C 192.9 126.3 192.2 125.6 191.1 125.6 C 190.1 125.6 189.4 126.3 189.3 127.4 Z M 194.7 127.7 C 194.7 126.1 195.8 125 197.4 125 C 198.3 125 199 125.4 199.5 126.1 C 199.5 126.1 198.9 126.4 198.9 126.4 C 198.6 125.9 198 125.6 197.4 125.6 C 196.2 125.6 195.4 126.5 195.4 127.7 C 195.4 128.9 196.2 129.7 197.4 129.7 C 198 129.7 198.6 129.5 198.9 129 C 198.9 129 199.5 129.3 199.5 129.3 C 199 130 198.3 130.4 197.4 130.4 C 195.8 130.4 194.7 129.3 194.7 127.7 Z M 203.8 130 C 203.5 130.2 203.1 130.4 202.7 130.4 C 201.7 130.4 201.1 129.8 201.1 128.8 C 201.15 128.83 201.1 125.7 201.1 125.7 L 200.2 125.7 L 200.2 125.1 L 201.1 125.1 L 201.1 123.9 L 201.9 123.9 L 201.9 125.1 L 203.5 125.1 L 203.5 125.7 L 201.9 125.7 C 201.9 125.7 201.86 128.79 201.9 128.8 C 201.9 129.4 202.2 129.8 202.8 129.8 C 203.1 129.8 203.3 129.7 203.5 129.5 C 203.5 129.5 203.8 130 203.8 130 Z M 215.4 125.1 L 213.4 130.3 L 212.8 130.3 L 211.1 126 L 209.4 130.3 L 208.8 130.3 L 206.8 125.1 L 207.5 125.1 L 209.1 129.5 L 210.8 125.1 L 211.4 125.1 L 213.1 129.5 L 214.8 125.1 L 215.4 125.1 Z M 220.5 127.1 C 220.55 127.05 220.5 130.3 220.5 130.3 L 219.9 130.3 C 219.9 130.3 219.87 129.49 219.9 129.5 C 219.5 130 218.9 130.4 218.1 130.4 C 216.9 130.4 216.1 129.7 216.1 128.8 C 216.1 128 216.7 127.3 218.2 127.3 C 218.17 127.34 219.8 127.3 219.8 127.3 C 219.8 127.3 219.84 127.02 219.8 127 C 219.8 126.1 219.3 125.6 218.3 125.6 C 217.7 125.6 217 125.9 216.6 126.3 C 216.6 126.3 216.3 125.7 216.3 125.7 C 216.8 125.3 217.6 125 218.4 125 C 219.8 125 220.5 125.7 220.5 127.1 Z M 219.8 128.7 C 219.84 128.73 219.8 127.9 219.8 127.9 C 219.8 127.9 218.19 127.87 218.2 127.9 C 217.2 127.9 216.8 128.3 216.8 128.8 C 216.8 129.4 217.3 129.8 218.2 129.8 C 219 129.8 219.6 129.4 219.8 128.7 Z M 226.7 125.1 C 226.7 125.1 224.07 130.94 224.1 130.9 C 223.6 132 223.1 132.3 222.3 132.3 C 221.8 132.3 221.4 132.1 221 131.8 C 221 131.8 221.4 131.3 221.4 131.3 C 221.6 131.6 222 131.7 222.3 131.7 C 222.8 131.7 223.1 131.5 223.4 130.8 C 223.42 130.81 223.7 130.3 223.7 130.3 L 221.3 125.1 L 222 125.1 L 224 129.5 L 226 125.1 L 226.7 125.1 Z M 229.8 127.7 C 229.8 126.1 230.9 125 232.5 125 C 234 125 235.1 126.1 235.1 127.7 C 235.1 129.2 234 130.4 232.5 130.4 C 230.9 130.4 229.8 129.2 229.8 127.7 Z M 234.4 127.7 C 234.4 126.5 233.6 125.6 232.5 125.6 C 231.4 125.6 230.5 126.5 230.5 127.7 C 230.5 128.9 231.4 129.7 232.5 129.7 C 233.6 129.7 234.4 128.9 234.4 127.7 Z M 237.3 124.4 C 237.34 124.43 237.3 125.1 237.3 125.1 L 239 125.1 L 239 125.7 L 237.4 125.7 L 237.4 130.3 L 236.6 130.3 L 236.6 125.7 L 235.7 125.7 L 235.7 125.1 L 236.6 125.1 C 236.6 125.1 236.65 124.4 236.6 124.4 C 236.6 123.5 237.2 122.8 238.2 122.8 C 238.6 122.8 239 123 239.3 123.2 C 239.3 123.2 239 123.7 239 123.7 C 238.8 123.5 238.6 123.4 238.3 123.4 C 237.7 123.4 237.3 123.8 237.3 124.4 Z M 250.3 125.1 L 248.3 130.3 L 247.6 130.3 L 245.9 126 L 244.3 130.3 L 243.6 130.3 L 241.6 125.1 L 242.3 125.1 L 244 129.5 L 245.6 125.1 L 246.3 125.1 L 247.9 129.5 L 249.6 125.1 L 250.3 125.1 Z M 250.7 127.7 C 250.7 126.1 251.9 125 253.4 125 C 255 125 256.1 126.1 256.1 127.7 C 256.1 129.2 255 130.4 253.4 130.4 C 251.9 130.4 250.7 129.2 250.7 127.7 Z M 255.4 127.7 C 255.4 126.5 254.5 125.6 253.4 125.6 C 252.3 125.6 251.4 126.5 251.4 127.7 C 251.4 128.9 252.3 129.7 253.4 129.7 C 254.5 129.7 255.4 128.9 255.4 127.7 Z M 260.2 125 C 260.2 125 260.2 125.7 260.2 125.7 C 260.1 125.7 260 125.7 260 125.7 C 258.9 125.7 258.2 126.4 258.2 127.6 C 258.22 127.63 258.2 130.3 258.2 130.3 L 257.5 130.3 L 257.5 125.1 L 258.2 125.1 C 258.2 125.1 258.19 126.08 258.2 126.1 C 258.5 125.4 259.2 125 260.2 125 Z M 263.3 127.7 L 262.1 128.8 L 262.1 130.3 L 261.4 130.3 L 261.4 122.9 L 262.1 122.9 L 262.1 127.9 L 265.2 125.1 L 266.1 125.1 L 263.9 127.2 L 266.3 130.3 L 265.4 130.3 L 263.3 127.7 Z M 267.2 123.4 C 267.2 123.1 267.5 122.9 267.8 122.9 C 268.1 122.9 268.3 123.1 268.3 123.4 C 268.3 123.7 268.1 123.9 267.8 123.9 C 267.5 123.9 267.2 123.7 267.2 123.4 Z M 267.4 125.1 L 268.1 125.1 L 268.1 130.3 L 267.4 130.3 L 267.4 125.1 Z M 274.8 127.3 C 274.8 127.26 274.8 130.3 274.8 130.3 L 274.1 130.3 C 274.1 130.3 274.09 127.33 274.1 127.3 C 274.1 126.2 273.5 125.7 272.5 125.7 C 271.4 125.7 270.7 126.4 270.7 127.6 C 270.67 127.55 270.7 130.3 270.7 130.3 L 270 130.3 L 270 125.1 L 270.6 125.1 C 270.6 125.1 270.64 126.02 270.6 126 C 271 125.4 271.7 125 272.6 125 C 273.9 125 274.8 125.8 274.8 127.3 Z M 281.6 125.1 C 281.6 125.1 281.56 129.67 281.6 129.7 C 281.6 131.5 280.7 132.3 278.9 132.3 C 278 132.3 277 132 276.5 131.5 C 276.5 131.5 276.8 131 276.8 131 C 277.3 131.4 278.1 131.7 278.9 131.7 C 280.2 131.7 280.9 131.1 280.9 129.8 C 280.9 129.8 280.9 129.1 280.9 129.1 C 280.4 129.8 279.7 130.1 278.8 130.1 C 277.3 130.1 276.2 129.1 276.2 127.6 C 276.2 126 277.3 125 278.8 125 C 279.7 125 280.4 125.4 280.9 126.1 C 280.88 126.06 280.9 125.1 280.9 125.1 L 281.6 125.1 Z M 280.9 127.6 C 280.9 126.4 280 125.6 278.9 125.6 C 277.7 125.6 276.9 126.4 276.9 127.6 C 276.9 128.7 277.7 129.5 278.9 129.5 C 280 129.5 280.9 128.7 280.9 127.6 Z M 283.1 129.8 C 283.1 129.5 283.4 129.3 283.7 129.3 C 284 129.3 284.2 129.5 284.2 129.8 C 284.2 130.1 284 130.4 283.7 130.4 C 283.4 130.4 283.1 130.1 283.1 129.8 Z " stroke="none" fill="#323132"/>
  </g>
  <g id="Polygon112652">
    <path d="M 36.8 112.3 C 36.83 112.26 36.8 115.3 36.8 115.3 L 36.1 115.3 C 36.1 115.3 36.12 112.33 36.1 112.3 C 36.1 111.2 35.5 110.7 34.5 110.7 C 33.4 110.7 32.7 111.4 32.7 112.6 C 32.7 112.55 32.7 115.3 32.7 115.3 L 32 115.3 L 32 110.1 L 32.7 110.1 C 32.7 110.1 32.67 111.02 32.7 111 C 33 110.4 33.8 110 34.7 110 C 36 110 36.8 110.8 36.8 112.3 Z M 43.3 112.9 C 43.3 112.9 38.9 112.9 38.9 112.9 C 39 114 39.8 114.7 41 114.7 C 41.6 114.7 42.2 114.5 42.6 114 C 42.6 114 43 114.5 43 114.5 C 42.5 115.1 41.8 115.4 41 115.4 C 39.3 115.4 38.2 114.2 38.2 112.7 C 38.2 111.1 39.3 110 40.8 110 C 42.3 110 43.3 111.1 43.3 112.7 C 43.3 112.7 43.3 112.8 43.3 112.9 Z M 38.9 112.4 C 38.9 112.4 42.7 112.4 42.7 112.4 C 42.6 111.3 41.8 110.6 40.8 110.6 C 39.8 110.6 39 111.3 38.9 112.4 Z M 52.4 110.1 L 50.4 115.3 L 49.8 115.3 L 48.1 111 L 46.5 115.3 L 45.8 115.3 L 43.8 110.1 L 44.5 110.1 L 46.1 114.5 L 47.8 110.1 L 48.4 110.1 L 50.1 114.5 L 51.8 110.1 L 52.4 110.1 Z M 63.8 110.1 L 61.9 115.3 L 61.2 115.3 L 59.5 111 L 57.9 115.3 L 57.2 115.3 L 55.2 110.1 L 55.9 110.1 L 57.5 114.5 L 59.2 110.1 L 59.8 110.1 L 61.5 114.5 L 63.2 110.1 L 63.8 110.1 Z M 64.3 112.7 C 64.3 111.1 65.5 110 67 110 C 68.5 110 69.7 111.1 69.7 112.7 C 69.7 114.2 68.5 115.4 67 115.4 C 65.5 115.4 64.3 114.2 64.3 112.7 Z M 68.9 112.7 C 68.9 111.5 68.1 110.6 67 110.6 C 65.9 110.6 65 111.5 65 112.7 C 65 113.9 65.9 114.7 67 114.7 C 68.1 114.7 68.9 113.9 68.9 112.7 Z M 73.7 110 C 73.7 110 73.7 110.7 73.7 110.7 C 73.7 110.7 73.6 110.7 73.6 110.7 C 72.5 110.7 71.8 111.4 71.8 112.6 C 71.8 112.63 71.8 115.3 71.8 115.3 L 71.1 115.3 L 71.1 110.1 L 71.8 110.1 C 71.8 110.1 71.77 111.08 71.8 111.1 C 72.1 110.4 72.8 110 73.7 110 Z M 76.9 112.7 L 75.7 113.8 L 75.7 115.3 L 75 115.3 L 75 107.9 L 75.7 107.9 L 75.7 112.9 L 78.8 110.1 L 79.7 110.1 L 77.4 112.2 L 79.9 115.3 L 79 115.3 L 76.9 112.7 Z M 85.4 112.9 C 85.4 112.9 81 112.9 81 112.9 C 81 114 81.9 114.7 83 114.7 C 83.7 114.7 84.2 114.5 84.6 114 C 84.6 114 85 114.5 85 114.5 C 84.6 115.1 83.8 115.4 83 115.4 C 81.4 115.4 80.2 114.2 80.2 112.7 C 80.2 111.1 81.3 110 82.8 110 C 84.3 110 85.4 111.1 85.4 112.7 C 85.4 112.7 85.4 112.8 85.4 112.9 Z M 81 112.4 C 81 112.4 84.7 112.4 84.7 112.4 C 84.6 111.3 83.8 110.6 82.8 110.6 C 81.8 110.6 81 111.3 81 112.4 Z M 89.4 110 C 89.4 110 89.4 110.7 89.4 110.7 C 89.4 110.7 89.3 110.7 89.2 110.7 C 88.1 110.7 87.5 111.4 87.5 112.6 C 87.48 112.63 87.5 115.3 87.5 115.3 L 86.8 115.3 L 86.8 110.1 L 87.4 110.1 C 87.4 110.1 87.45 111.08 87.4 111.1 C 87.8 110.4 88.4 110 89.4 110 Z M 90.1 114.7 C 90.1 114.7 90.4 114.2 90.4 114.2 C 90.8 114.5 91.5 114.7 92.3 114.7 C 93.3 114.7 93.7 114.4 93.7 113.9 C 93.7 112.5 90.3 113.6 90.3 111.5 C 90.3 110.7 91 110 92.4 110 C 93 110 93.8 110.2 94.2 110.5 C 94.2 110.5 93.9 111.1 93.9 111.1 C 93.5 110.8 92.9 110.6 92.4 110.6 C 91.4 110.6 91 111 91 111.5 C 91 112.9 94.4 111.8 94.4 113.9 C 94.4 114.8 93.6 115.4 92.2 115.4 C 91.4 115.4 90.5 115.1 90.1 114.7 Z M 97.6 114.7 C 97.6 114.7 97.9 114.2 97.9 114.2 C 98.3 114.5 99.1 114.7 99.8 114.7 C 100.8 114.7 101.2 114.4 101.2 113.9 C 101.2 112.5 97.8 113.6 97.8 111.5 C 97.8 110.7 98.5 110 99.9 110 C 100.6 110 101.3 110.2 101.7 110.5 C 101.7 110.5 101.4 111.1 101.4 111.1 C 101 110.8 100.4 110.6 99.9 110.6 C 98.9 110.6 98.5 111 98.5 111.5 C 98.5 112.9 101.9 111.8 101.9 113.9 C 101.9 114.8 101.1 115.4 99.7 115.4 C 98.9 115.4 98 115.1 97.6 114.7 Z M 106.2 115 C 105.9 115.2 105.5 115.4 105.1 115.4 C 104.1 115.4 103.5 114.8 103.5 113.8 C 103.54 113.83 103.5 110.7 103.5 110.7 L 102.6 110.7 L 102.6 110.1 L 103.5 110.1 L 103.5 108.9 L 104.3 108.9 L 104.3 110.1 L 105.9 110.1 L 105.9 110.7 L 104.3 110.7 C 104.3 110.7 104.25 113.79 104.3 113.8 C 104.3 114.4 104.6 114.8 105.2 114.8 C 105.5 114.8 105.7 114.7 105.9 114.5 C 105.9 114.5 106.2 115 106.2 115 Z M 111.4 112.1 C 111.42 112.05 111.4 115.3 111.4 115.3 L 110.7 115.3 C 110.7 115.3 110.75 114.49 110.7 114.5 C 110.4 115 109.8 115.4 108.9 115.4 C 107.7 115.4 107 114.7 107 113.8 C 107 113 107.5 112.3 109 112.3 C 109.04 112.34 110.7 112.3 110.7 112.3 C 110.7 112.3 110.72 112.02 110.7 112 C 110.7 111.1 110.2 110.6 109.2 110.6 C 108.5 110.6 107.9 110.9 107.5 111.3 C 107.5 111.3 107.2 110.7 107.2 110.7 C 107.7 110.3 108.5 110 109.3 110 C 110.7 110 111.4 110.7 111.4 112.1 Z M 110.7 113.7 C 110.72 113.73 110.7 112.9 110.7 112.9 C 110.7 112.9 109.06 112.87 109.1 112.9 C 108 112.9 107.7 113.3 107.7 113.8 C 107.7 114.4 108.2 114.8 109 114.8 C 109.8 114.8 110.4 114.4 110.7 113.7 Z M 115.9 110 C 115.9 110 115.9 110.7 115.9 110.7 C 115.8 110.7 115.8 110.7 115.7 110.7 C 114.6 110.7 113.9 111.4 113.9 112.6 C 113.95 112.63 113.9 115.3 113.9 115.3 L 113.2 115.3 L 113.2 110.1 L 113.9 110.1 C 113.9 110.1 113.92 111.08 113.9 111.1 C 114.2 110.4 114.9 110 115.9 110 Z M 120.3 115 C 120 115.2 119.6 115.4 119.2 115.4 C 118.2 115.4 117.6 114.8 117.6 113.8 C 117.63 113.83 117.6 110.7 117.6 110.7 L 116.7 110.7 L 116.7 110.1 L 117.6 110.1 L 117.6 108.9 L 118.3 108.9 L 118.3 110.1 L 119.9 110.1 L 119.9 110.7 L 118.3 110.7 C 118.3 110.7 118.34 113.79 118.3 113.8 C 118.3 114.4 118.7 114.8 119.2 114.8 C 119.5 114.8 119.8 114.7 120 114.5 C 120 114.5 120.3 115 120.3 115 Z M 121.3 108.4 C 121.3 108.1 121.5 107.9 121.8 107.9 C 122.1 107.9 122.3 108.1 122.3 108.4 C 122.3 108.7 122.1 108.9 121.8 108.9 C 121.5 108.9 121.3 108.7 121.3 108.4 Z M 121.5 110.1 L 122.2 110.1 L 122.2 115.3 L 121.5 115.3 L 121.5 110.1 Z M 128.9 112.3 C 128.86 112.26 128.9 115.3 128.9 115.3 L 128.2 115.3 C 128.2 115.3 128.15 112.33 128.2 112.3 C 128.2 111.2 127.6 110.7 126.6 110.7 C 125.4 110.7 124.7 111.4 124.7 112.6 C 124.73 112.55 124.7 115.3 124.7 115.3 L 124 115.3 L 124 110.1 L 124.7 110.1 C 124.7 110.1 124.7 111.02 124.7 111 C 125.1 110.4 125.8 110 126.7 110 C 128 110 128.9 110.8 128.9 112.3 Z M 135.6 110.1 C 135.6 110.1 135.62 114.67 135.6 114.7 C 135.6 116.5 134.7 117.3 133 117.3 C 132 117.3 131.1 117 130.5 116.5 C 130.5 116.5 130.9 116 130.9 116 C 131.4 116.4 132.2 116.7 133 116.7 C 134.3 116.7 134.9 116.1 134.9 114.8 C 134.9 114.8 134.9 114.1 134.9 114.1 C 134.5 114.8 133.7 115.1 132.9 115.1 C 131.4 115.1 130.2 114.1 130.2 112.6 C 130.2 111 131.4 110 132.9 110 C 133.7 110 134.5 110.4 134.9 111.1 C 134.95 111.06 134.9 110.1 134.9 110.1 L 135.6 110.1 Z M 134.9 112.6 C 134.9 111.4 134.1 110.6 132.9 110.6 C 131.8 110.6 130.9 111.4 130.9 112.6 C 130.9 113.7 131.8 114.5 132.9 114.5 C 134.1 114.5 134.9 113.7 134.9 112.6 Z M 144.2 112.1 C 144.2 112.05 144.2 115.3 144.2 115.3 L 143.5 115.3 C 143.5 115.3 143.52 114.49 143.5 114.5 C 143.2 115 142.6 115.4 141.7 115.4 C 140.5 115.4 139.8 114.7 139.8 113.8 C 139.8 113 140.3 112.3 141.8 112.3 C 141.82 112.34 143.5 112.3 143.5 112.3 C 143.5 112.3 143.5 112.02 143.5 112 C 143.5 111.1 143 110.6 142 110.6 C 141.3 110.6 140.7 110.9 140.3 111.3 C 140.3 111.3 139.9 110.7 139.9 110.7 C 140.5 110.3 141.2 110 142.1 110 C 143.4 110 144.2 110.7 144.2 112.1 Z M 143.5 113.7 C 143.5 113.73 143.5 112.9 143.5 112.9 C 143.5 112.9 141.84 112.87 141.8 112.9 C 140.8 112.9 140.5 113.3 140.5 113.8 C 140.5 114.4 141 114.8 141.8 114.8 C 142.6 114.8 143.2 114.4 143.5 113.7 Z M 148.6 108.4 C 148.6 108.1 148.9 107.9 149.2 107.9 C 149.5 107.9 149.7 108.1 149.7 108.4 C 149.7 108.7 149.5 108.9 149.2 108.9 C 148.9 108.9 148.6 108.7 148.6 108.4 Z M 146.9 117 C 146.9 117 147.1 116.4 147.1 116.4 C 147.3 116.6 147.6 116.7 147.9 116.7 C 148.5 116.7 148.8 116.4 148.8 115.7 C 148.8 115.7 148.8 110.1 148.8 110.1 L 149.5 110.1 C 149.5 110.1 149.51 115.7 149.5 115.7 C 149.5 116.7 149 117.3 148 117.3 C 147.6 117.3 147.1 117.2 146.9 117 Z M 150.9 112.7 C 150.9 111.1 152 110 153.6 110 C 155.1 110 156.3 111.1 156.3 112.7 C 156.3 114.2 155.1 115.4 153.6 115.4 C 152 115.4 150.9 114.2 150.9 112.7 Z M 155.5 112.7 C 155.5 111.5 154.7 110.6 153.6 110.6 C 152.5 110.6 151.6 111.5 151.6 112.7 C 151.6 113.9 152.5 114.7 153.6 114.7 C 154.7 114.7 155.5 113.9 155.5 112.7 Z M 163 112.7 C 163 114.3 161.9 115.4 160.4 115.4 C 159.5 115.4 158.8 115 158.4 114.3 C 158.36 114.27 158.4 115.3 158.4 115.3 L 157.7 115.3 L 157.7 107.9 L 158.4 107.9 C 158.4 107.9 158.39 111.05 158.4 111.1 C 158.8 110.4 159.6 110 160.4 110 C 161.9 110 163 111.1 163 112.7 Z M 162.3 112.7 C 162.3 111.5 161.5 110.6 160.3 110.6 C 159.2 110.6 158.4 111.5 158.4 112.7 C 158.4 113.9 159.2 114.7 160.3 114.7 C 161.5 114.7 162.3 113.9 162.3 112.7 Z M 174.8 110.1 L 172.8 115.3 L 172.1 115.3 L 170.5 111 L 168.8 115.3 L 168.2 115.3 L 166.2 110.1 L 166.9 110.1 L 168.5 114.5 L 170.2 110.1 L 170.8 110.1 L 172.5 114.5 L 174.2 110.1 L 174.8 110.1 Z M 180.7 112.3 C 180.74 112.26 180.7 115.3 180.7 115.3 L 180 115.3 C 180 115.3 180.03 112.33 180 112.3 C 180 111.2 179.4 110.7 178.4 110.7 C 177.3 110.7 176.6 111.4 176.6 112.6 C 176.61 112.55 176.6 115.3 176.6 115.3 L 175.9 115.3 L 175.9 107.9 L 176.6 107.9 C 176.6 107.9 176.61 110.97 176.6 111 C 177 110.4 177.7 110 178.6 110 C 179.9 110 180.7 110.8 180.7 112.3 Z M 187.2 112.9 C 187.2 112.9 182.8 112.9 182.8 112.9 C 182.9 114 183.8 114.7 184.9 114.7 C 185.5 114.7 186.1 114.5 186.5 114 C 186.5 114 186.9 114.5 186.9 114.5 C 186.4 115.1 185.7 115.4 184.9 115.4 C 183.2 115.4 182.1 114.2 182.1 112.7 C 182.1 111.1 183.2 110 184.7 110 C 186.2 110 187.2 111.1 187.2 112.7 C 187.2 112.7 187.2 112.8 187.2 112.9 Z M 182.8 112.4 C 182.8 112.4 186.6 112.4 186.6 112.4 C 186.5 111.3 185.7 110.6 184.7 110.6 C 183.7 110.6 182.9 111.3 182.8 112.4 Z M 191.3 110 C 191.3 110 191.3 110.7 191.3 110.7 C 191.2 110.7 191.2 110.7 191.1 110.7 C 190 110.7 189.4 111.4 189.4 112.6 C 189.35 112.63 189.4 115.3 189.4 115.3 L 188.6 115.3 L 188.6 110.1 L 189.3 110.1 C 189.3 110.1 189.32 111.08 189.3 111.1 C 189.7 110.4 190.3 110 191.3 110 Z M 197 112.9 C 197 112.9 192.6 112.9 192.6 112.9 C 192.7 114 193.6 114.7 194.7 114.7 C 195.3 114.7 195.9 114.5 196.3 114 C 196.3 114 196.7 114.5 196.7 114.5 C 196.2 115.1 195.5 115.4 194.7 115.4 C 193 115.4 191.9 114.2 191.9 112.7 C 191.9 111.1 193 110 194.5 110 C 196 110 197 111.1 197 112.7 C 197 112.7 197 112.8 197 112.9 Z M 192.6 112.4 C 192.6 112.4 196.4 112.4 196.4 112.4 C 196.3 111.3 195.5 110.6 194.5 110.6 C 193.5 110.6 192.7 111.3 192.6 112.4 Z M 203.8 110 C 203.8 110 203.8 110.7 203.8 110.7 C 203.7 110.7 203.6 110.7 203.6 110.7 C 202.5 110.7 201.8 111.4 201.8 112.6 C 201.83 112.63 201.8 115.3 201.8 115.3 L 201.1 115.3 L 201.1 110.1 L 201.8 110.1 C 201.8 110.1 201.8 111.08 201.8 111.1 C 202.1 110.4 202.8 110 203.8 110 Z M 204.4 112.7 C 204.4 111.1 205.5 110 207.1 110 C 208.6 110 209.7 111.1 209.7 112.7 C 209.7 114.2 208.6 115.4 207.1 115.4 C 205.5 115.4 204.4 114.2 204.4 112.7 Z M 209 112.7 C 209 111.5 208.2 110.6 207.1 110.6 C 205.9 110.6 205.1 111.5 205.1 112.7 C 205.1 113.9 205.9 114.7 207.1 114.7 C 208.2 114.7 209 113.9 209 112.7 Z M 215.9 110.1 L 215.9 115.3 L 215.2 115.3 C 215.2 115.3 215.21 114.35 215.2 114.4 C 214.8 115 214.2 115.4 213.3 115.4 C 212 115.4 211.1 114.6 211.1 113.1 C 211.1 113.1 211.1 110.1 211.1 110.1 L 211.8 110.1 C 211.8 110.1 211.81 113.03 211.8 113 C 211.8 114.2 212.4 114.7 213.4 114.7 C 214.5 114.7 215.2 114 215.2 112.8 C 215.18 112.81 215.2 110.1 215.2 110.1 L 215.9 110.1 Z M 220.6 115 C 220.3 115.2 219.9 115.4 219.5 115.4 C 218.5 115.4 218 114.8 218 113.8 C 217.96 113.83 218 110.7 218 110.7 L 217 110.7 L 217 110.1 L 218 110.1 L 218 108.9 L 218.7 108.9 L 218.7 110.1 L 220.3 110.1 L 220.3 110.7 L 218.7 110.7 C 218.7 110.7 218.67 113.79 218.7 113.8 C 218.7 114.4 219 114.8 219.6 114.8 C 219.9 114.8 220.2 114.7 220.4 114.5 C 220.4 114.5 220.6 115 220.6 115 Z M 221.6 108.4 C 221.6 108.1 221.9 107.9 222.2 107.9 C 222.5 107.9 222.7 108.1 222.7 108.4 C 222.7 108.7 222.5 108.9 222.2 108.9 C 221.9 108.9 221.6 108.7 221.6 108.4 Z M 221.8 110.1 L 222.5 110.1 L 222.5 115.3 L 221.8 115.3 L 221.8 110.1 Z M 229.2 112.3 C 229.19 112.26 229.2 115.3 229.2 115.3 L 228.5 115.3 C 228.5 115.3 228.48 112.33 228.5 112.3 C 228.5 111.2 227.9 110.7 226.9 110.7 C 225.8 110.7 225.1 111.4 225.1 112.6 C 225.06 112.55 225.1 115.3 225.1 115.3 L 224.4 115.3 L 224.4 110.1 L 225 110.1 C 225 110.1 225.03 111.02 225 111 C 225.4 110.4 226.1 110 227 110 C 228.3 110 229.2 110.8 229.2 112.3 Z M 235.7 112.9 C 235.7 112.9 231.3 112.9 231.3 112.9 C 231.4 114 232.2 114.7 233.4 114.7 C 234 114.7 234.6 114.5 235 114 C 235 114 235.4 114.5 235.4 114.5 C 234.9 115.1 234.2 115.4 233.3 115.4 C 231.7 115.4 230.6 114.2 230.6 112.7 C 230.6 111.1 231.7 110 233.1 110 C 234.6 110 235.7 111.1 235.7 112.7 C 235.7 112.7 235.7 112.8 235.7 112.9 Z M 231.3 112.4 C 231.3 112.4 235 112.4 235 112.4 C 234.9 111.3 234.2 110.6 233.1 110.6 C 232.1 110.6 231.4 111.3 231.3 112.4 Z M 244.2 110.1 L 241.8 115.3 L 241.1 115.3 L 238.8 110.1 L 239.5 110.1 L 241.5 114.5 L 243.5 110.1 L 244.2 110.1 Z M 245.1 108.4 C 245.1 108.1 245.3 107.9 245.6 107.9 C 245.9 107.9 246.1 108.1 246.1 108.4 C 246.1 108.7 245.9 108.9 245.6 108.9 C 245.3 108.9 245.1 108.7 245.1 108.4 Z M 245.2 110.1 L 245.9 110.1 L 245.9 115.3 L 245.2 115.3 L 245.2 110.1 Z M 247.3 112.7 C 247.3 111.1 248.5 110 250 110 C 251.6 110 252.7 111.1 252.7 112.7 C 252.7 114.2 251.6 115.4 250 115.4 C 248.5 115.4 247.3 114.2 247.3 112.7 Z M 252 112.7 C 252 111.5 251.1 110.6 250 110.6 C 248.9 110.6 248.1 111.5 248.1 112.7 C 248.1 113.9 248.9 114.7 250 114.7 C 251.1 114.7 252 113.9 252 112.7 Z M 254.1 107.9 L 254.8 107.9 L 254.8 115.3 L 254.1 115.3 L 254.1 107.9 Z M 260.7 112.1 C 260.71 112.05 260.7 115.3 260.7 115.3 L 260 115.3 C 260 115.3 260.03 114.49 260 114.5 C 259.7 115 259.1 115.4 258.2 115.4 C 257 115.4 256.3 114.7 256.3 113.8 C 256.3 113 256.8 112.3 258.3 112.3 C 258.33 112.34 260 112.3 260 112.3 C 260 112.3 260 112.02 260 112 C 260 111.1 259.5 110.6 258.5 110.6 C 257.8 110.6 257.2 110.9 256.8 111.3 C 256.8 111.3 256.4 110.7 256.4 110.7 C 257 110.3 257.8 110 258.6 110 C 259.9 110 260.7 110.7 260.7 112.1 Z M 260 113.7 C 260 113.73 260 112.9 260 112.9 C 260 112.9 258.35 112.87 258.4 112.9 C 257.3 112.9 257 113.3 257 113.8 C 257 114.4 257.5 114.8 258.3 114.8 C 259.1 114.8 259.7 114.4 260 113.7 Z M 265.3 115 C 265 115.2 264.6 115.4 264.1 115.4 C 263.2 115.4 262.6 114.8 262.6 113.8 C 262.61 113.83 262.6 110.7 262.6 110.7 L 261.7 110.7 L 261.7 110.1 L 262.6 110.1 L 262.6 108.9 L 263.3 108.9 L 263.3 110.1 L 264.9 110.1 L 264.9 110.7 L 263.3 110.7 C 263.3 110.7 263.32 113.79 263.3 113.8 C 263.3 114.4 263.6 114.8 264.2 114.8 C 264.5 114.8 264.8 114.7 265 114.5 C 265 114.5 265.3 115 265.3 115 Z M 266.3 108.4 C 266.3 108.1 266.5 107.9 266.8 107.9 C 267.1 107.9 267.3 108.1 267.3 108.4 C 267.3 108.7 267.1 108.9 266.8 108.9 C 266.5 108.9 266.3 108.7 266.3 108.4 Z M 266.4 110.1 L 267.2 110.1 L 267.2 115.3 L 266.4 115.3 L 266.4 110.1 Z M 268.6 112.7 C 268.6 111.1 269.7 110 271.2 110 C 272.8 110 273.9 111.1 273.9 112.7 C 273.9 114.2 272.8 115.4 271.2 115.4 C 269.7 115.4 268.6 114.2 268.6 112.7 Z M 273.2 112.7 C 273.2 111.5 272.4 110.6 271.2 110.6 C 270.1 110.6 269.3 111.5 269.3 112.7 C 269.3 113.9 270.1 114.7 271.2 114.7 C 272.4 114.7 273.2 113.9 273.2 112.7 Z M 280.2 112.3 C 280.17 112.26 280.2 115.3 280.2 115.3 L 279.5 115.3 C 279.5 115.3 279.46 112.33 279.5 112.3 C 279.5 111.2 278.9 110.7 277.9 110.7 C 276.7 110.7 276 111.4 276 112.6 C 276.04 112.55 276 115.3 276 115.3 L 275.3 115.3 L 275.3 110.1 L 276 110.1 C 276 110.1 276.01 111.02 276 111 C 276.4 110.4 277.1 110 278 110 C 279.3 110 280.2 110.8 280.2 112.3 Z M 281.4 114.7 C 281.4 114.7 281.7 114.2 281.7 114.2 C 282.1 114.5 282.8 114.7 283.6 114.7 C 284.6 114.7 285 114.4 285 113.9 C 285 112.5 281.6 113.6 281.6 111.5 C 281.6 110.7 282.3 110 283.7 110 C 284.3 110 285.1 110.2 285.5 110.5 C 285.5 110.5 285.2 111.1 285.2 111.1 C 284.7 110.8 284.2 110.6 283.7 110.6 C 282.7 110.6 282.3 111 282.3 111.5 C 282.3 112.9 285.7 111.8 285.7 113.9 C 285.7 114.8 284.9 115.4 283.5 115.4 C 282.7 115.4 281.8 115.1 281.4 114.7 Z M 293.6 112.1 C 293.59 112.05 293.6 115.3 293.6 115.3 L 292.9 115.3 C 292.9 115.3 292.92 114.49 292.9 114.5 C 292.6 115 292 115.4 291.1 115.4 C 289.9 115.4 289.2 114.7 289.2 113.8 C 289.2 113 289.7 112.3 291.2 112.3 C 291.22 112.34 292.9 112.3 292.9 112.3 C 292.9 112.3 292.89 112.02 292.9 112 C 292.9 111.1 292.4 110.6 291.4 110.6 C 290.7 110.6 290.1 110.9 289.6 111.3 C 289.6 111.3 289.3 110.7 289.3 110.7 C 289.9 110.3 290.6 110 291.5 110 C 292.8 110 293.6 110.7 293.6 112.1 Z M 292.9 113.7 C 292.89 113.73 292.9 112.9 292.9 112.9 C 292.9 112.9 291.24 112.87 291.2 112.9 C 290.2 112.9 289.9 113.3 289.9 113.8 C 289.9 114.4 290.4 114.8 291.2 114.8 C 292 114.8 292.6 114.4 292.9 113.7 Z M 298.1 110 C 298.1 110 298.1 110.7 298.1 110.7 C 298 110.7 297.9 110.7 297.9 110.7 C 296.8 110.7 296.1 111.4 296.1 112.6 C 296.12 112.63 296.1 115.3 296.1 115.3 L 295.4 115.3 L 295.4 110.1 L 296.1 110.1 C 296.1 110.1 296.09 111.08 296.1 111.1 C 296.4 110.4 297.1 110 298.1 110 Z M 303.8 112.9 C 303.8 112.9 299.4 112.9 299.4 112.9 C 299.5 114 300.3 114.7 301.5 114.7 C 302.1 114.7 302.7 114.5 303.1 114 C 303.1 114 303.5 114.5 303.5 114.5 C 303 115.1 302.3 115.4 301.5 115.4 C 299.8 115.4 298.7 114.2 298.7 112.7 C 298.7 111.1 299.8 110 301.3 110 C 302.7 110 303.8 111.1 303.8 112.7 C 303.8 112.7 303.8 112.8 303.8 112.9 Z M 299.4 112.4 C 299.4 112.4 303.1 112.4 303.1 112.4 C 303 111.3 302.3 110.6 301.3 110.6 C 300.2 110.6 299.5 111.3 299.4 112.4 Z M 310.7 115 C 310.4 115.2 310 115.4 309.5 115.4 C 308.6 115.4 308 114.8 308 113.8 C 308 113.83 308 110.7 308 110.7 L 307.1 110.7 L 307.1 110.1 L 308 110.1 L 308 108.9 L 308.7 108.9 L 308.7 110.1 L 310.3 110.1 L 310.3 110.7 L 308.7 110.7 C 308.7 110.7 308.71 113.79 308.7 113.8 C 308.7 114.4 309 114.8 309.6 114.8 C 309.9 114.8 310.2 114.7 310.4 114.5 C 310.4 114.5 310.7 115 310.7 115 Z M 316.7 112.3 C 316.68 112.26 316.7 115.3 316.7 115.3 L 316 115.3 C 316 115.3 315.97 112.33 316 112.3 C 316 111.2 315.4 110.7 314.4 110.7 C 313.3 110.7 312.5 111.4 312.5 112.6 C 312.55 112.55 312.5 115.3 312.5 115.3 L 311.8 115.3 L 311.8 107.9 L 312.5 107.9 C 312.5 107.9 312.55 110.97 312.5 111 C 312.9 110.4 313.6 110 314.5 110 C 315.8 110 316.7 110.8 316.7 112.3 Z M 323.2 112.9 C 323.2 112.9 318.8 112.9 318.8 112.9 C 318.9 114 319.7 114.7 320.8 114.7 C 321.5 114.7 322.1 114.5 322.5 114 C 322.5 114 322.9 114.5 322.9 114.5 C 322.4 115.1 321.7 115.4 320.8 115.4 C 319.2 115.4 318.1 114.2 318.1 112.7 C 318.1 111.1 319.2 110 320.6 110 C 322.1 110 323.2 111.1 323.2 112.7 C 323.2 112.7 323.2 112.8 323.2 112.9 Z M 318.8 112.4 C 318.8 112.4 322.5 112.4 322.5 112.4 C 322.4 111.3 321.7 110.6 320.6 110.6 C 319.6 110.6 318.9 111.3 318.8 112.4 Z M 332.1 112.3 C 332.09 112.26 332.1 115.3 332.1 115.3 L 331.4 115.3 C 331.4 115.3 331.38 112.33 331.4 112.3 C 331.4 111.2 330.8 110.7 329.8 110.7 C 328.7 110.7 328 111.4 328 112.6 C 327.96 112.55 328 115.3 328 115.3 L 327.3 115.3 L 327.3 110.1 L 327.9 110.1 C 327.9 110.1 327.93 111.02 327.9 111 C 328.3 110.4 329 110 329.9 110 C 331.2 110 332.1 110.8 332.1 112.3 Z M 333.5 112.7 C 333.5 111.1 334.6 110 336.2 110 C 337.7 110 338.8 111.1 338.8 112.7 C 338.8 114.2 337.7 115.4 336.2 115.4 C 334.6 115.4 333.5 114.2 333.5 112.7 Z M 338.1 112.7 C 338.1 111.5 337.3 110.6 336.2 110.6 C 335 110.6 334.2 111.5 334.2 112.7 C 334.2 113.9 335 114.7 336.2 114.7 C 337.3 114.7 338.1 113.9 338.1 112.7 Z M 342.9 110 C 342.9 110 342.9 110.7 342.9 110.7 C 342.8 110.7 342.8 110.7 342.7 110.7 C 341.6 110.7 341 111.4 341 112.6 C 340.96 112.63 341 115.3 341 115.3 L 340.3 115.3 L 340.3 110.1 L 340.9 110.1 C 340.9 110.1 340.93 111.08 340.9 111.1 C 341.3 110.4 341.9 110 342.9 110 Z M 352.8 112.3 C 352.8 112.26 352.8 115.3 352.8 115.3 L 352.1 115.3 C 352.1 115.3 352.09 112.33 352.1 112.3 C 352.1 111.2 351.5 110.7 350.6 110.7 C 349.5 110.7 348.8 111.4 348.8 112.6 C 348.82 112.55 348.8 115.3 348.8 115.3 L 348.1 115.3 C 348.1 115.3 348.11 112.33 348.1 112.3 C 348.1 111.2 347.6 110.7 346.6 110.7 C 345.5 110.7 344.8 111.4 344.8 112.6 C 344.83 112.55 344.8 115.3 344.8 115.3 L 344.1 115.3 L 344.1 110.1 L 344.8 110.1 C 344.8 110.1 344.8 111.01 344.8 111 C 345.2 110.4 345.9 110 346.7 110 C 347.6 110 348.3 110.4 348.6 111.1 C 349 110.4 349.7 110 350.7 110 C 352 110 352.8 110.8 352.8 112.3 Z M 361.3 112.1 C 361.32 112.05 361.3 115.3 361.3 115.3 L 360.6 115.3 C 360.6 115.3 360.64 114.49 360.6 114.5 C 360.3 115 359.7 115.4 358.8 115.4 C 357.6 115.4 356.9 114.7 356.9 113.8 C 356.9 113 357.4 112.3 358.9 112.3 C 358.94 112.34 360.6 112.3 360.6 112.3 C 360.6 112.3 360.61 112.02 360.6 112 C 360.6 111.1 360.1 110.6 359.1 110.6 C 358.4 110.6 357.8 110.9 357.4 111.3 C 357.4 111.3 357.1 110.7 357.1 110.7 C 357.6 110.3 358.4 110 359.2 110 C 360.6 110 361.3 110.7 361.3 112.1 Z M 360.6 113.7 C 360.61 113.73 360.6 112.9 360.6 112.9 C 360.6 112.9 358.96 112.87 359 112.9 C 357.9 112.9 357.6 113.3 357.6 113.8 C 357.6 114.4 358.1 114.8 358.9 114.8 C 359.7 114.8 360.3 114.4 360.6 113.7 Z M 368 112.3 C 367.98 112.26 368 115.3 368 115.3 L 367.3 115.3 C 367.3 115.3 367.27 112.33 367.3 112.3 C 367.3 111.2 366.7 110.7 365.7 110.7 C 364.6 110.7 363.8 111.4 363.8 112.6 C 363.85 112.55 363.8 115.3 363.8 115.3 L 363.1 115.3 L 363.1 110.1 L 363.8 110.1 C 363.8 110.1 363.82 111.02 363.8 111 C 364.2 110.4 364.9 110 365.8 110 C 367.1 110 368 110.8 368 112.3 Z M 374.7 107.9 L 374.7 115.3 L 374 115.3 C 374 115.3 374.01 114.27 374 114.3 C 373.6 115 372.9 115.4 372 115.4 C 370.5 115.4 369.4 114.3 369.4 112.7 C 369.4 111.1 370.5 110 372 110 C 372.8 110 373.5 110.4 374 111.1 C 373.98 111.05 374 107.9 374 107.9 L 374.7 107.9 Z M 374 112.7 C 374 111.5 373.2 110.6 372 110.6 C 370.9 110.6 370.1 111.5 370.1 112.7 C 370.1 113.9 370.9 114.7 372 114.7 C 373.2 114.7 374 113.9 374 112.7 Z M 384.1 112.3 C 384.13 112.26 384.1 115.3 384.1 115.3 L 383.4 115.3 C 383.4 115.3 383.42 112.33 383.4 112.3 C 383.4 111.2 382.8 110.7 381.8 110.7 C 380.7 110.7 380 111.4 380 112.6 C 380 112.55 380 115.3 380 115.3 L 379.3 115.3 L 379.3 110.1 L 380 110.1 C 380 110.1 379.97 111.02 380 111 C 380.4 110.4 381.1 110 382 110 C 383.3 110 384.1 110.8 384.1 112.3 Z M 385.5 112.7 C 385.5 111.1 386.7 110 388.2 110 C 389.7 110 390.9 111.1 390.9 112.7 C 390.9 114.2 389.7 115.4 388.2 115.4 C 386.7 115.4 385.5 114.2 385.5 112.7 Z M 390.1 112.7 C 390.1 111.5 389.3 110.6 388.2 110.6 C 387.1 110.6 386.2 111.5 386.2 112.7 C 386.2 113.9 387.1 114.7 388.2 114.7 C 389.3 114.7 390.1 113.9 390.1 112.7 Z M 395 115 C 394.7 115.2 394.3 115.4 393.9 115.4 C 392.9 115.4 392.4 114.8 392.4 113.8 C 392.37 113.83 392.4 110.7 392.4 110.7 L 391.4 110.7 L 391.4 110.1 L 392.4 110.1 L 392.4 108.9 L 393.1 108.9 L 393.1 110.1 L 394.7 110.1 L 394.7 110.7 L 393.1 110.7 C 393.1 110.7 393.08 113.79 393.1 113.8 C 393.1 114.4 393.4 114.8 394 114.8 C 394.3 114.8 394.6 114.7 394.8 114.5 C 394.8 114.5 395 115 395 115 Z " stroke="none" fill="#323132"/>
  </g>
  <g id="Polygon112651">
    <path d="M 20.4 112.7 L 16.2 114.8 L 16.2 110.5 L 20.4 112.7 Z " stroke="none" fill="#a243ff"/>
  </g>
  <g id="Polygon112650">
    <path d="M 32 86.9 L 32.7 86.9 L 32.7 94.3 L 32 94.3 L 32 86.9 Z M 38.6 91.1 C 38.58 91.05 38.6 94.3 38.6 94.3 L 37.9 94.3 C 37.9 94.3 37.9 93.49 37.9 93.5 C 37.6 94 37 94.4 36.1 94.4 C 34.9 94.4 34.2 93.7 34.2 92.8 C 34.2 92 34.7 91.3 36.2 91.3 C 36.2 91.34 37.9 91.3 37.9 91.3 C 37.9 91.3 37.87 91.02 37.9 91 C 37.9 90.1 37.4 89.6 36.4 89.6 C 35.7 89.6 35.1 89.9 34.6 90.3 C 34.6 90.3 34.3 89.7 34.3 89.7 C 34.8 89.3 35.6 89 36.4 89 C 37.8 89 38.6 89.7 38.6 91.1 Z M 37.9 92.7 C 37.87 92.73 37.9 91.9 37.9 91.9 C 37.9 91.9 36.22 91.87 36.2 91.9 C 35.2 91.9 34.9 92.3 34.9 92.8 C 34.9 93.4 35.4 93.8 36.2 93.8 C 37 93.8 37.6 93.4 37.9 92.7 Z M 40 91.7 C 40 90.1 41.1 89 42.7 89 C 43.6 89 44.3 89.4 44.7 90.1 C 44.7 90.1 44.2 90.4 44.2 90.4 C 43.8 89.9 43.3 89.6 42.7 89.6 C 41.5 89.6 40.7 90.5 40.7 91.7 C 40.7 92.9 41.5 93.7 42.7 93.7 C 43.3 93.7 43.8 93.5 44.2 93 C 44.2 93 44.7 93.3 44.7 93.3 C 44.3 94 43.6 94.4 42.7 94.4 C 41.1 94.4 40 93.3 40 91.7 Z M 48 91.7 L 46.8 92.8 L 46.8 94.3 L 46 94.3 L 46 86.9 L 46.8 86.9 L 46.8 91.9 L 49.9 89.1 L 50.8 89.1 L 48.5 91.2 L 51 94.3 L 50.1 94.3 L 48 91.7 Z M 54.1 91.7 C 54.1 90.1 55.3 89 56.8 89 C 58.4 89 59.5 90.1 59.5 91.7 C 59.5 93.2 58.4 94.4 56.8 94.4 C 55.3 94.4 54.1 93.2 54.1 91.7 Z M 58.8 91.7 C 58.8 90.5 57.9 89.6 56.8 89.6 C 55.7 89.6 54.9 90.5 54.9 91.7 C 54.9 92.9 55.7 93.7 56.8 93.7 C 57.9 93.7 58.8 92.9 58.8 91.7 Z M 61.7 88.4 C 61.69 88.43 61.7 89.1 61.7 89.1 L 63.3 89.1 L 63.3 89.7 L 61.7 89.7 L 61.7 94.3 L 61 94.3 L 61 89.7 L 60.1 89.7 L 60.1 89.1 L 61 89.1 C 61 89.1 61 88.4 61 88.4 C 61 87.5 61.6 86.8 62.6 86.8 C 63 86.8 63.4 87 63.6 87.2 C 63.6 87.2 63.4 87.7 63.4 87.7 C 63.2 87.5 62.9 87.4 62.6 87.4 C 62 87.4 61.7 87.8 61.7 88.4 Z M 71.5 91.9 C 71.5 91.9 67.1 91.9 67.1 91.9 C 67.1 93 68 93.7 69.1 93.7 C 69.8 93.7 70.3 93.5 70.7 93 C 70.7 93 71.1 93.5 71.1 93.5 C 70.7 94.1 69.9 94.4 69.1 94.4 C 67.5 94.4 66.4 93.2 66.4 91.7 C 66.4 90.1 67.4 89 68.9 89 C 70.4 89 71.5 90.1 71.5 91.7 C 71.5 91.7 71.5 91.8 71.5 91.9 Z M 67.1 91.4 C 67.1 91.4 70.8 91.4 70.8 91.4 C 70.7 90.3 70 89.6 68.9 89.6 C 67.9 89.6 67.2 90.3 67.1 91.4 Z M 77.7 91.3 C 77.72 91.26 77.7 94.3 77.7 94.3 L 77 94.3 C 77 94.3 77.01 91.33 77 91.3 C 77 90.2 76.4 89.7 75.4 89.7 C 74.3 89.7 73.6 90.4 73.6 91.6 C 73.59 91.55 73.6 94.3 73.6 94.3 L 72.9 94.3 L 72.9 89.1 L 73.6 89.1 C 73.6 89.1 73.56 90.02 73.6 90 C 73.9 89.4 74.7 89 75.6 89 C 76.8 89 77.7 89.8 77.7 91.3 Z M 80.3 88.4 C 80.32 88.43 80.3 89.1 80.3 89.1 L 81.9 89.1 L 81.9 89.7 L 80.3 89.7 L 80.3 94.3 L 79.6 94.3 L 79.6 89.7 L 78.7 89.7 L 78.7 89.1 L 79.6 89.1 C 79.6 89.1 79.63 88.4 79.6 88.4 C 79.6 87.5 80.2 86.8 81.2 86.8 C 81.6 86.8 82 87 82.3 87.2 C 82.3 87.2 82 87.7 82 87.7 C 81.8 87.5 81.6 87.4 81.3 87.4 C 80.6 87.4 80.3 87.8 80.3 88.4 Z M 82.4 91.7 C 82.4 90.1 83.5 89 85 89 C 86.6 89 87.7 90.1 87.7 91.7 C 87.7 93.2 86.6 94.4 85 94.4 C 83.5 94.4 82.4 93.2 82.4 91.7 Z M 87 91.7 C 87 90.5 86.2 89.6 85 89.6 C 83.9 89.6 83.1 90.5 83.1 91.7 C 83.1 92.9 83.9 93.7 85 93.7 C 86.2 93.7 87 92.9 87 91.7 Z M 91.8 89 C 91.8 89 91.8 89.7 91.8 89.7 C 91.7 89.7 91.7 89.7 91.6 89.7 C 90.5 89.7 89.8 90.4 89.8 91.6 C 89.84 91.63 89.8 94.3 89.8 94.3 L 89.1 94.3 L 89.1 89.1 L 89.8 89.1 C 89.8 89.1 89.81 90.08 89.8 90.1 C 90.1 89.4 90.8 89 91.8 89 Z M 92.4 91.7 C 92.4 90.1 93.5 89 95.1 89 C 96 89 96.7 89.4 97.2 90.1 C 97.2 90.1 96.6 90.4 96.6 90.4 C 96.3 89.9 95.7 89.6 95.1 89.6 C 94 89.6 93.1 90.5 93.1 91.7 C 93.1 92.9 94 93.7 95.1 93.7 C 95.7 93.7 96.3 93.5 96.6 93 C 96.6 93 97.2 93.3 97.2 93.3 C 96.7 94 96 94.4 95.1 94.4 C 93.5 94.4 92.4 93.3 92.4 91.7 Z M 103.1 91.9 C 103.1 91.9 98.7 91.9 98.7 91.9 C 98.8 93 99.6 93.7 100.8 93.7 C 101.4 93.7 102 93.5 102.4 93 C 102.4 93 102.8 93.5 102.8 93.5 C 102.3 94.1 101.6 94.4 100.7 94.4 C 99.1 94.4 98 93.2 98 91.7 C 98 90.1 99.1 89 100.5 89 C 102 89 103.1 90.1 103.1 91.7 C 103.1 91.7 103.1 91.8 103.1 91.9 Z M 98.7 91.4 C 98.7 91.4 102.4 91.4 102.4 91.4 C 102.3 90.3 101.6 89.6 100.5 89.6 C 99.5 89.6 98.8 90.3 98.7 91.4 Z M 113.2 91.3 C 113.18 91.26 113.2 94.3 113.2 94.3 L 112.5 94.3 C 112.5 94.3 112.47 91.33 112.5 91.3 C 112.5 90.2 111.9 89.7 111 89.7 C 109.9 89.7 109.2 90.4 109.2 91.6 C 109.2 91.55 109.2 94.3 109.2 94.3 L 108.5 94.3 C 108.5 94.3 108.49 91.33 108.5 91.3 C 108.5 90.2 107.9 89.7 107 89.7 C 105.9 89.7 105.2 90.4 105.2 91.6 C 105.21 91.55 105.2 94.3 105.2 94.3 L 104.5 94.3 L 104.5 89.1 L 105.2 89.1 C 105.2 89.1 105.18 90.01 105.2 90 C 105.5 89.4 106.2 89 107.1 89 C 108 89 108.7 89.4 109 90.1 C 109.4 89.4 110.1 89 111.1 89 C 112.3 89 113.2 89.8 113.2 91.3 Z M 119.7 91.9 C 119.7 91.9 115.3 91.9 115.3 91.9 C 115.4 93 116.2 93.7 117.3 93.7 C 118 93.7 118.6 93.5 119 93 C 119 93 119.4 93.5 119.4 93.5 C 118.9 94.1 118.2 94.4 117.3 94.4 C 115.7 94.4 114.6 93.2 114.6 91.7 C 114.6 90.1 115.7 89 117.1 89 C 118.6 89 119.7 90.1 119.7 91.7 C 119.7 91.7 119.7 91.8 119.7 91.9 Z M 115.3 91.4 C 115.3 91.4 119 91.4 119 91.4 C 118.9 90.3 118.2 89.6 117.1 89.6 C 116.1 89.6 115.4 90.3 115.3 91.4 Z M 125.9 91.3 C 125.93 91.26 125.9 94.3 125.9 94.3 L 125.2 94.3 C 125.2 94.3 125.22 91.33 125.2 91.3 C 125.2 90.2 124.6 89.7 123.6 89.7 C 122.5 89.7 121.8 90.4 121.8 91.6 C 121.8 91.55 121.8 94.3 121.8 94.3 L 121.1 94.3 L 121.1 89.1 L 121.8 89.1 C 121.8 89.1 121.77 90.02 121.8 90 C 122.2 89.4 122.9 89 123.8 89 C 125.1 89 125.9 89.8 125.9 91.3 Z M 130.5 94 C 130.2 94.2 129.8 94.4 129.4 94.4 C 128.4 94.4 127.8 93.8 127.8 92.8 C 127.82 92.83 127.8 89.7 127.8 89.7 L 126.9 89.7 L 126.9 89.1 L 127.8 89.1 L 127.8 87.9 L 128.5 87.9 L 128.5 89.1 L 130.1 89.1 L 130.1 89.7 L 128.5 89.7 C 128.5 89.7 128.52 92.79 128.5 92.8 C 128.5 93.4 128.8 93.8 129.4 93.8 C 129.7 93.8 130 93.7 130.2 93.5 C 130.2 93.5 130.5 94 130.5 94 Z M 133.8 91.7 C 133.8 90.1 135 89 136.5 89 C 138.1 89 139.2 90.1 139.2 91.7 C 139.2 93.2 138.1 94.4 136.5 94.4 C 135 94.4 133.8 93.2 133.8 91.7 Z M 138.5 91.7 C 138.5 90.5 137.6 89.6 136.5 89.6 C 135.4 89.6 134.6 90.5 134.6 91.7 C 134.6 92.9 135.4 93.7 136.5 93.7 C 137.6 93.7 138.5 92.9 138.5 91.7 Z M 141.4 88.4 C 141.39 88.43 141.4 89.1 141.4 89.1 L 143 89.1 L 143 89.7 L 141.4 89.7 L 141.4 94.3 L 140.7 94.3 L 140.7 89.7 L 139.8 89.7 L 139.8 89.1 L 140.7 89.1 C 140.7 89.1 140.7 88.4 140.7 88.4 C 140.7 87.5 141.3 86.8 142.3 86.8 C 142.7 86.8 143.1 87 143.3 87.2 C 143.3 87.2 143.1 87.7 143.1 87.7 C 142.9 87.5 142.6 87.4 142.3 87.4 C 141.7 87.4 141.4 87.8 141.4 88.4 Z M 149.4 94 C 149.1 94.2 148.7 94.4 148.3 94.4 C 147.3 94.4 146.7 93.8 146.7 92.8 C 146.71 92.83 146.7 89.7 146.7 89.7 L 145.8 89.7 L 145.8 89.1 L 146.7 89.1 L 146.7 87.9 L 147.4 87.9 L 147.4 89.1 L 149 89.1 L 149 89.7 L 147.4 89.7 C 147.4 89.7 147.42 92.79 147.4 92.8 C 147.4 93.4 147.7 93.8 148.3 93.8 C 148.6 93.8 148.9 93.7 149.1 93.5 C 149.1 93.5 149.4 94 149.4 94 Z M 155.4 91.3 C 155.39 91.26 155.4 94.3 155.4 94.3 L 154.7 94.3 C 154.7 94.3 154.68 91.33 154.7 91.3 C 154.7 90.2 154.1 89.7 153.1 89.7 C 152 89.7 151.3 90.4 151.3 91.6 C 151.26 91.55 151.3 94.3 151.3 94.3 L 150.6 94.3 L 150.6 86.9 L 151.3 86.9 C 151.3 86.9 151.26 89.97 151.3 90 C 151.6 89.4 152.3 89 153.2 89 C 154.5 89 155.4 89.8 155.4 91.3 Z M 161.9 91.9 C 161.9 91.9 157.5 91.9 157.5 91.9 C 157.6 93 158.4 93.7 159.6 93.7 C 160.2 93.7 160.8 93.5 161.2 93 C 161.2 93 161.6 93.5 161.6 93.5 C 161.1 94.1 160.4 94.4 159.5 94.4 C 157.9 94.4 156.8 93.2 156.8 91.7 C 156.8 90.1 157.9 89 159.3 89 C 160.8 89 161.9 90.1 161.9 91.7 C 161.9 91.7 161.9 91.8 161.9 91.9 Z M 157.5 91.4 C 157.5 91.4 161.2 91.4 161.2 91.4 C 161.1 90.3 160.4 89.6 159.3 89.6 C 158.3 89.6 157.6 90.3 157.5 91.4 Z M 168.6 89 C 168.6 89 168.6 89.7 168.6 89.7 C 168.6 89.7 168.5 89.7 168.4 89.7 C 167.3 89.7 166.7 90.4 166.7 91.6 C 166.67 91.63 166.7 94.3 166.7 94.3 L 166 94.3 L 166 89.1 L 166.6 89.1 C 166.6 89.1 166.64 90.08 166.6 90.1 C 167 89.4 167.6 89 168.6 89 Z M 174.6 89.1 L 174.6 94.3 L 173.9 94.3 C 173.9 94.3 173.92 93.35 173.9 93.4 C 173.6 94 172.9 94.4 172 94.4 C 170.7 94.4 169.8 93.6 169.8 92.1 C 169.81 92.1 169.8 89.1 169.8 89.1 L 170.5 89.1 C 170.5 89.1 170.52 92.03 170.5 92 C 170.5 93.2 171.1 93.7 172.1 93.7 C 173.2 93.7 173.9 93 173.9 91.8 C 173.89 91.81 173.9 89.1 173.9 89.1 L 174.6 89.1 Z M 176.5 86.9 L 177.2 86.9 L 177.2 94.3 L 176.5 94.3 L 176.5 86.9 Z M 183.7 91.9 C 183.7 91.9 179.3 91.9 179.3 91.9 C 179.4 93 180.2 93.7 181.4 93.7 C 182 93.7 182.6 93.5 183 93 C 183 93 183.4 93.5 183.4 93.5 C 182.9 94.1 182.2 94.4 181.4 94.4 C 179.7 94.4 178.6 93.2 178.6 91.7 C 178.6 90.1 179.7 89 181.2 89 C 182.6 89 183.7 90.1 183.7 91.7 C 183.7 91.7 183.7 91.8 183.7 91.9 Z M 179.3 91.4 C 179.3 91.4 183 91.4 183 91.4 C 182.9 90.3 182.2 89.6 181.2 89.6 C 180.1 89.6 179.4 90.3 179.3 91.4 Z " stroke="none" fill="#323132"/>
  </g>
  <g id="Polygon112649">
    <path d="M 20.4 91.7 L 16.2 93.8 L 16.2 89.5 L 20.4 91.7 Z " stroke="none" fill="#a243ff"/>
  </g>
  <g id="Polygon112648">
    <path d="M 34.8 73 C 34.5 73.2 34.1 73.4 33.6 73.4 C 32.7 73.4 32.1 72.8 32.1 71.8 C 32.11 71.83 32.1 68.7 32.1 68.7 L 31.2 68.7 L 31.2 68.1 L 32.1 68.1 L 32.1 66.9 L 32.8 66.9 L 32.8 68.1 L 34.4 68.1 L 34.4 68.7 L 32.8 68.7 C 32.8 68.7 32.82 71.79 32.8 71.8 C 32.8 72.4 33.1 72.8 33.7 72.8 C 34 72.8 34.3 72.7 34.5 72.5 C 34.5 72.5 34.8 73 34.8 73 Z M 40.8 70.3 C 40.79 70.26 40.8 73.3 40.8 73.3 L 40.1 73.3 C 40.1 73.3 40.08 70.33 40.1 70.3 C 40.1 69.2 39.5 68.7 38.5 68.7 C 37.4 68.7 36.7 69.4 36.7 70.6 C 36.66 70.55 36.7 73.3 36.7 73.3 L 35.9 73.3 L 35.9 65.9 L 36.7 65.9 C 36.7 65.9 36.66 68.97 36.7 69 C 37 68.4 37.7 68 38.6 68 C 39.9 68 40.8 68.8 40.8 70.3 Z M 47.3 70.9 C 47.3 70.9 42.9 70.9 42.9 70.9 C 43 72 43.8 72.7 45 72.7 C 45.6 72.7 46.2 72.5 46.6 72 C 46.6 72 47 72.5 47 72.5 C 46.5 73.1 45.8 73.4 44.9 73.4 C 43.3 73.4 42.2 72.2 42.2 70.7 C 42.2 69.1 43.3 68 44.7 68 C 46.2 68 47.3 69.1 47.3 70.7 C 47.3 70.7 47.3 70.8 47.3 70.9 Z M 42.9 70.4 C 42.9 70.4 46.6 70.4 46.6 70.4 C 46.5 69.3 45.8 68.6 44.7 68.6 C 43.7 68.6 43 69.3 42.9 70.4 Z M 56.7 70.7 C 56.7 72.3 55.6 73.4 54.1 73.4 C 53.2 73.4 52.5 73 52 72.3 C 52.04 72.27 52 73.3 52 73.3 L 51.4 73.3 L 51.4 65.9 L 52.1 65.9 C 52.1 65.9 52.07 69.05 52.1 69.1 C 52.5 68.4 53.2 68 54.1 68 C 55.6 68 56.7 69.1 56.7 70.7 Z M 56 70.7 C 56 69.5 55.1 68.6 54 68.6 C 52.9 68.6 52.1 69.5 52.1 70.7 C 52.1 71.9 52.9 72.7 54 72.7 C 55.1 72.7 56 71.9 56 70.7 Z M 62.8 70.9 C 62.8 70.9 58.4 70.9 58.4 70.9 C 58.5 72 59.3 72.7 60.5 72.7 C 61.1 72.7 61.7 72.5 62.1 72 C 62.1 72 62.5 72.5 62.5 72.5 C 62 73.1 61.3 73.4 60.5 73.4 C 58.8 73.4 57.7 72.2 57.7 70.7 C 57.7 69.1 58.8 68 60.3 68 C 61.7 68 62.8 69.1 62.8 70.7 C 62.8 70.7 62.8 70.8 62.8 70.9 Z M 58.4 70.4 C 58.4 70.4 62.1 70.4 62.1 70.4 C 62 69.3 61.3 68.6 60.3 68.6 C 59.2 68.6 58.5 69.3 58.4 70.4 Z M 64.2 65.9 L 64.9 65.9 L 64.9 73.3 L 64.2 73.3 L 64.2 65.9 Z M 66.6 66.4 C 66.6 66.1 66.9 65.9 67.1 65.9 C 67.4 65.9 67.7 66.1 67.7 66.4 C 67.7 66.7 67.4 66.9 67.1 66.9 C 66.9 66.9 66.6 66.7 66.6 66.4 Z M 66.8 68.1 L 67.5 68.1 L 67.5 73.3 L 66.8 73.3 L 66.8 68.1 Z M 74 70.9 C 74 70.9 69.6 70.9 69.6 70.9 C 69.7 72 70.5 72.7 71.7 72.7 C 72.3 72.7 72.9 72.5 73.3 72 C 73.3 72 73.7 72.5 73.7 72.5 C 73.2 73.1 72.5 73.4 71.7 73.4 C 70 73.4 68.9 72.2 68.9 70.7 C 68.9 69.1 70 68 71.5 68 C 72.9 68 74 69.1 74 70.7 C 74 70.7 74 70.8 74 70.9 Z M 69.6 70.4 C 69.6 70.4 73.3 70.4 73.3 70.4 C 73.2 69.3 72.5 68.6 71.5 68.6 C 70.4 68.6 69.7 69.3 69.6 70.4 Z M 76.2 67.4 C 76.2 67.43 76.2 68.1 76.2 68.1 L 77.8 68.1 L 77.8 68.7 L 76.2 68.7 L 76.2 73.3 L 75.5 73.3 L 75.5 68.7 L 74.6 68.7 L 74.6 68.1 L 75.5 68.1 C 75.5 68.1 75.51 67.4 75.5 67.4 C 75.5 66.5 76.1 65.8 77.1 65.8 C 77.5 65.8 77.9 66 78.2 66.2 C 78.2 66.2 77.9 66.7 77.9 66.7 C 77.7 66.5 77.4 66.4 77.1 66.4 C 76.5 66.4 76.2 66.8 76.2 67.4 Z M 84.2 73 C 83.9 73.2 83.5 73.4 83.1 73.4 C 82.1 73.4 81.5 72.8 81.5 71.8 C 81.52 71.83 81.5 68.7 81.5 68.7 L 80.6 68.7 L 80.6 68.1 L 81.5 68.1 L 81.5 66.9 L 82.2 66.9 L 82.2 68.1 L 83.8 68.1 L 83.8 68.7 L 82.2 68.7 C 82.2 68.7 82.23 71.79 82.2 71.8 C 82.2 72.4 82.6 72.8 83.1 72.8 C 83.4 72.8 83.7 72.7 83.9 72.5 C 83.9 72.5 84.2 73 84.2 73 Z M 90.2 70.3 C 90.2 70.26 90.2 73.3 90.2 73.3 L 89.5 73.3 C 89.5 73.3 89.49 70.33 89.5 70.3 C 89.5 69.2 88.9 68.7 87.9 68.7 C 86.8 68.7 86.1 69.4 86.1 70.6 C 86.07 70.55 86.1 73.3 86.1 73.3 L 85.4 73.3 L 85.4 65.9 L 86.1 65.9 C 86.1 65.9 86.07 68.97 86.1 69 C 86.5 68.4 87.2 68 88 68 C 89.3 68 90.2 68.8 90.2 70.3 Z M 96 70.1 C 96.02 70.05 96 73.3 96 73.3 L 95.3 73.3 C 95.3 73.3 95.34 72.49 95.3 72.5 C 95 73 94.4 73.4 93.5 73.4 C 92.3 73.4 91.6 72.7 91.6 71.8 C 91.6 71 92.1 70.3 93.6 70.3 C 93.64 70.34 95.3 70.3 95.3 70.3 C 95.3 70.3 95.31 70.02 95.3 70 C 95.3 69.1 94.8 68.6 93.8 68.6 C 93.1 68.6 92.5 68.9 92.1 69.3 C 92.1 69.3 91.8 68.7 91.8 68.7 C 92.3 68.3 93.1 68 93.9 68 C 95.3 68 96 68.7 96 70.1 Z M 95.3 71.7 C 95.31 71.73 95.3 70.9 95.3 70.9 C 95.3 70.9 93.66 70.87 93.7 70.9 C 92.6 70.9 92.3 71.3 92.3 71.8 C 92.3 72.4 92.8 72.8 93.6 72.8 C 94.4 72.8 95 72.4 95.3 71.7 Z M 100.6 73 C 100.3 73.2 99.9 73.4 99.5 73.4 C 98.5 73.4 97.9 72.8 97.9 71.8 C 97.92 71.83 97.9 68.7 97.9 68.7 L 97 68.7 L 97 68.1 L 97.9 68.1 L 97.9 66.9 L 98.6 66.9 L 98.6 68.1 L 100.2 68.1 L 100.2 68.7 L 98.6 68.7 C 98.6 68.7 98.63 71.79 98.6 71.8 C 98.6 72.4 98.9 72.8 99.5 72.8 C 99.8 72.8 100.1 72.7 100.3 72.5 C 100.3 72.5 100.6 73 100.6 73 Z M 107.2 73 C 107 73.2 106.5 73.4 106.1 73.4 C 105.1 73.4 104.6 72.8 104.6 71.8 C 104.6 71.83 104.6 68.7 104.6 68.7 L 103.7 68.7 L 103.7 68.1 L 104.6 68.1 L 104.6 66.9 L 105.3 66.9 L 105.3 68.1 L 106.9 68.1 L 106.9 68.7 L 105.3 68.7 C 105.3 68.7 105.31 71.79 105.3 71.8 C 105.3 72.4 105.6 72.8 106.2 72.8 C 106.5 72.8 106.8 72.7 107 72.5 C 107 72.5 107.2 73 107.2 73 Z M 113.3 70.3 C 113.27 70.26 113.3 73.3 113.3 73.3 L 112.6 73.3 C 112.6 73.3 112.56 70.33 112.6 70.3 C 112.6 69.2 112 68.7 111 68.7 C 109.9 68.7 109.1 69.4 109.1 70.6 C 109.14 70.55 109.1 73.3 109.1 73.3 L 108.4 73.3 L 108.4 65.9 L 109.1 65.9 C 109.1 65.9 109.14 68.97 109.1 69 C 109.5 68.4 110.2 68 111.1 68 C 112.4 68 113.3 68.8 113.3 70.3 Z M 119.8 70.9 C 119.8 70.9 115.4 70.9 115.4 70.9 C 115.4 72 116.3 72.7 117.4 72.7 C 118.1 72.7 118.6 72.5 119 72 C 119 72 119.4 72.5 119.4 72.5 C 119 73.1 118.2 73.4 117.4 73.4 C 115.8 73.4 114.7 72.2 114.7 70.7 C 114.7 69.1 115.7 68 117.2 68 C 118.7 68 119.8 69.1 119.8 70.7 C 119.8 70.7 119.8 70.8 119.8 70.9 Z M 115.4 70.4 C 115.4 70.4 119.1 70.4 119.1 70.4 C 119 69.3 118.3 68.6 117.2 68.6 C 116.2 68.6 115.5 69.3 115.4 70.4 Z M 126.5 68 C 126.5 68 126.5 68.7 126.5 68.7 C 126.4 68.7 126.4 68.7 126.3 68.7 C 125.2 68.7 124.6 69.4 124.6 70.6 C 124.56 70.63 124.6 73.3 124.6 73.3 L 123.8 73.3 L 123.8 68.1 L 124.5 68.1 C 124.5 68.1 124.53 69.08 124.5 69.1 C 124.9 68.4 125.5 68 126.5 68 Z M 132.5 68.1 L 132.5 73.3 L 131.8 73.3 C 131.8 73.3 131.81 72.35 131.8 72.4 C 131.4 73 130.8 73.4 129.9 73.4 C 128.6 73.4 127.7 72.6 127.7 71.1 C 127.7 71.1 127.7 68.1 127.7 68.1 L 128.4 68.1 C 128.4 68.1 128.4 71.03 128.4 71 C 128.4 72.2 129 72.7 130 72.7 C 131.1 72.7 131.8 72 131.8 70.8 C 131.78 70.81 131.8 68.1 131.8 68.1 L 132.5 68.1 Z M 134.3 65.9 L 135.1 65.9 L 135.1 73.3 L 134.3 73.3 L 134.3 65.9 Z M 141.6 70.9 C 141.6 70.9 137.2 70.9 137.2 70.9 C 137.3 72 138.1 72.7 139.3 72.7 C 139.9 72.7 140.5 72.5 140.9 72 C 140.9 72 141.3 72.5 141.3 72.5 C 140.8 73.1 140.1 73.4 139.2 73.4 C 137.6 73.4 136.5 72.2 136.5 70.7 C 136.5 69.1 137.6 68 139 68 C 140.5 68 141.6 69.1 141.6 70.7 C 141.6 70.7 141.6 70.8 141.6 70.9 Z M 137.2 70.4 C 137.2 70.4 140.9 70.4 140.9 70.4 C 140.8 69.3 140.1 68.6 139 68.6 C 138 68.6 137.3 69.3 137.2 70.4 Z M 142.4 72.7 C 142.4 72.7 142.7 72.2 142.7 72.2 C 143.1 72.5 143.8 72.7 144.6 72.7 C 145.6 72.7 146 72.4 146 71.9 C 146 70.5 142.6 71.6 142.6 69.5 C 142.6 68.7 143.3 68 144.7 68 C 145.3 68 146.1 68.2 146.5 68.5 C 146.5 68.5 146.2 69.1 146.2 69.1 C 145.8 68.8 145.2 68.6 144.7 68.6 C 143.7 68.6 143.3 69 143.3 69.5 C 143.3 70.9 146.7 69.8 146.7 71.9 C 146.7 72.8 145.9 73.4 144.5 73.4 C 143.7 73.4 142.8 73.1 142.4 72.7 Z M 155.5 70.3 C 155.47 70.26 155.5 73.3 155.5 73.3 L 154.8 73.3 C 154.8 73.3 154.76 70.33 154.8 70.3 C 154.8 69.2 154.2 68.7 153.2 68.7 C 152.1 68.7 151.3 69.4 151.3 70.6 C 151.34 70.55 151.3 73.3 151.3 73.3 L 150.6 73.3 L 150.6 68.1 L 151.3 68.1 C 151.3 68.1 151.31 69.02 151.3 69 C 151.7 68.4 152.4 68 153.3 68 C 154.6 68 155.5 68.8 155.5 70.3 Z M 156.9 70.7 C 156.9 69.1 158 68 159.5 68 C 161.1 68 162.2 69.1 162.2 70.7 C 162.2 72.2 161.1 73.4 159.5 73.4 C 158 73.4 156.9 72.2 156.9 70.7 Z M 161.5 70.7 C 161.5 69.5 160.7 68.6 159.5 68.6 C 158.4 68.6 157.6 69.5 157.6 70.7 C 157.6 71.9 158.4 72.7 159.5 72.7 C 160.7 72.7 161.5 71.9 161.5 70.7 Z M 166.3 65.9 L 167 65.9 L 167 73.3 L 166.3 73.3 L 166.3 65.9 Z M 168.4 70.7 C 168.4 69.1 169.5 68 171.1 68 C 172.6 68 173.8 69.1 173.8 70.7 C 173.8 72.2 172.6 73.4 171.1 73.4 C 169.5 73.4 168.4 72.2 168.4 70.7 Z M 173 70.7 C 173 69.5 172.2 68.6 171.1 68.6 C 170 68.6 169.1 69.5 169.1 70.7 C 169.1 71.9 170 72.7 171.1 72.7 C 172.2 72.7 173 71.9 173 70.7 Z M 180 70.3 C 180.02 70.26 180 73.3 180 73.3 L 179.3 73.3 C 179.3 73.3 179.31 70.33 179.3 70.3 C 179.3 69.2 178.7 68.7 177.7 68.7 C 176.6 68.7 175.9 69.4 175.9 70.6 C 175.89 70.55 175.9 73.3 175.9 73.3 L 175.2 73.3 L 175.2 68.1 L 175.9 68.1 C 175.9 68.1 175.86 69.02 175.9 69 C 176.2 68.4 177 68 177.9 68 C 179.1 68 180 68.8 180 70.3 Z M 186.8 68.1 C 186.8 68.1 186.79 72.67 186.8 72.7 C 186.8 74.5 185.9 75.3 184.2 75.3 C 183.2 75.3 182.3 75 181.7 74.5 C 181.7 74.5 182.1 74 182.1 74 C 182.6 74.4 183.3 74.7 184.1 74.7 C 185.5 74.7 186.1 74.1 186.1 72.8 C 186.1 72.8 186.1 72.1 186.1 72.1 C 185.6 72.8 184.9 73.1 184 73.1 C 182.5 73.1 181.4 72.1 181.4 70.6 C 181.4 69 182.5 68 184 68 C 184.9 68 185.7 68.4 186.1 69.1 C 186.11 69.06 186.1 68.1 186.1 68.1 L 186.8 68.1 Z M 186.1 70.6 C 186.1 69.4 185.3 68.6 184.1 68.6 C 182.9 68.6 182.1 69.4 182.1 70.6 C 182.1 71.7 182.9 72.5 184.1 72.5 C 185.3 72.5 186.1 71.7 186.1 70.6 Z M 193.3 70.9 C 193.3 70.9 188.9 70.9 188.9 70.9 C 189 72 189.9 72.7 191 72.7 C 191.7 72.7 192.2 72.5 192.6 72 C 192.6 72 193 72.5 193 72.5 C 192.6 73.1 191.8 73.4 191 73.4 C 189.4 73.4 188.2 72.2 188.2 70.7 C 188.2 69.1 189.3 68 190.8 68 C 192.3 68 193.4 69.1 193.4 70.7 C 193.4 70.7 193.3 70.8 193.3 70.9 Z M 188.9 70.4 C 188.9 70.4 192.7 70.4 192.7 70.4 C 192.6 69.3 191.8 68.6 190.8 68.6 C 189.8 68.6 189 69.3 188.9 70.4 Z M 197.4 68 C 197.4 68 197.4 68.7 197.4 68.7 C 197.3 68.7 197.3 68.7 197.2 68.7 C 196.1 68.7 195.5 69.4 195.5 70.6 C 195.47 70.63 195.5 73.3 195.5 73.3 L 194.8 73.3 L 194.8 68.1 L 195.4 68.1 C 195.4 68.1 195.44 69.08 195.4 69.1 C 195.8 68.4 196.4 68 197.4 68 Z M 205.4 70.1 C 205.36 70.05 205.4 73.3 205.4 73.3 L 204.7 73.3 C 204.7 73.3 204.68 72.49 204.7 72.5 C 204.4 73 203.7 73.4 202.9 73.4 C 201.7 73.4 200.9 72.7 200.9 71.8 C 200.9 71 201.5 70.3 203 70.3 C 202.98 70.34 204.6 70.3 204.6 70.3 C 204.6 70.3 204.65 70.02 204.6 70 C 204.6 69.1 204.1 68.6 203.2 68.6 C 202.5 68.6 201.8 68.9 201.4 69.3 C 201.4 69.3 201.1 68.7 201.1 68.7 C 201.6 68.3 202.4 68 203.2 68 C 204.6 68 205.4 68.7 205.4 70.1 Z M 204.6 71.7 C 204.65 71.73 204.6 70.9 204.6 70.9 C 204.6 70.9 203 70.87 203 70.9 C 202 70.9 201.6 71.3 201.6 71.8 C 201.6 72.4 202.1 72.8 203 72.8 C 203.8 72.8 204.4 72.4 204.6 71.7 Z M 212.5 70.7 C 212.5 72.3 211.4 73.4 209.9 73.4 C 209 73.4 208.3 73 207.9 72.3 C 207.88 72.32 207.9 75.3 207.9 75.3 L 207.2 75.3 L 207.2 68.1 L 207.9 68.1 C 207.9 68.1 207.85 69.09 207.9 69.1 C 208.3 68.4 209 68 209.9 68 C 211.4 68 212.5 69.1 212.5 70.7 Z M 211.8 70.7 C 211.8 69.5 210.9 68.6 209.8 68.6 C 208.7 68.6 207.9 69.5 207.9 70.7 C 207.9 71.9 208.7 72.7 209.8 72.7 C 210.9 72.7 211.8 71.9 211.8 70.7 Z M 219.3 70.7 C 219.3 72.3 218.2 73.4 216.7 73.4 C 215.8 73.4 215.1 73 214.7 72.3 C 214.65 72.32 214.7 75.3 214.7 75.3 L 213.9 75.3 L 213.9 68.1 L 214.6 68.1 C 214.6 68.1 214.62 69.09 214.6 69.1 C 215.1 68.4 215.8 68 216.7 68 C 218.2 68 219.3 69.1 219.3 70.7 Z M 218.6 70.7 C 218.6 69.5 217.7 68.6 216.6 68.6 C 215.5 68.6 214.6 69.5 214.6 70.7 C 214.6 71.9 215.5 72.7 216.6 72.7 C 217.7 72.7 218.6 71.9 218.6 70.7 Z M 220.7 65.9 L 221.4 65.9 L 221.4 73.3 L 220.7 73.3 L 220.7 65.9 Z M 227.9 68.1 C 227.9 68.1 225.24 73.94 225.2 73.9 C 224.8 75 224.2 75.3 223.5 75.3 C 223 75.3 222.5 75.1 222.2 74.8 C 222.2 74.8 222.5 74.3 222.5 74.3 C 222.8 74.6 223.1 74.7 223.5 74.7 C 224 74.7 224.3 74.5 224.6 73.8 C 224.59 73.81 224.8 73.3 224.8 73.3 L 222.5 68.1 L 223.2 68.1 L 225.2 72.5 L 227.2 68.1 L 227.9 68.1 Z " stroke="none" fill="#323132"/>
  </g>
  <g id="Polygon112647">
    <path d="M 20.4 70.7 L 16.2 72.8 L 16.2 68.5 L 20.4 70.7 Z " stroke="none" fill="#a243ff"/>
  </g>
  <g id="Polygon112646">
    <path d="M 34.8 52 C 34.5 52.2 34.1 52.4 33.6 52.4 C 32.7 52.4 32.1 51.8 32.1 50.8 C 32.11 50.83 32.1 47.7 32.1 47.7 L 31.2 47.7 L 31.2 47.1 L 32.1 47.1 L 32.1 45.9 L 32.8 45.9 L 32.8 47.1 L 34.4 47.1 L 34.4 47.7 L 32.8 47.7 C 32.8 47.7 32.82 50.79 32.8 50.8 C 32.8 51.4 33.1 51.8 33.7 51.8 C 34 51.8 34.3 51.7 34.5 51.5 C 34.5 51.5 34.8 52 34.8 52 Z M 40.8 49.3 C 40.79 49.26 40.8 52.3 40.8 52.3 L 40.1 52.3 C 40.1 52.3 40.08 49.33 40.1 49.3 C 40.1 48.2 39.5 47.7 38.5 47.7 C 37.4 47.7 36.7 48.4 36.7 49.6 C 36.66 49.55 36.7 52.3 36.7 52.3 L 35.9 52.3 L 35.9 44.9 L 36.7 44.9 C 36.7 44.9 36.66 47.97 36.7 48 C 37 47.4 37.7 47 38.6 47 C 39.9 47 40.8 47.8 40.8 49.3 Z M 47.3 49.9 C 47.3 49.9 42.9 49.9 42.9 49.9 C 43 51 43.8 51.7 45 51.7 C 45.6 51.7 46.2 51.5 46.6 51 C 46.6 51 47 51.5 47 51.5 C 46.5 52.1 45.8 52.4 44.9 52.4 C 43.3 52.4 42.2 51.2 42.2 49.7 C 42.2 48.1 43.3 47 44.7 47 C 46.2 47 47.3 48.1 47.3 49.7 C 47.3 49.7 47.3 49.8 47.3 49.9 Z M 42.9 49.4 C 42.9 49.4 46.6 49.4 46.6 49.4 C 46.5 48.3 45.8 47.6 44.7 47.6 C 43.7 47.6 43 48.3 42.9 49.4 Z M 56.7 49.7 C 56.7 51.3 55.6 52.4 54.1 52.4 C 53.2 52.4 52.5 52 52.1 51.3 C 52.07 51.32 52.1 54.3 52.1 54.3 L 51.4 54.3 L 51.4 47.1 L 52 47.1 C 52 47.1 52.04 48.09 52 48.1 C 52.5 47.4 53.2 47 54.1 47 C 55.6 47 56.7 48.1 56.7 49.7 Z M 56 49.7 C 56 48.5 55.1 47.6 54 47.6 C 52.9 47.6 52.1 48.5 52.1 49.7 C 52.1 50.9 52.9 51.7 54 51.7 C 55.1 51.7 56 50.9 56 49.7 Z M 62.8 49.9 C 62.8 49.9 58.4 49.9 58.4 49.9 C 58.5 51 59.3 51.7 60.5 51.7 C 61.1 51.7 61.7 51.5 62.1 51 C 62.1 51 62.5 51.5 62.5 51.5 C 62 52.1 61.3 52.4 60.5 52.4 C 58.8 52.4 57.7 51.2 57.7 49.7 C 57.7 48.1 58.8 47 60.3 47 C 61.7 47 62.8 48.1 62.8 49.7 C 62.8 49.7 62.8 49.8 62.8 49.9 Z M 58.4 49.4 C 58.4 49.4 62.1 49.4 62.1 49.4 C 62 48.3 61.3 47.6 60.3 47.6 C 59.2 47.6 58.5 48.3 58.4 49.4 Z M 66.9 47 C 66.9 47 66.9 47.7 66.9 47.7 C 66.8 47.7 66.8 47.7 66.7 47.7 C 65.6 47.7 64.9 48.4 64.9 49.6 C 64.93 49.63 64.9 52.3 64.9 52.3 L 64.2 52.3 L 64.2 47.1 L 64.9 47.1 C 64.9 47.1 64.9 48.08 64.9 48.1 C 65.2 47.4 65.9 47 66.9 47 Z M 67.5 49.7 C 67.5 48.1 68.6 47 70.2 47 C 71.1 47 71.8 47.4 72.3 48.1 C 72.3 48.1 71.7 48.4 71.7 48.4 C 71.4 47.9 70.8 47.6 70.2 47.6 C 69 47.6 68.2 48.5 68.2 49.7 C 68.2 50.9 69 51.7 70.2 51.7 C 70.8 51.7 71.4 51.5 71.7 51 C 71.7 51 72.3 51.3 72.3 51.3 C 71.8 52 71.1 52.4 70.2 52.4 C 68.6 52.4 67.5 51.3 67.5 49.7 Z M 78.2 49.9 C 78.2 49.9 73.8 49.9 73.8 49.9 C 73.9 51 74.7 51.7 75.8 51.7 C 76.5 51.7 77.1 51.5 77.5 51 C 77.5 51 77.9 51.5 77.9 51.5 C 77.4 52.1 76.7 52.4 75.8 52.4 C 74.2 52.4 73.1 51.2 73.1 49.7 C 73.1 48.1 74.2 47 75.6 47 C 77.1 47 78.2 48.1 78.2 49.7 C 78.2 49.7 78.2 49.8 78.2 49.9 Z M 73.8 49.4 C 73.8 49.4 77.5 49.4 77.5 49.4 C 77.4 48.3 76.7 47.6 75.6 47.6 C 74.6 47.6 73.9 48.3 73.8 49.4 Z M 84.9 49.7 C 84.9 51.3 83.8 52.4 82.3 52.4 C 81.5 52.4 80.7 52 80.3 51.3 C 80.3 51.32 80.3 54.3 80.3 54.3 L 79.6 54.3 L 79.6 47.1 L 80.3 47.1 C 80.3 47.1 80.27 48.09 80.3 48.1 C 80.7 47.4 81.4 47 82.3 47 C 83.8 47 84.9 48.1 84.9 49.7 Z M 84.2 49.7 C 84.2 48.5 83.4 47.6 82.3 47.6 C 81.1 47.6 80.3 48.5 80.3 49.7 C 80.3 50.9 81.1 51.7 82.3 51.7 C 83.4 51.7 84.2 50.9 84.2 49.7 Z M 89.1 52 C 88.8 52.2 88.4 52.4 88 52.4 C 87 52.4 86.4 51.8 86.4 50.8 C 86.43 50.83 86.4 47.7 86.4 47.7 L 85.5 47.7 L 85.5 47.1 L 86.4 47.1 L 86.4 45.9 L 87.1 45.9 L 87.1 47.1 L 88.7 47.1 L 88.7 47.7 L 87.1 47.7 C 87.1 47.7 87.14 50.79 87.1 50.8 C 87.1 51.4 87.5 51.8 88 51.8 C 88.3 51.8 88.6 51.7 88.8 51.5 C 88.8 51.5 89.1 52 89.1 52 Z M 90.1 45.4 C 90.1 45.1 90.3 44.9 90.6 44.9 C 90.9 44.9 91.1 45.1 91.1 45.4 C 91.1 45.7 90.9 45.9 90.6 45.9 C 90.3 45.9 90.1 45.7 90.1 45.4 Z M 90.3 47.1 L 91 47.1 L 91 52.3 L 90.3 52.3 L 90.3 47.1 Z M 92.4 49.7 C 92.4 48.1 93.5 47 95 47 C 96.6 47 97.7 48.1 97.7 49.7 C 97.7 51.2 96.6 52.4 95 52.4 C 93.5 52.4 92.4 51.2 92.4 49.7 Z M 97 49.7 C 97 48.5 96.2 47.6 95 47.6 C 93.9 47.6 93.1 48.5 93.1 49.7 C 93.1 50.9 93.9 51.7 95 51.7 C 96.2 51.7 97 50.9 97 49.7 Z M 104 49.3 C 103.99 49.26 104 52.3 104 52.3 L 103.3 52.3 C 103.3 52.3 103.28 49.33 103.3 49.3 C 103.3 48.2 102.7 47.7 101.7 47.7 C 100.6 47.7 99.9 48.4 99.9 49.6 C 99.86 49.55 99.9 52.3 99.9 52.3 L 99.1 52.3 L 99.1 47.1 L 99.8 47.1 C 99.8 47.1 99.83 48.02 99.8 48 C 100.2 47.4 100.9 47 101.8 47 C 103.1 47 104 47.8 104 49.3 Z M 111.3 52 C 111 52.2 110.6 52.4 110.2 52.4 C 109.2 52.4 108.7 51.8 108.7 50.8 C 108.66 50.83 108.7 47.7 108.7 47.7 L 107.7 47.7 L 107.7 47.1 L 108.7 47.1 L 108.7 45.9 L 109.4 45.9 L 109.4 47.1 L 111 47.1 L 111 47.7 L 109.4 47.7 C 109.4 47.7 109.37 50.79 109.4 50.8 C 109.4 51.4 109.7 51.8 110.3 51.8 C 110.6 51.8 110.9 51.7 111.1 51.5 C 111.1 51.5 111.3 52 111.3 52 Z M 117.3 49.3 C 117.33 49.26 117.3 52.3 117.3 52.3 L 116.6 52.3 C 116.6 52.3 116.62 49.33 116.6 49.3 C 116.6 48.2 116 47.7 115 47.7 C 113.9 47.7 113.2 48.4 113.2 49.6 C 113.2 49.55 113.2 52.3 113.2 52.3 L 112.5 52.3 L 112.5 44.9 L 113.2 44.9 C 113.2 44.9 113.2 47.97 113.2 48 C 113.6 47.4 114.3 47 115.2 47 C 116.5 47 117.3 47.8 117.3 49.3 Z M 123.2 49.1 C 123.15 49.05 123.2 52.3 123.2 52.3 L 122.5 52.3 C 122.5 52.3 122.47 51.49 122.5 51.5 C 122.2 52 121.5 52.4 120.7 52.4 C 119.5 52.4 118.7 51.7 118.7 50.8 C 118.7 50 119.3 49.3 120.8 49.3 C 120.77 49.34 122.4 49.3 122.4 49.3 C 122.4 49.3 122.44 49.02 122.4 49 C 122.4 48.1 121.9 47.6 121 47.6 C 120.3 47.6 119.6 47.9 119.2 48.3 C 119.2 48.3 118.9 47.7 118.9 47.7 C 119.4 47.3 120.2 47 121 47 C 122.4 47 123.2 47.7 123.2 49.1 Z M 122.4 50.7 C 122.44 50.73 122.4 49.9 122.4 49.9 C 122.4 49.9 120.79 49.87 120.8 49.9 C 119.8 49.9 119.4 50.3 119.4 50.8 C 119.4 51.4 119.9 51.8 120.8 51.8 C 121.6 51.8 122.2 51.4 122.4 50.7 Z M 127.7 52 C 127.4 52.2 127 52.4 126.6 52.4 C 125.6 52.4 125 51.8 125 50.8 C 125.05 50.83 125 47.7 125 47.7 L 124.1 47.7 L 124.1 47.1 L 125 47.1 L 125 45.9 L 125.8 45.9 L 125.8 47.1 L 127.4 47.1 L 127.4 47.7 L 125.8 47.7 C 125.8 47.7 125.76 50.79 125.8 50.8 C 125.8 51.4 126.1 51.8 126.7 51.8 C 127 51.8 127.2 51.7 127.4 51.5 C 127.4 51.5 127.7 52 127.7 52 Z M 134.4 52 C 134.1 52.2 133.7 52.4 133.3 52.4 C 132.3 52.4 131.7 51.8 131.7 50.8 C 131.73 50.83 131.7 47.7 131.7 47.7 L 130.8 47.7 L 130.8 47.1 L 131.7 47.1 L 131.7 45.9 L 132.4 45.9 L 132.4 47.1 L 134 47.1 L 134 47.7 L 132.4 47.7 C 132.4 47.7 132.44 50.79 132.4 50.8 C 132.4 51.4 132.8 51.8 133.3 51.8 C 133.6 51.8 133.9 51.7 134.1 51.5 C 134.1 51.5 134.4 52 134.4 52 Z M 140.4 49.3 C 140.41 49.26 140.4 52.3 140.4 52.3 L 139.7 52.3 C 139.7 52.3 139.7 49.33 139.7 49.3 C 139.7 48.2 139.1 47.7 138.1 47.7 C 137 47.7 136.3 48.4 136.3 49.6 C 136.28 49.55 136.3 52.3 136.3 52.3 L 135.6 52.3 L 135.6 44.9 L 136.3 44.9 C 136.3 44.9 136.28 47.97 136.3 48 C 136.7 47.4 137.4 47 138.2 47 C 139.5 47 140.4 47.8 140.4 49.3 Z M 146.9 49.9 C 146.9 49.9 142.5 49.9 142.5 49.9 C 142.6 51 143.4 51.7 144.6 51.7 C 145.2 51.7 145.8 51.5 146.2 51 C 146.2 51 146.6 51.5 146.6 51.5 C 146.1 52.1 145.4 52.4 144.5 52.4 C 142.9 52.4 141.8 51.2 141.8 49.7 C 141.8 48.1 142.9 47 144.4 47 C 145.8 47 146.9 48.1 146.9 49.7 C 146.9 49.7 146.9 49.8 146.9 49.9 Z M 142.5 49.4 C 142.5 49.4 146.2 49.4 146.2 49.4 C 146.1 48.3 145.4 47.6 144.4 47.6 C 143.3 47.6 142.6 48.3 142.5 49.4 Z M 153.6 47 C 153.6 47 153.6 47.7 153.6 47.7 C 153.6 47.7 153.5 47.7 153.5 47.7 C 152.4 47.7 151.7 48.4 151.7 49.6 C 151.69 49.63 151.7 52.3 151.7 52.3 L 151 52.3 L 151 47.1 L 151.7 47.1 C 151.7 47.1 151.66 48.08 151.7 48.1 C 152 47.4 152.7 47 153.6 47 Z M 159.6 47.1 L 159.6 52.3 L 158.9 52.3 C 158.9 52.3 158.94 51.35 158.9 51.4 C 158.6 52 157.9 52.4 157 52.4 C 155.7 52.4 154.8 51.6 154.8 50.1 C 154.83 50.1 154.8 47.1 154.8 47.1 L 155.5 47.1 C 155.5 47.1 155.54 50.03 155.5 50 C 155.5 51.2 156.1 51.7 157.1 51.7 C 158.2 51.7 158.9 51 158.9 49.8 C 158.91 49.81 158.9 47.1 158.9 47.1 L 159.6 47.1 Z M 161.5 44.9 L 162.2 44.9 L 162.2 52.3 L 161.5 52.3 L 161.5 44.9 Z M 168.7 49.9 C 168.7 49.9 164.3 49.9 164.3 49.9 C 164.4 51 165.2 51.7 166.4 51.7 C 167 51.7 167.6 51.5 168 51 C 168 51 168.4 51.5 168.4 51.5 C 167.9 52.1 167.2 52.4 166.4 52.4 C 164.7 52.4 163.6 51.2 163.6 49.7 C 163.6 48.1 164.7 47 166.2 47 C 167.7 47 168.7 48.1 168.7 49.7 C 168.7 49.7 168.7 49.8 168.7 49.9 Z M 164.3 49.4 C 164.3 49.4 168.1 49.4 168.1 49.4 C 168 48.3 167.2 47.6 166.2 47.6 C 165.2 47.6 164.4 48.3 164.3 49.4 Z M 169.5 51.7 C 169.5 51.7 169.8 51.2 169.8 51.2 C 170.3 51.5 171 51.7 171.7 51.7 C 172.7 51.7 173.1 51.4 173.1 50.9 C 173.1 49.5 169.7 50.6 169.7 48.5 C 169.7 47.7 170.5 47 171.8 47 C 172.5 47 173.2 47.2 173.7 47.5 C 173.7 47.5 173.3 48.1 173.3 48.1 C 172.9 47.8 172.3 47.6 171.8 47.6 C 170.8 47.6 170.4 48 170.4 48.5 C 170.4 49.9 173.8 48.8 173.8 50.9 C 173.8 51.8 173 52.4 171.7 52.4 C 170.8 52.4 170 52.1 169.5 51.7 Z M 181.7 49.1 C 181.73 49.05 181.7 52.3 181.7 52.3 L 181.1 52.3 C 181.1 52.3 181.05 51.49 181.1 51.5 C 180.7 52 180.1 52.4 179.2 52.4 C 178.1 52.4 177.3 51.7 177.3 50.8 C 177.3 50 177.8 49.3 179.4 49.3 C 179.35 49.34 181 49.3 181 49.3 C 181 49.3 181.02 49.02 181 49 C 181 48.1 180.5 47.6 179.5 47.6 C 178.9 47.6 178.2 47.9 177.8 48.3 C 177.8 48.3 177.5 47.7 177.5 47.7 C 178 47.3 178.8 47 179.6 47 C 181 47 181.7 47.7 181.7 49.1 Z M 181 50.7 C 181.02 50.73 181 49.9 181 49.9 C 181 49.9 179.37 49.87 179.4 49.9 C 178.4 49.9 178 50.3 178 50.8 C 178 51.4 178.5 51.8 179.4 51.8 C 180.2 51.8 180.7 51.4 181 50.7 Z M 186.2 47 C 186.2 47 186.2 47.7 186.2 47.7 C 186.1 47.7 186.1 47.7 186 47.7 C 184.9 47.7 184.3 48.4 184.3 49.6 C 184.26 49.63 184.3 52.3 184.3 52.3 L 183.5 52.3 L 183.5 47.1 L 184.2 47.1 C 184.2 47.1 184.23 48.08 184.2 48.1 C 184.6 47.4 185.2 47 186.2 47 Z M 191.9 49.9 C 191.9 49.9 187.5 49.9 187.5 49.9 C 187.6 51 188.5 51.7 189.6 51.7 C 190.2 51.7 190.8 51.5 191.2 51 C 191.2 51 191.6 51.5 191.6 51.5 C 191.1 52.1 190.4 52.4 189.6 52.4 C 187.9 52.4 186.8 51.2 186.8 49.7 C 186.8 48.1 187.9 47 189.4 47 C 190.9 47 191.9 48.1 191.9 49.7 C 191.9 49.7 191.9 49.8 191.9 49.9 Z M 187.5 49.4 C 187.5 49.4 191.3 49.4 191.3 49.4 C 191.2 48.3 190.4 47.6 189.4 47.6 C 188.4 47.6 187.6 48.3 187.5 49.4 Z M 198.8 52 C 198.5 52.2 198.1 52.4 197.7 52.4 C 196.7 52.4 196.1 51.8 196.1 50.8 C 196.14 50.83 196.1 47.7 196.1 47.7 L 195.2 47.7 L 195.2 47.1 L 196.1 47.1 L 196.1 45.9 L 196.8 45.9 L 196.8 47.1 L 198.4 47.1 L 198.4 47.7 L 196.8 47.7 C 196.8 47.7 196.85 50.79 196.8 50.8 C 196.8 51.4 197.2 51.8 197.8 51.8 C 198 51.8 198.3 51.7 198.5 51.5 C 198.5 51.5 198.8 52 198.8 52 Z M 199.3 49.7 C 199.3 48.1 200.5 47 202 47 C 203.6 47 204.7 48.1 204.7 49.7 C 204.7 51.2 203.6 52.4 202 52.4 C 200.5 52.4 199.3 51.2 199.3 49.7 Z M 204 49.7 C 204 48.5 203.1 47.6 202 47.6 C 200.9 47.6 200.1 48.5 200.1 49.7 C 200.1 50.9 200.9 51.7 202 51.7 C 203.1 51.7 204 50.9 204 49.7 Z M 205.7 49.7 C 205.7 48.1 206.8 47 208.4 47 C 209.9 47 211 48.1 211 49.7 C 211 51.2 209.9 52.4 208.4 52.4 C 206.8 52.4 205.7 51.2 205.7 49.7 Z M 210.3 49.7 C 210.3 48.5 209.5 47.6 208.4 47.6 C 207.3 47.6 206.4 48.5 206.4 49.7 C 206.4 50.9 207.3 51.7 208.4 51.7 C 209.5 51.7 210.3 50.9 210.3 49.7 Z M 217.8 47 C 217.8 47 217.8 47.7 217.8 47.7 C 217.7 47.7 217.6 47.7 217.6 47.7 C 216.5 47.7 215.8 48.4 215.8 49.6 C 215.83 49.63 215.8 52.3 215.8 52.3 L 215.1 52.3 L 215.1 47.1 L 215.8 47.1 C 215.8 47.1 215.8 48.08 215.8 48.1 C 216.1 47.4 216.8 47 217.8 47 Z M 223.5 49.9 C 223.5 49.9 219.1 49.9 219.1 49.9 C 219.2 51 220 51.7 221.2 51.7 C 221.8 51.7 222.4 51.5 222.8 51 C 222.8 51 223.2 51.5 223.2 51.5 C 222.7 52.1 222 52.4 221.2 52.4 C 219.5 52.4 218.4 51.2 218.4 49.7 C 218.4 48.1 219.5 47 221 47 C 222.4 47 223.5 48.1 223.5 49.7 C 223.5 49.7 223.5 49.8 223.5 49.9 Z M 219.1 49.4 C 219.1 49.4 222.8 49.4 222.8 49.4 C 222.7 48.3 222 47.6 221 47.6 C 219.9 47.6 219.2 48.3 219.1 49.4 Z M 224.3 51.7 C 224.3 51.7 224.6 51.2 224.6 51.2 C 225.1 51.5 225.8 51.7 226.5 51.7 C 227.5 51.7 227.9 51.4 227.9 50.9 C 227.9 49.5 224.5 50.6 224.5 48.5 C 224.5 47.7 225.2 47 226.6 47 C 227.3 47 228 47.2 228.4 47.5 C 228.4 47.5 228.1 48.1 228.1 48.1 C 227.7 47.8 227.1 47.6 226.6 47.6 C 225.6 47.6 225.2 48 225.2 48.5 C 225.2 49.9 228.6 48.8 228.6 50.9 C 228.6 51.8 227.8 52.4 226.5 52.4 C 225.6 52.4 224.7 52.1 224.3 51.7 Z M 232.9 52 C 232.6 52.2 232.2 52.4 231.8 52.4 C 230.8 52.4 230.3 51.8 230.3 50.8 C 230.26 50.83 230.3 47.7 230.3 47.7 L 229.3 47.7 L 229.3 47.1 L 230.3 47.1 L 230.3 45.9 L 231 45.9 L 231 47.1 L 232.6 47.1 L 232.6 47.7 L 231 47.7 C 231 47.7 230.96 50.79 231 50.8 C 231 51.4 231.3 51.8 231.9 51.8 C 232.2 51.8 232.5 51.7 232.7 51.5 C 232.7 51.5 232.9 52 232.9 52 Z M 236.7 47 C 236.7 47 236.7 47.7 236.7 47.7 C 236.7 47.7 236.6 47.7 236.6 47.7 C 235.5 47.7 234.8 48.4 234.8 49.6 C 234.8 49.63 234.8 52.3 234.8 52.3 L 234.1 52.3 L 234.1 47.1 L 234.8 47.1 C 234.8 47.1 234.77 48.08 234.8 48.1 C 235.1 47.4 235.8 47 236.7 47 Z M 237.8 45.4 C 237.8 45.1 238 44.9 238.3 44.9 C 238.6 44.9 238.8 45.1 238.8 45.4 C 238.8 45.7 238.6 45.9 238.3 45.9 C 238 45.9 237.8 45.7 237.8 45.4 Z M 238 47.1 L 238.7 47.1 L 238.7 52.3 L 238 52.3 L 238 47.1 Z M 240.1 49.7 C 240.1 48.1 241.2 47 242.8 47 C 243.7 47 244.4 47.4 244.8 48.1 C 244.8 48.1 244.3 48.4 244.3 48.4 C 244 47.9 243.4 47.6 242.8 47.6 C 241.6 47.6 240.8 48.5 240.8 49.7 C 240.8 50.9 241.6 51.7 242.8 51.7 C 243.4 51.7 244 51.5 244.3 51 C 244.3 51 244.8 51.3 244.8 51.3 C 244.4 52 243.7 52.4 242.8 52.4 C 241.2 52.4 240.1 51.3 240.1 49.7 Z M 249.2 52 C 248.9 52.2 248.5 52.4 248.1 52.4 C 247.1 52.4 246.5 51.8 246.5 50.8 C 246.54 50.83 246.5 47.7 246.5 47.7 L 245.6 47.7 L 245.6 47.1 L 246.5 47.1 L 246.5 45.9 L 247.2 45.9 L 247.2 47.1 L 248.8 47.1 L 248.8 47.7 L 247.2 47.7 C 247.2 47.7 247.24 50.79 247.2 50.8 C 247.2 51.4 247.6 51.8 248.2 51.8 C 248.4 51.8 248.7 51.7 248.9 51.5 C 248.9 51.5 249.2 52 249.2 52 Z M 250.2 45.4 C 250.2 45.1 250.4 44.9 250.7 44.9 C 251 44.9 251.3 45.1 251.3 45.4 C 251.3 45.7 251 45.9 250.7 45.9 C 250.4 45.9 250.2 45.7 250.2 45.4 Z M 250.4 47.1 L 251.1 47.1 L 251.1 52.3 L 250.4 52.3 L 250.4 47.1 Z M 257.5 47.1 L 255.2 52.3 L 254.4 52.3 L 252.1 47.1 L 252.9 47.1 L 254.8 51.5 L 256.8 47.1 L 257.5 47.1 Z M 263 49.9 C 263 49.9 258.6 49.9 258.6 49.9 C 258.7 51 259.5 51.7 260.7 51.7 C 261.3 51.7 261.9 51.5 262.3 51 C 262.3 51 262.7 51.5 262.7 51.5 C 262.2 52.1 261.5 52.4 260.7 52.4 C 259 52.4 257.9 51.2 257.9 49.7 C 257.9 48.1 259 47 260.5 47 C 262 47 263 48.1 263 49.7 C 263 49.7 263 49.8 263 49.9 Z M 258.6 49.4 C 258.6 49.4 262.3 49.4 262.3 49.4 C 262.3 48.3 261.5 47.6 260.5 47.6 C 259.5 47.6 258.7 48.3 258.6 49.4 Z " stroke="none" fill="#323132"/>
  </g>
  <g id="Polygon112645">
    <path d="M 20.4 49.7 L 16.2 51.8 L 16.2 47.5 L 20.4 49.7 Z " stroke="none" fill="#a243ff"/>
  </g>
  <g id="Polygon112644">
    <path d="M 34.8 31 C 34.5 31.2 34.1 31.4 33.6 31.4 C 32.7 31.4 32.1 30.8 32.1 29.8 C 32.11 29.83 32.1 26.7 32.1 26.7 L 31.2 26.7 L 31.2 26.1 L 32.1 26.1 L 32.1 24.9 L 32.8 24.9 L 32.8 26.1 L 34.4 26.1 L 34.4 26.7 L 32.8 26.7 C 32.8 26.7 32.82 29.79 32.8 29.8 C 32.8 30.4 33.1 30.8 33.7 30.8 C 34 30.8 34.3 30.7 34.5 30.5 C 34.5 30.5 34.8 31 34.8 31 Z M 40.8 28.3 C 40.79 28.26 40.8 31.3 40.8 31.3 L 40.1 31.3 C 40.1 31.3 40.08 28.33 40.1 28.3 C 40.1 27.2 39.5 26.7 38.5 26.7 C 37.4 26.7 36.7 27.4 36.7 28.6 C 36.66 28.55 36.7 31.3 36.7 31.3 L 35.9 31.3 L 35.9 23.9 L 36.7 23.9 C 36.7 23.9 36.66 26.97 36.7 27 C 37 26.4 37.7 26 38.6 26 C 39.9 26 40.8 26.8 40.8 28.3 Z M 47.3 28.9 C 47.3 28.9 42.9 28.9 42.9 28.9 C 43 30 43.8 30.7 45 30.7 C 45.6 30.7 46.2 30.5 46.6 30 C 46.6 30 47 30.5 47 30.5 C 46.5 31.1 45.8 31.4 44.9 31.4 C 43.3 31.4 42.2 30.2 42.2 28.7 C 42.2 27.1 43.3 26 44.7 26 C 46.2 26 47.3 27.1 47.3 28.7 C 47.3 28.7 47.3 28.8 47.3 28.9 Z M 42.9 28.4 C 42.9 28.4 46.6 28.4 46.6 28.4 C 46.5 27.3 45.8 26.6 44.7 26.6 C 43.7 26.6 43 27.3 42.9 28.4 Z M 56.2 23.9 L 56.2 31.3 L 55.5 31.3 C 55.5 31.3 55.48 30.27 55.5 30.3 C 55.1 31 54.3 31.4 53.5 31.4 C 52 31.4 50.8 30.3 50.8 28.7 C 50.8 27.1 52 26 53.5 26 C 54.3 26 55 26.4 55.5 27.1 C 55.45 27.05 55.5 23.9 55.5 23.9 L 56.2 23.9 Z M 55.5 28.7 C 55.5 27.5 54.6 26.6 53.5 26.6 C 52.4 26.6 51.5 27.5 51.5 28.7 C 51.5 29.9 52.4 30.7 53.5 30.7 C 54.6 30.7 55.5 29.9 55.5 28.7 Z M 62.7 28.9 C 62.7 28.9 58.3 28.9 58.3 28.9 C 58.4 30 59.2 30.7 60.4 30.7 C 61 30.7 61.6 30.5 62 30 C 62 30 62.4 30.5 62.4 30.5 C 61.9 31.1 61.2 31.4 60.4 31.4 C 58.7 31.4 57.6 30.2 57.6 28.7 C 57.6 27.1 58.7 26 60.2 26 C 61.7 26 62.7 27.1 62.7 28.7 C 62.7 28.7 62.7 28.8 62.7 28.9 Z M 58.3 28.4 C 58.3 28.4 62 28.4 62 28.4 C 62 27.3 61.2 26.6 60.2 26.6 C 59.2 26.6 58.4 27.3 58.3 28.4 Z M 63.5 30.7 C 63.5 30.7 63.8 30.2 63.8 30.2 C 64.3 30.5 65 30.7 65.7 30.7 C 66.7 30.7 67.1 30.4 67.1 29.9 C 67.1 28.5 63.7 29.6 63.7 27.5 C 63.7 26.7 64.4 26 65.8 26 C 66.5 26 67.2 26.2 67.6 26.5 C 67.6 26.5 67.3 27.1 67.3 27.1 C 66.9 26.8 66.3 26.6 65.8 26.6 C 64.8 26.6 64.4 27 64.4 27.5 C 64.4 28.9 67.8 27.8 67.8 29.9 C 67.8 30.8 67 31.4 65.7 31.4 C 64.8 31.4 63.9 31.1 63.5 30.7 Z M 69 24.4 C 69 24.1 69.2 23.9 69.5 23.9 C 69.8 23.9 70 24.1 70 24.4 C 70 24.7 69.8 24.9 69.5 24.9 C 69.2 24.9 69 24.7 69 24.4 Z M 69.1 26.1 L 69.8 26.1 L 69.8 31.3 L 69.1 31.3 L 69.1 26.1 Z M 74.3 26 C 74.3 26 74.3 26.7 74.3 26.7 C 74.3 26.7 74.2 26.7 74.2 26.7 C 73.1 26.7 72.4 27.4 72.4 28.6 C 72.39 28.63 72.4 31.3 72.4 31.3 L 71.7 31.3 L 71.7 26.1 L 72.4 26.1 C 72.4 26.1 72.36 27.08 72.4 27.1 C 72.7 26.4 73.4 26 74.3 26 Z M 80.1 28.9 C 80.1 28.9 75.7 28.9 75.7 28.9 C 75.8 30 76.6 30.7 77.7 30.7 C 78.4 30.7 79 30.5 79.4 30 C 79.4 30 79.8 30.5 79.8 30.5 C 79.3 31.1 78.6 31.4 77.7 31.4 C 76.1 31.4 75 30.2 75 28.7 C 75 27.1 76.1 26 77.5 26 C 79 26 80.1 27.1 80.1 28.7 C 80.1 28.7 80.1 28.8 80.1 28.9 Z M 75.7 28.4 C 75.7 28.4 79.4 28.4 79.4 28.4 C 79.3 27.3 78.6 26.6 77.5 26.6 C 76.5 26.6 75.8 27.3 75.7 28.4 Z M 86.9 31 C 86.6 31.2 86.2 31.4 85.8 31.4 C 84.8 31.4 84.3 30.8 84.3 29.8 C 84.28 29.83 84.3 26.7 84.3 26.7 L 83.3 26.7 L 83.3 26.1 L 84.3 26.1 L 84.3 24.9 L 85 24.9 L 85 26.1 L 86.6 26.1 L 86.6 26.7 L 85 26.7 C 85 26.7 84.99 29.79 85 29.8 C 85 30.4 85.3 30.8 85.9 30.8 C 86.2 30.8 86.5 30.7 86.7 30.5 C 86.7 30.5 86.9 31 86.9 31 Z M 87.5 28.7 C 87.5 27.1 88.6 26 90.2 26 C 91.7 26 92.8 27.1 92.8 28.7 C 92.8 30.2 91.7 31.4 90.2 31.4 C 88.6 31.4 87.5 30.2 87.5 28.7 Z M 92.1 28.7 C 92.1 27.5 91.3 26.6 90.2 26.6 C 89 26.6 88.2 27.5 88.2 28.7 C 88.2 29.9 89 30.7 90.2 30.7 C 91.3 30.7 92.1 29.9 92.1 28.7 Z M 96.4 28.7 C 96.4 27.1 97.5 26 99.1 26 C 100 26 100.7 26.4 101.1 27.1 C 101.1 27.1 100.6 27.4 100.6 27.4 C 100.2 26.9 99.7 26.6 99.1 26.6 C 97.9 26.6 97.1 27.5 97.1 28.7 C 97.1 29.9 97.9 30.7 99.1 30.7 C 99.7 30.7 100.2 30.5 100.6 30 C 100.6 30 101.1 30.3 101.1 30.3 C 100.7 31 100 31.4 99.1 31.4 C 97.5 31.4 96.4 30.3 96.4 28.7 Z M 107.1 26.1 L 107.1 31.3 L 106.5 31.3 C 106.5 31.3 106.47 30.35 106.5 30.4 C 106.1 31 105.4 31.4 104.6 31.4 C 103.2 31.4 102.4 30.6 102.4 29.1 C 102.36 29.1 102.4 26.1 102.4 26.1 L 103.1 26.1 C 103.1 26.1 103.07 29.03 103.1 29 C 103.1 30.2 103.6 30.7 104.6 30.7 C 105.7 30.7 106.4 30 106.4 28.8 C 106.44 28.81 106.4 26.1 106.4 26.1 L 107.1 26.1 Z M 111.9 31 C 111.6 31.2 111.2 31.4 110.8 31.4 C 109.8 31.4 109.2 30.8 109.2 29.8 C 109.22 29.83 109.2 26.7 109.2 26.7 L 108.3 26.7 L 108.3 26.1 L 109.2 26.1 L 109.2 24.9 L 109.9 24.9 L 109.9 26.1 L 111.5 26.1 L 111.5 26.7 L 109.9 26.7 C 109.9 26.7 109.93 29.79 109.9 29.8 C 109.9 30.4 110.3 30.8 110.8 30.8 C 111.1 30.8 111.4 30.7 111.6 30.5 C 111.6 30.5 111.9 31 111.9 31 Z M 115.3 28.7 C 115.3 27.1 116.4 26 118 26 C 118.9 26 119.6 26.4 120 27.1 C 120 27.1 119.5 27.4 119.5 27.4 C 119.1 26.9 118.6 26.6 118 26.6 C 116.8 26.6 116 27.5 116 28.7 C 116 29.9 116.8 30.7 118 30.7 C 118.6 30.7 119.1 30.5 119.5 30 C 119.5 30 120 30.3 120 30.3 C 119.6 31 118.9 31.4 118 31.4 C 116.4 31.4 115.3 30.3 115.3 28.7 Z M 120.8 28.7 C 120.8 27.1 121.9 26 123.5 26 C 125 26 126.2 27.1 126.2 28.7 C 126.2 30.2 125 31.4 123.5 31.4 C 121.9 31.4 120.8 30.2 120.8 28.7 Z M 125.4 28.7 C 125.4 27.5 124.6 26.6 123.5 26.6 C 122.4 26.6 121.5 27.5 121.5 28.7 C 121.5 29.9 122.4 30.7 123.5 30.7 C 124.6 30.7 125.4 29.9 125.4 28.7 Z M 130.2 26 C 130.2 26 130.2 26.7 130.2 26.7 C 130.2 26.7 130.1 26.7 130.1 26.7 C 129 26.7 128.3 27.4 128.3 28.6 C 128.29 28.63 128.3 31.3 128.3 31.3 L 127.6 31.3 L 127.6 26.1 L 128.3 26.1 C 128.3 26.1 128.26 27.08 128.3 27.1 C 128.6 26.4 129.3 26 130.2 26 Z M 136.3 28.3 C 136.3 28.26 136.3 31.3 136.3 31.3 L 135.6 31.3 C 135.6 31.3 135.59 28.33 135.6 28.3 C 135.6 27.2 135 26.7 134 26.7 C 132.9 26.7 132.2 27.4 132.2 28.6 C 132.17 28.55 132.2 31.3 132.2 31.3 L 131.5 31.3 L 131.5 26.1 L 132.1 26.1 C 132.1 26.1 132.14 27.02 132.1 27 C 132.5 26.4 133.2 26 134.1 26 C 135.4 26 136.3 26.8 136.3 28.3 Z M 142.8 28.9 C 142.8 28.9 138.4 28.9 138.4 28.9 C 138.5 30 139.3 30.7 140.5 30.7 C 141.1 30.7 141.7 30.5 142.1 30 C 142.1 30 142.5 30.5 142.5 30.5 C 142 31.1 141.3 31.4 140.4 31.4 C 138.8 31.4 137.7 30.2 137.7 28.7 C 137.7 27.1 138.8 26 140.3 26 C 141.7 26 142.8 27.1 142.8 28.7 C 142.8 28.7 142.8 28.8 142.8 28.9 Z M 138.4 28.4 C 138.4 28.4 142.1 28.4 142.1 28.4 C 142 27.3 141.3 26.6 140.3 26.6 C 139.2 26.6 138.5 27.3 138.4 28.4 Z M 146.9 26 C 146.9 26 146.9 26.7 146.9 26.7 C 146.8 26.7 146.7 26.7 146.7 26.7 C 145.6 26.7 144.9 27.4 144.9 28.6 C 144.91 28.63 144.9 31.3 144.9 31.3 L 144.2 31.3 L 144.2 26.1 L 144.9 26.1 C 144.9 26.1 144.88 27.08 144.9 27.1 C 145.2 26.4 145.9 26 146.9 26 Z M 147.5 30.7 C 147.5 30.7 147.8 30.2 147.8 30.2 C 148.3 30.5 149 30.7 149.7 30.7 C 150.7 30.7 151.1 30.4 151.1 29.9 C 151.1 28.5 147.7 29.6 147.7 27.5 C 147.7 26.7 148.5 26 149.8 26 C 150.5 26 151.2 26.2 151.7 26.5 C 151.7 26.5 151.3 27.1 151.3 27.1 C 150.9 26.8 150.3 26.6 149.8 26.6 C 148.8 26.6 148.4 27 148.4 27.5 C 148.4 28.9 151.8 27.8 151.8 29.9 C 151.8 30.8 151 31.4 149.7 31.4 C 148.8 31.4 148 31.1 147.5 30.7 Z M 158.5 31 C 158.3 31.2 157.8 31.4 157.4 31.4 C 156.4 31.4 155.9 30.8 155.9 29.8 C 155.89 29.83 155.9 26.7 155.9 26.7 L 154.9 26.7 L 154.9 26.1 L 155.9 26.1 L 155.9 24.9 L 156.6 24.9 L 156.6 26.1 L 158.2 26.1 L 158.2 26.7 L 156.6 26.7 C 156.6 26.7 156.6 29.79 156.6 29.8 C 156.6 30.4 156.9 30.8 157.5 30.8 C 157.8 30.8 158.1 30.7 158.3 30.5 C 158.3 30.5 158.5 31 158.5 31 Z M 159.1 28.7 C 159.1 27.1 160.2 26 161.8 26 C 163.3 26 164.4 27.1 164.4 28.7 C 164.4 30.2 163.3 31.4 161.8 31.4 C 160.2 31.4 159.1 30.2 159.1 28.7 Z M 163.7 28.7 C 163.7 27.5 162.9 26.6 161.8 26.6 C 160.6 26.6 159.8 27.5 159.8 28.7 C 159.8 29.9 160.6 30.7 161.8 30.7 C 162.9 30.7 163.7 29.9 163.7 28.7 Z M 167.8 30.7 C 167.8 30.7 168.1 30.2 168.1 30.2 C 168.5 30.5 169.2 30.7 170 30.7 C 171 30.7 171.4 30.4 171.4 29.9 C 171.4 28.5 168 29.6 168 27.5 C 168 26.7 168.7 26 170 26 C 170.7 26 171.5 26.2 171.9 26.5 C 171.9 26.5 171.6 27.1 171.6 27.1 C 171.1 26.8 170.6 26.6 170 26.6 C 169.1 26.6 168.7 27 168.7 27.5 C 168.7 28.9 172.1 27.8 172.1 29.9 C 172.1 30.8 171.3 31.4 169.9 31.4 C 169 31.4 168.2 31.1 167.8 30.7 Z M 177.5 28.1 C 177.47 28.05 177.5 31.3 177.5 31.3 L 176.8 31.3 C 176.8 31.3 176.8 30.49 176.8 30.5 C 176.5 31 175.9 31.4 175 31.4 C 173.8 31.4 173.1 30.7 173.1 29.8 C 173.1 29 173.6 28.3 175.1 28.3 C 175.09 28.34 176.8 28.3 176.8 28.3 C 176.8 28.3 176.77 28.02 176.8 28 C 176.8 27.1 176.3 26.6 175.3 26.6 C 174.6 26.6 174 26.9 173.5 27.3 C 173.5 27.3 173.2 26.7 173.2 26.7 C 173.7 26.3 174.5 26 175.3 26 C 176.7 26 177.5 26.7 177.5 28.1 Z M 176.8 29.7 C 176.77 29.73 176.8 28.9 176.8 28.9 C 176.8 28.9 175.11 28.87 175.1 28.9 C 174.1 28.9 173.8 29.3 173.8 29.8 C 173.8 30.4 174.3 30.8 175.1 30.8 C 175.9 30.8 176.5 30.4 176.8 29.7 Z M 183.6 26.1 L 181.3 31.3 L 180.6 31.3 L 178.2 26.1 L 179 26.1 L 180.9 30.5 L 182.9 26.1 L 183.6 26.1 Z M 189.1 28.9 C 189.1 28.9 184.7 28.9 184.7 28.9 C 184.8 30 185.7 30.7 186.8 30.7 C 187.4 30.7 188 30.5 188.4 30 C 188.4 30 188.8 30.5 188.8 30.5 C 188.3 31.1 187.6 31.4 186.8 31.4 C 185.1 31.4 184 30.2 184 28.7 C 184 27.1 185.1 26 186.6 26 C 188.1 26 189.1 27.1 189.1 28.7 C 189.1 28.7 189.1 28.8 189.1 28.9 Z M 184.7 28.4 C 184.7 28.4 188.5 28.4 188.5 28.4 C 188.4 27.3 187.6 26.6 186.6 26.6 C 185.6 26.6 184.8 27.3 184.7 28.4 Z M 196 31 C 195.7 31.2 195.3 31.4 194.9 31.4 C 193.9 31.4 193.3 30.8 193.3 29.8 C 193.33 29.83 193.3 26.7 193.3 26.7 L 192.4 26.7 L 192.4 26.1 L 193.3 26.1 L 193.3 24.9 L 194 24.9 L 194 26.1 L 195.6 26.1 L 195.6 26.7 L 194 26.7 C 194 26.7 194.04 29.79 194 29.8 C 194 30.4 194.4 30.8 195 30.8 C 195.2 30.8 195.5 30.7 195.7 30.5 C 195.7 30.5 196 31 196 31 Z M 197 24.4 C 197 24.1 197.2 23.9 197.5 23.9 C 197.8 23.9 198 24.1 198 24.4 C 198 24.7 197.8 24.9 197.5 24.9 C 197.2 24.9 197 24.7 197 24.4 Z M 197.2 26.1 L 197.9 26.1 L 197.9 31.3 L 197.2 31.3 L 197.2 26.1 Z M 208.4 28.3 C 208.4 28.26 208.4 31.3 208.4 31.3 L 207.7 31.3 C 207.7 31.3 207.69 28.33 207.7 28.3 C 207.7 27.2 207.1 26.7 206.2 26.7 C 205.1 26.7 204.4 27.4 204.4 28.6 C 204.42 28.55 204.4 31.3 204.4 31.3 L 203.7 31.3 C 203.7 31.3 203.71 28.33 203.7 28.3 C 203.7 27.2 203.2 26.7 202.2 26.7 C 201.1 26.7 200.4 27.4 200.4 28.6 C 200.43 28.55 200.4 31.3 200.4 31.3 L 199.7 31.3 L 199.7 26.1 L 200.4 26.1 C 200.4 26.1 200.4 27.01 200.4 27 C 200.8 26.4 201.5 26 202.3 26 C 203.2 26 203.9 26.4 204.2 27.1 C 204.6 26.4 205.3 26 206.3 26 C 207.6 26 208.4 26.8 208.4 28.3 Z M 214.9 28.9 C 214.9 28.9 210.5 28.9 210.5 28.9 C 210.6 30 211.4 30.7 212.6 30.7 C 213.2 30.7 213.8 30.5 214.2 30 C 214.2 30 214.6 30.5 214.6 30.5 C 214.1 31.1 213.4 31.4 212.6 31.4 C 210.9 31.4 209.8 30.2 209.8 28.7 C 209.8 27.1 210.9 26 212.4 26 C 213.8 26 214.9 27.1 214.9 28.7 C 214.9 28.7 214.9 28.8 214.9 28.9 Z M 210.5 28.4 C 210.5 28.4 214.2 28.4 214.2 28.4 C 214.1 27.3 213.4 26.6 212.4 26.6 C 211.3 26.6 210.6 27.3 210.5 28.4 Z M 223 28.1 C 222.95 28.05 223 31.3 223 31.3 L 222.3 31.3 C 222.3 31.3 222.27 30.49 222.3 30.5 C 222 31 221.3 31.4 220.5 31.4 C 219.3 31.4 218.5 30.7 218.5 29.8 C 218.5 29 219.1 28.3 220.6 28.3 C 220.57 28.34 222.2 28.3 222.2 28.3 C 222.2 28.3 222.24 28.02 222.2 28 C 222.2 27.1 221.7 26.6 220.8 26.6 C 220.1 26.6 219.4 26.9 219 27.3 C 219 27.3 218.7 26.7 218.7 26.7 C 219.2 26.3 220 26 220.8 26 C 222.2 26 223 26.7 223 28.1 Z M 222.2 29.7 C 222.24 29.73 222.2 28.9 222.2 28.9 C 222.2 28.9 220.59 28.87 220.6 28.9 C 219.6 28.9 219.2 29.3 219.2 29.8 C 219.2 30.4 219.7 30.8 220.6 30.8 C 221.4 30.8 222 30.4 222.2 29.7 Z M 229.6 28.3 C 229.61 28.26 229.6 31.3 229.6 31.3 L 228.9 31.3 C 228.9 31.3 228.9 28.33 228.9 28.3 C 228.9 27.2 228.3 26.7 227.3 26.7 C 226.2 26.7 225.5 27.4 225.5 28.6 C 225.48 28.55 225.5 31.3 225.5 31.3 L 224.8 31.3 L 224.8 26.1 L 225.4 26.1 C 225.4 26.1 225.45 27.02 225.4 27 C 225.8 26.4 226.5 26 227.4 26 C 228.7 26 229.6 26.8 229.6 28.3 Z M 236.3 23.9 L 236.3 31.3 L 235.6 31.3 C 235.6 31.3 235.64 30.27 235.6 30.3 C 235.2 31 234.5 31.4 233.6 31.4 C 232.1 31.4 231 30.3 231 28.7 C 231 27.1 232.1 26 233.6 26 C 234.5 26 235.2 26.4 235.6 27.1 C 235.61 27.05 235.6 23.9 235.6 23.9 L 236.3 23.9 Z M 235.6 28.7 C 235.6 27.5 234.8 26.6 233.7 26.6 C 232.6 26.6 231.7 27.5 231.7 28.7 C 231.7 29.9 232.6 30.7 233.7 30.7 C 234.8 30.7 235.6 29.9 235.6 28.7 Z M 245.5 28.9 C 245.5 28.9 241.1 28.9 241.1 28.9 C 241.2 30 242 30.7 243.2 30.7 C 243.8 30.7 244.4 30.5 244.8 30 C 244.8 30 245.2 30.5 245.2 30.5 C 244.7 31.1 244 31.4 243.2 31.4 C 241.5 31.4 240.4 30.2 240.4 28.7 C 240.4 27.1 241.5 26 243 26 C 244.4 26 245.5 27.1 245.5 28.7 C 245.5 28.7 245.5 28.8 245.5 28.9 Z M 241.1 28.4 C 241.1 28.4 244.8 28.4 244.8 28.4 C 244.7 27.3 244 26.6 243 26.6 C 241.9 26.6 241.2 27.3 241.1 28.4 Z M 251.8 28.3 C 251.75 28.26 251.8 31.3 251.8 31.3 L 251 31.3 C 251 31.3 251.05 28.33 251 28.3 C 251 27.2 250.5 26.7 249.5 26.7 C 248.3 26.7 247.6 27.4 247.6 28.6 C 247.62 28.55 247.6 31.3 247.6 31.3 L 246.9 31.3 L 246.9 26.1 L 247.6 26.1 C 247.6 26.1 247.59 27.02 247.6 27 C 248 26.4 248.7 26 249.6 26 C 250.9 26 251.8 26.8 251.8 28.3 Z M 258.2 28.9 C 258.2 28.9 253.8 28.9 253.8 28.9 C 253.9 30 254.8 30.7 255.9 30.7 C 256.6 30.7 257.1 30.5 257.5 30 C 257.5 30 257.9 30.5 257.9 30.5 C 257.5 31.1 256.7 31.4 255.9 31.4 C 254.3 31.4 253.1 30.2 253.1 28.7 C 253.1 27.1 254.2 26 255.7 26 C 257.2 26 258.3 27.1 258.3 28.7 C 258.3 28.7 258.2 28.8 258.2 28.9 Z M 253.8 28.4 C 253.8 28.4 257.6 28.4 257.6 28.4 C 257.5 27.3 256.7 26.6 255.7 26.6 C 254.7 26.6 253.9 27.3 253.8 28.4 Z M 262.3 26 C 262.3 26 262.3 26.7 262.3 26.7 C 262.3 26.7 262.2 26.7 262.1 26.7 C 261 26.7 260.4 27.4 260.4 28.6 C 260.37 28.63 260.4 31.3 260.4 31.3 L 259.7 31.3 L 259.7 26.1 L 260.3 26.1 C 260.3 26.1 260.34 27.08 260.3 27.1 C 260.7 26.4 261.3 26 262.3 26 Z M 268.4 26.1 C 268.4 26.1 268.36 30.67 268.4 30.7 C 268.4 32.5 267.5 33.3 265.7 33.3 C 264.8 33.3 263.8 33 263.3 32.5 C 263.3 32.5 263.6 32 263.6 32 C 264.1 32.4 264.9 32.7 265.7 32.7 C 267 32.7 267.6 32.1 267.6 30.8 C 267.6 30.8 267.6 30.1 267.6 30.1 C 267.2 30.8 266.5 31.1 265.6 31.1 C 264.1 31.1 263 30.1 263 28.6 C 263 27 264.1 26 265.6 26 C 266.5 26 267.2 26.4 267.7 27.1 C 267.68 27.06 267.7 26.1 267.7 26.1 L 268.4 26.1 Z M 267.7 28.6 C 267.7 27.4 266.8 26.6 265.7 26.6 C 264.5 26.6 263.7 27.4 263.7 28.6 C 263.7 29.7 264.5 30.5 265.7 30.5 C 266.8 30.5 267.7 29.7 267.7 28.6 Z M 274.8 26.1 C 274.8 26.1 272.18 31.94 272.2 31.9 C 271.7 33 271.2 33.3 270.4 33.3 C 269.9 33.3 269.5 33.1 269.2 32.8 C 269.2 32.8 269.5 32.3 269.5 32.3 C 269.7 32.6 270.1 32.7 270.4 32.7 C 270.9 32.7 271.2 32.5 271.5 31.8 C 271.53 31.81 271.8 31.3 271.8 31.3 L 269.4 26.1 L 270.2 26.1 L 272.1 30.5 L 274.1 26.1 L 274.8 26.1 Z " stroke="none" fill="#323132"/>
  </g>
  <g id="Polygon112643">
    <path d="M 20.4 28.7 L 16.2 30.8 L 16.2 26.5 L 20.4 28.7 Z " stroke="none" fill="#a243ff"/>
  </g>
</svg>