<?xml version="1.0" standalone="no"?>
<!DOCTYPE svg PUBLIC "-//W3C//DTD SVG 1.1//EN" "http://www.w3.org/Graphics/SVG/1.1/DTD/svg11.dtd">
<svg xmlns="http://www.w3.org/2000/svg" version="1.1" width="64px" height="30.5px" viewBox="0 0 64 30.5">
  <desc>Previous</desc>
  <defs/>
  <g id="Polygon116561">
    <path d="M 17.2 13.1 C 17.2 14.6 16.2 15.5 14.4 15.5 C 14.39 15.47 12.5 15.5 12.5 15.5 L 12.5 17.7 L 11.8 17.7 L 11.8 10.7 C 11.8 10.7 14.39 10.68 14.4 10.7 C 16.2 10.7 17.2 11.6 17.2 13.1 Z M 16.5 13.1 C 16.5 12 15.8 11.3 14.4 11.3 C 14.37 11.32 12.5 11.3 12.5 11.3 L 12.5 14.8 C 12.5 14.8 14.37 14.82 14.4 14.8 C 15.8 14.8 16.5 14.2 16.5 13.1 Z M 21.3 12.4 C 21.3 12.4 21.3 13.1 21.3 13.1 C 21.2 13.1 21.1 13.1 21.1 13.1 C 20 13.1 19.3 13.8 19.3 15 C 19.32 15 19.3 17.7 19.3 17.7 L 18.6 17.7 L 18.6 12.4 L 19.3 12.4 C 19.3 12.4 19.29 13.45 19.3 13.4 C 19.6 12.7 20.3 12.4 21.3 12.4 Z M 27 15.3 C 27 15.3 22.6 15.3 22.6 15.3 C 22.7 16.4 23.5 17.1 24.7 17.1 C 25.3 17.1 25.9 16.9 26.3 16.4 C 26.3 16.4 26.7 16.9 26.7 16.9 C 26.2 17.4 25.5 17.7 24.6 17.7 C 23 17.7 21.9 16.6 21.9 15 C 21.9 13.5 23 12.4 24.5 12.4 C 25.9 12.4 27 13.5 27 15 C 27 15.1 27 15.2 27 15.3 Z M 22.6 14.7 C 22.6 14.7 26.3 14.7 26.3 14.7 C 26.2 13.7 25.5 13 24.5 13 C 23.4 13 22.7 13.7 22.6 14.7 Z M 32.8 12.4 L 30.5 17.7 L 29.7 17.7 L 27.4 12.4 L 28.1 12.4 L 30.1 16.9 L 32.1 12.4 L 32.8 12.4 Z M 33.7 10.8 C 33.7 10.5 33.9 10.3 34.2 10.3 C 34.5 10.3 34.7 10.5 34.7 10.7 C 34.7 11 34.5 11.3 34.2 11.3 C 33.9 11.3 33.7 11 33.7 10.8 Z M 33.8 12.4 L 34.6 12.4 L 34.6 17.7 L 33.8 17.7 L 33.8 12.4 Z M 35.9 15 C 35.9 13.5 37.1 12.4 38.6 12.4 C 40.2 12.4 41.3 13.5 41.3 15 C 41.3 16.6 40.2 17.7 38.6 17.7 C 37.1 17.7 35.9 16.6 35.9 15 Z M 40.6 15 C 40.6 13.8 39.7 13 38.6 13 C 37.5 13 36.7 13.8 36.7 15 C 36.7 16.3 37.5 17.1 38.6 17.1 C 39.7 17.1 40.6 16.3 40.6 15 Z M 47.5 12.4 L 47.5 17.7 L 46.8 17.7 C 46.8 17.7 46.77 16.72 46.8 16.7 C 46.4 17.4 45.7 17.7 44.9 17.7 C 43.5 17.7 42.7 17 42.7 15.5 C 42.66 15.47 42.7 12.4 42.7 12.4 L 43.4 12.4 C 43.4 12.4 43.37 15.4 43.4 15.4 C 43.4 16.5 44 17.1 45 17.1 C 46.1 17.1 46.7 16.4 46.7 15.2 C 46.74 15.18 46.7 12.4 46.7 12.4 L 47.5 12.4 Z M 48.7 17.1 C 48.7 17.1 49.1 16.5 49.1 16.5 C 49.5 16.9 50.2 17.1 50.9 17.1 C 51.9 17.1 52.3 16.8 52.3 16.3 C 52.3 14.9 48.9 16 48.9 13.9 C 48.9 13 49.7 12.4 51 12.4 C 51.7 12.4 52.4 12.6 52.9 12.9 C 52.9 12.9 52.6 13.4 52.6 13.4 C 52.1 13.1 51.6 13 51 13 C 50.1 13 49.6 13.4 49.6 13.9 C 49.6 15.3 53.1 14.2 53.1 16.2 C 53.1 17.1 52.3 17.7 50.9 17.7 C 50 17.7 49.2 17.4 48.7 17.1 Z " stroke="none" fill="#000"/>
  </g>
</svg>