<?xml version="1.0" standalone="no"?>
<!DOCTYPE svg PUBLIC "-//W3C//DTD SVG 1.1//EN" "http://www.w3.org/Graphics/SVG/1.1/DTD/svg11.dtd">
<svg xmlns="http://www.w3.org/2000/svg" version="1.1" width="60px" height="26.5px" viewBox="0 0 60 26.5">
  <desc>Previous</desc>
  <defs/>
  <g id="Polygon121451">
    <path d="M 15.2 11.1 C 15.2 12.6 14.2 13.5 12.4 13.5 C 12.39 13.47 10.5 13.5 10.5 13.5 L 10.5 15.7 L 9.8 15.7 L 9.8 8.7 C 9.8 8.7 12.39 8.68 12.4 8.7 C 14.2 8.7 15.2 9.6 15.2 11.1 Z M 14.5 11.1 C 14.5 10 13.8 9.3 12.4 9.3 C 12.37 9.32 10.5 9.3 10.5 9.3 L 10.5 12.8 C 10.5 12.8 12.37 12.82 12.4 12.8 C 13.8 12.8 14.5 12.2 14.5 11.1 Z M 19.3 10.4 C 19.3 10.4 19.3 11.1 19.3 11.1 C 19.2 11.1 19.1 11.1 19.1 11.1 C 18 11.1 17.3 11.8 17.3 13 C 17.32 13 17.3 15.7 17.3 15.7 L 16.6 15.7 L 16.6 10.4 L 17.3 10.4 C 17.3 10.4 17.29 11.45 17.3 11.4 C 17.6 10.7 18.3 10.4 19.3 10.4 Z M 25 13.3 C 25 13.3 20.6 13.3 20.6 13.3 C 20.7 14.4 21.5 15.1 22.7 15.1 C 23.3 15.1 23.9 14.9 24.3 14.4 C 24.3 14.4 24.7 14.9 24.7 14.9 C 24.2 15.4 23.5 15.7 22.6 15.7 C 21 15.7 19.9 14.6 19.9 13 C 19.9 11.5 21 10.4 22.5 10.4 C 23.9 10.4 25 11.5 25 13 C 25 13.1 25 13.2 25 13.3 Z M 20.6 12.7 C 20.6 12.7 24.3 12.7 24.3 12.7 C 24.2 11.7 23.5 11 22.5 11 C 21.4 11 20.7 11.7 20.6 12.7 Z M 30.8 10.4 L 28.5 15.7 L 27.7 15.7 L 25.4 10.4 L 26.1 10.4 L 28.1 14.9 L 30.1 10.4 L 30.8 10.4 Z M 31.7 8.8 C 31.7 8.5 31.9 8.3 32.2 8.3 C 32.5 8.3 32.7 8.5 32.7 8.7 C 32.7 9 32.5 9.3 32.2 9.3 C 31.9 9.3 31.7 9 31.7 8.8 Z M 31.8 10.4 L 32.6 10.4 L 32.6 15.7 L 31.8 15.7 L 31.8 10.4 Z M 33.9 13 C 33.9 11.5 35.1 10.4 36.6 10.4 C 38.2 10.4 39.3 11.5 39.3 13 C 39.3 14.6 38.2 15.7 36.6 15.7 C 35.1 15.7 33.9 14.6 33.9 13 Z M 38.6 13 C 38.6 11.8 37.7 11 36.6 11 C 35.5 11 34.7 11.8 34.7 13 C 34.7 14.3 35.5 15.1 36.6 15.1 C 37.7 15.1 38.6 14.3 38.6 13 Z M 45.5 10.4 L 45.5 15.7 L 44.8 15.7 C 44.8 15.7 44.77 14.72 44.8 14.7 C 44.4 15.4 43.7 15.7 42.9 15.7 C 41.5 15.7 40.7 15 40.7 13.5 C 40.66 13.47 40.7 10.4 40.7 10.4 L 41.4 10.4 C 41.4 10.4 41.37 13.4 41.4 13.4 C 41.4 14.5 42 15.1 43 15.1 C 44.1 15.1 44.7 14.4 44.7 13.2 C 44.74 13.18 44.7 10.4 44.7 10.4 L 45.5 10.4 Z M 46.7 15.1 C 46.7 15.1 47.1 14.5 47.1 14.5 C 47.5 14.9 48.2 15.1 48.9 15.1 C 49.9 15.1 50.3 14.8 50.3 14.3 C 50.3 12.9 46.9 14 46.9 11.9 C 46.9 11 47.7 10.4 49 10.4 C 49.7 10.4 50.4 10.6 50.9 10.9 C 50.9 10.9 50.6 11.4 50.6 11.4 C 50.1 11.1 49.6 11 49 11 C 48.1 11 47.6 11.4 47.6 11.9 C 47.6 13.3 51.1 12.2 51.1 14.2 C 51.1 15.1 50.3 15.7 48.9 15.7 C 48 15.7 47.2 15.4 46.7 15.1 Z " stroke="none" fill="#000"/>
  </g>
</svg>