<?xml version="1.0" standalone="no"?>
<!DOCTYPE svg PUBLIC "-//W3C//DTD SVG 1.1//EN" "http://www.w3.org/Graphics/SVG/1.1/DTD/svg11.dtd">
<svg xmlns="http://www.w3.org/2000/svg" version="1.1" width="434px" height="33px" viewBox="0 -2 434 33" style="top:-2px">
  <desc>2.7 Human failure and human factors</desc>
  <defs/>
  <g id="Polygon114600">
    <path d="M 0.7 19.4 L 0.7 17.3 C 0.7 17.3 6.06 12.16 6.1 12.2 C 6.5 11.8 6.8 11.4 7 11.1 C 7.2 10.8 7.3 10.5 7.4 10.3 C 7.5 10 7.5 9.8 7.5 9.6 C 7.5 9 7.3 8.6 6.9 8.3 C 6.6 8 6 7.8 5.3 7.8 C 4.7 7.8 4.2 8 3.6 8.2 C 3.1 8.4 2.7 8.8 2.4 9.2 C 2.4 9.2 0 7.7 0 7.7 C 0.6 6.9 1.3 6.3 2.3 5.8 C 3.2 5.4 4.3 5.1 5.6 5.1 C 6.6 5.1 7.5 5.3 8.3 5.6 C 9.1 6 9.7 6.4 10.1 7.1 C 10.6 7.7 10.8 8.4 10.8 9.3 C 10.8 9.7 10.7 10.2 10.6 10.6 C 10.5 11.1 10.3 11.5 9.9 12 C 9.6 12.5 9.1 13.1 8.4 13.7 C 8.44 13.68 4 17.9 4 17.9 L 3.3 16.7 L 11.2 16.7 L 11.2 19.4 L 0.7 19.4 Z M 15.3 19.5 C 14.8 19.5 14.3 19.3 14 19 C 13.6 18.6 13.4 18.1 13.4 17.6 C 13.4 17 13.6 16.5 14 16.2 C 14.3 15.8 14.8 15.6 15.3 15.6 C 15.9 15.6 16.3 15.8 16.7 16.2 C 17.1 16.5 17.3 17 17.3 17.6 C 17.3 18.1 17.1 18.6 16.7 19 C 16.3 19.3 15.9 19.5 15.3 19.5 Z M 20.2 19.4 L 25.9 6.6 L 26.7 8 L 19.2 8 L 20.6 6.5 L 20.6 10.3 L 17.7 10.3 L 17.7 5.4 L 28.9 5.4 L 28.9 7.5 L 23.7 19.4 L 20.2 19.4 Z M 46.5 5.4 L 49.8 5.4 L 49.8 19.4 L 46.5 19.4 L 46.5 5.4 Z M 40.2 19.4 L 36.9 19.4 L 36.9 5.4 L 40.2 5.4 L 40.2 19.4 Z M 46.8 13.6 L 39.9 13.6 L 39.9 10.9 L 46.8 10.9 L 46.8 13.6 Z M 57.3 19.5 C 56.4 19.5 55.6 19.3 54.9 19 C 54.2 18.7 53.6 18.1 53.2 17.4 C 52.9 16.7 52.7 15.8 52.7 14.7 C 52.66 14.68 52.7 8.6 52.7 8.6 L 55.8 8.6 C 55.8 8.6 55.78 14.22 55.8 14.2 C 55.8 15.1 56 15.8 56.4 16.2 C 56.7 16.6 57.3 16.8 58 16.8 C 58.4 16.8 58.9 16.7 59.2 16.5 C 59.6 16.3 59.9 16 60.1 15.5 C 60.3 15.1 60.4 14.6 60.4 13.9 C 60.44 13.92 60.4 8.6 60.4 8.6 L 63.6 8.6 L 63.6 19.4 L 60.6 19.4 L 60.6 16.4 C 60.6 16.4 61.14 17.26 61.1 17.3 C 60.8 18 60.3 18.6 59.6 18.9 C 58.9 19.3 58.1 19.5 57.3 19.5 Z M 80 8.4 C 80.9 8.4 81.6 8.6 82.3 8.9 C 82.9 9.3 83.5 9.8 83.8 10.5 C 84.2 11.2 84.4 12.1 84.4 13.2 C 84.41 13.2 84.4 19.4 84.4 19.4 L 81.3 19.4 C 81.3 19.4 81.29 13.68 81.3 13.7 C 81.3 12.8 81.1 12.2 80.8 11.8 C 80.4 11.3 79.9 11.1 79.2 11.1 C 78.8 11.1 78.4 11.2 78 11.4 C 77.7 11.7 77.4 12 77.2 12.4 C 77 12.8 76.9 13.3 76.9 14 C 76.87 13.96 76.9 19.4 76.9 19.4 L 73.8 19.4 C 73.8 19.4 73.75 13.68 73.8 13.7 C 73.8 12.8 73.6 12.2 73.2 11.8 C 72.9 11.3 72.4 11.1 71.7 11.1 C 71.3 11.1 70.9 11.2 70.5 11.4 C 70.1 11.7 69.9 12 69.7 12.4 C 69.5 12.8 69.4 13.3 69.4 14 C 69.35 13.96 69.4 19.4 69.4 19.4 L 66.2 19.4 L 66.2 8.6 L 69.2 8.6 L 69.2 11.5 C 69.2 11.5 68.65 10.68 68.7 10.7 C 69 9.9 69.6 9.4 70.2 9 C 70.9 8.6 71.7 8.4 72.6 8.4 C 73.6 8.4 74.4 8.7 75.2 9.2 C 75.9 9.7 76.4 10.5 76.7 11.5 C 76.7 11.5 75.6 11.2 75.6 11.2 C 75.9 10.3 76.5 9.7 77.3 9.2 C 78.1 8.7 79 8.4 80 8.4 Z M 93.6 19.4 L 93.6 17.3 L 93.4 16.8 C 93.4 16.8 93.39 13.04 93.4 13 C 93.4 12.4 93.2 11.9 92.8 11.5 C 92.4 11.1 91.7 10.9 90.9 10.9 C 90.3 10.9 89.8 11 89.2 11.2 C 88.7 11.4 88.2 11.6 87.8 11.9 C 87.8 11.9 86.7 9.7 86.7 9.7 C 87.3 9.3 88 9 88.8 8.8 C 89.6 8.6 90.5 8.4 91.3 8.4 C 93 8.4 94.2 8.8 95.1 9.6 C 96.1 10.4 96.5 11.6 96.5 13.2 C 96.51 13.22 96.5 19.4 96.5 19.4 L 93.6 19.4 Z M 90.3 19.5 C 89.5 19.5 88.7 19.4 88.1 19.1 C 87.5 18.8 87.1 18.4 86.8 17.9 C 86.4 17.4 86.3 16.9 86.3 16.3 C 86.3 15.6 86.4 15.1 86.8 14.6 C 87.1 14.1 87.6 13.7 88.2 13.4 C 88.9 13.2 89.8 13 90.9 13 C 90.91 13.04 93.8 13 93.8 13 L 93.8 14.9 C 93.8 14.9 91.25 14.86 91.2 14.9 C 90.5 14.9 90 15 89.7 15.2 C 89.5 15.5 89.3 15.8 89.3 16.1 C 89.3 16.5 89.5 16.8 89.8 17.1 C 90.1 17.3 90.5 17.4 91.1 17.4 C 91.6 17.4 92.1 17.3 92.5 17 C 92.9 16.8 93.2 16.4 93.4 16 C 93.4 16 93.9 17.4 93.9 17.4 C 93.6 18.1 93.2 18.6 92.6 19 C 92 19.3 91.3 19.5 90.3 19.5 Z M 105.6 8.4 C 106.5 8.4 107.3 8.6 107.9 8.9 C 108.6 9.3 109.1 9.8 109.5 10.5 C 109.9 11.2 110.1 12.1 110.1 13.2 C 110.11 13.2 110.1 19.4 110.1 19.4 L 107 19.4 C 107 19.4 106.99 13.68 107 13.7 C 107 12.8 106.8 12.2 106.4 11.8 C 106 11.3 105.5 11.1 104.8 11.1 C 104.3 11.1 103.9 11.2 103.5 11.4 C 103.1 11.7 102.8 12 102.6 12.4 C 102.3 12.8 102.2 13.4 102.2 14 C 102.23 14.04 102.2 19.4 102.2 19.4 L 99.1 19.4 L 99.1 8.6 L 102.1 8.6 L 102.1 11.6 C 102.1 11.6 101.53 10.68 101.5 10.7 C 101.9 10 102.5 9.4 103.2 9 C 103.9 8.6 104.7 8.4 105.6 8.4 Z M 119 19.4 C 119 19.4 118.97 8.36 119 8.4 C 119 7.1 119.3 6.2 120 5.4 C 120.8 4.7 121.8 4.4 123.1 4.4 C 123.6 4.4 124 4.4 124.4 4.5 C 124.9 4.6 125.2 4.7 125.5 4.9 C 125.5 4.9 124.7 7.2 124.7 7.2 C 124.5 7.1 124.3 7 124.1 6.9 C 123.9 6.9 123.7 6.8 123.4 6.8 C 123 6.8 122.6 6.9 122.4 7.2 C 122.1 7.5 122 7.9 122 8.4 C 122.01 8.38 122 9.4 122 9.4 L 122.1 10.7 L 122.1 19.4 L 119 19.4 Z M 117.3 11.2 L 117.3 8.8 L 124.8 8.8 L 124.8 11.2 L 117.3 11.2 Z M 132.9 19.4 L 132.9 17.3 L 132.7 16.8 C 132.7 16.8 132.69 13.04 132.7 13 C 132.7 12.4 132.5 11.9 132.1 11.5 C 131.7 11.1 131.1 10.9 130.2 10.9 C 129.6 10.9 129.1 11 128.5 11.2 C 128 11.4 127.5 11.6 127.1 11.9 C 127.1 11.9 126 9.7 126 9.7 C 126.6 9.3 127.3 9 128.1 8.8 C 128.9 8.6 129.8 8.4 130.6 8.4 C 132.3 8.4 133.5 8.8 134.5 9.6 C 135.4 10.4 135.8 11.6 135.8 13.2 C 135.81 13.22 135.8 19.4 135.8 19.4 L 132.9 19.4 Z M 129.6 19.5 C 128.8 19.5 128.1 19.4 127.5 19.1 C 126.9 18.8 126.4 18.4 126.1 17.9 C 125.8 17.4 125.6 16.9 125.6 16.3 C 125.6 15.6 125.7 15.1 126.1 14.6 C 126.4 14.1 126.9 13.7 127.6 13.4 C 128.2 13.2 129.1 13 130.2 13 C 130.21 13.04 133.1 13 133.1 13 L 133.1 14.9 C 133.1 14.9 130.55 14.86 130.6 14.9 C 129.8 14.9 129.3 15 129 15.2 C 128.8 15.5 128.6 15.8 128.6 16.1 C 128.6 16.5 128.8 16.8 129.1 17.1 C 129.4 17.3 129.8 17.4 130.4 17.4 C 130.9 17.4 131.4 17.3 131.8 17 C 132.2 16.8 132.5 16.4 132.7 16 C 132.7 16 133.2 17.4 133.2 17.4 C 132.9 18.1 132.5 18.6 131.9 19 C 131.3 19.3 130.6 19.5 129.6 19.5 Z M 138.4 19.4 L 138.4 8.6 L 141.5 8.6 L 141.5 19.4 L 138.4 19.4 Z M 139.9 7.1 C 139.3 7.1 138.9 6.9 138.5 6.6 C 138.2 6.3 138 5.9 138 5.4 C 138 4.9 138.2 4.5 138.5 4.1 C 138.9 3.8 139.3 3.6 139.9 3.6 C 140.5 3.6 141 3.8 141.3 4.1 C 141.7 4.4 141.9 4.8 141.9 5.3 C 141.9 5.8 141.7 6.2 141.3 6.6 C 141 6.9 140.5 7.1 139.9 7.1 Z M 144.2 19.4 L 144.2 4.5 L 147.3 4.5 L 147.3 19.4 L 144.2 19.4 Z M 154.5 19.5 C 153.6 19.5 152.8 19.3 152.1 19 C 151.4 18.7 150.9 18.1 150.5 17.4 C 150.1 16.7 149.9 15.8 149.9 14.7 C 149.9 14.68 149.9 8.6 149.9 8.6 L 153 8.6 C 153 8.6 153.02 14.22 153 14.2 C 153 15.1 153.2 15.8 153.6 16.2 C 154 16.6 154.5 16.8 155.2 16.8 C 155.7 16.8 156.1 16.7 156.5 16.5 C 156.9 16.3 157.1 16 157.4 15.5 C 157.6 15.1 157.7 14.6 157.7 13.9 C 157.68 13.92 157.7 8.6 157.7 8.6 L 160.8 8.6 L 160.8 19.4 L 157.8 19.4 L 157.8 16.4 C 157.8 16.4 158.38 17.26 158.4 17.3 C 158 18 157.5 18.6 156.8 18.9 C 156.1 19.3 155.3 19.5 154.5 19.5 Z M 163.5 19.4 L 163.5 8.6 L 166.4 8.6 L 166.4 11.6 C 166.4 11.6 166.03 10.76 166 10.8 C 166.3 10 166.9 9.4 167.6 9 C 168.3 8.6 169.1 8.4 170.1 8.4 C 170.1 8.4 170.1 11.3 170.1 11.3 C 170 11.3 169.9 11.3 169.8 11.3 C 169.7 11.3 169.6 11.3 169.4 11.3 C 168.6 11.3 167.9 11.5 167.4 12 C 166.9 12.5 166.6 13.3 166.6 14.3 C 166.59 14.28 166.6 19.4 166.6 19.4 L 163.5 19.4 Z M 177.2 19.5 C 176 19.5 174.9 19.3 174 18.8 C 173.1 18.3 172.3 17.7 171.8 16.8 C 171.3 16 171.1 15 171.1 14 C 171.1 12.9 171.3 11.9 171.8 11.1 C 172.3 10.3 173 9.6 173.9 9.1 C 174.7 8.7 175.7 8.4 176.8 8.4 C 177.9 8.4 178.8 8.7 179.7 9.1 C 180.5 9.6 181.2 10.2 181.7 11 C 182.2 11.9 182.4 12.9 182.4 14 C 182.4 14.1 182.4 14.3 182.4 14.4 C 182.4 14.6 182.4 14.7 182.4 14.9 C 182.35 14.86 173.6 14.9 173.6 14.9 L 173.6 13 L 180.7 13 C 180.7 13 179.51 13.58 179.5 13.6 C 179.5 13 179.4 12.5 179.2 12.1 C 178.9 11.7 178.6 11.4 178.2 11.1 C 177.8 10.9 177.4 10.8 176.8 10.8 C 176.3 10.8 175.8 10.9 175.4 11.1 C 175 11.4 174.7 11.7 174.5 12.1 C 174.2 12.5 174.1 13 174.1 13.6 C 174.1 13.6 174.1 14.1 174.1 14.1 C 174.1 14.7 174.3 15.2 174.5 15.6 C 174.8 16.1 175.1 16.4 175.6 16.7 C 176.1 16.9 176.7 17 177.3 17 C 177.9 17 178.4 16.9 178.8 16.8 C 179.2 16.6 179.6 16.3 180 16 C 180 16 181.7 17.8 181.7 17.8 C 181.2 18.3 180.5 18.8 179.8 19.1 C 179 19.4 178.2 19.5 177.2 19.5 Z M 196.7 19.4 L 196.7 17.3 L 196.5 16.8 C 196.5 16.8 196.55 13.04 196.5 13 C 196.5 12.4 196.3 11.9 195.9 11.5 C 195.5 11.1 194.9 10.9 194.1 10.9 C 193.5 10.9 192.9 11 192.4 11.2 C 191.8 11.4 191.4 11.6 191 11.9 C 191 11.9 189.8 9.7 189.8 9.7 C 190.4 9.3 191.1 9 192 8.8 C 192.8 8.6 193.6 8.4 194.5 8.4 C 196.1 8.4 197.4 8.8 198.3 9.6 C 199.2 10.4 199.7 11.6 199.7 13.2 C 199.67 13.22 199.7 19.4 199.7 19.4 L 196.7 19.4 Z M 193.5 19.5 C 192.6 19.5 191.9 19.4 191.3 19.1 C 190.7 18.8 190.2 18.4 189.9 17.9 C 189.6 17.4 189.4 16.9 189.4 16.3 C 189.4 15.6 189.6 15.1 189.9 14.6 C 190.2 14.1 190.7 13.7 191.4 13.4 C 192.1 13.2 193 13 194.1 13 C 194.07 13.04 196.9 13 196.9 13 L 196.9 14.9 C 196.9 14.9 194.41 14.86 194.4 14.9 C 193.7 14.9 193.2 15 192.9 15.2 C 192.6 15.5 192.5 15.8 192.5 16.1 C 192.5 16.5 192.6 16.8 193 17.1 C 193.3 17.3 193.7 17.4 194.2 17.4 C 194.8 17.4 195.2 17.3 195.6 17 C 196.1 16.8 196.4 16.4 196.5 16 C 196.5 16 197 17.4 197 17.4 C 196.8 18.1 196.4 18.6 195.8 19 C 195.2 19.3 194.4 19.5 193.5 19.5 Z M 208.8 8.4 C 209.7 8.4 210.4 8.6 211.1 8.9 C 211.8 9.3 212.3 9.8 212.7 10.5 C 213.1 11.2 213.3 12.1 213.3 13.2 C 213.27 13.2 213.3 19.4 213.3 19.4 L 210.1 19.4 C 210.1 19.4 210.15 13.68 210.1 13.7 C 210.1 12.8 210 12.2 209.6 11.8 C 209.2 11.3 208.7 11.1 208 11.1 C 207.5 11.1 207 11.2 206.6 11.4 C 206.2 11.7 205.9 12 205.7 12.4 C 205.5 12.8 205.4 13.4 205.4 14 C 205.39 14.04 205.4 19.4 205.4 19.4 L 202.3 19.4 L 202.3 8.6 L 205.2 8.6 L 205.2 11.6 C 205.2 11.6 204.69 10.68 204.7 10.7 C 205.1 10 205.6 9.4 206.3 9 C 207.1 8.6 207.9 8.4 208.8 8.4 Z M 220.5 19.5 C 219.5 19.5 218.6 19.3 217.8 18.8 C 217 18.4 216.4 17.7 215.9 16.9 C 215.4 16.1 215.2 15.1 215.2 14 C 215.2 12.8 215.4 11.9 215.9 11 C 216.4 10.2 217 9.6 217.8 9.1 C 218.6 8.7 219.5 8.4 220.5 8.4 C 221.5 8.4 222.2 8.6 222.9 9 C 223.6 9.4 224.1 10 224.5 10.9 C 224.9 11.7 225.1 12.7 225.1 14 C 225.1 15.2 224.9 16.3 224.5 17.1 C 224.2 17.9 223.7 18.5 223 18.9 C 222.3 19.3 221.5 19.5 220.5 19.5 Z M 221.1 17 C 221.6 17 222.1 16.8 222.5 16.6 C 222.9 16.4 223.2 16 223.5 15.6 C 223.7 15.1 223.8 14.6 223.8 14 C 223.8 13.4 223.7 12.8 223.5 12.4 C 223.2 11.9 222.9 11.6 222.5 11.4 C 222.1 11.1 221.6 11 221.1 11 C 220.6 11 220.1 11.1 219.7 11.4 C 219.3 11.6 218.9 11.9 218.7 12.4 C 218.5 12.8 218.3 13.4 218.3 14 C 218.3 14.6 218.5 15.1 218.7 15.6 C 218.9 16 219.3 16.4 219.7 16.6 C 220.1 16.8 220.6 17 221.1 17 Z M 223.9 19.4 L 223.9 17.2 L 224 14 L 223.8 10.8 L 223.8 4.5 L 226.9 4.5 L 226.9 19.4 L 223.9 19.4 Z M 242 8.4 C 242.8 8.4 243.6 8.6 244.3 8.9 C 244.9 9.3 245.5 9.8 245.8 10.5 C 246.2 11.2 246.4 12.1 246.4 13.2 C 246.43 13.2 246.4 19.4 246.4 19.4 L 243.3 19.4 C 243.3 19.4 243.31 13.68 243.3 13.7 C 243.3 12.8 243.1 12.2 242.7 11.8 C 242.4 11.3 241.8 11.1 241.1 11.1 C 240.6 11.1 240.2 11.2 239.8 11.4 C 239.4 11.7 239.1 12 238.9 12.4 C 238.7 12.8 238.5 13.4 238.5 14 C 238.55 14.04 238.5 19.4 238.5 19.4 L 235.4 19.4 L 235.4 4.5 L 238.5 4.5 L 238.5 11.6 C 238.5 11.6 237.85 10.68 237.8 10.7 C 238.2 10 238.8 9.4 239.5 9 C 240.2 8.6 241 8.4 242 8.4 Z M 253.5 19.5 C 252.6 19.5 251.8 19.3 251.1 19 C 250.4 18.7 249.9 18.1 249.5 17.4 C 249.1 16.7 248.9 15.8 248.9 14.7 C 248.89 14.68 248.9 8.6 248.9 8.6 L 252 8.6 C 252 8.6 252.01 14.22 252 14.2 C 252 15.1 252.2 15.8 252.6 16.2 C 253 16.6 253.5 16.8 254.2 16.8 C 254.7 16.8 255.1 16.7 255.5 16.5 C 255.8 16.3 256.1 16 256.3 15.5 C 256.6 15.1 256.7 14.6 256.7 13.9 C 256.67 13.92 256.7 8.6 256.7 8.6 L 259.8 8.6 L 259.8 19.4 L 256.8 19.4 L 256.8 16.4 C 256.8 16.4 257.37 17.26 257.4 17.3 C 257 18 256.5 18.6 255.8 18.9 C 255.1 19.3 254.3 19.5 253.5 19.5 Z M 276.2 8.4 C 277.1 8.4 277.8 8.6 278.5 8.9 C 279.2 9.3 279.7 9.8 280.1 10.5 C 280.4 11.2 280.6 12.1 280.6 13.2 C 280.64 13.2 280.6 19.4 280.6 19.4 L 277.5 19.4 C 277.5 19.4 277.52 13.68 277.5 13.7 C 277.5 12.8 277.3 12.2 277 11.8 C 276.6 11.3 276.1 11.1 275.5 11.1 C 275 11.1 274.6 11.2 274.2 11.4 C 273.9 11.7 273.6 12 273.4 12.4 C 273.2 12.8 273.1 13.3 273.1 14 C 273.1 13.96 273.1 19.4 273.1 19.4 L 270 19.4 C 270 19.4 269.98 13.68 270 13.7 C 270 12.8 269.8 12.2 269.4 11.8 C 269.1 11.3 268.6 11.1 267.9 11.1 C 267.5 11.1 267.1 11.2 266.7 11.4 C 266.4 11.7 266.1 12 265.9 12.4 C 265.7 12.8 265.6 13.3 265.6 14 C 265.58 13.96 265.6 19.4 265.6 19.4 L 262.5 19.4 L 262.5 8.6 L 265.4 8.6 L 265.4 11.5 C 265.4 11.5 264.88 10.68 264.9 10.7 C 265.2 9.9 265.8 9.4 266.5 9 C 267.2 8.6 267.9 8.4 268.8 8.4 C 269.8 8.4 270.7 8.7 271.4 9.2 C 272.1 9.7 272.6 10.5 272.9 11.5 C 272.9 11.5 271.8 11.2 271.8 11.2 C 272.1 10.3 272.7 9.7 273.5 9.2 C 274.3 8.7 275.2 8.4 276.2 8.4 Z M 289.8 19.4 L 289.8 17.3 L 289.6 16.8 C 289.6 16.8 289.61 13.04 289.6 13 C 289.6 12.4 289.4 11.9 289 11.5 C 288.6 11.1 288 10.9 287.1 10.9 C 286.6 10.9 286 11 285.4 11.2 C 284.9 11.4 284.4 11.6 284 11.9 C 284 11.9 282.9 9.7 282.9 9.7 C 283.5 9.3 284.2 9 285 8.8 C 285.9 8.6 286.7 8.4 287.6 8.4 C 289.2 8.4 290.5 8.8 291.4 9.6 C 292.3 10.4 292.7 11.6 292.7 13.2 C 292.73 13.22 292.7 19.4 292.7 19.4 L 289.8 19.4 Z M 286.5 19.5 C 285.7 19.5 285 19.4 284.4 19.1 C 283.8 18.8 283.3 18.4 283 17.9 C 282.7 17.4 282.5 16.9 282.5 16.3 C 282.5 15.6 282.7 15.1 283 14.6 C 283.3 14.1 283.8 13.7 284.5 13.4 C 285.2 13.2 286 13 287.1 13 C 287.13 13.04 290 13 290 13 L 290 14.9 C 290 14.9 287.47 14.86 287.5 14.9 C 286.7 14.9 286.2 15 286 15.2 C 285.7 15.5 285.6 15.8 285.6 16.1 C 285.6 16.5 285.7 16.8 286 17.1 C 286.3 17.3 286.8 17.4 287.3 17.4 C 287.8 17.4 288.3 17.3 288.7 17 C 289.1 16.8 289.4 16.4 289.6 16 C 289.6 16 290.1 17.4 290.1 17.4 C 289.9 18.1 289.5 18.6 288.9 19 C 288.3 19.3 287.5 19.5 286.5 19.5 Z M 301.9 8.4 C 302.7 8.4 303.5 8.6 304.2 8.9 C 304.8 9.3 305.4 9.8 305.8 10.5 C 306.1 11.2 306.3 12.1 306.3 13.2 C 306.33 13.2 306.3 19.4 306.3 19.4 L 303.2 19.4 C 303.2 19.4 303.21 13.68 303.2 13.7 C 303.2 12.8 303 12.2 302.6 11.8 C 302.3 11.3 301.7 11.1 301 11.1 C 300.5 11.1 300.1 11.2 299.7 11.4 C 299.3 11.7 299 12 298.8 12.4 C 298.6 12.8 298.5 13.4 298.5 14 C 298.45 14.04 298.5 19.4 298.5 19.4 L 295.3 19.4 L 295.3 8.6 L 298.3 8.6 L 298.3 11.6 C 298.3 11.6 297.75 10.68 297.8 10.7 C 298.1 10 298.7 9.4 299.4 9 C 300.1 8.6 301 8.4 301.9 8.4 Z M 315.2 19.4 C 315.2 19.4 315.19 8.36 315.2 8.4 C 315.2 7.1 315.6 6.2 316.3 5.4 C 317 4.7 318 4.4 319.4 4.4 C 319.8 4.4 320.2 4.4 320.7 4.5 C 321.1 4.6 321.4 4.7 321.7 4.9 C 321.7 4.9 320.9 7.2 320.9 7.2 C 320.7 7.1 320.5 7 320.3 6.9 C 320.1 6.9 319.9 6.8 319.7 6.8 C 319.2 6.8 318.9 6.9 318.6 7.2 C 318.4 7.5 318.2 7.9 318.2 8.4 C 318.23 8.38 318.2 9.4 318.2 9.4 L 318.3 10.7 L 318.3 19.4 L 315.2 19.4 Z M 313.5 11.2 L 313.5 8.8 L 321 8.8 L 321 11.2 L 313.5 11.2 Z M 329.1 19.4 L 329.1 17.3 L 328.9 16.8 C 328.9 16.8 328.92 13.04 328.9 13 C 328.9 12.4 328.7 11.9 328.3 11.5 C 327.9 11.1 327.3 10.9 326.4 10.9 C 325.9 10.9 325.3 11 324.7 11.2 C 324.2 11.4 323.7 11.6 323.3 11.9 C 323.3 11.9 322.2 9.7 322.2 9.7 C 322.8 9.3 323.5 9 324.3 8.8 C 325.2 8.6 326 8.4 326.9 8.4 C 328.5 8.4 329.8 8.8 330.7 9.6 C 331.6 10.4 332 11.6 332 13.2 C 332.04 13.22 332 19.4 332 19.4 L 329.1 19.4 Z M 325.8 19.5 C 325 19.5 324.3 19.4 323.7 19.1 C 323.1 18.8 322.6 18.4 322.3 17.9 C 322 17.4 321.8 16.9 321.8 16.3 C 321.8 15.6 322 15.1 322.3 14.6 C 322.6 14.1 323.1 13.7 323.8 13.4 C 324.5 13.2 325.3 13 326.4 13 C 326.44 13.04 329.3 13 329.3 13 L 329.3 14.9 C 329.3 14.9 326.78 14.86 326.8 14.9 C 326 14.9 325.5 15 325.3 15.2 C 325 15.5 324.9 15.8 324.9 16.1 C 324.9 16.5 325 16.8 325.3 17.1 C 325.6 17.3 326.1 17.4 326.6 17.4 C 327.1 17.4 327.6 17.3 328 17 C 328.4 16.8 328.7 16.4 328.9 16 C 328.9 16 329.4 17.4 329.4 17.4 C 329.2 18.1 328.8 18.6 328.2 19 C 327.6 19.3 326.8 19.5 325.8 19.5 Z M 339.9 19.5 C 338.7 19.5 337.7 19.3 336.8 18.8 C 335.9 18.3 335.2 17.7 334.6 16.8 C 334.1 16 333.9 15 333.9 14 C 333.9 12.9 334.1 11.9 334.6 11.1 C 335.2 10.3 335.9 9.6 336.8 9.1 C 337.7 8.7 338.7 8.4 339.9 8.4 C 341 8.4 342 8.7 342.8 9.1 C 343.7 9.6 344.3 10.3 344.7 11.2 C 344.7 11.2 342.3 12.5 342.3 12.5 C 342 12 341.6 11.6 341.2 11.4 C 340.8 11.1 340.3 11 339.9 11 C 339.3 11 338.8 11.1 338.4 11.4 C 338 11.6 337.7 11.9 337.4 12.4 C 337.2 12.8 337 13.4 337 14 C 337 14.6 337.2 15.1 337.4 15.6 C 337.7 16 338 16.4 338.4 16.6 C 338.8 16.8 339.3 17 339.9 17 C 340.3 17 340.8 16.8 341.2 16.6 C 341.6 16.4 342 16 342.3 15.5 C 342.3 15.5 344.7 16.8 344.7 16.8 C 344.3 17.7 343.7 18.3 342.8 18.8 C 342 19.3 341 19.5 339.9 19.5 Z M 351.2 19.5 C 350 19.5 349 19.2 348.3 18.5 C 347.6 17.9 347.2 16.9 347.2 15.7 C 347.22 15.66 347.2 6.2 347.2 6.2 L 350.3 6.2 C 350.3 6.2 350.34 15.62 350.3 15.6 C 350.3 16.1 350.5 16.4 350.7 16.7 C 350.9 16.9 351.3 17 351.7 17 C 352.2 17 352.6 16.9 352.9 16.6 C 352.9 16.6 353.8 18.8 353.8 18.8 C 353.5 19.1 353.1 19.2 352.6 19.3 C 352.2 19.5 351.7 19.5 351.2 19.5 Z M 345.6 11.2 L 345.6 8.8 L 353 8.8 L 353 11.2 L 345.6 11.2 Z M 360.3 19.5 C 359.2 19.5 358.1 19.3 357.3 18.8 C 356.4 18.3 355.7 17.7 355.2 16.8 C 354.6 16 354.4 15 354.4 14 C 354.4 12.9 354.6 11.9 355.2 11.1 C 355.7 10.3 356.4 9.6 357.3 9.1 C 358.1 8.7 359.2 8.4 360.3 8.4 C 361.4 8.4 362.5 8.7 363.3 9.1 C 364.2 9.6 364.9 10.3 365.4 11.1 C 366 11.9 366.2 12.9 366.2 14 C 366.2 15 366 16 365.4 16.8 C 364.9 17.7 364.2 18.3 363.3 18.8 C 362.5 19.3 361.4 19.5 360.3 19.5 Z M 360.3 17 C 360.8 17 361.3 16.8 361.7 16.6 C 362.1 16.4 362.4 16 362.7 15.6 C 362.9 15.1 363 14.6 363 14 C 363 13.4 362.9 12.8 362.7 12.4 C 362.4 11.9 362.1 11.6 361.7 11.4 C 361.3 11.1 360.8 11 360.3 11 C 359.8 11 359.3 11.1 358.9 11.4 C 358.5 11.6 358.2 11.9 357.9 12.4 C 357.7 12.8 357.5 13.4 357.5 14 C 357.5 14.6 357.7 15.1 357.9 15.6 C 358.2 16 358.5 16.4 358.9 16.6 C 359.3 16.8 359.8 17 360.3 17 Z M 368.1 19.4 L 368.1 8.6 L 371.1 8.6 L 371.1 11.6 C 371.1 11.6 370.71 10.76 370.7 10.8 C 371 10 371.5 9.4 372.2 9 C 373 8.6 373.8 8.4 374.8 8.4 C 374.8 8.4 374.8 11.3 374.8 11.3 C 374.7 11.3 374.6 11.3 374.5 11.3 C 374.4 11.3 374.2 11.3 374.1 11.3 C 373.3 11.3 372.6 11.5 372.1 12 C 371.5 12.5 371.3 13.3 371.3 14.3 C 371.27 14.28 371.3 19.4 371.3 19.4 L 368.1 19.4 Z M 380.4 19.5 C 379.5 19.5 378.6 19.4 377.8 19.2 C 376.9 19 376.2 18.7 375.8 18.4 C 375.8 18.4 376.8 16.1 376.8 16.1 C 377.3 16.4 377.9 16.7 378.5 16.9 C 379.2 17.1 379.9 17.2 380.5 17.2 C 381.3 17.2 381.8 17.1 382.1 16.9 C 382.4 16.7 382.5 16.5 382.5 16.2 C 382.5 15.9 382.4 15.7 382.2 15.6 C 381.9 15.5 381.6 15.4 381.2 15.3 C 380.8 15.3 380.4 15.2 380 15.1 C 379.5 15.1 379 15 378.6 14.8 C 378.1 14.7 377.7 14.6 377.3 14.3 C 376.9 14.1 376.6 13.8 376.4 13.4 C 376.1 13 376 12.5 376 11.9 C 376 11.2 376.2 10.6 376.6 10.1 C 377 9.6 377.6 9.2 378.3 8.9 C 379.1 8.6 380 8.4 381 8.4 C 381.7 8.4 382.5 8.5 383.2 8.7 C 384 8.8 384.6 9.1 385.1 9.4 C 385.1 9.4 384.1 11.6 384.1 11.6 C 383.6 11.3 383 11.1 382.5 11 C 382 10.9 381.5 10.8 381 10.8 C 380.3 10.8 379.8 10.9 379.5 11.1 C 379.2 11.3 379 11.5 379 11.8 C 379 12.1 379.1 12.3 379.3 12.4 C 379.6 12.5 379.9 12.6 380.3 12.7 C 380.7 12.8 381.1 12.9 381.5 12.9 C 382 13 382.5 13.1 382.9 13.2 C 383.4 13.3 383.8 13.5 384.2 13.7 C 384.6 13.9 384.9 14.2 385.1 14.6 C 385.4 15 385.5 15.5 385.5 16.1 C 385.5 16.8 385.3 17.4 384.9 17.9 C 384.5 18.4 383.9 18.8 383.2 19.1 C 382.4 19.4 381.5 19.5 380.4 19.5 Z " stroke="none" fill="#000"/>
  </g>
</svg>