<?xml version="1.0" standalone="no"?>
<!DOCTYPE svg PUBLIC "-//W3C//DTD SVG 1.1//EN" "http://www.w3.org/Graphics/SVG/1.1/DTD/svg11.dtd">
<svg xmlns="http://www.w3.org/2000/svg" version="1.1" width="445.2px" height="130.5px" viewBox="0 0 445.2 130.5">
  <desc>Conducted face to face; Two way, with both participants taking joint responsibility; Done using both verbal and writt...</desc>
  <defs/>
  <g id="Polygon123334">
    <path d="M 37.1 107.1 L 37.8 107.1 C 37.8 107.1 37.78 109.82 37.8 109.8 C 37.1 110.4 36.2 110.7 35.2 110.7 C 33.1 110.7 31.5 109.2 31.5 107.1 C 31.5 105.1 33.1 103.6 35.2 103.6 C 36.3 103.6 37.2 103.9 37.8 104.6 C 37.8 104.6 37.4 105.1 37.4 105.1 C 36.8 104.5 36.1 104.2 35.3 104.2 C 33.5 104.2 32.2 105.5 32.2 107.1 C 32.2 108.8 33.5 110 35.2 110 C 35.9 110 36.5 109.9 37.1 109.5 C 37.07 109.51 37.1 107.1 37.1 107.1 Z M 39.5 103.7 C 39.5 103.5 39.7 103.2 40 103.2 C 40.3 103.2 40.5 103.4 40.5 103.7 C 40.5 104 40.3 104.2 40 104.2 C 39.7 104.2 39.5 104 39.5 103.7 Z M 39.6 105.4 L 40.3 105.4 L 40.3 110.6 L 39.6 110.6 L 39.6 105.4 Z M 46.8 105.4 L 44.4 110.6 L 43.7 110.6 L 41.4 105.4 L 42.1 105.4 L 44.1 109.9 L 46.1 105.4 L 46.8 105.4 Z M 52.3 108.2 C 52.3 108.2 47.9 108.2 47.9 108.2 C 47.9 109.3 48.8 110.1 49.9 110.1 C 50.6 110.1 51.1 109.8 51.5 109.4 C 51.5 109.4 51.9 109.8 51.9 109.8 C 51.5 110.4 50.7 110.7 49.9 110.7 C 48.3 110.7 47.1 109.6 47.1 108 C 47.1 106.5 48.2 105.3 49.7 105.3 C 51.2 105.3 52.3 106.4 52.3 108 C 52.3 108.1 52.3 108.2 52.3 108.2 Z M 47.9 107.7 C 47.9 107.7 51.6 107.7 51.6 107.7 C 51.5 106.7 50.7 106 49.7 106 C 48.7 106 47.9 106.7 47.9 107.7 Z M 58.5 107.6 C 58.51 107.6 58.5 110.6 58.5 110.6 L 57.8 110.6 C 57.8 110.6 57.8 107.67 57.8 107.7 C 57.8 106.6 57.2 106 56.2 106 C 55.1 106 54.4 106.7 54.4 107.9 C 54.38 107.89 54.4 110.6 54.4 110.6 L 53.7 110.6 L 53.7 105.4 L 54.3 105.4 C 54.3 105.4 54.35 106.36 54.3 106.4 C 54.7 105.7 55.4 105.3 56.3 105.3 C 57.6 105.3 58.5 106.1 58.5 107.6 Z M 67 107.4 C 67.03 107.39 67 110.6 67 110.6 L 66.3 110.6 C 66.3 110.6 66.35 109.83 66.3 109.8 C 66 110.4 65.4 110.7 64.5 110.7 C 63.3 110.7 62.6 110.1 62.6 109.2 C 62.6 108.4 63.1 107.7 64.6 107.7 C 64.65 107.68 66.3 107.7 66.3 107.7 C 66.3 107.7 66.32 107.36 66.3 107.4 C 66.3 106.5 65.8 106 64.8 106 C 64.1 106 63.5 106.2 63.1 106.6 C 63.1 106.6 62.8 106.1 62.8 106.1 C 63.3 105.6 64.1 105.3 64.9 105.3 C 66.3 105.3 67 106 67 107.4 Z M 66.3 109.1 C 66.32 109.07 66.3 108.2 66.3 108.2 C 66.3 108.2 64.67 108.21 64.7 108.2 C 63.6 108.2 63.3 108.6 63.3 109.1 C 63.3 109.8 63.8 110.1 64.6 110.1 C 65.4 110.1 66 109.8 66.3 109.1 Z M 68.2 110 C 68.2 110 68.6 109.5 68.6 109.5 C 69 109.8 69.7 110.1 70.4 110.1 C 71.4 110.1 71.8 109.7 71.8 109.2 C 71.8 107.8 68.4 108.9 68.4 106.8 C 68.4 106 69.2 105.3 70.5 105.3 C 71.2 105.3 71.9 105.5 72.4 105.8 C 72.4 105.8 72.1 106.4 72.1 106.4 C 71.6 106.1 71.1 106 70.5 106 C 69.6 106 69.1 106.3 69.1 106.8 C 69.1 108.2 72.6 107.2 72.6 109.2 C 72.6 110.1 71.8 110.7 70.4 110.7 C 69.5 110.7 68.7 110.4 68.2 110 Z M 85.2 107.6 C 85.16 107.6 85.2 110.6 85.2 110.6 L 84.5 110.6 C 84.5 110.6 84.45 107.67 84.5 107.7 C 84.5 106.6 83.9 106 82.9 106 C 81.9 106 81.2 106.7 81.2 107.9 C 81.18 107.89 81.2 110.6 81.2 110.6 L 80.5 110.6 C 80.5 110.6 80.47 107.67 80.5 107.7 C 80.5 106.6 79.9 106 79 106 C 77.9 106 77.2 106.7 77.2 107.9 C 77.19 107.89 77.2 110.6 77.2 110.6 L 76.5 110.6 L 76.5 105.4 L 77.2 105.4 C 77.2 105.4 77.16 106.35 77.2 106.3 C 77.5 105.7 78.2 105.3 79.1 105.3 C 80 105.3 80.6 105.7 81 106.5 C 81.3 105.8 82.1 105.3 83 105.3 C 84.3 105.3 85.2 106.1 85.2 107.6 Z M 91.7 105.4 L 91.7 110.6 L 91 110.6 C 91 110.6 91.02 109.69 91 109.7 C 90.6 110.3 90 110.7 89.1 110.7 C 87.8 110.7 86.9 109.9 86.9 108.4 C 86.91 108.44 86.9 105.4 86.9 105.4 L 87.6 105.4 C 87.6 105.4 87.62 108.37 87.6 108.4 C 87.6 109.5 88.2 110.1 89.2 110.1 C 90.3 110.1 91 109.3 91 108.1 C 90.99 108.15 91 105.4 91 105.4 L 91.7 105.4 Z M 93.1 108 C 93.1 106.4 94.3 105.3 95.9 105.3 C 96.7 105.3 97.5 105.7 97.9 106.4 C 97.9 106.4 97.4 106.7 97.4 106.7 C 97 106.2 96.5 106 95.9 106 C 94.7 106 93.9 106.8 93.9 108 C 93.9 109.3 94.7 110.1 95.9 110.1 C 96.5 110.1 97 109.8 97.4 109.3 C 97.4 109.3 97.9 109.7 97.9 109.7 C 97.5 110.3 96.7 110.7 95.9 110.7 C 94.3 110.7 93.1 109.6 93.1 108 Z M 104.1 107.6 C 104.07 107.6 104.1 110.6 104.1 110.6 L 103.4 110.6 C 103.4 110.6 103.36 107.67 103.4 107.7 C 103.4 106.6 102.8 106 101.8 106 C 100.6 106 99.9 106.7 99.9 107.9 C 99.94 107.89 99.9 110.6 99.9 110.6 L 99.2 110.6 L 99.2 103.2 L 99.9 103.2 C 99.9 103.2 99.94 106.31 99.9 106.3 C 100.3 105.7 101 105.3 101.9 105.3 C 103.2 105.3 104.1 106.1 104.1 107.6 Z M 111.4 110.3 C 111.1 110.6 110.7 110.7 110.3 110.7 C 109.3 110.7 108.7 110.1 108.7 109.2 C 108.74 109.17 108.7 106 108.7 106 L 107.8 106 L 107.8 105.4 L 108.7 105.4 L 108.7 104.2 L 109.4 104.2 L 109.4 105.4 L 111 105.4 L 111 106 L 109.4 106 C 109.4 106 109.45 109.13 109.4 109.1 C 109.4 109.7 109.8 110.1 110.4 110.1 C 110.6 110.1 110.9 110 111.1 109.8 C 111.1 109.8 111.4 110.3 111.4 110.3 Z M 112.4 103.7 C 112.4 103.5 112.6 103.2 112.9 103.2 C 113.2 103.2 113.5 103.4 113.5 103.7 C 113.5 104 113.2 104.2 112.9 104.2 C 112.6 104.2 112.4 104 112.4 103.7 Z M 112.6 105.4 L 113.3 105.4 L 113.3 110.6 L 112.6 110.6 L 112.6 105.4 Z M 123.8 107.6 C 123.81 107.6 123.8 110.6 123.8 110.6 L 123.1 110.6 C 123.1 110.6 123.1 107.67 123.1 107.7 C 123.1 106.6 122.5 106 121.6 106 C 120.5 106 119.8 106.7 119.8 107.9 C 119.83 107.89 119.8 110.6 119.8 110.6 L 119.1 110.6 C 119.1 110.6 119.12 107.67 119.1 107.7 C 119.1 106.6 118.6 106 117.6 106 C 116.5 106 115.8 106.7 115.8 107.9 C 115.84 107.89 115.8 110.6 115.8 110.6 L 115.1 110.6 L 115.1 105.4 L 115.8 105.4 C 115.8 105.4 115.81 106.35 115.8 106.3 C 116.2 105.7 116.9 105.3 117.7 105.3 C 118.6 105.3 119.3 105.7 119.6 106.5 C 120 105.8 120.7 105.3 121.7 105.3 C 123 105.3 123.8 106.1 123.8 107.6 Z M 130.3 108.2 C 130.3 108.2 125.9 108.2 125.9 108.2 C 126 109.3 126.8 110.1 128 110.1 C 128.6 110.1 129.2 109.8 129.6 109.4 C 129.6 109.4 130 109.8 130 109.8 C 129.5 110.4 128.8 110.7 128 110.7 C 126.3 110.7 125.2 109.6 125.2 108 C 125.2 106.5 126.3 105.3 127.8 105.3 C 129.3 105.3 130.3 106.4 130.3 108 C 130.3 108.1 130.3 108.2 130.3 108.2 Z M 125.9 107.7 C 125.9 107.7 129.6 107.7 129.6 107.7 C 129.6 106.7 128.8 106 127.8 106 C 126.8 106 126 106.7 125.9 107.7 Z M 138.4 107.4 C 138.36 107.39 138.4 110.6 138.4 110.6 L 137.7 110.6 C 137.7 110.6 137.68 109.83 137.7 109.8 C 137.4 110.4 136.7 110.7 135.9 110.7 C 134.7 110.7 134 110.1 134 109.2 C 134 108.4 134.5 107.7 136 107.7 C 135.98 107.68 137.7 107.7 137.7 107.7 C 137.7 107.7 137.65 107.36 137.7 107.4 C 137.7 106.5 137.1 106 136.2 106 C 135.5 106 134.8 106.2 134.4 106.6 C 134.4 106.6 134.1 106.1 134.1 106.1 C 134.6 105.6 135.4 105.3 136.2 105.3 C 137.6 105.3 138.4 106 138.4 107.4 Z M 137.7 109.1 C 137.65 109.07 137.7 108.2 137.7 108.2 C 137.7 108.2 136 108.21 136 108.2 C 135 108.2 134.6 108.6 134.6 109.1 C 134.6 109.8 135.1 110.1 136 110.1 C 136.8 110.1 137.4 109.8 137.7 109.1 Z M 145 107.6 C 145.01 107.6 145 110.6 145 110.6 L 144.3 110.6 C 144.3 110.6 144.31 107.67 144.3 107.7 C 144.3 106.6 143.7 106 142.7 106 C 141.6 106 140.9 106.7 140.9 107.9 C 140.88 107.89 140.9 110.6 140.9 110.6 L 140.2 110.6 L 140.2 105.4 L 140.9 105.4 C 140.9 105.4 140.85 106.36 140.9 106.4 C 141.2 105.7 141.9 105.3 142.9 105.3 C 144.1 105.3 145 106.1 145 107.6 Z M 151.7 103.2 L 151.7 110.6 L 151 110.6 C 151 110.6 151.05 109.61 151 109.6 C 150.6 110.3 149.9 110.7 149 110.7 C 147.5 110.7 146.4 109.6 146.4 108 C 146.4 106.4 147.5 105.3 149 105.3 C 149.9 105.3 150.6 105.7 151 106.4 C 151.02 106.39 151 103.2 151 103.2 L 151.7 103.2 Z M 151 108 C 151 106.8 150.2 106 149.1 106 C 148 106 147.1 106.8 147.1 108 C 147.1 109.2 148 110.1 149.1 110.1 C 150.2 110.1 151 109.2 151 108 Z M 159 105.3 C 159 105.3 159 106 159 106 C 158.9 106 158.9 106 158.8 106 C 157.7 106 157 106.7 157 108 C 157.04 107.97 157 110.6 157 110.6 L 156.3 110.6 L 156.3 105.4 L 157 105.4 C 157 105.4 157.01 106.42 157 106.4 C 157.3 105.7 158 105.3 159 105.3 Z M 164.7 108.2 C 164.7 108.2 160.3 108.2 160.3 108.2 C 160.4 109.3 161.2 110.1 162.4 110.1 C 163 110.1 163.6 109.8 164 109.4 C 164 109.4 164.4 109.8 164.4 109.8 C 163.9 110.4 163.2 110.7 162.4 110.7 C 160.7 110.7 159.6 109.6 159.6 108 C 159.6 106.5 160.7 105.3 162.2 105.3 C 163.7 105.3 164.7 106.4 164.7 108 C 164.7 108.1 164.7 108.2 164.7 108.2 Z M 160.3 107.7 C 160.3 107.7 164 107.7 164 107.7 C 164 106.7 163.2 106 162.2 106 C 161.2 106 160.4 106.7 160.3 107.7 Z M 165.5 110 C 165.5 110 165.8 109.5 165.8 109.5 C 166.3 109.8 167 110.1 167.7 110.1 C 168.7 110.1 169.1 109.7 169.1 109.2 C 169.1 107.8 165.7 108.9 165.7 106.8 C 165.7 106 166.5 105.3 167.8 105.3 C 168.5 105.3 169.2 105.5 169.7 105.8 C 169.7 105.8 169.3 106.4 169.3 106.4 C 168.9 106.1 168.3 106 167.8 106 C 166.8 106 166.4 106.3 166.4 106.8 C 166.4 108.2 169.8 107.2 169.8 109.2 C 169.8 110.1 169 110.7 167.7 110.7 C 166.8 110.7 166 110.4 165.5 110 Z M 170.7 108 C 170.7 106.5 171.8 105.3 173.4 105.3 C 174.9 105.3 176.1 106.5 176.1 108 C 176.1 109.6 174.9 110.7 173.4 110.7 C 171.8 110.7 170.7 109.6 170.7 108 Z M 175.3 108 C 175.3 106.8 174.5 106 173.4 106 C 172.3 106 171.4 106.8 171.4 108 C 171.4 109.2 172.3 110.1 173.4 110.1 C 174.5 110.1 175.3 109.2 175.3 108 Z M 182.2 105.4 L 182.2 110.6 L 181.5 110.6 C 181.5 110.6 181.53 109.69 181.5 109.7 C 181.2 110.3 180.5 110.7 179.6 110.7 C 178.3 110.7 177.4 109.9 177.4 108.4 C 177.42 108.44 177.4 105.4 177.4 105.4 L 178.1 105.4 C 178.1 105.4 178.13 108.37 178.1 108.4 C 178.1 109.5 178.7 110.1 179.7 110.1 C 180.8 110.1 181.5 109.3 181.5 108.1 C 181.5 108.15 181.5 105.4 181.5 105.4 L 182.2 105.4 Z M 186.7 105.3 C 186.7 105.3 186.7 106 186.7 106 C 186.7 106 186.6 106 186.6 106 C 185.5 106 184.8 106.7 184.8 108 C 184.79 107.97 184.8 110.6 184.8 110.6 L 184.1 110.6 L 184.1 105.4 L 184.8 105.4 C 184.8 105.4 184.76 106.42 184.8 106.4 C 185.1 105.7 185.8 105.3 186.7 105.3 Z M 187.3 108 C 187.3 106.4 188.5 105.3 190.1 105.3 C 190.9 105.3 191.7 105.7 192.1 106.4 C 192.1 106.4 191.6 106.7 191.6 106.7 C 191.2 106.2 190.7 106 190.1 106 C 188.9 106 188.1 106.8 188.1 108 C 188.1 109.3 188.9 110.1 190.1 110.1 C 190.7 110.1 191.2 109.8 191.6 109.3 C 191.6 109.3 192.1 109.7 192.1 109.7 C 191.7 110.3 190.9 110.7 190.1 110.7 C 188.5 110.7 187.3 109.6 187.3 108 Z M 198 108.2 C 198 108.2 193.6 108.2 193.6 108.2 C 193.7 109.3 194.6 110.1 195.7 110.1 C 196.3 110.1 196.9 109.8 197.3 109.4 C 197.3 109.4 197.7 109.8 197.7 109.8 C 197.2 110.4 196.5 110.7 195.7 110.7 C 194 110.7 192.9 109.6 192.9 108 C 192.9 106.5 194 105.3 195.5 105.3 C 197 105.3 198 106.4 198 108 C 198 108.1 198 108.2 198 108.2 Z M 193.6 107.7 C 193.6 107.7 197.4 107.7 197.4 107.7 C 197.3 106.7 196.5 106 195.5 106 C 194.5 106 193.7 106.7 193.6 107.7 Z M 206.1 107.4 C 206.08 107.39 206.1 110.6 206.1 110.6 L 205.4 110.6 C 205.4 110.6 205.4 109.83 205.4 109.8 C 205.1 110.4 204.5 110.7 203.6 110.7 C 202.4 110.7 201.7 110.1 201.7 109.2 C 201.7 108.4 202.2 107.7 203.7 107.7 C 203.7 107.68 205.4 107.7 205.4 107.7 C 205.4 107.7 205.37 107.36 205.4 107.4 C 205.4 106.5 204.9 106 203.9 106 C 203.2 106 202.6 106.2 202.1 106.6 C 202.1 106.6 201.8 106.1 201.8 106.1 C 202.3 105.6 203.1 105.3 204 105.3 C 205.3 105.3 206.1 106 206.1 107.4 Z M 205.4 109.1 C 205.37 109.07 205.4 108.2 205.4 108.2 C 205.4 108.2 203.72 108.21 203.7 108.2 C 202.7 108.2 202.4 108.6 202.4 109.1 C 202.4 109.8 202.9 110.1 203.7 110.1 C 204.5 110.1 205.1 109.8 205.4 109.1 Z M 207.3 110 C 207.3 110 207.6 109.5 207.6 109.5 C 208 109.8 208.7 110.1 209.5 110.1 C 210.5 110.1 210.9 109.7 210.9 109.2 C 210.9 107.8 207.5 108.9 207.5 106.8 C 207.5 106 208.2 105.3 209.6 105.3 C 210.2 105.3 211 105.5 211.4 105.8 C 211.4 105.8 211.1 106.4 211.1 106.4 C 210.7 106.1 210.1 106 209.6 106 C 208.6 106 208.2 106.3 208.2 106.8 C 208.2 108.2 211.6 107.2 211.6 109.2 C 211.6 110.1 210.8 110.7 209.4 110.7 C 208.6 110.7 207.7 110.4 207.3 110 Z M 220.4 107.6 C 220.37 107.6 220.4 110.6 220.4 110.6 L 219.7 110.6 C 219.7 110.6 219.67 107.67 219.7 107.7 C 219.7 106.6 219.1 106 218.1 106 C 217 106 216.2 106.7 216.2 107.9 C 216.24 107.89 216.2 110.6 216.2 110.6 L 215.5 110.6 L 215.5 105.4 L 216.2 105.4 C 216.2 105.4 216.21 106.36 216.2 106.4 C 216.6 105.7 217.3 105.3 218.2 105.3 C 219.5 105.3 220.4 106.1 220.4 107.6 Z M 226.9 108.2 C 226.9 108.2 222.5 108.2 222.5 108.2 C 222.5 109.3 223.4 110.1 224.5 110.1 C 225.2 110.1 225.7 109.8 226.1 109.4 C 226.1 109.4 226.5 109.8 226.5 109.8 C 226.1 110.4 225.3 110.7 224.5 110.7 C 222.9 110.7 221.8 109.6 221.8 108 C 221.8 106.5 222.8 105.3 224.3 105.3 C 225.8 105.3 226.9 106.4 226.9 108 C 226.9 108.1 226.9 108.2 226.9 108.2 Z M 222.5 107.7 C 222.5 107.7 226.2 107.7 226.2 107.7 C 226.1 106.7 225.4 106 224.3 106 C 223.3 106 222.6 106.7 222.5 107.7 Z M 227.9 108 C 227.9 106.4 229 105.3 230.6 105.3 C 231.5 105.3 232.2 105.7 232.6 106.4 C 232.6 106.4 232.1 106.7 232.1 106.7 C 231.8 106.2 231.2 106 230.6 106 C 229.4 106 228.6 106.8 228.6 108 C 228.6 109.3 229.4 110.1 230.6 110.1 C 231.2 110.1 231.8 109.8 232.1 109.3 C 232.1 109.3 232.6 109.7 232.6 109.7 C 232.2 110.3 231.5 110.7 230.6 110.7 C 229 110.7 227.9 109.6 227.9 108 Z M 238.6 108.2 C 238.6 108.2 234.2 108.2 234.2 108.2 C 234.2 109.3 235.1 110.1 236.2 110.1 C 236.9 110.1 237.4 109.8 237.8 109.4 C 237.8 109.4 238.2 109.8 238.2 109.8 C 237.8 110.4 237 110.7 236.2 110.7 C 234.6 110.7 233.5 109.6 233.5 108 C 233.5 106.5 234.5 105.3 236 105.3 C 237.5 105.3 238.6 106.4 238.6 108 C 238.6 108.1 238.6 108.2 238.6 108.2 Z M 234.2 107.7 C 234.2 107.7 237.9 107.7 237.9 107.7 C 237.8 106.7 237.1 106 236 106 C 235 106 234.3 106.7 234.2 107.7 Z M 239.4 110 C 239.4 110 239.7 109.5 239.7 109.5 C 240.1 109.8 240.8 110.1 241.6 110.1 C 242.6 110.1 243 109.7 243 109.2 C 243 107.8 239.6 108.9 239.6 106.8 C 239.6 106 240.3 105.3 241.6 105.3 C 242.3 105.3 243.1 105.5 243.5 105.8 C 243.5 105.8 243.2 106.4 243.2 106.4 C 242.7 106.1 242.2 106 241.6 106 C 240.7 106 240.3 106.3 240.3 106.8 C 240.3 108.2 243.7 107.2 243.7 109.2 C 243.7 110.1 242.9 110.7 241.5 110.7 C 240.6 110.7 239.8 110.4 239.4 110 Z M 244.4 110 C 244.4 110 244.7 109.5 244.7 109.5 C 245.2 109.8 245.9 110.1 246.6 110.1 C 247.6 110.1 248 109.7 248 109.2 C 248 107.8 244.6 108.9 244.6 106.8 C 244.6 106 245.4 105.3 246.7 105.3 C 247.4 105.3 248.1 105.5 248.6 105.8 C 248.6 105.8 248.2 106.4 248.2 106.4 C 247.8 106.1 247.2 106 246.7 106 C 245.7 106 245.3 106.3 245.3 106.8 C 245.3 108.2 248.7 107.2 248.7 109.2 C 248.7 110.1 247.9 110.7 246.6 110.7 C 245.7 110.7 244.9 110.4 244.4 110 Z M 254.1 107.4 C 254.12 107.39 254.1 110.6 254.1 110.6 L 253.4 110.6 C 253.4 110.6 253.44 109.83 253.4 109.8 C 253.1 110.4 252.5 110.7 251.6 110.7 C 250.4 110.7 249.7 110.1 249.7 109.2 C 249.7 108.4 250.2 107.7 251.7 107.7 C 251.74 107.68 253.4 107.7 253.4 107.7 C 253.4 107.7 253.41 107.36 253.4 107.4 C 253.4 106.5 252.9 106 251.9 106 C 251.2 106 250.6 106.2 250.2 106.6 C 250.2 106.6 249.9 106.1 249.9 106.1 C 250.4 105.6 251.2 105.3 252 105.3 C 253.4 105.3 254.1 106 254.1 107.4 Z M 253.4 109.1 C 253.41 109.07 253.4 108.2 253.4 108.2 C 253.4 108.2 251.76 108.21 251.8 108.2 C 250.7 108.2 250.4 108.6 250.4 109.1 C 250.4 109.8 250.9 110.1 251.7 110.1 C 252.5 110.1 253.1 109.8 253.4 109.1 Z M 258.6 105.3 C 258.6 105.3 258.6 106 258.6 106 C 258.5 106 258.5 106 258.4 106 C 257.3 106 256.6 106.7 256.6 108 C 256.65 107.97 256.6 110.6 256.6 110.6 L 255.9 110.6 L 255.9 105.4 L 256.6 105.4 C 256.6 105.4 256.62 106.42 256.6 106.4 C 256.9 105.7 257.6 105.3 258.6 105.3 Z M 264.7 105.4 C 264.7 105.4 262.07 111.28 262.1 111.3 C 261.6 112.3 261.1 112.6 260.3 112.6 C 259.8 112.6 259.4 112.5 259 112.2 C 259 112.2 259.4 111.6 259.4 111.6 C 259.6 111.9 260 112 260.3 112 C 260.8 112 261.1 111.8 261.4 111.1 C 261.42 111.15 261.7 110.6 261.7 110.6 L 259.3 105.4 L 260 105.4 L 262 109.9 L 264 105.4 L 264.7 105.4 Z M 264.8 110.1 C 264.8 109.8 265.1 109.6 265.3 109.6 C 265.6 109.6 265.9 109.8 265.9 110.1 C 265.9 110.5 265.6 110.7 265.3 110.7 C 265.1 110.7 264.8 110.5 264.8 110.1 Z " stroke="none" fill="#323132"/>
  </g>
  <g id="Polygon123333">
    <path d="M 20.4 108 L 16.2 110.1 L 16.2 105.9 L 20.4 108 Z " stroke="none" fill="#a243ff"/>
  </g>
  <g id="Polygon123332">
    <path d="M 38 87.8 C 38 89 37.1 89.6 35.4 89.6 C 35.36 89.65 32.1 89.6 32.1 89.6 L 32.1 82.6 C 32.1 82.6 35.16 82.65 35.2 82.6 C 36.7 82.6 37.6 83.3 37.6 84.4 C 37.6 85.2 37.2 85.8 36.6 86 C 37.5 86.2 38 86.8 38 87.8 Z M 32.9 83.3 L 32.9 85.8 C 32.9 85.8 35.11 85.8 35.1 85.8 C 36.2 85.8 36.9 85.4 36.9 84.5 C 36.9 83.7 36.2 83.3 35.1 83.3 C 35.11 83.26 32.9 83.3 32.9 83.3 Z M 37.3 87.7 C 37.3 86.8 36.6 86.4 35.4 86.4 C 35.35 86.41 32.9 86.4 32.9 86.4 L 32.9 89 C 32.9 89 35.35 89.04 35.4 89 C 36.6 89 37.3 88.6 37.3 87.7 Z M 43.6 86.4 C 43.59 86.39 43.6 89.6 43.6 89.6 L 42.9 89.6 C 42.9 89.6 42.92 88.83 42.9 88.8 C 42.6 89.4 42 89.7 41.1 89.7 C 39.9 89.7 39.2 89.1 39.2 88.2 C 39.2 87.4 39.7 86.7 41.2 86.7 C 41.21 86.68 42.9 86.7 42.9 86.7 C 42.9 86.7 42.89 86.36 42.9 86.4 C 42.9 85.5 42.4 85 41.4 85 C 40.7 85 40.1 85.2 39.6 85.6 C 39.6 85.6 39.3 85.1 39.3 85.1 C 39.9 84.6 40.6 84.3 41.5 84.3 C 42.8 84.3 43.6 85 43.6 86.4 Z M 42.9 88.1 C 42.89 88.07 42.9 87.2 42.9 87.2 C 42.9 87.2 41.23 87.21 41.2 87.2 C 40.2 87.2 39.9 87.6 39.9 88.1 C 39.9 88.8 40.4 89.1 41.2 89.1 C 42 89.1 42.6 88.8 42.9 88.1 Z M 44.8 89 C 44.8 89 45.1 88.5 45.1 88.5 C 45.5 88.8 46.3 89.1 47 89.1 C 48 89.1 48.4 88.7 48.4 88.2 C 48.4 86.8 45 87.9 45 85.8 C 45 85 45.7 84.3 47.1 84.3 C 47.8 84.3 48.5 84.5 48.9 84.8 C 48.9 84.8 48.6 85.4 48.6 85.4 C 48.2 85.1 47.6 85 47.1 85 C 46.1 85 45.7 85.3 45.7 85.8 C 45.7 87.2 49.1 86.2 49.1 88.2 C 49.1 89.1 48.3 89.7 46.9 89.7 C 46.1 89.7 45.2 89.4 44.8 89 Z M 55.1 87.2 C 55.1 87.2 50.7 87.2 50.7 87.2 C 50.8 88.3 51.6 89.1 52.8 89.1 C 53.4 89.1 54 88.8 54.4 88.4 C 54.4 88.4 54.8 88.8 54.8 88.8 C 54.3 89.4 53.6 89.7 52.8 89.7 C 51.1 89.7 50 88.6 50 87 C 50 85.5 51.1 84.3 52.6 84.3 C 54 84.3 55.1 85.4 55.1 87 C 55.1 87.1 55.1 87.2 55.1 87.2 Z M 50.7 86.7 C 50.7 86.7 54.4 86.7 54.4 86.7 C 54.3 85.7 53.6 85 52.6 85 C 51.5 85 50.8 85.7 50.7 86.7 Z M 61.4 82.2 L 61.4 89.6 L 60.8 89.6 C 60.8 89.6 60.77 88.61 60.8 88.6 C 60.3 89.3 59.6 89.7 58.7 89.7 C 57.2 89.7 56.1 88.6 56.1 87 C 56.1 85.4 57.2 84.3 58.7 84.3 C 59.6 84.3 60.3 84.7 60.7 85.4 C 60.74 85.39 60.7 82.2 60.7 82.2 L 61.4 82.2 Z M 60.7 87 C 60.7 85.8 59.9 85 58.8 85 C 57.7 85 56.8 85.8 56.8 87 C 56.8 88.2 57.7 89.1 58.8 89.1 C 59.9 89.1 60.7 88.2 60.7 87 Z M 65.5 87 C 65.5 85.5 66.7 84.3 68.2 84.3 C 69.7 84.3 70.9 85.5 70.9 87 C 70.9 88.6 69.7 89.7 68.2 89.7 C 66.7 89.7 65.5 88.6 65.5 87 Z M 70.1 87 C 70.1 85.8 69.3 85 68.2 85 C 67.1 85 66.2 85.8 66.2 87 C 66.2 88.2 67.1 89.1 68.2 89.1 C 69.3 89.1 70.1 88.2 70.1 87 Z M 77.1 86.6 C 77.13 86.6 77.1 89.6 77.1 89.6 L 76.4 89.6 C 76.4 89.6 76.43 86.67 76.4 86.7 C 76.4 85.6 75.8 85 74.8 85 C 73.7 85 73 85.7 73 86.9 C 73 86.89 73 89.6 73 89.6 L 72.3 89.6 L 72.3 84.4 L 73 84.4 C 73 84.4 72.97 85.36 73 85.4 C 73.4 84.7 74.1 84.3 75 84.3 C 76.3 84.3 77.1 85.1 77.1 86.6 Z M 85.7 86.4 C 85.65 86.39 85.7 89.6 85.7 89.6 L 85 89.6 C 85 89.6 84.98 88.83 85 88.8 C 84.7 89.4 84 89.7 83.2 89.7 C 82 89.7 81.2 89.1 81.2 88.2 C 81.2 87.4 81.8 86.7 83.3 86.7 C 83.27 86.68 84.9 86.7 84.9 86.7 C 84.9 86.7 84.95 86.36 84.9 86.4 C 84.9 85.5 84.4 85 83.5 85 C 82.8 85 82.1 85.2 81.7 85.6 C 81.7 85.6 81.4 85.1 81.4 85.1 C 81.9 84.6 82.7 84.3 83.5 84.3 C 84.9 84.3 85.7 85 85.7 86.4 Z M 84.9 88.1 C 84.95 88.07 84.9 87.2 84.9 87.2 C 84.9 87.2 83.29 87.21 83.3 87.2 C 82.3 87.2 81.9 87.6 81.9 88.1 C 81.9 88.8 82.4 89.1 83.3 89.1 C 84.1 89.1 84.7 88.8 84.9 88.1 Z M 92.3 86.6 C 92.31 86.6 92.3 89.6 92.3 89.6 L 91.6 89.6 C 91.6 89.6 91.6 86.67 91.6 86.7 C 91.6 85.6 91 85 90 85 C 88.9 85 88.2 85.7 88.2 86.9 C 88.18 86.89 88.2 89.6 88.2 89.6 L 87.5 89.6 L 87.5 84.4 L 88.1 84.4 C 88.1 84.4 88.15 85.36 88.1 85.4 C 88.5 84.7 89.2 84.3 90.1 84.3 C 91.4 84.3 92.3 85.1 92.3 86.6 Z M 100.8 86.4 C 100.83 86.39 100.8 89.6 100.8 89.6 L 100.1 89.6 C 100.1 89.6 100.15 88.83 100.1 88.8 C 99.8 89.4 99.2 89.7 98.3 89.7 C 97.1 89.7 96.4 89.1 96.4 88.2 C 96.4 87.4 96.9 86.7 98.4 86.7 C 98.45 86.68 100.1 86.7 100.1 86.7 C 100.1 86.7 100.12 86.36 100.1 86.4 C 100.1 85.5 99.6 85 98.6 85 C 97.9 85 97.3 85.2 96.9 85.6 C 96.9 85.6 96.6 85.1 96.6 85.1 C 97.1 84.6 97.9 84.3 98.7 84.3 C 100.1 84.3 100.8 85 100.8 86.4 Z M 100.1 88.1 C 100.12 88.07 100.1 87.2 100.1 87.2 C 100.1 87.2 98.47 87.21 98.5 87.2 C 97.4 87.2 97.1 87.6 97.1 88.1 C 97.1 88.8 97.6 89.1 98.4 89.1 C 99.2 89.1 99.8 88.8 100.1 88.1 Z M 107.5 86.6 C 107.48 86.6 107.5 89.6 107.5 89.6 L 106.8 89.6 C 106.8 89.6 106.77 86.67 106.8 86.7 C 106.8 85.6 106.2 85 105.2 85 C 104.1 85 103.4 85.7 103.4 86.9 C 103.35 86.89 103.4 89.6 103.4 89.6 L 102.6 89.6 L 102.6 84.4 L 103.3 84.4 C 103.3 84.4 103.32 85.36 103.3 85.4 C 103.7 84.7 104.4 84.3 105.3 84.3 C 106.6 84.3 107.5 85.1 107.5 86.6 Z M 113.3 86.4 C 113.3 86.39 113.3 89.6 113.3 89.6 L 112.6 89.6 C 112.6 89.6 112.62 88.83 112.6 88.8 C 112.3 89.4 111.7 89.7 110.8 89.7 C 109.6 89.7 108.9 89.1 108.9 88.2 C 108.9 87.4 109.4 86.7 110.9 86.7 C 110.92 86.68 112.6 86.7 112.6 86.7 C 112.6 86.7 112.59 86.36 112.6 86.4 C 112.6 85.5 112.1 85 111.1 85 C 110.4 85 109.8 85.2 109.4 85.6 C 109.4 85.6 109 85.1 109 85.1 C 109.6 84.6 110.3 84.3 111.2 84.3 C 112.5 84.3 113.3 85 113.3 86.4 Z M 112.6 88.1 C 112.59 88.07 112.6 87.2 112.6 87.2 C 112.6 87.2 110.94 87.21 110.9 87.2 C 109.9 87.2 109.6 87.6 109.6 88.1 C 109.6 88.8 110.1 89.1 110.9 89.1 C 111.7 89.1 112.3 88.8 112.6 88.1 Z M 115.1 82.2 L 115.8 82.2 L 115.8 89.6 L 115.1 89.6 L 115.1 82.2 Z M 122.3 84.4 C 122.3 84.4 119.63 90.28 119.6 90.3 C 119.2 91.3 118.6 91.6 117.9 91.6 C 117.4 91.6 116.9 91.5 116.6 91.2 C 116.6 91.2 116.9 90.6 116.9 90.6 C 117.2 90.9 117.5 91 117.9 91 C 118.4 91 118.7 90.8 119 90.1 C 118.98 90.15 119.2 89.6 119.2 89.6 L 116.9 84.4 L 117.6 84.4 L 119.6 88.9 L 121.6 84.4 L 122.3 84.4 Z M 122.6 89 C 122.6 89 122.9 88.5 122.9 88.5 C 123.4 88.8 124.1 89.1 124.8 89.1 C 125.8 89.1 126.2 88.7 126.2 88.2 C 126.2 86.8 122.8 87.9 122.8 85.8 C 122.8 85 123.6 84.3 124.9 84.3 C 125.6 84.3 126.3 84.5 126.8 84.8 C 126.8 84.8 126.4 85.4 126.4 85.4 C 126 85.1 125.4 85 124.9 85 C 123.9 85 123.5 85.3 123.5 85.8 C 123.5 87.2 126.9 86.2 126.9 88.2 C 126.9 89.1 126.1 89.7 124.8 89.7 C 123.9 89.7 123.1 89.4 122.6 89 Z M 128.1 82.7 C 128.1 82.5 128.3 82.2 128.6 82.2 C 128.9 82.2 129.1 82.4 129.1 82.7 C 129.1 83 128.9 83.2 128.6 83.2 C 128.3 83.2 128.1 83 128.1 82.7 Z M 128.2 84.4 L 129 84.4 L 129 89.6 L 128.2 89.6 L 128.2 84.4 Z M 130.2 89 C 130.2 89 130.5 88.5 130.5 88.5 C 131 88.8 131.7 89.1 132.4 89.1 C 133.4 89.1 133.8 88.7 133.8 88.2 C 133.8 86.8 130.4 87.9 130.4 85.8 C 130.4 85 131.2 84.3 132.5 84.3 C 133.2 84.3 133.9 84.5 134.4 84.8 C 134.4 84.8 134 85.4 134 85.4 C 133.6 85.1 133 85 132.5 85 C 131.5 85 131.1 85.3 131.1 85.8 C 131.1 87.2 134.5 86.2 134.5 88.2 C 134.5 89.1 133.7 89.7 132.4 89.7 C 131.5 89.7 130.7 89.4 130.2 89 Z M 137.9 87 C 137.9 85.5 139.1 84.3 140.6 84.3 C 142.2 84.3 143.3 85.5 143.3 87 C 143.3 88.6 142.2 89.7 140.6 89.7 C 139.1 89.7 137.9 88.6 137.9 87 Z M 142.6 87 C 142.6 85.8 141.7 85 140.6 85 C 139.5 85 138.7 85.8 138.7 87 C 138.7 88.2 139.5 89.1 140.6 89.1 C 141.7 89.1 142.6 88.2 142.6 87 Z M 145.5 83.8 C 145.48 83.77 145.5 84.4 145.5 84.4 L 147.1 84.4 L 147.1 85 L 145.5 85 L 145.5 89.6 L 144.8 89.6 L 144.8 85 L 143.8 85 L 143.8 84.4 L 144.8 84.4 C 144.8 84.4 144.79 83.74 144.8 83.7 C 144.8 82.8 145.3 82.2 146.4 82.2 C 146.8 82.2 147.2 82.3 147.4 82.5 C 147.4 82.5 147.2 83 147.2 83 C 147 82.9 146.7 82.8 146.4 82.8 C 145.8 82.8 145.5 83.1 145.5 83.8 Z M 153.4 89.3 C 153.2 89.6 152.7 89.7 152.3 89.7 C 151.3 89.7 150.8 89.1 150.8 88.2 C 150.8 88.17 150.8 85 150.8 85 L 149.9 85 L 149.9 84.4 L 150.8 84.4 L 150.8 83.2 L 151.5 83.2 L 151.5 84.4 L 153.1 84.4 L 153.1 85 L 151.5 85 C 151.5 85 151.51 88.13 151.5 88.1 C 151.5 88.7 151.8 89.1 152.4 89.1 C 152.7 89.1 153 89 153.2 88.8 C 153.2 88.8 153.4 89.3 153.4 89.3 Z M 159.5 86.6 C 159.48 86.6 159.5 89.6 159.5 89.6 L 158.8 89.6 C 158.8 89.6 158.77 86.67 158.8 86.7 C 158.8 85.6 158.2 85 157.2 85 C 156.1 85 155.3 85.7 155.3 86.9 C 155.35 86.89 155.3 89.6 155.3 89.6 L 154.6 89.6 L 154.6 82.2 L 155.3 82.2 C 155.3 82.2 155.35 85.31 155.3 85.3 C 155.7 84.7 156.4 84.3 157.3 84.3 C 158.6 84.3 159.5 85.1 159.5 86.6 Z M 166 87.2 C 166 87.2 161.6 87.2 161.6 87.2 C 161.6 88.3 162.5 89.1 163.6 89.1 C 164.3 89.1 164.8 88.8 165.3 88.4 C 165.3 88.4 165.6 88.8 165.6 88.8 C 165.2 89.4 164.4 89.7 163.6 89.7 C 162 89.7 160.9 88.6 160.9 87 C 160.9 85.5 161.9 84.3 163.4 84.3 C 164.9 84.3 166 85.4 166 87 C 166 87.1 166 87.2 166 87.2 Z M 161.6 86.7 C 161.6 86.7 165.3 86.7 165.3 86.7 C 165.2 85.7 164.5 85 163.4 85 C 162.4 85 161.7 85.7 161.6 86.7 Z M 169.9 82.7 C 169.9 82.5 170.1 82.2 170.4 82.2 C 170.7 82.2 170.9 82.4 170.9 82.7 C 170.9 83 170.7 83.2 170.4 83.2 C 170.1 83.2 169.9 83 169.9 82.7 Z M 170 84.4 L 170.8 84.4 L 170.8 89.6 L 170 89.6 L 170 84.4 Z M 177.4 86.6 C 177.44 86.6 177.4 89.6 177.4 89.6 L 176.7 89.6 C 176.7 89.6 176.73 86.67 176.7 86.7 C 176.7 85.6 176.2 85 175.2 85 C 174 85 173.3 85.7 173.3 86.9 C 173.31 86.89 173.3 89.6 173.3 89.6 L 172.6 89.6 L 172.6 84.4 L 173.3 84.4 C 173.3 84.4 173.28 85.36 173.3 85.4 C 173.7 84.7 174.4 84.3 175.3 84.3 C 176.6 84.3 177.4 85.1 177.4 86.6 Z M 180 83.8 C 180.04 83.77 180 84.4 180 84.4 L 181.7 84.4 L 181.7 85 L 180.1 85 L 180.1 89.6 L 179.4 89.6 L 179.4 85 L 178.4 85 L 178.4 84.4 L 179.4 84.4 C 179.4 84.4 179.35 83.74 179.4 83.7 C 179.4 82.8 179.9 82.2 180.9 82.2 C 181.3 82.2 181.7 82.3 182 82.5 C 182 82.5 181.8 83 181.8 83 C 181.6 82.9 181.3 82.8 181 82.8 C 180.4 82.8 180 83.1 180 83.8 Z M 182.1 87 C 182.1 85.5 183.2 84.3 184.8 84.3 C 186.3 84.3 187.4 85.5 187.4 87 C 187.4 88.6 186.3 89.7 184.8 89.7 C 183.2 89.7 182.1 88.6 182.1 87 Z M 186.7 87 C 186.7 85.8 185.9 85 184.8 85 C 183.6 85 182.8 85.8 182.8 87 C 182.8 88.2 183.6 89.1 184.8 89.1 C 185.9 89.1 186.7 88.2 186.7 87 Z M 191.5 84.3 C 191.5 84.3 191.5 85 191.5 85 C 191.4 85 191.4 85 191.3 85 C 190.2 85 189.6 85.7 189.6 87 C 189.56 86.97 189.6 89.6 189.6 89.6 L 188.8 89.6 L 188.8 84.4 L 189.5 84.4 C 189.5 84.4 189.53 85.42 189.5 85.4 C 189.9 84.7 190.5 84.3 191.5 84.3 Z M 201.4 86.6 C 201.4 86.6 201.4 89.6 201.4 89.6 L 200.7 89.6 C 200.7 89.6 200.69 86.67 200.7 86.7 C 200.7 85.6 200.1 85 199.2 85 C 198.1 85 197.4 85.7 197.4 86.9 C 197.42 86.89 197.4 89.6 197.4 89.6 L 196.7 89.6 C 196.7 89.6 196.71 86.67 196.7 86.7 C 196.7 85.6 196.2 85 195.2 85 C 194.1 85 193.4 85.7 193.4 86.9 C 193.43 86.89 193.4 89.6 193.4 89.6 L 192.7 89.6 L 192.7 84.4 L 193.4 84.4 C 193.4 84.4 193.4 85.35 193.4 85.3 C 193.8 84.7 194.5 84.3 195.3 84.3 C 196.2 84.3 196.9 84.7 197.2 85.5 C 197.6 84.8 198.3 84.3 199.3 84.3 C 200.6 84.3 201.4 85.1 201.4 86.6 Z M 207.2 86.4 C 207.23 86.39 207.2 89.6 207.2 89.6 L 206.6 89.6 C 206.6 89.6 206.55 88.83 206.6 88.8 C 206.2 89.4 205.6 89.7 204.7 89.7 C 203.6 89.7 202.8 89.1 202.8 88.2 C 202.8 87.4 203.3 86.7 204.9 86.7 C 204.85 86.68 206.5 86.7 206.5 86.7 C 206.5 86.7 206.52 86.36 206.5 86.4 C 206.5 85.5 206 85 205 85 C 204.4 85 203.7 85.2 203.3 85.6 C 203.3 85.6 203 85.1 203 85.1 C 203.5 84.6 204.3 84.3 205.1 84.3 C 206.5 84.3 207.2 85 207.2 86.4 Z M 206.5 88.1 C 206.52 88.07 206.5 87.2 206.5 87.2 C 206.5 87.2 204.87 87.21 204.9 87.2 C 203.9 87.2 203.5 87.6 203.5 88.1 C 203.5 88.8 204 89.1 204.9 89.1 C 205.7 89.1 206.2 88.8 206.5 88.1 Z M 211.8 89.3 C 211.5 89.6 211.1 89.7 210.7 89.7 C 209.7 89.7 209.1 89.1 209.1 88.2 C 209.13 88.17 209.1 85 209.1 85 L 208.2 85 L 208.2 84.4 L 209.1 84.4 L 209.1 83.2 L 209.8 83.2 L 209.8 84.4 L 211.4 84.4 L 211.4 85 L 209.8 85 C 209.8 85 209.84 88.13 209.8 88.1 C 209.8 88.7 210.2 89.1 210.7 89.1 C 211 89.1 211.3 89 211.5 88.8 C 211.5 88.8 211.8 89.3 211.8 89.3 Z M 212.8 82.7 C 212.8 82.5 213 82.2 213.3 82.2 C 213.6 82.2 213.8 82.4 213.8 82.7 C 213.8 83 213.6 83.2 213.3 83.2 C 213 83.2 212.8 83 212.8 82.7 Z M 213 84.4 L 213.7 84.4 L 213.7 89.6 L 213 89.6 L 213 84.4 Z M 215.1 87 C 215.1 85.5 216.2 84.3 217.8 84.3 C 219.3 84.3 220.4 85.5 220.4 87 C 220.4 88.6 219.3 89.7 217.8 89.7 C 216.2 89.7 215.1 88.6 215.1 87 Z M 219.7 87 C 219.7 85.8 218.9 85 217.8 85 C 216.6 85 215.8 85.8 215.8 87 C 215.8 88.2 216.6 89.1 217.8 89.1 C 218.9 89.1 219.7 88.2 219.7 87 Z M 226.7 86.6 C 226.69 86.6 226.7 89.6 226.7 89.6 L 226 89.6 C 226 89.6 225.98 86.67 226 86.7 C 226 85.6 225.4 85 224.4 85 C 223.3 85 222.6 85.7 222.6 86.9 C 222.56 86.89 222.6 89.6 222.6 89.6 L 221.8 89.6 L 221.8 84.4 L 222.5 84.4 C 222.5 84.4 222.53 85.36 222.5 85.4 C 222.9 84.7 223.6 84.3 224.5 84.3 C 225.8 84.3 226.7 85.1 226.7 86.6 Z M 236.1 86.6 C 236.08 86.6 236.1 89.6 236.1 89.6 L 235.4 89.6 C 235.4 89.6 235.37 86.67 235.4 86.7 C 235.4 85.6 234.8 85 233.8 85 C 232.7 85 231.9 85.7 231.9 86.9 C 231.95 86.89 231.9 89.6 231.9 89.6 L 231.2 89.6 L 231.2 84.4 L 231.9 84.4 C 231.9 84.4 231.92 85.36 231.9 85.4 C 232.3 84.7 233 84.3 233.9 84.3 C 235.2 84.3 236.1 85.1 236.1 86.6 Z M 242.6 87.2 C 242.6 87.2 238.2 87.2 238.2 87.2 C 238.2 88.3 239.1 89.1 240.2 89.1 C 240.9 89.1 241.4 88.8 241.8 88.4 C 241.8 88.4 242.2 88.8 242.2 88.8 C 241.8 89.4 241 89.7 240.2 89.7 C 238.6 89.7 237.5 88.6 237.5 87 C 237.5 85.5 238.5 84.3 240 84.3 C 241.5 84.3 242.6 85.4 242.6 87 C 242.6 87.1 242.6 87.2 242.6 87.2 Z M 238.2 86.7 C 238.2 86.7 241.9 86.7 241.9 86.7 C 241.8 85.7 241.1 85 240 85 C 239 85 238.3 85.7 238.2 86.7 Z M 248.7 87.2 C 248.7 87.2 244.3 87.2 244.3 87.2 C 244.4 88.3 245.2 89.1 246.4 89.1 C 247 89.1 247.6 88.8 248 88.4 C 248 88.4 248.4 88.8 248.4 88.8 C 247.9 89.4 247.2 89.7 246.3 89.7 C 244.7 89.7 243.6 88.6 243.6 87 C 243.6 85.5 244.7 84.3 246.2 84.3 C 247.6 84.3 248.7 85.4 248.7 87 C 248.7 87.1 248.7 87.2 248.7 87.2 Z M 244.3 86.7 C 244.3 86.7 248 86.7 248 86.7 C 247.9 85.7 247.2 85 246.2 85 C 245.1 85 244.4 85.7 244.3 86.7 Z M 255 82.2 L 255 89.6 L 254.4 89.6 C 254.4 89.6 254.35 88.61 254.4 88.6 C 253.9 89.3 253.2 89.7 252.3 89.7 C 250.8 89.7 249.7 88.6 249.7 87 C 249.7 85.4 250.8 84.3 252.3 84.3 C 253.2 84.3 253.9 84.7 254.3 85.4 C 254.32 85.39 254.3 82.2 254.3 82.2 L 255 82.2 Z M 254.3 87 C 254.3 85.8 253.5 85 252.4 85 C 251.3 85 250.4 85.8 250.4 87 C 250.4 88.2 251.3 89.1 252.4 89.1 C 253.5 89.1 254.3 88.2 254.3 87 Z M 256.3 89 C 256.3 89 256.6 88.5 256.6 88.5 C 257.1 88.8 257.8 89.1 258.5 89.1 C 259.5 89.1 259.9 88.7 259.9 88.2 C 259.9 86.8 256.5 87.9 256.5 85.8 C 256.5 85 257.2 84.3 258.6 84.3 C 259.3 84.3 260 84.5 260.4 84.8 C 260.4 84.8 260.1 85.4 260.1 85.4 C 259.7 85.1 259.1 85 258.6 85 C 257.6 85 257.2 85.3 257.2 85.8 C 257.2 87.2 260.6 86.2 260.6 88.2 C 260.6 89.1 259.8 89.7 258.5 89.7 C 257.6 89.7 256.7 89.4 256.3 89 Z M 264 87 C 264 85.5 265.2 84.3 266.7 84.3 C 268.2 84.3 269.4 85.5 269.4 87 C 269.4 88.6 268.2 89.7 266.7 89.7 C 265.2 89.7 264 88.6 264 87 Z M 268.7 87 C 268.7 85.8 267.8 85 266.7 85 C 265.6 85 264.7 85.8 264.7 87 C 264.7 88.2 265.6 89.1 266.7 89.1 C 267.8 89.1 268.7 88.2 268.7 87 Z M 271.6 83.8 C 271.58 83.77 271.6 84.4 271.6 84.4 L 273.2 84.4 L 273.2 85 L 271.6 85 L 271.6 89.6 L 270.9 89.6 L 270.9 85 L 269.9 85 L 269.9 84.4 L 270.9 84.4 C 270.9 84.4 270.89 83.74 270.9 83.7 C 270.9 82.8 271.4 82.2 272.5 82.2 C 272.9 82.2 273.3 82.3 273.5 82.5 C 273.5 82.5 273.3 83 273.3 83 C 273.1 82.9 272.8 82.8 272.5 82.8 C 271.9 82.8 271.6 83.1 271.6 83.8 Z M 276.6 82.7 C 276.6 82.5 276.8 82.2 277.1 82.2 C 277.4 82.2 277.7 82.4 277.7 82.7 C 277.7 83 277.4 83.2 277.1 83.2 C 276.8 83.2 276.6 83 276.6 82.7 Z M 276.8 84.4 L 277.5 84.4 L 277.5 89.6 L 276.8 89.6 L 276.8 84.4 Z M 284.2 86.6 C 284.17 86.6 284.2 89.6 284.2 89.6 L 283.5 89.6 C 283.5 89.6 283.46 86.67 283.5 86.7 C 283.5 85.6 282.9 85 281.9 85 C 280.7 85 280 85.7 280 86.9 C 280.04 86.89 280 89.6 280 89.6 L 279.3 89.6 L 279.3 84.4 L 280 84.4 C 280 84.4 280.01 85.36 280 85.4 C 280.4 84.7 281.1 84.3 282 84.3 C 283.3 84.3 284.2 85.1 284.2 86.6 Z M 285.6 87 C 285.6 85.4 286.7 84.3 288.3 84.3 C 289.1 84.3 289.9 84.7 290.3 85.4 C 290.3 85.4 289.8 85.7 289.8 85.7 C 289.4 85.2 288.9 85 288.3 85 C 287.1 85 286.3 85.8 286.3 87 C 286.3 88.3 287.1 89.1 288.3 89.1 C 288.9 89.1 289.4 88.8 289.8 88.3 C 289.8 88.3 290.3 88.7 290.3 88.7 C 289.9 89.3 289.1 89.7 288.3 89.7 C 286.7 89.7 285.6 88.6 285.6 87 Z M 291.1 87 C 291.1 85.5 292.2 84.3 293.8 84.3 C 295.3 84.3 296.5 85.5 296.5 87 C 296.5 88.6 295.3 89.7 293.8 89.7 C 292.2 89.7 291.1 88.6 291.1 87 Z M 295.7 87 C 295.7 85.8 294.9 85 293.8 85 C 292.7 85 291.8 85.8 291.8 87 C 291.8 88.2 292.7 89.1 293.8 89.1 C 294.9 89.1 295.7 88.2 295.7 87 Z M 306.6 86.6 C 306.56 86.6 306.6 89.6 306.6 89.6 L 305.9 89.6 C 305.9 89.6 305.85 86.67 305.9 86.7 C 305.9 85.6 305.3 85 304.3 85 C 303.3 85 302.6 85.7 302.6 86.9 C 302.58 86.89 302.6 89.6 302.6 89.6 L 301.9 89.6 C 301.9 89.6 301.87 86.67 301.9 86.7 C 301.9 85.6 301.3 85 300.4 85 C 299.3 85 298.6 85.7 298.6 86.9 C 298.59 86.89 298.6 89.6 298.6 89.6 L 297.9 89.6 L 297.9 84.4 L 298.6 84.4 C 298.6 84.4 298.56 85.35 298.6 85.3 C 298.9 84.7 299.6 84.3 300.5 84.3 C 301.4 84.3 302 84.7 302.4 85.5 C 302.7 84.8 303.5 84.3 304.4 84.3 C 305.7 84.3 306.6 85.1 306.6 86.6 Z M 308.2 82.7 C 308.2 82.5 308.4 82.2 308.7 82.2 C 309 82.2 309.3 82.4 309.3 82.7 C 309.3 83 309 83.2 308.7 83.2 C 308.4 83.2 308.2 83 308.2 82.7 Z M 308.4 84.4 L 309.1 84.4 L 309.1 89.6 L 308.4 89.6 L 308.4 84.4 Z M 315.8 86.6 C 315.76 86.6 315.8 89.6 315.8 89.6 L 315.1 89.6 C 315.1 89.6 315.05 86.67 315.1 86.7 C 315.1 85.6 314.5 85 313.5 85 C 312.3 85 311.6 85.7 311.6 86.9 C 311.63 86.89 311.6 89.6 311.6 89.6 L 310.9 89.6 L 310.9 84.4 L 311.6 84.4 C 311.6 84.4 311.6 85.36 311.6 85.4 C 312 84.7 312.7 84.3 313.6 84.3 C 314.9 84.3 315.8 85.1 315.8 86.6 Z M 322.5 84.4 C 322.5 84.4 322.53 89.01 322.5 89 C 322.5 90.8 321.6 91.6 319.9 91.6 C 318.9 91.6 318 91.3 317.4 90.8 C 317.4 90.8 317.8 90.3 317.8 90.3 C 318.3 90.7 319.1 91 319.9 91 C 321.2 91 321.8 90.4 321.8 89.1 C 321.8 89.1 321.8 88.4 321.8 88.4 C 321.4 89.1 320.6 89.4 319.8 89.4 C 318.3 89.4 317.1 88.4 317.1 86.9 C 317.1 85.4 318.3 84.3 319.8 84.3 C 320.6 84.3 321.4 84.7 321.8 85.4 C 321.85 85.4 321.8 84.4 321.8 84.4 L 322.5 84.4 Z M 321.8 86.9 C 321.8 85.7 321 85 319.8 85 C 318.7 85 317.8 85.7 317.8 86.9 C 317.8 88 318.7 88.8 319.8 88.8 C 321 88.8 321.8 88 321.8 86.9 Z M 326.4 89 C 326.4 89 326.7 88.5 326.7 88.5 C 327.1 88.8 327.9 89.1 328.6 89.1 C 329.6 89.1 330 88.7 330 88.2 C 330 86.8 326.6 87.9 326.6 85.8 C 326.6 85 327.3 84.3 328.7 84.3 C 329.4 84.3 330.1 84.5 330.5 84.8 C 330.5 84.8 330.2 85.4 330.2 85.4 C 329.8 85.1 329.2 85 328.7 85 C 327.7 85 327.3 85.3 327.3 85.8 C 327.3 87.2 330.7 86.2 330.7 88.2 C 330.7 89.1 329.9 89.7 328.5 89.7 C 327.7 89.7 326.8 89.4 326.4 89 Z M 335 89.3 C 334.7 89.6 334.3 89.7 333.9 89.7 C 332.9 89.7 332.4 89.1 332.4 88.2 C 332.35 88.17 332.4 85 332.4 85 L 331.4 85 L 331.4 84.4 L 332.4 84.4 L 332.4 83.2 L 333.1 83.2 L 333.1 84.4 L 334.7 84.4 L 334.7 85 L 333.1 85 C 333.1 85 333.06 88.13 333.1 88.1 C 333.1 88.7 333.4 89.1 334 89.1 C 334.3 89.1 334.6 89 334.8 88.8 C 334.8 88.8 335 89.3 335 89.3 Z M 340.2 86.4 C 340.23 86.39 340.2 89.6 340.2 89.6 L 339.6 89.6 C 339.6 89.6 339.55 88.83 339.6 88.8 C 339.2 89.4 338.6 89.7 337.7 89.7 C 336.6 89.7 335.8 89.1 335.8 88.2 C 335.8 87.4 336.3 86.7 337.9 86.7 C 337.85 86.68 339.5 86.7 339.5 86.7 C 339.5 86.7 339.52 86.36 339.5 86.4 C 339.5 85.5 339 85 338 85 C 337.4 85 336.7 85.2 336.3 85.6 C 336.3 85.6 336 85.1 336 85.1 C 336.5 84.6 337.3 84.3 338.1 84.3 C 339.5 84.3 340.2 85 340.2 86.4 Z M 339.5 88.1 C 339.52 88.07 339.5 87.2 339.5 87.2 C 339.5 87.2 337.87 87.21 337.9 87.2 C 336.9 87.2 336.5 87.6 336.5 88.1 C 336.5 88.8 337 89.1 337.9 89.1 C 338.7 89.1 339.2 88.8 339.5 88.1 Z M 342.8 83.8 C 342.83 83.77 342.8 84.4 342.8 84.4 L 344.4 84.4 L 344.4 85 L 342.8 85 L 342.8 89.6 L 342.1 89.6 L 342.1 85 L 341.2 85 L 341.2 84.4 L 342.1 84.4 C 342.1 84.4 342.14 83.74 342.1 83.7 C 342.1 82.8 342.7 82.2 343.7 82.2 C 344.1 82.2 344.5 82.3 344.8 82.5 C 344.8 82.5 344.5 83 344.5 83 C 344.3 82.9 344.1 82.8 343.8 82.8 C 343.1 82.8 342.8 83.1 342.8 83.8 Z M 346.7 83.8 C 346.67 83.77 346.7 84.4 346.7 84.4 L 348.3 84.4 L 348.3 85 L 346.7 85 L 346.7 89.6 L 346 89.6 L 346 85 L 345 85 L 345 84.4 L 346 84.4 C 346 84.4 345.98 83.74 346 83.7 C 346 82.8 346.5 82.2 347.6 82.2 C 348 82.2 348.4 82.3 348.6 82.5 C 348.6 82.5 348.4 83 348.4 83 C 348.2 82.9 347.9 82.8 347.6 82.8 C 347 82.8 346.7 83.1 346.7 83.8 Z M 349.1 84.9 C 349.1 84.6 349.3 84.3 349.6 84.3 C 349.9 84.3 350.2 84.6 350.2 84.9 C 350.2 85.2 349.9 85.4 349.6 85.4 C 349.3 85.4 349.1 85.2 349.1 84.9 Z M 350.2 89.1 C 350.2 89.3 350.1 89.4 350 89.7 C 350.03 89.73 349.6 91.1 349.6 91.1 L 349.1 91.1 C 349.1 91.1 349.47 89.66 349.5 89.7 C 349.3 89.6 349.1 89.4 349.1 89.1 C 349.1 88.8 349.3 88.6 349.6 88.6 C 350 88.6 350.2 88.8 350.2 89.1 Z " stroke="none" fill="#323132"/>
  </g>
  <g id="Polygon123331">
    <path d="M 20.4 87 L 16.2 89.1 L 16.2 84.9 L 20.4 87 Z " stroke="none" fill="#a243ff"/>
  </g>
  <g id="Polygon123330">
    <path d="M 32.1 61.6 C 32.1 61.6 34.99 61.65 35 61.6 C 37.2 61.6 38.7 63.1 38.7 65.1 C 38.7 67.2 37.2 68.6 35 68.6 C 34.99 68.65 32.1 68.6 32.1 68.6 L 32.1 61.6 Z M 34.9 68 C 36.8 68 38 66.8 38 65.1 C 38 63.5 36.8 62.3 34.9 62.3 C 34.95 62.29 32.9 62.3 32.9 62.3 L 32.9 68 C 32.9 68 34.95 68.01 34.9 68 Z M 39.9 66 C 39.9 64.5 41 63.3 42.5 63.3 C 44.1 63.3 45.2 64.5 45.2 66 C 45.2 67.6 44.1 68.7 42.5 68.7 C 41 68.7 39.9 67.6 39.9 66 Z M 44.5 66 C 44.5 64.8 43.7 64 42.5 64 C 41.4 64 40.6 64.8 40.6 66 C 40.6 67.2 41.4 68.1 42.5 68.1 C 43.7 68.1 44.5 67.2 44.5 66 Z M 51.5 65.6 C 51.47 65.6 51.5 68.6 51.5 68.6 L 50.8 68.6 C 50.8 68.6 50.76 65.67 50.8 65.7 C 50.8 64.6 50.2 64 49.2 64 C 48 64 47.3 64.7 47.3 65.9 C 47.34 65.89 47.3 68.6 47.3 68.6 L 46.6 68.6 L 46.6 63.4 L 47.3 63.4 C 47.3 63.4 47.31 64.36 47.3 64.4 C 47.7 63.7 48.4 63.3 49.3 63.3 C 50.6 63.3 51.5 64.1 51.5 65.6 Z M 58 66.2 C 58 66.2 53.6 66.2 53.6 66.2 C 53.6 67.3 54.5 68.1 55.6 68.1 C 56.3 68.1 56.8 67.8 57.2 67.4 C 57.2 67.4 57.6 67.8 57.6 67.8 C 57.2 68.4 56.4 68.7 55.6 68.7 C 54 68.7 52.9 67.6 52.9 66 C 52.9 64.5 53.9 63.3 55.4 63.3 C 56.9 63.3 58 64.4 58 66 C 58 66.1 58 66.2 58 66.2 Z M 53.6 65.7 C 53.6 65.7 57.3 65.7 57.3 65.7 C 57.2 64.7 56.5 64 55.4 64 C 54.4 64 53.7 64.7 53.6 65.7 Z M 66.8 63.4 L 66.8 68.6 L 66.1 68.6 C 66.1 68.6 66.1 67.69 66.1 67.7 C 65.7 68.3 65.1 68.7 64.2 68.7 C 62.9 68.7 62 67.9 62 66.4 C 61.99 66.44 62 63.4 62 63.4 L 62.7 63.4 C 62.7 63.4 62.7 66.37 62.7 66.4 C 62.7 67.5 63.3 68.1 64.3 68.1 C 65.4 68.1 66.1 67.3 66.1 66.1 C 66.07 66.15 66.1 63.4 66.1 63.4 L 66.8 63.4 Z M 68.1 68 C 68.1 68 68.4 67.5 68.4 67.5 C 68.8 67.8 69.5 68.1 70.3 68.1 C 71.3 68.1 71.7 67.7 71.7 67.2 C 71.7 65.8 68.3 66.9 68.3 64.8 C 68.3 64 69 63.3 70.3 63.3 C 71 63.3 71.8 63.5 72.2 63.8 C 72.2 63.8 71.9 64.4 71.9 64.4 C 71.4 64.1 70.9 64 70.3 64 C 69.4 64 69 64.3 69 64.8 C 69 66.2 72.4 65.2 72.4 67.2 C 72.4 68.1 71.6 68.7 70.2 68.7 C 69.3 68.7 68.5 68.4 68.1 68 Z M 73.5 61.7 C 73.5 61.5 73.8 61.2 74 61.2 C 74.3 61.2 74.6 61.4 74.6 61.7 C 74.6 62 74.3 62.2 74 62.2 C 73.8 62.2 73.5 62 73.5 61.7 Z M 73.7 63.4 L 74.4 63.4 L 74.4 68.6 L 73.7 68.6 L 73.7 63.4 Z M 81.1 65.6 C 81.08 65.6 81.1 68.6 81.1 68.6 L 80.4 68.6 C 80.4 68.6 80.37 65.67 80.4 65.7 C 80.4 64.6 79.8 64 78.8 64 C 77.7 64 76.9 64.7 76.9 65.9 C 76.95 65.89 76.9 68.6 76.9 68.6 L 76.2 68.6 L 76.2 63.4 L 76.9 63.4 C 76.9 63.4 76.92 64.36 76.9 64.4 C 77.3 63.7 78 63.3 78.9 63.3 C 80.2 63.3 81.1 64.1 81.1 65.6 Z M 87.8 63.4 C 87.8 63.4 87.84 68.01 87.8 68 C 87.8 69.8 87 70.6 85.2 70.6 C 84.3 70.6 83.3 70.3 82.8 69.8 C 82.8 69.8 83.1 69.3 83.1 69.3 C 83.6 69.7 84.4 70 85.2 70 C 86.5 70 87.1 69.4 87.1 68.1 C 87.1 68.1 87.1 67.4 87.1 67.4 C 86.7 68.1 85.9 68.4 85.1 68.4 C 83.6 68.4 82.4 67.4 82.4 65.9 C 82.4 64.4 83.6 63.3 85.1 63.3 C 86 63.3 86.7 63.7 87.2 64.4 C 87.16 64.4 87.2 63.4 87.2 63.4 L 87.8 63.4 Z M 87.2 65.9 C 87.2 64.7 86.3 64 85.2 64 C 84 64 83.2 64.7 83.2 65.9 C 83.2 67 84 67.8 85.2 67.8 C 86.3 67.8 87.2 67 87.2 65.9 Z M 97.8 66 C 97.8 67.6 96.7 68.7 95.2 68.7 C 94.3 68.7 93.6 68.3 93.1 67.6 C 93.13 67.61 93.1 68.6 93.1 68.6 L 92.5 68.6 L 92.5 61.2 L 93.2 61.2 C 93.2 61.2 93.16 64.39 93.2 64.4 C 93.6 63.7 94.3 63.3 95.2 63.3 C 96.7 63.3 97.8 64.4 97.8 66 Z M 97.1 66 C 97.1 64.8 96.2 64 95.1 64 C 94 64 93.2 64.8 93.2 66 C 93.2 67.2 94 68.1 95.1 68.1 C 96.2 68.1 97.1 67.2 97.1 66 Z M 98.8 66 C 98.8 64.5 99.9 63.3 101.5 63.3 C 103 63.3 104.1 64.5 104.1 66 C 104.1 67.6 103 68.7 101.5 68.7 C 99.9 68.7 98.8 67.6 98.8 66 Z M 103.4 66 C 103.4 64.8 102.6 64 101.5 64 C 100.4 64 99.5 64.8 99.5 66 C 99.5 67.2 100.4 68.1 101.5 68.1 C 102.6 68.1 103.4 67.2 103.4 66 Z M 108.3 68.3 C 108 68.6 107.6 68.7 107.2 68.7 C 106.2 68.7 105.6 68.1 105.6 67.2 C 105.65 67.17 105.6 64 105.6 64 L 104.7 64 L 104.7 63.4 L 105.6 63.4 L 105.6 62.2 L 106.4 62.2 L 106.4 63.4 L 108 63.4 L 108 64 L 106.4 64 C 106.4 64 106.36 67.13 106.4 67.1 C 106.4 67.7 106.7 68.1 107.3 68.1 C 107.6 68.1 107.8 68 108 67.8 C 108 67.8 108.3 68.3 108.3 68.3 Z M 114.3 65.6 C 114.33 65.6 114.3 68.6 114.3 68.6 L 113.6 68.6 C 113.6 68.6 113.62 65.67 113.6 65.7 C 113.6 64.6 113 64 112 64 C 110.9 64 110.2 64.7 110.2 65.9 C 110.2 65.89 110.2 68.6 110.2 68.6 L 109.5 68.6 L 109.5 61.2 L 110.2 61.2 C 110.2 61.2 110.2 64.31 110.2 64.3 C 110.6 63.7 111.3 63.3 112.2 63.3 C 113.4 63.3 114.3 64.1 114.3 65.6 Z M 123.3 63.4 L 121 68.6 L 120.2 68.6 L 117.9 63.4 L 118.6 63.4 L 120.6 67.9 L 122.6 63.4 L 123.3 63.4 Z M 128.8 66.2 C 128.8 66.2 124.4 66.2 124.4 66.2 C 124.5 67.3 125.3 68.1 126.5 68.1 C 127.1 68.1 127.7 67.8 128.1 67.4 C 128.1 67.4 128.5 67.8 128.5 67.8 C 128 68.4 127.3 68.7 126.4 68.7 C 124.8 68.7 123.7 67.6 123.7 66 C 123.7 64.5 124.8 63.3 126.3 63.3 C 127.7 63.3 128.8 64.4 128.8 66 C 128.8 66.1 128.8 66.2 128.8 66.2 Z M 124.4 65.7 C 124.4 65.7 128.1 65.7 128.1 65.7 C 128 64.7 127.3 64 126.3 64 C 125.2 64 124.5 64.7 124.4 65.7 Z M 132.9 63.3 C 132.9 63.3 132.9 64 132.9 64 C 132.8 64 132.7 64 132.7 64 C 131.6 64 130.9 64.7 130.9 66 C 130.92 65.97 130.9 68.6 130.9 68.6 L 130.2 68.6 L 130.2 63.4 L 130.9 63.4 C 130.9 63.4 130.89 64.42 130.9 64.4 C 131.2 63.7 131.9 63.3 132.9 63.3 Z M 139.4 66 C 139.4 67.6 138.3 68.7 136.8 68.7 C 135.9 68.7 135.2 68.3 134.8 67.6 C 134.76 67.61 134.8 68.6 134.8 68.6 L 134.1 68.6 L 134.1 61.2 L 134.8 61.2 C 134.8 61.2 134.79 64.39 134.8 64.4 C 135.2 63.7 136 63.3 136.8 63.3 C 138.3 63.3 139.4 64.4 139.4 66 Z M 138.7 66 C 138.7 64.8 137.9 64 136.7 64 C 135.6 64 134.8 64.8 134.8 66 C 134.8 67.2 135.6 68.1 136.7 68.1 C 137.9 68.1 138.7 67.2 138.7 66 Z M 144.8 65.4 C 144.82 65.39 144.8 68.6 144.8 68.6 L 144.1 68.6 C 144.1 68.6 144.15 67.83 144.1 67.8 C 143.8 68.4 143.2 68.7 142.3 68.7 C 141.1 68.7 140.4 68.1 140.4 67.2 C 140.4 66.4 140.9 65.7 142.4 65.7 C 142.45 65.68 144.1 65.7 144.1 65.7 C 144.1 65.7 144.12 65.36 144.1 65.4 C 144.1 64.5 143.6 64 142.6 64 C 141.9 64 141.3 64.2 140.9 64.6 C 140.9 64.6 140.6 64.1 140.6 64.1 C 141.1 63.6 141.9 63.3 142.7 63.3 C 144.1 63.3 144.8 64 144.8 65.4 Z M 144.1 67.1 C 144.12 67.07 144.1 66.2 144.1 66.2 C 144.1 66.2 142.47 66.21 142.5 66.2 C 141.4 66.2 141.1 66.6 141.1 67.1 C 141.1 67.8 141.6 68.1 142.4 68.1 C 143.2 68.1 143.8 67.8 144.1 67.1 Z M 146.6 61.2 L 147.4 61.2 L 147.4 68.6 L 146.6 68.6 L 146.6 61.2 Z M 155.9 65.4 C 155.92 65.39 155.9 68.6 155.9 68.6 L 155.2 68.6 C 155.2 68.6 155.24 67.83 155.2 67.8 C 154.9 68.4 154.3 68.7 153.4 68.7 C 152.2 68.7 151.5 68.1 151.5 67.2 C 151.5 66.4 152 65.7 153.5 65.7 C 153.54 65.68 155.2 65.7 155.2 65.7 C 155.2 65.7 155.21 65.36 155.2 65.4 C 155.2 64.5 154.7 64 153.7 64 C 153 64 152.4 64.2 152 64.6 C 152 64.6 151.7 64.1 151.7 64.1 C 152.2 63.6 153 63.3 153.8 63.3 C 155.2 63.3 155.9 64 155.9 65.4 Z M 155.2 67.1 C 155.21 67.07 155.2 66.2 155.2 66.2 C 155.2 66.2 153.56 66.21 153.6 66.2 C 152.5 66.2 152.2 66.6 152.2 67.1 C 152.2 67.8 152.7 68.1 153.5 68.1 C 154.3 68.1 154.9 67.8 155.2 67.1 Z M 162.6 65.6 C 162.58 65.6 162.6 68.6 162.6 68.6 L 161.9 68.6 C 161.9 68.6 161.87 65.67 161.9 65.7 C 161.9 64.6 161.3 64 160.3 64 C 159.2 64 158.4 64.7 158.4 65.9 C 158.45 65.89 158.4 68.6 158.4 68.6 L 157.7 68.6 L 157.7 63.4 L 158.4 63.4 C 158.4 63.4 158.42 64.36 158.4 64.4 C 158.8 63.7 159.5 63.3 160.4 63.3 C 161.7 63.3 162.6 64.1 162.6 65.6 Z M 169.3 61.2 L 169.3 68.6 L 168.6 68.6 C 168.6 68.6 168.61 67.61 168.6 67.6 C 168.2 68.3 167.4 68.7 166.6 68.7 C 165.1 68.7 164 67.6 164 66 C 164 64.4 165.1 63.3 166.6 63.3 C 167.4 63.3 168.1 63.7 168.6 64.4 C 168.58 64.39 168.6 61.2 168.6 61.2 L 169.3 61.2 Z M 168.6 66 C 168.6 64.8 167.7 64 166.6 64 C 165.5 64 164.7 64.8 164.7 66 C 164.7 67.2 165.5 68.1 166.6 68.1 C 167.7 68.1 168.6 67.2 168.6 66 Z M 181.6 63.4 L 179.6 68.6 L 178.9 68.6 L 177.3 64.3 L 175.6 68.6 L 175 68.6 L 173 63.4 L 173.7 63.4 L 175.3 67.9 L 177 63.4 L 177.6 63.4 L 179.3 67.9 L 181 63.4 L 181.6 63.4 Z M 185.4 63.3 C 185.4 63.3 185.4 64 185.4 64 C 185.3 64 185.2 64 185.2 64 C 184.1 64 183.4 64.7 183.4 66 C 183.41 65.97 183.4 68.6 183.4 68.6 L 182.7 68.6 L 182.7 63.4 L 183.4 63.4 C 183.4 63.4 183.38 64.42 183.4 64.4 C 183.7 63.7 184.4 63.3 185.4 63.3 Z M 186.4 61.7 C 186.4 61.5 186.6 61.2 186.9 61.2 C 187.2 61.2 187.5 61.4 187.5 61.7 C 187.5 62 187.2 62.2 186.9 62.2 C 186.6 62.2 186.4 62 186.4 61.7 Z M 186.6 63.4 L 187.3 63.4 L 187.3 68.6 L 186.6 68.6 L 186.6 63.4 Z M 192 68.3 C 191.7 68.6 191.3 68.7 190.9 68.7 C 189.9 68.7 189.3 68.1 189.3 67.2 C 189.34 67.17 189.3 64 189.3 64 L 188.4 64 L 188.4 63.4 L 189.3 63.4 L 189.3 62.2 L 190.1 62.2 L 190.1 63.4 L 191.7 63.4 L 191.7 64 L 190.1 64 C 190.1 64 190.05 67.13 190.1 67.1 C 190.1 67.7 190.4 68.1 191 68.1 C 191.3 68.1 191.5 68 191.7 67.8 C 191.7 67.8 192 68.3 192 68.3 Z M 196.2 68.3 C 195.9 68.6 195.5 68.7 195.1 68.7 C 194.1 68.7 193.5 68.1 193.5 67.2 C 193.54 67.17 193.5 64 193.5 64 L 192.6 64 L 192.6 63.4 L 193.5 63.4 L 193.5 62.2 L 194.2 62.2 L 194.2 63.4 L 195.8 63.4 L 195.8 64 L 194.2 64 C 194.2 64 194.24 67.13 194.2 67.1 C 194.2 67.7 194.6 68.1 195.2 68.1 C 195.4 68.1 195.7 68 195.9 67.8 C 195.9 67.8 196.2 68.3 196.2 68.3 Z M 201.8 66.2 C 201.8 66.2 197.4 66.2 197.4 66.2 C 197.5 67.3 198.4 68.1 199.5 68.1 C 200.2 68.1 200.7 67.8 201.1 67.4 C 201.1 67.4 201.5 67.8 201.5 67.8 C 201.1 68.4 200.3 68.7 199.5 68.7 C 197.9 68.7 196.7 67.6 196.7 66 C 196.7 64.5 197.8 63.3 199.3 63.3 C 200.8 63.3 201.9 64.4 201.9 66 C 201.9 66.1 201.8 66.2 201.8 66.2 Z M 197.4 65.7 C 197.4 65.7 201.2 65.7 201.2 65.7 C 201.1 64.7 200.3 64 199.3 64 C 198.3 64 197.5 64.7 197.4 65.7 Z M 208.1 65.6 C 208.1 65.6 208.1 68.6 208.1 68.6 L 207.4 68.6 C 207.4 68.6 207.39 65.67 207.4 65.7 C 207.4 64.6 206.8 64 205.8 64 C 204.7 64 204 64.7 204 65.9 C 203.97 65.89 204 68.6 204 68.6 L 203.3 68.6 L 203.3 63.4 L 203.9 63.4 C 203.9 63.4 203.94 64.36 203.9 64.4 C 204.3 63.7 205 63.3 205.9 63.3 C 207.2 63.3 208.1 64.1 208.1 65.6 Z M 212.1 66 C 212.1 64.4 213.3 63.3 214.8 63.3 C 215.7 63.3 216.5 63.7 216.9 64.4 C 216.9 64.4 216.4 64.7 216.4 64.7 C 216 64.2 215.4 64 214.8 64 C 213.7 64 212.8 64.8 212.8 66 C 212.8 67.3 213.7 68.1 214.8 68.1 C 215.4 68.1 216 67.8 216.4 67.3 C 216.4 67.3 216.9 67.7 216.9 67.7 C 216.5 68.3 215.7 68.7 214.8 68.7 C 213.3 68.7 212.1 67.6 212.1 66 Z M 217.7 66 C 217.7 64.5 218.8 63.3 220.4 63.3 C 221.9 63.3 223 64.5 223 66 C 223 67.6 221.9 68.7 220.4 68.7 C 218.8 68.7 217.7 67.6 217.7 66 Z M 222.3 66 C 222.3 64.8 221.5 64 220.4 64 C 219.2 64 218.4 64.8 218.4 66 C 218.4 67.2 219.2 68.1 220.4 68.1 C 221.5 68.1 222.3 67.2 222.3 66 Z M 233.1 65.6 C 233.13 65.6 233.1 68.6 233.1 68.6 L 232.4 68.6 C 232.4 68.6 232.42 65.67 232.4 65.7 C 232.4 64.6 231.9 64 230.9 64 C 229.8 64 229.2 64.7 229.2 65.9 C 229.15 65.89 229.2 68.6 229.2 68.6 L 228.4 68.6 C 228.4 68.6 228.44 65.67 228.4 65.7 C 228.4 64.6 227.9 64 226.9 64 C 225.9 64 225.2 64.7 225.2 65.9 C 225.16 65.89 225.2 68.6 225.2 68.6 L 224.5 68.6 L 224.5 63.4 L 225.1 63.4 C 225.1 63.4 225.13 64.35 225.1 64.3 C 225.5 63.7 226.2 63.3 227.1 63.3 C 227.9 63.3 228.6 63.7 228.9 64.5 C 229.3 63.8 230.1 63.3 231 63.3 C 232.3 63.3 233.1 64.1 233.1 65.6 Z M 243.6 65.6 C 243.63 65.6 243.6 68.6 243.6 68.6 L 242.9 68.6 C 242.9 68.6 242.93 65.67 242.9 65.7 C 242.9 64.6 242.4 64 241.4 64 C 240.3 64 239.7 64.7 239.7 65.9 C 239.65 65.89 239.7 68.6 239.7 68.6 L 238.9 68.6 C 238.9 68.6 238.95 65.67 238.9 65.7 C 238.9 64.6 238.4 64 237.4 64 C 236.4 64 235.7 64.7 235.7 65.9 C 235.66 65.89 235.7 68.6 235.7 68.6 L 235 68.6 L 235 63.4 L 235.6 63.4 C 235.6 63.4 235.63 64.35 235.6 64.3 C 236 63.7 236.7 63.3 237.6 63.3 C 238.4 63.3 239.1 63.7 239.4 64.5 C 239.8 63.8 240.6 63.3 241.5 63.3 C 242.8 63.3 243.6 64.1 243.6 65.6 Z M 250.2 63.4 L 250.2 68.6 L 249.5 68.6 C 249.5 68.6 249.49 67.69 249.5 67.7 C 249.1 68.3 248.4 68.7 247.6 68.7 C 246.3 68.7 245.4 67.9 245.4 66.4 C 245.38 66.44 245.4 63.4 245.4 63.4 L 246.1 63.4 C 246.1 63.4 246.09 66.37 246.1 66.4 C 246.1 67.5 246.7 68.1 247.7 68.1 C 248.8 68.1 249.5 67.3 249.5 66.1 C 249.46 66.15 249.5 63.4 249.5 63.4 L 250.2 63.4 Z M 256.9 65.6 C 256.87 65.6 256.9 68.6 256.9 68.6 L 256.2 68.6 C 256.2 68.6 256.16 65.67 256.2 65.7 C 256.2 64.6 255.6 64 254.6 64 C 253.5 64 252.7 64.7 252.7 65.9 C 252.74 65.89 252.7 68.6 252.7 68.6 L 252 68.6 L 252 63.4 L 252.7 63.4 C 252.7 63.4 252.71 64.36 252.7 64.4 C 253.1 63.7 253.8 63.3 254.7 63.3 C 256 63.3 256.9 64.1 256.9 65.6 Z M 258.5 61.7 C 258.5 61.5 258.7 61.2 259 61.2 C 259.3 61.2 259.5 61.4 259.5 61.7 C 259.5 62 259.3 62.2 259 62.2 C 258.7 62.2 258.5 62 258.5 61.7 Z M 258.7 63.4 L 259.4 63.4 L 259.4 68.6 L 258.7 68.6 L 258.7 63.4 Z M 260.8 66 C 260.8 64.4 261.9 63.3 263.5 63.3 C 264.4 63.3 265.1 63.7 265.5 64.4 C 265.5 64.4 265 64.7 265 64.7 C 264.6 64.2 264.1 64 263.5 64 C 262.3 64 261.5 64.8 261.5 66 C 261.5 67.3 262.3 68.1 263.5 68.1 C 264.1 68.1 264.6 67.8 265 67.3 C 265 67.3 265.5 67.7 265.5 67.7 C 265.1 68.3 264.4 68.7 263.5 68.7 C 261.9 68.7 260.8 67.6 260.8 66 Z M 270.9 65.4 C 270.94 65.39 270.9 68.6 270.9 68.6 L 270.3 68.6 C 270.3 68.6 270.26 67.83 270.3 67.8 C 269.9 68.4 269.3 68.7 268.5 68.7 C 267.3 68.7 266.5 68.1 266.5 67.2 C 266.5 66.4 267.1 65.7 268.6 65.7 C 268.56 65.68 270.2 65.7 270.2 65.7 C 270.2 65.7 270.23 65.36 270.2 65.4 C 270.2 64.5 269.7 64 268.7 64 C 268.1 64 267.4 64.2 267 64.6 C 267 64.6 266.7 64.1 266.7 64.1 C 267.2 63.6 268 63.3 268.8 63.3 C 270.2 63.3 270.9 64 270.9 65.4 Z M 270.2 67.1 C 270.23 67.07 270.2 66.2 270.2 66.2 C 270.2 66.2 268.58 66.21 268.6 66.2 C 267.6 66.2 267.2 66.6 267.2 67.1 C 267.2 67.8 267.7 68.1 268.6 68.1 C 269.4 68.1 270 67.8 270.2 67.1 Z M 275.5 68.3 C 275.2 68.6 274.8 68.7 274.4 68.7 C 273.4 68.7 272.8 68.1 272.8 67.2 C 272.84 67.17 272.8 64 272.8 64 L 271.9 64 L 271.9 63.4 L 272.8 63.4 L 272.8 62.2 L 273.5 62.2 L 273.5 63.4 L 275.1 63.4 L 275.1 64 L 273.5 64 C 273.5 64 273.54 67.13 273.5 67.1 C 273.5 67.7 273.9 68.1 274.5 68.1 C 274.7 68.1 275 68 275.2 67.8 C 275.2 67.8 275.5 68.3 275.5 68.3 Z M 276.5 61.7 C 276.5 61.5 276.7 61.2 277 61.2 C 277.3 61.2 277.6 61.4 277.6 61.7 C 277.6 62 277.3 62.2 277 62.2 C 276.7 62.2 276.5 62 276.5 61.7 Z M 276.7 63.4 L 277.4 63.4 L 277.4 68.6 L 276.7 68.6 L 276.7 63.4 Z M 278.8 66 C 278.8 64.5 279.9 63.3 281.5 63.3 C 283 63.3 284.1 64.5 284.1 66 C 284.1 67.6 283 68.7 281.5 68.7 C 279.9 68.7 278.8 67.6 278.8 66 Z M 283.4 66 C 283.4 64.8 282.6 64 281.5 64 C 280.3 64 279.5 64.8 279.5 66 C 279.5 67.2 280.3 68.1 281.5 68.1 C 282.6 68.1 283.4 67.2 283.4 66 Z M 290.4 65.6 C 290.39 65.6 290.4 68.6 290.4 68.6 L 289.7 68.6 C 289.7 68.6 289.68 65.67 289.7 65.7 C 289.7 64.6 289.1 64 288.1 64 C 287 64 286.3 64.7 286.3 65.9 C 286.26 65.89 286.3 68.6 286.3 68.6 L 285.6 68.6 L 285.6 63.4 L 286.2 63.4 C 286.2 63.4 286.23 64.36 286.2 64.4 C 286.6 63.7 287.3 63.3 288.2 63.3 C 289.5 63.3 290.4 64.1 290.4 65.6 Z M 291.7 63.9 C 291.7 63.6 292 63.3 292.2 63.3 C 292.5 63.3 292.8 63.6 292.8 63.9 C 292.8 64.2 292.5 64.4 292.2 64.4 C 292 64.4 291.7 64.2 291.7 63.9 Z M 292.8 68.1 C 292.8 68.3 292.7 68.4 292.6 68.7 C 292.64 68.73 292.2 70.1 292.2 70.1 L 291.7 70.1 C 291.7 70.1 292.08 68.66 292.1 68.7 C 291.9 68.6 291.7 68.4 291.7 68.1 C 291.7 67.8 292 67.6 292.3 67.6 C 292.6 67.6 292.8 67.8 292.8 68.1 Z " stroke="none" fill="#323132"/>
  </g>
  <g id="Polygon123329">
    <path d="M 20.4 66 L 16.2 68.1 L 16.2 63.9 L 20.4 66 Z " stroke="none" fill="#a243ff"/>
  </g>
  <g id="Polygon123328">
    <path d="M 33.5 41.3 L 31 41.3 L 31 40.6 L 36.7 40.6 L 36.7 41.3 L 34.2 41.3 L 34.2 47.6 L 33.5 47.6 L 33.5 41.3 Z M 44.8 42.4 L 42.8 47.6 L 42.1 47.6 L 40.4 43.3 L 38.8 47.6 L 38.1 47.6 L 36.1 42.4 L 36.8 42.4 L 38.5 46.9 L 40.1 42.4 L 40.8 42.4 L 42.4 46.9 L 44.1 42.4 L 44.8 42.4 Z M 45.2 45 C 45.2 43.5 46.4 42.3 47.9 42.3 C 49.4 42.3 50.6 43.5 50.6 45 C 50.6 46.6 49.4 47.7 47.9 47.7 C 46.4 47.7 45.2 46.6 45.2 45 Z M 49.9 45 C 49.9 43.8 49 43 47.9 43 C 46.8 43 45.9 43.8 45.9 45 C 45.9 46.2 46.8 47.1 47.9 47.1 C 49 47.1 49.9 46.2 49.9 45 Z M 51.9 44.6 L 54.5 44.6 L 54.5 45.2 L 51.9 45.2 L 51.9 44.6 Z M 63.8 42.4 L 61.8 47.6 L 61.1 47.6 L 59.5 43.3 L 57.8 47.6 L 57.2 47.6 L 55.2 42.4 L 55.9 42.4 L 57.5 46.9 L 59.2 42.4 L 59.8 42.4 L 61.5 46.9 L 63.2 42.4 L 63.8 42.4 Z M 68.9 44.4 C 68.92 44.39 68.9 47.6 68.9 47.6 L 68.2 47.6 C 68.2 47.6 68.24 46.83 68.2 46.8 C 67.9 47.4 67.3 47.7 66.4 47.7 C 65.2 47.7 64.5 47.1 64.5 46.2 C 64.5 45.4 65 44.7 66.5 44.7 C 66.54 44.68 68.2 44.7 68.2 44.7 C 68.2 44.7 68.21 44.36 68.2 44.4 C 68.2 43.5 67.7 43 66.7 43 C 66 43 65.4 43.2 65 43.6 C 65 43.6 64.7 43.1 64.7 43.1 C 65.2 42.6 66 42.3 66.8 42.3 C 68.2 42.3 68.9 43 68.9 44.4 Z M 68.2 46.1 C 68.21 46.07 68.2 45.2 68.2 45.2 C 68.2 45.2 66.56 45.21 66.6 45.2 C 65.5 45.2 65.2 45.6 65.2 46.1 C 65.2 46.8 65.7 47.1 66.5 47.1 C 67.3 47.1 67.9 46.8 68.2 46.1 Z M 75.1 42.4 C 75.1 42.4 72.45 48.28 72.4 48.3 C 72 49.3 71.4 49.6 70.7 49.6 C 70.2 49.6 69.7 49.5 69.4 49.2 C 69.4 49.2 69.8 48.6 69.8 48.6 C 70 48.9 70.3 49 70.7 49 C 71.2 49 71.5 48.8 71.8 48.1 C 71.8 48.15 72 47.6 72 47.6 L 69.7 42.4 L 70.4 42.4 L 72.4 46.9 L 74.4 42.4 L 75.1 42.4 Z M 76.2 47.1 C 76.2 47.3 76.2 47.4 76.1 47.7 C 76.07 47.73 75.7 49.1 75.7 49.1 L 75.2 49.1 C 75.2 49.1 75.51 47.66 75.5 47.7 C 75.3 47.6 75.2 47.4 75.2 47.1 C 75.2 46.8 75.4 46.6 75.7 46.6 C 76 46.6 76.2 46.8 76.2 47.1 Z M 88.1 42.4 L 86.1 47.6 L 85.4 47.6 L 83.7 43.3 L 82.1 47.6 L 81.4 47.6 L 79.4 42.4 L 80.1 42.4 L 81.8 46.9 L 83.5 42.4 L 84.1 42.4 L 85.7 46.9 L 87.4 42.4 L 88.1 42.4 Z M 89 40.7 C 89 40.5 89.2 40.2 89.5 40.2 C 89.8 40.2 90 40.4 90 40.7 C 90 41 89.8 41.2 89.5 41.2 C 89.2 41.2 89 41 89 40.7 Z M 89.2 42.4 L 89.9 42.4 L 89.9 47.6 L 89.2 47.6 L 89.2 42.4 Z M 94.6 47.3 C 94.3 47.6 93.9 47.7 93.5 47.7 C 92.5 47.7 91.9 47.1 91.9 46.2 C 91.92 46.17 91.9 43 91.9 43 L 91 43 L 91 42.4 L 91.9 42.4 L 91.9 41.2 L 92.6 41.2 L 92.6 42.4 L 94.2 42.4 L 94.2 43 L 92.6 43 C 92.6 43 92.63 46.13 92.6 46.1 C 92.6 46.7 93 47.1 93.5 47.1 C 93.8 47.1 94.1 47 94.3 46.8 C 94.3 46.8 94.6 47.3 94.6 47.3 Z M 100.6 44.6 C 100.6 44.6 100.6 47.6 100.6 47.6 L 99.9 47.6 C 99.9 47.6 99.89 44.67 99.9 44.7 C 99.9 43.6 99.3 43 98.3 43 C 97.2 43 96.5 43.7 96.5 44.9 C 96.47 44.89 96.5 47.6 96.5 47.6 L 95.8 47.6 L 95.8 40.2 L 96.5 40.2 C 96.5 40.2 96.47 43.31 96.5 43.3 C 96.9 42.7 97.6 42.3 98.4 42.3 C 99.7 42.3 100.6 43.1 100.6 44.6 Z M 110.5 45 C 110.5 46.6 109.4 47.7 107.9 47.7 C 107 47.7 106.3 47.3 105.8 46.6 C 105.83 46.61 105.8 47.6 105.8 47.6 L 105.2 47.6 L 105.2 40.2 L 105.9 40.2 C 105.9 40.2 105.86 43.39 105.9 43.4 C 106.3 42.7 107 42.3 107.9 42.3 C 109.4 42.3 110.5 43.4 110.5 45 Z M 109.8 45 C 109.8 43.8 108.9 43 107.8 43 C 106.7 43 105.9 43.8 105.9 45 C 105.9 46.2 106.7 47.1 107.8 47.1 C 108.9 47.1 109.8 46.2 109.8 45 Z M 111.5 45 C 111.5 43.5 112.6 42.3 114.2 42.3 C 115.7 42.3 116.8 43.5 116.8 45 C 116.8 46.6 115.7 47.7 114.2 47.7 C 112.6 47.7 111.5 46.6 111.5 45 Z M 116.1 45 C 116.1 43.8 115.3 43 114.2 43 C 113 43 112.2 43.8 112.2 45 C 112.2 46.2 113 47.1 114.2 47.1 C 115.3 47.1 116.1 46.2 116.1 45 Z M 121 47.3 C 120.7 47.6 120.3 47.7 119.9 47.7 C 118.9 47.7 118.3 47.1 118.3 46.2 C 118.35 46.17 118.3 43 118.3 43 L 117.4 43 L 117.4 42.4 L 118.3 42.4 L 118.3 41.2 L 119.1 41.2 L 119.1 42.4 L 120.7 42.4 L 120.7 43 L 119.1 43 C 119.1 43 119.05 46.13 119.1 46.1 C 119.1 46.7 119.4 47.1 120 47.1 C 120.3 47.1 120.5 47 120.7 46.8 C 120.7 46.8 121 47.3 121 47.3 Z M 127 44.6 C 127.02 44.6 127 47.6 127 47.6 L 126.3 47.6 C 126.3 47.6 126.31 44.67 126.3 44.7 C 126.3 43.6 125.7 43 124.7 43 C 123.6 43 122.9 43.7 122.9 44.9 C 122.89 44.89 122.9 47.6 122.9 47.6 L 122.2 47.6 L 122.2 40.2 L 122.9 40.2 C 122.9 40.2 122.89 43.31 122.9 43.3 C 123.3 42.7 124 42.3 124.9 42.3 C 126.1 42.3 127 43.1 127 44.6 Z M 136.9 45 C 136.9 46.6 135.8 47.7 134.3 47.7 C 133.4 47.7 132.7 47.3 132.3 46.7 C 132.28 46.66 132.3 49.6 132.3 49.6 L 131.6 49.6 L 131.6 42.4 L 132.3 42.4 C 132.3 42.4 132.25 43.43 132.3 43.4 C 132.7 42.7 133.4 42.3 134.3 42.3 C 135.8 42.3 136.9 43.4 136.9 45 Z M 136.2 45 C 136.2 43.8 135.3 43 134.2 43 C 133.1 43 132.3 43.8 132.3 45 C 132.3 46.2 133.1 47.1 134.2 47.1 C 135.3 47.1 136.2 46.2 136.2 45 Z M 142.3 44.4 C 142.32 44.39 142.3 47.6 142.3 47.6 L 141.6 47.6 C 141.6 47.6 141.64 46.83 141.6 46.8 C 141.3 47.4 140.7 47.7 139.8 47.7 C 138.6 47.7 137.9 47.1 137.9 46.2 C 137.9 45.4 138.4 44.7 139.9 44.7 C 139.94 44.68 141.6 44.7 141.6 44.7 C 141.6 44.7 141.61 44.36 141.6 44.4 C 141.6 43.5 141.1 43 140.1 43 C 139.4 43 138.8 43.2 138.4 43.6 C 138.4 43.6 138 43.1 138 43.1 C 138.6 42.6 139.4 42.3 140.2 42.3 C 141.5 42.3 142.3 43 142.3 44.4 Z M 141.6 46.1 C 141.61 46.07 141.6 45.2 141.6 45.2 C 141.6 45.2 139.96 45.21 140 45.2 C 138.9 45.2 138.6 45.6 138.6 46.1 C 138.6 46.8 139.1 47.1 139.9 47.1 C 140.7 47.1 141.3 46.8 141.6 46.1 Z M 146.8 42.3 C 146.8 42.3 146.8 43 146.8 43 C 146.7 43 146.7 43 146.6 43 C 145.5 43 144.8 43.7 144.8 45 C 144.84 44.97 144.8 47.6 144.8 47.6 L 144.1 47.6 L 144.1 42.4 L 144.8 42.4 C 144.8 42.4 144.81 43.42 144.8 43.4 C 145.1 42.7 145.8 42.3 146.8 42.3 Z M 151.2 47.3 C 150.9 47.6 150.5 47.7 150.1 47.7 C 149.1 47.7 148.5 47.1 148.5 46.2 C 148.52 46.17 148.5 43 148.5 43 L 147.6 43 L 147.6 42.4 L 148.5 42.4 L 148.5 41.2 L 149.2 41.2 L 149.2 42.4 L 150.8 42.4 L 150.8 43 L 149.2 43 C 149.2 43 149.23 46.13 149.2 46.1 C 149.2 46.7 149.6 47.1 150.1 47.1 C 150.4 47.1 150.7 47 150.9 46.8 C 150.9 46.8 151.2 47.3 151.2 47.3 Z M 152.2 40.7 C 152.2 40.5 152.4 40.2 152.7 40.2 C 153 40.2 153.2 40.4 153.2 40.7 C 153.2 41 153 41.2 152.7 41.2 C 152.4 41.2 152.2 41 152.2 40.7 Z M 152.4 42.4 L 153.1 42.4 L 153.1 47.6 L 152.4 47.6 L 152.4 42.4 Z M 154.5 45 C 154.5 43.4 155.6 42.3 157.2 42.3 C 158.1 42.3 158.8 42.7 159.2 43.4 C 159.2 43.4 158.7 43.7 158.7 43.7 C 158.3 43.2 157.8 43 157.2 43 C 156 43 155.2 43.8 155.2 45 C 155.2 46.3 156 47.1 157.2 47.1 C 157.8 47.1 158.3 46.8 158.7 46.3 C 158.7 46.3 159.2 46.7 159.2 46.7 C 158.8 47.3 158.1 47.7 157.2 47.7 C 155.6 47.7 154.5 46.6 154.5 45 Z M 160.4 40.7 C 160.4 40.5 160.6 40.2 160.9 40.2 C 161.2 40.2 161.4 40.4 161.4 40.7 C 161.4 41 161.2 41.2 160.9 41.2 C 160.6 41.2 160.4 41 160.4 40.7 Z M 160.5 42.4 L 161.2 42.4 L 161.2 47.6 L 160.5 47.6 L 160.5 42.4 Z M 168.4 45 C 168.4 46.6 167.3 47.7 165.8 47.7 C 165 47.7 164.2 47.3 163.8 46.7 C 163.79 46.66 163.8 49.6 163.8 49.6 L 163.1 49.6 L 163.1 42.4 L 163.8 42.4 C 163.8 42.4 163.76 43.43 163.8 43.4 C 164.2 42.7 164.9 42.3 165.8 42.3 C 167.3 42.3 168.4 43.4 168.4 45 Z M 167.7 45 C 167.7 43.8 166.9 43 165.7 43 C 164.6 43 163.8 43.8 163.8 45 C 163.8 46.2 164.6 47.1 165.7 47.1 C 166.9 47.1 167.7 46.2 167.7 45 Z M 173.8 44.4 C 173.83 44.39 173.8 47.6 173.8 47.6 L 173.1 47.6 C 173.1 47.6 173.15 46.83 173.1 46.8 C 172.8 47.4 172.2 47.7 171.3 47.7 C 170.1 47.7 169.4 47.1 169.4 46.2 C 169.4 45.4 169.9 44.7 171.4 44.7 C 171.45 44.68 173.1 44.7 173.1 44.7 C 173.1 44.7 173.12 44.36 173.1 44.4 C 173.1 43.5 172.6 43 171.6 43 C 170.9 43 170.3 43.2 169.9 43.6 C 169.9 43.6 169.6 43.1 169.6 43.1 C 170.1 42.6 170.9 42.3 171.7 42.3 C 173.1 42.3 173.8 43 173.8 44.4 Z M 173.1 46.1 C 173.12 46.07 173.1 45.2 173.1 45.2 C 173.1 45.2 171.47 45.21 171.5 45.2 C 170.4 45.2 170.1 45.6 170.1 46.1 C 170.1 46.8 170.6 47.1 171.4 47.1 C 172.2 47.1 172.8 46.8 173.1 46.1 Z M 180.5 44.6 C 180.48 44.6 180.5 47.6 180.5 47.6 L 179.8 47.6 C 179.8 47.6 179.77 44.67 179.8 44.7 C 179.8 43.6 179.2 43 178.2 43 C 177.1 43 176.4 43.7 176.4 44.9 C 176.35 44.89 176.4 47.6 176.4 47.6 L 175.6 47.6 L 175.6 42.4 L 176.3 42.4 C 176.3 42.4 176.32 43.36 176.3 43.4 C 176.7 42.7 177.4 42.3 178.3 42.3 C 179.6 42.3 180.5 43.1 180.5 44.6 Z M 185 47.3 C 184.7 47.6 184.3 47.7 183.9 47.7 C 182.9 47.7 182.4 47.1 182.4 46.2 C 182.37 46.17 182.4 43 182.4 43 L 181.4 43 L 181.4 42.4 L 182.4 42.4 L 182.4 41.2 L 183.1 41.2 L 183.1 42.4 L 184.7 42.4 L 184.7 43 L 183.1 43 C 183.1 43 183.07 46.13 183.1 46.1 C 183.1 46.7 183.4 47.1 184 47.1 C 184.3 47.1 184.6 47 184.8 46.8 C 184.8 46.8 185 47.3 185 47.3 Z M 185.8 47 C 185.8 47 186.1 46.5 186.1 46.5 C 186.5 46.8 187.3 47.1 188 47.1 C 189 47.1 189.4 46.7 189.4 46.2 C 189.4 44.8 186 45.9 186 43.8 C 186 43 186.7 42.3 188.1 42.3 C 188.8 42.3 189.5 42.5 189.9 42.8 C 189.9 42.8 189.6 43.4 189.6 43.4 C 189.2 43.1 188.6 43 188.1 43 C 187.1 43 186.7 43.3 186.7 43.8 C 186.7 45.2 190.1 44.2 190.1 46.2 C 190.1 47.1 189.3 47.7 187.9 47.7 C 187.1 47.7 186.2 47.4 185.8 47 Z M 196.8 47.3 C 196.5 47.6 196.1 47.7 195.7 47.7 C 194.7 47.7 194.2 47.1 194.2 46.2 C 194.17 46.17 194.2 43 194.2 43 L 193.2 43 L 193.2 42.4 L 194.2 42.4 L 194.2 41.2 L 194.9 41.2 L 194.9 42.4 L 196.5 42.4 L 196.5 43 L 194.9 43 C 194.9 43 194.88 46.13 194.9 46.1 C 194.9 46.7 195.2 47.1 195.8 47.1 C 196.1 47.1 196.4 47 196.6 46.8 C 196.6 46.8 196.8 47.3 196.8 47.3 Z M 202 44.4 C 202.05 44.39 202 47.6 202 47.6 L 201.4 47.6 C 201.4 47.6 201.37 46.83 201.4 46.8 C 201 47.4 200.4 47.7 199.6 47.7 C 198.4 47.7 197.6 47.1 197.6 46.2 C 197.6 45.4 198.2 44.7 199.7 44.7 C 199.67 44.68 201.3 44.7 201.3 44.7 C 201.3 44.7 201.34 44.36 201.3 44.4 C 201.3 43.5 200.8 43 199.8 43 C 199.2 43 198.5 43.2 198.1 43.6 C 198.1 43.6 197.8 43.1 197.8 43.1 C 198.3 42.6 199.1 42.3 199.9 42.3 C 201.3 42.3 202 43 202 44.4 Z M 201.3 46.1 C 201.34 46.07 201.3 45.2 201.3 45.2 C 201.3 45.2 199.69 45.21 199.7 45.2 C 198.7 45.2 198.3 45.6 198.3 46.1 C 198.3 46.8 198.8 47.1 199.7 47.1 C 200.5 47.1 201.1 46.8 201.3 46.1 Z M 205.8 45 L 204.6 46.1 L 204.6 47.6 L 203.9 47.6 L 203.9 40.2 L 204.6 40.2 L 204.6 45.3 L 207.7 42.4 L 208.6 42.4 L 206.3 44.5 L 208.8 47.6 L 207.9 47.6 L 205.8 45 Z M 209.7 40.7 C 209.7 40.5 210 40.2 210.2 40.2 C 210.5 40.2 210.8 40.4 210.8 40.7 C 210.8 41 210.5 41.2 210.2 41.2 C 210 41.2 209.7 41 209.7 40.7 Z M 209.9 42.4 L 210.6 42.4 L 210.6 47.6 L 209.9 47.6 L 209.9 42.4 Z M 217.3 44.6 C 217.28 44.6 217.3 47.6 217.3 47.6 L 216.6 47.6 C 216.6 47.6 216.57 44.67 216.6 44.7 C 216.6 43.6 216 43 215 43 C 213.9 43 213.1 43.7 213.1 44.9 C 213.15 44.89 213.1 47.6 213.1 47.6 L 212.4 47.6 L 212.4 42.4 L 213.1 42.4 C 213.1 42.4 213.12 43.36 213.1 43.4 C 213.5 42.7 214.2 42.3 215.1 42.3 C 216.4 42.3 217.3 43.1 217.3 44.6 Z M 224 42.4 C 224 42.4 224.04 47.01 224 47 C 224 48.8 223.2 49.6 221.4 49.6 C 220.5 49.6 219.5 49.3 219 48.8 C 219 48.8 219.3 48.3 219.3 48.3 C 219.8 48.7 220.6 49 221.4 49 C 222.7 49 223.3 48.4 223.3 47.1 C 223.3 47.1 223.3 46.4 223.3 46.4 C 222.9 47.1 222.1 47.4 221.3 47.4 C 219.8 47.4 218.6 46.4 218.6 44.9 C 218.6 43.4 219.8 42.3 221.3 42.3 C 222.2 42.3 222.9 42.7 223.4 43.4 C 223.36 43.4 223.4 42.4 223.4 42.4 L 224 42.4 Z M 223.4 44.9 C 223.4 43.7 222.5 43 221.4 43 C 220.2 43 219.4 43.7 219.4 44.9 C 219.4 46 220.2 46.8 221.4 46.8 C 222.5 46.8 223.4 46 223.4 44.9 Z M 228.5 40.7 C 228.5 40.5 228.8 40.2 229.1 40.2 C 229.4 40.2 229.6 40.4 229.6 40.7 C 229.6 41 229.4 41.2 229.1 41.2 C 228.8 41.2 228.5 41 228.5 40.7 Z M 226.8 49.3 C 226.8 49.3 227 48.8 227 48.8 C 227.2 48.9 227.5 49 227.8 49 C 228.4 49 228.7 48.7 228.7 48 C 228.7 48.04 228.7 42.4 228.7 42.4 L 229.4 42.4 C 229.4 42.4 229.41 48.04 229.4 48 C 229.4 49 228.9 49.6 227.9 49.6 C 227.5 49.6 227 49.5 226.8 49.3 Z M 230.8 45 C 230.8 43.5 231.9 42.3 233.5 42.3 C 235 42.3 236.2 43.5 236.2 45 C 236.2 46.6 235 47.7 233.5 47.7 C 231.9 47.7 230.8 46.6 230.8 45 Z M 235.4 45 C 235.4 43.8 234.6 43 233.5 43 C 232.4 43 231.5 43.8 231.5 45 C 231.5 46.2 232.4 47.1 233.5 47.1 C 234.6 47.1 235.4 46.2 235.4 45 Z M 237.4 40.7 C 237.4 40.5 237.6 40.2 237.9 40.2 C 238.2 40.2 238.4 40.4 238.4 40.7 C 238.4 41 238.2 41.2 237.9 41.2 C 237.6 41.2 237.4 41 237.4 40.7 Z M 237.6 42.4 L 238.3 42.4 L 238.3 47.6 L 237.6 47.6 L 237.6 42.4 Z M 245 44.6 C 244.95 44.6 245 47.6 245 47.6 L 244.2 47.6 C 244.2 47.6 244.24 44.67 244.2 44.7 C 244.2 43.6 243.7 43 242.7 43 C 241.5 43 240.8 43.7 240.8 44.9 C 240.82 44.89 240.8 47.6 240.8 47.6 L 240.1 47.6 L 240.1 42.4 L 240.8 42.4 C 240.8 42.4 240.79 43.36 240.8 43.4 C 241.2 42.7 241.9 42.3 242.8 42.3 C 244.1 42.3 245 43.1 245 44.6 Z M 249.5 47.3 C 249.2 47.6 248.8 47.7 248.4 47.7 C 247.4 47.7 246.8 47.1 246.8 46.2 C 246.83 46.17 246.8 43 246.8 43 L 245.9 43 L 245.9 42.4 L 246.8 42.4 L 246.8 41.2 L 247.5 41.2 L 247.5 42.4 L 249.1 42.4 L 249.1 43 L 247.5 43 C 247.5 43 247.54 46.13 247.5 46.1 C 247.5 46.7 247.9 47.1 248.5 47.1 C 248.7 47.1 249 47 249.2 46.8 C 249.2 46.8 249.5 47.3 249.5 47.3 Z M 256 42.3 C 256 42.3 256 43 256 43 C 256 43 255.9 43 255.9 43 C 254.8 43 254.1 43.7 254.1 45 C 254.1 44.97 254.1 47.6 254.1 47.6 L 253.4 47.6 L 253.4 42.4 L 254.1 42.4 C 254.1 42.4 254.07 43.42 254.1 43.4 C 254.4 42.7 255.1 42.3 256 42.3 Z M 261.8 45.2 C 261.8 45.2 257.4 45.2 257.4 45.2 C 257.5 46.3 258.3 47.1 259.5 47.1 C 260.1 47.1 260.7 46.8 261.1 46.4 C 261.1 46.4 261.5 46.8 261.5 46.8 C 261 47.4 260.3 47.7 259.4 47.7 C 257.8 47.7 256.7 46.6 256.7 45 C 256.7 43.5 257.8 42.3 259.2 42.3 C 260.7 42.3 261.8 43.4 261.8 45 C 261.8 45.1 261.8 45.2 261.8 45.2 Z M 257.4 44.7 C 257.4 44.7 261.1 44.7 261.1 44.7 C 261 43.7 260.3 43 259.2 43 C 258.2 43 257.5 43.7 257.4 44.7 Z M 262.6 47 C 262.6 47 262.9 46.5 262.9 46.5 C 263.3 46.8 264 47.1 264.8 47.1 C 265.8 47.1 266.2 46.7 266.2 46.2 C 266.2 44.8 262.8 45.9 262.8 43.8 C 262.8 43 263.5 42.3 264.9 42.3 C 265.5 42.3 266.3 42.5 266.7 42.8 C 266.7 42.8 266.4 43.4 266.4 43.4 C 266 43.1 265.4 43 264.9 43 C 263.9 43 263.5 43.3 263.5 43.8 C 263.5 45.2 266.9 44.2 266.9 46.2 C 266.9 47.1 266.1 47.7 264.7 47.7 C 263.9 47.7 263 47.4 262.6 47 Z M 273.5 45 C 273.5 46.6 272.4 47.7 270.9 47.7 C 270.1 47.7 269.4 47.3 268.9 46.7 C 268.92 46.66 268.9 49.6 268.9 49.6 L 268.2 49.6 L 268.2 42.4 L 268.9 42.4 C 268.9 42.4 268.89 43.43 268.9 43.4 C 269.3 42.7 270.1 42.3 270.9 42.3 C 272.4 42.3 273.5 43.4 273.5 45 Z M 272.8 45 C 272.8 43.8 272 43 270.9 43 C 269.8 43 268.9 43.8 268.9 45 C 268.9 46.2 269.8 47.1 270.9 47.1 C 272 47.1 272.8 46.2 272.8 45 Z M 274.5 45 C 274.5 43.5 275.7 42.3 277.2 42.3 C 278.8 42.3 279.9 43.5 279.9 45 C 279.9 46.6 278.8 47.7 277.2 47.7 C 275.7 47.7 274.5 46.6 274.5 45 Z M 279.2 45 C 279.2 43.8 278.3 43 277.2 43 C 276.1 43 275.3 43.8 275.3 45 C 275.3 46.2 276.1 47.1 277.2 47.1 C 278.3 47.1 279.2 46.2 279.2 45 Z M 286.2 44.6 C 286.16 44.6 286.2 47.6 286.2 47.6 L 285.5 47.6 C 285.5 47.6 285.46 44.67 285.5 44.7 C 285.5 43.6 284.9 43 283.9 43 C 282.7 43 282 43.7 282 44.9 C 282.03 44.89 282 47.6 282 47.6 L 281.3 47.6 L 281.3 42.4 L 282 42.4 C 282 42.4 282 43.36 282 43.4 C 282.4 42.7 283.1 42.3 284 42.3 C 285.3 42.3 286.2 43.1 286.2 44.6 Z M 287.4 47 C 287.4 47 287.7 46.5 287.7 46.5 C 288.1 46.8 288.8 47.1 289.6 47.1 C 290.6 47.1 291 46.7 291 46.2 C 291 44.8 287.6 45.9 287.6 43.8 C 287.6 43 288.3 42.3 289.7 42.3 C 290.3 42.3 291.1 42.5 291.5 42.8 C 291.5 42.8 291.2 43.4 291.2 43.4 C 290.7 43.1 290.2 43 289.7 43 C 288.7 43 288.3 43.3 288.3 43.8 C 288.3 45.2 291.7 44.2 291.7 46.2 C 291.7 47.1 290.9 47.7 289.5 47.7 C 288.7 47.7 287.8 47.4 287.4 47 Z M 292.8 40.7 C 292.8 40.5 293.1 40.2 293.4 40.2 C 293.6 40.2 293.9 40.4 293.9 40.7 C 293.9 41 293.7 41.2 293.4 41.2 C 293.1 41.2 292.8 41 292.8 40.7 Z M 293 42.4 L 293.7 42.4 L 293.7 47.6 L 293 47.6 L 293 42.4 Z M 300.9 45 C 300.9 46.6 299.8 47.7 298.3 47.7 C 297.4 47.7 296.7 47.3 296.2 46.6 C 296.23 46.61 296.2 47.6 296.2 47.6 L 295.6 47.6 L 295.6 40.2 L 296.3 40.2 C 296.3 40.2 296.26 43.39 296.3 43.4 C 296.7 42.7 297.4 42.3 298.3 42.3 C 299.8 42.3 300.9 43.4 300.9 45 Z M 300.2 45 C 300.2 43.8 299.3 43 298.2 43 C 297.1 43 296.2 43.8 296.2 45 C 296.2 46.2 297.1 47.1 298.2 47.1 C 299.3 47.1 300.2 46.2 300.2 45 Z M 302.1 40.7 C 302.1 40.5 302.4 40.2 302.7 40.2 C 303 40.2 303.2 40.4 303.2 40.7 C 303.2 41 303 41.2 302.7 41.2 C 302.4 41.2 302.1 41 302.1 40.7 Z M 302.3 42.4 L 303 42.4 L 303 47.6 L 302.3 47.6 L 302.3 42.4 Z M 304.9 40.2 L 305.6 40.2 L 305.6 47.6 L 304.9 47.6 L 304.9 40.2 Z M 307.3 40.7 C 307.3 40.5 307.5 40.2 307.8 40.2 C 308.1 40.2 308.3 40.4 308.3 40.7 C 308.3 41 308.1 41.2 307.8 41.2 C 307.5 41.2 307.3 41 307.3 40.7 Z M 307.4 42.4 L 308.1 42.4 L 308.1 47.6 L 307.4 47.6 L 307.4 42.4 Z M 312.8 47.3 C 312.6 47.6 312.1 47.7 311.7 47.7 C 310.7 47.7 310.2 47.1 310.2 46.2 C 310.19 46.17 310.2 43 310.2 43 L 309.2 43 L 309.2 42.4 L 310.2 42.4 L 310.2 41.2 L 310.9 41.2 L 310.9 42.4 L 312.5 42.4 L 312.5 43 L 310.9 43 C 310.9 43 310.89 46.13 310.9 46.1 C 310.9 46.7 311.2 47.1 311.8 47.1 C 312.1 47.1 312.4 47 312.6 46.8 C 312.6 46.8 312.8 47.3 312.8 47.3 Z M 318.8 42.4 C 318.8 42.4 316.12 48.28 316.1 48.3 C 315.7 49.3 315.1 49.6 314.4 49.6 C 313.9 49.6 313.4 49.5 313.1 49.2 C 313.1 49.2 313.4 48.6 313.4 48.6 C 313.7 48.9 314 49 314.4 49 C 314.9 49 315.2 48.8 315.5 48.1 C 315.47 48.15 315.7 47.6 315.7 47.6 L 313.4 42.4 L 314.1 42.4 L 316.1 46.9 L 318.1 42.4 L 318.8 42.4 Z M 319.5 42.9 C 319.5 42.6 319.8 42.3 320.1 42.3 C 320.4 42.3 320.6 42.6 320.6 42.9 C 320.6 43.2 320.4 43.4 320.1 43.4 C 319.8 43.4 319.5 43.2 319.5 42.9 Z M 320.6 47.1 C 320.6 47.3 320.6 47.4 320.5 47.7 C 320.48 47.73 320.1 49.1 320.1 49.1 L 319.6 49.1 C 319.6 49.1 319.92 47.66 319.9 47.7 C 319.7 47.6 319.6 47.4 319.6 47.1 C 319.6 46.8 319.8 46.6 320.1 46.6 C 320.4 46.6 320.6 46.8 320.6 47.1 Z " stroke="none" fill="#323132"/>
  </g>
  <g id="Polygon123327">
    <path d="M 20.4 45 L 16.2 47.1 L 16.2 42.9 L 20.4 45 Z " stroke="none" fill="#a243ff"/>
  </g>
  <g id="Polygon123326">
    <path d="M 31.5 23.1 C 31.5 21.1 33.1 19.6 35.2 19.6 C 36.2 19.6 37.1 19.9 37.7 20.6 C 37.7 20.6 37.3 21.1 37.3 21.1 C 36.7 20.5 36 20.2 35.2 20.2 C 33.5 20.2 32.2 21.5 32.2 23.1 C 32.2 24.8 33.5 26 35.2 26 C 36 26 36.7 25.8 37.3 25.2 C 37.3 25.2 37.7 25.7 37.7 25.7 C 37.1 26.4 36.2 26.7 35.2 26.7 C 33.1 26.7 31.5 25.2 31.5 23.1 Z M 38.6 24 C 38.6 22.5 39.7 21.3 41.3 21.3 C 42.8 21.3 43.9 22.5 43.9 24 C 43.9 25.6 42.8 26.7 41.3 26.7 C 39.7 26.7 38.6 25.6 38.6 24 Z M 43.2 24 C 43.2 22.8 42.4 22 41.3 22 C 40.1 22 39.3 22.8 39.3 24 C 39.3 25.2 40.1 26.1 41.3 26.1 C 42.4 26.1 43.2 25.2 43.2 24 Z M 50.2 23.6 C 50.2 23.6 50.2 26.6 50.2 26.6 L 49.5 26.6 C 49.5 26.6 49.49 23.67 49.5 23.7 C 49.5 22.6 48.9 22 47.9 22 C 46.8 22 46.1 22.7 46.1 23.9 C 46.07 23.89 46.1 26.6 46.1 26.6 L 45.4 26.6 L 45.4 21.4 L 46 21.4 C 46 21.4 46.04 22.36 46 22.4 C 46.4 21.7 47.1 21.3 48 21.3 C 49.3 21.3 50.2 22.1 50.2 23.6 Z M 56.9 19.2 L 56.9 26.6 L 56.2 26.6 C 56.2 26.6 56.23 25.61 56.2 25.6 C 55.8 26.3 55.1 26.7 54.2 26.7 C 52.7 26.7 51.6 25.6 51.6 24 C 51.6 22.4 52.7 21.3 54.2 21.3 C 55 21.3 55.8 21.7 56.2 22.4 C 56.2 22.39 56.2 19.2 56.2 19.2 L 56.9 19.2 Z M 56.2 24 C 56.2 22.8 55.4 22 54.3 22 C 53.1 22 52.3 22.8 52.3 24 C 52.3 25.2 53.1 26.1 54.3 26.1 C 55.4 26.1 56.2 25.2 56.2 24 Z M 63.5 21.4 L 63.5 26.6 L 62.8 26.6 C 62.8 26.6 62.84 25.69 62.8 25.7 C 62.5 26.3 61.8 26.7 60.9 26.7 C 59.6 26.7 58.7 25.9 58.7 24.4 C 58.73 24.44 58.7 21.4 58.7 21.4 L 59.4 21.4 C 59.4 21.4 59.43 24.37 59.4 24.4 C 59.4 25.5 60 26.1 61 26.1 C 62.1 26.1 62.8 25.3 62.8 24.1 C 62.81 24.15 62.8 21.4 62.8 21.4 L 63.5 21.4 Z M 65 24 C 65 22.4 66.1 21.3 67.7 21.3 C 68.6 21.3 69.3 21.7 69.7 22.4 C 69.7 22.4 69.2 22.7 69.2 22.7 C 68.8 22.2 68.3 22 67.7 22 C 66.5 22 65.7 22.8 65.7 24 C 65.7 25.3 66.5 26.1 67.7 26.1 C 68.3 26.1 68.8 25.8 69.2 25.3 C 69.2 25.3 69.7 25.7 69.7 25.7 C 69.3 26.3 68.6 26.7 67.7 26.7 C 66.1 26.7 65 25.6 65 24 Z M 74.1 26.3 C 73.8 26.6 73.4 26.7 73 26.7 C 72 26.7 71.4 26.1 71.4 25.2 C 71.43 25.17 71.4 22 71.4 22 L 70.5 22 L 70.5 21.4 L 71.4 21.4 L 71.4 20.2 L 72.1 20.2 L 72.1 21.4 L 73.7 21.4 L 73.7 22 L 72.1 22 C 72.1 22 72.13 25.13 72.1 25.1 C 72.1 25.7 72.5 26.1 73 26.1 C 73.3 26.1 73.6 26 73.8 25.8 C 73.8 25.8 74.1 26.3 74.1 26.3 Z M 79.7 24.2 C 79.7 24.2 75.3 24.2 75.3 24.2 C 75.4 25.3 76.3 26.1 77.4 26.1 C 78 26.1 78.6 25.8 79 25.4 C 79 25.4 79.4 25.8 79.4 25.8 C 78.9 26.4 78.2 26.7 77.4 26.7 C 75.7 26.7 74.6 25.6 74.6 24 C 74.6 22.5 75.7 21.3 77.2 21.3 C 78.7 21.3 79.7 22.4 79.7 24 C 79.7 24.1 79.7 24.2 79.7 24.2 Z M 75.3 23.7 C 75.3 23.7 79.1 23.7 79.1 23.7 C 79 22.7 78.2 22 77.2 22 C 76.2 22 75.4 22.7 75.3 23.7 Z M 86.1 19.2 L 86.1 26.6 L 85.4 26.6 C 85.4 26.6 85.4 25.61 85.4 25.6 C 85 26.3 84.2 26.7 83.4 26.7 C 81.9 26.7 80.7 25.6 80.7 24 C 80.7 22.4 81.9 21.3 83.4 21.3 C 84.2 21.3 84.9 21.7 85.4 22.4 C 85.37 22.39 85.4 19.2 85.4 19.2 L 86.1 19.2 Z M 85.4 24 C 85.4 22.8 84.5 22 83.4 22 C 82.3 22 81.5 22.8 81.5 24 C 81.5 25.2 82.3 26.1 83.4 26.1 C 84.5 26.1 85.4 25.2 85.4 24 Z M 91.5 20.8 C 91.49 20.77 91.5 21.4 91.5 21.4 L 93.1 21.4 L 93.1 22 L 91.5 22 L 91.5 26.6 L 90.8 26.6 L 90.8 22 L 89.9 22 L 89.9 21.4 L 90.8 21.4 C 90.8 21.4 90.8 20.74 90.8 20.7 C 90.8 19.8 91.4 19.2 92.4 19.2 C 92.8 19.2 93.2 19.3 93.4 19.5 C 93.4 19.5 93.2 20 93.2 20 C 93 19.9 92.7 19.8 92.4 19.8 C 91.8 19.8 91.5 20.1 91.5 20.8 Z M 98.2 23.4 C 98.24 23.39 98.2 26.6 98.2 26.6 L 97.6 26.6 C 97.6 26.6 97.56 25.83 97.6 25.8 C 97.2 26.4 96.6 26.7 95.8 26.7 C 94.6 26.7 93.8 26.1 93.8 25.2 C 93.8 24.4 94.4 23.7 95.9 23.7 C 95.86 23.68 97.5 23.7 97.5 23.7 C 97.5 23.7 97.53 23.36 97.5 23.4 C 97.5 22.5 97 22 96 22 C 95.4 22 94.7 22.2 94.3 22.6 C 94.3 22.6 94 22.1 94 22.1 C 94.5 21.6 95.3 21.3 96.1 21.3 C 97.5 21.3 98.2 22 98.2 23.4 Z M 97.5 25.1 C 97.53 25.07 97.5 24.2 97.5 24.2 C 97.5 24.2 95.88 24.21 95.9 24.2 C 94.9 24.2 94.5 24.6 94.5 25.1 C 94.5 25.8 95 26.1 95.9 26.1 C 96.7 26.1 97.3 25.8 97.5 25.1 Z M 99.6 24 C 99.6 22.4 100.8 21.3 102.3 21.3 C 103.2 21.3 104 21.7 104.4 22.4 C 104.4 22.4 103.9 22.7 103.9 22.7 C 103.5 22.2 102.9 22 102.3 22 C 101.2 22 100.3 22.8 100.3 24 C 100.3 25.3 101.2 26.1 102.3 26.1 C 102.9 26.1 103.5 25.8 103.9 25.3 C 103.9 25.3 104.4 25.7 104.4 25.7 C 104 26.3 103.2 26.7 102.3 26.7 C 100.8 26.7 99.6 25.6 99.6 24 Z M 110.3 24.2 C 110.3 24.2 105.9 24.2 105.9 24.2 C 106 25.3 106.8 26.1 108 26.1 C 108.6 26.1 109.2 25.8 109.6 25.4 C 109.6 25.4 110 25.8 110 25.8 C 109.5 26.4 108.8 26.7 108 26.7 C 106.3 26.7 105.2 25.6 105.2 24 C 105.2 22.5 106.3 21.3 107.8 21.3 C 109.2 21.3 110.3 22.4 110.3 24 C 110.3 24.1 110.3 24.2 110.3 24.2 Z M 105.9 23.7 C 105.9 23.7 109.6 23.7 109.6 23.7 C 109.5 22.7 108.8 22 107.8 22 C 106.7 22 106 22.7 105.9 23.7 Z M 111.6 23.6 L 114.2 23.6 L 114.2 24.2 L 111.6 24.2 L 111.6 23.6 Z M 118.5 26.3 C 118.2 26.6 117.8 26.7 117.4 26.7 C 116.4 26.7 115.9 26.1 115.9 25.2 C 115.87 25.17 115.9 22 115.9 22 L 114.9 22 L 114.9 21.4 L 115.9 21.4 L 115.9 20.2 L 116.6 20.2 L 116.6 21.4 L 118.2 21.4 L 118.2 22 L 116.6 22 C 116.6 22 116.58 25.13 116.6 25.1 C 116.6 25.7 116.9 26.1 117.5 26.1 C 117.8 26.1 118.1 26 118.3 25.8 C 118.3 25.8 118.5 26.3 118.5 26.3 Z M 119.1 24 C 119.1 22.5 120.2 21.3 121.8 21.3 C 123.3 21.3 124.4 22.5 124.4 24 C 124.4 25.6 123.3 26.7 121.8 26.7 C 120.2 26.7 119.1 25.6 119.1 24 Z M 123.7 24 C 123.7 22.8 122.9 22 121.8 22 C 120.6 22 119.8 22.8 119.8 24 C 119.8 25.2 120.6 26.1 121.8 26.1 C 122.9 26.1 123.7 25.2 123.7 24 Z M 125.7 23.6 L 128.4 23.6 L 128.4 24.2 L 125.7 24.2 L 125.7 23.6 Z M 130.7 20.8 C 130.7 20.77 130.7 21.4 130.7 21.4 L 132.3 21.4 L 132.3 22 L 130.7 22 L 130.7 26.6 L 130 26.6 L 130 22 L 129.1 22 L 129.1 21.4 L 130 21.4 C 130 21.4 130.01 20.74 130 20.7 C 130 19.8 130.6 19.2 131.6 19.2 C 132 19.2 132.4 19.3 132.7 19.5 C 132.7 19.5 132.4 20 132.4 20 C 132.2 19.9 131.9 19.8 131.6 19.8 C 131 19.8 130.7 20.1 130.7 20.8 Z M 137.5 23.4 C 137.45 23.39 137.5 26.6 137.5 26.6 L 136.8 26.6 C 136.8 26.6 136.77 25.83 136.8 25.8 C 136.5 26.4 135.8 26.7 135 26.7 C 133.8 26.7 133 26.1 133 25.2 C 133 24.4 133.6 23.7 135.1 23.7 C 135.07 23.68 136.7 23.7 136.7 23.7 C 136.7 23.7 136.74 23.36 136.7 23.4 C 136.7 22.5 136.2 22 135.3 22 C 134.6 22 133.9 22.2 133.5 22.6 C 133.5 22.6 133.2 22.1 133.2 22.1 C 133.7 21.6 134.5 21.3 135.3 21.3 C 136.7 21.3 137.5 22 137.5 23.4 Z M 136.7 25.1 C 136.74 25.07 136.7 24.2 136.7 24.2 C 136.7 24.2 135.09 24.21 135.1 24.2 C 134.1 24.2 133.7 24.6 133.7 25.1 C 133.7 25.8 134.2 26.1 135.1 26.1 C 135.9 26.1 136.5 25.8 136.7 25.1 Z M 138.8 24 C 138.8 22.4 140 21.3 141.5 21.3 C 142.4 21.3 143.2 21.7 143.6 22.4 C 143.6 22.4 143.1 22.7 143.1 22.7 C 142.7 22.2 142.2 22 141.5 22 C 140.4 22 139.6 22.8 139.6 24 C 139.6 25.3 140.4 26.1 141.5 26.1 C 142.2 26.1 142.7 25.8 143.1 25.3 C 143.1 25.3 143.6 25.7 143.6 25.7 C 143.2 26.3 142.4 26.7 141.5 26.7 C 140 26.7 138.8 25.6 138.8 24 Z M 149.5 24.2 C 149.5 24.2 145.1 24.2 145.1 24.2 C 145.2 25.3 146 26.1 147.2 26.1 C 147.8 26.1 148.4 25.8 148.8 25.4 C 148.8 25.4 149.2 25.8 149.2 25.8 C 148.7 26.4 148 26.7 147.2 26.7 C 145.5 26.7 144.4 25.6 144.4 24 C 144.4 22.5 145.5 21.3 147 21.3 C 148.5 21.3 149.5 22.4 149.5 24 C 149.5 24.1 149.5 24.2 149.5 24.2 Z M 145.1 23.7 C 145.1 23.7 148.9 23.7 148.9 23.7 C 148.8 22.7 148 22 147 22 C 146 22 145.2 22.7 145.1 23.7 Z M 150.4 21.9 C 150.4 21.6 150.7 21.3 151 21.3 C 151.2 21.3 151.5 21.6 151.5 21.9 C 151.5 22.2 151.2 22.4 151 22.4 C 150.7 22.4 150.4 22.2 150.4 21.9 Z M 151.5 26.1 C 151.5 26.3 151.5 26.4 151.4 26.7 C 151.35 26.73 150.9 28.1 150.9 28.1 L 150.5 28.1 C 150.5 28.1 150.79 26.66 150.8 26.7 C 150.6 26.6 150.4 26.4 150.4 26.1 C 150.4 25.8 150.7 25.6 151 25.6 C 151.3 25.6 151.5 25.8 151.5 26.1 Z " stroke="none" fill="#323132"/>
  </g>
  <g id="Polygon123325">
    <path d="M 20.4 24 L 16.2 26.1 L 16.2 21.9 L 20.4 24 Z " stroke="none" fill="#a243ff"/>
  </g>
</svg>