<?xml version="1.0" standalone="no"?>
<!DOCTYPE svg PUBLIC "-//W3C//DTD SVG 1.1//EN" "http://www.w3.org/Graphics/SVG/1.1/DTD/svg11.dtd">
<svg xmlns="http://www.w3.org/2000/svg" version="1.1" width="445.2px" height="105.5px" viewBox="0 0 445.2 105.5">
  <desc>Workers on medication with critical dose schedules; Workers with cardiovascular problems; Workers with gastro intesti...</desc>
  <defs/>
  <g id="Polygon122934">
    <path d="M 41.7 80.7 L 39.4 87.7 L 38.6 87.7 L 36.6 81.7 L 34.5 87.7 L 33.7 87.7 L 31.4 80.7 L 32.1 80.7 L 34.2 86.7 L 36.2 80.7 L 36.9 80.7 L 39 86.7 L 41 80.7 L 41.7 80.7 Z M 42.2 85 C 42.2 83.5 43.4 82.4 44.9 82.4 C 46.4 82.4 47.6 83.5 47.6 85 C 47.6 86.6 46.4 87.7 44.9 87.7 C 43.4 87.7 42.2 86.6 42.2 85 Z M 46.9 85 C 46.9 83.8 46 83 44.9 83 C 43.8 83 42.9 83.8 42.9 85 C 42.9 86.3 43.8 87.1 44.9 87.1 C 46 87.1 46.9 86.3 46.9 85 Z M 51.6 82.4 C 51.6 82.4 51.6 83.1 51.6 83.1 C 51.6 83.1 51.5 83.1 51.5 83.1 C 50.4 83.1 49.7 83.8 49.7 85 C 49.71 85 49.7 87.7 49.7 87.7 L 49 87.7 L 49 82.4 L 49.7 82.4 C 49.7 82.4 49.68 83.45 49.7 83.4 C 50 82.7 50.7 82.4 51.6 82.4 Z M 54.8 85 L 53.6 86.2 L 53.6 87.7 L 52.9 87.7 L 52.9 80.3 L 53.6 80.3 L 53.6 85.3 L 56.7 82.4 L 57.6 82.4 L 55.4 84.6 L 57.8 87.7 L 56.9 87.7 L 54.8 85 Z M 63.3 85.3 C 63.3 85.3 58.9 85.3 58.9 85.3 C 58.9 86.4 59.8 87.1 60.9 87.1 C 61.6 87.1 62.1 86.9 62.5 86.4 C 62.5 86.4 62.9 86.9 62.9 86.9 C 62.5 87.4 61.7 87.7 60.9 87.7 C 59.3 87.7 58.2 86.6 58.2 85 C 58.2 83.5 59.2 82.4 60.7 82.4 C 62.2 82.4 63.3 83.5 63.3 85 C 63.3 85.1 63.3 85.2 63.3 85.3 Z M 58.9 84.7 C 58.9 84.7 62.6 84.7 62.6 84.7 C 62.5 83.7 61.8 83 60.7 83 C 59.7 83 59 83.7 58.9 84.7 Z M 67.3 82.4 C 67.3 82.4 67.3 83.1 67.3 83.1 C 67.3 83.1 67.2 83.1 67.2 83.1 C 66.1 83.1 65.4 83.8 65.4 85 C 65.38 85 65.4 87.7 65.4 87.7 L 64.7 87.7 L 64.7 82.4 L 65.4 82.4 C 65.4 82.4 65.35 83.45 65.4 83.4 C 65.7 82.7 66.4 82.4 67.3 82.4 Z M 68 87.1 C 68 87.1 68.3 86.5 68.3 86.5 C 68.7 86.9 69.4 87.1 70.2 87.1 C 71.2 87.1 71.6 86.8 71.6 86.3 C 71.6 84.9 68.2 86 68.2 83.9 C 68.2 83 68.9 82.4 70.3 82.4 C 70.9 82.4 71.7 82.6 72.1 82.9 C 72.1 82.9 71.8 83.4 71.8 83.4 C 71.4 83.1 70.8 83 70.3 83 C 69.3 83 68.9 83.4 68.9 83.9 C 68.9 85.3 72.3 84.2 72.3 86.2 C 72.3 87.1 71.5 87.7 70.1 87.7 C 69.3 87.7 68.4 87.4 68 87.1 Z M 84 82.4 L 82 87.7 L 81.3 87.7 L 79.6 83.4 L 78 87.7 L 77.3 87.7 L 75.3 82.4 L 76 82.4 L 77.7 86.9 L 79.3 82.4 L 80 82.4 L 81.6 86.9 L 83.3 82.4 L 84 82.4 Z M 84.9 80.8 C 84.9 80.5 85.1 80.3 85.4 80.3 C 85.7 80.3 85.9 80.5 85.9 80.7 C 85.9 81 85.7 81.3 85.4 81.3 C 85.1 81.3 84.9 81 84.9 80.8 Z M 85.1 82.4 L 85.8 82.4 L 85.8 87.7 L 85.1 87.7 L 85.1 82.4 Z M 90.5 87.4 C 90.2 87.6 89.8 87.7 89.4 87.7 C 88.4 87.7 87.8 87.2 87.8 86.2 C 87.82 86.2 87.8 83 87.8 83 L 86.9 83 L 86.9 82.4 L 87.8 82.4 L 87.8 81.3 L 88.5 81.3 L 88.5 82.4 L 90.1 82.4 L 90.1 83 L 88.5 83 C 88.5 83 88.53 86.16 88.5 86.2 C 88.5 86.8 88.8 87.1 89.4 87.1 C 89.7 87.1 90 87 90.2 86.9 C 90.2 86.9 90.5 87.4 90.5 87.4 Z M 96.5 84.6 C 96.49 84.63 96.5 87.7 96.5 87.7 L 95.8 87.7 C 95.8 87.7 95.79 84.7 95.8 84.7 C 95.8 83.6 95.2 83 94.2 83 C 93.1 83 92.4 83.7 92.4 84.9 C 92.36 84.92 92.4 87.7 92.4 87.7 L 91.7 87.7 L 91.7 80.3 L 92.4 80.3 C 92.4 80.3 92.36 83.34 92.4 83.3 C 92.8 82.7 93.4 82.4 94.3 82.4 C 95.6 82.4 96.5 83.1 96.5 84.6 Z M 105.6 85.3 C 105.6 85.3 101.2 85.3 101.2 85.3 C 101.3 86.4 102.1 87.1 103.3 87.1 C 103.9 87.1 104.5 86.9 104.9 86.4 C 104.9 86.4 105.3 86.9 105.3 86.9 C 104.8 87.4 104.1 87.7 103.3 87.7 C 101.6 87.7 100.5 86.6 100.5 85 C 100.5 83.5 101.6 82.4 103.1 82.4 C 104.6 82.4 105.6 83.5 105.6 85 C 105.6 85.1 105.6 85.2 105.6 85.3 Z M 101.2 84.7 C 101.2 84.7 105 84.7 105 84.7 C 104.9 83.7 104.1 83 103.1 83 C 102.1 83 101.3 83.7 101.2 84.7 Z M 112.4 85.1 C 112.4 86.7 111.2 87.7 109.7 87.7 C 108.9 87.7 108.2 87.4 107.7 86.7 C 107.75 86.69 107.7 89.6 107.7 89.6 L 107 89.6 L 107 82.4 L 107.7 82.4 C 107.7 82.4 107.72 83.46 107.7 83.5 C 108.1 82.8 108.9 82.4 109.7 82.4 C 111.2 82.4 112.4 83.5 112.4 85.1 Z M 111.7 85 C 111.7 83.8 110.8 83 109.7 83 C 108.6 83 107.7 83.8 107.7 85 C 107.7 86.3 108.6 87.1 109.7 87.1 C 110.8 87.1 111.7 86.3 111.7 85 Z M 113.6 80.8 C 113.6 80.5 113.9 80.3 114.2 80.3 C 114.4 80.3 114.7 80.5 114.7 80.7 C 114.7 81 114.5 81.3 114.2 81.3 C 113.9 81.3 113.6 81 113.6 80.8 Z M 113.8 82.4 L 114.5 82.4 L 114.5 87.7 L 113.8 87.7 L 113.8 82.4 Z M 116.4 80.3 L 117.1 80.3 L 117.1 87.7 L 116.4 87.7 L 116.4 80.3 Z M 123.6 85.3 C 123.6 85.3 119.2 85.3 119.2 85.3 C 119.3 86.4 120.1 87.1 121.3 87.1 C 121.9 87.1 122.5 86.9 122.9 86.4 C 122.9 86.4 123.3 86.9 123.3 86.9 C 122.8 87.4 122.1 87.7 121.2 87.7 C 119.6 87.7 118.5 86.6 118.5 85 C 118.5 83.5 119.6 82.4 121.1 82.4 C 122.5 82.4 123.6 83.5 123.6 85 C 123.6 85.1 123.6 85.2 123.6 85.3 Z M 119.2 84.7 C 119.2 84.7 122.9 84.7 122.9 84.7 C 122.8 83.7 122.1 83 121.1 83 C 120 83 119.3 83.7 119.2 84.7 Z M 130.3 85.1 C 130.3 86.7 129.2 87.7 127.7 87.7 C 126.9 87.7 126.2 87.4 125.7 86.7 C 125.72 86.69 125.7 89.6 125.7 89.6 L 125 89.6 L 125 82.4 L 125.7 82.4 C 125.7 82.4 125.69 83.46 125.7 83.5 C 126.1 82.8 126.9 82.4 127.7 82.4 C 129.2 82.4 130.3 83.5 130.3 85.1 Z M 129.6 85 C 129.6 83.8 128.8 83 127.7 83 C 126.6 83 125.7 83.8 125.7 85 C 125.7 86.3 126.6 87.1 127.7 87.1 C 128.8 87.1 129.6 86.3 129.6 85 Z M 131.1 87.1 C 131.1 87.1 131.5 86.5 131.5 86.5 C 131.9 86.9 132.6 87.1 133.3 87.1 C 134.3 87.1 134.7 86.8 134.7 86.3 C 134.7 84.9 131.3 86 131.3 83.9 C 131.3 83 132.1 82.4 133.4 82.4 C 134.1 82.4 134.8 82.6 135.3 82.9 C 135.3 82.9 135 83.4 135 83.4 C 134.5 83.1 133.9 83 133.4 83 C 132.5 83 132 83.4 132 83.9 C 132 85.3 135.4 84.2 135.4 86.2 C 135.4 87.1 134.6 87.7 133.3 87.7 C 132.4 87.7 131.6 87.4 131.1 87.1 Z M 141.4 82.4 C 141.4 82.4 138.77 88.31 138.8 88.3 C 138.3 89.3 137.8 89.7 137 89.7 C 136.5 89.7 136.1 89.5 135.7 89.2 C 135.7 89.2 136.1 88.7 136.1 88.7 C 136.3 88.9 136.6 89.1 137 89.1 C 137.5 89.1 137.8 88.8 138.1 88.2 C 138.12 88.18 138.3 87.7 138.3 87.7 L 136 82.4 L 136.7 82.4 L 138.7 86.9 L 140.7 82.4 L 141.4 82.4 Z M 141.5 87.2 C 141.5 86.9 141.8 86.6 142 86.6 C 142.3 86.6 142.6 86.9 142.6 87.2 C 142.6 87.5 142.3 87.7 142 87.7 C 141.8 87.7 141.5 87.5 141.5 87.2 Z " stroke="none" fill="#323132"/>
  </g>
  <g id="Polygon122933">
    <path d="M 20.4 85 L 16.2 87.1 L 16.2 82.9 L 20.4 85 Z " stroke="none" fill="#a243ff"/>
  </g>
  <g id="Polygon122932">
    <path d="M 41.7 59.7 L 39.4 66.7 L 38.6 66.7 L 36.6 60.7 L 34.5 66.7 L 33.7 66.7 L 31.4 59.7 L 32.1 59.7 L 34.2 65.7 L 36.2 59.7 L 36.9 59.7 L 39 65.7 L 41 59.7 L 41.7 59.7 Z M 42.2 64 C 42.2 62.5 43.4 61.4 44.9 61.4 C 46.4 61.4 47.6 62.5 47.6 64 C 47.6 65.6 46.4 66.7 44.9 66.7 C 43.4 66.7 42.2 65.6 42.2 64 Z M 46.9 64 C 46.9 62.8 46 62 44.9 62 C 43.8 62 42.9 62.8 42.9 64 C 42.9 65.3 43.8 66.1 44.9 66.1 C 46 66.1 46.9 65.3 46.9 64 Z M 51.6 61.4 C 51.6 61.4 51.6 62.1 51.6 62.1 C 51.6 62.1 51.5 62.1 51.5 62.1 C 50.4 62.1 49.7 62.8 49.7 64 C 49.71 64 49.7 66.7 49.7 66.7 L 49 66.7 L 49 61.4 L 49.7 61.4 C 49.7 61.4 49.68 62.45 49.7 62.4 C 50 61.7 50.7 61.4 51.6 61.4 Z M 54.8 64 L 53.6 65.2 L 53.6 66.7 L 52.9 66.7 L 52.9 59.3 L 53.6 59.3 L 53.6 64.3 L 56.7 61.4 L 57.6 61.4 L 55.4 63.6 L 57.8 66.7 L 56.9 66.7 L 54.8 64 Z M 63.3 64.3 C 63.3 64.3 58.9 64.3 58.9 64.3 C 58.9 65.4 59.8 66.1 60.9 66.1 C 61.6 66.1 62.1 65.9 62.5 65.4 C 62.5 65.4 62.9 65.9 62.9 65.9 C 62.5 66.4 61.7 66.7 60.9 66.7 C 59.3 66.7 58.2 65.6 58.2 64 C 58.2 62.5 59.2 61.4 60.7 61.4 C 62.2 61.4 63.3 62.5 63.3 64 C 63.3 64.1 63.3 64.2 63.3 64.3 Z M 58.9 63.7 C 58.9 63.7 62.6 63.7 62.6 63.7 C 62.5 62.7 61.8 62 60.7 62 C 59.7 62 59 62.7 58.9 63.7 Z M 67.3 61.4 C 67.3 61.4 67.3 62.1 67.3 62.1 C 67.3 62.1 67.2 62.1 67.2 62.1 C 66.1 62.1 65.4 62.8 65.4 64 C 65.38 64 65.4 66.7 65.4 66.7 L 64.7 66.7 L 64.7 61.4 L 65.4 61.4 C 65.4 61.4 65.35 62.45 65.4 62.4 C 65.7 61.7 66.4 61.4 67.3 61.4 Z M 68 66.1 C 68 66.1 68.3 65.5 68.3 65.5 C 68.7 65.9 69.4 66.1 70.2 66.1 C 71.2 66.1 71.6 65.8 71.6 65.3 C 71.6 63.9 68.2 65 68.2 62.9 C 68.2 62 68.9 61.4 70.3 61.4 C 70.9 61.4 71.7 61.6 72.1 61.9 C 72.1 61.9 71.8 62.4 71.8 62.4 C 71.4 62.1 70.8 62 70.3 62 C 69.3 62 68.9 62.4 68.9 62.9 C 68.9 64.3 72.3 63.2 72.3 65.2 C 72.3 66.1 71.5 66.7 70.1 66.7 C 69.3 66.7 68.4 66.4 68 66.1 Z M 84 61.4 L 82 66.7 L 81.3 66.7 L 79.6 62.4 L 78 66.7 L 77.3 66.7 L 75.3 61.4 L 76 61.4 L 77.7 65.9 L 79.3 61.4 L 80 61.4 L 81.6 65.9 L 83.3 61.4 L 84 61.4 Z M 84.9 59.8 C 84.9 59.5 85.1 59.3 85.4 59.3 C 85.7 59.3 85.9 59.5 85.9 59.7 C 85.9 60 85.7 60.3 85.4 60.3 C 85.1 60.3 84.9 60 84.9 59.8 Z M 85.1 61.4 L 85.8 61.4 L 85.8 66.7 L 85.1 66.7 L 85.1 61.4 Z M 90.5 66.4 C 90.2 66.6 89.8 66.7 89.4 66.7 C 88.4 66.7 87.8 66.2 87.8 65.2 C 87.82 65.2 87.8 62 87.8 62 L 86.9 62 L 86.9 61.4 L 87.8 61.4 L 87.8 60.3 L 88.5 60.3 L 88.5 61.4 L 90.1 61.4 L 90.1 62 L 88.5 62 C 88.5 62 88.53 65.16 88.5 65.2 C 88.5 65.8 88.8 66.1 89.4 66.1 C 89.7 66.1 90 66 90.2 65.9 C 90.2 65.9 90.5 66.4 90.5 66.4 Z M 96.5 63.6 C 96.49 63.63 96.5 66.7 96.5 66.7 L 95.8 66.7 C 95.8 66.7 95.79 63.7 95.8 63.7 C 95.8 62.6 95.2 62 94.2 62 C 93.1 62 92.4 62.7 92.4 63.9 C 92.36 63.92 92.4 66.7 92.4 66.7 L 91.7 66.7 L 91.7 59.3 L 92.4 59.3 C 92.4 59.3 92.36 62.34 92.4 62.3 C 92.8 61.7 93.4 61.4 94.3 61.4 C 95.6 61.4 96.5 62.1 96.5 63.6 Z M 105.9 61.4 C 105.9 61.4 105.91 66.04 105.9 66 C 105.9 67.9 105 68.7 103.3 68.7 C 102.3 68.7 101.4 68.4 100.8 67.9 C 100.8 67.9 101.2 67.3 101.2 67.3 C 101.7 67.8 102.5 68 103.3 68 C 104.6 68 105.2 67.4 105.2 66.1 C 105.2 66.1 105.2 65.5 105.2 65.5 C 104.8 66.1 104 66.5 103.2 66.5 C 101.7 66.5 100.5 65.4 100.5 63.9 C 100.5 62.4 101.7 61.4 103.2 61.4 C 104 61.4 104.8 61.7 105.2 62.4 C 105.24 62.43 105.2 61.4 105.2 61.4 L 105.9 61.4 Z M 105.2 63.9 C 105.2 62.8 104.4 62 103.2 62 C 102.1 62 101.2 62.8 101.2 63.9 C 101.2 65.1 102.1 65.9 103.2 65.9 C 104.4 65.9 105.2 65.1 105.2 63.9 Z M 111.8 63.4 C 111.82 63.42 111.8 66.7 111.8 66.7 L 111.1 66.7 C 111.1 66.7 111.14 65.86 111.1 65.9 C 110.8 66.4 110.2 66.7 109.3 66.7 C 108.1 66.7 107.4 66.1 107.4 65.2 C 107.4 64.4 107.9 63.7 109.4 63.7 C 109.44 63.71 111.1 63.7 111.1 63.7 C 111.1 63.7 111.11 63.39 111.1 63.4 C 111.1 62.5 110.6 62 109.6 62 C 108.9 62 108.3 62.2 107.9 62.6 C 107.9 62.6 107.5 62.1 107.5 62.1 C 108.1 61.6 108.9 61.4 109.7 61.4 C 111 61.4 111.8 62.1 111.8 63.4 Z M 111.1 65.1 C 111.11 65.1 111.1 64.2 111.1 64.2 C 111.1 64.2 109.46 64.24 109.5 64.2 C 108.4 64.2 108.1 64.6 108.1 65.2 C 108.1 65.8 108.6 66.2 109.4 66.2 C 110.2 66.2 110.8 65.8 111.1 65.1 Z M 113 66.1 C 113 66.1 113.4 65.5 113.4 65.5 C 113.8 65.9 114.5 66.1 115.2 66.1 C 116.2 66.1 116.6 65.8 116.6 65.3 C 116.6 63.9 113.2 65 113.2 62.9 C 113.2 62 114 61.4 115.3 61.4 C 116 61.4 116.7 61.6 117.2 61.9 C 117.2 61.9 116.9 62.4 116.9 62.4 C 116.4 62.1 115.8 62 115.3 62 C 114.4 62 113.9 62.4 113.9 62.9 C 113.9 64.3 117.3 63.2 117.3 65.2 C 117.3 66.1 116.5 66.7 115.2 66.7 C 114.3 66.7 113.5 66.4 113 66.1 Z M 121.6 66.4 C 121.3 66.6 120.9 66.7 120.5 66.7 C 119.5 66.7 119 66.2 119 65.2 C 118.98 65.2 119 62 119 62 L 118 62 L 118 61.4 L 119 61.4 L 119 60.3 L 119.7 60.3 L 119.7 61.4 L 121.3 61.4 L 121.3 62 L 119.7 62 C 119.7 62 119.69 65.16 119.7 65.2 C 119.7 65.8 120 66.1 120.6 66.1 C 120.9 66.1 121.2 66 121.4 65.9 C 121.4 65.9 121.6 66.4 121.6 66.4 Z M 125.5 61.4 C 125.5 61.4 125.5 62.1 125.5 62.1 C 125.4 62.1 125.3 62.1 125.3 62.1 C 124.2 62.1 123.5 62.8 123.5 64 C 123.52 64 123.5 66.7 123.5 66.7 L 122.8 66.7 L 122.8 61.4 L 123.5 61.4 C 123.5 61.4 123.49 62.45 123.5 62.4 C 123.8 61.7 124.5 61.4 125.5 61.4 Z M 126.1 64 C 126.1 62.5 127.2 61.4 128.8 61.4 C 130.3 61.4 131.4 62.5 131.4 64 C 131.4 65.6 130.3 66.7 128.8 66.7 C 127.2 66.7 126.1 65.6 126.1 64 Z M 130.7 64 C 130.7 62.8 129.9 62 128.8 62 C 127.6 62 126.8 62.8 126.8 64 C 126.8 65.3 127.6 66.1 128.8 66.1 C 129.9 66.1 130.7 65.3 130.7 64 Z M 135.3 59.8 C 135.3 59.5 135.6 59.3 135.9 59.3 C 136.2 59.3 136.4 59.5 136.4 59.7 C 136.4 60 136.2 60.3 135.9 60.3 C 135.6 60.3 135.3 60 135.3 59.8 Z M 135.5 61.4 L 136.2 61.4 L 136.2 66.7 L 135.5 66.7 L 135.5 61.4 Z M 142.9 63.6 C 142.89 63.63 142.9 66.7 142.9 66.7 L 142.2 66.7 C 142.2 66.7 142.18 63.7 142.2 63.7 C 142.2 62.6 141.6 62 140.6 62 C 139.5 62 138.8 62.7 138.8 63.9 C 138.76 63.92 138.8 66.7 138.8 66.7 L 138.1 66.7 L 138.1 61.4 L 138.7 61.4 C 138.7 61.4 138.73 62.39 138.7 62.4 C 139.1 61.7 139.8 61.4 140.7 61.4 C 142 61.4 142.9 62.1 142.9 63.6 Z M 147.4 66.4 C 147.1 66.6 146.7 66.7 146.3 66.7 C 145.3 66.7 144.8 66.2 144.8 65.2 C 144.78 65.2 144.8 62 144.8 62 L 143.8 62 L 143.8 61.4 L 144.8 61.4 L 144.8 60.3 L 145.5 60.3 L 145.5 61.4 L 147.1 61.4 L 147.1 62 L 145.5 62 C 145.5 62 145.48 65.16 145.5 65.2 C 145.5 65.8 145.8 66.1 146.4 66.1 C 146.7 66.1 147 66 147.2 65.9 C 147.2 65.9 147.4 66.4 147.4 66.4 Z M 153.1 64.3 C 153.1 64.3 148.7 64.3 148.7 64.3 C 148.8 65.4 149.6 66.1 150.8 66.1 C 151.4 66.1 152 65.9 152.4 65.4 C 152.4 65.4 152.8 65.9 152.8 65.9 C 152.3 66.4 151.6 66.7 150.7 66.7 C 149.1 66.7 148 65.6 148 64 C 148 62.5 149.1 61.4 150.5 61.4 C 152 61.4 153.1 62.5 153.1 64 C 153.1 64.1 153.1 64.2 153.1 64.3 Z M 148.7 63.7 C 148.7 63.7 152.4 63.7 152.4 63.7 C 152.3 62.7 151.6 62 150.5 62 C 149.5 62 148.8 62.7 148.7 63.7 Z M 153.9 66.1 C 153.9 66.1 154.2 65.5 154.2 65.5 C 154.6 65.9 155.3 66.1 156.1 66.1 C 157.1 66.1 157.5 65.8 157.5 65.3 C 157.5 63.9 154.1 65 154.1 62.9 C 154.1 62 154.8 61.4 156.2 61.4 C 156.8 61.4 157.6 61.6 158 61.9 C 158 61.9 157.7 62.4 157.7 62.4 C 157.3 62.1 156.7 62 156.2 62 C 155.2 62 154.8 62.4 154.8 62.9 C 154.8 64.3 158.2 63.2 158.2 65.2 C 158.2 66.1 157.4 66.7 156 66.7 C 155.2 66.7 154.3 66.4 153.9 66.1 Z M 162.5 66.4 C 162.2 66.6 161.8 66.7 161.4 66.7 C 160.4 66.7 159.8 66.2 159.8 65.2 C 159.83 65.2 159.8 62 159.8 62 L 158.9 62 L 158.9 61.4 L 159.8 61.4 L 159.8 60.3 L 160.5 60.3 L 160.5 61.4 L 162.1 61.4 L 162.1 62 L 160.5 62 C 160.5 62 160.54 65.16 160.5 65.2 C 160.5 65.8 160.9 66.1 161.5 66.1 C 161.7 66.1 162 66 162.2 65.9 C 162.2 65.9 162.5 66.4 162.5 66.4 Z M 163.5 59.8 C 163.5 59.5 163.7 59.3 164 59.3 C 164.3 59.3 164.6 59.5 164.6 59.7 C 164.6 60 164.3 60.3 164 60.3 C 163.7 60.3 163.5 60 163.5 59.8 Z M 163.7 61.4 L 164.4 61.4 L 164.4 66.7 L 163.7 66.7 L 163.7 61.4 Z M 171.1 63.6 C 171.06 63.63 171.1 66.7 171.1 66.7 L 170.4 66.7 C 170.4 66.7 170.35 63.7 170.4 63.7 C 170.4 62.6 169.8 62 168.8 62 C 167.6 62 166.9 62.7 166.9 63.9 C 166.93 63.92 166.9 66.7 166.9 66.7 L 166.2 66.7 L 166.2 61.4 L 166.9 61.4 C 166.9 61.4 166.9 62.39 166.9 62.4 C 167.3 61.7 168 61.4 168.9 61.4 C 170.2 61.4 171.1 62.1 171.1 63.6 Z M 176.9 63.4 C 176.88 63.42 176.9 66.7 176.9 66.7 L 176.2 66.7 C 176.2 66.7 176.2 65.86 176.2 65.9 C 175.9 66.4 175.3 66.7 174.4 66.7 C 173.2 66.7 172.5 66.1 172.5 65.2 C 172.5 64.4 173 63.7 174.5 63.7 C 174.5 63.71 176.2 63.7 176.2 63.7 C 176.2 63.7 176.17 63.39 176.2 63.4 C 176.2 62.5 175.7 62 174.7 62 C 174 62 173.4 62.2 172.9 62.6 C 172.9 62.6 172.6 62.1 172.6 62.1 C 173.1 61.6 173.9 61.4 174.8 61.4 C 176.1 61.4 176.9 62.1 176.9 63.4 Z M 176.2 65.1 C 176.17 65.1 176.2 64.2 176.2 64.2 C 176.2 64.2 174.52 64.24 174.5 64.2 C 173.5 64.2 173.2 64.6 173.2 65.2 C 173.2 65.8 173.7 66.2 174.5 66.2 C 175.3 66.2 175.9 65.8 176.2 65.1 Z M 178.7 59.3 L 179.4 59.3 L 179.4 66.7 L 178.7 66.7 L 178.7 59.3 Z M 188.8 59.3 L 188.8 66.7 L 188.1 66.7 C 188.1 66.7 188.13 65.64 188.1 65.6 C 187.7 66.3 187 66.7 186.1 66.7 C 184.6 66.7 183.5 65.6 183.5 64 C 183.5 62.5 184.6 61.4 186.1 61.4 C 186.9 61.4 187.7 61.7 188.1 62.4 C 188.1 62.42 188.1 59.3 188.1 59.3 L 188.8 59.3 Z M 188.1 64 C 188.1 62.8 187.3 62 186.2 62 C 185 62 184.2 62.8 184.2 64 C 184.2 65.3 185 66.1 186.2 66.1 C 187.3 66.1 188.1 65.3 188.1 64 Z M 190.5 59.8 C 190.5 59.5 190.7 59.3 191 59.3 C 191.3 59.3 191.6 59.5 191.6 59.7 C 191.6 60 191.3 60.3 191 60.3 C 190.7 60.3 190.5 60 190.5 59.8 Z M 190.7 61.4 L 191.4 61.4 L 191.4 66.7 L 190.7 66.7 L 190.7 61.4 Z M 192.7 66.1 C 192.7 66.1 193 65.5 193 65.5 C 193.4 65.9 194.1 66.1 194.8 66.1 C 195.8 66.1 196.3 65.8 196.3 65.3 C 196.3 63.9 192.8 65 192.8 62.9 C 192.8 62 193.6 61.4 194.9 61.4 C 195.6 61.4 196.3 61.6 196.8 61.9 C 196.8 61.9 196.5 62.4 196.5 62.4 C 196 62.1 195.5 62 194.9 62 C 194 62 193.6 62.4 193.6 62.9 C 193.6 64.3 197 63.2 197 65.2 C 197 66.1 196.2 66.7 194.8 66.7 C 193.9 66.7 193.1 66.4 192.7 66.1 Z M 197.8 64 C 197.8 62.5 199 61.4 200.5 61.4 C 202.1 61.4 203.2 62.5 203.2 64 C 203.2 65.6 202.1 66.7 200.5 66.7 C 199 66.7 197.8 65.6 197.8 64 Z M 202.5 64 C 202.5 62.8 201.6 62 200.5 62 C 199.4 62 198.6 62.8 198.6 64 C 198.6 65.3 199.4 66.1 200.5 66.1 C 201.6 66.1 202.5 65.3 202.5 64 Z M 207.3 61.4 C 207.3 61.4 207.3 62.1 207.3 62.1 C 207.2 62.1 207.1 62.1 207.1 62.1 C 206 62.1 205.3 62.8 205.3 64 C 205.33 64 205.3 66.7 205.3 66.7 L 204.6 66.7 L 204.6 61.4 L 205.3 61.4 C 205.3 61.4 205.3 62.45 205.3 62.4 C 205.6 61.7 206.3 61.4 207.3 61.4 Z M 213.2 59.3 L 213.2 66.7 L 212.5 66.7 C 212.5 66.7 212.55 65.64 212.5 65.6 C 212.1 66.3 211.4 66.7 210.5 66.7 C 209 66.7 207.9 65.6 207.9 64 C 207.9 62.5 209 61.4 210.5 61.4 C 211.4 61.4 212.1 61.7 212.5 62.4 C 212.52 62.42 212.5 59.3 212.5 59.3 L 213.2 59.3 Z M 212.5 64 C 212.5 62.8 211.7 62 210.6 62 C 209.5 62 208.6 62.8 208.6 64 C 208.6 65.3 209.5 66.1 210.6 66.1 C 211.7 66.1 212.5 65.3 212.5 64 Z M 219.8 64.3 C 219.8 64.3 215.4 64.3 215.4 64.3 C 215.5 65.4 216.3 66.1 217.5 66.1 C 218.1 66.1 218.7 65.9 219.1 65.4 C 219.1 65.4 219.5 65.9 219.5 65.9 C 219 66.4 218.3 66.7 217.4 66.7 C 215.8 66.7 214.7 65.6 214.7 64 C 214.7 62.5 215.8 61.4 217.2 61.4 C 218.7 61.4 219.8 62.5 219.8 64 C 219.8 64.1 219.8 64.2 219.8 64.3 Z M 215.4 63.7 C 215.4 63.7 219.1 63.7 219.1 63.7 C 219 62.7 218.3 62 217.2 62 C 216.2 62 215.5 62.7 215.4 63.7 Z M 223.8 61.4 C 223.8 61.4 223.8 62.1 223.8 62.1 C 223.8 62.1 223.7 62.1 223.7 62.1 C 222.6 62.1 221.9 62.8 221.9 64 C 221.9 64 221.9 66.7 221.9 66.7 L 221.2 66.7 L 221.2 61.4 L 221.9 61.4 C 221.9 61.4 221.87 62.45 221.9 62.4 C 222.2 61.7 222.9 61.4 223.8 61.4 Z M 224.5 66.1 C 224.5 66.1 224.8 65.5 224.8 65.5 C 225.3 65.9 226 66.1 226.7 66.1 C 227.7 66.1 228.1 65.8 228.1 65.3 C 228.1 63.9 224.7 65 224.7 62.9 C 224.7 62 225.4 61.4 226.8 61.4 C 227.5 61.4 228.2 61.6 228.6 61.9 C 228.6 61.9 228.3 62.4 228.3 62.4 C 227.9 62.1 227.3 62 226.8 62 C 225.8 62 225.4 62.4 225.4 62.9 C 225.4 64.3 228.8 63.2 228.8 65.2 C 228.8 66.1 228 66.7 226.7 66.7 C 225.8 66.7 224.9 66.4 224.5 66.1 Z M 229.7 61.9 C 229.7 61.6 230 61.4 230.3 61.4 C 230.6 61.4 230.8 61.6 230.8 61.9 C 230.8 62.2 230.6 62.5 230.3 62.5 C 230 62.5 229.7 62.2 229.7 61.9 Z M 230.8 66.2 C 230.8 66.3 230.8 66.5 230.7 66.8 C 230.68 66.76 230.3 68.1 230.3 68.1 L 229.8 68.1 C 229.8 68.1 230.12 66.69 230.1 66.7 C 229.9 66.6 229.8 66.4 229.8 66.2 C 229.8 65.9 230 65.6 230.3 65.6 C 230.6 65.6 230.8 65.9 230.8 66.2 Z M 238.9 63.4 C 238.92 63.42 238.9 66.7 238.9 66.7 L 238.2 66.7 C 238.2 66.7 238.24 65.86 238.2 65.9 C 237.9 66.4 237.3 66.7 236.4 66.7 C 235.2 66.7 234.5 66.1 234.5 65.2 C 234.5 64.4 235 63.7 236.5 63.7 C 236.54 63.71 238.2 63.7 238.2 63.7 C 238.2 63.7 238.21 63.39 238.2 63.4 C 238.2 62.5 237.7 62 236.7 62 C 236 62 235.4 62.2 235 62.6 C 235 62.6 234.6 62.1 234.6 62.1 C 235.2 61.6 236 61.4 236.8 61.4 C 238.1 61.4 238.9 62.1 238.9 63.4 Z M 238.2 65.1 C 238.21 65.1 238.2 64.2 238.2 64.2 C 238.2 64.2 236.56 64.24 236.6 64.2 C 235.5 64.2 235.2 64.6 235.2 65.2 C 235.2 65.8 235.7 66.2 236.5 66.2 C 237.3 66.2 237.9 65.8 238.2 65.1 Z M 245.6 63.6 C 245.57 63.63 245.6 66.7 245.6 66.7 L 244.9 66.7 C 244.9 66.7 244.86 63.7 244.9 63.7 C 244.9 62.6 244.3 62 243.3 62 C 242.1 62 241.4 62.7 241.4 63.9 C 241.44 63.92 241.4 66.7 241.4 66.7 L 240.7 66.7 L 240.7 61.4 L 241.4 61.4 C 241.4 61.4 241.41 62.39 241.4 62.4 C 241.8 61.7 242.5 61.4 243.4 61.4 C 244.7 61.4 245.6 62.1 245.6 63.6 Z M 252.3 59.3 L 252.3 66.7 L 251.6 66.7 C 251.6 66.7 251.6 65.64 251.6 65.6 C 251.2 66.3 250.4 66.7 249.6 66.7 C 248.1 66.7 247 65.6 247 64 C 247 62.5 248.1 61.4 249.6 61.4 C 250.4 61.4 251.1 61.7 251.6 62.4 C 251.57 62.42 251.6 59.3 251.6 59.3 L 252.3 59.3 Z M 251.6 64 C 251.6 62.8 250.7 62 249.6 62 C 248.5 62 247.7 62.8 247.7 64 C 247.7 65.3 248.5 66.1 249.6 66.1 C 250.7 66.1 251.6 65.3 251.6 64 Z " stroke="none" fill="#323132"/>
  </g>
  <g id="Polygon122931">
    <path d="M 20.4 64 L 16.2 66.1 L 16.2 61.9 L 20.4 64 Z " stroke="none" fill="#a243ff"/>
  </g>
  <g id="Polygon122930">
    <path d="M 41.7 38.7 L 39.4 45.7 L 38.6 45.7 L 36.6 39.7 L 34.5 45.7 L 33.7 45.7 L 31.4 38.7 L 32.1 38.7 L 34.2 44.7 L 36.2 38.7 L 36.9 38.7 L 39 44.7 L 41 38.7 L 41.7 38.7 Z M 42.2 43 C 42.2 41.5 43.4 40.4 44.9 40.4 C 46.4 40.4 47.6 41.5 47.6 43 C 47.6 44.6 46.4 45.7 44.9 45.7 C 43.4 45.7 42.2 44.6 42.2 43 Z M 46.9 43 C 46.9 41.8 46 41 44.9 41 C 43.8 41 42.9 41.8 42.9 43 C 42.9 44.3 43.8 45.1 44.9 45.1 C 46 45.1 46.9 44.3 46.9 43 Z M 51.6 40.4 C 51.6 40.4 51.6 41.1 51.6 41.1 C 51.6 41.1 51.5 41.1 51.5 41.1 C 50.4 41.1 49.7 41.8 49.7 43 C 49.71 43 49.7 45.7 49.7 45.7 L 49 45.7 L 49 40.4 L 49.7 40.4 C 49.7 40.4 49.68 41.45 49.7 41.4 C 50 40.7 50.7 40.4 51.6 40.4 Z M 54.8 43 L 53.6 44.2 L 53.6 45.7 L 52.9 45.7 L 52.9 38.3 L 53.6 38.3 L 53.6 43.3 L 56.7 40.4 L 57.6 40.4 L 55.4 42.6 L 57.8 45.7 L 56.9 45.7 L 54.8 43 Z M 63.3 43.3 C 63.3 43.3 58.9 43.3 58.9 43.3 C 58.9 44.4 59.8 45.1 60.9 45.1 C 61.6 45.1 62.1 44.9 62.5 44.4 C 62.5 44.4 62.9 44.9 62.9 44.9 C 62.5 45.4 61.7 45.7 60.9 45.7 C 59.3 45.7 58.2 44.6 58.2 43 C 58.2 41.5 59.2 40.4 60.7 40.4 C 62.2 40.4 63.3 41.5 63.3 43 C 63.3 43.1 63.3 43.2 63.3 43.3 Z M 58.9 42.7 C 58.9 42.7 62.6 42.7 62.6 42.7 C 62.5 41.7 61.8 41 60.7 41 C 59.7 41 59 41.7 58.9 42.7 Z M 67.3 40.4 C 67.3 40.4 67.3 41.1 67.3 41.1 C 67.3 41.1 67.2 41.1 67.2 41.1 C 66.1 41.1 65.4 41.8 65.4 43 C 65.38 43 65.4 45.7 65.4 45.7 L 64.7 45.7 L 64.7 40.4 L 65.4 40.4 C 65.4 40.4 65.35 41.45 65.4 41.4 C 65.7 40.7 66.4 40.4 67.3 40.4 Z M 68 45.1 C 68 45.1 68.3 44.5 68.3 44.5 C 68.7 44.9 69.4 45.1 70.2 45.1 C 71.2 45.1 71.6 44.8 71.6 44.3 C 71.6 42.9 68.2 44 68.2 41.9 C 68.2 41 68.9 40.4 70.3 40.4 C 70.9 40.4 71.7 40.6 72.1 40.9 C 72.1 40.9 71.8 41.4 71.8 41.4 C 71.4 41.1 70.8 41 70.3 41 C 69.3 41 68.9 41.4 68.9 41.9 C 68.9 43.3 72.3 42.2 72.3 44.2 C 72.3 45.1 71.5 45.7 70.1 45.7 C 69.3 45.7 68.4 45.4 68 45.1 Z M 84 40.4 L 82 45.7 L 81.3 45.7 L 79.6 41.4 L 78 45.7 L 77.3 45.7 L 75.3 40.4 L 76 40.4 L 77.7 44.9 L 79.3 40.4 L 80 40.4 L 81.6 44.9 L 83.3 40.4 L 84 40.4 Z M 84.9 38.8 C 84.9 38.5 85.1 38.3 85.4 38.3 C 85.7 38.3 85.9 38.5 85.9 38.7 C 85.9 39 85.7 39.3 85.4 39.3 C 85.1 39.3 84.9 39 84.9 38.8 Z M 85.1 40.4 L 85.8 40.4 L 85.8 45.7 L 85.1 45.7 L 85.1 40.4 Z M 90.5 45.4 C 90.2 45.6 89.8 45.7 89.4 45.7 C 88.4 45.7 87.8 45.2 87.8 44.2 C 87.82 44.2 87.8 41 87.8 41 L 86.9 41 L 86.9 40.4 L 87.8 40.4 L 87.8 39.3 L 88.5 39.3 L 88.5 40.4 L 90.1 40.4 L 90.1 41 L 88.5 41 C 88.5 41 88.53 44.16 88.5 44.2 C 88.5 44.8 88.8 45.1 89.4 45.1 C 89.7 45.1 90 45 90.2 44.9 C 90.2 44.9 90.5 45.4 90.5 45.4 Z M 96.5 42.6 C 96.49 42.63 96.5 45.7 96.5 45.7 L 95.8 45.7 C 95.8 45.7 95.79 42.7 95.8 42.7 C 95.8 41.6 95.2 41 94.2 41 C 93.1 41 92.4 41.7 92.4 42.9 C 92.36 42.92 92.4 45.7 92.4 45.7 L 91.7 45.7 L 91.7 38.3 L 92.4 38.3 C 92.4 38.3 92.36 41.34 92.4 41.3 C 92.8 40.7 93.4 40.4 94.3 40.4 C 95.6 40.4 96.5 41.1 96.5 42.6 Z M 100.5 43 C 100.5 41.5 101.7 40.4 103.2 40.4 C 104.1 40.4 104.9 40.7 105.3 41.4 C 105.3 41.4 104.8 41.8 104.8 41.8 C 104.4 41.2 103.8 41 103.2 41 C 102.1 41 101.2 41.8 101.2 43 C 101.2 44.3 102.1 45.1 103.2 45.1 C 103.8 45.1 104.4 44.9 104.8 44.3 C 104.8 44.3 105.3 44.7 105.3 44.7 C 104.9 45.4 104.1 45.7 103.2 45.7 C 101.7 45.7 100.5 44.6 100.5 43 Z M 110.7 42.4 C 110.7 42.42 110.7 45.7 110.7 45.7 L 110 45.7 C 110 45.7 110.02 44.86 110 44.9 C 109.7 45.4 109.1 45.7 108.2 45.7 C 107 45.7 106.3 45.1 106.3 44.2 C 106.3 43.4 106.8 42.7 108.3 42.7 C 108.32 42.71 110 42.7 110 42.7 C 110 42.7 109.99 42.39 110 42.4 C 110 41.5 109.5 41 108.5 41 C 107.8 41 107.2 41.2 106.7 41.6 C 106.7 41.6 106.4 41.1 106.4 41.1 C 107 40.6 107.7 40.4 108.6 40.4 C 109.9 40.4 110.7 41.1 110.7 42.4 Z M 110 44.1 C 109.99 44.1 110 43.2 110 43.2 C 110 43.2 108.34 43.24 108.3 43.2 C 107.3 43.2 107 43.6 107 44.2 C 107 44.8 107.5 45.2 108.3 45.2 C 109.1 45.2 109.7 44.8 110 44.1 Z M 115.2 40.4 C 115.2 40.4 115.2 41.1 115.2 41.1 C 115.1 41.1 115 41.1 115 41.1 C 113.9 41.1 113.2 41.8 113.2 43 C 113.22 43 113.2 45.7 113.2 45.7 L 112.5 45.7 L 112.5 40.4 L 113.2 40.4 C 113.2 40.4 113.19 41.45 113.2 41.4 C 113.5 40.7 114.2 40.4 115.2 40.4 Z M 121.1 38.3 L 121.1 45.7 L 120.4 45.7 C 120.4 45.7 120.44 44.64 120.4 44.6 C 120 45.3 119.3 45.7 118.4 45.7 C 116.9 45.7 115.8 44.6 115.8 43 C 115.8 41.5 116.9 40.4 118.4 40.4 C 119.3 40.4 120 40.7 120.4 41.4 C 120.41 41.42 120.4 38.3 120.4 38.3 L 121.1 38.3 Z M 120.4 43 C 120.4 41.8 119.6 41 118.5 41 C 117.4 41 116.5 41.8 116.5 43 C 116.5 44.3 117.4 45.1 118.5 45.1 C 119.6 45.1 120.4 44.3 120.4 43 Z M 122.8 38.8 C 122.8 38.5 123.1 38.3 123.3 38.3 C 123.6 38.3 123.9 38.5 123.9 38.7 C 123.9 39 123.6 39.3 123.3 39.3 C 123.1 39.3 122.8 39 122.8 38.8 Z M 123 40.4 L 123.7 40.4 L 123.7 45.7 L 123 45.7 L 123 40.4 Z M 125.1 43 C 125.1 41.5 126.2 40.4 127.8 40.4 C 129.3 40.4 130.4 41.5 130.4 43 C 130.4 44.6 129.3 45.7 127.8 45.7 C 126.2 45.7 125.1 44.6 125.1 43 Z M 129.7 43 C 129.7 41.8 128.9 41 127.8 41 C 126.7 41 125.8 41.8 125.8 43 C 125.8 44.3 126.7 45.1 127.8 45.1 C 128.9 45.1 129.7 44.3 129.7 43 Z M 136.2 40.4 L 133.9 45.7 L 133.2 45.7 L 130.8 40.4 L 131.6 40.4 L 133.5 44.9 L 135.5 40.4 L 136.2 40.4 Z M 141.3 42.4 C 141.28 42.42 141.3 45.7 141.3 45.7 L 140.6 45.7 C 140.6 45.7 140.6 44.86 140.6 44.9 C 140.3 45.4 139.7 45.7 138.8 45.7 C 137.6 45.7 136.9 45.1 136.9 44.2 C 136.9 43.4 137.4 42.7 138.9 42.7 C 138.9 42.71 140.6 42.7 140.6 42.7 C 140.6 42.7 140.57 42.39 140.6 42.4 C 140.6 41.5 140.1 41 139.1 41 C 138.4 41 137.8 41.2 137.3 41.6 C 137.3 41.6 137 41.1 137 41.1 C 137.5 40.6 138.3 40.4 139.1 40.4 C 140.5 40.4 141.3 41.1 141.3 42.4 Z M 140.6 44.1 C 140.57 44.1 140.6 43.2 140.6 43.2 C 140.6 43.2 138.92 43.24 138.9 43.2 C 137.9 43.2 137.6 43.6 137.6 44.2 C 137.6 44.8 138.1 45.2 138.9 45.2 C 139.7 45.2 140.3 44.8 140.6 44.1 Z M 142.5 45.1 C 142.5 45.1 142.8 44.5 142.8 44.5 C 143.2 44.9 143.9 45.1 144.7 45.1 C 145.7 45.1 146.1 44.8 146.1 44.3 C 146.1 42.9 142.7 44 142.7 41.9 C 142.7 41 143.4 40.4 144.8 40.4 C 145.4 40.4 146.2 40.6 146.6 40.9 C 146.6 40.9 146.3 41.4 146.3 41.4 C 145.9 41.1 145.3 41 144.8 41 C 143.8 41 143.4 41.4 143.4 41.9 C 143.4 43.3 146.8 42.2 146.8 44.2 C 146.8 45.1 146 45.7 144.6 45.7 C 143.8 45.7 142.9 45.4 142.5 45.1 Z M 147.7 43 C 147.7 41.5 148.8 40.4 150.4 40.4 C 151.3 40.4 152 40.7 152.5 41.4 C 152.5 41.4 151.9 41.8 151.9 41.8 C 151.6 41.2 151 41 150.4 41 C 149.2 41 148.4 41.8 148.4 43 C 148.4 44.3 149.2 45.1 150.4 45.1 C 151 45.1 151.6 44.9 151.9 44.3 C 151.9 44.3 152.5 44.7 152.5 44.7 C 152 45.4 151.3 45.7 150.4 45.7 C 148.8 45.7 147.7 44.6 147.7 43 Z M 158.5 40.4 L 158.5 45.7 L 157.8 45.7 C 157.8 45.7 157.78 44.72 157.8 44.7 C 157.4 45.4 156.7 45.7 155.9 45.7 C 154.5 45.7 153.7 45 153.7 43.5 C 153.67 43.47 153.7 40.4 153.7 40.4 L 154.4 40.4 C 154.4 40.4 154.38 43.4 154.4 43.4 C 154.4 44.5 155 45.1 156 45.1 C 157.1 45.1 157.8 44.4 157.8 43.2 C 157.75 43.18 157.8 40.4 157.8 40.4 L 158.5 40.4 Z M 160.3 38.3 L 161 38.3 L 161 45.7 L 160.3 45.7 L 160.3 38.3 Z M 166.9 42.4 C 166.91 42.42 166.9 45.7 166.9 45.7 L 166.2 45.7 C 166.2 45.7 166.23 44.86 166.2 44.9 C 165.9 45.4 165.3 45.7 164.4 45.7 C 163.2 45.7 162.5 45.1 162.5 44.2 C 162.5 43.4 163 42.7 164.5 42.7 C 164.53 42.71 166.2 42.7 166.2 42.7 C 166.2 42.7 166.2 42.39 166.2 42.4 C 166.2 41.5 165.7 41 164.7 41 C 164 41 163.4 41.2 163 41.6 C 163 41.6 162.6 41.1 162.6 41.1 C 163.2 40.6 163.9 40.4 164.8 40.4 C 166.1 40.4 166.9 41.1 166.9 42.4 Z M 166.2 44.1 C 166.2 44.1 166.2 43.2 166.2 43.2 C 166.2 43.2 164.55 43.24 164.5 43.2 C 163.5 43.2 163.2 43.6 163.2 44.2 C 163.2 44.8 163.7 45.2 164.5 45.2 C 165.3 45.2 165.9 44.8 166.2 44.1 Z M 171.4 40.4 C 171.4 40.4 171.4 41.1 171.4 41.1 C 171.3 41.1 171.3 41.1 171.2 41.1 C 170.1 41.1 169.4 41.8 169.4 43 C 169.43 43 169.4 45.7 169.4 45.7 L 168.7 45.7 L 168.7 40.4 L 169.4 40.4 C 169.4 40.4 169.4 41.45 169.4 41.4 C 169.7 40.7 170.4 40.4 171.4 40.4 Z M 180.7 43.1 C 180.7 44.7 179.6 45.7 178.1 45.7 C 177.2 45.7 176.5 45.4 176.1 44.7 C 176.06 44.69 176.1 47.6 176.1 47.6 L 175.4 47.6 L 175.4 40.4 L 176 40.4 C 176 40.4 176.03 41.46 176 41.5 C 176.5 40.8 177.2 40.4 178.1 40.4 C 179.6 40.4 180.7 41.5 180.7 43.1 Z M 180 43 C 180 41.8 179.1 41 178 41 C 176.9 41 176.1 41.8 176.1 43 C 176.1 44.3 176.9 45.1 178 45.1 C 179.1 45.1 180 44.3 180 43 Z M 184.8 40.4 C 184.8 40.4 184.8 41.1 184.8 41.1 C 184.7 41.1 184.7 41.1 184.6 41.1 C 183.5 41.1 182.8 41.8 182.8 43 C 182.84 43 182.8 45.7 182.8 45.7 L 182.1 45.7 L 182.1 40.4 L 182.8 40.4 C 182.8 40.4 182.81 41.45 182.8 41.4 C 183.1 40.7 183.8 40.4 184.8 40.4 Z M 185.4 43 C 185.4 41.5 186.5 40.4 188.1 40.4 C 189.6 40.4 190.7 41.5 190.7 43 C 190.7 44.6 189.6 45.7 188.1 45.7 C 186.5 45.7 185.4 44.6 185.4 43 Z M 190 43 C 190 41.8 189.2 41 188.1 41 C 187 41 186.1 41.8 186.1 43 C 186.1 44.3 187 45.1 188.1 45.1 C 189.2 45.1 190 44.3 190 43 Z M 197.5 43 C 197.5 44.6 196.4 45.7 194.9 45.7 C 194 45.7 193.3 45.3 192.8 44.6 C 192.85 44.64 192.8 45.7 192.8 45.7 L 192.2 45.7 L 192.2 38.3 L 192.9 38.3 C 192.9 38.3 192.88 41.42 192.9 41.4 C 193.3 40.7 194 40.4 194.9 40.4 C 196.4 40.4 197.5 41.5 197.5 43 Z M 196.8 43 C 196.8 41.8 195.9 41 194.8 41 C 193.7 41 192.9 41.8 192.9 43 C 192.9 44.3 193.7 45.1 194.8 45.1 C 195.9 45.1 196.8 44.3 196.8 43 Z M 199 38.3 L 199.7 38.3 L 199.7 45.7 L 199 45.7 L 199 38.3 Z M 206.2 43.3 C 206.2 43.3 201.8 43.3 201.8 43.3 C 201.9 44.4 202.7 45.1 203.9 45.1 C 204.5 45.1 205.1 44.9 205.5 44.4 C 205.5 44.4 205.9 44.9 205.9 44.9 C 205.4 45.4 204.7 45.7 203.8 45.7 C 202.2 45.7 201.1 44.6 201.1 43 C 201.1 41.5 202.2 40.4 203.7 40.4 C 205.1 40.4 206.2 41.5 206.2 43 C 206.2 43.1 206.2 43.2 206.2 43.3 Z M 201.8 42.7 C 201.8 42.7 205.5 42.7 205.5 42.7 C 205.4 41.7 204.7 41 203.7 41 C 202.6 41 201.9 41.7 201.8 42.7 Z M 216.3 42.6 C 216.29 42.63 216.3 45.7 216.3 45.7 L 215.6 45.7 C 215.6 45.7 215.58 42.7 215.6 42.7 C 215.6 41.6 215 41 214.1 41 C 213 41 212.3 41.7 212.3 42.9 C 212.31 42.92 212.3 45.7 212.3 45.7 L 211.6 45.7 C 211.6 45.7 211.6 42.7 211.6 42.7 C 211.6 41.6 211 41 210.1 41 C 209 41 208.3 41.7 208.3 42.9 C 208.32 42.92 208.3 45.7 208.3 45.7 L 207.6 45.7 L 207.6 40.4 L 208.3 40.4 C 208.3 40.4 208.29 41.38 208.3 41.4 C 208.7 40.7 209.3 40.4 210.2 40.4 C 211.1 40.4 211.8 40.7 212.1 41.5 C 212.5 40.8 213.2 40.4 214.2 40.4 C 215.5 40.4 216.3 41.1 216.3 42.6 Z M 217.5 45.1 C 217.5 45.1 217.8 44.5 217.8 44.5 C 218.3 44.9 219 45.1 219.7 45.1 C 220.7 45.1 221.1 44.8 221.1 44.3 C 221.1 42.9 217.7 44 217.7 41.9 C 217.7 41 218.4 40.4 219.8 40.4 C 220.5 40.4 221.2 40.6 221.6 40.9 C 221.6 40.9 221.3 41.4 221.3 41.4 C 220.9 41.1 220.3 41 219.8 41 C 218.8 41 218.4 41.4 218.4 41.9 C 218.4 43.3 221.8 42.2 221.8 44.2 C 221.8 45.1 221 45.7 219.7 45.7 C 218.8 45.7 217.9 45.4 217.5 45.1 Z M 222.7 40.9 C 222.7 40.6 223 40.4 223.3 40.4 C 223.6 40.4 223.8 40.6 223.8 40.9 C 223.8 41.2 223.6 41.5 223.3 41.5 C 223 41.5 222.7 41.2 222.7 40.9 Z M 223.8 45.2 C 223.8 45.3 223.8 45.5 223.7 45.8 C 223.68 45.76 223.3 47.1 223.3 47.1 L 222.8 47.1 C 222.8 47.1 223.12 45.69 223.1 45.7 C 222.9 45.6 222.8 45.4 222.8 45.2 C 222.8 44.9 223 44.6 223.3 44.6 C 223.6 44.6 223.8 44.9 223.8 45.2 Z " stroke="none" fill="#323132"/>
  </g>
  <g id="Polygon122929">
    <path d="M 20.4 43 L 16.2 45.1 L 16.2 40.9 L 20.4 43 Z " stroke="none" fill="#a243ff"/>
  </g>
  <g id="Polygon122928">
    <path d="M 41.7 17.7 L 39.4 24.7 L 38.6 24.7 L 36.6 18.7 L 34.5 24.7 L 33.7 24.7 L 31.4 17.7 L 32.1 17.7 L 34.2 23.7 L 36.2 17.7 L 36.9 17.7 L 39 23.7 L 41 17.7 L 41.7 17.7 Z M 42.2 22 C 42.2 20.5 43.4 19.4 44.9 19.4 C 46.4 19.4 47.6 20.5 47.6 22 C 47.6 23.6 46.4 24.7 44.9 24.7 C 43.4 24.7 42.2 23.6 42.2 22 Z M 46.9 22 C 46.9 20.8 46 20 44.9 20 C 43.8 20 42.9 20.8 42.9 22 C 42.9 23.3 43.8 24.1 44.9 24.1 C 46 24.1 46.9 23.3 46.9 22 Z M 51.6 19.4 C 51.6 19.4 51.6 20.1 51.6 20.1 C 51.6 20.1 51.5 20.1 51.5 20.1 C 50.4 20.1 49.7 20.8 49.7 22 C 49.71 22 49.7 24.7 49.7 24.7 L 49 24.7 L 49 19.4 L 49.7 19.4 C 49.7 19.4 49.68 20.45 49.7 20.4 C 50 19.7 50.7 19.4 51.6 19.4 Z M 54.8 22 L 53.6 23.2 L 53.6 24.7 L 52.9 24.7 L 52.9 17.3 L 53.6 17.3 L 53.6 22.3 L 56.7 19.4 L 57.6 19.4 L 55.4 21.6 L 57.8 24.7 L 56.9 24.7 L 54.8 22 Z M 63.3 22.3 C 63.3 22.3 58.9 22.3 58.9 22.3 C 58.9 23.4 59.8 24.1 60.9 24.1 C 61.6 24.1 62.1 23.9 62.5 23.4 C 62.5 23.4 62.9 23.9 62.9 23.9 C 62.5 24.4 61.7 24.7 60.9 24.7 C 59.3 24.7 58.2 23.6 58.2 22 C 58.2 20.5 59.2 19.4 60.7 19.4 C 62.2 19.4 63.3 20.5 63.3 22 C 63.3 22.1 63.3 22.2 63.3 22.3 Z M 58.9 21.7 C 58.9 21.7 62.6 21.7 62.6 21.7 C 62.5 20.7 61.8 20 60.7 20 C 59.7 20 59 20.7 58.9 21.7 Z M 67.3 19.4 C 67.3 19.4 67.3 20.1 67.3 20.1 C 67.3 20.1 67.2 20.1 67.2 20.1 C 66.1 20.1 65.4 20.8 65.4 22 C 65.38 22 65.4 24.7 65.4 24.7 L 64.7 24.7 L 64.7 19.4 L 65.4 19.4 C 65.4 19.4 65.35 20.45 65.4 20.4 C 65.7 19.7 66.4 19.4 67.3 19.4 Z M 68 24.1 C 68 24.1 68.3 23.5 68.3 23.5 C 68.7 23.9 69.4 24.1 70.2 24.1 C 71.2 24.1 71.6 23.8 71.6 23.3 C 71.6 21.9 68.2 23 68.2 20.9 C 68.2 20 68.9 19.4 70.3 19.4 C 70.9 19.4 71.7 19.6 72.1 19.9 C 72.1 19.9 71.8 20.4 71.8 20.4 C 71.4 20.1 70.8 20 70.3 20 C 69.3 20 68.9 20.4 68.9 20.9 C 68.9 22.3 72.3 21.2 72.3 23.2 C 72.3 24.1 71.5 24.7 70.1 24.7 C 69.3 24.7 68.4 24.4 68 24.1 Z M 75.7 22 C 75.7 20.5 76.8 19.4 78.4 19.4 C 79.9 19.4 81.1 20.5 81.1 22 C 81.1 23.6 79.9 24.7 78.4 24.7 C 76.8 24.7 75.7 23.6 75.7 22 Z M 80.3 22 C 80.3 20.8 79.5 20 78.4 20 C 77.3 20 76.4 20.8 76.4 22 C 76.4 23.3 77.3 24.1 78.4 24.1 C 79.5 24.1 80.3 23.3 80.3 22 Z M 87.3 21.6 C 87.32 21.63 87.3 24.7 87.3 24.7 L 86.6 24.7 C 86.6 24.7 86.61 21.7 86.6 21.7 C 86.6 20.6 86 20 85 20 C 83.9 20 83.2 20.7 83.2 21.9 C 83.19 21.92 83.2 24.7 83.2 24.7 L 82.5 24.7 L 82.5 19.4 L 83.2 19.4 C 83.2 19.4 83.16 20.39 83.2 20.4 C 83.5 19.7 84.3 19.4 85.2 19.4 C 86.4 19.4 87.3 20.1 87.3 21.6 Z M 100.6 21.6 C 100.55 21.63 100.6 24.7 100.6 24.7 L 99.8 24.7 C 99.8 24.7 99.84 21.7 99.8 21.7 C 99.8 20.6 99.3 20 98.3 20 C 97.3 20 96.6 20.7 96.6 21.9 C 96.57 21.92 96.6 24.7 96.6 24.7 L 95.9 24.7 C 95.9 24.7 95.86 21.7 95.9 21.7 C 95.9 20.6 95.3 20 94.3 20 C 93.3 20 92.6 20.7 92.6 21.9 C 92.58 21.92 92.6 24.7 92.6 24.7 L 91.9 24.7 L 91.9 19.4 L 92.6 19.4 C 92.6 19.4 92.55 20.38 92.6 20.4 C 92.9 19.7 93.6 19.4 94.5 19.4 C 95.4 19.4 96 19.7 96.4 20.5 C 96.7 19.8 97.5 19.4 98.4 19.4 C 99.7 19.4 100.6 20.1 100.6 21.6 Z M 107.1 22.3 C 107.1 22.3 102.7 22.3 102.7 22.3 C 102.7 23.4 103.6 24.1 104.7 24.1 C 105.4 24.1 105.9 23.9 106.3 23.4 C 106.3 23.4 106.7 23.9 106.7 23.9 C 106.3 24.4 105.5 24.7 104.7 24.7 C 103.1 24.7 101.9 23.6 101.9 22 C 101.9 20.5 103 19.4 104.5 19.4 C 106 19.4 107.1 20.5 107.1 22 C 107.1 22.1 107.1 22.2 107.1 22.3 Z M 102.7 21.7 C 102.7 21.7 106.4 21.7 106.4 21.7 C 106.3 20.7 105.5 20 104.5 20 C 103.5 20 102.7 20.7 102.7 21.7 Z M 113.4 17.3 L 113.4 24.7 L 112.7 24.7 C 112.7 24.7 112.72 23.64 112.7 23.6 C 112.3 24.3 111.6 24.7 110.7 24.7 C 109.2 24.7 108.1 23.6 108.1 22 C 108.1 20.5 109.2 19.4 110.7 19.4 C 111.5 19.4 112.2 19.7 112.7 20.4 C 112.69 20.42 112.7 17.3 112.7 17.3 L 113.4 17.3 Z M 112.7 22 C 112.7 20.8 111.9 20 110.7 20 C 109.6 20 108.8 20.8 108.8 22 C 108.8 23.3 109.6 24.1 110.7 24.1 C 111.9 24.1 112.7 23.3 112.7 22 Z M 115.1 17.8 C 115.1 17.5 115.3 17.3 115.6 17.3 C 115.9 17.3 116.1 17.5 116.1 17.7 C 116.1 18 115.9 18.3 115.6 18.3 C 115.3 18.3 115.1 18 115.1 17.8 Z M 115.3 19.4 L 116 19.4 L 116 24.7 L 115.3 24.7 L 115.3 19.4 Z M 117.4 22 C 117.4 20.5 118.5 19.4 120.1 19.4 C 121 19.4 121.7 19.7 122.1 20.4 C 122.1 20.4 121.6 20.8 121.6 20.8 C 121.2 20.2 120.7 20 120.1 20 C 118.9 20 118.1 20.8 118.1 22 C 118.1 23.3 118.9 24.1 120.1 24.1 C 120.7 24.1 121.2 23.9 121.6 23.3 C 121.6 23.3 122.1 23.7 122.1 23.7 C 121.7 24.4 121 24.7 120.1 24.7 C 118.5 24.7 117.4 23.6 117.4 22 Z M 127.5 21.4 C 127.55 21.42 127.5 24.7 127.5 24.7 L 126.9 24.7 C 126.9 24.7 126.87 23.86 126.9 23.9 C 126.5 24.4 125.9 24.7 125.1 24.7 C 123.9 24.7 123.1 24.1 123.1 23.2 C 123.1 22.4 123.7 21.7 125.2 21.7 C 125.17 21.71 126.8 21.7 126.8 21.7 C 126.8 21.7 126.84 21.39 126.8 21.4 C 126.8 20.5 126.3 20 125.3 20 C 124.7 20 124 20.2 123.6 20.6 C 123.6 20.6 123.3 20.1 123.3 20.1 C 123.8 19.6 124.6 19.4 125.4 19.4 C 126.8 19.4 127.5 20.1 127.5 21.4 Z M 126.8 23.1 C 126.84 23.1 126.8 22.2 126.8 22.2 C 126.8 22.2 125.19 22.24 125.2 22.2 C 124.2 22.2 123.8 22.6 123.8 23.2 C 123.8 23.8 124.3 24.2 125.2 24.2 C 126 24.2 126.6 23.8 126.8 23.1 Z M 132.1 24.4 C 131.8 24.6 131.4 24.7 131 24.7 C 130 24.7 129.4 24.2 129.4 23.2 C 129.44 23.2 129.4 20 129.4 20 L 128.5 20 L 128.5 19.4 L 129.4 19.4 L 129.4 18.3 L 130.2 18.3 L 130.2 19.4 L 131.8 19.4 L 131.8 20 L 130.2 20 C 130.2 20 130.15 23.16 130.2 23.2 C 130.2 23.8 130.5 24.1 131.1 24.1 C 131.4 24.1 131.6 24 131.8 23.9 C 131.8 23.9 132.1 24.4 132.1 24.4 Z M 133.1 17.8 C 133.1 17.5 133.4 17.3 133.6 17.3 C 133.9 17.3 134.2 17.5 134.2 17.7 C 134.2 18 133.9 18.3 133.6 18.3 C 133.4 18.3 133.1 18 133.1 17.8 Z M 133.3 19.4 L 134 19.4 L 134 24.7 L 133.3 24.7 L 133.3 19.4 Z M 135.4 22 C 135.4 20.5 136.5 19.4 138.1 19.4 C 139.6 19.4 140.7 20.5 140.7 22 C 140.7 23.6 139.6 24.7 138.1 24.7 C 136.5 24.7 135.4 23.6 135.4 22 Z M 140 22 C 140 20.8 139.2 20 138.1 20 C 136.9 20 136.1 20.8 136.1 22 C 136.1 23.3 136.9 24.1 138.1 24.1 C 139.2 24.1 140 23.3 140 22 Z M 147 21.6 C 147 21.63 147 24.7 147 24.7 L 146.3 24.7 C 146.3 24.7 146.29 21.7 146.3 21.7 C 146.3 20.6 145.7 20 144.7 20 C 143.6 20 142.9 20.7 142.9 21.9 C 142.87 21.92 142.9 24.7 142.9 24.7 L 142.2 24.7 L 142.2 19.4 L 142.8 19.4 C 142.8 19.4 142.84 20.39 142.8 20.4 C 143.2 19.7 143.9 19.4 144.8 19.4 C 146.1 19.4 147 20.1 147 21.6 Z M 159.3 19.4 L 157.3 24.7 L 156.6 24.7 L 155 20.4 L 153.3 24.7 L 152.6 24.7 L 150.6 19.4 L 151.3 19.4 L 153 23.9 L 154.7 19.4 L 155.3 19.4 L 157 23.9 L 158.6 19.4 L 159.3 19.4 Z M 160.2 17.8 C 160.2 17.5 160.4 17.3 160.7 17.3 C 161 17.3 161.2 17.5 161.2 17.7 C 161.2 18 161 18.3 160.7 18.3 C 160.4 18.3 160.2 18 160.2 17.8 Z M 160.4 19.4 L 161.1 19.4 L 161.1 24.7 L 160.4 24.7 L 160.4 19.4 Z M 165.8 24.4 C 165.5 24.6 165.1 24.7 164.7 24.7 C 163.7 24.7 163.1 24.2 163.1 23.2 C 163.13 23.2 163.1 20 163.1 20 L 162.2 20 L 162.2 19.4 L 163.1 19.4 L 163.1 18.3 L 163.8 18.3 L 163.8 19.4 L 165.4 19.4 L 165.4 20 L 163.8 20 C 163.8 20 163.84 23.16 163.8 23.2 C 163.8 23.8 164.2 24.1 164.7 24.1 C 165 24.1 165.3 24 165.5 23.9 C 165.5 23.9 165.8 24.4 165.8 24.4 Z M 171.8 21.6 C 171.81 21.63 171.8 24.7 171.8 24.7 L 171.1 24.7 C 171.1 24.7 171.1 21.7 171.1 21.7 C 171.1 20.6 170.5 20 169.5 20 C 168.4 20 167.7 20.7 167.7 21.9 C 167.68 21.92 167.7 24.7 167.7 24.7 L 167 24.7 L 167 17.3 L 167.7 17.3 C 167.7 17.3 167.68 20.34 167.7 20.3 C 168.1 19.7 168.8 19.4 169.6 19.4 C 170.9 19.4 171.8 20.1 171.8 21.6 Z M 175.8 22 C 175.8 20.5 177 19.4 178.5 19.4 C 179.4 19.4 180.2 19.7 180.6 20.4 C 180.6 20.4 180.1 20.8 180.1 20.8 C 179.7 20.2 179.1 20 178.5 20 C 177.4 20 176.5 20.8 176.5 22 C 176.5 23.3 177.4 24.1 178.5 24.1 C 179.1 24.1 179.7 23.9 180.1 23.3 C 180.1 23.3 180.6 23.7 180.6 23.7 C 180.2 24.4 179.4 24.7 178.5 24.7 C 177 24.7 175.8 23.6 175.8 22 Z M 184.6 19.4 C 184.6 19.4 184.6 20.1 184.6 20.1 C 184.5 20.1 184.4 20.1 184.4 20.1 C 183.3 20.1 182.6 20.8 182.6 22 C 182.62 22 182.6 24.7 182.6 24.7 L 181.9 24.7 L 181.9 19.4 L 182.6 19.4 C 182.6 19.4 182.59 20.45 182.6 20.4 C 182.9 19.7 183.6 19.4 184.6 19.4 Z M 185.6 17.8 C 185.6 17.5 185.9 17.3 186.1 17.3 C 186.4 17.3 186.7 17.5 186.7 17.7 C 186.7 18 186.4 18.3 186.1 18.3 C 185.9 18.3 185.6 18 185.6 17.8 Z M 185.8 19.4 L 186.5 19.4 L 186.5 24.7 L 185.8 24.7 L 185.8 19.4 Z M 191.2 24.4 C 190.9 24.6 190.5 24.7 190.1 24.7 C 189.1 24.7 188.6 24.2 188.6 23.2 C 188.55 23.2 188.6 20 188.6 20 L 187.6 20 L 187.6 19.4 L 188.6 19.4 L 188.6 18.3 L 189.3 18.3 L 189.3 19.4 L 190.9 19.4 L 190.9 20 L 189.3 20 C 189.3 20 189.26 23.16 189.3 23.2 C 189.3 23.8 189.6 24.1 190.2 24.1 C 190.5 24.1 190.8 24 191 23.9 C 191 23.9 191.2 24.4 191.2 24.4 Z M 192.2 17.8 C 192.2 17.5 192.5 17.3 192.8 17.3 C 193 17.3 193.3 17.5 193.3 17.7 C 193.3 18 193.1 18.3 192.8 18.3 C 192.5 18.3 192.2 18 192.2 17.8 Z M 192.4 19.4 L 193.1 19.4 L 193.1 24.7 L 192.4 24.7 L 192.4 19.4 Z M 194.5 22 C 194.5 20.5 195.6 19.4 197.2 19.4 C 198.1 19.4 198.8 19.7 199.3 20.4 C 199.3 20.4 198.7 20.8 198.7 20.8 C 198.4 20.2 197.8 20 197.2 20 C 196.1 20 195.2 20.8 195.2 22 C 195.2 23.3 196.1 24.1 197.2 24.1 C 197.8 24.1 198.4 23.9 198.7 23.3 C 198.7 23.3 199.3 23.7 199.3 23.7 C 198.8 24.4 198.1 24.7 197.2 24.7 C 195.6 24.7 194.5 23.6 194.5 22 Z M 204.7 21.4 C 204.68 21.42 204.7 24.7 204.7 24.7 L 204 24.7 C 204 24.7 204 23.86 204 23.9 C 203.7 24.4 203.1 24.7 202.2 24.7 C 201 24.7 200.3 24.1 200.3 23.2 C 200.3 22.4 200.8 21.7 202.3 21.7 C 202.3 21.71 204 21.7 204 21.7 C 204 21.7 203.97 21.39 204 21.4 C 204 20.5 203.5 20 202.5 20 C 201.8 20 201.2 20.2 200.7 20.6 C 200.7 20.6 200.4 20.1 200.4 20.1 C 200.9 19.6 201.7 19.4 202.5 19.4 C 203.9 19.4 204.7 20.1 204.7 21.4 Z M 204 23.1 C 203.97 23.1 204 22.2 204 22.2 C 204 22.2 202.32 22.24 202.3 22.2 C 201.3 22.2 201 22.6 201 23.2 C 201 23.8 201.5 24.2 202.3 24.2 C 203.1 24.2 203.7 23.8 204 23.1 Z M 206.5 17.3 L 207.2 17.3 L 207.2 24.7 L 206.5 24.7 L 206.5 17.3 Z M 216.6 17.3 L 216.6 24.7 L 215.9 24.7 C 215.9 24.7 215.92 23.64 215.9 23.6 C 215.5 24.3 214.8 24.7 213.9 24.7 C 212.4 24.7 211.3 23.6 211.3 22 C 211.3 20.5 212.4 19.4 213.9 19.4 C 214.7 19.4 215.5 19.7 215.9 20.4 C 215.89 20.42 215.9 17.3 215.9 17.3 L 216.6 17.3 Z M 215.9 22 C 215.9 20.8 215.1 20 214 20 C 212.8 20 212 20.8 212 22 C 212 23.3 212.8 24.1 214 24.1 C 215.1 24.1 215.9 23.3 215.9 22 Z M 218 22 C 218 20.5 219.2 19.4 220.7 19.4 C 222.3 19.4 223.4 20.5 223.4 22 C 223.4 23.6 222.3 24.7 220.7 24.7 C 219.2 24.7 218 23.6 218 22 Z M 222.7 22 C 222.7 20.8 221.8 20 220.7 20 C 219.6 20 218.8 20.8 218.8 22 C 218.8 23.3 219.6 24.1 220.7 24.1 C 221.8 24.1 222.7 23.3 222.7 22 Z M 224.2 24.1 C 224.2 24.1 224.5 23.5 224.5 23.5 C 224.9 23.9 225.6 24.1 226.4 24.1 C 227.4 24.1 227.8 23.8 227.8 23.3 C 227.8 21.9 224.4 23 224.4 20.9 C 224.4 20 225.1 19.4 226.5 19.4 C 227.1 19.4 227.9 19.6 228.3 19.9 C 228.3 19.9 228 20.4 228 20.4 C 227.6 20.1 227 20 226.5 20 C 225.5 20 225.1 20.4 225.1 20.9 C 225.1 22.3 228.5 21.2 228.5 23.2 C 228.5 24.1 227.7 24.7 226.3 24.7 C 225.5 24.7 224.6 24.4 224.2 24.1 Z M 234.5 22.3 C 234.5 22.3 230.1 22.3 230.1 22.3 C 230.2 23.4 231 24.1 232.2 24.1 C 232.8 24.1 233.4 23.9 233.8 23.4 C 233.8 23.4 234.2 23.9 234.2 23.9 C 233.7 24.4 233 24.7 232.1 24.7 C 230.5 24.7 229.4 23.6 229.4 22 C 229.4 20.5 230.5 19.4 232 19.4 C 233.4 19.4 234.5 20.5 234.5 22 C 234.5 22.1 234.5 22.2 234.5 22.3 Z M 230.1 21.7 C 230.1 21.7 233.8 21.7 233.8 21.7 C 233.7 20.7 233 20 232 20 C 230.9 20 230.2 20.7 230.1 21.7 Z M 237.8 24.1 C 237.8 24.1 238.2 23.5 238.2 23.5 C 238.6 23.9 239.3 24.1 240 24.1 C 241 24.1 241.4 23.8 241.4 23.3 C 241.4 21.9 238 23 238 20.9 C 238 20 238.8 19.4 240.1 19.4 C 240.8 19.4 241.5 19.6 242 19.9 C 242 19.9 241.7 20.4 241.7 20.4 C 241.2 20.1 240.7 20 240.1 20 C 239.2 20 238.7 20.4 238.7 20.9 C 238.7 22.3 242.2 21.2 242.2 23.2 C 242.2 24.1 241.4 24.7 240 24.7 C 239.1 24.7 238.3 24.4 237.8 24.1 Z M 243 22 C 243 20.5 244.2 19.4 245.7 19.4 C 246.6 19.4 247.4 19.7 247.8 20.4 C 247.8 20.4 247.3 20.8 247.3 20.8 C 246.9 20.2 246.3 20 245.7 20 C 244.6 20 243.7 20.8 243.7 22 C 243.7 23.3 244.6 24.1 245.7 24.1 C 246.3 24.1 246.9 23.9 247.3 23.3 C 247.3 23.3 247.8 23.7 247.8 23.7 C 247.4 24.4 246.6 24.7 245.7 24.7 C 244.2 24.7 243 23.6 243 22 Z M 254 21.6 C 253.95 21.63 254 24.7 254 24.7 L 253.2 24.7 C 253.2 24.7 253.24 21.7 253.2 21.7 C 253.2 20.6 252.7 20 251.7 20 C 250.5 20 249.8 20.7 249.8 21.9 C 249.82 21.92 249.8 24.7 249.8 24.7 L 249.1 24.7 L 249.1 17.3 L 249.8 17.3 C 249.8 17.3 249.82 20.34 249.8 20.3 C 250.2 19.7 250.9 19.4 251.8 19.4 C 253.1 19.4 254 20.1 254 21.6 Z M 260.4 22.3 C 260.4 22.3 256 22.3 256 22.3 C 256.1 23.4 257 24.1 258.1 24.1 C 258.8 24.1 259.3 23.9 259.7 23.4 C 259.7 23.4 260.1 23.9 260.1 23.9 C 259.7 24.4 258.9 24.7 258.1 24.7 C 256.5 24.7 255.3 23.6 255.3 22 C 255.3 20.5 256.4 19.4 257.9 19.4 C 259.4 19.4 260.5 20.5 260.5 22 C 260.5 22.1 260.4 22.2 260.4 22.3 Z M 256 21.7 C 256 21.7 259.8 21.7 259.8 21.7 C 259.7 20.7 258.9 20 257.9 20 C 256.9 20 256.1 20.7 256 21.7 Z M 266.8 17.3 L 266.8 24.7 L 266.1 24.7 C 266.1 24.7 266.11 23.64 266.1 23.6 C 265.7 24.3 264.9 24.7 264.1 24.7 C 262.6 24.7 261.5 23.6 261.5 22 C 261.5 20.5 262.6 19.4 264.1 19.4 C 264.9 19.4 265.6 19.7 266.1 20.4 C 266.08 20.42 266.1 17.3 266.1 17.3 L 266.8 17.3 Z M 266.1 22 C 266.1 20.8 265.2 20 264.1 20 C 263 20 262.2 20.8 262.2 22 C 262.2 23.3 263 24.1 264.1 24.1 C 265.2 24.1 266.1 23.3 266.1 22 Z M 273.4 19.4 L 273.4 24.7 L 272.7 24.7 C 272.7 24.7 272.71 23.72 272.7 23.7 C 272.3 24.4 271.7 24.7 270.8 24.7 C 269.5 24.7 268.6 24 268.6 22.5 C 268.6 22.47 268.6 19.4 268.6 19.4 L 269.3 19.4 C 269.3 19.4 269.31 22.4 269.3 22.4 C 269.3 23.5 269.9 24.1 270.9 24.1 C 272 24.1 272.7 23.4 272.7 22.2 C 272.68 22.18 272.7 19.4 272.7 19.4 L 273.4 19.4 Z M 275.2 17.3 L 276 17.3 L 276 24.7 L 275.2 24.7 L 275.2 17.3 Z M 282.5 22.3 C 282.5 22.3 278.1 22.3 278.1 22.3 C 278.2 23.4 279 24.1 280.2 24.1 C 280.8 24.1 281.4 23.9 281.8 23.4 C 281.8 23.4 282.2 23.9 282.2 23.9 C 281.7 24.4 281 24.7 280.1 24.7 C 278.5 24.7 277.4 23.6 277.4 22 C 277.4 20.5 278.5 19.4 280 19.4 C 281.4 19.4 282.5 20.5 282.5 22 C 282.5 22.1 282.5 22.2 282.5 22.3 Z M 278.1 21.7 C 278.1 21.7 281.8 21.7 281.8 21.7 C 281.7 20.7 281 20 280 20 C 278.9 20 278.2 20.7 278.1 21.7 Z M 283.3 24.1 C 283.3 24.1 283.6 23.5 283.6 23.5 C 284 23.9 284.7 24.1 285.5 24.1 C 286.5 24.1 286.9 23.8 286.9 23.3 C 286.9 21.9 283.5 23 283.5 20.9 C 283.5 20 284.2 19.4 285.6 19.4 C 286.2 19.4 287 19.6 287.4 19.9 C 287.4 19.9 287.1 20.4 287.1 20.4 C 286.7 20.1 286.1 20 285.6 20 C 284.6 20 284.2 20.4 284.2 20.9 C 284.2 22.3 287.6 21.2 287.6 23.2 C 287.6 24.1 286.8 24.7 285.4 24.7 C 284.6 24.7 283.7 24.4 283.3 24.1 Z M 288.5 19.9 C 288.5 19.6 288.8 19.4 289.1 19.4 C 289.3 19.4 289.6 19.6 289.6 19.9 C 289.6 20.2 289.3 20.5 289.1 20.5 C 288.8 20.5 288.5 20.2 288.5 19.9 Z M 289.6 24.2 C 289.6 24.3 289.6 24.5 289.5 24.8 C 289.45 24.76 289 26.1 289 26.1 L 288.6 26.1 C 288.6 26.1 288.89 24.69 288.9 24.7 C 288.7 24.6 288.5 24.4 288.5 24.2 C 288.5 23.9 288.8 23.6 289.1 23.6 C 289.4 23.6 289.6 23.9 289.6 24.2 Z " stroke="none" fill="#323132"/>
  </g>
  <g id="Polygon122927">
    <path d="M 20.4 22 L 16.2 24.1 L 16.2 19.9 L 20.4 22 Z " stroke="none" fill="#a243ff"/>
  </g>
</svg>