<?xml version="1.0" standalone="no"?>
<!DOCTYPE svg PUBLIC "-//W3C//DTD SVG 1.1//EN" "http://www.w3.org/Graphics/SVG/1.1/DTD/svg11.dtd">
<svg xmlns="http://www.w3.org/2000/svg" version="1.1" width="492px" height="68.5px" viewBox="0 0 492 68.5">
  <desc>Operational methods Switches, buttons and dials can be used to distinguish between different control functions.</desc>
  <defs/>
  <g id="Polygon118070">
    <path d="M 6.5 41.8 C 6.5 41.8 6.8 41.3 6.8 41.3 C 7.3 41.8 8.1 42.1 9.1 42.1 C 10.4 42.1 11 41.6 11 40.9 C 11 38.9 6.6 40.1 6.6 37.5 C 6.6 36.5 7.4 35.6 9.2 35.6 C 10 35.6 10.8 35.9 11.4 36.2 C 11.4 36.2 11.1 36.8 11.1 36.8 C 10.5 36.4 9.8 36.2 9.2 36.2 C 7.9 36.2 7.4 36.8 7.4 37.5 C 7.4 39.4 11.7 38.3 11.7 40.8 C 11.7 41.9 10.9 42.7 9.1 42.7 C 8 42.7 7 42.4 6.5 41.8 Z M 20.7 37.4 L 18.8 42.7 L 18.1 42.7 L 16.4 38.4 L 14.8 42.7 L 14.1 42.7 L 12.1 37.4 L 12.8 37.4 L 14.4 41.9 L 16.1 37.4 L 16.7 37.4 L 18.4 41.9 L 20.1 37.4 L 20.7 37.4 Z M 21.7 35.8 C 21.7 35.5 21.9 35.3 22.2 35.3 C 22.5 35.3 22.7 35.5 22.7 35.7 C 22.7 36 22.5 36.3 22.2 36.3 C 21.9 36.3 21.7 36 21.7 35.8 Z M 21.8 37.4 L 22.6 37.4 L 22.6 42.7 L 21.8 42.7 L 21.8 37.4 Z M 27.3 42.4 C 27 42.6 26.6 42.7 26.1 42.7 C 25.2 42.7 24.6 42.2 24.6 41.2 C 24.61 41.2 24.6 38 24.6 38 L 23.7 38 L 23.7 37.4 L 24.6 37.4 L 24.6 36.3 L 25.3 36.3 L 25.3 37.4 L 26.9 37.4 L 26.9 38 L 25.3 38 C 25.3 38 25.32 41.16 25.3 41.2 C 25.3 41.8 25.6 42.1 26.2 42.1 C 26.5 42.1 26.8 42 27 41.9 C 27 41.9 27.3 42.4 27.3 42.4 Z M 27.8 40 C 27.8 38.5 28.9 37.4 30.5 37.4 C 31.4 37.4 32.2 37.7 32.6 38.4 C 32.6 38.4 32 38.8 32 38.8 C 31.7 38.2 31.1 38 30.5 38 C 29.4 38 28.5 38.8 28.5 40 C 28.5 41.3 29.4 42.1 30.5 42.1 C 31.1 42.1 31.7 41.9 32 41.3 C 32 41.3 32.6 41.7 32.6 41.7 C 32.2 42.4 31.4 42.7 30.5 42.7 C 28.9 42.7 27.8 41.6 27.8 40 Z M 38.7 39.6 C 38.73 39.63 38.7 42.7 38.7 42.7 L 38 42.7 C 38 42.7 38.02 39.7 38 39.7 C 38 38.6 37.4 38 36.4 38 C 35.3 38 34.6 38.7 34.6 39.9 C 34.6 39.92 34.6 42.7 34.6 42.7 L 33.9 42.7 L 33.9 35.3 L 34.6 35.3 C 34.6 35.3 34.6 38.34 34.6 38.3 C 35 37.7 35.7 37.4 36.6 37.4 C 37.9 37.4 38.7 38.1 38.7 39.6 Z M 45.2 40.3 C 45.2 40.3 40.8 40.3 40.8 40.3 C 40.9 41.4 41.7 42.1 42.9 42.1 C 43.5 42.1 44.1 41.9 44.5 41.4 C 44.5 41.4 44.9 41.9 44.9 41.9 C 44.4 42.4 43.7 42.7 42.9 42.7 C 41.2 42.7 40.1 41.6 40.1 40 C 40.1 38.5 41.2 37.4 42.7 37.4 C 44.2 37.4 45.2 38.5 45.2 40 C 45.2 40.1 45.2 40.2 45.2 40.3 Z M 40.8 39.7 C 40.8 39.7 44.6 39.7 44.6 39.7 C 44.5 38.7 43.7 38 42.7 38 C 41.7 38 40.9 38.7 40.8 39.7 Z M 46 42.1 C 46 42.1 46.3 41.5 46.3 41.5 C 46.8 41.9 47.5 42.1 48.2 42.1 C 49.2 42.1 49.6 41.8 49.6 41.3 C 49.6 39.9 46.2 41 46.2 38.9 C 46.2 38 47 37.4 48.3 37.4 C 49 37.4 49.7 37.6 50.2 37.9 C 50.2 37.9 49.8 38.4 49.8 38.4 C 49.4 38.1 48.8 38 48.3 38 C 47.3 38 46.9 38.4 46.9 38.9 C 46.9 40.3 50.3 39.2 50.3 41.2 C 50.3 42.1 49.5 42.7 48.2 42.7 C 47.3 42.7 46.5 42.4 46 42.1 Z M 52.5 42.2 C 52.5 42.3 52.5 42.5 52.4 42.8 C 52.37 42.76 51.9 44.1 51.9 44.1 L 51.5 44.1 C 51.5 44.1 51.81 42.69 51.8 42.7 C 51.6 42.6 51.4 42.4 51.4 42.2 C 51.4 41.9 51.7 41.6 52 41.6 C 52.3 41.6 52.5 41.9 52.5 42.2 Z M 62 40 C 62 41.6 60.8 42.7 59.3 42.7 C 58.5 42.7 57.7 42.3 57.3 41.6 C 57.32 41.64 57.3 42.7 57.3 42.7 L 56.6 42.7 L 56.6 35.3 L 57.3 35.3 C 57.3 35.3 57.35 38.42 57.3 38.4 C 57.8 37.7 58.5 37.4 59.3 37.4 C 60.8 37.4 62 38.5 62 40 Z M 61.3 40 C 61.3 38.8 60.4 38 59.3 38 C 58.2 38 57.3 38.8 57.3 40 C 57.3 41.3 58.2 42.1 59.3 42.1 C 60.4 42.1 61.3 41.3 61.3 40 Z M 68.1 37.4 L 68.1 42.7 L 67.5 42.7 C 67.5 42.7 67.46 41.72 67.5 41.7 C 67.1 42.4 66.4 42.7 65.6 42.7 C 64.2 42.7 63.4 42 63.4 40.5 C 63.35 40.47 63.4 37.4 63.4 37.4 L 64.1 37.4 C 64.1 37.4 64.06 40.4 64.1 40.4 C 64.1 41.5 64.6 42.1 65.6 42.1 C 66.7 42.1 67.4 41.4 67.4 40.2 C 67.43 40.18 67.4 37.4 67.4 37.4 L 68.1 37.4 Z M 72.9 42.4 C 72.6 42.6 72.2 42.7 71.8 42.7 C 70.8 42.7 70.2 42.2 70.2 41.2 C 70.22 41.2 70.2 38 70.2 38 L 69.3 38 L 69.3 37.4 L 70.2 37.4 L 70.2 36.3 L 70.9 36.3 L 70.9 37.4 L 72.5 37.4 L 72.5 38 L 70.9 38 C 70.9 38 70.93 41.16 70.9 41.2 C 70.9 41.8 71.2 42.1 71.8 42.1 C 72.1 42.1 72.4 42 72.6 41.9 C 72.6 41.9 72.9 42.4 72.9 42.4 Z M 77.1 42.4 C 76.8 42.6 76.4 42.7 75.9 42.7 C 75 42.7 74.4 42.2 74.4 41.2 C 74.41 41.2 74.4 38 74.4 38 L 73.5 38 L 73.5 37.4 L 74.4 37.4 L 74.4 36.3 L 75.1 36.3 L 75.1 37.4 L 76.7 37.4 L 76.7 38 L 75.1 38 C 75.1 38 75.12 41.16 75.1 41.2 C 75.1 41.8 75.4 42.1 76 42.1 C 76.3 42.1 76.6 42 76.8 41.9 C 76.8 41.9 77.1 42.4 77.1 42.4 Z M 77.6 40 C 77.6 38.5 78.7 37.4 80.3 37.4 C 81.8 37.4 83 38.5 83 40 C 83 41.6 81.8 42.7 80.3 42.7 C 78.7 42.7 77.6 41.6 77.6 40 Z M 82.2 40 C 82.2 38.8 81.4 38 80.3 38 C 79.2 38 78.3 38.8 78.3 40 C 78.3 41.3 79.2 42.1 80.3 42.1 C 81.4 42.1 82.2 41.3 82.2 40 Z M 89.2 39.6 C 89.22 39.63 89.2 42.7 89.2 42.7 L 88.5 42.7 C 88.5 42.7 88.52 39.7 88.5 39.7 C 88.5 38.6 87.9 38 86.9 38 C 85.8 38 85.1 38.7 85.1 39.9 C 85.09 39.92 85.1 42.7 85.1 42.7 L 84.4 42.7 L 84.4 37.4 L 85.1 37.4 C 85.1 37.4 85.06 38.39 85.1 38.4 C 85.4 37.7 86.2 37.4 87.1 37.4 C 88.3 37.4 89.2 38.1 89.2 39.6 Z M 90.4 42.1 C 90.4 42.1 90.8 41.5 90.8 41.5 C 91.2 41.9 91.9 42.1 92.6 42.1 C 93.6 42.1 94 41.8 94 41.3 C 94 39.9 90.6 41 90.6 38.9 C 90.6 38 91.4 37.4 92.7 37.4 C 93.4 37.4 94.1 37.6 94.6 37.9 C 94.6 37.9 94.3 38.4 94.3 38.4 C 93.8 38.1 93.3 38 92.7 38 C 91.8 38 91.3 38.4 91.3 38.9 C 91.3 40.3 94.8 39.2 94.8 41.2 C 94.8 42.1 94 42.7 92.6 42.7 C 91.7 42.7 90.9 42.4 90.4 42.1 Z M 102.7 39.4 C 102.65 39.42 102.7 42.7 102.7 42.7 L 102 42.7 C 102 42.7 101.97 41.86 102 41.9 C 101.7 42.4 101 42.7 100.2 42.7 C 99 42.7 98.2 42.1 98.2 41.2 C 98.2 40.4 98.8 39.7 100.3 39.7 C 100.27 39.71 101.9 39.7 101.9 39.7 C 101.9 39.7 101.94 39.39 101.9 39.4 C 101.9 38.5 101.4 38 100.5 38 C 99.8 38 99.1 38.2 98.7 38.6 C 98.7 38.6 98.4 38.1 98.4 38.1 C 98.9 37.6 99.7 37.4 100.5 37.4 C 101.9 37.4 102.7 38.1 102.7 39.4 Z M 101.9 41.1 C 101.94 41.1 101.9 40.2 101.9 40.2 C 101.9 40.2 100.29 40.24 100.3 40.2 C 99.3 40.2 98.9 40.6 98.9 41.2 C 98.9 41.8 99.4 42.2 100.3 42.2 C 101.1 42.2 101.7 41.8 101.9 41.1 Z M 109.3 39.6 C 109.31 39.63 109.3 42.7 109.3 42.7 L 108.6 42.7 C 108.6 42.7 108.6 39.7 108.6 39.7 C 108.6 38.6 108 38 107 38 C 105.9 38 105.2 38.7 105.2 39.9 C 105.18 39.92 105.2 42.7 105.2 42.7 L 104.5 42.7 L 104.5 37.4 L 105.1 37.4 C 105.1 37.4 105.15 38.39 105.1 38.4 C 105.5 37.7 106.2 37.4 107.1 37.4 C 108.4 37.4 109.3 38.1 109.3 39.6 Z M 116 35.3 L 116 42.7 L 115.3 42.7 C 115.3 42.7 115.34 41.64 115.3 41.6 C 114.9 42.3 114.2 42.7 113.3 42.7 C 111.8 42.7 110.7 41.6 110.7 40 C 110.7 38.5 111.8 37.4 113.3 37.4 C 114.2 37.4 114.9 37.7 115.3 38.4 C 115.31 38.42 115.3 35.3 115.3 35.3 L 116 35.3 Z M 115.3 40 C 115.3 38.8 114.5 38 113.4 38 C 112.3 38 111.4 38.8 111.4 40 C 111.4 41.3 112.3 42.1 113.4 42.1 C 114.5 42.1 115.3 41.3 115.3 40 Z M 125.4 35.3 L 125.4 42.7 L 124.7 42.7 C 124.7 42.7 124.74 41.64 124.7 41.6 C 124.3 42.3 123.6 42.7 122.7 42.7 C 121.2 42.7 120.1 41.6 120.1 40 C 120.1 38.5 121.2 37.4 122.7 37.4 C 123.6 37.4 124.3 37.7 124.7 38.4 C 124.71 38.42 124.7 35.3 124.7 35.3 L 125.4 35.3 Z M 124.7 40 C 124.7 38.8 123.9 38 122.8 38 C 121.6 38 120.8 38.8 120.8 40 C 120.8 41.3 121.6 42.1 122.8 42.1 C 123.9 42.1 124.7 41.3 124.7 40 Z M 127.1 35.8 C 127.1 35.5 127.4 35.3 127.6 35.3 C 127.9 35.3 128.2 35.5 128.2 35.7 C 128.2 36 127.9 36.3 127.6 36.3 C 127.4 36.3 127.1 36 127.1 35.8 Z M 127.3 37.4 L 128 37.4 L 128 42.7 L 127.3 42.7 L 127.3 37.4 Z M 133.9 39.4 C 133.87 39.42 133.9 42.7 133.9 42.7 L 133.2 42.7 C 133.2 42.7 133.19 41.86 133.2 41.9 C 132.9 42.4 132.2 42.7 131.4 42.7 C 130.2 42.7 129.5 42.1 129.5 41.2 C 129.5 40.4 130 39.7 131.5 39.7 C 131.49 39.71 133.2 39.7 133.2 39.7 C 133.2 39.7 133.16 39.39 133.2 39.4 C 133.2 38.5 132.6 38 131.7 38 C 131 38 130.3 38.2 129.9 38.6 C 129.9 38.6 129.6 38.1 129.6 38.1 C 130.1 37.6 130.9 37.4 131.7 37.4 C 133.1 37.4 133.9 38.1 133.9 39.4 Z M 133.2 41.1 C 133.16 41.1 133.2 40.2 133.2 40.2 C 133.2 40.2 131.51 40.24 131.5 40.2 C 130.5 40.2 130.2 40.6 130.2 41.2 C 130.2 41.8 130.6 42.2 131.5 42.2 C 132.3 42.2 132.9 41.8 133.2 41.1 Z M 135.7 35.3 L 136.4 35.3 L 136.4 42.7 L 135.7 42.7 L 135.7 35.3 Z M 137.7 42.1 C 137.7 42.1 138 41.5 138 41.5 C 138.4 41.9 139.1 42.1 139.9 42.1 C 140.9 42.1 141.3 41.8 141.3 41.3 C 141.3 39.9 137.9 41 137.9 38.9 C 137.9 38 138.6 37.4 140 37.4 C 140.6 37.4 141.4 37.6 141.8 37.9 C 141.8 37.9 141.5 38.4 141.5 38.4 C 141 38.1 140.5 38 140 38 C 139 38 138.6 38.4 138.6 38.9 C 138.6 40.3 142 39.2 142 41.2 C 142 42.1 141.2 42.7 139.8 42.7 C 138.9 42.7 138.1 42.4 137.7 42.1 Z M 145.4 40 C 145.4 38.5 146.5 37.4 148.1 37.4 C 149 37.4 149.7 37.7 150.2 38.4 C 150.2 38.4 149.6 38.8 149.6 38.8 C 149.3 38.2 148.7 38 148.1 38 C 146.9 38 146.1 38.8 146.1 40 C 146.1 41.3 146.9 42.1 148.1 42.1 C 148.7 42.1 149.3 41.9 149.6 41.3 C 149.6 41.3 150.2 41.7 150.2 41.7 C 149.7 42.4 149 42.7 148.1 42.7 C 146.5 42.7 145.4 41.6 145.4 40 Z M 155.6 39.4 C 155.57 39.42 155.6 42.7 155.6 42.7 L 154.9 42.7 C 154.9 42.7 154.89 41.86 154.9 41.9 C 154.6 42.4 154 42.7 153.1 42.7 C 151.9 42.7 151.2 42.1 151.2 41.2 C 151.2 40.4 151.7 39.7 153.2 39.7 C 153.19 39.71 154.9 39.7 154.9 39.7 C 154.9 39.7 154.86 39.39 154.9 39.4 C 154.9 38.5 154.4 38 153.4 38 C 152.7 38 152.1 38.2 151.6 38.6 C 151.6 38.6 151.3 38.1 151.3 38.1 C 151.8 37.6 152.6 37.4 153.4 37.4 C 154.8 37.4 155.6 38.1 155.6 39.4 Z M 154.9 41.1 C 154.86 41.1 154.9 40.2 154.9 40.2 C 154.9 40.2 153.21 40.24 153.2 40.2 C 152.2 40.2 151.9 40.6 151.9 41.2 C 151.9 41.8 152.4 42.2 153.2 42.2 C 154 42.2 154.6 41.8 154.9 41.1 Z M 162.2 39.6 C 162.23 39.63 162.2 42.7 162.2 42.7 L 161.5 42.7 C 161.5 42.7 161.52 39.7 161.5 39.7 C 161.5 38.6 160.9 38 159.9 38 C 158.8 38 158.1 38.7 158.1 39.9 C 158.1 39.92 158.1 42.7 158.1 42.7 L 157.4 42.7 L 157.4 37.4 L 158.1 37.4 C 158.1 37.4 158.07 38.39 158.1 38.4 C 158.4 37.7 159.2 37.4 160.1 37.4 C 161.3 37.4 162.2 38.1 162.2 39.6 Z M 172.1 40 C 172.1 41.6 171 42.7 169.5 42.7 C 168.6 42.7 167.9 42.3 167.5 41.6 C 167.46 41.64 167.5 42.7 167.5 42.7 L 166.8 42.7 L 166.8 35.3 L 167.5 35.3 C 167.5 35.3 167.49 38.42 167.5 38.4 C 167.9 37.7 168.6 37.4 169.5 37.4 C 171 37.4 172.1 38.5 172.1 40 Z M 171.4 40 C 171.4 38.8 170.5 38 169.4 38 C 168.3 38 167.5 38.8 167.5 40 C 167.5 41.3 168.3 42.1 169.4 42.1 C 170.5 42.1 171.4 41.3 171.4 40 Z M 178.2 40.3 C 178.2 40.3 173.8 40.3 173.8 40.3 C 173.9 41.4 174.7 42.1 175.9 42.1 C 176.5 42.1 177.1 41.9 177.5 41.4 C 177.5 41.4 177.9 41.9 177.9 41.9 C 177.4 42.4 176.7 42.7 175.9 42.7 C 174.2 42.7 173.1 41.6 173.1 40 C 173.1 38.5 174.2 37.4 175.7 37.4 C 177.2 37.4 178.2 38.5 178.2 40 C 178.2 40.1 178.2 40.2 178.2 40.3 Z M 173.8 39.7 C 173.8 39.7 177.6 39.7 177.6 39.7 C 177.5 38.7 176.7 38 175.7 38 C 174.7 38 173.9 38.7 173.8 39.7 Z M 187 37.4 L 187 42.7 L 186.4 42.7 C 186.4 42.7 186.36 41.72 186.4 41.7 C 186 42.4 185.3 42.7 184.5 42.7 C 183.1 42.7 182.3 42 182.3 40.5 C 182.25 40.47 182.3 37.4 182.3 37.4 L 183 37.4 C 183 37.4 182.96 40.4 183 40.4 C 183 41.5 183.5 42.1 184.5 42.1 C 185.6 42.1 186.3 41.4 186.3 40.2 C 186.33 40.18 186.3 37.4 186.3 37.4 L 187 37.4 Z M 188.3 42.1 C 188.3 42.1 188.7 41.5 188.7 41.5 C 189.1 41.9 189.8 42.1 190.5 42.1 C 191.5 42.1 191.9 41.8 191.9 41.3 C 191.9 39.9 188.5 41 188.5 38.9 C 188.5 38 189.3 37.4 190.6 37.4 C 191.3 37.4 192 37.6 192.5 37.9 C 192.5 37.9 192.2 38.4 192.2 38.4 C 191.7 38.1 191.1 38 190.6 38 C 189.7 38 189.2 38.4 189.2 38.9 C 189.2 40.3 192.6 39.2 192.6 41.2 C 192.6 42.1 191.8 42.7 190.5 42.7 C 189.6 42.7 188.8 42.4 188.3 42.1 Z M 198.6 40.3 C 198.6 40.3 194.2 40.3 194.2 40.3 C 194.3 41.4 195.2 42.1 196.3 42.1 C 196.9 42.1 197.5 41.9 197.9 41.4 C 197.9 41.4 198.3 41.9 198.3 41.9 C 197.8 42.4 197.1 42.7 196.3 42.7 C 194.6 42.7 193.5 41.6 193.5 40 C 193.5 38.5 194.6 37.4 196.1 37.4 C 197.6 37.4 198.6 38.5 198.6 40 C 198.6 40.1 198.6 40.2 198.6 40.3 Z M 194.2 39.7 C 194.2 39.7 198 39.7 198 39.7 C 197.9 38.7 197.1 38 196.1 38 C 195.1 38 194.3 38.7 194.2 39.7 Z M 205 35.3 L 205 42.7 L 204.3 42.7 C 204.3 42.7 204.29 41.64 204.3 41.6 C 203.9 42.3 203.1 42.7 202.3 42.7 C 200.8 42.7 199.6 41.6 199.6 40 C 199.6 38.5 200.8 37.4 202.3 37.4 C 203.1 37.4 203.8 37.7 204.3 38.4 C 204.26 38.42 204.3 35.3 204.3 35.3 L 205 35.3 Z M 204.3 40 C 204.3 38.8 203.4 38 202.3 38 C 201.2 38 200.4 38.8 200.4 40 C 200.4 41.3 201.2 42.1 202.3 42.1 C 203.4 42.1 204.3 41.3 204.3 40 Z M 212.3 42.4 C 212.1 42.6 211.6 42.7 211.2 42.7 C 210.2 42.7 209.7 42.2 209.7 41.2 C 209.69 41.2 209.7 38 209.7 38 L 208.8 38 L 208.8 37.4 L 209.7 37.4 L 209.7 36.3 L 210.4 36.3 L 210.4 37.4 L 212 37.4 L 212 38 L 210.4 38 C 210.4 38 210.4 41.16 210.4 41.2 C 210.4 41.8 210.7 42.1 211.3 42.1 C 211.6 42.1 211.9 42 212.1 41.9 C 212.1 41.9 212.3 42.4 212.3 42.4 Z M 212.9 40 C 212.9 38.5 214 37.4 215.6 37.4 C 217.1 37.4 218.2 38.5 218.2 40 C 218.2 41.6 217.1 42.7 215.6 42.7 C 214 42.7 212.9 41.6 212.9 40 Z M 217.5 40 C 217.5 38.8 216.7 38 215.6 38 C 214.5 38 213.6 38.8 213.6 40 C 213.6 41.3 214.5 42.1 215.6 42.1 C 216.7 42.1 217.5 41.3 217.5 40 Z M 227.1 35.3 L 227.1 42.7 L 226.4 42.7 C 226.4 42.7 226.43 41.64 226.4 41.6 C 226 42.3 225.3 42.7 224.4 42.7 C 222.9 42.7 221.8 41.6 221.8 40 C 221.8 38.5 222.9 37.4 224.4 37.4 C 225.2 37.4 226 37.7 226.4 38.4 C 226.4 38.42 226.4 35.3 226.4 35.3 L 227.1 35.3 Z M 226.4 40 C 226.4 38.8 225.6 38 224.5 38 C 223.3 38 222.5 38.8 222.5 40 C 222.5 41.3 223.3 42.1 224.5 42.1 C 225.6 42.1 226.4 41.3 226.4 40 Z M 228.8 35.8 C 228.8 35.5 229 35.3 229.3 35.3 C 229.6 35.3 229.9 35.5 229.9 35.7 C 229.9 36 229.6 36.3 229.3 36.3 C 229 36.3 228.8 36 228.8 35.8 Z M 229 37.4 L 229.7 37.4 L 229.7 42.7 L 229 42.7 L 229 37.4 Z M 231 42.1 C 231 42.1 231.3 41.5 231.3 41.5 C 231.7 41.9 232.4 42.1 233.1 42.1 C 234.1 42.1 234.6 41.8 234.6 41.3 C 234.6 39.9 231.1 41 231.1 38.9 C 231.1 38 231.9 37.4 233.2 37.4 C 233.9 37.4 234.6 37.6 235.1 37.9 C 235.1 37.9 234.8 38.4 234.8 38.4 C 234.3 38.1 233.8 38 233.2 38 C 232.3 38 231.9 38.4 231.9 38.9 C 231.9 40.3 235.3 39.2 235.3 41.2 C 235.3 42.1 234.5 42.7 233.1 42.7 C 232.2 42.7 231.4 42.4 231 42.1 Z M 239.5 42.4 C 239.3 42.6 238.8 42.7 238.4 42.7 C 237.4 42.7 236.9 42.2 236.9 41.2 C 236.9 41.2 236.9 38 236.9 38 L 236 38 L 236 37.4 L 236.9 37.4 L 236.9 36.3 L 237.6 36.3 L 237.6 37.4 L 239.2 37.4 L 239.2 38 L 237.6 38 C 237.6 38 237.61 41.16 237.6 41.2 C 237.6 41.8 237.9 42.1 238.5 42.1 C 238.8 42.1 239.1 42 239.3 41.9 C 239.3 41.9 239.5 42.4 239.5 42.4 Z M 240.6 35.8 C 240.6 35.5 240.8 35.3 241.1 35.3 C 241.4 35.3 241.6 35.5 241.6 35.7 C 241.6 36 241.4 36.3 241.1 36.3 C 240.8 36.3 240.6 36 240.6 35.8 Z M 240.7 37.4 L 241.4 37.4 L 241.4 42.7 L 240.7 42.7 L 240.7 37.4 Z M 248.1 39.6 C 248.13 39.63 248.1 42.7 248.1 42.7 L 247.4 42.7 C 247.4 42.7 247.42 39.7 247.4 39.7 C 247.4 38.6 246.8 38 245.8 38 C 244.7 38 244 38.7 244 39.9 C 244 39.92 244 42.7 244 42.7 L 243.3 42.7 L 243.3 37.4 L 244 37.4 C 244 37.4 243.97 38.39 244 38.4 C 244.3 37.7 245.1 37.4 246 37.4 C 247.3 37.4 248.1 38.1 248.1 39.6 Z M 254.9 37.4 C 254.9 37.4 254.89 42.04 254.9 42 C 254.9 43.9 254 44.7 252.3 44.7 C 251.3 44.7 250.4 44.4 249.8 43.9 C 249.8 43.9 250.2 43.3 250.2 43.3 C 250.7 43.8 251.4 44 252.2 44 C 253.6 44 254.2 43.4 254.2 42.1 C 254.2 42.1 254.2 41.5 254.2 41.5 C 253.7 42.1 253 42.5 252.1 42.5 C 250.6 42.5 249.5 41.4 249.5 39.9 C 249.5 38.4 250.6 37.4 252.1 37.4 C 253 37.4 253.8 37.7 254.2 38.4 C 254.21 38.43 254.2 37.4 254.2 37.4 L 254.9 37.4 Z M 254.2 39.9 C 254.2 38.8 253.4 38 252.2 38 C 251 38 250.2 38.8 250.2 39.9 C 250.2 41.1 251 41.9 252.2 41.9 C 253.4 41.9 254.2 41.1 254.2 39.9 Z M 261.5 37.4 L 261.5 42.7 L 260.8 42.7 C 260.8 42.7 260.82 41.72 260.8 41.7 C 260.5 42.4 259.8 42.7 258.9 42.7 C 257.6 42.7 256.7 42 256.7 40.5 C 256.71 40.47 256.7 37.4 256.7 37.4 L 257.4 37.4 C 257.4 37.4 257.42 40.4 257.4 40.4 C 257.4 41.5 258 42.1 259 42.1 C 260.1 42.1 260.8 41.4 260.8 40.2 C 260.79 40.18 260.8 37.4 260.8 37.4 L 261.5 37.4 Z M 263.2 35.8 C 263.2 35.5 263.4 35.3 263.7 35.3 C 264 35.3 264.3 35.5 264.3 35.7 C 264.3 36 264 36.3 263.7 36.3 C 263.4 36.3 263.2 36 263.2 35.8 Z M 263.4 37.4 L 264.1 37.4 L 264.1 42.7 L 263.4 42.7 L 263.4 37.4 Z M 265.4 42.1 C 265.4 42.1 265.7 41.5 265.7 41.5 C 266.1 41.9 266.8 42.1 267.5 42.1 C 268.5 42.1 269 41.8 269 41.3 C 269 39.9 265.5 41 265.5 38.9 C 265.5 38 266.3 37.4 267.6 37.4 C 268.3 37.4 269 37.6 269.5 37.9 C 269.5 37.9 269.2 38.4 269.2 38.4 C 268.7 38.1 268.2 38 267.6 38 C 266.7 38 266.2 38.4 266.2 38.9 C 266.2 40.3 269.7 39.2 269.7 41.2 C 269.7 42.1 268.9 42.7 267.5 42.7 C 266.6 42.7 265.8 42.4 265.4 42.1 Z M 275.8 39.6 C 275.81 39.63 275.8 42.7 275.8 42.7 L 275.1 42.7 C 275.1 42.7 275.1 39.7 275.1 39.7 C 275.1 38.6 274.5 38 273.5 38 C 272.4 38 271.7 38.7 271.7 39.9 C 271.68 39.92 271.7 42.7 271.7 42.7 L 271 42.7 L 271 35.3 L 271.7 35.3 C 271.7 35.3 271.68 38.34 271.7 38.3 C 272.1 37.7 272.8 37.4 273.7 37.4 C 274.9 37.4 275.8 38.1 275.8 39.6 Z M 285.7 40 C 285.7 41.6 284.6 42.7 283.1 42.7 C 282.2 42.7 281.5 42.3 281 41.6 C 281.04 41.64 281 42.7 281 42.7 L 280.4 42.7 L 280.4 35.3 L 281.1 35.3 C 281.1 35.3 281.07 38.42 281.1 38.4 C 281.5 37.7 282.2 37.4 283.1 37.4 C 284.6 37.4 285.7 38.5 285.7 40 Z M 285 40 C 285 38.8 284.1 38 283 38 C 281.9 38 281.1 38.8 281.1 40 C 281.1 41.3 281.9 42.1 283 42.1 C 284.1 42.1 285 41.3 285 40 Z M 291.8 40.3 C 291.8 40.3 287.4 40.3 287.4 40.3 C 287.5 41.4 288.3 42.1 289.5 42.1 C 290.1 42.1 290.7 41.9 291.1 41.4 C 291.1 41.4 291.5 41.9 291.5 41.9 C 291 42.4 290.3 42.7 289.5 42.7 C 287.8 42.7 286.7 41.6 286.7 40 C 286.7 38.5 287.8 37.4 289.3 37.4 C 290.7 37.4 291.8 38.5 291.8 40 C 291.8 40.1 291.8 40.2 291.8 40.3 Z M 287.4 39.7 C 287.4 39.7 291.1 39.7 291.1 39.7 C 291 38.7 290.3 38 289.3 38 C 288.2 38 287.5 38.7 287.4 39.7 Z M 296 42.4 C 295.7 42.6 295.3 42.7 294.8 42.7 C 293.9 42.7 293.3 42.2 293.3 41.2 C 293.3 41.2 293.3 38 293.3 38 L 292.4 38 L 292.4 37.4 L 293.3 37.4 L 293.3 36.3 L 294 36.3 L 294 37.4 L 295.6 37.4 L 295.6 38 L 294 38 C 294 38 294.01 41.16 294 41.2 C 294 41.8 294.3 42.1 294.9 42.1 C 295.2 42.1 295.5 42 295.7 41.9 C 295.7 41.9 296 42.4 296 42.4 Z M 305.1 37.4 L 303.1 42.7 L 302.5 42.7 L 300.8 38.4 L 299.2 42.7 L 298.5 42.7 L 296.5 37.4 L 297.2 37.4 L 298.8 41.9 L 300.5 37.4 L 301.1 37.4 L 302.8 41.9 L 304.5 37.4 L 305.1 37.4 Z M 310.7 40.3 C 310.7 40.3 306.3 40.3 306.3 40.3 C 306.4 41.4 307.3 42.1 308.4 42.1 C 309.1 42.1 309.6 41.9 310 41.4 C 310 41.4 310.4 41.9 310.4 41.9 C 310 42.4 309.2 42.7 308.4 42.7 C 306.8 42.7 305.6 41.6 305.6 40 C 305.6 38.5 306.7 37.4 308.2 37.4 C 309.7 37.4 310.8 38.5 310.8 40 C 310.8 40.1 310.7 40.2 310.7 40.3 Z M 306.3 39.7 C 306.3 39.7 310.1 39.7 310.1 39.7 C 310 38.7 309.2 38 308.2 38 C 307.2 38 306.4 38.7 306.3 39.7 Z M 316.9 40.3 C 316.9 40.3 312.5 40.3 312.5 40.3 C 312.5 41.4 313.4 42.1 314.5 42.1 C 315.2 42.1 315.7 41.9 316.1 41.4 C 316.1 41.4 316.5 41.9 316.5 41.9 C 316.1 42.4 315.3 42.7 314.5 42.7 C 312.9 42.7 311.8 41.6 311.8 40 C 311.8 38.5 312.8 37.4 314.3 37.4 C 315.8 37.4 316.9 38.5 316.9 40 C 316.9 40.1 316.9 40.2 316.9 40.3 Z M 312.5 39.7 C 312.5 39.7 316.2 39.7 316.2 39.7 C 316.1 38.7 315.4 38 314.3 38 C 313.3 38 312.6 38.7 312.5 39.7 Z M 323.1 39.6 C 323.12 39.63 323.1 42.7 323.1 42.7 L 322.4 42.7 C 322.4 42.7 322.41 39.7 322.4 39.7 C 322.4 38.6 321.8 38 320.8 38 C 319.7 38 319 38.7 319 39.9 C 318.99 39.92 319 42.7 319 42.7 L 318.3 42.7 L 318.3 37.4 L 319 37.4 C 319 37.4 318.96 38.39 319 38.4 C 319.3 37.7 320 37.4 321 37.4 C 322.2 37.4 323.1 38.1 323.1 39.6 Z M 332.5 35.3 L 332.5 42.7 L 331.8 42.7 C 331.8 42.7 331.79 41.64 331.8 41.6 C 331.4 42.3 330.6 42.7 329.8 42.7 C 328.3 42.7 327.1 41.6 327.1 40 C 327.1 38.5 328.3 37.4 329.8 37.4 C 330.6 37.4 331.3 37.7 331.8 38.4 C 331.76 38.42 331.8 35.3 331.8 35.3 L 332.5 35.3 Z M 331.8 40 C 331.8 38.8 330.9 38 329.8 38 C 328.7 38 327.9 38.8 327.9 40 C 327.9 41.3 328.7 42.1 329.8 42.1 C 330.9 42.1 331.8 41.3 331.8 40 Z M 334.2 35.8 C 334.2 35.5 334.4 35.3 334.7 35.3 C 335 35.3 335.2 35.5 335.2 35.7 C 335.2 36 335 36.3 334.7 36.3 C 334.4 36.3 334.2 36 334.2 35.8 Z M 334.3 37.4 L 335 37.4 L 335 42.7 L 334.3 42.7 L 334.3 37.4 Z M 337.8 36.8 C 337.79 36.8 337.8 37.4 337.8 37.4 L 339.4 37.4 L 339.4 38 L 337.8 38 L 337.8 42.7 L 337.1 42.7 L 337.1 38 L 336.2 38 L 336.2 37.4 L 337.1 37.4 C 337.1 37.4 337.1 36.77 337.1 36.8 C 337.1 35.8 337.7 35.2 338.7 35.2 C 339.1 35.2 339.5 35.3 339.7 35.5 C 339.7 35.5 339.5 36.1 339.5 36.1 C 339.3 35.9 339 35.8 338.7 35.8 C 338.1 35.8 337.8 36.1 337.8 36.8 Z M 341.6 36.8 C 341.63 36.8 341.6 37.4 341.6 37.4 L 343.2 37.4 L 343.2 38 L 341.6 38 L 341.6 42.7 L 340.9 42.7 L 340.9 38 L 340 38 L 340 37.4 L 340.9 37.4 C 340.9 37.4 340.94 36.77 340.9 36.8 C 340.9 35.8 341.5 35.2 342.5 35.2 C 342.9 35.2 343.3 35.3 343.6 35.5 C 343.6 35.5 343.3 36.1 343.3 36.1 C 343.1 35.9 342.9 35.8 342.6 35.8 C 341.9 35.8 341.6 36.1 341.6 36.8 Z M 348.8 40.3 C 348.8 40.3 344.4 40.3 344.4 40.3 C 344.5 41.4 345.3 42.1 346.5 42.1 C 347.1 42.1 347.7 41.9 348.1 41.4 C 348.1 41.4 348.5 41.9 348.5 41.9 C 348 42.4 347.3 42.7 346.4 42.7 C 344.8 42.7 343.7 41.6 343.7 40 C 343.7 38.5 344.8 37.4 346.2 37.4 C 347.7 37.4 348.8 38.5 348.8 40 C 348.8 40.1 348.8 40.2 348.8 40.3 Z M 344.4 39.7 C 344.4 39.7 348.1 39.7 348.1 39.7 C 348 38.7 347.3 38 346.2 38 C 345.2 38 344.5 38.7 344.4 39.7 Z M 352.8 37.4 C 352.8 37.4 352.8 38.1 352.8 38.1 C 352.8 38.1 352.7 38.1 352.7 38.1 C 351.6 38.1 350.9 38.8 350.9 40 C 350.91 40 350.9 42.7 350.9 42.7 L 350.2 42.7 L 350.2 37.4 L 350.9 37.4 C 350.9 37.4 350.88 38.45 350.9 38.4 C 351.2 37.7 351.9 37.4 352.8 37.4 Z M 358.6 40.3 C 358.6 40.3 354.2 40.3 354.2 40.3 C 354.3 41.4 355.1 42.1 356.3 42.1 C 356.9 42.1 357.5 41.9 357.9 41.4 C 357.9 41.4 358.3 41.9 358.3 41.9 C 357.8 42.4 357.1 42.7 356.2 42.7 C 354.6 42.7 353.5 41.6 353.5 40 C 353.5 38.5 354.6 37.4 356 37.4 C 357.5 37.4 358.6 38.5 358.6 40 C 358.6 40.1 358.6 40.2 358.6 40.3 Z M 354.2 39.7 C 354.2 39.7 357.9 39.7 357.9 39.7 C 357.8 38.7 357.1 38 356 38 C 355 38 354.3 38.7 354.2 39.7 Z M 364.8 39.6 C 364.84 39.63 364.8 42.7 364.8 42.7 L 364.1 42.7 C 364.1 42.7 364.13 39.7 364.1 39.7 C 364.1 38.6 363.6 38 362.6 38 C 361.4 38 360.7 38.7 360.7 39.9 C 360.71 39.92 360.7 42.7 360.7 42.7 L 360 42.7 L 360 37.4 L 360.7 37.4 C 360.7 37.4 360.68 38.39 360.7 38.4 C 361.1 37.7 361.8 37.4 362.7 37.4 C 364 37.4 364.8 38.1 364.8 39.6 Z M 369.4 42.4 C 369.1 42.6 368.7 42.7 368.3 42.7 C 367.3 42.7 366.7 42.2 366.7 41.2 C 366.73 41.2 366.7 38 366.7 38 L 365.8 38 L 365.8 37.4 L 366.7 37.4 L 366.7 36.3 L 367.4 36.3 L 367.4 37.4 L 369 37.4 L 369 38 L 367.4 38 C 367.4 38 367.43 41.16 367.4 41.2 C 367.4 41.8 367.8 42.1 368.3 42.1 C 368.6 42.1 368.9 42 369.1 41.9 C 369.1 41.9 369.4 42.4 369.4 42.4 Z M 372.8 40 C 372.8 38.5 373.9 37.4 375.5 37.4 C 376.4 37.4 377.1 37.7 377.5 38.4 C 377.5 38.4 377 38.8 377 38.8 C 376.6 38.2 376.1 38 375.5 38 C 374.3 38 373.5 38.8 373.5 40 C 373.5 41.3 374.3 42.1 375.5 42.1 C 376.1 42.1 376.6 41.9 377 41.3 C 377 41.3 377.5 41.7 377.5 41.7 C 377.1 42.4 376.4 42.7 375.5 42.7 C 373.9 42.7 372.8 41.6 372.8 40 Z M 378.3 40 C 378.3 38.5 379.5 37.4 381 37.4 C 382.5 37.4 383.7 38.5 383.7 40 C 383.7 41.6 382.5 42.7 381 42.7 C 379.5 42.7 378.3 41.6 378.3 40 Z M 382.9 40 C 382.9 38.8 382.1 38 381 38 C 379.9 38 379 38.8 379 40 C 379 41.3 379.9 42.1 381 42.1 C 382.1 42.1 382.9 41.3 382.9 40 Z M 389.9 39.6 C 389.93 39.63 389.9 42.7 389.9 42.7 L 389.2 42.7 C 389.2 42.7 389.22 39.7 389.2 39.7 C 389.2 38.6 388.6 38 387.6 38 C 386.5 38 385.8 38.7 385.8 39.9 C 385.8 39.92 385.8 42.7 385.8 42.7 L 385.1 42.7 L 385.1 37.4 L 385.8 37.4 C 385.8 37.4 385.77 38.39 385.8 38.4 C 386.1 37.7 386.9 37.4 387.8 37.4 C 389 37.4 389.9 38.1 389.9 39.6 Z M 394.5 42.4 C 394.2 42.6 393.8 42.7 393.3 42.7 C 392.4 42.7 391.8 42.2 391.8 41.2 C 391.81 41.2 391.8 38 391.8 38 L 390.9 38 L 390.9 37.4 L 391.8 37.4 L 391.8 36.3 L 392.5 36.3 L 392.5 37.4 L 394.1 37.4 L 394.1 38 L 392.5 38 C 392.5 38 392.52 41.16 392.5 41.2 C 392.5 41.8 392.8 42.1 393.4 42.1 C 393.7 42.1 394 42 394.2 41.9 C 394.2 41.9 394.5 42.4 394.5 42.4 Z M 398.3 37.4 C 398.3 37.4 398.3 38.1 398.3 38.1 C 398.2 38.1 398.2 38.1 398.1 38.1 C 397 38.1 396.4 38.8 396.4 40 C 396.36 40 396.4 42.7 396.4 42.7 L 395.6 42.7 L 395.6 37.4 L 396.3 37.4 C 396.3 37.4 396.33 38.45 396.3 38.4 C 396.7 37.7 397.3 37.4 398.3 37.4 Z M 398.9 40 C 398.9 38.5 400.1 37.4 401.6 37.4 C 403.1 37.4 404.3 38.5 404.3 40 C 404.3 41.6 403.1 42.7 401.6 42.7 C 400.1 42.7 398.9 41.6 398.9 40 Z M 403.5 40 C 403.5 38.8 402.7 38 401.6 38 C 400.5 38 399.6 38.8 399.6 40 C 399.6 41.3 400.5 42.1 401.6 42.1 C 402.7 42.1 403.5 41.3 403.5 40 Z M 405.7 35.3 L 406.4 35.3 L 406.4 42.7 L 405.7 42.7 L 405.7 35.3 Z M 411.8 36.8 C 411.82 36.8 411.8 37.4 411.8 37.4 L 413.4 37.4 L 413.4 38 L 411.8 38 L 411.8 42.7 L 411.1 42.7 L 411.1 38 L 410.2 38 L 410.2 37.4 L 411.1 37.4 C 411.1 37.4 411.13 36.77 411.1 36.8 C 411.1 35.8 411.7 35.2 412.7 35.2 C 413.1 35.2 413.5 35.3 413.8 35.5 C 413.8 35.5 413.5 36.1 413.5 36.1 C 413.3 35.9 413.1 35.8 412.8 35.8 C 412.1 35.8 411.8 36.1 411.8 36.8 Z M 419.2 37.4 L 419.2 42.7 L 418.5 42.7 C 418.5 42.7 418.54 41.72 418.5 41.7 C 418.2 42.4 417.5 42.7 416.7 42.7 C 415.3 42.7 414.4 42 414.4 40.5 C 414.43 40.47 414.4 37.4 414.4 37.4 L 415.1 37.4 C 415.1 37.4 415.14 40.4 415.1 40.4 C 415.1 41.5 415.7 42.1 416.7 42.1 C 417.8 42.1 418.5 41.4 418.5 40.2 C 418.51 40.18 418.5 37.4 418.5 37.4 L 419.2 37.4 Z M 425.9 39.6 C 425.93 39.63 425.9 42.7 425.9 42.7 L 425.2 42.7 C 425.2 42.7 425.22 39.7 425.2 39.7 C 425.2 38.6 424.6 38 423.6 38 C 422.5 38 421.8 38.7 421.8 39.9 C 421.8 39.92 421.8 42.7 421.8 42.7 L 421.1 42.7 L 421.1 37.4 L 421.8 37.4 C 421.8 37.4 421.77 38.39 421.8 38.4 C 422.1 37.7 422.9 37.4 423.8 37.4 C 425 37.4 425.9 38.1 425.9 39.6 Z M 427.3 40 C 427.3 38.5 428.4 37.4 430 37.4 C 430.9 37.4 431.7 37.7 432.1 38.4 C 432.1 38.4 431.5 38.8 431.5 38.8 C 431.2 38.2 430.6 38 430 38 C 428.9 38 428 38.8 428 40 C 428 41.3 428.9 42.1 430 42.1 C 430.6 42.1 431.2 41.9 431.5 41.3 C 431.5 41.3 432.1 41.7 432.1 41.7 C 431.7 42.4 430.9 42.7 430 42.7 C 428.4 42.7 427.3 41.6 427.3 40 Z M 436.4 42.4 C 436.1 42.6 435.7 42.7 435.3 42.7 C 434.3 42.7 433.8 42.2 433.8 41.2 C 433.77 41.2 433.8 38 433.8 38 L 432.8 38 L 432.8 37.4 L 433.8 37.4 L 433.8 36.3 L 434.5 36.3 L 434.5 37.4 L 436.1 37.4 L 436.1 38 L 434.5 38 C 434.5 38 434.48 41.16 434.5 41.2 C 434.5 41.8 434.8 42.1 435.4 42.1 C 435.7 42.1 436 42 436.2 41.9 C 436.2 41.9 436.4 42.4 436.4 42.4 Z M 437.5 35.8 C 437.5 35.5 437.7 35.3 438 35.3 C 438.3 35.3 438.5 35.5 438.5 35.7 C 438.5 36 438.3 36.3 438 36.3 C 437.7 36.3 437.5 36 437.5 35.8 Z M 437.6 37.4 L 438.3 37.4 L 438.3 42.7 L 437.6 42.7 L 437.6 37.4 Z M 439.7 40 C 439.7 38.5 440.9 37.4 442.4 37.4 C 443.9 37.4 445.1 38.5 445.1 40 C 445.1 41.6 443.9 42.7 442.4 42.7 C 440.9 42.7 439.7 41.6 439.7 40 Z M 444.3 40 C 444.3 38.8 443.5 38 442.4 38 C 441.3 38 440.4 38.8 440.4 40 C 440.4 41.3 441.3 42.1 442.4 42.1 C 443.5 42.1 444.3 41.3 444.3 40 Z M 451.3 39.6 C 451.33 39.63 451.3 42.7 451.3 42.7 L 450.6 42.7 C 450.6 42.7 450.62 39.7 450.6 39.7 C 450.6 38.6 450 38 449 38 C 447.9 38 447.2 38.7 447.2 39.9 C 447.2 39.92 447.2 42.7 447.2 42.7 L 446.5 42.7 L 446.5 37.4 L 447.2 37.4 C 447.2 37.4 447.17 38.39 447.2 38.4 C 447.5 37.7 448.3 37.4 449.2 37.4 C 450.5 37.4 451.3 38.1 451.3 39.6 Z M 452.5 42.1 C 452.5 42.1 452.9 41.5 452.9 41.5 C 453.3 41.9 454 42.1 454.7 42.1 C 455.7 42.1 456.1 41.8 456.1 41.3 C 456.1 39.9 452.7 41 452.7 38.9 C 452.7 38 453.5 37.4 454.8 37.4 C 455.5 37.4 456.2 37.6 456.7 37.9 C 456.7 37.9 456.4 38.4 456.4 38.4 C 455.9 38.1 455.4 38 454.8 38 C 453.9 38 453.4 38.4 453.4 38.9 C 453.4 40.3 456.9 39.2 456.9 41.2 C 456.9 42.1 456.1 42.7 454.7 42.7 C 453.8 42.7 453 42.4 452.5 42.1 Z M 458 42.2 C 458 41.9 458.2 41.6 458.5 41.6 C 458.8 41.6 459 41.9 459 42.2 C 459 42.5 458.8 42.7 458.5 42.7 C 458.2 42.7 458 42.5 458 42.2 Z " stroke="none" fill="#323132"/>
  </g>
  <g id="Polygon118069">
    <path d="M 10.2 15.8 C 9.7 15.8 9.2 15.7 8.7 15.5 C 8.2 15.3 7.8 15.1 7.5 14.8 C 7.1 14.4 6.9 14.1 6.7 13.6 C 6.5 13.2 6.4 12.7 6.4 12.2 C 6.4 11.7 6.5 11.2 6.7 10.7 C 6.9 10.3 7.1 9.9 7.5 9.6 C 7.8 9.3 8.2 9 8.7 8.8 C 9.2 8.6 9.7 8.6 10.2 8.6 C 10.8 8.6 11.3 8.6 11.7 8.8 C 12.2 9 12.6 9.3 13 9.6 C 13.3 9.9 13.6 10.3 13.8 10.7 C 14 11.2 14.1 11.7 14.1 12.2 C 14.1 12.7 14 13.2 13.8 13.6 C 13.6 14.1 13.3 14.5 13 14.8 C 12.6 15.1 12.2 15.3 11.7 15.5 C 11.3 15.7 10.8 15.8 10.2 15.8 Z M 10.2 14.4 C 10.5 14.4 10.8 14.4 11.1 14.3 C 11.3 14.2 11.6 14 11.8 13.8 C 12 13.6 12.1 13.4 12.2 13.1 C 12.4 12.8 12.4 12.5 12.4 12.2 C 12.4 11.8 12.4 11.5 12.2 11.3 C 12.1 11 12 10.8 11.8 10.6 C 11.6 10.4 11.4 10.2 11.1 10.1 C 10.8 10 10.5 9.9 10.2 9.9 C 9.9 9.9 9.6 10 9.4 10.1 C 9.1 10.2 8.9 10.4 8.7 10.6 C 8.5 10.8 8.3 11 8.2 11.3 C 8.1 11.5 8 11.8 8 12.2 C 8 12.5 8.1 12.8 8.2 13.1 C 8.3 13.4 8.5 13.6 8.7 13.8 C 8.9 14 9.1 14.2 9.3 14.3 C 9.6 14.4 9.9 14.4 10.2 14.4 Z M 18.4 15.8 C 18 15.8 17.6 15.7 17.3 15.5 C 16.9 15.3 16.6 15 16.5 14.5 C 16.3 14.1 16.2 13.6 16.2 13 C 16.2 12.4 16.3 11.8 16.4 11.4 C 16.6 11 16.9 10.7 17.2 10.5 C 17.6 10.3 18 10.2 18.4 10.2 C 18.9 10.2 19.4 10.3 19.8 10.6 C 20.2 10.8 20.5 11.1 20.8 11.5 C 21 11.9 21.1 12.4 21.1 13 C 21.1 13.6 21 14 20.8 14.5 C 20.5 14.9 20.2 15.2 19.8 15.4 C 19.4 15.6 18.9 15.8 18.4 15.8 Z M 15.3 17.6 L 15.3 10.3 L 16.8 10.3 L 16.8 11.4 L 16.7 13 L 16.8 14.6 L 16.8 17.6 L 15.3 17.6 Z M 18.2 14.5 C 18.4 14.5 18.7 14.4 18.9 14.3 C 19.1 14.2 19.2 14 19.4 13.8 C 19.5 13.6 19.5 13.3 19.5 13 C 19.5 12.7 19.5 12.4 19.4 12.2 C 19.2 12 19.1 11.8 18.9 11.7 C 18.7 11.6 18.4 11.5 18.2 11.5 C 17.9 11.5 17.7 11.6 17.5 11.7 C 17.3 11.8 17.1 12 17 12.2 C 16.9 12.4 16.8 12.7 16.8 13 C 16.8 13.3 16.9 13.6 17 13.8 C 17.1 14 17.3 14.2 17.5 14.3 C 17.7 14.4 17.9 14.5 18.2 14.5 Z M 24.9 15.8 C 24.3 15.8 23.8 15.6 23.3 15.4 C 22.8 15.2 22.5 14.8 22.2 14.4 C 22 14 21.8 13.5 21.8 13 C 21.8 12.4 22 12 22.2 11.6 C 22.5 11.1 22.8 10.8 23.2 10.6 C 23.7 10.3 24.2 10.2 24.7 10.2 C 25.2 10.2 25.7 10.3 26.1 10.6 C 26.6 10.8 26.9 11.1 27.1 11.5 C 27.4 11.9 27.5 12.4 27.5 13 C 27.5 13.1 27.5 13.1 27.5 13.2 C 27.5 13.3 27.5 13.4 27.5 13.4 C 27.48 13.43 23.1 13.4 23.1 13.4 L 23.1 12.5 L 26.7 12.5 C 26.7 12.5 26.06 12.79 26.1 12.8 C 26.1 12.5 26 12.3 25.9 12.1 C 25.8 11.9 25.6 11.7 25.4 11.6 C 25.2 11.5 25 11.4 24.7 11.4 C 24.5 11.4 24.2 11.5 24 11.6 C 23.8 11.7 23.7 11.9 23.5 12.1 C 23.4 12.3 23.4 12.5 23.4 12.8 C 23.4 12.8 23.4 13 23.4 13 C 23.4 13.3 23.4 13.6 23.6 13.8 C 23.7 14 23.9 14.2 24.1 14.3 C 24.4 14.5 24.6 14.5 25 14.5 C 25.2 14.5 25.5 14.5 25.7 14.4 C 25.9 14.3 26.1 14.2 26.3 14 C 26.3 14 27.1 14.9 27.1 14.9 C 26.9 15.2 26.6 15.4 26.2 15.5 C 25.8 15.7 25.4 15.8 24.9 15.8 Z M 28.6 15.7 L 28.6 10.3 L 30.1 10.3 L 30.1 11.8 C 30.1 11.8 29.85 11.38 29.9 11.4 C 30 11 30.3 10.7 30.6 10.5 C 31 10.3 31.4 10.2 31.9 10.2 C 31.9 10.2 31.9 11.7 31.9 11.7 C 31.8 11.7 31.8 11.6 31.7 11.6 C 31.7 11.6 31.6 11.6 31.6 11.6 C 31.1 11.6 30.8 11.8 30.5 12 C 30.3 12.2 30.1 12.6 30.1 13.1 C 30.13 13.14 30.1 15.7 30.1 15.7 L 28.6 15.7 Z M 36.2 15.7 L 36.2 14.6 L 36.1 14.4 C 36.1 14.4 36.08 12.52 36.1 12.5 C 36.1 12.2 36 11.9 35.8 11.7 C 35.6 11.6 35.3 11.5 34.8 11.5 C 34.6 11.5 34.3 11.5 34 11.6 C 33.7 11.7 33.5 11.8 33.3 12 C 33.3 12 32.7 10.9 32.7 10.9 C 33 10.7 33.4 10.5 33.8 10.4 C 34.2 10.3 34.6 10.2 35 10.2 C 35.9 10.2 36.5 10.4 37 10.8 C 37.4 11.2 37.6 11.8 37.6 12.6 C 37.64 12.61 37.6 15.7 37.6 15.7 L 36.2 15.7 Z M 34.5 15.8 C 34.1 15.8 33.8 15.7 33.5 15.5 C 33.2 15.4 32.9 15.2 32.8 15 C 32.6 14.7 32.5 14.4 32.5 14.1 C 32.5 13.8 32.6 13.5 32.8 13.3 C 32.9 13 33.2 12.9 33.5 12.7 C 33.8 12.6 34.3 12.5 34.8 12.5 C 34.84 12.52 36.3 12.5 36.3 12.5 L 36.3 13.4 C 36.3 13.4 35.01 13.43 35 13.4 C 34.6 13.4 34.4 13.5 34.3 13.6 C 34.1 13.7 34 13.9 34 14.1 C 34 14.3 34.1 14.4 34.3 14.5 C 34.4 14.7 34.7 14.7 34.9 14.7 C 35.2 14.7 35.4 14.6 35.6 14.5 C 35.8 14.4 36 14.2 36.1 14 C 36.1 14 36.3 14.7 36.3 14.7 C 36.2 15 36 15.3 35.7 15.5 C 35.4 15.7 35 15.8 34.5 15.8 Z M 41.2 15.8 C 40.6 15.8 40.1 15.6 39.7 15.3 C 39.4 15 39.2 14.5 39.2 13.8 C 39.21 13.83 39.2 9.1 39.2 9.1 L 40.8 9.1 C 40.8 9.1 40.77 13.81 40.8 13.8 C 40.8 14 40.8 14.2 40.9 14.3 C 41.1 14.5 41.2 14.5 41.4 14.5 C 41.7 14.5 41.9 14.5 42.1 14.3 C 42.1 14.3 42.5 15.4 42.5 15.4 C 42.3 15.5 42.1 15.6 41.9 15.7 C 41.7 15.7 41.5 15.8 41.2 15.8 Z M 38.4 11.6 L 38.4 10.4 L 42.1 10.4 L 42.1 11.6 L 38.4 11.6 Z M 43.4 15.7 L 43.4 10.3 L 44.9 10.3 L 44.9 15.7 L 43.4 15.7 Z M 44.2 9.5 C 43.9 9.5 43.6 9.5 43.5 9.3 C 43.3 9.1 43.2 8.9 43.2 8.7 C 43.2 8.4 43.3 8.2 43.5 8.1 C 43.6 7.9 43.9 7.8 44.2 7.8 C 44.4 7.8 44.7 7.9 44.9 8 C 45 8.2 45.1 8.4 45.1 8.6 C 45.1 8.9 45 9.1 44.9 9.3 C 44.7 9.5 44.4 9.5 44.2 9.5 Z M 48.9 15.8 C 48.4 15.8 47.9 15.6 47.4 15.4 C 47 15.2 46.6 14.8 46.4 14.4 C 46.1 14 46 13.5 46 13 C 46 12.4 46.1 12 46.4 11.6 C 46.6 11.1 47 10.8 47.4 10.6 C 47.9 10.3 48.4 10.2 48.9 10.2 C 49.5 10.2 50 10.3 50.5 10.6 C 50.9 10.8 51.3 11.1 51.5 11.5 C 51.8 12 51.9 12.4 51.9 13 C 51.9 13.5 51.8 14 51.5 14.4 C 51.3 14.8 50.9 15.2 50.5 15.4 C 50 15.6 49.5 15.8 48.9 15.8 Z M 48.9 14.5 C 49.2 14.5 49.4 14.4 49.6 14.3 C 49.9 14.2 50 14 50.1 13.8 C 50.3 13.6 50.3 13.3 50.3 13 C 50.3 12.7 50.3 12.4 50.1 12.2 C 50 12 49.9 11.8 49.6 11.7 C 49.4 11.6 49.2 11.5 48.9 11.5 C 48.7 11.5 48.5 11.6 48.2 11.7 C 48 11.8 47.9 12 47.8 12.2 C 47.6 12.4 47.6 12.7 47.6 13 C 47.6 13.3 47.6 13.6 47.8 13.8 C 47.9 14 48 14.2 48.2 14.3 C 48.5 14.4 48.7 14.5 48.9 14.5 Z M 56.2 10.2 C 56.7 10.2 57 10.3 57.4 10.5 C 57.7 10.6 58 10.9 58.2 11.3 C 58.4 11.6 58.5 12.1 58.5 12.6 C 58.47 12.6 58.5 15.7 58.5 15.7 L 56.9 15.7 C 56.9 15.7 56.91 12.84 56.9 12.8 C 56.9 12.4 56.8 12.1 56.6 11.9 C 56.4 11.7 56.2 11.6 55.8 11.6 C 55.6 11.6 55.3 11.6 55.2 11.7 C 55 11.8 54.8 12 54.7 12.2 C 54.6 12.4 54.5 12.7 54.5 13 C 54.53 13.02 54.5 15.7 54.5 15.7 L 53 15.7 L 53 10.3 L 54.5 10.3 L 54.5 11.8 C 54.5 11.8 54.18 11.34 54.2 11.3 C 54.4 11 54.6 10.7 55 10.5 C 55.4 10.3 55.8 10.2 56.2 10.2 Z M 63.2 15.7 L 63.2 14.6 L 63.1 14.4 C 63.1 14.4 63.07 12.52 63.1 12.5 C 63.1 12.2 63 11.9 62.8 11.7 C 62.6 11.6 62.2 11.5 61.8 11.5 C 61.5 11.5 61.3 11.5 61 11.6 C 60.7 11.7 60.5 11.8 60.3 12 C 60.3 12 59.7 10.9 59.7 10.9 C 60 10.7 60.4 10.5 60.8 10.4 C 61.2 10.3 61.6 10.2 62 10.2 C 62.9 10.2 63.5 10.4 63.9 10.8 C 64.4 11.2 64.6 11.8 64.6 12.6 C 64.63 12.61 64.6 15.7 64.6 15.7 L 63.2 15.7 Z M 61.5 15.8 C 61.1 15.8 60.7 15.7 60.4 15.5 C 60.1 15.4 59.9 15.2 59.8 15 C 59.6 14.7 59.5 14.4 59.5 14.1 C 59.5 13.8 59.6 13.5 59.8 13.3 C 59.9 13 60.2 12.9 60.5 12.7 C 60.8 12.6 61.3 12.5 61.8 12.5 C 61.83 12.52 63.3 12.5 63.3 12.5 L 63.3 13.4 C 63.3 13.4 62 13.43 62 13.4 C 61.6 13.4 61.4 13.5 61.2 13.6 C 61.1 13.7 61 13.9 61 14.1 C 61 14.3 61.1 14.4 61.3 14.5 C 61.4 14.7 61.6 14.7 61.9 14.7 C 62.2 14.7 62.4 14.6 62.6 14.5 C 62.8 14.4 63 14.2 63.1 14 C 63.1 14 63.3 14.7 63.3 14.7 C 63.2 15 63 15.3 62.7 15.5 C 62.4 15.7 62 15.8 61.5 15.8 Z M 66 15.7 L 66 8.3 L 67.6 8.3 L 67.6 15.7 L 66 15.7 Z M 78.8 10.2 C 79.2 10.2 79.6 10.3 79.9 10.5 C 80.2 10.6 80.5 10.9 80.7 11.3 C 80.9 11.6 81 12.1 81 12.6 C 80.97 12.6 81 15.7 81 15.7 L 79.4 15.7 C 79.4 15.7 79.41 12.84 79.4 12.8 C 79.4 12.4 79.3 12.1 79.1 11.9 C 79 11.7 78.7 11.6 78.4 11.6 C 78.1 11.6 77.9 11.6 77.8 11.7 C 77.6 11.8 77.4 12 77.3 12.2 C 77.2 12.4 77.2 12.7 77.2 13 C 77.2 12.98 77.2 15.7 77.2 15.7 L 75.6 15.7 C 75.6 15.7 75.64 12.84 75.6 12.8 C 75.6 12.4 75.5 12.1 75.4 11.9 C 75.2 11.7 74.9 11.6 74.6 11.6 C 74.4 11.6 74.2 11.6 74 11.7 C 73.8 11.8 73.7 12 73.6 12.2 C 73.5 12.4 73.4 12.7 73.4 13 C 73.44 12.98 73.4 15.7 73.4 15.7 L 71.9 15.7 L 71.9 10.3 L 73.4 10.3 L 73.4 11.8 C 73.4 11.8 73.09 11.34 73.1 11.3 C 73.3 11 73.5 10.7 73.9 10.5 C 74.2 10.3 74.6 10.2 75.1 10.2 C 75.5 10.2 76 10.3 76.4 10.6 C 76.7 10.8 77 11.2 77.1 11.7 C 77.1 11.7 76.5 11.6 76.5 11.6 C 76.7 11.2 77 10.8 77.4 10.6 C 77.8 10.3 78.3 10.2 78.8 10.2 Z M 85.1 15.8 C 84.4 15.8 83.9 15.6 83.4 15.4 C 83 15.2 82.6 14.8 82.4 14.4 C 82.1 14 82 13.5 82 13 C 82 12.4 82.1 12 82.4 11.6 C 82.6 11.1 82.9 10.8 83.4 10.6 C 83.8 10.3 84.3 10.2 84.9 10.2 C 85.4 10.2 85.9 10.3 86.3 10.6 C 86.7 10.8 87 11.1 87.3 11.5 C 87.5 11.9 87.7 12.4 87.7 13 C 87.7 13.1 87.6 13.1 87.6 13.2 C 87.6 13.3 87.6 13.4 87.6 13.4 C 87.62 13.43 83.3 13.4 83.3 13.4 L 83.3 12.5 L 86.8 12.5 C 86.8 12.5 86.2 12.79 86.2 12.8 C 86.2 12.5 86.1 12.3 86 12.1 C 85.9 11.9 85.8 11.7 85.6 11.6 C 85.4 11.5 85.1 11.4 84.9 11.4 C 84.6 11.4 84.4 11.5 84.2 11.6 C 84 11.7 83.8 11.9 83.7 12.1 C 83.6 12.3 83.5 12.5 83.5 12.8 C 83.5 12.8 83.5 13 83.5 13 C 83.5 13.3 83.6 13.6 83.7 13.8 C 83.8 14 84 14.2 84.3 14.3 C 84.5 14.5 84.8 14.5 85.1 14.5 C 85.4 14.5 85.6 14.5 85.8 14.4 C 86.1 14.3 86.3 14.2 86.4 14 C 86.4 14 87.3 14.9 87.3 14.9 C 87 15.2 86.7 15.4 86.3 15.5 C 86 15.7 85.5 15.8 85.1 15.8 Z M 91 15.8 C 90.3 15.8 89.8 15.6 89.5 15.3 C 89.1 15 89 14.5 89 13.8 C 88.97 13.83 89 9.1 89 9.1 L 90.5 9.1 C 90.5 9.1 90.53 13.81 90.5 13.8 C 90.5 14 90.6 14.2 90.7 14.3 C 90.8 14.5 91 14.5 91.2 14.5 C 91.4 14.5 91.7 14.5 91.8 14.3 C 91.8 14.3 92.2 15.4 92.2 15.4 C 92.1 15.5 91.9 15.6 91.7 15.7 C 91.4 15.7 91.2 15.8 91 15.8 Z M 88.1 11.6 L 88.1 10.4 L 91.9 10.4 L 91.9 11.6 L 88.1 11.6 Z M 96.4 10.2 C 96.8 10.2 97.2 10.3 97.6 10.5 C 97.9 10.6 98.2 10.9 98.3 11.3 C 98.5 11.6 98.6 12.1 98.6 12.6 C 98.64 12.6 98.6 15.7 98.6 15.7 L 97.1 15.7 C 97.1 15.7 97.08 12.84 97.1 12.8 C 97.1 12.4 97 12.1 96.8 11.9 C 96.6 11.7 96.3 11.6 96 11.6 C 95.7 11.6 95.5 11.6 95.3 11.7 C 95.1 11.8 95 12 94.9 12.2 C 94.8 12.4 94.7 12.7 94.7 13 C 94.7 13.02 94.7 15.7 94.7 15.7 L 93.1 15.7 L 93.1 8.3 L 94.7 8.3 L 94.7 11.8 C 94.7 11.8 94.35 11.34 94.3 11.3 C 94.5 11 94.8 10.7 95.2 10.5 C 95.5 10.3 95.9 10.2 96.4 10.2 Z M 102.6 15.8 C 102 15.8 101.5 15.6 101.1 15.4 C 100.7 15.2 100.3 14.8 100 14.4 C 99.8 14 99.7 13.5 99.7 13 C 99.7 12.4 99.8 12 100 11.6 C 100.3 11.1 100.7 10.8 101.1 10.6 C 101.5 10.3 102 10.2 102.6 10.2 C 103.2 10.2 103.7 10.3 104.1 10.6 C 104.6 10.8 104.9 11.1 105.2 11.5 C 105.4 12 105.6 12.4 105.6 13 C 105.6 13.5 105.4 14 105.2 14.4 C 104.9 14.8 104.6 15.2 104.1 15.4 C 103.7 15.6 103.2 15.8 102.6 15.8 Z M 102.6 14.5 C 102.9 14.5 103.1 14.4 103.3 14.3 C 103.5 14.2 103.7 14 103.8 13.8 C 103.9 13.6 104 13.3 104 13 C 104 12.7 103.9 12.4 103.8 12.2 C 103.7 12 103.5 11.8 103.3 11.7 C 103.1 11.6 102.9 11.5 102.6 11.5 C 102.4 11.5 102.1 11.6 101.9 11.7 C 101.7 11.8 101.6 12 101.4 12.2 C 101.3 12.4 101.2 12.7 101.2 13 C 101.2 13.3 101.3 13.6 101.4 13.8 C 101.6 14 101.7 14.2 101.9 14.3 C 102.1 14.4 102.4 14.5 102.6 14.5 Z M 109 15.8 C 108.5 15.8 108 15.6 107.6 15.4 C 107.2 15.2 106.9 14.9 106.7 14.4 C 106.4 14 106.3 13.5 106.3 13 C 106.3 12.4 106.4 11.9 106.7 11.5 C 106.9 11.1 107.2 10.8 107.6 10.6 C 108 10.3 108.5 10.2 109 10.2 C 109.4 10.2 109.8 10.3 110.2 10.5 C 110.5 10.7 110.8 11 111 11.4 C 111.2 11.8 111.3 12.4 111.3 13 C 111.3 13.6 111.2 14.1 111 14.5 C 110.8 15 110.5 15.3 110.2 15.5 C 109.9 15.7 109.5 15.8 109 15.8 Z M 109.3 14.5 C 109.5 14.5 109.7 14.4 110 14.3 C 110.2 14.2 110.3 14 110.4 13.8 C 110.6 13.6 110.6 13.3 110.6 13 C 110.6 12.7 110.6 12.4 110.4 12.2 C 110.3 12 110.2 11.8 110 11.7 C 109.7 11.6 109.5 11.5 109.3 11.5 C 109 11.5 108.8 11.6 108.6 11.7 C 108.4 11.8 108.2 12 108.1 12.2 C 107.9 12.4 107.9 12.7 107.9 13 C 107.9 13.3 107.9 13.6 108.1 13.8 C 108.2 14 108.4 14.2 108.6 14.3 C 108.8 14.4 109 14.5 109.3 14.5 Z M 110.7 15.7 L 110.7 14.6 L 110.7 13 L 110.6 11.4 L 110.6 8.3 L 112.2 8.3 L 112.2 15.7 L 110.7 15.7 Z M 115.5 15.8 C 115 15.8 114.6 15.7 114.2 15.6 C 113.7 15.5 113.4 15.3 113.2 15.2 C 113.2 15.2 113.7 14.1 113.7 14.1 C 113.9 14.2 114.2 14.3 114.6 14.4 C 114.9 14.5 115.2 14.6 115.6 14.6 C 115.9 14.6 116.2 14.5 116.3 14.4 C 116.5 14.4 116.5 14.2 116.5 14.1 C 116.5 14 116.5 13.9 116.4 13.8 C 116.3 13.7 116.1 13.7 115.9 13.7 C 115.7 13.6 115.5 13.6 115.3 13.6 C 115 13.5 114.8 13.5 114.6 13.4 C 114.3 13.4 114.1 13.3 113.9 13.2 C 113.7 13.1 113.6 12.9 113.5 12.7 C 113.4 12.5 113.3 12.3 113.3 12 C 113.3 11.6 113.4 11.3 113.6 11.1 C 113.8 10.8 114.1 10.6 114.4 10.4 C 114.8 10.3 115.3 10.2 115.8 10.2 C 116.2 10.2 116.5 10.3 116.9 10.3 C 117.3 10.4 117.6 10.5 117.9 10.7 C 117.9 10.7 117.3 11.8 117.3 11.8 C 117.1 11.6 116.8 11.5 116.6 11.5 C 116.3 11.4 116 11.4 115.8 11.4 C 115.4 11.4 115.2 11.4 115 11.5 C 114.9 11.6 114.8 11.8 114.8 11.9 C 114.8 12 114.8 12.1 115 12.2 C 115.1 12.3 115.2 12.3 115.4 12.4 C 115.6 12.4 115.8 12.4 116.1 12.5 C 116.3 12.5 116.5 12.5 116.8 12.6 C 117 12.7 117.2 12.7 117.4 12.9 C 117.6 13 117.7 13.1 117.9 13.3 C 118 13.5 118 13.7 118 14 C 118 14.4 117.9 14.7 117.7 14.9 C 117.5 15.2 117.2 15.4 116.9 15.5 C 116.5 15.7 116 15.8 115.5 15.8 Z " stroke="none" fill="#323132"/>
  </g>
</svg>