<?xml version="1.0" standalone="no"?>
<!DOCTYPE svg PUBLIC "-//W3C//DTD SVG 1.1//EN" "http://www.w3.org/Graphics/SVG/1.1/DTD/svg11.dtd">
<svg xmlns="http://www.w3.org/2000/svg" version="1.1" width="492px" height="80.5px" viewBox="0 0 492 80.5">
  <desc>Force If high levels of force are required the design should allow for it to be applied easily, for example, through ...</desc>
  <defs/>
  <g id="Polygon117372">
    <path d="M 9.8 57.4 C 9.5 57.6 9.1 57.7 8.6 57.7 C 7.7 57.7 7.1 57.2 7.1 56.2 C 7.11 56.2 7.1 53 7.1 53 L 6.2 53 L 6.2 52.4 L 7.1 52.4 L 7.1 51.3 L 7.8 51.3 L 7.8 52.4 L 9.4 52.4 L 9.4 53 L 7.8 53 C 7.8 53 7.82 56.16 7.8 56.2 C 7.8 56.8 8.1 57.1 8.7 57.1 C 9 57.1 9.3 57 9.5 56.9 C 9.5 56.9 9.8 57.4 9.8 57.4 Z M 15.8 54.6 C 15.79 54.63 15.8 57.7 15.8 57.7 L 15.1 57.7 C 15.1 57.7 15.08 54.7 15.1 54.7 C 15.1 53.6 14.5 53 13.5 53 C 12.4 53 11.7 53.7 11.7 54.9 C 11.66 54.92 11.7 57.7 11.7 57.7 L 10.9 57.7 L 10.9 50.3 L 11.7 50.3 C 11.7 50.3 11.66 53.34 11.7 53.3 C 12 52.7 12.7 52.4 13.6 52.4 C 14.9 52.4 15.8 53.1 15.8 54.6 Z M 20.3 52.4 C 20.3 52.4 20.3 53.1 20.3 53.1 C 20.2 53.1 20.1 53.1 20.1 53.1 C 19 53.1 18.3 53.8 18.3 55 C 18.31 55 18.3 57.7 18.3 57.7 L 17.6 57.7 L 17.6 52.4 L 18.3 52.4 C 18.3 52.4 18.28 53.45 18.3 53.4 C 18.6 52.7 19.3 52.4 20.3 52.4 Z M 20.9 55 C 20.9 53.5 22 52.4 23.5 52.4 C 25.1 52.4 26.2 53.5 26.2 55 C 26.2 56.6 25.1 57.7 23.5 57.7 C 22 57.7 20.9 56.6 20.9 55 Z M 25.5 55 C 25.5 53.8 24.7 53 23.5 53 C 22.4 53 21.6 53.8 21.6 55 C 21.6 56.3 22.4 57.1 23.5 57.1 C 24.7 57.1 25.5 56.3 25.5 55 Z M 32.4 52.4 L 32.4 57.7 L 31.7 57.7 C 31.7 57.7 31.69 56.72 31.7 56.7 C 31.3 57.4 30.6 57.7 29.8 57.7 C 28.5 57.7 27.6 57 27.6 55.5 C 27.58 55.47 27.6 52.4 27.6 52.4 L 28.3 52.4 C 28.3 52.4 28.29 55.4 28.3 55.4 C 28.3 56.5 28.9 57.1 29.9 57.1 C 31 57.1 31.7 56.4 31.7 55.2 C 31.66 55.18 31.7 52.4 31.7 52.4 L 32.4 52.4 Z M 39.2 52.4 C 39.2 52.4 39.2 57.04 39.2 57 C 39.2 58.9 38.3 59.7 36.6 59.7 C 35.6 59.7 34.7 59.4 34.1 58.9 C 34.1 58.9 34.5 58.3 34.5 58.3 C 35 58.8 35.7 59 36.6 59 C 37.9 59 38.5 58.4 38.5 57.1 C 38.5 57.1 38.5 56.5 38.5 56.5 C 38.1 57.1 37.3 57.5 36.4 57.5 C 34.9 57.5 33.8 56.4 33.8 54.9 C 33.8 53.4 34.9 52.4 36.4 52.4 C 37.3 52.4 38.1 52.7 38.5 53.4 C 38.52 53.43 38.5 52.4 38.5 52.4 L 39.2 52.4 Z M 38.5 54.9 C 38.5 53.8 37.7 53 36.5 53 C 35.4 53 34.5 53.8 34.5 54.9 C 34.5 56.1 35.4 56.9 36.5 56.9 C 37.7 56.9 38.5 56.1 38.5 54.9 Z M 45.9 54.6 C 45.9 54.63 45.9 57.7 45.9 57.7 L 45.2 57.7 C 45.2 57.7 45.2 54.7 45.2 54.7 C 45.2 53.6 44.6 53 43.6 53 C 42.5 53 41.8 53.7 41.8 54.9 C 41.77 54.92 41.8 57.7 41.8 57.7 L 41.1 57.7 L 41.1 50.3 L 41.8 50.3 C 41.8 50.3 41.77 53.34 41.8 53.3 C 42.2 52.7 42.9 52.4 43.7 52.4 C 45 52.4 45.9 53.1 45.9 54.6 Z M 53.2 57.4 C 52.9 57.6 52.5 57.7 52.1 57.7 C 51.1 57.7 50.6 57.2 50.6 56.2 C 50.58 56.2 50.6 53 50.6 53 L 49.6 53 L 49.6 52.4 L 50.6 52.4 L 50.6 51.3 L 51.3 51.3 L 51.3 52.4 L 52.9 52.4 L 52.9 53 L 51.3 53 C 51.3 53 51.28 56.16 51.3 56.2 C 51.3 56.8 51.6 57.1 52.2 57.1 C 52.5 57.1 52.8 57 53 56.9 C 53 56.9 53.2 57.4 53.2 57.4 Z M 59.3 54.6 C 59.25 54.63 59.3 57.7 59.3 57.7 L 58.5 57.7 C 58.5 57.7 58.54 54.7 58.5 54.7 C 58.5 53.6 58 53 57 53 C 55.8 53 55.1 53.7 55.1 54.9 C 55.12 54.92 55.1 57.7 55.1 57.7 L 54.4 57.7 L 54.4 50.3 L 55.1 50.3 C 55.1 50.3 55.12 53.34 55.1 53.3 C 55.5 52.7 56.2 52.4 57.1 52.4 C 58.4 52.4 59.3 53.1 59.3 54.6 Z M 65.7 55.3 C 65.7 55.3 61.3 55.3 61.3 55.3 C 61.4 56.4 62.3 57.1 63.4 57.1 C 64.1 57.1 64.6 56.9 65 56.4 C 65 56.4 65.4 56.9 65.4 56.9 C 65 57.4 64.2 57.7 63.4 57.7 C 61.8 57.7 60.6 56.6 60.6 55 C 60.6 53.5 61.7 52.4 63.2 52.4 C 64.7 52.4 65.8 53.5 65.8 55 C 65.8 55.1 65.7 55.2 65.7 55.3 Z M 61.3 54.7 C 61.3 54.7 65.1 54.7 65.1 54.7 C 65 53.7 64.2 53 63.2 53 C 62.2 53 61.4 53.7 61.3 54.7 Z M 74.6 52.4 L 74.6 57.7 L 73.9 57.7 C 73.9 57.7 73.89 56.72 73.9 56.7 C 73.5 57.4 72.8 57.7 72 57.7 C 70.7 57.7 69.8 57 69.8 55.5 C 69.78 55.47 69.8 52.4 69.8 52.4 L 70.5 52.4 C 70.5 52.4 70.49 55.4 70.5 55.4 C 70.5 56.5 71.1 57.1 72.1 57.1 C 73.2 57.1 73.9 56.4 73.9 55.2 C 73.86 55.18 73.9 52.4 73.9 52.4 L 74.6 52.4 Z M 75.9 57.1 C 75.9 57.1 76.2 56.5 76.2 56.5 C 76.6 56.9 77.3 57.1 78 57.1 C 79 57.1 79.5 56.8 79.5 56.3 C 79.5 54.9 76 56 76 53.9 C 76 53 76.8 52.4 78.1 52.4 C 78.8 52.4 79.5 52.6 80 52.9 C 80 52.9 79.7 53.4 79.7 53.4 C 79.2 53.1 78.7 53 78.1 53 C 77.2 53 76.8 53.4 76.8 53.9 C 76.8 55.3 80.2 54.2 80.2 56.2 C 80.2 57.1 79.4 57.7 78 57.7 C 77.1 57.7 76.3 57.4 75.9 57.1 Z M 86.2 55.3 C 86.2 55.3 81.8 55.3 81.8 55.3 C 81.8 56.4 82.7 57.1 83.8 57.1 C 84.5 57.1 85 56.9 85.4 56.4 C 85.4 56.4 85.8 56.9 85.8 56.9 C 85.4 57.4 84.6 57.7 83.8 57.7 C 82.2 57.7 81 56.6 81 55 C 81 53.5 82.1 52.4 83.6 52.4 C 85.1 52.4 86.2 53.5 86.2 55 C 86.2 55.1 86.2 55.2 86.2 55.3 Z M 81.8 54.7 C 81.8 54.7 85.5 54.7 85.5 54.7 C 85.4 53.7 84.6 53 83.6 53 C 82.6 53 81.8 53.7 81.8 54.7 Z M 89.7 55 C 89.7 53.5 90.8 52.4 92.4 52.4 C 93.9 52.4 95.1 53.5 95.1 55 C 95.1 56.6 93.9 57.7 92.4 57.7 C 90.8 57.7 89.7 56.6 89.7 55 Z M 94.3 55 C 94.3 53.8 93.5 53 92.4 53 C 91.3 53 90.4 53.8 90.4 55 C 90.4 56.3 91.3 57.1 92.4 57.1 C 93.5 57.1 94.3 56.3 94.3 55 Z M 97.2 51.8 C 97.25 51.8 97.2 52.4 97.2 52.4 L 98.9 52.4 L 98.9 53 L 97.3 53 L 97.3 57.7 L 96.6 57.7 L 96.6 53 L 95.6 53 L 95.6 52.4 L 96.6 52.4 C 96.6 52.4 96.56 51.77 96.6 51.8 C 96.6 50.8 97.1 50.2 98.1 50.2 C 98.5 50.2 98.9 50.3 99.2 50.5 C 99.2 50.5 99 51.1 99 51.1 C 98.8 50.9 98.5 50.8 98.2 50.8 C 97.6 50.8 97.2 51.1 97.2 51.8 Z M 106.4 54.4 C 106.42 54.42 106.4 57.7 106.4 57.7 L 105.7 57.7 C 105.7 57.7 105.74 56.86 105.7 56.9 C 105.4 57.4 104.8 57.7 103.9 57.7 C 102.7 57.7 102 57.1 102 56.2 C 102 55.4 102.5 54.7 104 54.7 C 104.04 54.71 105.7 54.7 105.7 54.7 C 105.7 54.7 105.71 54.39 105.7 54.4 C 105.7 53.5 105.2 53 104.2 53 C 103.5 53 102.9 53.2 102.5 53.6 C 102.5 53.6 102.2 53.1 102.2 53.1 C 102.7 52.6 103.5 52.4 104.3 52.4 C 105.7 52.4 106.4 53.1 106.4 54.4 Z M 105.7 56.1 C 105.71 56.1 105.7 55.2 105.7 55.2 C 105.7 55.2 104.06 55.24 104.1 55.2 C 103 55.2 102.7 55.6 102.7 56.2 C 102.7 56.8 103.2 57.2 104 57.2 C 104.8 57.2 105.4 56.8 105.7 56.1 Z M 116.3 55.1 C 116.3 56.7 115.2 57.7 113.7 57.7 C 112.8 57.7 112.1 57.4 111.7 56.7 C 111.68 56.69 111.7 59.6 111.7 59.6 L 111 59.6 L 111 52.4 L 111.6 52.4 C 111.6 52.4 111.65 53.46 111.6 53.5 C 112.1 52.8 112.8 52.4 113.7 52.4 C 115.2 52.4 116.3 53.5 116.3 55.1 Z M 115.6 55 C 115.6 53.8 114.7 53 113.6 53 C 112.5 53 111.7 53.8 111.7 55 C 111.7 56.3 112.5 57.1 113.6 57.1 C 114.7 57.1 115.6 56.3 115.6 55 Z M 117.3 55 C 117.3 53.5 118.4 52.4 120 52.4 C 121.5 52.4 122.7 53.5 122.7 55 C 122.7 56.6 121.5 57.7 120 57.7 C 118.4 57.7 117.3 56.6 117.3 55 Z M 121.9 55 C 121.9 53.8 121.1 53 120 53 C 118.9 53 118 53.8 118 55 C 118 56.3 118.9 57.1 120 57.1 C 121.1 57.1 121.9 56.3 121.9 55 Z M 131.8 52.4 L 129.8 57.7 L 129.1 57.7 L 127.5 53.4 L 125.8 57.7 L 125.1 57.7 L 123.1 52.4 L 123.8 52.4 L 125.5 56.9 L 127.2 52.4 L 127.8 52.4 L 129.5 56.9 L 131.1 52.4 L 131.8 52.4 Z M 137.4 55.3 C 137.4 55.3 133 55.3 133 55.3 C 133.1 56.4 133.9 57.1 135 57.1 C 135.7 57.1 136.3 56.9 136.7 56.4 C 136.7 56.4 137.1 56.9 137.1 56.9 C 136.6 57.4 135.9 57.7 135 57.7 C 133.4 57.7 132.3 56.6 132.3 55 C 132.3 53.5 133.4 52.4 134.8 52.4 C 136.3 52.4 137.4 53.5 137.4 55 C 137.4 55.1 137.4 55.2 137.4 55.3 Z M 133 54.7 C 133 54.7 136.7 54.7 136.7 54.7 C 136.6 53.7 135.9 53 134.8 53 C 133.8 53 133.1 53.7 133 54.7 Z M 141.4 52.4 C 141.4 52.4 141.4 53.1 141.4 53.1 C 141.4 53.1 141.3 53.1 141.3 53.1 C 140.2 53.1 139.5 53.8 139.5 55 C 139.5 55 139.5 57.7 139.5 57.7 L 138.8 57.7 L 138.8 52.4 L 139.5 52.4 C 139.5 52.4 139.47 53.45 139.5 53.4 C 139.8 52.7 140.5 52.4 141.4 52.4 Z M 150.3 52.4 C 150.3 52.4 150.29 57.04 150.3 57 C 150.3 58.9 149.4 59.7 147.7 59.7 C 146.7 59.7 145.8 59.4 145.2 58.9 C 145.2 58.9 145.6 58.3 145.6 58.3 C 146.1 58.8 146.8 59 147.6 59 C 149 59 149.6 58.4 149.6 57.1 C 149.6 57.1 149.6 56.5 149.6 56.5 C 149.1 57.1 148.4 57.5 147.5 57.5 C 146 57.5 144.9 56.4 144.9 54.9 C 144.9 53.4 146 52.4 147.5 52.4 C 148.4 52.4 149.2 52.7 149.6 53.4 C 149.61 53.43 149.6 52.4 149.6 52.4 L 150.3 52.4 Z M 149.6 54.9 C 149.6 53.8 148.8 53 147.6 53 C 146.4 53 145.6 53.8 145.6 54.9 C 145.6 56.1 146.4 56.9 147.6 56.9 C 148.8 56.9 149.6 56.1 149.6 54.9 Z M 154.8 52.4 C 154.8 52.4 154.8 53.1 154.8 53.1 C 154.7 53.1 154.7 53.1 154.6 53.1 C 153.5 53.1 152.9 53.8 152.9 55 C 152.86 55 152.9 57.7 152.9 57.7 L 152.2 57.7 L 152.2 52.4 L 152.8 52.4 C 152.8 52.4 152.83 53.45 152.8 53.4 C 153.2 52.7 153.8 52.4 154.8 52.4 Z M 155.9 50.8 C 155.9 50.5 156.1 50.3 156.4 50.3 C 156.7 50.3 156.9 50.5 156.9 50.7 C 156.9 51 156.7 51.3 156.4 51.3 C 156.1 51.3 155.9 51 155.9 50.8 Z M 156 52.4 L 156.7 52.4 L 156.7 57.7 L 156 57.7 L 156 52.4 Z M 163.9 55.1 C 163.9 56.7 162.8 57.7 161.3 57.7 C 160.4 57.7 159.7 57.4 159.3 56.7 C 159.29 56.69 159.3 59.6 159.3 59.6 L 158.6 59.6 L 158.6 52.4 L 159.3 52.4 C 159.3 52.4 159.26 53.46 159.3 53.5 C 159.7 52.8 160.4 52.4 161.3 52.4 C 162.8 52.4 163.9 53.5 163.9 55.1 Z M 163.2 55 C 163.2 53.8 162.3 53 161.2 53 C 160.1 53 159.3 53.8 159.3 55 C 159.3 56.3 160.1 57.1 161.2 57.1 C 162.3 57.1 163.2 56.3 163.2 55 Z M 172.8 50.3 L 172.8 57.7 L 172.1 57.7 C 172.1 57.7 172.1 56.64 172.1 56.6 C 171.7 57.3 170.9 57.7 170.1 57.7 C 168.6 57.7 167.5 56.6 167.5 55 C 167.5 53.5 168.6 52.4 170.1 52.4 C 170.9 52.4 171.6 52.7 172.1 53.4 C 172.07 53.42 172.1 50.3 172.1 50.3 L 172.8 50.3 Z M 172.1 55 C 172.1 53.8 171.2 53 170.1 53 C 169 53 168.2 53.8 168.2 55 C 168.2 56.3 169 57.1 170.1 57.1 C 171.2 57.1 172.1 56.3 172.1 55 Z M 179.3 55.3 C 179.3 55.3 174.9 55.3 174.9 55.3 C 175 56.4 175.9 57.1 177 57.1 C 177.6 57.1 178.2 56.9 178.6 56.4 C 178.6 56.4 179 56.9 179 56.9 C 178.5 57.4 177.8 57.7 177 57.7 C 175.3 57.7 174.2 56.6 174.2 55 C 174.2 53.5 175.3 52.4 176.8 52.4 C 178.3 52.4 179.3 53.5 179.3 55 C 179.3 55.1 179.3 55.2 179.3 55.3 Z M 174.9 54.7 C 174.9 54.7 178.7 54.7 178.7 54.7 C 178.6 53.7 177.8 53 176.8 53 C 175.8 53 175 53.7 174.9 54.7 Z M 180.1 57.1 C 180.1 57.1 180.5 56.5 180.5 56.5 C 180.9 56.9 181.6 57.1 182.3 57.1 C 183.3 57.1 183.7 56.8 183.7 56.3 C 183.7 54.9 180.3 56 180.3 53.9 C 180.3 53 181.1 52.4 182.4 52.4 C 183.1 52.4 183.8 52.6 184.3 52.9 C 184.3 52.9 184 53.4 184 53.4 C 183.5 53.1 182.9 53 182.4 53 C 181.5 53 181 53.4 181 53.9 C 181 55.3 184.4 54.2 184.4 56.2 C 184.4 57.1 183.6 57.7 182.3 57.7 C 181.4 57.7 180.6 57.4 180.1 57.1 Z M 185.6 50.8 C 185.6 50.5 185.8 50.3 186.1 50.3 C 186.4 50.3 186.6 50.5 186.6 50.7 C 186.6 51 186.4 51.3 186.1 51.3 C 185.8 51.3 185.6 51 185.6 50.8 Z M 185.8 52.4 L 186.5 52.4 L 186.5 57.7 L 185.8 57.7 L 185.8 52.4 Z M 193.2 52.4 C 193.2 52.4 193.23 57.04 193.2 57 C 193.2 58.9 192.3 59.7 190.6 59.7 C 189.6 59.7 188.7 59.4 188.2 58.9 C 188.2 58.9 188.5 58.3 188.5 58.3 C 189 58.8 189.8 59 190.6 59 C 191.9 59 192.5 58.4 192.5 57.1 C 192.5 57.1 192.5 56.5 192.5 56.5 C 192.1 57.1 191.3 57.5 190.5 57.5 C 189 57.5 187.8 56.4 187.8 54.9 C 187.8 53.4 189 52.4 190.5 52.4 C 191.4 52.4 192.1 52.7 192.6 53.4 C 192.55 53.43 192.6 52.4 192.6 52.4 L 193.2 52.4 Z M 192.5 54.9 C 192.5 53.8 191.7 53 190.5 53 C 189.4 53 188.6 53.8 188.6 54.9 C 188.6 56.1 189.4 56.9 190.5 56.9 C 191.7 56.9 192.5 56.1 192.5 54.9 Z M 199.9 54.6 C 199.93 54.63 199.9 57.7 199.9 57.7 L 199.2 57.7 C 199.2 57.7 199.23 54.7 199.2 54.7 C 199.2 53.6 198.6 53 197.6 53 C 196.5 53 195.8 53.7 195.8 54.9 C 195.8 54.92 195.8 57.7 195.8 57.7 L 195.1 57.7 L 195.1 52.4 L 195.8 52.4 C 195.8 52.4 195.77 53.39 195.8 53.4 C 196.2 52.7 196.9 52.4 197.8 52.4 C 199.1 52.4 199.9 53.1 199.9 54.6 Z M 207.1 52.4 C 207.1 52.4 207.1 53.1 207.1 53.1 C 207.1 53.1 207 53.1 207 53.1 C 205.9 53.1 205.2 53.8 205.2 55 C 205.19 55 205.2 57.7 205.2 57.7 L 204.5 57.7 L 204.5 52.4 L 205.2 52.4 C 205.2 52.4 205.16 53.45 205.2 53.4 C 205.5 52.7 206.2 52.4 207.1 52.4 Z M 212.5 54.4 C 212.47 54.42 212.5 57.7 212.5 57.7 L 211.8 57.7 C 211.8 57.7 211.79 56.86 211.8 56.9 C 211.5 57.4 210.9 57.7 210 57.7 C 208.8 57.7 208.1 57.1 208.1 56.2 C 208.1 55.4 208.6 54.7 210.1 54.7 C 210.09 54.71 211.8 54.7 211.8 54.7 C 211.8 54.7 211.76 54.39 211.8 54.4 C 211.8 53.5 211.3 53 210.3 53 C 209.6 53 209 53.2 208.5 53.6 C 208.5 53.6 208.2 53.1 208.2 53.1 C 208.7 52.6 209.5 52.4 210.3 52.4 C 211.7 52.4 212.5 53.1 212.5 54.4 Z M 211.8 56.1 C 211.76 56.1 211.8 55.2 211.8 55.2 C 211.8 55.2 210.11 55.24 210.1 55.2 C 209.1 55.2 208.8 55.6 208.8 56.2 C 208.8 56.8 209.3 57.2 210.1 57.2 C 210.9 57.2 211.5 56.8 211.8 56.1 Z M 217 57.4 C 216.7 57.6 216.3 57.7 215.9 57.7 C 214.9 57.7 214.4 57.2 214.4 56.2 C 214.37 56.2 214.4 53 214.4 53 L 213.4 53 L 213.4 52.4 L 214.4 52.4 L 214.4 51.3 L 215.1 51.3 L 215.1 52.4 L 216.7 52.4 L 216.7 53 L 215.1 53 C 215.1 53 215.08 56.16 215.1 56.2 C 215.1 56.8 215.4 57.1 216 57.1 C 216.3 57.1 216.6 57 216.8 56.9 C 216.8 56.9 217 57.4 217 57.4 Z M 223 54.6 C 223.05 54.63 223 57.7 223 57.7 L 222.3 57.7 C 222.3 57.7 222.34 54.7 222.3 54.7 C 222.3 53.6 221.8 53 220.8 53 C 219.6 53 218.9 53.7 218.9 54.9 C 218.92 54.92 218.9 57.7 218.9 57.7 L 218.2 57.7 L 218.2 50.3 L 218.9 50.3 C 218.9 50.3 218.92 53.34 218.9 53.3 C 219.3 52.7 220 52.4 220.9 52.4 C 222.2 52.4 223 53.1 223 54.6 Z M 229.5 55.3 C 229.5 55.3 225.1 55.3 225.1 55.3 C 225.2 56.4 226.1 57.1 227.2 57.1 C 227.8 57.1 228.4 56.9 228.8 56.4 C 228.8 56.4 229.2 56.9 229.2 56.9 C 228.8 57.4 228 57.7 227.2 57.7 C 225.5 57.7 224.4 56.6 224.4 55 C 224.4 53.5 225.5 52.4 227 52.4 C 228.5 52.4 229.5 53.5 229.5 55 C 229.5 55.1 229.5 55.2 229.5 55.3 Z M 225.1 54.7 C 225.1 54.7 228.9 54.7 228.9 54.7 C 228.8 53.7 228 53 227 53 C 226 53 225.2 53.7 225.1 54.7 Z M 233.6 52.4 C 233.6 52.4 233.6 53.1 233.6 53.1 C 233.5 53.1 233.5 53.1 233.4 53.1 C 232.3 53.1 231.7 53.8 231.7 55 C 231.66 55 231.7 57.7 231.7 57.7 L 231 57.7 L 231 52.4 L 231.6 52.4 C 231.6 52.4 231.63 53.45 231.6 53.4 C 232 52.7 232.6 52.4 233.6 52.4 Z M 240.4 57.4 C 240.1 57.6 239.7 57.7 239.2 57.7 C 238.3 57.7 237.7 57.2 237.7 56.2 C 237.7 56.2 237.7 53 237.7 53 L 236.8 53 L 236.8 52.4 L 237.7 52.4 L 237.7 51.3 L 238.4 51.3 L 238.4 52.4 L 240 52.4 L 240 53 L 238.4 53 C 238.4 53 238.41 56.16 238.4 56.2 C 238.4 56.8 238.7 57.1 239.3 57.1 C 239.6 57.1 239.9 57 240.1 56.9 C 240.1 56.9 240.4 57.4 240.4 57.4 Z M 246.4 54.6 C 246.38 54.63 246.4 57.7 246.4 57.7 L 245.7 57.7 C 245.7 57.7 245.67 54.7 245.7 54.7 C 245.7 53.6 245.1 53 244.1 53 C 243 53 242.3 53.7 242.3 54.9 C 242.25 54.92 242.3 57.7 242.3 57.7 L 241.5 57.7 L 241.5 50.3 L 242.3 50.3 C 242.3 50.3 242.25 53.34 242.3 53.3 C 242.6 52.7 243.3 52.4 244.2 52.4 C 245.5 52.4 246.4 53.1 246.4 54.6 Z M 252.2 54.4 C 252.2 54.42 252.2 57.7 252.2 57.7 L 251.5 57.7 C 251.5 57.7 251.52 56.86 251.5 56.9 C 251.2 57.4 250.6 57.7 249.7 57.7 C 248.5 57.7 247.8 57.1 247.8 56.2 C 247.8 55.4 248.3 54.7 249.8 54.7 C 249.82 54.71 251.5 54.7 251.5 54.7 C 251.5 54.7 251.49 54.39 251.5 54.4 C 251.5 53.5 251 53 250 53 C 249.3 53 248.7 53.2 248.3 53.6 C 248.3 53.6 247.9 53.1 247.9 53.1 C 248.5 52.6 249.2 52.4 250.1 52.4 C 251.4 52.4 252.2 53.1 252.2 54.4 Z M 251.5 56.1 C 251.49 56.1 251.5 55.2 251.5 55.2 C 251.5 55.2 249.84 55.24 249.8 55.2 C 248.8 55.2 248.5 55.6 248.5 56.2 C 248.5 56.8 249 57.2 249.8 57.2 C 250.6 57.2 251.2 56.8 251.5 56.1 Z M 258.9 54.6 C 258.85 54.63 258.9 57.7 258.9 57.7 L 258.1 57.7 C 258.1 57.7 258.15 54.7 258.1 54.7 C 258.1 53.6 257.6 53 256.6 53 C 255.4 53 254.7 53.7 254.7 54.9 C 254.72 54.92 254.7 57.7 254.7 57.7 L 254 57.7 L 254 52.4 L 254.7 52.4 C 254.7 52.4 254.69 53.39 254.7 53.4 C 255.1 52.7 255.8 52.4 256.7 52.4 C 258 52.4 258.9 53.1 258.9 54.6 Z M 267.4 54.4 C 267.37 54.42 267.4 57.7 267.4 57.7 L 266.7 57.7 C 266.7 57.7 266.7 56.86 266.7 56.9 C 266.4 57.4 265.8 57.7 264.9 57.7 C 263.7 57.7 263 57.1 263 56.2 C 263 55.4 263.5 54.7 265 54.7 C 264.99 54.71 266.7 54.7 266.7 54.7 C 266.7 54.7 266.67 54.39 266.7 54.4 C 266.7 53.5 266.2 53 265.2 53 C 264.5 53 263.9 53.2 263.4 53.6 C 263.4 53.6 263.1 53.1 263.1 53.1 C 263.6 52.6 264.4 52.4 265.2 52.4 C 266.6 52.4 267.4 53.1 267.4 54.4 Z M 266.7 56.1 C 266.67 56.1 266.7 55.2 266.7 55.2 C 266.7 55.2 265.01 55.24 265 55.2 C 264 55.2 263.7 55.6 263.7 56.2 C 263.7 56.8 264.2 57.2 265 57.2 C 265.8 57.2 266.4 56.8 266.7 56.1 Z M 277.3 55.1 C 277.3 56.7 276.1 57.7 274.6 57.7 C 273.8 57.7 273.1 57.4 272.6 56.7 C 272.63 56.69 272.6 59.6 272.6 59.6 L 271.9 59.6 L 271.9 52.4 L 272.6 52.4 C 272.6 52.4 272.6 53.46 272.6 53.5 C 273 52.8 273.8 52.4 274.6 52.4 C 276.1 52.4 277.3 53.5 277.3 55.1 Z M 276.5 55 C 276.5 53.8 275.7 53 274.6 53 C 273.5 53 272.6 53.8 272.6 55 C 272.6 56.3 273.5 57.1 274.6 57.1 C 275.7 57.1 276.5 56.3 276.5 55 Z M 281.3 52.4 C 281.3 52.4 281.3 53.1 281.3 53.1 C 281.3 53.1 281.2 53.1 281.2 53.1 C 280.1 53.1 279.4 53.8 279.4 55 C 279.41 55 279.4 57.7 279.4 57.7 L 278.7 57.7 L 278.7 52.4 L 279.4 52.4 C 279.4 52.4 279.38 53.45 279.4 53.4 C 279.7 52.7 280.4 52.4 281.3 52.4 Z M 287.1 55.3 C 287.1 55.3 282.7 55.3 282.7 55.3 C 282.8 56.4 283.6 57.1 284.8 57.1 C 285.4 57.1 286 56.9 286.4 56.4 C 286.4 56.4 286.8 56.9 286.8 56.9 C 286.3 57.4 285.6 57.7 284.7 57.7 C 283.1 57.7 282 56.6 282 55 C 282 53.5 283.1 52.4 284.5 52.4 C 286 52.4 287.1 53.5 287.1 55 C 287.1 55.1 287.1 55.2 287.1 55.3 Z M 282.7 54.7 C 282.7 54.7 286.4 54.7 286.4 54.7 C 286.3 53.7 285.6 53 284.5 53 C 283.5 53 282.8 53.7 282.7 54.7 Z M 288.1 55 C 288.1 53.5 289.2 52.4 290.8 52.4 C 291.7 52.4 292.5 52.7 292.9 53.4 C 292.9 53.4 292.3 53.8 292.3 53.8 C 292 53.2 291.4 53 290.8 53 C 289.7 53 288.8 53.8 288.8 55 C 288.8 56.3 289.7 57.1 290.8 57.1 C 291.4 57.1 292 56.9 292.3 56.3 C 292.3 56.3 292.9 56.7 292.9 56.7 C 292.5 57.4 291.7 57.7 290.8 57.7 C 289.2 57.7 288.1 56.6 288.1 55 Z M 294 50.8 C 294 50.5 294.2 50.3 294.5 50.3 C 294.8 50.3 295 50.5 295 50.7 C 295 51 294.8 51.3 294.5 51.3 C 294.2 51.3 294 51 294 50.8 Z M 294.2 52.4 L 294.9 52.4 L 294.9 57.7 L 294.2 57.7 L 294.2 52.4 Z M 296.1 57.1 C 296.1 57.1 296.5 56.5 296.5 56.5 C 296.9 56.9 297.6 57.1 298.3 57.1 C 299.3 57.1 299.7 56.8 299.7 56.3 C 299.7 54.9 296.3 56 296.3 53.9 C 296.3 53 297.1 52.4 298.4 52.4 C 299.1 52.4 299.8 52.6 300.3 52.9 C 300.3 52.9 300 53.4 300 53.4 C 299.5 53.1 299 53 298.4 53 C 297.5 53 297 53.4 297 53.9 C 297 55.3 300.5 54.2 300.5 56.2 C 300.5 57.1 299.7 57.7 298.3 57.7 C 297.4 57.7 296.6 57.4 296.1 57.1 Z M 301.6 50.8 C 301.6 50.5 301.8 50.3 302.1 50.3 C 302.4 50.3 302.6 50.5 302.6 50.7 C 302.6 51 302.4 51.3 302.1 51.3 C 301.8 51.3 301.6 51 301.6 50.8 Z M 301.8 52.4 L 302.5 52.4 L 302.5 57.7 L 301.8 57.7 L 301.8 52.4 Z M 303.9 55 C 303.9 53.5 305 52.4 306.5 52.4 C 308.1 52.4 309.2 53.5 309.2 55 C 309.2 56.6 308.1 57.7 306.5 57.7 C 305 57.7 303.9 56.6 303.9 55 Z M 308.5 55 C 308.5 53.8 307.7 53 306.5 53 C 305.4 53 304.6 53.8 304.6 55 C 304.6 56.3 305.4 57.1 306.5 57.1 C 307.7 57.1 308.5 56.3 308.5 55 Z M 315.5 54.6 C 315.48 54.63 315.5 57.7 315.5 57.7 L 314.8 57.7 C 314.8 57.7 314.77 54.7 314.8 54.7 C 314.8 53.6 314.2 53 313.2 53 C 312.1 53 311.4 53.7 311.4 54.9 C 311.35 54.92 311.4 57.7 311.4 57.7 L 310.6 57.7 L 310.6 52.4 L 311.3 52.4 C 311.3 52.4 311.32 53.39 311.3 53.4 C 311.7 52.7 312.4 52.4 313.3 52.4 C 314.6 52.4 315.5 53.1 315.5 54.6 Z M 324.9 52.4 C 324.9 52.4 324.9 57.04 324.9 57 C 324.9 58.9 324 59.7 322.3 59.7 C 321.3 59.7 320.4 59.4 319.8 58.9 C 319.8 58.9 320.2 58.3 320.2 58.3 C 320.7 58.8 321.4 59 322.3 59 C 323.6 59 324.2 58.4 324.2 57.1 C 324.2 57.1 324.2 56.5 324.2 56.5 C 323.8 57.1 323 57.5 322.1 57.5 C 320.6 57.5 319.5 56.4 319.5 54.9 C 319.5 53.4 320.6 52.4 322.1 52.4 C 323 52.4 323.8 52.7 324.2 53.4 C 324.22 53.43 324.2 52.4 324.2 52.4 L 324.9 52.4 Z M 324.2 54.9 C 324.2 53.8 323.4 53 322.2 53 C 321.1 53 320.2 53.8 320.2 54.9 C 320.2 56.1 321.1 56.9 322.2 56.9 C 323.4 56.9 324.2 56.1 324.2 54.9 Z M 329.4 52.4 C 329.4 52.4 329.4 53.1 329.4 53.1 C 329.4 53.1 329.3 53.1 329.2 53.1 C 328.1 53.1 327.5 53.8 327.5 55 C 327.47 55 327.5 57.7 327.5 57.7 L 326.8 57.7 L 326.8 52.4 L 327.4 52.4 C 327.4 52.4 327.44 53.45 327.4 53.4 C 327.8 52.7 328.4 52.4 329.4 52.4 Z M 330.5 50.8 C 330.5 50.5 330.7 50.3 331 50.3 C 331.3 50.3 331.5 50.5 331.5 50.7 C 331.5 51 331.3 51.3 331 51.3 C 330.7 51.3 330.5 51 330.5 50.8 Z M 330.6 52.4 L 331.3 52.4 L 331.3 57.7 L 330.6 57.7 L 330.6 52.4 Z M 338.5 55.1 C 338.5 56.7 337.4 57.7 335.9 57.7 C 335.1 57.7 334.3 57.4 333.9 56.7 C 333.9 56.69 333.9 59.6 333.9 59.6 L 333.2 59.6 L 333.2 52.4 L 333.9 52.4 C 333.9 52.4 333.87 53.46 333.9 53.5 C 334.3 52.8 335 52.4 335.9 52.4 C 337.4 52.4 338.5 53.5 338.5 55.1 Z M 337.8 55 C 337.8 53.8 337 53 335.9 53 C 334.7 53 333.9 53.8 333.9 55 C 333.9 56.3 334.7 57.1 335.9 57.1 C 337 57.1 337.8 56.3 337.8 55 Z M 339.5 57.2 C 339.5 56.9 339.8 56.6 340 56.6 C 340.3 56.6 340.6 56.9 340.6 57.2 C 340.6 57.5 340.3 57.7 340 57.7 C 339.8 57.7 339.5 57.5 339.5 57.2 Z " stroke="none" fill="#323132"/>
  </g>
  <g id="Polygon117371">
    <path d="M 7.1 35.7 L 7.9 35.7 L 7.9 42.7 L 7.1 42.7 L 7.1 35.7 Z M 10.8 36.8 C 10.77 36.8 10.8 37.4 10.8 37.4 L 12.4 37.4 L 12.4 38 L 10.8 38 L 10.8 42.7 L 10.1 42.7 L 10.1 38 L 9.1 38 L 9.1 37.4 L 10.1 37.4 C 10.1 37.4 10.08 36.77 10.1 36.8 C 10.1 35.8 10.6 35.2 11.7 35.2 C 12.1 35.2 12.5 35.3 12.7 35.5 C 12.7 35.5 12.5 36.1 12.5 36.1 C 12.3 35.9 12 35.8 11.7 35.8 C 11.1 35.8 10.8 36.1 10.8 36.8 Z M 20.8 39.6 C 20.81 39.63 20.8 42.7 20.8 42.7 L 20.1 42.7 C 20.1 42.7 20.1 39.7 20.1 39.7 C 20.1 38.6 19.5 38 18.5 38 C 17.4 38 16.7 38.7 16.7 39.9 C 16.68 39.92 16.7 42.7 16.7 42.7 L 16 42.7 L 16 35.3 L 16.7 35.3 C 16.7 35.3 16.68 38.34 16.7 38.3 C 17.1 37.7 17.8 37.4 18.6 37.4 C 19.9 37.4 20.8 38.1 20.8 39.6 Z M 22.4 35.8 C 22.4 35.5 22.7 35.3 23 35.3 C 23.2 35.3 23.5 35.5 23.5 35.7 C 23.5 36 23.3 36.3 23 36.3 C 22.7 36.3 22.4 36 22.4 35.8 Z M 22.6 37.4 L 23.3 37.4 L 23.3 42.7 L 22.6 42.7 L 22.6 37.4 Z M 30.1 37.4 C 30.1 37.4 30.07 42.04 30.1 42 C 30.1 43.9 29.2 44.7 27.4 44.7 C 26.5 44.7 25.5 44.4 25 43.9 C 25 43.9 25.4 43.3 25.4 43.3 C 25.9 43.8 26.6 44 27.4 44 C 28.8 44 29.4 43.4 29.4 42.1 C 29.4 42.1 29.4 41.5 29.4 41.5 C 28.9 42.1 28.2 42.5 27.3 42.5 C 25.8 42.5 24.7 41.4 24.7 39.9 C 24.7 38.4 25.8 37.4 27.3 37.4 C 28.2 37.4 29 37.7 29.4 38.4 C 29.4 38.43 29.4 37.4 29.4 37.4 L 30.1 37.4 Z M 29.4 39.9 C 29.4 38.8 28.5 38 27.4 38 C 26.2 38 25.4 38.8 25.4 39.9 C 25.4 41.1 26.2 41.9 27.4 41.9 C 28.5 41.9 29.4 41.1 29.4 39.9 Z M 36.8 39.6 C 36.78 39.63 36.8 42.7 36.8 42.7 L 36.1 42.7 C 36.1 42.7 36.07 39.7 36.1 39.7 C 36.1 38.6 35.5 38 34.5 38 C 33.4 38 32.6 38.7 32.6 39.9 C 32.65 39.92 32.6 42.7 32.6 42.7 L 31.9 42.7 L 31.9 35.3 L 32.6 35.3 C 32.6 35.3 32.65 38.34 32.6 38.3 C 33 37.7 33.7 37.4 34.6 37.4 C 35.9 37.4 36.8 38.1 36.8 39.6 Z M 41.3 35.3 L 42 35.3 L 42 42.7 L 41.3 42.7 L 41.3 35.3 Z M 48.6 40.3 C 48.6 40.3 44.2 40.3 44.2 40.3 C 44.2 41.4 45.1 42.1 46.2 42.1 C 46.9 42.1 47.5 41.9 47.9 41.4 C 47.9 41.4 48.3 41.9 48.3 41.9 C 47.8 42.4 47.1 42.7 46.2 42.7 C 44.6 42.7 43.5 41.6 43.5 40 C 43.5 38.5 44.5 37.4 46 37.4 C 47.5 37.4 48.6 38.5 48.6 40 C 48.6 40.1 48.6 40.2 48.6 40.3 Z M 44.2 39.7 C 44.2 39.7 47.9 39.7 47.9 39.7 C 47.8 38.7 47.1 38 46 38 C 45 38 44.3 38.7 44.2 39.7 Z M 54.4 37.4 L 52 42.7 L 51.3 42.7 L 49 37.4 L 49.7 37.4 L 51.7 41.9 L 53.7 37.4 L 54.4 37.4 Z M 59.9 40.3 C 59.9 40.3 55.5 40.3 55.5 40.3 C 55.5 41.4 56.4 42.1 57.5 42.1 C 58.2 42.1 58.7 41.9 59.1 41.4 C 59.1 41.4 59.5 41.9 59.5 41.9 C 59.1 42.4 58.3 42.7 57.5 42.7 C 55.9 42.7 54.8 41.6 54.8 40 C 54.8 38.5 55.8 37.4 57.3 37.4 C 58.8 37.4 59.9 38.5 59.9 40 C 59.9 40.1 59.9 40.2 59.9 40.3 Z M 55.5 39.7 C 55.5 39.7 59.2 39.7 59.2 39.7 C 59.1 38.7 58.4 38 57.3 38 C 56.3 38 55.6 38.7 55.5 39.7 Z M 61.3 35.3 L 62 35.3 L 62 42.7 L 61.3 42.7 L 61.3 35.3 Z M 63.3 42.1 C 63.3 42.1 63.6 41.5 63.6 41.5 C 64 41.9 64.7 42.1 65.5 42.1 C 66.5 42.1 66.9 41.8 66.9 41.3 C 66.9 39.9 63.5 41 63.5 38.9 C 63.5 38 64.2 37.4 65.6 37.4 C 66.2 37.4 67 37.6 67.4 37.9 C 67.4 37.9 67.1 38.4 67.1 38.4 C 66.7 38.1 66.1 38 65.6 38 C 64.6 38 64.2 38.4 64.2 38.9 C 64.2 40.3 67.6 39.2 67.6 41.2 C 67.6 42.1 66.8 42.7 65.4 42.7 C 64.6 42.7 63.7 42.4 63.3 42.1 Z M 71 40 C 71 38.5 72.1 37.4 73.7 37.4 C 75.2 37.4 76.4 38.5 76.4 40 C 76.4 41.6 75.2 42.7 73.7 42.7 C 72.1 42.7 71 41.6 71 40 Z M 75.6 40 C 75.6 38.8 74.8 38 73.7 38 C 72.6 38 71.7 38.8 71.7 40 C 71.7 41.3 72.6 42.1 73.7 42.1 C 74.8 42.1 75.6 41.3 75.6 40 Z M 78.5 36.8 C 78.55 36.8 78.5 37.4 78.5 37.4 L 80.2 37.4 L 80.2 38 L 78.6 38 L 78.6 42.7 L 77.9 42.7 L 77.9 38 L 76.9 38 L 76.9 37.4 L 77.9 37.4 C 77.9 37.4 77.86 36.77 77.9 36.8 C 77.9 35.8 78.4 35.2 79.4 35.2 C 79.8 35.2 80.2 35.3 80.5 35.5 C 80.5 35.5 80.3 36.1 80.3 36.1 C 80.1 35.9 79.8 35.8 79.5 35.8 C 78.9 35.8 78.5 36.1 78.5 36.8 Z M 84.6 36.8 C 84.56 36.8 84.6 37.4 84.6 37.4 L 86.2 37.4 L 86.2 38 L 84.6 38 L 84.6 42.7 L 83.9 42.7 L 83.9 38 L 82.9 38 L 82.9 37.4 L 83.9 37.4 C 83.9 37.4 83.87 36.77 83.9 36.8 C 83.9 35.8 84.4 35.2 85.5 35.2 C 85.8 35.2 86.2 35.3 86.5 35.5 C 86.5 35.5 86.3 36.1 86.3 36.1 C 86.1 35.9 85.8 35.8 85.5 35.8 C 84.9 35.8 84.6 36.1 84.6 36.8 Z M 86.6 40 C 86.6 38.5 87.7 37.4 89.3 37.4 C 90.8 37.4 91.9 38.5 91.9 40 C 91.9 41.6 90.8 42.7 89.3 42.7 C 87.7 42.7 86.6 41.6 86.6 40 Z M 91.2 40 C 91.2 38.8 90.4 38 89.3 38 C 88.1 38 87.3 38.8 87.3 40 C 87.3 41.3 88.1 42.1 89.3 42.1 C 90.4 42.1 91.2 41.3 91.2 40 Z M 96 37.4 C 96 37.4 96 38.1 96 38.1 C 96 38.1 95.9 38.1 95.8 38.1 C 94.7 38.1 94.1 38.8 94.1 40 C 94.07 40 94.1 42.7 94.1 42.7 L 93.4 42.7 L 93.4 37.4 L 94 37.4 C 94 37.4 94.04 38.45 94 38.4 C 94.4 37.7 95 37.4 96 37.4 Z M 96.6 40 C 96.6 38.5 97.8 37.4 99.3 37.4 C 100.2 37.4 101 37.7 101.4 38.4 C 101.4 38.4 100.9 38.8 100.9 38.8 C 100.5 38.2 99.9 38 99.3 38 C 98.2 38 97.3 38.8 97.3 40 C 97.3 41.3 98.2 42.1 99.3 42.1 C 99.9 42.1 100.5 41.9 100.9 41.3 C 100.9 41.3 101.4 41.7 101.4 41.7 C 101 42.4 100.2 42.7 99.3 42.7 C 97.8 42.7 96.6 41.6 96.6 40 Z M 107.3 40.3 C 107.3 40.3 102.9 40.3 102.9 40.3 C 103 41.4 103.8 42.1 105 42.1 C 105.6 42.1 106.2 41.9 106.6 41.4 C 106.6 41.4 107 41.9 107 41.9 C 106.5 42.4 105.8 42.7 105 42.7 C 103.3 42.7 102.2 41.6 102.2 40 C 102.2 38.5 103.3 37.4 104.8 37.4 C 106.3 37.4 107.3 38.5 107.3 40 C 107.3 40.1 107.3 40.2 107.3 40.3 Z M 102.9 39.7 C 102.9 39.7 106.6 39.7 106.6 39.7 C 106.6 38.7 105.8 38 104.8 38 C 103.8 38 103 38.7 102.9 39.7 Z M 115.4 39.4 C 115.37 39.42 115.4 42.7 115.4 42.7 L 114.7 42.7 C 114.7 42.7 114.69 41.86 114.7 41.9 C 114.4 42.4 113.7 42.7 112.9 42.7 C 111.7 42.7 111 42.1 111 41.2 C 111 40.4 111.5 39.7 113 39.7 C 112.99 39.71 114.7 39.7 114.7 39.7 C 114.7 39.7 114.66 39.39 114.7 39.4 C 114.7 38.5 114.1 38 113.2 38 C 112.5 38 111.8 38.2 111.4 38.6 C 111.4 38.6 111.1 38.1 111.1 38.1 C 111.6 37.6 112.4 37.4 113.2 37.4 C 114.6 37.4 115.4 38.1 115.4 39.4 Z M 114.7 41.1 C 114.66 41.1 114.7 40.2 114.7 40.2 C 114.7 40.2 113.01 40.24 113 40.2 C 112 40.2 111.7 40.6 111.7 41.2 C 111.7 41.8 112.1 42.2 113 42.2 C 113.8 42.2 114.4 41.8 114.7 41.1 Z M 119.8 37.4 C 119.8 37.4 119.8 38.1 119.8 38.1 C 119.8 38.1 119.7 38.1 119.7 38.1 C 118.6 38.1 117.9 38.8 117.9 40 C 117.89 40 117.9 42.7 117.9 42.7 L 117.2 42.7 L 117.2 37.4 L 117.9 37.4 C 117.9 37.4 117.86 38.45 117.9 38.4 C 118.2 37.7 118.9 37.4 119.8 37.4 Z M 125.6 40.3 C 125.6 40.3 121.2 40.3 121.2 40.3 C 121.3 41.4 122.1 42.1 123.2 42.1 C 123.9 42.1 124.5 41.9 124.9 41.4 C 124.9 41.4 125.3 41.9 125.3 41.9 C 124.8 42.4 124.1 42.7 123.2 42.7 C 121.6 42.7 120.5 41.6 120.5 40 C 120.5 38.5 121.6 37.4 123 37.4 C 124.5 37.4 125.6 38.5 125.6 40 C 125.6 40.1 125.6 40.2 125.6 40.3 Z M 121.2 39.7 C 121.2 39.7 124.9 39.7 124.9 39.7 C 124.8 38.7 124.1 38 123 38 C 122 38 121.3 38.7 121.2 39.7 Z M 132.3 37.4 C 132.3 37.4 132.3 38.1 132.3 38.1 C 132.2 38.1 132.2 38.1 132.1 38.1 C 131 38.1 130.4 38.8 130.4 40 C 130.36 40 130.4 42.7 130.4 42.7 L 129.7 42.7 L 129.7 37.4 L 130.3 37.4 C 130.3 37.4 130.33 38.45 130.3 38.4 C 130.7 37.7 131.3 37.4 132.3 37.4 Z M 138 40.3 C 138 40.3 133.6 40.3 133.6 40.3 C 133.7 41.4 134.6 42.1 135.7 42.1 C 136.4 42.1 136.9 41.9 137.3 41.4 C 137.3 41.4 137.7 41.9 137.7 41.9 C 137.3 42.4 136.5 42.7 135.7 42.7 C 134.1 42.7 132.9 41.6 132.9 40 C 132.9 38.5 134 37.4 135.5 37.4 C 137 37.4 138.1 38.5 138.1 40 C 138.1 40.1 138 40.2 138 40.3 Z M 133.6 39.7 C 133.6 39.7 137.4 39.7 137.4 39.7 C 137.3 38.7 136.5 38 135.5 38 C 134.5 38 133.7 38.7 133.6 39.7 Z M 144.4 37.4 L 144.4 44.6 L 143.7 44.6 C 143.7 44.6 143.68 41.69 143.7 41.7 C 143.2 42.4 142.5 42.7 141.7 42.7 C 140.2 42.7 139.1 41.7 139.1 40 C 139.1 38.5 140.2 37.4 141.7 37.4 C 142.5 37.4 143.3 37.8 143.7 38.5 C 143.71 38.46 143.7 37.4 143.7 37.4 L 144.4 37.4 Z M 143.7 40 C 143.7 38.8 142.8 38 141.7 38 C 140.6 38 139.8 38.8 139.8 40.1 C 139.8 41.3 140.6 42.1 141.7 42.1 C 142.8 42.1 143.7 41.3 143.7 40 Z M 151 37.4 L 151 42.7 L 150.3 42.7 C 150.3 42.7 150.31 41.72 150.3 41.7 C 149.9 42.4 149.3 42.7 148.4 42.7 C 147.1 42.7 146.2 42 146.2 40.5 C 146.2 40.47 146.2 37.4 146.2 37.4 L 146.9 37.4 C 146.9 37.4 146.91 40.4 146.9 40.4 C 146.9 41.5 147.5 42.1 148.5 42.1 C 149.6 42.1 150.3 41.4 150.3 40.2 C 150.28 40.18 150.3 37.4 150.3 37.4 L 151 37.4 Z M 152.7 35.8 C 152.7 35.5 152.9 35.3 153.2 35.3 C 153.5 35.3 153.7 35.5 153.7 35.7 C 153.7 36 153.5 36.3 153.2 36.3 C 152.9 36.3 152.7 36 152.7 35.8 Z M 152.9 37.4 L 153.6 37.4 L 153.6 42.7 L 152.9 42.7 L 152.9 37.4 Z M 158.1 37.4 C 158.1 37.4 158.1 38.1 158.1 38.1 C 158 38.1 157.9 38.1 157.9 38.1 C 156.8 38.1 156.1 38.8 156.1 40 C 156.12 40 156.1 42.7 156.1 42.7 L 155.4 42.7 L 155.4 37.4 L 156.1 37.4 C 156.1 37.4 156.09 38.45 156.1 38.4 C 156.4 37.7 157.1 37.4 158.1 37.4 Z M 163.8 40.3 C 163.8 40.3 159.4 40.3 159.4 40.3 C 159.5 41.4 160.3 42.1 161.5 42.1 C 162.1 42.1 162.7 41.9 163.1 41.4 C 163.1 41.4 163.5 41.9 163.5 41.9 C 163 42.4 162.3 42.7 161.5 42.7 C 159.8 42.7 158.7 41.6 158.7 40 C 158.7 38.5 159.8 37.4 161.3 37.4 C 162.7 37.4 163.8 38.5 163.8 40 C 163.8 40.1 163.8 40.2 163.8 40.3 Z M 159.4 39.7 C 159.4 39.7 163.1 39.7 163.1 39.7 C 163 38.7 162.3 38 161.3 38 C 160.2 38 159.5 38.7 159.4 39.7 Z M 170.1 35.3 L 170.1 42.7 L 169.5 42.7 C 169.5 42.7 169.47 41.64 169.5 41.6 C 169 42.3 168.3 42.7 167.4 42.7 C 165.9 42.7 164.8 41.6 164.8 40 C 164.8 38.5 165.9 37.4 167.4 37.4 C 168.3 37.4 169 37.7 169.4 38.4 C 169.44 38.42 169.4 35.3 169.4 35.3 L 170.1 35.3 Z M 169.4 40 C 169.4 38.8 168.6 38 167.5 38 C 166.4 38 165.5 38.8 165.5 40 C 165.5 41.3 166.4 42.1 167.5 42.1 C 168.6 42.1 169.4 41.3 169.4 40 Z M 177.5 42.4 C 177.2 42.6 176.8 42.7 176.4 42.7 C 175.4 42.7 174.9 42.2 174.9 41.2 C 174.87 41.2 174.9 38 174.9 38 L 173.9 38 L 173.9 37.4 L 174.9 37.4 L 174.9 36.3 L 175.6 36.3 L 175.6 37.4 L 177.2 37.4 L 177.2 38 L 175.6 38 C 175.6 38 175.58 41.16 175.6 41.2 C 175.6 41.8 175.9 42.1 176.5 42.1 C 176.8 42.1 177.1 42 177.3 41.9 C 177.3 41.9 177.5 42.4 177.5 42.4 Z M 183.5 39.6 C 183.54 39.63 183.5 42.7 183.5 42.7 L 182.8 42.7 C 182.8 42.7 182.83 39.7 182.8 39.7 C 182.8 38.6 182.3 38 181.3 38 C 180.1 38 179.4 38.7 179.4 39.9 C 179.41 39.92 179.4 42.7 179.4 42.7 L 178.7 42.7 L 178.7 35.3 L 179.4 35.3 C 179.4 35.3 179.41 38.34 179.4 38.3 C 179.8 37.7 180.5 37.4 181.4 37.4 C 182.7 37.4 183.5 38.1 183.5 39.6 Z M 190 40.3 C 190 40.3 185.6 40.3 185.6 40.3 C 185.7 41.4 186.6 42.1 187.7 42.1 C 188.3 42.1 188.9 41.9 189.3 41.4 C 189.3 41.4 189.7 41.9 189.7 41.9 C 189.2 42.4 188.5 42.7 187.7 42.7 C 186 42.7 184.9 41.6 184.9 40 C 184.9 38.5 186 37.4 187.5 37.4 C 189 37.4 190 38.5 190 40 C 190 40.1 190 40.2 190 40.3 Z M 185.6 39.7 C 185.6 39.7 189.4 39.7 189.4 39.7 C 189.3 38.7 188.5 38 187.5 38 C 186.5 38 185.7 38.7 185.6 39.7 Z M 198.9 35.3 L 198.9 42.7 L 198.2 42.7 C 198.2 42.7 198.24 41.64 198.2 41.6 C 197.8 42.3 197.1 42.7 196.2 42.7 C 194.7 42.7 193.6 41.6 193.6 40 C 193.6 38.5 194.7 37.4 196.2 37.4 C 197 37.4 197.8 37.7 198.2 38.4 C 198.21 38.42 198.2 35.3 198.2 35.3 L 198.9 35.3 Z M 198.2 40 C 198.2 38.8 197.4 38 196.3 38 C 195.1 38 194.3 38.8 194.3 40 C 194.3 41.3 195.1 42.1 196.3 42.1 C 197.4 42.1 198.2 41.3 198.2 40 Z M 205.5 40.3 C 205.5 40.3 201.1 40.3 201.1 40.3 C 201.1 41.4 202 42.1 203.1 42.1 C 203.8 42.1 204.3 41.9 204.7 41.4 C 204.7 41.4 205.1 41.9 205.1 41.9 C 204.7 42.4 203.9 42.7 203.1 42.7 C 201.5 42.7 200.4 41.6 200.4 40 C 200.4 38.5 201.4 37.4 202.9 37.4 C 204.4 37.4 205.5 38.5 205.5 40 C 205.5 40.1 205.5 40.2 205.5 40.3 Z M 201.1 39.7 C 201.1 39.7 204.8 39.7 204.8 39.7 C 204.7 38.7 204 38 202.9 38 C 201.9 38 201.2 38.7 201.1 39.7 Z M 206.3 42.1 C 206.3 42.1 206.6 41.5 206.6 41.5 C 207 41.9 207.7 42.1 208.5 42.1 C 209.5 42.1 209.9 41.8 209.9 41.3 C 209.9 39.9 206.5 41 206.5 38.9 C 206.5 38 207.2 37.4 208.5 37.4 C 209.2 37.4 210 37.6 210.4 37.9 C 210.4 37.9 210.1 38.4 210.1 38.4 C 209.6 38.1 209.1 38 208.5 38 C 207.6 38 207.2 38.4 207.2 38.9 C 207.2 40.3 210.6 39.2 210.6 41.2 C 210.6 42.1 209.8 42.7 208.4 42.7 C 207.5 42.7 206.7 42.4 206.3 42.1 Z M 211.7 35.8 C 211.7 35.5 212 35.3 212.2 35.3 C 212.5 35.3 212.8 35.5 212.8 35.7 C 212.8 36 212.5 36.3 212.2 36.3 C 212 36.3 211.7 36 211.7 35.8 Z M 211.9 37.4 L 212.6 37.4 L 212.6 42.7 L 211.9 42.7 L 211.9 37.4 Z M 219.4 37.4 C 219.4 37.4 219.37 42.04 219.4 42 C 219.4 43.9 218.5 44.7 216.7 44.7 C 215.8 44.7 214.8 44.4 214.3 43.9 C 214.3 43.9 214.6 43.3 214.6 43.3 C 215.1 43.8 215.9 44 216.7 44 C 218.1 44 218.7 43.4 218.7 42.1 C 218.7 42.1 218.7 41.5 218.7 41.5 C 218.2 42.1 217.5 42.5 216.6 42.5 C 215.1 42.5 214 41.4 214 39.9 C 214 38.4 215.1 37.4 216.6 37.4 C 217.5 37.4 218.3 37.7 218.7 38.4 C 218.69 38.43 218.7 37.4 218.7 37.4 L 219.4 37.4 Z M 218.7 39.9 C 218.7 38.8 217.8 38 216.7 38 C 215.5 38 214.7 38.8 214.7 39.9 C 214.7 41.1 215.5 41.9 216.7 41.9 C 217.8 41.9 218.7 41.1 218.7 39.9 Z M 226.1 39.6 C 226.07 39.63 226.1 42.7 226.1 42.7 L 225.4 42.7 C 225.4 42.7 225.36 39.7 225.4 39.7 C 225.4 38.6 224.8 38 223.8 38 C 222.7 38 221.9 38.7 221.9 39.9 C 221.94 39.92 221.9 42.7 221.9 42.7 L 221.2 42.7 L 221.2 37.4 L 221.9 37.4 C 221.9 37.4 221.91 38.39 221.9 38.4 C 222.3 37.7 223 37.4 223.9 37.4 C 225.2 37.4 226.1 38.1 226.1 39.6 Z M 229.9 42.1 C 229.9 42.1 230.2 41.5 230.2 41.5 C 230.6 41.9 231.3 42.1 232.1 42.1 C 233.1 42.1 233.5 41.8 233.5 41.3 C 233.5 39.9 230.1 41 230.1 38.9 C 230.1 38 230.8 37.4 232.2 37.4 C 232.8 37.4 233.6 37.6 234 37.9 C 234 37.9 233.7 38.4 233.7 38.4 C 233.3 38.1 232.7 38 232.2 38 C 231.2 38 230.8 38.4 230.8 38.9 C 230.8 40.3 234.2 39.2 234.2 41.2 C 234.2 42.1 233.4 42.7 232 42.7 C 231.2 42.7 230.3 42.4 229.9 42.1 Z M 240.4 39.6 C 240.35 39.63 240.4 42.7 240.4 42.7 L 239.6 42.7 C 239.6 42.7 239.64 39.7 239.6 39.7 C 239.6 38.6 239.1 38 238.1 38 C 236.9 38 236.2 38.7 236.2 39.9 C 236.22 39.92 236.2 42.7 236.2 42.7 L 235.5 42.7 L 235.5 35.3 L 236.2 35.3 C 236.2 35.3 236.22 38.34 236.2 38.3 C 236.6 37.7 237.3 37.4 238.2 37.4 C 239.5 37.4 240.4 38.1 240.4 39.6 Z M 241.7 40 C 241.7 38.5 242.9 37.4 244.4 37.4 C 246 37.4 247.1 38.5 247.1 40 C 247.1 41.6 246 42.7 244.4 42.7 C 242.9 42.7 241.7 41.6 241.7 40 Z M 246.4 40 C 246.4 38.8 245.5 38 244.4 38 C 243.3 38 242.5 38.8 242.5 40 C 242.5 41.3 243.3 42.1 244.4 42.1 C 245.5 42.1 246.4 41.3 246.4 40 Z M 253.2 37.4 L 253.2 42.7 L 252.6 42.7 C 252.6 42.7 252.56 41.72 252.6 41.7 C 252.2 42.4 251.5 42.7 250.7 42.7 C 249.3 42.7 248.5 42 248.5 40.5 C 248.45 40.47 248.5 37.4 248.5 37.4 L 249.2 37.4 C 249.2 37.4 249.16 40.4 249.2 40.4 C 249.2 41.5 249.7 42.1 250.7 42.1 C 251.8 42.1 252.5 41.4 252.5 40.2 C 252.53 40.18 252.5 37.4 252.5 37.4 L 253.2 37.4 Z M 255.1 35.3 L 255.8 35.3 L 255.8 42.7 L 255.1 42.7 L 255.1 35.3 Z M 262.6 35.3 L 262.6 42.7 L 261.9 42.7 C 261.9 42.7 261.9 41.64 261.9 41.6 C 261.5 42.3 260.7 42.7 259.9 42.7 C 258.4 42.7 257.2 41.6 257.2 40 C 257.2 38.5 258.4 37.4 259.9 37.4 C 260.7 37.4 261.4 37.7 261.9 38.4 C 261.87 38.42 261.9 35.3 261.9 35.3 L 262.6 35.3 Z M 261.9 40 C 261.9 38.8 261 38 259.9 38 C 258.8 38 258 38.8 258 40 C 258 41.3 258.8 42.1 259.9 42.1 C 261 42.1 261.9 41.3 261.9 40 Z M 271.1 39.4 C 271.15 39.42 271.1 42.7 271.1 42.7 L 270.5 42.7 C 270.5 42.7 270.47 41.86 270.5 41.9 C 270.1 42.4 269.5 42.7 268.7 42.7 C 267.5 42.7 266.7 42.1 266.7 41.2 C 266.7 40.4 267.3 39.7 268.8 39.7 C 268.77 39.71 270.4 39.7 270.4 39.7 C 270.4 39.7 270.44 39.39 270.4 39.4 C 270.4 38.5 269.9 38 268.9 38 C 268.3 38 267.6 38.2 267.2 38.6 C 267.2 38.6 266.9 38.1 266.9 38.1 C 267.4 37.6 268.2 37.4 269 37.4 C 270.4 37.4 271.1 38.1 271.1 39.4 Z M 270.4 41.1 C 270.44 41.1 270.4 40.2 270.4 40.2 C 270.4 40.2 268.79 40.24 268.8 40.2 C 267.8 40.2 267.4 40.6 267.4 41.2 C 267.4 41.8 267.9 42.2 268.8 42.2 C 269.6 42.2 270.2 41.8 270.4 41.1 Z M 273 35.3 L 273.7 35.3 L 273.7 42.7 L 273 42.7 L 273 35.3 Z M 275.5 35.3 L 276.2 35.3 L 276.2 42.7 L 275.5 42.7 L 275.5 35.3 Z M 277.6 40 C 277.6 38.5 278.8 37.4 280.3 37.4 C 281.9 37.4 283 38.5 283 40 C 283 41.6 281.9 42.7 280.3 42.7 C 278.8 42.7 277.6 41.6 277.6 40 Z M 282.3 40 C 282.3 38.8 281.4 38 280.3 38 C 279.2 38 278.4 38.8 278.4 40 C 278.4 41.3 279.2 42.1 280.3 42.1 C 281.4 42.1 282.3 41.3 282.3 40 Z M 292.1 37.4 L 290.1 42.7 L 289.5 42.7 L 287.8 38.4 L 286.1 42.7 L 285.5 42.7 L 283.5 37.4 L 284.2 37.4 L 285.8 41.9 L 287.5 37.4 L 288.1 37.4 L 289.8 41.9 L 291.5 37.4 L 292.1 37.4 Z M 296.6 36.8 C 296.61 36.8 296.6 37.4 296.6 37.4 L 298.2 37.4 L 298.2 38 L 296.6 38 L 296.6 42.7 L 295.9 42.7 L 295.9 38 L 295 38 L 295 37.4 L 295.9 37.4 C 295.9 37.4 295.92 36.77 295.9 36.8 C 295.9 35.8 296.5 35.2 297.5 35.2 C 297.9 35.2 298.3 35.3 298.6 35.5 C 298.6 35.5 298.3 36.1 298.3 36.1 C 298.1 35.9 297.8 35.8 297.5 35.8 C 296.9 35.8 296.6 36.1 296.6 36.8 Z M 298.6 40 C 298.6 38.5 299.8 37.4 301.3 37.4 C 302.9 37.4 304 38.5 304 40 C 304 41.6 302.9 42.7 301.3 42.7 C 299.8 42.7 298.6 41.6 298.6 40 Z M 303.3 40 C 303.3 38.8 302.4 38 301.3 38 C 300.2 38 299.4 38.8 299.4 40 C 299.4 41.3 300.2 42.1 301.3 42.1 C 302.4 42.1 303.3 41.3 303.3 40 Z M 308.1 37.4 C 308.1 37.4 308.1 38.1 308.1 38.1 C 308 38.1 307.9 38.1 307.9 38.1 C 306.8 38.1 306.1 38.8 306.1 40 C 306.13 40 306.1 42.7 306.1 42.7 L 305.4 42.7 L 305.4 37.4 L 306.1 37.4 C 306.1 37.4 306.1 38.45 306.1 38.4 C 306.4 37.7 307.1 37.4 308.1 37.4 Z M 311.9 35.8 C 311.9 35.5 312.1 35.3 312.4 35.3 C 312.7 35.3 312.9 35.5 312.9 35.7 C 312.9 36 312.7 36.3 312.4 36.3 C 312.1 36.3 311.9 36 311.9 35.8 Z M 312 37.4 L 312.8 37.4 L 312.8 42.7 L 312 42.7 L 312 37.4 Z M 317.5 42.4 C 317.2 42.6 316.8 42.7 316.4 42.7 C 315.4 42.7 314.8 42.2 314.8 41.2 C 314.82 41.2 314.8 38 314.8 38 L 313.9 38 L 313.9 37.4 L 314.8 37.4 L 314.8 36.3 L 315.5 36.3 L 315.5 37.4 L 317.1 37.4 L 317.1 38 L 315.5 38 C 315.5 38 315.52 41.16 315.5 41.2 C 315.5 41.8 315.8 42.1 316.4 42.1 C 316.7 42.1 317 42 317.2 41.9 C 317.2 41.9 317.5 42.4 317.5 42.4 Z M 324.1 42.4 C 323.9 42.6 323.4 42.7 323 42.7 C 322 42.7 321.5 42.2 321.5 41.2 C 321.5 41.2 321.5 38 321.5 38 L 320.6 38 L 320.6 37.4 L 321.5 37.4 L 321.5 36.3 L 322.2 36.3 L 322.2 37.4 L 323.8 37.4 L 323.8 38 L 322.2 38 C 322.2 38 322.2 41.16 322.2 41.2 C 322.2 41.8 322.5 42.1 323.1 42.1 C 323.4 42.1 323.7 42 323.9 41.9 C 323.9 41.9 324.1 42.4 324.1 42.4 Z M 324.7 40 C 324.7 38.5 325.8 37.4 327.4 37.4 C 328.9 37.4 330 38.5 330 40 C 330 41.6 328.9 42.7 327.4 42.7 C 325.8 42.7 324.7 41.6 324.7 40 Z M 329.3 40 C 329.3 38.8 328.5 38 327.4 38 C 326.3 38 325.4 38.8 325.4 40 C 325.4 41.3 326.3 42.1 327.4 42.1 C 328.5 42.1 329.3 41.3 329.3 40 Z M 339.4 40 C 339.4 41.6 338.3 42.7 336.8 42.7 C 336 42.7 335.2 42.3 334.8 41.6 C 334.8 41.64 334.8 42.7 334.8 42.7 L 334.1 42.7 L 334.1 35.3 L 334.8 35.3 C 334.8 35.3 334.82 38.42 334.8 38.4 C 335.3 37.7 336 37.4 336.8 37.4 C 338.3 37.4 339.4 38.5 339.4 40 Z M 338.7 40 C 338.7 38.8 337.9 38 336.8 38 C 335.7 38 334.8 38.8 334.8 40 C 334.8 41.3 335.7 42.1 336.8 42.1 C 337.9 42.1 338.7 41.3 338.7 40 Z M 345.6 40.3 C 345.6 40.3 341.2 40.3 341.2 40.3 C 341.2 41.4 342.1 42.1 343.2 42.1 C 343.9 42.1 344.4 41.9 344.8 41.4 C 344.8 41.4 345.2 41.9 345.2 41.9 C 344.8 42.4 344 42.7 343.2 42.7 C 341.6 42.7 340.5 41.6 340.5 40 C 340.5 38.5 341.5 37.4 343 37.4 C 344.5 37.4 345.6 38.5 345.6 40 C 345.6 40.1 345.6 40.2 345.6 40.3 Z M 341.2 39.7 C 341.2 39.7 344.9 39.7 344.9 39.7 C 344.8 38.7 344.1 38 343 38 C 342 38 341.3 38.7 341.2 39.7 Z M 353.6 39.4 C 353.61 39.42 353.6 42.7 353.6 42.7 L 352.9 42.7 C 352.9 42.7 352.93 41.86 352.9 41.9 C 352.6 42.4 352 42.7 351.1 42.7 C 349.9 42.7 349.2 42.1 349.2 41.2 C 349.2 40.4 349.7 39.7 351.2 39.7 C 351.23 39.71 352.9 39.7 352.9 39.7 C 352.9 39.7 352.9 39.39 352.9 39.4 C 352.9 38.5 352.4 38 351.4 38 C 350.7 38 350.1 38.2 349.7 38.6 C 349.7 38.6 349.3 38.1 349.3 38.1 C 349.9 37.6 350.7 37.4 351.5 37.4 C 352.8 37.4 353.6 38.1 353.6 39.4 Z M 352.9 41.1 C 352.9 41.1 352.9 40.2 352.9 40.2 C 352.9 40.2 351.25 40.24 351.3 40.2 C 350.2 40.2 349.9 40.6 349.9 41.2 C 349.9 41.8 350.4 42.2 351.2 42.2 C 352 42.2 352.6 41.8 352.9 41.1 Z M 360.8 40.1 C 360.8 41.7 359.6 42.7 358.1 42.7 C 357.3 42.7 356.6 42.4 356.1 41.7 C 356.14 41.69 356.1 44.6 356.1 44.6 L 355.4 44.6 L 355.4 37.4 L 356.1 37.4 C 356.1 37.4 356.11 38.46 356.1 38.5 C 356.5 37.8 357.3 37.4 358.1 37.4 C 359.6 37.4 360.8 38.5 360.8 40.1 Z M 360 40 C 360 38.8 359.2 38 358.1 38 C 357 38 356.1 38.8 356.1 40 C 356.1 41.3 357 42.1 358.1 42.1 C 359.2 42.1 360 41.3 360 40 Z M 367.5 40.1 C 367.5 41.7 366.4 42.7 364.9 42.7 C 364.1 42.7 363.3 42.4 362.9 41.7 C 362.91 41.69 362.9 44.6 362.9 44.6 L 362.2 44.6 L 362.2 37.4 L 362.9 37.4 C 362.9 37.4 362.88 38.46 362.9 38.5 C 363.3 37.8 364 37.4 364.9 37.4 C 366.4 37.4 367.5 38.5 367.5 40.1 Z M 366.8 40 C 366.8 38.8 366 38 364.9 38 C 363.7 38 362.9 38.8 362.9 40 C 362.9 41.3 363.7 42.1 364.9 42.1 C 366 42.1 366.8 41.3 366.8 40 Z M 369 35.3 L 369.7 35.3 L 369.7 42.7 L 369 42.7 L 369 35.3 Z M 371.4 35.8 C 371.4 35.5 371.6 35.3 371.9 35.3 C 372.2 35.3 372.4 35.5 372.4 35.7 C 372.4 36 372.2 36.3 371.9 36.3 C 371.6 36.3 371.4 36 371.4 35.8 Z M 371.5 37.4 L 372.2 37.4 L 372.2 42.7 L 371.5 42.7 L 371.5 37.4 Z M 378.8 40.3 C 378.8 40.3 374.4 40.3 374.4 40.3 C 374.4 41.4 375.3 42.1 376.4 42.1 C 377.1 42.1 377.6 41.9 378 41.4 C 378 41.4 378.4 41.9 378.4 41.9 C 378 42.4 377.2 42.7 376.4 42.7 C 374.8 42.7 373.6 41.6 373.6 40 C 373.6 38.5 374.7 37.4 376.2 37.4 C 377.7 37.4 378.8 38.5 378.8 40 C 378.8 40.1 378.8 40.2 378.8 40.3 Z M 374.4 39.7 C 374.4 39.7 378.1 39.7 378.1 39.7 C 378 38.7 377.2 38 376.2 38 C 375.2 38 374.4 38.7 374.4 39.7 Z M 385.1 35.3 L 385.1 42.7 L 384.4 42.7 C 384.4 42.7 384.41 41.64 384.4 41.6 C 384 42.3 383.3 42.7 382.4 42.7 C 380.9 42.7 379.8 41.6 379.8 40 C 379.8 38.5 380.9 37.4 382.4 37.4 C 383.2 37.4 383.9 37.7 384.4 38.4 C 384.38 38.42 384.4 35.3 384.4 35.3 L 385.1 35.3 Z M 384.4 40 C 384.4 38.8 383.6 38 382.4 38 C 381.3 38 380.5 38.8 380.5 40 C 380.5 41.3 381.3 42.1 382.4 42.1 C 383.6 42.1 384.4 41.3 384.4 40 Z M 394.3 40.3 C 394.3 40.3 389.9 40.3 389.9 40.3 C 390 41.4 390.8 42.1 391.9 42.1 C 392.6 42.1 393.2 41.9 393.6 41.4 C 393.6 41.4 394 41.9 394 41.9 C 393.5 42.4 392.8 42.7 391.9 42.7 C 390.3 42.7 389.2 41.6 389.2 40 C 389.2 38.5 390.3 37.4 391.7 37.4 C 393.2 37.4 394.3 38.5 394.3 40 C 394.3 40.1 394.3 40.2 394.3 40.3 Z M 389.9 39.7 C 389.9 39.7 393.6 39.7 393.6 39.7 C 393.5 38.7 392.8 38 391.7 38 C 390.7 38 390 38.7 389.9 39.7 Z M 399.7 39.4 C 399.66 39.42 399.7 42.7 399.7 42.7 L 399 42.7 C 399 42.7 398.98 41.86 399 41.9 C 398.7 42.4 398 42.7 397.2 42.7 C 396 42.7 395.3 42.1 395.3 41.2 C 395.3 40.4 395.8 39.7 397.3 39.7 C 397.28 39.71 399 39.7 399 39.7 C 399 39.7 398.95 39.39 399 39.4 C 399 38.5 398.4 38 397.5 38 C 396.8 38 396.1 38.2 395.7 38.6 C 395.7 38.6 395.4 38.1 395.4 38.1 C 395.9 37.6 396.7 37.4 397.5 37.4 C 398.9 37.4 399.7 38.1 399.7 39.4 Z M 399 41.1 C 398.95 41.1 399 40.2 399 40.2 C 399 40.2 397.3 40.24 397.3 40.2 C 396.3 40.2 396 40.6 396 41.2 C 396 41.8 396.4 42.2 397.3 42.2 C 398.1 42.2 398.7 41.8 399 41.1 Z M 400.9 42.1 C 400.9 42.1 401.2 41.5 401.2 41.5 C 401.6 41.9 402.3 42.1 403.1 42.1 C 404.1 42.1 404.5 41.8 404.5 41.3 C 404.5 39.9 401.1 41 401.1 38.9 C 401.1 38 401.8 37.4 403.1 37.4 C 403.8 37.4 404.6 37.6 405 37.9 C 405 37.9 404.7 38.4 404.7 38.4 C 404.2 38.1 403.7 38 403.1 38 C 402.2 38 401.8 38.4 401.8 38.9 C 401.8 40.3 405.2 39.2 405.2 41.2 C 405.2 42.1 404.4 42.7 403 42.7 C 402.1 42.7 401.3 42.4 400.9 42.1 Z M 406.3 35.8 C 406.3 35.5 406.6 35.3 406.9 35.3 C 407.1 35.3 407.4 35.5 407.4 35.7 C 407.4 36 407.2 36.3 406.9 36.3 C 406.6 36.3 406.3 36 406.3 35.8 Z M 406.5 37.4 L 407.2 37.4 L 407.2 42.7 L 406.5 42.7 L 406.5 37.4 Z M 409.1 35.3 L 409.8 35.3 L 409.8 42.7 L 409.1 42.7 L 409.1 35.3 Z M 416.2 37.4 C 416.2 37.4 413.57 43.31 413.6 43.3 C 413.1 44.3 412.6 44.7 411.8 44.7 C 411.3 44.7 410.9 44.5 410.5 44.2 C 410.5 44.2 410.9 43.7 410.9 43.7 C 411.1 43.9 411.4 44.1 411.8 44.1 C 412.3 44.1 412.6 43.8 412.9 43.2 C 412.92 43.18 413.1 42.7 413.1 42.7 L 410.8 37.4 L 411.5 37.4 L 413.5 41.9 L 415.5 37.4 L 416.2 37.4 Z M 417.3 42.2 C 417.3 42.3 417.3 42.5 417.2 42.8 C 417.19 42.76 416.8 44.1 416.8 44.1 L 416.3 44.1 C 416.3 44.1 416.63 42.69 416.6 42.7 C 416.4 42.6 416.3 42.4 416.3 42.2 C 416.3 41.9 416.5 41.6 416.8 41.6 C 417.1 41.6 417.3 41.9 417.3 42.2 Z M 422.3 36.8 C 422.27 36.8 422.3 37.4 422.3 37.4 L 423.9 37.4 L 423.9 38 L 422.3 38 L 422.3 42.7 L 421.6 42.7 L 421.6 38 L 420.6 38 L 420.6 37.4 L 421.6 37.4 C 421.6 37.4 421.58 36.77 421.6 36.8 C 421.6 35.8 422.1 35.2 423.2 35.2 C 423.6 35.2 424 35.3 424.2 35.5 C 424.2 35.5 424 36.1 424 36.1 C 423.8 35.9 423.5 35.8 423.2 35.8 C 422.6 35.8 422.3 36.1 422.3 36.8 Z M 424.3 40 C 424.3 38.5 425.4 37.4 427 37.4 C 428.5 37.4 429.6 38.5 429.6 40 C 429.6 41.6 428.5 42.7 427 42.7 C 425.4 42.7 424.3 41.6 424.3 40 Z M 428.9 40 C 428.9 38.8 428.1 38 427 38 C 425.9 38 425 38.8 425 40 C 425 41.3 425.9 42.1 427 42.1 C 428.1 42.1 428.9 41.3 428.9 40 Z M 433.7 37.4 C 433.7 37.4 433.7 38.1 433.7 38.1 C 433.7 38.1 433.6 38.1 433.6 38.1 C 432.5 38.1 431.8 38.8 431.8 40 C 431.78 40 431.8 42.7 431.8 42.7 L 431.1 42.7 L 431.1 37.4 L 431.8 37.4 C 431.8 37.4 431.75 38.45 431.8 38.4 C 432.1 37.7 432.8 37.4 433.7 37.4 Z M 442.3 40.3 C 442.3 40.3 437.9 40.3 437.9 40.3 C 438 41.4 438.8 42.1 440 42.1 C 440.6 42.1 441.2 41.9 441.6 41.4 C 441.6 41.4 442 41.9 442 41.9 C 441.5 42.4 440.8 42.7 439.9 42.7 C 438.3 42.7 437.2 41.6 437.2 40 C 437.2 38.5 438.3 37.4 439.7 37.4 C 441.2 37.4 442.3 38.5 442.3 40 C 442.3 40.1 442.3 40.2 442.3 40.3 Z M 437.9 39.7 C 437.9 39.7 441.6 39.7 441.6 39.7 C 441.5 38.7 440.8 38 439.7 38 C 438.7 38 438 38.7 437.9 39.7 Z M 446.9 42.7 L 445.2 40.5 L 443.6 42.7 L 442.8 42.7 L 444.9 40 L 442.9 37.4 L 443.7 37.4 L 445.2 39.5 L 446.8 37.4 L 447.6 37.4 L 445.6 40 L 447.7 42.7 L 446.9 42.7 Z M 452.8 39.4 C 452.76 39.42 452.8 42.7 452.8 42.7 L 452.1 42.7 C 452.1 42.7 452.08 41.86 452.1 41.9 C 451.8 42.4 451.1 42.7 450.3 42.7 C 449.1 42.7 448.3 42.1 448.3 41.2 C 448.3 40.4 448.9 39.7 450.4 39.7 C 450.38 39.71 452 39.7 452 39.7 C 452 39.7 452.05 39.39 452 39.4 C 452 38.5 451.5 38 450.6 38 C 449.9 38 449.2 38.2 448.8 38.6 C 448.8 38.6 448.5 38.1 448.5 38.1 C 449 37.6 449.8 37.4 450.6 37.4 C 452 37.4 452.8 38.1 452.8 39.4 Z M 452 41.1 C 452.05 41.1 452 40.2 452 40.2 C 452 40.2 450.4 40.24 450.4 40.2 C 449.4 40.2 449 40.6 449 41.2 C 449 41.8 449.5 42.2 450.4 42.2 C 451.2 42.2 451.8 41.8 452 41.1 Z M 463.3 39.6 C 463.25 39.63 463.3 42.7 463.3 42.7 L 462.5 42.7 C 462.5 42.7 462.54 39.7 462.5 39.7 C 462.5 38.6 462 38 461 38 C 460 38 459.3 38.7 459.3 39.9 C 459.27 39.92 459.3 42.7 459.3 42.7 L 458.6 42.7 C 458.6 42.7 458.56 39.7 458.6 39.7 C 458.6 38.6 458 38 457 38 C 456 38 455.3 38.7 455.3 39.9 C 455.28 39.92 455.3 42.7 455.3 42.7 L 454.6 42.7 L 454.6 37.4 L 455.3 37.4 C 455.3 37.4 455.25 38.38 455.3 38.4 C 455.6 37.7 456.3 37.4 457.2 37.4 C 458.1 37.4 458.7 37.7 459.1 38.5 C 459.4 37.8 460.2 37.4 461.1 37.4 C 462.4 37.4 463.3 38.1 463.3 39.6 Z M 470.4 40.1 C 470.4 41.7 469.3 42.7 467.8 42.7 C 467 42.7 466.2 42.4 465.8 41.7 C 465.79 41.69 465.8 44.6 465.8 44.6 L 465.1 44.6 L 465.1 37.4 L 465.8 37.4 C 465.8 37.4 465.76 38.46 465.8 38.5 C 466.2 37.8 466.9 37.4 467.8 37.4 C 469.3 37.4 470.4 38.5 470.4 40.1 Z M 469.7 40 C 469.7 38.8 468.9 38 467.7 38 C 466.6 38 465.8 38.8 465.8 40 C 465.8 41.3 466.6 42.1 467.7 42.1 C 468.9 42.1 469.7 41.3 469.7 40 Z M 471.9 35.3 L 472.6 35.3 L 472.6 42.7 L 471.9 42.7 L 471.9 35.3 Z M 479.1 40.3 C 479.1 40.3 474.7 40.3 474.7 40.3 C 474.8 41.4 475.6 42.1 476.8 42.1 C 477.4 42.1 478 41.9 478.4 41.4 C 478.4 41.4 478.8 41.9 478.8 41.9 C 478.3 42.4 477.6 42.7 476.8 42.7 C 475.1 42.7 474 41.6 474 40 C 474 38.5 475.1 37.4 476.6 37.4 C 478 37.4 479.1 38.5 479.1 40 C 479.1 40.1 479.1 40.2 479.1 40.3 Z M 474.7 39.7 C 474.7 39.7 478.4 39.7 478.4 39.7 C 478.3 38.7 477.6 38 476.6 38 C 475.5 38 474.8 38.7 474.7 39.7 Z M 481.2 42.2 C 481.2 42.3 481.1 42.5 481 42.8 C 481.03 42.76 480.6 44.1 480.6 44.1 L 480.1 44.1 C 480.1 44.1 480.47 42.69 480.5 42.7 C 480.3 42.6 480.1 42.4 480.1 42.2 C 480.1 41.9 480.3 41.6 480.6 41.6 C 481 41.6 481.2 41.9 481.2 42.2 Z " stroke="none" fill="#323132"/>
  </g>
  <g id="Polygon117370">
    <path d="M 8.3 11.8 L 11.7 11.8 L 11.7 13.1 L 8.3 13.1 L 8.3 11.8 Z M 8.5 15.7 L 6.8 15.7 L 6.8 8.7 L 12.1 8.7 L 12.1 10 L 8.5 10 L 8.5 15.7 Z M 15.6 15.8 C 15 15.8 14.5 15.6 14.1 15.4 C 13.6 15.2 13.3 14.8 13 14.4 C 12.8 14 12.6 13.5 12.6 13 C 12.6 12.4 12.8 12 13 11.6 C 13.3 11.1 13.6 10.8 14.1 10.6 C 14.5 10.3 15 10.2 15.6 10.2 C 16.2 10.2 16.7 10.3 17.1 10.6 C 17.6 10.8 17.9 11.1 18.2 11.5 C 18.4 12 18.5 12.4 18.5 13 C 18.5 13.5 18.4 14 18.2 14.4 C 17.9 14.8 17.6 15.2 17.1 15.4 C 16.7 15.6 16.2 15.8 15.6 15.8 Z M 15.6 14.5 C 15.9 14.5 16.1 14.4 16.3 14.3 C 16.5 14.2 16.7 14 16.8 13.8 C 16.9 13.6 17 13.3 17 13 C 17 12.7 16.9 12.4 16.8 12.2 C 16.7 12 16.5 11.8 16.3 11.7 C 16.1 11.6 15.9 11.5 15.6 11.5 C 15.3 11.5 15.1 11.6 14.9 11.7 C 14.7 11.8 14.5 12 14.4 12.2 C 14.3 12.4 14.2 12.7 14.2 13 C 14.2 13.3 14.3 13.6 14.4 13.8 C 14.5 14 14.7 14.2 14.9 14.3 C 15.1 14.4 15.3 14.5 15.6 14.5 Z M 19.6 15.7 L 19.6 10.3 L 21.1 10.3 L 21.1 11.8 C 21.1 11.8 20.9 11.38 20.9 11.4 C 21.1 11 21.3 10.7 21.7 10.5 C 22 10.3 22.5 10.2 23 10.2 C 23 10.2 23 11.7 23 11.7 C 22.9 11.7 22.8 11.6 22.8 11.6 C 22.7 11.6 22.7 11.6 22.6 11.6 C 22.2 11.6 21.8 11.8 21.6 12 C 21.3 12.2 21.2 12.6 21.2 13.1 C 21.18 13.14 21.2 15.7 21.2 15.7 L 19.6 15.7 Z M 26.5 15.8 C 25.9 15.8 25.4 15.6 25 15.4 C 24.5 15.2 24.2 14.8 23.9 14.4 C 23.6 14 23.5 13.5 23.5 13 C 23.5 12.4 23.6 12 23.9 11.6 C 24.2 11.1 24.5 10.8 25 10.6 C 25.4 10.3 25.9 10.2 26.5 10.2 C 27.1 10.2 27.6 10.3 28 10.6 C 28.4 10.8 28.7 11.1 28.9 11.6 C 28.9 11.6 27.7 12.2 27.7 12.2 C 27.6 12 27.4 11.8 27.2 11.7 C 27 11.6 26.8 11.5 26.5 11.5 C 26.2 11.5 26 11.6 25.8 11.7 C 25.6 11.8 25.4 12 25.3 12.2 C 25.2 12.4 25.1 12.7 25.1 13 C 25.1 13.3 25.2 13.6 25.3 13.8 C 25.4 14 25.6 14.2 25.8 14.3 C 26 14.4 26.2 14.5 26.5 14.5 C 26.8 14.5 27 14.4 27.2 14.3 C 27.4 14.2 27.6 14 27.7 13.7 C 27.7 13.7 28.9 14.4 28.9 14.4 C 28.7 14.8 28.4 15.2 28 15.4 C 27.6 15.6 27.1 15.8 26.5 15.8 Z M 32.5 15.8 C 31.9 15.8 31.4 15.6 30.9 15.4 C 30.4 15.2 30.1 14.8 29.8 14.4 C 29.6 14 29.5 13.5 29.5 13 C 29.5 12.4 29.6 12 29.8 11.6 C 30.1 11.1 30.4 10.8 30.9 10.6 C 31.3 10.3 31.8 10.2 32.3 10.2 C 32.9 10.2 33.3 10.3 33.7 10.6 C 34.2 10.8 34.5 11.1 34.8 11.5 C 35 11.9 35.1 12.4 35.1 13 C 35.1 13.1 35.1 13.1 35.1 13.2 C 35.1 13.3 35.1 13.4 35.1 13.4 C 35.09 13.43 30.7 13.4 30.7 13.4 L 30.7 12.5 L 34.3 12.5 C 34.3 12.5 33.67 12.79 33.7 12.8 C 33.7 12.5 33.6 12.3 33.5 12.1 C 33.4 11.9 33.2 11.7 33 11.6 C 32.8 11.5 32.6 11.4 32.3 11.4 C 32.1 11.4 31.8 11.5 31.6 11.6 C 31.4 11.7 31.3 11.9 31.2 12.1 C 31 12.3 31 12.5 31 12.8 C 31 12.8 31 13 31 13 C 31 13.3 31 13.6 31.2 13.8 C 31.3 14 31.5 14.2 31.7 14.3 C 32 14.5 32.2 14.5 32.6 14.5 C 32.9 14.5 33.1 14.5 33.3 14.4 C 33.5 14.3 33.7 14.2 33.9 14 C 33.9 14 34.7 14.9 34.7 14.9 C 34.5 15.2 34.2 15.4 33.8 15.5 C 33.4 15.7 33 15.8 32.5 15.8 Z " stroke="none" fill="#323132"/>
  </g>
</svg>