<?xml version="1.0" standalone="no"?>
<!DOCTYPE svg PUBLIC "-//W3C//DTD SVG 1.1//EN" "http://www.w3.org/Graphics/SVG/1.1/DTD/svg11.dtd">
<svg xmlns="http://www.w3.org/2000/svg" version="1.1" width="445.2px" height="91.5px" viewBox="0 0 445.2 91.5">
  <desc>affect the performance of auditory tasks by masking important audible cues interfere with mental processes (too loud ...</desc>
  <defs/>
  <g id="Polygon120429">
    <path d="M 32 62.8 L 32.7 62.8 L 32.7 70.2 L 32 70.2 L 32 62.8 Z M 39.2 67.8 C 39.2 67.8 34.8 67.8 34.8 67.8 C 34.9 68.9 35.8 69.6 36.9 69.6 C 37.5 69.6 38.1 69.4 38.5 68.9 C 38.5 68.9 38.9 69.4 38.9 69.4 C 38.4 70 37.7 70.3 36.9 70.3 C 35.2 70.3 34.1 69.1 34.1 67.6 C 34.1 66 35.2 64.9 36.7 64.9 C 38.2 64.9 39.2 66 39.2 67.6 C 39.2 67.6 39.2 67.7 39.2 67.8 Z M 34.8 67.3 C 34.8 67.3 38.6 67.3 38.6 67.3 C 38.5 66.2 37.7 65.5 36.7 65.5 C 35.7 65.5 34.9 66.2 34.8 67.3 Z M 44.6 66.9 C 44.62 66.95 44.6 70.2 44.6 70.2 L 43.9 70.2 C 43.9 70.2 43.94 69.39 43.9 69.4 C 43.6 69.9 43 70.3 42.1 70.3 C 40.9 70.3 40.2 69.6 40.2 68.7 C 40.2 67.9 40.7 67.2 42.2 67.2 C 42.24 67.24 43.9 67.2 43.9 67.2 C 43.9 67.2 43.91 66.92 43.9 66.9 C 43.9 66 43.4 65.5 42.4 65.5 C 41.7 65.5 41.1 65.8 40.7 66.1 C 40.7 66.1 40.4 65.6 40.4 65.6 C 40.9 65.2 41.7 64.9 42.5 64.9 C 43.9 64.9 44.6 65.6 44.6 66.9 Z M 43.9 68.6 C 43.91 68.63 43.9 67.8 43.9 67.8 C 43.9 67.8 42.26 67.77 42.3 67.8 C 41.2 67.8 40.9 68.2 40.9 68.7 C 40.9 69.3 41.4 69.7 42.2 69.7 C 43 69.7 43.6 69.3 43.9 68.6 Z M 51.3 62.8 L 51.3 70.2 L 50.7 70.2 C 50.7 70.2 50.65 69.17 50.7 69.2 C 50.2 69.9 49.5 70.3 48.6 70.3 C 47.1 70.3 46 69.2 46 67.6 C 46 66 47.1 64.9 48.6 64.9 C 49.5 64.9 50.2 65.3 50.6 65.9 C 50.62 65.95 50.6 62.8 50.6 62.8 L 51.3 62.8 Z M 50.6 67.6 C 50.6 66.3 49.8 65.5 48.7 65.5 C 47.6 65.5 46.7 66.3 46.7 67.6 C 46.7 68.8 47.6 69.6 48.7 69.6 C 49.8 69.6 50.6 68.8 50.6 67.6 Z M 58.7 69.9 C 58.4 70.1 58 70.3 57.6 70.3 C 56.6 70.3 56.1 69.7 56.1 68.7 C 56.05 68.73 56.1 65.5 56.1 65.5 L 55.1 65.5 L 55.1 64.9 L 56.1 64.9 L 56.1 63.8 L 56.8 63.8 L 56.8 64.9 L 58.4 64.9 L 58.4 65.5 L 56.8 65.5 C 56.8 65.5 56.76 68.69 56.8 68.7 C 56.8 69.3 57.1 69.6 57.7 69.6 C 58 69.6 58.3 69.6 58.5 69.4 C 58.5 69.4 58.7 69.9 58.7 69.9 Z M 59.3 67.6 C 59.3 66 60.4 64.9 61.9 64.9 C 63.5 64.9 64.6 66 64.6 67.6 C 64.6 69.1 63.5 70.3 61.9 70.3 C 60.4 70.3 59.3 69.1 59.3 67.6 Z M 63.9 67.6 C 63.9 66.3 63.1 65.5 61.9 65.5 C 60.8 65.5 60 66.3 60 67.6 C 60 68.8 60.8 69.6 61.9 69.6 C 63.1 69.6 63.9 68.8 63.9 67.6 Z M 72.6 66.9 C 72.64 66.95 72.6 70.2 72.6 70.2 L 72 70.2 C 72 70.2 71.96 69.39 72 69.4 C 71.6 69.9 71 70.3 70.2 70.3 C 69 70.3 68.2 69.6 68.2 68.7 C 68.2 67.9 68.8 67.2 70.3 67.2 C 70.26 67.24 71.9 67.2 71.9 67.2 C 71.9 67.2 71.93 66.92 71.9 66.9 C 71.9 66 71.4 65.5 70.4 65.5 C 69.8 65.5 69.1 65.8 68.7 66.1 C 68.7 66.1 68.4 65.6 68.4 65.6 C 68.9 65.2 69.7 64.9 70.5 64.9 C 71.9 64.9 72.6 65.6 72.6 66.9 Z M 71.9 68.6 C 71.93 68.63 71.9 67.8 71.9 67.8 C 71.9 67.8 70.28 67.77 70.3 67.8 C 69.3 67.8 68.9 68.2 68.9 68.7 C 68.9 69.3 69.4 69.7 70.3 69.7 C 71.1 69.7 71.7 69.3 71.9 68.6 Z M 79.8 64.9 C 79.8 64.9 79.8 65.6 79.8 65.6 C 79.8 65.6 79.7 65.6 79.7 65.6 C 78.6 65.6 77.9 66.3 77.9 67.5 C 77.9 67.53 77.9 70.2 77.9 70.2 L 77.2 70.2 L 77.2 64.9 L 77.9 64.9 C 77.9 64.9 77.87 65.98 77.9 66 C 78.2 65.3 78.9 64.9 79.8 64.9 Z M 85.6 67.8 C 85.6 67.8 81.2 67.8 81.2 67.8 C 81.3 68.9 82.1 69.6 83.3 69.6 C 83.9 69.6 84.5 69.4 84.9 68.9 C 84.9 68.9 85.3 69.4 85.3 69.4 C 84.8 70 84.1 70.3 83.2 70.3 C 81.6 70.3 80.5 69.1 80.5 67.6 C 80.5 66 81.6 64.9 83 64.9 C 84.5 64.9 85.6 66 85.6 67.6 C 85.6 67.6 85.6 67.7 85.6 67.8 Z M 81.2 67.3 C 81.2 67.3 84.9 67.3 84.9 67.3 C 84.8 66.2 84.1 65.5 83 65.5 C 82 65.5 81.3 66.2 81.2 67.3 Z M 91.9 62.8 L 91.9 70.2 L 91.2 70.2 C 91.2 70.2 91.25 69.17 91.2 69.2 C 90.8 69.9 90.1 70.3 89.2 70.3 C 87.7 70.3 86.6 69.2 86.6 67.6 C 86.6 66 87.7 64.9 89.2 64.9 C 90.1 64.9 90.8 65.3 91.2 65.9 C 91.22 65.95 91.2 62.8 91.2 62.8 L 91.9 62.8 Z M 91.2 67.6 C 91.2 66.3 90.4 65.5 89.3 65.5 C 88.2 65.5 87.3 66.3 87.3 67.6 C 87.3 68.8 88.2 69.6 89.3 69.6 C 90.4 69.6 91.2 68.8 91.2 67.6 Z M 98.5 64.9 L 98.5 70.2 L 97.9 70.2 C 97.9 70.2 97.85 69.25 97.9 69.2 C 97.5 69.9 96.8 70.3 96 70.3 C 94.6 70.3 93.7 69.5 93.7 68 C 93.74 68 93.7 64.9 93.7 64.9 L 94.4 64.9 C 94.4 64.9 94.45 67.93 94.4 67.9 C 94.4 69 95 69.6 96 69.6 C 97.1 69.6 97.8 68.9 97.8 67.7 C 97.82 67.71 97.8 64.9 97.8 64.9 L 98.5 64.9 Z M 100 67.6 C 100 66 101.1 64.9 102.7 64.9 C 103.6 64.9 104.3 65.3 104.7 65.9 C 104.7 65.9 104.2 66.3 104.2 66.3 C 103.9 65.8 103.3 65.5 102.7 65.5 C 101.5 65.5 100.7 66.3 100.7 67.6 C 100.7 68.8 101.5 69.6 102.7 69.6 C 103.3 69.6 103.9 69.4 104.2 68.9 C 104.2 68.9 104.7 69.2 104.7 69.2 C 104.3 69.9 103.6 70.3 102.7 70.3 C 101.1 70.3 100 69.1 100 67.6 Z M 109.1 69.9 C 108.8 70.1 108.4 70.3 108 70.3 C 107 70.3 106.4 69.7 106.4 68.7 C 106.44 68.73 106.4 65.5 106.4 65.5 L 105.5 65.5 L 105.5 64.9 L 106.4 64.9 L 106.4 63.8 L 107.2 63.8 L 107.2 64.9 L 108.8 64.9 L 108.8 65.5 L 107.2 65.5 C 107.2 65.5 107.15 68.69 107.2 68.7 C 107.2 69.3 107.5 69.6 108.1 69.6 C 108.4 69.6 108.6 69.6 108.8 69.4 C 108.8 69.4 109.1 69.9 109.1 69.9 Z M 110.1 63.3 C 110.1 63 110.4 62.8 110.6 62.8 C 110.9 62.8 111.2 63 111.2 63.3 C 111.2 63.6 110.9 63.8 110.6 63.8 C 110.4 63.8 110.1 63.6 110.1 63.3 Z M 110.3 64.9 L 111 64.9 L 111 70.2 L 110.3 70.2 L 110.3 64.9 Z M 112.4 67.6 C 112.4 66 113.5 64.9 115.1 64.9 C 116.6 64.9 117.7 66 117.7 67.6 C 117.7 69.1 116.6 70.3 115.1 70.3 C 113.5 70.3 112.4 69.1 112.4 67.6 Z M 117 67.6 C 117 66.3 116.2 65.5 115.1 65.5 C 113.9 65.5 113.1 66.3 113.1 67.6 C 113.1 68.8 113.9 69.6 115.1 69.6 C 116.2 69.6 117 68.8 117 67.6 Z M 124 67.2 C 124 67.16 124 70.2 124 70.2 L 123.3 70.2 C 123.3 70.2 123.29 67.23 123.3 67.2 C 123.3 66.1 122.7 65.5 121.7 65.5 C 120.6 65.5 119.9 66.2 119.9 67.4 C 119.87 67.45 119.9 70.2 119.9 70.2 L 119.2 70.2 L 119.2 64.9 L 119.8 64.9 C 119.8 64.9 119.84 65.92 119.8 65.9 C 120.2 65.3 120.9 64.9 121.8 64.9 C 123.1 64.9 124 65.6 124 67.2 Z M 128.4 63.3 C 128.4 63 128.6 62.8 128.9 62.8 C 129.2 62.8 129.4 63 129.4 63.3 C 129.4 63.6 129.2 63.8 128.9 63.8 C 128.6 63.8 128.4 63.6 128.4 63.3 Z M 128.6 64.9 L 129.3 64.9 L 129.3 70.2 L 128.6 70.2 L 128.6 64.9 Z M 135.9 67.2 C 135.94 67.16 135.9 70.2 135.9 70.2 L 135.2 70.2 C 135.2 70.2 135.23 67.23 135.2 67.2 C 135.2 66.1 134.7 65.5 133.7 65.5 C 132.5 65.5 131.8 66.2 131.8 67.4 C 131.81 67.45 131.8 70.2 131.8 70.2 L 131.1 70.2 L 131.1 64.9 L 131.8 64.9 C 131.8 64.9 131.78 65.92 131.8 65.9 C 132.2 65.3 132.9 64.9 133.8 64.9 C 135.1 64.9 135.9 65.6 135.9 67.2 Z M 139.8 69.6 C 139.8 69.6 140.1 69 140.1 69 C 140.5 69.4 141.2 69.6 142 69.6 C 143 69.6 143.4 69.3 143.4 68.8 C 143.4 67.4 140 68.5 140 66.4 C 140 65.5 140.7 64.9 142 64.9 C 142.7 64.9 143.5 65.1 143.9 65.4 C 143.9 65.4 143.6 66 143.6 66 C 143.1 65.6 142.6 65.5 142 65.5 C 141.1 65.5 140.7 65.9 140.7 66.4 C 140.7 67.8 144.1 66.7 144.1 68.8 C 144.1 69.7 143.3 70.3 141.9 70.3 C 141 70.3 140.2 70 139.8 69.6 Z M 149.5 66.9 C 149.46 66.95 149.5 70.2 149.5 70.2 L 148.8 70.2 C 148.8 70.2 148.78 69.39 148.8 69.4 C 148.5 69.9 147.8 70.3 147 70.3 C 145.8 70.3 145 69.6 145 68.7 C 145 67.9 145.6 67.2 147.1 67.2 C 147.08 67.24 148.7 67.2 148.7 67.2 C 148.7 67.2 148.75 66.92 148.7 66.9 C 148.7 66 148.2 65.5 147.3 65.5 C 146.6 65.5 145.9 65.8 145.5 66.1 C 145.5 66.1 145.2 65.6 145.2 65.6 C 145.7 65.2 146.5 64.9 147.3 64.9 C 148.7 64.9 149.5 65.6 149.5 66.9 Z M 148.7 68.6 C 148.75 68.63 148.7 67.8 148.7 67.8 C 148.7 67.8 147.1 67.77 147.1 67.8 C 146.1 67.8 145.7 68.2 145.7 68.7 C 145.7 69.3 146.2 69.7 147.1 69.7 C 147.9 69.7 148.5 69.3 148.7 68.6 Z M 154 69.9 C 153.7 70.1 153.3 70.3 152.9 70.3 C 151.9 70.3 151.4 69.7 151.4 68.7 C 151.35 68.73 151.4 65.5 151.4 65.5 L 150.4 65.5 L 150.4 64.9 L 151.4 64.9 L 151.4 63.8 L 152.1 63.8 L 152.1 64.9 L 153.7 64.9 L 153.7 65.5 L 152.1 65.5 C 152.1 65.5 152.06 68.69 152.1 68.7 C 152.1 69.3 152.4 69.6 153 69.6 C 153.3 69.6 153.6 69.6 153.8 69.4 C 153.8 69.4 154 69.9 154 69.9 Z M 155 63.3 C 155 63 155.3 62.8 155.6 62.8 C 155.8 62.8 156.1 63 156.1 63.3 C 156.1 63.6 155.9 63.8 155.6 63.8 C 155.3 63.8 155 63.6 155 63.3 Z M 155.2 64.9 L 155.9 64.9 L 155.9 70.2 L 155.2 70.2 L 155.2 64.9 Z M 157.2 69.6 C 157.2 69.6 157.5 69 157.5 69 C 157.9 69.4 158.6 69.6 159.4 69.6 C 160.4 69.6 160.8 69.3 160.8 68.8 C 160.8 67.4 157.4 68.5 157.4 66.4 C 157.4 65.5 158.1 64.9 159.4 64.9 C 160.1 64.9 160.9 65.1 161.3 65.4 C 161.3 65.4 161 66 161 66 C 160.5 65.6 160 65.5 159.4 65.5 C 158.5 65.5 158.1 65.9 158.1 66.4 C 158.1 67.8 161.5 66.7 161.5 68.8 C 161.5 69.7 160.7 70.3 159.3 70.3 C 158.4 70.3 157.6 70 157.2 69.6 Z M 163.8 64.3 C 163.8 64.33 163.8 64.9 163.8 64.9 L 165.4 64.9 L 165.4 65.5 L 163.8 65.5 L 163.8 70.2 L 163.1 70.2 L 163.1 65.5 L 162.2 65.5 L 162.2 64.9 L 163.1 64.9 C 163.1 64.9 163.11 64.3 163.1 64.3 C 163.1 63.4 163.7 62.7 164.7 62.7 C 165.1 62.7 165.5 62.8 165.8 63.1 C 165.8 63.1 165.5 63.6 165.5 63.6 C 165.3 63.4 165 63.3 164.7 63.3 C 164.1 63.3 163.8 63.7 163.8 64.3 Z M 170.6 66.9 C 170.56 66.95 170.6 70.2 170.6 70.2 L 169.9 70.2 C 169.9 70.2 169.88 69.39 169.9 69.4 C 169.6 69.9 168.9 70.3 168.1 70.3 C 166.9 70.3 166.1 69.6 166.1 68.7 C 166.1 67.9 166.7 67.2 168.2 67.2 C 168.18 67.24 169.8 67.2 169.8 67.2 C 169.8 67.2 169.85 66.92 169.8 66.9 C 169.8 66 169.3 65.5 168.4 65.5 C 167.7 65.5 167 65.8 166.6 66.1 C 166.6 66.1 166.3 65.6 166.3 65.6 C 166.8 65.2 167.6 64.9 168.4 64.9 C 169.8 64.9 170.6 65.6 170.6 66.9 Z M 169.8 68.6 C 169.85 68.63 169.8 67.8 169.8 67.8 C 169.8 67.8 168.2 67.77 168.2 67.8 C 167.2 67.8 166.8 68.2 166.8 68.7 C 166.8 69.3 167.3 69.7 168.2 69.7 C 169 69.7 169.6 69.3 169.8 68.6 Z M 171.9 67.6 C 171.9 66 173.1 64.9 174.6 64.9 C 175.5 64.9 176.3 65.3 176.7 65.9 C 176.7 65.9 176.2 66.3 176.2 66.3 C 175.8 65.8 175.3 65.5 174.6 65.5 C 173.5 65.5 172.7 66.3 172.7 67.6 C 172.7 68.8 173.5 69.6 174.6 69.6 C 175.3 69.6 175.8 69.4 176.2 68.9 C 176.2 68.9 176.7 69.2 176.7 69.2 C 176.3 69.9 175.5 70.3 174.6 70.3 C 173.1 70.3 171.9 69.1 171.9 67.6 Z M 181 69.9 C 180.8 70.1 180.3 70.3 179.9 70.3 C 178.9 70.3 178.4 69.7 178.4 68.7 C 178.4 68.73 178.4 65.5 178.4 65.5 L 177.5 65.5 L 177.5 64.9 L 178.4 64.9 L 178.4 63.8 L 179.1 63.8 L 179.1 64.9 L 180.7 64.9 L 180.7 65.5 L 179.1 65.5 C 179.1 65.5 179.11 68.69 179.1 68.7 C 179.1 69.3 179.4 69.6 180 69.6 C 180.3 69.6 180.6 69.6 180.8 69.4 C 180.8 69.4 181 69.9 181 69.9 Z M 182.1 63.3 C 182.1 63 182.3 62.8 182.6 62.8 C 182.9 62.8 183.1 63 183.1 63.3 C 183.1 63.6 182.9 63.8 182.6 63.8 C 182.3 63.8 182.1 63.6 182.1 63.3 Z M 182.2 64.9 L 182.9 64.9 L 182.9 70.2 L 182.2 70.2 L 182.2 64.9 Z M 184.3 67.6 C 184.3 66 185.5 64.9 187 64.9 C 188.6 64.9 189.7 66 189.7 67.6 C 189.7 69.1 188.6 70.3 187 70.3 C 185.5 70.3 184.3 69.1 184.3 67.6 Z M 189 67.6 C 189 66.3 188.1 65.5 187 65.5 C 185.9 65.5 185.1 66.3 185.1 67.6 C 185.1 68.8 185.9 69.6 187 69.6 C 188.1 69.6 189 68.8 189 67.6 Z M 196 67.2 C 195.96 67.16 196 70.2 196 70.2 L 195.2 70.2 C 195.2 70.2 195.25 67.23 195.2 67.2 C 195.2 66.1 194.7 65.5 193.7 65.5 C 192.5 65.5 191.8 66.2 191.8 67.4 C 191.83 67.45 191.8 70.2 191.8 70.2 L 191.1 70.2 L 191.1 64.9 L 191.8 64.9 C 191.8 64.9 191.8 65.92 191.8 65.9 C 192.2 65.3 192.9 64.9 193.8 64.9 C 195.1 64.9 196 65.6 196 67.2 Z M 208.2 64.9 L 206.2 70.2 L 205.6 70.2 L 203.9 65.9 L 202.2 70.2 L 201.6 70.2 L 199.6 64.9 L 200.3 64.9 L 201.9 69.4 L 203.6 64.9 L 204.2 64.9 L 205.9 69.4 L 207.6 64.9 L 208.2 64.9 Z M 209.2 63.3 C 209.2 63 209.4 62.8 209.7 62.8 C 210 62.8 210.2 63 210.2 63.3 C 210.2 63.6 210 63.8 209.7 63.8 C 209.4 63.8 209.2 63.6 209.2 63.3 Z M 209.3 64.9 L 210 64.9 L 210 70.2 L 209.3 70.2 L 209.3 64.9 Z M 214.7 69.9 C 214.5 70.1 214 70.3 213.6 70.3 C 212.6 70.3 212.1 69.7 212.1 68.7 C 212.09 68.73 212.1 65.5 212.1 65.5 L 211.1 65.5 L 211.1 64.9 L 212.1 64.9 L 212.1 63.8 L 212.8 63.8 L 212.8 64.9 L 214.4 64.9 L 214.4 65.5 L 212.8 65.5 C 212.8 65.5 212.79 68.69 212.8 68.7 C 212.8 69.3 213.1 69.6 213.7 69.6 C 214 69.6 214.3 69.6 214.5 69.4 C 214.5 69.4 214.7 69.9 214.7 69.9 Z M 220.8 67.2 C 220.76 67.16 220.8 70.2 220.8 70.2 L 220.1 70.2 C 220.1 70.2 220.05 67.23 220.1 67.2 C 220.1 66.1 219.5 65.5 218.5 65.5 C 217.3 65.5 216.6 66.2 216.6 67.4 C 216.63 67.45 216.6 70.2 216.6 70.2 L 215.9 70.2 L 215.9 62.8 L 216.6 62.8 C 216.6 62.8 216.63 65.87 216.6 65.9 C 217 65.3 217.7 64.9 218.6 64.9 C 219.9 64.9 220.8 65.6 220.8 67.2 Z M 228.1 69.9 C 227.8 70.1 227.4 70.3 227 70.3 C 226 70.3 225.4 69.7 225.4 68.7 C 225.43 68.73 225.4 65.5 225.4 65.5 L 224.5 65.5 L 224.5 64.9 L 225.4 64.9 L 225.4 63.8 L 226.1 63.8 L 226.1 64.9 L 227.7 64.9 L 227.7 65.5 L 226.1 65.5 C 226.1 65.5 226.14 68.69 226.1 68.7 C 226.1 69.3 226.5 69.6 227.1 69.6 C 227.3 69.6 227.6 69.6 227.8 69.4 C 227.8 69.4 228.1 69.9 228.1 69.9 Z M 234.1 67.2 C 234.11 67.16 234.1 70.2 234.1 70.2 L 233.4 70.2 C 233.4 70.2 233.4 67.23 233.4 67.2 C 233.4 66.1 232.8 65.5 231.8 65.5 C 230.7 65.5 230 66.2 230 67.4 C 229.98 67.45 230 70.2 230 70.2 L 229.3 70.2 L 229.3 62.8 L 230 62.8 C 230 62.8 229.98 65.87 230 65.9 C 230.4 65.3 231.1 64.9 232 64.9 C 233.2 64.9 234.1 65.6 234.1 67.2 Z M 240.6 67.8 C 240.6 67.8 236.2 67.8 236.2 67.8 C 236.3 68.9 237.1 69.6 238.3 69.6 C 238.9 69.6 239.5 69.4 239.9 68.9 C 239.9 68.9 240.3 69.4 240.3 69.4 C 239.8 70 239.1 70.3 238.3 70.3 C 236.6 70.3 235.5 69.1 235.5 67.6 C 235.5 66 236.6 64.9 238.1 64.9 C 239.5 64.9 240.6 66 240.6 67.6 C 240.6 67.6 240.6 67.7 240.6 67.8 Z M 236.2 67.3 C 236.2 67.3 239.9 67.3 239.9 67.3 C 239.8 66.2 239.1 65.5 238.1 65.5 C 237 65.5 236.3 66.2 236.2 67.3 Z M 252.4 64.9 L 250.4 70.2 L 249.7 70.2 L 248.1 65.9 L 246.4 70.2 L 245.8 70.2 L 243.8 64.9 L 244.5 64.9 L 246.1 69.4 L 247.8 64.9 L 248.4 64.9 L 250.1 69.4 L 251.8 64.9 L 252.4 64.9 Z M 252.9 67.6 C 252.9 66 254 64.9 255.6 64.9 C 257.1 64.9 258.2 66 258.2 67.6 C 258.2 69.1 257.1 70.3 255.6 70.3 C 254 70.3 252.9 69.1 252.9 67.6 Z M 257.5 67.6 C 257.5 66.3 256.7 65.5 255.6 65.5 C 254.4 65.5 253.6 66.3 253.6 67.6 C 253.6 68.8 254.4 69.6 255.6 69.6 C 256.7 69.6 257.5 68.8 257.5 67.6 Z M 262.3 64.9 C 262.3 64.9 262.3 65.6 262.3 65.6 C 262.2 65.6 262.2 65.6 262.1 65.6 C 261 65.6 260.4 66.3 260.4 67.5 C 260.36 67.53 260.4 70.2 260.4 70.2 L 259.7 70.2 L 259.7 64.9 L 260.3 64.9 C 260.3 64.9 260.33 65.98 260.3 66 C 260.7 65.3 261.3 64.9 262.3 64.9 Z M 265.5 67.6 L 264.2 68.7 L 264.2 70.2 L 263.5 70.2 L 263.5 62.8 L 264.2 62.8 L 264.2 67.8 L 267.4 64.9 L 268.3 64.9 L 266 67.1 L 268.5 70.2 L 267.6 70.2 L 265.5 67.6 Z M 269.4 63.3 C 269.4 63 269.6 62.8 269.9 62.8 C 270.2 62.8 270.4 63 270.4 63.3 C 270.4 63.6 270.2 63.8 269.9 63.8 C 269.6 63.8 269.4 63.6 269.4 63.3 Z M 269.6 64.9 L 270.3 64.9 L 270.3 70.2 L 269.6 70.2 L 269.6 64.9 Z M 276.9 67.2 C 276.94 67.16 276.9 70.2 276.9 70.2 L 276.2 70.2 C 276.2 70.2 276.23 67.23 276.2 67.2 C 276.2 66.1 275.7 65.5 274.7 65.5 C 273.5 65.5 272.8 66.2 272.8 67.4 C 272.81 67.45 272.8 70.2 272.8 70.2 L 272.1 70.2 L 272.1 64.9 L 272.8 64.9 C 272.8 64.9 272.78 65.92 272.8 65.9 C 273.2 65.3 273.9 64.9 274.8 64.9 C 276.1 64.9 276.9 65.6 276.9 67.2 Z M 283.7 64.9 C 283.7 64.9 283.71 69.57 283.7 69.6 C 283.7 71.4 282.8 72.2 281.1 72.2 C 280.1 72.2 279.2 71.9 278.6 71.4 C 278.6 71.4 279 70.8 279 70.8 C 279.5 71.3 280.2 71.6 281.1 71.6 C 282.4 71.6 283 71 283 69.7 C 283 69.7 283 69 283 69 C 282.6 69.7 281.8 70 280.9 70 C 279.4 70 278.3 69 278.3 67.4 C 278.3 65.9 279.4 64.9 280.9 64.9 C 281.8 64.9 282.6 65.3 283 66 C 283.03 65.96 283 64.9 283 64.9 L 283.7 64.9 Z M 283 67.4 C 283 66.3 282.2 65.5 281 65.5 C 279.9 65.5 279 66.3 279 67.4 C 279 68.6 279.9 69.4 281 69.4 C 282.2 69.4 283 68.6 283 67.4 Z M 292.9 67.8 C 292.9 67.8 288.5 67.8 288.5 67.8 C 288.6 68.9 289.4 69.6 290.6 69.6 C 291.2 69.6 291.8 69.4 292.2 68.9 C 292.2 68.9 292.6 69.4 292.6 69.4 C 292.1 70 291.4 70.3 290.5 70.3 C 288.9 70.3 287.8 69.1 287.8 67.6 C 287.8 66 288.9 64.9 290.4 64.9 C 291.8 64.9 292.9 66 292.9 67.6 C 292.9 67.6 292.9 67.7 292.9 67.8 Z M 288.5 67.3 C 288.5 67.3 292.2 67.3 292.2 67.3 C 292.1 66.2 291.4 65.5 290.4 65.5 C 289.3 65.5 288.6 66.2 288.5 67.3 Z M 299.1 67.2 C 299.15 67.16 299.1 70.2 299.1 70.2 L 298.4 70.2 C 298.4 70.2 298.44 67.23 298.4 67.2 C 298.4 66.1 297.9 65.5 296.9 65.5 C 295.7 65.5 295 66.2 295 67.4 C 295.02 67.45 295 70.2 295 70.2 L 294.3 70.2 L 294.3 64.9 L 295 64.9 C 295 64.9 294.99 65.92 295 65.9 C 295.4 65.3 296.1 64.9 297 64.9 C 298.3 64.9 299.1 65.6 299.1 67.2 Z M 305.3 64.9 L 302.9 70.2 L 302.2 70.2 L 299.9 64.9 L 300.6 64.9 L 302.6 69.4 L 304.6 64.9 L 305.3 64.9 Z M 306.2 63.3 C 306.2 63 306.4 62.8 306.7 62.8 C 307 62.8 307.2 63 307.2 63.3 C 307.2 63.6 307 63.8 306.7 63.8 C 306.4 63.8 306.2 63.6 306.2 63.3 Z M 306.3 64.9 L 307 64.9 L 307 70.2 L 306.3 70.2 L 306.3 64.9 Z M 311.5 64.9 C 311.5 64.9 311.5 65.6 311.5 65.6 C 311.5 65.6 311.4 65.6 311.4 65.6 C 310.3 65.6 309.6 66.3 309.6 67.5 C 309.59 67.53 309.6 70.2 309.6 70.2 L 308.9 70.2 L 308.9 64.9 L 309.6 64.9 C 309.6 64.9 309.56 65.98 309.6 66 C 309.9 65.3 310.6 64.9 311.5 64.9 Z M 312.1 67.6 C 312.1 66 313.3 64.9 314.8 64.9 C 316.4 64.9 317.5 66 317.5 67.6 C 317.5 69.1 316.4 70.3 314.8 70.3 C 313.3 70.3 312.1 69.1 312.1 67.6 Z M 316.8 67.6 C 316.8 66.3 315.9 65.5 314.8 65.5 C 313.7 65.5 312.9 66.3 312.9 67.6 C 312.9 68.8 313.7 69.6 314.8 69.6 C 315.9 69.6 316.8 68.8 316.8 67.6 Z M 323.8 67.2 C 323.76 67.16 323.8 70.2 323.8 70.2 L 323.1 70.2 C 323.1 70.2 323.05 67.23 323.1 67.2 C 323.1 66.1 322.5 65.5 321.5 65.5 C 320.3 65.5 319.6 66.2 319.6 67.4 C 319.63 67.45 319.6 70.2 319.6 70.2 L 318.9 70.2 L 318.9 64.9 L 319.6 64.9 C 319.6 64.9 319.6 65.92 319.6 65.9 C 320 65.3 320.7 64.9 321.6 64.9 C 322.9 64.9 323.8 65.6 323.8 67.2 Z M 334.3 67.2 C 334.25 67.16 334.3 70.2 334.3 70.2 L 333.5 70.2 C 333.5 70.2 333.55 67.23 333.5 67.2 C 333.5 66.1 333 65.5 332 65.5 C 331 65.5 330.3 66.2 330.3 67.4 C 330.27 67.45 330.3 70.2 330.3 70.2 L 329.6 70.2 C 329.6 70.2 329.57 67.23 329.6 67.2 C 329.6 66.1 329 65.5 328 65.5 C 327 65.5 326.3 66.2 326.3 67.4 C 326.28 67.45 326.3 70.2 326.3 70.2 L 325.6 70.2 L 325.6 64.9 L 326.3 64.9 C 326.3 64.9 326.25 65.91 326.3 65.9 C 326.6 65.3 327.3 64.9 328.2 64.9 C 329.1 64.9 329.7 65.3 330.1 66 C 330.4 65.3 331.2 64.9 332.1 64.9 C 333.4 64.9 334.3 65.6 334.3 67.2 Z M 340.8 67.8 C 340.8 67.8 336.4 67.8 336.4 67.8 C 336.4 68.9 337.3 69.6 338.4 69.6 C 339.1 69.6 339.6 69.4 340 68.9 C 340 68.9 340.4 69.4 340.4 69.4 C 340 70 339.2 70.3 338.4 70.3 C 336.8 70.3 335.6 69.1 335.6 67.6 C 335.6 66 336.7 64.9 338.2 64.9 C 339.7 64.9 340.8 66 340.8 67.6 C 340.8 67.6 340.8 67.7 340.8 67.8 Z M 336.4 67.3 C 336.4 67.3 340.1 67.3 340.1 67.3 C 340 66.2 339.2 65.5 338.2 65.5 C 337.2 65.5 336.4 66.2 336.4 67.3 Z M 347 67.2 C 347.01 67.16 347 70.2 347 70.2 L 346.3 70.2 C 346.3 70.2 346.3 67.23 346.3 67.2 C 346.3 66.1 345.7 65.5 344.7 65.5 C 343.6 65.5 342.9 66.2 342.9 67.4 C 342.88 67.45 342.9 70.2 342.9 70.2 L 342.2 70.2 L 342.2 64.9 L 342.8 64.9 C 342.8 64.9 342.85 65.92 342.8 65.9 C 343.2 65.3 343.9 64.9 344.9 64.9 C 346.1 64.9 347 65.6 347 67.2 Z M 351.5 69.9 C 351.3 70.1 350.8 70.3 350.4 70.3 C 349.4 70.3 348.9 69.7 348.9 68.7 C 348.89 68.73 348.9 65.5 348.9 65.5 L 348 65.5 L 348 64.9 L 348.9 64.9 L 348.9 63.8 L 349.6 63.8 L 349.6 64.9 L 351.2 64.9 L 351.2 65.5 L 349.6 65.5 C 349.6 65.5 349.6 68.69 349.6 68.7 C 349.6 69.3 349.9 69.6 350.5 69.6 C 350.8 69.6 351.1 69.6 351.3 69.4 C 351.3 69.4 351.5 69.9 351.5 69.9 Z M 352.5 69.7 C 352.5 69.4 352.8 69.2 353.1 69.2 C 353.3 69.2 353.6 69.4 353.6 69.7 C 353.6 70 353.3 70.3 353.1 70.3 C 352.8 70.3 352.5 70 352.5 69.7 Z " stroke="none" fill="#323132"/>
  </g>
  <g id="Polygon120428">
    <path d="M 20.4 67.5 L 16.2 69.7 L 16.2 65.4 L 20.4 67.5 Z " stroke="none" fill="#a243ff"/>
  </g>
  <g id="Polygon120427">
    <path d="M 31.8 42.3 C 31.8 42 32.1 41.8 32.3 41.8 C 32.6 41.8 32.9 42 32.9 42.3 C 32.9 42.6 32.6 42.8 32.3 42.8 C 32.1 42.8 31.8 42.6 31.8 42.3 Z M 32 43.9 L 32.7 43.9 L 32.7 49.2 L 32 49.2 L 32 43.9 Z M 39.4 46.2 C 39.38 46.16 39.4 49.2 39.4 49.2 L 38.7 49.2 C 38.7 49.2 38.67 46.23 38.7 46.2 C 38.7 45.1 38.1 44.5 37.1 44.5 C 36 44.5 35.3 45.2 35.3 46.4 C 35.25 46.45 35.3 49.2 35.3 49.2 L 34.5 49.2 L 34.5 43.9 L 35.2 43.9 C 35.2 43.9 35.22 44.92 35.2 44.9 C 35.6 44.3 36.3 43.9 37.2 43.9 C 38.5 43.9 39.4 44.6 39.4 46.2 Z M 43.9 48.9 C 43.6 49.1 43.2 49.3 42.8 49.3 C 41.8 49.3 41.3 48.7 41.3 47.7 C 41.26 47.73 41.3 44.5 41.3 44.5 L 40.3 44.5 L 40.3 43.9 L 41.3 43.9 L 41.3 42.8 L 42 42.8 L 42 43.9 L 43.6 43.9 L 43.6 44.5 L 42 44.5 C 42 44.5 41.97 47.69 42 47.7 C 42 48.3 42.3 48.6 42.9 48.6 C 43.2 48.6 43.5 48.6 43.7 48.4 C 43.7 48.4 43.9 48.9 43.9 48.9 Z M 49.6 46.8 C 49.6 46.8 45.2 46.8 45.2 46.8 C 45.3 47.9 46.1 48.6 47.2 48.6 C 47.9 48.6 48.5 48.4 48.9 47.9 C 48.9 47.9 49.3 48.4 49.3 48.4 C 48.8 49 48.1 49.3 47.2 49.3 C 45.6 49.3 44.5 48.1 44.5 46.6 C 44.5 45 45.6 43.9 47 43.9 C 48.5 43.9 49.6 45 49.6 46.6 C 49.6 46.6 49.6 46.7 49.6 46.8 Z M 45.2 46.3 C 45.2 46.3 48.9 46.3 48.9 46.3 C 48.8 45.2 48.1 44.5 47 44.5 C 46 44.5 45.3 45.2 45.2 46.3 Z M 53.6 43.9 C 53.6 43.9 53.6 44.6 53.6 44.6 C 53.6 44.6 53.5 44.6 53.5 44.6 C 52.4 44.6 51.7 45.3 51.7 46.5 C 51.7 46.53 51.7 49.2 51.7 49.2 L 51 49.2 L 51 43.9 L 51.7 43.9 C 51.7 43.9 51.67 44.98 51.7 45 C 52 44.3 52.7 43.9 53.6 43.9 Z M 56.1 43.3 C 56.07 43.33 56.1 43.9 56.1 43.9 L 57.7 43.9 L 57.7 44.5 L 56.1 44.5 L 56.1 49.2 L 55.4 49.2 L 55.4 44.5 L 54.4 44.5 L 54.4 43.9 L 55.4 43.9 C 55.4 43.9 55.38 43.3 55.4 43.3 C 55.4 42.4 55.9 41.7 57 41.7 C 57.4 41.7 57.8 41.8 58 42.1 C 58 42.1 57.8 42.6 57.8 42.6 C 57.6 42.4 57.3 42.3 57 42.3 C 56.4 42.3 56.1 42.7 56.1 43.3 Z M 63.2 46.8 C 63.2 46.8 58.8 46.8 58.8 46.8 C 58.9 47.9 59.7 48.6 60.9 48.6 C 61.5 48.6 62.1 48.4 62.5 47.9 C 62.5 47.9 62.9 48.4 62.9 48.4 C 62.4 49 61.7 49.3 60.9 49.3 C 59.2 49.3 58.1 48.1 58.1 46.6 C 58.1 45 59.2 43.9 60.7 43.9 C 62.2 43.9 63.2 45 63.2 46.6 C 63.2 46.6 63.2 46.7 63.2 46.8 Z M 58.8 46.3 C 58.8 46.3 62.6 46.3 62.6 46.3 C 62.5 45.2 61.7 44.5 60.7 44.5 C 59.7 44.5 58.9 45.2 58.8 46.3 Z M 67.3 43.9 C 67.3 43.9 67.3 44.6 67.3 44.6 C 67.2 44.6 67.2 44.6 67.1 44.6 C 66 44.6 65.3 45.3 65.3 46.5 C 65.35 46.53 65.3 49.2 65.3 49.2 L 64.6 49.2 L 64.6 43.9 L 65.3 43.9 C 65.3 43.9 65.32 44.98 65.3 45 C 65.6 44.3 66.3 43.9 67.3 43.9 Z M 73 46.8 C 73 46.8 68.6 46.8 68.6 46.8 C 68.7 47.9 69.5 48.6 70.7 48.6 C 71.3 48.6 71.9 48.4 72.3 47.9 C 72.3 47.9 72.7 48.4 72.7 48.4 C 72.2 49 71.5 49.3 70.7 49.3 C 69 49.3 67.9 48.1 67.9 46.6 C 67.9 45 69 43.9 70.5 43.9 C 72 43.9 73 45 73 46.6 C 73 46.6 73 46.7 73 46.8 Z M 68.6 46.3 C 68.6 46.3 72.4 46.3 72.4 46.3 C 72.3 45.2 71.5 44.5 70.5 44.5 C 69.5 44.5 68.7 45.2 68.6 46.3 Z M 84.8 43.9 L 82.8 49.2 L 82.2 49.2 L 80.5 44.9 L 78.8 49.2 L 78.2 49.2 L 76.2 43.9 L 76.9 43.9 L 78.5 48.4 L 80.2 43.9 L 80.8 43.9 L 82.5 48.4 L 84.2 43.9 L 84.8 43.9 Z M 85.8 42.3 C 85.8 42 86 41.8 86.3 41.8 C 86.6 41.8 86.8 42 86.8 42.3 C 86.8 42.6 86.6 42.8 86.3 42.8 C 86 42.8 85.8 42.6 85.8 42.3 Z M 85.9 43.9 L 86.6 43.9 L 86.6 49.2 L 85.9 49.2 L 85.9 43.9 Z M 91.3 48.9 C 91.1 49.1 90.6 49.3 90.2 49.3 C 89.2 49.3 88.7 48.7 88.7 47.7 C 88.69 47.73 88.7 44.5 88.7 44.5 L 87.7 44.5 L 87.7 43.9 L 88.7 43.9 L 88.7 42.8 L 89.4 42.8 L 89.4 43.9 L 91 43.9 L 91 44.5 L 89.4 44.5 C 89.4 44.5 89.4 47.69 89.4 47.7 C 89.4 48.3 89.7 48.6 90.3 48.6 C 90.6 48.6 90.9 48.6 91.1 48.4 C 91.1 48.4 91.3 48.9 91.3 48.9 Z M 97.4 46.2 C 97.37 46.16 97.4 49.2 97.4 49.2 L 96.7 49.2 C 96.7 49.2 96.66 46.23 96.7 46.2 C 96.7 45.1 96.1 44.5 95.1 44.5 C 93.9 44.5 93.2 45.2 93.2 46.4 C 93.24 46.45 93.2 49.2 93.2 49.2 L 92.5 49.2 L 92.5 41.8 L 93.2 41.8 C 93.2 41.8 93.24 44.87 93.2 44.9 C 93.6 44.3 94.3 43.9 95.2 43.9 C 96.5 43.9 97.4 44.6 97.4 46.2 Z M 110.6 46.2 C 110.6 46.16 110.6 49.2 110.6 49.2 L 109.9 49.2 C 109.9 49.2 109.89 46.23 109.9 46.2 C 109.9 45.1 109.3 44.5 108.4 44.5 C 107.3 44.5 106.6 45.2 106.6 46.4 C 106.62 46.45 106.6 49.2 106.6 49.2 L 105.9 49.2 C 105.9 49.2 105.91 46.23 105.9 46.2 C 105.9 45.1 105.3 44.5 104.4 44.5 C 103.3 44.5 102.6 45.2 102.6 46.4 C 102.63 46.45 102.6 49.2 102.6 49.2 L 101.9 49.2 L 101.9 43.9 L 102.6 43.9 C 102.6 43.9 102.6 44.91 102.6 44.9 C 103 44.3 103.6 43.9 104.5 43.9 C 105.4 43.9 106.1 44.3 106.4 45 C 106.8 44.3 107.5 43.9 108.5 43.9 C 109.8 43.9 110.6 44.6 110.6 46.2 Z M 117.1 46.8 C 117.1 46.8 112.7 46.8 112.7 46.8 C 112.8 47.9 113.6 48.6 114.8 48.6 C 115.4 48.6 116 48.4 116.4 47.9 C 116.4 47.9 116.8 48.4 116.8 48.4 C 116.3 49 115.6 49.3 114.7 49.3 C 113.1 49.3 112 48.1 112 46.6 C 112 45 113.1 43.9 114.6 43.9 C 116 43.9 117.1 45 117.1 46.6 C 117.1 46.6 117.1 46.7 117.1 46.8 Z M 112.7 46.3 C 112.7 46.3 116.4 46.3 116.4 46.3 C 116.3 45.2 115.6 44.5 114.6 44.5 C 113.5 44.5 112.8 45.2 112.7 46.3 Z M 123.4 46.2 C 123.35 46.16 123.4 49.2 123.4 49.2 L 122.6 49.2 C 122.6 49.2 122.64 46.23 122.6 46.2 C 122.6 45.1 122.1 44.5 121.1 44.5 C 119.9 44.5 119.2 45.2 119.2 46.4 C 119.22 46.45 119.2 49.2 119.2 49.2 L 118.5 49.2 L 118.5 43.9 L 119.2 43.9 C 119.2 43.9 119.19 44.92 119.2 44.9 C 119.6 44.3 120.3 43.9 121.2 43.9 C 122.5 43.9 123.4 44.6 123.4 46.2 Z M 127.9 48.9 C 127.6 49.1 127.2 49.3 126.8 49.3 C 125.8 49.3 125.2 48.7 125.2 47.7 C 125.23 47.73 125.2 44.5 125.2 44.5 L 124.3 44.5 L 124.3 43.9 L 125.2 43.9 L 125.2 42.8 L 125.9 42.8 L 125.9 43.9 L 127.5 43.9 L 127.5 44.5 L 125.9 44.5 C 125.9 44.5 125.94 47.69 125.9 47.7 C 125.9 48.3 126.3 48.6 126.9 48.6 C 127.1 48.6 127.4 48.6 127.6 48.4 C 127.6 48.4 127.9 48.9 127.9 48.9 Z M 133.1 45.9 C 133.11 45.95 133.1 49.2 133.1 49.2 L 132.4 49.2 C 132.4 49.2 132.44 48.39 132.4 48.4 C 132.1 48.9 131.5 49.3 130.6 49.3 C 129.4 49.3 128.7 48.6 128.7 47.7 C 128.7 46.9 129.2 46.2 130.7 46.2 C 130.74 46.24 132.4 46.2 132.4 46.2 C 132.4 46.2 132.41 45.92 132.4 45.9 C 132.4 45 131.9 44.5 130.9 44.5 C 130.2 44.5 129.6 44.8 129.2 45.1 C 129.2 45.1 128.8 44.6 128.8 44.6 C 129.4 44.2 130.2 43.9 131 43.9 C 132.3 43.9 133.1 44.6 133.1 45.9 Z M 132.4 47.6 C 132.41 47.63 132.4 46.8 132.4 46.8 C 132.4 46.8 130.76 46.77 130.8 46.8 C 129.7 46.8 129.4 47.2 129.4 47.7 C 129.4 48.3 129.9 48.7 130.7 48.7 C 131.5 48.7 132.1 48.3 132.4 47.6 Z M 134.9 41.8 L 135.6 41.8 L 135.6 49.2 L 134.9 49.2 L 134.9 41.8 Z M 145.6 46.6 C 145.6 48.2 144.5 49.3 143 49.3 C 142.1 49.3 141.4 48.9 141 48.2 C 140.95 48.22 141 51.1 141 51.1 L 140.2 51.1 L 140.2 43.9 L 140.9 43.9 C 140.9 43.9 140.92 44.99 140.9 45 C 141.4 44.3 142.1 43.9 143 43.9 C 144.5 43.9 145.6 45 145.6 46.6 Z M 144.9 46.6 C 144.9 45.4 144 44.5 142.9 44.5 C 141.8 44.5 140.9 45.4 140.9 46.6 C 140.9 47.8 141.8 48.6 142.9 48.6 C 144 48.6 144.9 47.8 144.9 46.6 Z M 149.7 43.9 C 149.7 43.9 149.7 44.6 149.7 44.6 C 149.6 44.6 149.5 44.6 149.5 44.6 C 148.4 44.6 147.7 45.3 147.7 46.5 C 147.72 46.53 147.7 49.2 147.7 49.2 L 147 49.2 L 147 43.9 L 147.7 43.9 C 147.7 43.9 147.69 44.98 147.7 45 C 148 44.3 148.7 43.9 149.7 43.9 Z M 150.3 46.6 C 150.3 45 151.4 43.9 153 43.9 C 154.5 43.9 155.6 45 155.6 46.6 C 155.6 48.1 154.5 49.3 153 49.3 C 151.4 49.3 150.3 48.1 150.3 46.6 Z M 154.9 46.6 C 154.9 45.3 154.1 44.5 153 44.5 C 151.8 44.5 151 45.3 151 46.6 C 151 47.8 151.8 48.6 153 48.6 C 154.1 48.6 154.9 47.8 154.9 46.6 Z M 156.6 46.6 C 156.6 45 157.8 43.9 159.3 43.9 C 160.2 43.9 161 44.3 161.4 44.9 C 161.4 44.9 160.9 45.3 160.9 45.3 C 160.5 44.8 160 44.5 159.3 44.5 C 158.2 44.5 157.4 45.3 157.4 46.6 C 157.4 47.8 158.2 48.6 159.3 48.6 C 160 48.6 160.5 48.4 160.9 47.9 C 160.9 47.9 161.4 48.2 161.4 48.2 C 161 48.9 160.2 49.3 159.3 49.3 C 157.8 49.3 156.6 48.1 156.6 46.6 Z M 167.3 46.8 C 167.3 46.8 162.9 46.8 162.9 46.8 C 163 47.9 163.8 48.6 165 48.6 C 165.6 48.6 166.2 48.4 166.6 47.9 C 166.6 47.9 167 48.4 167 48.4 C 166.5 49 165.8 49.3 165 49.3 C 163.3 49.3 162.2 48.1 162.2 46.6 C 162.2 45 163.3 43.9 164.8 43.9 C 166.3 43.9 167.3 45 167.3 46.6 C 167.3 46.6 167.3 46.7 167.3 46.8 Z M 162.9 46.3 C 162.9 46.3 166.7 46.3 166.7 46.3 C 166.6 45.2 165.8 44.5 164.8 44.5 C 163.8 44.5 163 45.2 162.9 46.3 Z M 168.1 48.6 C 168.1 48.6 168.5 48 168.5 48 C 168.9 48.4 169.6 48.6 170.3 48.6 C 171.3 48.6 171.7 48.3 171.7 47.8 C 171.7 46.4 168.3 47.5 168.3 45.4 C 168.3 44.5 169.1 43.9 170.4 43.9 C 171.1 43.9 171.8 44.1 172.3 44.4 C 172.3 44.4 172 45 172 45 C 171.5 44.6 170.9 44.5 170.4 44.5 C 169.5 44.5 169 44.9 169 45.4 C 169 46.8 172.4 45.7 172.4 47.8 C 172.4 48.7 171.6 49.3 170.3 49.3 C 169.4 49.3 168.6 49 168.1 48.6 Z M 173.2 48.6 C 173.2 48.6 173.5 48 173.5 48 C 173.9 48.4 174.6 48.6 175.4 48.6 C 176.4 48.6 176.8 48.3 176.8 47.8 C 176.8 46.4 173.4 47.5 173.4 45.4 C 173.4 44.5 174.1 43.9 175.5 43.9 C 176.1 43.9 176.9 44.1 177.3 44.4 C 177.3 44.4 177 45 177 45 C 176.5 44.6 176 44.5 175.5 44.5 C 174.5 44.5 174.1 44.9 174.1 45.4 C 174.1 46.8 177.5 45.7 177.5 47.8 C 177.5 48.7 176.7 49.3 175.3 49.3 C 174.5 49.3 173.6 49 173.2 48.6 Z M 183.5 46.8 C 183.5 46.8 179.1 46.8 179.1 46.8 C 179.2 47.9 180 48.6 181.2 48.6 C 181.8 48.6 182.4 48.4 182.8 47.9 C 182.8 47.9 183.2 48.4 183.2 48.4 C 182.7 49 182 49.3 181.1 49.3 C 179.5 49.3 178.4 48.1 178.4 46.6 C 178.4 45 179.5 43.9 180.9 43.9 C 182.4 43.9 183.5 45 183.5 46.6 C 183.5 46.6 183.5 46.7 183.5 46.8 Z M 179.1 46.3 C 179.1 46.3 182.8 46.3 182.8 46.3 C 182.7 45.2 182 44.5 180.9 44.5 C 179.9 44.5 179.2 45.2 179.1 46.3 Z M 184.3 48.6 C 184.3 48.6 184.6 48 184.6 48 C 185 48.4 185.7 48.6 186.5 48.6 C 187.5 48.6 187.9 48.3 187.9 47.8 C 187.9 46.4 184.5 47.5 184.5 45.4 C 184.5 44.5 185.2 43.9 186.6 43.9 C 187.2 43.9 188 44.1 188.4 44.4 C 188.4 44.4 188.1 45 188.1 45 C 187.6 44.6 187.1 44.5 186.6 44.5 C 185.6 44.5 185.2 44.9 185.2 45.4 C 185.2 46.8 188.6 45.7 188.6 47.8 C 188.6 48.7 187.8 49.3 186.4 49.3 C 185.6 49.3 184.7 49 184.3 48.6 Z M 192.6 46.5 C 192.6 44.6 193 43 193.7 41.8 C 193.7 41.8 194.4 41.8 194.4 41.8 C 193.6 43.2 193.3 44.7 193.3 46.5 C 193.3 48.2 193.6 49.8 194.4 51.1 C 194.4 51.1 193.7 51.1 193.7 51.1 C 193 49.9 192.6 48.3 192.6 46.5 Z M 198.4 48.9 C 198.2 49.1 197.7 49.3 197.3 49.3 C 196.3 49.3 195.8 48.7 195.8 47.7 C 195.8 47.73 195.8 44.5 195.8 44.5 L 194.9 44.5 L 194.9 43.9 L 195.8 43.9 L 195.8 42.8 L 196.5 42.8 L 196.5 43.9 L 198.1 43.9 L 198.1 44.5 L 196.5 44.5 C 196.5 44.5 196.51 47.69 196.5 47.7 C 196.5 48.3 196.8 48.6 197.4 48.6 C 197.7 48.6 198 48.6 198.2 48.4 C 198.2 48.4 198.4 48.9 198.4 48.9 Z M 199 46.6 C 199 45 200.1 43.9 201.7 43.9 C 203.2 43.9 204.3 45 204.3 46.6 C 204.3 48.1 203.2 49.3 201.7 49.3 C 200.1 49.3 199 48.1 199 46.6 Z M 203.6 46.6 C 203.6 45.3 202.8 44.5 201.7 44.5 C 200.6 44.5 199.7 45.3 199.7 46.6 C 199.7 47.8 200.6 48.6 201.7 48.6 C 202.8 48.6 203.6 47.8 203.6 46.6 Z M 205.4 46.6 C 205.4 45 206.5 43.9 208 43.9 C 209.6 43.9 210.7 45 210.7 46.6 C 210.7 48.1 209.6 49.3 208 49.3 C 206.5 49.3 205.4 48.1 205.4 46.6 Z M 210 46.6 C 210 45.3 209.2 44.5 208 44.5 C 206.9 44.5 206.1 45.3 206.1 46.6 C 206.1 47.8 206.9 48.6 208 48.6 C 209.2 48.6 210 47.8 210 46.6 Z M 214.8 41.8 L 215.5 41.8 L 215.5 49.2 L 214.8 49.2 L 214.8 41.8 Z M 216.9 46.6 C 216.9 45 218 43.9 219.6 43.9 C 221.1 43.9 222.3 45 222.3 46.6 C 222.3 48.1 221.1 49.3 219.6 49.3 C 218 49.3 216.9 48.1 216.9 46.6 Z M 221.5 46.6 C 221.5 45.3 220.7 44.5 219.6 44.5 C 218.5 44.5 217.6 45.3 217.6 46.6 C 217.6 47.8 218.5 48.6 219.6 48.6 C 220.7 48.6 221.5 47.8 221.5 46.6 Z M 228.4 43.9 L 228.4 49.2 L 227.7 49.2 C 227.7 49.2 227.73 48.25 227.7 48.2 C 227.4 48.9 226.7 49.3 225.8 49.3 C 224.5 49.3 223.6 48.5 223.6 47 C 223.62 47 223.6 43.9 223.6 43.9 L 224.3 43.9 C 224.3 43.9 224.33 46.93 224.3 46.9 C 224.3 48 224.9 48.6 225.9 48.6 C 227 48.6 227.7 47.9 227.7 46.7 C 227.7 46.71 227.7 43.9 227.7 43.9 L 228.4 43.9 Z M 235.2 41.8 L 235.2 49.2 L 234.5 49.2 C 234.5 49.2 234.51 48.17 234.5 48.2 C 234.1 48.9 233.4 49.3 232.5 49.3 C 231 49.3 229.9 48.2 229.9 46.6 C 229.9 45 231 43.9 232.5 43.9 C 233.3 43.9 234 44.3 234.5 44.9 C 234.48 44.95 234.5 41.8 234.5 41.8 L 235.2 41.8 Z M 234.5 46.6 C 234.5 45.3 233.7 44.5 232.5 44.5 C 231.4 44.5 230.6 45.3 230.6 46.6 C 230.6 47.8 231.4 48.6 232.5 48.6 C 233.7 48.6 234.5 47.8 234.5 46.6 Z M 242.6 48.9 C 242.3 49.1 241.9 49.3 241.5 49.3 C 240.5 49.3 239.9 48.7 239.9 47.7 C 239.91 47.73 239.9 44.5 239.9 44.5 L 239 44.5 L 239 43.9 L 239.9 43.9 L 239.9 42.8 L 240.6 42.8 L 240.6 43.9 L 242.2 43.9 L 242.2 44.5 L 240.6 44.5 C 240.6 44.5 240.62 47.69 240.6 47.7 C 240.6 48.3 240.9 48.6 241.5 48.6 C 241.8 48.6 242.1 48.6 242.3 48.4 C 242.3 48.4 242.6 48.9 242.6 48.9 Z M 243.1 46.6 C 243.1 45 244.3 43.9 245.8 43.9 C 247.3 43.9 248.5 45 248.5 46.6 C 248.5 48.1 247.3 49.3 245.8 49.3 C 244.3 49.3 243.1 48.1 243.1 46.6 Z M 247.7 46.6 C 247.7 45.3 246.9 44.5 245.8 44.5 C 244.7 44.5 243.8 45.3 243.8 46.6 C 243.8 47.8 244.7 48.6 245.8 48.6 C 246.9 48.6 247.7 47.8 247.7 46.6 Z M 257.4 46.2 C 257.37 46.16 257.4 49.2 257.4 49.2 L 256.7 49.2 C 256.7 49.2 256.66 46.23 256.7 46.2 C 256.7 45.1 256.1 44.5 255.1 44.5 C 254 44.5 253.2 45.2 253.2 46.4 C 253.24 46.45 253.2 49.2 253.2 49.2 L 252.5 49.2 L 252.5 41.8 L 253.2 41.8 C 253.2 41.8 253.24 44.87 253.2 44.9 C 253.6 44.3 254.3 43.9 255.2 43.9 C 256.5 43.9 257.4 44.6 257.4 46.2 Z M 263.9 46.8 C 263.9 46.8 259.5 46.8 259.5 46.8 C 259.5 47.9 260.4 48.6 261.5 48.6 C 262.2 48.6 262.7 48.4 263.1 47.9 C 263.1 47.9 263.5 48.4 263.5 48.4 C 263.1 49 262.3 49.3 261.5 49.3 C 259.9 49.3 258.8 48.1 258.8 46.6 C 258.8 45 259.8 43.9 261.3 43.9 C 262.8 43.9 263.9 45 263.9 46.6 C 263.9 46.6 263.9 46.7 263.9 46.8 Z M 259.5 46.3 C 259.5 46.3 263.2 46.3 263.2 46.3 C 263.1 45.2 262.4 44.5 261.3 44.5 C 260.3 44.5 259.6 45.2 259.5 46.3 Z M 269.3 45.9 C 269.26 45.95 269.3 49.2 269.3 49.2 L 268.6 49.2 C 268.6 49.2 268.58 48.39 268.6 48.4 C 268.3 48.9 267.6 49.3 266.8 49.3 C 265.6 49.3 264.8 48.6 264.8 47.7 C 264.8 46.9 265.4 46.2 266.9 46.2 C 266.88 46.24 268.5 46.2 268.5 46.2 C 268.5 46.2 268.55 45.92 268.5 45.9 C 268.5 45 268 44.5 267.1 44.5 C 266.4 44.5 265.7 44.8 265.3 45.1 C 265.3 45.1 265 44.6 265 44.6 C 265.5 44.2 266.3 43.9 267.1 43.9 C 268.5 43.9 269.3 44.6 269.3 45.9 Z M 268.5 47.6 C 268.55 47.63 268.5 46.8 268.5 46.8 C 268.5 46.8 266.9 46.77 266.9 46.8 C 265.9 46.8 265.5 47.2 265.5 47.7 C 265.5 48.3 266 48.7 266.9 48.7 C 267.7 48.7 268.3 48.3 268.5 47.6 Z M 273.7 43.9 C 273.7 43.9 273.7 44.6 273.7 44.6 C 273.7 44.6 273.6 44.6 273.5 44.6 C 272.4 44.6 271.8 45.3 271.8 46.5 C 271.78 46.53 271.8 49.2 271.8 49.2 L 271.1 49.2 L 271.1 43.9 L 271.7 43.9 C 271.7 43.9 271.75 44.98 271.7 45 C 272.1 44.3 272.7 43.9 273.7 43.9 Z M 282.1 43.9 C 282.1 43.9 279.49 49.84 279.5 49.8 C 279.1 50.9 278.5 51.2 277.7 51.2 C 277.3 51.2 276.8 51 276.5 50.7 C 276.5 50.7 276.8 50.2 276.8 50.2 C 277.1 50.4 277.4 50.6 277.8 50.6 C 278.2 50.6 278.5 50.4 278.8 49.7 C 278.84 49.71 279.1 49.2 279.1 49.2 L 276.7 43.9 L 277.5 43.9 L 279.4 48.4 L 281.4 43.9 L 282.1 43.9 Z M 282.5 46.6 C 282.5 45 283.6 43.9 285.2 43.9 C 286.7 43.9 287.8 45 287.8 46.6 C 287.8 48.1 286.7 49.3 285.2 49.3 C 283.6 49.3 282.5 48.1 282.5 46.6 Z M 287.1 46.6 C 287.1 45.3 286.3 44.5 285.2 44.5 C 284.1 44.5 283.2 45.3 283.2 46.6 C 283.2 47.8 284.1 48.6 285.2 48.6 C 286.3 48.6 287.1 47.8 287.1 46.6 Z M 294 43.9 L 294 49.2 L 293.3 49.2 C 293.3 49.2 293.32 48.25 293.3 48.2 C 293 48.9 292.3 49.3 291.4 49.3 C 290.1 49.3 289.2 48.5 289.2 47 C 289.21 47 289.2 43.9 289.2 43.9 L 289.9 43.9 C 289.9 43.9 289.92 46.93 289.9 46.9 C 289.9 48 290.5 48.6 291.5 48.6 C 292.6 48.6 293.3 47.9 293.3 46.7 C 293.29 46.71 293.3 43.9 293.3 43.9 L 294 43.9 Z M 298.5 43.9 C 298.5 43.9 298.5 44.6 298.5 44.6 C 298.5 44.6 298.4 44.6 298.3 44.6 C 297.2 44.6 296.6 45.3 296.6 46.5 C 296.57 46.53 296.6 49.2 296.6 49.2 L 295.9 49.2 L 295.9 43.9 L 296.5 43.9 C 296.5 43.9 296.54 44.98 296.5 45 C 296.9 44.3 297.5 43.9 298.5 43.9 Z M 299.2 48.6 C 299.2 48.6 299.5 48 299.5 48 C 299.9 48.4 300.6 48.6 301.4 48.6 C 302.4 48.6 302.8 48.3 302.8 47.8 C 302.8 46.4 299.4 47.5 299.4 45.4 C 299.4 44.5 300.1 43.9 301.5 43.9 C 302.1 43.9 302.9 44.1 303.3 44.4 C 303.3 44.4 303 45 303 45 C 302.5 44.6 302 44.5 301.5 44.5 C 300.5 44.5 300.1 44.9 300.1 45.4 C 300.1 46.8 303.5 45.7 303.5 47.8 C 303.5 48.7 302.7 49.3 301.3 49.3 C 300.5 49.3 299.6 49 299.2 48.6 Z M 309.5 46.8 C 309.5 46.8 305.1 46.8 305.1 46.8 C 305.2 47.9 306 48.6 307.2 48.6 C 307.8 48.6 308.4 48.4 308.8 47.9 C 308.8 47.9 309.2 48.4 309.2 48.4 C 308.7 49 308 49.3 307.1 49.3 C 305.5 49.3 304.4 48.1 304.4 46.6 C 304.4 45 305.5 43.9 306.9 43.9 C 308.4 43.9 309.5 45 309.5 46.6 C 309.5 46.6 309.5 46.7 309.5 46.8 Z M 305.1 46.3 C 305.1 46.3 308.8 46.3 308.8 46.3 C 308.7 45.2 308 44.5 306.9 44.5 C 305.9 44.5 305.2 45.2 305.1 46.3 Z M 310.9 41.8 L 311.6 41.8 L 311.6 49.2 L 310.9 49.2 L 310.9 41.8 Z M 314.4 43.3 C 314.36 43.33 314.4 43.9 314.4 43.9 L 316 43.9 L 316 44.5 L 314.4 44.5 L 314.4 49.2 L 313.7 49.2 L 313.7 44.5 L 312.7 44.5 L 312.7 43.9 L 313.7 43.9 C 313.7 43.9 313.68 43.3 313.7 43.3 C 313.7 42.4 314.2 41.7 315.3 41.7 C 315.7 41.7 316.1 41.8 316.3 42.1 C 316.3 42.1 316.1 42.6 316.1 42.6 C 315.9 42.4 315.6 42.3 315.3 42.3 C 314.7 42.3 314.4 42.7 314.4 43.3 Z M 322.3 48.9 C 322.1 49.1 321.6 49.3 321.2 49.3 C 320.2 49.3 319.7 48.7 319.7 47.7 C 319.69 47.73 319.7 44.5 319.7 44.5 L 318.7 44.5 L 318.7 43.9 L 319.7 43.9 L 319.7 42.8 L 320.4 42.8 L 320.4 43.9 L 322 43.9 L 322 44.5 L 320.4 44.5 C 320.4 44.5 320.39 47.69 320.4 47.7 C 320.4 48.3 320.7 48.6 321.3 48.6 C 321.6 48.6 321.9 48.6 322.1 48.4 C 322.1 48.4 322.3 48.9 322.3 48.9 Z M 328.4 46.2 C 328.36 46.16 328.4 49.2 328.4 49.2 L 327.7 49.2 C 327.7 49.2 327.65 46.23 327.7 46.2 C 327.7 45.1 327.1 44.5 326.1 44.5 C 324.9 44.5 324.2 45.2 324.2 46.4 C 324.23 46.45 324.2 49.2 324.2 49.2 L 323.5 49.2 L 323.5 41.8 L 324.2 41.8 C 324.2 41.8 324.23 44.87 324.2 44.9 C 324.6 44.3 325.3 43.9 326.2 43.9 C 327.5 43.9 328.4 44.6 328.4 46.2 Z M 330 42.3 C 330 42 330.2 41.8 330.5 41.8 C 330.8 41.8 331 42 331 42.3 C 331 42.6 330.8 42.8 330.5 42.8 C 330.2 42.8 330 42.6 330 42.3 Z M 330.1 43.9 L 330.9 43.9 L 330.9 49.2 L 330.1 49.2 L 330.1 43.9 Z M 337.5 46.2 C 337.54 46.16 337.5 49.2 337.5 49.2 L 336.8 49.2 C 336.8 49.2 336.83 46.23 336.8 46.2 C 336.8 45.1 336.2 44.5 335.2 44.5 C 334.1 44.5 333.4 45.2 333.4 46.4 C 333.41 46.45 333.4 49.2 333.4 49.2 L 332.7 49.2 L 332.7 43.9 L 333.4 43.9 C 333.4 43.9 333.38 44.92 333.4 44.9 C 333.8 44.3 334.5 43.9 335.4 43.9 C 336.7 43.9 337.5 44.6 337.5 46.2 Z M 341.3 46.6 L 340.1 47.7 L 340.1 49.2 L 339.4 49.2 L 339.4 41.8 L 340.1 41.8 L 340.1 46.8 L 343.2 43.9 L 344.1 43.9 L 341.8 46.1 L 344.3 49.2 L 343.4 49.2 L 341.3 46.6 Z M 345.4 42.2 L 346.2 42.2 L 346.1 47.1 L 345.5 47.1 L 345.4 42.2 Z M 345.3 48.7 C 345.3 48.4 345.5 48.2 345.8 48.2 C 346.1 48.2 346.3 48.4 346.3 48.7 C 346.3 49 346.1 49.3 345.8 49.3 C 345.5 49.3 345.3 49 345.3 48.7 Z M 347.4 51.1 C 348.2 49.8 348.5 48.2 348.5 46.5 C 348.5 44.7 348.2 43.2 347.4 41.8 C 347.4 41.8 348.1 41.8 348.1 41.8 C 348.8 43 349.2 44.6 349.2 46.5 C 349.2 48.3 348.8 49.9 348.1 51.1 C 348.1 51.1 347.4 51.1 347.4 51.1 Z " stroke="none" fill="#323132"/>
  </g>
  <g id="Polygon120426">
    <path d="M 20.4 46.5 L 16.2 48.7 L 16.2 44.4 L 20.4 46.5 Z " stroke="none" fill="#a243ff"/>
  </g>
  <g id="Polygon120425">
    <path d="M 36 24.9 C 35.96 24.95 36 28.2 36 28.2 L 35.3 28.2 C 35.3 28.2 35.28 27.39 35.3 27.4 C 35 27.9 34.3 28.3 33.5 28.3 C 32.3 28.3 31.6 27.6 31.6 26.7 C 31.6 25.9 32.1 25.2 33.6 25.2 C 33.58 25.24 35.3 25.2 35.3 25.2 C 35.3 25.2 35.25 24.92 35.3 24.9 C 35.3 24 34.7 23.5 33.8 23.5 C 33.1 23.5 32.4 23.8 32 24.1 C 32 24.1 31.7 23.6 31.7 23.6 C 32.2 23.2 33 22.9 33.8 22.9 C 35.2 22.9 36 23.6 36 24.9 Z M 35.3 26.6 C 35.25 26.63 35.3 25.8 35.3 25.8 C 35.3 25.8 33.6 25.77 33.6 25.8 C 32.6 25.8 32.2 26.2 32.2 26.7 C 32.2 27.3 32.7 27.7 33.6 27.7 C 34.4 27.7 35 27.3 35.3 26.6 Z M 38.6 22.3 C 38.56 22.33 38.6 22.9 38.6 22.9 L 40.2 22.9 L 40.2 23.5 L 38.6 23.5 L 38.6 28.2 L 37.9 28.2 L 37.9 23.5 L 36.9 23.5 L 36.9 22.9 L 37.9 22.9 C 37.9 22.9 37.87 22.3 37.9 22.3 C 37.9 21.4 38.4 20.7 39.5 20.7 C 39.8 20.7 40.2 20.8 40.5 21.1 C 40.5 21.1 40.3 21.6 40.3 21.6 C 40.1 21.4 39.8 21.3 39.5 21.3 C 38.9 21.3 38.6 21.7 38.6 22.3 Z M 42.4 22.3 C 42.4 22.33 42.4 22.9 42.4 22.9 L 44 22.9 L 44 23.5 L 42.4 23.5 L 42.4 28.2 L 41.7 28.2 L 41.7 23.5 L 40.8 23.5 L 40.8 22.9 L 41.7 22.9 C 41.7 22.9 41.71 22.3 41.7 22.3 C 41.7 21.4 42.3 20.7 43.3 20.7 C 43.7 20.7 44.1 20.8 44.4 21.1 C 44.4 21.1 44.1 21.6 44.1 21.6 C 43.9 21.4 43.6 21.3 43.3 21.3 C 42.7 21.3 42.4 21.7 42.4 22.3 Z M 49.6 25.8 C 49.6 25.8 45.2 25.8 45.2 25.8 C 45.2 26.9 46.1 27.6 47.2 27.6 C 47.9 27.6 48.4 27.4 48.8 26.9 C 48.8 26.9 49.2 27.4 49.2 27.4 C 48.8 28 48 28.3 47.2 28.3 C 45.6 28.3 44.4 27.1 44.4 25.6 C 44.4 24 45.5 22.9 47 22.9 C 48.5 22.9 49.6 24 49.6 25.6 C 49.6 25.6 49.6 25.7 49.6 25.8 Z M 45.2 25.3 C 45.2 25.3 48.9 25.3 48.9 25.3 C 48.8 24.2 48 23.5 47 23.5 C 46 23.5 45.2 24.2 45.2 25.3 Z M 50.6 25.6 C 50.6 24 51.7 22.9 53.3 22.9 C 54.2 22.9 54.9 23.3 55.3 23.9 C 55.3 23.9 54.8 24.3 54.8 24.3 C 54.4 23.8 53.9 23.5 53.3 23.5 C 52.1 23.5 51.3 24.3 51.3 25.6 C 51.3 26.8 52.1 27.6 53.3 27.6 C 53.9 27.6 54.4 27.4 54.8 26.9 C 54.8 26.9 55.3 27.2 55.3 27.2 C 54.9 27.9 54.2 28.3 53.3 28.3 C 51.7 28.3 50.6 27.1 50.6 25.6 Z M 59.7 27.9 C 59.4 28.1 59 28.3 58.6 28.3 C 57.6 28.3 57 27.7 57 26.7 C 57.03 26.73 57 23.5 57 23.5 L 56.1 23.5 L 56.1 22.9 L 57 22.9 L 57 21.8 L 57.7 21.8 L 57.7 22.9 L 59.3 22.9 L 59.3 23.5 L 57.7 23.5 C 57.7 23.5 57.74 26.69 57.7 26.7 C 57.7 27.3 58.1 27.6 58.6 27.6 C 58.9 27.6 59.2 27.6 59.4 27.4 C 59.4 27.4 59.7 27.9 59.7 27.9 Z M 66.4 27.9 C 66.1 28.1 65.7 28.3 65.2 28.3 C 64.3 28.3 63.7 27.7 63.7 26.7 C 63.71 26.73 63.7 23.5 63.7 23.5 L 62.8 23.5 L 62.8 22.9 L 63.7 22.9 L 63.7 21.8 L 64.4 21.8 L 64.4 22.9 L 66 22.9 L 66 23.5 L 64.4 23.5 C 64.4 23.5 64.42 26.69 64.4 26.7 C 64.4 27.3 64.7 27.6 65.3 27.6 C 65.6 27.6 65.9 27.6 66.1 27.4 C 66.1 27.4 66.4 27.9 66.4 27.9 Z M 72.4 25.2 C 72.39 25.16 72.4 28.2 72.4 28.2 L 71.7 28.2 C 71.7 28.2 71.68 25.23 71.7 25.2 C 71.7 24.1 71.1 23.5 70.1 23.5 C 69 23.5 68.3 24.2 68.3 25.4 C 68.26 25.45 68.3 28.2 68.3 28.2 L 67.5 28.2 L 67.5 20.8 L 68.3 20.8 C 68.3 20.8 68.26 23.87 68.3 23.9 C 68.6 23.3 69.3 22.9 70.2 22.9 C 71.5 22.9 72.4 23.6 72.4 25.2 Z M 78.9 25.8 C 78.9 25.8 74.5 25.8 74.5 25.8 C 74.6 26.9 75.4 27.6 76.6 27.6 C 77.2 27.6 77.8 27.4 78.2 26.9 C 78.2 26.9 78.6 27.4 78.6 27.4 C 78.1 28 77.4 28.3 76.5 28.3 C 74.9 28.3 73.8 27.1 73.8 25.6 C 73.8 24 74.9 22.9 76.3 22.9 C 77.8 22.9 78.9 24 78.9 25.6 C 78.9 25.6 78.9 25.7 78.9 25.8 Z M 74.5 25.3 C 74.5 25.3 78.2 25.3 78.2 25.3 C 78.1 24.2 77.4 23.5 76.3 23.5 C 75.3 23.5 74.6 24.2 74.5 25.3 Z M 88.3 25.6 C 88.3 27.2 87.2 28.3 85.7 28.3 C 84.8 28.3 84.1 27.9 83.7 27.2 C 83.67 27.22 83.7 30.1 83.7 30.1 L 83 30.1 L 83 22.9 L 83.6 22.9 C 83.6 22.9 83.64 23.99 83.6 24 C 84.1 23.3 84.8 22.9 85.7 22.9 C 87.2 22.9 88.3 24 88.3 25.6 Z M 87.6 25.6 C 87.6 24.4 86.7 23.5 85.6 23.5 C 84.5 23.5 83.7 24.4 83.7 25.6 C 83.7 26.8 84.5 27.6 85.6 27.6 C 86.7 27.6 87.6 26.8 87.6 25.6 Z M 94.4 25.8 C 94.4 25.8 90 25.8 90 25.8 C 90.1 26.9 90.9 27.6 92.1 27.6 C 92.7 27.6 93.3 27.4 93.7 26.9 C 93.7 26.9 94.1 27.4 94.1 27.4 C 93.6 28 92.9 28.3 92.1 28.3 C 90.4 28.3 89.3 27.1 89.3 25.6 C 89.3 24 90.4 22.9 91.9 22.9 C 93.3 22.9 94.4 24 94.4 25.6 C 94.4 25.6 94.4 25.7 94.4 25.8 Z M 90 25.3 C 90 25.3 93.7 25.3 93.7 25.3 C 93.6 24.2 92.9 23.5 91.9 23.5 C 90.8 23.5 90.1 24.2 90 25.3 Z M 98.5 22.9 C 98.5 22.9 98.5 23.6 98.5 23.6 C 98.4 23.6 98.4 23.6 98.3 23.6 C 97.2 23.6 96.5 24.3 96.5 25.5 C 96.53 25.53 96.5 28.2 96.5 28.2 L 95.8 28.2 L 95.8 22.9 L 96.5 22.9 C 96.5 22.9 96.5 23.98 96.5 24 C 96.8 23.3 97.5 22.9 98.5 22.9 Z M 100.9 22.3 C 100.9 22.33 100.9 22.9 100.9 22.9 L 102.5 22.9 L 102.5 23.5 L 100.9 23.5 L 100.9 28.2 L 100.2 28.2 L 100.2 23.5 L 99.3 23.5 L 99.3 22.9 L 100.2 22.9 C 100.2 22.9 100.21 22.3 100.2 22.3 C 100.2 21.4 100.8 20.7 101.8 20.7 C 102.2 20.7 102.6 20.8 102.9 21.1 C 102.9 21.1 102.6 21.6 102.6 21.6 C 102.4 21.4 102.1 21.3 101.8 21.3 C 101.2 21.3 100.9 21.7 100.9 22.3 Z M 102.9 25.6 C 102.9 24 104.1 22.9 105.6 22.9 C 107.2 22.9 108.3 24 108.3 25.6 C 108.3 27.1 107.2 28.3 105.6 28.3 C 104.1 28.3 102.9 27.1 102.9 25.6 Z M 107.6 25.6 C 107.6 24.3 106.7 23.5 105.6 23.5 C 104.5 23.5 103.7 24.3 103.7 25.6 C 103.7 26.8 104.5 27.6 105.6 27.6 C 106.7 27.6 107.6 26.8 107.6 25.6 Z M 112.4 22.9 C 112.4 22.9 112.4 23.6 112.4 23.6 C 112.3 23.6 112.2 23.6 112.2 23.6 C 111.1 23.6 110.4 24.3 110.4 25.5 C 110.42 25.53 110.4 28.2 110.4 28.2 L 109.7 28.2 L 109.7 22.9 L 110.4 22.9 C 110.4 22.9 110.39 23.98 110.4 24 C 110.7 23.3 111.4 22.9 112.4 22.9 Z M 122.3 25.2 C 122.26 25.16 122.3 28.2 122.3 28.2 L 121.6 28.2 C 121.6 28.2 121.55 25.23 121.6 25.2 C 121.6 24.1 121 23.5 120 23.5 C 119 23.5 118.3 24.2 118.3 25.4 C 118.28 25.45 118.3 28.2 118.3 28.2 L 117.6 28.2 C 117.6 28.2 117.57 25.23 117.6 25.2 C 117.6 24.1 117 23.5 116.1 23.5 C 115 23.5 114.3 24.2 114.3 25.4 C 114.29 25.45 114.3 28.2 114.3 28.2 L 113.6 28.2 L 113.6 22.9 L 114.3 22.9 C 114.3 22.9 114.26 23.91 114.3 23.9 C 114.6 23.3 115.3 22.9 116.2 22.9 C 117.1 22.9 117.7 23.3 118.1 24 C 118.4 23.3 119.2 22.9 120.1 22.9 C 121.4 22.9 122.3 23.6 122.3 25.2 Z M 128.1 24.9 C 128.09 24.95 128.1 28.2 128.1 28.2 L 127.4 28.2 C 127.4 28.2 127.41 27.39 127.4 27.4 C 127.1 27.9 126.5 28.3 125.6 28.3 C 124.4 28.3 123.7 27.6 123.7 26.7 C 123.7 25.9 124.2 25.2 125.7 25.2 C 125.71 25.24 127.4 25.2 127.4 25.2 C 127.4 25.2 127.38 24.92 127.4 24.9 C 127.4 24 126.9 23.5 125.9 23.5 C 125.2 23.5 124.6 23.8 124.1 24.1 C 124.1 24.1 123.8 23.6 123.8 23.6 C 124.4 23.2 125.1 22.9 126 22.9 C 127.3 22.9 128.1 23.6 128.1 24.9 Z M 127.4 26.6 C 127.38 26.63 127.4 25.8 127.4 25.8 C 127.4 25.8 125.73 25.77 125.7 25.8 C 124.7 25.8 124.4 26.2 124.4 26.7 C 124.4 27.3 124.9 27.7 125.7 27.7 C 126.5 27.7 127.1 27.3 127.4 26.6 Z M 134.7 25.2 C 134.74 25.16 134.7 28.2 134.7 28.2 L 134 28.2 C 134 28.2 134.04 25.23 134 25.2 C 134 24.1 133.5 23.5 132.5 23.5 C 131.3 23.5 130.6 24.2 130.6 25.4 C 130.61 25.45 130.6 28.2 130.6 28.2 L 129.9 28.2 L 129.9 22.9 L 130.6 22.9 C 130.6 22.9 130.58 23.92 130.6 23.9 C 131 23.3 131.7 22.9 132.6 22.9 C 133.9 22.9 134.7 23.6 134.7 25.2 Z M 136.1 25.6 C 136.1 24 137.3 22.9 138.8 22.9 C 139.7 22.9 140.5 23.3 140.9 23.9 C 140.9 23.9 140.4 24.3 140.4 24.3 C 140 23.8 139.4 23.5 138.8 23.5 C 137.7 23.5 136.8 24.3 136.8 25.6 C 136.8 26.8 137.7 27.6 138.8 27.6 C 139.4 27.6 140 27.4 140.4 26.9 C 140.4 26.9 140.9 27.2 140.9 27.2 C 140.5 27.9 139.7 28.3 138.8 28.3 C 137.3 28.3 136.1 27.1 136.1 25.6 Z M 146.8 25.8 C 146.8 25.8 142.4 25.8 142.4 25.8 C 142.5 26.9 143.3 27.6 144.5 27.6 C 145.1 27.6 145.7 27.4 146.1 26.9 C 146.1 26.9 146.5 27.4 146.5 27.4 C 146 28 145.3 28.3 144.5 28.3 C 142.8 28.3 141.7 27.1 141.7 25.6 C 141.7 24 142.8 22.9 144.3 22.9 C 145.8 22.9 146.8 24 146.8 25.6 C 146.8 25.6 146.8 25.7 146.8 25.8 Z M 142.4 25.3 C 142.4 25.3 146.1 25.3 146.1 25.3 C 146.1 24.2 145.3 23.5 144.3 23.5 C 143.3 23.5 142.5 24.2 142.4 25.3 Z M 150.4 25.6 C 150.4 24 151.5 22.9 153 22.9 C 154.6 22.9 155.7 24 155.7 25.6 C 155.7 27.1 154.6 28.3 153 28.3 C 151.5 28.3 150.4 27.1 150.4 25.6 Z M 155 25.6 C 155 24.3 154.2 23.5 153 23.5 C 151.9 23.5 151.1 24.3 151.1 25.6 C 151.1 26.8 151.9 27.6 153 27.6 C 154.2 27.6 155 26.8 155 25.6 Z M 157.9 22.3 C 157.91 22.33 157.9 22.9 157.9 22.9 L 159.5 22.9 L 159.5 23.5 L 157.9 23.5 L 157.9 28.2 L 157.2 28.2 L 157.2 23.5 L 156.3 23.5 L 156.3 22.9 L 157.2 22.9 C 157.2 22.9 157.22 22.3 157.2 22.3 C 157.2 21.4 157.8 20.7 158.8 20.7 C 159.2 20.7 159.6 20.8 159.9 21.1 C 159.9 21.1 159.6 21.6 159.6 21.6 C 159.4 21.4 159.1 21.3 158.8 21.3 C 158.2 21.3 157.9 21.7 157.9 22.3 Z M 167.1 24.9 C 167.08 24.95 167.1 28.2 167.1 28.2 L 166.4 28.2 C 166.4 28.2 166.4 27.39 166.4 27.4 C 166.1 27.9 165.5 28.3 164.6 28.3 C 163.4 28.3 162.7 27.6 162.7 26.7 C 162.7 25.9 163.2 25.2 164.7 25.2 C 164.7 25.24 166.4 25.2 166.4 25.2 C 166.4 25.2 166.37 24.92 166.4 24.9 C 166.4 24 165.9 23.5 164.9 23.5 C 164.2 23.5 163.6 23.8 163.1 24.1 C 163.1 24.1 162.8 23.6 162.8 23.6 C 163.3 23.2 164.1 22.9 165 22.9 C 166.3 22.9 167.1 23.6 167.1 24.9 Z M 166.4 26.6 C 166.37 26.63 166.4 25.8 166.4 25.8 C 166.4 25.8 164.72 25.77 164.7 25.8 C 163.7 25.8 163.4 26.2 163.4 26.7 C 163.4 27.3 163.9 27.7 164.7 27.7 C 165.5 27.7 166.1 27.3 166.4 26.6 Z M 173.6 22.9 L 173.6 28.2 L 172.9 28.2 C 172.9 28.2 172.94 27.25 172.9 27.2 C 172.6 27.9 171.9 28.3 171 28.3 C 169.7 28.3 168.8 27.5 168.8 26 C 168.83 26 168.8 22.9 168.8 22.9 L 169.5 22.9 C 169.5 22.9 169.53 25.93 169.5 25.9 C 169.5 27 170.1 27.6 171.1 27.6 C 172.2 27.6 172.9 26.9 172.9 25.7 C 172.91 25.71 172.9 22.9 172.9 22.9 L 173.6 22.9 Z M 180.4 20.8 L 180.4 28.2 L 179.7 28.2 C 179.7 28.2 179.71 27.17 179.7 27.2 C 179.3 27.9 178.6 28.3 177.7 28.3 C 176.2 28.3 175.1 27.2 175.1 25.6 C 175.1 24 176.2 22.9 177.7 22.9 C 178.5 22.9 179.2 23.3 179.7 23.9 C 179.68 23.95 179.7 20.8 179.7 20.8 L 180.4 20.8 Z M 179.7 25.6 C 179.7 24.3 178.9 23.5 177.7 23.5 C 176.6 23.5 175.8 24.3 175.8 25.6 C 175.8 26.8 176.6 27.6 177.7 27.6 C 178.9 27.6 179.7 26.8 179.7 25.6 Z M 182.1 21.3 C 182.1 21 182.3 20.8 182.6 20.8 C 182.9 20.8 183.1 21 183.1 21.3 C 183.1 21.6 182.9 21.8 182.6 21.8 C 182.3 21.8 182.1 21.6 182.1 21.3 Z M 182.3 22.9 L 183 22.9 L 183 28.2 L 182.3 28.2 L 182.3 22.9 Z M 187.7 27.9 C 187.4 28.1 187 28.3 186.6 28.3 C 185.6 28.3 185 27.7 185 26.7 C 185.02 26.73 185 23.5 185 23.5 L 184.1 23.5 L 184.1 22.9 L 185 22.9 L 185 21.8 L 185.7 21.8 L 185.7 22.9 L 187.3 22.9 L 187.3 23.5 L 185.7 23.5 C 185.7 23.5 185.73 26.69 185.7 26.7 C 185.7 27.3 186.1 27.6 186.6 27.6 C 186.9 27.6 187.2 27.6 187.4 27.4 C 187.4 27.4 187.7 27.9 187.7 27.9 Z M 188.2 25.6 C 188.2 24 189.4 22.9 190.9 22.9 C 192.4 22.9 193.6 24 193.6 25.6 C 193.6 27.1 192.4 28.3 190.9 28.3 C 189.4 28.3 188.2 27.1 188.2 25.6 Z M 192.9 25.6 C 192.9 24.3 192 23.5 190.9 23.5 C 189.8 23.5 188.9 24.3 188.9 25.6 C 188.9 26.8 189.8 27.6 190.9 27.6 C 192 27.6 192.9 26.8 192.9 25.6 Z M 197.6 22.9 C 197.6 22.9 197.6 23.6 197.6 23.6 C 197.6 23.6 197.5 23.6 197.5 23.6 C 196.4 23.6 195.7 24.3 195.7 25.5 C 195.71 25.53 195.7 28.2 195.7 28.2 L 195 28.2 L 195 22.9 L 195.7 22.9 C 195.7 22.9 195.68 23.98 195.7 24 C 196 23.3 196.7 22.9 197.6 22.9 Z M 203.8 22.9 C 203.8 22.9 201.14 28.84 201.1 28.8 C 200.7 29.9 200.1 30.2 199.4 30.2 C 198.9 30.2 198.4 30 198.1 29.7 C 198.1 29.7 198.4 29.2 198.4 29.2 C 198.7 29.4 199 29.6 199.4 29.6 C 199.9 29.6 200.2 29.4 200.5 28.7 C 200.49 28.71 200.7 28.2 200.7 28.2 L 198.4 22.9 L 199.1 22.9 L 201.1 27.4 L 203.1 22.9 L 203.8 22.9 Z M 210.2 27.9 C 209.9 28.1 209.5 28.3 209 28.3 C 208.1 28.3 207.5 27.7 207.5 26.7 C 207.51 26.73 207.5 23.5 207.5 23.5 L 206.6 23.5 L 206.6 22.9 L 207.5 22.9 L 207.5 21.8 L 208.2 21.8 L 208.2 22.9 L 209.8 22.9 L 209.8 23.5 L 208.2 23.5 C 208.2 23.5 208.22 26.69 208.2 26.7 C 208.2 27.3 208.5 27.6 209.1 27.6 C 209.4 27.6 209.7 27.6 209.9 27.4 C 209.9 27.4 210.2 27.9 210.2 27.9 Z M 215.4 24.9 C 215.39 24.95 215.4 28.2 215.4 28.2 L 214.7 28.2 C 214.7 28.2 214.71 27.39 214.7 27.4 C 214.4 27.9 213.8 28.3 212.9 28.3 C 211.7 28.3 211 27.6 211 26.7 C 211 25.9 211.5 25.2 213 25.2 C 213.01 25.24 214.7 25.2 214.7 25.2 C 214.7 25.2 214.68 24.92 214.7 24.9 C 214.7 24 214.2 23.5 213.2 23.5 C 212.5 23.5 211.9 23.8 211.4 24.1 C 211.4 24.1 211.1 23.6 211.1 23.6 C 211.6 23.2 212.4 22.9 213.3 22.9 C 214.6 22.9 215.4 23.6 215.4 24.9 Z M 214.7 26.6 C 214.68 26.63 214.7 25.8 214.7 25.8 C 214.7 25.8 213.03 25.77 213 25.8 C 212 25.8 211.7 26.2 211.7 26.7 C 211.7 27.3 212.2 27.7 213 27.7 C 213.8 27.7 214.4 27.3 214.7 26.6 Z M 216.6 27.6 C 216.6 27.6 216.9 27 216.9 27 C 217.3 27.4 218.1 27.6 218.8 27.6 C 219.8 27.6 220.2 27.3 220.2 26.8 C 220.2 25.4 216.8 26.5 216.8 24.4 C 216.8 23.5 217.5 22.9 218.9 22.9 C 219.6 22.9 220.3 23.1 220.7 23.4 C 220.7 23.4 220.4 24 220.4 24 C 220 23.6 219.4 23.5 218.9 23.5 C 217.9 23.5 217.5 23.9 217.5 24.4 C 217.5 25.8 220.9 24.7 220.9 26.8 C 220.9 27.7 220.1 28.3 218.7 28.3 C 217.9 28.3 217 28 216.6 27.6 Z M 224.2 25.6 L 222.9 26.7 L 222.9 28.2 L 222.2 28.2 L 222.2 20.8 L 222.9 20.8 L 222.9 25.8 L 226.1 22.9 L 227 22.9 L 224.7 25.1 L 227.2 28.2 L 226.3 28.2 L 224.2 25.6 Z M 227.7 27.6 C 227.7 27.6 228 27 228 27 C 228.5 27.4 229.2 27.6 229.9 27.6 C 230.9 27.6 231.3 27.3 231.3 26.8 C 231.3 25.4 227.9 26.5 227.9 24.4 C 227.9 23.5 228.6 22.9 230 22.9 C 230.7 22.9 231.4 23.1 231.8 23.4 C 231.8 23.4 231.5 24 231.5 24 C 231.1 23.6 230.5 23.5 230 23.5 C 229 23.5 228.6 23.9 228.6 24.4 C 228.6 25.8 232 24.7 232 26.8 C 232 27.7 231.2 28.3 229.9 28.3 C 229 28.3 228.1 28 227.7 27.6 Z M 241.3 25.6 C 241.3 27.2 240.2 28.3 238.7 28.3 C 237.8 28.3 237.1 27.9 236.6 27.2 C 236.64 27.17 236.6 28.2 236.6 28.2 L 236 28.2 L 236 20.8 L 236.7 20.8 C 236.7 20.8 236.67 23.95 236.7 23.9 C 237.1 23.3 237.8 22.9 238.7 22.9 C 240.2 22.9 241.3 24 241.3 25.6 Z M 240.6 25.6 C 240.6 24.3 239.7 23.5 238.6 23.5 C 237.5 23.5 236.7 24.3 236.7 25.6 C 236.7 26.8 237.5 27.6 238.6 27.6 C 239.7 27.6 240.6 26.8 240.6 25.6 Z M 247.1 22.9 C 247.1 22.9 244.44 28.84 244.4 28.8 C 244 29.9 243.4 30.2 242.7 30.2 C 242.2 30.2 241.7 30 241.4 29.7 C 241.4 29.7 241.7 29.2 241.7 29.2 C 242 29.4 242.3 29.6 242.7 29.6 C 243.2 29.6 243.5 29.4 243.8 28.7 C 243.79 28.71 244 28.2 244 28.2 L 241.7 22.9 L 242.4 22.9 L 244.4 27.4 L 246.4 22.9 L 247.1 22.9 Z M 259.4 25.2 C 259.37 25.16 259.4 28.2 259.4 28.2 L 258.7 28.2 C 258.7 28.2 258.67 25.23 258.7 25.2 C 258.7 24.1 258.1 23.5 257.2 23.5 C 256.1 23.5 255.4 24.2 255.4 25.4 C 255.39 25.45 255.4 28.2 255.4 28.2 L 254.7 28.2 C 254.7 28.2 254.69 25.23 254.7 25.2 C 254.7 24.1 254.1 23.5 253.2 23.5 C 252.1 23.5 251.4 24.2 251.4 25.4 C 251.4 25.45 251.4 28.2 251.4 28.2 L 250.7 28.2 L 250.7 22.9 L 251.4 22.9 C 251.4 22.9 251.37 23.91 251.4 23.9 C 251.7 23.3 252.4 22.9 253.3 22.9 C 254.2 22.9 254.9 23.3 255.2 24 C 255.6 23.3 256.3 22.9 257.3 22.9 C 258.5 22.9 259.4 23.6 259.4 25.2 Z M 265.2 24.9 C 265.2 24.95 265.2 28.2 265.2 28.2 L 264.5 28.2 C 264.5 28.2 264.53 27.39 264.5 27.4 C 264.2 27.9 263.6 28.3 262.7 28.3 C 261.5 28.3 260.8 27.6 260.8 26.7 C 260.8 25.9 261.3 25.2 262.8 25.2 C 262.82 25.24 264.5 25.2 264.5 25.2 C 264.5 25.2 264.5 24.92 264.5 24.9 C 264.5 24 264 23.5 263 23.5 C 262.3 23.5 261.7 23.8 261.3 24.1 C 261.3 24.1 260.9 23.6 260.9 23.6 C 261.5 23.2 262.2 22.9 263.1 22.9 C 264.4 22.9 265.2 23.6 265.2 24.9 Z M 264.5 26.6 C 264.5 26.63 264.5 25.8 264.5 25.8 C 264.5 25.8 262.84 25.77 262.8 25.8 C 261.8 25.8 261.5 26.2 261.5 26.7 C 261.5 27.3 262 27.7 262.8 27.7 C 263.6 27.7 264.2 27.3 264.5 26.6 Z M 266.4 27.6 C 266.4 27.6 266.7 27 266.7 27 C 267.2 27.4 267.9 27.6 268.6 27.6 C 269.6 27.6 270 27.3 270 26.8 C 270 25.4 266.6 26.5 266.6 24.4 C 266.6 23.5 267.3 22.9 268.7 22.9 C 269.4 22.9 270.1 23.1 270.5 23.4 C 270.5 23.4 270.2 24 270.2 24 C 269.8 23.6 269.2 23.5 268.7 23.5 C 267.7 23.5 267.3 23.9 267.3 24.4 C 267.3 25.8 270.7 24.7 270.7 26.8 C 270.7 27.7 269.9 28.3 268.6 28.3 C 267.7 28.3 266.8 28 266.4 27.6 Z M 274 25.6 L 272.8 26.7 L 272.8 28.2 L 272 28.2 L 272 20.8 L 272.8 20.8 L 272.8 25.8 L 275.9 22.9 L 276.8 22.9 L 274.5 25.1 L 277 28.2 L 276.1 28.2 L 274 25.6 Z M 277.9 21.3 C 277.9 21 278.1 20.8 278.4 20.8 C 278.7 20.8 278.9 21 278.9 21.3 C 278.9 21.6 278.7 21.8 278.4 21.8 C 278.1 21.8 277.9 21.6 277.9 21.3 Z M 278.1 22.9 L 278.8 22.9 L 278.8 28.2 L 278.1 28.2 L 278.1 22.9 Z M 285.5 25.2 C 285.46 25.16 285.5 28.2 285.5 28.2 L 284.7 28.2 C 284.7 28.2 284.75 25.23 284.7 25.2 C 284.7 24.1 284.2 23.5 283.2 23.5 C 282 23.5 281.3 24.2 281.3 25.4 C 281.33 25.45 281.3 28.2 281.3 28.2 L 280.6 28.2 L 280.6 22.9 L 281.3 22.9 C 281.3 22.9 281.3 23.92 281.3 23.9 C 281.7 23.3 282.4 22.9 283.3 22.9 C 284.6 22.9 285.5 23.6 285.5 25.2 Z M 292.2 22.9 C 292.2 22.9 292.22 27.57 292.2 27.6 C 292.2 29.4 291.3 30.2 289.6 30.2 C 288.6 30.2 287.7 29.9 287.1 29.4 C 287.1 29.4 287.5 28.8 287.5 28.8 C 288 29.3 288.8 29.6 289.6 29.6 C 290.9 29.6 291.5 29 291.5 27.7 C 291.5 27.7 291.5 27 291.5 27 C 291.1 27.7 290.3 28 289.5 28 C 288 28 286.8 27 286.8 25.4 C 286.8 23.9 288 22.9 289.5 22.9 C 290.3 22.9 291.1 23.3 291.5 24 C 291.54 23.96 291.5 22.9 291.5 22.9 L 292.2 22.9 Z M 291.5 25.4 C 291.5 24.3 290.7 23.5 289.5 23.5 C 288.4 23.5 287.5 24.3 287.5 25.4 C 287.5 26.6 288.4 27.4 289.5 27.4 C 290.7 27.4 291.5 26.6 291.5 25.4 Z M 296.7 21.3 C 296.7 21 296.9 20.8 297.2 20.8 C 297.5 20.8 297.7 21 297.7 21.3 C 297.7 21.6 297.5 21.8 297.2 21.8 C 296.9 21.8 296.7 21.6 296.7 21.3 Z M 296.8 22.9 L 297.5 22.9 L 297.5 28.2 L 296.8 28.2 L 296.8 22.9 Z M 308.1 25.2 C 308.06 25.16 308.1 28.2 308.1 28.2 L 307.4 28.2 C 307.4 28.2 307.35 25.23 307.4 25.2 C 307.4 24.1 306.8 23.5 305.8 23.5 C 304.8 23.5 304.1 24.2 304.1 25.4 C 304.08 25.45 304.1 28.2 304.1 28.2 L 303.4 28.2 C 303.4 28.2 303.37 25.23 303.4 25.2 C 303.4 24.1 302.8 23.5 301.9 23.5 C 300.8 23.5 300.1 24.2 300.1 25.4 C 300.09 25.45 300.1 28.2 300.1 28.2 L 299.4 28.2 L 299.4 22.9 L 300.1 22.9 C 300.1 22.9 300.06 23.91 300.1 23.9 C 300.4 23.3 301.1 22.9 302 22.9 C 302.9 22.9 303.5 23.3 303.9 24 C 304.2 23.3 305 22.9 305.9 22.9 C 307.2 22.9 308.1 23.6 308.1 25.2 Z M 315.2 25.6 C 315.2 27.2 314.1 28.3 312.6 28.3 C 311.8 28.3 311 27.9 310.6 27.2 C 310.6 27.22 310.6 30.1 310.6 30.1 L 309.9 30.1 L 309.9 22.9 L 310.6 22.9 C 310.6 22.9 310.57 23.99 310.6 24 C 311 23.3 311.7 22.9 312.6 22.9 C 314.1 22.9 315.2 24 315.2 25.6 Z M 314.5 25.6 C 314.5 24.4 313.7 23.5 312.6 23.5 C 311.4 23.5 310.6 24.4 310.6 25.6 C 310.6 26.8 311.4 27.6 312.6 27.6 C 313.7 27.6 314.5 26.8 314.5 25.6 Z M 316.2 25.6 C 316.2 24 317.4 22.9 318.9 22.9 C 320.4 22.9 321.6 24 321.6 25.6 C 321.6 27.1 320.4 28.3 318.9 28.3 C 317.4 28.3 316.2 27.1 316.2 25.6 Z M 320.9 25.6 C 320.9 24.3 320 23.5 318.9 23.5 C 317.8 23.5 316.9 24.3 316.9 25.6 C 316.9 26.8 317.8 27.6 318.9 27.6 C 320 27.6 320.9 26.8 320.9 25.6 Z M 325.7 22.9 C 325.7 22.9 325.7 23.6 325.7 23.6 C 325.6 23.6 325.5 23.6 325.5 23.6 C 324.4 23.6 323.7 24.3 323.7 25.5 C 323.71 25.53 323.7 28.2 323.7 28.2 L 323 28.2 L 323 22.9 L 323.7 22.9 C 323.7 22.9 323.68 23.98 323.7 24 C 324 23.3 324.7 22.9 325.7 22.9 Z M 330 27.9 C 329.8 28.1 329.3 28.3 328.9 28.3 C 327.9 28.3 327.4 27.7 327.4 26.7 C 327.4 26.73 327.4 23.5 327.4 23.5 L 326.5 23.5 L 326.5 22.9 L 327.4 22.9 L 327.4 21.8 L 328.1 21.8 L 328.1 22.9 L 329.7 22.9 L 329.7 23.5 L 328.1 23.5 C 328.1 23.5 328.11 26.69 328.1 26.7 C 328.1 27.3 328.4 27.6 329 27.6 C 329.3 27.6 329.6 27.6 329.8 27.4 C 329.8 27.4 330 27.9 330 27.9 Z M 335.3 24.9 C 335.28 24.95 335.3 28.2 335.3 28.2 L 334.6 28.2 C 334.6 28.2 334.6 27.39 334.6 27.4 C 334.3 27.9 333.7 28.3 332.8 28.3 C 331.6 28.3 330.9 27.6 330.9 26.7 C 330.9 25.9 331.4 25.2 332.9 25.2 C 332.9 25.24 334.6 25.2 334.6 25.2 C 334.6 25.2 334.57 24.92 334.6 24.9 C 334.6 24 334.1 23.5 333.1 23.5 C 332.4 23.5 331.8 23.8 331.3 24.1 C 331.3 24.1 331 23.6 331 23.6 C 331.5 23.2 332.3 22.9 333.1 22.9 C 334.5 22.9 335.3 23.6 335.3 24.9 Z M 334.6 26.6 C 334.57 26.63 334.6 25.8 334.6 25.8 C 334.6 25.8 332.92 25.77 332.9 25.8 C 331.9 25.8 331.6 26.2 331.6 26.7 C 331.6 27.3 332.1 27.7 332.9 27.7 C 333.7 27.7 334.3 27.3 334.6 26.6 Z M 341.9 25.2 C 341.93 25.16 341.9 28.2 341.9 28.2 L 341.2 28.2 C 341.2 28.2 341.22 25.23 341.2 25.2 C 341.2 24.1 340.6 23.5 339.6 23.5 C 338.5 23.5 337.8 24.2 337.8 25.4 C 337.8 25.45 337.8 28.2 337.8 28.2 L 337.1 28.2 L 337.1 22.9 L 337.8 22.9 C 337.8 22.9 337.77 23.92 337.8 23.9 C 338.2 23.3 338.9 22.9 339.8 22.9 C 341.1 22.9 341.9 23.6 341.9 25.2 Z M 346.5 27.9 C 346.2 28.1 345.8 28.3 345.4 28.3 C 344.4 28.3 343.8 27.7 343.8 26.7 C 343.81 26.73 343.8 23.5 343.8 23.5 L 342.9 23.5 L 342.9 22.9 L 343.8 22.9 L 343.8 21.8 L 344.5 21.8 L 344.5 22.9 L 346.1 22.9 L 346.1 23.5 L 344.5 23.5 C 344.5 23.5 344.52 26.69 344.5 26.7 C 344.5 27.3 344.8 27.6 345.4 27.6 C 345.7 27.6 346 27.6 346.2 27.4 C 346.2 27.4 346.5 27.9 346.5 27.9 Z M 354.3 24.9 C 354.34 24.95 354.3 28.2 354.3 28.2 L 353.7 28.2 C 353.7 28.2 353.66 27.39 353.7 27.4 C 353.3 27.9 352.7 28.3 351.9 28.3 C 350.7 28.3 349.9 27.6 349.9 26.7 C 349.9 25.9 350.5 25.2 352 25.2 C 351.96 25.24 353.6 25.2 353.6 25.2 C 353.6 25.2 353.63 24.92 353.6 24.9 C 353.6 24 353.1 23.5 352.1 23.5 C 351.5 23.5 350.8 23.8 350.4 24.1 C 350.4 24.1 350.1 23.6 350.1 23.6 C 350.6 23.2 351.4 22.9 352.2 22.9 C 353.6 22.9 354.3 23.6 354.3 24.9 Z M 353.6 26.6 C 353.63 26.63 353.6 25.8 353.6 25.8 C 353.6 25.8 351.98 25.77 352 25.8 C 351 25.8 350.6 26.2 350.6 26.7 C 350.6 27.3 351.1 27.7 352 27.7 C 352.8 27.7 353.4 27.3 353.6 26.6 Z M 360.9 22.9 L 360.9 28.2 L 360.2 28.2 C 360.2 28.2 360.19 27.25 360.2 27.2 C 359.8 27.9 359.1 28.3 358.3 28.3 C 357 28.3 356.1 27.5 356.1 26 C 356.08 26 356.1 22.9 356.1 22.9 L 356.8 22.9 C 356.8 22.9 356.79 25.93 356.8 25.9 C 356.8 27 357.4 27.6 358.4 27.6 C 359.5 27.6 360.2 26.9 360.2 25.7 C 360.16 25.71 360.2 22.9 360.2 22.9 L 360.9 22.9 Z M 367.7 20.8 L 367.7 28.2 L 367 28.2 C 367 28.2 366.97 27.17 367 27.2 C 366.5 27.9 365.8 28.3 364.9 28.3 C 363.4 28.3 362.3 27.2 362.3 25.6 C 362.3 24 363.4 22.9 364.9 22.9 C 365.8 22.9 366.5 23.3 366.9 23.9 C 366.94 23.95 366.9 20.8 366.9 20.8 L 367.7 20.8 Z M 367 25.6 C 367 24.3 366.1 23.5 365 23.5 C 363.9 23.5 363 24.3 363 25.6 C 363 26.8 363.9 27.6 365 27.6 C 366.1 27.6 367 26.8 367 25.6 Z M 369.4 21.3 C 369.4 21 369.6 20.8 369.9 20.8 C 370.2 20.8 370.4 21 370.4 21.3 C 370.4 21.6 370.2 21.8 369.9 21.8 C 369.6 21.8 369.4 21.6 369.4 21.3 Z M 369.5 22.9 L 370.2 22.9 L 370.2 28.2 L 369.5 28.2 L 369.5 22.9 Z M 377.4 25.6 C 377.4 27.2 376.3 28.3 374.8 28.3 C 373.9 28.3 373.2 27.9 372.7 27.2 C 372.75 27.17 372.7 28.2 372.7 28.2 L 372.1 28.2 L 372.1 20.8 L 372.8 20.8 C 372.8 20.8 372.78 23.95 372.8 23.9 C 373.2 23.3 373.9 22.9 374.8 22.9 C 376.3 22.9 377.4 24 377.4 25.6 Z M 376.7 25.6 C 376.7 24.3 375.8 23.5 374.7 23.5 C 373.6 23.5 372.8 24.3 372.8 25.6 C 372.8 26.8 373.6 27.6 374.7 27.6 C 375.8 27.6 376.7 26.8 376.7 25.6 Z M 378.9 20.8 L 379.6 20.8 L 379.6 28.2 L 378.9 28.2 L 378.9 20.8 Z M 386.1 25.8 C 386.1 25.8 381.7 25.8 381.7 25.8 C 381.8 26.9 382.6 27.6 383.8 27.6 C 384.4 27.6 385 27.4 385.4 26.9 C 385.4 26.9 385.8 27.4 385.8 27.4 C 385.3 28 384.6 28.3 383.7 28.3 C 382.1 28.3 381 27.1 381 25.6 C 381 24 382.1 22.9 383.6 22.9 C 385 22.9 386.1 24 386.1 25.6 C 386.1 25.6 386.1 25.7 386.1 25.8 Z M 381.7 25.3 C 381.7 25.3 385.4 25.3 385.4 25.3 C 385.3 24.2 384.6 23.5 383.6 23.5 C 382.5 23.5 381.8 24.2 381.7 25.3 Z M 389.6 25.6 C 389.6 24 390.8 22.9 392.4 22.9 C 393.2 22.9 394 23.3 394.4 23.9 C 394.4 23.9 393.9 24.3 393.9 24.3 C 393.5 23.8 393 23.5 392.4 23.5 C 391.2 23.5 390.4 24.3 390.4 25.6 C 390.4 26.8 391.2 27.6 392.4 27.6 C 393 27.6 393.5 27.4 393.9 26.9 C 393.9 26.9 394.4 27.2 394.4 27.2 C 394 27.9 393.2 28.3 392.4 28.3 C 390.8 28.3 389.6 27.1 389.6 25.6 Z M 400.4 22.9 L 400.4 28.2 L 399.7 28.2 C 399.7 28.2 399.74 27.25 399.7 27.2 C 399.4 27.9 398.7 28.3 397.9 28.3 C 396.5 28.3 395.6 27.5 395.6 26 C 395.63 26 395.6 22.9 395.6 22.9 L 396.3 22.9 C 396.3 22.9 396.34 25.93 396.3 25.9 C 396.3 27 396.9 27.6 397.9 27.6 C 399 27.6 399.7 26.9 399.7 25.7 C 399.71 25.71 399.7 22.9 399.7 22.9 L 400.4 22.9 Z M 407 25.8 C 407 25.8 402.6 25.8 402.6 25.8 C 402.7 26.9 403.5 27.6 404.7 27.6 C 405.3 27.6 405.9 27.4 406.3 26.9 C 406.3 26.9 406.7 27.4 406.7 27.4 C 406.2 28 405.5 28.3 404.6 28.3 C 403 28.3 401.9 27.1 401.9 25.6 C 401.9 24 403 22.9 404.4 22.9 C 405.9 22.9 407 24 407 25.6 C 407 25.6 407 25.7 407 25.8 Z M 402.6 25.3 C 402.6 25.3 406.3 25.3 406.3 25.3 C 406.2 24.2 405.5 23.5 404.4 23.5 C 403.4 23.5 402.7 24.2 402.6 25.3 Z M 407.8 27.6 C 407.8 27.6 408.1 27 408.1 27 C 408.5 27.4 409.2 27.6 410 27.6 C 411 27.6 411.4 27.3 411.4 26.8 C 411.4 25.4 408 26.5 408 24.4 C 408 23.5 408.7 22.9 410.1 22.9 C 410.7 22.9 411.5 23.1 411.9 23.4 C 411.9 23.4 411.6 24 411.6 24 C 411.1 23.6 410.6 23.5 410.1 23.5 C 409.1 23.5 408.7 23.9 408.7 24.4 C 408.7 25.8 412.1 24.7 412.1 26.8 C 412.1 27.7 411.3 28.3 409.9 28.3 C 409.1 28.3 408.2 28 407.8 27.6 Z " stroke="none" fill="#323132"/>
  </g>
  <g id="Polygon120424">
    <path d="M 20.4 25.5 L 16.2 27.7 L 16.2 23.4 L 20.4 25.5 Z " stroke="none" fill="#a243ff"/>
  </g>
</svg>