<?xml version="1.0" standalone="no"?>
<!DOCTYPE svg PUBLIC "-//W3C//DTD SVG 1.1//EN" "http://www.w3.org/Graphics/SVG/1.1/DTD/svg11.dtd">
<svg xmlns="http://www.w3.org/2000/svg" version="1.1" width="353px" height="254.5px" viewBox="0 -2 353 254.5" style="top:-2px">
  <desc>This mission includes sound To view the mission, click the image below</desc>
  <defs/>
  <g id="Polygon122446">
    <path d="M 131.5 39.4 C 131.2 39.6 130.8 39.7 130.4 39.7 C 129.4 39.7 128.8 39.2 128.8 38.2 C 128.82 38.2 128.8 35 128.8 35 L 127.9 35 L 127.9 34.4 L 128.8 34.4 L 128.8 33.3 L 129.5 33.3 L 129.5 34.4 L 131.1 34.4 L 131.1 35 L 129.5 35 C 129.5 35 129.53 38.16 129.5 38.2 C 129.5 38.8 129.8 39.1 130.4 39.1 C 130.7 39.1 131 39 131.2 38.9 C 131.2 38.9 131.5 39.4 131.5 39.4 Z M 137.6 36.6 C 137.6 36.63 137.6 39.7 137.6 39.7 L 136.9 39.7 C 136.9 39.7 136.89 36.7 136.9 36.7 C 136.9 35.6 136.3 35 135.3 35 C 134.2 35 133.5 35.7 133.5 36.9 C 133.47 36.92 133.5 39.7 133.5 39.7 L 132.8 39.7 L 132.8 32.3 L 133.5 32.3 C 133.5 32.3 133.47 35.34 133.5 35.3 C 133.9 34.7 134.5 34.4 135.4 34.4 C 136.7 34.4 137.6 35.1 137.6 36.6 Z M 144.1 37.3 C 144.1 37.3 139.7 37.3 139.7 37.3 C 139.8 38.4 140.6 39.1 141.8 39.1 C 142.4 39.1 143 38.9 143.4 38.4 C 143.4 38.4 143.8 38.9 143.8 38.9 C 143.3 39.4 142.6 39.7 141.8 39.7 C 140.1 39.7 139 38.6 139 37 C 139 35.5 140.1 34.4 141.6 34.4 C 143.1 34.4 144.1 35.5 144.1 37 C 144.1 37.1 144.1 37.2 144.1 37.3 Z M 139.7 36.7 C 139.7 36.7 143.5 36.7 143.5 36.7 C 143.4 35.7 142.6 35 141.6 35 C 140.6 35 139.8 35.7 139.7 36.7 Z M 148 32.8 C 148 32.5 148.3 32.3 148.6 32.3 C 148.9 32.3 149.1 32.5 149.1 32.7 C 149.1 33 148.9 33.3 148.6 33.3 C 148.3 33.3 148 33 148 32.8 Z M 148.2 34.4 L 148.9 34.4 L 148.9 39.7 L 148.2 39.7 L 148.2 34.4 Z M 159.6 36.6 C 159.58 36.63 159.6 39.7 159.6 39.7 L 158.9 39.7 C 158.9 39.7 158.87 36.7 158.9 36.7 C 158.9 35.6 158.3 35 157.4 35 C 156.3 35 155.6 35.7 155.6 36.9 C 155.6 36.92 155.6 39.7 155.6 39.7 L 154.9 39.7 C 154.9 39.7 154.89 36.7 154.9 36.7 C 154.9 35.6 154.3 35 153.4 35 C 152.3 35 151.6 35.7 151.6 36.9 C 151.61 36.92 151.6 39.7 151.6 39.7 L 150.9 39.7 L 150.9 34.4 L 151.6 34.4 C 151.6 34.4 151.58 35.38 151.6 35.4 C 151.9 34.7 152.6 34.4 153.5 34.4 C 154.4 34.4 155.1 34.7 155.4 35.5 C 155.8 34.8 156.5 34.4 157.5 34.4 C 158.7 34.4 159.6 35.1 159.6 36.6 Z M 165.5 36.4 C 165.48 36.42 165.5 39.7 165.5 39.7 L 164.8 39.7 C 164.8 39.7 164.8 38.86 164.8 38.9 C 164.5 39.4 163.9 39.7 163 39.7 C 161.8 39.7 161.1 39.1 161.1 38.2 C 161.1 37.4 161.6 36.7 163.1 36.7 C 163.1 36.71 164.8 36.7 164.8 36.7 C 164.8 36.7 164.77 36.39 164.8 36.4 C 164.8 35.5 164.3 35 163.3 35 C 162.6 35 162 35.2 161.5 35.6 C 161.5 35.6 161.2 35.1 161.2 35.1 C 161.7 34.6 162.5 34.4 163.3 34.4 C 164.7 34.4 165.5 35.1 165.5 36.4 Z M 164.8 38.1 C 164.77 38.1 164.8 37.2 164.8 37.2 C 164.8 37.2 163.12 37.24 163.1 37.2 C 162.1 37.2 161.8 37.6 161.8 38.2 C 161.8 38.8 162.3 39.2 163.1 39.2 C 163.9 39.2 164.5 38.8 164.8 38.1 Z M 172.3 34.4 C 172.3 34.4 172.3 39.04 172.3 39 C 172.3 40.9 171.4 41.7 169.7 41.7 C 168.7 41.7 167.8 41.4 167.2 40.9 C 167.2 40.9 167.6 40.3 167.6 40.3 C 168.1 40.8 168.8 41 169.6 41 C 171 41 171.6 40.4 171.6 39.1 C 171.6 39.1 171.6 38.5 171.6 38.5 C 171.1 39.1 170.4 39.5 169.5 39.5 C 168 39.5 166.9 38.4 166.9 36.9 C 166.9 35.4 168 34.4 169.5 34.4 C 170.4 34.4 171.2 34.7 171.6 35.4 C 171.62 35.43 171.6 34.4 171.6 34.4 L 172.3 34.4 Z M 171.6 36.9 C 171.6 35.8 170.8 35 169.6 35 C 168.4 35 167.6 35.8 167.6 36.9 C 167.6 38.1 168.4 38.9 169.6 38.9 C 170.8 38.9 171.6 38.1 171.6 36.9 Z M 178.9 37.3 C 178.9 37.3 174.5 37.3 174.5 37.3 C 174.5 38.4 175.4 39.1 176.5 39.1 C 177.2 39.1 177.7 38.9 178.1 38.4 C 178.1 38.4 178.5 38.9 178.5 38.9 C 178.1 39.4 177.3 39.7 176.5 39.7 C 174.9 39.7 173.8 38.6 173.8 37 C 173.8 35.5 174.8 34.4 176.3 34.4 C 177.8 34.4 178.9 35.5 178.9 37 C 178.9 37.1 178.9 37.2 178.9 37.3 Z M 174.5 36.7 C 174.5 36.7 178.2 36.7 178.2 36.7 C 178.1 35.7 177.4 35 176.3 35 C 175.3 35 174.6 35.7 174.5 36.7 Z M 188.3 37 C 188.3 38.6 187.2 39.7 185.7 39.7 C 184.8 39.7 184.1 39.3 183.6 38.6 C 183.63 38.64 183.6 39.7 183.6 39.7 L 182.9 39.7 L 182.9 32.3 L 183.7 32.3 C 183.7 32.3 183.66 35.42 183.7 35.4 C 184.1 34.7 184.8 34.4 185.7 34.4 C 187.2 34.4 188.3 35.5 188.3 37 Z M 187.6 37 C 187.6 35.8 186.7 35 185.6 35 C 184.5 35 183.6 35.8 183.6 37 C 183.6 38.3 184.5 39.1 185.6 39.1 C 186.7 39.1 187.6 38.3 187.6 37 Z M 194.3 37.3 C 194.3 37.3 189.9 37.3 189.9 37.3 C 190 38.4 190.8 39.1 192 39.1 C 192.6 39.1 193.2 38.9 193.6 38.4 C 193.6 38.4 194 38.9 194 38.9 C 193.5 39.4 192.8 39.7 192 39.7 C 190.3 39.7 189.2 38.6 189.2 37 C 189.2 35.5 190.3 34.4 191.8 34.4 C 193.2 34.4 194.3 35.5 194.3 37 C 194.3 37.1 194.3 37.2 194.3 37.3 Z M 189.9 36.7 C 189.9 36.7 193.6 36.7 193.6 36.7 C 193.5 35.7 192.8 35 191.8 35 C 190.7 35 190 35.7 189.9 36.7 Z M 195.8 32.3 L 196.5 32.3 L 196.5 39.7 L 195.8 39.7 L 195.8 32.3 Z M 197.9 37 C 197.9 35.5 199.1 34.4 200.6 34.4 C 202.1 34.4 203.3 35.5 203.3 37 C 203.3 38.6 202.1 39.7 200.6 39.7 C 199.1 39.7 197.9 38.6 197.9 37 Z M 202.6 37 C 202.6 35.8 201.7 35 200.6 35 C 199.5 35 198.6 35.8 198.6 37 C 198.6 38.3 199.5 39.1 200.6 39.1 C 201.7 39.1 202.6 38.3 202.6 37 Z M 212.3 34.4 L 210.3 39.7 L 209.6 39.7 L 208 35.4 L 206.3 39.7 L 205.6 39.7 L 203.7 34.4 L 204.3 34.4 L 206 38.9 L 207.7 34.4 L 208.3 34.4 L 210 38.9 L 211.6 34.4 L 212.3 34.4 Z " stroke="none" fill="#000"/>
  </g>
  <g id="Polygon122445">
    <path d="M 2.5 33.3 L 0 33.3 L 0 32.7 L 5.7 32.7 L 5.7 33.3 L 3.2 33.3 L 3.2 39.7 L 2.5 39.7 L 2.5 33.3 Z M 5.7 37 C 5.7 35.5 6.8 34.4 8.3 34.4 C 9.9 34.4 11 35.5 11 37 C 11 38.6 9.9 39.7 8.3 39.7 C 6.8 39.7 5.7 38.6 5.7 37 Z M 10.3 37 C 10.3 35.8 9.5 35 8.3 35 C 7.2 35 6.4 35.8 6.4 37 C 6.4 38.3 7.2 39.1 8.3 39.1 C 9.5 39.1 10.3 38.3 10.3 37 Z M 19.5 34.4 L 17.1 39.7 L 16.4 39.7 L 14.1 34.4 L 14.8 34.4 L 16.8 38.9 L 18.8 34.4 L 19.5 34.4 Z M 20.3 32.8 C 20.3 32.5 20.6 32.3 20.8 32.3 C 21.1 32.3 21.4 32.5 21.4 32.7 C 21.4 33 21.1 33.3 20.8 33.3 C 20.6 33.3 20.3 33 20.3 32.8 Z M 20.5 34.4 L 21.2 34.4 L 21.2 39.7 L 20.5 39.7 L 20.5 34.4 Z M 27.8 37.3 C 27.8 37.3 23.4 37.3 23.4 37.3 C 23.4 38.4 24.3 39.1 25.4 39.1 C 26.1 39.1 26.6 38.9 27 38.4 C 27 38.4 27.4 38.9 27.4 38.9 C 27 39.4 26.2 39.7 25.4 39.7 C 23.8 39.7 22.7 38.6 22.7 37 C 22.7 35.5 23.7 34.4 25.2 34.4 C 26.7 34.4 27.8 35.5 27.8 37 C 27.8 37.1 27.8 37.2 27.8 37.3 Z M 23.4 36.7 C 23.4 36.7 27.1 36.7 27.1 36.7 C 27 35.7 26.3 35 25.2 35 C 24.2 35 23.4 35.7 23.4 36.7 Z M 36.8 34.4 L 34.8 39.7 L 34.2 39.7 L 32.5 35.4 L 30.9 39.7 L 30.2 39.7 L 28.2 34.4 L 28.9 34.4 L 30.5 38.9 L 32.2 34.4 L 32.8 34.4 L 34.5 38.9 L 36.2 34.4 L 36.8 34.4 Z M 43.3 39.4 C 43 39.6 42.6 39.7 42.2 39.7 C 41.2 39.7 40.7 39.2 40.7 38.2 C 40.65 38.2 40.7 35 40.7 35 L 39.7 35 L 39.7 34.4 L 40.7 34.4 L 40.7 33.3 L 41.4 33.3 L 41.4 34.4 L 43 34.4 L 43 35 L 41.4 35 C 41.4 35 41.36 38.16 41.4 38.2 C 41.4 38.8 41.7 39.1 42.3 39.1 C 42.6 39.1 42.8 39 43 38.9 C 43 38.9 43.3 39.4 43.3 39.4 Z M 49.4 36.6 C 49.43 36.63 49.4 39.7 49.4 39.7 L 48.7 39.7 C 48.7 39.7 48.72 36.7 48.7 36.7 C 48.7 35.6 48.1 35 47.1 35 C 46 35 45.3 35.7 45.3 36.9 C 45.3 36.92 45.3 39.7 45.3 39.7 L 44.6 39.7 L 44.6 32.3 L 45.3 32.3 C 45.3 32.3 45.3 35.34 45.3 35.3 C 45.7 34.7 46.4 34.4 47.3 34.4 C 48.6 34.4 49.4 35.1 49.4 36.6 Z M 56 37.3 C 56 37.3 51.6 37.3 51.6 37.3 C 51.6 38.4 52.5 39.1 53.6 39.1 C 54.3 39.1 54.8 38.9 55.2 38.4 C 55.2 38.4 55.6 38.9 55.6 38.9 C 55.2 39.4 54.4 39.7 53.6 39.7 C 52 39.7 50.9 38.6 50.9 37 C 50.9 35.5 51.9 34.4 53.4 34.4 C 54.9 34.4 56 35.5 56 37 C 56 37.1 56 37.2 56 37.3 Z M 51.6 36.7 C 51.6 36.7 55.3 36.7 55.3 36.7 C 55.2 35.7 54.4 35 53.4 35 C 52.4 35 51.6 35.7 51.6 36.7 Z M 68.7 36.6 C 68.72 36.63 68.7 39.7 68.7 39.7 L 68 39.7 C 68 39.7 68.01 36.7 68 36.7 C 68 35.6 67.4 35 66.5 35 C 65.4 35 64.7 35.7 64.7 36.9 C 64.74 36.92 64.7 39.7 64.7 39.7 L 64 39.7 C 64 39.7 64.03 36.7 64 36.7 C 64 35.6 63.5 35 62.5 35 C 61.4 35 60.7 35.7 60.7 36.9 C 60.75 36.92 60.7 39.7 60.7 39.7 L 60 39.7 L 60 34.4 L 60.7 34.4 C 60.7 34.4 60.72 35.38 60.7 35.4 C 61.1 34.7 61.8 34.4 62.6 34.4 C 63.5 34.4 64.2 34.7 64.5 35.5 C 64.9 34.8 65.6 34.4 66.6 34.4 C 67.9 34.4 68.7 35.1 68.7 36.6 Z M 70.5 32.8 C 70.5 32.5 70.7 32.3 71 32.3 C 71.3 32.3 71.5 32.5 71.5 32.7 C 71.5 33 71.3 33.3 71 33.3 C 70.7 33.3 70.5 33 70.5 32.8 Z M 70.6 34.4 L 71.4 34.4 L 71.4 39.7 L 70.6 39.7 L 70.6 34.4 Z M 72.6 39.1 C 72.6 39.1 72.9 38.5 72.9 38.5 C 73.3 38.9 74.1 39.1 74.8 39.1 C 75.8 39.1 76.2 38.8 76.2 38.3 C 76.2 36.9 72.8 38 72.8 35.9 C 72.8 35 73.5 34.4 74.9 34.4 C 75.6 34.4 76.3 34.6 76.7 34.9 C 76.7 34.9 76.4 35.4 76.4 35.4 C 76 35.1 75.4 35 74.9 35 C 73.9 35 73.5 35.4 73.5 35.9 C 73.5 37.3 76.9 36.2 76.9 38.2 C 76.9 39.1 76.1 39.7 74.7 39.7 C 73.9 39.7 73 39.4 72.6 39.1 Z M 77.5 39.1 C 77.5 39.1 77.8 38.5 77.8 38.5 C 78.2 38.9 78.9 39.1 79.7 39.1 C 80.7 39.1 81.1 38.8 81.1 38.3 C 81.1 36.9 77.7 38 77.7 35.9 C 77.7 35 78.4 34.4 79.8 34.4 C 80.4 34.4 81.2 34.6 81.6 34.9 C 81.6 34.9 81.3 35.4 81.3 35.4 C 80.9 35.1 80.3 35 79.8 35 C 78.8 35 78.4 35.4 78.4 35.9 C 78.4 37.3 81.8 36.2 81.8 38.2 C 81.8 39.1 81 39.7 79.6 39.7 C 78.8 39.7 77.9 39.4 77.5 39.1 Z M 83 32.8 C 83 32.5 83.2 32.3 83.5 32.3 C 83.8 32.3 84 32.5 84 32.7 C 84 33 83.8 33.3 83.5 33.3 C 83.2 33.3 83 33 83 32.8 Z M 83.1 34.4 L 83.8 34.4 L 83.8 39.7 L 83.1 39.7 L 83.1 34.4 Z M 85.3 37 C 85.3 35.5 86.4 34.4 88 34.4 C 89.5 34.4 90.6 35.5 90.6 37 C 90.6 38.6 89.5 39.7 88 39.7 C 86.4 39.7 85.3 38.6 85.3 37 Z M 89.9 37 C 89.9 35.8 89.1 35 88 35 C 86.8 35 86 35.8 86 37 C 86 38.3 86.8 39.1 88 39.1 C 89.1 39.1 89.9 38.3 89.9 37 Z M 96.9 36.6 C 96.92 36.63 96.9 39.7 96.9 39.7 L 96.2 39.7 C 96.2 39.7 96.21 36.7 96.2 36.7 C 96.2 35.6 95.6 35 94.6 35 C 93.5 35 92.8 35.7 92.8 36.9 C 92.79 36.92 92.8 39.7 92.8 39.7 L 92.1 39.7 L 92.1 34.4 L 92.8 34.4 C 92.8 34.4 92.76 35.39 92.8 35.4 C 93.1 34.7 93.8 34.4 94.8 34.4 C 96 34.4 96.9 35.1 96.9 36.6 Z M 99.5 39.2 C 99.5 39.3 99.4 39.5 99.3 39.8 C 99.32 39.76 98.9 41.1 98.9 41.1 L 98.4 41.1 C 98.4 41.1 98.76 39.69 98.8 39.7 C 98.5 39.6 98.4 39.4 98.4 39.2 C 98.4 38.9 98.6 38.6 98.9 38.6 C 99.2 38.6 99.5 38.9 99.5 39.2 Z M 103.1 37 C 103.1 35.5 104.2 34.4 105.8 34.4 C 106.7 34.4 107.4 34.7 107.8 35.4 C 107.8 35.4 107.3 35.8 107.3 35.8 C 106.9 35.2 106.4 35 105.8 35 C 104.6 35 103.8 35.8 103.8 37 C 103.8 38.3 104.6 39.1 105.8 39.1 C 106.4 39.1 106.9 38.9 107.3 38.3 C 107.3 38.3 107.8 38.7 107.8 38.7 C 107.4 39.4 106.7 39.7 105.8 39.7 C 104.2 39.7 103.1 38.6 103.1 37 Z M 109.1 32.3 L 109.8 32.3 L 109.8 39.7 L 109.1 39.7 L 109.1 32.3 Z M 111.7 32.8 C 111.7 32.5 111.9 32.3 112.2 32.3 C 112.5 32.3 112.7 32.5 112.7 32.7 C 112.7 33 112.5 33.3 112.2 33.3 C 111.9 33.3 111.7 33 111.7 32.8 Z M 111.8 34.4 L 112.5 34.4 L 112.5 39.7 L 111.8 39.7 L 111.8 34.4 Z M 114 37 C 114 35.5 115.1 34.4 116.7 34.4 C 117.6 34.4 118.3 34.7 118.8 35.4 C 118.8 35.4 118.2 35.8 118.2 35.8 C 117.9 35.2 117.3 35 116.7 35 C 115.5 35 114.7 35.8 114.7 37 C 114.7 38.3 115.5 39.1 116.7 39.1 C 117.3 39.1 117.9 38.9 118.2 38.3 C 118.2 38.3 118.8 38.7 118.8 38.7 C 118.3 39.4 117.6 39.7 116.7 39.7 C 115.1 39.7 114 38.6 114 37 Z M 122 37 L 120.8 38.2 L 120.8 39.7 L 120.1 39.7 L 120.1 32.3 L 120.8 32.3 L 120.8 37.3 L 123.9 34.4 L 124.8 34.4 L 122.5 36.6 L 125 39.7 L 124.1 39.7 L 122 37 Z " stroke="none" fill="#000"/>
  </g>
  <g id="Polygon122444">
    <path d="M 39.3 9.7 L 39.3 4 L 37 4 L 37 2.7 L 43.1 2.7 L 43.1 4 L 40.9 4 L 40.9 9.7 L 39.3 9.7 Z M 47.2 4.2 C 47.6 4.2 48 4.3 48.3 4.5 C 48.7 4.6 48.9 4.9 49.1 5.3 C 49.3 5.6 49.4 6.1 49.4 6.6 C 49.4 6.6 49.4 9.7 49.4 9.7 L 47.8 9.7 C 47.8 9.7 47.84 6.84 47.8 6.8 C 47.8 6.4 47.7 6.1 47.6 5.9 C 47.4 5.7 47.1 5.6 46.7 5.6 C 46.5 5.6 46.3 5.6 46.1 5.7 C 45.9 5.8 45.7 6 45.6 6.2 C 45.5 6.4 45.5 6.7 45.5 7 C 45.46 7.02 45.5 9.7 45.5 9.7 L 43.9 9.7 L 43.9 2.3 L 45.5 2.3 L 45.5 5.8 C 45.5 5.8 45.11 5.34 45.1 5.3 C 45.3 5 45.6 4.7 45.9 4.5 C 46.3 4.3 46.7 4.2 47.2 4.2 Z M 50.8 9.7 L 50.8 4.3 L 52.4 4.3 L 52.4 9.7 L 50.8 9.7 Z M 51.6 3.5 C 51.3 3.5 51.1 3.5 50.9 3.3 C 50.7 3.1 50.6 2.9 50.6 2.7 C 50.6 2.4 50.7 2.2 50.9 2.1 C 51.1 1.9 51.3 1.8 51.6 1.8 C 51.9 1.8 52.1 1.9 52.3 2 C 52.5 2.2 52.6 2.4 52.6 2.6 C 52.6 2.9 52.5 3.1 52.3 3.3 C 52.1 3.5 51.9 3.5 51.6 3.5 Z M 55.6 9.8 C 55.2 9.8 54.7 9.7 54.3 9.6 C 53.9 9.5 53.5 9.3 53.3 9.2 C 53.3 9.2 53.8 8.1 53.8 8.1 C 54.1 8.2 54.4 8.3 54.7 8.4 C 55 8.5 55.4 8.6 55.7 8.6 C 56 8.6 56.3 8.5 56.5 8.4 C 56.6 8.4 56.7 8.2 56.7 8.1 C 56.7 8 56.6 7.9 56.5 7.8 C 56.4 7.7 56.2 7.7 56 7.7 C 55.8 7.6 55.6 7.6 55.4 7.6 C 55.2 7.5 54.9 7.5 54.7 7.4 C 54.5 7.4 54.3 7.3 54.1 7.2 C 53.9 7.1 53.7 6.9 53.6 6.7 C 53.5 6.5 53.4 6.3 53.4 6 C 53.4 5.6 53.5 5.3 53.7 5.1 C 53.9 4.8 54.2 4.6 54.6 4.4 C 55 4.3 55.4 4.2 55.9 4.2 C 56.3 4.2 56.7 4.3 57 4.3 C 57.4 4.4 57.7 4.5 58 4.7 C 58 4.7 57.5 5.8 57.5 5.8 C 57.2 5.6 56.9 5.5 56.7 5.5 C 56.4 5.4 56.2 5.4 55.9 5.4 C 55.6 5.4 55.3 5.4 55.2 5.5 C 55 5.6 54.9 5.8 54.9 5.9 C 54.9 6 55 6.1 55.1 6.2 C 55.2 6.3 55.4 6.3 55.6 6.4 C 55.8 6.4 56 6.4 56.2 6.5 C 56.4 6.5 56.7 6.5 56.9 6.6 C 57.1 6.7 57.3 6.7 57.5 6.9 C 57.7 7 57.9 7.1 58 7.3 C 58.1 7.5 58.2 7.7 58.2 8 C 58.2 8.4 58.1 8.7 57.9 8.9 C 57.7 9.2 57.4 9.4 57 9.5 C 56.6 9.7 56.2 9.8 55.6 9.8 Z M 68.8 4.2 C 69.3 4.2 69.7 4.3 70 4.5 C 70.3 4.6 70.6 4.9 70.8 5.3 C 71 5.6 71 6.1 71 6.6 C 71.05 6.6 71 9.7 71 9.7 L 69.5 9.7 C 69.5 9.7 69.49 6.84 69.5 6.8 C 69.5 6.4 69.4 6.1 69.2 5.9 C 69 5.7 68.8 5.6 68.5 5.6 C 68.2 5.6 68 5.6 67.8 5.7 C 67.7 5.8 67.5 6 67.4 6.2 C 67.3 6.4 67.3 6.7 67.3 7 C 67.28 6.98 67.3 9.7 67.3 9.7 L 65.7 9.7 C 65.7 9.7 65.72 6.84 65.7 6.8 C 65.7 6.4 65.6 6.1 65.5 5.9 C 65.3 5.7 65 5.6 64.7 5.6 C 64.5 5.6 64.3 5.6 64.1 5.7 C 63.9 5.8 63.8 6 63.7 6.2 C 63.6 6.4 63.5 6.7 63.5 7 C 63.52 6.98 63.5 9.7 63.5 9.7 L 62 9.7 L 62 4.3 L 63.4 4.3 L 63.4 5.8 C 63.4 5.8 63.17 5.34 63.2 5.3 C 63.4 5 63.6 4.7 64 4.5 C 64.3 4.3 64.7 4.2 65.1 4.2 C 65.6 4.2 66.1 4.3 66.4 4.6 C 66.8 4.8 67 5.2 67.2 5.7 C 67.2 5.7 66.6 5.6 66.6 5.6 C 66.8 5.2 67.1 4.8 67.5 4.6 C 67.9 4.3 68.3 4.2 68.8 4.2 Z M 72.4 9.7 L 72.4 4.3 L 74 4.3 L 74 9.7 L 72.4 9.7 Z M 73.2 3.5 C 72.9 3.5 72.7 3.5 72.5 3.3 C 72.3 3.1 72.3 2.9 72.3 2.7 C 72.3 2.4 72.3 2.2 72.5 2.1 C 72.7 1.9 72.9 1.8 73.2 1.8 C 73.5 1.8 73.7 1.9 73.9 2 C 74.1 2.2 74.2 2.4 74.2 2.6 C 74.2 2.9 74.1 3.1 73.9 3.3 C 73.8 3.5 73.5 3.5 73.2 3.5 Z M 77.3 9.8 C 76.8 9.8 76.4 9.7 75.9 9.6 C 75.5 9.5 75.2 9.3 74.9 9.2 C 74.9 9.2 75.5 8.1 75.5 8.1 C 75.7 8.2 76 8.3 76.3 8.4 C 76.7 8.5 77 8.6 77.3 8.6 C 77.7 8.6 77.9 8.5 78.1 8.4 C 78.2 8.4 78.3 8.2 78.3 8.1 C 78.3 8 78.3 7.9 78.1 7.8 C 78 7.7 77.9 7.7 77.7 7.7 C 77.5 7.6 77.3 7.6 77 7.6 C 76.8 7.5 76.6 7.5 76.3 7.4 C 76.1 7.4 75.9 7.3 75.7 7.2 C 75.5 7.1 75.4 6.9 75.2 6.7 C 75.1 6.5 75.1 6.3 75.1 6 C 75.1 5.6 75.2 5.3 75.4 5.1 C 75.6 4.8 75.8 4.6 76.2 4.4 C 76.6 4.3 77 4.2 77.6 4.2 C 77.9 4.2 78.3 4.3 78.7 4.3 C 79.1 4.4 79.4 4.5 79.6 4.7 C 79.6 4.7 79.1 5.8 79.1 5.8 C 78.8 5.6 78.6 5.5 78.3 5.5 C 78.1 5.4 77.8 5.4 77.6 5.4 C 77.2 5.4 77 5.4 76.8 5.5 C 76.6 5.6 76.6 5.8 76.6 5.9 C 76.6 6 76.6 6.1 76.7 6.2 C 76.9 6.3 77 6.3 77.2 6.4 C 77.4 6.4 77.6 6.4 77.8 6.5 C 78.1 6.5 78.3 6.5 78.5 6.6 C 78.8 6.7 79 6.7 79.2 6.9 C 79.4 7 79.5 7.1 79.6 7.3 C 79.7 7.5 79.8 7.7 79.8 8 C 79.8 8.4 79.7 8.7 79.5 8.9 C 79.3 9.2 79 9.4 78.6 9.5 C 78.3 9.7 77.8 9.8 77.3 9.8 Z M 82.6 9.8 C 82.1 9.8 81.7 9.7 81.3 9.6 C 80.8 9.5 80.5 9.3 80.2 9.2 C 80.2 9.2 80.8 8.1 80.8 8.1 C 81 8.2 81.3 8.3 81.6 8.4 C 82 8.5 82.3 8.6 82.6 8.6 C 83 8.6 83.3 8.5 83.4 8.4 C 83.6 8.4 83.6 8.2 83.6 8.1 C 83.6 8 83.6 7.9 83.5 7.8 C 83.3 7.7 83.2 7.7 83 7.7 C 82.8 7.6 82.6 7.6 82.4 7.6 C 82.1 7.5 81.9 7.5 81.7 7.4 C 81.4 7.4 81.2 7.3 81 7.2 C 80.8 7.1 80.7 6.9 80.6 6.7 C 80.4 6.5 80.4 6.3 80.4 6 C 80.4 5.6 80.5 5.3 80.7 5.1 C 80.9 4.8 81.2 4.6 81.5 4.4 C 81.9 4.3 82.3 4.2 82.9 4.2 C 83.2 4.2 83.6 4.3 84 4.3 C 84.4 4.4 84.7 4.5 84.9 4.7 C 84.9 4.7 84.4 5.8 84.4 5.8 C 84.2 5.6 83.9 5.5 83.6 5.5 C 83.4 5.4 83.1 5.4 82.9 5.4 C 82.5 5.4 82.3 5.4 82.1 5.5 C 81.9 5.6 81.9 5.8 81.9 5.9 C 81.9 6 81.9 6.1 82 6.2 C 82.2 6.3 82.3 6.3 82.5 6.4 C 82.7 6.4 82.9 6.4 83.1 6.5 C 83.4 6.5 83.6 6.5 83.8 6.6 C 84.1 6.7 84.3 6.7 84.5 6.9 C 84.7 7 84.8 7.1 84.9 7.3 C 85.1 7.5 85.1 7.7 85.1 8 C 85.1 8.4 85 8.7 84.8 8.9 C 84.6 9.2 84.3 9.4 84 9.5 C 83.6 9.7 83.1 9.8 82.6 9.8 Z M 86.1 9.7 L 86.1 4.3 L 87.6 4.3 L 87.6 9.7 L 86.1 9.7 Z M 86.9 3.5 C 86.6 3.5 86.3 3.5 86.2 3.3 C 86 3.1 85.9 2.9 85.9 2.7 C 85.9 2.4 86 2.2 86.2 2.1 C 86.3 1.9 86.6 1.8 86.9 1.8 C 87.1 1.8 87.4 1.9 87.6 2 C 87.7 2.2 87.8 2.4 87.8 2.6 C 87.8 2.9 87.7 3.1 87.6 3.3 C 87.4 3.5 87.2 3.5 86.9 3.5 Z M 91.6 9.8 C 91.1 9.8 90.6 9.6 90.1 9.4 C 89.7 9.2 89.3 8.8 89.1 8.4 C 88.8 8 88.7 7.5 88.7 7 C 88.7 6.4 88.8 6 89.1 5.6 C 89.3 5.1 89.7 4.8 90.1 4.6 C 90.6 4.3 91.1 4.2 91.6 4.2 C 92.2 4.2 92.7 4.3 93.2 4.6 C 93.6 4.8 94 5.1 94.2 5.5 C 94.5 6 94.6 6.4 94.6 7 C 94.6 7.5 94.5 8 94.2 8.4 C 94 8.8 93.6 9.2 93.2 9.4 C 92.7 9.6 92.2 9.8 91.6 9.8 Z M 91.6 8.5 C 91.9 8.5 92.1 8.4 92.3 8.3 C 92.6 8.2 92.7 8 92.8 7.8 C 93 7.6 93 7.3 93 7 C 93 6.7 93 6.4 92.8 6.2 C 92.7 6 92.6 5.8 92.3 5.7 C 92.1 5.6 91.9 5.5 91.6 5.5 C 91.4 5.5 91.2 5.6 90.9 5.7 C 90.7 5.8 90.6 6 90.5 6.2 C 90.3 6.4 90.3 6.7 90.3 7 C 90.3 7.3 90.3 7.6 90.5 7.8 C 90.6 8 90.7 8.2 90.9 8.3 C 91.2 8.4 91.4 8.5 91.6 8.5 Z M 98.9 4.2 C 99.3 4.2 99.7 4.3 100.1 4.5 C 100.4 4.6 100.7 4.9 100.8 5.3 C 101 5.6 101.1 6.1 101.1 6.6 C 101.14 6.6 101.1 9.7 101.1 9.7 L 99.6 9.7 C 99.6 9.7 99.58 6.84 99.6 6.8 C 99.6 6.4 99.5 6.1 99.3 5.9 C 99.1 5.7 98.8 5.6 98.5 5.6 C 98.2 5.6 98 5.6 97.8 5.7 C 97.6 5.8 97.5 6 97.4 6.2 C 97.3 6.4 97.2 6.7 97.2 7 C 97.2 7.02 97.2 9.7 97.2 9.7 L 95.6 9.7 L 95.6 4.3 L 97.1 4.3 L 97.1 5.8 C 97.1 5.8 96.85 5.34 96.8 5.3 C 97 5 97.3 4.7 97.7 4.5 C 98 4.3 98.4 4.2 98.9 4.2 Z M 105.4 9.7 L 105.4 4.3 L 106.9 4.3 L 106.9 9.7 L 105.4 9.7 Z M 106.2 3.5 C 105.9 3.5 105.6 3.5 105.5 3.3 C 105.3 3.1 105.2 2.9 105.2 2.7 C 105.2 2.4 105.3 2.2 105.5 2.1 C 105.6 1.9 105.9 1.8 106.2 1.8 C 106.4 1.8 106.7 1.9 106.9 2 C 107 2.2 107.1 2.4 107.1 2.6 C 107.1 2.9 107 3.1 106.9 3.3 C 106.7 3.5 106.5 3.5 106.2 3.5 Z M 111.7 4.2 C 112.1 4.2 112.5 4.3 112.8 4.5 C 113.1 4.6 113.4 4.9 113.6 5.3 C 113.8 5.6 113.9 6.1 113.9 6.6 C 113.89 6.6 113.9 9.7 113.9 9.7 L 112.3 9.7 C 112.3 9.7 112.33 6.84 112.3 6.8 C 112.3 6.4 112.2 6.1 112 5.9 C 111.9 5.7 111.6 5.6 111.2 5.6 C 111 5.6 110.8 5.6 110.6 5.7 C 110.4 5.8 110.2 6 110.1 6.2 C 110 6.4 109.9 6.7 109.9 7 C 109.95 7.02 109.9 9.7 109.9 9.7 L 108.4 9.7 L 108.4 4.3 L 109.9 4.3 L 109.9 5.8 C 109.9 5.8 109.6 5.34 109.6 5.3 C 109.8 5 110.1 4.7 110.4 4.5 C 110.8 4.3 111.2 4.2 111.7 4.2 Z M 117.9 9.8 C 117.4 9.8 116.8 9.6 116.4 9.4 C 115.9 9.2 115.6 8.8 115.3 8.4 C 115.1 8 114.9 7.5 114.9 7 C 114.9 6.4 115.1 6 115.3 5.6 C 115.6 5.1 115.9 4.8 116.4 4.6 C 116.8 4.3 117.4 4.2 117.9 4.2 C 118.5 4.2 119 4.3 119.4 4.6 C 119.8 4.8 120.1 5.1 120.3 5.6 C 120.3 5.6 119.1 6.2 119.1 6.2 C 119 6 118.8 5.8 118.6 5.7 C 118.4 5.6 118.2 5.5 117.9 5.5 C 117.7 5.5 117.4 5.6 117.2 5.7 C 117 5.8 116.8 6 116.7 6.2 C 116.6 6.4 116.5 6.7 116.5 7 C 116.5 7.3 116.6 7.6 116.7 7.8 C 116.8 8 117 8.2 117.2 8.3 C 117.4 8.4 117.7 8.5 117.9 8.5 C 118.2 8.5 118.4 8.4 118.6 8.3 C 118.8 8.2 119 8 119.1 7.7 C 119.1 7.7 120.3 8.4 120.3 8.4 C 120.1 8.8 119.8 9.2 119.4 9.4 C 119 9.6 118.5 9.8 117.9 9.8 Z M 121.2 9.7 L 121.2 2.3 L 122.8 2.3 L 122.8 9.7 L 121.2 9.7 Z M 126.5 9.8 C 126 9.8 125.6 9.7 125.3 9.5 C 124.9 9.3 124.7 9.1 124.5 8.7 C 124.3 8.3 124.2 7.9 124.2 7.3 C 124.19 7.34 124.2 4.3 124.2 4.3 L 125.7 4.3 C 125.7 4.3 125.75 7.11 125.7 7.1 C 125.7 7.6 125.8 7.9 126 8.1 C 126.2 8.3 126.5 8.4 126.8 8.4 C 127.1 8.4 127.3 8.4 127.5 8.3 C 127.7 8.2 127.8 8 127.9 7.8 C 128 7.6 128.1 7.3 128.1 7 C 128.08 6.96 128.1 4.3 128.1 4.3 L 129.6 4.3 L 129.6 9.7 L 128.2 9.7 L 128.2 8.2 C 128.2 8.2 128.43 8.63 128.4 8.6 C 128.2 9 128 9.3 127.6 9.5 C 127.3 9.7 126.9 9.8 126.5 9.8 Z M 133.4 9.8 C 132.9 9.8 132.4 9.6 132 9.4 C 131.6 9.2 131.3 8.9 131.1 8.4 C 130.8 8 130.7 7.5 130.7 7 C 130.7 6.4 130.8 5.9 131.1 5.5 C 131.3 5.1 131.6 4.8 132 4.6 C 132.4 4.3 132.9 4.2 133.4 4.2 C 133.9 4.2 134.2 4.3 134.6 4.5 C 134.9 4.7 135.2 5 135.4 5.4 C 135.6 5.8 135.7 6.4 135.7 7 C 135.7 7.6 135.6 8.1 135.4 8.5 C 135.2 9 135 9.3 134.6 9.5 C 134.3 9.7 133.9 9.8 133.4 9.8 Z M 133.7 8.5 C 133.9 8.5 134.2 8.4 134.4 8.3 C 134.6 8.2 134.7 8 134.9 7.8 C 135 7.6 135 7.3 135 7 C 135 6.7 135 6.4 134.9 6.2 C 134.7 6 134.6 5.8 134.4 5.7 C 134.2 5.6 133.9 5.5 133.7 5.5 C 133.4 5.5 133.2 5.6 133 5.7 C 132.8 5.8 132.6 6 132.5 6.2 C 132.4 6.4 132.3 6.7 132.3 7 C 132.3 7.3 132.4 7.6 132.5 7.8 C 132.6 8 132.8 8.2 133 8.3 C 133.2 8.4 133.4 8.5 133.7 8.5 Z M 135.1 9.7 L 135.1 8.6 L 135.1 7 L 135 5.4 L 135 2.3 L 136.6 2.3 L 136.6 9.7 L 135.1 9.7 Z M 140.7 9.8 C 140.1 9.8 139.5 9.6 139.1 9.4 C 138.6 9.2 138.2 8.8 138 8.4 C 137.7 8 137.6 7.5 137.6 7 C 137.6 6.4 137.7 6 138 5.6 C 138.2 5.1 138.6 4.8 139 4.6 C 139.4 4.3 139.9 4.2 140.5 4.2 C 141 4.2 141.5 4.3 141.9 4.6 C 142.3 4.8 142.7 5.1 142.9 5.5 C 143.2 5.9 143.3 6.4 143.3 7 C 143.3 7.1 143.3 7.1 143.3 7.2 C 143.3 7.3 143.3 7.4 143.2 7.4 C 143.25 7.43 138.9 7.4 138.9 7.4 L 138.9 6.5 L 142.4 6.5 C 142.4 6.5 141.83 6.79 141.8 6.8 C 141.8 6.5 141.8 6.3 141.7 6.1 C 141.5 5.9 141.4 5.7 141.2 5.6 C 141 5.5 140.8 5.4 140.5 5.4 C 140.2 5.4 140 5.5 139.8 5.6 C 139.6 5.7 139.4 5.9 139.3 6.1 C 139.2 6.3 139.1 6.5 139.1 6.8 C 139.1 6.8 139.1 7 139.1 7 C 139.1 7.3 139.2 7.6 139.3 7.8 C 139.5 8 139.6 8.2 139.9 8.3 C 140.1 8.5 140.4 8.5 140.7 8.5 C 141 8.5 141.3 8.5 141.5 8.4 C 141.7 8.3 141.9 8.2 142.1 8 C 142.1 8 142.9 8.9 142.9 8.9 C 142.7 9.2 142.3 9.4 142 9.5 C 141.6 9.7 141.2 9.8 140.7 9.8 Z M 146.1 9.8 C 145.7 9.8 145.2 9.7 144.8 9.6 C 144.4 9.5 144 9.3 143.8 9.2 C 143.8 9.2 144.3 8.1 144.3 8.1 C 144.6 8.2 144.9 8.3 145.2 8.4 C 145.5 8.5 145.9 8.6 146.2 8.6 C 146.5 8.6 146.8 8.5 147 8.4 C 147.1 8.4 147.2 8.2 147.2 8.1 C 147.2 8 147.1 7.9 147 7.8 C 146.9 7.7 146.7 7.7 146.5 7.7 C 146.3 7.6 146.1 7.6 145.9 7.6 C 145.7 7.5 145.4 7.5 145.2 7.4 C 145 7.4 144.8 7.3 144.6 7.2 C 144.4 7.1 144.2 6.9 144.1 6.7 C 144 6.5 143.9 6.3 143.9 6 C 143.9 5.6 144 5.3 144.2 5.1 C 144.4 4.8 144.7 4.6 145.1 4.4 C 145.5 4.3 145.9 4.2 146.4 4.2 C 146.8 4.2 147.2 4.3 147.5 4.3 C 147.9 4.4 148.2 4.5 148.5 4.7 C 148.5 4.7 148 5.8 148 5.8 C 147.7 5.6 147.4 5.5 147.2 5.5 C 146.9 5.4 146.7 5.4 146.4 5.4 C 146.1 5.4 145.8 5.4 145.7 5.5 C 145.5 5.6 145.4 5.8 145.4 5.9 C 145.4 6 145.5 6.1 145.6 6.2 C 145.7 6.3 145.9 6.3 146.1 6.4 C 146.3 6.4 146.5 6.4 146.7 6.5 C 146.9 6.5 147.2 6.5 147.4 6.6 C 147.6 6.7 147.8 6.7 148 6.9 C 148.2 7 148.4 7.1 148.5 7.3 C 148.6 7.5 148.7 7.7 148.7 8 C 148.7 8.4 148.6 8.7 148.4 8.9 C 148.2 9.2 147.9 9.4 147.5 9.5 C 147.1 9.7 146.7 9.8 146.1 9.8 Z M 154.3 9.8 C 153.8 9.8 153.4 9.7 152.9 9.6 C 152.5 9.5 152.2 9.3 151.9 9.2 C 151.9 9.2 152.5 8.1 152.5 8.1 C 152.7 8.2 153 8.3 153.3 8.4 C 153.7 8.5 154 8.6 154.3 8.6 C 154.7 8.6 154.9 8.5 155.1 8.4 C 155.2 8.4 155.3 8.2 155.3 8.1 C 155.3 8 155.3 7.9 155.1 7.8 C 155 7.7 154.9 7.7 154.7 7.7 C 154.5 7.6 154.3 7.6 154 7.6 C 153.8 7.5 153.6 7.5 153.3 7.4 C 153.1 7.4 152.9 7.3 152.7 7.2 C 152.5 7.1 152.4 6.9 152.2 6.7 C 152.1 6.5 152.1 6.3 152.1 6 C 152.1 5.6 152.2 5.3 152.4 5.1 C 152.6 4.8 152.8 4.6 153.2 4.4 C 153.6 4.3 154 4.2 154.6 4.2 C 154.9 4.2 155.3 4.3 155.7 4.3 C 156.1 4.4 156.4 4.5 156.6 4.7 C 156.6 4.7 156.1 5.8 156.1 5.8 C 155.8 5.6 155.6 5.5 155.3 5.5 C 155.1 5.4 154.8 5.4 154.6 5.4 C 154.2 5.4 154 5.4 153.8 5.5 C 153.6 5.6 153.6 5.8 153.6 5.9 C 153.6 6 153.6 6.1 153.7 6.2 C 153.9 6.3 154 6.3 154.2 6.4 C 154.4 6.4 154.6 6.4 154.8 6.5 C 155.1 6.5 155.3 6.5 155.5 6.6 C 155.8 6.7 156 6.7 156.2 6.9 C 156.4 7 156.5 7.1 156.6 7.3 C 156.7 7.5 156.8 7.7 156.8 8 C 156.8 8.4 156.7 8.7 156.5 8.9 C 156.3 9.2 156 9.4 155.6 9.5 C 155.3 9.7 154.8 9.8 154.3 9.8 Z M 160.3 9.8 C 159.8 9.8 159.2 9.6 158.8 9.4 C 158.4 9.2 158 8.8 157.8 8.4 C 157.5 8 157.4 7.5 157.4 7 C 157.4 6.4 157.5 6 157.8 5.6 C 158 5.1 158.4 4.8 158.8 4.6 C 159.2 4.3 159.8 4.2 160.3 4.2 C 160.9 4.2 161.4 4.3 161.8 4.6 C 162.3 4.8 162.6 5.1 162.9 5.5 C 163.2 6 163.3 6.4 163.3 7 C 163.3 7.5 163.2 8 162.9 8.4 C 162.6 8.8 162.3 9.2 161.8 9.4 C 161.4 9.6 160.9 9.8 160.3 9.8 Z M 160.3 8.5 C 160.6 8.5 160.8 8.4 161 8.3 C 161.2 8.2 161.4 8 161.5 7.8 C 161.6 7.6 161.7 7.3 161.7 7 C 161.7 6.7 161.6 6.4 161.5 6.2 C 161.4 6 161.2 5.8 161 5.7 C 160.8 5.6 160.6 5.5 160.3 5.5 C 160.1 5.5 159.8 5.6 159.6 5.7 C 159.4 5.8 159.3 6 159.1 6.2 C 159 6.4 158.9 6.7 158.9 7 C 158.9 7.3 159 7.6 159.1 7.8 C 159.3 8 159.4 8.2 159.6 8.3 C 159.8 8.4 160.1 8.5 160.3 8.5 Z M 166.6 9.8 C 166.1 9.8 165.7 9.7 165.4 9.5 C 165 9.3 164.8 9.1 164.6 8.7 C 164.4 8.3 164.3 7.9 164.3 7.3 C 164.29 7.34 164.3 4.3 164.3 4.3 L 165.8 4.3 C 165.8 4.3 165.85 7.11 165.8 7.1 C 165.8 7.6 165.9 7.9 166.1 8.1 C 166.3 8.3 166.6 8.4 166.9 8.4 C 167.2 8.4 167.4 8.4 167.6 8.3 C 167.8 8.2 167.9 8 168 7.8 C 168.1 7.6 168.2 7.3 168.2 7 C 168.18 6.96 168.2 4.3 168.2 4.3 L 169.7 4.3 L 169.7 9.7 L 168.3 9.7 L 168.3 8.2 C 168.3 8.2 168.53 8.63 168.5 8.6 C 168.3 9 168.1 9.3 167.7 9.5 C 167.4 9.7 167 9.8 166.6 9.8 Z M 174.5 4.2 C 174.9 4.2 175.3 4.3 175.6 4.5 C 175.9 4.6 176.2 4.9 176.4 5.3 C 176.6 5.6 176.7 6.1 176.7 6.6 C 176.69 6.6 176.7 9.7 176.7 9.7 L 175.1 9.7 C 175.1 9.7 175.13 6.84 175.1 6.8 C 175.1 6.4 175 6.1 174.8 5.9 C 174.7 5.7 174.4 5.6 174 5.6 C 173.8 5.6 173.6 5.6 173.4 5.7 C 173.2 5.8 173 6 172.9 6.2 C 172.8 6.4 172.7 6.7 172.7 7 C 172.75 7.02 172.7 9.7 172.7 9.7 L 171.2 9.7 L 171.2 4.3 L 172.7 4.3 L 172.7 5.8 C 172.7 5.8 172.4 5.34 172.4 5.3 C 172.6 5 172.9 4.7 173.2 4.5 C 173.6 4.3 174 4.2 174.5 4.2 Z M 180.4 9.8 C 179.9 9.8 179.5 9.6 179.1 9.4 C 178.7 9.2 178.3 8.9 178.1 8.4 C 177.9 8 177.8 7.5 177.8 7 C 177.8 6.4 177.9 5.9 178.1 5.5 C 178.3 5.1 178.7 4.8 179.1 4.6 C 179.5 4.3 179.9 4.2 180.4 4.2 C 180.9 4.2 181.3 4.3 181.6 4.5 C 182 4.7 182.2 5 182.4 5.4 C 182.6 5.8 182.7 6.4 182.7 7 C 182.7 7.6 182.6 8.1 182.4 8.5 C 182.3 9 182 9.3 181.7 9.5 C 181.3 9.7 180.9 9.8 180.4 9.8 Z M 180.7 8.5 C 181 8.5 181.2 8.4 181.4 8.3 C 181.6 8.2 181.8 8 181.9 7.8 C 182 7.6 182.1 7.3 182.1 7 C 182.1 6.7 182 6.4 181.9 6.2 C 181.8 6 181.6 5.8 181.4 5.7 C 181.2 5.6 181 5.5 180.7 5.5 C 180.5 5.5 180.2 5.6 180 5.7 C 179.8 5.8 179.6 6 179.5 6.2 C 179.4 6.4 179.3 6.7 179.3 7 C 179.3 7.3 179.4 7.6 179.5 7.8 C 179.6 8 179.8 8.2 180 8.3 C 180.2 8.4 180.5 8.5 180.7 8.5 Z M 182.1 9.7 L 182.1 8.6 L 182.2 7 L 182.1 5.4 L 182.1 2.3 L 183.6 2.3 L 183.6 9.7 L 182.1 9.7 Z " stroke="none" fill="#000"/>
  </g>
</svg>