<?xml version="1.0" standalone="no"?>
<!DOCTYPE svg PUBLIC "-//W3C//DTD SVG 1.1//EN" "http://www.w3.org/Graphics/SVG/1.1/DTD/svg11.dtd">
<svg xmlns="http://www.w3.org/2000/svg" version="1.1" width="38px" height="26.5px" viewBox="0 0 38 26.5">
  <desc>Next</desc>
  <defs/>
  <g id="Polygon114770">
    <path d="M 14.1 8.7 L 14.1 15.7 L 13.5 15.7 L 9 10 L 9 15.7 L 8.3 15.7 L 8.3 8.7 L 8.9 8.7 L 13.4 14.4 L 13.4 8.7 L 14.1 8.7 Z M 20.9 13.3 C 20.9 13.3 16.5 13.3 16.5 13.3 C 16.5 14.4 17.4 15.1 18.5 15.1 C 19.2 15.1 19.7 14.9 20.1 14.4 C 20.1 14.4 20.5 14.9 20.5 14.9 C 20.1 15.4 19.3 15.7 18.5 15.7 C 16.9 15.7 15.8 14.6 15.8 13 C 15.8 11.5 16.8 10.4 18.3 10.4 C 19.8 10.4 20.9 11.5 20.9 13 C 20.9 13.1 20.9 13.2 20.9 13.3 Z M 16.5 12.7 C 16.5 12.7 20.2 12.7 20.2 12.7 C 20.1 11.7 19.4 11 18.3 11 C 17.3 11 16.6 11.7 16.5 12.7 Z M 25.5 15.7 L 23.8 13.5 L 22.1 15.7 L 21.3 15.7 L 23.4 13 L 21.4 10.4 L 22.2 10.4 L 23.8 12.5 L 25.4 10.4 L 26.2 10.4 L 24.2 13 L 26.3 15.7 L 25.5 15.7 Z M 30.6 15.4 C 30.3 15.6 29.9 15.7 29.4 15.7 C 28.5 15.7 27.9 15.2 27.9 14.2 C 27.9 14.2 27.9 11 27.9 11 L 27 11 L 27 10.4 L 27.9 10.4 L 27.9 9.3 L 28.6 9.3 L 28.6 10.4 L 30.2 10.4 L 30.2 11 L 28.6 11 C 28.6 11 28.61 14.16 28.6 14.2 C 28.6 14.8 28.9 15.1 29.5 15.1 C 29.8 15.1 30.1 15 30.3 14.9 C 30.3 14.9 30.6 15.4 30.6 15.4 Z " stroke="none" fill="#000"/>
  </g>
</svg>