<?xml version="1.0" standalone="no"?>
<!DOCTYPE svg PUBLIC "-//W3C//DTD SVG 1.1//EN" "http://www.w3.org/Graphics/SVG/1.1/DTD/svg11.dtd">
<svg xmlns="http://www.w3.org/2000/svg" version="1.1" width="492px" height="80.5px" viewBox="0 0 492 80.5">
  <desc>The controlled process The controlled process is what the machine does, for example, a pillar drill making holes in s...</desc>
  <defs/>
  <g id="Polygon117896">
    <path d="M 15.7 54.6 C 15.67 54.63 15.7 57.7 15.7 57.7 L 15 57.7 C 15 57.7 14.96 54.7 15 54.7 C 15 53.6 14.4 53 13.5 53 C 12.4 53 11.7 53.7 11.7 54.9 C 11.69 54.92 11.7 57.7 11.7 57.7 L 11 57.7 C 11 57.7 10.98 54.7 11 54.7 C 11 53.6 10.4 53 9.5 53 C 8.4 53 7.7 53.7 7.7 54.9 C 7.7 54.92 7.7 57.7 7.7 57.7 L 7 57.7 L 7 52.4 L 7.7 52.4 C 7.7 52.4 7.67 53.38 7.7 53.4 C 8 52.7 8.7 52.4 9.6 52.4 C 10.5 52.4 11.2 52.7 11.5 53.5 C 11.8 52.8 12.6 52.4 13.6 52.4 C 14.8 52.4 15.7 53.1 15.7 54.6 Z M 22.2 55.3 C 22.2 55.3 17.8 55.3 17.8 55.3 C 17.9 56.4 18.7 57.1 19.8 57.1 C 20.5 57.1 21.1 56.9 21.5 56.4 C 21.5 56.4 21.9 56.9 21.9 56.9 C 21.4 57.4 20.7 57.7 19.8 57.7 C 18.2 57.7 17.1 56.6 17.1 55 C 17.1 53.5 18.2 52.4 19.6 52.4 C 21.1 52.4 22.2 53.5 22.2 55 C 22.2 55.1 22.2 55.2 22.2 55.3 Z M 17.8 54.7 C 17.8 54.7 21.5 54.7 21.5 54.7 C 21.4 53.7 20.7 53 19.6 53 C 18.6 53 17.9 53.7 17.8 54.7 Z M 26.3 57.4 C 26 57.6 25.6 57.7 25.2 57.7 C 24.2 57.7 23.7 57.2 23.7 56.2 C 23.67 56.2 23.7 53 23.7 53 L 22.7 53 L 22.7 52.4 L 23.7 52.4 L 23.7 51.3 L 24.4 51.3 L 24.4 52.4 L 26 52.4 L 26 53 L 24.4 53 C 24.4 53 24.37 56.16 24.4 56.2 C 24.4 56.8 24.7 57.1 25.3 57.1 C 25.6 57.1 25.9 57 26.1 56.9 C 26.1 56.9 26.3 57.4 26.3 57.4 Z M 31.5 54.4 C 31.55 54.42 31.5 57.7 31.5 57.7 L 30.9 57.7 C 30.9 57.7 30.87 56.86 30.9 56.9 C 30.5 57.4 29.9 57.7 29.1 57.7 C 27.9 57.7 27.1 57.1 27.1 56.2 C 27.1 55.4 27.7 54.7 29.2 54.7 C 29.17 54.71 30.8 54.7 30.8 54.7 C 30.8 54.7 30.84 54.39 30.8 54.4 C 30.8 53.5 30.3 53 29.3 53 C 28.7 53 28 53.2 27.6 53.6 C 27.6 53.6 27.3 53.1 27.3 53.1 C 27.8 52.6 28.6 52.4 29.4 52.4 C 30.8 52.4 31.5 53.1 31.5 54.4 Z M 30.8 56.1 C 30.84 56.1 30.8 55.2 30.8 55.2 C 30.8 55.2 29.19 55.24 29.2 55.2 C 28.2 55.2 27.8 55.6 27.8 56.2 C 27.8 56.8 28.3 57.2 29.2 57.2 C 30 57.2 30.6 56.8 30.8 56.1 Z M 33.4 50.3 L 34.1 50.3 L 34.1 57.7 L 33.4 57.7 L 33.4 50.3 Z M 38.1 55 C 38.1 53.5 39.3 52.4 40.8 52.4 C 42.4 52.4 43.5 53.5 43.5 55 C 43.5 56.6 42.4 57.7 40.8 57.7 C 39.3 57.7 38.1 56.6 38.1 55 Z M 42.8 55 C 42.8 53.8 41.9 53 40.8 53 C 39.7 53 38.9 53.8 38.9 55 C 38.9 56.3 39.7 57.1 40.8 57.1 C 41.9 57.1 42.8 56.3 42.8 55 Z M 47.6 52.4 C 47.6 52.4 47.6 53.1 47.6 53.1 C 47.5 53.1 47.4 53.1 47.4 53.1 C 46.3 53.1 45.6 53.8 45.6 55 C 45.63 55 45.6 57.7 45.6 57.7 L 44.9 57.7 L 44.9 52.4 L 45.6 52.4 C 45.6 52.4 45.6 53.45 45.6 53.4 C 45.9 52.7 46.6 52.4 47.6 52.4 Z M 55.5 54.4 C 55.52 54.42 55.5 57.7 55.5 57.7 L 54.8 57.7 C 54.8 57.7 54.84 56.86 54.8 56.9 C 54.5 57.4 53.9 57.7 53 57.7 C 51.8 57.7 51.1 57.1 51.1 56.2 C 51.1 55.4 51.6 54.7 53.1 54.7 C 53.14 54.71 54.8 54.7 54.8 54.7 C 54.8 54.7 54.81 54.39 54.8 54.4 C 54.8 53.5 54.3 53 53.3 53 C 52.6 53 52 53.2 51.6 53.6 C 51.6 53.6 51.2 53.1 51.2 53.1 C 51.8 52.6 52.6 52.4 53.4 52.4 C 54.7 52.4 55.5 53.1 55.5 54.4 Z M 54.8 56.1 C 54.81 56.1 54.8 55.2 54.8 55.2 C 54.8 55.2 53.16 55.24 53.2 55.2 C 52.1 55.2 51.8 55.6 51.8 56.2 C 51.8 56.8 52.3 57.2 53.1 57.2 C 53.9 57.2 54.5 56.8 54.8 56.1 Z M 64.9 54.6 C 64.91 54.63 64.9 57.7 64.9 57.7 L 64.2 57.7 C 64.2 57.7 64.2 54.7 64.2 54.7 C 64.2 53.6 63.6 53 62.6 53 C 61.5 53 60.8 53.7 60.8 54.9 C 60.78 54.92 60.8 57.7 60.8 57.7 L 60.1 57.7 L 60.1 52.4 L 60.7 52.4 C 60.7 52.4 60.75 53.39 60.7 53.4 C 61.1 52.7 61.8 52.4 62.7 52.4 C 64 52.4 64.9 53.1 64.9 54.6 Z M 71.4 52.4 L 71.4 57.7 L 70.8 57.7 C 70.8 57.7 70.75 56.72 70.8 56.7 C 70.4 57.4 69.7 57.7 68.9 57.7 C 67.5 57.7 66.6 57 66.6 55.5 C 66.64 55.47 66.6 52.4 66.6 52.4 L 67.4 52.4 C 67.4 52.4 67.35 55.4 67.4 55.4 C 67.4 56.5 67.9 57.1 68.9 57.1 C 70 57.1 70.7 56.4 70.7 55.2 C 70.72 55.18 70.7 52.4 70.7 52.4 L 71.4 52.4 Z M 72.9 55 C 72.9 53.5 74 52.4 75.6 52.4 C 76.5 52.4 77.2 52.7 77.7 53.4 C 77.7 53.4 77.1 53.8 77.1 53.8 C 76.8 53.2 76.2 53 75.6 53 C 74.4 53 73.6 53.8 73.6 55 C 73.6 56.3 74.4 57.1 75.6 57.1 C 76.2 57.1 76.8 56.9 77.1 56.3 C 77.1 56.3 77.7 56.7 77.7 56.7 C 77.2 57.4 76.5 57.7 75.6 57.7 C 74 57.7 72.9 56.6 72.9 55 Z M 79 50.3 L 79.7 50.3 L 79.7 57.7 L 79 57.7 L 79 50.3 Z M 86.2 55.3 C 86.2 55.3 81.8 55.3 81.8 55.3 C 81.9 56.4 82.7 57.1 83.9 57.1 C 84.5 57.1 85.1 56.9 85.5 56.4 C 85.5 56.4 85.9 56.9 85.9 56.9 C 85.4 57.4 84.7 57.7 83.9 57.7 C 82.2 57.7 81.1 56.6 81.1 55 C 81.1 53.5 82.2 52.4 83.7 52.4 C 85.1 52.4 86.2 53.5 86.2 55 C 86.2 55.1 86.2 55.2 86.2 55.3 Z M 81.8 54.7 C 81.8 54.7 85.5 54.7 85.5 54.7 C 85.4 53.7 84.7 53 83.7 53 C 82.6 53 81.9 53.7 81.8 54.7 Z M 91.6 54.4 C 91.59 54.42 91.6 57.7 91.6 57.7 L 90.9 57.7 C 90.9 57.7 90.91 56.86 90.9 56.9 C 90.6 57.4 90 57.7 89.1 57.7 C 87.9 57.7 87.2 57.1 87.2 56.2 C 87.2 55.4 87.7 54.7 89.2 54.7 C 89.21 54.71 90.9 54.7 90.9 54.7 C 90.9 54.7 90.88 54.39 90.9 54.4 C 90.9 53.5 90.4 53 89.4 53 C 88.7 53 88.1 53.2 87.6 53.6 C 87.6 53.6 87.3 53.1 87.3 53.1 C 87.9 52.6 88.6 52.4 89.5 52.4 C 90.8 52.4 91.6 53.1 91.6 54.4 Z M 90.9 56.1 C 90.88 56.1 90.9 55.2 90.9 55.2 C 90.9 55.2 89.23 55.24 89.2 55.2 C 88.2 55.2 87.9 55.6 87.9 56.2 C 87.9 56.8 88.4 57.2 89.2 57.2 C 90 57.2 90.6 56.8 90.9 56.1 Z M 96.1 52.4 C 96.1 52.4 96.1 53.1 96.1 53.1 C 96 53.1 95.9 53.1 95.9 53.1 C 94.8 53.1 94.1 53.8 94.1 55 C 94.12 55 94.1 57.7 94.1 57.7 L 93.4 57.7 L 93.4 52.4 L 94.1 52.4 C 94.1 52.4 94.09 53.45 94.1 53.4 C 94.4 52.7 95.1 52.4 96.1 52.4 Z M 101.7 50.2 C 102.1 50.2 102.5 50.3 102.8 50.5 C 102.8 50.5 102.6 51.1 102.6 51.1 C 102.4 50.9 102.1 50.8 101.8 50.8 C 101.2 50.8 100.8 51.1 100.8 51.8 C 100.85 51.8 100.8 52.4 100.8 52.4 L 102.5 52.4 L 102.5 53 L 100.9 53 L 100.9 57.7 L 100.2 57.7 L 100.2 53 L 99.2 53 L 99.2 52.4 L 100.2 52.4 C 100.2 52.4 100.16 51.77 100.2 51.8 C 100.2 50.8 100.7 50.2 101.7 50.2 Z M 105.1 50.7 C 105.1 51 104.9 51.3 104.6 51.3 C 104.3 51.3 104.1 51 104.1 50.8 C 104.1 50.5 104.3 50.3 104.6 50.3 C 104.9 50.3 105.1 50.5 105.1 50.7 Z M 104.2 52.4 L 104.9 52.4 L 104.9 57.7 L 104.2 57.7 L 104.2 52.4 Z M 106.2 57.1 C 106.2 57.1 106.6 56.5 106.6 56.5 C 107 56.9 107.7 57.1 108.4 57.1 C 109.4 57.1 109.8 56.8 109.8 56.3 C 109.8 54.9 106.4 56 106.4 53.9 C 106.4 53 107.2 52.4 108.5 52.4 C 109.2 52.4 109.9 52.6 110.4 52.9 C 110.4 52.9 110.1 53.4 110.1 53.4 C 109.6 53.1 109.1 53 108.5 53 C 107.6 53 107.1 53.4 107.1 53.9 C 107.1 55.3 110.6 54.2 110.6 56.2 C 110.6 57.1 109.8 57.7 108.4 57.7 C 107.5 57.7 106.7 57.4 106.2 57.1 Z M 111.3 57.1 C 111.3 57.1 111.6 56.5 111.6 56.5 C 112 56.9 112.8 57.1 113.5 57.1 C 114.5 57.1 114.9 56.8 114.9 56.3 C 114.9 54.9 111.5 56 111.5 53.9 C 111.5 53 112.2 52.4 113.6 52.4 C 114.3 52.4 115 52.6 115.4 52.9 C 115.4 52.9 115.1 53.4 115.1 53.4 C 114.7 53.1 114.1 53 113.6 53 C 112.6 53 112.2 53.4 112.2 53.9 C 112.2 55.3 115.6 54.2 115.6 56.2 C 115.6 57.1 114.8 57.7 113.4 57.7 C 112.6 57.7 111.7 57.4 111.3 57.1 Z M 116.8 50.8 C 116.8 50.5 117 50.3 117.3 50.3 C 117.6 50.3 117.8 50.5 117.8 50.7 C 117.8 51 117.6 51.3 117.3 51.3 C 117 51.3 116.8 51 116.8 50.8 Z M 116.9 52.4 L 117.6 52.4 L 117.6 57.7 L 116.9 57.7 L 116.9 52.4 Z M 119 55 C 119 53.5 120.2 52.4 121.7 52.4 C 123.2 52.4 124.4 53.5 124.4 55 C 124.4 56.6 123.2 57.7 121.7 57.7 C 120.2 57.7 119 56.6 119 55 Z M 123.7 55 C 123.7 53.8 122.8 53 121.7 53 C 120.6 53 119.7 53.8 119.7 55 C 119.7 56.3 120.6 57.1 121.7 57.1 C 122.8 57.1 123.7 56.3 123.7 55 Z M 130.6 54.6 C 130.64 54.63 130.6 57.7 130.6 57.7 L 129.9 57.7 C 129.9 57.7 129.93 54.7 129.9 54.7 C 129.9 53.6 129.3 53 128.3 53 C 127.2 53 126.5 53.7 126.5 54.9 C 126.51 54.92 126.5 57.7 126.5 57.7 L 125.8 57.7 L 125.8 52.4 L 126.5 52.4 C 126.5 52.4 126.48 53.39 126.5 53.4 C 126.9 52.7 127.6 52.4 128.5 52.4 C 129.8 52.4 130.6 53.1 130.6 54.6 Z M 137.8 52.4 C 137.8 52.4 137.8 53.1 137.8 53.1 C 137.8 53.1 137.7 53.1 137.7 53.1 C 136.6 53.1 135.9 53.8 135.9 55 C 135.9 55 135.9 57.7 135.9 57.7 L 135.2 57.7 L 135.2 52.4 L 135.9 52.4 C 135.9 52.4 135.87 53.45 135.9 53.4 C 136.2 52.7 136.9 52.4 137.8 52.4 Z M 143.6 55.3 C 143.6 55.3 139.2 55.3 139.2 55.3 C 139.3 56.4 140.1 57.1 141.2 57.1 C 141.9 57.1 142.5 56.9 142.9 56.4 C 142.9 56.4 143.3 56.9 143.3 56.9 C 142.8 57.4 142.1 57.7 141.2 57.7 C 139.6 57.7 138.5 56.6 138.5 55 C 138.5 53.5 139.6 52.4 141 52.4 C 142.5 52.4 143.6 53.5 143.6 55 C 143.6 55.1 143.6 55.2 143.6 55.3 Z M 139.2 54.7 C 139.2 54.7 142.9 54.7 142.9 54.7 C 142.8 53.7 142.1 53 141 53 C 140 53 139.3 53.7 139.2 54.7 Z M 149 54.4 C 148.97 54.42 149 57.7 149 57.7 L 148.3 57.7 C 148.3 57.7 148.29 56.86 148.3 56.9 C 148 57.4 147.4 57.7 146.5 57.7 C 145.3 57.7 144.6 57.1 144.6 56.2 C 144.6 55.4 145.1 54.7 146.6 54.7 C 146.59 54.71 148.3 54.7 148.3 54.7 C 148.3 54.7 148.26 54.39 148.3 54.4 C 148.3 53.5 147.8 53 146.8 53 C 146.1 53 145.4 53.2 145 53.6 C 145 53.6 144.7 53.1 144.7 53.1 C 145.2 52.6 146 52.4 146.8 52.4 C 148.2 52.4 149 53.1 149 54.4 Z M 148.3 56.1 C 148.26 56.1 148.3 55.2 148.3 55.2 C 148.3 55.2 146.61 55.24 146.6 55.2 C 145.6 55.2 145.3 55.6 145.3 56.2 C 145.3 56.8 145.7 57.2 146.6 57.2 C 147.4 57.2 148 56.8 148.3 56.1 Z M 150.3 55 C 150.3 53.5 151.5 52.4 153.1 52.4 C 153.9 52.4 154.7 52.7 155.1 53.4 C 155.1 53.4 154.6 53.8 154.6 53.8 C 154.2 53.2 153.7 53 153.1 53 C 151.9 53 151.1 53.8 151.1 55 C 151.1 56.3 151.9 57.1 153.1 57.1 C 153.7 57.1 154.2 56.9 154.6 56.3 C 154.6 56.3 155.1 56.7 155.1 56.7 C 154.7 57.4 153.9 57.7 153.1 57.7 C 151.5 57.7 150.3 56.6 150.3 55 Z M 159.5 57.4 C 159.2 57.6 158.8 57.7 158.4 57.7 C 157.4 57.7 156.8 57.2 156.8 56.2 C 156.81 56.2 156.8 53 156.8 53 L 155.9 53 L 155.9 52.4 L 156.8 52.4 L 156.8 51.3 L 157.5 51.3 L 157.5 52.4 L 159.1 52.4 L 159.1 53 L 157.5 53 C 157.5 53 157.52 56.16 157.5 56.2 C 157.5 56.8 157.8 57.1 158.4 57.1 C 158.7 57.1 159 57 159.2 56.9 C 159.2 56.9 159.5 57.4 159.5 57.4 Z M 160 55 C 160 53.5 161.2 52.4 162.7 52.4 C 164.2 52.4 165.4 53.5 165.4 55 C 165.4 56.6 164.2 57.7 162.7 57.7 C 161.2 57.7 160 56.6 160 55 Z M 164.6 55 C 164.6 53.8 163.8 53 162.7 53 C 161.6 53 160.7 53.8 160.7 55 C 160.7 56.3 161.6 57.1 162.7 57.1 C 163.8 57.1 164.6 56.3 164.6 55 Z M 169.4 52.4 C 169.4 52.4 169.4 53.1 169.4 53.1 C 169.4 53.1 169.3 53.1 169.3 53.1 C 168.2 53.1 167.5 53.8 167.5 55 C 167.5 55 167.5 57.7 167.5 57.7 L 166.8 57.7 L 166.8 52.4 L 167.5 52.4 C 167.5 52.4 167.47 53.45 167.5 53.4 C 167.8 52.7 168.5 52.4 169.4 52.4 Z M 178.7 55.1 C 178.7 56.7 177.6 57.7 176.1 57.7 C 175.3 57.7 174.6 57.4 174.1 56.7 C 174.13 56.69 174.1 59.6 174.1 59.6 L 173.4 59.6 L 173.4 52.4 L 174.1 52.4 C 174.1 52.4 174.1 53.46 174.1 53.5 C 174.5 52.8 175.3 52.4 176.1 52.4 C 177.6 52.4 178.7 53.5 178.7 55.1 Z M 178 55 C 178 53.8 177.2 53 176.1 53 C 175 53 174.1 53.8 174.1 55 C 174.1 56.3 175 57.1 176.1 57.1 C 177.2 57.1 178 56.3 178 55 Z M 182.8 52.4 C 182.8 52.4 182.8 53.1 182.8 53.1 C 182.8 53.1 182.7 53.1 182.7 53.1 C 181.6 53.1 180.9 53.8 180.9 55 C 180.9 55 180.9 57.7 180.9 57.7 L 180.2 57.7 L 180.2 52.4 L 180.9 52.4 C 180.9 52.4 180.87 53.45 180.9 53.4 C 181.2 52.7 181.9 52.4 182.8 52.4 Z M 183.5 55 C 183.5 53.5 184.6 52.4 186.1 52.4 C 187.7 52.4 188.8 53.5 188.8 55 C 188.8 56.6 187.7 57.7 186.1 57.7 C 184.6 57.7 183.5 56.6 183.5 55 Z M 188.1 55 C 188.1 53.8 187.3 53 186.1 53 C 185 53 184.2 53.8 184.2 55 C 184.2 56.3 185 57.1 186.1 57.1 C 187.3 57.1 188.1 56.3 188.1 55 Z M 195.1 50.3 L 195.1 57.7 L 194.5 57.7 C 194.5 57.7 194.46 56.64 194.5 56.6 C 194 57.3 193.3 57.7 192.4 57.7 C 190.9 57.7 189.8 56.6 189.8 55 C 189.8 53.5 190.9 52.4 192.4 52.4 C 193.3 52.4 194 52.7 194.4 53.4 C 194.43 53.42 194.4 50.3 194.4 50.3 L 195.1 50.3 Z M 194.4 55 C 194.4 53.8 193.6 53 192.5 53 C 191.4 53 190.5 53.8 190.5 55 C 190.5 56.3 191.4 57.1 192.5 57.1 C 193.6 57.1 194.4 56.3 194.4 55 Z M 201.7 52.4 L 201.7 57.7 L 201.1 57.7 C 201.1 57.7 201.07 56.72 201.1 56.7 C 200.7 57.4 200 57.7 199.2 57.7 C 197.8 57.7 197 57 197 55.5 C 196.96 55.47 197 52.4 197 52.4 L 197.7 52.4 C 197.7 52.4 197.67 55.4 197.7 55.4 C 197.7 56.5 198.2 57.1 199.2 57.1 C 200.3 57.1 201 56.4 201 55.2 C 201.04 55.18 201 52.4 201 52.4 L 201.7 52.4 Z M 203.2 55 C 203.2 53.5 204.3 52.4 205.9 52.4 C 206.8 52.4 207.5 52.7 208 53.4 C 208 53.4 207.4 53.8 207.4 53.8 C 207.1 53.2 206.5 53 205.9 53 C 204.8 53 203.9 53.8 203.9 55 C 203.9 56.3 204.8 57.1 205.9 57.1 C 206.5 57.1 207.1 56.9 207.4 56.3 C 207.4 56.3 208 56.7 208 56.7 C 207.5 57.4 206.8 57.7 205.9 57.7 C 204.3 57.7 203.2 56.6 203.2 55 Z M 209.1 50.8 C 209.1 50.5 209.3 50.3 209.6 50.3 C 209.9 50.3 210.1 50.5 210.1 50.7 C 210.1 51 209.9 51.3 209.6 51.3 C 209.3 51.3 209.1 51 209.1 50.8 Z M 209.3 52.4 L 210 52.4 L 210 57.7 L 209.3 57.7 L 209.3 52.4 Z M 216.7 54.6 C 216.65 54.63 216.7 57.7 216.7 57.7 L 215.9 57.7 C 215.9 57.7 215.95 54.7 215.9 54.7 C 215.9 53.6 215.4 53 214.4 53 C 213.2 53 212.5 53.7 212.5 54.9 C 212.52 54.92 212.5 57.7 212.5 57.7 L 211.8 57.7 L 211.8 52.4 L 212.5 52.4 C 212.5 52.4 212.49 53.39 212.5 53.4 C 212.9 52.7 213.6 52.4 214.5 52.4 C 215.8 52.4 216.7 53.1 216.7 54.6 Z M 223.4 52.4 C 223.4 52.4 223.42 57.04 223.4 57 C 223.4 58.9 222.5 59.7 220.8 59.7 C 219.8 59.7 218.9 59.4 218.3 58.9 C 218.3 58.9 218.7 58.3 218.7 58.3 C 219.2 58.8 220 59 220.8 59 C 222.1 59 222.7 58.4 222.7 57.1 C 222.7 57.1 222.7 56.5 222.7 56.5 C 222.3 57.1 221.5 57.5 220.7 57.5 C 219.2 57.5 218 56.4 218 54.9 C 218 53.4 219.2 52.4 220.7 52.4 C 221.5 52.4 222.3 52.7 222.7 53.4 C 222.74 53.43 222.7 52.4 222.7 52.4 L 223.4 52.4 Z M 222.7 54.9 C 222.7 53.8 221.9 53 220.7 53 C 219.6 53 218.7 53.8 218.7 54.9 C 218.7 56.1 219.6 56.9 220.7 56.9 C 221.9 56.9 222.7 56.1 222.7 54.9 Z M 232.6 55.3 C 232.6 55.3 228.2 55.3 228.2 55.3 C 228.3 56.4 229.1 57.1 230.3 57.1 C 230.9 57.1 231.5 56.9 231.9 56.4 C 231.9 56.4 232.3 56.9 232.3 56.9 C 231.8 57.4 231.1 57.7 230.3 57.7 C 228.6 57.7 227.5 56.6 227.5 55 C 227.5 53.5 228.6 52.4 230.1 52.4 C 231.5 52.4 232.6 53.5 232.6 55 C 232.6 55.1 232.6 55.2 232.6 55.3 Z M 228.2 54.7 C 228.2 54.7 231.9 54.7 231.9 54.7 C 231.8 53.7 231.1 53 230.1 53 C 229 53 228.3 53.7 228.2 54.7 Z M 234 50.3 L 234.7 50.3 L 234.7 57.7 L 234 57.7 L 234 50.3 Z M 241.3 55.3 C 241.3 55.3 236.9 55.3 236.9 55.3 C 237 56.4 237.8 57.1 238.9 57.1 C 239.6 57.1 240.2 56.9 240.6 56.4 C 240.6 56.4 241 56.9 241 56.9 C 240.5 57.4 239.8 57.7 238.9 57.7 C 237.3 57.7 236.2 56.6 236.2 55 C 236.2 53.5 237.3 52.4 238.7 52.4 C 240.2 52.4 241.3 53.5 241.3 55 C 241.3 55.1 241.3 55.2 241.3 55.3 Z M 236.9 54.7 C 236.9 54.7 240.6 54.7 240.6 54.7 C 240.5 53.7 239.8 53 238.7 53 C 237.7 53 237 53.7 236.9 54.7 Z M 242.3 55 C 242.3 53.5 243.4 52.4 245 52.4 C 245.9 52.4 246.6 52.7 247.1 53.4 C 247.1 53.4 246.5 53.8 246.5 53.8 C 246.2 53.2 245.6 53 245 53 C 243.8 53 243 53.8 243 55 C 243 56.3 243.8 57.1 245 57.1 C 245.6 57.1 246.2 56.9 246.5 56.3 C 246.5 56.3 247.1 56.7 247.1 56.7 C 246.6 57.4 245.9 57.7 245 57.7 C 243.4 57.7 242.3 56.6 242.3 55 Z M 251.4 57.4 C 251.1 57.6 250.7 57.7 250.3 57.7 C 249.3 57.7 248.8 57.2 248.8 56.2 C 248.75 56.2 248.8 53 248.8 53 L 247.8 53 L 247.8 52.4 L 248.8 52.4 L 248.8 51.3 L 249.5 51.3 L 249.5 52.4 L 251.1 52.4 L 251.1 53 L 249.5 53 C 249.5 53 249.46 56.16 249.5 56.2 C 249.5 56.8 249.8 57.1 250.4 57.1 C 250.7 57.1 251 57 251.2 56.9 C 251.2 56.9 251.4 57.4 251.4 57.4 Z M 255.2 52.4 C 255.2 52.4 255.2 53.1 255.2 53.1 C 255.2 53.1 255.1 53.1 255.1 53.1 C 254 53.1 253.3 53.8 253.3 55 C 253.3 55 253.3 57.7 253.3 57.7 L 252.6 57.7 L 252.6 52.4 L 253.3 52.4 C 253.3 52.4 253.27 53.45 253.3 53.4 C 253.6 52.7 254.3 52.4 255.2 52.4 Z M 256.3 50.8 C 256.3 50.5 256.5 50.3 256.8 50.3 C 257.1 50.3 257.3 50.5 257.3 50.7 C 257.3 51 257.1 51.3 256.8 51.3 C 256.5 51.3 256.3 51 256.3 50.8 Z M 256.5 52.4 L 257.2 52.4 L 257.2 57.7 L 256.5 57.7 L 256.5 52.4 Z M 258.6 55 C 258.6 53.5 259.7 52.4 261.3 52.4 C 262.2 52.4 262.9 52.7 263.3 53.4 C 263.3 53.4 262.8 53.8 262.8 53.8 C 262.4 53.2 261.9 53 261.3 53 C 260.1 53 259.3 53.8 259.3 55 C 259.3 56.3 260.1 57.1 261.3 57.1 C 261.9 57.1 262.4 56.9 262.8 56.3 C 262.8 56.3 263.3 56.7 263.3 56.7 C 262.9 57.4 262.2 57.7 261.3 57.7 C 259.7 57.7 258.6 56.6 258.6 55 Z M 264.5 50.8 C 264.5 50.5 264.7 50.3 265 50.3 C 265.3 50.3 265.5 50.5 265.5 50.7 C 265.5 51 265.3 51.3 265 51.3 C 264.7 51.3 264.5 51 264.5 50.8 Z M 264.6 52.4 L 265.3 52.4 L 265.3 57.7 L 264.6 57.7 L 264.6 52.4 Z M 270.1 57.4 C 269.8 57.6 269.4 57.7 268.9 57.7 C 268 57.7 267.4 57.2 267.4 56.2 C 267.4 56.2 267.4 53 267.4 53 L 266.5 53 L 266.5 52.4 L 267.4 52.4 L 267.4 51.3 L 268.1 51.3 L 268.1 52.4 L 269.7 52.4 L 269.7 53 L 268.1 53 C 268.1 53 268.11 56.16 268.1 56.2 C 268.1 56.8 268.4 57.1 269 57.1 C 269.3 57.1 269.6 57 269.8 56.9 C 269.8 56.9 270.1 57.4 270.1 57.4 Z M 276 52.4 C 276 52.4 273.34 58.31 273.3 58.3 C 272.9 59.3 272.3 59.7 271.6 59.7 C 271.1 59.7 270.6 59.5 270.3 59.2 C 270.3 59.2 270.6 58.7 270.6 58.7 C 270.9 58.9 271.2 59.1 271.6 59.1 C 272.1 59.1 272.4 58.8 272.7 58.2 C 272.69 58.18 272.9 57.7 272.9 57.7 L 270.6 52.4 L 271.3 52.4 L 273.3 56.9 L 275.3 52.4 L 276 52.4 Z M 279.4 50.8 C 279.4 50.5 279.7 50.3 279.9 50.3 C 280.2 50.3 280.5 50.5 280.5 50.7 C 280.5 51 280.2 51.3 279.9 51.3 C 279.7 51.3 279.4 51 279.4 50.8 Z M 279.6 52.4 L 280.3 52.4 L 280.3 57.7 L 279.6 57.7 L 279.6 52.4 Z M 287 54.6 C 286.98 54.63 287 57.7 287 57.7 L 286.3 57.7 C 286.3 57.7 286.27 54.7 286.3 54.7 C 286.3 53.6 285.7 53 284.7 53 C 283.6 53 282.8 53.7 282.8 54.9 C 282.85 54.92 282.8 57.7 282.8 57.7 L 282.1 57.7 L 282.1 52.4 L 282.8 52.4 C 282.8 52.4 282.82 53.39 282.8 53.4 C 283.2 52.7 283.9 52.4 284.8 52.4 C 286.1 52.4 287 53.1 287 54.6 Z M 295.5 54.4 C 295.5 54.42 295.5 57.7 295.5 57.7 L 294.8 57.7 C 294.8 57.7 294.82 56.86 294.8 56.9 C 294.5 57.4 293.9 57.7 293 57.7 C 291.8 57.7 291.1 57.1 291.1 56.2 C 291.1 55.4 291.6 54.7 293.1 54.7 C 293.12 54.71 294.8 54.7 294.8 54.7 C 294.8 54.7 294.79 54.39 294.8 54.4 C 294.8 53.5 294.3 53 293.3 53 C 292.6 53 292 53.2 291.6 53.6 C 291.6 53.6 291.2 53.1 291.2 53.1 C 291.8 52.6 292.5 52.4 293.4 52.4 C 294.7 52.4 295.5 53.1 295.5 54.4 Z M 294.8 56.1 C 294.79 56.1 294.8 55.2 294.8 55.2 C 294.8 55.2 293.14 55.24 293.1 55.2 C 292.1 55.2 291.8 55.6 291.8 56.2 C 291.8 56.8 292.3 57.2 293.1 57.2 C 293.9 57.2 294.5 56.8 294.8 56.1 Z M 305.4 55.1 C 305.4 56.7 304.3 57.7 302.8 57.7 C 301.9 57.7 301.2 57.4 300.8 56.7 C 300.76 56.69 300.8 59.6 300.8 59.6 L 300.1 59.6 L 300.1 52.4 L 300.7 52.4 C 300.7 52.4 300.73 53.46 300.7 53.5 C 301.2 52.8 301.9 52.4 302.8 52.4 C 304.3 52.4 305.4 53.5 305.4 55.1 Z M 304.7 55 C 304.7 53.8 303.8 53 302.7 53 C 301.6 53 300.7 53.8 300.7 55 C 300.7 56.3 301.6 57.1 302.7 57.1 C 303.8 57.1 304.7 56.3 304.7 55 Z M 306.4 55 C 306.4 53.5 307.5 52.4 309.1 52.4 C 310.6 52.4 311.7 53.5 311.7 55 C 311.7 56.6 310.6 57.7 309.1 57.7 C 307.5 57.7 306.4 56.6 306.4 55 Z M 311 55 C 311 53.8 310.2 53 309.1 53 C 307.9 53 307.1 53.8 307.1 55 C 307.1 56.3 307.9 57.1 309.1 57.1 C 310.2 57.1 311 56.3 311 55 Z M 320.9 52.4 L 318.9 57.7 L 318.2 57.7 L 316.5 53.4 L 314.9 57.7 L 314.2 57.7 L 312.2 52.4 L 312.9 52.4 L 314.6 56.9 L 316.2 52.4 L 316.9 52.4 L 318.5 56.9 L 320.2 52.4 L 320.9 52.4 Z M 326.5 55.3 C 326.5 55.3 322.1 55.3 322.1 55.3 C 322.1 56.4 323 57.1 324.1 57.1 C 324.8 57.1 325.3 56.9 325.7 56.4 C 325.7 56.4 326.1 56.9 326.1 56.9 C 325.7 57.4 324.9 57.7 324.1 57.7 C 322.5 57.7 321.3 56.6 321.3 55 C 321.3 53.5 322.4 52.4 323.9 52.4 C 325.4 52.4 326.5 53.5 326.5 55 C 326.5 55.1 326.5 55.2 326.5 55.3 Z M 322.1 54.7 C 322.1 54.7 325.8 54.7 325.8 54.7 C 325.7 53.7 324.9 53 323.9 53 C 322.9 53 322.1 53.7 322.1 54.7 Z M 330.5 52.4 C 330.5 52.4 330.5 53.1 330.5 53.1 C 330.5 53.1 330.4 53.1 330.4 53.1 C 329.3 53.1 328.6 53.8 328.6 55 C 328.58 55 328.6 57.7 328.6 57.7 L 327.9 57.7 L 327.9 52.4 L 328.6 52.4 C 328.6 52.4 328.55 53.45 328.6 53.4 C 328.9 52.7 329.6 52.4 330.5 52.4 Z M 333.8 57.1 C 333.8 57.1 334.1 56.5 334.1 56.5 C 334.5 56.9 335.2 57.1 336 57.1 C 337 57.1 337.4 56.8 337.4 56.3 C 337.4 54.9 334 56 334 53.9 C 334 53 334.7 52.4 336 52.4 C 336.7 52.4 337.5 52.6 337.9 52.9 C 337.9 52.9 337.6 53.4 337.6 53.4 C 337.1 53.1 336.6 53 336 53 C 335.1 53 334.7 53.4 334.7 53.9 C 334.7 55.3 338.1 54.2 338.1 56.2 C 338.1 57.1 337.3 57.7 335.9 57.7 C 335 57.7 334.2 57.4 333.8 57.1 Z M 342.4 57.4 C 342.1 57.6 341.7 57.7 341.3 57.7 C 340.3 57.7 339.7 57.2 339.7 56.2 C 339.71 56.2 339.7 53 339.7 53 L 338.8 53 L 338.8 52.4 L 339.7 52.4 L 339.7 51.3 L 340.4 51.3 L 340.4 52.4 L 342 52.4 L 342 53 L 340.4 53 C 340.4 53 340.42 56.16 340.4 56.2 C 340.4 56.8 340.7 57.1 341.3 57.1 C 341.6 57.1 341.9 57 342.1 56.9 C 342.1 56.9 342.4 57.4 342.4 57.4 Z M 347.6 54.4 C 347.59 54.42 347.6 57.7 347.6 57.7 L 346.9 57.7 C 346.9 57.7 346.92 56.86 346.9 56.9 C 346.6 57.4 346 57.7 345.1 57.7 C 343.9 57.7 343.2 57.1 343.2 56.2 C 343.2 55.4 343.7 54.7 345.2 54.7 C 345.21 54.71 346.9 54.7 346.9 54.7 C 346.9 54.7 346.89 54.39 346.9 54.4 C 346.9 53.5 346.4 53 345.4 53 C 344.7 53 344.1 53.2 343.6 53.6 C 343.6 53.6 343.3 53.1 343.3 53.1 C 343.9 52.6 344.6 52.4 345.5 52.4 C 346.8 52.4 347.6 53.1 347.6 54.4 Z M 346.9 56.1 C 346.89 56.1 346.9 55.2 346.9 55.2 C 346.9 55.2 345.23 55.24 345.2 55.2 C 344.2 55.2 343.9 55.6 343.9 56.2 C 343.9 56.8 344.4 57.2 345.2 57.2 C 346 57.2 346.6 56.8 346.9 56.1 Z M 352.1 57.4 C 351.9 57.6 351.4 57.7 351 57.7 C 350 57.7 349.5 57.2 349.5 56.2 C 349.49 56.2 349.5 53 349.5 53 L 348.6 53 L 348.6 52.4 L 349.5 52.4 L 349.5 51.3 L 350.2 51.3 L 350.2 52.4 L 351.8 52.4 L 351.8 53 L 350.2 53 C 350.2 53 350.2 56.16 350.2 56.2 C 350.2 56.8 350.5 57.1 351.1 57.1 C 351.4 57.1 351.7 57 351.9 56.9 C 351.9 56.9 352.1 57.4 352.1 57.4 Z M 353.2 50.8 C 353.2 50.5 353.4 50.3 353.7 50.3 C 354 50.3 354.2 50.5 354.2 50.7 C 354.2 51 354 51.3 353.7 51.3 C 353.4 51.3 353.2 51 353.2 50.8 Z M 353.3 52.4 L 354 52.4 L 354 57.7 L 353.3 57.7 L 353.3 52.4 Z M 355.4 55 C 355.4 53.5 356.6 52.4 358.1 52.4 C 359.7 52.4 360.8 53.5 360.8 55 C 360.8 56.6 359.7 57.7 358.1 57.7 C 356.6 57.7 355.4 56.6 355.4 55 Z M 360.1 55 C 360.1 53.8 359.2 53 358.1 53 C 357 53 356.2 53.8 356.2 55 C 356.2 56.3 357 57.1 358.1 57.1 C 359.2 57.1 360.1 56.3 360.1 55 Z M 367 54.6 C 367.05 54.63 367 57.7 367 57.7 L 366.3 57.7 C 366.3 57.7 366.34 54.7 366.3 54.7 C 366.3 53.6 365.8 53 364.8 53 C 363.6 53 362.9 53.7 362.9 54.9 C 362.92 54.92 362.9 57.7 362.9 57.7 L 362.2 57.7 L 362.2 52.4 L 362.9 52.4 C 362.9 52.4 362.89 53.39 362.9 53.4 C 363.3 52.7 364 52.4 364.9 52.4 C 366.2 52.4 367 53.1 367 54.6 Z M 368.6 57.2 C 368.6 56.9 368.8 56.6 369.1 56.6 C 369.4 56.6 369.7 56.9 369.7 57.2 C 369.7 57.5 369.4 57.7 369.1 57.7 C 368.8 57.7 368.6 57.5 368.6 57.2 Z " stroke="none" fill="#323132"/>
  </g>
  <g id="Polygon117895">
    <path d="M 8.5 36.3 L 6 36.3 L 6 35.7 L 11.7 35.7 L 11.7 36.3 L 9.2 36.3 L 9.2 42.7 L 8.5 42.7 L 8.5 36.3 Z M 17.6 39.6 C 17.63 39.63 17.6 42.7 17.6 42.7 L 16.9 42.7 C 16.9 42.7 16.92 39.7 16.9 39.7 C 16.9 38.6 16.3 38 15.3 38 C 14.2 38 13.5 38.7 13.5 39.9 C 13.5 39.92 13.5 42.7 13.5 42.7 L 12.8 42.7 L 12.8 35.3 L 13.5 35.3 C 13.5 35.3 13.5 38.34 13.5 38.3 C 13.9 37.7 14.6 37.4 15.5 37.4 C 16.8 37.4 17.6 38.1 17.6 39.6 Z M 24.1 40.3 C 24.1 40.3 19.7 40.3 19.7 40.3 C 19.8 41.4 20.6 42.1 21.8 42.1 C 22.4 42.1 23 41.9 23.4 41.4 C 23.4 41.4 23.8 41.9 23.8 41.9 C 23.3 42.4 22.6 42.7 21.8 42.7 C 20.1 42.7 19 41.6 19 40 C 19 38.5 20.1 37.4 21.6 37.4 C 23.1 37.4 24.1 38.5 24.1 40 C 24.1 40.1 24.1 40.2 24.1 40.3 Z M 19.7 39.7 C 19.7 39.7 23.5 39.7 23.5 39.7 C 23.4 38.7 22.6 38 21.6 38 C 20.6 38 19.8 38.7 19.7 39.7 Z M 27.7 40 C 27.7 38.5 28.8 37.4 30.4 37.4 C 31.3 37.4 32 37.7 32.4 38.4 C 32.4 38.4 31.9 38.8 31.9 38.8 C 31.6 38.2 31 38 30.4 38 C 29.2 38 28.4 38.8 28.4 40 C 28.4 41.3 29.2 42.1 30.4 42.1 C 31 42.1 31.6 41.9 31.9 41.3 C 31.9 41.3 32.4 41.7 32.4 41.7 C 32 42.4 31.3 42.7 30.4 42.7 C 28.8 42.7 27.7 41.6 27.7 40 Z M 33.2 40 C 33.2 38.5 34.4 37.4 35.9 37.4 C 37.5 37.4 38.6 38.5 38.6 40 C 38.6 41.6 37.5 42.7 35.9 42.7 C 34.4 42.7 33.2 41.6 33.2 40 Z M 37.9 40 C 37.9 38.8 37 38 35.9 38 C 34.8 38 34 38.8 34 40 C 34 41.3 34.8 42.1 35.9 42.1 C 37 42.1 37.9 41.3 37.9 40 Z M 44.8 39.6 C 44.85 39.63 44.8 42.7 44.8 42.7 L 44.1 42.7 C 44.1 42.7 44.14 39.7 44.1 39.7 C 44.1 38.6 43.6 38 42.6 38 C 41.4 38 40.7 38.7 40.7 39.9 C 40.72 39.92 40.7 42.7 40.7 42.7 L 40 42.7 L 40 37.4 L 40.7 37.4 C 40.7 37.4 40.69 38.39 40.7 38.4 C 41.1 37.7 41.8 37.4 42.7 37.4 C 44 37.4 44.8 38.1 44.8 39.6 Z M 49.4 42.4 C 49.1 42.6 48.7 42.7 48.3 42.7 C 47.3 42.7 46.7 42.2 46.7 41.2 C 46.73 41.2 46.7 38 46.7 38 L 45.8 38 L 45.8 37.4 L 46.7 37.4 L 46.7 36.3 L 47.4 36.3 L 47.4 37.4 L 49 37.4 L 49 38 L 47.4 38 C 47.4 38 47.44 41.16 47.4 41.2 C 47.4 41.8 47.8 42.1 48.3 42.1 C 48.6 42.1 48.9 42 49.1 41.9 C 49.1 41.9 49.4 42.4 49.4 42.4 Z M 53.2 37.4 C 53.2 37.4 53.2 38.1 53.2 38.1 C 53.2 38.1 53.1 38.1 53 38.1 C 51.9 38.1 51.3 38.8 51.3 40 C 51.28 40 51.3 42.7 51.3 42.7 L 50.6 42.7 L 50.6 37.4 L 51.2 37.4 C 51.2 37.4 51.25 38.45 51.2 38.4 C 51.6 37.7 52.2 37.4 53.2 37.4 Z M 53.8 40 C 53.8 38.5 55 37.4 56.5 37.4 C 58.1 37.4 59.2 38.5 59.2 40 C 59.2 41.6 58.1 42.7 56.5 42.7 C 55 42.7 53.8 41.6 53.8 40 Z M 58.5 40 C 58.5 38.8 57.6 38 56.5 38 C 55.4 38 54.6 38.8 54.6 40 C 54.6 41.3 55.4 42.1 56.5 42.1 C 57.6 42.1 58.5 41.3 58.5 40 Z M 60.6 35.3 L 61.3 35.3 L 61.3 42.7 L 60.6 42.7 L 60.6 35.3 Z M 63.2 35.3 L 63.9 35.3 L 63.9 42.7 L 63.2 42.7 L 63.2 35.3 Z M 70.4 40.3 C 70.4 40.3 66 40.3 66 40.3 C 66.1 41.4 66.9 42.1 68.1 42.1 C 68.7 42.1 69.3 41.9 69.7 41.4 C 69.7 41.4 70.1 41.9 70.1 41.9 C 69.6 42.4 68.9 42.7 68.1 42.7 C 66.4 42.7 65.3 41.6 65.3 40 C 65.3 38.5 66.4 37.4 67.9 37.4 C 69.4 37.4 70.4 38.5 70.4 40 C 70.4 40.1 70.4 40.2 70.4 40.3 Z M 66 39.7 C 66 39.7 69.7 39.7 69.7 39.7 C 69.7 38.7 68.9 38 67.9 38 C 66.9 38 66.1 38.7 66 39.7 Z M 76.8 35.3 L 76.8 42.7 L 76.1 42.7 C 76.1 42.7 76.08 41.64 76.1 41.6 C 75.6 42.3 74.9 42.7 74 42.7 C 72.5 42.7 71.4 41.6 71.4 40 C 71.4 38.5 72.5 37.4 74 37.4 C 74.9 37.4 75.6 37.7 76 38.4 C 76.05 38.42 76 35.3 76 35.3 L 76.8 35.3 Z M 76.1 40 C 76.1 38.8 75.2 38 74.1 38 C 73 38 72.1 38.8 72.1 40 C 72.1 41.3 73 42.1 74.1 42.1 C 75.2 42.1 76.1 41.3 76.1 40 Z M 86.7 40.1 C 86.7 41.7 85.6 42.7 84.1 42.7 C 83.2 42.7 82.5 42.4 82.1 41.7 C 82.07 41.69 82.1 44.6 82.1 44.6 L 81.4 44.6 L 81.4 37.4 L 82 37.4 C 82 37.4 82.04 38.46 82 38.5 C 82.5 37.8 83.2 37.4 84.1 37.4 C 85.6 37.4 86.7 38.5 86.7 40.1 Z M 86 40 C 86 38.8 85.1 38 84 38 C 82.9 38 82.1 38.8 82.1 40 C 82.1 41.3 82.9 42.1 84 42.1 C 85.1 42.1 86 41.3 86 40 Z M 90.8 37.4 C 90.8 37.4 90.8 38.1 90.8 38.1 C 90.7 38.1 90.7 38.1 90.6 38.1 C 89.5 38.1 88.8 38.8 88.8 40 C 88.84 40 88.8 42.7 88.8 42.7 L 88.1 42.7 L 88.1 37.4 L 88.8 37.4 C 88.8 37.4 88.81 38.45 88.8 38.4 C 89.1 37.7 89.8 37.4 90.8 37.4 Z M 91.4 40 C 91.4 38.5 92.5 37.4 94.1 37.4 C 95.6 37.4 96.7 38.5 96.7 40 C 96.7 41.6 95.6 42.7 94.1 42.7 C 92.5 42.7 91.4 41.6 91.4 40 Z M 96 40 C 96 38.8 95.2 38 94.1 38 C 93 38 92.1 38.8 92.1 40 C 92.1 41.3 93 42.1 94.1 42.1 C 95.2 42.1 96 41.3 96 40 Z M 97.8 40 C 97.8 38.5 98.9 37.4 100.5 37.4 C 101.4 37.4 102.1 37.7 102.5 38.4 C 102.5 38.4 102 38.8 102 38.8 C 101.6 38.2 101.1 38 100.5 38 C 99.3 38 98.5 38.8 98.5 40 C 98.5 41.3 99.3 42.1 100.5 42.1 C 101.1 42.1 101.6 41.9 102 41.3 C 102 41.3 102.5 41.7 102.5 41.7 C 102.1 42.4 101.4 42.7 100.5 42.7 C 98.9 42.7 97.8 41.6 97.8 40 Z M 108.4 40.3 C 108.4 40.3 104 40.3 104 40.3 C 104.1 41.4 105 42.1 106.1 42.1 C 106.8 42.1 107.3 41.9 107.7 41.4 C 107.7 41.4 108.1 41.9 108.1 41.9 C 107.7 42.4 106.9 42.7 106.1 42.7 C 104.5 42.7 103.3 41.6 103.3 40 C 103.3 38.5 104.4 37.4 105.9 37.4 C 107.4 37.4 108.5 38.5 108.5 40 C 108.5 40.1 108.4 40.2 108.4 40.3 Z M 104 39.7 C 104 39.7 107.8 39.7 107.8 39.7 C 107.7 38.7 106.9 38 105.9 38 C 104.9 38 104.1 38.7 104 39.7 Z M 109.2 42.1 C 109.2 42.1 109.6 41.5 109.6 41.5 C 110 41.9 110.7 42.1 111.4 42.1 C 112.4 42.1 112.8 41.8 112.8 41.3 C 112.8 39.9 109.4 41 109.4 38.9 C 109.4 38 110.2 37.4 111.5 37.4 C 112.2 37.4 112.9 37.6 113.4 37.9 C 113.4 37.9 113.1 38.4 113.1 38.4 C 112.6 38.1 112.1 38 111.5 38 C 110.6 38 110.1 38.4 110.1 38.9 C 110.1 40.3 113.6 39.2 113.6 41.2 C 113.6 42.1 112.8 42.7 111.4 42.7 C 110.5 42.7 109.7 42.4 109.2 42.1 Z M 114.3 42.1 C 114.3 42.1 114.6 41.5 114.6 41.5 C 115 41.9 115.7 42.1 116.5 42.1 C 117.5 42.1 117.9 41.8 117.9 41.3 C 117.9 39.9 114.5 41 114.5 38.9 C 114.5 38 115.2 37.4 116.6 37.4 C 117.3 37.4 118 37.6 118.4 37.9 C 118.4 37.9 118.1 38.4 118.1 38.4 C 117.7 38.1 117.1 38 116.6 38 C 115.6 38 115.2 38.4 115.2 38.9 C 115.2 40.3 118.6 39.2 118.6 41.2 C 118.6 42.1 117.8 42.7 116.4 42.7 C 115.6 42.7 114.7 42.4 114.3 42.1 Z M 122.4 35.8 C 122.4 35.5 122.6 35.3 122.9 35.3 C 123.2 35.3 123.4 35.5 123.4 35.7 C 123.4 36 123.2 36.3 122.9 36.3 C 122.6 36.3 122.4 36 122.4 35.8 Z M 122.5 37.4 L 123.2 37.4 L 123.2 42.7 L 122.5 42.7 L 122.5 37.4 Z M 124.5 42.1 C 124.5 42.1 124.8 41.5 124.8 41.5 C 125.3 41.9 126 42.1 126.7 42.1 C 127.7 42.1 128.1 41.8 128.1 41.3 C 128.1 39.9 124.7 41 124.7 38.9 C 124.7 38 125.4 37.4 126.8 37.4 C 127.5 37.4 128.2 37.6 128.6 37.9 C 128.6 37.9 128.3 38.4 128.3 38.4 C 127.9 38.1 127.3 38 126.8 38 C 125.8 38 125.4 38.4 125.4 38.9 C 125.4 40.3 128.8 39.2 128.8 41.2 C 128.8 42.1 128 42.7 126.7 42.7 C 125.8 42.7 124.9 42.4 124.5 42.1 Z M 140.5 37.4 L 138.5 42.7 L 137.8 42.7 L 136.2 38.4 L 134.5 42.7 L 133.8 42.7 L 131.8 37.4 L 132.5 37.4 L 134.2 41.9 L 135.9 37.4 L 136.5 37.4 L 138.2 41.9 L 139.8 37.4 L 140.5 37.4 Z M 146.4 39.6 C 146.41 39.63 146.4 42.7 146.4 42.7 L 145.7 42.7 C 145.7 42.7 145.7 39.7 145.7 39.7 C 145.7 38.6 145.1 38 144.1 38 C 143 38 142.3 38.7 142.3 39.9 C 142.28 39.92 142.3 42.7 142.3 42.7 L 141.6 42.7 L 141.6 35.3 L 142.3 35.3 C 142.3 35.3 142.28 38.34 142.3 38.3 C 142.7 37.7 143.4 37.4 144.3 37.4 C 145.5 37.4 146.4 38.1 146.4 39.6 Z M 152.2 39.4 C 152.23 39.42 152.2 42.7 152.2 42.7 L 151.6 42.7 C 151.6 42.7 151.55 41.86 151.6 41.9 C 151.2 42.4 150.6 42.7 149.7 42.7 C 148.6 42.7 147.8 42.1 147.8 41.2 C 147.8 40.4 148.3 39.7 149.9 39.7 C 149.85 39.71 151.5 39.7 151.5 39.7 C 151.5 39.7 151.52 39.39 151.5 39.4 C 151.5 38.5 151 38 150 38 C 149.4 38 148.7 38.2 148.3 38.6 C 148.3 38.6 148 38.1 148 38.1 C 148.5 37.6 149.3 37.4 150.1 37.4 C 151.5 37.4 152.2 38.1 152.2 39.4 Z M 151.5 41.1 C 151.52 41.1 151.5 40.2 151.5 40.2 C 151.5 40.2 149.87 40.24 149.9 40.2 C 148.9 40.2 148.5 40.6 148.5 41.2 C 148.5 41.8 149 42.2 149.9 42.2 C 150.7 42.2 151.2 41.8 151.5 41.1 Z M 156.8 42.4 C 156.5 42.6 156.1 42.7 155.7 42.7 C 154.7 42.7 154.1 42.2 154.1 41.2 C 154.13 41.2 154.1 38 154.1 38 L 153.2 38 L 153.2 37.4 L 154.1 37.4 L 154.1 36.3 L 154.8 36.3 L 154.8 37.4 L 156.4 37.4 L 156.4 38 L 154.8 38 C 154.8 38 154.84 41.16 154.8 41.2 C 154.8 41.8 155.2 42.1 155.7 42.1 C 156 42.1 156.3 42 156.5 41.9 C 156.5 41.9 156.8 42.4 156.8 42.4 Z M 163.5 42.4 C 163.2 42.6 162.8 42.7 162.3 42.7 C 161.4 42.7 160.8 42.2 160.8 41.2 C 160.81 41.2 160.8 38 160.8 38 L 159.9 38 L 159.9 37.4 L 160.8 37.4 L 160.8 36.3 L 161.5 36.3 L 161.5 37.4 L 163.1 37.4 L 163.1 38 L 161.5 38 C 161.5 38 161.52 41.16 161.5 41.2 C 161.5 41.8 161.8 42.1 162.4 42.1 C 162.7 42.1 163 42 163.2 41.9 C 163.2 41.9 163.5 42.4 163.5 42.4 Z M 169.5 39.6 C 169.49 39.63 169.5 42.7 169.5 42.7 L 168.8 42.7 C 168.8 42.7 168.78 39.7 168.8 39.7 C 168.8 38.6 168.2 38 167.2 38 C 166.1 38 165.4 38.7 165.4 39.9 C 165.36 39.92 165.4 42.7 165.4 42.7 L 164.6 42.7 L 164.6 35.3 L 165.4 35.3 C 165.4 35.3 165.36 38.34 165.4 38.3 C 165.7 37.7 166.4 37.4 167.3 37.4 C 168.6 37.4 169.5 38.1 169.5 39.6 Z M 176 40.3 C 176 40.3 171.6 40.3 171.6 40.3 C 171.7 41.4 172.5 42.1 173.6 42.1 C 174.3 42.1 174.9 41.9 175.3 41.4 C 175.3 41.4 175.7 41.9 175.7 41.9 C 175.2 42.4 174.5 42.7 173.6 42.7 C 172 42.7 170.9 41.6 170.9 40 C 170.9 38.5 172 37.4 173.4 37.4 C 174.9 37.4 176 38.5 176 40 C 176 40.1 176 40.2 176 40.3 Z M 171.6 39.7 C 171.6 39.7 175.3 39.7 175.3 39.7 C 175.2 38.7 174.5 38 173.4 38 C 172.4 38 171.7 38.7 171.6 39.7 Z M 188.7 39.6 C 188.74 39.63 188.7 42.7 188.7 42.7 L 188 42.7 C 188 42.7 188.03 39.7 188 39.7 C 188 38.6 187.5 38 186.5 38 C 185.4 38 184.8 38.7 184.8 39.9 C 184.76 39.92 184.8 42.7 184.8 42.7 L 184 42.7 C 184 42.7 184.05 39.7 184 39.7 C 184 38.6 183.5 38 182.5 38 C 181.5 38 180.8 38.7 180.8 39.9 C 180.77 39.92 180.8 42.7 180.8 42.7 L 180.1 42.7 L 180.1 37.4 L 180.7 37.4 C 180.7 37.4 180.74 38.38 180.7 38.4 C 181.1 37.7 181.8 37.4 182.7 37.4 C 183.5 37.4 184.2 37.7 184.5 38.5 C 184.9 37.8 185.7 37.4 186.6 37.4 C 187.9 37.4 188.7 38.1 188.7 39.6 Z M 194.6 39.4 C 194.57 39.42 194.6 42.7 194.6 42.7 L 193.9 42.7 C 193.9 42.7 193.89 41.86 193.9 41.9 C 193.6 42.4 192.9 42.7 192.1 42.7 C 190.9 42.7 190.2 42.1 190.2 41.2 C 190.2 40.4 190.7 39.7 192.2 39.7 C 192.19 39.71 193.9 39.7 193.9 39.7 C 193.9 39.7 193.86 39.39 193.9 39.4 C 193.9 38.5 193.3 38 192.4 38 C 191.7 38 191 38.2 190.6 38.6 C 190.6 38.6 190.3 38.1 190.3 38.1 C 190.8 37.6 191.6 37.4 192.4 37.4 C 193.8 37.4 194.6 38.1 194.6 39.4 Z M 193.9 41.1 C 193.86 41.1 193.9 40.2 193.9 40.2 C 193.9 40.2 192.21 40.24 192.2 40.2 C 191.2 40.2 190.9 40.6 190.9 41.2 C 190.9 41.8 191.3 42.2 192.2 42.2 C 193 42.2 193.6 41.8 193.9 41.1 Z M 195.9 40 C 195.9 38.5 197.1 37.4 198.7 37.4 C 199.5 37.4 200.3 37.7 200.7 38.4 C 200.7 38.4 200.2 38.8 200.2 38.8 C 199.8 38.2 199.3 38 198.7 38 C 197.5 38 196.7 38.8 196.7 40 C 196.7 41.3 197.5 42.1 198.7 42.1 C 199.3 42.1 199.8 41.9 200.2 41.3 C 200.2 41.3 200.7 41.7 200.7 41.7 C 200.3 42.4 199.5 42.7 198.7 42.7 C 197.1 42.7 195.9 41.6 195.9 40 Z M 206.9 39.6 C 206.87 39.63 206.9 42.7 206.9 42.7 L 206.2 42.7 C 206.2 42.7 206.16 39.7 206.2 39.7 C 206.2 38.6 205.6 38 204.6 38 C 203.4 38 202.7 38.7 202.7 39.9 C 202.74 39.92 202.7 42.7 202.7 42.7 L 202 42.7 L 202 35.3 L 202.7 35.3 C 202.7 35.3 202.74 38.34 202.7 38.3 C 203.1 37.7 203.8 37.4 204.7 37.4 C 206 37.4 206.9 38.1 206.9 39.6 Z M 208.5 35.8 C 208.5 35.5 208.7 35.3 209 35.3 C 209.3 35.3 209.5 35.5 209.5 35.7 C 209.5 36 209.3 36.3 209 36.3 C 208.7 36.3 208.5 36 208.5 35.8 Z M 208.7 37.4 L 209.4 37.4 L 209.4 42.7 L 208.7 42.7 L 208.7 37.4 Z M 216 39.6 C 216.04 39.63 216 42.7 216 42.7 L 215.3 42.7 C 215.3 42.7 215.34 39.7 215.3 39.7 C 215.3 38.6 214.8 38 213.8 38 C 212.6 38 211.9 38.7 211.9 39.9 C 211.91 39.92 211.9 42.7 211.9 42.7 L 211.2 42.7 L 211.2 37.4 L 211.9 37.4 C 211.9 37.4 211.88 38.39 211.9 38.4 C 212.3 37.7 213 37.4 213.9 37.4 C 215.2 37.4 216 38.1 216 39.6 Z M 222.5 40.3 C 222.5 40.3 218.1 40.3 218.1 40.3 C 218.2 41.4 219.1 42.1 220.2 42.1 C 220.8 42.1 221.4 41.9 221.8 41.4 C 221.8 41.4 222.2 41.9 222.2 41.9 C 221.7 42.4 221 42.7 220.2 42.7 C 218.5 42.7 217.4 41.6 217.4 40 C 217.4 38.5 218.5 37.4 220 37.4 C 221.5 37.4 222.5 38.5 222.5 40 C 222.5 40.1 222.5 40.2 222.5 40.3 Z M 218.1 39.7 C 218.1 39.7 221.9 39.7 221.9 39.7 C 221.8 38.7 221 38 220 38 C 219 38 218.2 38.7 218.1 39.7 Z M 231.4 35.3 L 231.4 42.7 L 230.7 42.7 C 230.7 42.7 230.74 41.64 230.7 41.6 C 230.3 42.3 229.6 42.7 228.7 42.7 C 227.2 42.7 226.1 41.6 226.1 40 C 226.1 38.5 227.2 37.4 228.7 37.4 C 229.5 37.4 230.3 37.7 230.7 38.4 C 230.71 38.42 230.7 35.3 230.7 35.3 L 231.4 35.3 Z M 230.7 40 C 230.7 38.8 229.9 38 228.8 38 C 227.6 38 226.8 38.8 226.8 40 C 226.8 41.3 227.6 42.1 228.8 42.1 C 229.9 42.1 230.7 41.3 230.7 40 Z M 232.9 40 C 232.9 38.5 234 37.4 235.5 37.4 C 237.1 37.4 238.2 38.5 238.2 40 C 238.2 41.6 237.1 42.7 235.5 42.7 C 234 42.7 232.9 41.6 232.9 40 Z M 237.5 40 C 237.5 38.8 236.7 38 235.5 38 C 234.4 38 233.6 38.8 233.6 40 C 233.6 41.3 234.4 42.1 235.5 42.1 C 236.7 42.1 237.5 41.3 237.5 40 Z M 244.3 40.3 C 244.3 40.3 239.9 40.3 239.9 40.3 C 240 41.4 240.8 42.1 242 42.1 C 242.6 42.1 243.2 41.9 243.6 41.4 C 243.6 41.4 244 41.9 244 41.9 C 243.5 42.4 242.8 42.7 242 42.7 C 240.3 42.7 239.2 41.6 239.2 40 C 239.2 38.5 240.3 37.4 241.8 37.4 C 243.3 37.4 244.3 38.5 244.3 40 C 244.3 40.1 244.3 40.2 244.3 40.3 Z M 239.9 39.7 C 239.9 39.7 243.7 39.7 243.7 39.7 C 243.6 38.7 242.8 38 241.8 38 C 240.8 38 240 38.7 239.9 39.7 Z M 245.1 42.1 C 245.1 42.1 245.5 41.5 245.5 41.5 C 245.9 41.9 246.6 42.1 247.3 42.1 C 248.3 42.1 248.7 41.8 248.7 41.3 C 248.7 39.9 245.3 41 245.3 38.9 C 245.3 38 246.1 37.4 247.4 37.4 C 248.1 37.4 248.8 37.6 249.3 37.9 C 249.3 37.9 249 38.4 249 38.4 C 248.5 38.1 247.9 38 247.4 38 C 246.5 38 246 38.4 246 38.9 C 246 40.3 249.4 39.2 249.4 41.2 C 249.4 42.1 248.6 42.7 247.3 42.7 C 246.4 42.7 245.6 42.4 245.1 42.1 Z M 251.6 42.2 C 251.6 42.3 251.6 42.5 251.5 42.8 C 251.47 42.76 251.1 44.1 251.1 44.1 L 250.6 44.1 C 250.6 44.1 250.91 42.69 250.9 42.7 C 250.7 42.6 250.6 42.4 250.6 42.2 C 250.6 41.9 250.8 41.6 251.1 41.6 C 251.4 41.6 251.6 41.9 251.6 42.2 Z M 256.5 36.8 C 256.55 36.8 256.5 37.4 256.5 37.4 L 258.2 37.4 L 258.2 38 L 256.6 38 L 256.6 42.7 L 255.9 42.7 L 255.9 38 L 254.9 38 L 254.9 37.4 L 255.9 37.4 C 255.9 37.4 255.86 36.77 255.9 36.8 C 255.9 35.8 256.4 35.2 257.4 35.2 C 257.8 35.2 258.2 35.3 258.5 35.5 C 258.5 35.5 258.3 36.1 258.3 36.1 C 258.1 35.9 257.8 35.8 257.5 35.8 C 256.9 35.8 256.5 36.1 256.5 36.8 Z M 258.6 40 C 258.6 38.5 259.7 37.4 261.3 37.4 C 262.8 37.4 263.9 38.5 263.9 40 C 263.9 41.6 262.8 42.7 261.3 42.7 C 259.7 42.7 258.6 41.6 258.6 40 Z M 263.2 40 C 263.2 38.8 262.4 38 261.3 38 C 260.1 38 259.3 38.8 259.3 40 C 259.3 41.3 260.1 42.1 261.3 42.1 C 262.4 42.1 263.2 41.3 263.2 40 Z M 268 37.4 C 268 37.4 268 38.1 268 38.1 C 267.9 38.1 267.9 38.1 267.8 38.1 C 266.7 38.1 266.1 38.8 266.1 40 C 266.07 40 266.1 42.7 266.1 42.7 L 265.4 42.7 L 265.4 37.4 L 266 37.4 C 266 37.4 266.04 38.45 266 38.4 C 266.4 37.7 267 37.4 268 37.4 Z M 276.6 40.3 C 276.6 40.3 272.2 40.3 272.2 40.3 C 272.2 41.4 273.1 42.1 274.2 42.1 C 274.9 42.1 275.4 41.9 275.8 41.4 C 275.8 41.4 276.2 41.9 276.2 41.9 C 275.8 42.4 275 42.7 274.2 42.7 C 272.6 42.7 271.5 41.6 271.5 40 C 271.5 38.5 272.5 37.4 274 37.4 C 275.5 37.4 276.6 38.5 276.6 40 C 276.6 40.1 276.6 40.2 276.6 40.3 Z M 272.2 39.7 C 272.2 39.7 275.9 39.7 275.9 39.7 C 275.8 38.7 275.1 38 274 38 C 273 38 272.3 38.7 272.2 39.7 Z M 281.2 42.7 L 279.5 40.5 L 277.9 42.7 L 277.1 42.7 L 279.1 40 L 277.2 37.4 L 278 37.4 L 279.5 39.5 L 281.1 37.4 L 281.9 37.4 L 279.9 40 L 282 42.7 L 281.2 42.7 Z M 287 39.4 C 287.04 39.42 287 42.7 287 42.7 L 286.4 42.7 C 286.4 42.7 286.36 41.86 286.4 41.9 C 286 42.4 285.4 42.7 284.5 42.7 C 283.4 42.7 282.6 42.1 282.6 41.2 C 282.6 40.4 283.1 39.7 284.7 39.7 C 284.66 39.71 286.3 39.7 286.3 39.7 C 286.3 39.7 286.33 39.39 286.3 39.4 C 286.3 38.5 285.8 38 284.8 38 C 284.2 38 283.5 38.2 283.1 38.6 C 283.1 38.6 282.8 38.1 282.8 38.1 C 283.3 37.6 284.1 37.4 284.9 37.4 C 286.3 37.4 287 38.1 287 39.4 Z M 286.3 41.1 C 286.33 41.1 286.3 40.2 286.3 40.2 C 286.3 40.2 284.68 40.24 284.7 40.2 C 283.7 40.2 283.3 40.6 283.3 41.2 C 283.3 41.8 283.8 42.2 284.7 42.2 C 285.5 42.2 286.1 41.8 286.3 41.1 Z M 297.5 39.6 C 297.53 39.63 297.5 42.7 297.5 42.7 L 296.8 42.7 C 296.8 42.7 296.82 39.7 296.8 39.7 C 296.8 38.6 296.3 38 295.3 38 C 294.2 38 293.6 38.7 293.6 39.9 C 293.55 39.92 293.6 42.7 293.6 42.7 L 292.8 42.7 C 292.8 42.7 292.84 39.7 292.8 39.7 C 292.8 38.6 292.3 38 291.3 38 C 290.3 38 289.6 38.7 289.6 39.9 C 289.56 39.92 289.6 42.7 289.6 42.7 L 288.9 42.7 L 288.9 37.4 L 289.5 37.4 C 289.5 37.4 289.53 38.38 289.5 38.4 C 289.9 37.7 290.6 37.4 291.5 37.4 C 292.3 37.4 293 37.7 293.3 38.5 C 293.7 37.8 294.5 37.4 295.4 37.4 C 296.7 37.4 297.5 38.1 297.5 39.6 Z M 304.7 40.1 C 304.7 41.7 303.6 42.7 302.1 42.7 C 301.2 42.7 300.5 42.4 300.1 41.7 C 300.07 41.69 300.1 44.6 300.1 44.6 L 299.4 44.6 L 299.4 37.4 L 300 37.4 C 300 37.4 300.04 38.46 300 38.5 C 300.5 37.8 301.2 37.4 302.1 37.4 C 303.6 37.4 304.7 38.5 304.7 40.1 Z M 304 40 C 304 38.8 303.1 38 302 38 C 300.9 38 300.1 38.8 300.1 40 C 300.1 41.3 300.9 42.1 302 42.1 C 303.1 42.1 304 41.3 304 40 Z M 306.1 35.3 L 306.9 35.3 L 306.9 42.7 L 306.1 42.7 L 306.1 35.3 Z M 313.4 40.3 C 313.4 40.3 309 40.3 309 40.3 C 309.1 41.4 309.9 42.1 311.1 42.1 C 311.7 42.1 312.3 41.9 312.7 41.4 C 312.7 41.4 313.1 41.9 313.1 41.9 C 312.6 42.4 311.9 42.7 311 42.7 C 309.4 42.7 308.3 41.6 308.3 40 C 308.3 38.5 309.4 37.4 310.8 37.4 C 312.3 37.4 313.4 38.5 313.4 40 C 313.4 40.1 313.4 40.2 313.4 40.3 Z M 309 39.7 C 309 39.7 312.7 39.7 312.7 39.7 C 312.6 38.7 311.9 38 310.8 38 C 309.8 38 309.1 38.7 309 39.7 Z M 315.5 42.2 C 315.5 42.3 315.4 42.5 315.3 42.8 C 315.31 42.76 314.9 44.1 314.9 44.1 L 314.4 44.1 C 314.4 44.1 314.75 42.69 314.8 42.7 C 314.5 42.6 314.4 42.4 314.4 42.2 C 314.4 41.9 314.6 41.6 314.9 41.6 C 315.2 41.6 315.5 41.9 315.5 42.2 Z M 323.6 39.4 C 323.55 39.42 323.6 42.7 323.6 42.7 L 322.9 42.7 C 322.9 42.7 322.87 41.86 322.9 41.9 C 322.6 42.4 321.9 42.7 321.1 42.7 C 319.9 42.7 319.1 42.1 319.1 41.2 C 319.1 40.4 319.7 39.7 321.2 39.7 C 321.17 39.71 322.8 39.7 322.8 39.7 C 322.8 39.7 322.84 39.39 322.8 39.4 C 322.8 38.5 322.3 38 321.4 38 C 320.7 38 320 38.2 319.6 38.6 C 319.6 38.6 319.3 38.1 319.3 38.1 C 319.8 37.6 320.6 37.4 321.4 37.4 C 322.8 37.4 323.6 38.1 323.6 39.4 Z M 322.8 41.1 C 322.84 41.1 322.8 40.2 322.8 40.2 C 322.8 40.2 321.19 40.24 321.2 40.2 C 320.2 40.2 319.8 40.6 319.8 41.2 C 319.8 41.8 320.3 42.2 321.2 42.2 C 322 42.2 322.6 41.8 322.8 41.1 Z M 333.4 40.1 C 333.4 41.7 332.3 42.7 330.8 42.7 C 330 42.7 329.3 42.4 328.8 41.7 C 328.81 41.69 328.8 44.6 328.8 44.6 L 328.1 44.6 L 328.1 37.4 L 328.8 37.4 C 328.8 37.4 328.78 38.46 328.8 38.5 C 329.2 37.8 329.9 37.4 330.8 37.4 C 332.3 37.4 333.4 38.5 333.4 40.1 Z M 332.7 40 C 332.7 38.8 331.9 38 330.8 38 C 329.6 38 328.8 38.8 328.8 40 C 328.8 41.3 329.6 42.1 330.8 42.1 C 331.9 42.1 332.7 41.3 332.7 40 Z M 334.7 35.8 C 334.7 35.5 334.9 35.3 335.2 35.3 C 335.5 35.3 335.7 35.5 335.7 35.7 C 335.7 36 335.5 36.3 335.2 36.3 C 334.9 36.3 334.7 36 334.7 35.8 Z M 334.9 37.4 L 335.6 37.4 L 335.6 42.7 L 334.9 42.7 L 334.9 37.4 Z M 337.4 35.3 L 338.1 35.3 L 338.1 42.7 L 337.4 42.7 L 337.4 35.3 Z M 340 35.3 L 340.7 35.3 L 340.7 42.7 L 340 42.7 L 340 35.3 Z M 346.6 39.4 C 346.56 39.42 346.6 42.7 346.6 42.7 L 345.9 42.7 C 345.9 42.7 345.88 41.86 345.9 41.9 C 345.6 42.4 344.9 42.7 344.1 42.7 C 342.9 42.7 342.1 42.1 342.1 41.2 C 342.1 40.4 342.7 39.7 344.2 39.7 C 344.18 39.71 345.8 39.7 345.8 39.7 C 345.8 39.7 345.85 39.39 345.8 39.4 C 345.8 38.5 345.3 38 344.4 38 C 343.7 38 343 38.2 342.6 38.6 C 342.6 38.6 342.3 38.1 342.3 38.1 C 342.8 37.6 343.6 37.4 344.4 37.4 C 345.8 37.4 346.6 38.1 346.6 39.4 Z M 345.8 41.1 C 345.85 41.1 345.8 40.2 345.8 40.2 C 345.8 40.2 344.2 40.24 344.2 40.2 C 343.2 40.2 342.8 40.6 342.8 41.2 C 342.8 41.8 343.3 42.2 344.2 42.2 C 345 42.2 345.6 41.8 345.8 41.1 Z M 351 37.4 C 351 37.4 351 38.1 351 38.1 C 351 38.1 350.9 38.1 350.9 38.1 C 349.8 38.1 349.1 38.8 349.1 40 C 349.08 40 349.1 42.7 349.1 42.7 L 348.4 42.7 L 348.4 37.4 L 349.1 37.4 C 349.1 37.4 349.05 38.45 349.1 38.4 C 349.4 37.7 350.1 37.4 351 37.4 Z M 359.8 35.3 L 359.8 42.7 L 359.1 42.7 C 359.1 42.7 359.12 41.64 359.1 41.6 C 358.7 42.3 358 42.7 357.1 42.7 C 355.6 42.7 354.5 41.6 354.5 40 C 354.5 38.5 355.6 37.4 357.1 37.4 C 357.9 37.4 358.7 37.7 359.1 38.4 C 359.09 38.42 359.1 35.3 359.1 35.3 L 359.8 35.3 Z M 359.1 40 C 359.1 38.8 358.3 38 357.2 38 C 356 38 355.2 38.8 355.2 40 C 355.2 41.3 356 42.1 357.2 42.1 C 358.3 42.1 359.1 41.3 359.1 40 Z M 364.3 37.4 C 364.3 37.4 364.3 38.1 364.3 38.1 C 364.2 38.1 364.2 38.1 364.1 38.1 C 363 38.1 362.4 38.8 362.4 40 C 362.37 40 362.4 42.7 362.4 42.7 L 361.7 42.7 L 361.7 37.4 L 362.3 37.4 C 362.3 37.4 362.34 38.45 362.3 38.4 C 362.7 37.7 363.3 37.4 364.3 37.4 Z M 365.4 35.8 C 365.4 35.5 365.6 35.3 365.9 35.3 C 366.2 35.3 366.4 35.5 366.4 35.7 C 366.4 36 366.2 36.3 365.9 36.3 C 365.6 36.3 365.4 36 365.4 35.8 Z M 365.5 37.4 L 366.2 37.4 L 366.2 42.7 L 365.5 42.7 L 365.5 37.4 Z M 368.1 35.3 L 368.8 35.3 L 368.8 42.7 L 368.1 42.7 L 368.1 35.3 Z M 370.6 35.3 L 371.4 35.3 L 371.4 42.7 L 370.6 42.7 L 370.6 35.3 Z M 384.6 39.6 C 384.63 39.63 384.6 42.7 384.6 42.7 L 383.9 42.7 C 383.9 42.7 383.92 39.7 383.9 39.7 C 383.9 38.6 383.4 38 382.4 38 C 381.3 38 380.7 38.7 380.7 39.9 C 380.65 39.92 380.7 42.7 380.7 42.7 L 379.9 42.7 C 379.9 42.7 379.94 39.7 379.9 39.7 C 379.9 38.6 379.4 38 378.4 38 C 377.4 38 376.7 38.7 376.7 39.9 C 376.66 39.92 376.7 42.7 376.7 42.7 L 376 42.7 L 376 37.4 L 376.6 37.4 C 376.6 37.4 376.63 38.38 376.6 38.4 C 377 37.7 377.7 37.4 378.6 37.4 C 379.4 37.4 380.1 37.7 380.4 38.5 C 380.8 37.8 381.6 37.4 382.5 37.4 C 383.8 37.4 384.6 38.1 384.6 39.6 Z M 390.5 39.4 C 390.46 39.42 390.5 42.7 390.5 42.7 L 389.8 42.7 C 389.8 42.7 389.78 41.86 389.8 41.9 C 389.5 42.4 388.8 42.7 388 42.7 C 386.8 42.7 386.1 42.1 386.1 41.2 C 386.1 40.4 386.6 39.7 388.1 39.7 C 388.08 39.71 389.8 39.7 389.8 39.7 C 389.8 39.7 389.75 39.39 389.8 39.4 C 389.8 38.5 389.2 38 388.3 38 C 387.6 38 386.9 38.2 386.5 38.6 C 386.5 38.6 386.2 38.1 386.2 38.1 C 386.7 37.6 387.5 37.4 388.3 37.4 C 389.7 37.4 390.5 38.1 390.5 39.4 Z M 389.8 41.1 C 389.75 41.1 389.8 40.2 389.8 40.2 C 389.8 40.2 388.1 40.24 388.1 40.2 C 387.1 40.2 386.8 40.6 386.8 41.2 C 386.8 41.8 387.2 42.2 388.1 42.2 C 388.9 42.2 389.5 41.8 389.8 41.1 Z M 394.2 40 L 393 41.2 L 393 42.7 L 392.3 42.7 L 392.3 35.3 L 393 35.3 L 393 40.3 L 396.1 37.4 L 397 37.4 L 394.8 39.6 L 397.2 42.7 L 396.3 42.7 L 394.2 40 Z M 398.1 35.8 C 398.1 35.5 398.4 35.3 398.7 35.3 C 398.9 35.3 399.2 35.5 399.2 35.7 C 399.2 36 399 36.3 398.7 36.3 C 398.4 36.3 398.1 36 398.1 35.8 Z M 398.3 37.4 L 399 37.4 L 399 42.7 L 398.3 42.7 L 398.3 37.4 Z M 405.7 39.6 C 405.69 39.63 405.7 42.7 405.7 42.7 L 405 42.7 C 405 42.7 404.98 39.7 405 39.7 C 405 38.6 404.4 38 403.4 38 C 402.3 38 401.6 38.7 401.6 39.9 C 401.56 39.92 401.6 42.7 401.6 42.7 L 400.9 42.7 L 400.9 37.4 L 401.5 37.4 C 401.5 37.4 401.53 38.39 401.5 38.4 C 401.9 37.7 402.6 37.4 403.5 37.4 C 404.8 37.4 405.7 38.1 405.7 39.6 Z M 412.5 37.4 C 412.5 37.4 412.46 42.04 412.5 42 C 412.5 43.9 411.6 44.7 409.8 44.7 C 408.9 44.7 407.9 44.4 407.4 43.9 C 407.4 43.9 407.7 43.3 407.7 43.3 C 408.2 43.8 409 44 409.8 44 C 411.1 44 411.7 43.4 411.7 42.1 C 411.7 42.1 411.7 41.5 411.7 41.5 C 411.3 42.1 410.6 42.5 409.7 42.5 C 408.2 42.5 407.1 41.4 407.1 39.9 C 407.1 38.4 408.2 37.4 409.7 37.4 C 410.6 37.4 411.3 37.7 411.8 38.4 C 411.78 38.43 411.8 37.4 411.8 37.4 L 412.5 37.4 Z M 411.8 39.9 C 411.8 38.8 410.9 38 409.8 38 C 408.6 38 407.8 38.8 407.8 39.9 C 407.8 41.1 408.6 41.9 409.8 41.9 C 410.9 41.9 411.8 41.1 411.8 39.9 Z M 421.9 39.6 C 421.91 39.63 421.9 42.7 421.9 42.7 L 421.2 42.7 C 421.2 42.7 421.2 39.7 421.2 39.7 C 421.2 38.6 420.6 38 419.6 38 C 418.5 38 417.8 38.7 417.8 39.9 C 417.78 39.92 417.8 42.7 417.8 42.7 L 417.1 42.7 L 417.1 35.3 L 417.8 35.3 C 417.8 35.3 417.78 38.34 417.8 38.3 C 418.2 37.7 418.9 37.4 419.7 37.4 C 421 37.4 421.9 38.1 421.9 39.6 Z M 423.3 40 C 423.3 38.5 424.4 37.4 426 37.4 C 427.5 37.4 428.6 38.5 428.6 40 C 428.6 41.6 427.5 42.7 426 42.7 C 424.4 42.7 423.3 41.6 423.3 40 Z M 427.9 40 C 427.9 38.8 427.1 38 426 38 C 424.8 38 424 38.8 424 40 C 424 41.3 424.8 42.1 426 42.1 C 427.1 42.1 427.9 41.3 427.9 40 Z M 430.1 35.3 L 430.8 35.3 L 430.8 42.7 L 430.1 42.7 L 430.1 35.3 Z M 437.3 40.3 C 437.3 40.3 432.9 40.3 432.9 40.3 C 433 41.4 433.8 42.1 435 42.1 C 435.6 42.1 436.2 41.9 436.6 41.4 C 436.6 41.4 437 41.9 437 41.9 C 436.5 42.4 435.8 42.7 435 42.7 C 433.3 42.7 432.2 41.6 432.2 40 C 432.2 38.5 433.3 37.4 434.8 37.4 C 436.3 37.4 437.3 38.5 437.3 40 C 437.3 40.1 437.3 40.2 437.3 40.3 Z M 432.9 39.7 C 432.9 39.7 436.7 39.7 436.7 39.7 C 436.6 38.7 435.8 38 434.8 38 C 433.8 38 433 38.7 432.9 39.7 Z M 438.1 42.1 C 438.1 42.1 438.4 41.5 438.4 41.5 C 438.9 41.9 439.6 42.1 440.3 42.1 C 441.3 42.1 441.7 41.8 441.7 41.3 C 441.7 39.9 438.3 41 438.3 38.9 C 438.3 38 439.1 37.4 440.4 37.4 C 441.1 37.4 441.8 37.6 442.3 37.9 C 442.3 37.9 441.9 38.4 441.9 38.4 C 441.5 38.1 440.9 38 440.4 38 C 439.4 38 439 38.4 439 38.9 C 439 40.3 442.4 39.2 442.4 41.2 C 442.4 42.1 441.6 42.7 440.3 42.7 C 439.4 42.7 438.6 42.4 438.1 42.1 Z M 446.2 35.8 C 446.2 35.5 446.4 35.3 446.7 35.3 C 447 35.3 447.2 35.5 447.2 35.7 C 447.2 36 447 36.3 446.7 36.3 C 446.4 36.3 446.2 36 446.2 35.8 Z M 446.4 37.4 L 447.1 37.4 L 447.1 42.7 L 446.4 42.7 L 446.4 37.4 Z M 453.8 39.6 C 453.75 39.63 453.8 42.7 453.8 42.7 L 453 42.7 C 453 42.7 453.05 39.7 453 39.7 C 453 38.6 452.5 38 451.5 38 C 450.3 38 449.6 38.7 449.6 39.9 C 449.62 39.92 449.6 42.7 449.6 42.7 L 448.9 42.7 L 448.9 37.4 L 449.6 37.4 C 449.6 37.4 449.59 38.39 449.6 38.4 C 450 37.7 450.7 37.4 451.6 37.4 C 452.9 37.4 453.8 38.1 453.8 39.6 Z M 457.6 42.1 C 457.6 42.1 457.9 41.5 457.9 41.5 C 458.3 41.9 459 42.1 459.8 42.1 C 460.8 42.1 461.2 41.8 461.2 41.3 C 461.2 39.9 457.8 41 457.8 38.9 C 457.8 38 458.5 37.4 459.8 37.4 C 460.5 37.4 461.3 37.6 461.7 37.9 C 461.7 37.9 461.4 38.4 461.4 38.4 C 460.9 38.1 460.4 38 459.8 38 C 458.9 38 458.5 38.4 458.5 38.9 C 458.5 40.3 461.9 39.2 461.9 41.2 C 461.9 42.1 461.1 42.7 459.7 42.7 C 458.8 42.7 458 42.4 457.6 42.1 Z M 468 39.6 C 468.04 39.63 468 42.7 468 42.7 L 467.3 42.7 C 467.3 42.7 467.33 39.7 467.3 39.7 C 467.3 38.6 466.7 38 465.7 38 C 464.6 38 463.9 38.7 463.9 39.9 C 463.91 39.92 463.9 42.7 463.9 42.7 L 463.2 42.7 L 463.2 35.3 L 463.9 35.3 C 463.9 35.3 463.91 38.34 463.9 38.3 C 464.3 37.7 465 37.4 465.9 37.4 C 467.2 37.4 468 38.1 468 39.6 Z M 474.5 40.3 C 474.5 40.3 470.1 40.3 470.1 40.3 C 470.2 41.4 471 42.1 472.2 42.1 C 472.8 42.1 473.4 41.9 473.8 41.4 C 473.8 41.4 474.2 41.9 474.2 41.9 C 473.7 42.4 473 42.7 472.2 42.7 C 470.5 42.7 469.4 41.6 469.4 40 C 469.4 38.5 470.5 37.4 472 37.4 C 473.5 37.4 474.5 38.5 474.5 40 C 474.5 40.1 474.5 40.2 474.5 40.3 Z M 470.1 39.7 C 470.1 39.7 473.9 39.7 473.9 39.7 C 473.8 38.7 473 38 472 38 C 471 38 470.2 38.7 470.1 39.7 Z M 480.7 40.3 C 480.7 40.3 476.3 40.3 476.3 40.3 C 476.3 41.4 477.2 42.1 478.3 42.1 C 479 42.1 479.5 41.9 479.9 41.4 C 479.9 41.4 480.3 41.9 480.3 41.9 C 479.9 42.4 479.1 42.7 478.3 42.7 C 476.7 42.7 475.5 41.6 475.5 40 C 475.5 38.5 476.6 37.4 478.1 37.4 C 479.6 37.4 480.7 38.5 480.7 40 C 480.7 40.1 480.7 40.2 480.7 40.3 Z M 476.3 39.7 C 476.3 39.7 480 39.7 480 39.7 C 479.9 38.7 479.1 38 478.1 38 C 477.1 38 476.3 38.7 476.3 39.7 Z M 484.8 42.4 C 484.5 42.6 484.1 42.7 483.7 42.7 C 482.7 42.7 482.1 42.2 482.1 41.2 C 482.15 41.2 482.1 38 482.1 38 L 481.2 38 L 481.2 37.4 L 482.1 37.4 L 482.1 36.3 L 482.9 36.3 L 482.9 37.4 L 484.5 37.4 L 484.5 38 L 482.9 38 C 482.9 38 482.85 41.16 482.9 41.2 C 482.9 41.8 483.2 42.1 483.8 42.1 C 484.1 42.1 484.3 42 484.5 41.9 C 484.5 41.9 484.8 42.4 484.8 42.4 Z " stroke="none" fill="#323132"/>
  </g>
  <g id="Polygon117894">
    <path d="M 8.3 15.7 L 8.3 10 L 6 10 L 6 8.7 L 12.1 8.7 L 12.1 10 L 9.9 10 L 9.9 15.7 L 8.3 15.7 Z M 16.2 10.2 C 16.7 10.2 17 10.3 17.4 10.5 C 17.7 10.6 18 10.9 18.2 11.3 C 18.4 11.6 18.5 12.1 18.5 12.6 C 18.45 12.6 18.5 15.7 18.5 15.7 L 16.9 15.7 C 16.9 15.7 16.89 12.84 16.9 12.8 C 16.9 12.4 16.8 12.1 16.6 11.9 C 16.4 11.7 16.2 11.6 15.8 11.6 C 15.6 11.6 15.3 11.6 15.1 11.7 C 14.9 11.8 14.8 12 14.7 12.2 C 14.6 12.4 14.5 12.7 14.5 13 C 14.51 13.02 14.5 15.7 14.5 15.7 L 13 15.7 L 13 8.3 L 14.5 8.3 L 14.5 11.8 C 14.5 11.8 14.16 11.34 14.2 11.3 C 14.4 11 14.6 10.7 15 10.5 C 15.4 10.3 15.8 10.2 16.2 10.2 Z M 22.5 15.8 C 21.9 15.8 21.4 15.6 20.9 15.4 C 20.5 15.2 20.1 14.8 19.9 14.4 C 19.6 14 19.5 13.5 19.5 13 C 19.5 12.4 19.6 12 19.9 11.6 C 20.1 11.1 20.4 10.8 20.9 10.6 C 21.3 10.3 21.8 10.2 22.3 10.2 C 22.9 10.2 23.3 10.3 23.8 10.6 C 24.2 10.8 24.5 11.1 24.8 11.5 C 25 11.9 25.1 12.4 25.1 13 C 25.1 13.1 25.1 13.1 25.1 13.2 C 25.1 13.3 25.1 13.4 25.1 13.4 C 25.12 13.43 20.7 13.4 20.7 13.4 L 20.7 12.5 L 24.3 12.5 C 24.3 12.5 23.7 12.79 23.7 12.8 C 23.7 12.5 23.6 12.3 23.5 12.1 C 23.4 11.9 23.3 11.7 23.1 11.6 C 22.9 11.5 22.6 11.4 22.4 11.4 C 22.1 11.4 21.9 11.5 21.7 11.6 C 21.4 11.7 21.3 11.9 21.2 12.1 C 21.1 12.3 21 12.5 21 12.8 C 21 12.8 21 13 21 13 C 21 13.3 21.1 13.6 21.2 13.8 C 21.3 14 21.5 14.2 21.8 14.3 C 22 14.5 22.3 14.5 22.6 14.5 C 22.9 14.5 23.1 14.5 23.3 14.4 C 23.6 14.3 23.8 14.2 23.9 14 C 23.9 14 24.8 14.9 24.8 14.9 C 24.5 15.2 24.2 15.4 23.8 15.5 C 23.5 15.7 23 15.8 22.5 15.8 Z M 31.6 15.8 C 31 15.8 30.5 15.6 30.1 15.4 C 29.6 15.2 29.3 14.8 29 14.4 C 28.7 14 28.6 13.5 28.6 13 C 28.6 12.4 28.7 12 29 11.6 C 29.3 11.1 29.6 10.8 30.1 10.6 C 30.5 10.3 31 10.2 31.6 10.2 C 32.2 10.2 32.7 10.3 33.1 10.6 C 33.5 10.8 33.8 11.1 34 11.6 C 34 11.6 32.8 12.2 32.8 12.2 C 32.7 12 32.5 11.8 32.3 11.7 C 32.1 11.6 31.9 11.5 31.6 11.5 C 31.3 11.5 31.1 11.6 30.9 11.7 C 30.7 11.8 30.5 12 30.4 12.2 C 30.3 12.4 30.2 12.7 30.2 13 C 30.2 13.3 30.3 13.6 30.4 13.8 C 30.5 14 30.7 14.2 30.9 14.3 C 31.1 14.4 31.3 14.5 31.6 14.5 C 31.9 14.5 32.1 14.4 32.3 14.3 C 32.5 14.2 32.7 14 32.8 13.7 C 32.8 13.7 34 14.4 34 14.4 C 33.8 14.8 33.5 15.2 33.1 15.4 C 32.7 15.6 32.2 15.8 31.6 15.8 Z M 37.5 15.8 C 36.9 15.8 36.4 15.6 36 15.4 C 35.5 15.2 35.2 14.8 34.9 14.4 C 34.7 14 34.5 13.5 34.5 13 C 34.5 12.4 34.7 12 34.9 11.6 C 35.2 11.1 35.5 10.8 36 10.6 C 36.4 10.3 36.9 10.2 37.5 10.2 C 38.1 10.2 38.6 10.3 39 10.6 C 39.5 10.8 39.8 11.1 40.1 11.5 C 40.3 12 40.5 12.4 40.5 13 C 40.5 13.5 40.3 14 40.1 14.4 C 39.8 14.8 39.5 15.2 39 15.4 C 38.6 15.6 38.1 15.8 37.5 15.8 Z M 37.5 14.5 C 37.8 14.5 38 14.4 38.2 14.3 C 38.4 14.2 38.6 14 38.7 13.8 C 38.8 13.6 38.9 13.3 38.9 13 C 38.9 12.7 38.8 12.4 38.7 12.2 C 38.6 12 38.4 11.8 38.2 11.7 C 38 11.6 37.8 11.5 37.5 11.5 C 37.2 11.5 37 11.6 36.8 11.7 C 36.6 11.8 36.4 12 36.3 12.2 C 36.2 12.4 36.1 12.7 36.1 13 C 36.1 13.3 36.2 13.6 36.3 13.8 C 36.4 14 36.6 14.2 36.8 14.3 C 37 14.4 37.2 14.5 37.5 14.5 Z M 44.8 10.2 C 45.2 10.2 45.6 10.3 45.9 10.5 C 46.3 10.6 46.5 10.9 46.7 11.3 C 46.9 11.6 47 12.1 47 12.6 C 47.03 12.6 47 15.7 47 15.7 L 45.5 15.7 C 45.5 15.7 45.47 12.84 45.5 12.8 C 45.5 12.4 45.4 12.1 45.2 11.9 C 45 11.7 44.7 11.6 44.4 11.6 C 44.1 11.6 43.9 11.6 43.7 11.7 C 43.5 11.8 43.4 12 43.3 12.2 C 43.1 12.4 43.1 12.7 43.1 13 C 43.09 13.02 43.1 15.7 43.1 15.7 L 41.5 15.7 L 41.5 10.3 L 43 10.3 L 43 11.8 C 43 11.8 42.74 11.34 42.7 11.3 C 42.9 11 43.2 10.7 43.6 10.5 C 43.9 10.3 44.3 10.2 44.8 10.2 Z M 50.6 15.8 C 50 15.8 49.5 15.6 49.1 15.3 C 48.8 15 48.6 14.5 48.6 13.8 C 48.6 13.83 48.6 9.1 48.6 9.1 L 50.2 9.1 C 50.2 9.1 50.16 13.81 50.2 13.8 C 50.2 14 50.2 14.2 50.3 14.3 C 50.5 14.5 50.6 14.5 50.8 14.5 C 51.1 14.5 51.3 14.5 51.5 14.3 C 51.5 14.3 51.9 15.4 51.9 15.4 C 51.7 15.5 51.5 15.6 51.3 15.7 C 51.1 15.7 50.9 15.8 50.6 15.8 Z M 47.8 11.6 L 47.8 10.4 L 51.5 10.4 L 51.5 11.6 L 47.8 11.6 Z M 52.8 15.7 L 52.8 10.3 L 54.3 10.3 L 54.3 11.8 C 54.3 11.8 54.06 11.38 54.1 11.4 C 54.2 11 54.5 10.7 54.8 10.5 C 55.2 10.3 55.6 10.2 56.1 10.2 C 56.1 10.2 56.1 11.7 56.1 11.7 C 56 11.7 56 11.6 55.9 11.6 C 55.9 11.6 55.8 11.6 55.8 11.6 C 55.3 11.6 55 11.8 54.7 12 C 54.5 12.2 54.3 12.6 54.3 13.1 C 54.34 13.14 54.3 15.7 54.3 15.7 L 52.8 15.7 Z M 59.6 15.8 C 59.1 15.8 58.6 15.6 58.1 15.4 C 57.7 15.2 57.3 14.8 57.1 14.4 C 56.8 14 56.7 13.5 56.7 13 C 56.7 12.4 56.8 12 57.1 11.6 C 57.3 11.1 57.7 10.8 58.1 10.6 C 58.6 10.3 59.1 10.2 59.6 10.2 C 60.2 10.2 60.7 10.3 61.2 10.6 C 61.6 10.8 62 11.1 62.2 11.5 C 62.5 12 62.6 12.4 62.6 13 C 62.6 13.5 62.5 14 62.2 14.4 C 62 14.8 61.6 15.2 61.2 15.4 C 60.7 15.6 60.2 15.8 59.6 15.8 Z M 59.6 14.5 C 59.9 14.5 60.1 14.4 60.3 14.3 C 60.5 14.2 60.7 14 60.8 13.8 C 60.9 13.6 61 13.3 61 13 C 61 12.7 60.9 12.4 60.8 12.2 C 60.7 12 60.5 11.8 60.3 11.7 C 60.1 11.6 59.9 11.5 59.6 11.5 C 59.4 11.5 59.1 11.6 58.9 11.7 C 58.7 11.8 58.6 12 58.4 12.2 C 58.3 12.4 58.3 12.7 58.3 13 C 58.3 13.3 58.3 13.6 58.4 13.8 C 58.6 14 58.7 14.2 58.9 14.3 C 59.1 14.4 59.4 14.5 59.6 14.5 Z M 63.7 15.7 L 63.7 8.3 L 65.2 8.3 L 65.2 15.7 L 63.7 15.7 Z M 66.7 15.7 L 66.7 8.3 L 68.2 8.3 L 68.2 15.7 L 66.7 15.7 Z M 72.4 15.8 C 71.8 15.8 71.2 15.6 70.8 15.4 C 70.3 15.2 70 14.8 69.7 14.4 C 69.4 14 69.3 13.5 69.3 13 C 69.3 12.4 69.4 12 69.7 11.6 C 69.9 11.1 70.3 10.8 70.7 10.6 C 71.2 10.3 71.6 10.2 72.2 10.2 C 72.7 10.2 73.2 10.3 73.6 10.6 C 74 10.8 74.4 11.1 74.6 11.5 C 74.9 11.9 75 12.4 75 13 C 75 13.1 75 13.1 75 13.2 C 75 13.3 75 13.4 75 13.4 C 74.96 13.43 70.6 13.4 70.6 13.4 L 70.6 12.5 L 74.1 12.5 C 74.1 12.5 73.54 12.79 73.5 12.8 C 73.5 12.5 73.5 12.3 73.4 12.1 C 73.3 11.9 73.1 11.7 72.9 11.6 C 72.7 11.5 72.5 11.4 72.2 11.4 C 71.9 11.4 71.7 11.5 71.5 11.6 C 71.3 11.7 71.1 11.9 71 12.1 C 70.9 12.3 70.9 12.5 70.9 12.8 C 70.9 12.8 70.9 13 70.9 13 C 70.9 13.3 70.9 13.6 71 13.8 C 71.2 14 71.4 14.2 71.6 14.3 C 71.8 14.5 72.1 14.5 72.4 14.5 C 72.7 14.5 73 14.5 73.2 14.4 C 73.4 14.3 73.6 14.2 73.8 14 C 73.8 14 74.6 14.9 74.6 14.9 C 74.4 15.2 74.1 15.4 73.7 15.5 C 73.3 15.7 72.9 15.8 72.4 15.8 Z M 78.4 15.8 C 77.9 15.8 77.5 15.6 77 15.4 C 76.6 15.2 76.3 14.9 76.1 14.4 C 75.8 14 75.7 13.5 75.7 13 C 75.7 12.4 75.8 11.9 76.1 11.5 C 76.3 11.1 76.6 10.8 77 10.6 C 77.5 10.3 77.9 10.2 78.4 10.2 C 78.9 10.2 79.3 10.3 79.6 10.5 C 79.9 10.7 80.2 11 80.4 11.4 C 80.6 11.8 80.7 12.4 80.7 13 C 80.7 13.6 80.6 14.1 80.4 14.5 C 80.2 15 80 15.3 79.6 15.5 C 79.3 15.7 78.9 15.8 78.4 15.8 Z M 78.7 14.5 C 78.9 14.5 79.2 14.4 79.4 14.3 C 79.6 14.2 79.7 14 79.9 13.8 C 80 13.6 80.1 13.3 80.1 13 C 80.1 12.7 80 12.4 79.9 12.2 C 79.7 12 79.6 11.8 79.4 11.7 C 79.2 11.6 78.9 11.5 78.7 11.5 C 78.4 11.5 78.2 11.6 78 11.7 C 77.8 11.8 77.6 12 77.5 12.2 C 77.4 12.4 77.3 12.7 77.3 13 C 77.3 13.3 77.4 13.6 77.5 13.8 C 77.6 14 77.8 14.2 78 14.3 C 78.2 14.4 78.4 14.5 78.7 14.5 Z M 80.1 15.7 L 80.1 14.6 L 80.1 13 L 80 11.4 L 80 8.3 L 81.6 8.3 L 81.6 15.7 L 80.1 15.7 Z M 89 15.8 C 88.6 15.8 88.2 15.7 87.8 15.5 C 87.5 15.3 87.2 15 87.1 14.5 C 86.9 14.1 86.8 13.6 86.8 13 C 86.8 12.4 86.9 11.8 87 11.4 C 87.2 11 87.5 10.7 87.8 10.5 C 88.2 10.3 88.6 10.2 89 10.2 C 89.5 10.2 90 10.3 90.4 10.6 C 90.8 10.8 91.1 11.1 91.4 11.5 C 91.6 11.9 91.7 12.4 91.7 13 C 91.7 13.6 91.6 14 91.4 14.5 C 91.1 14.9 90.8 15.2 90.4 15.4 C 90 15.6 89.5 15.8 89 15.8 Z M 85.9 17.6 L 85.9 10.3 L 87.3 10.3 L 87.3 11.4 L 87.3 13 L 87.4 14.6 L 87.4 17.6 L 85.9 17.6 Z M 88.8 14.5 C 89 14.5 89.3 14.4 89.5 14.3 C 89.7 14.2 89.8 14 90 13.8 C 90.1 13.6 90.1 13.3 90.1 13 C 90.1 12.7 90.1 12.4 90 12.2 C 89.8 12 89.7 11.8 89.5 11.7 C 89.3 11.6 89 11.5 88.8 11.5 C 88.5 11.5 88.3 11.6 88.1 11.7 C 87.9 11.8 87.7 12 87.6 12.2 C 87.5 12.4 87.4 12.7 87.4 13 C 87.4 13.3 87.5 13.6 87.6 13.8 C 87.7 14 87.9 14.2 88.1 14.3 C 88.3 14.4 88.5 14.5 88.8 14.5 Z M 92.8 15.7 L 92.8 10.3 L 94.3 10.3 L 94.3 11.8 C 94.3 11.8 94.09 11.38 94.1 11.4 C 94.2 11 94.5 10.7 94.9 10.5 C 95.2 10.3 95.6 10.2 96.1 10.2 C 96.1 10.2 96.1 11.7 96.1 11.7 C 96.1 11.7 96 11.6 96 11.6 C 95.9 11.6 95.9 11.6 95.8 11.6 C 95.4 11.6 95 11.8 94.8 12 C 94.5 12.2 94.4 12.6 94.4 13.1 C 94.37 13.14 94.4 15.7 94.4 15.7 L 92.8 15.7 Z M 99.7 15.8 C 99.1 15.8 98.6 15.6 98.1 15.4 C 97.7 15.2 97.3 14.8 97.1 14.4 C 96.8 14 96.7 13.5 96.7 13 C 96.7 12.4 96.8 12 97.1 11.6 C 97.3 11.1 97.7 10.8 98.1 10.6 C 98.6 10.3 99.1 10.2 99.7 10.2 C 100.2 10.2 100.7 10.3 101.2 10.6 C 101.6 10.8 102 11.1 102.2 11.5 C 102.5 12 102.6 12.4 102.6 13 C 102.6 13.5 102.5 14 102.2 14.4 C 102 14.8 101.6 15.2 101.2 15.4 C 100.7 15.6 100.2 15.8 99.7 15.8 Z M 99.7 14.5 C 99.9 14.5 100.2 14.4 100.4 14.3 C 100.6 14.2 100.7 14 100.9 13.8 C 101 13.6 101 13.3 101 13 C 101 12.7 101 12.4 100.9 12.2 C 100.7 12 100.6 11.8 100.4 11.7 C 100.2 11.6 99.9 11.5 99.7 11.5 C 99.4 11.5 99.2 11.6 99 11.7 C 98.8 11.8 98.6 12 98.5 12.2 C 98.3 12.4 98.3 12.7 98.3 13 C 98.3 13.3 98.3 13.6 98.5 13.8 C 98.6 14 98.8 14.2 99 14.3 C 99.2 14.4 99.4 14.5 99.7 14.5 Z M 106.3 15.8 C 105.8 15.8 105.2 15.6 104.8 15.4 C 104.3 15.2 104 14.8 103.7 14.4 C 103.5 14 103.3 13.5 103.3 13 C 103.3 12.4 103.5 12 103.7 11.6 C 104 11.1 104.3 10.8 104.8 10.6 C 105.2 10.3 105.8 10.2 106.3 10.2 C 106.9 10.2 107.4 10.3 107.8 10.6 C 108.2 10.8 108.5 11.1 108.7 11.6 C 108.7 11.6 107.5 12.2 107.5 12.2 C 107.4 12 107.2 11.8 107 11.7 C 106.8 11.6 106.6 11.5 106.3 11.5 C 106.1 11.5 105.8 11.6 105.6 11.7 C 105.4 11.8 105.2 12 105.1 12.2 C 105 12.4 104.9 12.7 104.9 13 C 104.9 13.3 105 13.6 105.1 13.8 C 105.2 14 105.4 14.2 105.6 14.3 C 105.8 14.4 106.1 14.5 106.3 14.5 C 106.6 14.5 106.8 14.4 107 14.3 C 107.2 14.2 107.4 14 107.5 13.7 C 107.5 13.7 108.7 14.4 108.7 14.4 C 108.5 14.8 108.2 15.2 107.8 15.4 C 107.4 15.6 106.9 15.8 106.3 15.8 Z M 112.3 15.8 C 111.7 15.8 111.2 15.6 110.7 15.4 C 110.3 15.2 109.9 14.8 109.6 14.4 C 109.4 14 109.3 13.5 109.3 13 C 109.3 12.4 109.4 12 109.6 11.6 C 109.9 11.1 110.2 10.8 110.7 10.6 C 111.1 10.3 111.6 10.2 112.1 10.2 C 112.7 10.2 113.1 10.3 113.6 10.6 C 114 10.8 114.3 11.1 114.6 11.5 C 114.8 11.9 114.9 12.4 114.9 13 C 114.9 13.1 114.9 13.1 114.9 13.2 C 114.9 13.3 114.9 13.4 114.9 13.4 C 114.91 13.43 110.5 13.4 110.5 13.4 L 110.5 12.5 L 114.1 12.5 C 114.1 12.5 113.49 12.79 113.5 12.8 C 113.5 12.5 113.4 12.3 113.3 12.1 C 113.2 11.9 113 11.7 112.8 11.6 C 112.6 11.5 112.4 11.4 112.1 11.4 C 111.9 11.4 111.6 11.5 111.4 11.6 C 111.2 11.7 111.1 11.9 111 12.1 C 110.9 12.3 110.8 12.5 110.8 12.8 C 110.8 12.8 110.8 13 110.8 13 C 110.8 13.3 110.9 13.6 111 13.8 C 111.1 14 111.3 14.2 111.5 14.3 C 111.8 14.5 112.1 14.5 112.4 14.5 C 112.7 14.5 112.9 14.5 113.1 14.4 C 113.4 14.3 113.5 14.2 113.7 14 C 113.7 14 114.6 14.9 114.6 14.9 C 114.3 15.2 114 15.4 113.6 15.5 C 113.3 15.7 112.8 15.8 112.3 15.8 Z M 117.9 15.8 C 117.4 15.8 117 15.7 116.6 15.6 C 116.1 15.5 115.8 15.3 115.5 15.2 C 115.5 15.2 116.1 14.1 116.1 14.1 C 116.3 14.2 116.6 14.3 116.9 14.4 C 117.3 14.5 117.6 14.6 117.9 14.6 C 118.3 14.6 118.6 14.5 118.7 14.4 C 118.9 14.4 118.9 14.2 118.9 14.1 C 118.9 14 118.9 13.9 118.8 13.8 C 118.6 13.7 118.5 13.7 118.3 13.7 C 118.1 13.6 117.9 13.6 117.7 13.6 C 117.4 13.5 117.2 13.5 117 13.4 C 116.7 13.4 116.5 13.3 116.3 13.2 C 116.1 13.1 116 12.9 115.9 12.7 C 115.7 12.5 115.7 12.3 115.7 12 C 115.7 11.6 115.8 11.3 116 11.1 C 116.2 10.8 116.5 10.6 116.8 10.4 C 117.2 10.3 117.6 10.2 118.2 10.2 C 118.5 10.2 118.9 10.3 119.3 10.3 C 119.7 10.4 120 10.5 120.2 10.7 C 120.2 10.7 119.7 11.8 119.7 11.8 C 119.5 11.6 119.2 11.5 118.9 11.5 C 118.7 11.4 118.4 11.4 118.2 11.4 C 117.8 11.4 117.6 11.4 117.4 11.5 C 117.2 11.6 117.2 11.8 117.2 11.9 C 117.2 12 117.2 12.1 117.3 12.2 C 117.5 12.3 117.6 12.3 117.8 12.4 C 118 12.4 118.2 12.4 118.4 12.5 C 118.7 12.5 118.9 12.5 119.1 12.6 C 119.4 12.7 119.6 12.7 119.8 12.9 C 120 13 120.1 13.1 120.2 13.3 C 120.4 13.5 120.4 13.7 120.4 14 C 120.4 14.4 120.3 14.7 120.1 14.9 C 119.9 15.2 119.6 15.4 119.3 15.5 C 118.9 15.7 118.4 15.8 117.9 15.8 Z M 123.3 15.8 C 122.9 15.8 122.4 15.7 122 15.6 C 121.6 15.5 121.2 15.3 121 15.2 C 121 15.2 121.5 14.1 121.5 14.1 C 121.8 14.2 122 14.3 122.4 14.4 C 122.7 14.5 123.1 14.6 123.4 14.6 C 123.7 14.6 124 14.5 124.1 14.4 C 124.3 14.4 124.4 14.2 124.4 14.1 C 124.4 14 124.3 13.9 124.2 13.8 C 124.1 13.7 123.9 13.7 123.7 13.7 C 123.5 13.6 123.3 13.6 123.1 13.6 C 122.9 13.5 122.6 13.5 122.4 13.4 C 122.2 13.4 122 13.3 121.8 13.2 C 121.6 13.1 121.4 12.9 121.3 12.7 C 121.2 12.5 121.1 12.3 121.1 12 C 121.1 11.6 121.2 11.3 121.4 11.1 C 121.6 10.8 121.9 10.6 122.3 10.4 C 122.6 10.3 123.1 10.2 123.6 10.2 C 124 10.2 124.3 10.3 124.7 10.3 C 125.1 10.4 125.4 10.5 125.7 10.7 C 125.7 10.7 125.2 11.8 125.2 11.8 C 124.9 11.6 124.6 11.5 124.4 11.5 C 124.1 11.4 123.9 11.4 123.6 11.4 C 123.3 11.4 123 11.4 122.8 11.5 C 122.7 11.6 122.6 11.8 122.6 11.9 C 122.6 12 122.7 12.1 122.8 12.2 C 122.9 12.3 123.1 12.3 123.2 12.4 C 123.4 12.4 123.7 12.4 123.9 12.5 C 124.1 12.5 124.3 12.5 124.6 12.6 C 124.8 12.7 125 12.7 125.2 12.9 C 125.4 13 125.6 13.1 125.7 13.3 C 125.8 13.5 125.9 13.7 125.9 14 C 125.9 14.4 125.8 14.7 125.6 14.9 C 125.4 15.2 125.1 15.4 124.7 15.5 C 124.3 15.7 123.9 15.8 123.3 15.8 Z " stroke="none" fill="#323132"/>
  </g>
</svg>