<?xml version="1.0" standalone="no"?>
<!DOCTYPE svg PUBLIC "-//W3C//DTD SVG 1.1//EN" "http://www.w3.org/Graphics/SVG/1.1/DTD/svg11.dtd">
<svg xmlns="http://www.w3.org/2000/svg" version="1.1" width="445.3px" height="74.5px" viewBox="0 0 445.3 74.5">
  <desc>“Human factors refer to environmental, organisational and job factors, and human and individual characteristics which...</desc>
  <defs/>
  <g id="Polygon115286">
    <path d="M 39.3 50.5 L 38.3 55.8 L 37.6 55.8 C 37.6 55.8 37.76 54.93 37.8 54.9 C 37.3 55.5 36.6 55.8 35.7 55.8 C 34.4 55.8 33.4 55 33.4 53.6 C 33.4 51.8 34.7 50.5 36.4 50.5 C 37.4 50.5 38.1 50.9 38.4 51.6 C 38.39 51.6 38.6 50.5 38.6 50.5 L 39.3 50.5 Z M 38.1 52.7 C 38.1 51.7 37.5 51.1 36.4 51.1 C 35.1 51.1 34.1 52.1 34.1 53.5 C 34.1 54.6 34.8 55.2 35.9 55.2 C 37.2 55.2 38.1 54.1 38.1 52.7 Z M 51.7 50.5 L 48.7 55.8 L 48 55.8 L 47.1 51.5 L 44.7 55.8 L 44 55.8 L 43 50.5 L 43.6 50.5 L 44.5 55 L 47 50.5 L 47.6 50.5 L 48.5 55 L 51 50.5 L 51.7 50.5 Z M 57.5 50.5 L 56.5 55.8 L 55.8 55.8 C 55.8 55.8 55.95 54.93 55.9 54.9 C 55.4 55.5 54.7 55.8 53.9 55.8 C 52.5 55.8 51.6 55 51.6 53.6 C 51.6 51.8 52.9 50.5 54.6 50.5 C 55.6 50.5 56.3 50.9 56.6 51.6 C 56.58 51.6 56.8 50.5 56.8 50.5 L 57.5 50.5 Z M 56.3 52.7 C 56.3 51.7 55.7 51.1 54.6 51.1 C 53.3 51.1 52.3 52.1 52.3 53.5 C 52.3 54.6 52.9 55.2 54 55.2 C 55.4 55.2 56.3 54.1 56.3 52.7 Z M 63.9 50.5 C 63.9 50.5 60.08 56.44 60.1 56.4 C 59.4 57.4 58.9 57.7 58.2 57.7 C 57.7 57.7 57.2 57.6 56.9 57.3 C 56.9 57.3 57.3 56.8 57.3 56.8 C 57.5 57 57.8 57.1 58.2 57.1 C 58.7 57.1 59 56.9 59.4 56.3 C 59.45 56.29 59.8 55.7 59.8 55.7 L 58.5 50.5 L 59.2 50.5 L 60.3 55 L 63.2 50.5 L 63.9 50.5 Z M 75.3 50.5 L 72.3 55.8 L 71.6 55.8 L 70.8 51.5 L 68.3 55.8 L 67.6 55.8 L 66.6 50.5 L 67.2 50.5 L 68.1 55 L 70.6 50.5 L 71.2 50.5 L 72.1 55 L 74.6 50.5 L 75.3 50.5 Z M 80.8 52.2 C 80.8 52.4 80.8 52.6 80.7 52.8 C 80.72 52.77 80.1 55.8 80.1 55.8 L 79.4 55.8 C 79.4 55.8 80.01 52.76 80 52.8 C 80 52.6 80.1 52.4 80.1 52.3 C 80.1 51.5 79.6 51.1 78.7 51.1 C 77.6 51.1 76.8 51.7 76.6 52.9 C 76.56 52.94 76 55.8 76 55.8 L 75.3 55.8 L 76.8 48.3 L 77.5 48.3 C 77.5 48.3 76.89 51.29 76.9 51.3 C 77.4 50.7 78.1 50.5 78.9 50.5 C 80.1 50.5 80.8 51.1 80.8 52.2 Z M 83.1 48.9 C 83.1 48.6 83.4 48.3 83.7 48.3 C 84 48.3 84.2 48.5 84.2 48.8 C 84.2 49.1 83.9 49.3 83.6 49.3 C 83.3 49.3 83.1 49.1 83.1 48.9 Z M 82.9 50.5 L 83.7 50.5 L 82.6 55.8 L 81.9 55.8 L 82.9 50.5 Z M 84.5 53.6 C 84.5 51.8 85.7 50.5 87.5 50.5 C 88.5 50.5 89.2 50.8 89.6 51.5 C 89.6 51.5 89 51.9 89 51.9 C 88.7 51.3 88.2 51.1 87.5 51.1 C 86.1 51.1 85.2 52.1 85.2 53.5 C 85.2 54.6 85.8 55.2 86.9 55.2 C 87.6 55.2 88.2 54.9 88.6 54.4 C 88.6 54.4 89.1 54.8 89.1 54.8 C 88.6 55.4 87.8 55.8 86.9 55.8 C 85.4 55.8 84.5 54.9 84.5 53.6 Z M 95.6 52.2 C 95.6 52.4 95.5 52.6 95.5 52.8 C 95.49 52.77 94.9 55.8 94.9 55.8 L 94.2 55.8 C 94.2 55.8 94.78 52.76 94.8 52.8 C 94.8 52.6 94.8 52.4 94.8 52.3 C 94.8 51.5 94.4 51.1 93.5 51.1 C 92.4 51.1 91.6 51.7 91.3 52.9 C 91.33 52.94 90.8 55.8 90.8 55.8 L 90.1 55.8 L 91.5 48.3 L 92.3 48.3 C 92.3 48.3 91.66 51.29 91.7 51.3 C 92.2 50.7 92.9 50.5 93.7 50.5 C 94.9 50.5 95.6 51.1 95.6 52.2 Z M 99.4 53.6 C 99.4 51.8 100.7 50.5 102.5 50.5 C 103.4 50.5 104.1 50.8 104.5 51.5 C 104.5 51.5 103.9 51.9 103.9 51.9 C 103.6 51.3 103.1 51.1 102.4 51.1 C 101.1 51.1 100.1 52.1 100.1 53.5 C 100.1 54.6 100.7 55.2 101.9 55.2 C 102.5 55.2 103.1 54.9 103.5 54.4 C 103.5 54.4 104 54.8 104 54.8 C 103.6 55.4 102.7 55.8 101.8 55.8 C 100.3 55.8 99.4 54.9 99.4 53.6 Z M 110.9 50.5 L 109.9 55.8 L 109.2 55.8 C 109.2 55.8 109.35 54.93 109.4 54.9 C 108.9 55.5 108.2 55.8 107.3 55.8 C 106 55.8 105 55 105 53.6 C 105 51.8 106.3 50.5 108 50.5 C 109 50.5 109.7 50.9 110 51.6 C 109.98 51.6 110.2 50.5 110.2 50.5 L 110.9 50.5 Z M 109.7 52.7 C 109.7 51.7 109.1 51.1 108 51.1 C 106.7 51.1 105.7 52.1 105.7 53.5 C 105.7 54.6 106.4 55.2 107.5 55.2 C 108.8 55.2 109.7 54.1 109.7 52.7 Z M 117.2 52.2 C 117.2 52.4 117.2 52.6 117.1 52.8 C 117.14 52.77 116.5 55.8 116.5 55.8 L 115.8 55.8 C 115.8 55.8 116.43 52.76 116.4 52.8 C 116.5 52.6 116.5 52.4 116.5 52.3 C 116.5 51.5 116 51.1 115.1 51.1 C 114 51.1 113.2 51.7 113 52.9 C 112.98 52.94 112.4 55.8 112.4 55.8 L 111.7 55.8 L 112.8 50.5 L 113.4 50.5 C 113.4 50.5 113.26 51.34 113.3 51.3 C 113.8 50.7 114.5 50.5 115.3 50.5 C 116.5 50.5 117.2 51.1 117.2 52.2 Z M 127 50.5 L 125.9 55.8 L 125.2 55.8 C 125.2 55.8 125.39 54.93 125.4 54.9 C 124.9 55.5 124.2 55.8 123.3 55.8 C 122 55.8 121.1 55 121.1 53.6 C 121.1 51.8 122.3 50.5 124 50.5 C 125 50.5 125.7 50.9 126 51.6 C 126.02 51.6 126.2 50.5 126.2 50.5 L 127 50.5 Z M 125.8 52.7 C 125.8 51.7 125.1 51.1 124 51.1 C 122.7 51.1 121.8 52.1 121.8 53.5 C 121.8 54.6 122.4 55.2 123.5 55.2 C 124.8 55.2 125.8 54.1 125.8 52.7 Z M 129.8 49.9 C 129.81 49.92 129.7 50.5 129.7 50.5 L 131.3 50.5 L 131.2 51.1 L 129.6 51.1 L 128.7 55.8 L 128 55.8 L 128.9 51.1 L 127.9 51.1 L 128.1 50.5 L 129 50.5 C 129 50.5 129.13 49.84 129.1 49.8 C 129.3 48.8 129.9 48.3 130.9 48.3 C 131.4 48.3 131.8 48.4 132 48.6 C 132 48.6 131.7 49.1 131.7 49.1 C 131.5 49 131.2 48.9 130.9 48.9 C 130.3 48.9 130 49.2 129.8 49.9 Z M 133.6 49.9 C 133.64 49.92 133.5 50.5 133.5 50.5 L 135.1 50.5 L 135 51.1 L 133.4 51.1 L 132.5 55.8 L 131.8 55.8 L 132.7 51.1 L 131.8 51.1 L 131.9 50.5 L 132.8 50.5 C 132.8 50.5 132.96 49.84 133 49.8 C 133.2 48.8 133.8 48.3 134.8 48.3 C 135.2 48.3 135.6 48.4 135.8 48.6 C 135.8 48.6 135.5 49.1 135.5 49.1 C 135.3 49 135.1 48.9 134.8 48.9 C 134.1 48.9 133.8 49.2 133.6 49.9 Z M 135.8 53.3 C 135.8 53.4 135.8 53.5 135.8 53.5 C 135.8 54.6 136.4 55.2 137.6 55.2 C 138.3 55.2 138.9 54.9 139.3 54.5 C 139.3 54.5 139.6 55 139.6 55 C 139.1 55.5 138.3 55.8 137.5 55.8 C 136 55.8 135.1 54.9 135.1 53.6 C 135.1 51.8 136.3 50.5 138 50.5 C 139.4 50.5 140.3 51.3 140.3 52.7 C 140.3 52.9 140.2 53.1 140.2 53.3 C 140.2 53.3 135.8 53.3 135.8 53.3 Z M 135.8 52.8 C 135.8 52.8 139.6 52.8 139.6 52.8 C 139.6 52.7 139.6 52.7 139.6 52.6 C 139.6 51.6 138.9 51.1 137.9 51.1 C 136.9 51.1 136.1 51.7 135.8 52.8 Z M 141.2 53.6 C 141.2 51.8 142.4 50.5 144.2 50.5 C 145.2 50.5 145.9 50.8 146.3 51.5 C 146.3 51.5 145.7 51.9 145.7 51.9 C 145.4 51.3 144.9 51.1 144.2 51.1 C 142.8 51.1 141.9 52.1 141.9 53.5 C 141.9 54.6 142.5 55.2 143.6 55.2 C 144.3 55.2 144.9 54.9 145.3 54.4 C 145.3 54.4 145.8 54.8 145.8 54.8 C 145.3 55.4 144.5 55.8 143.6 55.8 C 142.1 55.8 141.2 54.9 141.2 53.6 Z M 148.1 54.2 C 148.1 54.3 148 54.4 148 54.5 C 148 54.9 148.3 55.2 148.8 55.2 C 149.1 55.2 149.4 55.1 149.6 54.9 C 149.6 54.9 149.8 55.5 149.8 55.5 C 149.4 55.7 149 55.8 148.6 55.8 C 147.8 55.8 147.3 55.4 147.3 54.6 C 147.3 54.5 147.3 54.3 147.4 54.2 C 147.37 54.2 148 51.1 148 51.1 L 147 51.1 L 147.2 50.5 L 148.1 50.5 L 148.3 49.3 L 149 49.3 L 148.8 50.5 L 150.4 50.5 L 150.3 51.1 L 148.7 51.1 C 148.7 51.1 148.08 54.17 148.1 54.2 Z M 159.1 52.2 C 159.1 52.4 159.1 52.6 159 52.8 C 159.05 52.77 158.4 55.8 158.4 55.8 L 157.7 55.8 C 157.7 55.8 158.34 52.76 158.3 52.8 C 158.4 52.6 158.4 52.4 158.4 52.3 C 158.4 51.5 157.9 51.1 157 51.1 C 155.9 51.1 155.1 51.7 154.9 52.9 C 154.89 52.94 154.3 55.8 154.3 55.8 L 153.6 55.8 L 155.1 48.3 L 155.8 48.3 C 155.8 48.3 155.22 51.29 155.2 51.3 C 155.7 50.7 156.4 50.5 157.2 50.5 C 158.4 50.5 159.1 51.1 159.1 52.2 Z M 161 53.3 C 161 53.4 161 53.5 161 53.5 C 161 54.6 161.6 55.2 162.8 55.2 C 163.5 55.2 164.1 54.9 164.5 54.5 C 164.5 54.5 164.8 55 164.8 55 C 164.3 55.5 163.6 55.8 162.7 55.8 C 161.2 55.8 160.3 54.9 160.3 53.6 C 160.3 51.8 161.5 50.5 163.2 50.5 C 164.6 50.5 165.5 51.3 165.5 52.7 C 165.5 52.9 165.4 53.1 165.4 53.3 C 165.4 53.3 161 53.3 161 53.3 Z M 161.1 52.8 C 161.1 52.8 164.8 52.8 164.8 52.8 C 164.8 52.7 164.8 52.7 164.8 52.6 C 164.8 51.6 164.2 51.1 163.2 51.1 C 162.1 51.1 161.3 51.7 161.1 52.8 Z M 172.3 50.5 L 171.2 55.8 L 170.6 55.8 C 170.6 55.8 170.72 54.93 170.7 54.9 C 170.2 55.5 169.5 55.8 168.7 55.8 C 167.3 55.8 166.4 55 166.4 53.6 C 166.4 51.8 167.6 50.5 169.4 50.5 C 170.4 50.5 171.1 50.9 171.4 51.6 C 171.35 51.6 171.6 50.5 171.6 50.5 L 172.3 50.5 Z M 171.1 52.7 C 171.1 51.7 170.5 51.1 169.4 51.1 C 168.1 51.1 167.1 52.1 167.1 53.5 C 167.1 54.6 167.7 55.2 168.8 55.2 C 170.1 55.2 171.1 54.1 171.1 52.7 Z M 174.6 48.3 L 175.3 48.3 L 173.8 55.8 L 173.1 55.8 L 174.6 48.3 Z M 176.9 54.2 C 176.8 54.3 176.8 54.4 176.8 54.5 C 176.8 54.9 177.1 55.2 177.6 55.2 C 177.9 55.2 178.1 55.1 178.4 54.9 C 178.4 54.9 178.6 55.5 178.6 55.5 C 178.2 55.7 177.8 55.8 177.4 55.8 C 176.6 55.8 176.1 55.4 176.1 54.6 C 176.1 54.5 176.1 54.3 176.1 54.2 C 176.14 54.2 176.8 51.1 176.8 51.1 L 175.8 51.1 L 175.9 50.5 L 176.9 50.5 L 177.1 49.3 L 177.8 49.3 L 177.6 50.5 L 179.2 50.5 L 179.1 51.1 L 177.5 51.1 C 177.5 51.1 176.85 54.17 176.9 54.2 Z M 185.1 52.2 C 185.1 52.4 185.1 52.6 185.1 52.8 C 185.08 52.77 184.5 55.8 184.5 55.8 L 183.8 55.8 C 183.8 55.8 184.37 52.76 184.4 52.8 C 184.4 52.6 184.4 52.4 184.4 52.3 C 184.4 51.5 184 51.1 183.1 51.1 C 181.9 51.1 181.2 51.7 180.9 52.9 C 180.92 52.94 180.4 55.8 180.4 55.8 L 179.7 55.8 L 181.1 48.3 L 181.8 48.3 C 181.8 48.3 181.25 51.29 181.3 51.3 C 181.8 50.7 182.5 50.5 183.3 50.5 C 184.5 50.5 185.1 51.1 185.1 52.2 Z M 194.9 50.5 L 193.8 55.8 L 193.2 55.8 C 193.2 55.8 193.33 54.93 193.3 54.9 C 192.8 55.5 192.1 55.8 191.3 55.8 C 189.9 55.8 189 55 189 53.6 C 189 51.8 190.3 50.5 192 50.5 C 193 50.5 193.7 50.9 194 51.6 C 193.96 51.6 194.2 50.5 194.2 50.5 L 194.9 50.5 Z M 193.7 52.7 C 193.7 51.7 193.1 51.1 192 51.1 C 190.7 51.1 189.7 52.1 189.7 53.5 C 189.7 54.6 190.3 55.2 191.4 55.2 C 192.7 55.2 193.7 54.1 193.7 52.7 Z M 201.2 52.2 C 201.2 52.4 201.2 52.6 201.1 52.8 C 201.12 52.77 200.5 55.8 200.5 55.8 L 199.8 55.8 C 199.8 55.8 200.42 52.76 200.4 52.8 C 200.4 52.6 200.5 52.4 200.5 52.3 C 200.5 51.5 200 51.1 199.1 51.1 C 198 51.1 197.2 51.7 197 52.9 C 196.97 52.94 196.4 55.8 196.4 55.8 L 195.7 55.8 L 196.7 50.5 L 197.4 50.5 C 197.4 50.5 197.25 51.34 197.2 51.3 C 197.8 50.7 198.5 50.5 199.3 50.5 C 200.5 50.5 201.2 51.1 201.2 52.2 Z M 208.7 48.3 L 207.2 55.8 L 206.5 55.8 C 206.5 55.8 206.7 54.93 206.7 54.9 C 206.2 55.5 205.5 55.8 204.6 55.8 C 203.3 55.8 202.4 55 202.4 53.6 C 202.4 51.8 203.6 50.5 205.3 50.5 C 206.3 50.5 207 50.9 207.3 51.6 C 207.33 51.6 208 48.3 208 48.3 L 208.7 48.3 Z M 207.1 52.7 C 207.1 51.7 206.4 51.1 205.3 51.1 C 204 51.1 203.1 52.1 203.1 53.5 C 203.1 54.6 203.7 55.2 204.8 55.2 C 206.1 55.2 207.1 54.1 207.1 52.7 Z M 211.2 55.2 C 211.2 55.2 211.6 54.6 211.6 54.6 C 212 55 212.7 55.2 213.4 55.2 C 214.4 55.2 215 54.8 215 54.2 C 215 53.1 212 53.9 212 52.1 C 212 51.1 212.9 50.5 214.3 50.5 C 214.9 50.5 215.6 50.6 216 50.9 C 216 50.9 215.7 51.5 215.7 51.5 C 215.3 51.2 214.7 51.1 214.2 51.1 C 213.2 51.1 212.7 51.5 212.7 52 C 212.7 53.2 215.7 52.4 215.7 54.2 C 215.7 55.2 214.7 55.8 213.3 55.8 C 212.5 55.8 211.7 55.5 211.2 55.2 Z M 222.5 50.5 L 221.5 55.8 L 220.8 55.8 C 220.8 55.8 220.99 54.93 221 54.9 C 220.5 55.5 219.8 55.8 218.9 55.8 C 217.6 55.8 216.6 55 216.6 53.6 C 216.6 51.8 217.9 50.5 219.6 50.5 C 220.6 50.5 221.3 50.9 221.6 51.6 C 221.62 51.6 221.8 50.5 221.8 50.5 L 222.5 50.5 Z M 221.4 52.7 C 221.4 51.7 220.7 51.1 219.6 51.1 C 218.3 51.1 217.4 52.1 217.4 53.5 C 217.4 54.6 218 55.2 219.1 55.2 C 220.4 55.2 221.4 54.1 221.4 52.7 Z M 225.4 49.9 C 225.41 49.92 225.3 50.5 225.3 50.5 L 226.9 50.5 L 226.8 51.1 L 225.2 51.1 L 224.3 55.8 L 223.6 55.8 L 224.5 51.1 L 223.5 51.1 L 223.7 50.5 L 224.6 50.5 C 224.6 50.5 224.73 49.84 224.7 49.8 C 224.9 48.8 225.5 48.3 226.5 48.3 C 227 48.3 227.4 48.4 227.6 48.6 C 227.6 48.6 227.3 49.1 227.3 49.1 C 227.1 49 226.8 48.9 226.5 48.9 C 225.9 48.9 225.6 49.2 225.4 49.9 Z M 227.5 53.3 C 227.5 53.4 227.5 53.5 227.5 53.5 C 227.5 54.6 228.1 55.2 229.3 55.2 C 230 55.2 230.7 54.9 231.1 54.5 C 231.1 54.5 231.4 55 231.4 55 C 230.9 55.5 230.1 55.8 229.3 55.8 C 227.8 55.8 226.8 54.9 226.8 53.6 C 226.8 51.8 228.1 50.5 229.7 50.5 C 231.1 50.5 232 51.3 232 52.7 C 232 52.9 232 53.1 232 53.3 C 232 53.3 227.5 53.3 227.5 53.3 Z M 227.6 52.8 C 227.6 52.8 231.4 52.8 231.4 52.8 C 231.4 52.7 231.4 52.7 231.4 52.6 C 231.4 51.6 230.7 51.1 229.7 51.1 C 228.7 51.1 227.9 51.7 227.6 52.8 Z M 234 54.2 C 233.9 54.3 233.9 54.4 233.9 54.5 C 233.9 54.9 234.2 55.2 234.7 55.2 C 235 55.2 235.2 55.1 235.5 54.9 C 235.5 54.9 235.7 55.5 235.7 55.5 C 235.3 55.7 234.9 55.8 234.5 55.8 C 233.7 55.8 233.2 55.4 233.2 54.6 C 233.2 54.5 233.2 54.3 233.2 54.2 C 233.24 54.2 233.9 51.1 233.9 51.1 L 232.9 51.1 L 233 50.5 L 234 50.5 L 234.2 49.3 L 234.9 49.3 L 234.7 50.5 L 236.3 50.5 L 236.2 51.1 L 234.6 51.1 C 234.6 51.1 233.95 54.17 234 54.2 Z M 242.5 50.5 C 242.5 50.5 238.67 56.44 238.7 56.4 C 238 57.4 237.5 57.7 236.8 57.7 C 236.3 57.7 235.8 57.6 235.5 57.3 C 235.5 57.3 235.9 56.8 235.9 56.8 C 236.1 57 236.4 57.1 236.8 57.1 C 237.3 57.1 237.6 56.9 238 56.3 C 238.04 56.29 238.4 55.7 238.4 55.7 L 237.1 50.5 L 237.8 50.5 L 238.9 55 L 241.8 50.5 L 242.5 50.5 Z M 241.7 55.3 C 241.7 55 241.9 54.7 242.2 54.7 C 242.5 54.7 242.7 54.9 242.7 55.2 C 242.7 55.6 242.5 55.8 242.2 55.8 C 241.9 55.8 241.7 55.6 241.7 55.3 Z M 245.5 48.8 C 245.5 49 245.5 49.1 245.4 49.3 C 245.36 49.34 244.6 50.8 244.6 50.8 L 244.1 50.8 C 244.1 50.8 244.75 49.32 244.8 49.3 C 244.6 49.2 244.5 49.1 244.5 48.9 C 244.5 48.5 244.7 48.3 245 48.3 C 245.3 48.3 245.5 48.5 245.5 48.8 Z M 247.2 48.8 C 247.2 49 247.2 49.1 247.1 49.3 C 247.06 49.34 246.3 50.8 246.3 50.8 L 245.8 50.8 C 245.8 50.8 246.45 49.32 246.5 49.3 C 246.3 49.2 246.2 49.1 246.2 48.9 C 246.2 48.5 246.4 48.3 246.7 48.3 C 247 48.3 247.2 48.5 247.2 48.8 Z " stroke="none" fill="#000"/>
  </g>
  <g id="Polygon115285">
    <path d="M 39 37.2 C 39 37.4 38.9 37.6 38.9 37.8 C 38.9 37.77 38.3 40.8 38.3 40.8 L 37.6 40.8 C 37.6 40.8 38.19 37.76 38.2 37.8 C 38.2 37.6 38.2 37.4 38.2 37.3 C 38.2 36.5 37.8 36.1 36.9 36.1 C 35.8 36.1 35 36.7 34.7 37.9 C 34.74 37.94 34.2 40.8 34.2 40.8 L 33.5 40.8 L 35 33.3 L 35.7 33.3 C 35.7 33.3 35.07 36.29 35.1 36.3 C 35.6 35.7 36.3 35.5 37.1 35.5 C 38.3 35.5 39 36.1 39 37.2 Z M 45.8 35.5 L 44.8 40.8 L 44.1 40.8 C 44.1 40.8 44.25 39.92 44.3 39.9 C 43.7 40.5 43 40.8 42.2 40.8 C 41 40.8 40.4 40.2 40.4 39.1 C 40.4 38.9 40.4 38.7 40.4 38.5 C 40.41 38.5 41 35.5 41 35.5 L 41.7 35.5 C 41.7 35.5 41.12 38.5 41.1 38.5 C 41.1 38.7 41.1 38.8 41.1 39 C 41.1 39.7 41.5 40.2 42.4 40.2 C 43.5 40.2 44.3 39.5 44.5 38.3 C 44.54 38.33 45.1 35.5 45.1 35.5 L 45.8 35.5 Z M 56 37.1 C 56 37.3 55.9 37.5 55.9 37.8 C 55.89 37.77 55.3 40.8 55.3 40.8 L 54.6 40.8 C 54.6 40.8 55.18 37.76 55.2 37.8 C 55.2 37.6 55.2 37.4 55.2 37.3 C 55.2 36.5 54.8 36.1 53.9 36.1 C 52.9 36.1 52.1 36.7 51.9 37.9 C 51.89 37.86 51.3 40.8 51.3 40.8 L 50.6 40.8 C 50.6 40.8 51.2 37.76 51.2 37.8 C 51.2 37.6 51.2 37.4 51.2 37.3 C 51.2 36.5 50.8 36.1 49.9 36.1 C 48.9 36.1 48.1 36.7 47.9 37.9 C 47.89 37.94 47.3 40.8 47.3 40.8 L 46.6 40.8 L 47.7 35.5 L 48.3 35.5 C 48.3 35.5 48.17 36.34 48.2 36.3 C 48.7 35.7 49.4 35.5 50.2 35.5 C 51 35.5 51.6 35.8 51.9 36.5 C 52.4 35.8 53.2 35.5 54.1 35.5 C 55.3 35.5 56 36.1 56 37.1 Z M 63 35.5 L 62 40.8 L 61.3 40.8 C 61.3 40.8 61.47 39.93 61.5 39.9 C 61 40.5 60.3 40.8 59.4 40.8 C 58.1 40.8 57.1 40 57.1 38.6 C 57.1 36.8 58.4 35.5 60.1 35.5 C 61.1 35.5 61.8 35.9 62.1 36.6 C 62.1 36.6 62.3 35.5 62.3 35.5 L 63 35.5 Z M 61.9 37.7 C 61.9 36.7 61.2 36.1 60.1 36.1 C 58.8 36.1 57.8 37.1 57.8 38.5 C 57.8 39.6 58.5 40.2 59.6 40.2 C 60.9 40.2 61.9 39.1 61.9 37.7 Z M 69.3 37.2 C 69.3 37.4 69.3 37.6 69.3 37.8 C 69.27 37.77 68.7 40.8 68.7 40.8 L 68 40.8 C 68 40.8 68.56 37.76 68.6 37.8 C 68.6 37.6 68.6 37.4 68.6 37.3 C 68.6 36.5 68.2 36.1 67.2 36.1 C 66.1 36.1 65.4 36.7 65.1 37.9 C 65.11 37.94 64.5 40.8 64.5 40.8 L 63.8 40.8 L 64.9 35.5 L 65.6 35.5 C 65.6 35.5 65.39 36.34 65.4 36.3 C 65.9 35.7 66.6 35.5 67.4 35.5 C 68.6 35.5 69.3 36.1 69.3 37.2 Z M 79.1 35.5 L 78 40.8 L 77.3 40.8 C 77.3 40.8 77.51 39.93 77.5 39.9 C 77 40.5 76.3 40.8 75.5 40.8 C 74.1 40.8 73.2 40 73.2 38.6 C 73.2 36.8 74.4 35.5 76.1 35.5 C 77.1 35.5 77.8 35.9 78.1 36.6 C 78.14 36.6 78.4 35.5 78.4 35.5 L 79.1 35.5 Z M 77.9 37.7 C 77.9 36.7 77.3 36.1 76.2 36.1 C 74.9 36.1 73.9 37.1 73.9 38.5 C 73.9 39.6 74.5 40.2 75.6 40.2 C 76.9 40.2 77.9 39.1 77.9 37.7 Z M 85.4 37.2 C 85.4 37.4 85.3 37.6 85.3 37.8 C 85.31 37.77 84.7 40.8 84.7 40.8 L 84 40.8 C 84 40.8 84.6 37.76 84.6 37.8 C 84.6 37.6 84.6 37.4 84.6 37.3 C 84.6 36.5 84.2 36.1 83.3 36.1 C 82.2 36.1 81.4 36.7 81.1 37.9 C 81.15 37.94 80.6 40.8 80.6 40.8 L 79.9 40.8 L 80.9 35.5 L 81.6 35.5 C 81.6 35.5 81.43 36.34 81.4 36.3 C 81.9 35.7 82.7 35.5 83.5 35.5 C 84.7 35.5 85.4 36.1 85.4 37.2 Z M 92.9 33.3 L 91.4 40.8 L 90.7 40.8 C 90.7 40.8 90.88 39.93 90.9 39.9 C 90.4 40.5 89.7 40.8 88.8 40.8 C 87.5 40.8 86.5 40 86.5 38.6 C 86.5 36.8 87.8 35.5 89.5 35.5 C 90.5 35.5 91.2 35.9 91.5 36.6 C 91.51 36.6 92.2 33.3 92.2 33.3 L 92.9 33.3 Z M 91.3 37.7 C 91.3 36.7 90.6 36.1 89.5 36.1 C 88.2 36.1 87.2 37.1 87.2 38.5 C 87.2 39.6 87.9 40.2 89 40.2 C 90.3 40.2 91.3 39.1 91.3 37.7 Z M 97.2 33.9 C 97.2 33.6 97.4 33.3 97.8 33.3 C 98 33.3 98.2 33.5 98.2 33.8 C 98.2 34.1 98 34.3 97.7 34.3 C 97.4 34.3 97.2 34.1 97.2 33.9 Z M 97 35.5 L 97.7 35.5 L 96.7 40.8 L 96 40.8 L 97 35.5 Z M 104 37.2 C 104 37.4 104 37.6 104 37.8 C 103.97 37.77 103.4 40.8 103.4 40.8 L 102.7 40.8 C 102.7 40.8 103.26 37.76 103.3 37.8 C 103.3 37.6 103.3 37.4 103.3 37.3 C 103.3 36.5 102.9 36.1 101.9 36.1 C 100.8 36.1 100.1 36.7 99.8 37.9 C 99.81 37.94 99.2 40.8 99.2 40.8 L 98.5 40.8 L 99.6 35.5 L 100.3 35.5 C 100.3 35.5 100.09 36.34 100.1 36.3 C 100.6 35.7 101.3 35.5 102.1 35.5 C 103.3 35.5 104 36.1 104 37.2 Z M 111.5 33.3 L 110 40.8 L 109.4 40.8 C 109.4 40.8 109.54 39.93 109.5 39.9 C 109 40.5 108.3 40.8 107.5 40.8 C 106.1 40.8 105.2 40 105.2 38.6 C 105.2 36.8 106.5 35.5 108.2 35.5 C 109.2 35.5 109.9 35.9 110.2 36.6 C 110.17 36.6 110.8 33.3 110.8 33.3 L 111.5 33.3 Z M 109.9 37.7 C 109.9 36.7 109.3 36.1 108.2 36.1 C 106.9 36.1 105.9 37.1 105.9 38.5 C 105.9 39.6 106.5 40.2 107.6 40.2 C 108.9 40.2 109.9 39.1 109.9 37.7 Z M 113.1 33.9 C 113.1 33.6 113.4 33.3 113.7 33.3 C 114 33.3 114.2 33.5 114.2 33.8 C 114.2 34.1 113.9 34.3 113.6 34.3 C 113.3 34.3 113.1 34.1 113.1 33.9 Z M 112.9 35.5 L 113.7 35.5 L 112.6 40.8 L 111.9 40.8 L 112.9 35.5 Z M 120.1 35.5 L 116.7 40.8 L 115.9 40.8 L 114.6 35.5 L 115.4 35.5 L 116.4 40 L 119.3 35.5 L 120.1 35.5 Z M 121.3 33.9 C 121.3 33.6 121.5 33.3 121.8 33.3 C 122.1 33.3 122.3 33.5 122.3 33.8 C 122.3 34.1 122.1 34.3 121.7 34.3 C 121.5 34.3 121.3 34.1 121.3 33.9 Z M 121.1 35.5 L 121.8 35.5 L 120.7 40.8 L 120 40.8 L 121.1 35.5 Z M 128.9 33.3 L 127.4 40.8 L 126.8 40.8 C 126.8 40.8 126.93 39.93 126.9 39.9 C 126.4 40.5 125.7 40.8 124.9 40.8 C 123.5 40.8 122.6 40 122.6 38.6 C 122.6 36.8 123.9 35.5 125.6 35.5 C 126.6 35.5 127.3 35.9 127.6 36.6 C 127.56 36.6 128.2 33.3 128.2 33.3 L 128.9 33.3 Z M 127.3 37.7 C 127.3 36.7 126.7 36.1 125.6 36.1 C 124.3 36.1 123.3 37.1 123.3 38.5 C 123.3 39.6 123.9 40.2 125 40.2 C 126.3 40.2 127.3 39.1 127.3 37.7 Z M 135 35.5 L 134 40.8 L 133.3 40.8 C 133.3 40.8 133.47 39.92 133.5 39.9 C 133 40.5 132.3 40.8 131.4 40.8 C 130.3 40.8 129.6 40.2 129.6 39.1 C 129.6 38.9 129.6 38.7 129.6 38.5 C 129.63 38.5 130.2 35.5 130.2 35.5 L 130.9 35.5 C 130.9 35.5 130.34 38.5 130.3 38.5 C 130.3 38.7 130.3 38.8 130.3 39 C 130.3 39.7 130.7 40.2 131.6 40.2 C 132.7 40.2 133.5 39.5 133.8 38.3 C 133.76 38.33 134.3 35.5 134.3 35.5 L 135 35.5 Z M 141.8 35.5 L 140.7 40.8 L 140 40.8 C 140 40.8 140.21 39.93 140.2 39.9 C 139.7 40.5 139 40.8 138.2 40.8 C 136.8 40.8 135.9 40 135.9 38.6 C 135.9 36.8 137.1 35.5 138.8 35.5 C 139.8 35.5 140.5 35.9 140.8 36.6 C 140.84 36.6 141.1 35.5 141.1 35.5 L 141.8 35.5 Z M 140.6 37.7 C 140.6 36.7 140 36.1 138.9 36.1 C 137.6 36.1 136.6 37.1 136.6 38.5 C 136.6 39.6 137.2 40.2 138.3 40.2 C 139.6 40.2 140.6 39.1 140.6 37.7 Z M 144.1 33.3 L 144.8 33.3 L 143.3 40.8 L 142.6 40.8 L 144.1 33.3 Z M 147.8 38.6 C 147.8 36.8 149.1 35.5 150.9 35.5 C 151.9 35.5 152.6 35.8 153 36.5 C 153 36.5 152.4 36.9 152.4 36.9 C 152.1 36.3 151.6 36.1 150.8 36.1 C 149.5 36.1 148.5 37.1 148.5 38.5 C 148.5 39.6 149.2 40.2 150.3 40.2 C 151 40.2 151.6 39.9 152 39.4 C 152 39.4 152.5 39.8 152.5 39.8 C 152 40.4 151.2 40.8 150.3 40.8 C 148.8 40.8 147.8 39.9 147.8 38.6 Z M 158.9 37.2 C 158.9 37.4 158.9 37.6 158.9 37.8 C 158.86 37.77 158.3 40.8 158.3 40.8 L 157.6 40.8 C 157.6 40.8 158.15 37.76 158.2 37.8 C 158.2 37.6 158.2 37.4 158.2 37.3 C 158.2 36.5 157.8 36.1 156.8 36.1 C 155.7 36.1 155 36.7 154.7 37.9 C 154.7 37.94 154.1 40.8 154.1 40.8 L 153.4 40.8 L 154.9 33.3 L 155.6 33.3 C 155.6 33.3 155.03 36.29 155 36.3 C 155.5 35.7 156.2 35.5 157 35.5 C 158.2 35.5 158.9 36.1 158.9 37.2 Z M 166 35.5 L 164.9 40.8 L 164.3 40.8 C 164.3 40.8 164.44 39.93 164.4 39.9 C 163.9 40.5 163.2 40.8 162.4 40.8 C 161 40.8 160.1 40 160.1 38.6 C 160.1 36.8 161.4 35.5 163.1 35.5 C 164.1 35.5 164.8 35.9 165.1 36.6 C 165.07 36.6 165.3 35.5 165.3 35.5 L 166 35.5 Z M 164.8 37.7 C 164.8 36.7 164.2 36.1 163.1 36.1 C 161.8 36.1 160.8 37.1 160.8 38.5 C 160.8 39.6 161.4 40.2 162.5 40.2 C 163.8 40.2 164.8 39.1 164.8 37.7 Z M 170.5 35.5 C 170.5 35.5 170.4 36.1 170.4 36.1 C 170.3 36.1 170.2 36.1 170.2 36.1 C 169 36.1 168.3 36.8 168 38.1 C 168.04 38.09 167.5 40.8 167.5 40.8 L 166.8 40.8 L 167.8 35.5 L 168.5 35.5 C 168.5 35.5 168.34 36.46 168.3 36.5 C 168.8 35.8 169.5 35.5 170.5 35.5 Z M 176.5 35.5 L 175.5 40.8 L 174.8 40.8 C 174.8 40.8 174.96 39.93 175 39.9 C 174.5 40.5 173.8 40.8 172.9 40.8 C 171.6 40.8 170.6 40 170.6 38.6 C 170.6 36.8 171.9 35.5 173.6 35.5 C 174.6 35.5 175.3 35.9 175.6 36.6 C 175.59 36.6 175.8 35.5 175.8 35.5 L 176.5 35.5 Z M 175.3 37.7 C 175.3 36.7 174.7 36.1 173.6 36.1 C 172.3 36.1 171.3 37.1 171.3 38.5 C 171.3 39.6 172 40.2 173.1 40.2 C 174.4 40.2 175.3 39.1 175.3 37.7 Z M 177.4 38.6 C 177.4 36.8 178.6 35.5 180.4 35.5 C 181.4 35.5 182.1 35.8 182.5 36.5 C 182.5 36.5 181.9 36.9 181.9 36.9 C 181.6 36.3 181.1 36.1 180.4 36.1 C 179 36.1 178.1 37.1 178.1 38.5 C 178.1 39.6 178.7 40.2 179.8 40.2 C 180.5 40.2 181.1 39.9 181.5 39.4 C 181.5 39.4 182 39.8 182 39.8 C 181.5 40.4 180.7 40.8 179.8 40.8 C 178.3 40.8 177.4 39.9 177.4 38.6 Z M 184.3 39.2 C 184.3 39.3 184.2 39.4 184.2 39.5 C 184.2 39.9 184.5 40.2 185 40.2 C 185.3 40.2 185.6 40.1 185.8 39.9 C 185.8 39.9 186 40.5 186 40.5 C 185.6 40.7 185.2 40.8 184.8 40.8 C 184 40.8 183.5 40.4 183.5 39.6 C 183.5 39.5 183.5 39.3 183.6 39.2 C 183.56 39.2 184.2 36.1 184.2 36.1 L 183.2 36.1 L 183.4 35.5 L 184.3 35.5 L 184.5 34.3 L 185.2 34.3 L 185 35.5 L 186.6 35.5 L 186.5 36.1 L 184.9 36.1 C 184.9 36.1 184.27 39.17 184.3 39.2 Z M 187.6 38.3 C 187.6 38.4 187.6 38.5 187.6 38.5 C 187.6 39.6 188.2 40.2 189.4 40.2 C 190.1 40.2 190.7 39.9 191.1 39.5 C 191.1 39.5 191.4 40 191.4 40 C 190.9 40.5 190.1 40.8 189.3 40.8 C 187.8 40.8 186.9 39.9 186.9 38.6 C 186.9 36.8 188.1 35.5 189.8 35.5 C 191.2 35.5 192.1 36.3 192.1 37.7 C 192.1 37.9 192 38.1 192 38.3 C 192 38.3 187.6 38.3 187.6 38.3 Z M 187.7 37.8 C 187.7 37.8 191.4 37.8 191.4 37.8 C 191.4 37.7 191.4 37.7 191.4 37.6 C 191.4 36.6 190.7 36.1 189.8 36.1 C 188.7 36.1 187.9 36.7 187.7 37.8 Z M 196.6 35.5 C 196.6 35.5 196.5 36.1 196.5 36.1 C 196.4 36.1 196.4 36.1 196.3 36.1 C 195.2 36.1 194.4 36.8 194.2 38.1 C 194.15 38.09 193.6 40.8 193.6 40.8 L 192.9 40.8 L 194 35.5 L 194.6 35.5 C 194.6 35.5 194.45 36.46 194.5 36.5 C 194.9 35.8 195.6 35.5 196.6 35.5 Z M 198 33.9 C 198 33.6 198.2 33.3 198.5 33.3 C 198.8 33.3 199 33.5 199 33.8 C 199 34.1 198.8 34.3 198.5 34.3 C 198.2 34.3 198 34.1 198 33.9 Z M 197.8 35.5 L 198.5 35.5 L 197.5 40.8 L 196.8 40.8 L 197.8 35.5 Z M 198.9 40.2 C 198.9 40.2 199.3 39.6 199.3 39.6 C 199.7 40 200.3 40.2 201.1 40.2 C 202.1 40.2 202.6 39.8 202.6 39.2 C 202.6 38.1 199.7 38.9 199.7 37.1 C 199.7 36.1 200.5 35.5 201.9 35.5 C 202.6 35.5 203.3 35.6 203.7 35.9 C 203.7 35.9 203.4 36.5 203.4 36.5 C 203 36.2 202.4 36.1 201.9 36.1 C 200.9 36.1 200.3 36.5 200.3 37 C 200.3 38.2 203.3 37.4 203.3 39.2 C 203.3 40.2 202.4 40.8 201 40.8 C 200.1 40.8 199.3 40.5 198.9 40.2 Z M 205.6 39.2 C 205.6 39.3 205.6 39.4 205.6 39.5 C 205.6 39.9 205.8 40.2 206.3 40.2 C 206.6 40.2 206.9 40.1 207.1 39.9 C 207.1 39.9 207.3 40.5 207.3 40.5 C 207 40.7 206.5 40.8 206.1 40.8 C 205.4 40.8 204.9 40.4 204.9 39.6 C 204.9 39.5 204.9 39.3 204.9 39.2 C 204.91 39.2 205.5 36.1 205.5 36.1 L 204.6 36.1 L 204.7 35.5 L 205.6 35.5 L 205.9 34.3 L 206.6 34.3 L 206.3 35.5 L 207.9 35.5 L 207.8 36.1 L 206.2 36.1 C 206.2 36.1 205.62 39.17 205.6 39.2 Z M 209.6 33.9 C 209.6 33.6 209.9 33.3 210.2 33.3 C 210.5 33.3 210.7 33.5 210.7 33.8 C 210.7 34.1 210.4 34.3 210.1 34.3 C 209.8 34.3 209.6 34.1 209.6 33.9 Z M 209.5 35.5 L 210.2 35.5 L 209.1 40.8 L 208.4 40.8 L 209.5 35.5 Z M 211 38.6 C 211 36.8 212.2 35.5 214 35.5 C 215 35.5 215.7 35.8 216.1 36.5 C 216.1 36.5 215.5 36.9 215.5 36.9 C 215.2 36.3 214.7 36.1 214 36.1 C 212.7 36.1 211.7 37.1 211.7 38.5 C 211.7 39.6 212.3 40.2 213.4 40.2 C 214.1 40.2 214.7 39.9 215.1 39.4 C 215.1 39.4 215.6 39.8 215.6 39.8 C 215.1 40.4 214.3 40.8 213.4 40.8 C 211.9 40.8 211 39.9 211 38.6 Z M 216.3 40.2 C 216.3 40.2 216.6 39.6 216.6 39.6 C 217 40 217.7 40.2 218.5 40.2 C 219.5 40.2 220 39.8 220 39.2 C 220 38.1 217 38.9 217 37.1 C 217 36.1 217.9 35.5 219.3 35.5 C 220 35.5 220.7 35.6 221.1 35.9 C 221.1 35.9 220.8 36.5 220.8 36.5 C 220.4 36.2 219.8 36.1 219.3 36.1 C 218.3 36.1 217.7 36.5 217.7 37 C 217.7 38.2 220.7 37.4 220.7 39.2 C 220.7 40.2 219.8 40.8 218.4 40.8 C 217.5 40.8 216.7 40.5 216.3 40.2 Z M 233.2 35.5 L 230.2 40.8 L 229.5 40.8 L 228.6 36.5 L 226.2 40.8 L 225.5 40.8 L 224.5 35.5 L 225.1 35.5 L 226 40 L 228.5 35.5 L 229.1 35.5 L 230 40 L 232.5 35.5 L 233.2 35.5 Z M 238.7 37.2 C 238.7 37.4 238.6 37.6 238.6 37.8 C 238.6 37.77 238 40.8 238 40.8 L 237.3 40.8 C 237.3 40.8 237.89 37.76 237.9 37.8 C 237.9 37.6 237.9 37.4 237.9 37.3 C 237.9 36.5 237.5 36.1 236.6 36.1 C 235.5 36.1 234.7 36.7 234.4 37.9 C 234.44 37.94 233.9 40.8 233.9 40.8 L 233.2 40.8 L 234.7 33.3 L 235.4 33.3 C 235.4 33.3 234.77 36.29 234.8 36.3 C 235.3 35.7 236 35.5 236.8 35.5 C 238 35.5 238.7 36.1 238.7 37.2 Z M 241 33.9 C 241 33.6 241.2 33.3 241.6 33.3 C 241.8 33.3 242 33.5 242 33.8 C 242 34.1 241.8 34.3 241.5 34.3 C 241.2 34.3 241 34.1 241 33.9 Z M 240.8 35.5 L 241.5 35.5 L 240.5 40.8 L 239.8 40.8 L 240.8 35.5 Z M 242.3 38.6 C 242.3 36.8 243.6 35.5 245.4 35.5 C 246.4 35.5 247.1 35.8 247.5 36.5 C 247.5 36.5 246.9 36.9 246.9 36.9 C 246.6 36.3 246.1 36.1 245.3 36.1 C 244 36.1 243.1 37.1 243.1 38.5 C 243.1 39.6 243.7 40.2 244.8 40.2 C 245.5 40.2 246.1 39.9 246.5 39.4 C 246.5 39.4 247 39.8 247 39.8 C 246.5 40.4 245.7 40.8 244.8 40.8 C 243.3 40.8 242.3 39.9 242.3 38.6 Z M 253.4 37.2 C 253.4 37.4 253.4 37.6 253.4 37.8 C 253.37 37.77 252.8 40.8 252.8 40.8 L 252.1 40.8 C 252.1 40.8 252.67 37.76 252.7 37.8 C 252.7 37.6 252.7 37.4 252.7 37.3 C 252.7 36.5 252.3 36.1 251.4 36.1 C 250.2 36.1 249.5 36.7 249.2 37.9 C 249.22 37.94 248.7 40.8 248.7 40.8 L 247.9 40.8 L 249.4 33.3 L 250.1 33.3 C 250.1 33.3 249.55 36.29 249.5 36.3 C 250 35.7 250.7 35.5 251.6 35.5 C 252.7 35.5 253.4 36.1 253.4 37.2 Z M 258.6 33.9 C 258.6 33.6 258.8 33.3 259.1 33.3 C 259.4 33.3 259.6 33.5 259.6 33.8 C 259.6 34.1 259.4 34.3 259 34.3 C 258.8 34.3 258.6 34.1 258.6 33.9 Z M 258.4 35.5 L 259.1 35.5 L 258 40.8 L 257.3 40.8 L 258.4 35.5 Z M 265.4 37.2 C 265.4 37.4 265.4 37.6 265.3 37.8 C 265.31 37.77 264.7 40.8 264.7 40.8 L 264 40.8 C 264 40.8 264.6 37.76 264.6 37.8 C 264.6 37.6 264.7 37.4 264.7 37.3 C 264.7 36.5 264.2 36.1 263.3 36.1 C 262.2 36.1 261.4 36.7 261.2 37.9 C 261.15 37.94 260.6 40.8 260.6 40.8 L 259.9 40.8 L 260.9 35.5 L 261.6 35.5 C 261.6 35.5 261.43 36.34 261.4 36.3 C 261.9 35.7 262.7 35.5 263.5 35.5 C 264.7 35.5 265.4 36.1 265.4 37.2 Z M 269.9 36.1 L 268.3 36.1 L 267.4 40.8 L 266.7 40.8 L 267.6 36.1 L 266.6 36.1 L 266.8 35.5 L 267.7 35.5 C 267.7 35.5 267.84 34.84 267.8 34.8 C 268 33.8 268.6 33.3 269.6 33.3 C 270.1 33.3 270.5 33.4 270.7 33.6 C 270.7 33.6 270.4 34.1 270.4 34.1 C 270.2 34 269.9 33.9 269.6 33.9 C 269 33.9 268.7 34.2 268.5 34.9 C 268.52 34.92 268.4 35.5 268.4 35.5 L 270 35.5 L 269.9 36.1 Z M 272.1 33.3 L 270.6 40.8 L 269.9 40.8 L 271.4 33.3 L 272.1 33.3 Z M 278.2 35.5 L 277.2 40.8 L 276.5 40.8 C 276.5 40.8 276.69 39.92 276.7 39.9 C 276.2 40.5 275.5 40.8 274.7 40.8 C 273.5 40.8 272.8 40.2 272.8 39.1 C 272.8 38.9 272.8 38.7 272.8 38.5 C 272.85 38.5 273.4 35.5 273.4 35.5 L 274.2 35.5 C 274.2 35.5 273.56 38.5 273.6 38.5 C 273.5 38.7 273.5 38.8 273.5 39 C 273.5 39.7 273.9 40.2 274.8 40.2 C 276 40.2 276.7 39.5 277 38.3 C 276.98 38.33 277.5 35.5 277.5 35.5 L 278.2 35.5 Z M 279.8 38.3 C 279.8 38.4 279.8 38.5 279.8 38.5 C 279.8 39.6 280.4 40.2 281.6 40.2 C 282.3 40.2 282.9 39.9 283.3 39.5 C 283.3 39.5 283.6 40 283.6 40 C 283.1 40.5 282.4 40.8 281.5 40.8 C 280 40.8 279.1 39.9 279.1 38.6 C 279.1 36.8 280.3 35.5 282 35.5 C 283.4 35.5 284.3 36.3 284.3 37.7 C 284.3 37.9 284.3 38.1 284.2 38.3 C 284.2 38.3 279.8 38.3 279.8 38.3 Z M 279.9 37.8 C 279.9 37.8 283.6 37.8 283.6 37.8 C 283.6 37.7 283.6 37.7 283.6 37.6 C 283.6 36.6 283 36.1 282 36.1 C 280.9 36.1 280.1 36.7 279.9 37.8 Z M 290.6 37.2 C 290.6 37.4 290.6 37.6 290.6 37.8 C 290.55 37.77 290 40.8 290 40.8 L 289.2 40.8 C 289.2 40.8 289.84 37.76 289.8 37.8 C 289.9 37.6 289.9 37.4 289.9 37.3 C 289.9 36.5 289.4 36.1 288.5 36.1 C 287.4 36.1 286.6 36.7 286.4 37.9 C 286.39 37.94 285.8 40.8 285.8 40.8 L 285.1 40.8 L 286.2 35.5 L 286.8 35.5 C 286.8 35.5 286.67 36.34 286.7 36.3 C 287.2 35.7 287.9 35.5 288.7 35.5 C 289.9 35.5 290.6 36.1 290.6 37.2 Z M 291.8 38.6 C 291.8 36.8 293 35.5 294.8 35.5 C 295.8 35.5 296.5 35.8 296.9 36.5 C 296.9 36.5 296.3 36.9 296.3 36.9 C 296 36.3 295.5 36.1 294.8 36.1 C 293.4 36.1 292.5 37.1 292.5 38.5 C 292.5 39.6 293.1 40.2 294.2 40.2 C 294.9 40.2 295.5 39.9 295.9 39.4 C 295.9 39.4 296.4 39.8 296.4 39.8 C 295.9 40.4 295.1 40.8 294.2 40.8 C 292.7 40.8 291.8 39.9 291.8 38.6 Z M 298.1 38.3 C 298.1 38.4 298.1 38.5 298.1 38.5 C 298.1 39.6 298.7 40.2 299.9 40.2 C 300.6 40.2 301.2 39.9 301.6 39.5 C 301.6 39.5 301.9 40 301.9 40 C 301.4 40.5 300.6 40.8 299.8 40.8 C 298.3 40.8 297.4 39.9 297.4 38.6 C 297.4 36.8 298.6 35.5 300.3 35.5 C 301.7 35.5 302.6 36.3 302.6 37.7 C 302.6 37.9 302.5 38.1 302.5 38.3 C 302.5 38.3 298.1 38.3 298.1 38.3 Z M 298.1 37.8 C 298.1 37.8 301.9 37.8 301.9 37.8 C 301.9 37.7 301.9 37.7 301.9 37.6 C 301.9 36.6 301.2 36.1 300.3 36.1 C 299.2 36.1 298.4 36.7 298.1 37.8 Z M 312 37.7 C 312 39.5 310.7 40.8 309 40.8 C 308 40.8 307.3 40.4 307 39.6 C 306.99 39.61 306.8 40.8 306.8 40.8 L 306.1 40.8 L 307.6 33.3 L 308.3 33.3 C 308.3 33.3 307.68 36.29 307.7 36.3 C 308.2 35.8 308.9 35.5 309.7 35.5 C 311 35.5 312 36.3 312 37.7 Z M 311.3 37.7 C 311.3 36.7 310.6 36.1 309.5 36.1 C 308.2 36.1 307.3 37.1 307.3 38.5 C 307.3 39.6 307.9 40.2 309 40.2 C 310.3 40.2 311.3 39.1 311.3 37.7 Z M 313.6 38.3 C 313.6 38.4 313.6 38.5 313.6 38.5 C 313.6 39.6 314.2 40.2 315.4 40.2 C 316.1 40.2 316.8 39.9 317.2 39.5 C 317.2 39.5 317.5 40 317.5 40 C 317 40.5 316.2 40.8 315.4 40.8 C 313.9 40.8 312.9 39.9 312.9 38.6 C 312.9 36.8 314.2 35.5 315.8 35.5 C 317.2 35.5 318.1 36.3 318.1 37.7 C 318.1 37.9 318.1 38.1 318.1 38.3 C 318.1 38.3 313.6 38.3 313.6 38.3 Z M 313.7 37.8 C 313.7 37.8 317.5 37.8 317.5 37.8 C 317.5 37.7 317.5 37.7 317.5 37.6 C 317.5 36.6 316.8 36.1 315.8 36.1 C 314.8 36.1 314 36.7 313.7 37.8 Z M 324.4 37.2 C 324.4 37.4 324.4 37.6 324.4 37.8 C 324.39 37.77 323.8 40.8 323.8 40.8 L 323.1 40.8 C 323.1 40.8 323.68 37.76 323.7 37.8 C 323.7 37.6 323.7 37.4 323.7 37.3 C 323.7 36.5 323.3 36.1 322.4 36.1 C 321.2 36.1 320.5 36.7 320.2 37.9 C 320.23 37.94 319.7 40.8 319.7 40.8 L 319 40.8 L 320.4 33.3 L 321.1 33.3 C 321.1 33.3 320.56 36.29 320.6 36.3 C 321.1 35.7 321.8 35.5 322.6 35.5 C 323.8 35.5 324.4 36.1 324.4 37.2 Z M 331.5 35.5 L 330.5 40.8 L 329.8 40.8 C 329.8 40.8 329.96 39.93 330 39.9 C 329.5 40.5 328.8 40.8 327.9 40.8 C 326.6 40.8 325.6 40 325.6 38.6 C 325.6 36.8 326.9 35.5 328.6 35.5 C 329.6 35.5 330.3 35.9 330.6 36.6 C 330.59 36.6 330.8 35.5 330.8 35.5 L 331.5 35.5 Z M 330.3 37.7 C 330.3 36.7 329.7 36.1 328.6 36.1 C 327.3 36.1 326.3 37.1 326.3 38.5 C 326.3 39.6 327 40.2 328.1 40.2 C 329.4 40.2 330.3 39.1 330.3 37.7 Z M 337.9 35.5 L 334.6 40.8 L 333.8 40.8 L 332.5 35.5 L 333.2 35.5 L 334.3 40 L 337.2 35.5 L 337.9 35.5 Z M 339.1 33.9 C 339.1 33.6 339.4 33.3 339.7 33.3 C 340 33.3 340.2 33.5 340.2 33.8 C 340.2 34.1 339.9 34.3 339.6 34.3 C 339.3 34.3 339.1 34.1 339.1 33.9 Z M 338.9 35.5 L 339.7 35.5 L 338.6 40.8 L 337.9 40.8 L 338.9 35.5 Z M 340.5 38.6 C 340.5 36.8 341.7 35.5 343.5 35.5 C 345 35.5 345.9 36.3 345.9 37.7 C 345.9 39.5 344.6 40.8 342.9 40.8 C 341.4 40.8 340.5 39.9 340.5 38.6 Z M 345.2 37.7 C 345.2 36.7 344.6 36.1 343.5 36.1 C 342.1 36.1 341.2 37.1 341.2 38.5 C 341.2 39.6 341.8 40.2 342.9 40.2 C 344.2 40.2 345.2 39.1 345.2 37.7 Z M 352.5 35.5 L 351.5 40.8 L 350.8 40.8 C 350.8 40.8 350.96 39.92 351 39.9 C 350.5 40.5 349.7 40.8 348.9 40.8 C 347.8 40.8 347.1 40.2 347.1 39.1 C 347.1 38.9 347.1 38.7 347.1 38.5 C 347.12 38.5 347.7 35.5 347.7 35.5 L 348.4 35.5 C 348.4 35.5 347.83 38.5 347.8 38.5 C 347.8 38.7 347.8 38.8 347.8 39 C 347.8 39.7 348.2 40.2 349.1 40.2 C 350.2 40.2 351 39.5 351.3 38.3 C 351.25 38.33 351.8 35.5 351.8 35.5 L 352.5 35.5 Z M 357 35.5 C 357 35.5 356.9 36.1 356.9 36.1 C 356.8 36.1 356.8 36.1 356.7 36.1 C 355.6 36.1 354.8 36.8 354.6 38.1 C 354.57 38.09 354 40.8 354 40.8 L 353.3 40.8 L 354.4 35.5 L 355.1 35.5 C 355.1 35.5 354.87 36.46 354.9 36.5 C 355.3 35.8 356 35.5 357 35.5 Z M 365.8 35.5 L 364.8 40.8 L 364.1 40.8 C 364.1 40.8 364.25 39.93 364.2 39.9 C 363.7 40.5 363 40.8 362.2 40.8 C 360.8 40.8 359.9 40 359.9 38.6 C 359.9 36.8 361.2 35.5 362.9 35.5 C 363.9 35.5 364.6 35.9 364.9 36.6 C 364.88 36.6 365.1 35.5 365.1 35.5 L 365.8 35.5 Z M 364.6 37.7 C 364.6 36.7 364 36.1 362.9 36.1 C 361.6 36.1 360.6 37.1 360.6 38.5 C 360.6 39.6 361.2 40.2 362.3 40.2 C 363.7 40.2 364.6 39.1 364.6 37.7 Z M 367.8 39.2 C 367.8 39.3 367.8 39.4 367.8 39.5 C 367.8 39.9 368 40.2 368.6 40.2 C 368.8 40.2 369.1 40.1 369.4 39.9 C 369.4 39.9 369.5 40.5 369.5 40.5 C 369.2 40.7 368.8 40.8 368.4 40.8 C 367.6 40.8 367.1 40.4 367.1 39.6 C 367.1 39.5 367.1 39.3 367.1 39.2 C 367.12 39.2 367.7 36.1 367.7 36.1 L 366.8 36.1 L 366.9 35.5 L 367.9 35.5 L 368.1 34.3 L 368.8 34.3 L 368.6 35.5 L 370.2 35.5 L 370 36.1 L 368.4 36.1 C 368.4 36.1 367.83 39.17 367.8 39.2 Z M 382.2 35.5 L 379.2 40.8 L 378.5 40.8 L 377.6 36.5 L 375.2 40.8 L 374.5 40.8 L 373.5 35.5 L 374.1 35.5 L 375 40 L 377.5 35.5 L 378.1 35.5 L 379 40 L 381.5 35.5 L 382.2 35.5 Z M 382.1 38.6 C 382.1 36.8 383.4 35.5 385.1 35.5 C 386.6 35.5 387.5 36.3 387.5 37.7 C 387.5 39.5 386.3 40.8 384.5 40.8 C 383 40.8 382.1 39.9 382.1 38.6 Z M 386.8 37.7 C 386.8 36.7 386.2 36.1 385.1 36.1 C 383.8 36.1 382.8 37.1 382.8 38.5 C 382.8 39.6 383.4 40.2 384.5 40.2 C 385.9 40.2 386.8 39.1 386.8 37.7 Z M 392.1 35.5 C 392.1 35.5 391.9 36.1 391.9 36.1 C 391.9 36.1 391.8 36.1 391.7 36.1 C 390.6 36.1 389.9 36.8 389.6 38.1 C 389.61 38.09 389.1 40.8 389.1 40.8 L 388.4 40.8 L 389.4 35.5 L 390.1 35.5 C 390.1 35.5 389.91 36.46 389.9 36.5 C 390.4 35.8 391.1 35.5 392.1 35.5 Z M 395.3 37.7 L 397.2 40.8 L 396.3 40.8 L 394.7 38.1 L 393.2 39.2 L 392.9 40.8 L 392.2 40.8 L 393.7 33.3 L 394.4 33.3 L 393.4 38.3 L 397 35.5 L 398 35.5 L 395.3 37.7 Z M 402 33.9 C 402 33.6 402.2 33.3 402.5 33.3 C 402.8 33.3 403 33.5 403 33.8 C 403 34.1 402.8 34.3 402.4 34.3 C 402.2 34.3 402 34.1 402 33.9 Z M 401.8 35.5 L 402.5 35.5 L 401.5 40.8 L 400.7 40.8 L 401.8 35.5 Z M 408.8 37.2 C 408.8 37.4 408.8 37.6 408.7 37.8 C 408.72 37.77 408.1 40.8 408.1 40.8 L 407.4 40.8 C 407.4 40.8 408.01 37.76 408 37.8 C 408 37.6 408.1 37.4 408.1 37.3 C 408.1 36.5 407.6 36.1 406.7 36.1 C 405.6 36.1 404.8 36.7 404.6 37.9 C 404.56 37.94 404 40.8 404 40.8 L 403.3 40.8 L 404.3 35.5 L 405 35.5 C 405 35.5 404.84 36.34 404.8 36.3 C 405.3 35.7 406.1 35.5 406.9 35.5 C 408.1 35.5 408.8 36.1 408.8 37.2 Z " stroke="none" fill="#000"/>
  </g>
  <g id="Polygon115284">
    <path d="M 35.5 18.3 C 35.5 18.3 34.88 19.8 34.9 19.8 C 35 19.9 35.2 20.1 35.2 20.3 C 35.2 20.6 34.9 20.8 34.6 20.8 C 34.3 20.8 34.1 20.6 34.1 20.3 C 34.1 20.1 34.2 20 34.3 19.8 C 34.27 19.79 35 18.3 35 18.3 L 35.5 18.3 Z M 36.9 20.3 C 36.9 20.6 36.6 20.8 36.3 20.8 C 36 20.8 35.8 20.6 35.8 20.3 C 35.8 20.1 35.9 20 36 19.8 C 35.97 19.79 36.7 18.3 36.7 18.3 L 37.2 18.3 C 37.2 18.3 36.58 19.8 36.6 19.8 C 36.7 19.9 36.9 20.1 36.9 20.3 Z M 44.8 18.8 L 43.4 25.8 L 42.7 25.8 L 43.3 22.5 L 38.9 22.5 L 38.3 25.8 L 37.5 25.8 L 38.9 18.8 L 39.7 18.8 L 39.1 21.9 L 43.4 21.9 L 44.1 18.8 L 44.8 18.8 Z M 51.2 20.5 L 50.1 25.8 L 49.4 25.8 C 49.4 25.8 49.62 24.92 49.6 24.9 C 49.1 25.5 48.4 25.8 47.6 25.8 C 46.4 25.8 45.7 25.2 45.7 24.1 C 45.7 23.9 45.7 23.7 45.8 23.5 C 45.78 23.5 46.4 20.5 46.4 20.5 L 47.1 20.5 C 47.1 20.5 46.49 23.5 46.5 23.5 C 46.5 23.7 46.4 23.8 46.4 24 C 46.4 24.7 46.9 25.2 47.8 25.2 C 48.9 25.2 49.7 24.5 49.9 23.3 C 49.91 23.33 50.5 20.5 50.5 20.5 L 51.2 20.5 Z M 61.3 22.1 C 61.3 22.3 61.3 22.5 61.3 22.8 C 61.25 22.77 60.7 25.8 60.7 25.8 L 59.9 25.8 C 59.9 25.8 60.54 22.76 60.5 22.8 C 60.6 22.6 60.6 22.4 60.6 22.3 C 60.6 21.5 60.2 21.1 59.3 21.1 C 58.2 21.1 57.5 21.7 57.3 22.9 C 57.25 22.86 56.7 25.8 56.7 25.8 L 56 25.8 C 56 25.8 56.56 22.76 56.6 22.8 C 56.6 22.6 56.6 22.4 56.6 22.3 C 56.6 21.5 56.2 21.1 55.3 21.1 C 54.2 21.1 53.5 21.7 53.3 22.9 C 53.25 22.94 52.7 25.8 52.7 25.8 L 52 25.8 L 53 20.5 L 53.7 20.5 C 53.7 20.5 53.53 21.34 53.5 21.3 C 54 20.7 54.7 20.5 55.5 20.5 C 56.4 20.5 57 20.8 57.2 21.5 C 57.8 20.8 58.5 20.5 59.5 20.5 C 60.7 20.5 61.3 21.1 61.3 22.1 Z M 68.4 20.5 L 67.3 25.8 L 66.7 25.8 C 66.7 25.8 66.84 24.93 66.8 24.9 C 66.3 25.5 65.6 25.8 64.8 25.8 C 63.4 25.8 62.5 25 62.5 23.6 C 62.5 21.8 63.8 20.5 65.5 20.5 C 66.5 20.5 67.2 20.9 67.5 21.6 C 67.47 21.6 67.7 20.5 67.7 20.5 L 68.4 20.5 Z M 67.2 22.7 C 67.2 21.7 66.6 21.1 65.5 21.1 C 64.2 21.1 63.2 22.1 63.2 23.5 C 63.2 24.6 63.8 25.2 64.9 25.2 C 66.2 25.2 67.2 24.1 67.2 22.7 Z M 74.7 22.2 C 74.7 22.4 74.7 22.6 74.6 22.8 C 74.63 22.77 74 25.8 74 25.8 L 73.3 25.8 C 73.3 25.8 73.92 22.76 73.9 22.8 C 74 22.6 74 22.4 74 22.3 C 74 21.5 73.5 21.1 72.6 21.1 C 71.5 21.1 70.7 21.7 70.5 22.9 C 70.47 22.94 69.9 25.8 69.9 25.8 L 69.2 25.8 L 70.2 20.5 L 70.9 20.5 C 70.9 20.5 70.75 21.34 70.8 21.3 C 71.3 20.7 72 20.5 72.8 20.5 C 74 20.5 74.7 21.1 74.7 22.2 Z M 80.6 19.9 C 80.57 19.92 80.5 20.5 80.5 20.5 L 82.1 20.5 L 81.9 21.1 L 80.4 21.1 L 79.4 25.8 L 78.7 25.8 L 79.6 21.1 L 78.7 21.1 L 78.8 20.5 L 79.8 20.5 C 79.8 20.5 79.89 19.84 79.9 19.8 C 80.1 18.8 80.7 18.3 81.7 18.3 C 82.1 18.3 82.5 18.4 82.7 18.6 C 82.7 18.6 82.4 19.1 82.4 19.1 C 82.2 19 82 18.9 81.7 18.9 C 81.1 18.9 80.7 19.2 80.6 19.9 Z M 87.9 20.5 L 86.8 25.8 L 86.1 25.8 C 86.1 25.8 86.32 24.93 86.3 24.9 C 85.8 25.5 85.1 25.8 84.3 25.8 C 82.9 25.8 82 25 82 23.6 C 82 21.8 83.2 20.5 84.9 20.5 C 85.9 20.5 86.6 20.9 86.9 21.6 C 86.95 21.6 87.2 20.5 87.2 20.5 L 87.9 20.5 Z M 86.7 22.7 C 86.7 21.7 86.1 21.1 85 21.1 C 83.7 21.1 82.7 22.1 82.7 23.5 C 82.7 24.6 83.3 25.2 84.4 25.2 C 85.7 25.2 86.7 24.1 86.7 22.7 Z M 88.7 23.6 C 88.7 21.8 90 20.5 91.8 20.5 C 92.7 20.5 93.5 20.8 93.8 21.5 C 93.8 21.5 93.2 21.9 93.2 21.9 C 92.9 21.3 92.4 21.1 91.7 21.1 C 90.4 21.1 89.4 22.1 89.4 23.5 C 89.4 24.6 90.1 25.2 91.2 25.2 C 91.8 25.2 92.5 24.9 92.8 24.4 C 92.8 24.4 93.3 24.8 93.3 24.8 C 92.9 25.4 92 25.8 91.1 25.8 C 89.6 25.8 88.7 24.9 88.7 23.6 Z M 95.6 24.2 C 95.6 24.3 95.6 24.4 95.6 24.5 C 95.6 24.9 95.8 25.2 96.4 25.2 C 96.6 25.2 96.9 25.1 97.2 24.9 C 97.2 24.9 97.3 25.5 97.3 25.5 C 97 25.7 96.6 25.8 96.2 25.8 C 95.4 25.8 94.9 25.4 94.9 24.6 C 94.9 24.5 94.9 24.3 94.9 24.2 C 94.92 24.2 95.5 21.1 95.5 21.1 L 94.6 21.1 L 94.7 20.5 L 95.7 20.5 L 95.9 19.3 L 96.6 19.3 L 96.4 20.5 L 98 20.5 L 97.8 21.1 L 96.2 21.1 C 96.2 21.1 95.63 24.17 95.6 24.2 Z M 98.2 23.6 C 98.2 21.8 99.5 20.5 101.3 20.5 C 102.7 20.5 103.6 21.3 103.6 22.7 C 103.6 24.5 102.4 25.8 100.6 25.8 C 99.1 25.8 98.2 24.9 98.2 23.6 Z M 102.9 22.7 C 102.9 21.7 102.3 21.1 101.2 21.1 C 99.9 21.1 98.9 22.1 98.9 23.5 C 98.9 24.6 99.6 25.2 100.7 25.2 C 102 25.2 102.9 24.1 102.9 22.7 Z M 108.2 20.5 C 108.2 20.5 108.1 21.1 108.1 21.1 C 108 21.1 107.9 21.1 107.9 21.1 C 106.7 21.1 106 21.8 105.7 23.1 C 105.73 23.09 105.2 25.8 105.2 25.8 L 104.5 25.8 L 105.5 20.5 L 106.2 20.5 C 106.2 20.5 106.03 21.46 106 21.5 C 106.5 20.8 107.2 20.5 108.2 20.5 Z M 108 25.2 C 108 25.2 108.3 24.6 108.3 24.6 C 108.7 25 109.4 25.2 110.2 25.2 C 111.2 25.2 111.7 24.8 111.7 24.2 C 111.7 23.1 108.7 23.9 108.7 22.1 C 108.7 21.1 109.6 20.5 111 20.5 C 111.7 20.5 112.4 20.6 112.8 20.9 C 112.8 20.9 112.5 21.5 112.5 21.5 C 112.1 21.2 111.5 21.1 111 21.1 C 110 21.1 109.4 21.5 109.4 22 C 109.4 23.2 112.4 22.4 112.4 24.2 C 112.4 25.2 111.5 25.8 110.1 25.8 C 109.2 25.8 108.4 25.5 108 25.2 Z M 119.8 20.5 C 119.8 20.5 119.6 21.1 119.6 21.1 C 119.6 21.1 119.5 21.1 119.4 21.1 C 118.3 21.1 117.6 21.8 117.3 23.1 C 117.32 23.09 116.8 25.8 116.8 25.8 L 116.1 25.8 L 117.1 20.5 L 117.8 20.5 C 117.8 20.5 117.62 21.46 117.6 21.5 C 118.1 20.8 118.8 20.5 119.8 20.5 Z M 120.6 23.3 C 120.6 23.4 120.6 23.5 120.6 23.5 C 120.6 24.6 121.2 25.2 122.4 25.2 C 123.1 25.2 123.7 24.9 124.1 24.5 C 124.1 24.5 124.5 25 124.5 25 C 124 25.5 123.2 25.8 122.4 25.8 C 120.8 25.8 119.9 24.9 119.9 23.6 C 119.9 21.8 121.1 20.5 122.8 20.5 C 124.2 20.5 125.1 21.3 125.1 22.7 C 125.1 22.9 125.1 23.1 125 23.3 C 125 23.3 120.6 23.3 120.6 23.3 Z M 120.7 22.8 C 120.7 22.8 124.4 22.8 124.4 22.8 C 124.4 22.7 124.4 22.7 124.4 22.6 C 124.4 21.6 123.8 21.1 122.8 21.1 C 121.7 21.1 120.9 21.7 120.7 22.8 Z M 127.9 19.9 C 127.9 19.92 127.8 20.5 127.8 20.5 L 129.4 20.5 L 129.3 21.1 L 127.7 21.1 L 126.7 25.8 L 126 25.8 L 127 21.1 L 126 21.1 L 126.1 20.5 L 127.1 20.5 C 127.1 20.5 127.22 19.84 127.2 19.8 C 127.4 18.8 128 18.3 129 18.3 C 129.4 18.3 129.8 18.4 130.1 18.6 C 130.1 18.6 129.8 19.1 129.8 19.1 C 129.6 19 129.3 18.9 129 18.9 C 128.4 18.9 128 19.2 127.9 19.9 Z M 130 23.3 C 130 23.4 130 23.5 130 23.5 C 130 24.6 130.6 25.2 131.8 25.2 C 132.5 25.2 133.2 24.9 133.5 24.5 C 133.5 24.5 133.9 25 133.9 25 C 133.4 25.5 132.6 25.8 131.8 25.8 C 130.2 25.8 129.3 24.9 129.3 23.6 C 129.3 21.8 130.5 20.5 132.2 20.5 C 133.6 20.5 134.5 21.3 134.5 22.7 C 134.5 22.9 134.5 23.1 134.4 23.3 C 134.4 23.3 130 23.3 130 23.3 Z M 130.1 22.8 C 130.1 22.8 133.8 22.8 133.8 22.8 C 133.9 22.7 133.9 22.7 133.9 22.6 C 133.9 21.6 133.2 21.1 132.2 21.1 C 131.1 21.1 130.4 21.7 130.1 22.8 Z M 139.1 20.5 C 139.1 20.5 138.9 21.1 138.9 21.1 C 138.9 21.1 138.8 21.1 138.7 21.1 C 137.6 21.1 136.9 21.8 136.6 23.1 C 136.59 23.09 136.1 25.8 136.1 25.8 L 135.4 25.8 L 136.4 20.5 L 137.1 20.5 C 137.1 20.5 136.89 21.46 136.9 21.5 C 137.4 20.8 138.1 20.5 139.1 20.5 Z M 143.1 24.2 C 143.1 24.3 143.1 24.4 143.1 24.5 C 143.1 24.9 143.3 25.2 143.8 25.2 C 144.1 25.2 144.4 25.1 144.7 24.9 C 144.7 24.9 144.8 25.5 144.8 25.5 C 144.5 25.7 144.1 25.8 143.7 25.8 C 142.9 25.8 142.4 25.4 142.4 24.6 C 142.4 24.5 142.4 24.3 142.4 24.2 C 142.41 24.2 143 21.1 143 21.1 L 142.1 21.1 L 142.2 20.5 L 143.1 20.5 L 143.4 19.3 L 144.1 19.3 L 143.9 20.5 L 145.5 20.5 L 145.3 21.1 L 143.7 21.1 C 143.7 21.1 143.12 24.17 143.1 24.2 Z M 145.7 23.6 C 145.7 21.8 147 20.5 148.7 20.5 C 150.2 20.5 151.1 21.3 151.1 22.7 C 151.1 24.5 149.9 25.8 148.1 25.8 C 146.6 25.8 145.7 24.9 145.7 23.6 Z M 150.4 22.7 C 150.4 21.7 149.8 21.1 148.7 21.1 C 147.4 21.1 146.4 22.1 146.4 23.5 C 146.4 24.6 147 25.2 148.1 25.2 C 149.5 25.2 150.4 24.1 150.4 22.7 Z M 155.3 23.3 C 155.3 23.4 155.3 23.5 155.3 23.5 C 155.3 24.6 155.9 25.2 157.1 25.2 C 157.8 25.2 158.4 24.9 158.8 24.5 C 158.8 24.5 159.1 25 159.1 25 C 158.7 25.5 157.9 25.8 157 25.8 C 155.5 25.8 154.6 24.9 154.6 23.6 C 154.6 21.8 155.8 20.5 157.5 20.5 C 158.9 20.5 159.8 21.3 159.8 22.7 C 159.8 22.9 159.8 23.1 159.7 23.3 C 159.7 23.3 155.3 23.3 155.3 23.3 Z M 155.4 22.8 C 155.4 22.8 159.1 22.8 159.1 22.8 C 159.1 22.7 159.1 22.7 159.1 22.6 C 159.1 21.6 158.5 21.1 157.5 21.1 C 156.4 21.1 155.6 21.7 155.4 22.8 Z M 166.1 22.2 C 166.1 22.4 166.1 22.6 166.1 22.8 C 166.06 22.77 165.5 25.8 165.5 25.8 L 164.8 25.8 C 164.8 25.8 165.35 22.76 165.4 22.8 C 165.4 22.6 165.4 22.4 165.4 22.3 C 165.4 21.5 165 21.1 164 21.1 C 162.9 21.1 162.2 21.7 161.9 22.9 C 161.9 22.94 161.3 25.8 161.3 25.8 L 160.6 25.8 L 161.7 20.5 L 162.4 20.5 C 162.4 20.5 162.18 21.34 162.2 21.3 C 162.7 20.7 163.4 20.5 164.2 20.5 C 165.4 20.5 166.1 21.1 166.1 22.2 Z M 172.6 20.5 L 169.3 25.8 L 168.5 25.8 L 167.2 20.5 L 167.9 20.5 L 169 25 L 171.9 20.5 L 172.6 20.5 Z M 173.8 18.9 C 173.8 18.6 174.1 18.3 174.4 18.3 C 174.7 18.3 174.9 18.5 174.9 18.8 C 174.9 19.1 174.6 19.3 174.3 19.3 C 174 19.3 173.8 19.1 173.8 18.9 Z M 173.7 20.5 L 174.4 20.5 L 173.3 25.8 L 172.6 25.8 L 173.7 20.5 Z M 178.9 20.5 C 178.9 20.5 178.7 21.1 178.7 21.1 C 178.7 21.1 178.6 21.1 178.5 21.1 C 177.4 21.1 176.7 21.8 176.4 23.1 C 176.4 23.09 175.9 25.8 175.9 25.8 L 175.2 25.8 L 176.2 20.5 L 176.9 20.5 C 176.9 20.5 176.7 21.46 176.7 21.5 C 177.2 20.8 177.9 20.5 178.9 20.5 Z M 179 23.6 C 179 21.8 180.2 20.5 182 20.5 C 183.5 20.5 184.4 21.3 184.4 22.7 C 184.4 24.5 183.1 25.8 181.4 25.8 C 179.9 25.8 179 24.9 179 23.6 Z M 183.7 22.7 C 183.7 21.7 183.1 21.1 182 21.1 C 180.6 21.1 179.7 22.1 179.7 23.5 C 179.7 24.6 180.3 25.2 181.4 25.2 C 182.7 25.2 183.7 24.1 183.7 22.7 Z M 190.7 22.2 C 190.7 22.4 190.7 22.6 190.7 22.8 C 190.67 22.77 190.1 25.8 190.1 25.8 L 189.4 25.8 C 189.4 25.8 189.96 22.76 190 22.8 C 190 22.6 190 22.4 190 22.3 C 190 21.5 189.6 21.1 188.6 21.1 C 187.5 21.1 186.8 21.7 186.5 22.9 C 186.51 22.94 185.9 25.8 185.9 25.8 L 185.2 25.8 L 186.3 20.5 L 187 20.5 C 187 20.5 186.79 21.34 186.8 21.3 C 187.3 20.7 188 20.5 188.8 20.5 C 190 20.5 190.7 21.1 190.7 22.2 Z M 201.2 22.1 C 201.2 22.3 201.2 22.5 201.1 22.8 C 201.12 22.77 200.5 25.8 200.5 25.8 L 199.8 25.8 C 199.8 25.8 200.41 22.76 200.4 22.8 C 200.5 22.6 200.5 22.4 200.5 22.3 C 200.5 21.5 200 21.1 199.2 21.1 C 198.1 21.1 197.4 21.7 197.1 22.9 C 197.12 22.86 196.5 25.8 196.5 25.8 L 195.8 25.8 C 195.8 25.8 196.43 22.76 196.4 22.8 C 196.5 22.6 196.5 22.4 196.5 22.3 C 196.5 21.5 196.1 21.1 195.2 21.1 C 194.1 21.1 193.4 21.7 193.1 22.9 C 193.12 22.94 192.6 25.8 192.6 25.8 L 191.9 25.8 L 192.9 20.5 L 193.6 20.5 C 193.6 20.5 193.4 21.34 193.4 21.3 C 193.9 20.7 194.6 20.5 195.4 20.5 C 196.3 20.5 196.9 20.8 197.1 21.5 C 197.6 20.8 198.4 20.5 199.3 20.5 C 200.5 20.5 201.2 21.1 201.2 22.1 Z M 203.1 23.3 C 203.1 23.4 203.1 23.5 203.1 23.5 C 203.1 24.6 203.7 25.2 204.9 25.2 C 205.6 25.2 206.2 24.9 206.6 24.5 C 206.6 24.5 206.9 25 206.9 25 C 206.4 25.5 205.6 25.8 204.8 25.8 C 203.3 25.8 202.4 24.9 202.4 23.6 C 202.4 21.8 203.6 20.5 205.3 20.5 C 206.7 20.5 207.6 21.3 207.6 22.7 C 207.6 22.9 207.5 23.1 207.5 23.3 C 207.5 23.3 203.1 23.3 203.1 23.3 Z M 203.2 22.8 C 203.2 22.8 206.9 22.8 206.9 22.8 C 206.9 22.7 206.9 22.7 206.9 22.6 C 206.9 21.6 206.2 21.1 205.3 21.1 C 204.2 21.1 203.4 21.7 203.2 22.8 Z M 213.9 22.2 C 213.9 22.4 213.9 22.6 213.8 22.8 C 213.84 22.77 213.2 25.8 213.2 25.8 L 212.5 25.8 C 212.5 25.8 213.13 22.76 213.1 22.8 C 213.2 22.6 213.2 22.4 213.2 22.3 C 213.2 21.5 212.7 21.1 211.8 21.1 C 210.7 21.1 209.9 21.7 209.7 22.9 C 209.68 22.94 209.1 25.8 209.1 25.8 L 208.4 25.8 L 209.4 20.5 L 210.1 20.5 C 210.1 20.5 209.96 21.34 210 21.3 C 210.5 20.7 211.2 20.5 212 20.5 C 213.2 20.5 213.9 21.1 213.9 22.2 Z M 216.1 24.2 C 216.1 24.3 216.1 24.4 216.1 24.5 C 216.1 24.9 216.3 25.2 216.8 25.2 C 217.1 25.2 217.4 25.1 217.6 24.9 C 217.6 24.9 217.8 25.5 217.8 25.5 C 217.5 25.7 217 25.8 216.6 25.8 C 215.8 25.8 215.4 25.4 215.4 24.6 C 215.4 24.5 215.4 24.3 215.4 24.2 C 215.4 24.2 216 21.1 216 21.1 L 215.1 21.1 L 215.2 20.5 L 216.1 20.5 L 216.4 19.3 L 217.1 19.3 L 216.8 20.5 L 218.4 20.5 L 218.3 21.1 L 216.7 21.1 C 216.7 21.1 216.11 24.17 216.1 24.2 Z M 224.6 20.5 L 223.6 25.8 L 222.9 25.8 C 222.9 25.8 223.04 24.93 223 24.9 C 222.5 25.5 221.8 25.8 221 25.8 C 219.6 25.8 218.7 25 218.7 23.6 C 218.7 21.8 220 20.5 221.7 20.5 C 222.7 20.5 223.4 20.9 223.7 21.6 C 223.67 21.6 223.9 20.5 223.9 20.5 L 224.6 20.5 Z M 223.4 22.7 C 223.4 21.7 222.8 21.1 221.7 21.1 C 220.4 21.1 219.4 22.1 219.4 23.5 C 219.4 24.6 220 25.2 221.1 25.2 C 222.5 25.2 223.4 24.1 223.4 22.7 Z M 226.9 18.3 L 227.6 18.3 L 226.1 25.8 L 225.4 25.8 L 226.9 18.3 Z M 228.8 25.2 C 228.8 25.4 228.8 25.5 228.6 25.8 C 228.65 25.77 227.9 27.2 227.9 27.2 L 227.4 27.2 C 227.4 27.2 228.05 25.75 228 25.7 C 227.9 25.7 227.8 25.5 227.8 25.3 C 227.8 25 228 24.7 228.3 24.7 C 228.6 24.7 228.8 24.9 228.8 25.2 Z M 232.8 23.6 C 232.8 21.8 234.1 20.5 235.9 20.5 C 237.3 20.5 238.3 21.3 238.3 22.7 C 238.3 24.5 237 25.8 235.2 25.8 C 233.8 25.8 232.8 24.9 232.8 23.6 Z M 237.5 22.7 C 237.5 21.7 236.9 21.1 235.8 21.1 C 234.5 21.1 233.5 22.1 233.5 23.5 C 233.5 24.6 234.2 25.2 235.3 25.2 C 236.6 25.2 237.5 24.1 237.5 22.7 Z M 242.8 20.5 C 242.8 20.5 242.7 21.1 242.7 21.1 C 242.6 21.1 242.5 21.1 242.5 21.1 C 241.3 21.1 240.6 21.8 240.3 23.1 C 240.34 23.09 239.8 25.8 239.8 25.8 L 239.1 25.8 L 240.1 20.5 L 240.8 20.5 C 240.8 20.5 240.64 21.46 240.6 21.5 C 241.1 20.8 241.8 20.5 242.8 20.5 Z M 248.9 20.5 C 248.9 20.5 247.97 25.12 248 25.1 C 247.6 27 246.6 27.7 244.9 27.7 C 243.9 27.7 243.1 27.5 242.6 27 C 242.6 27 243 26.4 243 26.4 C 243.4 26.8 244.1 27.1 245 27.1 C 246.3 27.1 247 26.5 247.2 25.2 C 247.2 25.2 247.4 24.7 247.4 24.7 C 246.9 25.2 246.2 25.6 245.3 25.6 C 243.9 25.6 242.9 24.7 242.9 23.4 C 242.9 21.7 244.2 20.5 245.9 20.5 C 246.9 20.5 247.7 20.9 248 21.7 C 247.99 21.66 248.2 20.5 248.2 20.5 L 248.9 20.5 Z M 247.7 22.6 C 247.7 21.6 247 21.1 246 21.1 C 244.6 21.1 243.7 22.1 243.7 23.4 C 243.7 24.4 244.3 24.9 245.4 24.9 C 246.7 24.9 247.7 23.9 247.7 22.6 Z M 255.6 20.5 L 254.6 25.8 L 253.9 25.8 C 253.9 25.8 254.07 24.93 254.1 24.9 C 253.6 25.5 252.9 25.8 252 25.8 C 250.7 25.8 249.7 25 249.7 23.6 C 249.7 21.8 251 20.5 252.7 20.5 C 253.7 20.5 254.4 20.9 254.7 21.6 C 254.7 21.6 254.9 20.5 254.9 20.5 L 255.6 20.5 Z M 254.5 22.7 C 254.5 21.7 253.8 21.1 252.7 21.1 C 251.4 21.1 250.4 22.1 250.4 23.5 C 250.4 24.6 251.1 25.2 252.2 25.2 C 253.5 25.2 254.5 24.1 254.5 22.7 Z M 261.9 22.2 C 261.9 22.4 261.9 22.6 261.9 22.8 C 261.86 22.77 261.3 25.8 261.3 25.8 L 260.6 25.8 C 260.6 25.8 261.15 22.76 261.2 22.8 C 261.2 22.6 261.2 22.4 261.2 22.3 C 261.2 21.5 260.8 21.1 259.8 21.1 C 258.7 21.1 258 21.7 257.7 22.9 C 257.7 22.94 257.1 25.8 257.1 25.8 L 256.4 25.8 L 257.5 20.5 L 258.2 20.5 C 258.2 20.5 257.98 21.34 258 21.3 C 258.5 20.7 259.2 20.5 260 20.5 C 261.2 20.5 261.9 21.1 261.9 22.2 Z M 264.3 18.9 C 264.3 18.6 264.5 18.3 264.8 18.3 C 265.1 18.3 265.3 18.5 265.3 18.8 C 265.3 19.1 265.1 19.3 264.7 19.3 C 264.5 19.3 264.3 19.1 264.3 18.9 Z M 264.1 20.5 L 264.8 20.5 L 263.8 25.8 L 263 25.8 L 264.1 20.5 Z M 265.2 25.2 C 265.2 25.2 265.5 24.6 265.5 24.6 C 265.9 25 266.6 25.2 267.4 25.2 C 268.4 25.2 268.9 24.8 268.9 24.2 C 268.9 23.1 265.9 23.9 265.9 22.1 C 265.9 21.1 266.8 20.5 268.2 20.5 C 268.9 20.5 269.6 20.6 270 20.9 C 270 20.9 269.7 21.5 269.7 21.5 C 269.3 21.2 268.7 21.1 268.2 21.1 C 267.2 21.1 266.6 21.5 266.6 22 C 266.6 23.2 269.6 22.4 269.6 24.2 C 269.6 25.2 268.7 25.8 267.3 25.8 C 266.4 25.8 265.6 25.5 265.2 25.2 Z M 276.5 20.5 L 275.4 25.8 L 274.8 25.8 C 274.8 25.8 274.94 24.93 274.9 24.9 C 274.4 25.5 273.7 25.8 272.9 25.8 C 271.5 25.8 270.6 25 270.6 23.6 C 270.6 21.8 271.9 20.5 273.6 20.5 C 274.6 20.5 275.3 20.9 275.6 21.6 C 275.57 21.6 275.8 20.5 275.8 20.5 L 276.5 20.5 Z M 275.3 22.7 C 275.3 21.7 274.7 21.1 273.6 21.1 C 272.3 21.1 271.3 22.1 271.3 23.5 C 271.3 24.6 271.9 25.2 273 25.2 C 274.3 25.2 275.3 24.1 275.3 22.7 Z M 278.5 24.2 C 278.5 24.3 278.5 24.4 278.5 24.5 C 278.5 24.9 278.7 25.2 279.2 25.2 C 279.5 25.2 279.8 25.1 280.1 24.9 C 280.1 24.9 280.2 25.5 280.2 25.5 C 279.9 25.7 279.5 25.8 279.1 25.8 C 278.3 25.8 277.8 25.4 277.8 24.6 C 277.8 24.5 277.8 24.3 277.8 24.2 C 277.81 24.2 278.4 21.1 278.4 21.1 L 277.5 21.1 L 277.6 20.5 L 278.5 20.5 L 278.8 19.3 L 279.5 19.3 L 279.3 20.5 L 280.9 20.5 L 280.7 21.1 L 279.1 21.1 C 279.1 21.1 278.52 24.17 278.5 24.2 Z M 282.5 18.9 C 282.5 18.6 282.8 18.3 283.1 18.3 C 283.4 18.3 283.6 18.5 283.6 18.8 C 283.6 19.1 283.3 19.3 283 19.3 C 282.7 19.3 282.5 19.1 282.5 18.9 Z M 282.4 20.5 L 283.1 20.5 L 282 25.8 L 281.3 25.8 L 282.4 20.5 Z M 283.9 23.6 C 283.9 21.8 285.2 20.5 286.9 20.5 C 288.4 20.5 289.3 21.3 289.3 22.7 C 289.3 24.5 288 25.8 286.3 25.8 C 284.8 25.8 283.9 24.9 283.9 23.6 Z M 288.6 22.7 C 288.6 21.7 288 21.1 286.9 21.1 C 285.6 21.1 284.6 22.1 284.6 23.5 C 284.6 24.6 285.2 25.2 286.3 25.2 C 287.6 25.2 288.6 24.1 288.6 22.7 Z M 295.6 22.2 C 295.6 22.4 295.6 22.6 295.6 22.8 C 295.58 22.77 295 25.8 295 25.8 L 294.3 25.8 C 294.3 25.8 294.87 22.76 294.9 22.8 C 294.9 22.6 294.9 22.4 294.9 22.3 C 294.9 21.5 294.5 21.1 293.6 21.1 C 292.4 21.1 291.7 21.7 291.4 22.9 C 291.42 22.94 290.9 25.8 290.9 25.8 L 290.2 25.8 L 291.2 20.5 L 291.9 20.5 C 291.9 20.5 291.7 21.34 291.7 21.3 C 292.2 20.7 292.9 20.5 293.8 20.5 C 295 20.5 295.6 21.1 295.6 22.2 Z M 302.7 20.5 L 301.7 25.8 L 301 25.8 C 301 25.8 301.15 24.93 301.2 24.9 C 300.7 25.5 300 25.8 299.1 25.8 C 297.8 25.8 296.8 25 296.8 23.6 C 296.8 21.8 298.1 20.5 299.8 20.5 C 300.8 20.5 301.5 20.9 301.8 21.6 C 301.78 21.6 302 20.5 302 20.5 L 302.7 20.5 Z M 301.5 22.7 C 301.5 21.7 300.9 21.1 299.8 21.1 C 298.5 21.1 297.5 22.1 297.5 23.5 C 297.5 24.6 298.2 25.2 299.3 25.2 C 300.6 25.2 301.5 24.1 301.5 22.7 Z M 305 18.3 L 305.7 18.3 L 304.2 25.8 L 303.5 25.8 L 305 18.3 Z M 314.7 20.5 L 313.6 25.8 L 312.9 25.8 C 312.9 25.8 313.11 24.93 313.1 24.9 C 312.6 25.5 311.9 25.8 311.1 25.8 C 309.7 25.8 308.8 25 308.8 23.6 C 308.8 21.8 310 20.5 311.7 20.5 C 312.7 20.5 313.4 20.9 313.7 21.6 C 313.74 21.6 314 20.5 314 20.5 L 314.7 20.5 Z M 313.5 22.7 C 313.5 21.7 312.9 21.1 311.8 21.1 C 310.5 21.1 309.5 22.1 309.5 23.5 C 309.5 24.6 310.1 25.2 311.2 25.2 C 312.5 25.2 313.5 24.1 313.5 22.7 Z M 321 22.2 C 321 22.4 320.9 22.6 320.9 22.8 C 320.9 22.77 320.3 25.8 320.3 25.8 L 319.6 25.8 C 319.6 25.8 320.2 22.76 320.2 22.8 C 320.2 22.6 320.2 22.4 320.2 22.3 C 320.2 21.5 319.8 21.1 318.9 21.1 C 317.8 21.1 317 21.7 316.7 22.9 C 316.75 22.94 316.2 25.8 316.2 25.8 L 315.5 25.8 L 316.5 20.5 L 317.2 20.5 C 317.2 20.5 317.03 21.34 317 21.3 C 317.5 20.7 318.3 20.5 319.1 20.5 C 320.3 20.5 321 21.1 321 22.2 Z M 328.5 18.3 L 327 25.8 L 326.3 25.8 C 326.3 25.8 326.48 24.93 326.5 24.9 C 326 25.5 325.3 25.8 324.4 25.8 C 323.1 25.8 322.1 25 322.1 23.6 C 322.1 21.8 323.4 20.5 325.1 20.5 C 326.1 20.5 326.8 20.9 327.1 21.6 C 327.11 21.6 327.8 18.3 327.8 18.3 L 328.5 18.3 Z M 326.9 22.7 C 326.9 21.7 326.2 21.1 325.1 21.1 C 323.8 21.1 322.8 22.1 322.8 23.5 C 322.8 24.6 323.5 25.2 324.6 25.2 C 325.9 25.2 326.9 24.1 326.9 22.7 Z M 332.8 18.9 C 332.8 18.6 333.1 18.3 333.4 18.3 C 333.7 18.3 333.9 18.5 333.9 18.8 C 333.9 19.1 333.6 19.3 333.3 19.3 C 333 19.3 332.8 19.1 332.8 18.9 Z M 329.4 27.4 C 329.4 27.4 329.7 26.9 329.7 26.9 C 329.9 27 330.2 27.1 330.5 27.1 C 331.1 27.1 331.4 26.8 331.5 26.1 C 331.55 26.14 332.7 20.5 332.7 20.5 L 333.4 20.5 C 333.4 20.5 332.26 26.16 332.3 26.2 C 332 27.2 331.5 27.7 330.5 27.7 C 330 27.7 329.6 27.6 329.4 27.4 Z M 334.2 23.6 C 334.2 21.8 335.5 20.5 337.2 20.5 C 338.7 20.5 339.6 21.3 339.6 22.7 C 339.6 24.5 338.4 25.8 336.6 25.8 C 335.1 25.8 334.2 24.9 334.2 23.6 Z M 338.9 22.7 C 338.9 21.7 338.3 21.1 337.2 21.1 C 335.9 21.1 334.9 22.1 334.9 23.5 C 334.9 24.6 335.5 25.2 336.6 25.2 C 337.9 25.2 338.9 24.1 338.9 22.7 Z M 346.4 22.7 C 346.4 24.5 345.1 25.8 343.4 25.8 C 342.4 25.8 341.7 25.4 341.4 24.6 C 341.37 24.61 341.1 25.8 341.1 25.8 L 340.5 25.8 L 341.9 18.3 L 342.7 18.3 C 342.7 18.3 342.06 21.29 342.1 21.3 C 342.6 20.8 343.2 20.5 344.1 20.5 C 345.4 20.5 346.4 21.3 346.4 22.7 Z M 345.6 22.7 C 345.6 21.7 345 21.1 343.9 21.1 C 342.6 21.1 341.6 22.1 341.6 23.5 C 341.6 24.6 342.3 25.2 343.4 25.2 C 344.7 25.2 345.6 24.1 345.6 22.7 Z M 351.8 19.9 C 351.84 19.92 351.7 20.5 351.7 20.5 L 353.3 20.5 L 353.2 21.1 L 351.6 21.1 L 350.7 25.8 L 350 25.8 L 350.9 21.1 L 350 21.1 L 350.1 20.5 L 351 20.5 C 351 20.5 351.16 19.84 351.2 19.8 C 351.4 18.8 352 18.3 353 18.3 C 353.4 18.3 353.8 18.4 354 18.6 C 354 18.6 353.7 19.1 353.7 19.1 C 353.5 19 353.3 18.9 353 18.9 C 352.3 18.9 352 19.2 351.8 19.9 Z M 359.2 20.5 L 358.1 25.8 L 357.4 25.8 C 357.4 25.8 357.59 24.93 357.6 24.9 C 357.1 25.5 356.4 25.8 355.5 25.8 C 354.2 25.8 353.3 25 353.3 23.6 C 353.3 21.8 354.5 20.5 356.2 20.5 C 357.2 20.5 357.9 20.9 358.2 21.6 C 358.22 21.6 358.4 20.5 358.4 20.5 L 359.2 20.5 Z M 358 22.7 C 358 21.7 357.3 21.1 356.2 21.1 C 354.9 21.1 354 22.1 354 23.5 C 354 24.6 354.6 25.2 355.7 25.2 C 357 25.2 358 24.1 358 22.7 Z M 360 23.6 C 360 21.8 361.3 20.5 363 20.5 C 364 20.5 364.7 20.8 365.1 21.5 C 365.1 21.5 364.5 21.9 364.5 21.9 C 364.2 21.3 363.7 21.1 363 21.1 C 361.7 21.1 360.7 22.1 360.7 23.5 C 360.7 24.6 361.3 25.2 362.4 25.2 C 363.1 25.2 363.7 24.9 364.1 24.4 C 364.1 24.4 364.6 24.8 364.6 24.8 C 364.1 25.4 363.3 25.8 362.4 25.8 C 360.9 25.8 360 24.9 360 23.6 Z M 366.9 24.2 C 366.9 24.3 366.9 24.4 366.9 24.5 C 366.9 24.9 367.1 25.2 367.6 25.2 C 367.9 25.2 368.2 25.1 368.4 24.9 C 368.4 24.9 368.6 25.5 368.6 25.5 C 368.3 25.7 367.8 25.8 367.4 25.8 C 366.6 25.8 366.2 25.4 366.2 24.6 C 366.2 24.5 366.2 24.3 366.2 24.2 C 366.2 24.2 366.8 21.1 366.8 21.1 L 365.9 21.1 L 366 20.5 L 366.9 20.5 L 367.2 19.3 L 367.9 19.3 L 367.6 20.5 L 369.2 20.5 L 369.1 21.1 L 367.5 21.1 C 367.5 21.1 366.9 24.17 366.9 24.2 Z M 369.5 23.6 C 369.5 21.8 370.8 20.5 372.5 20.5 C 374 20.5 374.9 21.3 374.9 22.7 C 374.9 24.5 373.7 25.8 371.9 25.8 C 370.4 25.8 369.5 24.9 369.5 23.6 Z M 374.2 22.7 C 374.2 21.7 373.6 21.1 372.5 21.1 C 371.2 21.1 370.2 22.1 370.2 23.5 C 370.2 24.6 370.8 25.2 371.9 25.2 C 373.2 25.2 374.2 24.1 374.2 22.7 Z M 379.5 20.5 C 379.5 20.5 379.3 21.1 379.3 21.1 C 379.3 21.1 379.2 21.1 379.1 21.1 C 378 21.1 377.3 21.8 377 23.1 C 377 23.09 376.5 25.8 376.5 25.8 L 375.8 25.8 L 376.8 20.5 L 377.5 20.5 C 377.5 20.5 377.3 21.46 377.3 21.5 C 377.8 20.8 378.5 20.5 379.5 20.5 Z M 379.3 25.2 C 379.3 25.2 379.6 24.6 379.6 24.6 C 380 25 380.7 25.2 381.4 25.2 C 382.4 25.2 383 24.8 383 24.2 C 383 23.1 380 23.9 380 22.1 C 380 21.1 380.9 20.5 382.3 20.5 C 383 20.5 383.7 20.6 384.1 20.9 C 384.1 20.9 383.8 21.5 383.8 21.5 C 383.4 21.2 382.8 21.1 382.2 21.1 C 381.3 21.1 380.7 21.5 380.7 22 C 380.7 23.2 383.7 22.4 383.7 24.2 C 383.7 25.2 382.8 25.8 381.4 25.8 C 380.5 25.8 379.7 25.5 379.3 25.2 Z M 385.7 25.2 C 385.7 25.4 385.6 25.5 385.5 25.8 C 385.52 25.77 384.8 27.2 384.8 27.2 L 384.3 27.2 C 384.3 27.2 384.92 25.75 384.9 25.7 C 384.7 25.7 384.6 25.5 384.6 25.3 C 384.6 25 384.9 24.7 385.2 24.7 C 385.5 24.7 385.7 24.9 385.7 25.2 Z M 395.6 20.5 L 394.5 25.8 L 393.9 25.8 C 393.9 25.8 394.04 24.93 394 24.9 C 393.5 25.5 392.8 25.8 392 25.8 C 390.6 25.8 389.7 25 389.7 23.6 C 389.7 21.8 391 20.5 392.7 20.5 C 393.7 20.5 394.4 20.9 394.7 21.6 C 394.67 21.6 394.9 20.5 394.9 20.5 L 395.6 20.5 Z M 394.4 22.7 C 394.4 21.7 393.8 21.1 392.7 21.1 C 391.4 21.1 390.4 22.1 390.4 23.5 C 390.4 24.6 391 25.2 392.1 25.2 C 393.4 25.2 394.4 24.1 394.4 22.7 Z M 401.9 22.2 C 401.9 22.4 401.9 22.6 401.8 22.8 C 401.83 22.77 401.2 25.8 401.2 25.8 L 400.5 25.8 C 400.5 25.8 401.12 22.76 401.1 22.8 C 401.2 22.6 401.2 22.4 401.2 22.3 C 401.2 21.5 400.7 21.1 399.8 21.1 C 398.7 21.1 397.9 21.7 397.7 22.9 C 397.67 22.94 397.1 25.8 397.1 25.8 L 396.4 25.8 L 397.4 20.5 L 398.1 20.5 C 398.1 20.5 397.95 21.34 398 21.3 C 398.5 20.7 399.2 20.5 400 20.5 C 401.2 20.5 401.9 21.1 401.9 22.2 Z M 409.4 18.3 L 407.9 25.8 L 407.2 25.8 C 407.2 25.8 407.4 24.93 407.4 24.9 C 406.9 25.5 406.2 25.8 405.4 25.8 C 404 25.8 403.1 25 403.1 23.6 C 403.1 21.8 404.3 20.5 406 20.5 C 407 20.5 407.7 20.9 408 21.6 C 408.03 21.6 408.7 18.3 408.7 18.3 L 409.4 18.3 Z M 407.8 22.7 C 407.8 21.7 407.2 21.1 406.1 21.1 C 404.7 21.1 403.8 22.1 403.8 23.5 C 403.8 24.6 404.4 25.2 405.5 25.2 C 406.8 25.2 407.8 24.1 407.8 22.7 Z " stroke="none" fill="#000"/>
  </g>
</svg>