<?xml version="1.0" standalone="no"?>
<!DOCTYPE svg PUBLIC "-//W3C//DTD SVG 1.1//EN" "http://www.w3.org/Graphics/SVG/1.1/DTD/svg11.dtd">
<svg xmlns="http://www.w3.org/2000/svg" version="1.1" width="142px" height="20.5px" viewBox="0 -2 142 20.5" style="top:-2px">
  <desc>Element 2: Health and safe...</desc>
  <defs/>
  <g id="Polygon119088">
    <path d="M 6.1 9 L 6.1 9.7 L 1.1 9.7 L 1.1 2.7 L 5.9 2.7 L 5.9 3.3 L 1.9 3.3 L 1.9 5.8 L 5.5 5.8 L 5.5 6.4 L 1.9 6.4 L 1.9 9 L 6.1 9 Z M 7.5 2.3 L 8.2 2.3 L 8.2 9.7 L 7.5 9.7 L 7.5 2.3 Z M 14.7 7.3 C 14.7 7.3 10.3 7.3 10.3 7.3 C 10.4 8.4 11.2 9.1 12.4 9.1 C 13 9.1 13.6 8.9 14 8.4 C 14 8.4 14.4 8.9 14.4 8.9 C 13.9 9.4 13.2 9.7 12.4 9.7 C 10.7 9.7 9.6 8.6 9.6 7 C 9.6 5.5 10.7 4.4 12.2 4.4 C 13.7 4.4 14.7 5.5 14.7 7 C 14.7 7.1 14.7 7.2 14.7 7.3 Z M 10.3 6.7 C 10.3 6.7 14 6.7 14 6.7 C 14 5.7 13.2 5 12.2 5 C 11.2 5 10.4 5.7 10.3 6.7 Z M 24.8 6.6 C 24.81 6.63 24.8 9.7 24.8 9.7 L 24.1 9.7 C 24.1 9.7 24.1 6.7 24.1 6.7 C 24.1 5.6 23.5 5 22.6 5 C 21.5 5 20.8 5.7 20.8 6.9 C 20.83 6.92 20.8 9.7 20.8 9.7 L 20.1 9.7 C 20.1 9.7 20.12 6.7 20.1 6.7 C 20.1 5.6 19.6 5 18.6 5 C 17.5 5 16.8 5.7 16.8 6.9 C 16.84 6.92 16.8 9.7 16.8 9.7 L 16.1 9.7 L 16.1 4.4 L 16.8 4.4 C 16.8 4.4 16.81 5.38 16.8 5.4 C 17.2 4.7 17.9 4.4 18.7 4.4 C 19.6 4.4 20.3 4.7 20.6 5.5 C 21 4.8 21.7 4.4 22.7 4.4 C 24 4.4 24.8 5.1 24.8 6.6 Z M 31.3 7.3 C 31.3 7.3 26.9 7.3 26.9 7.3 C 27 8.4 27.8 9.1 29 9.1 C 29.6 9.1 30.2 8.9 30.6 8.4 C 30.6 8.4 31 8.9 31 8.9 C 30.5 9.4 29.8 9.7 29 9.7 C 27.3 9.7 26.2 8.6 26.2 7 C 26.2 5.5 27.3 4.4 28.8 4.4 C 30.3 4.4 31.3 5.5 31.3 7 C 31.3 7.1 31.3 7.2 31.3 7.3 Z M 26.9 6.7 C 26.9 6.7 30.6 6.7 30.6 6.7 C 30.6 5.7 29.8 5 28.8 5 C 27.8 5 27 5.7 26.9 6.7 Z M 37.6 6.6 C 37.56 6.63 37.6 9.7 37.6 9.7 L 36.9 9.7 C 36.9 9.7 36.86 6.7 36.9 6.7 C 36.9 5.6 36.3 5 35.3 5 C 34.1 5 33.4 5.7 33.4 6.9 C 33.43 6.92 33.4 9.7 33.4 9.7 L 32.7 9.7 L 32.7 4.4 L 33.4 4.4 C 33.4 4.4 33.4 5.39 33.4 5.4 C 33.8 4.7 34.5 4.4 35.4 4.4 C 36.7 4.4 37.6 5.1 37.6 6.6 Z M 42.1 9.4 C 41.8 9.6 41.4 9.7 41 9.7 C 40 9.7 39.4 9.2 39.4 8.2 C 39.45 8.2 39.4 5 39.4 5 L 38.5 5 L 38.5 4.4 L 39.4 4.4 L 39.4 3.3 L 40.2 3.3 L 40.2 4.4 L 41.8 4.4 L 41.8 5 L 40.2 5 C 40.2 5 40.16 8.16 40.2 8.2 C 40.2 8.8 40.5 9.1 41.1 9.1 C 41.4 9.1 41.6 9 41.8 8.9 C 41.8 8.9 42.1 9.4 42.1 9.4 Z M 50.3 9 L 50.3 9.7 L 45.4 9.7 L 45.4 9.2 C 45.4 9.2 48.32 6.32 48.3 6.3 C 49.1 5.5 49.3 5.1 49.3 4.6 C 49.3 3.8 48.7 3.3 47.6 3.3 C 46.8 3.3 46.2 3.5 45.7 4.1 C 45.7 4.1 45.2 3.6 45.2 3.6 C 45.7 3 46.6 2.6 47.7 2.6 C 49.1 2.6 50 3.3 50 4.5 C 50 5.2 49.8 5.8 48.8 6.7 C 48.85 6.7 46.5 9 46.5 9 L 50.3 9 Z M 51.4 4.9 C 51.4 4.6 51.6 4.4 51.9 4.4 C 52.2 4.4 52.4 4.6 52.4 4.9 C 52.4 5.2 52.2 5.5 51.9 5.5 C 51.6 5.5 51.4 5.2 51.4 4.9 Z M 51.4 9.2 C 51.4 8.9 51.6 8.6 51.9 8.6 C 52.2 8.6 52.4 8.9 52.4 9.2 C 52.4 9.5 52.2 9.7 51.9 9.7 C 51.6 9.7 51.4 9.5 51.4 9.2 Z M 62.6 2.7 L 62.6 9.7 L 61.8 9.7 L 61.8 6.4 L 57.5 6.4 L 57.5 9.7 L 56.7 9.7 L 56.7 2.7 L 57.5 2.7 L 57.5 5.8 L 61.8 5.8 L 61.8 2.7 L 62.6 2.7 Z M 69.3 7.3 C 69.3 7.3 64.9 7.3 64.9 7.3 C 65 8.4 65.8 9.1 67 9.1 C 67.6 9.1 68.2 8.9 68.6 8.4 C 68.6 8.4 69 8.9 69 8.9 C 68.5 9.4 67.8 9.7 66.9 9.7 C 65.3 9.7 64.2 8.6 64.2 7 C 64.2 5.5 65.3 4.4 66.8 4.4 C 68.2 4.4 69.3 5.5 69.3 7 C 69.3 7.1 69.3 7.2 69.3 7.3 Z M 64.9 6.7 C 64.9 6.7 68.6 6.7 68.6 6.7 C 68.5 5.7 67.8 5 66.8 5 C 65.7 5 65 5.7 64.9 6.7 Z M 74.7 6.4 C 74.69 6.42 74.7 9.7 74.7 9.7 L 74 9.7 C 74 9.7 74.01 8.86 74 8.9 C 73.7 9.4 73.1 9.7 72.2 9.7 C 71 9.7 70.3 9.1 70.3 8.2 C 70.3 7.4 70.8 6.7 72.3 6.7 C 72.31 6.71 74 6.7 74 6.7 C 74 6.7 73.98 6.39 74 6.4 C 74 5.5 73.5 5 72.5 5 C 71.8 5 71.2 5.2 70.7 5.6 C 70.7 5.6 70.4 5.1 70.4 5.1 C 70.9 4.6 71.7 4.4 72.6 4.4 C 73.9 4.4 74.7 5.1 74.7 6.4 Z M 74 8.1 C 73.98 8.1 74 7.2 74 7.2 C 74 7.2 72.33 7.24 72.3 7.2 C 71.3 7.2 71 7.6 71 8.2 C 71 8.8 71.5 9.2 72.3 9.2 C 73.1 9.2 73.7 8.8 74 8.1 Z M 76.5 2.3 L 77.2 2.3 L 77.2 9.7 L 76.5 9.7 L 76.5 2.3 Z M 81.9 9.4 C 81.6 9.6 81.2 9.7 80.8 9.7 C 79.8 9.7 79.3 9.2 79.3 8.2 C 79.27 8.2 79.3 5 79.3 5 L 78.3 5 L 78.3 4.4 L 79.3 4.4 L 79.3 3.3 L 80 3.3 L 80 4.4 L 81.6 4.4 L 81.6 5 L 80 5 C 80 5 79.98 8.16 80 8.2 C 80 8.8 80.3 9.1 80.9 9.1 C 81.2 9.1 81.5 9 81.7 8.9 C 81.7 8.9 81.9 9.4 81.9 9.4 Z M 87.9 6.6 C 87.95 6.63 87.9 9.7 87.9 9.7 L 87.2 9.7 C 87.2 9.7 87.24 6.7 87.2 6.7 C 87.2 5.6 86.7 5 85.7 5 C 84.5 5 83.8 5.7 83.8 6.9 C 83.82 6.92 83.8 9.7 83.8 9.7 L 83.1 9.7 L 83.1 2.3 L 83.8 2.3 C 83.8 2.3 83.82 5.34 83.8 5.3 C 84.2 4.7 84.9 4.4 85.8 4.4 C 87.1 4.4 87.9 5.1 87.9 6.6 Z M 96.5 6.4 C 96.47 6.42 96.5 9.7 96.5 9.7 L 95.8 9.7 C 95.8 9.7 95.79 8.86 95.8 8.9 C 95.5 9.4 94.8 9.7 94 9.7 C 92.8 9.7 92.1 9.1 92.1 8.2 C 92.1 7.4 92.6 6.7 94.1 6.7 C 94.09 6.71 95.8 6.7 95.8 6.7 C 95.8 6.7 95.76 6.39 95.8 6.4 C 95.8 5.5 95.2 5 94.3 5 C 93.6 5 92.9 5.2 92.5 5.6 C 92.5 5.6 92.2 5.1 92.2 5.1 C 92.7 4.6 93.5 4.4 94.3 4.4 C 95.7 4.4 96.5 5.1 96.5 6.4 Z M 95.8 8.1 C 95.76 8.1 95.8 7.2 95.8 7.2 C 95.8 7.2 94.11 7.24 94.1 7.2 C 93.1 7.2 92.8 7.6 92.8 8.2 C 92.8 8.8 93.2 9.2 94.1 9.2 C 94.9 9.2 95.5 8.8 95.8 8.1 Z M 103.1 6.6 C 103.12 6.63 103.1 9.7 103.1 9.7 L 102.4 9.7 C 102.4 9.7 102.41 6.7 102.4 6.7 C 102.4 5.6 101.8 5 100.8 5 C 99.7 5 99 5.7 99 6.9 C 98.99 6.92 99 9.7 99 9.7 L 98.3 9.7 L 98.3 4.4 L 99 4.4 C 99 4.4 98.96 5.39 99 5.4 C 99.3 4.7 100.1 4.4 101 4.4 C 102.2 4.4 103.1 5.1 103.1 6.6 Z M 109.8 2.3 L 109.8 9.7 L 109.2 9.7 C 109.2 9.7 109.16 8.64 109.2 8.6 C 108.7 9.3 108 9.7 107.1 9.7 C 105.6 9.7 104.5 8.6 104.5 7 C 104.5 5.5 105.6 4.4 107.1 4.4 C 108 4.4 108.7 4.7 109.1 5.4 C 109.13 5.42 109.1 2.3 109.1 2.3 L 109.8 2.3 Z M 109.1 7 C 109.1 5.8 108.3 5 107.2 5 C 106.1 5 105.2 5.8 105.2 7 C 105.2 8.3 106.1 9.1 107.2 9.1 C 108.3 9.1 109.1 8.3 109.1 7 Z M 113.7 9.1 C 113.7 9.1 114 8.5 114 8.5 C 114.4 8.9 115.2 9.1 115.9 9.1 C 116.9 9.1 117.3 8.8 117.3 8.3 C 117.3 6.9 113.9 8 113.9 5.9 C 113.9 5 114.6 4.4 116 4.4 C 116.7 4.4 117.4 4.6 117.8 4.9 C 117.8 4.9 117.5 5.4 117.5 5.4 C 117.1 5.1 116.5 5 116 5 C 115 5 114.6 5.4 114.6 5.9 C 114.6 7.3 118 6.2 118 8.2 C 118 9.1 117.2 9.7 115.8 9.7 C 115 9.7 114.1 9.4 113.7 9.1 Z M 123.4 6.4 C 123.4 6.42 123.4 9.7 123.4 9.7 L 122.7 9.7 C 122.7 9.7 122.72 8.86 122.7 8.9 C 122.4 9.4 121.8 9.7 120.9 9.7 C 119.7 9.7 119 9.1 119 8.2 C 119 7.4 119.5 6.7 121 6.7 C 121.02 6.71 122.7 6.7 122.7 6.7 C 122.7 6.7 122.69 6.39 122.7 6.4 C 122.7 5.5 122.2 5 121.2 5 C 120.5 5 119.9 5.2 119.5 5.6 C 119.5 5.6 119.1 5.1 119.1 5.1 C 119.7 4.6 120.4 4.4 121.3 4.4 C 122.6 4.4 123.4 5.1 123.4 6.4 Z M 122.7 8.1 C 122.69 8.1 122.7 7.2 122.7 7.2 C 122.7 7.2 121.04 7.24 121 7.2 C 120 7.2 119.7 7.6 119.7 8.2 C 119.7 8.8 120.2 9.2 121 9.2 C 121.8 9.2 122.4 8.8 122.7 8.1 Z M 126 3.8 C 126 3.8 126 4.4 126 4.4 L 127.6 4.4 L 127.6 5 L 126 5 L 126 9.7 L 125.3 9.7 L 125.3 5 L 124.4 5 L 124.4 4.4 L 125.3 4.4 C 125.3 4.4 125.31 3.77 125.3 3.8 C 125.3 2.8 125.9 2.2 126.9 2.2 C 127.3 2.2 127.7 2.3 127.9 2.5 C 127.9 2.5 127.7 3.1 127.7 3.1 C 127.5 2.9 127.2 2.8 126.9 2.8 C 126.3 2.8 126 3.1 126 3.8 Z M 133.2 7.3 C 133.2 7.3 128.8 7.3 128.8 7.3 C 128.8 8.4 129.7 9.1 130.8 9.1 C 131.5 9.1 132 8.9 132.4 8.4 C 132.4 8.4 132.8 8.9 132.8 8.9 C 132.4 9.4 131.6 9.7 130.8 9.7 C 129.2 9.7 128 8.6 128 7 C 128 5.5 129.1 4.4 130.6 4.4 C 132.1 4.4 133.2 5.5 133.2 7 C 133.2 7.1 133.2 7.2 133.2 7.3 Z M 128.8 6.7 C 128.8 6.7 132.5 6.7 132.5 6.7 C 132.4 5.7 131.6 5 130.6 5 C 129.6 5 128.8 5.7 128.8 6.7 Z M 134.2 9.2 C 134.2 8.9 134.4 8.6 134.7 8.6 C 135 8.6 135.2 8.9 135.2 9.2 C 135.2 9.5 135 9.7 134.7 9.7 C 134.4 9.7 134.2 9.5 134.2 9.2 Z M 136.3 9.2 C 136.3 8.9 136.6 8.6 136.9 8.6 C 137.2 8.6 137.4 8.9 137.4 9.2 C 137.4 9.5 137.2 9.7 136.9 9.7 C 136.6 9.7 136.3 9.5 136.3 9.2 Z M 138.5 9.2 C 138.5 8.9 138.8 8.6 139.1 8.6 C 139.3 8.6 139.6 8.9 139.6 9.2 C 139.6 9.5 139.3 9.7 139.1 9.7 C 138.8 9.7 138.5 9.5 138.5 9.2 Z " stroke="none" fill="#3127a4"/>
  </g>
</svg>