<?xml version="1.0" standalone="no"?>
<!DOCTYPE svg PUBLIC "-//W3C//DTD SVG 1.1//EN" "http://www.w3.org/Graphics/SVG/1.1/DTD/svg11.dtd">
<svg xmlns="http://www.w3.org/2000/svg" version="1.1" width="485px" height="83px" viewBox="0 0 485 83">
  <desc>Human factors</desc>
  <defs/>
  <g id="Polygon115230">
    <path d="M 37.3 31.4 L 40.5 31.4 L 40.5 45.4 L 37.3 45.4 L 37.3 31.4 Z M 30.9 45.4 L 27.7 45.4 L 27.7 31.4 L 30.9 31.4 L 30.9 45.4 Z M 37.5 39.6 L 30.7 39.6 L 30.7 36.9 L 37.5 36.9 L 37.5 39.6 Z M 48 45.5 C 47.1 45.5 46.3 45.3 45.6 45 C 44.9 44.7 44.4 44.1 44 43.4 C 43.6 42.7 43.4 41.8 43.4 40.7 C 43.4 40.68 43.4 34.6 43.4 34.6 L 46.5 34.6 C 46.5 34.6 46.52 40.22 46.5 40.2 C 46.5 41.1 46.7 41.8 47.1 42.2 C 47.5 42.6 48 42.8 48.7 42.8 C 49.2 42.8 49.6 42.7 50 42.5 C 50.4 42.3 50.6 42 50.9 41.5 C 51.1 41.1 51.2 40.6 51.2 39.9 C 51.18 39.92 51.2 34.6 51.2 34.6 L 54.3 34.6 L 54.3 45.4 L 51.3 45.4 L 51.3 42.4 C 51.3 42.4 51.88 43.26 51.9 43.3 C 51.5 44 51 44.6 50.3 44.9 C 49.6 45.3 48.8 45.5 48 45.5 Z M 70.7 34.4 C 71.6 34.4 72.4 34.6 73 34.9 C 73.7 35.3 74.2 35.8 74.6 36.5 C 75 37.2 75.1 38.1 75.1 39.2 C 75.15 39.2 75.1 45.4 75.1 45.4 L 72 45.4 C 72 45.4 72.03 39.68 72 39.7 C 72 38.8 71.8 38.2 71.5 37.8 C 71.1 37.3 70.6 37.1 70 37.1 C 69.5 37.1 69.1 37.2 68.7 37.4 C 68.4 37.7 68.1 38 67.9 38.4 C 67.7 38.8 67.6 39.3 67.6 40 C 67.61 39.96 67.6 45.4 67.6 45.4 L 64.5 45.4 C 64.5 45.4 64.49 39.68 64.5 39.7 C 64.5 38.8 64.3 38.2 64 37.8 C 63.6 37.3 63.1 37.1 62.4 37.1 C 62 37.1 61.6 37.2 61.2 37.4 C 60.9 37.7 60.6 38 60.4 38.4 C 60.2 38.8 60.1 39.3 60.1 40 C 60.09 39.96 60.1 45.4 60.1 45.4 L 57 45.4 L 57 34.6 L 59.9 34.6 L 59.9 37.5 C 59.9 37.5 59.39 36.68 59.4 36.7 C 59.8 35.9 60.3 35.4 61 35 C 61.7 34.6 62.4 34.4 63.3 34.4 C 64.3 34.4 65.2 34.7 65.9 35.2 C 66.7 35.7 67.1 36.5 67.4 37.5 C 67.4 37.5 66.3 37.2 66.3 37.2 C 66.6 36.3 67.2 35.7 68 35.2 C 68.8 34.7 69.7 34.4 70.7 34.4 Z M 84.3 45.4 L 84.3 43.3 L 84.1 42.8 C 84.1 42.8 84.13 39.04 84.1 39 C 84.1 38.4 83.9 37.9 83.5 37.5 C 83.1 37.1 82.5 36.9 81.6 36.9 C 81.1 36.9 80.5 37 80 37.2 C 79.4 37.4 78.9 37.6 78.5 37.9 C 78.5 37.9 77.4 35.7 77.4 35.7 C 78 35.3 78.7 35 79.5 34.8 C 80.4 34.6 81.2 34.4 82.1 34.4 C 83.7 34.4 85 34.8 85.9 35.6 C 86.8 36.4 87.2 37.6 87.2 39.2 C 87.25 39.22 87.2 45.4 87.2 45.4 L 84.3 45.4 Z M 81 45.5 C 80.2 45.5 79.5 45.4 78.9 45.1 C 78.3 44.8 77.8 44.4 77.5 43.9 C 77.2 43.4 77 42.9 77 42.3 C 77 41.6 77.2 41.1 77.5 40.6 C 77.8 40.1 78.3 39.7 79 39.4 C 79.7 39.2 80.6 39 81.6 39 C 81.65 39.04 84.5 39 84.5 39 L 84.5 40.9 C 84.5 40.9 81.99 40.86 82 40.9 C 81.3 40.9 80.8 41 80.5 41.2 C 80.2 41.5 80.1 41.8 80.1 42.1 C 80.1 42.5 80.2 42.8 80.5 43.1 C 80.9 43.3 81.3 43.4 81.8 43.4 C 82.3 43.4 82.8 43.3 83.2 43 C 83.6 42.8 83.9 42.4 84.1 42 C 84.1 42 84.6 43.4 84.6 43.4 C 84.4 44.1 84 44.6 83.4 45 C 82.8 45.3 82 45.5 81 45.5 Z M 96.4 34.4 C 97.2 34.4 98 34.6 98.7 34.9 C 99.4 35.3 99.9 35.8 100.3 36.5 C 100.7 37.2 100.8 38.1 100.8 39.2 C 100.85 39.2 100.8 45.4 100.8 45.4 L 97.7 45.4 C 97.7 45.4 97.73 39.68 97.7 39.7 C 97.7 38.8 97.5 38.2 97.2 37.8 C 96.8 37.3 96.2 37.1 95.5 37.1 C 95.1 37.1 94.6 37.2 94.2 37.4 C 93.8 37.7 93.5 38 93.3 38.4 C 93.1 38.8 93 39.4 93 40 C 92.97 40.04 93 45.4 93 45.4 L 89.8 45.4 L 89.8 34.6 L 92.8 34.6 L 92.8 37.6 C 92.8 37.6 92.27 36.68 92.3 36.7 C 92.7 36 93.2 35.4 93.9 35 C 94.6 34.6 95.5 34.4 96.4 34.4 Z M 109.7 45.4 C 109.7 45.4 109.71 34.36 109.7 34.4 C 109.7 33.1 110.1 32.2 110.8 31.4 C 111.5 30.7 112.5 30.4 113.9 30.4 C 114.3 30.4 114.8 30.4 115.2 30.5 C 115.6 30.6 116 30.7 116.2 30.9 C 116.2 30.9 115.4 33.2 115.4 33.2 C 115.3 33.1 115.1 33 114.8 32.9 C 114.6 32.9 114.4 32.8 114.2 32.8 C 113.7 32.8 113.4 32.9 113.1 33.2 C 112.9 33.5 112.7 33.9 112.7 34.4 C 112.75 34.38 112.7 35.4 112.7 35.4 L 112.8 36.7 L 112.8 45.4 L 109.7 45.4 Z M 108 37.2 L 108 34.8 L 115.5 34.8 L 115.5 37.2 L 108 37.2 Z M 123.6 45.4 L 123.6 43.3 L 123.4 42.8 C 123.4 42.8 123.43 39.04 123.4 39 C 123.4 38.4 123.2 37.9 122.8 37.5 C 122.4 37.1 121.8 36.9 121 36.9 C 120.4 36.9 119.8 37 119.3 37.2 C 118.7 37.4 118.2 37.6 117.9 37.9 C 117.9 37.9 116.7 35.7 116.7 35.7 C 117.3 35.3 118 35 118.9 34.8 C 119.7 34.6 120.5 34.4 121.4 34.4 C 123 34.4 124.3 34.8 125.2 35.6 C 126.1 36.4 126.6 37.6 126.6 39.2 C 126.55 39.22 126.6 45.4 126.6 45.4 L 123.6 45.4 Z M 120.4 45.5 C 119.5 45.5 118.8 45.4 118.2 45.1 C 117.6 44.8 117.1 44.4 116.8 43.9 C 116.5 43.4 116.3 42.9 116.3 42.3 C 116.3 41.6 116.5 41.1 116.8 40.6 C 117.1 40.1 117.6 39.7 118.3 39.4 C 119 39.2 119.9 39 121 39 C 120.95 39.04 123.8 39 123.8 39 L 123.8 40.9 C 123.8 40.9 121.29 40.86 121.3 40.9 C 120.6 40.9 120.1 41 119.8 41.2 C 119.5 41.5 119.4 41.8 119.4 42.1 C 119.4 42.5 119.5 42.8 119.8 43.1 C 120.2 43.3 120.6 43.4 121.1 43.4 C 121.7 43.4 122.1 43.3 122.5 43 C 122.9 42.8 123.2 42.4 123.4 42 C 123.4 42 123.9 43.4 123.9 43.4 C 123.7 44.1 123.3 44.6 122.7 45 C 122.1 45.3 121.3 45.5 120.4 45.5 Z M 134.4 45.5 C 133.2 45.5 132.2 45.3 131.3 44.8 C 130.4 44.3 129.7 43.7 129.2 42.8 C 128.6 42 128.4 41 128.4 40 C 128.4 38.9 128.6 37.9 129.2 37.1 C 129.7 36.3 130.4 35.6 131.3 35.1 C 132.2 34.7 133.2 34.4 134.4 34.4 C 135.5 34.4 136.5 34.7 137.3 35.1 C 138.2 35.6 138.8 36.3 139.2 37.2 C 139.2 37.2 136.8 38.5 136.8 38.5 C 136.5 38 136.2 37.6 135.7 37.4 C 135.3 37.1 134.9 37 134.4 37 C 133.8 37 133.4 37.1 132.9 37.4 C 132.5 37.6 132.2 37.9 131.9 38.4 C 131.7 38.8 131.5 39.4 131.5 40 C 131.5 40.6 131.7 41.1 131.9 41.6 C 132.2 42 132.5 42.4 132.9 42.6 C 133.4 42.8 133.8 43 134.4 43 C 134.9 43 135.3 42.8 135.7 42.6 C 136.2 42.4 136.5 42 136.8 41.5 C 136.8 41.5 139.2 42.8 139.2 42.8 C 138.8 43.7 138.2 44.3 137.3 44.8 C 136.5 45.3 135.5 45.5 134.4 45.5 Z M 145.7 45.5 C 144.5 45.5 143.5 45.2 142.8 44.5 C 142.1 43.9 141.7 42.9 141.7 41.7 C 141.73 41.66 141.7 32.2 141.7 32.2 L 144.8 32.2 C 144.8 32.2 144.85 41.62 144.8 41.6 C 144.8 42.1 145 42.4 145.2 42.7 C 145.4 42.9 145.8 43 146.2 43 C 146.7 43 147.1 42.9 147.4 42.6 C 147.4 42.6 148.3 44.8 148.3 44.8 C 148 45.1 147.6 45.2 147.1 45.3 C 146.7 45.5 146.2 45.5 145.7 45.5 Z M 140.1 37.2 L 140.1 34.8 L 147.5 34.8 L 147.5 37.2 L 140.1 37.2 Z M 154.8 45.5 C 153.7 45.5 152.7 45.3 151.8 44.8 C 150.9 44.3 150.2 43.7 149.7 42.8 C 149.2 42 148.9 41 148.9 40 C 148.9 38.9 149.2 37.9 149.7 37.1 C 150.2 36.3 150.9 35.6 151.8 35.1 C 152.7 34.7 153.7 34.4 154.8 34.4 C 156 34.4 157 34.7 157.9 35.1 C 158.8 35.6 159.5 36.3 160 37.1 C 160.5 37.9 160.7 38.9 160.7 40 C 160.7 41 160.5 42 160 42.8 C 159.5 43.7 158.8 44.3 157.9 44.8 C 157 45.3 156 45.5 154.8 45.5 Z M 154.8 43 C 155.3 43 155.8 42.8 156.2 42.6 C 156.6 42.4 157 42 157.2 41.6 C 157.4 41.1 157.6 40.6 157.6 40 C 157.6 39.4 157.4 38.8 157.2 38.4 C 157 37.9 156.6 37.6 156.2 37.4 C 155.8 37.1 155.3 37 154.8 37 C 154.3 37 153.8 37.1 153.4 37.4 C 153 37.6 152.7 37.9 152.4 38.4 C 152.2 38.8 152.1 39.4 152.1 40 C 152.1 40.6 152.2 41.1 152.4 41.6 C 152.7 42 153 42.4 153.4 42.6 C 153.8 42.8 154.3 43 154.8 43 Z M 162.7 45.4 L 162.7 34.6 L 165.6 34.6 L 165.6 37.6 C 165.6 37.6 165.22 36.76 165.2 36.8 C 165.5 36 166.1 35.4 166.8 35 C 167.5 34.6 168.3 34.4 169.3 34.4 C 169.3 34.4 169.3 37.3 169.3 37.3 C 169.2 37.3 169.1 37.3 169 37.3 C 168.9 37.3 168.8 37.3 168.6 37.3 C 167.8 37.3 167.1 37.5 166.6 38 C 166 38.5 165.8 39.3 165.8 40.3 C 165.78 40.28 165.8 45.4 165.8 45.4 L 162.7 45.4 Z M 174.9 45.5 C 174 45.5 173.1 45.4 172.3 45.2 C 171.4 45 170.8 44.7 170.3 44.4 C 170.3 44.4 171.3 42.1 171.3 42.1 C 171.8 42.4 172.4 42.7 173.1 42.9 C 173.7 43.1 174.4 43.2 175 43.2 C 175.8 43.2 176.3 43.1 176.6 42.9 C 176.9 42.7 177 42.5 177 42.2 C 177 41.9 176.9 41.7 176.7 41.6 C 176.4 41.5 176.1 41.4 175.7 41.3 C 175.4 41.3 174.9 41.2 174.5 41.1 C 174 41.1 173.6 41 173.1 40.8 C 172.6 40.7 172.2 40.6 171.8 40.3 C 171.4 40.1 171.1 39.8 170.9 39.4 C 170.6 39 170.5 38.5 170.5 37.9 C 170.5 37.2 170.7 36.6 171.1 36.1 C 171.5 35.6 172.1 35.2 172.8 34.9 C 173.6 34.6 174.5 34.4 175.5 34.4 C 176.2 34.4 177 34.5 177.7 34.7 C 178.5 34.8 179.1 35.1 179.6 35.4 C 179.6 35.4 178.6 37.6 178.6 37.6 C 178.1 37.3 177.6 37.1 177 37 C 176.5 36.9 176 36.8 175.5 36.8 C 174.8 36.8 174.3 36.9 174 37.1 C 173.7 37.3 173.5 37.5 173.5 37.8 C 173.5 38.1 173.6 38.3 173.9 38.4 C 174.1 38.5 174.4 38.6 174.8 38.7 C 175.2 38.8 175.6 38.9 176.1 38.9 C 176.5 39 177 39.1 177.4 39.2 C 177.9 39.3 178.3 39.5 178.7 39.7 C 179.1 39.9 179.4 40.2 179.6 40.6 C 179.9 41 180 41.5 180 42.1 C 180 42.8 179.8 43.4 179.4 43.9 C 179 44.4 178.4 44.8 177.7 45.1 C 176.9 45.4 176 45.5 174.9 45.5 Z " stroke="none" fill="#fff"/>
  </g>
</svg>