<?xml version="1.0" standalone="no"?>
<!DOCTYPE svg PUBLIC "-//W3C//DTD SVG 1.1//EN" "http://www.w3.org/Graphics/SVG/1.1/DTD/svg11.dtd">
<svg xmlns="http://www.w3.org/2000/svg" version="1.1" width="158px" height="30.5px" viewBox="0 -3 158 30.5" style="top:-3px">
  <desc>Astutis mission</desc>
  <defs/>
  <g id="Polygon122562">
    <path d="M 9.9 14.5 L 3.6 14.5 L 2.3 17.4 L -0.1 17.4 L 5.6 4.8 L 7.9 4.8 L 13.6 17.4 L 11.1 17.4 L 9.9 14.5 Z M 9.1 12.7 L 6.7 7.2 L 4.4 12.7 L 9.1 12.7 Z M 14.3 16.5 C 14.3 16.5 15.1 14.8 15.1 14.8 C 16 15.3 17.3 15.7 18.5 15.7 C 19.9 15.7 20.5 15.3 20.5 14.7 C 20.5 12.8 14.6 14.5 14.6 10.7 C 14.6 8.9 16.2 7.7 18.8 7.7 C 20.1 7.7 21.5 8 22.4 8.5 C 22.4 8.5 21.5 10.2 21.5 10.2 C 20.6 9.7 19.7 9.5 18.8 9.5 C 17.4 9.5 16.8 10 16.8 10.6 C 16.8 12.5 22.7 10.8 22.7 14.6 C 22.7 16.4 21 17.5 18.3 17.5 C 16.7 17.5 15.1 17.1 14.3 16.5 Z M 30.6 16.9 C 30 17.3 29.2 17.5 28.4 17.5 C 26.3 17.5 25.1 16.4 25.1 14.3 C 25.1 14.31 25.1 9.7 25.1 9.7 L 23.5 9.7 L 23.5 7.9 L 25.1 7.9 L 25.1 5.7 L 27.3 5.7 L 27.3 7.9 L 29.9 7.9 L 29.9 9.7 L 27.3 9.7 C 27.3 9.7 27.35 14.26 27.3 14.3 C 27.3 15.2 27.8 15.7 28.7 15.7 C 29.1 15.7 29.6 15.6 29.9 15.3 C 29.9 15.3 30.6 16.9 30.6 16.9 Z M 41.2 7.8 L 41.2 17.4 L 39.1 17.4 C 39.1 17.4 39.08 16.2 39.1 16.2 C 38.4 17.1 37.2 17.5 36 17.5 C 33.5 17.5 31.8 16.2 31.8 13.3 C 31.84 13.3 31.8 7.8 31.8 7.8 L 34.1 7.8 C 34.1 7.8 34.09 13 34.1 13 C 34.1 14.7 34.9 15.6 36.3 15.6 C 37.9 15.6 39 14.6 39 12.7 C 38.97 12.67 39 7.8 39 7.8 L 41.2 7.8 Z M 49.8 16.9 C 49.3 17.3 48.5 17.5 47.6 17.5 C 45.5 17.5 44.3 16.4 44.3 14.3 C 44.33 14.31 44.3 9.7 44.3 9.7 L 42.7 9.7 L 42.7 7.9 L 44.3 7.9 L 44.3 5.7 L 46.6 5.7 L 46.6 7.9 L 49.2 7.9 L 49.2 9.7 L 46.6 9.7 C 46.6 9.7 46.58 14.26 46.6 14.3 C 46.6 15.2 47 15.7 47.9 15.7 C 48.4 15.7 48.8 15.6 49.2 15.3 C 49.2 15.3 49.8 16.9 49.8 16.9 Z M 51.1 4.9 C 51.1 4.1 51.7 3.5 52.5 3.5 C 53.3 3.5 53.9 4.1 53.9 4.8 C 53.9 5.6 53.3 6.2 52.5 6.2 C 51.7 6.2 51.1 5.6 51.1 4.9 Z M 51.4 7.8 L 53.6 7.8 L 53.6 17.4 L 51.4 17.4 L 51.4 7.8 Z M 55.4 16.5 C 55.4 16.5 56.2 14.8 56.2 14.8 C 57.1 15.3 58.4 15.7 59.6 15.7 C 61 15.7 61.6 15.3 61.6 14.7 C 61.6 12.8 55.7 14.5 55.7 10.7 C 55.7 8.9 57.3 7.7 59.9 7.7 C 61.2 7.7 62.6 8 63.5 8.5 C 63.5 8.5 62.6 10.2 62.6 10.2 C 61.7 9.7 60.8 9.5 59.9 9.5 C 58.5 9.5 57.8 10 57.8 10.6 C 57.8 12.5 63.8 10.8 63.8 14.6 C 63.8 16.4 62.1 17.5 59.4 17.5 C 57.8 17.5 56.2 17.1 55.4 16.5 Z M 86.8 11.9 C 86.77 11.92 86.8 17.4 86.8 17.4 L 84.5 17.4 C 84.5 17.4 84.52 12.2 84.5 12.2 C 84.5 10.5 83.7 9.7 82.4 9.7 C 80.9 9.7 79.9 10.6 79.9 12.5 C 79.86 12.55 79.9 17.4 79.9 17.4 L 77.6 17.4 C 77.6 17.4 77.61 12.2 77.6 12.2 C 77.6 10.5 76.8 9.7 75.5 9.7 C 74 9.7 72.9 10.6 72.9 12.5 C 72.95 12.55 72.9 17.4 72.9 17.4 L 70.7 17.4 L 70.7 7.8 L 72.8 7.8 C 72.8 7.8 72.84 9.04 72.8 9 C 73.6 8.2 74.7 7.7 76 7.7 C 77.4 7.7 78.6 8.2 79.2 9.3 C 80 8.3 81.3 7.7 82.8 7.7 C 85.2 7.7 86.8 9 86.8 11.9 Z M 89.1 4.9 C 89.1 4.1 89.7 3.5 90.5 3.5 C 91.3 3.5 91.9 4.1 91.9 4.8 C 91.9 5.6 91.3 6.2 90.5 6.2 C 89.7 6.2 89.1 5.6 89.1 4.9 Z M 89.4 7.8 L 91.6 7.8 L 91.6 17.4 L 89.4 17.4 L 89.4 7.8 Z M 93.4 16.5 C 93.4 16.5 94.2 14.8 94.2 14.8 C 95.1 15.3 96.4 15.7 97.6 15.7 C 99 15.7 99.6 15.3 99.6 14.7 C 99.6 12.8 93.7 14.5 93.7 10.7 C 93.7 8.9 95.3 7.7 97.9 7.7 C 99.2 7.7 100.6 8 101.5 8.5 C 101.5 8.5 100.6 10.2 100.6 10.2 C 99.7 9.7 98.8 9.5 97.9 9.5 C 96.5 9.5 95.9 10 95.9 10.6 C 95.9 12.5 101.8 10.8 101.8 14.6 C 101.8 16.4 100.1 17.5 97.4 17.5 C 95.8 17.5 94.2 17.1 93.4 16.5 Z M 102.7 16.5 C 102.7 16.5 103.6 14.8 103.6 14.8 C 104.4 15.3 105.7 15.7 106.9 15.7 C 108.3 15.7 108.9 15.3 108.9 14.7 C 108.9 12.8 103 14.5 103 10.7 C 103 8.9 104.6 7.7 107.2 7.7 C 108.5 7.7 110 8 110.8 8.5 C 110.8 8.5 110 10.2 110 10.2 C 109 9.7 108.1 9.5 107.2 9.5 C 105.8 9.5 105.2 10 105.2 10.6 C 105.2 12.5 111.1 10.8 111.1 14.6 C 111.1 16.4 109.5 17.5 106.8 17.5 C 105.2 17.5 103.6 17.1 102.7 16.5 Z M 112.7 4.9 C 112.7 4.1 113.3 3.5 114.1 3.5 C 114.9 3.5 115.6 4.1 115.6 4.8 C 115.6 5.6 115 6.2 114.1 6.2 C 113.3 6.2 112.7 5.6 112.7 4.9 Z M 113 7.8 L 115.2 7.8 L 115.2 17.4 L 113 17.4 L 113 7.8 Z M 117.2 12.6 C 117.2 9.7 119.3 7.7 122.3 7.7 C 125.3 7.7 127.4 9.7 127.4 12.6 C 127.4 15.5 125.3 17.5 122.3 17.5 C 119.3 17.5 117.2 15.5 117.2 12.6 Z M 125.2 12.6 C 125.2 10.8 123.9 9.6 122.3 9.6 C 120.7 9.6 119.5 10.8 119.5 12.6 C 119.5 14.5 120.7 15.6 122.3 15.6 C 123.9 15.6 125.2 14.5 125.2 12.6 Z M 138.9 11.9 C 138.9 11.92 138.9 17.4 138.9 17.4 L 136.6 17.4 C 136.6 17.4 136.65 12.2 136.6 12.2 C 136.6 10.5 135.8 9.7 134.4 9.7 C 132.8 9.7 131.7 10.6 131.7 12.6 C 131.68 12.56 131.7 17.4 131.7 17.4 L 129.4 17.4 L 129.4 7.8 L 131.6 7.8 C 131.6 7.8 131.57 9.05 131.6 9.1 C 132.3 8.2 133.5 7.7 134.9 7.7 C 137.2 7.7 138.9 9 138.9 11.9 Z " stroke="none" fill="#fff"/>
  </g>
</svg>