<?xml version="1.0" standalone="no"?>
<!DOCTYPE svg PUBLIC "-//W3C//DTD SVG 1.1//EN" "http://www.w3.org/Graphics/SVG/1.1/DTD/svg11.dtd">
<svg xmlns="http://www.w3.org/2000/svg" version="1.1" width="445.3px" height="111.5px" viewBox="0 0 445.3 111.5">
  <desc>Note: A common misunderstanding of Rasmussen’s theory is to assume the terms relate to a lack of personal knowledge o...</desc>
  <defs/>
  <g id="Polygon112526">
    <path d="M 18.8 89 C 18.5 89.2 18.1 89.4 17.6 89.4 C 16.7 89.4 16.1 88.8 16.1 87.8 C 16.11 87.83 16.1 84.7 16.1 84.7 L 15.2 84.7 L 15.2 84.1 L 16.1 84.1 L 16.1 82.9 L 16.8 82.9 L 16.8 84.1 L 18.4 84.1 L 18.4 84.7 L 16.8 84.7 C 16.8 84.7 16.82 87.79 16.8 87.8 C 16.8 88.4 17.1 88.8 17.7 88.8 C 18 88.8 18.3 88.7 18.5 88.5 C 18.5 88.5 18.8 89 18.8 89 Z M 24 86.1 C 23.99 86.05 24 89.3 24 89.3 L 23.3 89.3 C 23.3 89.3 23.31 88.49 23.3 88.5 C 23 89 22.4 89.4 21.5 89.4 C 20.3 89.4 19.6 88.7 19.6 87.8 C 19.6 87 20.1 86.3 21.6 86.3 C 21.61 86.34 23.3 86.3 23.3 86.3 C 23.3 86.3 23.28 86.02 23.3 86 C 23.3 85.1 22.8 84.6 21.8 84.6 C 21.1 84.6 20.5 84.9 20 85.3 C 20 85.3 19.7 84.7 19.7 84.7 C 20.3 84.3 21 84 21.9 84 C 23.2 84 24 84.7 24 86.1 Z M 23.3 87.7 C 23.28 87.73 23.3 86.9 23.3 86.9 C 23.3 86.9 21.63 86.87 21.6 86.9 C 20.6 86.9 20.3 87.3 20.3 87.8 C 20.3 88.4 20.8 88.8 21.6 88.8 C 22.4 88.8 23 88.4 23.3 87.7 Z M 25.2 88.7 C 25.2 88.7 25.5 88.2 25.5 88.2 C 25.9 88.5 26.7 88.7 27.4 88.7 C 28.4 88.7 28.8 88.4 28.8 87.9 C 28.8 86.5 25.4 87.6 25.4 85.5 C 25.4 84.7 26.1 84 27.5 84 C 28.2 84 28.9 84.2 29.3 84.5 C 29.3 84.5 29 85.1 29 85.1 C 28.6 84.8 28 84.6 27.5 84.6 C 26.5 84.6 26.1 85 26.1 85.5 C 26.1 86.9 29.5 85.8 29.5 87.9 C 29.5 88.8 28.7 89.4 27.3 89.4 C 26.5 89.4 25.6 89.1 25.2 88.7 Z M 32.8 86.7 L 31.5 87.8 L 31.5 89.3 L 30.8 89.3 L 30.8 81.9 L 31.5 81.9 L 31.5 86.9 L 34.7 84.1 L 35.6 84.1 L 33.3 86.2 L 35.8 89.3 L 34.9 89.3 L 32.8 86.7 Z M 36.6 88.8 C 36.6 88.5 36.8 88.3 37.1 88.3 C 37.4 88.3 37.7 88.5 37.7 88.8 C 37.7 89.1 37.4 89.4 37.1 89.4 C 36.8 89.4 36.6 89.1 36.6 88.8 Z " stroke="none" fill="#000"/>
  </g>
  <g id="Polygon112525">
    <path d="M 18.8 74 C 18.5 74.2 18.1 74.4 17.6 74.4 C 16.7 74.4 16.1 73.8 16.1 72.8 C 16.11 72.83 16.1 69.7 16.1 69.7 L 15.2 69.7 L 15.2 69.1 L 16.1 69.1 L 16.1 67.9 L 16.8 67.9 L 16.8 69.1 L 18.4 69.1 L 18.4 69.7 L 16.8 69.7 C 16.8 69.7 16.82 72.79 16.8 72.8 C 16.8 73.4 17.1 73.8 17.7 73.8 C 18 73.8 18.3 73.7 18.5 73.5 C 18.5 73.5 18.8 74 18.8 74 Z M 24.8 71.3 C 24.79 71.26 24.8 74.3 24.8 74.3 L 24.1 74.3 C 24.1 74.3 24.08 71.33 24.1 71.3 C 24.1 70.2 23.5 69.7 22.5 69.7 C 21.4 69.7 20.7 70.4 20.7 71.6 C 20.66 71.55 20.7 74.3 20.7 74.3 L 19.9 74.3 L 19.9 66.9 L 20.7 66.9 C 20.7 66.9 20.66 69.97 20.7 70 C 21 69.4 21.7 69 22.6 69 C 23.9 69 24.8 69.8 24.8 71.3 Z M 31.3 71.9 C 31.3 71.9 26.9 71.9 26.9 71.9 C 27 73 27.8 73.7 29 73.7 C 29.6 73.7 30.2 73.5 30.6 73 C 30.6 73 31 73.5 31 73.5 C 30.5 74.1 29.8 74.4 28.9 74.4 C 27.3 74.4 26.2 73.2 26.2 71.7 C 26.2 70.1 27.3 69 28.7 69 C 30.2 69 31.3 70.1 31.3 71.7 C 31.3 71.7 31.3 71.8 31.3 71.9 Z M 26.9 71.4 C 26.9 71.4 30.6 71.4 30.6 71.4 C 30.5 70.3 29.8 69.6 28.7 69.6 C 27.7 69.6 27 70.3 26.9 71.4 Z M 37.1 69.1 C 37.1 69.1 34.45 74.94 34.5 74.9 C 34 76 33.5 76.3 32.7 76.3 C 32.2 76.3 31.7 76.1 31.4 75.8 C 31.4 75.8 31.8 75.3 31.8 75.3 C 32 75.6 32.3 75.7 32.7 75.7 C 33.2 75.7 33.5 75.5 33.8 74.8 C 33.8 74.81 34 74.3 34 74.3 L 31.7 69.1 L 32.4 69.1 L 34.4 73.5 L 36.4 69.1 L 37.1 69.1 Z M 46 71.7 C 46 73.3 44.9 74.4 43.4 74.4 C 42.6 74.4 41.9 74 41.4 73.3 C 41.41 73.32 41.4 76.3 41.4 76.3 L 40.7 76.3 L 40.7 69.1 L 41.4 69.1 C 41.4 69.1 41.38 70.09 41.4 70.1 C 41.8 69.4 42.5 69 43.4 69 C 44.9 69 46 70.1 46 71.7 Z M 45.3 71.7 C 45.3 70.5 44.5 69.6 43.4 69.6 C 42.2 69.6 41.4 70.5 41.4 71.7 C 41.4 72.9 42.2 73.7 43.4 73.7 C 44.5 73.7 45.3 72.9 45.3 71.7 Z M 50.1 69 C 50.1 69 50.1 69.7 50.1 69.7 C 50.1 69.7 50 69.7 50 69.7 C 48.9 69.7 48.2 70.4 48.2 71.6 C 48.18 71.63 48.2 74.3 48.2 74.3 L 47.5 74.3 L 47.5 69.1 L 48.2 69.1 C 48.2 69.1 48.15 70.08 48.2 70.1 C 48.5 69.4 49.2 69 50.1 69 Z M 50.7 71.7 C 50.7 70.1 51.9 69 53.4 69 C 55 69 56.1 70.1 56.1 71.7 C 56.1 73.2 55 74.4 53.4 74.4 C 51.9 74.4 50.7 73.2 50.7 71.7 Z M 55.4 71.7 C 55.4 70.5 54.5 69.6 53.4 69.6 C 52.3 69.6 51.5 70.5 51.5 71.7 C 51.5 72.9 52.3 73.7 53.4 73.7 C 54.5 73.7 55.4 72.9 55.4 71.7 Z M 62.5 69.1 C 62.5 69.1 62.5 73.67 62.5 73.7 C 62.5 75.5 61.6 76.3 59.9 76.3 C 58.9 76.3 58 76 57.4 75.5 C 57.4 75.5 57.8 75 57.8 75 C 58.3 75.4 59 75.7 59.8 75.7 C 61.2 75.7 61.8 75.1 61.8 73.8 C 61.8 73.8 61.8 73.1 61.8 73.1 C 61.3 73.8 60.6 74.1 59.7 74.1 C 58.2 74.1 57.1 73.1 57.1 71.6 C 57.1 70 58.2 69 59.7 69 C 60.6 69 61.4 69.4 61.8 70.1 C 61.82 70.06 61.8 69.1 61.8 69.1 L 62.5 69.1 Z M 61.8 71.6 C 61.8 70.4 61 69.6 59.8 69.6 C 58.6 69.6 57.8 70.4 57.8 71.6 C 57.8 72.7 58.6 73.5 59.8 73.5 C 61 73.5 61.8 72.7 61.8 71.6 Z M 67 69 C 67 69 67 69.7 67 69.7 C 67 69.7 66.9 69.7 66.8 69.7 C 65.7 69.7 65.1 70.4 65.1 71.6 C 65.07 71.63 65.1 74.3 65.1 74.3 L 64.4 74.3 L 64.4 69.1 L 65 69.1 C 65 69.1 65.04 70.08 65 70.1 C 65.4 69.4 66 69 67 69 Z M 72.8 71.9 C 72.8 71.9 68.4 71.9 68.4 71.9 C 68.4 73 69.3 73.7 70.4 73.7 C 71.1 73.7 71.6 73.5 72 73 C 72 73 72.4 73.5 72.4 73.5 C 72 74.1 71.2 74.4 70.4 74.4 C 68.8 74.4 67.6 73.2 67.6 71.7 C 67.6 70.1 68.7 69 70.2 69 C 71.7 69 72.8 70.1 72.8 71.7 C 72.8 71.7 72.8 71.8 72.8 71.9 Z M 68.4 71.4 C 68.4 71.4 72.1 71.4 72.1 71.4 C 72 70.3 71.2 69.6 70.2 69.6 C 69.2 69.6 68.4 70.3 68.4 71.4 Z M 73.6 73.7 C 73.6 73.7 73.9 73.2 73.9 73.2 C 74.3 73.5 75 73.7 75.7 73.7 C 76.7 73.7 77.2 73.4 77.2 72.9 C 77.2 71.5 73.7 72.6 73.7 70.5 C 73.7 69.7 74.5 69 75.8 69 C 76.5 69 77.2 69.2 77.7 69.5 C 77.7 69.5 77.4 70.1 77.4 70.1 C 76.9 69.8 76.4 69.6 75.8 69.6 C 74.9 69.6 74.5 70 74.5 70.5 C 74.5 71.9 77.9 70.8 77.9 72.9 C 77.9 73.8 77.1 74.4 75.7 74.4 C 74.8 74.4 74 74.1 73.6 73.7 Z M 78.6 73.7 C 78.6 73.7 78.9 73.2 78.9 73.2 C 79.4 73.5 80.1 73.7 80.8 73.7 C 81.8 73.7 82.2 73.4 82.2 72.9 C 82.2 71.5 78.8 72.6 78.8 70.5 C 78.8 69.7 79.5 69 80.9 69 C 81.6 69 82.3 69.2 82.7 69.5 C 82.7 69.5 82.4 70.1 82.4 70.1 C 82 69.8 81.4 69.6 80.9 69.6 C 79.9 69.6 79.5 70 79.5 70.5 C 79.5 71.9 82.9 70.8 82.9 72.9 C 82.9 73.8 82.1 74.4 80.8 74.4 C 79.9 74.4 79 74.1 78.6 73.7 Z M 87.7 68.4 C 87.66 68.43 87.7 69.1 87.7 69.1 L 89.3 69.1 L 89.3 69.7 L 87.7 69.7 L 87.7 74.3 L 87 74.3 L 87 69.7 L 86 69.7 L 86 69.1 L 87 69.1 C 87 69.1 86.97 68.4 87 68.4 C 87 67.5 87.5 66.8 88.6 66.8 C 89 66.8 89.4 67 89.6 67.2 C 89.6 67.2 89.4 67.7 89.4 67.7 C 89.2 67.5 88.9 67.4 88.6 67.4 C 88 67.4 87.7 67.8 87.7 68.4 Z M 92.9 69 C 92.9 69 92.9 69.7 92.9 69.7 C 92.9 69.7 92.8 69.7 92.8 69.7 C 91.7 69.7 91 70.4 91 71.6 C 91.01 71.63 91 74.3 91 74.3 L 90.3 74.3 L 90.3 69.1 L 91 69.1 C 91 69.1 90.98 70.08 91 70.1 C 91.3 69.4 92 69 92.9 69 Z M 93.6 71.7 C 93.6 70.1 94.7 69 96.2 69 C 97.8 69 98.9 70.1 98.9 71.7 C 98.9 73.2 97.8 74.4 96.2 74.4 C 94.7 74.4 93.6 73.2 93.6 71.7 Z M 98.2 71.7 C 98.2 70.5 97.4 69.6 96.2 69.6 C 95.1 69.6 94.3 70.5 94.3 71.7 C 94.3 72.9 95.1 73.7 96.2 73.7 C 97.4 73.7 98.2 72.9 98.2 71.7 Z M 109 71.3 C 109.02 71.26 109 74.3 109 74.3 L 108.3 74.3 C 108.3 74.3 108.31 71.33 108.3 71.3 C 108.3 70.2 107.8 69.7 106.8 69.7 C 105.7 69.7 105 70.4 105 71.6 C 105.04 71.55 105 74.3 105 74.3 L 104.3 74.3 C 104.3 74.3 104.33 71.33 104.3 71.3 C 104.3 70.2 103.8 69.7 102.8 69.7 C 101.7 69.7 101 70.4 101 71.6 C 101.05 71.55 101 74.3 101 74.3 L 100.3 74.3 L 100.3 69.1 L 101 69.1 C 101 69.1 101.02 70.01 101 70 C 101.4 69.4 102.1 69 103 69 C 103.8 69 104.5 69.4 104.8 70.1 C 105.2 69.4 106 69 106.9 69 C 108.2 69 109 69.8 109 71.3 Z M 118.4 71.3 C 118.41 71.26 118.4 74.3 118.4 74.3 L 117.7 74.3 C 117.7 74.3 117.7 71.33 117.7 71.3 C 117.7 70.2 117.1 69.7 116.1 69.7 C 115 69.7 114.3 70.4 114.3 71.6 C 114.28 71.55 114.3 74.3 114.3 74.3 L 113.6 74.3 L 113.6 69.1 L 114.2 69.1 C 114.2 69.1 114.25 70.02 114.2 70 C 114.6 69.4 115.3 69 116.3 69 C 117.5 69 118.4 69.8 118.4 71.3 Z M 119.8 71.7 C 119.8 70.1 120.9 69 122.5 69 C 124 69 125.1 70.1 125.1 71.7 C 125.1 73.2 124 74.4 122.5 74.4 C 120.9 74.4 119.8 73.2 119.8 71.7 Z M 124.4 71.7 C 124.4 70.5 123.6 69.6 122.5 69.6 C 121.4 69.6 120.5 70.5 120.5 71.7 C 120.5 72.9 121.4 73.7 122.5 73.7 C 123.6 73.7 124.4 72.9 124.4 71.7 Z M 130.9 69.1 L 128.6 74.3 L 127.9 74.3 L 125.5 69.1 L 126.3 69.1 L 128.2 73.5 L 130.2 69.1 L 130.9 69.1 Z M 131.8 67.4 C 131.8 67.1 132 66.9 132.3 66.9 C 132.6 66.9 132.9 67.1 132.9 67.4 C 132.9 67.7 132.6 67.9 132.3 67.9 C 132 67.9 131.8 67.7 131.8 67.4 Z M 132 69.1 L 132.7 69.1 L 132.7 74.3 L 132 74.3 L 132 69.1 Z M 134.1 71.7 C 134.1 70.1 135.2 69 136.8 69 C 137.7 69 138.4 69.4 138.8 70.1 C 138.8 70.1 138.3 70.4 138.3 70.4 C 138 69.9 137.4 69.6 136.8 69.6 C 135.6 69.6 134.8 70.5 134.8 71.7 C 134.8 72.9 135.6 73.7 136.8 73.7 C 137.4 73.7 138 73.5 138.3 73 C 138.3 73 138.8 73.3 138.8 73.3 C 138.4 74 137.7 74.4 136.8 74.4 C 135.2 74.4 134.1 73.3 134.1 71.7 Z M 144.8 71.9 C 144.8 71.9 140.4 71.9 140.4 71.9 C 140.4 73 141.3 73.7 142.4 73.7 C 143.1 73.7 143.6 73.5 144 73 C 144 73 144.4 73.5 144.4 73.5 C 144 74.1 143.2 74.4 142.4 74.4 C 140.8 74.4 139.7 73.2 139.7 71.7 C 139.7 70.1 140.7 69 142.2 69 C 143.7 69 144.8 70.1 144.8 71.7 C 144.8 71.7 144.8 71.8 144.8 71.9 Z M 140.4 71.4 C 140.4 71.4 144.1 71.4 144.1 71.4 C 144 70.3 143.3 69.6 142.2 69.6 C 141.2 69.6 140.5 70.3 140.4 71.4 Z M 151.6 74 C 151.3 74.2 150.9 74.4 150.5 74.4 C 149.5 74.4 149 73.8 149 72.8 C 148.97 72.83 149 69.7 149 69.7 L 148 69.7 L 148 69.1 L 149 69.1 L 149 67.9 L 149.7 67.9 L 149.7 69.1 L 151.3 69.1 L 151.3 69.7 L 149.7 69.7 C 149.7 69.7 149.68 72.79 149.7 72.8 C 149.7 73.4 150 73.8 150.6 73.8 C 150.9 73.8 151.2 73.7 151.4 73.5 C 151.4 73.5 151.6 74 151.6 74 Z M 157.6 71.3 C 157.64 71.26 157.6 74.3 157.6 74.3 L 156.9 74.3 C 156.9 74.3 156.93 71.33 156.9 71.3 C 156.9 70.2 156.4 69.7 155.4 69.7 C 154.2 69.7 153.5 70.4 153.5 71.6 C 153.51 71.55 153.5 74.3 153.5 74.3 L 152.8 74.3 L 152.8 66.9 L 153.5 66.9 C 153.5 66.9 153.51 69.97 153.5 70 C 153.9 69.4 154.6 69 155.5 69 C 156.8 69 157.6 69.8 157.6 71.3 Z M 162.1 69 C 162.1 69 162.1 69.7 162.1 69.7 C 162 69.7 162 69.7 161.9 69.7 C 160.8 69.7 160.2 70.4 160.2 71.6 C 160.17 71.63 160.2 74.3 160.2 74.3 L 159.5 74.3 L 159.5 69.1 L 160.1 69.1 C 160.1 69.1 160.14 70.08 160.1 70.1 C 160.5 69.4 161.1 69 162.1 69 Z M 162.7 71.7 C 162.7 70.1 163.9 69 165.4 69 C 166.9 69 168.1 70.1 168.1 71.7 C 168.1 73.2 166.9 74.4 165.4 74.4 C 163.9 74.4 162.7 73.2 162.7 71.7 Z M 167.4 71.7 C 167.4 70.5 166.5 69.6 165.4 69.6 C 164.3 69.6 163.4 70.5 163.4 71.7 C 163.4 72.9 164.3 73.7 165.4 73.7 C 166.5 73.7 167.4 72.9 167.4 71.7 Z M 174.2 69.1 L 174.2 74.3 L 173.5 74.3 C 173.5 74.3 173.55 73.35 173.5 73.4 C 173.2 74 172.5 74.4 171.7 74.4 C 170.3 74.4 169.4 73.6 169.4 72.1 C 169.44 72.1 169.4 69.1 169.4 69.1 L 170.1 69.1 C 170.1 69.1 170.15 72.03 170.1 72 C 170.1 73.2 170.7 73.7 171.7 73.7 C 172.8 73.7 173.5 73 173.5 71.8 C 173.52 71.81 173.5 69.1 173.5 69.1 L 174.2 69.1 Z M 181.1 69.1 C 181.1 69.1 181.06 73.67 181.1 73.7 C 181.1 75.5 180.2 76.3 178.4 76.3 C 177.5 76.3 176.5 76 176 75.5 C 176 75.5 176.3 75 176.3 75 C 176.8 75.4 177.6 75.7 178.4 75.7 C 179.7 75.7 180.3 75.1 180.3 73.8 C 180.3 73.8 180.3 73.1 180.3 73.1 C 179.9 73.8 179.2 74.1 178.3 74.1 C 176.8 74.1 175.7 73.1 175.7 71.6 C 175.7 70 176.8 69 178.3 69 C 179.2 69 179.9 69.4 180.4 70.1 C 180.38 70.06 180.4 69.1 180.4 69.1 L 181.1 69.1 Z M 180.4 71.6 C 180.4 70.4 179.5 69.6 178.4 69.6 C 177.2 69.6 176.4 70.4 176.4 71.6 C 176.4 72.7 177.2 73.5 178.4 73.5 C 179.5 73.5 180.4 72.7 180.4 71.6 Z M 187.8 71.3 C 187.76 71.26 187.8 74.3 187.8 74.3 L 187.1 74.3 C 187.1 74.3 187.05 71.33 187.1 71.3 C 187.1 70.2 186.5 69.7 185.5 69.7 C 184.3 69.7 183.6 70.4 183.6 71.6 C 183.63 71.55 183.6 74.3 183.6 74.3 L 182.9 74.3 L 182.9 66.9 L 183.6 66.9 C 183.6 66.9 183.63 69.97 183.6 70 C 184 69.4 184.7 69 185.6 69 C 186.9 69 187.8 69.8 187.8 71.3 Z M 191.8 71.7 C 191.8 70.1 192.9 69 194.5 69 C 195.4 69 196.1 69.4 196.6 70.1 C 196.6 70.1 196 70.4 196 70.4 C 195.7 69.9 195.1 69.6 194.5 69.6 C 193.3 69.6 192.5 70.5 192.5 71.7 C 192.5 72.9 193.3 73.7 194.5 73.7 C 195.1 73.7 195.7 73.5 196 73 C 196 73 196.6 73.3 196.6 73.3 C 196.1 74 195.4 74.4 194.5 74.4 C 192.9 74.4 191.8 73.3 191.8 71.7 Z M 197.3 71.7 C 197.3 70.1 198.5 69 200 69 C 201.6 69 202.7 70.1 202.7 71.7 C 202.7 73.2 201.6 74.4 200 74.4 C 198.5 74.4 197.3 73.2 197.3 71.7 Z M 202 71.7 C 202 70.5 201.1 69.6 200 69.6 C 198.9 69.6 198.1 70.5 198.1 71.7 C 198.1 72.9 198.9 73.7 200 73.7 C 201.1 73.7 202 72.9 202 71.7 Z M 212.8 71.3 C 212.79 71.26 212.8 74.3 212.8 74.3 L 212.1 74.3 C 212.1 74.3 212.08 71.33 212.1 71.3 C 212.1 70.2 211.5 69.7 210.6 69.7 C 209.5 69.7 208.8 70.4 208.8 71.6 C 208.81 71.55 208.8 74.3 208.8 74.3 L 208.1 74.3 C 208.1 74.3 208.1 71.33 208.1 71.3 C 208.1 70.2 207.5 69.7 206.6 69.7 C 205.5 69.7 204.8 70.4 204.8 71.6 C 204.82 71.55 204.8 74.3 204.8 74.3 L 204.1 74.3 L 204.1 69.1 L 204.8 69.1 C 204.8 69.1 204.79 70.01 204.8 70 C 205.2 69.4 205.8 69 206.7 69 C 207.6 69 208.3 69.4 208.6 70.1 C 209 69.4 209.7 69 210.7 69 C 212 69 212.8 69.8 212.8 71.3 Z M 220 71.7 C 220 73.3 218.8 74.4 217.3 74.4 C 216.5 74.4 215.8 74 215.3 73.3 C 215.33 73.32 215.3 76.3 215.3 76.3 L 214.6 76.3 L 214.6 69.1 L 215.3 69.1 C 215.3 69.1 215.3 70.09 215.3 70.1 C 215.7 69.4 216.5 69 217.3 69 C 218.8 69 220 70.1 220 71.7 Z M 219.2 71.7 C 219.2 70.5 218.4 69.6 217.3 69.6 C 216.2 69.6 215.3 70.5 215.3 71.7 C 215.3 72.9 216.2 73.7 217.3 73.7 C 218.4 73.7 219.2 72.9 219.2 71.7 Z M 226.1 71.9 C 226.1 71.9 221.7 71.9 221.7 71.9 C 221.7 73 222.6 73.7 223.7 73.7 C 224.4 73.7 224.9 73.5 225.3 73 C 225.3 73 225.7 73.5 225.7 73.5 C 225.3 74.1 224.5 74.4 223.7 74.4 C 222.1 74.4 221 73.2 221 71.7 C 221 70.1 222 69 223.5 69 C 225 69 226.1 70.1 226.1 71.7 C 226.1 71.7 226.1 71.8 226.1 71.9 Z M 221.7 71.4 C 221.7 71.4 225.4 71.4 225.4 71.4 C 225.3 70.3 224.6 69.6 223.5 69.6 C 222.5 69.6 221.8 70.3 221.7 71.4 Z M 230.2 74 C 229.9 74.2 229.5 74.4 229.1 74.4 C 228.1 74.4 227.6 73.8 227.6 72.8 C 227.56 72.83 227.6 69.7 227.6 69.7 L 226.6 69.7 L 226.6 69.1 L 227.6 69.1 L 227.6 67.9 L 228.3 67.9 L 228.3 69.1 L 229.9 69.1 L 229.9 69.7 L 228.3 69.7 C 228.3 69.7 228.27 72.79 228.3 72.8 C 228.3 73.4 228.6 73.8 229.2 73.8 C 229.5 73.8 229.8 73.7 230 73.5 C 230 73.5 230.2 74 230.2 74 Z M 235.9 71.9 C 235.9 71.9 231.5 71.9 231.5 71.9 C 231.6 73 232.4 73.7 233.5 73.7 C 234.2 73.7 234.8 73.5 235.2 73 C 235.2 73 235.6 73.5 235.6 73.5 C 235.1 74.1 234.4 74.4 233.5 74.4 C 231.9 74.4 230.8 73.2 230.8 71.7 C 230.8 70.1 231.9 69 233.3 69 C 234.8 69 235.9 70.1 235.9 71.7 C 235.9 71.7 235.9 71.8 235.9 71.9 Z M 231.5 71.4 C 231.5 71.4 235.2 71.4 235.2 71.4 C 235.1 70.3 234.4 69.6 233.3 69.6 C 232.3 69.6 231.6 70.3 231.5 71.4 Z M 242.1 71.3 C 242.13 71.26 242.1 74.3 242.1 74.3 L 241.4 74.3 C 241.4 74.3 241.42 71.33 241.4 71.3 C 241.4 70.2 240.8 69.7 239.8 69.7 C 238.7 69.7 238 70.4 238 71.6 C 238 71.55 238 74.3 238 74.3 L 237.3 74.3 L 237.3 69.1 L 238 69.1 C 238 69.1 237.97 70.02 238 70 C 238.3 69.4 239.1 69 240 69 C 241.2 69 242.1 69.8 242.1 71.3 Z M 243.5 71.7 C 243.5 70.1 244.6 69 246.2 69 C 247.1 69 247.9 69.4 248.3 70.1 C 248.3 70.1 247.7 70.4 247.7 70.4 C 247.4 69.9 246.8 69.6 246.2 69.6 C 245.1 69.6 244.2 70.5 244.2 71.7 C 244.2 72.9 245.1 73.7 246.2 73.7 C 246.8 73.7 247.4 73.5 247.7 73 C 247.7 73 248.3 73.3 248.3 73.3 C 247.9 74 247.1 74.4 246.2 74.4 C 244.6 74.4 243.5 73.3 243.5 71.7 Z M 254.2 71.9 C 254.2 71.9 249.8 71.9 249.8 71.9 C 249.9 73 250.7 73.7 251.9 73.7 C 252.5 73.7 253.1 73.5 253.5 73 C 253.5 73 253.9 73.5 253.9 73.5 C 253.4 74.1 252.7 74.4 251.8 74.4 C 250.2 74.4 249.1 73.2 249.1 71.7 C 249.1 70.1 250.2 69 251.7 69 C 253.1 69 254.2 70.1 254.2 71.7 C 254.2 71.7 254.2 71.8 254.2 71.9 Z M 249.8 71.4 C 249.8 71.4 253.5 71.4 253.5 71.4 C 253.4 70.3 252.7 69.6 251.7 69.6 C 250.6 69.6 249.9 70.3 249.8 71.4 Z M 261 74 C 260.8 74.2 260.3 74.4 259.9 74.4 C 258.9 74.4 258.4 73.8 258.4 72.8 C 258.4 72.83 258.4 69.7 258.4 69.7 L 257.5 69.7 L 257.5 69.1 L 258.4 69.1 L 258.4 67.9 L 259.1 67.9 L 259.1 69.1 L 260.7 69.1 L 260.7 69.7 L 259.1 69.7 C 259.1 69.7 259.11 72.79 259.1 72.8 C 259.1 73.4 259.4 73.8 260 73.8 C 260.3 73.8 260.6 73.7 260.8 73.5 C 260.8 73.5 261 74 261 74 Z M 261.6 71.7 C 261.6 70.1 262.7 69 264.3 69 C 265.8 69 266.9 70.1 266.9 71.7 C 266.9 73.2 265.8 74.4 264.3 74.4 C 262.7 74.4 261.6 73.2 261.6 71.7 Z M 266.2 71.7 C 266.2 70.5 265.4 69.6 264.3 69.6 C 263.2 69.6 262.3 70.5 262.3 71.7 C 262.3 72.9 263.2 73.7 264.3 73.7 C 265.4 73.7 266.2 72.9 266.2 71.7 Z M 275.6 71.9 C 275.6 71.9 271.2 71.9 271.2 71.9 C 271.3 73 272.1 73.7 273.3 73.7 C 273.9 73.7 274.5 73.5 274.9 73 C 274.9 73 275.3 73.5 275.3 73.5 C 274.8 74.1 274.1 74.4 273.2 74.4 C 271.6 74.4 270.5 73.2 270.5 71.7 C 270.5 70.1 271.6 69 273.1 69 C 274.5 69 275.6 70.1 275.6 71.7 C 275.6 71.7 275.6 71.8 275.6 71.9 Z M 271.2 71.4 C 271.2 71.4 274.9 71.4 274.9 71.4 C 274.8 70.3 274.1 69.6 273.1 69.6 C 272 69.6 271.3 70.3 271.2 71.4 Z M 280.2 74.3 L 278.6 72.1 L 276.9 74.3 L 276.1 74.3 L 278.2 71.6 L 276.2 69.1 L 277 69.1 L 278.6 71.1 L 280.1 69.1 L 280.9 69.1 L 278.9 71.6 L 281 74.3 L 280.2 74.3 Z M 287.5 71.7 C 287.5 73.3 286.4 74.4 284.9 74.4 C 284 74.4 283.3 74 282.9 73.3 C 282.89 73.32 282.9 76.3 282.9 76.3 L 282.2 76.3 L 282.2 69.1 L 282.9 69.1 C 282.9 69.1 282.86 70.09 282.9 70.1 C 283.3 69.4 284 69 284.9 69 C 286.4 69 287.5 70.1 287.5 71.7 Z M 286.8 71.7 C 286.8 70.5 285.9 69.6 284.8 69.6 C 283.7 69.6 282.9 70.5 282.9 71.7 C 282.9 72.9 283.7 73.7 284.8 73.7 C 285.9 73.7 286.8 72.9 286.8 71.7 Z M 293.6 71.9 C 293.6 71.9 289.2 71.9 289.2 71.9 C 289.3 73 290.1 73.7 291.3 73.7 C 291.9 73.7 292.5 73.5 292.9 73 C 292.9 73 293.3 73.5 293.3 73.5 C 292.8 74.1 292.1 74.4 291.3 74.4 C 289.6 74.4 288.5 73.2 288.5 71.7 C 288.5 70.1 289.6 69 291.1 69 C 292.6 69 293.6 70.1 293.6 71.7 C 293.6 71.7 293.6 71.8 293.6 71.9 Z M 289.2 71.4 C 289.2 71.4 293 71.4 293 71.4 C 292.9 70.3 292.1 69.6 291.1 69.6 C 290.1 69.6 289.3 70.3 289.2 71.4 Z M 297.7 69 C 297.7 69 297.7 69.7 297.7 69.7 C 297.6 69.7 297.6 69.7 297.5 69.7 C 296.4 69.7 295.7 70.4 295.7 71.6 C 295.75 71.63 295.7 74.3 295.7 74.3 L 295 74.3 L 295 69.1 L 295.7 69.1 C 295.7 69.1 295.72 70.08 295.7 70.1 C 296 69.4 296.7 69 297.7 69 Z M 302.1 74 C 301.8 74.2 301.4 74.4 301 74.4 C 300 74.4 299.4 73.8 299.4 72.8 C 299.43 72.83 299.4 69.7 299.4 69.7 L 298.5 69.7 L 298.5 69.1 L 299.4 69.1 L 299.4 67.9 L 300.1 67.9 L 300.1 69.1 L 301.7 69.1 L 301.7 69.7 L 300.1 69.7 C 300.1 69.7 300.14 72.79 300.1 72.8 C 300.1 73.4 300.5 73.8 301 73.8 C 301.3 73.8 301.6 73.7 301.8 73.5 C 301.8 73.5 302.1 74 302.1 74 Z M 303.1 67.4 C 303.1 67.1 303.3 66.9 303.6 66.9 C 303.9 66.9 304.1 67.1 304.1 67.4 C 304.1 67.7 303.9 67.9 303.6 67.9 C 303.3 67.9 303.1 67.7 303.1 67.4 Z M 303.3 69.1 L 304 69.1 L 304 74.3 L 303.3 74.3 L 303.3 69.1 Z M 305.2 73.7 C 305.2 73.7 305.6 73.2 305.6 73.2 C 306 73.5 306.7 73.7 307.4 73.7 C 308.4 73.7 308.8 73.4 308.8 72.9 C 308.8 71.5 305.4 72.6 305.4 70.5 C 305.4 69.7 306.2 69 307.5 69 C 308.2 69 308.9 69.2 309.4 69.5 C 309.4 69.5 309.1 70.1 309.1 70.1 C 308.6 69.8 308.1 69.6 307.5 69.6 C 306.6 69.6 306.1 70 306.1 70.5 C 306.1 71.9 309.6 70.8 309.6 72.9 C 309.6 73.8 308.8 74.4 307.4 74.4 C 306.5 74.4 305.7 74.1 305.2 73.7 Z M 315.5 71.9 C 315.5 71.9 311.1 71.9 311.1 71.9 C 311.2 73 312.1 73.7 313.2 73.7 C 313.9 73.7 314.4 73.5 314.8 73 C 314.8 73 315.2 73.5 315.2 73.5 C 314.8 74.1 314 74.4 313.2 74.4 C 311.6 74.4 310.4 73.2 310.4 71.7 C 310.4 70.1 311.5 69 313 69 C 314.5 69 315.6 70.1 315.6 71.7 C 315.6 71.7 315.5 71.8 315.5 71.9 Z M 311.1 71.4 C 311.1 71.4 314.9 71.4 314.9 71.4 C 314.8 70.3 314 69.6 313 69.6 C 312 69.6 311.2 70.3 311.1 71.4 Z M 319.5 67.4 C 319.5 67.1 319.7 66.9 320 66.9 C 320.3 66.9 320.5 67.1 320.5 67.4 C 320.5 67.7 320.3 67.9 320 67.9 C 319.7 67.9 319.5 67.7 319.5 67.4 Z M 319.6 69.1 L 320.3 69.1 L 320.3 74.3 L 319.6 74.3 L 319.6 69.1 Z M 327 71.3 C 327.02 71.26 327 74.3 327 74.3 L 326.3 74.3 C 326.3 74.3 326.31 71.33 326.3 71.3 C 326.3 70.2 325.7 69.7 324.7 69.7 C 323.6 69.7 322.9 70.4 322.9 71.6 C 322.89 71.55 322.9 74.3 322.9 74.3 L 322.2 74.3 L 322.2 69.1 L 322.9 69.1 C 322.9 69.1 322.86 70.02 322.9 70 C 323.2 69.4 323.9 69 324.9 69 C 326.1 69 327 69.8 327 71.3 Z M 334.2 69 C 334.2 69 334.2 69.7 334.2 69.7 C 334.2 69.7 334.1 69.7 334 69.7 C 332.9 69.7 332.3 70.4 332.3 71.6 C 332.28 71.63 332.3 74.3 332.3 74.3 L 331.6 74.3 L 331.6 69.1 L 332.2 69.1 C 332.2 69.1 332.25 70.08 332.2 70.1 C 332.6 69.4 333.2 69 334.2 69 Z M 340 71.9 C 340 71.9 335.6 71.9 335.6 71.9 C 335.6 73 336.5 73.7 337.6 73.7 C 338.3 73.7 338.8 73.5 339.2 73 C 339.2 73 339.6 73.5 339.6 73.5 C 339.2 74.1 338.4 74.4 337.6 74.4 C 336 74.4 334.8 73.2 334.8 71.7 C 334.8 70.1 335.9 69 337.4 69 C 338.9 69 340 70.1 340 71.7 C 340 71.7 340 71.8 340 71.9 Z M 335.6 71.4 C 335.6 71.4 339.3 71.4 339.3 71.4 C 339.2 70.3 338.4 69.6 337.4 69.6 C 336.4 69.6 335.6 70.3 335.6 71.4 Z M 341.4 66.9 L 342.1 66.9 L 342.1 74.3 L 341.4 74.3 L 341.4 66.9 Z M 348 71.1 C 347.97 71.05 348 74.3 348 74.3 L 347.3 74.3 C 347.3 74.3 347.3 73.49 347.3 73.5 C 347 74 346.4 74.4 345.5 74.4 C 344.3 74.4 343.6 73.7 343.6 72.8 C 343.6 72 344.1 71.3 345.6 71.3 C 345.59 71.34 347.3 71.3 347.3 71.3 C 347.3 71.3 347.27 71.02 347.3 71 C 347.3 70.1 346.8 69.6 345.8 69.6 C 345.1 69.6 344.5 69.9 344 70.3 C 344 70.3 343.7 69.7 343.7 69.7 C 344.2 69.3 345 69 345.8 69 C 347.2 69 348 69.7 348 71.1 Z M 347.3 72.7 C 347.27 72.73 347.3 71.9 347.3 71.9 C 347.3 71.9 345.61 71.87 345.6 71.9 C 344.6 71.9 344.3 72.3 344.3 72.8 C 344.3 73.4 344.8 73.8 345.6 73.8 C 346.4 73.8 347 73.4 347.3 72.7 Z M 352.5 74 C 352.2 74.2 351.8 74.4 351.4 74.4 C 350.4 74.4 349.9 73.8 349.9 72.8 C 349.87 72.83 349.9 69.7 349.9 69.7 L 348.9 69.7 L 348.9 69.1 L 349.9 69.1 L 349.9 67.9 L 350.6 67.9 L 350.6 69.1 L 352.2 69.1 L 352.2 69.7 L 350.6 69.7 C 350.6 69.7 350.58 72.79 350.6 72.8 C 350.6 73.4 350.9 73.8 351.5 73.8 C 351.8 73.8 352.1 73.7 352.3 73.5 C 352.3 73.5 352.5 74 352.5 74 Z M 353.5 67.4 C 353.5 67.1 353.8 66.9 354.1 66.9 C 354.4 66.9 354.6 67.1 354.6 67.4 C 354.6 67.7 354.4 67.9 354.1 67.9 C 353.8 67.9 353.5 67.7 353.5 67.4 Z M 353.7 69.1 L 354.4 69.1 L 354.4 74.3 L 353.7 74.3 L 353.7 69.1 Z M 355.8 71.7 C 355.8 70.1 357 69 358.5 69 C 360 69 361.2 70.1 361.2 71.7 C 361.2 73.2 360 74.4 358.5 74.4 C 357 74.4 355.8 73.2 355.8 71.7 Z M 360.4 71.7 C 360.4 70.5 359.6 69.6 358.5 69.6 C 357.4 69.6 356.5 70.5 356.5 71.7 C 356.5 72.9 357.4 73.7 358.5 73.7 C 359.6 73.7 360.4 72.9 360.4 71.7 Z M 367.4 71.3 C 367.43 71.26 367.4 74.3 367.4 74.3 L 366.7 74.3 C 366.7 74.3 366.72 71.33 366.7 71.3 C 366.7 70.2 366.1 69.7 365.1 69.7 C 364 69.7 363.3 70.4 363.3 71.6 C 363.3 71.55 363.3 74.3 363.3 74.3 L 362.6 74.3 L 362.6 69.1 L 363.3 69.1 C 363.3 69.1 363.27 70.02 363.3 70 C 363.6 69.4 364.4 69 365.3 69 C 366.5 69 367.4 69.8 367.4 71.3 Z M 374.7 74 C 374.5 74.2 374 74.4 373.6 74.4 C 372.6 74.4 372.1 73.8 372.1 72.8 C 372.1 72.83 372.1 69.7 372.1 69.7 L 371.2 69.7 L 371.2 69.1 L 372.1 69.1 L 372.1 67.9 L 372.8 67.9 L 372.8 69.1 L 374.4 69.1 L 374.4 69.7 L 372.8 69.7 C 372.8 69.7 372.81 72.79 372.8 72.8 C 372.8 73.4 373.1 73.8 373.7 73.8 C 374 73.8 374.3 73.7 374.5 73.5 C 374.5 73.5 374.7 74 374.7 74 Z M 375.3 71.7 C 375.3 70.1 376.4 69 378 69 C 379.5 69 380.6 70.1 380.6 71.7 C 380.6 73.2 379.5 74.4 378 74.4 C 376.4 74.4 375.3 73.2 375.3 71.7 Z M 379.9 71.7 C 379.9 70.5 379.1 69.6 378 69.6 C 376.9 69.6 376 70.5 376 71.7 C 376 72.9 376.9 73.7 378 73.7 C 379.1 73.7 379.9 72.9 379.9 71.7 Z M 388.7 71.1 C 388.69 71.05 388.7 74.3 388.7 74.3 L 388 74.3 C 388 74.3 388.01 73.49 388 73.5 C 387.7 74 387.1 74.4 386.2 74.4 C 385 74.4 384.3 73.7 384.3 72.8 C 384.3 72 384.8 71.3 386.3 71.3 C 386.31 71.34 388 71.3 388 71.3 C 388 71.3 387.98 71.02 388 71 C 388 70.1 387.5 69.6 386.5 69.6 C 385.8 69.6 385.2 69.9 384.7 70.3 C 384.7 70.3 384.4 69.7 384.4 69.7 C 384.9 69.3 385.7 69 386.6 69 C 387.9 69 388.7 69.7 388.7 71.1 Z M 388 72.7 C 387.98 72.73 388 71.9 388 71.9 C 388 71.9 386.33 71.87 386.3 71.9 C 385.3 71.9 385 72.3 385 72.8 C 385 73.4 385.5 73.8 386.3 73.8 C 387.1 73.8 387.7 73.4 388 72.7 Z M 398.1 69.1 C 398.1 69.1 398.11 73.67 398.1 73.7 C 398.1 75.5 397.2 76.3 395.5 76.3 C 394.5 76.3 393.6 76 393 75.5 C 393 75.5 393.4 75 393.4 75 C 393.9 75.4 394.6 75.7 395.5 75.7 C 396.8 75.7 397.4 75.1 397.4 73.8 C 397.4 73.8 397.4 73.1 397.4 73.1 C 397 73.8 396.2 74.1 395.3 74.1 C 393.8 74.1 392.7 73.1 392.7 71.6 C 392.7 70 393.8 69 395.3 69 C 396.2 69 397 69.4 397.4 70.1 C 397.43 70.06 397.4 69.1 397.4 69.1 L 398.1 69.1 Z M 397.4 71.6 C 397.4 70.4 396.6 69.6 395.4 69.6 C 394.3 69.6 393.4 70.4 393.4 71.6 C 393.4 72.7 394.3 73.5 395.4 73.5 C 396.6 73.5 397.4 72.7 397.4 71.6 Z M 399.8 67.4 C 399.8 67.1 400 66.9 400.3 66.9 C 400.6 66.9 400.9 67.1 400.9 67.4 C 400.9 67.7 400.6 67.9 400.3 67.9 C 400 67.9 399.8 67.7 399.8 67.4 Z M 400 69.1 L 400.7 69.1 L 400.7 74.3 L 400 74.3 L 400 69.1 Z M 407.1 69.1 L 404.8 74.3 L 404.1 74.3 L 401.7 69.1 L 402.5 69.1 L 404.4 73.5 L 406.4 69.1 L 407.1 69.1 Z M 412.6 71.9 C 412.6 71.9 408.2 71.9 408.2 71.9 C 408.3 73 409.1 73.7 410.3 73.7 C 410.9 73.7 411.5 73.5 411.9 73 C 411.9 73 412.3 73.5 412.3 73.5 C 411.8 74.1 411.1 74.4 410.3 74.4 C 408.6 74.4 407.5 73.2 407.5 71.7 C 407.5 70.1 408.6 69 410.1 69 C 411.6 69 412.6 70.1 412.6 71.7 C 412.6 71.7 412.6 71.8 412.6 71.9 Z M 408.2 71.4 C 408.2 71.4 411.9 71.4 411.9 71.4 C 411.9 70.3 411.1 69.6 410.1 69.6 C 409.1 69.6 408.3 70.3 408.2 71.4 Z M 418.9 71.3 C 418.87 71.26 418.9 74.3 418.9 74.3 L 418.2 74.3 C 418.2 74.3 418.16 71.33 418.2 71.3 C 418.2 70.2 417.6 69.7 416.6 69.7 C 415.5 69.7 414.7 70.4 414.7 71.6 C 414.74 71.55 414.7 74.3 414.7 74.3 L 414 74.3 L 414 69.1 L 414.7 69.1 C 414.7 69.1 414.71 70.02 414.7 70 C 415.1 69.4 415.8 69 416.7 69 C 418 69 418.9 69.8 418.9 71.3 Z " stroke="none" fill="#000"/>
  </g>
  <g id="Polygon112524">
    <path d="M 20.8 56.3 C 20.83 56.26 20.8 59.3 20.8 59.3 L 20.1 59.3 C 20.1 59.3 20.12 56.33 20.1 56.3 C 20.1 55.2 19.5 54.7 18.5 54.7 C 17.4 54.7 16.7 55.4 16.7 56.6 C 16.7 56.55 16.7 59.3 16.7 59.3 L 16 59.3 L 16 54.1 L 16.7 54.1 C 16.7 54.1 16.67 55.02 16.7 55 C 17 54.4 17.8 54 18.7 54 C 20 54 20.8 54.8 20.8 56.3 Z M 22.2 56.7 C 22.2 55.1 23.4 54 24.9 54 C 26.4 54 27.6 55.1 27.6 56.7 C 27.6 58.2 26.4 59.4 24.9 59.4 C 23.4 59.4 22.2 58.2 22.2 56.7 Z M 26.8 56.7 C 26.8 55.5 26 54.6 24.9 54.6 C 23.8 54.6 22.9 55.5 22.9 56.7 C 22.9 57.9 23.8 58.7 24.9 58.7 C 26 58.7 26.8 57.9 26.8 56.7 Z M 31.7 59 C 31.4 59.2 31 59.4 30.6 59.4 C 29.6 59.4 29.1 58.8 29.1 57.8 C 29.07 57.83 29.1 54.7 29.1 54.7 L 28.1 54.7 L 28.1 54.1 L 29.1 54.1 L 29.1 52.9 L 29.8 52.9 L 29.8 54.1 L 31.4 54.1 L 31.4 54.7 L 29.8 54.7 C 29.8 54.7 29.78 57.79 29.8 57.8 C 29.8 58.4 30.1 58.8 30.7 58.8 C 31 58.8 31.3 58.7 31.5 58.5 C 31.5 58.5 31.7 59 31.7 59 Z M 38.4 59 C 38.1 59.2 37.7 59.4 37.3 59.4 C 36.3 59.4 35.8 58.8 35.8 57.8 C 35.75 57.83 35.8 54.7 35.8 54.7 L 34.8 54.7 L 34.8 54.1 L 35.8 54.1 L 35.8 52.9 L 36.5 52.9 L 36.5 54.1 L 38.1 54.1 L 38.1 54.7 L 36.5 54.7 C 36.5 54.7 36.46 57.79 36.5 57.8 C 36.5 58.4 36.8 58.8 37.4 58.8 C 37.7 58.8 37.9 58.7 38.1 58.5 C 38.1 58.5 38.4 59 38.4 59 Z M 44.4 56.3 C 44.43 56.26 44.4 59.3 44.4 59.3 L 43.7 59.3 C 43.7 59.3 43.72 56.33 43.7 56.3 C 43.7 55.2 43.1 54.7 42.1 54.7 C 41 54.7 40.3 55.4 40.3 56.6 C 40.3 56.55 40.3 59.3 40.3 59.3 L 39.6 59.3 L 39.6 51.9 L 40.3 51.9 C 40.3 51.9 40.3 54.97 40.3 55 C 40.7 54.4 41.4 54 42.3 54 C 43.5 54 44.4 54.8 44.4 56.3 Z M 50.9 56.9 C 50.9 56.9 46.5 56.9 46.5 56.9 C 46.6 58 47.4 58.7 48.6 58.7 C 49.2 58.7 49.8 58.5 50.2 58 C 50.2 58 50.6 58.5 50.6 58.5 C 50.1 59.1 49.4 59.4 48.6 59.4 C 46.9 59.4 45.8 58.2 45.8 56.7 C 45.8 55.1 46.9 54 48.4 54 C 49.9 54 50.9 55.1 50.9 56.7 C 50.9 56.7 50.9 56.8 50.9 56.9 Z M 46.5 56.4 C 46.5 56.4 50.3 56.4 50.3 56.4 C 50.2 55.3 49.4 54.6 48.4 54.6 C 47.4 54.6 46.6 55.3 46.5 56.4 Z M 54.5 56.7 C 54.5 55.1 55.6 54 57.2 54 C 58.1 54 58.8 54.4 59.2 55.1 C 59.2 55.1 58.7 55.4 58.7 55.4 C 58.3 54.9 57.8 54.6 57.2 54.6 C 56 54.6 55.2 55.5 55.2 56.7 C 55.2 57.9 56 58.7 57.2 58.7 C 57.8 58.7 58.3 58.5 58.7 58 C 58.7 58 59.2 58.3 59.2 58.3 C 58.8 59 58.1 59.4 57.2 59.4 C 55.6 59.4 54.5 58.3 54.5 56.7 Z M 64.7 56.1 C 64.65 56.05 64.7 59.3 64.7 59.3 L 64 59.3 C 64 59.3 63.97 58.49 64 58.5 C 63.7 59 63 59.4 62.2 59.4 C 61 59.4 60.2 58.7 60.2 57.8 C 60.2 57 60.8 56.3 62.3 56.3 C 62.27 56.34 63.9 56.3 63.9 56.3 C 63.9 56.3 63.94 56.02 63.9 56 C 63.9 55.1 63.4 54.6 62.5 54.6 C 61.8 54.6 61.1 54.9 60.7 55.3 C 60.7 55.3 60.4 54.7 60.4 54.7 C 60.9 54.3 61.7 54 62.5 54 C 63.9 54 64.7 54.7 64.7 56.1 Z M 63.9 57.7 C 63.94 57.73 63.9 56.9 63.9 56.9 C 63.9 56.9 62.29 56.87 62.3 56.9 C 61.3 56.9 60.9 57.3 60.9 57.8 C 60.9 58.4 61.4 58.8 62.3 58.8 C 63.1 58.8 63.7 58.4 63.9 57.7 Z M 65.9 58.7 C 65.9 58.7 66.2 58.2 66.2 58.2 C 66.6 58.5 67.3 58.7 68.1 58.7 C 69.1 58.7 69.5 58.4 69.5 57.9 C 69.5 56.5 66.1 57.6 66.1 55.5 C 66.1 54.7 66.8 54 68.1 54 C 68.8 54 69.6 54.2 70 54.5 C 70 54.5 69.7 55.1 69.7 55.1 C 69.2 54.8 68.7 54.6 68.1 54.6 C 67.2 54.6 66.8 55 66.8 55.5 C 66.8 56.9 70.2 55.8 70.2 57.9 C 70.2 58.8 69.4 59.4 68 59.4 C 67.1 59.4 66.3 59.1 65.9 58.7 Z M 76.2 56.9 C 76.2 56.9 71.8 56.9 71.8 56.9 C 71.8 58 72.7 58.7 73.8 58.7 C 74.5 58.7 75 58.5 75.4 58 C 75.4 58 75.8 58.5 75.8 58.5 C 75.4 59.1 74.6 59.4 73.8 59.4 C 72.2 59.4 71.1 58.2 71.1 56.7 C 71.1 55.1 72.1 54 73.6 54 C 75.1 54 76.2 55.1 76.2 56.7 C 76.2 56.7 76.2 56.8 76.2 56.9 Z M 71.8 56.4 C 71.8 56.4 75.5 56.4 75.5 56.4 C 75.4 55.3 74.7 54.6 73.6 54.6 C 72.6 54.6 71.9 55.3 71.8 56.4 Z M 77.2 58.8 C 77.2 58.5 77.4 58.3 77.7 58.3 C 78 58.3 78.2 58.5 78.2 58.8 C 78.2 59.1 78 59.4 77.7 59.4 C 77.4 59.4 77.2 59.1 77.2 58.8 Z M 83.9 53 L 81.4 53 L 81.4 52.3 L 87.1 52.3 L 87.1 53 L 84.6 53 L 84.6 59.3 L 83.9 59.3 L 83.9 53 Z M 93 56.3 C 93.01 56.26 93 59.3 93 59.3 L 92.3 59.3 C 92.3 59.3 92.3 56.33 92.3 56.3 C 92.3 55.2 91.7 54.7 90.7 54.7 C 89.6 54.7 88.9 55.4 88.9 56.6 C 88.88 56.55 88.9 59.3 88.9 59.3 L 88.2 59.3 L 88.2 51.9 L 88.9 51.9 C 88.9 51.9 88.88 54.97 88.9 55 C 89.3 54.4 90 54 90.8 54 C 92.1 54 93 54.8 93 56.3 Z M 99.5 56.9 C 99.5 56.9 95.1 56.9 95.1 56.9 C 95.2 58 96 58.7 97.2 58.7 C 97.8 58.7 98.4 58.5 98.8 58 C 98.8 58 99.2 58.5 99.2 58.5 C 98.7 59.1 98 59.4 97.1 59.4 C 95.5 59.4 94.4 58.2 94.4 56.7 C 94.4 55.1 95.5 54 97 54 C 98.4 54 99.5 55.1 99.5 56.7 C 99.5 56.7 99.5 56.8 99.5 56.9 Z M 95.1 56.4 C 95.1 56.4 98.8 56.4 98.8 56.4 C 98.7 55.3 98 54.6 97 54.6 C 95.9 54.6 95.2 55.3 95.1 56.4 Z M 106.3 59 C 106.1 59.2 105.6 59.4 105.2 59.4 C 104.2 59.4 103.7 58.8 103.7 57.8 C 103.7 57.83 103.7 54.7 103.7 54.7 L 102.8 54.7 L 102.8 54.1 L 103.7 54.1 L 103.7 52.9 L 104.4 52.9 L 104.4 54.1 L 106 54.1 L 106 54.7 L 104.4 54.7 C 104.4 54.7 104.41 57.79 104.4 57.8 C 104.4 58.4 104.7 58.8 105.3 58.8 C 105.6 58.8 105.9 58.7 106.1 58.5 C 106.1 58.5 106.3 59 106.3 59 Z M 112 56.9 C 112 56.9 107.6 56.9 107.6 56.9 C 107.7 58 108.5 58.7 109.7 58.7 C 110.3 58.7 110.9 58.5 111.3 58 C 111.3 58 111.7 58.5 111.7 58.5 C 111.2 59.1 110.5 59.4 109.7 59.4 C 108 59.4 106.9 58.2 106.9 56.7 C 106.9 55.1 108 54 109.5 54 C 111 54 112 55.1 112 56.7 C 112 56.7 112 56.8 112 56.9 Z M 107.6 56.4 C 107.6 56.4 111.3 56.4 111.3 56.4 C 111.3 55.3 110.5 54.6 109.5 54.6 C 108.4 54.6 107.7 55.3 107.6 56.4 Z M 116.1 54 C 116.1 54 116.1 54.7 116.1 54.7 C 116 54.7 116 54.7 115.9 54.7 C 114.8 54.7 114.1 55.4 114.1 56.6 C 114.13 56.63 114.1 59.3 114.1 59.3 L 113.4 59.3 L 113.4 54.1 L 114.1 54.1 C 114.1 54.1 114.1 55.08 114.1 55.1 C 114.4 54.4 115.1 54 116.1 54 Z M 126 56.3 C 125.98 56.26 126 59.3 126 59.3 L 125.3 59.3 C 125.3 59.3 125.27 56.33 125.3 56.3 C 125.3 55.2 124.7 54.7 123.8 54.7 C 122.7 54.7 122 55.4 122 56.6 C 122 56.55 122 59.3 122 59.3 L 121.3 59.3 C 121.3 59.3 121.29 56.33 121.3 56.3 C 121.3 55.2 120.7 54.7 119.8 54.7 C 118.7 54.7 118 55.4 118 56.6 C 118.01 56.55 118 59.3 118 59.3 L 117.3 59.3 L 117.3 54.1 L 118 54.1 C 118 54.1 117.98 55.01 118 55 C 118.3 54.4 119 54 119.9 54 C 120.8 54 121.5 54.4 121.8 55.1 C 122.2 54.4 122.9 54 123.9 54 C 125.1 54 126 54.8 126 56.3 Z M 127.2 58.7 C 127.2 58.7 127.5 58.2 127.5 58.2 C 127.9 58.5 128.7 58.7 129.4 58.7 C 130.4 58.7 130.8 58.4 130.8 57.9 C 130.8 56.5 127.4 57.6 127.4 55.5 C 127.4 54.7 128.1 54 129.5 54 C 130.2 54 130.9 54.2 131.3 54.5 C 131.3 54.5 131 55.1 131 55.1 C 130.6 54.8 130 54.6 129.5 54.6 C 128.5 54.6 128.1 55 128.1 55.5 C 128.1 56.9 131.5 55.8 131.5 57.9 C 131.5 58.8 130.7 59.4 129.3 59.4 C 128.5 59.4 127.6 59.1 127.2 58.7 Z M 138.1 54 C 138.1 54 138.1 54.7 138.1 54.7 C 138 54.7 138 54.7 137.9 54.7 C 136.8 54.7 136.2 55.4 136.2 56.6 C 136.16 56.63 136.2 59.3 136.2 59.3 L 135.4 59.3 L 135.4 54.1 L 136.1 54.1 C 136.1 54.1 136.13 55.08 136.1 55.1 C 136.5 54.4 137.1 54 138.1 54 Z M 143.8 56.9 C 143.8 56.9 139.4 56.9 139.4 56.9 C 139.5 58 140.4 58.7 141.5 58.7 C 142.1 58.7 142.7 58.5 143.1 58 C 143.1 58 143.5 58.5 143.5 58.5 C 143 59.1 142.3 59.4 141.5 59.4 C 139.8 59.4 138.7 58.2 138.7 56.7 C 138.7 55.1 139.8 54 141.3 54 C 142.8 54 143.8 55.1 143.8 56.7 C 143.8 56.7 143.8 56.8 143.8 56.9 Z M 139.4 56.4 C 139.4 56.4 143.2 56.4 143.2 56.4 C 143.1 55.3 142.3 54.6 141.3 54.6 C 140.3 54.6 139.5 55.3 139.4 56.4 Z M 145.3 51.9 L 146 51.9 L 146 59.3 L 145.3 59.3 L 145.3 51.9 Z M 151.9 56.1 C 151.85 56.05 151.9 59.3 151.9 59.3 L 151.2 59.3 C 151.2 59.3 151.18 58.49 151.2 58.5 C 150.9 59 150.2 59.4 149.4 59.4 C 148.2 59.4 147.4 58.7 147.4 57.8 C 147.4 57 148 56.3 149.5 56.3 C 149.47 56.34 151.1 56.3 151.1 56.3 C 151.1 56.3 151.15 56.02 151.1 56 C 151.1 55.1 150.6 54.6 149.7 54.6 C 149 54.6 148.3 54.9 147.9 55.3 C 147.9 55.3 147.6 54.7 147.6 54.7 C 148.1 54.3 148.9 54 149.7 54 C 151.1 54 151.9 54.7 151.9 56.1 Z M 151.1 57.7 C 151.15 57.73 151.1 56.9 151.1 56.9 C 151.1 56.9 149.49 56.87 149.5 56.9 C 148.5 56.9 148.1 57.3 148.1 57.8 C 148.1 58.4 148.6 58.8 149.5 58.8 C 150.3 58.8 150.9 58.4 151.1 57.7 Z M 156.4 59 C 156.1 59.2 155.7 59.4 155.3 59.4 C 154.3 59.4 153.8 58.8 153.8 57.8 C 153.75 57.83 153.8 54.7 153.8 54.7 L 152.8 54.7 L 152.8 54.1 L 153.8 54.1 L 153.8 52.9 L 154.5 52.9 L 154.5 54.1 L 156.1 54.1 L 156.1 54.7 L 154.5 54.7 C 154.5 54.7 154.46 57.79 154.5 57.8 C 154.5 58.4 154.8 58.8 155.4 58.8 C 155.7 58.8 155.9 58.7 156.1 58.5 C 156.1 58.5 156.4 59 156.4 59 Z M 162.1 56.9 C 162.1 56.9 157.7 56.9 157.7 56.9 C 157.7 58 158.6 58.7 159.7 58.7 C 160.4 58.7 160.9 58.5 161.3 58 C 161.3 58 161.7 58.5 161.7 58.5 C 161.3 59.1 160.5 59.4 159.7 59.4 C 158.1 59.4 157 58.2 157 56.7 C 157 55.1 158 54 159.5 54 C 161 54 162.1 55.1 162.1 56.7 C 162.1 56.7 162.1 56.8 162.1 56.9 Z M 157.7 56.4 C 157.7 56.4 161.4 56.4 161.4 56.4 C 161.3 55.3 160.6 54.6 159.5 54.6 C 158.5 54.6 157.7 55.3 157.7 56.4 Z M 168.9 59 C 168.6 59.2 168.2 59.4 167.8 59.4 C 166.8 59.4 166.3 58.8 166.3 57.8 C 166.26 57.83 166.3 54.7 166.3 54.7 L 165.3 54.7 L 165.3 54.1 L 166.3 54.1 L 166.3 52.9 L 167 52.9 L 167 54.1 L 168.6 54.1 L 168.6 54.7 L 167 54.7 C 167 54.7 166.97 57.79 167 57.8 C 167 58.4 167.3 58.8 167.9 58.8 C 168.2 58.8 168.5 58.7 168.7 58.5 C 168.7 58.5 168.9 59 168.9 59 Z M 169.5 56.7 C 169.5 55.1 170.6 54 172.1 54 C 173.7 54 174.8 55.1 174.8 56.7 C 174.8 58.2 173.7 59.4 172.1 59.4 C 170.6 59.4 169.5 58.2 169.5 56.7 Z M 174.1 56.7 C 174.1 55.5 173.3 54.6 172.1 54.6 C 171 54.6 170.2 55.5 170.2 56.7 C 170.2 57.9 171 58.7 172.1 58.7 C 173.3 58.7 174.1 57.9 174.1 56.7 Z M 181.7 59 C 181.4 59.2 181 59.4 180.5 59.4 C 179.6 59.4 179 58.8 179 57.8 C 179 57.83 179 54.7 179 54.7 L 178.1 54.7 L 178.1 54.1 L 179 54.1 L 179 52.9 L 179.7 52.9 L 179.7 54.1 L 181.3 54.1 L 181.3 54.7 L 179.7 54.7 C 179.7 54.7 179.71 57.79 179.7 57.8 C 179.7 58.4 180 58.8 180.6 58.8 C 180.9 58.8 181.2 58.7 181.4 58.5 C 181.4 58.5 181.7 59 181.7 59 Z M 187.7 56.3 C 187.68 56.26 187.7 59.3 187.7 59.3 L 187 59.3 C 187 59.3 186.97 56.33 187 56.3 C 187 55.2 186.4 54.7 185.4 54.7 C 184.3 54.7 183.5 55.4 183.5 56.6 C 183.55 56.55 183.5 59.3 183.5 59.3 L 182.8 59.3 L 182.8 51.9 L 183.5 51.9 C 183.5 51.9 183.55 54.97 183.5 55 C 183.9 54.4 184.6 54 185.5 54 C 186.8 54 187.7 54.8 187.7 56.3 Z M 194.2 56.9 C 194.2 56.9 189.8 56.9 189.8 56.9 C 189.9 58 190.7 58.7 191.8 58.7 C 192.5 58.7 193.1 58.5 193.5 58 C 193.5 58 193.9 58.5 193.9 58.5 C 193.4 59.1 192.7 59.4 191.8 59.4 C 190.2 59.4 189.1 58.2 189.1 56.7 C 189.1 55.1 190.2 54 191.6 54 C 193.1 54 194.2 55.1 194.2 56.7 C 194.2 56.7 194.2 56.8 194.2 56.9 Z M 189.8 56.4 C 189.8 56.4 193.5 56.4 193.5 56.4 C 193.4 55.3 192.7 54.6 191.6 54.6 C 190.6 54.6 189.9 55.3 189.8 56.4 Z M 198.3 51.9 L 199 51.9 L 199 59.3 L 198.3 59.3 L 198.3 51.9 Z M 205.5 56.9 C 205.5 56.9 201.1 56.9 201.1 56.9 C 201.2 58 202 58.7 203.2 58.7 C 203.8 58.7 204.4 58.5 204.8 58 C 204.8 58 205.2 58.5 205.2 58.5 C 204.7 59.1 204 59.4 203.1 59.4 C 201.5 59.4 200.4 58.2 200.4 56.7 C 200.4 55.1 201.5 54 203 54 C 204.4 54 205.5 55.1 205.5 56.7 C 205.5 56.7 205.5 56.8 205.5 56.9 Z M 201.1 56.4 C 201.1 56.4 204.8 56.4 204.8 56.4 C 204.7 55.3 204 54.6 203 54.6 C 201.9 54.6 201.2 55.3 201.1 56.4 Z M 211.3 54.1 L 209 59.3 L 208.2 59.3 L 205.9 54.1 L 206.6 54.1 L 208.6 58.5 L 210.6 54.1 L 211.3 54.1 Z M 216.8 56.9 C 216.8 56.9 212.4 56.9 212.4 56.9 C 212.5 58 213.3 58.7 214.5 58.7 C 215.1 58.7 215.7 58.5 216.1 58 C 216.1 58 216.5 58.5 216.5 58.5 C 216 59.1 215.3 59.4 214.4 59.4 C 212.8 59.4 211.7 58.2 211.7 56.7 C 211.7 55.1 212.8 54 214.3 54 C 215.7 54 216.8 55.1 216.8 56.7 C 216.8 56.7 216.8 56.8 216.8 56.9 Z M 212.4 56.4 C 212.4 56.4 216.1 56.4 216.1 56.4 C 216 55.3 215.3 54.6 214.3 54.6 C 213.2 54.6 212.5 55.3 212.4 56.4 Z M 218.2 51.9 L 218.9 51.9 L 218.9 59.3 L 218.2 59.3 L 218.2 51.9 Z M 223 56.7 C 223 55.1 224.1 54 225.7 54 C 227.2 54 228.3 55.1 228.3 56.7 C 228.3 58.2 227.2 59.4 225.7 59.4 C 224.1 59.4 223 58.2 223 56.7 Z M 227.6 56.7 C 227.6 55.5 226.8 54.6 225.7 54.6 C 224.6 54.6 223.7 55.5 223.7 56.7 C 223.7 57.9 224.6 58.7 225.7 58.7 C 226.8 58.7 227.6 57.9 227.6 56.7 Z M 230.5 53.4 C 230.55 53.43 230.5 54.1 230.5 54.1 L 232.2 54.1 L 232.2 54.7 L 230.6 54.7 L 230.6 59.3 L 229.9 59.3 L 229.9 54.7 L 228.9 54.7 L 228.9 54.1 L 229.9 54.1 C 229.9 54.1 229.86 53.4 229.9 53.4 C 229.9 52.5 230.4 51.8 231.4 51.8 C 231.8 51.8 232.2 52 232.5 52.2 C 232.5 52.2 232.3 52.7 232.3 52.7 C 232.1 52.5 231.8 52.4 231.5 52.4 C 230.9 52.4 230.5 52.8 230.5 53.4 Z M 241.1 56.7 C 241.1 58.3 240 59.4 238.5 59.4 C 237.6 59.4 236.9 59 236.5 58.3 C 236.46 58.32 236.5 61.3 236.5 61.3 L 235.7 61.3 L 235.7 54.1 L 236.4 54.1 C 236.4 54.1 236.43 55.09 236.4 55.1 C 236.9 54.4 237.6 54 238.5 54 C 240 54 241.1 55.1 241.1 56.7 Z M 240.4 56.7 C 240.4 55.5 239.5 54.6 238.4 54.6 C 237.3 54.6 236.4 55.5 236.4 56.7 C 236.4 57.9 237.3 58.7 238.4 58.7 C 239.5 58.7 240.4 57.9 240.4 56.7 Z M 245.2 54 C 245.2 54 245.2 54.7 245.2 54.7 C 245.1 54.7 245 54.7 245 54.7 C 243.9 54.7 243.2 55.4 243.2 56.6 C 243.23 56.63 243.2 59.3 243.2 59.3 L 242.5 59.3 L 242.5 54.1 L 243.2 54.1 C 243.2 54.1 243.2 55.08 243.2 55.1 C 243.5 54.4 244.2 54 245.2 54 Z M 245.8 56.7 C 245.8 55.1 246.9 54 248.5 54 C 250 54 251.1 55.1 251.1 56.7 C 251.1 58.2 250 59.4 248.5 59.4 C 246.9 59.4 245.8 58.2 245.8 56.7 Z M 250.4 56.7 C 250.4 55.5 249.6 54.6 248.5 54.6 C 247.3 54.6 246.5 55.5 246.5 56.7 C 246.5 57.9 247.3 58.7 248.5 58.7 C 249.6 58.7 250.4 57.9 250.4 56.7 Z M 252.1 56.7 C 252.1 55.1 253.3 54 254.9 54 C 255.7 54 256.5 54.4 256.9 55.1 C 256.9 55.1 256.4 55.4 256.4 55.4 C 256 54.9 255.5 54.6 254.9 54.6 C 253.7 54.6 252.9 55.5 252.9 56.7 C 252.9 57.9 253.7 58.7 254.9 58.7 C 255.5 58.7 256 58.5 256.4 58 C 256.4 58 256.9 58.3 256.9 58.3 C 256.5 59 255.7 59.4 254.9 59.4 C 253.3 59.4 252.1 58.3 252.1 56.7 Z M 262.8 56.9 C 262.8 56.9 258.4 56.9 258.4 56.9 C 258.5 58 259.4 58.7 260.5 58.7 C 261.1 58.7 261.7 58.5 262.1 58 C 262.1 58 262.5 58.5 262.5 58.5 C 262 59.1 261.3 59.4 260.5 59.4 C 258.8 59.4 257.7 58.2 257.7 56.7 C 257.7 55.1 258.8 54 260.3 54 C 261.8 54 262.8 55.1 262.8 56.7 C 262.8 56.7 262.8 56.8 262.8 56.9 Z M 258.4 56.4 C 258.4 56.4 262.2 56.4 262.2 56.4 C 262.1 55.3 261.3 54.6 260.3 54.6 C 259.3 54.6 258.5 55.3 258.4 56.4 Z M 263.6 58.7 C 263.6 58.7 264 58.2 264 58.2 C 264.4 58.5 265.1 58.7 265.8 58.7 C 266.8 58.7 267.2 58.4 267.2 57.9 C 267.2 56.5 263.8 57.6 263.8 55.5 C 263.8 54.7 264.6 54 265.9 54 C 266.6 54 267.3 54.2 267.8 54.5 C 267.8 54.5 267.5 55.1 267.5 55.1 C 267 54.8 266.4 54.6 265.9 54.6 C 265 54.6 264.5 55 264.5 55.5 C 264.5 56.9 267.9 55.8 267.9 57.9 C 267.9 58.8 267.1 59.4 265.8 59.4 C 264.9 59.4 264.1 59.1 263.6 58.7 Z M 268.7 58.7 C 268.7 58.7 269 58.2 269 58.2 C 269.4 58.5 270.1 58.7 270.9 58.7 C 271.9 58.7 272.3 58.4 272.3 57.9 C 272.3 56.5 268.9 57.6 268.9 55.5 C 268.9 54.7 269.6 54 271 54 C 271.6 54 272.4 54.2 272.8 54.5 C 272.8 54.5 272.5 55.1 272.5 55.1 C 272 54.8 271.5 54.6 271 54.6 C 270 54.6 269.6 55 269.6 55.5 C 269.6 56.9 273 55.8 273 57.9 C 273 58.8 272.2 59.4 270.8 59.4 C 270 59.4 269.1 59.1 268.7 58.7 Z M 274.1 52.4 C 274.1 52.1 274.4 51.9 274.7 51.9 C 275 51.9 275.2 52.1 275.2 52.4 C 275.2 52.7 275 52.9 274.7 52.9 C 274.4 52.9 274.1 52.7 274.1 52.4 Z M 274.3 54.1 L 275 54.1 L 275 59.3 L 274.3 59.3 L 274.3 54.1 Z M 281.7 56.3 C 281.69 56.26 281.7 59.3 281.7 59.3 L 281 59.3 C 281 59.3 280.99 56.33 281 56.3 C 281 55.2 280.4 54.7 279.4 54.7 C 278.3 54.7 277.6 55.4 277.6 56.6 C 277.56 56.55 277.6 59.3 277.6 59.3 L 276.9 59.3 L 276.9 54.1 L 277.5 54.1 C 277.5 54.1 277.54 55.02 277.5 55 C 277.9 54.4 278.6 54 279.5 54 C 280.8 54 281.7 54.8 281.7 56.3 Z M 288.5 54.1 C 288.5 54.1 288.46 58.67 288.5 58.7 C 288.5 60.5 287.6 61.3 285.8 61.3 C 284.9 61.3 283.9 61 283.4 60.5 C 283.4 60.5 283.7 60 283.7 60 C 284.2 60.4 285 60.7 285.8 60.7 C 287.1 60.7 287.8 60.1 287.8 58.8 C 287.8 58.8 287.8 58.1 287.8 58.1 C 287.3 58.8 286.6 59.1 285.7 59.1 C 284.2 59.1 283.1 58.1 283.1 56.6 C 283.1 55 284.2 54 285.7 54 C 286.6 54 287.3 54.4 287.8 55.1 C 287.78 55.06 287.8 54.1 287.8 54.1 L 288.5 54.1 Z M 287.8 56.6 C 287.8 55.4 286.9 54.6 285.8 54.6 C 284.6 54.6 283.8 55.4 283.8 56.6 C 283.8 57.7 284.6 58.5 285.8 58.5 C 286.9 58.5 287.8 57.7 287.8 56.6 Z M 297.8 54.1 L 297.8 59.3 L 297.1 59.3 C 297.1 59.3 297.13 58.35 297.1 58.4 C 296.8 59 296.1 59.4 295.2 59.4 C 293.9 59.4 293 58.6 293 57.1 C 293.02 57.1 293 54.1 293 54.1 L 293.7 54.1 C 293.7 54.1 293.73 57.03 293.7 57 C 293.7 58.2 294.3 58.7 295.3 58.7 C 296.4 58.7 297.1 58 297.1 56.8 C 297.1 56.81 297.1 54.1 297.1 54.1 L 297.8 54.1 Z M 299.1 58.7 C 299.1 58.7 299.4 58.2 299.4 58.2 C 299.8 58.5 300.5 58.7 301.3 58.7 C 302.3 58.7 302.7 58.4 302.7 57.9 C 302.7 56.5 299.3 57.6 299.3 55.5 C 299.3 54.7 300 54 301.4 54 C 302.1 54 302.8 54.2 303.2 54.5 C 303.2 54.5 302.9 55.1 302.9 55.1 C 302.5 54.8 301.9 54.6 301.4 54.6 C 300.4 54.6 300 55 300 55.5 C 300 56.9 303.4 55.8 303.4 57.9 C 303.4 58.8 302.6 59.4 301.2 59.4 C 300.4 59.4 299.5 59.1 299.1 58.7 Z M 309.4 56.9 C 309.4 56.9 305 56.9 305 56.9 C 305.1 58 305.9 58.7 307.1 58.7 C 307.7 58.7 308.3 58.5 308.7 58 C 308.7 58 309.1 58.5 309.1 58.5 C 308.6 59.1 307.9 59.4 307 59.4 C 305.4 59.4 304.3 58.2 304.3 56.7 C 304.3 55.1 305.4 54 306.9 54 C 308.3 54 309.4 55.1 309.4 56.7 C 309.4 56.7 309.4 56.8 309.4 56.9 Z M 305 56.4 C 305 56.4 308.7 56.4 308.7 56.4 C 308.6 55.3 307.9 54.6 306.9 54.6 C 305.8 54.6 305.1 55.3 305 56.4 Z M 315.7 51.9 L 315.7 59.3 L 315.1 59.3 C 315.1 59.3 315.06 58.27 315.1 58.3 C 314.6 59 313.9 59.4 313 59.4 C 311.5 59.4 310.4 58.3 310.4 56.7 C 310.4 55.1 311.5 54 313 54 C 313.9 54 314.6 54.4 315 55.1 C 315.03 55.05 315 51.9 315 51.9 L 315.7 51.9 Z M 315 56.7 C 315 55.5 314.2 54.6 313.1 54.6 C 312 54.6 311.1 55.5 311.1 56.7 C 311.1 57.9 312 58.7 313.1 58.7 C 314.2 58.7 315 57.9 315 56.7 Z M 325.7 56.7 C 325.7 58.3 324.5 59.4 323 59.4 C 322.2 59.4 321.4 59 321 58.3 C 321.02 58.27 321 59.3 321 59.3 L 320.3 59.3 L 320.3 51.9 L 321 51.9 C 321 51.9 321.05 55.05 321 55.1 C 321.5 54.4 322.2 54 323 54 C 324.5 54 325.7 55.1 325.7 56.7 Z M 325 56.7 C 325 55.5 324.1 54.6 323 54.6 C 321.9 54.6 321 55.5 321 56.7 C 321 57.9 321.9 58.7 323 58.7 C 324.1 58.7 325 57.9 325 56.7 Z M 331.5 54.1 C 331.5 54.1 328.83 59.94 328.8 59.9 C 328.4 61 327.8 61.3 327.1 61.3 C 326.6 61.3 326.1 61.1 325.8 60.8 C 325.8 60.8 326.1 60.3 326.1 60.3 C 326.4 60.6 326.7 60.7 327.1 60.7 C 327.6 60.7 327.9 60.5 328.2 59.8 C 328.18 59.81 328.4 59.3 328.4 59.3 L 326.1 54.1 L 326.8 54.1 L 328.8 58.5 L 330.8 54.1 L 331.5 54.1 Z M 339 56.1 C 339.05 56.05 339 59.3 339 59.3 L 338.4 59.3 C 338.4 59.3 338.37 58.49 338.4 58.5 C 338 59 337.4 59.4 336.6 59.4 C 335.4 59.4 334.6 58.7 334.6 57.8 C 334.6 57 335.2 56.3 336.7 56.3 C 336.67 56.34 338.3 56.3 338.3 56.3 C 338.3 56.3 338.34 56.02 338.3 56 C 338.3 55.1 337.8 54.6 336.8 54.6 C 336.2 54.6 335.5 54.9 335.1 55.3 C 335.1 55.3 334.8 54.7 334.8 54.7 C 335.3 54.3 336.1 54 336.9 54 C 338.3 54 339 54.7 339 56.1 Z M 338.3 57.7 C 338.34 57.73 338.3 56.9 338.3 56.9 C 338.3 56.9 336.69 56.87 336.7 56.9 C 335.7 56.9 335.3 57.3 335.3 57.8 C 335.3 58.4 335.8 58.8 336.7 58.8 C 337.5 58.8 338.1 58.4 338.3 57.7 Z M 345.7 56.3 C 345.7 56.26 345.7 59.3 345.7 59.3 L 345 59.3 C 345 59.3 344.99 56.33 345 56.3 C 345 55.2 344.4 54.7 343.4 54.7 C 342.3 54.7 341.6 55.4 341.6 56.6 C 341.57 56.55 341.6 59.3 341.6 59.3 L 340.9 59.3 L 340.9 54.1 L 341.5 54.1 C 341.5 54.1 341.54 55.02 341.5 55 C 341.9 54.4 342.6 54 343.5 54 C 344.8 54 345.7 54.8 345.7 56.3 Z M 354.8 56.9 C 354.8 56.9 350.4 56.9 350.4 56.9 C 350.5 58 351.4 58.7 352.5 58.7 C 353.1 58.7 353.7 58.5 354.1 58 C 354.1 58 354.5 58.5 354.5 58.5 C 354 59.1 353.3 59.4 352.5 59.4 C 350.8 59.4 349.7 58.2 349.7 56.7 C 349.7 55.1 350.8 54 352.3 54 C 353.8 54 354.8 55.1 354.8 56.7 C 354.8 56.7 354.8 56.8 354.8 56.9 Z M 350.4 56.4 C 350.4 56.4 354.2 56.4 354.2 56.4 C 354.1 55.3 353.3 54.6 352.3 54.6 C 351.3 54.6 350.5 55.3 350.4 56.4 Z M 364.9 56.3 C 364.92 56.26 364.9 59.3 364.9 59.3 L 364.2 59.3 C 364.2 59.3 364.21 56.33 364.2 56.3 C 364.2 55.2 363.7 54.7 362.7 54.7 C 361.6 54.7 360.9 55.4 360.9 56.6 C 360.94 56.55 360.9 59.3 360.9 59.3 L 360.2 59.3 C 360.2 59.3 360.23 56.33 360.2 56.3 C 360.2 55.2 359.7 54.7 358.7 54.7 C 357.6 54.7 357 55.4 357 56.6 C 356.95 56.55 357 59.3 357 59.3 L 356.2 59.3 L 356.2 54.1 L 356.9 54.1 C 356.9 54.1 356.92 55.01 356.9 55 C 357.3 54.4 358 54 358.9 54 C 359.7 54 360.4 54.4 360.7 55.1 C 361.1 54.4 361.9 54 362.8 54 C 364.1 54 364.9 54.8 364.9 56.3 Z M 372.1 56.7 C 372.1 58.3 371 59.4 369.5 59.4 C 368.6 59.4 367.9 59 367.5 58.3 C 367.46 58.32 367.5 61.3 367.5 61.3 L 366.8 61.3 L 366.8 54.1 L 367.4 54.1 C 367.4 54.1 367.43 55.09 367.4 55.1 C 367.9 54.4 368.6 54 369.5 54 C 371 54 372.1 55.1 372.1 56.7 Z M 371.4 56.7 C 371.4 55.5 370.5 54.6 369.4 54.6 C 368.3 54.6 367.5 55.5 367.5 56.7 C 367.5 57.9 368.3 58.7 369.4 58.7 C 370.5 58.7 371.4 57.9 371.4 56.7 Z M 373.5 51.9 L 374.2 51.9 L 374.2 59.3 L 373.5 59.3 L 373.5 51.9 Z M 375.7 56.7 C 375.7 55.1 376.8 54 378.3 54 C 379.9 54 381 55.1 381 56.7 C 381 58.2 379.9 59.4 378.3 59.4 C 376.8 59.4 375.7 58.2 375.7 56.7 Z M 380.3 56.7 C 380.3 55.5 379.5 54.6 378.3 54.6 C 377.2 54.6 376.4 55.5 376.4 56.7 C 376.4 57.9 377.2 58.7 378.3 58.7 C 379.5 58.7 380.3 57.9 380.3 56.7 Z M 386.8 54.1 C 386.8 54.1 384.17 59.94 384.2 59.9 C 383.7 61 383.2 61.3 382.4 61.3 C 381.9 61.3 381.5 61.1 381.1 60.8 C 381.1 60.8 381.5 60.3 381.5 60.3 C 381.7 60.6 382.1 60.7 382.4 60.7 C 382.9 60.7 383.2 60.5 383.5 59.8 C 383.52 59.81 383.8 59.3 383.8 59.3 L 381.4 54.1 L 382.1 54.1 L 384.1 58.5 L 386.1 54.1 L 386.8 54.1 Z M 392.3 56.9 C 392.3 56.9 387.9 56.9 387.9 56.9 C 388 58 388.8 58.7 390 58.7 C 390.6 58.7 391.2 58.5 391.6 58 C 391.6 58 392 58.5 392 58.5 C 391.5 59.1 390.8 59.4 389.9 59.4 C 388.3 59.4 387.2 58.2 387.2 56.7 C 387.2 55.1 388.3 54 389.8 54 C 391.2 54 392.3 55.1 392.3 56.7 C 392.3 56.7 392.3 56.8 392.3 56.9 Z M 387.9 56.4 C 387.9 56.4 391.6 56.4 391.6 56.4 C 391.5 55.3 390.8 54.6 389.8 54.6 C 388.7 54.6 388 55.3 387.9 56.4 Z M 398.4 56.9 C 398.4 56.9 394 56.9 394 56.9 C 394.1 58 394.9 58.7 396.1 58.7 C 396.7 58.7 397.3 58.5 397.7 58 C 397.7 58 398.1 58.5 398.1 58.5 C 397.6 59.1 396.9 59.4 396.1 59.4 C 394.4 59.4 393.3 58.2 393.3 56.7 C 393.3 55.1 394.4 54 395.9 54 C 397.4 54 398.4 55.1 398.4 56.7 C 398.4 56.7 398.4 56.8 398.4 56.9 Z M 394 56.4 C 394 56.4 397.7 56.4 397.7 56.4 C 397.7 55.3 396.9 54.6 395.9 54.6 C 394.9 54.6 394.1 55.3 394 56.4 Z M 406.5 56.1 C 406.47 56.05 406.5 59.3 406.5 59.3 L 405.8 59.3 C 405.8 59.3 405.79 58.49 405.8 58.5 C 405.5 59 404.8 59.4 404 59.4 C 402.8 59.4 402.1 58.7 402.1 57.8 C 402.1 57 402.6 56.3 404.1 56.3 C 404.09 56.34 405.8 56.3 405.8 56.3 C 405.8 56.3 405.76 56.02 405.8 56 C 405.8 55.1 405.2 54.6 404.3 54.6 C 403.6 54.6 402.9 54.9 402.5 55.3 C 402.5 55.3 402.2 54.7 402.2 54.7 C 402.7 54.3 403.5 54 404.3 54 C 405.7 54 406.5 54.7 406.5 56.1 Z M 405.8 57.7 C 405.76 57.73 405.8 56.9 405.8 56.9 C 405.8 56.9 404.11 56.87 404.1 56.9 C 403.1 56.9 402.8 57.3 402.8 57.8 C 402.8 58.4 403.2 58.8 404.1 58.8 C 404.9 58.8 405.5 58.4 405.8 57.7 Z M 407.7 58.7 C 407.7 58.7 408 58.2 408 58.2 C 408.4 58.5 409.1 58.7 409.9 58.7 C 410.9 58.7 411.3 58.4 411.3 57.9 C 411.3 56.5 407.9 57.6 407.9 55.5 C 407.9 54.7 408.6 54 410 54 C 410.6 54 411.4 54.2 411.8 54.5 C 411.8 54.5 411.5 55.1 411.5 55.1 C 411 54.8 410.5 54.6 410 54.6 C 409 54.6 408.6 55 408.6 55.5 C 408.6 56.9 412 55.8 412 57.9 C 412 58.8 411.2 59.4 409.8 59.4 C 409 59.4 408.1 59.1 407.7 58.7 Z " stroke="none" fill="#000"/>
  </g>
  <g id="Polygon112523">
    <path d="M 18.6 39 C 18.6 39 18.6 39.7 18.6 39.7 C 18.6 39.7 18.5 39.7 18.5 39.7 C 17.4 39.7 16.7 40.4 16.7 41.6 C 16.7 41.63 16.7 44.3 16.7 44.3 L 16 44.3 L 16 39.1 L 16.7 39.1 C 16.7 39.1 16.67 40.08 16.7 40.1 C 17 39.4 17.7 39 18.6 39 Z M 24.4 41.9 C 24.4 41.9 20 41.9 20 41.9 C 20.1 43 20.9 43.7 22.1 43.7 C 22.7 43.7 23.3 43.5 23.7 43 C 23.7 43 24.1 43.5 24.1 43.5 C 23.6 44.1 22.9 44.4 22 44.4 C 20.4 44.4 19.3 43.2 19.3 41.7 C 19.3 40.1 20.4 39 21.8 39 C 23.3 39 24.4 40.1 24.4 41.7 C 24.4 41.7 24.4 41.8 24.4 41.9 Z M 20 41.4 C 20 41.4 23.7 41.4 23.7 41.4 C 23.6 40.3 22.9 39.6 21.8 39.6 C 20.8 39.6 20.1 40.3 20 41.4 Z M 25.8 36.9 L 26.5 36.9 L 26.5 44.3 L 25.8 44.3 L 25.8 36.9 Z M 32.4 41.1 C 32.4 41.05 32.4 44.3 32.4 44.3 L 31.7 44.3 C 31.7 44.3 31.72 43.49 31.7 43.5 C 31.4 44 30.8 44.4 29.9 44.4 C 28.7 44.4 28 43.7 28 42.8 C 28 42 28.5 41.3 30 41.3 C 30.02 41.34 31.7 41.3 31.7 41.3 C 31.7 41.3 31.69 41.02 31.7 41 C 31.7 40.1 31.2 39.6 30.2 39.6 C 29.5 39.6 28.9 39.9 28.4 40.3 C 28.4 40.3 28.1 39.7 28.1 39.7 C 28.7 39.3 29.4 39 30.3 39 C 31.6 39 32.4 39.7 32.4 41.1 Z M 31.7 42.7 C 31.69 42.73 31.7 41.9 31.7 41.9 C 31.7 41.9 30.04 41.87 30 41.9 C 29 41.9 28.7 42.3 28.7 42.8 C 28.7 43.4 29.2 43.8 30 43.8 C 30.8 43.8 31.4 43.4 31.7 42.7 Z M 36.9 44 C 36.7 44.2 36.2 44.4 35.8 44.4 C 34.8 44.4 34.3 43.8 34.3 42.8 C 34.29 42.83 34.3 39.7 34.3 39.7 L 33.4 39.7 L 33.4 39.1 L 34.3 39.1 L 34.3 37.9 L 35 37.9 L 35 39.1 L 36.6 39.1 L 36.6 39.7 L 35 39.7 C 35 39.7 35 42.79 35 42.8 C 35 43.4 35.3 43.8 35.9 43.8 C 36.2 43.8 36.5 43.7 36.7 43.5 C 36.7 43.5 36.9 44 36.9 44 Z M 42.6 41.9 C 42.6 41.9 38.2 41.9 38.2 41.9 C 38.3 43 39.1 43.7 40.3 43.7 C 40.9 43.7 41.5 43.5 41.9 43 C 41.9 43 42.3 43.5 42.3 43.5 C 41.8 44.1 41.1 44.4 40.3 44.4 C 38.6 44.4 37.5 43.2 37.5 41.7 C 37.5 40.1 38.6 39 40.1 39 C 41.5 39 42.6 40.1 42.6 41.7 C 42.6 41.7 42.6 41.8 42.6 41.9 Z M 38.2 41.4 C 38.2 41.4 41.9 41.4 41.9 41.4 C 41.8 40.3 41.1 39.6 40.1 39.6 C 39 39.6 38.3 40.3 38.2 41.4 Z M 49.5 44 C 49.2 44.2 48.8 44.4 48.3 44.4 C 47.4 44.4 46.8 43.8 46.8 42.8 C 46.8 42.83 46.8 39.7 46.8 39.7 L 45.9 39.7 L 45.9 39.1 L 46.8 39.1 L 46.8 37.9 L 47.5 37.9 L 47.5 39.1 L 49.1 39.1 L 49.1 39.7 L 47.5 39.7 C 47.5 39.7 47.51 42.79 47.5 42.8 C 47.5 43.4 47.8 43.8 48.4 43.8 C 48.7 43.8 49 43.7 49.2 43.5 C 49.2 43.5 49.5 44 49.5 44 Z M 50 41.7 C 50 40.1 51.1 39 52.7 39 C 54.2 39 55.4 40.1 55.4 41.7 C 55.4 43.2 54.2 44.4 52.7 44.4 C 51.1 44.4 50 43.2 50 41.7 Z M 54.6 41.7 C 54.6 40.5 53.8 39.6 52.7 39.6 C 51.6 39.6 50.7 40.5 50.7 41.7 C 50.7 42.9 51.6 43.7 52.7 43.7 C 53.8 43.7 54.6 42.9 54.6 41.7 Z M 63.4 41.1 C 63.39 41.05 63.4 44.3 63.4 44.3 L 62.7 44.3 C 62.7 44.3 62.71 43.49 62.7 43.5 C 62.4 44 61.8 44.4 60.9 44.4 C 59.7 44.4 59 43.7 59 42.8 C 59 42 59.5 41.3 61 41.3 C 61.01 41.34 62.7 41.3 62.7 41.3 C 62.7 41.3 62.68 41.02 62.7 41 C 62.7 40.1 62.2 39.6 61.2 39.6 C 60.5 39.6 59.9 39.9 59.4 40.3 C 59.4 40.3 59.1 39.7 59.1 39.7 C 59.7 39.3 60.4 39 61.3 39 C 62.6 39 63.4 39.7 63.4 41.1 Z M 62.7 42.7 C 62.68 42.73 62.7 41.9 62.7 41.9 C 62.7 41.9 61.03 41.87 61 41.9 C 60 41.9 59.7 42.3 59.7 42.8 C 59.7 43.4 60.2 43.8 61 43.8 C 61.8 43.8 62.4 43.4 62.7 42.7 Z M 67.9 36.9 L 68.7 36.9 L 68.7 44.3 L 67.9 44.3 L 67.9 36.9 Z M 74.5 41.1 C 74.53 41.05 74.5 44.3 74.5 44.3 L 73.9 44.3 C 73.9 44.3 73.85 43.49 73.9 43.5 C 73.5 44 72.9 44.4 72 44.4 C 70.9 44.4 70.1 43.7 70.1 42.8 C 70.1 42 70.6 41.3 72.2 41.3 C 72.15 41.34 73.8 41.3 73.8 41.3 C 73.8 41.3 73.82 41.02 73.8 41 C 73.8 40.1 73.3 39.6 72.3 39.6 C 71.7 39.6 71 39.9 70.6 40.3 C 70.6 40.3 70.3 39.7 70.3 39.7 C 70.8 39.3 71.6 39 72.4 39 C 73.8 39 74.5 39.7 74.5 41.1 Z M 73.8 42.7 C 73.82 42.73 73.8 41.9 73.8 41.9 C 73.8 41.9 72.17 41.87 72.2 41.9 C 71.2 41.9 70.8 42.3 70.8 42.8 C 70.8 43.4 71.3 43.8 72.2 43.8 C 73 43.8 73.5 43.4 73.8 42.7 Z M 75.9 41.7 C 75.9 40.1 77.1 39 78.6 39 C 79.5 39 80.3 39.4 80.7 40.1 C 80.7 40.1 80.2 40.4 80.2 40.4 C 79.8 39.9 79.2 39.6 78.6 39.6 C 77.5 39.6 76.6 40.5 76.6 41.7 C 76.6 42.9 77.5 43.7 78.6 43.7 C 79.2 43.7 79.8 43.5 80.2 43 C 80.2 43 80.7 43.3 80.7 43.3 C 80.3 44 79.5 44.4 78.6 44.4 C 77.1 44.4 75.9 43.3 75.9 41.7 Z M 83.9 41.7 L 82.7 42.8 L 82.7 44.3 L 82 44.3 L 82 36.9 L 82.7 36.9 L 82.7 41.9 L 85.8 39.1 L 86.7 39.1 L 84.5 41.2 L 86.9 44.3 L 86.1 44.3 L 83.9 41.7 Z M 90.1 41.7 C 90.1 40.1 91.2 39 92.8 39 C 94.3 39 95.4 40.1 95.4 41.7 C 95.4 43.2 94.3 44.4 92.8 44.4 C 91.2 44.4 90.1 43.2 90.1 41.7 Z M 94.7 41.7 C 94.7 40.5 93.9 39.6 92.8 39.6 C 91.7 39.6 90.8 40.5 90.8 41.7 C 90.8 42.9 91.7 43.7 92.8 43.7 C 93.9 43.7 94.7 42.9 94.7 41.7 Z M 97.6 38.4 C 97.64 38.43 97.6 39.1 97.6 39.1 L 99.3 39.1 L 99.3 39.7 L 97.7 39.7 L 97.7 44.3 L 97 44.3 L 97 39.7 L 96 39.7 L 96 39.1 L 97 39.1 C 97 39.1 96.95 38.4 97 38.4 C 97 37.5 97.5 36.8 98.5 36.8 C 98.9 36.8 99.3 37 99.6 37.2 C 99.6 37.2 99.4 37.7 99.4 37.7 C 99.2 37.5 98.9 37.4 98.6 37.4 C 98 37.4 97.6 37.8 97.6 38.4 Z M 108.2 41.7 C 108.2 43.3 107.1 44.4 105.6 44.4 C 104.7 44.4 104 44 103.6 43.3 C 103.55 43.32 103.6 46.3 103.6 46.3 L 102.8 46.3 L 102.8 39.1 L 103.5 39.1 C 103.5 39.1 103.52 40.09 103.5 40.1 C 104 39.4 104.7 39 105.6 39 C 107.1 39 108.2 40.1 108.2 41.7 Z M 107.5 41.7 C 107.5 40.5 106.6 39.6 105.5 39.6 C 104.4 39.6 103.5 40.5 103.5 41.7 C 103.5 42.9 104.4 43.7 105.5 43.7 C 106.6 43.7 107.5 42.9 107.5 41.7 Z M 114.3 41.9 C 114.3 41.9 109.9 41.9 109.9 41.9 C 110 43 110.8 43.7 112 43.7 C 112.6 43.7 113.2 43.5 113.6 43 C 113.6 43 114 43.5 114 43.5 C 113.5 44.1 112.8 44.4 111.9 44.4 C 110.3 44.4 109.2 43.2 109.2 41.7 C 109.2 40.1 110.3 39 111.7 39 C 113.2 39 114.3 40.1 114.3 41.7 C 114.3 41.7 114.3 41.8 114.3 41.9 Z M 109.9 41.4 C 109.9 41.4 113.6 41.4 113.6 41.4 C 113.5 40.3 112.8 39.6 111.7 39.6 C 110.7 39.6 110 40.3 109.9 41.4 Z M 118.4 39 C 118.4 39 118.4 39.7 118.4 39.7 C 118.3 39.7 118.2 39.7 118.2 39.7 C 117.1 39.7 116.4 40.4 116.4 41.6 C 116.41 41.63 116.4 44.3 116.4 44.3 L 115.7 44.3 L 115.7 39.1 L 116.4 39.1 C 116.4 39.1 116.38 40.08 116.4 40.1 C 116.7 39.4 117.4 39 118.4 39 Z M 119 43.7 C 119 43.7 119.3 43.2 119.3 43.2 C 119.8 43.5 120.5 43.7 121.2 43.7 C 122.2 43.7 122.6 43.4 122.6 42.9 C 122.6 41.5 119.2 42.6 119.2 40.5 C 119.2 39.7 120 39 121.3 39 C 122 39 122.7 39.2 123.2 39.5 C 123.2 39.5 122.8 40.1 122.8 40.1 C 122.4 39.8 121.8 39.6 121.3 39.6 C 120.3 39.6 119.9 40 119.9 40.5 C 119.9 41.9 123.3 40.8 123.3 42.9 C 123.3 43.8 122.5 44.4 121.2 44.4 C 120.3 44.4 119.5 44.1 119 43.7 Z M 124.2 41.7 C 124.2 40.1 125.4 39 126.9 39 C 128.4 39 129.6 40.1 129.6 41.7 C 129.6 43.2 128.4 44.4 126.9 44.4 C 125.4 44.4 124.2 43.2 124.2 41.7 Z M 128.8 41.7 C 128.8 40.5 128 39.6 126.9 39.6 C 125.8 39.6 124.9 40.5 124.9 41.7 C 124.9 42.9 125.8 43.7 126.9 43.7 C 128 43.7 128.8 42.9 128.8 41.7 Z M 135.8 41.3 C 135.83 41.26 135.8 44.3 135.8 44.3 L 135.1 44.3 C 135.1 44.3 135.12 41.33 135.1 41.3 C 135.1 40.2 134.5 39.7 133.5 39.7 C 132.4 39.7 131.7 40.4 131.7 41.6 C 131.7 41.55 131.7 44.3 131.7 44.3 L 131 44.3 L 131 39.1 L 131.7 39.1 C 131.7 39.1 131.67 40.02 131.7 40 C 132 39.4 132.8 39 133.7 39 C 134.9 39 135.8 39.8 135.8 41.3 Z M 141.6 41.1 C 141.65 41.05 141.6 44.3 141.6 44.3 L 141 44.3 C 141 44.3 140.97 43.49 141 43.5 C 140.6 44 140 44.4 139.2 44.4 C 138 44.4 137.2 43.7 137.2 42.8 C 137.2 42 137.8 41.3 139.3 41.3 C 139.27 41.34 140.9 41.3 140.9 41.3 C 140.9 41.3 140.94 41.02 140.9 41 C 140.9 40.1 140.4 39.6 139.4 39.6 C 138.8 39.6 138.1 39.9 137.7 40.3 C 137.7 40.3 137.4 39.7 137.4 39.7 C 137.9 39.3 138.7 39 139.5 39 C 140.9 39 141.6 39.7 141.6 41.1 Z M 140.9 42.7 C 140.94 42.73 140.9 41.9 140.9 41.9 C 140.9 41.9 139.29 41.87 139.3 41.9 C 138.3 41.9 137.9 42.3 137.9 42.8 C 137.9 43.4 138.4 43.8 139.3 43.8 C 140.1 43.8 140.7 43.4 140.9 42.7 Z M 143.5 36.9 L 144.2 36.9 L 144.2 44.3 L 143.5 44.3 L 143.5 36.9 Z M 150.7 41.7 L 149.5 42.8 L 149.5 44.3 L 148.8 44.3 L 148.8 36.9 L 149.5 36.9 L 149.5 41.9 L 152.6 39.1 L 153.5 39.1 L 151.3 41.2 L 153.7 44.3 L 152.8 44.3 L 150.7 41.7 Z M 159.6 41.3 C 159.64 41.26 159.6 44.3 159.6 44.3 L 158.9 44.3 C 158.9 44.3 158.93 41.33 158.9 41.3 C 158.9 40.2 158.3 39.7 157.3 39.7 C 156.2 39.7 155.5 40.4 155.5 41.6 C 155.51 41.55 155.5 44.3 155.5 44.3 L 154.8 44.3 L 154.8 39.1 L 155.5 39.1 C 155.5 39.1 155.48 40.02 155.5 40 C 155.9 39.4 156.6 39 157.5 39 C 158.8 39 159.6 39.8 159.6 41.3 Z M 161 41.7 C 161 40.1 162.2 39 163.7 39 C 165.2 39 166.4 40.1 166.4 41.7 C 166.4 43.2 165.2 44.4 163.7 44.4 C 162.2 44.4 161 43.2 161 41.7 Z M 165.7 41.7 C 165.7 40.5 164.8 39.6 163.7 39.6 C 162.6 39.6 161.7 40.5 161.7 41.7 C 161.7 42.9 162.6 43.7 163.7 43.7 C 164.8 43.7 165.7 42.9 165.7 41.7 Z M 175.5 39.1 L 173.5 44.3 L 172.8 44.3 L 171.2 40 L 169.5 44.3 L 168.8 44.3 L 166.9 39.1 L 167.5 39.1 L 169.2 43.5 L 170.9 39.1 L 171.5 39.1 L 173.2 43.5 L 174.8 39.1 L 175.5 39.1 Z M 176.6 36.9 L 177.3 36.9 L 177.3 44.3 L 176.6 44.3 L 176.6 36.9 Z M 183.8 41.9 C 183.8 41.9 179.4 41.9 179.4 41.9 C 179.5 43 180.3 43.7 181.5 43.7 C 182.1 43.7 182.7 43.5 183.1 43 C 183.1 43 183.5 43.5 183.5 43.5 C 183 44.1 182.3 44.4 181.5 44.4 C 179.8 44.4 178.7 43.2 178.7 41.7 C 178.7 40.1 179.8 39 181.3 39 C 182.8 39 183.8 40.1 183.8 41.7 C 183.8 41.7 183.8 41.8 183.8 41.9 Z M 179.4 41.4 C 179.4 41.4 183.2 41.4 183.2 41.4 C 183.1 40.3 182.3 39.6 181.3 39.6 C 180.3 39.6 179.5 40.3 179.4 41.4 Z M 190.2 36.9 L 190.2 44.3 L 189.5 44.3 C 189.5 44.3 189.49 43.27 189.5 43.3 C 189.1 44 188.3 44.4 187.5 44.4 C 186 44.4 184.8 43.3 184.8 41.7 C 184.8 40.1 186 39 187.5 39 C 188.3 39 189 39.4 189.5 40.1 C 189.46 40.05 189.5 36.9 189.5 36.9 L 190.2 36.9 Z M 189.5 41.7 C 189.5 40.5 188.6 39.6 187.5 39.6 C 186.4 39.6 185.6 40.5 185.6 41.7 C 185.6 42.9 186.4 43.7 187.5 43.7 C 188.6 43.7 189.5 42.9 189.5 41.7 Z M 197 39.1 C 197 39.1 196.99 43.67 197 43.7 C 197 45.5 196.1 46.3 194.4 46.3 C 193.4 46.3 192.5 46 191.9 45.5 C 191.9 45.5 192.3 45 192.3 45 C 192.8 45.4 193.5 45.7 194.3 45.7 C 195.7 45.7 196.3 45.1 196.3 43.8 C 196.3 43.8 196.3 43.1 196.3 43.1 C 195.8 43.8 195.1 44.1 194.2 44.1 C 192.7 44.1 191.6 43.1 191.6 41.6 C 191.6 40 192.7 39 194.2 39 C 195.1 39 195.9 39.4 196.3 40.1 C 196.31 40.06 196.3 39.1 196.3 39.1 L 197 39.1 Z M 196.3 41.6 C 196.3 40.4 195.5 39.6 194.3 39.6 C 193.1 39.6 192.3 40.4 192.3 41.6 C 192.3 42.7 193.1 43.5 194.3 43.5 C 195.5 43.5 196.3 42.7 196.3 41.6 Z M 203.5 41.9 C 203.5 41.9 199.1 41.9 199.1 41.9 C 199.2 43 200.1 43.7 201.2 43.7 C 201.9 43.7 202.4 43.5 202.8 43 C 202.8 43 203.2 43.5 203.2 43.5 C 202.8 44.1 202 44.4 201.2 44.4 C 199.6 44.4 198.4 43.2 198.4 41.7 C 198.4 40.1 199.5 39 201 39 C 202.5 39 203.6 40.1 203.6 41.7 C 203.6 41.7 203.5 41.8 203.5 41.9 Z M 199.1 41.4 C 199.1 41.4 202.9 41.4 202.9 41.4 C 202.8 40.3 202 39.6 201 39.6 C 200 39.6 199.2 40.3 199.1 41.4 Z M 207.1 41.7 C 207.1 40.1 208.2 39 209.8 39 C 211.3 39 212.4 40.1 212.4 41.7 C 212.4 43.2 211.3 44.4 209.8 44.4 C 208.2 44.4 207.1 43.2 207.1 41.7 Z M 211.7 41.7 C 211.7 40.5 210.9 39.6 209.8 39.6 C 208.7 39.6 207.8 40.5 207.8 41.7 C 207.8 42.9 208.7 43.7 209.8 43.7 C 210.9 43.7 211.7 42.9 211.7 41.7 Z M 216.5 39 C 216.5 39 216.5 39.7 216.5 39.7 C 216.5 39.7 216.4 39.7 216.4 39.7 C 215.3 39.7 214.6 40.4 214.6 41.6 C 214.58 41.63 214.6 44.3 214.6 44.3 L 213.9 44.3 L 213.9 39.1 L 214.6 39.1 C 214.6 39.1 214.55 40.08 214.6 40.1 C 214.9 39.4 215.6 39 216.5 39 Z M 219.8 43.7 C 219.8 43.7 220.1 43.2 220.1 43.2 C 220.5 43.5 221.2 43.7 222 43.7 C 223 43.7 223.4 43.4 223.4 42.9 C 223.4 41.5 220 42.6 220 40.5 C 220 39.7 220.7 39 222 39 C 222.7 39 223.5 39.2 223.9 39.5 C 223.9 39.5 223.6 40.1 223.6 40.1 C 223.1 39.8 222.6 39.6 222 39.6 C 221.1 39.6 220.7 40 220.7 40.5 C 220.7 41.9 224.1 40.8 224.1 42.9 C 224.1 43.8 223.3 44.4 221.9 44.4 C 221 44.4 220.2 44.1 219.8 43.7 Z M 227.3 41.7 L 226.1 42.8 L 226.1 44.3 L 225.4 44.3 L 225.4 36.9 L 226.1 36.9 L 226.1 41.9 L 229.2 39.1 L 230.1 39.1 L 227.9 41.2 L 230.3 44.3 L 229.5 44.3 L 227.3 41.7 Z M 231.3 37.4 C 231.3 37.1 231.5 36.9 231.8 36.9 C 232.1 36.9 232.3 37.1 232.3 37.4 C 232.3 37.7 232.1 37.9 231.8 37.9 C 231.5 37.9 231.3 37.7 231.3 37.4 Z M 231.4 39.1 L 232.1 39.1 L 232.1 44.3 L 231.4 44.3 L 231.4 39.1 Z M 234 36.9 L 234.7 36.9 L 234.7 44.3 L 234 44.3 L 234 36.9 Z M 236.5 36.9 L 237.2 36.9 L 237.2 44.3 L 236.5 44.3 L 236.5 36.9 Z M 241.3 41.7 C 241.3 40.1 242.5 39 244 39 C 245.5 39 246.7 40.1 246.7 41.7 C 246.7 43.2 245.5 44.4 244 44.4 C 242.5 44.4 241.3 43.2 241.3 41.7 Z M 245.9 41.7 C 245.9 40.5 245.1 39.6 244 39.6 C 242.9 39.6 242 40.5 242 41.7 C 242 42.9 242.9 43.7 244 43.7 C 245.1 43.7 245.9 42.9 245.9 41.7 Z M 250.7 39 C 250.7 39 250.7 39.7 250.7 39.7 C 250.7 39.7 250.6 39.7 250.6 39.7 C 249.5 39.7 248.8 40.4 248.8 41.6 C 248.8 41.63 248.8 44.3 248.8 44.3 L 248.1 44.3 L 248.1 39.1 L 248.8 39.1 C 248.8 39.1 248.77 40.08 248.8 40.1 C 249.1 39.4 249.8 39 250.7 39 Z M 254.6 37.4 C 254.6 37.1 254.8 36.9 255.1 36.9 C 255.4 36.9 255.6 37.1 255.6 37.4 C 255.6 37.7 255.4 37.9 255.1 37.9 C 254.8 37.9 254.6 37.7 254.6 37.4 Z M 254.7 39.1 L 255.4 39.1 L 255.4 44.3 L 254.7 44.3 L 254.7 39.1 Z M 262.2 39.1 C 262.2 39.1 262.2 43.67 262.2 43.7 C 262.2 45.5 261.3 46.3 259.6 46.3 C 258.6 46.3 257.7 46 257.1 45.5 C 257.1 45.5 257.5 45 257.5 45 C 258 45.4 258.7 45.7 259.5 45.7 C 260.9 45.7 261.5 45.1 261.5 43.8 C 261.5 43.8 261.5 43.1 261.5 43.1 C 261 43.8 260.3 44.1 259.4 44.1 C 257.9 44.1 256.8 43.1 256.8 41.6 C 256.8 40 257.9 39 259.4 39 C 260.3 39 261.1 39.4 261.5 40.1 C 261.52 40.06 261.5 39.1 261.5 39.1 L 262.2 39.1 Z M 261.5 41.6 C 261.5 40.4 260.7 39.6 259.5 39.6 C 258.3 39.6 257.5 40.4 257.5 41.6 C 257.5 42.7 258.3 43.5 259.5 43.5 C 260.7 43.5 261.5 42.7 261.5 41.6 Z M 268.9 41.3 C 268.9 41.26 268.9 44.3 268.9 44.3 L 268.2 44.3 C 268.2 44.3 268.19 41.33 268.2 41.3 C 268.2 40.2 267.6 39.7 266.6 39.7 C 265.5 39.7 264.8 40.4 264.8 41.6 C 264.77 41.55 264.8 44.3 264.8 44.3 L 264.1 44.3 L 264.1 39.1 L 264.7 39.1 C 264.7 39.1 264.74 40.02 264.7 40 C 265.1 39.4 265.8 39 266.7 39 C 268 39 268.9 39.8 268.9 41.3 Z M 270.3 41.7 C 270.3 40.1 271.4 39 273 39 C 274.5 39 275.6 40.1 275.6 41.7 C 275.6 43.2 274.5 44.4 273 44.4 C 271.4 44.4 270.3 43.2 270.3 41.7 Z M 274.9 41.7 C 274.9 40.5 274.1 39.6 273 39.6 C 271.8 39.6 271 40.5 271 41.7 C 271 42.9 271.8 43.7 273 43.7 C 274.1 43.7 274.9 42.9 274.9 41.7 Z M 279.7 39 C 279.7 39 279.7 39.7 279.7 39.7 C 279.6 39.7 279.6 39.7 279.5 39.7 C 278.4 39.7 277.8 40.4 277.8 41.6 C 277.77 41.63 277.8 44.3 277.8 44.3 L 277.1 44.3 L 277.1 39.1 L 277.7 39.1 C 277.7 39.1 277.74 40.08 277.7 40.1 C 278.1 39.4 278.7 39 279.7 39 Z M 280.8 37.4 C 280.8 37.1 281 36.9 281.3 36.9 C 281.6 36.9 281.8 37.1 281.8 37.4 C 281.8 37.7 281.6 37.9 281.3 37.9 C 281 37.9 280.8 37.7 280.8 37.4 Z M 280.9 39.1 L 281.6 39.1 L 281.6 44.3 L 280.9 44.3 L 280.9 39.1 Z M 288.3 41.3 C 288.33 41.26 288.3 44.3 288.3 44.3 L 287.6 44.3 C 287.6 44.3 287.62 41.33 287.6 41.3 C 287.6 40.2 287 39.7 286 39.7 C 284.9 39.7 284.2 40.4 284.2 41.6 C 284.2 41.55 284.2 44.3 284.2 44.3 L 283.5 44.3 L 283.5 39.1 L 284.2 39.1 C 284.2 39.1 284.17 40.02 284.2 40 C 284.5 39.4 285.3 39 286.2 39 C 287.4 39 288.3 39.8 288.3 41.3 Z M 295.1 39.1 C 295.1 39.1 295.09 43.67 295.1 43.7 C 295.1 45.5 294.2 46.3 292.5 46.3 C 291.5 46.3 290.6 46 290 45.5 C 290 45.5 290.4 45 290.4 45 C 290.9 45.4 291.6 45.7 292.4 45.7 C 293.8 45.7 294.4 45.1 294.4 43.8 C 294.4 43.8 294.4 43.1 294.4 43.1 C 293.9 43.8 293.2 44.1 292.3 44.1 C 290.8 44.1 289.7 43.1 289.7 41.6 C 289.7 40 290.8 39 292.3 39 C 293.2 39 294 39.4 294.4 40.1 C 294.41 40.06 294.4 39.1 294.4 39.1 L 295.1 39.1 Z M 294.4 41.6 C 294.4 40.4 293.6 39.6 292.4 39.6 C 291.2 39.6 290.4 40.4 290.4 41.6 C 290.4 42.7 291.2 43.5 292.4 43.5 C 293.6 43.5 294.4 42.7 294.4 41.6 Z M 299.2 41.7 C 299.2 40.1 300.3 39 301.9 39 C 303.4 39 304.5 40.1 304.5 41.7 C 304.5 43.2 303.4 44.4 301.9 44.4 C 300.3 44.4 299.2 43.2 299.2 41.7 Z M 303.8 41.7 C 303.8 40.5 303 39.6 301.9 39.6 C 300.7 39.6 299.9 40.5 299.9 41.7 C 299.9 42.9 300.7 43.7 301.9 43.7 C 303 43.7 303.8 42.9 303.8 41.7 Z M 306.7 38.4 C 306.72 38.43 306.7 39.1 306.7 39.1 L 308.3 39.1 L 308.3 39.7 L 306.7 39.7 L 306.7 44.3 L 306 44.3 L 306 39.7 L 305.1 39.7 L 305.1 39.1 L 306 39.1 C 306 39.1 306.03 38.4 306 38.4 C 306 37.5 306.6 36.8 307.6 36.8 C 308 36.8 308.4 37 308.7 37.2 C 308.7 37.2 308.4 37.7 308.4 37.7 C 308.2 37.5 307.9 37.4 307.6 37.4 C 307 37.4 306.7 37.8 306.7 38.4 Z M 311.4 41.7 C 311.4 40.1 312.5 39 314.1 39 C 315 39 315.7 39.4 316.2 40.1 C 316.2 40.1 315.6 40.4 315.6 40.4 C 315.3 39.9 314.7 39.6 314.1 39.6 C 312.9 39.6 312.1 40.5 312.1 41.7 C 312.1 42.9 312.9 43.7 314.1 43.7 C 314.7 43.7 315.3 43.5 315.6 43 C 315.6 43 316.2 43.3 316.2 43.3 C 315.7 44 315 44.4 314.1 44.4 C 312.5 44.4 311.4 43.3 311.4 41.7 Z M 316.9 41.7 C 316.9 40.1 318.1 39 319.6 39 C 321.2 39 322.3 40.1 322.3 41.7 C 322.3 43.2 321.2 44.4 319.6 44.4 C 318.1 44.4 316.9 43.2 316.9 41.7 Z M 321.6 41.7 C 321.6 40.5 320.7 39.6 319.6 39.6 C 318.5 39.6 317.7 40.5 317.7 41.7 C 317.7 42.9 318.5 43.7 319.6 43.7 C 320.7 43.7 321.6 42.9 321.6 41.7 Z M 332.4 41.3 C 332.4 41.26 332.4 44.3 332.4 44.3 L 331.7 44.3 C 331.7 44.3 331.69 41.33 331.7 41.3 C 331.7 40.2 331.1 39.7 330.2 39.7 C 329.1 39.7 328.4 40.4 328.4 41.6 C 328.42 41.55 328.4 44.3 328.4 44.3 L 327.7 44.3 C 327.7 44.3 327.71 41.33 327.7 41.3 C 327.7 40.2 327.2 39.7 326.2 39.7 C 325.1 39.7 324.4 40.4 324.4 41.6 C 324.43 41.55 324.4 44.3 324.4 44.3 L 323.7 44.3 L 323.7 39.1 L 324.4 39.1 C 324.4 39.1 324.4 40.01 324.4 40 C 324.8 39.4 325.4 39 326.3 39 C 327.2 39 327.9 39.4 328.2 40.1 C 328.6 39.4 329.3 39 330.3 39 C 331.6 39 332.4 39.8 332.4 41.3 Z M 339.6 41.7 C 339.6 43.3 338.4 44.4 336.9 44.4 C 336.1 44.4 335.4 44 334.9 43.3 C 334.94 43.32 334.9 46.3 334.9 46.3 L 334.2 46.3 L 334.2 39.1 L 334.9 39.1 C 334.9 39.1 334.91 40.09 334.9 40.1 C 335.3 39.4 336.1 39 336.9 39 C 338.4 39 339.6 40.1 339.6 41.7 Z M 338.8 41.7 C 338.8 40.5 338 39.6 336.9 39.6 C 335.8 39.6 334.9 40.5 334.9 41.7 C 334.9 42.9 335.8 43.7 336.9 43.7 C 338 43.7 338.8 42.9 338.8 41.7 Z M 345 41.1 C 344.97 41.05 345 44.3 345 44.3 L 344.3 44.3 C 344.3 44.3 344.29 43.49 344.3 43.5 C 344 44 343.4 44.4 342.5 44.4 C 341.3 44.4 340.6 43.7 340.6 42.8 C 340.6 42 341.1 41.3 342.6 41.3 C 342.59 41.34 344.3 41.3 344.3 41.3 C 344.3 41.3 344.26 41.02 344.3 41 C 344.3 40.1 343.8 39.6 342.8 39.6 C 342.1 39.6 341.5 39.9 341 40.3 C 341 40.3 340.7 39.7 340.7 39.7 C 341.2 39.3 342 39 342.8 39 C 344.2 39 345 39.7 345 41.1 Z M 344.3 42.7 C 344.26 42.73 344.3 41.9 344.3 41.9 C 344.3 41.9 342.61 41.87 342.6 41.9 C 341.6 41.9 341.3 42.3 341.3 42.8 C 341.3 43.4 341.8 43.8 342.6 43.8 C 343.4 43.8 344 43.4 344.3 42.7 Z M 351.6 41.3 C 351.63 41.26 351.6 44.3 351.6 44.3 L 350.9 44.3 C 350.9 44.3 350.92 41.33 350.9 41.3 C 350.9 40.2 350.3 39.7 349.3 39.7 C 348.2 39.7 347.5 40.4 347.5 41.6 C 347.5 41.55 347.5 44.3 347.5 44.3 L 346.8 44.3 L 346.8 39.1 L 347.5 39.1 C 347.5 39.1 347.47 40.02 347.5 40 C 347.8 39.4 348.6 39 349.5 39 C 350.7 39 351.6 39.8 351.6 41.3 Z M 357.8 39.1 C 357.8 39.1 355.12 44.94 355.1 44.9 C 354.7 46 354.1 46.3 353.4 46.3 C 352.9 46.3 352.4 46.1 352.1 45.8 C 352.1 45.8 352.4 45.3 352.4 45.3 C 352.7 45.6 353 45.7 353.4 45.7 C 353.9 45.7 354.2 45.5 354.5 44.8 C 354.47 44.81 354.7 44.3 354.7 44.3 L 352.4 39.1 L 353.1 39.1 L 355.1 43.5 L 357.1 39.1 L 357.8 39.1 Z M 364 39 C 364 39 364 39.7 364 39.7 C 364 39.7 363.9 39.7 363.9 39.7 C 362.8 39.7 362.1 40.4 362.1 41.6 C 362.08 41.63 362.1 44.3 362.1 44.3 L 361.4 44.3 L 361.4 39.1 L 362.1 39.1 C 362.1 39.1 362.05 40.08 362.1 40.1 C 362.4 39.4 363.1 39 364 39 Z M 370 39.1 L 370 44.3 L 369.3 44.3 C 369.3 44.3 369.33 43.35 369.3 43.4 C 369 44 368.3 44.4 367.4 44.4 C 366.1 44.4 365.2 43.6 365.2 42.1 C 365.22 42.1 365.2 39.1 365.2 39.1 L 365.9 39.1 C 365.9 39.1 365.93 42.03 365.9 42 C 365.9 43.2 366.5 43.7 367.5 43.7 C 368.6 43.7 369.3 43 369.3 41.8 C 369.3 41.81 369.3 39.1 369.3 39.1 L 370 39.1 Z M 371.9 36.9 L 372.6 36.9 L 372.6 44.3 L 371.9 44.3 L 371.9 36.9 Z M 379.1 41.9 C 379.1 41.9 374.7 41.9 374.7 41.9 C 374.8 43 375.6 43.7 376.8 43.7 C 377.4 43.7 378 43.5 378.4 43 C 378.4 43 378.8 43.5 378.8 43.5 C 378.3 44.1 377.6 44.4 376.8 44.4 C 375.1 44.4 374 43.2 374 41.7 C 374 40.1 375.1 39 376.6 39 C 378.1 39 379.1 40.1 379.1 41.7 C 379.1 41.7 379.1 41.8 379.1 41.9 Z M 374.7 41.4 C 374.7 41.4 378.4 41.4 378.4 41.4 C 378.4 40.3 377.6 39.6 376.6 39.6 C 375.6 39.6 374.8 40.3 374.7 41.4 Z M 379.9 43.7 C 379.9 43.7 380.2 43.2 380.2 43.2 C 380.7 43.5 381.4 43.7 382.1 43.7 C 383.1 43.7 383.5 43.4 383.5 42.9 C 383.5 41.5 380.1 42.6 380.1 40.5 C 380.1 39.7 380.8 39 382.2 39 C 382.9 39 383.6 39.2 384 39.5 C 384 39.5 383.7 40.1 383.7 40.1 C 383.3 39.8 382.7 39.6 382.2 39.6 C 381.2 39.6 380.8 40 380.8 40.5 C 380.8 41.9 384.2 40.8 384.2 42.9 C 384.2 43.8 383.4 44.4 382.1 44.4 C 381.2 44.4 380.3 44.1 379.9 43.7 Z M 385.3 43.8 C 385.3 43.5 385.6 43.3 385.9 43.3 C 386.2 43.3 386.4 43.5 386.4 43.8 C 386.4 44.1 386.2 44.4 385.9 44.4 C 385.6 44.4 385.3 44.1 385.3 43.8 Z M 392 38 L 389.6 38 L 389.6 37.3 L 395.2 37.3 L 395.2 38 L 392.8 38 L 392.8 44.3 L 392 44.3 L 392 38 Z M 401.2 41.3 C 401.17 41.26 401.2 44.3 401.2 44.3 L 400.5 44.3 C 400.5 44.3 400.47 41.33 400.5 41.3 C 400.5 40.2 399.9 39.7 398.9 39.7 C 397.8 39.7 397 40.4 397 41.6 C 397.04 41.55 397 44.3 397 44.3 L 396.3 44.3 L 396.3 36.9 L 397 36.9 C 397 36.9 397.04 39.97 397 40 C 397.4 39.4 398.1 39 399 39 C 400.3 39 401.2 39.8 401.2 41.3 Z M 402.8 37.4 C 402.8 37.1 403 36.9 403.3 36.9 C 403.6 36.9 403.8 37.1 403.8 37.4 C 403.8 37.7 403.6 37.9 403.3 37.9 C 403 37.9 402.8 37.7 402.8 37.4 Z M 403 39.1 L 403.7 39.1 L 403.7 44.3 L 403 44.3 L 403 39.1 Z M 404.9 43.7 C 404.9 43.7 405.3 43.2 405.3 43.2 C 405.7 43.5 406.4 43.7 407.1 43.7 C 408.1 43.7 408.5 43.4 408.5 42.9 C 408.5 41.5 405.1 42.6 405.1 40.5 C 405.1 39.7 405.9 39 407.2 39 C 407.9 39 408.6 39.2 409.1 39.5 C 409.1 39.5 408.8 40.1 408.8 40.1 C 408.3 39.8 407.7 39.6 407.2 39.6 C 406.3 39.6 405.8 40 405.8 40.5 C 405.8 41.9 409.2 40.8 409.2 42.9 C 409.2 43.8 408.4 44.4 407.1 44.4 C 406.2 44.4 405.4 44.1 404.9 43.7 Z M 413 37.4 C 413 37.1 413.2 36.9 413.5 36.9 C 413.8 36.9 414.1 37.1 414.1 37.4 C 414.1 37.7 413.8 37.9 413.5 37.9 C 413.2 37.9 413 37.7 413 37.4 Z M 413.2 39.1 L 413.9 39.1 L 413.9 44.3 L 413.2 44.3 L 413.2 39.1 Z M 415.2 43.7 C 415.2 43.7 415.5 43.2 415.5 43.2 C 415.9 43.5 416.6 43.7 417.3 43.7 C 418.3 43.7 418.8 43.4 418.8 42.9 C 418.8 41.5 415.3 42.6 415.3 40.5 C 415.3 39.7 416.1 39 417.4 39 C 418.1 39 418.8 39.2 419.3 39.5 C 419.3 39.5 419 40.1 419 40.1 C 418.5 39.8 418 39.6 417.4 39.6 C 416.5 39.6 416.1 40 416.1 40.5 C 416.1 41.9 419.5 40.8 419.5 42.9 C 419.5 43.8 418.7 44.4 417.3 44.4 C 416.4 44.4 415.6 44.1 415.2 43.7 Z " stroke="none" fill="#000"/>
  </g>
  <g id="Polygon112522">
    <path d="M 15.8 29.3 L 15.8 22.3 L 17.2 22.3 L 21.3 27.4 L 20.7 27.4 L 20.7 22.3 L 22.3 22.3 L 22.3 29.3 L 20.9 29.3 L 16.8 24.3 L 17.4 24.3 L 17.4 29.3 L 15.8 29.3 Z M 26.4 29.4 C 25.9 29.4 25.4 29.3 24.9 29 C 24.5 28.8 24.1 28.5 23.9 28 C 23.6 27.6 23.5 27.2 23.5 26.6 C 23.5 26.1 23.6 25.6 23.9 25.2 C 24.1 24.8 24.5 24.4 24.9 24.2 C 25.4 24 25.9 23.9 26.4 23.9 C 27 23.9 27.5 24 28 24.2 C 28.4 24.4 28.8 24.8 29 25.2 C 29.3 25.6 29.4 26.1 29.4 26.6 C 29.4 27.2 29.3 27.6 29 28 C 28.8 28.5 28.4 28.8 28 29 C 27.5 29.3 27 29.4 26.4 29.4 Z M 26.4 28.1 C 26.7 28.1 26.9 28.1 27.1 27.9 C 27.3 27.8 27.5 27.6 27.6 27.4 C 27.7 27.2 27.8 26.9 27.8 26.6 C 27.8 26.3 27.7 26 27.6 25.8 C 27.5 25.6 27.3 25.4 27.1 25.3 C 26.9 25.2 26.7 25.1 26.4 25.1 C 26.2 25.1 25.9 25.2 25.7 25.3 C 25.5 25.4 25.4 25.6 25.2 25.8 C 25.1 26 25.1 26.3 25.1 26.6 C 25.1 26.9 25.1 27.2 25.2 27.4 C 25.4 27.6 25.5 27.8 25.7 27.9 C 25.9 28.1 26.2 28.1 26.4 28.1 Z M 32.7 29.4 C 32.1 29.4 31.6 29.2 31.2 28.9 C 30.9 28.6 30.7 28.1 30.7 27.5 C 30.69 27.46 30.7 22.7 30.7 22.7 L 32.2 22.7 C 32.2 22.7 32.25 27.44 32.2 27.4 C 32.2 27.7 32.3 27.8 32.4 28 C 32.5 28.1 32.7 28.2 32.9 28.2 C 33.2 28.2 33.4 28.1 33.5 28 C 33.5 28 34 29.1 34 29.1 C 33.8 29.2 33.6 29.3 33.4 29.3 C 33.2 29.4 32.9 29.4 32.7 29.4 Z M 29.9 25.3 L 29.9 24.1 L 33.6 24.1 L 33.6 25.3 L 29.9 25.3 Z M 37.5 29.4 C 36.9 29.4 36.3 29.3 35.9 29 C 35.4 28.8 35.1 28.5 34.8 28 C 34.5 27.6 34.4 27.2 34.4 26.6 C 34.4 26.1 34.5 25.6 34.8 25.2 C 35 24.8 35.4 24.4 35.8 24.2 C 36.3 24 36.7 23.9 37.3 23.9 C 37.8 23.9 38.3 24 38.7 24.2 C 39.1 24.4 39.5 24.7 39.7 25.1 C 40 25.6 40.1 26.1 40.1 26.6 C 40.1 26.7 40.1 26.8 40.1 26.8 C 40.1 26.9 40.1 27 40.1 27.1 C 40.06 27.06 35.7 27.1 35.7 27.1 L 35.7 26.2 L 39.2 26.2 C 39.2 26.2 38.64 26.42 38.6 26.4 C 38.6 26.1 38.6 25.9 38.5 25.7 C 38.4 25.5 38.2 25.3 38 25.2 C 37.8 25.1 37.6 25 37.3 25 C 37 25 36.8 25.1 36.6 25.2 C 36.4 25.3 36.2 25.5 36.1 25.7 C 36 25.9 35.9 26.2 35.9 26.4 C 35.9 26.4 35.9 26.7 35.9 26.7 C 35.9 27 36 27.2 36.1 27.5 C 36.3 27.7 36.5 27.9 36.7 28 C 36.9 28.1 37.2 28.1 37.5 28.1 C 37.8 28.1 38.1 28.1 38.3 28 C 38.5 27.9 38.7 27.8 38.9 27.6 C 38.9 27.6 39.7 28.5 39.7 28.5 C 39.5 28.8 39.2 29 38.8 29.2 C 38.4 29.3 38 29.4 37.5 29.4 Z M 41.7 25.8 C 41.5 25.8 41.3 25.7 41.1 25.5 C 40.9 25.3 40.8 25.1 40.8 24.8 C 40.8 24.5 40.9 24.3 41.1 24.1 C 41.3 24 41.5 23.9 41.7 23.9 C 42 23.9 42.3 24 42.4 24.1 C 42.6 24.3 42.7 24.5 42.7 24.8 C 42.7 25.1 42.6 25.3 42.4 25.5 C 42.3 25.7 42 25.8 41.7 25.8 Z M 41.7 29.4 C 41.5 29.4 41.3 29.3 41.1 29.1 C 40.9 28.9 40.8 28.7 40.8 28.4 C 40.8 28.1 40.9 27.9 41.1 27.7 C 41.3 27.5 41.5 27.5 41.7 27.5 C 42 27.5 42.3 27.5 42.4 27.7 C 42.6 27.9 42.7 28.1 42.7 28.4 C 42.7 28.7 42.6 28.9 42.4 29.1 C 42.3 29.3 42 29.4 41.7 29.4 Z M 51.4 27.4 L 47.5 27.4 L 46.7 29.3 L 45.9 29.3 L 49.1 22.3 L 49.8 22.3 L 53 29.3 L 52.3 29.3 L 51.4 27.4 Z M 51.1 26.8 L 49.5 23.1 L 47.8 26.8 L 51.1 26.8 Z M 56.1 26.7 C 56.1 25.1 57.3 24 58.8 24 C 59.7 24 60.5 24.4 60.9 25.1 C 60.9 25.1 60.4 25.4 60.4 25.4 C 60 24.9 59.5 24.6 58.8 24.6 C 57.7 24.6 56.9 25.5 56.9 26.7 C 56.9 27.9 57.7 28.7 58.8 28.7 C 59.5 28.7 60 28.5 60.4 28 C 60.4 28 60.9 28.3 60.9 28.3 C 60.5 29 59.7 29.4 58.8 29.4 C 57.3 29.4 56.1 28.3 56.1 26.7 Z M 61.7 26.7 C 61.7 25.1 62.8 24 64.4 24 C 65.9 24 67 25.1 67 26.7 C 67 28.2 65.9 29.4 64.4 29.4 C 62.8 29.4 61.7 28.2 61.7 26.7 Z M 66.3 26.7 C 66.3 25.5 65.5 24.6 64.4 24.6 C 63.3 24.6 62.4 25.5 62.4 26.7 C 62.4 27.9 63.3 28.7 64.4 28.7 C 65.5 28.7 66.3 27.9 66.3 26.7 Z M 77.1 26.3 C 77.15 26.26 77.1 29.3 77.1 29.3 L 76.4 29.3 C 76.4 29.3 76.44 26.33 76.4 26.3 C 76.4 25.2 75.9 24.7 74.9 24.7 C 73.8 24.7 73.2 25.4 73.2 26.6 C 73.17 26.55 73.2 29.3 73.2 29.3 L 72.5 29.3 C 72.5 29.3 72.46 26.33 72.5 26.3 C 72.5 25.2 71.9 24.7 70.9 24.7 C 69.9 24.7 69.2 25.4 69.2 26.6 C 69.18 26.55 69.2 29.3 69.2 29.3 L 68.5 29.3 L 68.5 24.1 L 69.1 24.1 C 69.1 24.1 69.15 25.01 69.1 25 C 69.5 24.4 70.2 24 71.1 24 C 71.9 24 72.6 24.4 72.9 25.1 C 73.3 24.4 74.1 24 75 24 C 76.3 24 77.1 24.8 77.1 26.3 Z M 87.7 26.3 C 87.65 26.26 87.7 29.3 87.7 29.3 L 86.9 29.3 C 86.9 29.3 86.94 26.33 86.9 26.3 C 86.9 25.2 86.4 24.7 85.4 24.7 C 84.4 24.7 83.7 25.4 83.7 26.6 C 83.67 26.55 83.7 29.3 83.7 29.3 L 83 29.3 C 83 29.3 82.96 26.33 83 26.3 C 83 25.2 82.4 24.7 81.4 24.7 C 80.4 24.7 79.7 25.4 79.7 26.6 C 79.68 26.55 79.7 29.3 79.7 29.3 L 79 29.3 L 79 24.1 L 79.7 24.1 C 79.7 24.1 79.65 25.01 79.7 25 C 80 24.4 80.7 24 81.6 24 C 82.5 24 83.1 24.4 83.5 25.1 C 83.8 24.4 84.6 24 85.5 24 C 86.8 24 87.7 24.8 87.7 26.3 Z M 89 26.7 C 89 25.1 90.2 24 91.7 24 C 93.3 24 94.4 25.1 94.4 26.7 C 94.4 28.2 93.3 29.4 91.7 29.4 C 90.2 29.4 89 28.2 89 26.7 Z M 93.7 26.7 C 93.7 25.5 92.8 24.6 91.7 24.6 C 90.6 24.6 89.8 25.5 89.8 26.7 C 89.8 27.9 90.6 28.7 91.7 28.7 C 92.8 28.7 93.7 27.9 93.7 26.7 Z M 100.7 26.3 C 100.66 26.26 100.7 29.3 100.7 29.3 L 100 29.3 C 100 29.3 99.95 26.33 100 26.3 C 100 25.2 99.4 24.7 98.4 24.7 C 97.2 24.7 96.5 25.4 96.5 26.6 C 96.53 26.55 96.5 29.3 96.5 29.3 L 95.8 29.3 L 95.8 24.1 L 96.5 24.1 C 96.5 24.1 96.5 25.02 96.5 25 C 96.9 24.4 97.6 24 98.5 24 C 99.8 24 100.7 24.8 100.7 26.3 Z M 113.9 26.3 C 113.89 26.26 113.9 29.3 113.9 29.3 L 113.2 29.3 C 113.2 29.3 113.18 26.33 113.2 26.3 C 113.2 25.2 112.6 24.7 111.7 24.7 C 110.6 24.7 109.9 25.4 109.9 26.6 C 109.91 26.55 109.9 29.3 109.9 29.3 L 109.2 29.3 C 109.2 29.3 109.2 26.33 109.2 26.3 C 109.2 25.2 108.6 24.7 107.7 24.7 C 106.6 24.7 105.9 25.4 105.9 26.6 C 105.92 26.55 105.9 29.3 105.9 29.3 L 105.2 29.3 L 105.2 24.1 L 105.9 24.1 C 105.9 24.1 105.89 25.01 105.9 25 C 106.3 24.4 106.9 24 107.8 24 C 108.7 24 109.4 24.4 109.7 25.1 C 110.1 24.4 110.8 24 111.8 24 C 113.1 24 113.9 24.8 113.9 26.3 Z M 115.5 22.4 C 115.5 22.1 115.8 21.9 116.1 21.9 C 116.3 21.9 116.6 22.1 116.6 22.4 C 116.6 22.7 116.4 22.9 116.1 22.9 C 115.8 22.9 115.5 22.7 115.5 22.4 Z M 115.7 24.1 L 116.4 24.1 L 116.4 29.3 L 115.7 29.3 L 115.7 24.1 Z M 117.7 28.7 C 117.7 28.7 118 28.2 118 28.2 C 118.4 28.5 119.1 28.7 119.9 28.7 C 120.9 28.7 121.3 28.4 121.3 27.9 C 121.3 26.5 117.9 27.6 117.9 25.5 C 117.9 24.7 118.6 24 119.9 24 C 120.6 24 121.4 24.2 121.8 24.5 C 121.8 24.5 121.5 25.1 121.5 25.1 C 121 24.8 120.5 24.6 119.9 24.6 C 119 24.6 118.6 25 118.6 25.5 C 118.6 26.9 122 25.8 122 27.9 C 122 28.8 121.2 29.4 119.8 29.4 C 118.9 29.4 118.1 29.1 117.7 28.7 Z M 128 24.1 L 128 29.3 L 127.3 29.3 C 127.3 29.3 127.32 28.35 127.3 28.4 C 127 29 126.3 29.4 125.4 29.4 C 124.1 29.4 123.2 28.6 123.2 27.1 C 123.21 27.1 123.2 24.1 123.2 24.1 L 123.9 24.1 C 123.9 24.1 123.92 27.03 123.9 27 C 123.9 28.2 124.5 28.7 125.5 28.7 C 126.6 28.7 127.3 28 127.3 26.8 C 127.29 26.81 127.3 24.1 127.3 24.1 L 128 24.1 Z M 134.7 26.3 C 134.7 26.26 134.7 29.3 134.7 29.3 L 134 29.3 C 134 29.3 133.99 26.33 134 26.3 C 134 25.2 133.4 24.7 132.4 24.7 C 131.3 24.7 130.6 25.4 130.6 26.6 C 130.57 26.55 130.6 29.3 130.6 29.3 L 129.9 29.3 L 129.9 24.1 L 130.5 24.1 C 130.5 24.1 130.54 25.02 130.5 25 C 130.9 24.4 131.6 24 132.5 24 C 133.8 24 134.7 24.8 134.7 26.3 Z M 141.4 21.9 L 141.4 29.3 L 140.7 29.3 C 140.7 29.3 140.74 28.27 140.7 28.3 C 140.3 29 139.6 29.4 138.7 29.4 C 137.2 29.4 136.1 28.3 136.1 26.7 C 136.1 25.1 137.2 24 138.7 24 C 139.5 24 140.3 24.4 140.7 25.1 C 140.71 25.05 140.7 21.9 140.7 21.9 L 141.4 21.9 Z M 140.7 26.7 C 140.7 25.5 139.9 24.6 138.8 24.6 C 137.6 24.6 136.8 25.5 136.8 26.7 C 136.8 27.9 137.6 28.7 138.8 28.7 C 139.9 28.7 140.7 27.9 140.7 26.7 Z M 148 26.9 C 148 26.9 143.6 26.9 143.6 26.9 C 143.6 28 144.5 28.7 145.6 28.7 C 146.3 28.7 146.9 28.5 147.3 28 C 147.3 28 147.6 28.5 147.6 28.5 C 147.2 29.1 146.4 29.4 145.6 29.4 C 144 29.4 142.9 28.2 142.9 26.7 C 142.9 25.1 143.9 24 145.4 24 C 146.9 24 148 25.1 148 26.7 C 148 26.7 148 26.8 148 26.9 Z M 143.6 26.4 C 143.6 26.4 147.3 26.4 147.3 26.4 C 147.2 25.3 146.5 24.6 145.4 24.6 C 144.4 24.6 143.7 25.3 143.6 26.4 Z M 152 24 C 152 24 152 24.7 152 24.7 C 152 24.7 151.9 24.7 151.9 24.7 C 150.8 24.7 150.1 25.4 150.1 26.6 C 150.09 26.63 150.1 29.3 150.1 29.3 L 149.4 29.3 L 149.4 24.1 L 150.1 24.1 C 150.1 24.1 150.06 25.08 150.1 25.1 C 150.4 24.4 151.1 24 152 24 Z M 152.7 28.7 C 152.7 28.7 153 28.2 153 28.2 C 153.4 28.5 154.2 28.7 154.9 28.7 C 155.9 28.7 156.3 28.4 156.3 27.9 C 156.3 26.5 152.9 27.6 152.9 25.5 C 152.9 24.7 153.6 24 155 24 C 155.7 24 156.4 24.2 156.8 24.5 C 156.8 24.5 156.5 25.1 156.5 25.1 C 156.1 24.8 155.5 24.6 155 24.6 C 154 24.6 153.6 25 153.6 25.5 C 153.6 26.9 157 25.8 157 27.9 C 157 28.8 156.2 29.4 154.8 29.4 C 154 29.4 153.1 29.1 152.7 28.7 Z M 161.3 29 C 161 29.2 160.6 29.4 160.2 29.4 C 159.2 29.4 158.6 28.8 158.6 27.8 C 158.65 27.83 158.6 24.7 158.6 24.7 L 157.7 24.7 L 157.7 24.1 L 158.6 24.1 L 158.6 22.9 L 159.4 22.9 L 159.4 24.1 L 161 24.1 L 161 24.7 L 159.4 24.7 C 159.4 24.7 159.36 27.79 159.4 27.8 C 159.4 28.4 159.7 28.8 160.3 28.8 C 160.6 28.8 160.8 28.7 161 28.5 C 161 28.5 161.3 29 161.3 29 Z M 166.5 26.1 C 166.53 26.05 166.5 29.3 166.5 29.3 L 165.9 29.3 C 165.9 29.3 165.85 28.49 165.9 28.5 C 165.5 29 164.9 29.4 164 29.4 C 162.8 29.4 162.1 28.7 162.1 27.8 C 162.1 27 162.6 26.3 164.2 26.3 C 164.15 26.34 165.8 26.3 165.8 26.3 C 165.8 26.3 165.82 26.02 165.8 26 C 165.8 25.1 165.3 24.6 164.3 24.6 C 163.6 24.6 163 24.9 162.6 25.3 C 162.6 25.3 162.3 24.7 162.3 24.7 C 162.8 24.3 163.6 24 164.4 24 C 165.8 24 166.5 24.7 166.5 26.1 Z M 165.8 27.7 C 165.82 27.73 165.8 26.9 165.8 26.9 C 165.8 26.9 164.17 26.87 164.2 26.9 C 163.1 26.9 162.8 27.3 162.8 27.8 C 162.8 28.4 163.3 28.8 164.2 28.8 C 165 28.8 165.5 28.4 165.8 27.7 Z M 173.2 26.3 C 173.18 26.26 173.2 29.3 173.2 29.3 L 172.5 29.3 C 172.5 29.3 172.47 26.33 172.5 26.3 C 172.5 25.2 171.9 24.7 170.9 24.7 C 169.8 24.7 169.1 25.4 169.1 26.6 C 169.05 26.55 169.1 29.3 169.1 29.3 L 168.3 29.3 L 168.3 24.1 L 169 24.1 C 169 24.1 169.02 25.02 169 25 C 169.4 24.4 170.1 24 171 24 C 172.3 24 173.2 24.8 173.2 26.3 Z M 179.9 21.9 L 179.9 29.3 L 179.2 29.3 C 179.2 29.3 179.22 28.27 179.2 28.3 C 178.8 29 178.1 29.4 177.2 29.4 C 175.7 29.4 174.6 28.3 174.6 26.7 C 174.6 25.1 175.7 24 177.2 24 C 178 24 178.7 24.4 179.2 25.1 C 179.19 25.05 179.2 21.9 179.2 21.9 L 179.9 21.9 Z M 179.2 26.7 C 179.2 25.5 178.4 24.6 177.2 24.6 C 176.1 24.6 175.3 25.5 175.3 26.7 C 175.3 27.9 176.1 28.7 177.2 28.7 C 178.4 28.7 179.2 27.9 179.2 26.7 Z M 181.6 22.4 C 181.6 22.1 181.8 21.9 182.1 21.9 C 182.4 21.9 182.6 22.1 182.6 22.4 C 182.6 22.7 182.4 22.9 182.1 22.9 C 181.8 22.9 181.6 22.7 181.6 22.4 Z M 181.8 24.1 L 182.5 24.1 L 182.5 29.3 L 181.8 29.3 L 181.8 24.1 Z M 189.2 26.3 C 189.15 26.26 189.2 29.3 189.2 29.3 L 188.4 29.3 C 188.4 29.3 188.44 26.33 188.4 26.3 C 188.4 25.2 187.9 24.7 186.9 24.7 C 185.7 24.7 185 25.4 185 26.6 C 185.02 26.55 185 29.3 185 29.3 L 184.3 29.3 L 184.3 24.1 L 185 24.1 C 185 24.1 184.99 25.02 185 25 C 185.4 24.4 186.1 24 187 24 C 188.3 24 189.2 24.8 189.2 26.3 Z M 195.9 24.1 C 195.9 24.1 195.92 28.67 195.9 28.7 C 195.9 30.5 195 31.3 193.3 31.3 C 192.3 31.3 191.4 31 190.8 30.5 C 190.8 30.5 191.2 30 191.2 30 C 191.7 30.4 192.5 30.7 193.3 30.7 C 194.6 30.7 195.2 30.1 195.2 28.8 C 195.2 28.8 195.2 28.1 195.2 28.1 C 194.8 28.8 194 29.1 193.2 29.1 C 191.7 29.1 190.5 28.1 190.5 26.6 C 190.5 25 191.7 24 193.2 24 C 194 24 194.8 24.4 195.2 25.1 C 195.24 25.06 195.2 24.1 195.2 24.1 L 195.9 24.1 Z M 195.2 26.6 C 195.2 25.4 194.4 24.6 193.2 24.6 C 192.1 24.6 191.2 25.4 191.2 26.6 C 191.2 27.7 192.1 28.5 193.2 28.5 C 194.4 28.5 195.2 27.7 195.2 26.6 Z M 200 26.7 C 200 25.1 201.1 24 202.7 24 C 204.2 24 205.3 25.1 205.3 26.7 C 205.3 28.2 204.2 29.4 202.7 29.4 C 201.1 29.4 200 28.2 200 26.7 Z M 204.6 26.7 C 204.6 25.5 203.8 24.6 202.7 24.6 C 201.6 24.6 200.7 25.5 200.7 26.7 C 200.7 27.9 201.6 28.7 202.7 28.7 C 203.8 28.7 204.6 27.9 204.6 26.7 Z M 207.5 23.4 C 207.54 23.43 207.5 24.1 207.5 24.1 L 209.2 24.1 L 209.2 24.7 L 207.6 24.7 L 207.6 29.3 L 206.9 29.3 L 206.9 24.7 L 205.9 24.7 L 205.9 24.1 L 206.9 24.1 C 206.9 24.1 206.85 23.4 206.9 23.4 C 206.9 22.5 207.4 21.8 208.4 21.8 C 208.8 21.8 209.2 22 209.5 22.2 C 209.5 22.2 209.3 22.7 209.3 22.7 C 209.1 22.5 208.8 22.4 208.5 22.4 C 207.9 22.4 207.5 22.8 207.5 23.4 Z M 217.7 29.3 C 217.7 29.3 216.07 27.06 216.1 27.1 C 215.9 27.1 215.7 27.1 215.5 27.1 C 215.51 27.09 213.6 27.1 213.6 27.1 L 213.6 29.3 L 212.9 29.3 L 212.9 22.3 C 212.9 22.3 215.51 22.31 215.5 22.3 C 217.3 22.3 218.4 23.2 218.4 24.7 C 218.4 25.8 217.8 26.6 216.8 26.9 C 216.77 26.91 218.5 29.3 218.5 29.3 L 217.7 29.3 Z M 217.6 24.7 C 217.6 23.6 216.9 23 215.5 23 C 215.49 22.95 213.6 23 213.6 23 L 213.6 26.5 C 213.6 26.5 215.49 26.46 215.5 26.5 C 216.9 26.5 217.6 25.8 217.6 24.7 Z M 223.9 26.1 C 223.93 26.05 223.9 29.3 223.9 29.3 L 223.3 29.3 C 223.3 29.3 223.25 28.49 223.3 28.5 C 222.9 29 222.3 29.4 221.4 29.4 C 220.2 29.4 219.5 28.7 219.5 27.8 C 219.5 27 220 26.3 221.5 26.3 C 221.55 26.34 223.2 26.3 223.2 26.3 C 223.2 26.3 223.22 26.02 223.2 26 C 223.2 25.1 222.7 24.6 221.7 24.6 C 221 24.6 220.4 24.9 220 25.3 C 220 25.3 219.7 24.7 219.7 24.7 C 220.2 24.3 221 24 221.8 24 C 223.2 24 223.9 24.7 223.9 26.1 Z M 223.2 27.7 C 223.22 27.73 223.2 26.9 223.2 26.9 C 223.2 26.9 221.57 26.87 221.6 26.9 C 220.5 26.9 220.2 27.3 220.2 27.8 C 220.2 28.4 220.7 28.8 221.5 28.8 C 222.3 28.8 222.9 28.4 223.2 27.7 Z M 225.1 28.7 C 225.1 28.7 225.5 28.2 225.5 28.2 C 225.9 28.5 226.6 28.7 227.3 28.7 C 228.3 28.7 228.7 28.4 228.7 27.9 C 228.7 26.5 225.3 27.6 225.3 25.5 C 225.3 24.7 226.1 24 227.4 24 C 228.1 24 228.8 24.2 229.3 24.5 C 229.3 24.5 229 25.1 229 25.1 C 228.5 24.8 228 24.6 227.4 24.6 C 226.5 24.6 226 25 226 25.5 C 226 26.9 229.5 25.8 229.5 27.9 C 229.5 28.8 228.7 29.4 227.3 29.4 C 226.4 29.4 225.6 29.1 225.1 28.7 Z M 239.4 26.3 C 239.45 26.26 239.4 29.3 239.4 29.3 L 238.7 29.3 C 238.7 29.3 238.74 26.33 238.7 26.3 C 238.7 25.2 238.2 24.7 237.2 24.7 C 236.1 24.7 235.5 25.4 235.5 26.6 C 235.47 26.55 235.5 29.3 235.5 29.3 L 234.8 29.3 C 234.8 29.3 234.76 26.33 234.8 26.3 C 234.8 25.2 234.2 24.7 233.2 24.7 C 232.2 24.7 231.5 25.4 231.5 26.6 C 231.48 26.55 231.5 29.3 231.5 29.3 L 230.8 29.3 L 230.8 24.1 L 231.4 24.1 C 231.4 24.1 231.45 25.01 231.4 25 C 231.8 24.4 232.5 24 233.4 24 C 234.2 24 234.9 24.4 235.2 25.1 C 235.6 24.4 236.4 24 237.3 24 C 238.6 24 239.4 24.8 239.4 26.3 Z M 246 24.1 L 246 29.3 L 245.3 29.3 C 245.3 29.3 245.3 28.35 245.3 28.4 C 244.9 29 244.3 29.4 243.4 29.4 C 242.1 29.4 241.2 28.6 241.2 27.1 C 241.19 27.1 241.2 24.1 241.2 24.1 L 241.9 24.1 C 241.9 24.1 241.9 27.03 241.9 27 C 241.9 28.2 242.5 28.7 243.5 28.7 C 244.6 28.7 245.3 28 245.3 26.8 C 245.27 26.81 245.3 24.1 245.3 24.1 L 246 24.1 Z M 247.3 28.7 C 247.3 28.7 247.6 28.2 247.6 28.2 C 248 28.5 248.7 28.7 249.5 28.7 C 250.5 28.7 250.9 28.4 250.9 27.9 C 250.9 26.5 247.5 27.6 247.5 25.5 C 247.5 24.7 248.2 24 249.5 24 C 250.2 24 251 24.2 251.4 24.5 C 251.4 24.5 251.1 25.1 251.1 25.1 C 250.6 24.8 250.1 24.6 249.5 24.6 C 248.6 24.6 248.2 25 248.2 25.5 C 248.2 26.9 251.6 25.8 251.6 27.9 C 251.6 28.8 250.8 29.4 249.4 29.4 C 248.5 29.4 247.7 29.1 247.3 28.7 Z M 252.3 28.7 C 252.3 28.7 252.6 28.2 252.6 28.2 C 253.1 28.5 253.8 28.7 254.5 28.7 C 255.5 28.7 255.9 28.4 255.9 27.9 C 255.9 26.5 252.5 27.6 252.5 25.5 C 252.5 24.7 253.3 24 254.6 24 C 255.3 24 256 24.2 256.5 24.5 C 256.5 24.5 256.1 25.1 256.1 25.1 C 255.7 24.8 255.1 24.6 254.6 24.6 C 253.6 24.6 253.2 25 253.2 25.5 C 253.2 26.9 256.6 25.8 256.6 27.9 C 256.6 28.8 255.8 29.4 254.5 29.4 C 253.6 29.4 252.8 29.1 252.3 28.7 Z M 262.6 26.9 C 262.6 26.9 258.2 26.9 258.2 26.9 C 258.3 28 259.1 28.7 260.3 28.7 C 260.9 28.7 261.5 28.5 261.9 28 C 261.9 28 262.3 28.5 262.3 28.5 C 261.8 29.1 261.1 29.4 260.3 29.4 C 258.6 29.4 257.5 28.2 257.5 26.7 C 257.5 25.1 258.6 24 260.1 24 C 261.6 24 262.6 25.1 262.6 26.7 C 262.6 26.7 262.6 26.8 262.6 26.9 Z M 258.2 26.4 C 258.2 26.4 262 26.4 262 26.4 C 261.9 25.3 261.1 24.6 260.1 24.6 C 259.1 24.6 258.3 25.3 258.2 26.4 Z M 268.9 26.3 C 268.88 26.26 268.9 29.3 268.9 29.3 L 268.2 29.3 C 268.2 29.3 268.17 26.33 268.2 26.3 C 268.2 25.2 267.6 24.7 266.6 24.7 C 265.5 24.7 264.7 25.4 264.7 26.6 C 264.75 26.55 264.7 29.3 264.7 29.3 L 264 29.3 L 264 24.1 L 264.7 24.1 C 264.7 24.1 264.72 25.02 264.7 25 C 265.1 24.4 265.8 24 266.7 24 C 268 24 268.9 24.8 268.9 26.3 Z M 271.2 22.4 C 271.2 22.6 271.2 22.7 271.1 23 C 271.11 22.95 270.7 24.3 270.7 24.3 L 270.2 24.3 C 270.2 24.3 270.55 22.89 270.5 22.9 C 270.3 22.8 270.2 22.6 270.2 22.4 C 270.2 22.1 270.4 21.8 270.7 21.8 C 271 21.8 271.2 22.1 271.2 22.4 Z M 271.9 28.7 C 271.9 28.7 272.2 28.2 272.2 28.2 C 272.6 28.5 273.3 28.7 274.1 28.7 C 275.1 28.7 275.5 28.4 275.5 27.9 C 275.5 26.5 272.1 27.6 272.1 25.5 C 272.1 24.7 272.8 24 274.2 24 C 274.8 24 275.6 24.2 276 24.5 C 276 24.5 275.7 25.1 275.7 25.1 C 275.3 24.8 274.7 24.6 274.2 24.6 C 273.2 24.6 272.8 25 272.8 25.5 C 272.8 26.9 276.2 25.8 276.2 27.9 C 276.2 28.8 275.4 29.4 274 29.4 C 273.2 29.4 272.3 29.1 271.9 28.7 Z M 282.9 29 C 282.6 29.2 282.2 29.4 281.8 29.4 C 280.8 29.4 280.3 28.8 280.3 27.8 C 280.26 27.83 280.3 24.7 280.3 24.7 L 279.3 24.7 L 279.3 24.1 L 280.3 24.1 L 280.3 22.9 L 281 22.9 L 281 24.1 L 282.6 24.1 L 282.6 24.7 L 281 24.7 C 281 24.7 280.96 27.79 281 27.8 C 281 28.4 281.3 28.8 281.9 28.8 C 282.2 28.8 282.5 28.7 282.7 28.5 C 282.7 28.5 282.9 29 282.9 29 Z M 288.9 26.3 C 288.93 26.26 288.9 29.3 288.9 29.3 L 288.2 29.3 C 288.2 29.3 288.22 26.33 288.2 26.3 C 288.2 25.2 287.6 24.7 286.6 24.7 C 285.5 24.7 284.8 25.4 284.8 26.6 C 284.8 26.55 284.8 29.3 284.8 29.3 L 284.1 29.3 L 284.1 21.9 L 284.8 21.9 C 284.8 21.9 284.8 24.97 284.8 25 C 285.2 24.4 285.9 24 286.8 24 C 288.1 24 288.9 24.8 288.9 26.3 Z M 295.4 26.9 C 295.4 26.9 291 26.9 291 26.9 C 291.1 28 291.9 28.7 293.1 28.7 C 293.7 28.7 294.3 28.5 294.7 28 C 294.7 28 295.1 28.5 295.1 28.5 C 294.6 29.1 293.9 29.4 293.1 29.4 C 291.4 29.4 290.3 28.2 290.3 26.7 C 290.3 25.1 291.4 24 292.9 24 C 294.4 24 295.4 25.1 295.4 26.7 C 295.4 26.7 295.4 26.8 295.4 26.9 Z M 291 26.4 C 291 26.4 294.8 26.4 294.8 26.4 C 294.7 25.3 293.9 24.6 292.9 24.6 C 291.9 24.6 291.1 25.3 291 26.4 Z M 296.4 26.7 C 296.4 25.1 297.6 24 299.1 24 C 300.7 24 301.8 25.1 301.8 26.7 C 301.8 28.2 300.7 29.4 299.1 29.4 C 297.6 29.4 296.4 28.2 296.4 26.7 Z M 301.1 26.7 C 301.1 25.5 300.2 24.6 299.1 24.6 C 298 24.6 297.2 25.5 297.2 26.7 C 297.2 27.9 298 28.7 299.1 28.7 C 300.2 28.7 301.1 27.9 301.1 26.7 Z M 305.9 24 C 305.9 24 305.9 24.7 305.9 24.7 C 305.8 24.7 305.7 24.7 305.7 24.7 C 304.6 24.7 303.9 25.4 303.9 26.6 C 303.92 26.63 303.9 29.3 303.9 29.3 L 303.2 29.3 L 303.2 24.1 L 303.9 24.1 C 303.9 24.1 303.89 25.08 303.9 25.1 C 304.2 24.4 304.9 24 305.9 24 Z M 312 24.1 C 312 24.1 309.35 29.94 309.4 29.9 C 308.9 31 308.4 31.3 307.6 31.3 C 307.1 31.3 306.6 31.1 306.3 30.8 C 306.3 30.8 306.7 30.3 306.7 30.3 C 306.9 30.6 307.2 30.7 307.6 30.7 C 308.1 30.7 308.4 30.5 308.7 29.8 C 308.7 29.81 308.9 29.3 308.9 29.3 L 306.6 24.1 L 307.3 24.1 L 309.3 28.5 L 311.3 24.1 L 312 24.1 Z M 315.4 22.4 C 315.4 22.1 315.7 21.9 316 21.9 C 316.3 21.9 316.5 22.1 316.5 22.4 C 316.5 22.7 316.3 22.9 316 22.9 C 315.7 22.9 315.4 22.7 315.4 22.4 Z M 315.6 24.1 L 316.3 24.1 L 316.3 29.3 L 315.6 29.3 L 315.6 24.1 Z M 317.6 28.7 C 317.6 28.7 317.9 28.2 317.9 28.2 C 318.3 28.5 319 28.7 319.8 28.7 C 320.8 28.7 321.2 28.4 321.2 27.9 C 321.2 26.5 317.8 27.6 317.8 25.5 C 317.8 24.7 318.5 24 319.9 24 C 320.5 24 321.3 24.2 321.7 24.5 C 321.7 24.5 321.4 25.1 321.4 25.1 C 320.9 24.8 320.4 24.6 319.9 24.6 C 318.9 24.6 318.5 25 318.5 25.5 C 318.5 26.9 321.9 25.8 321.9 27.9 C 321.9 28.8 321.1 29.4 319.7 29.4 C 318.8 29.4 318 29.1 317.6 28.7 Z M 328.6 29 C 328.3 29.2 327.9 29.4 327.5 29.4 C 326.5 29.4 325.9 28.8 325.9 27.8 C 325.94 27.83 325.9 24.7 325.9 24.7 L 325 24.7 L 325 24.1 L 325.9 24.1 L 325.9 22.9 L 326.6 22.9 L 326.6 24.1 L 328.2 24.1 L 328.2 24.7 L 326.6 24.7 C 326.6 24.7 326.65 27.79 326.6 27.8 C 326.6 28.4 327 28.8 327.6 28.8 C 327.8 28.8 328.1 28.7 328.3 28.5 C 328.3 28.5 328.6 29 328.6 29 Z M 329.1 26.7 C 329.1 25.1 330.3 24 331.8 24 C 333.4 24 334.5 25.1 334.5 26.7 C 334.5 28.2 333.4 29.4 331.8 29.4 C 330.3 29.4 329.1 28.2 329.1 26.7 Z M 333.8 26.7 C 333.8 25.5 332.9 24.6 331.8 24.6 C 330.7 24.6 329.9 25.5 329.9 26.7 C 329.9 27.9 330.7 28.7 331.8 28.7 C 332.9 28.7 333.8 27.9 333.8 26.7 Z M 342.5 26.1 C 342.53 26.05 342.5 29.3 342.5 29.3 L 341.9 29.3 C 341.9 29.3 341.85 28.49 341.9 28.5 C 341.5 29 340.9 29.4 340 29.4 C 338.9 29.4 338.1 28.7 338.1 27.8 C 338.1 27 338.6 26.3 340.2 26.3 C 340.15 26.34 341.8 26.3 341.8 26.3 C 341.8 26.3 341.82 26.02 341.8 26 C 341.8 25.1 341.3 24.6 340.3 24.6 C 339.7 24.6 339 24.9 338.6 25.3 C 338.6 25.3 338.3 24.7 338.3 24.7 C 338.8 24.3 339.6 24 340.4 24 C 341.8 24 342.5 24.7 342.5 26.1 Z M 341.8 27.7 C 341.82 27.73 341.8 26.9 341.8 26.9 C 341.8 26.9 340.17 26.87 340.2 26.9 C 339.2 26.9 338.8 27.3 338.8 27.8 C 338.8 28.4 339.3 28.8 340.2 28.8 C 341 28.8 341.5 28.4 341.8 27.7 Z M 343.7 28.7 C 343.7 28.7 344.1 28.2 344.1 28.2 C 344.5 28.5 345.2 28.7 345.9 28.7 C 346.9 28.7 347.3 28.4 347.3 27.9 C 347.3 26.5 343.9 27.6 343.9 25.5 C 343.9 24.7 344.7 24 346 24 C 346.7 24 347.4 24.2 347.9 24.5 C 347.9 24.5 347.6 25.1 347.6 25.1 C 347.1 24.8 346.6 24.6 346 24.6 C 345.1 24.6 344.6 25 344.6 25.5 C 344.6 26.9 348.1 25.8 348.1 27.9 C 348.1 28.8 347.3 29.4 345.9 29.4 C 345 29.4 344.2 29.1 343.7 28.7 Z M 348.8 28.7 C 348.8 28.7 349.1 28.2 349.1 28.2 C 349.5 28.5 350.2 28.7 351 28.7 C 352 28.7 352.4 28.4 352.4 27.9 C 352.4 26.5 349 27.6 349 25.5 C 349 24.7 349.7 24 351.1 24 C 351.8 24 352.5 24.2 352.9 24.5 C 352.9 24.5 352.6 25.1 352.6 25.1 C 352.2 24.8 351.6 24.6 351.1 24.6 C 350.1 24.6 349.7 25 349.7 25.5 C 349.7 26.9 353.1 25.8 353.1 27.9 C 353.1 28.8 352.3 29.4 350.9 29.4 C 350.1 29.4 349.2 29.1 348.8 28.7 Z M 359.1 24.1 L 359.1 29.3 L 358.4 29.3 C 358.4 29.3 358.44 28.35 358.4 28.4 C 358.1 29 357.4 29.4 356.6 29.4 C 355.2 29.4 354.3 28.6 354.3 27.1 C 354.33 27.1 354.3 24.1 354.3 24.1 L 355 24.1 C 355 24.1 355.04 27.03 355 27 C 355 28.2 355.6 28.7 356.6 28.7 C 357.7 28.7 358.4 28 358.4 26.8 C 358.41 26.81 358.4 24.1 358.4 24.1 L 359.1 24.1 Z M 369.7 26.3 C 369.66 26.26 369.7 29.3 369.7 29.3 L 369 29.3 C 369 29.3 368.96 26.33 369 26.3 C 369 25.2 368.4 24.7 367.4 24.7 C 366.4 24.7 365.7 25.4 365.7 26.6 C 365.68 26.55 365.7 29.3 365.7 29.3 L 365 29.3 C 365 29.3 364.98 26.33 365 26.3 C 365 25.2 364.4 24.7 363.5 24.7 C 362.4 24.7 361.7 25.4 361.7 26.6 C 361.69 26.55 361.7 29.3 361.7 29.3 L 361 29.3 L 361 24.1 L 361.7 24.1 C 361.7 24.1 361.67 25.01 361.7 25 C 362 24.4 362.7 24 363.6 24 C 364.5 24 365.1 24.4 365.5 25.1 C 365.8 24.4 366.6 24 367.5 24 C 368.8 24 369.7 24.8 369.7 26.3 Z M 376.2 26.9 C 376.2 26.9 371.8 26.9 371.8 26.9 C 371.8 28 372.7 28.7 373.8 28.7 C 374.5 28.7 375 28.5 375.4 28 C 375.4 28 375.8 28.5 375.8 28.5 C 375.4 29.1 374.6 29.4 373.8 29.4 C 372.2 29.4 371.1 28.2 371.1 26.7 C 371.1 25.1 372.1 24 373.6 24 C 375.1 24 376.2 25.1 376.2 26.7 C 376.2 26.7 376.2 26.8 376.2 26.9 Z M 371.8 26.4 C 371.8 26.4 375.5 26.4 375.5 26.4 C 375.4 25.3 374.7 24.6 373.6 24.6 C 372.6 24.6 371.9 25.3 371.8 26.4 Z M 383 29 C 382.7 29.2 382.3 29.4 381.9 29.4 C 380.9 29.4 380.4 28.8 380.4 27.8 C 380.37 27.83 380.4 24.7 380.4 24.7 L 379.4 24.7 L 379.4 24.1 L 380.4 24.1 L 380.4 22.9 L 381.1 22.9 L 381.1 24.1 L 382.7 24.1 L 382.7 24.7 L 381.1 24.7 C 381.1 24.7 381.08 27.79 381.1 27.8 C 381.1 28.4 381.4 28.8 382 28.8 C 382.3 28.8 382.6 28.7 382.8 28.5 C 382.8 28.5 383 29 383 29 Z M 389 26.3 C 389.04 26.26 389 29.3 389 29.3 L 388.3 29.3 C 388.3 29.3 388.34 26.33 388.3 26.3 C 388.3 25.2 387.8 24.7 386.8 24.7 C 385.6 24.7 384.9 25.4 384.9 26.6 C 384.91 26.55 384.9 29.3 384.9 29.3 L 384.2 29.3 L 384.2 21.9 L 384.9 21.9 C 384.9 21.9 384.91 24.97 384.9 25 C 385.3 24.4 386 24 386.9 24 C 388.2 24 389 24.8 389 26.3 Z M 395.5 26.9 C 395.5 26.9 391.1 26.9 391.1 26.9 C 391.2 28 392.1 28.7 393.2 28.7 C 393.8 28.7 394.4 28.5 394.8 28 C 394.8 28 395.2 28.5 395.2 28.5 C 394.7 29.1 394 29.4 393.2 29.4 C 391.5 29.4 390.4 28.2 390.4 26.7 C 390.4 25.1 391.5 24 393 24 C 394.5 24 395.5 25.1 395.5 26.7 C 395.5 26.7 395.5 26.8 395.5 26.9 Z M 391.1 26.4 C 391.1 26.4 394.9 26.4 394.9 26.4 C 394.8 25.3 394 24.6 393 24.6 C 392 24.6 391.2 25.3 391.1 26.4 Z M 402.4 29 C 402.1 29.2 401.7 29.4 401.3 29.4 C 400.3 29.4 399.7 28.8 399.7 27.8 C 399.74 27.83 399.7 24.7 399.7 24.7 L 398.8 24.7 L 398.8 24.1 L 399.7 24.1 L 399.7 22.9 L 400.4 22.9 L 400.4 24.1 L 402 24.1 L 402 24.7 L 400.4 24.7 C 400.4 24.7 400.45 27.79 400.4 27.8 C 400.4 28.4 400.8 28.8 401.4 28.8 C 401.6 28.8 401.9 28.7 402.1 28.5 C 402.1 28.5 402.4 29 402.4 29 Z M 408 26.9 C 408 26.9 403.6 26.9 403.6 26.9 C 403.7 28 404.6 28.7 405.7 28.7 C 406.4 28.7 406.9 28.5 407.3 28 C 407.3 28 407.7 28.5 407.7 28.5 C 407.3 29.1 406.5 29.4 405.7 29.4 C 404.1 29.4 402.9 28.2 402.9 26.7 C 402.9 25.1 404 24 405.5 24 C 407 24 408.1 25.1 408.1 26.7 C 408.1 26.7 408 26.8 408 26.9 Z M 403.6 26.4 C 403.6 26.4 407.4 26.4 407.4 26.4 C 407.3 25.3 406.5 24.6 405.5 24.6 C 404.5 24.6 403.7 25.3 403.6 26.4 Z M 412.1 24 C 412.1 24 412.1 24.7 412.1 24.7 C 412.1 24.7 412 24.7 411.9 24.7 C 410.8 24.7 410.2 25.4 410.2 26.6 C 410.17 26.63 410.2 29.3 410.2 29.3 L 409.5 29.3 L 409.5 24.1 L 410.1 24.1 C 410.1 24.1 410.14 25.08 410.1 25.1 C 410.5 24.4 411.1 24 412.1 24 Z M 422 26.3 C 422.02 26.26 422 29.3 422 29.3 L 421.3 29.3 C 421.3 29.3 421.31 26.33 421.3 26.3 C 421.3 25.2 420.7 24.7 419.8 24.7 C 418.7 24.7 418 25.4 418 26.6 C 418.04 26.55 418 29.3 418 29.3 L 417.3 29.3 C 417.3 29.3 417.33 26.33 417.3 26.3 C 417.3 25.2 416.8 24.7 415.8 24.7 C 414.7 24.7 414 25.4 414 26.6 C 414.05 26.55 414 29.3 414 29.3 L 413.3 29.3 L 413.3 24.1 L 414 24.1 C 414 24.1 414.02 25.01 414 25 C 414.4 24.4 415.1 24 415.9 24 C 416.8 24 417.5 24.4 417.8 25.1 C 418.2 24.4 418.9 24 419.9 24 C 421.2 24 422 24.8 422 26.3 Z M 423.2 28.7 C 423.2 28.7 423.6 28.2 423.6 28.2 C 424 28.5 424.7 28.7 425.4 28.7 C 426.4 28.7 426.8 28.4 426.8 27.9 C 426.8 26.5 423.4 27.6 423.4 25.5 C 423.4 24.7 424.2 24 425.5 24 C 426.2 24 426.9 24.2 427.4 24.5 C 427.4 24.5 427.1 25.1 427.1 25.1 C 426.6 24.8 426.1 24.6 425.5 24.6 C 424.6 24.6 424.1 25 424.1 25.5 C 424.1 26.9 427.6 25.8 427.6 27.9 C 427.6 28.8 426.8 29.4 425.4 29.4 C 424.5 29.4 423.7 29.1 423.2 28.7 Z " stroke="none" fill="#000"/>
  </g>
</svg>