<?xml version="1.0" standalone="no"?>
<!DOCTYPE svg PUBLIC "-//W3C//DTD SVG 1.1//EN" "http://www.w3.org/Graphics/SVG/1.1/DTD/svg11.dtd">
<svg xmlns="http://www.w3.org/2000/svg" version="1.1" width="42px" height="30.5px" viewBox="0 0 42 30.5">
  <desc>Next</desc>
  <defs/>
  <g id="Polygon116771">
    <path d="M 16.1 10.7 L 16.1 17.7 L 15.5 17.7 L 11 12 L 11 17.7 L 10.3 17.7 L 10.3 10.7 L 10.9 10.7 L 15.4 16.4 L 15.4 10.7 L 16.1 10.7 Z M 22.9 15.3 C 22.9 15.3 18.5 15.3 18.5 15.3 C 18.5 16.4 19.4 17.1 20.5 17.1 C 21.2 17.1 21.7 16.9 22.1 16.4 C 22.1 16.4 22.5 16.9 22.5 16.9 C 22.1 17.4 21.3 17.7 20.5 17.7 C 18.9 17.7 17.8 16.6 17.8 15 C 17.8 13.5 18.8 12.4 20.3 12.4 C 21.8 12.4 22.9 13.5 22.9 15 C 22.9 15.1 22.9 15.2 22.9 15.3 Z M 18.5 14.7 C 18.5 14.7 22.2 14.7 22.2 14.7 C 22.1 13.7 21.4 13 20.3 13 C 19.3 13 18.6 13.7 18.5 14.7 Z M 27.5 17.7 L 25.8 15.5 L 24.1 17.7 L 23.3 17.7 L 25.4 15 L 23.4 12.4 L 24.2 12.4 L 25.8 14.5 L 27.4 12.4 L 28.2 12.4 L 26.2 15 L 28.3 17.7 L 27.5 17.7 Z M 32.6 17.4 C 32.3 17.6 31.9 17.7 31.4 17.7 C 30.5 17.7 29.9 17.2 29.9 16.2 C 29.9 16.2 29.9 13 29.9 13 L 29 13 L 29 12.4 L 29.9 12.4 L 29.9 11.3 L 30.6 11.3 L 30.6 12.4 L 32.2 12.4 L 32.2 13 L 30.6 13 C 30.6 13 30.61 16.16 30.6 16.2 C 30.6 16.8 30.9 17.1 31.5 17.1 C 31.8 17.1 32.1 17 32.3 16.9 C 32.3 16.9 32.6 17.4 32.6 17.4 Z " stroke="none" fill="#000"/>
  </g>
</svg>